<svg width="30" height="27" viewBox="0 0 30 27" fill="none" xmlns="http://www.w3.org/2000/svg">
<path d="M2.19067 9.27456C1.54593 9.52666 0.992064 9.96711 0.601306 10.5386C0.210547 11.11 0.0010191 11.7859 2.61284e-06 12.4782V18.5097C-0.000554118 18.9607 0.0878635 19.4073 0.260154 19.8241C0.432444 20.2408 0.685232 20.6195 1.00407 20.9384V23.5372C1.00549 24.4492 1.3683 25.3235 2.01305 25.9686C2.6578 26.6137 3.53193 26.977 4.44399 26.9789H7.45973C8.37164 26.977 9.24568 26.614 9.89067 25.9694C10.5357 25.3247 10.8991 24.4509 10.9015 23.539V21.9532H19.0968V23.539C19.0973 24.4513 19.4598 25.3262 20.1047 25.9714C20.7497 26.6167 21.6244 26.9797 22.5367 26.9806H25.5525C26.4648 26.9802 27.3396 26.6177 27.9849 25.9727C28.6302 25.3277 28.9932 24.4531 28.9942 23.5407V20.942C29.3136 20.6241 29.5668 20.2462 29.7395 19.8299C29.9121 19.4137 30.0006 18.9675 30 18.5169V12.4872C30.0007 11.8055 29.7985 11.1391 29.4192 10.5728C29.04 10.0064 28.5007 9.56568 27.8702 9.30674L27.7628 9.26561L24.9117 2.84752C24.3554 1.71434 23.3989 0.827381 22.2271 0.35792C21.6908 0.129332 21.1151 0.00776875 20.5322 0H8.47095C7.55298 0.0334568 6.66546 0.337854 5.92018 0.874836C5.1749 1.41182 4.60522 2.15737 4.28291 3.01755L2.19067 9.27456ZM9.04009 23.5372C9.03773 23.9568 8.86985 24.3586 8.57293 24.6552C8.276 24.9518 7.87405 25.1192 7.45438 25.1211H4.43863C4.01896 25.1187 3.61717 24.9508 3.32058 24.6539C3.02399 24.357 2.85656 23.955 2.85468 23.5354V21.8995C3.04622 21.9325 3.24021 21.9493 3.43457 21.9497H9.04009V23.5372ZM25.5471 25.1265H22.5349C22.1145 25.126 21.7114 24.9588 21.4141 24.6615C21.1168 24.3642 20.9496 23.9611 20.9492 23.5407V21.955H26.5547C26.7491 21.9547 26.9431 21.9379 27.1346 21.9049V23.5407C27.1341 23.9611 26.9669 24.3642 26.6696 24.6615C26.3724 24.9588 25.9693 25.126 25.5489 25.1265H25.5471ZM28.1404 12.4854V18.5169C28.1381 18.9366 27.9702 19.3383 27.6733 19.6349C27.3763 19.9315 26.9744 20.0989 26.5547 20.1008H3.43812C3.23231 20.1008 3.02855 20.0601 2.83856 19.9809C2.54766 19.8617 2.29876 19.6587 2.12349 19.3977C1.94822 19.1367 1.85451 18.8295 1.85422 18.5151V12.4836C1.85469 12.0632 2.02191 11.6601 2.31919 11.3628C2.61647 11.0655 3.01951 10.8983 3.43992 10.8978H26.5583C26.7641 10.898 26.9679 10.9388 27.1579 11.0178C27.4494 11.1372 27.6986 11.3408 27.8739 11.6025C28.0493 11.8642 28.1427 12.1722 28.1422 12.4872L28.1404 12.4854ZM8.4656 1.84881H20.5268C21.0859 1.88745 21.626 2.06818 22.0958 2.37386C22.5656 2.67954 22.9496 3.10008 23.2114 3.59564L25.6348 9.04008H4.22562L6.04045 3.59919C6.23977 3.10875 6.57338 2.68454 7.00301 2.37523C7.43263 2.06591 7.94082 1.88406 8.46915 1.85061L8.4656 1.84881Z" />
<path d="M6.73895 17.1654C7.77486 17.1654 8.61462 16.3256 8.61462 15.2897C8.61462 14.2538 7.77486 13.4141 6.73895 13.4141C5.70305 13.4141 4.86328 14.2538 4.86328 15.2897C4.86328 16.3256 5.70305 17.1654 6.73895 17.1654Z" fill="#081A3E" fill-opacity="0.3"/>
<path d="M22.8132 17.1615C23.8491 17.1615 24.6888 16.3217 24.6888 15.2858C24.6888 14.2499 23.8491 13.4102 22.8132 13.4102C21.7773 13.4102 20.9375 14.2499 20.9375 15.2858C20.9375 16.3217 21.7773 17.1615 22.8132 17.1615Z" fill="#081A3E" fill-opacity="0.3"/>
</svg>
