<svg width="22" height="21" viewBox="0 0 22 21" fill="none" xmlns="http://www.w3.org/2000/svg">
<path d="M20.4041 9.61448C20.5935 9.42904 20.7274 9.19435 20.7906 8.93688C20.8538 8.67942 20.8439 8.40941 20.7618 8.15731C20.6798 7.90521 20.5289 7.68105 20.3263 7.5101C20.1236 7.33915 19.8773 7.22822 19.615 7.18982L14.8119 6.49217C14.7111 6.47757 14.6154 6.43862 14.533 6.37871C14.4506 6.3188 14.3841 6.23972 14.3391 6.14831L12.1911 1.79272C12.0735 1.55476 11.8918 1.35441 11.6663 1.21432C11.4409 1.07424 11.1808 1 10.9154 1C10.6499 1 10.3898 1.07424 10.1644 1.21432C9.93895 1.35441 9.75719 1.55476 9.63965 1.79272L7.49161 6.14611C7.44658 6.23745 7.38001 6.31649 7.29765 6.37639C7.21528 6.43629 7.11958 6.47527 7.0188 6.48997L2.21576 7.18871C1.95353 7.22729 1.70729 7.33834 1.50479 7.50936C1.3023 7.68037 1.15159 7.90455 1.06967 8.15662C0.987748 8.40869 0.977862 8.67864 1.04113 8.93602C1.10439 9.19341 1.23829 9.42801 1.42774 9.61338L4.90273 13.0013C4.97484 13.0719 5.02891 13.1589 5.06037 13.2548C5.09182 13.3507 5.09975 13.4528 5.08348 13.5524L4.2635 18.3367C4.21863 18.5983 4.24786 18.8673 4.34787 19.1132C4.44789 19.3591 4.61471 19.5722 4.82947 19.7282C5.04423 19.8843 5.29836 19.9771 5.56314 19.9963C5.82792 20.0155 6.09278 19.9602 6.32777 19.8367L10.626 17.5784C10.7163 17.531 10.8167 17.5062 10.9187 17.5062C11.0206 17.5062 11.121 17.531 11.2113 17.5784L15.5096 19.8367C15.7445 19.9602 16.0094 20.0155 16.2742 19.9963C16.539 19.9771 16.7931 19.8843 17.0079 19.7282C17.2226 19.5722 17.3894 19.3591 17.4895 19.1132C17.5895 18.8673 17.6187 18.5983 17.5738 18.3367L16.7527 13.5535C16.7364 13.4538 16.7443 13.3518 16.7757 13.2558C16.8072 13.1599 16.8613 13.073 16.9335 13.0024L20.4041 9.61448ZM15.9647 13.6923L16.7847 18.4755C16.8043 18.591 16.7912 18.7096 16.747 18.818C16.7027 18.9265 16.629 19.0204 16.5343 19.0891C16.4395 19.1579 16.3274 19.1988 16.2106 19.2072C16.0938 19.2157 15.9769 19.1913 15.8733 19.1368L11.575 16.8775C11.371 16.7704 11.1441 16.7145 10.9137 16.7145C10.6833 16.7145 10.4564 16.7704 10.2524 16.8775L5.95526 19.1335C5.85158 19.188 5.73475 19.2123 5.61795 19.2039C5.50115 19.1955 5.38903 19.1546 5.29425 19.0858C5.19946 19.0171 5.12578 18.9232 5.08153 18.8147C5.03728 18.7063 5.02421 18.5877 5.0438 18.4722L5.86378 13.689C5.90287 13.4616 5.88608 13.2281 5.81485 13.0087C5.74361 12.7892 5.62008 12.5904 5.45489 12.4293L1.981 9.04579C1.89714 8.96395 1.83784 8.86029 1.8098 8.74651C1.78176 8.63274 1.7861 8.51339 1.82233 8.40196C1.85855 8.29052 1.92523 8.19144 2.01481 8.11591C2.1044 8.04037 2.21332 7.9914 2.32927 7.97453L7.13232 7.27688C7.36064 7.24391 7.5775 7.15583 7.76414 7.02026C7.95079 6.8847 8.10162 6.70571 8.20358 6.49878L10.3516 2.1443C10.4034 2.03897 10.4837 1.95026 10.5833 1.88823C10.683 1.82619 10.798 1.79331 10.9154 1.79331C11.0327 1.79331 11.1478 1.82619 11.2474 1.88823C11.347 1.95026 11.4273 2.03897 11.4791 2.1443L13.626 6.49768C13.7279 6.70467 13.8787 6.8837 14.0654 7.01928C14.252 7.15486 14.4689 7.2429 14.6973 7.27578L19.5003 7.97342C19.6163 7.9903 19.7252 8.03927 19.8148 8.11481C19.9044 8.19034 19.9711 8.28942 20.0073 8.40086C20.0435 8.51229 20.0479 8.63164 20.0198 8.74541C19.9918 8.85919 19.9325 8.96285 19.8486 9.04469L16.3736 12.4326C16.2084 12.5936 16.0848 12.7925 16.0135 13.012C15.9423 13.2314 15.9255 13.4649 15.9647 13.6923Z" fill="white" stroke="white" stroke-width="0.6"/>
</svg>
