<svg width="30" height="30" viewBox="0 0 30 30" fill="none" xmlns="http://www.w3.org/2000/svg">
<path d="M25.7848 2.09967C24.2795 0.596987 21.8418 0.596987 20.3365 2.09967L18.9726 3.47097L4.45468 17.9812L4.42383 18.0123C4.41635 18.0198 4.41635 18.0277 4.4084 18.0277C4.39297 18.0509 4.36983 18.0738 4.35465 18.0969C4.35465 18.1046 4.34669 18.1046 4.34669 18.1123C4.33127 18.1355 4.32379 18.1509 4.30812 18.174C4.30065 18.1818 4.30065 18.1892 4.29294 18.1972C4.28523 18.2203 4.27751 18.2357 4.26956 18.2589C4.26956 18.2664 4.26209 18.2664 4.26209 18.2743L1.04099 27.9605C0.946502 28.2363 1.01833 28.5417 1.22587 28.7463C1.37171 28.8902 1.5684 28.9707 1.77305 28.97C1.85669 28.9685 1.93961 28.9555 2.01964 28.9314L11.6983 25.7026C11.7058 25.7026 11.7058 25.7026 11.7138 25.6951C11.7381 25.6879 11.7615 25.6776 11.783 25.6641C11.789 25.6633 11.7943 25.6607 11.7986 25.6566C11.8215 25.6412 11.8524 25.6255 11.8755 25.6101C11.8984 25.5949 11.9218 25.5717 11.9449 25.5563C11.9526 25.5483 11.9601 25.5483 11.9601 25.5409C11.9681 25.5332 11.9835 25.5257 11.9912 25.51L27.873 9.62825C29.3757 8.12292 29.3757 5.68522 27.873 4.18013L25.7848 2.09967ZM11.4518 23.8916L6.08849 18.5286L19.5121 5.10502L24.8753 10.468L11.4518 23.8916ZM5.33305 19.9542L10.0185 24.6394L2.98286 26.9818L5.33305 19.9542ZM26.7866 8.54933L25.9697 9.37394L20.6062 4.01043L21.431 3.18606C22.3333 2.28455 23.7957 2.28455 24.6982 3.18606L26.7941 5.28195C27.6896 6.18828 27.6862 7.64733 26.7866 8.54933Z" fill="#081A3E" fill-opacity="0.3"/>
<path d="M20.2656 2.02915L20.2658 2.02889C21.8102 0.487244 24.3111 0.487244 25.8555 2.02889L27.9436 4.10929L27.9438 4.10948C29.4854 5.65361 29.4854 8.15453 27.9438 9.69889L27.9437 9.69896L12.0702 25.5725C12.0593 25.5882 12.0473 25.599 12.0393 25.6056C12.0387 25.6061 12.0381 25.6067 12.0374 25.6072C12.0268 25.6207 12.0155 25.6285 12.0118 25.631C12.0118 25.631 12.0117 25.631 12.0117 25.6311L12.0093 25.6336L12.0004 25.6395C11.994 25.6438 11.9865 25.6499 11.9739 25.6603L11.9726 25.6614C11.9619 25.6702 11.9468 25.6828 11.9308 25.6934M20.2656 2.02915L11.8755 25.6101M20.2656 2.02915L18.9019 3.40024L18.9017 3.40046L4.38399 17.9105L4.3837 17.9108M20.2656 2.02915L4.3837 17.9108M11.9308 25.6934L11.8755 25.6101M11.9308 25.6934C11.9308 25.6934 11.9309 25.6933 11.931 25.6933L11.8755 25.6101M11.9308 25.6934C11.916 25.7032 11.8996 25.7126 11.887 25.7199C11.875 25.7268 11.8658 25.7322 11.8584 25.737M11.8755 25.6101C11.8641 25.6176 11.8509 25.6253 11.8376 25.6329C11.8239 25.6408 11.8103 25.6487 11.7986 25.6566M11.8584 25.737C11.8615 25.7345 11.8644 25.732 11.8673 25.7293L11.7986 25.6566M11.8584 25.737C11.8479 25.7452 11.836 25.752 11.8228 25.7567M11.8584 25.737C11.857 25.7378 11.8557 25.7387 11.8545 25.7395L11.7986 25.6566M11.7986 25.6566L11.8228 25.7567M11.8228 25.7567C11.8273 25.7541 11.8318 25.7515 11.8362 25.7487L11.783 25.6641L11.7949 25.7633C11.8047 25.7622 11.814 25.7599 11.8228 25.7567ZM11.8228 25.7567C11.8032 25.7679 11.7828 25.7772 11.762 25.7846M11.8228 25.7567L11.7138 25.6951M11.762 25.7846C11.7675 25.7809 11.7716 25.7776 11.7738 25.7756C11.7771 25.7729 11.7804 25.7698 11.7819 25.7684L11.7822 25.768L11.7138 25.6951M11.762 25.7846C11.7554 25.7869 11.7489 25.789 11.7422 25.791L11.7138 25.6951M11.762 25.7846C11.7584 25.7869 11.7542 25.7894 11.7495 25.7917C11.7382 25.7971 11.7276 25.7999 11.7187 25.8013M11.7138 25.6951C11.7091 25.6995 11.7072 25.7013 11.7049 25.7021C11.7033 25.7026 11.7015 25.7026 11.6983 25.7026M11.7187 25.8013L11.73 25.7975L11.6983 25.7026M11.7187 25.8013L2.05128 29.0263L2.04849 29.0272L2.04848 29.0272C1.9597 29.0539 1.86766 29.0684 1.77478 29.07L1.7734 29.07C1.54227 29.0708 1.32023 28.9799 1.15566 28.8175M11.7187 25.8013C11.7166 25.8016 11.7146 25.8018 11.7127 25.802C11.7055 25.8027 11.6984 25.8026 11.6983 25.8026V25.7026M11.6983 25.7026L1.15566 28.8175M1.15566 28.8175L1.22587 28.7463L1.15564 28.8175C1.15564 28.8175 1.15565 28.8175 1.15566 28.8175ZM1.15566 28.8175C0.920854 28.586 0.839524 28.2405 0.946242 27.9285C0.946291 27.9284 0.946341 27.9282 0.946391 27.9281L4.16476 18.2501C4.16505 18.2488 4.16536 18.2475 4.1657 18.2462C4.16827 18.2365 4.17199 18.2278 4.17627 18.2203C4.17701 18.219 4.17775 18.2177 4.1785 18.2165C4.18194 18.2071 4.18522 18.199 4.18796 18.1922L4.18859 18.1906C4.19244 18.1811 4.19527 18.1739 4.19807 18.1656L4.20528 18.1439L4.21435 18.1346C4.21718 18.1293 4.2217 18.1218 4.22818 18.1137C4.23294 18.1064 4.2369 18.0999 4.24163 18.0919L4.24241 18.0906C4.24592 18.0848 4.24991 18.0781 4.25465 18.0705M1.15566 28.8175L4.25465 18.0705M4.3837 17.9108L4.36687 17.9277H4.35488M4.3837 17.9108L4.35488 17.9277M4.35488 17.9277L4.32519 17.9723M4.35488 17.9277L4.32519 17.9723M4.32519 17.9723C4.32105 17.9785 4.31517 17.9857 4.30468 17.9982L4.30369 17.9994C4.29482 18.01 4.28194 18.0254 4.27104 18.042L4.25465 18.067M4.32519 17.9723L4.25465 18.067M4.25465 18.067V18.0705M4.25465 18.067V18.0705M4.35558 17.9446L4.4084 17.997L4.42383 18.0123L4.4084 17.9969L4.35558 17.9446ZM26.7158 8.47871L26.7156 8.47895L25.9694 9.23219L20.7476 4.01046L21.5017 3.25679C22.3649 2.39431 23.7641 2.39429 24.6275 3.25681L26.7229 5.35223C26.723 5.35227 26.723 5.35231 26.7231 5.35235C27.5798 6.21962 27.5765 7.61566 26.7158 8.47871ZM11.4518 23.7502L6.22991 18.5286L19.5121 5.24644L24.7339 10.4681L11.4518 23.7502ZM3.14117 26.8237L5.37663 20.1392L9.83332 24.5956L3.14117 26.8237Z" stroke="#081A3E" stroke-opacity="0.3" stroke-width="0.2"/>
</svg>
