<svg width="37" height="42" viewBox="0 0 37 42" fill="none" xmlns="http://www.w3.org/2000/svg">
<path d="M30.2985 26.7886H24.5088V25.6866C24.5088 24.2124 23.6143 22.9439 22.3403 22.3935C22.7833 19.7594 23.4983 17.2799 25.7707 13.2943L25.7099 13.2596L25.7707 13.2943C26.4785 12.0528 26.8526 10.6376 26.8526 9.20141C26.8526 4.6254 23.1372 0.895729 18.5003 0.930238C14.3839 0.960889 11.1499 3.96426 10.4597 7.58408C10.0329 9.82245 10.4995 12.069 11.7745 13.9088C13.4887 16.3828 14.3222 19.4423 14.8179 22.3935C13.5439 22.9439 12.6494 24.2124 12.6494 25.6866V26.7886H6.85968C3.59001 26.7886 0.93 29.4486 0.93 32.7183V35.1403C0.93 35.8262 1.48602 36.3823 2.17195 36.3823H3.2739V37.4842C3.2739 39.4615 4.88243 41.07 6.85968 41.07H30.2984C32.2757 41.07 33.8843 39.4615 33.8843 37.4842V36.3823H34.9862C35.6721 36.3823 36.2282 35.8262 36.2282 35.1403V32.7183C36.2282 29.4486 33.5682 26.7886 30.2985 26.7886ZM13.8162 12.4942C12.9243 11.207 12.5985 9.62887 12.8997 8.04936C13.3711 5.57697 15.6415 3.37774 18.6564 3.41101C21.8302 3.44605 24.3687 6.04611 24.3687 9.20141C24.3687 10.207 24.1073 11.1968 23.6129 12.064C21.1765 16.3373 20.3829 19.0545 19.8708 22.1009H17.2871C16.7212 18.7282 15.7912 15.3444 13.8162 12.4942ZM22.0249 25.6866V26.7886H15.1333V25.6866C15.1333 25.0791 15.6276 24.5847 16.2352 24.5847H20.923C21.5306 24.5848 22.0249 25.0791 22.0249 25.6866ZM31.4005 37.4842C31.4005 38.0917 30.9061 38.5862 30.2985 38.5862H6.85976C6.25225 38.5862 5.75781 38.0918 5.75781 37.4842V36.3823H31.4005V37.4842ZM33.7444 33.8984H33.7327H33.7199H33.7066H33.6927H33.6783H33.6633H33.6478H33.6317H33.6151H33.5979H33.5802H33.562H33.5432H33.5239H33.504H33.4836H33.4627H33.4413H33.4193H33.3968H33.3738H33.3503H33.3263H33.3017H33.2767H33.2511H33.2251H33.1985H33.1714H33.1438H33.1158H33.0872H33.0582H33.0286H32.9986H32.9681H32.937H32.9056H32.8736H32.8412H32.8082H32.7748H32.741H32.7067H32.6719H32.6366H32.6009H32.5647H32.5281H32.491H32.4534H32.4154H32.377H32.3381H32.2988H32.259H32.2188H32.1781H32.137H32.0955H32.0536H32.0112H31.9684H31.9251H31.8815H31.8374H31.7929H31.748H31.7027H31.657H31.6108H31.5643H31.5173H31.47H31.4222H31.3741H31.3256H31.2766H31.2273H31.1776H31.1275H31.077H31.0261H30.9749H30.9233H30.8712H30.8189H30.7661H30.713H30.6595H30.6057H30.5515H30.4969H30.442H30.3867H30.3311H30.2751H30.2188H30.1621H30.1051H30.0477H29.99H29.9319H29.8736H29.8148H29.7558H29.6964H29.6367H29.5767H29.5163H29.4557H29.3947H29.3334H29.2718H29.2099H29.1476H29.0851H29.0222H28.9591H28.8956H28.8319H28.7678H28.7035H28.6389H28.5739H28.5087H28.4432H28.3775H28.3114H28.2451H28.1785H28.1116H28.0445H27.977H27.9093H27.8414H27.7732H27.7047H27.636H27.567H27.4977H27.4282H27.3585H27.2885H27.2182H27.1478H27.077H27.0061H26.9349H26.8635H26.7918H26.7199H26.6478H26.5754H26.5029H26.4301H26.3571H26.2838H26.2104H26.1368H26.0629H25.9888H25.9146H25.8401H25.7654H25.6905H25.6155H25.5402H25.4648H25.3891H25.3133H25.2373H25.1611H25.0847H25.0081H24.9314H24.8545H24.7774H24.7001H24.6227H24.5451H24.4674H24.3895H24.3114H24.2332H24.1548H24.0762H23.9976H23.9187H23.8398H23.7606H23.6814H23.602H23.5224H23.4428H23.363H23.283H23.203H23.1228H23.0425H22.962H22.8815H22.8008H22.72H22.6391H22.5581H22.477H22.3958H22.3145H22.2331H22.1515H22.0699H21.9882H21.9064H21.8245H21.7425H21.6605H21.5783H21.4961H21.4137H21.3314H21.2489H21.1664H21.0837H21.0011H20.9183H20.8355H20.7526H20.6697H20.5867H20.5037H20.4206H20.3375H20.2543H20.171H20.0877H20.0044H19.9211H19.8377H19.7542H19.6708H19.5873H19.5037H19.4202H19.3366H19.253H19.1694H19.0857H19.0021H18.9184H18.8348H18.7511H18.6674H18.5837H18.5H18.4163H18.3326H18.2489H18.1652H18.0816H17.9979H17.9143H17.8306H17.747H17.6634H17.5799H17.4963H17.4128H17.3293H17.2459H17.1624H17.079H16.9957H16.9124H16.8291H16.7459H16.6627H16.5796H16.4965H16.4135H16.3305H16.2476H16.1648H16.082H15.9993H15.9166H15.834H15.7515H15.6691H15.5867H15.5044H15.4222H15.3401H15.258H15.1761H15.0942H15.0124H14.9307H14.8491H14.7677H14.6863H14.605H14.5238H14.4427H14.3617H14.2809H14.2001H14.1195H14.039H13.9586H13.8783H13.7982H13.7182H13.6383H13.5585H13.4789H13.3994H13.32H13.2408H13.1618H13.0828H13.004H12.9254H12.8469H12.7686H12.6904H12.6124H12.5345H12.4568H12.3793H12.3019H12.2247H12.1477H12.0709H11.9942H11.9177H11.8413H11.7652H11.6892H11.6135H11.5379H11.4625H11.3873H11.3123H11.2375H11.1629H11.0885H11.0142H10.9402H10.8665H10.7929H10.7195H10.6464H10.5734H10.5007H10.4282H10.3559H10.2839H10.2121H10.1405H10.0691H9.998H9.92712H9.85648H9.78607H9.71591H9.646H9.57633H9.50692H9.43775H9.36884H9.30019H9.2318H9.16366H9.0958H9.02819H8.96086H8.89379H8.827H8.76048H8.69424H8.62827H8.56259H8.49719H8.43208H8.36726H8.30272H8.23848H8.17453H8.11088H8.04752H7.98447H7.92172H7.85928H7.79714H7.73531H7.6738H7.6126H7.55171H7.49115H7.4309H7.37098H7.31139H7.25212H7.19318H7.13457H7.0763H7.01836H6.96077H6.90351H6.8466H6.79003H6.73381H6.67793H6.62242H6.56725H6.51244H6.45799H6.4039H6.35017H6.29681H6.24381H6.19119H6.13893H6.08705H6.03555H5.98443H5.93368H5.88332H5.83334H5.78375H5.73455H5.68574H5.63733H5.58931H5.54169H5.49447H5.44765H5.40124H5.35523H5.30963H5.26445H5.21968H5.17532H5.13139H5.08787H5.04478H5.00211H4.95986H4.91805H4.87667H4.83572H4.79521H4.75514H4.7155H4.67631H4.63756H4.59926H4.56141H4.52401H4.48707H4.45058H4.41455H4.37897H4.34386H4.30922H4.27504H4.24133H4.20809H4.17533H4.14304H4.11123H4.0799H4.04905H4.01868H3.9888H3.95941H3.93052H3.90211H3.8742H3.84679H3.81988H3.79347H3.76757H3.74217H3.71728H3.6929H3.66903H3.64568H3.62285H3.60054H3.57875H3.55748H3.53674H3.51653H3.49685H3.4777H3.45909H3.44102H3.42348H3.41398V32.7183C3.41398 30.8183 4.95983 29.2725 6.85976 29.2725H6.86335H6.86738H6.87185H6.87677H6.88213H6.88793H6.89417H6.90085H6.90796H6.9155H6.92348H6.93189H6.94072H6.94998H6.95967H6.96978H6.98031H6.99127H7.00264H7.01443H7.02663H7.03925H7.05227H7.06571H7.07956H7.09382H7.10848H7.12354H7.13901H7.15487H7.17114H7.1878H7.20485H7.22231H7.24015H7.25838H7.277H7.29601H7.31541H7.33518H7.35534H7.37589H7.3968H7.4181H7.43977H7.46182H7.48424H7.50703H7.53018H7.55371H7.5776H7.60185H7.62647H7.65145H7.67678H7.70248H7.72852H7.75493H7.78168H7.80879H7.83624H7.86404H7.89219H7.92068H7.94952H7.97869H8.00821H8.03806H8.06824H8.09877H8.12962H8.1608H8.19232H8.22416H8.25632H8.28881H8.32163H8.35476H8.38822H8.42199H8.45607H8.49047H8.52519H8.56021H8.59554H8.63119H8.66713H8.70338H8.73994H8.77679H8.81395H8.8514H8.88915H8.92719H8.96552H9.00415H9.04306H9.08227H9.12176H9.16153H9.20159H9.24192H9.28254H9.32343H9.3646H9.40605H9.44777H9.48976H9.53201H9.57454H9.61733H9.66039H9.70371H9.74729H9.79113H9.83523H9.87958H9.92419H9.96906H10.0142H10.0595H10.1051H10.151H10.1971H10.2434H10.29H10.3369H10.3839H10.4312H10.4788H10.5265H10.5745H10.6228H10.6712H10.7199H10.7688H10.8179H10.8673H10.9169H10.9667H11.0167H11.0669H11.1173H11.168H11.2188H11.2699H11.3212H11.3726H11.4243H11.4762H11.5283H11.5806H11.633H11.6857H11.7386H11.7916H11.8449H11.8983H11.9519H12.0057H12.0597H12.1139H12.1682H12.2228H12.2775H12.3324H12.3874H12.4426H12.498H12.5536H12.6093H12.6652H12.7213H12.7775H12.8339H12.8904H12.9471H13.004H13.061H13.1182H13.1755H13.2329H13.2905H13.3483H13.4062H13.4642H13.5224H13.5807H13.6392H13.6977H13.7565H13.8153H13.8743H13.9334H13.9926H14.052H14.1115H14.1711H14.2308H14.2907H14.3506H14.4107H14.4709H14.5312H14.5917H14.6522H14.7128H14.7736H14.8344H14.8953H14.9564H15.0175H15.0788H15.1401H15.2015H15.2631H15.3247H15.3864H15.4482H15.5101H15.572H15.6341H15.6962H15.7584H15.8207H15.883H15.9454H16.0079H16.0705H16.1332H16.1959H16.2586H16.3215H16.3844H16.4473H16.5104H16.5735H16.6366H16.6998H16.763H16.8263H16.8897H16.953H17.0165H17.08H17.1435H17.207H17.2706H17.3343H17.398H17.4617H17.5254H17.5892H17.653H17.7168H17.7807H17.8446H17.9085H17.9724H18.0363H18.1003H18.1643H18.2283H18.2923H18.3563H18.4203H18.4843H18.5484H18.6124H18.6765H18.7405H18.8046H18.8686H18.9327H18.9967H19.0607H19.1247H19.1888H19.2528H19.3167H19.3807H19.4447H19.5086H19.5725H19.6364H19.7003H19.7641H19.8279H19.8917H19.9555H20.0192H20.0829H20.1465H20.2101H20.2737H20.3373H20.4008H20.4642H20.5276H20.591H20.6543H20.7176H20.7808H20.8439H20.907H20.9701H21.0331H21.096H21.1589H21.2217H21.2844H21.3471H21.4097H21.4722H21.5347H21.5971H21.6594H21.7216H21.7838H21.8458H21.9078H21.9698H22.0316H22.0933H22.155H22.2165H22.278H22.3394H22.4007H22.4619H22.5229H22.5839H22.6448H22.7056H22.7663H22.8269H22.8873H22.9477H23.0079H23.068H23.1281H23.188H23.2477H23.3074H23.3669H23.4264H23.4856H23.5448H23.6039H23.6628H23.7215H23.7802H23.8387H23.8971H23.9553H24.0134H24.0713H24.1292H24.1868H24.2443H24.3017H24.3589H24.416H24.4729H24.5297H24.5863H24.6427H24.699H24.7552H24.8111H24.8669H24.9226H24.978H25.0333H25.0885H25.1434H25.1982H25.2528H25.3072H25.3615H25.4156H25.4694H25.5231H25.5767H25.63H25.6831H25.7361H25.7888H25.8414H25.8937H25.9459H25.9979H26.0496H26.1012H26.1526H26.2037H26.2547H26.3054H26.3559H26.4062H26.4563H26.5062H26.5559H26.6053H26.6546H26.7036H26.7523H26.8009H26.8492H26.8973H26.9452H26.9928H27.0402H27.0874H27.1343H27.181H27.2274H27.2736H27.3196H27.3653H27.4108H27.456H27.501H27.5457H27.5902H27.6344H27.6783H27.722H27.7654H27.8086H27.8515H27.8942H27.9365H27.9786H28.0205H28.062H28.1033H28.1443H28.1851H28.2255H28.2657H28.3056H28.3452H28.3845H28.4236H28.4623H28.5008H28.5389H28.5768H28.6144H28.6517H28.6886H28.7253H28.7617H28.7978H28.8336H28.869H28.9042H28.939H28.9736H29.0078H29.0417H29.0753H29.1085H29.1415H29.1741H29.2064H29.2384H29.27H29.3014H29.3324H29.363H29.3934H29.4234H29.453H29.4823H29.5113H29.5399H29.5682H29.5962H29.6238H29.651H29.6779H29.7045H29.7307H29.7565H29.782H29.8072H29.8319H29.8563H29.8804H29.9041H29.9274H29.9503H29.9729H29.9951H30.0169H30.0384H30.0595H30.0802H30.1005H30.1204H30.14H30.1592H30.178H30.1964H30.2144H30.232H30.2492H30.266H30.2825H30.2985C32.1984 29.2725 33.7444 30.8184 33.7444 32.7183V33.8984Z" fill="#081A3E" stroke="#081A3E" stroke-width="0.14"/>
</svg>
