<svg width="280" height="216" viewBox="0 0 280 216" fill="none" xmlns="http://www.w3.org/2000/svg">
<path d="M-187 76.0071C-187 65.921 -179.49 57.4131 -169.481 56.1617L257.185 2.81109C269.123 1.31845 279.667 10.6263 279.667 22.6566V53.4562C279.667 63.5423 272.156 72.0502 262.148 73.3016L-164.519 126.652C-176.456 128.145 -187 118.837 -187 106.807V76.0071Z" fill="#CDE4FF"/>
<path d="M-306 162.327C-306 152.241 -298.49 143.733 -288.481 142.482L138.185 89.1314C150.123 87.6388 160.667 96.9466 160.667 108.977V139.776C160.667 149.863 153.156 158.371 143.148 159.622L-283.519 212.973C-295.456 214.465 -306 205.157 -306 193.127V162.327Z" fill="#B8D9FF"/>
</svg>
