<svg width="492" height="236" viewBox="0 0 492 236" fill="none" xmlns="http://www.w3.org/2000/svg">
<path fill-rule="evenodd" clip-rule="evenodd" d="M24.9108 233.647C30.1374 235.338 36.5955 235.338 49.5118 235.338H442.749C455.665 235.338 462.123 235.338 467.35 233.647C477.913 230.228 486.194 221.98 489.627 211.459C491.325 206.254 491.325 199.822 491.325 186.957V49.3018C491.325 36.4374 491.325 30.0053 489.627 24.7997C486.194 14.279 477.913 6.03061 467.35 2.61223C462.123 0.920853 455.665 0.920853 442.749 0.920853H49.5118C36.5955 0.920853 30.1374 0.920853 24.9108 2.61223C14.3476 6.03061 6.06594 14.279 2.63376 24.7997C0.935547 30.0053 0.935547 36.4374 0.935547 49.3018V186.957C0.935547 199.822 0.935547 206.254 2.63376 211.459C6.06594 221.98 14.3476 230.228 24.9108 233.647ZM12.2122 177.166H14.8145L14.8132 177.125L15.1036 177.166C21.9703 177.166 27.5368 171.622 27.5368 164.783V71.4768C27.5368 64.6378 21.9703 59.0936 15.1036 59.0936L14.8132 59.1349L14.8145 59.0938H12.2122C10.4556 59.0938 9.0316 57.6755 9.0316 55.926L9.03158 48.5074C9.03158 36.9099 9.03158 31.1111 10.7862 26.4864C13.5441 19.2172 19.3054 13.479 26.6039 10.7323C31.2473 8.98471 37.0695 8.98471 48.7138 8.98471H443.547C455.191 8.98471 461.013 8.98471 465.657 10.7323C472.955 13.479 478.716 19.2172 481.474 26.4864C483.229 31.1111 483.229 36.9099 483.229 48.5074V187.752C483.229 199.35 483.229 205.149 481.474 209.773C478.716 217.043 472.955 222.781 465.657 225.528C461.013 227.275 455.191 227.275 443.547 227.275H48.7138C37.0695 227.275 31.2473 227.275 26.6039 225.528C19.3054 222.781 13.5441 217.043 10.7862 209.773C9.03158 205.149 9.03158 199.35 9.03158 187.752L9.0316 180.334C9.0316 178.584 10.4556 177.166 12.2122 177.166Z" fill="#121515"/>
</svg>
