<svg width="281" height="188" viewBox="0 0 281 188" fill="none" xmlns="http://www.w3.org/2000/svg">
<path d="M100.891 134.435C100.891 124.352 108.396 115.846 118.4 114.59L758.4 34.268C770.34 32.7694 780.891 42.0783 780.891 54.1123V84.9096C780.891 94.9923 773.385 103.498 763.381 104.754L123.381 185.076C111.441 186.575 100.891 177.266 100.891 165.232V134.435Z" fill="#CDE4FF"/>
<path d="M0.667969 76.0071C0.667969 65.921 8.17826 57.4131 18.1865 56.1617L444.853 2.81109C456.79 1.31845 467.335 10.6263 467.335 22.6566V53.4562C467.335 63.5423 459.824 72.0502 449.816 73.3016L23.1495 126.652C11.2121 128.145 0.667969 118.837 0.667969 106.807V76.0071Z" fill="#B8D9FF"/>
</svg>
