<svg width="80" height="80" viewBox="0 0 80 80" fill="none" xmlns="http://www.w3.org/2000/svg">
<rect width="80" height="80" rx="12" fill="#EEF2F6"/>
<path opacity="0.4" d="M58 30V50C58 56 55 60 48 60H32C25 60 22 56 22 50V30C22 24 25 20 32 20H48C55 20 58 24 58 30Z" fill="#155EEF"/>
<path d="M53 34.5H49C45.96 34.5 43.5 32.04 43.5 29V25C43.5 24.18 44.18 23.5 45 23.5C45.82 23.5 46.5 24.18 46.5 25V29C46.5 30.38 47.62 31.5 49 31.5H53C53.82 31.5 54.5 32.18 54.5 33C54.5 33.82 53.82 34.5 53 34.5Z" fill="#155EEF"/>
<path d="M40 43.5H32C31.18 43.5 30.5 42.82 30.5 42C30.5 41.18 31.18 40.5 32 40.5H40C40.82 40.5 41.5 41.18 41.5 42C41.5 42.82 40.82 43.5 40 43.5Z" fill="#155EEF"/>
<path d="M48 51.5H32C31.18 51.5 30.5 50.82 30.5 50C30.5 49.18 31.18 48.5 32 48.5H48C48.82 48.5 49.5 49.18 49.5 50C49.5 50.82 48.82 51.5 48 51.5Z" fill="#155EEF"/>
</svg>
