<svg id="Layer_1" data-name="Layer 1" xmlns="http://www.w3.org/2000/svg" viewBox="0 0 22.1 19.01">
  <g>
    <path class="cls-1" d="M22.76,16.9l-9-15A2,2,0,0,0,13,1.21a2.09,2.09,0,0,0-2,0,2,2,0,0,0-.74.72l-9,15a2.08,2.08,0,0,0-.29,1,2,2,0,0,0,.26,1,2.07,2.07,0,0,0,.75.75A2,2,0,0,0,3,20H21a2,2,0,0,0,1-.28,2.07,2.07,0,0,0,.75-.75,2.16,2.16,0,0,0,.26-1A2.08,2.08,0,0,0,22.76,16.9Zm-11-14.35A.4.4,0,0,1,12,2.48a.42.42,0,0,1,.24.07.42.42,0,0,1,.18.17l9,15a.51.51,0,0,1,.07.24.43.43,0,0,1-.07.25v0a.52.52,0,0,1-.42.23H3a.66.66,0,0,1-.25-.07.47.47,0,0,1-.18-.19.52.52,0,0,1-.07-.25.53.53,0,0,1,.08-.24l9-15A.42.42,0,0,1,11.76,2.55Z" transform="translate(-0.95 -0.95)"/>
    <path class="cls-1" d="M11.17,13.14c0,.4.31.63.84.63.31,0,.82-.17.82-.63,0-.79,0-1.77.09-2.72S13,8.5,13,7.7a.88.88,0,0,0-.32-.65.92.92,0,0,0-.32-.18,1.14,1.14,0,0,0-.37,0,.9.9,0,0,0-1,.86c0,.8,0,1.78.09,2.73S11.17,12.35,11.17,13.14Z" transform="translate(-0.95 -0.95)"/>
    <path class="cls-1" d="M11.26,16.42a1,1,0,0,0,.35.23,1,1,0,0,0,.41.09,1.08,1.08,0,0,0,.74-.33,1.09,1.09,0,0,0,.32-.75A1.08,1.08,0,0,0,12,14.59h0a1.15,1.15,0,0,0-.41.08,1,1,0,0,0-.58.58,1,1,0,0,0-.08.41.94.94,0,0,0,.08.41A.93.93,0,0,0,11.26,16.42Z" transform="translate(-0.95 -0.95)"/>
  </g>
</svg>
