<svg width="94" height="27" viewBox="0 0 94 27" fill="none" xmlns="http://www.w3.org/2000/svg">
<path d="M90.2104 0H3.19122C1.42876 0 0 1.42876 0 3.19122V23.8088C0 25.5712 1.42876 27 3.19122 27H90.2104C91.9729 27 93.4017 25.5712 93.4017 23.8088V3.19122C93.4017 1.42876 91.9729 0 90.2104 0Z" fill="white"/>
<path d="M30.9781 7.51976L30.5846 8.817H29.7197L31.177 4.26367H32.2364L33.7239 8.817H32.8331L32.4007 7.51976H30.9781ZM32.2753 6.89276L31.9207 5.7901C31.8342 5.51335 31.7607 5.20201 31.6915 4.92527C31.6267 5.18904 31.5575 5.50903 31.4753 5.7901L31.1251 6.91005L32.2753 6.89276Z" fill="#0A1C3B"/>
<path d="M34.9649 5.52637L35.4967 7.19549C35.5919 7.48521 35.661 7.74898 35.7216 8.01708H35.7432C35.8037 7.74898 35.8772 7.49386 35.9637 7.19549L36.4913 5.52637H37.3561L36.1064 8.81705H35.2892L34.0654 5.52637H34.9649Z" fill="#0A1C3B"/>
<path d="M40.6729 8.02544C40.6687 8.29034 40.6875 8.55511 40.7291 8.81676H39.981L39.9205 8.44921C39.8029 8.59167 39.6537 8.70488 39.4849 8.77992C39.3161 8.85496 39.1321 8.88977 38.9476 8.88162C38.8142 8.88931 38.6807 8.86957 38.5553 8.82364C38.4298 8.77771 38.3152 8.70655 38.2183 8.61457C38.1215 8.52258 38.0445 8.41172 37.9922 8.28882C37.9398 8.16593 37.9133 8.03361 37.9141 7.90004C37.9141 7.07845 38.6492 6.65468 39.8643 6.65901V6.60712C39.8643 6.39091 39.7778 6.03201 39.1984 6.03201C38.8864 6.03132 38.5801 6.11499 38.3119 6.27416L38.1519 5.73364C38.5162 5.53479 38.9262 5.4349 39.3411 5.44392C40.3918 5.44392 40.6945 6.11416 40.6945 6.8363L40.6729 8.02544ZM39.8643 7.20817C39.2762 7.20817 38.7184 7.32493 38.7184 7.8222C38.7124 7.8856 38.7204 7.94954 38.742 8.00946C38.7635 8.06937 38.7981 8.12379 38.8431 8.16882C38.8881 8.21385 38.9425 8.24837 39.0025 8.26993C39.0624 8.29149 39.1263 8.29955 39.1897 8.29354C39.3299 8.29772 39.4679 8.2584 39.5848 8.18097C39.7017 8.10354 39.7918 7.99181 39.8427 7.86112C39.8532 7.80105 39.8532 7.73958 39.8427 7.67951L39.8643 7.20817Z" fill="#0A1C3B"/>
<path d="M42.2601 5.05473C42.2012 5.05827 42.1422 5.04971 42.0867 5.02957C42.0312 5.00943 41.9804 4.97814 41.9374 4.93763C41.8945 4.89712 41.8603 4.84824 41.837 4.79402C41.8136 4.73979 41.8017 4.68135 41.8018 4.62232C41.8129 4.50677 41.8667 4.39951 41.9526 4.32147C42.0386 4.24343 42.1505 4.2002 42.2666 4.2002C42.3827 4.2002 42.4946 4.24343 42.5806 4.32147C42.6665 4.39951 42.7203 4.50677 42.7314 4.62232C42.7316 4.68174 42.7195 4.74056 42.6959 4.7951C42.6723 4.84964 42.6377 4.89873 42.5943 4.9393C42.5509 4.97988 42.4996 5.01107 42.4436 5.03093C42.3875 5.05079 42.328 5.05889 42.2688 5.05473H42.2601ZM41.8277 8.81674V5.52607H42.6925V8.81674H41.8277Z" fill="#0A1C3B"/>
<path d="M43.873 4.01758H44.7033V8.81739H43.873V4.01758Z" fill="#0A1C3B"/>
<path d="M48.4563 8.02537C48.4509 8.29014 48.4682 8.55489 48.5082 8.81669H47.7601L47.6995 8.44914H47.6779C47.5603 8.5916 47.4112 8.70481 47.2423 8.77985C47.0735 8.85489 46.8896 8.8897 46.705 8.88155C46.5718 8.88927 46.4385 8.86952 46.3133 8.82354C46.1881 8.77757 46.0737 8.70634 45.9772 8.61429C45.8807 8.52224 45.8041 8.41133 45.7523 8.28845C45.7005 8.16556 45.6744 8.03333 45.6758 7.89997C45.6758 7.07838 46.4109 6.65461 47.626 6.65894V6.60705C47.626 6.39084 47.5352 6.03194 46.9558 6.03194C46.6512 6.0351 46.3529 6.11863 46.091 6.27409L45.9266 5.73357C46.2911 5.53529 46.701 5.43543 47.1158 5.44385C48.1665 5.44385 48.4736 6.11409 48.4736 6.83623L48.4563 8.02537ZM47.6433 7.2081C47.0596 7.2081 46.4974 7.32486 46.4974 7.82213C46.4914 7.88553 46.4995 7.94947 46.521 8.00939C46.5426 8.0693 46.5771 8.12372 46.6221 8.16875C46.6672 8.21378 46.7216 8.2483 46.7815 8.26986C46.8414 8.29142 46.9054 8.29948 46.9688 8.29347C47.1094 8.2973 47.2478 8.25789 47.3654 8.18056C47.4829 8.10324 47.5739 7.99172 47.626 7.86105C47.6345 7.80081 47.6345 7.73968 47.626 7.67944L47.6433 7.2081Z" fill="#0A1C3B"/>
<path d="M49.6113 4.01758H50.4762V5.98074C50.5916 5.80924 50.7494 5.67052 50.9343 5.57808C51.1191 5.48564 51.3248 5.44261 51.5313 5.4532C52.3355 5.4532 52.9063 6.12344 52.902 7.12232C52.902 8.30281 52.1496 8.8909 51.4102 8.8909C51.2012 8.9015 50.9933 8.85423 50.8094 8.75429C50.6255 8.65434 50.4728 8.5056 50.3681 8.32443V8.32443L50.3118 8.81739H49.6113C49.6113 8.59253 49.6373 8.2293 49.6373 7.89634L49.6113 4.01758ZM50.4416 7.4769C50.435 7.54159 50.435 7.60679 50.4416 7.67149C50.4813 7.83653 50.5755 7.9834 50.7088 8.0885C50.8421 8.19359 51.0069 8.2508 51.1767 8.25092C51.6956 8.25092 52.0156 7.84013 52.0156 7.17421C52.0156 6.59045 51.7388 6.11912 51.1853 6.11912C51.0121 6.1227 50.8451 6.18431 50.711 6.29407C50.577 6.40383 50.4836 6.55539 50.4459 6.7245C50.4301 6.79553 50.4214 6.86795 50.4199 6.9407L50.4416 7.4769Z" fill="#0A1C3B"/>
<path d="M53.875 4.01758H54.7052V8.81739H53.875V4.01758Z" fill="#0A1C3B"/>
<path d="M56.4903 7.40304C56.4935 7.52853 56.523 7.65194 56.577 7.76528C56.631 7.87861 56.7082 7.97933 56.8036 8.06089C56.899 8.14244 57.0105 8.20302 57.1309 8.23868C57.2512 8.27434 57.3777 8.28428 57.5022 8.26787C57.8125 8.27205 58.1213 8.2223 58.4146 8.12085L58.5357 8.68731C58.1713 8.83198 57.7817 8.90254 57.3898 8.89487C57.1648 8.91626 56.9379 8.88829 56.7249 8.81291C56.5119 8.73752 56.3179 8.61655 56.1565 8.45842C55.9951 8.3003 55.8701 8.10885 55.7904 7.89743C55.7106 7.68602 55.678 7.45974 55.6947 7.2344C55.6947 6.322 56.2482 5.46582 57.3033 5.46582C58.3584 5.46582 58.7173 6.33065 58.7173 7.06576C58.7184 7.18303 58.7097 7.30019 58.6913 7.41601L56.4903 7.40304ZM57.9346 6.8236C57.9487 6.72521 57.9418 6.62495 57.9143 6.52941C57.8869 6.43387 57.8396 6.34522 57.7755 6.26926C57.7114 6.19331 57.6319 6.13177 57.5423 6.08869C57.4528 6.04561 57.3551 6.02197 57.2557 6.01931C57.0503 6.03236 56.8574 6.12244 56.7155 6.27154C56.5736 6.42064 56.4932 6.6178 56.4903 6.8236H57.9346Z" fill="#0A1C3B"/>
<path d="M62.8173 8.89065C62.5946 8.899 62.3726 8.8605 62.1658 8.77763C61.9589 8.69475 61.7718 8.56936 61.6165 8.40957C61.4612 8.24977 61.3412 8.05914 61.2642 7.85001C61.1872 7.64089 61.1551 7.41793 61.1698 7.19558C61.1542 6.96701 61.1872 6.73773 61.2667 6.52286C61.3462 6.30799 61.4703 6.1124 61.6309 5.94898C61.7914 5.78555 61.9848 5.65801 62.1983 5.57475C62.4117 5.49148 62.6403 5.45439 62.8692 5.46592C63.0905 5.4575 63.3112 5.49577 63.5168 5.57825C63.7224 5.66073 63.9083 5.78556 64.0625 5.94463C64.2167 6.1037 64.3356 6.29345 64.4116 6.50152C64.4877 6.7096 64.519 6.93135 64.5037 7.15234C64.5208 7.38082 64.4896 7.61035 64.4121 7.82596C64.3346 8.04157 64.2125 8.23842 64.0538 8.40366C63.8951 8.56891 63.7033 8.69884 63.491 8.78499C63.2787 8.87113 63.0506 8.91156 62.8216 8.90362L62.8173 8.89065ZM62.8432 8.28959C63.3145 8.28959 63.6475 7.83123 63.6475 7.16099C63.6475 6.64641 63.414 6.05401 62.8475 6.05401C62.2811 6.05401 62.0259 6.62912 62.0259 7.17396C62.0259 7.80961 62.3416 8.28959 62.8346 8.28959H62.8432Z" fill="#0A1C3B"/>
<path d="M65.481 6.50756C65.481 6.12704 65.481 5.81137 65.4551 5.52598H66.1772L66.2161 6.01893C66.3271 5.84148 66.4823 5.69595 66.6665 5.59663C66.8508 5.49732 67.0577 5.44764 67.2669 5.45247C67.842 5.45247 68.4344 5.82435 68.4344 6.86214V8.81666H67.6042V6.95728C67.6042 6.48594 67.4312 6.12704 66.9772 6.12704C66.8319 6.13165 66.6915 6.18108 66.5754 6.26855C66.4593 6.35603 66.3731 6.47727 66.3286 6.61567C66.3007 6.70074 66.2875 6.78994 66.2896 6.87944V8.81666H65.481V6.50756Z" fill="#0A1C3B"/>
<path d="M72.2827 4.68262V5.52583H73.0741V6.14851H72.2827V7.59277C72.2827 7.99924 72.3908 8.19815 72.7152 8.19815C72.8241 8.2038 72.9334 8.1936 73.0395 8.16788V8.79489C72.8454 8.8574 72.6422 8.88664 72.4384 8.88137C72.3074 8.88828 72.1764 8.86803 72.0536 8.8219C71.9309 8.77576 71.8189 8.70473 71.7249 8.61327C71.5216 8.35003 71.4272 8.01877 71.4611 7.6879V6.14851H70.9941V5.52583H71.4611V4.92477L72.2827 4.68262Z" fill="#0A1C3B"/>
<path d="M73.9951 4.01758H74.8254V5.97209C74.9358 5.81367 75.0846 5.68575 75.2578 5.60022C75.4329 5.5046 75.629 5.45408 75.8286 5.4532C76.3907 5.4532 76.9788 5.82507 76.9788 6.88017V8.81739H76.1485V6.96665C76.1485 6.49532 75.9713 6.12776 75.5129 6.12776C75.3697 6.12894 75.2305 6.17449 75.1143 6.25813C74.9982 6.34178 74.9108 6.45939 74.8643 6.59477C74.8389 6.67587 74.8272 6.76063 74.8297 6.84557V8.81739H73.9994L73.9951 4.01758Z" fill="#0A1C3B"/>
<path d="M78.7384 7.40304C78.7416 7.52853 78.7711 7.65194 78.8251 7.76528C78.879 7.87861 78.9562 7.97933 79.0516 8.06089C79.1471 8.14244 79.2586 8.20302 79.3789 8.23868C79.4993 8.27434 79.6258 8.28428 79.7502 8.26787C80.0606 8.27205 80.3693 8.2223 80.6626 8.12085L80.7837 8.68731C80.4193 8.83198 80.0298 8.90254 79.6378 8.89487C79.4129 8.91626 79.186 8.88829 78.9729 8.81291C78.7599 8.73752 78.5659 8.61655 78.4045 8.45842C78.2431 8.3003 78.1182 8.10885 78.0384 7.89743C77.9586 7.68602 77.926 7.45974 77.9427 7.2344C77.9427 6.322 78.4962 5.46582 79.5513 5.46582C80.6064 5.46582 80.9653 6.33065 80.9653 7.06576C80.9665 7.18303 80.9578 7.30019 80.9394 7.41601L78.7384 7.40304ZM80.1827 6.8236C80.1967 6.72521 80.1898 6.62495 80.1624 6.52941C80.135 6.43387 80.0876 6.34522 80.0235 6.26926C79.9594 6.19331 79.88 6.13177 79.7904 6.08869C79.7008 6.04561 79.6031 6.02197 79.5038 6.01931C79.2984 6.03236 79.1054 6.12244 78.9635 6.27154C78.8216 6.42064 78.7412 6.6178 78.7384 6.8236H80.1827Z" fill="#0A1C3B"/>
<path d="M20.6393 13.228C20.649 12.5445 20.8313 11.8746 21.1692 11.2804C21.5071 10.6862 21.9898 10.187 22.5722 9.82925C22.202 9.30125 21.7138 8.86686 21.1463 8.5606C20.5788 8.25434 19.9477 8.08464 19.3032 8.065C17.9281 7.91797 16.5963 8.88658 15.8958 8.88658C15.1952 8.88658 14.1012 8.07797 12.9424 8.09959C12.191 8.1251 11.459 8.34433 10.8173 8.73602C10.1756 9.12771 9.64595 9.67857 9.2798 10.3352C7.69716 13.0767 8.87766 17.1025 10.3954 19.3208C11.1565 20.4018 12.0429 21.6169 13.2018 21.5736C14.3607 21.5304 14.7585 20.8472 16.1293 20.8472C17.5 20.8472 17.8892 21.5736 19.0697 21.5434C20.2502 21.5131 21.0545 20.4537 21.7852 19.3597C22.3315 18.5876 22.7518 17.7338 23.0306 16.8301C22.3226 16.5305 21.7183 16.0293 21.2931 15.3888C20.8679 14.7483 20.6405 13.9968 20.6393 13.228" fill="#0A1C3B"/>
<path d="M18.412 6.60729C19.0841 5.81299 19.4179 4.78675 19.3417 3.74902C18.327 3.85504 17.3897 4.33991 16.7169 5.10681C16.3876 5.48097 16.1355 5.91659 15.9752 6.38858C15.8149 6.86057 15.7495 7.35961 15.7829 7.85697C16.2897 7.86207 16.7912 7.75228 17.2495 7.53584C17.7078 7.3194 18.1112 7.00194 18.4293 6.60729" fill="#0A1C3B"/>
<path d="M37.0711 21.3917H35.4885L34.6237 18.6674H31.5968L30.7665 21.3917H29.2314L32.2194 12.125H34.0442L37.0711 21.3917ZM34.3642 17.5259L33.5815 15.1043C33.4951 14.8579 33.3394 14.2784 33.1102 13.3747H33.0843C32.9935 13.7682 32.8464 14.3476 32.6518 15.1043L31.8821 17.5259H34.3642Z" fill="#0A1C3B"/>
<path d="M44.7329 17.9673C44.7867 18.9521 44.4565 19.9193 43.8118 20.6656C43.5506 20.9463 43.2329 21.1685 42.8796 21.3175C42.5264 21.4666 42.1455 21.5392 41.7622 21.5304C41.3895 21.5608 41.0156 21.4886 40.681 21.3216C40.3464 21.1547 40.0638 20.8994 39.8639 20.5834H39.8379V24.1033H38.3677V16.9079C38.3677 16.1944 38.3677 15.4636 38.3115 14.7069H39.6088L39.6953 15.7663H39.7212C39.947 15.4227 40.2498 15.1364 40.6056 14.9301C40.9614 14.7239 41.3603 14.6034 41.7708 14.5782C42.1812 14.553 42.5919 14.6238 42.9702 14.7851C43.3485 14.9463 43.6841 15.1934 43.9502 15.5069C44.5028 16.2044 44.7839 17.0785 44.7415 17.9673H44.7329ZM43.2281 18.0235C43.2546 17.4555 43.1034 16.8932 42.7957 16.415C42.6701 16.2386 42.5095 16.09 42.3239 15.9785C42.1383 15.867 41.9317 15.795 41.717 15.767C41.5023 15.739 41.2841 15.7556 41.0761 15.8158C40.8681 15.8759 40.6748 15.9783 40.5082 16.1166C40.2099 16.3607 40.0039 16.6994 39.9244 17.0766C39.8842 17.2174 39.861 17.3626 39.8552 17.509V18.6246C39.8395 19.0751 39.9938 19.5151 40.2877 19.857C40.4327 20.0211 40.6121 20.1511 40.8132 20.2378C41.0143 20.3245 41.232 20.3657 41.4509 20.3586C41.704 20.3673 41.9554 20.3125 42.182 20.1993C42.4086 20.086 42.6032 19.9178 42.7481 19.71C43.0809 19.2061 43.2444 18.6094 43.2151 18.0062" fill="#0A1C3B"/>
<path d="M52.4221 17.9673C52.4765 18.9529 52.1446 19.9209 51.4967 20.6656C51.2366 20.9466 50.9198 21.1691 50.5671 21.3182C50.2145 21.4673 49.8341 21.5396 49.4514 21.5304C49.0787 21.5608 48.7048 21.4886 48.3702 21.3216C48.0356 21.1547 47.753 20.8994 47.5531 20.5834H47.5271V24.1033H46.0396V16.9079C46.0396 16.1944 46.0396 15.4636 45.9834 14.7069H47.2806L47.3671 15.7663H47.3931C47.6189 15.4227 47.9217 15.1364 48.2775 14.9301C48.6333 14.7239 49.0322 14.6034 49.4426 14.5782C49.8531 14.553 50.2638 14.6238 50.6421 14.7851C51.0204 14.9463 51.3559 15.1934 51.6221 15.5069C52.1747 16.2044 52.4558 17.0785 52.4134 17.9673H52.4221ZM50.9 18.0235C50.9264 17.4555 50.7753 16.8932 50.4675 16.415C50.342 16.2386 50.1814 16.09 49.9958 15.9785C49.8102 15.867 49.6036 15.795 49.3889 15.767C49.1742 15.739 48.956 15.7556 48.748 15.8158C48.54 15.8759 48.3467 15.9783 48.1801 16.1166C47.8817 16.3607 47.6758 16.6994 47.5963 17.0766C47.5561 17.2174 47.5329 17.3626 47.5271 17.509V18.6246C47.5113 19.0751 47.6657 19.5151 47.9595 19.857C48.1045 20.0211 48.284 20.1511 48.4851 20.2378C48.6861 20.3245 48.9039 20.3657 49.1227 20.3586C49.3759 20.3673 49.6273 20.3125 49.8538 20.1993C50.0804 20.086 50.2751 19.9178 50.42 19.71C50.7568 19.2135 50.9279 18.6232 50.9086 18.0235" fill="#0A1C3B"/>
<path d="M61.0181 18.7929C61.0299 19.1546 60.962 19.5144 60.8193 19.8469C60.6765 20.1795 60.4625 20.4765 60.1922 20.7172C59.4831 21.2968 58.5811 21.5872 57.6669 21.5301C56.8268 21.5683 55.9932 21.3673 55.2627 20.9507L55.6086 19.714C56.2599 20.1093 57.0088 20.3145 57.7707 20.3064C58.2341 20.3334 58.6926 20.1989 59.0679 19.9258C59.2198 19.8057 59.3412 19.6515 59.4224 19.4757C59.5035 19.2999 59.5421 19.1075 59.535 18.914C59.5389 18.7376 59.5068 18.5622 59.4406 18.3987C59.3744 18.2351 59.2756 18.0867 59.1501 17.9627C58.7717 17.6377 58.33 17.3948 57.8529 17.2492C56.2327 16.6409 55.4212 15.7545 55.4184 14.5898C55.4111 14.2326 55.4853 13.8784 55.6351 13.554C55.7849 13.2297 56.0065 12.9436 56.2832 12.7175C56.9255 12.2052 57.7328 11.9453 58.5534 11.9867C59.2798 11.9605 60.0019 12.1088 60.6592 12.4191L60.2874 13.6299C59.7421 13.3392 59.1324 13.1905 58.5145 13.1975C58.0729 13.1689 57.6365 13.3062 57.2907 13.5823C57.1701 13.6893 57.0744 13.8214 57.0101 13.9693C56.9459 14.1172 56.9147 14.2773 56.9188 14.4385C56.9165 14.6129 56.9542 14.7855 57.0292 14.9429C57.1042 15.1004 57.2144 15.2385 57.3513 15.3466C57.7573 15.6531 58.2099 15.8926 58.6917 16.0557C59.3585 16.2892 59.9613 16.6757 60.4517 17.1843C60.834 17.6314 61.0359 18.2049 61.0181 18.7929" fill="#0A1C3B"/>
<path d="M65.9255 15.8216H64.3126V19.069C64.3126 19.8906 64.598 20.3057 65.1774 20.3057C65.3986 20.3113 65.6195 20.288 65.8347 20.2365L65.8779 21.3651C65.5054 21.4859 65.1148 21.5414 64.7234 21.5295C64.4691 21.5444 64.2145 21.5042 63.9772 21.4117C63.7399 21.3191 63.5253 21.1764 63.3483 20.9933C62.9615 20.4771 62.777 19.8373 62.8294 19.1944V15.8216H61.8564V14.706H62.8294V13.4822L64.2909 13.0498V14.7146H65.9255V15.8216Z" fill="#0A1C3B"/>
<path d="M73.3115 17.9966C73.3501 18.9183 73.0415 19.821 72.4467 20.5262C72.1371 20.8633 71.7578 21.1289 71.3351 21.3044C70.9124 21.4799 70.4565 21.5611 69.9992 21.5424C69.56 21.5626 69.1218 21.4854 68.7159 21.3165C68.31 21.1475 67.9464 20.891 67.6512 20.5651C67.0604 19.8849 66.7512 19.005 66.7864 18.1047C66.7474 17.1729 67.0696 16.2621 67.6858 15.5621C67.9945 15.2303 68.3719 14.9699 68.7916 14.7988C69.2113 14.6278 69.6633 14.5504 70.116 14.5719C70.557 14.5542 70.9967 14.632 71.4049 14.7999C71.8131 14.9678 72.1803 15.2219 72.4813 15.5448C73.0719 16.2218 73.3813 17.0989 73.3461 17.9966H73.3115ZM71.8067 18.0442C71.8226 17.4881 71.6833 16.9386 71.4046 16.4572C71.2802 16.2121 71.0893 16.0071 70.8537 15.8656C70.6182 15.7241 70.3475 15.6519 70.0727 15.6572C69.7936 15.6497 69.5179 15.7207 69.2771 15.8621C69.0363 16.0036 68.84 16.2097 68.7106 16.4572C68.4331 16.9484 68.2955 17.5062 68.3128 18.0701C68.2972 18.6256 68.4348 19.1746 68.7106 19.6571C68.8398 19.9019 69.0342 20.1062 69.2723 20.2474C69.5104 20.3886 69.783 20.4611 70.0597 20.457C70.3313 20.4507 70.5958 20.3699 70.8246 20.2235C71.0533 20.0771 71.2375 19.8707 71.357 19.6268C71.6485 19.1447 71.7983 18.5902 71.7894 18.0269" fill="#0A1C3B"/>
<path d="M78.1504 16.0117C77.9962 15.9852 77.8399 15.9721 77.6834 15.9728C77.4482 15.963 77.2143 16.012 77.0029 16.1154C76.7915 16.2189 76.6092 16.3735 76.4727 16.5652C76.2178 16.9489 76.0879 17.402 76.1008 17.8624V21.3693H74.6046V16.7901C74.6046 16.0204 74.6046 15.3198 74.5527 14.6842H75.85L75.9019 15.9814H75.9408C76.0848 15.5657 76.3424 15.1987 76.6845 14.922C76.9964 14.692 77.3737 14.5677 77.7613 14.5674C77.8843 14.5665 78.0072 14.5752 78.1288 14.5934L78.1504 16.0117Z" fill="#0A1C3B"/>
<path d="M84.7794 17.7336C84.7827 17.9596 84.7653 18.1854 84.7276 18.4082H80.2737C80.264 18.6922 80.3167 18.9749 80.428 19.2363C80.5393 19.4978 80.7066 19.7317 80.918 19.9216C81.3324 20.2462 81.8493 20.4119 82.3752 20.3886C82.9907 20.3968 83.6023 20.2898 84.1784 20.073L84.4119 21.1021C83.7017 21.3997 82.9376 21.547 82.1676 21.5345C81.7198 21.5589 81.2718 21.49 80.852 21.3322C80.4322 21.1744 80.0497 20.9312 79.7288 20.6178C79.425 20.288 79.1902 19.9009 79.0379 19.4791C78.8857 19.0574 78.8192 18.6095 78.8424 18.1617C78.8086 17.2511 79.1015 16.3585 79.6683 15.645C79.9459 15.2954 80.302 15.0161 80.7076 14.8298C81.1133 14.6435 81.5572 14.5554 82.0033 14.5727C82.4299 14.5449 82.8565 14.6273 83.2419 14.8121C83.6274 14.9969 83.9588 15.2778 84.2043 15.6277C84.6128 16.2523 84.8182 16.9878 84.7924 17.7336H84.7794ZM83.3784 17.3488C83.3982 16.9478 83.2973 16.5502 83.0887 16.2072C82.9659 16.0063 82.7908 15.8426 82.582 15.7337C82.3733 15.6248 82.1389 15.5747 81.9039 15.5888C81.6726 15.5855 81.444 15.6389 81.2382 15.7445C81.0324 15.85 80.8556 16.0044 80.7234 16.1942C80.472 16.5299 80.3219 16.9305 80.291 17.3488H83.3784Z" fill="#0A1C3B"/>
</svg>
