<svg width="18" height="14" viewBox="0 0 18 14"  xmlns="http://www.w3.org/2000/svg">
<path d="M9.11602 1.61264L9.07962 0L7.94434 0.576742L7.91214 1.61964C3.48998 2.04939 0.00292969 6.91811 0.00292969 12.8647C0.00292969 13.2483 0.0173951 13.6267 0.0463255 14H1.59457C1.58057 13.72 1.57077 13.4513 1.57077 13.1727C1.57077 7.77902 4.33969 3.35266 7.87014 2.87811L7.55377 13.0089L9.3498 12.1438L9.14122 2.87951C12.6661 3.36386 15.428 7.78602 15.428 13.1727C15.428 13.4527 15.4182 13.7326 15.4042 14H17.0462C17.0742 13.6267 17.0887 13.2483 17.0896 12.8647C17.0952 6.88731 13.5662 1.999 9.11602 1.61264Z" />
</svg>
