<svg width="38" height="63" viewBox="0 0 38 63" fill="none" xmlns="http://www.w3.org/2000/svg">
   <path d="M28.2461 36.6508L24.5161 42.5908H12.4461L8.78613 36.5908C11.8296 35.1712 15.1586 34.4698 18.5161 34.5408C21.8785 34.4875 25.2079 35.2095 28.2461 36.6508ZM13.3261 0.710834C12.7564 1.40696 12.251 2.15336 11.8161 2.94083C9.73425 7.03015 8.70324 11.5735 8.81613 16.1608C8.70324 20.7482 9.73425 25.2915 11.8161 29.3808C12.4533 30.5631 13.2658 31.642 14.2261 32.5808C17.0623 32.1378 19.95 32.1378 22.7861 32.5808C23.7459 31.6579 24.5617 30.5961 25.2061 29.4308C27.288 25.3415 28.319 20.7982 28.2061 16.2108C28.319 11.6235 27.288 7.08015 25.2061 2.99083C24.7693 2.19596 24.2605 1.44281 23.6861 0.740834C20.3034 -0.246945 16.7088 -0.246945 13.3261 0.740834V0.710834Z" fill="currentColor"/>
   <path d="M9.82614 30.5009C7.54688 26.0707 6.40918 21.1418 6.51614 16.1609C6.42471 11.3606 7.47343 6.60707 9.57614 2.29085C7.23426 3.57949 5.19963 5.36056 3.61245 7.51133C2.02527 9.66211 0.923284 12.1314 0.382441 14.7492C-0.158402 17.3669 -0.125246 20.0707 0.479624 22.6744C1.0845 25.2781 2.2467 27.7196 3.88614 29.8309C5.13281 31.4309 6.34281 33.0642 7.51614 34.7309C8.82786 34.0533 10.2093 33.5201 11.6361 33.1409C10.9511 32.3197 10.3451 31.4358 9.82614 30.5009ZM27.4361 2.25085C29.5534 6.57695 30.6092 11.3453 30.5161 16.1609C30.6169 21.1435 29.4723 26.0725 27.1861 30.5009C26.6704 31.4354 26.0677 32.3193 25.3861 33.1409C26.8169 33.5224 28.2018 34.0589 29.5161 34.7409C30.7028 33.0342 31.9261 31.3675 33.1861 29.7409C34.8093 27.6251 35.9564 25.1837 36.549 22.5838C37.1417 19.9838 37.1658 17.2865 36.6199 14.6763C36.0739 12.0661 34.9707 9.6046 33.3857 7.4601C31.8007 5.3156 29.7712 3.53869 27.4361 2.25085ZM24.1861 53.6409V49.4309C24.184 49.0433 24.0502 48.6679 23.8067 48.3663C23.5633 48.0647 23.2246 47.8547 22.8461 47.7709L23.9661 44.6809H21.7161L20.7161 47.3209H16.2561L15.3061 44.6809H13.0661L14.1761 47.7709C13.7996 47.8567 13.4631 48.0675 13.2216 48.3689C12.9801 48.6703 12.8478 49.0446 12.8461 49.4309V53.6109H11.5161V60.1609C11.5161 60.8796 11.8017 61.5689 12.3099 62.0771C12.8181 62.5853 13.5074 62.8709 14.2261 62.8709H22.8761C23.5775 62.8528 24.2445 62.5634 24.7369 62.0636C25.2293 61.5637 25.5086 60.8924 25.5161 60.1909V53.6409H24.1861ZM22.4461 53.6409H14.5861V49.5009H22.4561L22.4461 53.6409Z" fill="currentColor"/>
   <path d="M16.7289 20.5222V19.5645C16.7289 18.5109 16.9246 17.6809 17.3161 17.0743C17.7076 16.4518 18.3629 15.925 19.2821 15.494C19.8778 15.2067 20.3204 14.9194 20.6097 14.6321C20.9161 14.3447 21.0693 13.9537 21.0693 13.4588C21.0693 12.8363 20.8225 12.3255 20.3289 11.9264C19.8523 11.5114 19.2055 11.3039 18.3885 11.3039C17.6395 11.3039 17.0438 11.5114 16.6012 11.9264C16.1757 12.3255 15.9629 12.8363 15.9629 13.4588H12.5161C12.5161 11.9903 13.0608 10.7851 14.1502 9.84334C15.2565 8.90156 16.7119 8.43066 18.5161 8.43066C20.3033 8.43066 21.7502 8.89358 22.8565 9.8194C23.9629 10.7452 24.5161 11.8786 24.5161 13.2194C24.5161 14.257 24.2948 15.079 23.8523 15.6856C23.4097 16.2762 22.7374 16.771 21.8353 17.1701C20.5587 17.7607 19.9204 18.5588 19.9204 19.5645V20.5222H16.7289ZM16.6012 25.4307V22.0786H20.048V25.4307H16.6012Z" fill="white"/>
</svg>
