<svg width="24" height="24" viewBox="0 0 24 24" fill="none" xmlns="http://www.w3.org/2000/svg">
<circle cx="12" cy="12" r="12" fill="#32B878"/>
<path d="M11.6506 8.51716H8.74383C8.12798 8.51716 7.62697 9.01818 7.62697 9.634V14.3812C7.62697 14.865 7.23479 15.2572 6.75101 15.2572C6.26724 15.2572 5.87506 14.865 5.87506 14.3812V9.634C5.87506 8.05217 7.162 6.76526 8.74383 6.76526H11.6506L11.3807 6.49535C11.0386 6.15327 11.0386 5.59865 11.3806 5.25657C11.7228 4.91448 12.2774 4.91448 12.6194 5.25657L14.3847 7.02183C14.549 7.1861 14.6413 7.40892 14.6413 7.64121C14.6413 7.8735 14.549 8.09632 14.3847 8.26059L12.6195 10.0259C12.4484 10.1969 12.2242 10.2824 12 10.2824C11.7759 10.2824 11.5517 10.1969 11.3807 10.0259C11.0386 9.68377 11.0386 9.12915 11.3807 8.78706L11.6506 8.51716ZM17.2491 8.75805C16.7653 8.75805 16.3732 9.15023 16.3732 9.634V14.3812C16.3732 14.9971 15.8721 15.4981 15.2563 15.4981H12.3495L12.6195 15.2281C12.9615 14.886 12.9615 14.3314 12.6195 13.9893C12.2774 13.6473 11.7228 13.6473 11.3807 13.9893L9.61543 15.7546C9.45114 15.9189 9.35886 16.1417 9.35886 16.374C9.35886 16.6063 9.45114 16.8291 9.61543 16.9934L11.3807 18.7586C11.5517 18.9297 11.7759 19.0152 12.0001 19.0152C12.2242 19.0152 12.4484 18.9297 12.6195 18.7586C12.9615 18.4165 12.9615 17.8619 12.6195 17.5198L12.3496 17.2499H15.2563C16.8381 17.2499 18.1251 15.963 18.1251 14.3812V9.634C18.1251 9.15023 17.7329 8.75805 17.2491 8.75805Z" fill="white"/>
</svg>
