<svg id="Layer_1" data-name="Layer 1" xmlns="http://www.w3.org/2000/svg" viewBox="0 0 13.75 13.56">
  <g>
    <path class="cls-1" d="M1.91,7.72a.6.6,0,0,0,0-.22A5.8,5.8,0,0,1,3.44,3.75,5.41,5.41,0,0,1,5.27,2.4,5.72,5.72,0,0,1,7.5,1.93a5.59,5.59,0,0,1,2.83.81,6.29,6.29,0,0,1,1,.76l-.89,0a.66.66,0,0,0-.39.19.59.59,0,0,0-.16.4.57.57,0,0,0,.14.41.58.58,0,0,0,.41.21l2.08.07a.57.57,0,0,0,.29,0,.58.58,0,0,0,.31-.16.56.56,0,0,0,.17-.31.61.61,0,0,0,0-.3l-.06-2.11A.56.56,0,0,0,13,1.51a.51.51,0,0,0-.4-.14.59.59,0,0,0-.4.16A.62.62,0,0,0,12,2l0,.53A7.74,7.74,0,0,0,11,1.69,6.82,6.82,0,0,0,7.5.72h0A6.54,6.54,0,0,0,2.54,2.94,7,7,0,0,0,.72,7.46a.76.76,0,0,0,0,.26.61.61,0,0,0,.13.22.59.59,0,0,0,.2.15.57.57,0,0,0,.25.06.54.54,0,0,0,.25-.06.62.62,0,0,0,.21-.15A.61.61,0,0,0,1.91,7.72Zm10.5-6Z" transform="translate(-0.72 -0.72)"/>
    <path class="cls-1" d="M14.22,7.12l.25-.23h-.72a.46.46,0,0,0-.23.05.46.46,0,0,0-.2.13.59.59,0,0,0-.13.19.22.22,0,0,0,0,.1L13,7.48h.1v0a5.84,5.84,0,0,1-1.5,3.76,5.44,5.44,0,0,1-4,1.81h0a5.43,5.43,0,0,1-2.83-.8,5.93,5.93,0,0,1-1-.77l.88,0A.6.6,0,0,0,5,11.33a.62.62,0,0,0,0-.8.64.64,0,0,0-.41-.22l-2.09-.07a.57.57,0,0,0-.29,0,.58.58,0,0,0-.31.16.67.67,0,0,0-.17.32.58.58,0,0,0,0,.29l.07,2.11a.6.6,0,0,0,.21.38.61.61,0,0,0,.4.14.59.59,0,0,0,.4-.16.65.65,0,0,0,.2-.43l0-.53a6.51,6.51,0,0,0,1.08.79,6.76,6.76,0,0,0,3.45,1h0a6.58,6.58,0,0,0,4.94-2.22A7,7,0,0,0,14.35,7.5a.62.62,0,0,0,0-.23A.6.6,0,0,0,14.22,7.12ZM2.67,13.27Z" transform="translate(-0.72 -0.72)"/>
  </g>
</svg>
