<svg width="24" height="24" viewBox="0 0 24 24" fill="none" xmlns="http://www.w3.org/2000/svg">
<path d="M3 12C3.26522 12 3.51957 11.8947 3.70711 11.7071C3.89464 11.5196 4 11.2652 4 11V7.00003H18.586L17.293 8.29303C17.1975 8.38527 17.1213 8.49562 17.0689 8.61762C17.0165 8.73963 16.9889 8.87085 16.9877 9.00363C16.9866 9.1364 17.0119 9.26808 17.0622 9.39098C17.1125 9.51388 17.1867 9.62553 17.2806 9.71942C17.3745 9.81331 17.4862 9.88757 17.609 9.93785C17.7319 9.98813 17.8636 10.0134 17.9964 10.0123C18.1292 10.0111 18.2604 9.98354 18.3824 9.93113C18.5044 9.87872 18.6148 9.80254 18.707 9.70703L21.707 6.70703C21.8003 6.61389 21.8741 6.50306 21.924 6.38103C22.0251 6.1364 22.0251 5.86166 21.924 5.61703C21.8741 5.495 21.8003 5.38416 21.707 5.29103L18.707 2.29103C18.5184 2.10887 18.2658 2.00807 18.0036 2.01035C17.7414 2.01263 17.4906 2.1178 17.3052 2.30321C17.1198 2.48862 17.0146 2.73943 17.0123 3.00163C17.01 3.26382 17.1108 3.51642 17.293 3.70503L18.586 5.00003H3C2.73478 5.00003 2.48043 5.10538 2.29289 5.29292C2.10536 5.48046 2 5.73481 2 6.00003V11C2 11.2652 2.10536 11.5196 2.29289 11.7071C2.48043 11.8947 2.73478 12 3 12ZM21 12C20.7348 12 20.4804 12.1054 20.2929 12.2929C20.1054 12.4805 20 12.7348 20 13V17H5.414L6.707 15.707C6.88916 15.5184 6.98995 15.2658 6.98767 15.0036C6.9854 14.7414 6.88023 14.4906 6.69482 14.3052C6.50941 14.1198 6.2586 14.0146 5.9964 14.0124C5.7342 14.0101 5.4816 14.1109 5.293 14.293L2.293 17.293C2.19968 17.3862 2.1259 17.497 2.076 17.619C1.97488 17.8637 1.97488 18.1384 2.076 18.383C2.1259 18.5051 2.19968 18.6159 2.293 18.709L5.293 21.709C5.38525 21.8045 5.49559 21.8807 5.6176 21.9331C5.7396 21.9855 5.87082 22.0131 6.0036 22.0143C6.13638 22.0154 6.26806 21.9901 6.39095 21.9398C6.51385 21.8896 6.6255 21.8153 6.7194 21.7214C6.81329 21.6275 6.88754 21.5159 6.93782 21.393C6.9881 21.2701 7.0134 21.1384 7.01225 21.0056C7.0111 20.8728 6.98351 20.7416 6.9311 20.6196C6.87869 20.4976 6.80251 20.3873 6.707 20.295L5.414 19H21C21.2652 19 21.5196 18.8947 21.7071 18.7071C21.8946 18.5196 22 18.2652 22 18V13C22 12.7348 21.8946 12.4805 21.7071 12.2929C21.5196 12.1054 21.2652 12 21 12Z" fill="#697586"/>
</svg>
