<svg xmlns="http://www.w3.org/2000/svg" width="24" height="24" viewBox="0 0 24 24" fill="none">
   <path d="M6.75 7.5C6.75 7.0732 6.83406 6.65059 6.99739 6.25628C7.16072 5.86197 7.40011 5.50369 7.7019 5.2019C8.00369 4.90011 8.36197 4.66072 8.75628 4.49739C9.15059 4.33406 9.5732 4.25 10 4.25C10.4268 4.25 10.8494 4.33406 11.2437 4.49739C11.638 4.66072 11.9963 4.90011 12.2981 5.2019C12.5999 5.50369 12.8393 5.86197 13.0026 6.25628C13.1659 6.65059 13.25 7.0732 13.25 7.5C13.25 8.36195 12.9076 9.1886 12.2981 9.7981C11.6886 10.4076 10.862 10.75 10 10.75C9.13805 10.75 8.3114 10.4076 7.7019 9.7981C7.09241 9.1886 6.75 8.36195 6.75 7.5Z" fill="#364152" stroke="#364152"/>
   <path d="M10 16.5C10 17.6705 10.3102 18.7702 10.8524 19.7196C8.43169 19.7718 6.01092 19.6018 3.62058 19.2115L3.62035 19.2115C3.37741 19.1719 3.15646 19.0473 2.99701 18.8598C2.83756 18.6722 2.75001 18.4341 2.75 18.188C2.75 18.188 2.75 18.188 2.75 18.188V17C2.75 16.138 3.09241 15.3114 3.7019 14.7019C4.3114 14.0924 5.13805 13.75 6 13.75H6.34C6.47071 13.75 6.60289 13.7712 6.73027 13.8118L7.59469 14.0943L7.59475 14.0943L10.5 16.5M10 16.5H10.5M10 16.5C10 16.5002 10 16.5003 10 16.5005L10.5 16.5M10 16.5C9.99936 15.8097 10.109 15.1247 10.3238 14.4707C10.4714 14.4645 10.619 14.4542 10.7663 14.4396L10.7389 14.1626L10.94 14.242M10.5 16.5C10.4992 15.726 10.6487 14.9591 10.94 14.242M10.94 14.242L10.7398 14.1606L10.7386 14.1602" fill="#364152" stroke="#364152"/>
   <path fill-rule="evenodd" clip-rule="evenodd" d="M12 16.5C12 17.472 12.308 18.372 12.832 19.107C13.2468 19.6935 13.7966 20.1716 14.435 20.5011C15.0734 20.8306 15.7816 21.0017 16.5 21C17.39 21 18.26 20.7361 19.0001 20.2416C19.7401 19.7471 20.3169 19.0443 20.6575 18.2221C20.9981 17.3998 21.0872 16.495 20.9135 15.6221C20.7399 14.7492 20.3113 13.9474 19.682 13.318C19.0526 12.6887 18.2508 12.2601 17.3779 12.0865C16.505 11.9128 15.6002 12.0019 14.7779 12.3425C13.9557 12.6831 13.2529 13.2599 12.7584 13.9999C12.2639 14.74 12 15.61 12 16.5ZM16.5 19.5C15.964 19.501 15.4375 19.3577 14.976 19.085L19.085 14.976C19.3538 15.4317 19.4972 15.9504 19.5009 16.4794C19.5045 17.0084 19.3682 17.529 19.1057 17.9884C18.8432 18.4477 18.464 18.8295 18.0063 19.0949C17.5487 19.3604 17.029 19.5002 16.5 19.5ZM13.915 18.024L18.024 13.915C17.451 13.5764 16.7816 13.4379 16.1212 13.5215C15.4609 13.605 14.8471 13.9058 14.3764 14.3764C13.9058 14.8471 13.605 15.4609 13.5215 16.1212C13.4379 16.7816 13.5764 17.451 13.915 18.024Z" fill="#364152"/>
</svg>
