<svg id="Layer_1" data-name="Layer 1" xmlns="http://www.w3.org/2000/svg" viewBox="0 0 11.67 12.83">
  <path class="cls-1" d="M12,2.58H10.8V2a.59.59,0,0,0-.59-.59A.58.58,0,0,0,9.63,2v.58H6.13V2A.59.59,0,1,0,5,2v.58H3.79A1.75,1.75,0,0,0,2,4.33v8.16a1.75,1.75,0,0,0,1.75,1.75H12a1.75,1.75,0,0,0,1.75-1.75V4.33A1.75,1.75,0,0,0,12,2.58ZM3.79,3.75H5v.58a.59.59,0,0,0,1.17,0V3.75h3.5v.58a.58.58,0,0,0,.58.58.59.59,0,0,0,.59-.58V3.75H12a.58.58,0,0,1,.58.58V6.08H3.21V4.33A.58.58,0,0,1,3.79,3.75ZM12,13.08H3.79a.58.58,0,0,1-.58-.59V7.25h9.33v5.24A.58.58,0,0,1,12,13.08Z" transform="translate(-2.04 -1.41)"/>
</svg>
