<svg width="32" height="32" viewBox="0 0 32 32" fill="none" xmlns="http://www.w3.org/2000/svg">
<path d="M11.2102 5.12002V5.27002H11.3602H19.5202H19.6702V5.12002V3.76002C19.6702 3.43911 19.7977 3.13134 20.0246 2.90443C20.2515 2.67751 20.5593 2.55002 20.8802 2.55002C21.2011 2.55002 21.5089 2.67751 21.7358 2.90443C21.9627 3.13134 22.0902 3.43911 22.0902 3.76002V5.12002V5.27002H22.2402H23.6002C24.6425 5.27002 25.6421 5.68408 26.3791 6.42109C27.1161 7.15811 27.5302 8.15772 27.5302 9.20002V15.66C27.5302 15.9809 27.4027 16.2887 27.1758 16.5156C26.9489 16.7425 26.6411 16.87 26.3202 16.87C25.9993 16.87 25.6915 16.7425 25.4646 16.5156C25.2377 16.2887 25.1102 15.9809 25.1102 15.66V14.64V14.49H24.9602H5.9202H5.7702V14.64V25.52C5.7702 25.9205 5.92928 26.3046 6.21246 26.5878C6.49564 26.8709 6.87972 27.03 7.2802 27.03H14.0802C14.4011 27.03 14.7089 27.1575 14.9358 27.3844C15.1627 27.6113 15.2902 27.9191 15.2902 28.24C15.2902 28.5609 15.1627 28.8687 14.9358 29.0956C14.7089 29.3225 14.4011 29.45 14.0802 29.45H7.2802C6.23789 29.45 5.23828 29.036 4.50127 28.299C3.76425 27.5619 3.3502 26.5623 3.3502 25.52V9.20002C3.3502 8.15772 3.76425 7.15811 4.50127 6.42109C5.23828 5.68408 6.23789 5.27002 7.2802 5.27002H8.6402H8.7902V5.12002V3.76002C8.7902 3.43911 8.91768 3.13134 9.1446 2.90443C9.37152 2.67751 9.67928 2.55002 10.0002 2.55002C10.3211 2.55002 10.6289 2.67751 10.8558 2.90443C11.0827 3.13134 11.2102 3.43911 11.2102 3.76002V5.12002ZM8.7902 7.84002V7.69002H8.6402H7.2802C6.87972 7.69002 6.49564 7.84911 6.21246 8.13229C5.92928 8.41547 5.7702 8.79955 5.7702 9.20002V11.92V12.07H5.9202H24.9602H25.1102V11.92V9.20002C25.1102 8.79955 24.9511 8.41547 24.6679 8.13229C24.3847 7.84911 24.0007 7.69002 23.6002 7.69002H22.2402H22.0902V7.84002V9.20002C22.0902 9.52094 21.9627 9.8287 21.7358 10.0556C21.5089 10.2825 21.2011 10.41 20.8802 10.41C20.5593 10.41 20.2515 10.2825 20.0246 10.0556C19.7977 9.8287 19.6702 9.52094 19.6702 9.20002V7.84002V7.69002H19.5202H11.3602H11.2102V7.84002V9.20002C11.2102 9.52094 11.0827 9.8287 10.8558 10.0556C10.6289 10.2825 10.3211 10.41 10.0002 10.41C9.67928 10.41 9.37152 10.2825 9.1446 10.0556C8.91768 9.8287 8.7902 9.52094 8.7902 9.20002V7.84002Z" fill="#697586" stroke="#697586" stroke-width="0.3"/>
<path d="M20.7741 26.4231L20.8802 26.5291L20.9862 26.4231L26.8247 20.5846C27.0516 20.3578 27.3593 20.2303 27.6802 20.2303C28.001 20.2303 28.3087 20.3578 28.5357 20.5846C28.7625 20.8115 28.8899 21.1192 28.8899 21.44C28.8899 21.7609 28.7625 22.0686 28.5356 22.2955L21.7357 29.0955C21.7356 29.0955 21.7356 29.0955 21.7356 29.0955C21.5087 29.3223 21.201 29.4497 20.8802 29.4497C20.5593 29.4497 20.2516 29.3223 20.0247 29.0955L17.3057 26.3764C17.0858 26.1483 16.9642 25.8431 16.9669 25.5262C16.9697 25.209 17.097 24.9055 17.3213 24.6811C17.5456 24.4568 17.8491 24.3295 18.1664 24.3268C18.4832 24.324 18.7885 24.4457 19.0166 24.6655L20.7741 26.4231Z" fill="#697586" stroke="#697586" stroke-width="0.3"/>
</svg>
