<svg width="48" height="48" viewBox="0 0 27 26" fill="none" xmlns="http://www.w3.org/2000/svg">
<g clip-path="url(#clip0_29_9831)">
<path d="M22.8117 16.0316C22.1905 16.4171 21.6015 16.717 21.0768 16.9311C20.7127 17.0918 20.3164 17.1667 19.9309 17.1667C19.5454 17.1667 19.1491 17.0918 18.785 16.9311C17.8533 16.5456 16.7181 15.9031 15.6151 15.0249H5.38777L6.97274 11.3838C7.14408 10.9982 7.52962 10.7412 7.94728 10.7412H12.1667C11.8669 10.0772 11.6312 9.35972 11.5027 8.59937H7.94728C6.67288 8.59937 5.51628 9.35972 5.00224 10.527L2.88181 15.3997C2.87111 15.4211 2.88181 15.4426 2.87111 15.4747C1.56458 16.1387 0.654297 17.4773 0.654297 19.0409V23.0568C0.654297 24.5347 1.85373 25.7341 3.3316 25.7341C4.80947 25.7341 6.00891 24.5347 6.00891 23.0568V22.5214H18.86V23.0568C18.86 24.5347 20.0594 25.7341 21.5373 25.7341C23.0151 25.7341 24.2146 24.5347 24.2146 23.0568V19.0409C24.2146 17.8307 23.6684 16.7491 22.8117 16.0316ZM7.07983 20.3795H4.93798C4.34898 20.3795 3.86706 19.8976 3.86706 19.3086C3.86706 18.7196 4.34898 18.2377 4.93798 18.2377H7.07983C7.66884 18.2377 8.15075 18.7196 8.15075 19.3086C8.15075 19.8976 7.66884 20.3795 7.07983 20.3795ZM19.9309 20.3795H17.789C17.2 20.3795 16.7181 19.8976 16.7181 19.3086C16.7181 18.7196 17.2 18.2377 17.789 18.2377H19.9309C20.5199 18.2377 21.0018 18.7196 21.0018 19.3086C21.0018 19.8976 20.5199 20.3795 19.9309 20.3795Z" fill="currentColor"/>
<path d="M25.8118 1.98753L20.1895 0.0748665C20.0224 0.0170367 19.8404 0.0170367 19.6733 0.0748665L14.051 1.98753C13.7243 2.09784 13.5059 2.40412 13.5059 2.74789V7.05085C13.5059 12.3027 19.3681 14.8557 19.6176 14.9618C19.8189 15.0464 20.0438 15.0464 20.2452 14.9618C20.4947 14.8557 26.3569 12.3027 26.3569 7.05085V2.74789C26.3569 2.40412 26.1385 2.09784 25.8118 1.98753ZM23.4504 6.04847L20.5054 9.7967C20.1306 10.2754 19.4281 10.345 18.9676 9.94877L17.0934 8.34239C16.6437 7.95792 16.5912 7.2811 16.9778 6.83238C17.3622 6.38367 18.0391 6.33226 18.4867 6.71673L19.5127 7.59595L21.767 4.72695C22.1321 4.26217 22.8047 4.17971 23.2705 4.54704C23.7353 4.91008 23.8167 5.58369 23.4504 6.04847Z" fill="currentColor"/>
</g>
<defs>
<clipPath id="clip0_29_9831">
<rect width="25.7021" height="25.7021" fill="white" transform="translate(0.654297 0.0319824)"/>
</clipPath>
</defs>
</svg>
