<svg width="19" height="15" viewBox="0 0 19 15" fill="none" xmlns="http://www.w3.org/2000/svg">
<path d="M12.1503 7.27111L12.1503 7.27117C12.416 7.37925 12.6433 7.56438 12.8029 7.80271C12.9625 8.04101 13.0471 8.32161 13.0459 8.6084C13.0459 8.60845 13.0459 8.60849 13.0459 8.60854M12.1503 7.27111L13.0146 8.6084L13.0459 8.60854M12.1503 7.27111L12.1484 7.27046L12.1391 7.26737L11.0108 4.74696L11.0108 4.74695L11.0105 4.74613C10.7852 4.28004 10.3935 3.91523 9.91267 3.72363C9.69043 3.62505 9.45021 3.5735 9.20709 3.5722H9.20692H4.40988V3.57218L4.40887 3.57221C4.03081 3.58449 3.66485 3.70842 3.35713 3.92839C3.04942 4.14836 2.81371 4.45451 2.67975 4.80825L2.67972 4.80824L2.67934 4.80941L1.8554 7.27231C1.59651 7.38215 1.3749 7.5647 1.2175 7.79801C1.05742 8.03528 0.970861 8.31449 0.968687 8.60071V8.60095V11.0028V11.0028H1.00001L12.1503 7.27111ZM13.0459 8.60854L13.0459 11.0028L13.0459 8.60854ZM2.25091 13.0009V12.4323C2.30465 12.4386 2.35868 12.4421 2.4128 12.4429H2.41327H4.5745V13.0009C4.57431 13.1505 4.51473 13.294 4.40885 13.3997C4.30297 13.5054 4.15944 13.5649 4.00981 13.5649V13.5631L4.00245 13.5656H2.81558C2.66581 13.5656 2.52219 13.5061 2.4163 13.4002C2.3104 13.2943 2.25091 13.1507 2.25091 13.0009ZM11.2063 13.5656H11.199L10.013 13.5656L10.0127 13.5656C9.93831 13.5665 9.86453 13.5524 9.79568 13.5244C9.72683 13.4963 9.66428 13.4548 9.61171 13.4022C9.55914 13.3496 9.5176 13.2871 9.48954 13.2182C9.46148 13.1494 9.44747 13.0756 9.44832 13.0013V13.0009V12.4362H11.6085H11.6088V12.4049C11.6605 12.406 11.7122 12.4044 11.7637 12.4003L11.7638 12.4317C11.7742 12.4309 11.7847 12.43 11.7951 12.4289L11.2063 13.5656ZM2.41104 11.566L2.41062 11.566C2.33822 11.567 2.26644 11.5526 2.19998 11.5239L2.19999 11.5239L2.1993 11.5236C2.09509 11.4814 2.00583 11.4091 1.94296 11.316C1.88009 11.2228 1.84646 11.113 1.84637 11.0006V8.60618C1.84637 8.45641 1.90587 8.31277 2.01176 8.20687C2.11766 8.10098 2.26128 8.04148 2.41104 8.04148H11.6088L11.6089 8.04148C11.6815 8.0412 11.7533 8.05557 11.8201 8.08373L11.8206 8.08392C11.9233 8.12521 12.0113 8.19643 12.073 8.28834C12.1347 8.38024 12.1674 8.48858 12.1668 8.59929V8.59948L12.1675 11.0013C12.1675 11.1511 12.108 11.2947 12.0021 11.4006C11.8962 11.5065 11.7526 11.566 11.6028 11.566L2.41104 11.566ZM2.81 7.16457L3.5073 5.09534C3.58014 4.91192 3.704 4.75324 3.86425 4.63804C4.0245 4.52285 4.21439 4.45598 4.41145 4.44538H9.20661C9.41648 4.45977 9.61925 4.52724 9.79591 4.64146C9.97256 4.75567 10.1173 4.91287 10.2166 5.09832L11.1367 7.16457H2.81Z" fill="white" stroke="#697586" stroke-width="0.0626388"/>
<path d="M4.53134 9.71841L4.53137 9.71842V9.71705C4.53137 9.50135 4.44578 9.29448 4.2934 9.14181C4.14103 8.98914 3.93432 8.90317 3.71862 8.90276L3.71818 8.90276C3.50313 8.90538 3.29761 8.99194 3.14553 9.14402C2.99345 9.2961 2.90684 9.50161 2.90423 9.71667L2.90418 9.71667L2.90426 9.71841C2.91341 9.92804 3.00314 10.126 3.1547 10.2711C3.30627 10.4162 3.50799 10.4972 3.71781 10.4972C3.92763 10.4972 4.12935 10.4162 4.28091 10.2711C4.43248 10.126 4.52219 9.92803 4.53134 9.71841Z" fill="white" stroke="#697586" stroke-width="0.0626388"/>
<path d="M10.7941 10.1695C10.8836 10.0356 10.9313 9.8781 10.9313 9.71705C10.9313 9.50108 10.8455 9.29396 10.6928 9.14125C10.5401 8.98853 10.333 8.90276 10.117 8.90276C9.95593 8.90276 9.79848 8.95052 9.66457 9.04C9.53066 9.12947 9.42629 9.25661 9.36465 9.40541C9.30302 9.5542 9.28689 9.71793 9.31831 9.8759C9.34973 10.0339 9.4273 10.179 9.54119 10.2929C9.65507 10.4067 9.80018 10.4843 9.95814 10.5157C10.1161 10.5471 10.2798 10.531 10.4286 10.4694C10.5774 10.4078 10.7046 10.3034 10.7941 10.1695Z" fill="white" stroke="#697586" stroke-width="0.0626388"/>
<path d="M8.84925 2.54928L8.84925 2.54928C8.82027 2.60221 8.78103 2.64884 8.73377 2.68639C8.68651 2.72395 8.6322 2.75167 8.57408 2.76795C8.51596 2.78422 8.45518 2.78873 8.3953 2.78118C8.33541 2.77364 8.27762 2.75419 8.22535 2.72401C8.17309 2.69382 8.12739 2.6535 8.09092 2.6054C8.05445 2.55729 8.028 2.50238 8.01306 2.44391C7.99811 2.38543 7.99501 2.32457 8.00392 2.26488C8.01279 2.20546 8.03337 2.14839 8.06451 2.09701C8.25416 1.74587 8.5378 1.45444 8.88368 1.25534C9.22965 1.0562 9.62421 0.957299 10.0232 0.969722H14.3694C14.8626 0.957552 15.3474 1.09866 15.757 1.37361C16.1665 1.64852 16.4807 2.04368 16.6562 2.50461L17.6101 4.72369C17.9104 4.86833 18.1615 5.09844 18.3318 5.38525C18.5039 5.6752 18.5856 6.00989 18.5664 6.34653V8.2326C18.5923 8.68431 18.4556 9.13024 18.1812 9.48976V10.139C18.1964 10.3937 18.159 10.6489 18.0712 10.8885C17.9833 11.1284 17.8469 11.3476 17.6705 11.5324L17.6693 11.5336L17.6693 11.5335C17.3751 11.8106 16.9877 11.9672 16.5836 11.9727L16.5832 11.9727L15.5833 11.9727C15.3657 11.9823 15.1484 11.9456 14.946 11.8651C14.7433 11.7845 14.56 11.6617 14.4084 11.5049L14.4067 11.5033L14.4068 11.5032C14.095 11.1294 13.9369 10.6511 13.9645 10.1651V9.86862C13.9175 9.80317 13.8887 9.72631 13.8813 9.64595C13.8736 9.56205 13.8893 9.47764 13.9269 9.40222C13.9645 9.32681 14.0224 9.26337 14.094 9.21904C14.1657 9.17471 14.2483 9.15125 14.3326 9.15129H16.8469H16.8492L16.8492 9.15137C17.0557 9.16663 17.2603 9.10385 17.4226 8.97547L17.4307 8.96807C17.4386 8.9608 17.4466 8.95286 17.4539 8.94489C17.5988 8.756 17.671 8.52135 17.6575 8.28367L17.6574 8.28189H17.6575V8.28183V8.28175V8.28169V8.28162V8.28155V8.28148V8.28141V8.28134V8.28127V8.2812V8.28113V8.28106V8.28099V8.28092V8.28085V8.28079V8.28072V8.28065V8.28058V8.28051V8.28044V8.28037V8.28031V8.28024V8.28017V8.2801V8.28003V8.27996V8.2799V8.27983V8.27976V8.27969V8.27963V8.27956V8.27949V8.27942V8.27936V8.27929V8.27922V8.27915V8.27909V8.27902V8.27895V8.27888V8.27882V8.27875V8.27868V8.27862V8.27855V8.27848V8.27842V8.27835V8.27828V8.27822V8.27815V8.27808V8.27802V8.27795V8.27788V8.27782V8.27775V8.27769V8.27762V8.27755V8.27749V8.27742V8.27736V8.27729V8.27722V8.27716V8.27709V8.27703V8.27696V8.2769V8.27683V8.27677V8.2767V8.27663V8.27657V8.2765V8.27644V8.27637V8.27631V8.27624V8.27618V8.27611V8.27605V8.27598V8.27592V8.27585V8.27579V8.27572V8.27566V8.2756V8.27553V8.27547V8.2754V8.27534V8.27527V8.27521V8.27514V8.27508V8.27502V8.27495V8.27489V8.27482V8.27476V8.2747V8.27463V8.27457V8.2745V8.27444V8.27438V8.27431V8.27425V8.27418V8.27412V8.27406V8.27399V8.27393V8.27387V8.2738V8.27374V8.27368V8.27361V8.27355V8.27349V8.27342V8.27336V8.2733V8.27323V8.27317V8.27311V8.27304V8.27298V8.27292V8.27286V8.27279V8.27273V8.27267V8.2726V8.27254V8.27248V8.27242V8.27235V8.27229V8.27223V8.27216V8.2721V8.27204V8.27198V8.27191V8.27185V8.27179V8.27173V8.27166V8.2716V8.27154V8.27148V8.27142V8.27135V8.27129V8.27123V8.27117V8.2711V8.27104V8.27098V8.27092V8.27086V8.27079V8.27073V8.27067V8.27061V8.27055V8.27048V8.27042V8.27036V8.2703V8.27024V8.27017V8.27011V8.27005V8.26999V8.26993V8.26987V8.2698V8.26974V8.26968V8.26962V8.26956V8.2695V8.26943V8.26937V8.26931V8.26925V8.26919V8.26913V8.26906V8.269V8.26894V8.26888V8.26882V8.26876V8.26869V8.26863V8.26857V8.26851V8.26845V8.26839V8.26833V8.26827V8.2682V8.26814V8.26808V8.26802V8.26796V8.2679V8.26784V8.26778V8.26771V8.26765V8.26759V8.26753V8.26747V8.26741V8.26735V8.26729V8.26722V8.26716V8.2671V8.26704V8.26698V8.26692V8.26686V8.2668V8.26674V8.26667V8.26661V8.26655V8.26649V8.26643V8.26637V8.26631V8.26625V8.26619V8.26612V8.26606V8.266V8.26594V8.26588V8.26582V8.26576V8.2657V8.26564V8.26557V8.26551V8.26545V8.26539V8.26533V8.26527V8.26521V8.26515V8.26509V8.26503V8.26496V8.2649V8.26484V8.26478V8.26472V8.26466V8.2646V8.26454V8.26448V8.26441V8.26435V8.26429V8.26423V8.26417V8.26411V8.26405V8.26399V8.26393V8.26386V8.2638V8.26374V8.26368V8.26362V8.26356V8.2635V8.26344V8.26337V8.26331V8.26325V8.26319V8.26313V8.26307V8.26301V8.26295V8.26288V8.26282V8.26276V8.2627V8.26264V8.26258V8.26252V8.26245V8.26239V8.26233V8.26227V8.26221V8.26215V8.26209V8.26202V8.26196V8.2619V8.26184V8.26178V8.26172V8.26166V8.26159V8.26153V8.26147V8.26141V8.26135V8.26129V8.26122V8.26116V8.2611V8.26104V8.26098V8.26092V8.26085V8.26079V8.26073V8.26067V8.26061V8.26054V8.26048V8.26042V8.26036V8.2603V8.26023V8.26017V8.26011V8.26005V8.25999V8.25992V8.25986V8.2598V8.25974V8.25967V8.25961V8.25955V8.25949V8.25943V8.25936V8.2593V8.25924V8.25918V8.25911V8.25905V8.25899V8.25893V8.25886V8.2588V8.25874V8.25867V8.25861V8.25855V8.25849V8.25842V8.25836V8.2583V8.25823V8.25817V8.25811V8.25805V8.25798V8.25792V8.25786V8.25779V8.25773V8.25767V8.2576V8.25754V8.25748V8.25741V8.25735V8.25729V8.25722V8.25716V8.2571V8.25703V8.25697V8.25691V8.25684V8.25678V8.25672V8.25665V8.25659V8.25652V8.25646V8.2564V8.25633V8.25627V8.2562V8.25614V8.25608V8.25601V8.25595V8.25588V8.25582V8.25575V8.25569V8.25563V8.25556V8.2555V8.25543V8.25537V8.2553V8.25524V8.25517V8.25511V8.25504V8.25498V8.25491V8.25485V8.25478V8.25472V8.25465V8.25459V8.25452V8.25446V8.25439V8.25433V8.25426V8.2542V8.25413V8.25407V8.254V8.25393V8.25387V8.2538V8.25374V8.25367V8.25361V8.25354V8.25347V8.25341V8.25334V8.25328V8.25321V8.25314V8.25308V8.25301V8.25294V8.25288V8.25281V8.25274V8.25268V8.25261V8.25254V8.25248V8.25241V8.25234V8.25228V8.25221V8.25214V8.25208V8.25201V8.25194V8.25187V8.25181V8.25174V8.25167V8.2516V8.25154V8.25147V8.2514V8.25133V8.25127V8.2512V8.25113V8.25106V8.25099V8.25093V8.25086V8.25079V8.25072V8.25065V8.25058V8.25052V8.25045V8.25038V8.25031V8.25024V8.25017V8.2501V8.25003V8.24997V8.2499V8.24983V8.24976V8.24969V8.24962V8.24955V8.24948V8.24941V8.24934V8.24927V8.2492V8.24913V6.34715V6.34499L17.6575 6.345C17.666 6.22229 17.6486 6.09918 17.6066 5.98357C17.5647 5.86821 17.4992 5.76287 17.4142 5.67432C17.3509 5.61483 17.2772 5.56742 17.1969 5.53439H12.8075C12.6874 5.53439 12.5722 5.48666 12.4872 5.40171C12.4023 5.31677 12.3545 5.20154 12.3545 5.08139C12.3545 4.96124 12.4023 4.84604 12.4872 4.76109C12.5722 4.67614 12.6874 4.62839 12.8075 4.62839H16.5811L15.8161 2.84908L15.8154 2.84743L15.8154 2.84741L15.8142 2.84475L15.8108 2.83808C15.8088 2.83411 15.8057 2.82728 15.8044 2.81872C15.693 2.53724 15.4987 2.2962 15.2472 2.12752C14.9945 1.95801 14.6961 1.86965 14.3919 1.87421L14.3914 1.87422L10.0087 1.87421L8.84925 2.54928ZM8.84925 2.54928L8.84957 2.54868C8.95589 2.34405 9.11669 2.17278 9.3142 2.05376C9.5115 1.93487 9.73779 1.87275 9.96813 1.87421L8.84925 2.54928ZM17.2773 10.1386L17.2775 10.1386L17.2797 10.016C17.1389 10.0432 16.9956 10.0565 16.8521 10.0558C16.852 10.0558 16.852 10.0558 16.8519 10.0558M17.2773 10.1386L16.8521 10.0245L16.8519 10.0558M17.2773 10.1386L17.2776 10.1419C17.3006 10.4077 17.2177 10.6718 17.047 10.8767C16.9208 10.9925 16.7575 11.0596 16.5863 11.0659H15.5849V11.0658L15.5823 11.066C15.49 11.0737 15.3972 11.0619 15.3098 11.0312C15.2233 11.0009 15.144 10.9528 15.0771 10.89C14.9308 10.695 14.858 10.4545 14.8719 10.211L14.872 10.211V10.2092V10.2091V10.2091V10.209V10.209V10.2089V10.2088V10.2088V10.2087V10.2087V10.2086V10.2085V10.2085V10.2084V10.2084V10.2083V10.2082V10.2082V10.2081V10.208V10.208V10.2079V10.2079V10.2078V10.2077V10.2077V10.2076V10.2076V10.2075V10.2074V10.2074V10.2073V10.2073V10.2072V10.2071V10.2071V10.207V10.2069V10.2069V10.2068V10.2068V10.2067V10.2066V10.2066V10.2065V10.2065V10.2064V10.2063V10.2063V10.2062V10.2062V10.2061V10.206V10.206V10.2059V10.2058V10.2058V10.2057V10.2057V10.2056V10.2055V10.2055V10.2054V10.2054V10.2053V10.2052V10.2052V10.2051V10.2051V10.205V10.2049V10.2049V10.2048V10.2047V10.2047V10.2046V10.2046V10.2045V10.2044V10.2044V10.2043V10.2043V10.2042V10.2041V10.2041V10.204V10.204V10.2039V10.2038V10.2038V10.2037V10.2036V10.2036V10.2035V10.2035V10.2034V10.2033V10.2033V10.2032V10.2032V10.2031V10.203V10.203V10.2029V10.2029V10.2028V10.2027V10.2027V10.2026V10.2025V10.2025V10.2024V10.2024V10.2023V10.2022V10.2022V10.2021V10.2021V10.202V10.2019V10.2019V10.2018V10.2018V10.2017V10.2016V10.2016V10.2015V10.2014V10.2014V10.2013V10.2013V10.2012V10.2011V10.2011V10.201V10.201V10.2009V10.2008V10.2008V10.2007V10.2007V10.2006V10.2005V10.2005V10.2004V10.2003V10.2003V10.2002V10.2002V10.2001V10.2V10.2V10.1999V10.1999V10.1998V10.1997V10.1997V10.1996V10.1996V10.1995V10.1994V10.1994V10.1993V10.1992V10.1992V10.1991V10.1991V10.199V10.1989V10.1989V10.1988V10.1988V10.1987V10.1986V10.1986V10.1985V10.1985V10.1984V10.1983V10.1983V10.1982V10.1981V10.1981V10.198V10.198V10.1979V10.1978V10.1978V10.1977V10.1977V10.1976V10.1975V10.1975V10.1974V10.1974V10.1973V10.1972V10.1972V10.1971V10.1971V10.197V10.1969V10.1969V10.1968V10.1967V10.1967V10.1966V10.1966V10.1965V10.1964V10.1964V10.1963V10.1963V10.1962V10.1961V10.1961V10.196V10.1959V10.1959V10.1958V10.1958V10.1957V10.1956V10.1956V10.1955V10.1955V10.1954V10.1953V10.1953V10.1952V10.1952V10.1951V10.195V10.195V10.1949V10.1948V10.1948V10.1947V10.1947V10.1946V10.1945V10.1945V10.1944V10.1944V10.1943V10.1942V10.1942V10.1941V10.1941V10.194V10.1939V10.1939V10.1938V10.1938V10.1937V10.1936V10.1936V10.1935V10.1934V10.1934V10.1933V10.1933V10.1932V10.1931V10.1931V10.193V10.193V10.1929V10.1928V10.1928V10.1927V10.1927V10.1926V10.1925V10.1925V10.1924V10.1923V10.1923V10.1922V10.1922V10.1921V10.192V10.192V10.1919V10.1919V10.1918V10.1917V10.1917V10.1916V10.1916V10.1915V10.1914V10.1914V10.1913V10.1912V10.1912V10.1911V10.1911V10.191V10.1909V10.1909V10.1908V10.1908V10.1907V10.1906V10.1906V10.1905V10.1905V10.1904V10.1903V10.1903V10.1902V10.1901V10.1901V10.19V10.19V10.1899V10.1898V10.1898V10.1897V10.1897V10.1896V10.1895V10.1895V10.1894V10.1894V10.1893V10.1892V10.1892V10.1891V10.189V10.189V10.1889V10.1889V10.1888V10.1887V10.1887V10.1886V10.1886V10.1885V10.1884V10.1884V10.1883V10.1883V10.1882V10.1881V10.1881V10.188V10.1879V10.1879V10.1878V10.1878V10.1877V10.1876V10.1876V10.1875V10.1875V10.1874V10.1873V10.1873V10.1872V10.1872V10.1871V10.187V10.187V10.1869V10.1868V10.1868V10.1867V10.1867V10.1866V10.1865V10.1865V10.1864V10.1864V10.1863V10.1862V10.1862V10.1861V10.1861V10.186V10.1859V10.1859V10.1858V10.1857V10.1857V10.1856V10.1856V10.1855V10.1854V10.1854V10.1853V10.1853V10.1852V10.1851V10.1851V10.185V10.185V10.1849V10.1848V10.1848V10.1847V10.1846V10.1846V10.1845V10.1845V10.1844V10.1843V10.1843V10.1842V10.1842V10.1841V10.184V10.184V10.1839V10.1839V10.1838V10.1837V10.1837V10.1836V10.1835V10.1835V10.1834V10.1834V10.1833V10.1832V10.1832V10.1831V10.1831V10.183V10.1829V10.1829V10.1828V10.1828V10.1827V10.1826V10.1826V10.1825V10.1824V10.1824V10.1823V10.1823V10.1822V10.1821V10.1821V10.182V10.182V10.1819V10.1818V10.1818V10.1817V10.1817V10.1816V10.1815V10.1815V10.1814V10.1813V10.1813V10.1812V10.1812V10.1811V10.181V10.181V10.1809V10.1809V10.1808V10.1807V10.1807V10.1806V10.1806V10.1805V10.1804V10.1804V10.1803V10.1802V10.1802V10.1801V10.1801V10.18V10.1799V10.1799V10.1798V10.1798V10.1797V10.1796V10.1796V10.1795V10.1795V10.1794V10.1793V10.1793V10.1792V10.1791V10.1791V10.179V10.179V10.1789V10.1788V10.1788V10.1787V10.1787V10.1786V10.1785V10.1785V10.1784V10.1784V10.1783V10.1782V10.1782V10.1781V10.178V10.178V10.1779V10.0558M17.2773 10.1386L14.872 10.0558M16.8519 10.0558L14.872 10.0558M16.8519 10.0558L14.872 10.0558" fill="white" stroke="#697586" stroke-width="0.0626388"/>
<path d="M15.5663 8.04579C16.028 8.04579 16.4022 7.67154 16.4022 7.20987C16.4022 6.74821 16.028 6.37395 15.5663 6.37395C15.1047 6.37395 14.7304 6.74821 14.7304 7.20987C14.7304 7.67154 15.1047 8.04579 15.5663 8.04579Z" fill="white" stroke="#697586" stroke-width="0.0626388"/>
</svg>
