<svg width="48" height="48" viewBox="0 0 48 48" fill="none" xmlns="http://www.w3.org/2000/svg">
<g clip-path="url(#clip0_37_3927)">
<path d="M41.38 29.88C40.22 30.6 39.12 31.16 38.14 31.56C37.46 31.86 36.72 32 36 32C35.28 32 34.54 31.86 33.86 31.56C32.12 30.84 30 29.64 27.94 28H8.84L11.8 21.2C12.12 20.48 12.84 20 13.62 20H21.5C20.94 18.76 20.5 17.42 20.26 16H13.62C11.24 16 9.08 17.42 8.12 19.6L4.16 28.7C4.14 28.74 4.16 28.78 4.14 28.84C1.7 30.08 0 32.58 0 35.5V43C0 45.76 2.24 48 5 48C7.76 48 10 45.76 10 43V42H34V43C34 45.76 36.24 48 39 48C41.76 48 44 45.76 44 43V35.5C44 33.24 42.98 31.22 41.38 29.88ZM12 38H8C6.9 38 6 37.1 6 36C6 34.9 6.9 34 8 34H12C13.1 34 14 34.9 14 36C14 37.1 13.1 38 12 38ZM36 38H32C30.9 38 30 37.1 30 36C30 34.9 30.9 34 32 34H36C37.1 34 38 34.9 38 36C38 37.1 37.1 38 36 38Z" fill="currentColor"/>
<path fill-rule="evenodd" clip-rule="evenodd" d="M36.482 0.0800235L46.982 3.65202C47.592 3.85802 48 4.43002 48 5.07202V13.108C48 22.916 37.052 27.684 36.586 27.882C36.21 28.04 35.79 28.04 35.414 27.882C34.948 27.684 24 22.916 24 13.108V5.07202C24 4.43002 24.408 3.85802 25.018 3.65202L35.518 0.0800235C35.83 -0.0279766 36.17 -0.0279766 36.482 0.0800235Z" fill="currentColor"/>
<path fill-rule="evenodd" clip-rule="evenodd" d="M37.9968 7.41052C37.9968 6.3791 37.1607 5.54297 36.1293 5.54297C35.0978 5.54297 34.2617 6.3791 34.2617 7.41052V14.8807C34.2617 15.9121 35.0978 16.7483 36.1293 16.7483C37.1607 16.7483 37.9968 15.9121 37.9968 14.8807V7.41052ZM36.1293 18.6158C35.0978 18.6158 34.2617 19.4519 34.2617 20.4834C34.2617 21.5148 35.0978 22.3509 36.1293 22.3509H36.1476C37.179 22.3509 38.0151 21.5148 38.0151 20.4834C38.0151 19.4519 37.179 18.6158 36.1476 18.6158H36.1293Z" fill="white"/>
</g>
<defs>
<clipPath id="clip0_37_3927">
<rect width="48" height="48" fill="white"/>
</clipPath>
</defs>
</svg>
