<svg width="24" height="24" viewBox="0 0 24 24" fill="none" xmlns="http://www.w3.org/2000/svg">
<path d="M21.5276 9.82729L21.2139 9.51355L20.4846 9.69553C17.7694 10.627 14.9112 11.1001 11.9917 11.1001C9.08184 11.1001 6.23034 10.627 3.51547 9.69553L2.78727 9.51355L2.47299 9.82729C1.7726 10.5269 1.2002 11.9104 1.2002 12.8999V21H3.90022L4.62194 18.1139C9.57838 18.9577 14.6536 18.9145 19.3778 18.1121L20.1004 21H22.8004V12.8999C22.8004 11.9104 22.2275 10.5269 21.5276 9.82729ZM7.00984 15.31C6.73498 15.6961 4.31306 15.6961 4.03819 15.31C3.85459 15.0535 3.85459 13.7132 4.03819 13.4564C4.32764 13.0503 7.00984 13.8933 7.00984 14.3839C7.00984 14.5383 7.10083 15.1817 7.00984 15.31ZM19.9632 15.311C19.6881 15.6969 17.2659 15.6969 16.9916 15.311C16.9 15.1825 16.9916 14.5394 16.9916 14.3844C16.9916 13.8941 19.6732 13.0511 19.9632 13.4572C20.146 13.714 20.146 15.0543 19.9632 15.311Z" fill="#364152"/>
<path d="M19.501 6.59994L18.8697 4.7075C18.5559 3.76816 17.49 3 16.5004 3H7.50015C6.51032 3 5.44408 3.76816 5.13142 4.7075L4.50069 6.59994H2.1001V7.94996L3.90021 8.40005C9.29837 10.2677 15.094 10.1313 20.1004 8.40005L21.9005 7.94996V6.59994H19.501Z" fill="#364152"/>
</svg>
