<svg width="19" height="15" viewBox="0 0 19 15" fill="none" xmlns="http://www.w3.org/2000/svg">
<mask id="path-1-outside-1_389_26797" maskUnits="userSpaceOnUse" x="0" y="0" width="19" height="15" fill="black">
<rect fill="white" width="19" height="15"/>
<path fill-rule="evenodd" clip-rule="evenodd" d="M18.5349 8.23349V6.34564C18.554 6.01493 18.4738 5.68608 18.3047 5.40123C18.1356 5.11638 17.8853 4.88852 17.5858 4.74688L16.627 2.51637C16.4538 2.06123 16.1437 1.67103 15.7394 1.39962C15.335 1.1282 14.8564 0.988948 14.3696 1.00104H10.0225C9.6292 0.988704 9.24021 1.08616 8.89914 1.28249C8.55807 1.47881 8.27842 1.76625 8.09153 2.11258C8.06232 2.16058 8.04303 2.21393 8.03473 2.2695C8.02644 2.32507 8.02932 2.38172 8.04324 2.43615C8.05715 2.49059 8.08178 2.54171 8.11572 2.58648C8.14966 2.63126 8.1922 2.66879 8.24085 2.69689C8.28951 2.72499 8.3433 2.74309 8.39905 2.75011C8.45479 2.75713 8.51137 2.75294 8.56547 2.73779C8.61957 2.72264 8.67013 2.69683 8.71412 2.66187C8.7581 2.62692 8.79463 2.58352 8.82161 2.53424C8.93059 2.32449 9.09542 2.14894 9.29787 2.02694C9.50033 1.90494 9.73257 1.84125 9.96894 1.84289C9.98184 1.84362 9.99477 1.84362 10.0077 1.84289H14.3912C14.7018 1.83824 15.0065 1.92845 15.2645 2.10151C15.5225 2.27457 15.7215 2.52221 15.835 2.81138C15.835 2.81724 15.8379 2.82278 15.8407 2.82821C15.8422 2.83106 15.8437 2.83389 15.8447 2.83671L16.6285 4.65971H12.8074C12.6955 4.65971 12.5883 4.70416 12.5092 4.78324C12.4301 4.86231 12.3857 4.96956 12.3857 5.08139C12.3857 5.19322 12.4301 5.30049 12.5092 5.37957C12.5883 5.45864 12.6955 5.50307 12.8074 5.50307H17.2028C17.2892 5.53773 17.3683 5.58826 17.4361 5.65205C17.5243 5.74387 17.5924 5.85316 17.6359 5.97287C17.6794 6.09258 17.6973 6.22008 17.6886 6.34715V8.28189C17.7026 8.52754 17.6277 8.77003 17.4778 8.96508C17.4696 8.97401 17.4606 8.98296 17.4517 8.99115L17.4427 8.99934C17.2741 9.13305 17.0614 9.19847 16.8468 9.18261H14.3324C14.254 9.18257 14.1771 9.20441 14.1104 9.24568C14.0436 9.28694 13.9898 9.34599 13.9548 9.41619C13.9198 9.48639 13.9051 9.56497 13.9123 9.64307C13.9195 9.72118 13.9484 9.79573 13.9956 9.85833V10.166C13.9683 10.6444 14.1238 11.1152 14.4307 11.4832C14.5793 11.6368 14.7588 11.757 14.9574 11.836C15.1559 11.915 15.369 11.9509 15.5825 11.9413H16.583C16.9793 11.936 17.3591 11.7824 17.6476 11.5107C17.8211 11.3291 17.9552 11.1136 18.0416 10.8777C18.128 10.6418 18.1648 10.3907 18.1497 10.1399V9.47913C18.424 9.12388 18.5608 8.68155 18.5349 8.23349ZM17.3087 10.1392C17.3324 10.4139 17.2465 10.6869 17.0695 10.8983C16.9375 11.0201 16.7663 11.0907 16.5868 11.0973H15.5847C15.4881 11.1053 15.3908 11.0929 15.2993 11.0608C15.2078 11.0287 15.124 10.9777 15.0536 10.911C14.9017 10.7097 14.8261 10.461 14.8405 10.2092V10.0245H16.8519C17.0064 10.0253 17.1605 10.0095 17.3116 9.97751L17.3087 10.1392Z"/>
<path d="M4.49994 9.71703C4.49114 9.91859 4.40489 10.109 4.25915 10.2485C4.11341 10.388 3.91945 10.4659 3.7177 10.4659C3.51595 10.4659 3.32199 10.388 3.17626 10.2485C3.03052 10.109 2.94424 9.91859 2.93544 9.71703C2.93795 9.51015 3.02127 9.31244 3.16757 9.16615C3.31387 9.01985 3.51157 8.93657 3.71845 8.93406C3.92586 8.93446 4.12462 9.01712 4.27113 9.16392C4.41765 9.31071 4.49994 9.50962 4.49994 9.71703Z"/>
<path d="M10.768 10.1521C10.854 10.0233 10.8999 9.87189 10.8999 9.71703C10.8999 9.50937 10.8174 9.31021 10.6706 9.16337C10.5237 9.01653 10.3246 8.93406 10.1169 8.93406C9.96205 8.93406 9.81065 8.97998 9.68188 9.06602C9.55312 9.15205 9.45277 9.2743 9.39351 9.41737C9.33424 9.56045 9.31873 9.71788 9.34895 9.86977C9.37916 10.0217 9.45375 10.1612 9.56325 10.2707C9.67275 10.3802 9.81228 10.4548 9.96417 10.485C10.1161 10.5152 10.2735 10.4997 10.4166 10.4404C10.5596 10.3812 10.6819 10.2808 10.768 10.1521Z"/>
<path fill-rule="evenodd" clip-rule="evenodd" d="M12.1385 7.30009L12.1161 7.29265L10.9823 4.75967C10.7603 4.30045 10.3744 3.94106 9.90052 3.75241C9.68208 3.65543 9.44593 3.60471 9.20692 3.60343H4.40988C4.03801 3.6155 3.67803 3.73741 3.37535 3.95378C3.07266 4.17016 2.84081 4.4713 2.70904 4.81926L1.8806 7.29563C1.62171 7.40246 1.40009 7.58327 1.24346 7.81544C1.08683 8.0476 1.00213 8.3208 1.00001 8.60086V11.0027C0.998899 11.3714 1.14382 11.7255 1.40306 11.9876V13.0023C1.40442 13.3746 1.55241 13.7314 1.81498 13.9954C2.07756 14.2594 2.43358 14.4093 2.80589 14.4126H4.00981C4.38268 14.4091 4.73929 14.2594 5.00289 13.9956C5.2665 13.7319 5.41604 13.3752 5.41934 13.0023V12.4063H8.60495V13.0023C8.60416 13.3753 8.75147 13.7333 9.01451 13.9978C9.27755 14.2622 9.6348 14.4114 10.0078 14.4126H11.2087C11.5823 14.4112 11.9402 14.2622 12.2044 13.998C12.4686 13.7338 12.6176 13.3759 12.619 13.0023V11.9876C12.8733 11.7229 13.0151 11.3698 13.0146 11.0027V8.60832C13.0158 8.32772 12.933 8.05319 12.7769 7.82005C12.6207 7.58691 12.3984 7.40581 12.1385 7.30009ZM3.47788 5.08447C3.55289 4.89516 3.68064 4.73137 3.84597 4.61252C4.01131 4.49367 4.20727 4.42475 4.41061 4.41397H9.20767C9.42322 4.42857 9.6315 4.49777 9.81292 4.61507C9.99434 4.73237 10.1429 4.8939 10.2447 5.08447L11.1849 7.1958H2.7664L3.47788 5.08447ZM4.00758 13.5968H2.81558C2.65751 13.5968 2.50592 13.534 2.39415 13.4223C2.28238 13.3105 2.21959 13.1589 2.21959 13.0008V12.3966C2.28378 12.4056 2.34846 12.4106 2.41327 12.4115H4.60582V13.0008C4.60562 13.1588 4.54273 13.3102 4.43098 13.4218C4.31923 13.5334 4.16775 13.5961 4.00981 13.5961L4.00758 13.5968ZM11.7958 13.0008C11.7958 13.1577 11.7339 13.3083 11.6236 13.4199C11.5133 13.5315 11.3634 13.5951 11.2065 13.5968L11.199 13.6341V13.5968H10.013C9.9345 13.5977 9.85658 13.5829 9.78386 13.5533C9.71115 13.5237 9.64509 13.4798 9.58956 13.4243C9.53404 13.3687 9.49017 13.3027 9.46054 13.23C9.43091 13.1573 9.4161 13.0793 9.417 13.0008V12.4048H11.6088C11.671 12.4061 11.7332 12.4036 11.795 12.3974L11.7958 13.0008ZM12.1988 11.0013C12.1988 11.1593 12.136 11.3109 12.0243 11.4227C11.9125 11.5345 11.7609 11.5972 11.6028 11.5972H2.41104C2.33422 11.5983 2.25806 11.583 2.18755 11.5525C2.07757 11.5081 1.98336 11.4317 1.917 11.3334C1.85064 11.2351 1.81514 11.1191 1.81505 11.0005V8.60609C1.81505 8.44802 1.87784 8.29641 1.98962 8.18464C2.10139 8.07287 2.25297 8.01008 2.41104 8.01008H11.6088C11.6855 8.00977 11.7616 8.02498 11.8323 8.05477C11.9408 8.0984 12.0338 8.17367 12.099 8.27078C12.1642 8.3679 12.1987 8.48239 12.1981 8.59938L12.1988 11.0013Z"/>
<path d="M16.3708 7.20987C16.3708 7.65424 16.0105 8.01447 15.5662 8.01447C15.1218 8.01447 14.7616 7.65424 14.7616 7.20987C14.7616 6.7655 15.1218 6.40527 15.5662 6.40527C16.0105 6.40527 16.3708 6.7655 16.3708 7.20987Z"/>
</mask>
<path fill-rule="evenodd" clip-rule="evenodd" d="M18.5349 8.23349V6.34564C18.554 6.01493 18.4738 5.68608 18.3047 5.40123C18.1356 5.11638 17.8853 4.88852 17.5858 4.74688L16.627 2.51637C16.4538 2.06123 16.1437 1.67103 15.7394 1.39962C15.335 1.1282 14.8564 0.988948 14.3696 1.00104H10.0225C9.6292 0.988704 9.24021 1.08616 8.89914 1.28249C8.55807 1.47881 8.27842 1.76625 8.09153 2.11258C8.06232 2.16058 8.04303 2.21393 8.03473 2.2695C8.02644 2.32507 8.02932 2.38172 8.04324 2.43615C8.05715 2.49059 8.08178 2.54171 8.11572 2.58648C8.14966 2.63126 8.1922 2.66879 8.24085 2.69689C8.28951 2.72499 8.3433 2.74309 8.39905 2.75011C8.45479 2.75713 8.51137 2.75294 8.56547 2.73779C8.61957 2.72264 8.67013 2.69683 8.71412 2.66187C8.7581 2.62692 8.79463 2.58352 8.82161 2.53424C8.93059 2.32449 9.09542 2.14894 9.29787 2.02694C9.50033 1.90494 9.73257 1.84125 9.96894 1.84289C9.98184 1.84362 9.99477 1.84362 10.0077 1.84289H14.3912C14.7018 1.83824 15.0065 1.92845 15.2645 2.10151C15.5225 2.27457 15.7215 2.52221 15.835 2.81138C15.835 2.81724 15.8379 2.82278 15.8407 2.82821C15.8422 2.83106 15.8437 2.83389 15.8447 2.83671L16.6285 4.65971H12.8074C12.6955 4.65971 12.5883 4.70416 12.5092 4.78324C12.4301 4.86231 12.3857 4.96956 12.3857 5.08139C12.3857 5.19322 12.4301 5.30049 12.5092 5.37957C12.5883 5.45864 12.6955 5.50307 12.8074 5.50307H17.2028C17.2892 5.53773 17.3683 5.58826 17.4361 5.65205C17.5243 5.74387 17.5924 5.85316 17.6359 5.97287C17.6794 6.09258 17.6973 6.22008 17.6886 6.34715V8.28189C17.7026 8.52754 17.6277 8.77003 17.4778 8.96508C17.4696 8.97401 17.4606 8.98296 17.4517 8.99115L17.4427 8.99934C17.2741 9.13305 17.0614 9.19847 16.8468 9.18261H14.3324C14.254 9.18257 14.1771 9.20441 14.1104 9.24568C14.0436 9.28694 13.9898 9.34599 13.9548 9.41619C13.9198 9.48639 13.9051 9.56497 13.9123 9.64307C13.9195 9.72118 13.9484 9.79573 13.9956 9.85833V10.166C13.9683 10.6444 14.1238 11.1152 14.4307 11.4832C14.5793 11.6368 14.7588 11.757 14.9574 11.836C15.1559 11.915 15.369 11.9509 15.5825 11.9413H16.583C16.9793 11.936 17.3591 11.7824 17.6476 11.5107C17.8211 11.3291 17.9552 11.1136 18.0416 10.8777C18.128 10.6418 18.1648 10.3907 18.1497 10.1399V9.47913C18.424 9.12388 18.5608 8.68155 18.5349 8.23349ZM17.3087 10.1392C17.3324 10.4139 17.2465 10.6869 17.0695 10.8983C16.9375 11.0201 16.7663 11.0907 16.5868 11.0973H15.5847C15.4881 11.1053 15.3908 11.0929 15.2993 11.0608C15.2078 11.0287 15.124 10.9777 15.0536 10.911C14.9017 10.7097 14.8261 10.461 14.8405 10.2092V10.0245H16.8519C17.0064 10.0253 17.1605 10.0095 17.3116 9.97751L17.3087 10.1392Z" fill="white"/>
<path d="M4.49994 9.71703C4.49114 9.91859 4.40489 10.109 4.25915 10.2485C4.11341 10.388 3.91945 10.4659 3.7177 10.4659C3.51595 10.4659 3.32199 10.388 3.17626 10.2485C3.03052 10.109 2.94424 9.91859 2.93544 9.71703C2.93795 9.51015 3.02127 9.31244 3.16757 9.16615C3.31387 9.01985 3.51157 8.93657 3.71845 8.93406C3.92586 8.93446 4.12462 9.01712 4.27113 9.16392C4.41765 9.31071 4.49994 9.50962 4.49994 9.71703Z" fill="white"/>
<path d="M10.768 10.1521C10.854 10.0233 10.8999 9.87189 10.8999 9.71703C10.8999 9.50937 10.8174 9.31021 10.6706 9.16337C10.5237 9.01653 10.3246 8.93406 10.1169 8.93406C9.96205 8.93406 9.81065 8.97998 9.68188 9.06602C9.55312 9.15205 9.45277 9.2743 9.39351 9.41737C9.33424 9.56045 9.31873 9.71788 9.34895 9.86977C9.37916 10.0217 9.45375 10.1612 9.56325 10.2707C9.67275 10.3802 9.81228 10.4548 9.96417 10.485C10.1161 10.5152 10.2735 10.4997 10.4166 10.4404C10.5596 10.3812 10.6819 10.2808 10.768 10.1521Z" fill="white"/>
<path fill-rule="evenodd" clip-rule="evenodd" d="M12.1385 7.30009L12.1161 7.29265L10.9823 4.75967C10.7603 4.30045 10.3744 3.94106 9.90052 3.75241C9.68208 3.65543 9.44593 3.60471 9.20692 3.60343H4.40988C4.03801 3.6155 3.67803 3.73741 3.37535 3.95378C3.07266 4.17016 2.84081 4.4713 2.70904 4.81926L1.8806 7.29563C1.62171 7.40246 1.40009 7.58327 1.24346 7.81544C1.08683 8.0476 1.00213 8.3208 1.00001 8.60086V11.0027C0.998899 11.3714 1.14382 11.7255 1.40306 11.9876V13.0023C1.40442 13.3746 1.55241 13.7314 1.81498 13.9954C2.07756 14.2594 2.43358 14.4093 2.80589 14.4126H4.00981C4.38268 14.4091 4.73929 14.2594 5.00289 13.9956C5.2665 13.7319 5.41604 13.3752 5.41934 13.0023V12.4063H8.60495V13.0023C8.60416 13.3753 8.75147 13.7333 9.01451 13.9978C9.27755 14.2622 9.6348 14.4114 10.0078 14.4126H11.2087C11.5823 14.4112 11.9402 14.2622 12.2044 13.998C12.4686 13.7338 12.6176 13.3759 12.619 13.0023V11.9876C12.8733 11.7229 13.0151 11.3698 13.0146 11.0027V8.60832C13.0158 8.32772 12.933 8.05319 12.7769 7.82005C12.6207 7.58691 12.3984 7.40581 12.1385 7.30009ZM3.47788 5.08447C3.55289 4.89516 3.68064 4.73137 3.84597 4.61252C4.01131 4.49367 4.20727 4.42475 4.41061 4.41397H9.20767C9.42322 4.42857 9.6315 4.49777 9.81292 4.61507C9.99434 4.73237 10.1429 4.8939 10.2447 5.08447L11.1849 7.1958H2.7664L3.47788 5.08447ZM4.00758 13.5968H2.81558C2.65751 13.5968 2.50592 13.534 2.39415 13.4223C2.28238 13.3105 2.21959 13.1589 2.21959 13.0008V12.3966C2.28378 12.4056 2.34846 12.4106 2.41327 12.4115H4.60582V13.0008C4.60562 13.1588 4.54273 13.3102 4.43098 13.4218C4.31923 13.5334 4.16775 13.5961 4.00981 13.5961L4.00758 13.5968ZM11.7958 13.0008C11.7958 13.1577 11.7339 13.3083 11.6236 13.4199C11.5133 13.5315 11.3634 13.5951 11.2065 13.5968L11.199 13.6341V13.5968H10.013C9.9345 13.5977 9.85658 13.5829 9.78386 13.5533C9.71115 13.5237 9.64509 13.4798 9.58956 13.4243C9.53404 13.3687 9.49017 13.3027 9.46054 13.23C9.43091 13.1573 9.4161 13.0793 9.417 13.0008V12.4048H11.6088C11.671 12.4061 11.7332 12.4036 11.795 12.3974L11.7958 13.0008ZM12.1988 11.0013C12.1988 11.1593 12.136 11.3109 12.0243 11.4227C11.9125 11.5345 11.7609 11.5972 11.6028 11.5972H2.41104C2.33422 11.5983 2.25806 11.583 2.18755 11.5525C2.07757 11.5081 1.98336 11.4317 1.917 11.3334C1.85064 11.2351 1.81514 11.1191 1.81505 11.0005V8.60609C1.81505 8.44802 1.87784 8.29641 1.98962 8.18464C2.10139 8.07287 2.25297 8.01008 2.41104 8.01008H11.6088C11.6855 8.00977 11.7616 8.02498 11.8323 8.05477C11.9408 8.0984 12.0338 8.17367 12.099 8.27078C12.1642 8.3679 12.1987 8.48239 12.1981 8.59938L12.1988 11.0013Z" fill="white"/>
<path d="M16.3708 7.20987C16.3708 7.65424 16.0105 8.01447 15.5662 8.01447C15.1218 8.01447 14.7616 7.65424 14.7616 7.20987C14.7616 6.7655 15.1218 6.40527 15.5662 6.40527C16.0105 6.40527 16.3708 6.7655 16.3708 7.20987Z" fill="white"/>
<path fill-rule="evenodd" clip-rule="evenodd" d="M18.5349 8.23349V6.34564C18.554 6.01493 18.4738 5.68608 18.3047 5.40123C18.1356 5.11638 17.8853 4.88852 17.5858 4.74688L16.627 2.51637C16.4538 2.06123 16.1437 1.67103 15.7394 1.39962C15.335 1.1282 14.8564 0.988948 14.3696 1.00104H10.0225C9.6292 0.988704 9.24021 1.08616 8.89914 1.28249C8.55807 1.47881 8.27842 1.76625 8.09153 2.11258C8.06232 2.16058 8.04303 2.21393 8.03473 2.2695C8.02644 2.32507 8.02932 2.38172 8.04324 2.43615C8.05715 2.49059 8.08178 2.54171 8.11572 2.58648C8.14966 2.63126 8.1922 2.66879 8.24085 2.69689C8.28951 2.72499 8.3433 2.74309 8.39905 2.75011C8.45479 2.75713 8.51137 2.75294 8.56547 2.73779C8.61957 2.72264 8.67013 2.69683 8.71412 2.66187C8.7581 2.62692 8.79463 2.58352 8.82161 2.53424C8.93059 2.32449 9.09542 2.14894 9.29787 2.02694C9.50033 1.90494 9.73257 1.84125 9.96894 1.84289C9.98184 1.84362 9.99477 1.84362 10.0077 1.84289H14.3912C14.7018 1.83824 15.0065 1.92845 15.2645 2.10151C15.5225 2.27457 15.7215 2.52221 15.835 2.81138C15.835 2.81724 15.8379 2.82278 15.8407 2.82821C15.8422 2.83106 15.8437 2.83389 15.8447 2.83671L16.6285 4.65971H12.8074C12.6955 4.65971 12.5883 4.70416 12.5092 4.78324C12.4301 4.86231 12.3857 4.96956 12.3857 5.08139C12.3857 5.19322 12.4301 5.30049 12.5092 5.37957C12.5883 5.45864 12.6955 5.50307 12.8074 5.50307H17.2028C17.2892 5.53773 17.3683 5.58826 17.4361 5.65205C17.5243 5.74387 17.5924 5.85316 17.6359 5.97287C17.6794 6.09258 17.6973 6.22008 17.6886 6.34715V8.28189C17.7026 8.52754 17.6277 8.77003 17.4778 8.96508C17.4696 8.97401 17.4606 8.98296 17.4517 8.99115L17.4427 8.99934C17.2741 9.13305 17.0614 9.19847 16.8468 9.18261H14.3324C14.254 9.18257 14.1771 9.20441 14.1104 9.24568C14.0436 9.28694 13.9898 9.34599 13.9548 9.41619C13.9198 9.48639 13.9051 9.56497 13.9123 9.64307C13.9195 9.72118 13.9484 9.79573 13.9956 9.85833V10.166C13.9683 10.6444 14.1238 11.1152 14.4307 11.4832C14.5793 11.6368 14.7588 11.757 14.9574 11.836C15.1559 11.915 15.369 11.9509 15.5825 11.9413H16.583C16.9793 11.936 17.3591 11.7824 17.6476 11.5107C17.8211 11.3291 17.9552 11.1136 18.0416 10.8777C18.128 10.6418 18.1648 10.3907 18.1497 10.1399V9.47913C18.424 9.12388 18.5608 8.68155 18.5349 8.23349ZM17.3087 10.1392C17.3324 10.4139 17.2465 10.6869 17.0695 10.8983C16.9375 11.0201 16.7663 11.0907 16.5868 11.0973H15.5847C15.4881 11.1053 15.3908 11.0929 15.2993 11.0608C15.2078 11.0287 15.124 10.9777 15.0536 10.911C14.9017 10.7097 14.8261 10.461 14.8405 10.2092V10.0245H16.8519C17.0064 10.0253 17.1605 10.0095 17.3116 9.97751L17.3087 10.1392Z" stroke="white" stroke-width="0.125278" mask="url(#path-1-outside-1_389_26797)"/>
<path d="M4.49994 9.71703C4.49114 9.91859 4.40489 10.109 4.25915 10.2485C4.11341 10.388 3.91945 10.4659 3.7177 10.4659C3.51595 10.4659 3.32199 10.388 3.17626 10.2485C3.03052 10.109 2.94424 9.91859 2.93544 9.71703C2.93795 9.51015 3.02127 9.31244 3.16757 9.16615C3.31387 9.01985 3.51157 8.93657 3.71845 8.93406C3.92586 8.93446 4.12462 9.01712 4.27113 9.16392C4.41765 9.31071 4.49994 9.50962 4.49994 9.71703Z" stroke="white" stroke-width="0.125278" mask="url(#path-1-outside-1_389_26797)"/>
<path d="M10.768 10.1521C10.854 10.0233 10.8999 9.87189 10.8999 9.71703C10.8999 9.50937 10.8174 9.31021 10.6706 9.16337C10.5237 9.01653 10.3246 8.93406 10.1169 8.93406C9.96205 8.93406 9.81065 8.97998 9.68188 9.06602C9.55312 9.15205 9.45277 9.2743 9.39351 9.41737C9.33424 9.56045 9.31873 9.71788 9.34895 9.86977C9.37916 10.0217 9.45375 10.1612 9.56325 10.2707C9.67275 10.3802 9.81228 10.4548 9.96417 10.485C10.1161 10.5152 10.2735 10.4997 10.4166 10.4404C10.5596 10.3812 10.6819 10.2808 10.768 10.1521Z" stroke="white" stroke-width="0.125278" mask="url(#path-1-outside-1_389_26797)"/>
<path fill-rule="evenodd" clip-rule="evenodd" d="M12.1385 7.30009L12.1161 7.29265L10.9823 4.75967C10.7603 4.30045 10.3744 3.94106 9.90052 3.75241C9.68208 3.65543 9.44593 3.60471 9.20692 3.60343H4.40988C4.03801 3.6155 3.67803 3.73741 3.37535 3.95378C3.07266 4.17016 2.84081 4.4713 2.70904 4.81926L1.8806 7.29563C1.62171 7.40246 1.40009 7.58327 1.24346 7.81544C1.08683 8.0476 1.00213 8.3208 1.00001 8.60086V11.0027C0.998899 11.3714 1.14382 11.7255 1.40306 11.9876V13.0023C1.40442 13.3746 1.55241 13.7314 1.81498 13.9954C2.07756 14.2594 2.43358 14.4093 2.80589 14.4126H4.00981C4.38268 14.4091 4.73929 14.2594 5.00289 13.9956C5.2665 13.7319 5.41604 13.3752 5.41934 13.0023V12.4063H8.60495V13.0023C8.60416 13.3753 8.75147 13.7333 9.01451 13.9978C9.27755 14.2622 9.6348 14.4114 10.0078 14.4126H11.2087C11.5823 14.4112 11.9402 14.2622 12.2044 13.998C12.4686 13.7338 12.6176 13.3759 12.619 13.0023V11.9876C12.8733 11.7229 13.0151 11.3698 13.0146 11.0027V8.60832C13.0158 8.32772 12.933 8.05319 12.7769 7.82005C12.6207 7.58691 12.3984 7.40581 12.1385 7.30009ZM3.47788 5.08447C3.55289 4.89516 3.68064 4.73137 3.84597 4.61252C4.01131 4.49367 4.20727 4.42475 4.41061 4.41397H9.20767C9.42322 4.42857 9.6315 4.49777 9.81292 4.61507C9.99434 4.73237 10.1429 4.8939 10.2447 5.08447L11.1849 7.1958H2.7664L3.47788 5.08447ZM4.00758 13.5968H2.81558C2.65751 13.5968 2.50592 13.534 2.39415 13.4223C2.28238 13.3105 2.21959 13.1589 2.21959 13.0008V12.3966C2.28378 12.4056 2.34846 12.4106 2.41327 12.4115H4.60582V13.0008C4.60562 13.1588 4.54273 13.3102 4.43098 13.4218C4.31923 13.5334 4.16775 13.5961 4.00981 13.5961L4.00758 13.5968ZM11.7958 13.0008C11.7958 13.1577 11.7339 13.3083 11.6236 13.4199C11.5133 13.5315 11.3634 13.5951 11.2065 13.5968L11.199 13.6341V13.5968H10.013C9.9345 13.5977 9.85658 13.5829 9.78386 13.5533C9.71115 13.5237 9.64509 13.4798 9.58956 13.4243C9.53404 13.3687 9.49017 13.3027 9.46054 13.23C9.43091 13.1573 9.4161 13.0793 9.417 13.0008V12.4048H11.6088C11.671 12.4061 11.7332 12.4036 11.795 12.3974L11.7958 13.0008ZM12.1988 11.0013C12.1988 11.1593 12.136 11.3109 12.0243 11.4227C11.9125 11.5345 11.7609 11.5972 11.6028 11.5972H2.41104C2.33422 11.5983 2.25806 11.583 2.18755 11.5525C2.07757 11.5081 1.98336 11.4317 1.917 11.3334C1.85064 11.2351 1.81514 11.1191 1.81505 11.0005V8.60609C1.81505 8.44802 1.87784 8.29641 1.98962 8.18464C2.10139 8.07287 2.25297 8.01008 2.41104 8.01008H11.6088C11.6855 8.00977 11.7616 8.02498 11.8323 8.05477C11.9408 8.0984 12.0338 8.17367 12.099 8.27078C12.1642 8.3679 12.1987 8.48239 12.1981 8.59938L12.1988 11.0013Z" stroke="white" stroke-width="0.125278" mask="url(#path-1-outside-1_389_26797)"/>
<path d="M16.3708 7.20987C16.3708 7.65424 16.0105 8.01447 15.5662 8.01447C15.1218 8.01447 14.7616 7.65424 14.7616 7.20987C14.7616 6.7655 15.1218 6.40527 15.5662 6.40527C16.0105 6.40527 16.3708 6.7655 16.3708 7.20987Z" stroke="white" stroke-width="0.125278" mask="url(#path-1-outside-1_389_26797)"/>
</svg>
