<svg width="59" height="24" viewBox="0 0 59 24" fill="none" xmlns="http://www.w3.org/2000/svg">
<path d="M41.4069 19.0473H30.9644C30.743 19.0473 30.5307 18.9593 30.3742 18.8028C30.2177 18.6463 30.1297 18.434 30.1297 18.2126C30.1297 17.9913 30.2177 17.779 30.3742 17.6224C30.5307 17.4659 30.743 17.378 30.9644 17.378H41.4069C41.6074 16.0738 42.2681 14.8845 43.2695 14.0252C44.2709 13.166 45.5468 12.6936 46.8663 12.6936C48.1859 12.6936 49.4618 13.166 50.4632 14.0252C51.4646 14.8845 52.1253 16.0738 52.3258 17.378H55.1378C55.4539 17.3769 55.7568 17.2511 55.9806 17.0278C56.0917 16.9175 56.1799 16.7861 56.24 16.6415C56.3001 16.4968 56.3309 16.3417 56.3307 16.1851V14.7743H53.326C53.2161 14.7746 53.1073 14.7531 53.0058 14.7112C52.9042 14.6693 52.8119 14.6077 52.7343 14.53C52.6566 14.4524 52.595 14.3601 52.5531 14.2585C52.5112 14.157 52.4897 14.0482 52.49 13.9383V10.5393C52.0387 10.388 51.5651 10.236 51.0759 10.0908C48.4151 9.28812 45.6763 8.77198 42.9059 8.55113C42.7604 9.04204 42.4947 9.4889 42.133 9.85126C41.8504 10.1351 41.5146 10.3604 41.1447 10.5142C40.7749 10.6681 40.3784 10.7474 39.9778 10.7477H9.11981C8.45687 10.7452 7.81257 10.528 7.28347 10.1286C6.75437 9.72918 6.36895 9.16903 6.18499 8.53212H4.62428C4.37083 8.52956 4.12031 8.58649 3.89286 8.69833C3.66541 8.81017 3.46736 8.9738 3.31464 9.17609C2.88698 9.76792 2.66119 10.4817 2.67068 11.2118V16.1823C2.67139 16.4985 2.79731 16.8015 3.02087 17.0251C3.24443 17.2486 3.54744 17.3746 3.8636 17.3753H5.81789C6.01837 16.0711 6.6791 14.8817 7.6805 14.0225C8.68191 13.1633 9.95782 12.6909 11.2773 12.6909C12.5968 12.6909 13.8728 13.1633 14.8742 14.0225C15.8756 14.8817 16.5363 16.0711 16.7368 17.3753H27.1807C27.2903 17.3753 27.3988 17.3969 27.5001 17.4388C27.6013 17.4807 27.6933 17.5422 27.7708 17.6197C27.8483 17.6972 27.9098 17.7892 27.9518 17.8905C27.9937 17.9918 28.0153 18.1003 28.0153 18.2099C28.0153 18.3195 27.9937 18.4281 27.9518 18.5293C27.9098 18.6306 27.8483 18.7226 27.7708 18.8001C27.6933 18.8776 27.6013 18.9391 27.5001 18.981C27.3988 19.023 27.2903 19.0445 27.1807 19.0445H16.7381C16.5377 20.3487 15.8769 21.5381 14.8755 22.3973C13.8741 23.2565 12.5982 23.7289 11.2787 23.7289C9.95918 23.7289 8.68327 23.2565 7.68186 22.3973C6.68045 21.5381 6.01972 20.3487 5.81924 19.0445H3.86225C3.10347 19.0435 2.37608 18.7416 1.83955 18.205C1.30301 17.6685 1.00111 16.9411 1.00003 16.1823V11.2091C0.996016 10.1023 1.35023 9.02397 2.00975 8.13516C2.31512 7.73292 2.71066 7.40799 3.16454 7.18654C3.61841 6.96508 4.11795 6.85328 4.62292 6.86013H6.9036C7.8726 6.86013 9.13474 5.80903 10.5455 4.6351C12.5934 2.92782 14.9162 1 17.7662 1H30.6169C33.5267 1 36.1018 2.9536 38.3486 4.66088C39.8537 5.80631 41.1952 6.82281 42.1357 6.86081C45.3195 7.10223 48.4729 7.64757 51.5529 8.48938C53.3643 8.96667 55.0925 9.71694 56.6781 10.7144C57.0426 10.9299 57.3518 11.2274 57.5812 11.5832C57.8107 11.9391 57.9541 12.3435 58 12.7644V16.1823C57.9989 16.9411 57.697 17.6685 57.1605 18.205C56.624 18.7416 55.8966 19.0435 55.1378 19.0445H52.3258C52.1253 20.3487 51.4646 21.5381 50.4632 22.3973C49.4618 23.2565 48.1859 23.7289 46.8663 23.7289C45.5468 23.7289 44.2709 23.2565 43.2695 22.3973C42.2681 21.5381 41.6074 20.3487 41.4069 19.0445V19.0473ZM28.8689 5.22477C29.1663 5.22144 29.4613 5.27876 29.7358 5.39321C30.0103 5.50766 30.2587 5.67686 30.4656 5.89046C30.8831 6.33588 31.1712 6.88674 31.2989 7.48374L31.687 9.0777H39.9771C40.1585 9.07751 40.338 9.04143 40.5054 8.97155C40.6727 8.90168 40.8246 8.79938 40.9523 8.67056C41.042 8.57906 41.1194 8.47618 41.1823 8.36453C39.7832 7.78135 38.4866 6.97792 37.3416 5.98477C35.3093 4.4417 32.977 2.67131 30.6163 2.67131H25.0282V9.0777H26.7321L26.4926 8.08971C26.4399 7.87813 26.4123 7.66107 26.4105 7.44303C26.4004 6.89867 26.6058 6.37236 26.9818 5.97866C27.3104 5.6447 27.7276 5.41163 28.1843 5.30688C28.4085 5.25261 28.6383 5.22504 28.8689 5.22477ZM28.5751 6.92596C28.4869 6.93235 28.4015 6.9598 28.3261 7.00602C28.2507 7.05224 28.1874 7.1159 28.1417 7.19161C28.096 7.26732 28.0691 7.35288 28.0633 7.44114C28.0574 7.52941 28.0729 7.61778 28.1083 7.69884L28.4428 9.0777H29.975L29.6846 7.87527C29.538 7.2761 29.2605 6.76175 28.5751 6.92596ZM16.3357 5.22477C16.6331 5.22148 16.9281 5.27881 17.2026 5.39325C17.4771 5.5077 17.7254 5.67689 17.9324 5.89046C18.3499 6.3359 18.638 6.88675 18.7657 7.48374L19.1538 9.0777H23.3589V2.67199H17.7668C15.5072 2.67199 13.4403 4.39489 11.6102 5.91624C10.3134 6.99517 9.12049 7.98657 7.91467 8.36793C7.97666 8.47917 8.05411 8.58106 8.14471 8.67056C8.27215 8.79966 8.42399 8.90213 8.59138 8.97203C8.75878 9.04192 8.93841 9.07785 9.11981 9.0777H14.2003L13.9607 8.08971C13.907 7.87824 13.8783 7.66119 13.8752 7.44303C13.8661 6.89833 14.0725 6.37205 14.4493 5.97866C14.7779 5.64467 15.1951 5.41159 15.6517 5.30688C15.8759 5.25263 16.1058 5.22506 16.3364 5.22477H16.3357ZM16.0419 6.92596C15.9537 6.93235 15.8683 6.9598 15.7929 7.00602C15.7175 7.05224 15.6542 7.1159 15.6085 7.19161C15.5628 7.26732 15.5359 7.35288 15.53 7.44114C15.5242 7.52941 15.5397 7.61778 15.5751 7.69884L15.9096 9.0777H17.4418L17.1514 7.87527C17.0062 7.2761 16.7286 6.76175 16.044 6.92596H16.0419ZM19.2482 13.9885C19.1386 13.9885 19.03 13.9669 18.9288 13.925C18.8275 13.883 18.7355 13.8216 18.658 13.7441C18.5805 13.6666 18.519 13.5745 18.4771 13.4733C18.4351 13.372 18.4135 13.2635 18.4135 13.1539C18.4135 13.0443 18.4351 12.9357 18.4771 12.8345C18.519 12.7332 18.5805 12.6412 18.658 12.5637C18.7355 12.4862 18.8275 12.4247 18.9288 12.3828C19.03 12.3408 19.1386 12.3192 19.2482 12.3192H21.4874C21.5971 12.3192 21.7056 12.3408 21.8069 12.3828C21.9081 12.4247 22.0001 12.4862 22.0776 12.5637C22.1551 12.6412 22.2166 12.7332 22.2586 12.8345C22.3005 12.9357 22.3221 13.0443 22.3221 13.1539C22.3221 13.2635 22.3005 13.372 22.2586 13.4733C22.2166 13.5745 22.1551 13.6666 22.0776 13.7441C22.0001 13.8216 21.9081 13.883 21.8069 13.925C21.7056 13.9669 21.5971 13.9885 21.4874 13.9885H19.2482ZM37.195 13.9885C37.0854 13.9885 36.9769 13.9669 36.8756 13.925C36.7743 13.883 36.6823 13.8216 36.6048 13.7441C36.5273 13.6666 36.4658 13.5745 36.4239 13.4733C36.382 13.372 36.3604 13.2635 36.3604 13.1539C36.3604 13.0443 36.382 12.9357 36.4239 12.8345C36.4658 12.7332 36.5273 12.6412 36.6048 12.5637C36.6823 12.4862 36.7743 12.4247 36.8756 12.3828C36.9769 12.3408 37.0854 12.3192 37.195 12.3192H39.4343C39.6557 12.3192 39.868 12.4072 40.0245 12.5637C40.181 12.7202 40.2689 12.9325 40.2689 13.1539C40.2689 13.3752 40.181 13.5875 40.0245 13.7441C39.868 13.9006 39.6557 13.9885 39.4343 13.9885H37.195ZM46.8646 15.5411C47.4828 15.5414 48.0818 15.756 48.5595 16.1484C49.0372 16.5408 49.3641 17.0866 49.4845 17.693C49.6048 18.2994 49.5113 18.9287 49.2197 19.4738C48.9281 20.0189 48.4565 20.446 47.8853 20.6824C47.3141 20.9188 46.6786 20.9498 46.087 20.7702C45.4955 20.5906 44.9845 20.2115 44.6412 19.6974C44.2979 19.1833 44.1434 18.5661 44.2041 17.9509C44.2648 17.3357 44.537 16.7606 44.9742 16.3235C45.2222 16.0744 45.5172 15.877 45.8421 15.7427C46.1669 15.6085 46.5152 15.5399 46.8667 15.5411H46.8646ZM47.5744 17.5042C47.4342 17.364 47.2556 17.2684 47.0612 17.2295C46.8667 17.1907 46.6651 17.2104 46.4818 17.286C46.2985 17.3617 46.1417 17.4899 46.0312 17.6546C45.9207 17.8193 45.8615 18.013 45.861 18.2113C45.8606 18.3764 45.901 18.5391 45.9785 18.6849C46.0561 18.8307 46.1684 18.9551 46.3055 19.0471C46.4426 19.1391 46.6004 19.1959 46.7647 19.2123C46.929 19.2288 47.0948 19.2044 47.2475 19.1414C47.4001 19.0784 47.5349 18.9787 47.6398 18.8512C47.7447 18.7236 47.8165 18.5722 47.8488 18.4103C47.8812 18.2483 47.873 18.0809 47.8252 17.9228C47.7773 17.7648 47.6912 17.621 47.5744 17.5042ZM11.2763 15.5411C11.8945 15.5414 12.4935 15.756 12.9712 16.1484C13.4489 16.5408 13.7758 17.0866 13.8961 17.693C14.0165 18.2994 13.9229 18.9287 13.6313 19.4738C13.3397 20.0189 12.8681 20.446 12.2969 20.6824C11.7257 20.9188 11.0902 20.9498 10.4987 20.7702C9.90716 20.5906 9.39621 20.2115 9.05287 19.6974C8.70954 19.1833 8.55507 18.5661 8.61578 17.9509C8.67649 17.3357 8.94862 16.7606 9.38581 16.3235C9.63431 16.075 9.92938 15.878 10.2541 15.7437C10.5789 15.6095 10.9269 15.5406 11.2783 15.5411H11.2763ZM12.2799 18.2106C12.2801 18.0119 12.2212 17.8176 12.1109 17.6524C12.0006 17.4871 11.8438 17.3583 11.6603 17.2822C11.4767 17.2061 11.2747 17.1862 11.0799 17.2249C10.885 17.2636 10.706 17.3593 10.5655 17.4998C10.425 17.6403 10.3293 17.8193 10.2906 18.0141C10.2519 18.209 10.2718 18.411 10.3479 18.5946C10.424 18.7781 10.5528 18.9349 10.7181 19.0452C10.8834 19.1555 11.0776 19.2143 11.2763 19.2142C11.4082 19.2145 11.5389 19.1887 11.6608 19.1385C11.7828 19.0882 11.8936 19.0144 11.987 18.9212C12.0804 18.8281 12.1546 18.7174 12.2052 18.5956C12.2558 18.4738 12.2819 18.3432 12.282 18.2113L12.2799 18.2106ZM49.5878 15.4875C48.9573 14.8578 48.128 14.4662 47.2411 14.3794C46.3543 14.2926 45.4648 14.516 44.7242 15.0115C43.9836 15.507 43.4378 16.244 43.1796 17.0968C42.9215 17.9497 42.967 18.8657 43.3085 19.6887C43.65 20.5117 44.2663 21.1909 45.0523 21.6105C45.8384 22.0301 46.7457 22.1641 47.6195 21.9898C48.4934 21.8155 49.2798 21.3436 49.8447 20.6544C50.4096 19.9653 50.7181 19.1016 50.7176 18.2106C50.7184 17.7047 50.6192 17.2038 50.4256 16.7364C50.2321 16.2691 49.948 15.8446 49.5898 15.4875H49.5878ZM14.0001 15.4875C13.3696 14.8578 12.5403 14.4662 11.6535 14.3794C10.7667 14.2926 9.87717 14.516 9.13658 15.0115C8.39599 15.507 7.85011 16.244 7.59196 17.0968C7.33381 17.9497 7.37935 18.8657 7.72083 19.6887C8.06231 20.5117 8.6786 21.1909 9.46469 21.6105C10.2508 22.0301 11.158 22.1641 12.0319 21.9898C12.9057 21.8155 13.6921 21.3436 14.257 20.6544C14.8219 19.9653 15.1304 19.1016 15.1299 18.2106C15.1307 17.7048 15.0314 17.2038 14.8379 16.7364C14.6443 16.2691 14.3603 15.8446 14.0021 15.4875H14.0001ZM55.6976 12.06C55.2131 11.7259 54.6975 11.4394 54.1579 11.2043V13.1043H56.3294V12.7651C56.3294 12.5981 56.0959 12.3518 55.6983 12.0614L55.6976 12.06Z" fill="#081A3E" stroke="white" stroke-width="0.25"/>
</svg>
