<svg width="48" height="18" viewBox="0 0 48 18" fill="none" xmlns="http://www.w3.org/2000/svg">
   <path d="M46.7385 7.54359C44.0483 5.65651 40.2445 5.26063 37.5272 5.26063H36.9317L27.4622 0.841554C26.2826 0.290772 24.9709 0 23.6694 0H15.3102C14.498 0 13.7077 0.162232 12.961 0.481935L4.28285 4.20118C3.8064 4.40553 3.30213 4.50916 2.78358 4.50916H2.20606C0.98987 4.5088 0 5.49867 0 6.71522V11.4884C0 12.542 0.750734 13.4528 1.78492 13.6538L4.56739 14.1951C4.91126 16.3155 6.75404 17.9396 8.96962 17.9396C10.6271 17.9396 12.0751 17.0303 12.8441 15.6848H36.6589C37.4279 17.0303 38.8759 17.9396 40.5334 17.9396C42.1905 17.9396 43.6389 17.0303 44.4079 15.6848H45.794C47.0102 15.6848 48.0001 14.6953 48.0001 13.4788V9.96865C48.0001 9.00441 47.5284 8.09767 46.7385 7.54359ZM26.8675 2.11597L33.6065 5.26063H23.5719L20.268 1.40625H23.669C24.7669 1.40625 25.8729 1.65161 26.8675 2.11597ZM18.4161 1.40625L21.72 5.26063H20.528C20.0746 5.26063 19.6451 5.06324 19.3499 4.71864L16.5107 1.40625H18.4161ZM13.3572 14.2786C13.4044 14.0189 13.4304 13.752 13.4304 13.4788C13.4304 13.1792 13.4004 12.8793 13.3411 12.5874C13.2638 12.2069 12.8928 11.9612 12.5124 12.0381C12.1315 12.1154 11.8858 12.4867 11.963 12.8672C12.0037 13.0668 12.0242 13.2726 12.0242 13.4788C12.0242 15.163 10.6538 16.533 8.96962 16.533C7.28542 16.533 5.91542 15.163 5.91542 13.4788C5.91542 11.7946 7.28542 10.4242 8.96962 10.4242C9.39626 10.4242 9.80825 10.5103 10.195 10.6798C10.5502 10.8355 10.9651 10.6736 11.1211 10.318C11.2771 9.96242 11.1153 9.54787 10.7597 9.39186C10.1939 9.14394 9.59145 9.01796 8.96962 9.01796C6.75404 9.01796 4.91126 10.6421 4.56739 12.7625L2.05335 12.2736C1.67835 12.2007 1.40589 11.8704 1.40589 11.4884V8.92128H2.20606C2.59424 8.92128 2.90919 8.60634 2.90919 8.21815C2.90919 7.82997 2.59424 7.51503 2.20606 7.51503H1.40625V6.71522C1.40625 6.27394 1.76514 5.91542 2.20606 5.91542H2.78358C3.49366 5.91542 4.18433 5.77333 4.83692 5.49391L13.5147 1.77466C13.8952 1.6117 14.2903 1.50366 14.695 1.44873L18.2824 5.6338C18.8449 6.29042 19.6634 6.66688 20.528 6.66688H37.5272C39.4062 6.66688 42.7589 6.88698 45.2429 8.2665H45.0426C44.654 8.2665 44.3394 8.58144 44.3394 8.96962C44.3394 9.35817 44.654 9.67275 45.0426 9.67275H46.5649C46.5836 9.76943 46.5938 9.86831 46.5938 9.96865V11.2727H44.4079C43.6389 9.92727 42.1909 9.01833 40.5334 9.01833C38.8759 9.01833 37.4279 9.92727 36.6589 11.2727H35.2731C34.8846 11.2727 34.57 11.5873 34.57 11.9759C34.57 12.364 34.8846 12.679 35.2731 12.679H36.1458C36.0986 12.9386 36.0726 13.2056 36.0726 13.4788C36.0726 13.752 36.0986 14.0189 36.1458 14.2786H13.3572ZM40.5334 16.533C38.8492 16.533 37.4788 15.163 37.4788 13.4788C37.4788 11.7946 38.8492 10.4242 40.5334 10.4242C42.2176 10.4242 43.588 11.7946 43.588 13.4788C43.588 15.163 42.2176 16.533 40.5334 16.533ZM45.794 14.2786H44.921C44.9682 14.0189 44.9942 13.752 44.9942 13.4788C44.9942 13.2056 44.9682 12.9386 44.921 12.679H46.5938V13.4788C46.5938 13.9197 46.235 14.2786 45.794 14.2786Z" fill="currentColor"/>
   <path d="M32.2669 11.2728H22.8487L21.256 9.14917C20.8414 8.59656 20.1815 8.2666 19.4909 8.2666H16.485C16.2184 8.2666 15.9752 8.41711 15.8562 8.65552C15.7368 8.89356 15.7625 9.17883 15.9225 9.3916L17.7261 11.7965C18.1403 12.3491 18.8002 12.6791 19.4909 12.6791H32.2669C32.6551 12.6791 32.97 12.3641 32.97 11.976C32.97 11.5874 32.6551 11.2728 32.2669 11.2728ZM19.4909 11.2728C19.2404 11.2728 19.0012 11.1531 18.8511 10.9528L17.8912 9.67285H19.4909C19.7413 9.67285 19.9805 9.79261 20.131 9.99292L21.0908 11.2728H19.4909Z" fill="currentColor"/>
   <path d="M8.96973 12.0242C8.16773 12.0242 7.51514 12.6768 7.51514 13.4788C7.51514 14.2808 8.16773 14.9334 8.96973 14.9334C9.7721 14.9334 10.4243 14.2808 10.4243 13.4788C10.4243 12.6768 9.7721 12.0242 8.96973 12.0242Z" fill="currentColor"/>
   <path d="M40.5337 12.0242C39.7317 12.0242 39.0791 12.6768 39.0791 13.4788C39.0791 14.2808 39.7317 14.9334 40.5337 14.9334C41.3357 14.9334 41.9883 14.2808 41.9883 13.4788C41.9883 12.6768 41.3357 12.0242 40.5337 12.0242Z" fill="currentColor"/>
</svg>
