<svg width="32" height="32" viewBox="0 0 32 32" fill="none" xmlns="http://www.w3.org/2000/svg">
<path d="M28.6666 11.275V6.15767C28.6666 4.14367 27.8559 3.33301 25.8419 3.33301H20.7246C18.7106 3.33301 17.8999 4.14367 17.8999 6.15767V11.275C17.8999 13.289 18.7106 14.0997 20.7246 14.0997H25.8419C27.8559 14.0997 28.6666 13.289 28.6666 11.275Z" stroke="#697586" stroke-width="2.08" stroke-linecap="round" stroke-linejoin="round"/>
<path d="M14.0997 11.5917V5.84101C14.0997 4.05501 13.289 3.33301 11.275 3.33301H6.15767C4.14367 3.33301 3.33301 4.05501 3.33301 5.84101V11.579C3.33301 13.3777 4.14367 14.087 6.15767 14.087H11.275C13.289 14.0997 14.0997 13.3777 14.0997 11.5917Z" stroke="#697586" stroke-width="2.08" stroke-linecap="round" stroke-linejoin="round"/>
<path d="M14.0997 25.8414V20.7241C14.0997 18.7101 13.289 17.8994 11.275 17.8994H6.15767C4.14367 17.8994 3.33301 18.7101 3.33301 20.7241V25.8414C3.33301 27.8554 4.14367 28.6661 6.15767 28.6661H11.275C13.289 28.6661 14.0997 27.8554 14.0997 25.8414Z" stroke="#697586" stroke-width="2.08" stroke-linecap="round" stroke-linejoin="round"/>
<path d="M19.1665 22.9658H26.7665" stroke="#697586" stroke-width="2.08" stroke-linecap="round"/>
<path d="M22.9663 26.766V19.166" stroke="#697586" stroke-width="2.08" stroke-linecap="round"/>
</svg>
