<svg width="24" height="24" viewBox="0 0 24 24" fill="none" xmlns="http://www.w3.org/2000/svg">
   <path fill-rule="evenodd" clip-rule="evenodd" d="M12.7778 4C13.5118 4 14.2227 4.09885 14.8979 4.28396C14.4036 4.9495 14.1111 5.77393 14.1111 6.66667C14.1111 8.87581 15.902 10.6667 18.1111 10.6667C19.0038 10.6667 19.8283 10.3742 20.4938 9.87988C20.6789 10.5551 20.7778 11.266 20.7778 12C20.7778 16.4183 17.1961 20 12.7778 20H6.55556C4.59188 20 3 18.4081 3 16.4444V12C3 7.58172 6.58172 4 11 4H12.7778ZM7.66667 10.2222C7.66667 9.85403 7.96514 9.55556 8.33333 9.55556H11.8889C12.2571 9.55556 12.5556 9.85403 12.5556 10.2222C12.5556 10.5904 12.2571 10.8889 11.8889 10.8889H8.33333C7.96514 10.8889 7.66667 10.5904 7.66667 10.2222ZM7.66667 13.7778C7.66667 13.4096 7.96514 13.1111 8.33333 13.1111H15.4444C15.8126 13.1111 16.1111 13.4096 16.1111 13.7778C16.1111 14.146 15.8126 14.4444 15.4444 14.4444H8.33333C7.96514 14.4444 7.66667 14.146 7.66667 13.7778ZM18.1125 9.33333C19.5853 9.33333 20.7792 8.13943 20.7792 6.66667C20.7792 5.19391 19.5853 4 18.1125 4C16.6397 4 15.4458 5.19391 15.4458 6.66667C15.4458 8.13943 16.6397 9.33333 18.1125 9.33333Z" fill="#4B5565"/>
</svg>
