<svg width="20" height="20" viewBox="0 0 20 20" fill="none" xmlns="http://www.w3.org/2000/svg">
<path d="M10.6057 1.2286V1.22862C12.8757 1.25886 15.042 2.18368 16.634 3.80212C18.226 5.42057 19.1149 7.60186 19.1077 9.87203C19.1006 12.1422 18.1978 14.3178 16.5956 15.9261C14.9934 17.5345 12.8212 18.4455 10.5511 18.4614L10.5506 18.4614C9.58962 18.4656 8.63534 18.303 7.73023 17.9809L3.28649 18.7622L3.28444 18.7625C3.15798 18.7834 3.02819 18.7674 2.91061 18.7164C2.83131 18.6823 2.75951 18.6329 2.69931 18.571C2.639 18.509 2.59152 18.4357 2.5596 18.3553C2.52767 18.2749 2.51193 18.189 2.51327 18.1026C2.51461 18.0162 2.53297 17.931 2.56728 17.8517L10.6057 1.2286ZM10.6057 1.2286H10.603M10.6057 1.2286H10.603M10.5757 1.2286C8.95293 1.22415 7.36194 1.67843 5.98618 2.53907C4.61034 3.39976 3.50579 4.6318 2.79989 6.09311C2.094 7.55443 1.81552 9.1855 1.99657 10.7982C2.17313 12.3711 2.77973 13.864 3.74865 15.1135L2.56742 17.8514L10.576 1.2286C10.5759 1.2286 10.5758 1.2286 10.5757 1.2286ZM10.5757 1.2286H10.5758M10.5757 1.2286H10.5758M10.603 1.2286H10.603M10.603 1.2286H10.603M10.603 1.2286H10.603M10.603 1.2286H10.603M10.603 1.2286H10.603M10.603 1.2286H10.603M10.603 1.2286H10.603M10.603 1.2286H10.603M10.603 1.2286H10.603M10.603 1.2286H10.603M10.603 1.2286H10.603M10.603 1.2286H10.603M10.603 1.2286H10.603M10.603 1.2286H10.603M10.603 1.2286H10.603M10.603 1.2286H10.603M10.603 1.2286H10.603M10.603 1.2286H10.603M10.603 1.2286H10.6029M10.603 1.2286H10.6029M10.6029 1.2286H10.6029M10.6029 1.2286H10.6029M10.6029 1.2286H10.6029M10.6029 1.2286H10.6029M10.6029 1.2286H10.6029M10.6029 1.2286H10.6029M10.6029 1.2286H10.6029M10.6029 1.2286H10.6029M10.6029 1.2286H10.6029M10.6029 1.2286H10.6029M10.6029 1.2286H10.6029M10.6029 1.2286H10.6029M10.6029 1.2286H10.6029M10.6029 1.2286H10.6029M10.6029 1.2286H10.6029M10.6029 1.2286H10.6029M10.6029 1.2286H10.6029M10.6029 1.2286H10.6029M10.6029 1.2286H10.6029M10.6029 1.2286H10.6029M10.6029 1.2286H10.6028M10.6029 1.2286H10.6028M10.6028 1.2286H10.6028M10.6028 1.2286H10.6028M10.6028 1.2286H10.6028M10.6028 1.2286H10.6028M10.6028 1.2286H10.6028M10.6028 1.2286H10.6028M10.6028 1.2286H10.6028M10.6028 1.2286H10.6028M10.6028 1.2286H10.6028M10.6028 1.2286H10.6028M10.6028 1.2286H10.6028M10.6028 1.2286H10.6028M10.6028 1.2286H10.6028M10.6028 1.2286H10.6028M10.6028 1.2286H10.6027M10.6028 1.2286H10.6027M10.6027 1.2286H10.6027M10.6027 1.2286H10.6027M10.6027 1.2286H10.6027M10.6027 1.2286H10.6027M10.6027 1.2286H10.6027M10.6027 1.2286H10.6027M10.6027 1.2286H10.6027M10.6027 1.2286H10.6027M10.6027 1.2286H10.6027M10.6027 1.2286H10.6027M10.6027 1.2286H10.6027M10.6027 1.2286H10.6027M10.6027 1.2286H10.6026M10.6027 1.2286H10.6026M10.6026 1.2286H10.6026M10.6026 1.2286H10.6026M10.6026 1.2286H10.6026M10.6026 1.2286H10.6026M10.6026 1.2286H10.6026M10.6026 1.2286H10.6026M10.6026 1.2286H10.6026M10.6026 1.2286H10.6026M10.6026 1.2286H10.6026M10.6026 1.2286H10.6026M10.6026 1.2286H10.6026M10.6026 1.2286H10.6026M10.6026 1.2286H10.6025M10.6026 1.2286H10.6025M10.6025 1.2286H10.6025M10.6025 1.2286H10.6025M10.6025 1.2286H10.6025M10.6025 1.2286H10.6025M10.6025 1.2286H10.6025M10.6025 1.2286H10.6025M10.6025 1.2286H10.6025M10.6025 1.2286H10.6025M10.6025 1.2286H10.6024M10.6025 1.2286H10.6024M10.6024 1.2286H10.6024M10.6024 1.2286H10.6024M10.6024 1.2286H10.6024M10.6024 1.2286H10.6024M10.6024 1.2286H10.6024M10.6024 1.2286H10.6024M10.6024 1.2286H10.6024M10.6024 1.2286H10.6024M10.6024 1.2286H10.6024M10.6024 1.2286H10.6024M10.6024 1.2286H10.6023M10.6024 1.2286H10.6023M10.6023 1.2286H10.6023M10.6023 1.2286H10.6023M10.6023 1.2286H10.6023M10.6023 1.2286H10.6023M10.6023 1.2286H10.6023M10.6023 1.2286H10.6023M10.6023 1.2286H10.6022M10.6023 1.2286H10.6022M10.6022 1.2286H10.6022M10.6022 1.2286H10.6022M10.6022 1.2286H10.6022M10.6022 1.2286H10.6022M10.6022 1.2286H10.6022M10.6022 1.2286H10.6022M10.6022 1.2286H10.6022M10.6022 1.2286H10.6022M10.6022 1.2286H10.6021M10.6022 1.2286H10.6021M10.6021 1.2286H10.6021M10.6021 1.2286H10.6021M10.6021 1.2286H10.6021M10.6021 1.2286H10.6021M10.6021 1.2286H10.6021M10.6021 1.2286H10.6021M10.6021 1.2286H10.602M10.6021 1.2286H10.602M10.602 1.2286H10.602M10.602 1.2286H10.602M10.602 1.2286H10.602M10.602 1.2286H10.602M10.602 1.2286H10.602M10.602 1.2286H10.602M10.602 1.2286H10.602M10.602 1.2286H10.602M10.602 1.2286H10.6019M10.602 1.2286H10.6019M10.6019 1.2286H10.6019M10.6019 1.2286H10.6019M10.6019 1.2286H10.6019M10.6019 1.2286H10.6019M10.6019 1.2286H10.6019M10.6019 1.2286H10.6019M10.6019 1.2286H10.6018M10.6019 1.2286H10.6018M10.6018 1.2286H10.6018M10.6018 1.2286H10.6018M10.6018 1.2286H10.6018M10.6018 1.2286H10.6018M10.6018 1.2286H10.6017M10.6018 1.2286H10.6017M10.6017 1.2286H10.6017M10.6017 1.2286H10.6017M10.6017 1.2286H10.6017M10.6017 1.2286H10.6017M10.6017 1.2286H10.6017M10.6017 1.2286H10.6017M10.6017 1.2286H10.6016M10.6017 1.2286H10.6016M10.6016 1.2286H10.6016M10.6016 1.2286H10.6016M10.6016 1.2286H10.6016M10.6016 1.2286H10.6016M10.6016 1.2286H10.6016M10.6016 1.2286H10.6016M10.6016 1.2286H10.6015M10.6016 1.2286H10.6015M10.6015 1.2286H10.6015M10.6015 1.2286H10.6015M10.6015 1.2286H10.6015M10.6015 1.2286H10.6015M10.6015 1.2286H10.6014M10.6015 1.2286H10.6014M10.6014 1.2286H10.6014M10.6014 1.2286H10.6014M10.6014 1.2286H10.6014M10.6014 1.2286H10.6014M10.6014 1.2286H10.6014M10.6014 1.2286H10.6014M10.6014 1.2286H10.6013M10.6014 1.2286H10.6013M10.6013 1.2286H10.6013M10.6013 1.2286H10.6013M10.6013 1.2286H10.6013M10.6013 1.2286H10.6013M10.6013 1.2286H10.6012M10.6013 1.2286H10.6012M10.6012 1.2286H10.6012M10.6012 1.2286H10.6012M10.6012 1.2286H10.6012M10.6012 1.2286H10.6012M10.6012 1.2286H10.6011M10.6012 1.2286H10.6011M10.6011 1.2286H10.6011M10.6011 1.2286H10.6011M10.6011 1.2286H10.6011M10.6011 1.2286H10.6011M10.6011 1.2286H10.601M10.6011 1.2286H10.601M10.601 1.2286H10.601M10.601 1.2286H10.601M10.601 1.2286H10.601M10.601 1.2286H10.601M10.601 1.2286H10.6009M10.601 1.2286H10.6009M10.6009 1.2286H10.6009M10.6009 1.2286H10.6009M10.6009 1.2286H10.6009M10.6009 1.2286H10.6009M10.6009 1.2286H10.6008M10.6009 1.2286H10.6008M10.6008 1.2286H10.6008M10.6008 1.2286H10.6008M10.6008 1.2286H10.6008M10.6008 1.2286H10.6008M10.6008 1.2286H10.6007M10.6008 1.2286H10.6007M10.6007 1.2286H10.6007M10.6007 1.2286H10.6007M10.6007 1.2286H10.6007M10.6007 1.2286H10.6007M10.6007 1.2286H10.6006M10.6007 1.2286H10.6006M10.6006 1.2286H10.6006M10.6006 1.2286H10.6006M10.6006 1.2286H10.6006M10.6006 1.2286H10.6006M10.6006 1.2286H10.6005M10.6006 1.2286H10.6005M10.6005 1.2286H10.6005M10.6005 1.2286H10.6005M10.6005 1.2286H10.6005M10.6005 1.2286H10.6005M10.6005 1.2286H10.6004M10.6005 1.2286H10.6004M10.6004 1.2286H10.6004M10.6004 1.2286H10.6004M10.6004 1.2286H10.6003M10.6004 1.2286H10.6003M10.6003 1.2286H10.6003M10.6003 1.2286H10.6003M10.6003 1.2286H10.6003M10.6003 1.2286H10.6003M10.6003 1.2286H10.6002M10.6003 1.2286H10.6002M10.6002 1.2286H10.6002M10.6002 1.2286H10.6002M10.6002 1.2286H10.6002M10.6002 1.2286H10.6002M10.6002 1.2286H10.6001M10.6002 1.2286H10.6001M10.6001 1.2286H10.6001M10.6001 1.2286H10.6001M10.6001 1.2286H10.6M10.6001 1.2286H10.6M10.6 1.2286H10.6M10.6 1.2286H10.6M10.6 1.2286H10.6M10.6 1.2286H10.6M10.6 1.2286H10.5999M10.6 1.2286H10.5999M10.5999 1.2286H10.5999M10.5999 1.2286H10.5999M10.5999 1.2286H10.5998M10.5999 1.2286H10.5998M10.5998 1.2286H10.5998M10.5998 1.2286H10.5998M10.5998 1.2286H10.5998M10.5998 1.2286H10.5998M10.5998 1.2286H10.5997M10.5998 1.2286H10.5997M10.5997 1.2286H10.5997M10.5997 1.2286H10.5997M10.5997 1.2286H10.5996M10.5997 1.2286H10.5996M10.5996 1.2286H10.5996M10.5996 1.2286H10.5996M10.5996 1.2286H10.5996M10.5996 1.2286H10.5996M10.5996 1.2286H10.5995M10.5996 1.2286H10.5995M10.5995 1.2286H10.5995M10.5995 1.2286H10.5995M10.5995 1.2286H10.5994M10.5995 1.2286H10.5994M10.5994 1.2286H10.5994M10.5994 1.2286H10.5994M10.5994 1.2286H10.5993M10.5994 1.2286H10.5993M10.5993 1.2286H10.5993M10.5993 1.2286H10.5993M10.5993 1.2286H10.5993M10.5993 1.2286H10.5993M10.5993 1.2286H10.5992M10.5993 1.2286H10.5992M10.5992 1.2286H10.5992M10.5992 1.2286H10.5992M10.5992 1.2286H10.5991M10.5992 1.2286H10.5991M10.5991 1.2286H10.5991M10.5991 1.2286H10.5991M10.5991 1.2286H10.599M10.5991 1.2286H10.599M10.599 1.2286H10.599M10.599 1.2286H10.599M10.599 1.2286H10.599M10.599 1.2286H10.599M10.599 1.2286H10.5989M10.599 1.2286H10.5989M10.5989 1.2286H10.5989M10.5989 1.2286H10.5989M10.5989 1.2286H10.5988M10.5989 1.2286H10.5988M10.5988 1.2286H10.5988M10.5988 1.2286H10.5988M10.5988 1.2286H10.5987M10.5988 1.2286H10.5987M10.5987 1.2286H10.5987M10.5987 1.2286H10.5987M10.5987 1.2286H10.5986M10.5987 1.2286H10.5986M10.5986 1.2286H10.5986M10.5986 1.2286H10.5986M10.5986 1.2286H10.5985M10.5986 1.2286H10.5985M10.5985 1.2286H10.5985M10.5985 1.2286H10.5985M10.5985 1.2286H10.5985M10.5985 1.2286H10.5985M10.5985 1.2286H10.5984M10.5985 1.2286H10.5984M10.5984 1.2286H10.5984M10.5984 1.2286H10.5984M10.5984 1.2286H10.5983M10.5984 1.2286H10.5983M10.5983 1.2286H10.5983M10.5983 1.2286H10.5983M10.5983 1.2286H10.5982M10.5983 1.2286H10.5982M10.5982 1.2286H10.5982M10.5982 1.2286H10.5982M10.5982 1.2286H10.5981M10.5982 1.2286H10.5981M10.5981 1.2286H10.5981M10.5981 1.2286H10.5981M10.5981 1.2286H10.598M10.5981 1.2286H10.598M10.598 1.2286H10.598M10.598 1.2286H10.598M10.598 1.2286H10.5979M10.598 1.2286H10.5979M10.5979 1.2286H10.5979M10.5979 1.2286H10.5979M10.5979 1.2286H10.5978M10.5979 1.2286H10.5978M10.5978 1.2286H10.5978M10.5978 1.2286H10.5978M10.5978 1.2286H10.5977M10.5978 1.2286H10.5977M10.5977 1.2286H10.5977M10.5977 1.2286H10.5977M10.5977 1.2286H10.5976M10.5977 1.2286H10.5976M10.5976 1.2286H10.5976M10.5976 1.2286H10.5976M10.5976 1.2286H10.5975M10.5976 1.2286H10.5975M10.5975 1.2286H10.5975M10.5975 1.2286H10.5975M10.5975 1.2286H10.5974M10.5975 1.2286H10.5974M10.5974 1.2286H10.5974M10.5974 1.2286H10.5974M10.5974 1.2286H10.5973M10.5974 1.2286H10.5973M10.5973 1.2286H10.5973M10.5973 1.2286H10.5973M10.5973 1.2286H10.5972M10.5973 1.2286H10.5972M10.5972 1.2286H10.5972M10.5972 1.2286H10.5972M10.5972 1.2286H10.5971M10.5972 1.2286H10.5971M10.5971 1.2286H10.5971M10.5971 1.2286H10.5971M10.5971 1.2286H10.597M10.5971 1.2286H10.597M10.597 1.2286H10.597M10.597 1.2286H10.597M10.597 1.2286H10.5969M10.597 1.2286H10.5969M10.5969 1.2286H10.5969M10.5969 1.2286H10.5969M10.5969 1.2286H10.5968M10.5969 1.2286H10.5968M10.5968 1.2286H10.5968M10.5968 1.2286H10.5968M10.5968 1.2286H10.5967M10.5968 1.2286H10.5967M10.5967 1.2286H10.5966M10.5967 1.2286H10.5966M10.5966 1.2286H10.5966M10.5966 1.2286H10.5966M10.5966 1.2286H10.5965M10.5966 1.2286H10.5965M10.5965 1.2286H10.5965M10.5965 1.2286H10.5965M10.5965 1.2286H10.5964M10.5965 1.2286H10.5964M10.5964 1.2286H10.5964M10.5964 1.2286H10.5964M10.5964 1.2286H10.5963M10.5964 1.2286H10.5963M10.5963 1.2286H10.5963M10.5963 1.2286H10.5963M10.5963 1.2286H10.5962M10.5963 1.2286H10.5962M10.5962 1.2286H10.5962M10.5962 1.2286H10.5962M10.5962 1.2286H10.5961M10.5962 1.2286H10.5961M10.5961 1.2286H10.596M10.5961 1.2286H10.596M10.596 1.2286H10.596M10.596 1.2286H10.596M10.596 1.2286H10.5959M10.596 1.2286H10.5959M10.5959 1.2286H10.5959M10.5959 1.2286H10.5959M10.5959 1.2286H10.5958M10.5959 1.2286H10.5958M10.5958 1.2286H10.5958M10.5958 1.2286H10.5958M10.5958 1.2286H10.5957M10.5958 1.2286H10.5957M10.5957 1.2286H10.5956M10.5957 1.2286H10.5956M10.5956 1.2286H10.5956M10.5956 1.2286H10.5956M10.5956 1.2286H10.5955M10.5956 1.2286H10.5955M10.5955 1.2286H10.5955M10.5955 1.2286H10.5955M10.5955 1.2286H10.5954M10.5955 1.2286H10.5954M10.5954 1.2286H10.5954M10.5954 1.2286H10.5954M10.5954 1.2286H10.5953M10.5954 1.2286H10.5953M10.5953 1.2286H10.5952M10.5953 1.2286H10.5952M10.5952 1.2286H10.5952M10.5952 1.2286H10.5952M10.5952 1.2286H10.5951M10.5952 1.2286H10.5951M10.5951 1.2286H10.5951M10.5951 1.2286H10.5951M10.5951 1.2286H10.595M10.5951 1.2286H10.595M10.595 1.2286H10.595M10.595 1.2286H10.595M10.595 1.2286H10.5949M10.595 1.2286H10.5949M10.5949 1.2286H10.5948M10.5949 1.2286H10.5948M10.5948 1.2286H10.5948M10.5948 1.2286H10.5948M10.5948 1.2286H10.5947M10.5948 1.2286H10.5947M10.5947 1.2286H10.5947M10.5947 1.2286H10.5947M10.5947 1.2286H10.5946M10.5947 1.2286H10.5946M10.5946 1.2286H10.5945M10.5946 1.2286H10.5945M10.5945 1.2286H10.5945M10.5945 1.2286H10.5945M10.5945 1.2286H10.5944M10.5945 1.2286H10.5944M10.5944 1.2286H10.5944M10.5944 1.2286H10.5944M10.5944 1.2286H10.5943M10.5944 1.2286H10.5943M10.5943 1.2286H10.5942M10.5943 1.2286H10.5942M10.5942 1.2286H10.5942M10.5942 1.2286H10.5942M10.5942 1.2286H10.5941M10.5942 1.2286H10.5941M10.5941 1.2286H10.594M10.5941 1.2286H10.594M10.594 1.2286H10.594M10.594 1.2286H10.594M10.594 1.2286H10.5939M10.594 1.2286H10.5939M10.5939 1.2286H10.5939M10.5939 1.2286H10.5939M10.5939 1.2286H10.5938M10.5939 1.2286H10.5938M10.5938 1.2286H10.5937M10.5938 1.2286H10.5937M10.5937 1.2286H10.5937M10.5937 1.2286H10.5937M10.5937 1.2286H10.5936M10.5937 1.2286H10.5936M10.5936 1.2286H10.5936M10.5936 1.2286H10.5936M10.5936 1.2286H10.5935M10.5936 1.2286H10.5935M10.5935 1.2286H10.5934M10.5935 1.2286H10.5934M10.5934 1.2286H10.5934M10.5934 1.2286H10.5934M10.5934 1.2286H10.5933M10.5934 1.2286H10.5933M10.5933 1.2286H10.5932M10.5933 1.2286H10.5932M10.5932 1.2286H10.5932M10.5932 1.2286H10.5932M10.5932 1.2286H10.5931M10.5932 1.2286H10.5931M10.5931 1.2286H10.593M10.5931 1.2286H10.593M10.593 1.2286H10.593M10.593 1.2286H10.593M10.593 1.2286H10.5929M10.593 1.2286H10.5929M10.5929 1.2286H10.5929M10.5929 1.2286H10.5929M10.5929 1.2286H10.5928M10.5929 1.2286H10.5928M10.5928 1.2286H10.5927M10.5928 1.2286H10.5927M10.5927 1.2286H10.5927M10.5927 1.2286H10.5927M10.5927 1.2286H10.5926M10.5927 1.2286H10.5926M10.5926 1.2286H10.5925M10.5926 1.2286H10.5925M10.5925 1.2286H10.5925M10.5925 1.2286H10.5925M10.5925 1.2286H10.5924M10.5925 1.2286H10.5924M10.5924 1.2286H10.5923M10.5924 1.2286H10.5923M10.5923 1.2286H10.5923M10.5923 1.2286H10.5923M10.5923 1.2286H10.5922M10.5923 1.2286H10.5922M10.5922 1.2286H10.5921M10.5922 1.2286H10.5921M10.5921 1.2286H10.5921M10.5921 1.2286H10.5921M10.5921 1.2286H10.592M10.5921 1.2286H10.592M10.592 1.2286H10.5919M10.592 1.2286H10.5919M10.5919 1.2286H10.5919M10.5919 1.2286H10.5919M10.5919 1.2286H10.5918M10.5919 1.2286H10.5918M10.5918 1.2286H10.5917M10.5918 1.2286H10.5917M10.5917 1.2286H10.5917M10.5917 1.2286H10.5917M10.5917 1.2286H10.5916M10.5917 1.2286H10.5916M10.5916 1.2286H10.5915M10.5916 1.2286H10.5915M10.5915 1.2286H10.5915M10.5915 1.2286H10.5915M10.5915 1.2286H10.5914M10.5915 1.2286H10.5914M10.5914 1.2286H10.5913M10.5914 1.2286H10.5913M10.5913 1.2286H10.5913M10.5913 1.2286H10.5913M10.5913 1.2286H10.5912M10.5913 1.2286H10.5912M10.5912 1.2286H10.5911M10.5912 1.2286H10.5911M10.5911 1.2286H10.5911M10.5911 1.2286H10.5911M10.5911 1.2286H10.591M10.5911 1.2286H10.591M10.591 1.2286H10.5909M10.591 1.2286H10.5909M10.5909 1.2286H10.5909M10.5909 1.2286H10.5909M10.5909 1.2286H10.5908M10.5909 1.2286H10.5908M10.5908 1.2286H10.5907M10.5908 1.2286H10.5907M10.5907 1.2286H10.5907M10.5907 1.2286H10.5907M10.5907 1.2286H10.5906M10.5907 1.2286H10.5906M10.5906 1.2286H10.5905M10.5906 1.2286H10.5905M10.5905 1.2286H10.5904M10.5905 1.2286H10.5904M10.5904 1.2286H10.5904M10.5904 1.2286H10.5904M10.5904 1.2286H10.5903M10.5904 1.2286H10.5903M10.5903 1.2286H10.5902M10.5903 1.2286H10.5902M10.5902 1.2286H10.5902M10.5902 1.2286H10.5902M10.5902 1.2286H10.5901M10.5902 1.2286H10.5901M10.5901 1.2286H10.59M10.5901 1.2286H10.59M10.59 1.2286H10.59M10.59 1.2286H10.59M10.59 1.2286H10.5899M10.59 1.2286H10.5899M10.5899 1.2286H10.5898M10.5899 1.2286H10.5898M10.5898 1.2286H10.5897M10.5898 1.2286H10.5897M10.5897 1.2286H10.5897M10.5897 1.2286H10.5897M10.5897 1.2286H10.5896M10.5897 1.2286H10.5896M10.5896 1.2286H10.5895M10.5896 1.2286H10.5895M10.5895 1.2286H10.5895M10.5895 1.2286H10.5895M10.5895 1.2286H10.5894M10.5895 1.2286H10.5894M10.5894 1.2286H10.5893M10.5894 1.2286H10.5893M10.5893 1.2286H10.5892M10.5893 1.2286H10.5892M10.5892 1.2286H10.5892M10.5892 1.2286H10.5892M10.5892 1.2286H10.5891M10.5892 1.2286H10.5891M10.5891 1.2286H10.589M10.5891 1.2286H10.589M10.589 1.2286H10.589M10.589 1.2286H10.589M10.589 1.2286H10.5889M10.589 1.2286H10.5889M10.5889 1.2286H10.5888M10.5889 1.2286H10.5888M10.5888 1.2286H10.5887M10.5888 1.2286H10.5887M10.5887 1.2286H10.5887M10.5887 1.2286H10.5887M10.5887 1.2286H10.5886M10.5887 1.2286H10.5886M10.5886 1.2286H10.5885M10.5886 1.2286H10.5885M10.5885 1.2286H10.5885M10.5885 1.2286H10.5885M10.5885 1.2286H10.5884M10.5885 1.2286H10.5884M10.5884 1.2286H10.5883M10.5884 1.2286H10.5883M10.5883 1.2286H10.5882M10.5883 1.2286H10.5882M10.5882 1.2286H10.5882M10.5882 1.2286H10.5882M10.5882 1.2286H10.5881M10.5882 1.2286H10.5881M10.5881 1.2286H10.588M10.5881 1.2286H10.588M10.588 1.2286H10.5879M10.588 1.2286H10.5879M10.5879 1.2286H10.5879M10.5879 1.2286H10.5879M10.5879 1.2286H10.5878M10.5879 1.2286H10.5878M10.5878 1.2286H10.5877M10.5878 1.2286H10.5877M10.5877 1.2286H10.5876M10.5877 1.2286H10.5876M10.5876 1.2286H10.5876M10.5876 1.2286H10.5876M10.5876 1.2286H10.5875M10.5876 1.2286H10.5875M10.5875 1.2286H10.5874M10.5875 1.2286H10.5874M10.5874 1.2286H10.5874M10.5874 1.2286H10.5874M10.5874 1.2286H10.5873M10.5874 1.2286H10.5873M10.5873 1.2286H10.5872M10.5873 1.2286H10.5872M10.5872 1.2286H10.5871M10.5872 1.2286H10.5871M10.5871 1.2286H10.5871M10.5871 1.2286H10.5871M10.5871 1.2286H10.587M10.5871 1.2286H10.587M10.587 1.2286H10.5869M10.587 1.2286H10.5869M10.5869 1.2286H10.5868M10.5869 1.2286H10.5868M10.5868 1.2286H10.5868M10.5868 1.2286H10.5868M10.5868 1.2286H10.5867M10.5868 1.2286H10.5867M10.5867 1.2286H10.5866M10.5867 1.2286H10.5866M10.5866 1.2286H10.5865M10.5866 1.2286H10.5865M10.5865 1.2286H10.5865M10.5865 1.2286H10.5865M10.5865 1.2286H10.5864M10.5865 1.2286H10.5864M10.5864 1.2286H10.5863M10.5864 1.2286H10.5863M10.5863 1.2286H10.5862M10.5863 1.2286H10.5862M10.5862 1.2286H10.5862M10.5862 1.2286H10.5862M10.5862 1.2286H10.5861M10.5862 1.2286H10.5861M10.5861 1.2286H10.586M10.5861 1.2286H10.586M10.586 1.2286H10.5859M10.586 1.2286H10.5859M10.5859 1.2286H10.5858M10.5859 1.2286H10.5858M10.5858 1.2286H10.5858M10.5858 1.2286H10.5858M10.5858 1.2286H10.5857M10.5858 1.2286H10.5857M10.5857 1.2286H10.5856M10.5857 1.2286H10.5856M10.5856 1.2286H10.5855M10.5856 1.2286H10.5855M10.5855 1.2286H10.5855M10.5855 1.2286H10.5855M10.5855 1.2286H10.5854M10.5855 1.2286H10.5854M10.5854 1.2286H10.5853M10.5854 1.2286H10.5853M10.5853 1.2286H10.5852M10.5853 1.2286H10.5852M10.5852 1.2286H10.5852M10.5852 1.2286H10.5852M10.5852 1.2286H10.5851M10.5852 1.2286H10.5851M10.5851 1.2286H10.585M10.5851 1.2286H10.585M10.585 1.2286H10.5849M10.585 1.2286H10.5849M10.5849 1.2286H10.5848M10.5849 1.2286H10.5848M10.5848 1.2286H10.5848M10.5848 1.2286H10.5848M10.5848 1.2286H10.5847M10.5848 1.2286H10.5847M10.5847 1.2286H10.5846M10.5847 1.2286H10.5846M10.5846 1.2286H10.5845M10.5846 1.2286H10.5845M10.5845 1.2286H10.5845M10.5845 1.2286H10.5845M10.5845 1.2286H10.5844M10.5845 1.2286H10.5844M10.5844 1.2286H10.5843M10.5844 1.2286H10.5843M10.5843 1.2286H10.5842M10.5843 1.2286H10.5842M10.5842 1.2286H10.5841M10.5842 1.2286H10.5841M10.5841 1.2286H10.5841M10.5841 1.2286H10.5841M10.5841 1.2286H10.584M10.5841 1.2286H10.584M10.584 1.2286H10.5839M10.584 1.2286H10.5839M10.5839 1.2286H10.5838M10.5839 1.2286H10.5838M10.5838 1.2286H10.5838M10.5838 1.2286H10.5838M10.5838 1.2286H10.5837M10.5838 1.2286H10.5837M10.5837 1.2286H10.5836M10.5837 1.2286H10.5836M10.5836 1.2286H10.5835M10.5836 1.2286H10.5835M10.5835 1.2286H10.5834M10.5835 1.2286H10.5834M10.5834 1.2286H10.5834M10.5834 1.2286H10.5834M10.5834 1.2286H10.5833M10.5834 1.2286H10.5833M10.5833 1.2286H10.5832M10.5833 1.2286H10.5832M10.5832 1.2286H10.5831M10.5832 1.2286H10.5831M10.5831 1.2286H10.583M10.5831 1.2286H10.583M10.583 1.2286H10.583M10.583 1.2286H10.583M10.583 1.2286H10.5829M10.583 1.2286H10.5829M10.5829 1.2286H10.5828M10.5829 1.2286H10.5828M10.5828 1.2286H10.5827M10.5828 1.2286H10.5827M10.5827 1.2286H10.5826M10.5827 1.2286H10.5826M10.5826 1.2286H10.5826M10.5826 1.2286H10.5826M10.5826 1.2286H10.5825M10.5826 1.2286H10.5825M10.5825 1.2286H10.5824M10.5825 1.2286H10.5824M10.5824 1.2286H10.5823M10.5824 1.2286H10.5823M10.5823 1.2286H10.5822M10.5823 1.2286H10.5822M10.5822 1.2286H10.5822M10.5822 1.2286H10.5822M10.5822 1.2286H10.5821M10.5822 1.2286H10.5821M10.5821 1.2286H10.582M10.5821 1.2286H10.582M10.582 1.2286H10.5819M10.582 1.2286H10.5819M10.5819 1.2286H10.5818M10.5819 1.2286H10.5818M10.5818 1.2286H10.5818M10.5818 1.2286H10.5818M10.5818 1.2286H10.5817M10.5818 1.2286H10.5817M10.5817 1.2286H10.5816M10.5817 1.2286H10.5816M10.5816 1.2286H10.5815M10.5816 1.2286H10.5815M10.5815 1.2286H10.5814M10.5815 1.2286H10.5814M10.5814 1.2286H10.5814M10.5814 1.2286H10.5814M10.5814 1.2286H10.5813M10.5814 1.2286H10.5813M10.5813 1.2286H10.5812M10.5813 1.2286H10.5812M10.5812 1.2286H10.5811M10.5812 1.2286H10.5811M10.5811 1.2286H10.581M10.5811 1.2286H10.581M10.581 1.2286H10.581M10.581 1.2286H10.581M10.581 1.2286H10.5809M10.581 1.2286H10.5809M10.5809 1.2286H10.5808M10.5809 1.2286H10.5808M10.5808 1.2286H10.5807M10.5808 1.2286H10.5807M10.5807 1.2286H10.5806M10.5807 1.2286H10.5806M10.5806 1.2286H10.5806M10.5806 1.2286H10.5806M10.5806 1.2286H10.5805M10.5806 1.2286H10.5805M10.5805 1.2286H10.5804M10.5805 1.2286H10.5804M10.5804 1.2286H10.5803M10.5804 1.2286H10.5803M10.5803 1.2286H10.5802M10.5803 1.2286H10.5802M10.5802 1.2286H10.5801M10.5802 1.2286H10.5801M10.5801 1.2286H10.5801M10.5801 1.2286H10.5801M10.5801 1.2286H10.58M10.5801 1.2286H10.58M10.58 1.2286H10.5799M10.58 1.2286H10.5799M10.5799 1.2286H10.5798M10.5799 1.2286H10.5798M10.5798 1.2286H10.5797M10.5798 1.2286H10.5797M10.5797 1.2286H10.5797M10.5797 1.2286H10.5797M10.5797 1.2286H10.5796M10.5797 1.2286H10.5796M10.5796 1.2286H10.5795M10.5796 1.2286H10.5795M10.5795 1.2286H10.5794M10.5795 1.2286H10.5794M10.5794 1.2286H10.5793M10.5794 1.2286H10.5793M10.5793 1.2286H10.5792M10.5793 1.2286H10.5792M10.5792 1.2286H10.5792M10.5792 1.2286H10.5792M10.5792 1.2286H10.5791M10.5792 1.2286H10.5791M10.5791 1.2286H10.579M10.5791 1.2286H10.579M10.579 1.2286H10.5789M10.579 1.2286H10.5789M10.5789 1.2286H10.5788M10.5789 1.2286H10.5788M10.5788 1.2286H10.5788M10.5788 1.2286H10.5788M10.5788 1.2286H10.5787M10.5788 1.2286H10.5787M10.5787 1.2286H10.5786M10.5787 1.2286H10.5786M10.5786 1.2286H10.5785M10.5786 1.2286H10.5785M10.5785 1.2286H10.5784M10.5785 1.2286H10.5784M10.5784 1.2286H10.5783M10.5784 1.2286H10.5783M10.5783 1.2286H10.5783M10.5783 1.2286H10.5783M10.5783 1.2286H10.5782M10.5783 1.2286H10.5782M10.5782 1.2286H10.5781M10.5782 1.2286H10.5781M10.5781 1.2286H10.578M10.5781 1.2286H10.578M10.578 1.2286H10.5779M10.578 1.2286H10.5779M10.5779 1.2286H10.5778M10.5779 1.2286H10.5778M10.5778 1.2286H10.5778M10.5778 1.2286H10.5778M10.5778 1.2286H10.5777M10.5778 1.2286H10.5777M10.5777 1.2286H10.5776M10.5777 1.2286H10.5776M10.5776 1.2286H10.5775M10.5776 1.2286H10.5775M10.5775 1.2286H10.5774M10.5775 1.2286H10.5774M10.5774 1.2286H10.5773M10.5774 1.2286H10.5773M10.5773 1.2286H10.5773M10.5773 1.2286H10.5773M10.5773 1.2286H10.5772M10.5773 1.2286H10.5772M10.5772 1.2286H10.5771M10.5772 1.2286H10.5771M10.5771 1.2286H10.577M10.5771 1.2286H10.577M10.577 1.2286H10.5769M10.577 1.2286H10.5769M10.5769 1.2286H10.5768M10.5769 1.2286H10.5768M10.5768 1.2286H10.5768M10.5768 1.2286H10.5768M10.5768 1.2286H10.5767M10.5768 1.2286H10.5767M10.5767 1.2286H10.5766M10.5767 1.2286H10.5766M10.5766 1.2286H10.5765M10.5766 1.2286H10.5765M10.5765 1.2286H10.5764M10.5765 1.2286H10.5764M10.5764 1.2286H10.5763M10.5764 1.2286H10.5763M10.5763 1.2286H10.5763M10.5763 1.2286H10.5763M10.5763 1.2286H10.5762M10.5763 1.2286H10.5762M10.5762 1.2286H10.5761M10.5762 1.2286H10.5761M10.5761 1.2286H10.576M10.5761 1.2286H10.576M10.576 1.2286H10.5759M10.576 1.2286H10.5759M10.5759 1.2286H10.5758M10.5759 1.2286H10.5758M10.5758 1.2286H10.5758M10.5758 1.2286H10.5758M7.68546 16.6523L4.26631 17.2494L5.12126 15.2605L5.12135 15.2603C5.16996 15.1468 5.18588 15.022 5.16732 14.9C5.14875 14.778 5.09643 14.6636 5.01627 14.5697L5.01554 14.5689C4.48719 13.9572 4.06651 13.2602 3.77141 12.5077C3.38072 11.5098 3.21457 10.4381 3.28478 9.3687C3.35498 8.29933 3.65981 7.25854 4.17761 6.32026C4.69541 5.38198 5.41348 4.56924 6.28081 3.93977C7.14814 3.3103 8.14344 2.87955 9.19601 2.67811C10.2486 2.47668 11.3326 2.50951 12.3711 2.77426C13.4095 3.03902 14.3769 3.52921 15.2046 4.21001C16.0322 4.8908 16.6998 5.74551 17.1599 6.7134C17.6199 7.68118 17.8612 8.73838 17.8666 9.80991V9.83657C17.8634 11.7739 17.0927 13.6311 15.7232 15.0014C14.3538 16.3717 12.4973 17.1436 10.5601 17.1481C9.69804 17.1467 8.84334 16.9899 8.03694 16.6853C7.92519 16.6415 7.80339 16.6301 7.68546 16.6523ZM10.1993 7.25223H7.72316C7.54824 7.25223 7.38049 7.32173 7.25682 7.4454C7.13313 7.56908 7.06365 7.73682 7.06365 7.91174C7.06365 8.08665 7.13313 8.2544 7.25682 8.37809C7.38051 8.50178 7.54826 8.57125 7.72316 8.57125H10.1993C10.3742 8.57125 10.5419 8.50178 10.6656 8.37809C10.7893 8.2544 10.8588 8.08665 10.8588 7.91174C10.8588 7.73682 10.7893 7.56908 10.6656 7.4454C10.5419 7.32173 10.3742 7.25223 10.1993 7.25223ZM13.4135 10.2626H7.7184C7.54348 10.2626 7.37573 10.3321 7.25206 10.4558C7.12838 10.5795 7.05889 10.7472 7.05889 10.9222C7.05889 11.0971 7.12838 11.2648 7.25206 11.3885C7.37575 11.5122 7.5435 11.5817 7.7184 11.5817H13.4135C13.5884 11.5817 13.7561 11.5122 13.8798 11.3885C14.0035 11.2648 14.073 11.0971 14.073 10.9222C14.073 10.7472 14.0035 10.5795 13.8798 10.4558C13.7561 10.3321 13.5884 10.2626 13.4135 10.2626Z" fill="#155EEF" stroke="#155EEF" stroke-width="0.4"/>
</svg>
