<svg width="32" height="32" viewBox="0 0 32 32" fill="none" xmlns="http://www.w3.org/2000/svg">
<g clip-path="url(#clip0_984_17092)">
<mask id="mask0_984_17092" style="mask-type:luminance" maskUnits="userSpaceOnUse" x="0" y="0" width="32" height="32">
<path d="M0 3.8147e-06H32V32H0V3.8147e-06Z" fill="white"/>
</mask>
<g mask="url(#mask0_984_17092)">
<path d="M16 30.75C14.8414 30.75 13.7276 30.3243 12.8636 29.5513C11.8992 28.6883 10.6557 28.2131 9.36231 28.2131C9.21275 28.2131 9.06137 28.2196 8.91237 28.2324C8.77606 28.2441 8.63725 28.25 8.5 28.25C5.88087 28.25 3.75 26.1192 3.75 23.5C3.75 23.3628 3.75594 23.224 3.76762 23.0876C3.89119 21.6513 3.41044 20.2111 2.44875 19.1364C1.67575 18.2724 1.25 17.1586 1.25 16C1.25 14.8414 1.67575 13.7276 2.44875 12.8636C3.41044 11.7889 3.89119 10.3487 3.76762 8.91231C3.75594 8.776 3.75 8.63725 3.75 8.5C3.75 5.88082 5.88087 3.75 8.5 3.75C8.63725 3.75 8.77606 3.75594 8.91244 3.76763C9.06119 3.78044 9.21237 3.78694 9.36175 3.78694C10.6556 3.78688 11.8992 3.31169 12.8636 2.44875C13.7276 1.67575 14.8414 1.25 16 1.25C17.1586 1.25 18.2724 1.67575 19.1364 2.44875C20.1008 3.31175 21.3443 3.787 22.6377 3.78694C22.7872 3.78694 22.9387 3.78044 23.0876 3.76763C23.2239 3.75594 23.3627 3.75 23.5 3.75C26.1191 3.75 28.25 5.88082 28.25 8.5C28.25 8.63725 28.2441 8.776 28.2324 8.91238C28.1088 10.3487 28.5896 11.7889 29.5512 12.8636C30.3242 13.7276 30.75 14.8414 30.75 16C30.75 17.1586 30.3242 18.2724 29.5512 19.1364C28.5896 20.2111 28.1088 21.6513 28.2324 23.0877C28.2441 23.224 28.25 23.3628 28.25 23.5C28.25 26.1192 26.1191 28.25 23.5 28.25C23.3627 28.25 23.2239 28.2441 23.0876 28.2324C22.9388 28.2196 22.7876 28.2131 22.6382 28.2131C21.3445 28.2131 20.1007 28.6883 19.1364 29.5513C18.2724 30.3243 17.1586 30.75 16 30.75Z" stroke="#697586" stroke-width="2.08" stroke-miterlimit="10"/>
<path d="M12.25 16L14.75 18.5L19.75 13.5" stroke="#697586" stroke-width="2.08" stroke-miterlimit="10"/>
<path d="M16 24.75C11.1757 24.75 7.25 20.8242 7.25 16C7.25 11.1758 11.1757 7.25 16 7.25C20.8242 7.25 24.75 11.1758 24.75 16C24.75 20.8242 20.8242 24.75 16 24.75Z" stroke="#697586" stroke-width="2.08" stroke-miterlimit="10"/>
</g>
</g>
<defs>
<clipPath id="clip0_984_17092">
<rect width="32" height="32" fill="white"/>
</clipPath>
</defs>
</svg>
