<svg width="6" height="11" viewBox="0 0 6 11"  xmlns="http://www.w3.org/2000/svg">
<path d="M5.77849 5.54617L1.32848 1.09617C1.22575 0.993701 1.08659 0.936157 0.94149 0.936157C0.796394 0.936157 0.657219 0.993701 0.554489 1.09617L0.226486 1.42417C0.124018 1.5269 0.0664749 1.66607 0.0664749 1.81117C0.0664749 1.95627 0.124018 2.09544 0.226486 2.19817L3.96449 5.93617L0.223488 9.67717C0.12102 9.7799 0.0634766 9.91907 0.0634766 10.0642C0.0634766 10.2093 0.12102 10.3484 0.223488 10.4512L0.551491 10.7792C0.65422 10.8816 0.793388 10.9392 0.938484 10.9392C1.08358 10.9392 1.22276 10.8816 1.32549 10.7792L5.77949 6.32517C5.88159 6.22184 5.93886 6.08243 5.93886 5.93717C5.93886 5.7919 5.88159 5.65249 5.77949 5.54917L5.77849 5.54617Z" />
</svg>
