<svg width="11" height="6" viewBox="0 0 11 6" xmlns="http://www.w3.org/2000/svg">
<path d="M5.60696 0.160477L1.15696 4.61048C1.05449 4.71321 0.996948 4.85238 0.996948 4.99747C0.996948 5.14257 1.05449 5.28175 1.15696 5.38448L1.48496 5.71248C1.58769 5.81495 1.72686 5.87249 1.87196 5.87249C2.01706 5.87249 2.15623 5.81495 2.25896 5.71248L5.99696 1.97448L9.73796 5.71548C9.84069 5.81794 9.97986 5.87549 10.125 5.87549C10.2701 5.87549 10.4092 5.81794 10.512 5.71548L10.84 5.38747C10.9424 5.28474 11 5.14558 11 5.00048C11 4.85538 10.9424 4.71621 10.84 4.61348L6.38596 0.159477C6.28263 0.0573707 6.14322 0.000106873 5.99796 0.000106871C5.8527 0.000106869 5.71329 0.0573707 5.60996 0.159477L5.60696 0.160477Z" />
</svg>
