<svg width="24" height="24" viewBox="0 0 24 24" fill="none" xmlns="http://www.w3.org/2000/svg">
    <path
        d="M22.9996 12.0006C22.9996 10.6551 22.7576 9.36615 22.3154 8.17457L11.9998 7.69629L1.68418 8.17452C1.24204 9.36615 1 10.6551 1 12.0006C1 13.3461 1.24204 14.635 1.68418 15.8266L11.9998 16.3048L22.3154 15.8266C22.7576 14.635 22.9996 13.3461 22.9996 12.0006Z"
        fill="#D80027" />
    <path
        d="M12.0007 23C16.7302 23 20.7621 20.0149 22.3163 15.8262H1.68503C3.23922 20.0149 7.27112 23 12.0007 23Z"
        fill="#6DA544" />
    <path
        d="M1.68503 8.1738H22.3163C20.7621 3.98507 16.7302 1 12.0007 1C7.27112 1 3.23922 3.98507 1.68503 8.1738Z"
        fill="#338AF3" />
    <path
        d="M12.3449 14.607C10.9053 14.607 9.73815 13.4399 9.73815 12.0003C9.73815 10.5607 10.9053 9.39356 12.3449 9.39356C12.7938 9.39356 13.2161 9.50706 13.5849 9.70688C13.0064 9.14117 12.2153 8.79199 11.3423 8.79199C9.57039 8.79199 8.13403 10.2284 8.13403 12.0003C8.13403 13.7721 9.57043 15.2085 11.3423 15.2085C12.2153 15.2085 13.0064 14.8594 13.5849 14.2937C13.2161 14.4936 12.7938 14.607 12.3449 14.607Z"
        fill="#F0F0F0" />
    <path
        d="M14.3503 10.1943L14.6956 11.1654L15.6264 10.7229L15.1839 11.6537L16.155 11.999L15.1839 12.3443L15.6264 13.2751L14.6956 12.8326L14.3503 13.8037L14.005 12.8326L13.0742 13.2751L13.5167 12.3443L12.5456 11.999L13.5167 11.6537L13.0742 10.7229L14.005 11.1654L14.3503 10.1943Z"
        fill="#F0F0F0" />
</svg>