<svg width="20" height="20" viewBox="0 0 20 20" fill="none" xmlns="http://www.w3.org/2000/svg">
<path d="M15.537 16.8542L12.6311 13.9488L11.2225 15.3573C11.101 15.4789 10.9244 15.529 10.7561 15.4901C10.5878 15.4502 10.4526 15.3267 10.3981 15.1628L7.5806 6.71059C7.52077 6.53159 7.56745 6.33413 7.70073 6.20085C7.83351 6.06807 8.03146 6.01943 8.21046 6.08072L16.6627 8.89827C16.8266 8.95276 16.9501 9.08796 16.99 9.25624C17.0294 9.42405 16.9793 9.60059 16.8572 9.72267L15.4487 11.1312L18.354 14.0371C18.5486 14.2316 18.5486 14.5468 18.354 14.7413L16.2412 16.8541C16.0467 17.0487 15.7315 17.0487 15.537 16.8542Z" fill="#9AA4B2"/>
<path d="M7.97461 3.98438C7.69932 3.98438 7.47656 3.76162 7.47656 3.48633V0.498047C7.47656 0.22276 7.69932 0 7.97461 0C8.2499 0 8.47266 0.22276 8.47266 0.498047V3.48633C8.47266 3.76162 8.2499 3.98438 7.97461 3.98438Z" fill="#9AA4B2"/>
<path d="M5.5097 4.71404L3.39639 2.60072C3.20185 2.40619 3.20185 2.09099 3.39639 1.89645C3.59093 1.70192 3.90613 1.70192 4.10066 1.89645L6.21394 4.00973C6.40848 4.20427 6.40848 4.51947 6.21394 4.714C6.01941 4.90857 5.70424 4.90857 5.5097 4.71404Z" fill="#9AA4B2"/>
<path d="M3.39639 11.0528C3.20185 10.8583 3.20185 10.5431 3.39639 10.3485L5.50967 8.23524C5.70421 8.04071 6.01941 8.04071 6.21394 8.23524C6.40848 8.42978 6.40848 8.74498 6.21394 8.93952L4.10066 11.0528C3.90613 11.2473 3.59096 11.2473 3.39639 11.0528Z" fill="#9AA4B2"/>
<path d="M9.73526 4.714C9.54072 4.51947 9.54072 4.20427 9.73526 4.00973L11.8485 1.89645C12.0431 1.70192 12.3583 1.70192 12.5528 1.89645C12.7473 2.09099 12.7473 2.40619 12.5528 2.60072L10.4395 4.714C10.245 4.90854 9.92983 4.90854 9.73526 4.714Z" fill="#9AA4B2"/>
<path d="M4.98633 6.97266H1.99805C1.72276 6.97266 1.5 6.7499 1.5 6.47461C1.5 6.19932 1.72276 5.97656 1.99805 5.97656H4.98633C5.26162 5.97656 5.48438 6.19932 5.48438 6.47461C5.48438 6.7499 5.26162 6.97266 4.98633 6.97266Z" fill="#9AA4B2"/>
</svg>
