<svg width="30" height="30" viewBox="0 0 30 30" fill="none" xmlns="http://www.w3.org/2000/svg">
<path d="M29 14.9785C29.0047 18.0649 27.9894 21.0663 26.112 23.5161C24.2346 25.9658 21.6002 27.7265 18.6187 28.5242C15.6372 29.322 12.4756 29.1122 9.62569 27.9274C6.77576 26.7425 4.39722 24.6492 2.86001 21.9728C1.3228 19.2965 0.713081 16.1871 1.12568 13.1284C1.53828 10.0697 2.95008 7.23311 5.14149 5.05972C7.3329 2.88634 10.1811 1.49802 13.2431 1.1107C16.3051 0.723374 19.4093 1.35875 22.0729 2.91802L21.8434 2.06995C21.7995 1.87475 21.8328 1.67015 21.9363 1.49894C22.0399 1.32772 22.2056 1.20316 22.3988 1.1513C22.592 1.09944 22.7978 1.12429 22.9731 1.22067C23.1485 1.31704 23.2798 1.47747 23.3395 1.6684L24.1147 4.54592C24.1147 4.56453 24.1147 4.58313 24.1147 4.60329C24.1147 4.62344 24.1302 4.6529 24.1333 4.67925V4.69011C24.1313 4.7182 24.1277 4.74616 24.1225 4.77383C24.1235 4.81635 24.1209 4.85888 24.1147 4.90096C24.1122 4.9255 24.1081 4.94984 24.1023 4.97383C24.0905 5.00247 24.077 5.03042 24.062 5.05755C24.0438 5.09895 24.0214 5.13843 23.9953 5.17538C23.9845 5.19398 23.9798 5.21414 23.9674 5.23119L23.9566 5.24049C23.938 5.26065 23.9147 5.2746 23.8946 5.29321C23.8591 5.32705 23.8207 5.35766 23.7798 5.38468C23.7597 5.39708 23.7426 5.41724 23.7209 5.42809C23.695 5.43776 23.6686 5.44604 23.6418 5.4529C23.6178 5.46684 23.593 5.47927 23.5674 5.49011C23.5378 5.49591 23.5077 5.49954 23.4775 5.50096C23.462 5.50096 23.4465 5.51026 23.431 5.51181H23.4201L20.4481 5.73042H20.3922C20.1866 5.73741 19.9867 5.66244 19.8364 5.52201C19.6861 5.38157 19.5977 5.18717 19.5907 4.98158C19.5837 4.77599 19.6587 4.57604 19.7991 4.42572C19.9395 4.2754 20.1339 4.18702 20.3395 4.18003L21.0837 4.12732C18.4411 2.65211 15.3506 2.19309 12.3934 2.83656C9.43609 3.48003 6.81574 5.18166 5.02502 7.6215C3.23429 10.0613 2.39655 13.0713 2.66931 16.0855C2.94207 19.0996 4.30653 21.9103 6.50615 23.9891C8.70578 26.0678 11.589 27.2714 14.6138 27.3735C17.6385 27.4757 20.5964 26.4693 22.9312 24.5437C25.2661 22.6181 26.817 19.9059 27.2925 16.917C27.768 13.9281 27.1352 10.8684 25.5132 8.31336C25.4547 8.22757 25.414 8.13089 25.3936 8.02908C25.3731 7.92726 25.3734 7.82238 25.3943 7.72066C25.4151 7.61894 25.4563 7.52245 25.5152 7.43692C25.5741 7.3514 25.6495 7.27858 25.7371 7.22278C25.8247 7.16699 25.9226 7.12937 26.025 7.11214C26.1274 7.09491 26.2322 7.09844 26.3333 7.1225C26.4343 7.14657 26.5294 7.19069 26.6131 7.25224C26.6967 7.31379 26.7671 7.39151 26.8201 7.4808C28.2467 9.72108 29.0031 12.3225 29 14.9785ZM15.7969 4.38778C15.7969 4.18219 15.7152 3.98501 15.5698 3.83964C15.4245 3.69426 15.2273 3.61259 15.0217 3.61259C14.8161 3.61259 14.6189 3.69426 14.4736 3.83964C14.3282 3.98501 14.2465 4.18219 14.2465 4.38778V5.18778C14.2465 5.39338 14.3282 5.59055 14.4736 5.73593C14.6189 5.8813 14.8161 5.96297 15.0217 5.96297C15.2273 5.96297 15.4245 5.8813 15.5698 5.73593C15.7152 5.59055 15.7969 5.39338 15.7969 5.18778V4.38778ZM24.8124 15.7537H25.6124C25.818 15.7537 26.0152 15.672 26.1605 15.5266C26.3059 15.3812 26.3876 15.1841 26.3876 14.9785C26.3876 14.7729 26.3059 14.5757 26.1605 14.4303C26.0152 14.2849 25.818 14.2033 25.6124 14.2033H24.8124C24.6068 14.2033 24.4096 14.2849 24.2642 14.4303C24.1189 14.5757 24.0372 14.7729 24.0372 14.9785C24.0372 15.1841 24.1189 15.3812 24.2642 15.5266C24.4096 15.672 24.6068 15.7537 24.8124 15.7537ZM15.0217 23.994C14.8161 23.994 14.6189 24.0756 14.4736 24.221C14.3282 24.3664 14.2465 24.5636 14.2465 24.7692V25.5692C14.2465 25.7748 14.3282 25.9719 14.4736 26.1173C14.6189 26.2627 14.8161 26.3443 15.0217 26.3443C15.2273 26.3443 15.4245 26.2627 15.5698 26.1173C15.7152 25.9719 15.7969 25.7748 15.7969 25.5692V24.7692C15.7969 24.5636 15.7152 24.3664 15.5698 24.221C15.4245 24.0756 15.2273 23.994 15.0217 23.994ZM4.43101 14.2033C4.22542 14.2033 4.02824 14.2849 3.88286 14.4303C3.73749 14.5757 3.65582 14.7729 3.65582 14.9785C3.65582 15.1841 3.73749 15.3812 3.88286 15.5266C4.02824 15.672 4.22542 15.7537 4.43101 15.7537H5.23101C5.4366 15.7537 5.63378 15.672 5.77915 15.5266C5.92453 15.3812 6.0062 15.1841 6.0062 14.9785C6.0062 14.7729 5.92453 14.5757 5.77915 14.4303C5.63378 14.2849 5.4366 14.2033 5.23101 14.2033H4.43101ZM15.7969 8.18003C15.7969 7.97443 15.7152 7.77726 15.5698 7.63188C15.4245 7.48651 15.2273 7.40483 15.0217 7.40483C14.8161 7.40483 14.6189 7.48651 14.4736 7.63188C14.3282 7.77726 14.2465 7.97443 14.2465 8.18003V14.5366L11.0574 16.3521C10.909 16.437 10.7929 16.5684 10.727 16.7261C10.6612 16.8838 10.6492 17.0588 10.6931 17.2239C10.7369 17.3891 10.8341 17.5351 10.9695 17.6393C11.1049 17.7435 11.271 17.8001 11.4419 17.8002C11.5768 17.8006 11.7095 17.7653 11.8264 17.6978L15.4062 15.6513C15.5248 15.5836 15.6235 15.4856 15.6921 15.3675C15.7607 15.2493 15.7968 15.1151 15.7969 14.9785V8.18003Z" fill="#697586" stroke="#697586" stroke-width="0.4"/>
</svg>
