<?xml version="1.0" encoding="UTF-8"?>
<svg id="Layer_2" data-name="Layer 2" xmlns="http://www.w3.org/2000/svg" viewBox="0 0 160.17 90.56">
  <defs>
    <style>
      .cls-1 {
        fill: #6fbae7;
      }

      .cls-1, .cls-2, .cls-3 {
        stroke-width: 0px;
      }

      .cls-2 {
        fill: #fff;
      }

      .cls-3 {
        fill: #c7eafb;
      }
    </style>
  </defs>
  <g id="Object">
    <g>
      <path class="cls-2" d="M12,59.58c1.06,0,2.19-.05,3.27-.1,1.12-.05,2.28-.1,3.42-.1,1.39,0,2.54.08,3.6.24.5.08.87.52.84,1.03-.48,11.35,7.24,22.74,17.96,26.5,2.67.94,5.51,1.41,8.46,1.41,8.73,0,17.2-4.17,22.12-10.88.21-.29.57-.45.93-.4.36.04.67.28.8.61,2.05,4.97,7.24,8.62,12.62,8.87,5.39.26,10.87-2.89,13.38-7.67.15-.29.44-.49.77-.53.34-.04.66.09.87.35,3.12,3.67,8.05,5.77,13.51,5.77,7,0,13.22-3.32,16.22-8.66.26-.47.84-.64,1.32-.41,1.56.79,3.29,1.18,5.12,1.18,4.06,0,8.25-1.94,11.21-5.2,2.56-2.82,3.8-6.21,3.48-9.55-.03-.28.07-.56.26-.77,4.01-4.39,5.97-8.38,6-12.21.01-2.31-1.02-4.8-2.71-6.5-1.46-1.47-3.24-2.2-5.05-2.03-.49.04-.95-.27-1.07-.75-.12-.48.13-.98.59-1.17,1.85-.76,2.41-2.57,2.57-3.57.37-2.28-.45-4.75-2.05-6.14-1.68-1.46-4.03-2.23-6.79-2.23-1.67,0-3.48.28-5.26.82-.45.14-.92-.05-1.16-.46-.23-.4-.15-.91.19-1.23,1.85-1.72,1.6-4.82.43-6.86-1.34-2.33-3.75-3.97-6.1-5.46-12.41-7.84-22.76-11.5-32.59-11.5h-.5c-10.86.15-23.66,6.37-27.12,18-.11.36-.41.63-.78.7-.38.07-.75-.08-.98-.38-3.72-4.9-9.95-7.94-16.24-7.94-1.03,0-2.05.08-3.05.24-7.15,1.16-13.52,6.55-15.85,13.41-.11.33-.39.58-.72.65-.34.08-.69-.03-.94-.27-1.11-1.13-2.72-1.77-4.42-1.77-1.08,0-2.11.27-2.99.77-2.29,1.33-3.53,4.37-2.81,6.93.08.3.02.62-.17.87-.19.25-.48.4-.79.4-7.66.03-15.04,4.68-18.37,11.57-1.8,3.71-2.31,9.07.79,12.06,2.14,2.06,5.12,2.34,7.75,2.34ZM135.88,36.69c2.8.24,5.18,2.53,5.43,5.21.13,1.4-.36,2.85-1.36,3.98-.93,1.06-2.21,1.7-3.51,1.74-.01,0-.02,0-.04,0-.54,0-.98-.42-1-.96-.02-.55.41-1.02.96-1.03.75-.03,1.51-.41,2.08-1.06.62-.71.94-1.63.87-2.47-.16-1.72-1.78-3.25-3.61-3.41-.55-.05-.96-.53-.91-1.08.05-.55.52-.97,1.08-.91ZM122.48,65.31c.23-.5.82-.73,1.32-.5,3.78,1.7,8.61.58,11.25-2.62.53-.64.77-1.17.73-1.6-.01-.14-.11-.31-.24-.41-.09-.08-.17-.08-.17-.09-.51.21-1.1-.04-1.3-.55-.21-.51.04-1.09.55-1.3.61-.25,1.3-.18,1.9.18.7.43,1.18,1.18,1.26,1.98.09.98-.29,1.99-1.18,3.06-2.19,2.65-5.63,4.12-9.05,4.12-1.57,0-3.13-.31-4.56-.96-.5-.23-.73-.82-.5-1.32ZM83.93,19.1c1.44-2.75,4.33-4.74,7.73-5.33,3.4-.59,6.79.32,9.08,2.42.87.8,1.6,1.86,1.99,2.99.05-.01.1-.02.15-.02,6.23-.41,12.43,4.68,13.23,10.89.07.55-.32,1.05-.86,1.12-.04,0-.09,0-.13,0-.5,0-.93-.37-.99-.87-.65-5.02-5.48-9.17-10.52-9.17h-.06l-.92,1.67c-.06.13-.13.25-.21.38-.29.46-.89.61-1.35.33-.47-.27-.63-.87-.37-1.34l.15-.27c.61-1.32-.27-3.13-1.47-4.23-1.83-1.69-4.59-2.4-7.38-1.92-2.79.48-5.15,2.09-6.3,4.29-.26.49-.86.68-1.35.42-.49-.26-.68-.86-.42-1.35ZM34.76,46.19c.43-.35,1.06-.27,1.41.16.34.43.27,1.06-.16,1.41-1.72,1.37-2.68,3.69-2.57,6.21.11,2.52,1.27,4.75,3.1,5.96,2.94,1.95,6.87,1.67,10.97,1.18.31-.04.63.08.84.31.22.23.31.55.26.86-.24,1.33-.16,2.72.22,4.02,3.98,2.76,9.76,2.62,13.58-.37.44-.34,1.06-.26,1.4.17.34.44.26,1.06-.17,1.4-2.35,1.83-5.32,2.75-8.29,2.75s-5.68-.84-7.97-2.54c-.17-.12-.29-.29-.35-.49-.43-1.28-.61-2.64-.54-3.99-4.03.42-7.87.46-11.05-1.64-2.37-1.56-3.86-4.38-4-7.54-.14-3.16,1.11-6.09,3.33-7.86Z"/>
      <path class="cls-3" d="M151.91,62.06c-.03-.28.07-.56.26-.77,3.23-3.53,5.11-6.81,5.74-9.95-1.63.95-3.35,1.7-5.21,2.09-5.03,1.06-11.21-1.57-12.1-6.63-2.18,4.82-7.16,8.25-12.44,8.56-5.28.32-10.63-2.49-13.37-7.01-4.35,4.84-9.15,9.83-15.47,11.37-6.32,1.54-14.31-2.17-14.8-8.65-6.72,6.72-19.34,5.92-25.17-1.59-5.32,2.46-11.31,4-17.05,2.84-2.66-.54-5.23-1.77-7.32-3.5-1.06,1.36-1.63,3.19-1.54,5.15.11,2.52,1.27,4.75,3.1,5.96,2.94,1.95,6.87,1.67,10.97,1.18.31-.04.63.08.84.31.22.23.31.55.26.86-.24,1.33-.16,2.72.22,4.02,3.98,2.76,9.76,2.62,13.58-.37.44-.34,1.06-.26,1.4.17.34.44.26,1.06-.17,1.4-2.35,1.83-5.32,2.75-8.29,2.75s-5.68-.84-7.97-2.54c-.17-.12-.29-.29-.35-.49-.43-1.28-.61-2.64-.54-3.99-4.03.42-7.87.46-11.05-1.64-2.37-1.56-3.86-4.38-4-7.54-.11-2.5.66-4.85,2.08-6.6-1.67-1.8-2.87-3.99-3.28-6.44-4.43,3.06-8.97,6.17-14.15,7.65-4.46,1.27-9.55,1.14-13.52-1.14-.97,3.38-.82,7.32,1.68,9.72,2.14,2.06,5.12,2.34,7.75,2.34,1.06,0,2.19-.05,3.27-.1,1.12-.05,2.28-.1,3.42-.1,1.39,0,2.54.08,3.6.24.5.08.87.52.84,1.03-.48,11.35,7.24,22.74,17.96,26.5,2.67.94,5.51,1.41,8.46,1.41,8.73,0,17.2-4.17,22.12-10.88.21-.29.57-.45.93-.4.36.04.67.28.8.61,2.05,4.97,7.24,8.62,12.62,8.87,5.39.26,10.87-2.89,13.38-7.67.15-.29.44-.49.77-.53.34-.04.66.09.87.35,3.12,3.67,8.05,5.77,13.51,5.77,7,0,13.22-3.32,16.22-8.66.26-.47.84-.64,1.32-.41,1.56.79,3.29,1.18,5.12,1.18,4.06,0,8.25-1.94,11.21-5.2,2.56-2.82,3.8-6.21,3.48-9.55ZM136.59,63.47c-2.19,2.65-5.63,4.12-9.05,4.12-1.57,0-3.13-.31-4.56-.96-.5-.23-.73-.82-.5-1.32.23-.5.82-.73,1.32-.5,3.78,1.7,8.61.58,11.25-2.62.53-.64.77-1.17.73-1.6-.01-.14-.11-.31-.24-.41-.09-.08-.17-.08-.17-.09-.51.21-1.1-.04-1.3-.55-.21-.51.04-1.09.55-1.3.61-.25,1.3-.18,1.9.18.7.43,1.18,1.18,1.26,1.98.09.98-.29,1.99-1.18,3.06Z"/>
      <path class="cls-1" d="M12,61.58c1.11,0,2.25-.05,3.36-.1,2.01-.09,4.16-.16,5.76,0-.07,11.88,8.09,23.62,19.32,27.56,2.88,1.01,5.95,1.52,9.12,1.52,8.78,0,17.33-3.95,22.72-10.4,2.7,4.95,7.99,8.34,13.66,8.6.23.01.47.02.7.02,5.48,0,10.87-2.98,13.84-7.55,3.5,3.48,8.56,5.46,14.09,5.46,7.38,0,13.99-3.38,17.49-8.89,1.61.67,3.34,1.01,5.17,1.01,4.61,0,9.36-2.19,12.69-5.85,2.83-3.12,4.25-6.88,4.03-10.64,4.17-4.65,6.21-8.98,6.23-13.23.02-2.87-1.21-5.83-3.29-7.92-1.15-1.16-2.5-1.96-3.91-2.36.77-.92,1.29-2.09,1.51-3.43.49-2.99-.58-6.12-2.71-7.97-2.73-2.37-6.87-3.23-11.45-2.41.86-2.29.42-5.06-.72-7.03-1.57-2.72-4.2-4.53-6.77-6.16C120.1,3.75,109.41,0,99.18,0h-.53c-11.05.15-24,6.26-28.42,17.71-4.15-4.56-10.38-7.33-16.66-7.33-1.13,0-2.27.09-3.37.27-7.39,1.2-14.02,6.51-16.92,13.4-1.34-.91-2.99-1.41-4.7-1.41-1.43,0-2.81.36-3.99,1.04-2.73,1.59-4.3,4.85-3.97,7.97-7.97.48-15.49,5.46-18.97,12.66-2.17,4.49-2.64,10.67,1.21,14.37,2.66,2.55,6.11,2.9,9.13,2.9ZM3.46,45.18c3.33-6.9,10.72-11.55,18.37-11.57.31,0,.61-.15.79-.4.19-.25.25-.57.17-.87-.72-2.55.51-5.6,2.81-6.93.87-.51,1.91-.77,2.99-.77,1.7,0,3.31.65,4.42,1.77.24.25.6.35.94.27.34-.08.61-.32.72-.65,2.33-6.86,8.7-12.25,15.85-13.41,1-.16,2.02-.24,3.05-.24,6.29,0,12.51,3.04,16.24,7.94.23.3.6.45.98.38.37-.07.67-.34.78-.7,3.46-11.63,16.26-17.86,27.12-18h.5c9.83,0,20.19,3.65,32.59,11.49,2.35,1.49,4.76,3.14,6.1,5.46,1.17,2.04,1.42,5.14-.43,6.86-.34.32-.42.83-.19,1.23.23.4.71.6,1.16.46,1.77-.54,3.59-.82,5.26-.82,2.76,0,5.11.77,6.79,2.23,1.6,1.39,2.42,3.86,2.05,6.14-.17,1.01-.72,2.81-2.57,3.57-.46.19-.71.69-.59,1.17.12.48.58.8,1.07.75,1.8-.17,3.59.56,5.05,2.03,1.68,1.69,2.72,4.18,2.71,6.5-.02,3.83-1.98,7.83-6,12.21-.19.21-.29.49-.26.77.32,3.34-.92,6.73-3.48,9.55-2.96,3.25-7.15,5.2-11.21,5.2-1.83,0-3.55-.4-5.12-1.18-.48-.24-1.06-.06-1.32.41-3,5.34-9.21,8.66-16.22,8.66-5.46,0-10.38-2.1-13.51-5.77-.21-.25-.53-.38-.87-.35-.33.04-.62.23-.77.53-2.51,4.77-7.99,7.92-13.38,7.67-5.38-.25-10.56-3.9-12.62-8.87-.14-.33-.44-.57-.8-.61-.35-.04-.71.11-.93.4-4.92,6.71-13.4,10.88-22.12,10.88-2.95,0-5.79-.48-8.46-1.41-10.72-3.76-18.44-15.16-17.96-26.5.02-.51-.34-.95-.84-1.03-1.06-.17-2.21-.24-3.6-.24-1.14,0-2.3.05-3.42.1-1.08.05-2.21.1-3.27.1-2.63,0-5.6-.28-7.75-2.34-3.11-2.99-2.59-8.34-.79-12.06Z"/>
      <path class="cls-1" d="M35.43,61.59c3.18,2.1,7.02,2.06,11.05,1.64-.07,1.35.11,2.71.54,3.99.06.19.19.36.35.49,2.29,1.69,5.13,2.54,7.97,2.54s5.94-.92,8.29-2.75c.43-.34.51-.97.17-1.4-.34-.43-.97-.51-1.4-.17-3.82,2.99-9.6,3.13-13.58.37-.38-1.3-.46-2.68-.22-4.02.06-.31-.04-.63-.26-.86-.22-.23-.53-.34-.84-.31-4.1.49-8.02.77-10.97-1.18-1.83-1.21-2.99-3.44-3.1-5.96-.11-2.52.85-4.84,2.57-6.21.43-.34.5-.97.16-1.41-.34-.43-.97-.51-1.41-.16-2.22,1.76-3.46,4.7-3.33,7.86.14,3.16,1.63,5.98,4,7.54Z"/>
      <path class="cls-1" d="M122.98,66.64c1.43.65,3,.96,4.56.96,3.42,0,6.86-1.47,9.05-4.12.89-1.08,1.27-2.08,1.18-3.06-.08-.8-.56-1.55-1.26-1.98-.6-.36-1.29-.43-1.9-.18-.51.21-.76.79-.55,1.3.21.51.79.76,1.3.55,0,0,.08,0,.17.09.13.11.23.27.24.41.04.43-.2.95-.73,1.6-2.64,3.2-7.47,4.32-11.25,2.62-.5-.22-1.09,0-1.32.5-.23.5,0,1.09.5,1.32Z"/>
      <path class="cls-1" d="M84.35,20.45c.49.26,1.09.07,1.35-.42,1.16-2.2,3.51-3.81,6.3-4.29,2.79-.48,5.55.23,7.38,1.92,1.2,1.1,2.08,2.92,1.47,4.23l-.15.27c-.26.47-.09,1.07.37,1.34.46.27,1.07.13,1.35-.33.08-.12.15-.25.21-.38l.92-1.67h.06c5.04,0,9.87,4.15,10.52,9.17.07.5.5.87.99.87.04,0,.09,0,.13,0,.55-.07.93-.57.86-1.12-.8-6.21-7-11.3-13.23-10.89-.05,0-.1.01-.15.02-.39-1.13-1.12-2.18-1.99-2.99-2.28-2.1-5.68-3-9.08-2.42-3.4.59-6.29,2.58-7.73,5.33-.26.49-.07,1.09.42,1.35Z"/>
      <path class="cls-1" d="M135.71,38.68c1.83.16,3.45,1.69,3.61,3.41.08.84-.24,1.77-.87,2.47-.57.65-1.33,1.04-2.08,1.06-.55.02-.98.48-.96,1.03.02.54.46.96,1,.96.01,0,.02,0,.04,0,1.3-.04,2.58-.68,3.51-1.74.99-1.13,1.49-2.58,1.36-3.98-.25-2.68-2.63-4.97-5.43-5.21-.56-.06-1.03.36-1.08.91-.05.55.36,1.04.91,1.08Z"/>
    </g>
  </g>
</svg>