<?xml version="1.0" encoding="UTF-8"?>
<svg id="Layer_2" data-name="Layer 2" xmlns="http://www.w3.org/2000/svg" viewBox="0 0 283.37 122.91">
  <defs>
    <style>
      .cls-1 {
        fill: #6fbae7;
      }

      .cls-1, .cls-2, .cls-3 {
        stroke-width: 0px;
      }

      .cls-2 {
        fill: #fff;
      }

      .cls-3 {
        fill: #c7eafb;
      }
    </style>
  </defs>
  <g id="Object">
    <g>
      <path class="cls-2" d="M31.49,54.32c-8.04,8.73-13.46,20.01-15.24,31.74-.08.54-.59.92-1.13.84-.5-.07-1.01-.11-1.52-.11-3.8,0-7.47,1.9-9.59,4.96-2.43,3.5-2.69,8.37-.65,12.11.85,1.55,2.11,3.01,3.75,4.33,3.34,2.7,7.75,4.18,12.41,4.18,5.81,0,11.22-2.24,14.84-6.14.27-.29.68-.39,1.05-.27.37.13.64.46.68.85.85,8.53,10.51,13.57,18.31,12.89,7.13-.62,14.32-4.64,21.97-12.29.19-.2.46-.32.74-.29.28,0,.54.13.72.34,2.56,2.9,6.6,4.64,10.81,4.64,2.95,0,5.7-.83,7.94-2.39.39-.27.92-.23,1.26.1,6.82,6.5,16.19,10.22,25.7,10.22,1,0,2.02-.04,3.01-.13,10.41-.89,20.35-6.42,26.59-14.79.17-.22.42-.37.69-.4.28-.03.55.05.76.24,6.78,5.82,15.39,9.75,24.23,11.06,1.23.18,2.46.28,3.67.28,3.16,0,8.79-.66,10.94-5.11.15-.3.44-.51.77-.56.04,0,.09,0,.13,0,.29,0,.57.13.76.35,5.34,6.23,13.89,9.95,22.88,9.95,7.11,0,13.77-2.3,18.77-6.47l.57-.48c1.34-1.14,2.72-2.32,4.55-2.75.5-.12,1-.17,1.55-.17,1.34,0,2.65.35,3.9.69.42.11.84.23,1.26.32,1.18.27,2.42.41,3.66.41,7.33,0,14.27-4.58,16.9-11.14.13-.34.44-.57.8-.62,4.8-.62,9.1-4.62,10.68-9.96,1.7-5.72.22-11.64-1.31-15.6-2.64-6.79-8.65-13.65-15.89-13.21-.54.02-.99-.36-1.05-.88-.81-6.97-8.13-11.66-14.47-11.66-2.06,0-3.97.45-5.66,1.35-.37.28-.78.52-1.2.72-.48.22-1.03.03-1.29-.42-.25-.45-.12-1.03.31-1.32.35-.24.71-.46,1.08-.66,1.61-1.3,2.45-3.77,2.09-6.18-.43-2.92-2.25-5.49-3.98-7.62-4.1-5.07-10.94-11.68-20.23-14.34-2.55-.73-5.19-1.1-7.85-1.1-5.99,0-11.53,1.89-15.61,5.33-.21.17-.47.26-.74.23-.27-.03-.52-.16-.68-.37-4.52-5.68-12.06-9.07-20.17-9.07-7.44,0-14.29,2.83-18.79,7.75,3.44,1.03,6.61,3.02,8.95,5.72,2.44-.54,5.35-1.08,8.09-.26,3.07.93,5.76,4.13,4.87,7.42-.12.45-.52.74-.96.74-.09,0-.18-.01-.26-.04-.53-.15-.85-.69-.7-1.23.58-2.13-1.39-4.33-3.52-4.98-2.46-.74-5.23-.12-7.67.43-.37.09-.76-.05-1-.35-3.15-3.92-8.19-6.31-13.25-6.24-5.02.07-10.04,2.59-13.08,6.59-.33.44-.96.53-1.4.19-.44-.33-.52-.96-.19-1.4,3.41-4.48,9.02-7.3,14.65-7.38.08,0,.16,0,.23,0,1.1,0,2.2.11,3.29.31-10.07-13.09-26.56-21.21-43.22-21.21-1.16,0-2.33.04-3.48.12-17.86,1.22-35.01,12.12-43.7,27.77-2.54,4.57-4.34,9.37-5.36,14.28-.06.28-.24.53-.49.67s-.55.17-.83.07c-1.62-.58-3.35-.87-5.12-.87-6.28,0-13.57,3.85-19.5,10.29ZM227.45,69.44c3.48-2.67,8.64-2.81,12.27-.33,3.23,2.2,4.96,6.3,4.45,10.14h.02c1.63,0,3.28.53,4.77,1.54,2.17,1.47,3.72,3.82,4.16,6.28.78,4.34-1.3,9.09-5.29,12.11-.18.14-.39.2-.6.2-.3,0-.6-.14-.8-.4-.33-.44-.25-1.07.19-1.4,3.34-2.53,5.16-6.62,4.53-10.17-.35-1.94-1.59-3.8-3.32-4.98-1.49-1.01-3.17-1.4-4.72-1.08-.34.07-.7-.04-.93-.3-.24-.26-.32-.62-.23-.96.99-3.41-.43-7.34-3.36-9.34-2.89-1.97-7.15-1.86-9.92.27-.44.34-1.07.25-1.4-.19-.34-.44-.25-1.07.19-1.4ZM193.07,38.45c3.29-1.53,7.7-.25,10.02,2.92,2.01,2.74,2.51,6.73,1.31,10.4-.14.42-.53.69-.95.69-.1,0-.21-.02-.31-.05-.52-.17-.81-.74-.64-1.26,1.01-3.07.61-6.36-1.02-8.59-1.78-2.43-5.1-3.44-7.57-2.29-.5.23-1.09.02-1.33-.49-.23-.5-.01-1.09.49-1.33ZM96.43,89.7c.57.01,1.01.42,1.03.97.08,3,1.82,5.89,4.43,7.37,2.61,1.48,5.98,1.49,8.6.03.34-.19.76-.17,1.07.06.32.23.47.61.4.99-.11.59.06,1.24.43,1.71,4,1.57,8.93.63,12.06-2.32.4-.38,1.04-.36,1.41.04.38.4.36,1.03-.04,1.41-2.49,2.34-5.94,3.61-9.37,3.61-1.73,0-3.45-.32-5.04-.98-.13-.05-.24-.13-.34-.23-.5-.53-.85-1.19-1.02-1.89-2.95,1.1-6.4.87-9.14-.69-3.2-1.82-5.34-5.37-5.44-9.05-.02-.55.42-1.01.97-1.03ZM56.53,59.74c1.38.17,2.76,1.2,3.14,2.35.26.77.07,1.54-.51,2.11-.4.38-1.03.37-1.41-.03-.38-.4-.37-1.03.03-1.41.02-.02.03-.03.03-.03-.02-.23-.75-.91-1.5-1-2.5-.31-5.14.77-6.71,2.75-1.57,1.97-2.04,4.78-1.18,7.15.13.36.04.77-.23,1.04-.27.28-.68.37-1.04.24-1.08-.38-2.09-.07-2.74.26-1.23.62-2.25,1.81-2.66,3.1-.65,2.09-.27,4.68,1.13,7.71.41.89,1.52,2.92,3.02,2.92.03,0,.06,0,.09,0,.53-.04,1.02.39,1.05.95.03.55-.4,1.02-.95,1.05-.07,0-.13,0-.2,0-1.89,0-3.6-1.44-4.83-4.08-1.62-3.49-2.03-6.57-1.23-9.15.57-1.83,1.95-3.43,3.67-4.3.85-.42,1.74-.64,2.61-.64h0c-.44-2.62.25-5.43,1.91-7.51,2-2.5,5.34-3.87,8.52-3.49Z"/>
      <path class="cls-3" d="M253.16,87.41c.61,4.24-1.46,8.82-5.34,11.76-.18.14-.39.2-.6.2-.3,0-.6-.14-.8-.4-.33-.44-.25-1.07.19-1.4,3.34-2.53,5.16-6.62,4.53-10.17-.06-.31-.14-.61-.24-.91-1.78-.81-3.47-1.82-5.02-3.07-4.38,8.27-17.83,9.44-23.57,2.04-8.93,11.28-28.63,11.26-37.53-.04-8.96,10.74-28.4,9.65-36.1-2.03-11.89,7.06-28.3,5.42-38.56-3.85-1.91-1.72-4.19-3.84-6.65-3.11-1.36.4-2.31,1.57-3.28,2.6-7.16,7.59-20.04,8.88-28.56,2.85-4.14,5.11-8.71,10.2-14.76,12.78-6.05,2.57-13.95,1.91-18.09-3.2-6.2,5.86-12.8,11.94-21.09,13.9-4.93,1.17-10.56.23-14.74-2.45.13.31.26.63.42.93.85,1.55,2.11,3.01,3.75,4.33,3.34,2.7,7.75,4.18,12.41,4.18,5.81,0,11.22-2.24,14.84-6.14.27-.29.68-.39,1.05-.27.37.13.64.46.68.85.85,8.53,10.51,13.57,18.31,12.89,7.13-.62,14.32-4.64,21.97-12.29.19-.2.46-.32.74-.29.28,0,.54.13.72.34,2.56,2.9,6.6,4.64,10.81,4.64,2.95,0,5.7-.83,7.94-2.39.39-.27.92-.23,1.26.1,6.82,6.5,16.19,10.22,25.7,10.22,1,0,2.02-.04,3.01-.13,10.41-.89,20.35-6.42,26.59-14.79.17-.22.42-.37.69-.4.28-.03.55.05.76.24,6.78,5.82,15.39,9.75,24.23,11.06,1.23.18,2.46.28,3.67.28,3.16,0,8.79-.66,10.94-5.11.15-.3.44-.51.77-.56.04,0,.09,0,.13,0,.29,0,.57.13.76.35,5.34,6.23,13.89,9.95,22.88,9.95,7.11,0,13.77-2.3,18.77-6.47l.57-.48c1.34-1.14,2.72-2.32,4.55-2.75.5-.12,1-.17,1.55-.17,1.34,0,2.65.35,3.9.69.42.11.84.23,1.26.32,1.18.27,2.42.41,3.66.41,7.33,0,14.27-4.58,16.9-11.14.13-.34.44-.57.8-.62,4.8-.62,9.1-4.62,10.68-9.96.64-2.17.83-4.37.73-6.47-1.15.6-2.33,1.16-3.54,1.67-7.73,3.26-16.88,4.18-24.65,1.49ZM125.82,99.97c-2.49,2.34-5.94,3.61-9.37,3.61-1.73,0-3.45-.32-5.04-.98-.13-.05-.24-.13-.34-.23-.5-.53-.85-1.19-1.02-1.89-2.95,1.1-6.4.87-9.14-.69-3.2-1.82-5.34-5.37-5.44-9.05-.02-.55.42-1.01.97-1.03.57.01,1.01.42,1.03.97.08,3,1.82,5.89,4.43,7.37,2.61,1.48,5.98,1.49,8.6.03.34-.19.76-.17,1.07.06.32.23.47.61.4.99-.11.59.06,1.24.43,1.71,4,1.57,8.93.63,12.06-2.32.4-.38,1.04-.36,1.41.04.38.4.36,1.03-.04,1.41Z"/>
      <path class="cls-1" d="M51,42.03c-9.85,0-17.95,7.65-20.98,10.93-8.09,8.79-13.61,20.07-15.6,31.86-4.7-.29-9.42,1.98-12.06,5.79-2.85,4.11-3.16,9.82-.76,14.2.97,1.78,2.4,3.44,4.25,4.93,3.69,2.98,8.55,4.62,13.67,4.62,5.66,0,10.99-1.96,14.91-5.42,2.1,8.53,12.02,13.45,20.14,12.75,7.39-.64,14.75-4.61,22.48-12.14,2.94,2.86,7.18,4.55,11.58,4.55,3.07,0,5.96-.79,8.4-2.3,7.13,6.51,16.74,10.23,26.5,10.23,1.06,0,2.13-.05,3.18-.13,10.62-.9,20.78-6.39,27.38-14.75,6.94,5.69,15.57,9.53,24.43,10.84,1.33.2,2.66.3,3.96.3,5.59,0,9.79-1.76,12.01-4.99,5.75,6.04,14.41,9.61,23.47,9.61h0c7.57,0,14.7-2.46,20.05-6.94l.59-.5c1.21-1.03,2.35-2.01,3.71-2.33,1.3-.3,2.87.06,4.48.5.44.12.89.24,1.33.34,1.33.31,2.72.47,4.12.47,7.92,0,15.46-4.85,18.53-11.87,5.34-.95,10.02-5.41,11.77-11.28,1.86-6.26.28-12.64-1.37-16.89-2.59-6.65-8.57-14.42-16.96-14.5-1.44-7.76-9.42-12.53-16.32-12.53-1.17,0-2.29.13-3.37.38.69-1.56.96-3.39.69-5.19-.5-3.39-2.51-6.24-4.4-8.58-4.28-5.29-11.44-12.2-21.24-15-2.73-.78-5.56-1.18-8.4-1.18-6.09,0-11.76,1.83-16.11,5.17-4.95-5.69-12.75-9.05-21.09-9.05-7.6,0-14.63,2.76-19.5,7.61C143.98,8.22,127.05,0,109.97,0c-1.21,0-2.43.04-3.62.12-18.52,1.27-36.3,12.57-45.31,28.8-2.45,4.41-4.24,9.03-5.33,13.76-1.52-.43-3.1-.65-4.71-.65ZM56.94,44.83c.25-.14.43-.38.49-.67,1.02-4.91,2.83-9.71,5.36-14.28,8.69-15.65,25.84-26.55,43.7-27.77,1.15-.08,2.32-.12,3.48-.12,16.66,0,33.16,8.12,43.22,21.21-1.09-.2-2.19-.31-3.29-.31-.08,0-.16,0-.23,0-5.62.08-11.24,2.9-14.65,7.38-.33.44-.25,1.07.19,1.4.44.34,1.07.25,1.4-.19,3.04-4,8.06-6.52,13.08-6.59,5.06-.07,10.1,2.32,13.25,6.24.24.3.63.43,1,.35,2.44-.55,5.21-1.17,7.67-.43,2.13.64,4.1,2.85,3.52,4.98-.15.53.17,1.08.7,1.23.09.02.18.04.26.04.44,0,.84-.29.96-.74.89-3.29-1.8-6.49-4.87-7.42-2.74-.83-5.65-.28-8.09.26-2.34-2.7-5.51-4.69-8.95-5.72,4.51-4.93,11.35-7.75,18.79-7.75,8.11,0,15.65,3.39,20.17,9.07.17.21.42.35.68.37.27.03.54-.06.74-.23,4.08-3.44,9.62-5.33,15.61-5.33,2.66,0,5.3.37,7.85,1.1,9.3,2.66,16.13,9.27,20.23,14.34,1.72,2.13,3.54,4.71,3.98,7.62.36,2.41-.48,4.88-2.09,6.18-.37.2-.73.42-1.08.66-.43.29-.56.87-.31,1.32.25.45.81.63,1.29.42.42-.19.82-.43,1.2-.72,1.69-.89,3.59-1.35,5.66-1.35,6.33,0,13.66,4.69,14.47,11.66.06.53.51.9,1.05.88,7.25-.44,13.25,6.42,15.89,13.21,1.54,3.96,3.01,9.88,1.31,15.6-1.59,5.34-5.88,9.34-10.68,9.96-.36.05-.67.28-.8.62-2.62,6.56-9.57,11.14-16.9,11.14-1.25,0-2.48-.14-3.66-.41-.42-.1-.84-.21-1.26-.32-1.26-.34-2.56-.69-3.9-.69-.55,0-1.06.06-1.55.17-1.83.43-3.21,1.61-4.55,2.75l-.57.48c-5,4.17-11.67,6.47-18.77,6.47-8.99,0-17.54-3.72-22.88-9.95-.19-.22-.47-.35-.76-.35-.04,0-.09,0-.13,0-.33.04-.62.25-.77.56-2.15,4.44-7.77,5.11-10.94,5.11-1.2,0-2.44-.09-3.67-.28-8.84-1.31-17.45-5.24-24.23-11.06-.21-.18-.49-.27-.76-.24-.28.03-.53.17-.69.4-6.24,8.38-16.18,13.91-26.59,14.79-.99.08-2,.13-3.01.13-9.51,0-18.88-3.73-25.7-10.22-.34-.33-.87-.37-1.26-.1-2.24,1.56-4.98,2.39-7.94,2.39-4.21,0-8.24-1.73-10.81-4.64-.18-.21-.44-.33-.72-.34-.28-.02-.54.1-.74.29-7.65,7.65-14.84,11.67-21.97,12.29-7.8.68-17.47-4.36-18.31-12.89-.04-.39-.3-.72-.68-.85-.37-.12-.78-.02-1.05.27-3.62,3.9-9.03,6.14-14.84,6.14-4.67,0-9.07-1.48-12.41-4.18-1.64-1.32-2.9-2.78-3.75-4.33-2.04-3.74-1.78-8.61.65-12.11,2.12-3.06,5.8-4.96,9.59-4.96.51,0,1.02.04,1.52.11.54.08,1.05-.3,1.13-.84,1.79-11.74,7.2-23.01,15.24-31.74,5.93-6.44,13.22-10.29,19.5-10.29,1.77,0,3.49.29,5.12.87.27.1.57.07.83-.07Z"/>
      <path class="cls-1" d="M48.02,63.22c-1.66,2.08-2.34,4.89-1.91,7.51h0c-.87,0-1.76.22-2.61.64-1.73.86-3.1,2.47-3.67,4.3-.81,2.58-.4,5.66,1.23,9.15,1.23,2.64,2.94,4.08,4.83,4.08.07,0,.13,0,.2,0,.55-.03.98-.5.95-1.05-.03-.55-.52-.99-1.05-.95-.03,0-.06,0-.09,0-1.5,0-2.61-2.04-3.02-2.92-1.41-3.02-1.79-5.62-1.13-7.71.41-1.3,1.43-2.49,2.66-3.1.66-.33,1.67-.64,2.74-.26.36.13.77.04,1.04-.24.27-.27.36-.68.23-1.04-.85-2.37-.39-5.18,1.18-7.15,1.57-1.97,4.21-3.06,6.71-2.75.75.09,1.48.77,1.5,1,0,0,0,.01-.03.03-.4.38-.41,1.02-.03,1.41.38.4,1.02.41,1.41.03.59-.57.77-1.33.51-2.11-.39-1.15-1.77-2.19-3.14-2.35-3.18-.38-6.52.99-8.52,3.49Z"/>
      <path class="cls-1" d="M193.91,40.26c2.46-1.15,5.79-.14,7.57,2.29,1.64,2.23,2.03,5.53,1.02,8.59-.17.53.11,1.09.64,1.26.1.03.21.05.31.05.42,0,.81-.27.95-.69,1.2-3.67.7-7.66-1.31-10.4-2.32-3.17-6.73-4.45-10.02-2.92-.5.23-.72.83-.49,1.33.23.5.83.72,1.33.49Z"/>
      <path class="cls-1" d="M228.67,71.03c2.77-2.12,7.04-2.24,9.92-.27,2.93,2,4.34,5.93,3.36,9.34-.1.34-.01.7.23.96.24.26.59.37.93.3,1.55-.32,3.23.07,4.72,1.08,1.73,1.18,2.97,3.04,3.32,4.98.63,3.55-1.19,7.64-4.53,10.17-.44.33-.53.96-.19,1.4.2.26.5.4.8.4.21,0,.42-.07.6-.2,3.99-3.02,6.07-7.78,5.29-12.11-.44-2.46-1.99-4.81-4.16-6.28-1.49-1.01-3.14-1.54-4.77-1.54h-.02c.52-3.85-1.22-7.94-4.45-10.14-3.63-2.48-8.78-2.33-12.27.33-.44.34-.52.96-.19,1.4.34.44.96.52,1.4.19Z"/>
      <path class="cls-1" d="M100.9,99.78c2.75,1.56,6.19,1.79,9.14.69.17.7.52,1.36,1.02,1.89.1.1.21.18.34.23,1.59.66,3.31.98,5.04.98,3.43,0,6.88-1.26,9.37-3.61.4-.38.42-1.01.04-1.41-.38-.4-1.01-.42-1.41-.04-3.13,2.95-8.05,3.89-12.06,2.32-.37-.47-.53-1.12-.43-1.71.07-.38-.09-.77-.4-.99-.31-.23-.73-.25-1.07-.06-2.62,1.46-5.99,1.45-8.6-.03-2.61-1.48-4.35-4.37-4.43-7.37-.02-.55-.46-.96-1.03-.97-.55.02-.99.48-.97,1.03.1,3.68,2.24,7.23,5.44,9.05Z"/>
    </g>
  </g>
</svg>