<svg width="33" height="32" viewBox="0 0 33 32" fill="none" xmlns="http://www.w3.org/2000/svg">
<path d="M29.9518 15.0399L20.3868 5.50886L22.8975 3.00094C23.3553 2.54356 23.3558 1.80153 22.8984 1.34368C22.4411 0.885772 21.6991 0.88542 21.2411 1.34274L7.10003 15.4684C5.12449 16.0196 3.6709 17.8354 3.6709 19.9844C3.6709 20.6316 4.19555 21.1563 4.84277 21.1563C5.48999 21.1563 6.01464 20.6316 6.01464 19.9844C6.01464 19.0749 6.53536 18.2848 7.29427 17.8964L17.2081 27.7762C18.1218 28.689 19.3214 29.1452 20.5212 29.1452C21.7212 29.1451 22.9214 28.6885 23.8344 27.7755L29.9542 21.6715C30.8397 20.786 31.3273 19.6085 31.3271 18.3561C31.3268 17.1036 30.8388 15.9263 29.9518 15.0399ZM28.2979 20.0131L22.1781 26.1172C21.2648 27.0306 19.7782 27.0309 18.8636 26.1171L10.3579 17.6407H23.3584C24.0056 17.6407 24.5303 17.116 24.5303 16.4688C24.5303 15.8216 24.0056 15.2969 23.3584 15.2969H10.5881L18.7286 7.1653L28.2962 16.6991C28.7392 17.1417 28.9833 17.7303 28.9834 18.3566C28.9834 18.9827 28.7397 19.5714 28.2979 20.0131Z" fill="#697586"/>
<path d="M6.90674 24.3961C6.31043 23.5057 5.72075 22.7862 5.6959 22.756C5.47331 22.4851 5.14108 22.3281 4.79052 22.3281C4.43995 22.3281 4.10773 22.4851 3.88513 22.756C3.86029 22.7862 3.2706 23.5057 2.67429 24.3961C1.47248 26.1905 1.3335 27.0514 1.3335 27.543C1.3335 29.4492 2.88435 31 4.79052 31C6.69668 31 8.24754 29.4492 8.24754 27.543C8.24754 27.0514 8.10855 26.1905 6.90674 24.3961ZM4.79052 28.6563C4.17663 28.6563 3.67724 28.1569 3.67718 27.5458C3.67741 27.5411 3.708 27.0613 4.63155 25.6855C4.6847 25.6064 4.73778 25.5286 4.79052 25.4528C4.84319 25.5286 4.89634 25.6064 4.94948 25.6855C5.85698 27.0375 5.90233 27.5242 5.90379 27.5451C5.90262 28.1579 5.40364 28.6563 4.79052 28.6563Z" fill="#697586"/>
</svg>
