<svg id="Layer_1" data-name="Layer 1" xmlns="http://www.w3.org/2000/svg" viewBox="0 0 21.8 20.54"><defs><style>.cls-1{fill:#081a3e;}.cls-2{fill:#fff;}</style></defs><path class="cls-1" d="M11.22,16.58H9.78a3.17,3.17,0,0,0-3.17,3.17.61.61,0,0,0,.61.62h6.56a.61.61,0,0,0,.61-.62,3.17,3.17,0,0,0-3.17-3.17Z" transform="translate(0.33 -0.23)"/><path class="cls-1" d="M20.38,12.48H13a.68.68,0,0,0-.37.12h0a.61.61,0,0,0-.25.49,4.3,4.3,0,0,0,3.94,4.28l.44,0,.37,0A4.31,4.31,0,0,0,21,13.1.62.62,0,0,0,20.38,12.48Zm-3.62,3.69a3.08,3.08,0,0,1-3-2.46h6A3.09,3.09,0,0,1,16.76,16.17Z" transform="translate(0.33 -0.23)"/><path class="cls-1" d="M8,7.92H.62a.6.6,0,0,0-.39.14A.62.62,0,0,0,0,8.54a4.31,4.31,0,0,0,3.94,4.29l.44,0,.37,0A4.33,4.33,0,0,0,8.62,8.54.62.62,0,0,0,8,7.92Zm-3.62,3.7a3.09,3.09,0,0,1-3-2.46h6A3.08,3.08,0,0,1,4.38,11.62Z" transform="translate(0.33 -0.23)"/><path class="cls-2" d="M21,12.82,17.31,5.49a.59.59,0,0,0-.34-.3L12.41,3.53A1.77,1.77,0,0,0,12,2.25a1.59,1.59,0,0,0-.13-.13,1.84,1.84,0,0,0-.43-.3h0l-.32-.13a1.87,1.87,0,0,0-1.05,0l-.11,0A1.53,1.53,0,0,0,9.5,2a1.69,1.69,0,0,0-.39.37l0,0-.25-.09-.26-.1-.49-.18-.8-.29L6.84,1.5,4.57.67a.78.78,0,0,0-.21,0A.58.58,0,0,0,4,.75L3.91.83a.71.71,0,0,0-.1.14L.23,8.06l-.1.2a.84.84,0,0,0-.06.3,4.32,4.32,0,0,0,3.87,4.27l.44,0,.37,0A4.3,4.3,0,0,0,8.69,8.56a.66.66,0,0,0-.07-.3l-3-5.9L8.72,3.49a1.84,1.84,0,0,0,.54,1.28,1.89,1.89,0,0,0,.69.44V16.58H9.84l-.32,0-.3,0a3.19,3.19,0,0,0-2.55,3.11.62.62,0,0,0,.62.62h6.56a.61.61,0,0,0,.61-.62,3.16,3.16,0,0,0-2.91-3.15,1.1,1.1,0,0,0-.26,0h-.11V5.21A1.83,1.83,0,0,0,12,4.67L15.9,6.11,12.63,12.6h0l-.11.21a.69.69,0,0,0-.07.3,4.32,4.32,0,0,0,3.87,4.26l.44,0,.37,0a4.3,4.3,0,0,0,3.94-4.26A.6.6,0,0,0,21,12.82ZM4.38,11.62a3.09,3.09,0,0,1-3-2.46h6A3.08,3.08,0,0,1,4.38,11.62Zm2.69-3.7H1.68L4.36,2.61Zm4.22,9.89a1.93,1.93,0,0,1,1.84,1.33H8a1.93,1.93,0,0,1,1.83-1.33ZM10.56,4.08a.63.63,0,0,1-.43-.18.62.62,0,0,1,0-.87.59.59,0,0,1,.43-.18.62.62,0,0,1,.63.61A.62.62,0,0,1,10.56,4.08Zm6.2,3.05,2.7,5.35H14.07Zm0,9a3.08,3.08,0,0,1-3-2.46h6A3.09,3.09,0,0,1,16.76,16.17Z" transform="translate(0.33 -0.23)"/><path class="cls-1" d="M4.36,2.61,1.68,7.92H7.07Zm0,.89,2.05,4H2.33Zm6.2-.65a.59.59,0,0,0-.43.18.62.62,0,0,0,0,.87.63.63,0,0,0,.43.18.62.62,0,0,0,.63-.62A.62.62,0,0,0,10.56,2.85Zm0,.83a.22.22,0,0,1-.21-.22.18.18,0,0,1,.07-.15.2.2,0,0,1,.14-.06.21.21,0,0,1,.23.21A.22.22,0,0,1,10.56,3.68Zm6.2,3.45-2.69,5.35h5.39Zm0,.89,2,4.06H14.72Zm0-.89-2.69,5.35h5.39Zm0,.89,2,4.06H14.72Zm-6.2-5.17a.59.59,0,0,0-.43.18.62.62,0,0,0,0,.87.63.63,0,0,0,.43.18.62.62,0,0,0,.63-.62A.62.62,0,0,0,10.56,2.85Zm0,.83a.22.22,0,0,1-.21-.22.18.18,0,0,1,.07-.15.2.2,0,0,1,.14-.06.21.21,0,0,1,.23.21A.22.22,0,0,1,10.56,3.68ZM1.68,7.92H7.07L4.36,2.61Zm.65-.4,2-4,2.05,4Zm19,5.12L17.67,5.31a1,1,0,0,0-.57-.5L12.81,3.24a2.24,2.24,0,0,0-.61-1.33,2.32,2.32,0,0,0-1.65-.7A2.17,2.17,0,0,0,9,1.86L4.66.28a.85.85,0,0,0-.3-.05,1,1,0,0,0-.91.56L-.22,8.08a1,1,0,0,0-.11.49,4.71,4.71,0,0,0,9.42,0A1.2,1.2,0,0,0,9,8.08l-2.55-5,1.91.7A2.24,2.24,0,0,0,9,5.05a2.33,2.33,0,0,0,.57.42V16.19a3.58,3.58,0,0,0-3.28,3.56,1,1,0,0,0,1,1h6.56a1,1,0,0,0,1-1,3.57,3.57,0,0,0-3.28-3.56V5.47a2.34,2.34,0,0,0,.49-.33l3.27,1.19-3.18,6.31a1.17,1.17,0,0,0-.11.49,4.71,4.71,0,0,0,9.42,0A1,1,0,0,0,21.36,12.64Zm-4.23,4.74-.37,0-.44,0a4.32,4.32,0,0,1-3.87-4.26.69.69,0,0,1,.07-.3l.11-.21h0L15.9,6.11,12,4.67a1.83,1.83,0,0,1-.78.54V16.58h.11a1.1,1.1,0,0,1,.26,0,3.16,3.16,0,0,1,2.91,3.15.61.61,0,0,1-.61.62H7.29a.62.62,0,0,1-.62-.62,3.19,3.19,0,0,1,2.55-3.11l.3,0,.32,0H10V5.21a1.89,1.89,0,0,1-.69-.44,1.84,1.84,0,0,1-.54-1.28L5.61,2.36l3,5.9a.66.66,0,0,1,.07.3,4.3,4.3,0,0,1-3.94,4.27l-.37,0-.44,0A4.32,4.32,0,0,1,.07,8.56a.84.84,0,0,1,.06-.3l.1-.2L3.81,1a.71.71,0,0,1,.1-.14L4,.75A.58.58,0,0,1,4.36.63a.78.78,0,0,1,.21,0l2.27.83.42.15.8.29.49.18.26.1.25.09,0,0A1.69,1.69,0,0,1,9.5,2a1.53,1.53,0,0,1,.41-.23l.11,0a1.89,1.89,0,0,1,.53-.08,1.82,1.82,0,0,1,.52.08,1.27,1.27,0,0,1,.32.13h0a1.84,1.84,0,0,1,.43.3,1.59,1.59,0,0,1,.13.13,1.77,1.77,0,0,1,.45,1.28L17,5.19a.59.59,0,0,1,.34.3L21,12.82a.6.6,0,0,1,.07.3A4.3,4.3,0,0,1,17.13,17.38Zm-3.06-4.9h5.39l-2.7-5.35Zm.65-.4,2-4.06,2,4.06ZM10.56,2.85a.59.59,0,0,0-.43.18.62.62,0,0,0,0,.87.63.63,0,0,0,.43.18.62.62,0,0,0,.63-.62A.62.62,0,0,0,10.56,2.85Zm0,.83a.22.22,0,0,1-.21-.22.18.18,0,0,1,.07-.15.2.2,0,0,1,.14-.06.21.21,0,0,1,.23.21A.22.22,0,0,1,10.56,3.68ZM1.68,7.92H7.07L4.36,2.61Zm.65-.4,2-4,2.05,4Zm2-4.91L1.68,7.92H7.07Zm0,.89,2.05,4H2.33Zm6.2-.65a.59.59,0,0,0-.43.18.62.62,0,0,0,0,.87.63.63,0,0,0,.43.18.62.62,0,0,0,.63-.62A.62.62,0,0,0,10.56,2.85Zm0,.83a.22.22,0,0,1-.21-.22.18.18,0,0,1,.07-.15.2.2,0,0,1,.14-.06.21.21,0,0,1,.23.21A.22.22,0,0,1,10.56,3.68Zm6.2,3.45-2.69,5.35h5.39Zm0,.89,2,4.06H14.72Zm0-.89-2.69,5.35h5.39Zm0,.89,2,4.06H14.72Zm-6.2-5.17a.59.59,0,0,0-.43.18.62.62,0,0,0,0,.87.63.63,0,0,0,.43.18.62.62,0,0,0,.63-.62A.62.62,0,0,0,10.56,2.85Zm0,.83a.22.22,0,0,1-.21-.22.18.18,0,0,1,.07-.15.2.2,0,0,1,.14-.06.21.21,0,0,1,.23.21A.22.22,0,0,1,10.56,3.68ZM4.36,2.61,1.68,7.92H7.07Zm0,.89,2.05,4H2.33Zm12.4,3.63-2.69,5.35h5.39Zm0,.89,2,4.06H14.72Zm-6.2-5.17a.59.59,0,0,0-.43.18.62.62,0,0,0,0,.87.63.63,0,0,0,.43.18.62.62,0,0,0,.63-.62A.62.62,0,0,0,10.56,2.85Zm0,.83a.22.22,0,0,1-.21-.22.18.18,0,0,1,.07-.15.2.2,0,0,1,.14-.06.21.21,0,0,1,.23.21A.22.22,0,0,1,10.56,3.68ZM4.36,2.61,1.68,7.92H7.07Zm0,.89,2.05,4H2.33Zm12.4,3.63-2.69,5.35h5.39Zm0,.89,2,4.06H14.72Zm-6.2-5.17a.59.59,0,0,0-.43.18.62.62,0,0,0,0,.87.63.63,0,0,0,.43.18.62.62,0,0,0,.63-.62A.62.62,0,0,0,10.56,2.85Zm0,.83a.22.22,0,0,1-.21-.22.18.18,0,0,1,.07-.15.2.2,0,0,1,.14-.06.21.21,0,0,1,.23.21A.22.22,0,0,1,10.56,3.68ZM4.36,2.61,1.68,7.92H7.07Zm0,.89,2.05,4H2.33Z" transform="translate(0.33 -0.23)"/><path class="cls-1" d="M13.13,19.14H8a1.93,1.93,0,0,1,1.83-1.33h1.45A1.93,1.93,0,0,1,13.13,19.14Z" transform="translate(0.33 -0.23)"/><path class="cls-1" d="M19.78,13.71a3.08,3.08,0,0,1-6,0Z" transform="translate(0.33 -0.23)"/><path class="cls-1" d="M7.39,9.16a3.08,3.08,0,0,1-6,0Z" transform="translate(0.33 -0.23)"/></svg>