<svg xmlns="http://www.w3.org/2000/svg" width="34" height="31.945" viewBox="0 0 34 31.945">
  <path id="Path_45308" data-name="Path 45308" d="M33.893,20.193,27.913,8.322a1,1,0,0,0-.554-.49L19.988,5.149A2.993,2.993,0,0,0,14.642,3.2L7.28.524a1,1,0,0,0-1.229.488L.107,12.816A1.039,1.039,0,0,0,0,13.3a6.976,6.976,0,0,0,13.951,0,1.037,1.037,0,0,0-.108-.481L8.976,3.262,14.01,5.094A2.988,2.988,0,0,0,16,7.865V26.282h-.177a5.138,5.138,0,0,0-5.132,5.132,1,1,0,0,0,1,1H22.309a1,1,0,0,0,1-1,5.138,5.138,0,0,0-5.133-5.132H18V7.865A2.966,2.966,0,0,0,19.259,7L25.63,9.323l-5.473,10.87a1.037,1.037,0,0,0-.106.48,6.974,6.974,0,0,0,13.948,0,1.027,1.027,0,0,0-.106-.48ZM6.946,3.665l4.384,8.6H2.613Zm.03,14.583A4.992,4.992,0,0,1,2.092,14.26H11.86A4.992,4.992,0,0,1,6.976,18.248Zm11.2,10.027a3.146,3.146,0,0,1,2.978,2.144h-8.3a3.146,3.146,0,0,1,2.978-2.144ZM16.293,5.751A1,1,0,1,1,18,5.045,1,1,0,0,1,16.293,5.751Zm10.731,5.234,4.363,8.661H22.664Zm0,14.639a4.991,4.991,0,0,1-4.882-3.986h9.764A4.991,4.991,0,0,1,27.026,25.624Z" transform="translate(0 -0.465)" fill="#f81734"/>
</svg>
