<svg id="Layer_1" data-name="Layer 1" xmlns="http://www.w3.org/2000/svg" viewBox="0 0 18.14 15.54">
  <path class="cls-1" d="M19,10.37a.43.43,0,0,0-.2-.15L16.81,6l.75.21a.52.52,0,0,0,.3-.06A.45.45,0,0,0,18,5.89a.47.47,0,0,0,0-.31.54.54,0,0,0-.23-.22L11.68,3.61v0a1.72,1.72,0,0,0-.35-1A1.69,1.69,0,0,0,10.42,2,1.64,1.64,0,0,0,9.35,2a1.67,1.67,0,0,0-.78.68L2.46,1a.33.33,0,0,0-.17,0A.43.43,0,0,0,2.1,1L2,1.08a.56.56,0,0,0-.09.17.37.37,0,0,0,0,.18.49.49,0,0,0,.06.17.33.33,0,0,0,.13.13.37.37,0,0,0,.16.07l1.14.32L1.19,6.75A.43.43,0,0,0,1,6.9a.44.44,0,0,0-.08.25A3,3,0,0,0,2.79,9.93a3,3,0,0,0,3.28-.66,2.86,2.86,0,0,0,.67-1A3,3,0,0,0,7,7.15a.44.44,0,0,0-.09-.27.48.48,0,0,0-.2-.14l-2-4.22,3.62,1v0a1.62,1.62,0,0,0,.36,1,1.66,1.66,0,0,0,.87.58v7.14H8.62a1.5,1.5,0,0,0-1.09.44,1.56,1.56,0,0,0-.46,1.08V14A1.55,1.55,0,0,0,5.9,15.51V16a.44.44,0,0,0,.13.31.48.48,0,0,0,.32.13h7.3a.44.44,0,0,0,.31-.13A.41.41,0,0,0,14.1,16v-.52a1.58,1.58,0,0,0-.35-1,1.53,1.53,0,0,0-.82-.52v-.16a1.53,1.53,0,0,0-.47-1.08,1.51,1.51,0,0,0-1.07-.45h-1V5.2A1.78,1.78,0,0,0,11,4.92a1.71,1.71,0,0,0,.42-.47l4,1.15-2.16,4.63a.43.43,0,0,0-.18.15.44.44,0,0,0-.08.25,3,3,0,0,0,5.14,2.13,3.06,3.06,0,0,0,.9-2.13A.43.43,0,0,0,19,10.37Zm-.83.68A2.14,2.14,0,0,1,16,12.75h0a2.14,2.14,0,0,1-1.37-.5,2.07,2.07,0,0,1-.71-1.2Zm-3.87-.87L16,6.39l1.77,3.79ZM7,15.05a.69.69,0,0,1,.48-.19h5.11a.66.66,0,0,1,.46.19.68.68,0,0,1,.21.47v.08H6.77v-.08A.69.69,0,0,1,7,15.05Zm4.42-1.84a.66.66,0,0,1,.46.19.68.68,0,0,1,.21.46V14H7.94v-.13a.68.68,0,0,1,.21-.46.67.67,0,0,1,.47-.19h2.77ZM9.24,3.84a.75.75,0,0,1,0-.49A.74.74,0,0,1,9.5,3,.76.76,0,0,1,10,2.78h0a.8.8,0,0,1,.43.12.84.84,0,0,1,.32.38.89.89,0,0,1,0,.48.41.41,0,0,0,0,.08.77.77,0,0,1-.29.4,1,1,0,0,1-.4.15H10a.87.87,0,0,1-.47-.15A.83.83,0,0,1,9.24,3.84ZM6.05,7.57a2.11,2.11,0,0,1-.72,1.19,2.15,2.15,0,0,1-1.39.51h0a2.14,2.14,0,0,1-1.37-.5,2.1,2.1,0,0,1-.71-1.2ZM2.17,6.69,3.94,2.91,5.71,6.69Z" transform="translate(-0.93 -0.93)"/>
</svg>
