<svg width="24" height="20" viewBox="0 0 24 20" fill="none" xmlns="http://www.w3.org/2000/svg">
<path d="M2.17039 13.8223C2.17039 12.8387 2.18228 11.8551 2.17039 10.8726C2.14302 10.519 2.18624 10.1634 2.29758 9.82662C2.40892 9.48983 2.58612 9.17853 2.81888 8.91087C3.09342 8.61471 3.00698 8.46555 2.67407 8.31964C2.35335 8.17116 2.04119 8.00481 1.73911 7.82136C1.18354 7.4971 1.09059 7.0507 1.30677 6.16223C1.45052 5.56668 1.71748 5.23269 2.3995 5.28458C3.10315 5.33754 3.81546 5.27376 4.52234 5.30511C4.91902 5.32348 5.14167 5.21215 5.24436 4.81331C5.3536 4.43614 5.48239 4.06491 5.63022 3.70112C5.75399 3.313 5.99731 2.97395 6.32538 2.73245C6.65346 2.49096 7.04951 2.35937 7.45688 2.35652C8.1054 2.32193 8.7539 2.34463 9.40242 2.34895C9.72668 2.34895 10.0077 2.45056 10.012 2.83426C10.012 3.25472 9.71587 3.34552 9.36999 3.34768C8.77984 3.34768 8.1897 3.35741 7.60063 3.34768C7.36315 3.32544 7.12549 3.38819 6.92994 3.52476C6.73439 3.66133 6.59362 3.86284 6.53273 4.09346C6.37384 4.55715 6.18903 5.01328 6.04095 5.48021C5.97917 5.73138 5.82936 5.95207 5.61874 6.1022C5.40812 6.25233 5.15064 6.32195 4.89306 6.29843C4.18546 6.29843 3.4775 6.29843 2.76917 6.29843C2.54003 6.29843 2.29683 6.24871 2.21469 6.58486C2.13254 6.92101 2.34116 7.03341 2.57894 7.15446C2.89456 7.31443 3.2091 7.47873 3.51283 7.65815C3.65559 7.7182 3.78125 7.81262 3.8787 7.933C3.97614 8.05338 4.04234 8.19598 4.07133 8.34812C4.10033 8.50026 4.09125 8.6572 4.04491 8.80498C3.99857 8.95276 3.91641 9.08679 3.80573 9.19513C3.57065 9.45842 3.39106 9.76644 3.27777 10.1007C3.16448 10.435 3.11981 10.7887 3.14639 11.1407C3.17017 12.9501 3.16585 14.7594 3.14639 16.5677C3.14639 16.9655 3.22854 17.1665 3.65872 17.0984C3.75693 17.0907 3.8556 17.0907 3.95381 17.0984C5.02386 17.0984 5.0217 17.0984 5.14276 16.0478C5.14311 15.9284 5.16748 15.8104 5.21447 15.7006C5.26146 15.5909 5.33009 15.4918 5.41624 15.4091C5.5024 15.3265 5.60431 15.2621 5.71591 15.2197C5.82752 15.1774 5.94654 15.1579 6.06582 15.1626C7.20613 15.1399 8.34642 15.1518 9.48673 15.155C9.81099 15.155 10.0272 15.2966 10.0164 15.6447C10.0056 15.9927 9.78182 16.1213 9.46512 16.1235C8.52153 16.1235 7.57686 16.144 6.63327 16.117C6.23875 16.1062 6.09284 16.1916 6.09284 16.6239C6.10148 18.1004 6.08312 18.1014 4.62611 18.1014C4.09541 18.1014 3.56363 18.1101 3.03292 18.1014C2.39197 18.0885 2.1855 17.8853 2.18117 17.2486C2.16496 16.104 2.17039 14.9637 2.17039 13.8223Z" fill="#364152" stroke="#364152" stroke-width="0.6"/>
<path d="M21.8187 13.9022C21.8187 15.0036 21.8187 16.105 21.8187 17.2053C21.8187 17.8819 21.6155 18.0862 20.9443 18.0959C20.2173 18.106 19.4898 18.106 18.762 18.0959C18.12 18.0862 17.9125 17.8722 17.8974 17.2507C17.8703 16.1233 17.8704 16.1233 16.7614 16.1233C16.0534 16.1233 15.3454 16.1233 14.6375 16.1233C14.2851 16.1233 13.989 16.0401 13.989 15.6218C13.989 15.2035 14.3132 15.1462 14.6537 15.1473C15.6567 15.1473 16.6598 15.1473 17.6617 15.1473C18.5469 15.1473 18.8982 15.4716 18.8507 16.3579C18.8215 16.9513 18.9825 17.1328 19.5911 17.1091C20.8405 17.0593 20.8416 17.095 20.8416 15.838C20.8416 14.2059 20.8319 12.5738 20.8416 10.9417C20.8685 10.3283 20.6548 9.72875 20.2461 9.27065C20.1158 9.161 20.0168 9.01887 19.9591 8.85865C19.9014 8.69842 19.8871 8.5258 19.9176 8.35826C19.9481 8.19072 20.0223 8.03423 20.1328 7.90461C20.2432 7.775 20.386 7.67688 20.5466 7.62018C20.887 7.42455 21.2308 7.23215 21.5831 7.06029C21.8177 6.94572 21.809 6.77279 21.7668 6.56742C21.7247 6.36206 21.5799 6.29504 21.3799 6.29612C20.6525 6.29612 19.9251 6.29612 19.1977 6.29612C18.9107 6.3471 18.6153 6.28219 18.3762 6.11562C18.1371 5.94906 17.9738 5.69444 17.9222 5.40764C17.7676 4.98394 17.6153 4.55809 17.4737 4.13007C17.4154 3.88852 17.2719 3.67612 17.0696 3.53195C16.8672 3.38777 16.6196 3.32152 16.3723 3.34537C15.7821 3.35834 15.192 3.35077 14.6029 3.34537C14.2786 3.34537 13.9944 3.25997 13.9792 2.87411C13.9619 2.45257 14.2559 2.34989 14.605 2.34773C15.2341 2.34773 15.8642 2.32395 16.4922 2.34773C16.9092 2.34733 17.3156 2.47916 17.6529 2.72425C17.9903 2.96935 18.2412 3.31508 18.3697 3.71177C18.5664 4.22194 18.574 4.91585 18.9934 5.19795C19.4333 5.49519 20.1001 5.26498 20.6665 5.28767C20.9605 5.29956 21.2567 5.28767 21.5517 5.28767C22.3732 5.28767 22.4824 5.37955 22.7007 6.22911C22.9191 7.07867 22.7894 7.50777 22.1787 7.8504C21.8932 8.02366 21.598 8.18028 21.2945 8.31949C20.9195 8.47621 20.9389 8.65348 21.1864 8.91937C21.6499 9.46527 21.8777 10.1728 21.8198 10.8865C21.8079 11.8971 21.8187 12.9002 21.8187 13.9022Z" fill="#364152" stroke="#364152" stroke-width="0.6"/>
<path d="M11.5119 9.67925C11.5119 6.8899 11.5119 4.10055 11.5119 1.31121C11.5072 1.15406 11.5104 0.996782 11.5216 0.839961C11.5301 0.722077 11.5824 0.611635 11.6681 0.530262C11.7539 0.448889 11.8669 0.402437 11.985 0.400003C12.1032 0.397569 12.218 0.439326 12.307 0.517101C12.396 0.594876 12.4528 0.703069 12.4663 0.8205C12.4807 0.976784 12.4847 1.13386 12.4781 1.29067C12.4781 6.91116 12.4781 12.5291 12.4781 18.1446C12.4781 18.2429 12.4781 18.3413 12.4781 18.4396C12.4911 18.7779 12.37 19.0449 12.0036 19.0514C11.6372 19.0579 11.5043 18.8017 11.5108 18.4591C11.5108 18.2235 11.5108 17.9879 11.5108 17.7522L11.5119 9.67925Z" fill="#364152" stroke="#364152" stroke-width="0.6"/>
<path d="M6.71446 12.4452C6.38156 12.4452 6.04651 12.4647 5.71577 12.4398C5.56643 12.4407 5.42233 12.3846 5.31289 12.283C5.20344 12.1814 5.13686 12.0419 5.12668 11.8929C5.04346 11.3201 5.14829 11.2033 5.72655 11.2671C6.25185 11.3244 6.77824 11.3816 7.30246 11.4476C7.58457 11.4833 7.85803 11.5632 7.93152 11.8853C8.01475 12.2496 8.01258 12.5641 7.47864 12.5003C7.22449 12.4854 6.9697 12.4854 6.71555 12.5003L6.71446 12.4452Z" fill="#364152" stroke="#364152" stroke-width="0.6"/>
<path d="M17.173 12.4971C17.0369 12.4971 16.8196 12.5123 16.6056 12.4971C16.3916 12.482 16.0544 12.6593 16.0284 12.2248C16.0079 11.8821 16.0846 11.5762 16.4748 11.5081C17.1709 11.4001 17.8713 11.3179 18.5717 11.2325C18.817 11.2034 18.8581 11.372 18.8668 11.5676C18.8841 11.9394 18.8603 12.3242 18.4225 12.4128C18.0085 12.4694 17.591 12.4976 17.173 12.4971Z" fill="#364152" stroke="#364152" stroke-width="0.6"/>
</svg>
