<svg id="Layer_1" data-name="Layer 1" xmlns="http://www.w3.org/2000/svg" viewBox="0 0 21.8 20.53"><defs><style>.cls-1{fill:#fff;}.cls-2{fill:#081a3e;}</style></defs><path class="cls-1" d="M7.22,20.4a.82.82,0,0,1-.81-.82,3.37,3.37,0,0,1,3.27-3.37v-11a2,2,0,0,1-1.22-1.7L6,2.55,8.73,8a.89.89,0,0,1,.09.39,4.51,4.51,0,0,1-9,0A.92.92,0,0,1-.11,8L3.56.71A.83.83,0,0,1,4.29.26a.81.81,0,0,1,.27,0L9,1.92a2,2,0,0,1,1.5-.68A2.16,2.16,0,0,1,12,1.88a2.06,2.06,0,0,1,.56,1.34L17,4.83a.8.8,0,0,1,.45.4l3.69,7.33a.89.89,0,0,1,.09.39,4.51,4.51,0,0,1-9,0,.89.89,0,0,1,.09-.39l3.28-6.51L12,4.74a2.08,2.08,0,0,1-.63.43v11a3.37,3.37,0,0,1,3.27,3.37.82.82,0,0,1-.81.82Zm5.54-1.63a1.73,1.73,0,0,0-1.54-.93H9.78a1.73,1.73,0,0,0-1.54.93Zm1.17-5a2.88,2.88,0,0,0,5.52,0Zm5.13-1.63-2.37-4.7-2.37,4.7ZM1.55,9.19a2.88,2.88,0,0,0,5.52,0ZM6.67,7.56,4.29,2.88,1.94,7.56Zm3.82-4.68a.39.39,0,0,0-.28.12.41.41,0,0,0-.13.29.42.42,0,0,0,.13.3.39.39,0,0,0,.28.12.42.42,0,0,0,.43-.42A.42.42,0,0,0,10.49,2.88Z" transform="translate(0.4 -0.06)"/><path class="cls-2" d="M4.29.46A.78.78,0,0,1,4.5.5h0S9,2.15,9,2.16a1.8,1.8,0,0,1,1.44-.72,1.86,1.86,0,0,1,1.87,1.92L16.9,5a.59.59,0,0,1,.34.3l3.69,7.33A.63.63,0,0,1,21,13a4.31,4.31,0,0,1-8.62,0,.69.69,0,0,1,.07-.3l3.38-6.71L11.9,4.5a2,2,0,0,1-.78.54V16.41h.1a3.17,3.17,0,0,1,3.17,3.17.61.61,0,0,1-.61.62H7.22a.61.61,0,0,1-.61-.62,3.17,3.17,0,0,1,3.17-3.17h.1V5a2,2,0,0,1-.69-.44,1.84,1.84,0,0,1-.54-1.28L5.54,2.19l3,5.9a.66.66,0,0,1,.07.3A4.31,4.31,0,0,1,0,8.39a.69.69,0,0,1,.07-.3L3.74.8A.61.61,0,0,1,4.29.46M1.61,7.76H7L4.29,2.44,1.61,7.76m8.88-3.85a.62.62,0,1,0,0-1.23.59.59,0,0,0-.43.18.62.62,0,0,0,0,.87.63.63,0,0,0,.43.18M14,12.31h5.39L16.69,7,14,12.31m-9.69-.86A3.09,3.09,0,0,0,7.33,9h-6a3.09,3.09,0,0,0,3,2.46M16.69,16a3.08,3.08,0,0,0,3-2.46h-6a3.07,3.07,0,0,0,3,2.46M7.94,19h5.12a1.93,1.93,0,0,0-1.84-1.33H9.78A1.93,1.93,0,0,0,7.94,19M4.29.06h0a1,1,0,0,0-.91.56L-.29,7.91A1.06,1.06,0,0,0-.4,8.4,4.71,4.71,0,0,0,9,8.39a1.2,1.2,0,0,0-.11-.48l-2.55-5,1.92.69a2.14,2.14,0,0,0,.63,1.27,2.33,2.33,0,0,0,.57.42V16a3.57,3.57,0,0,0-3.27,3.56,1,1,0,0,0,1,1h6.56a1,1,0,0,0,1-1A3.57,3.57,0,0,0,11.52,16V5.3A2.56,2.56,0,0,0,12,5l3.27,1.19-3.18,6.31A1.05,1.05,0,0,0,12,13a4.71,4.71,0,0,0,9.41,0,.92.92,0,0,0-.11-.48L17.6,5.14a1,1,0,0,0-.57-.5L12.74,3.08a2.24,2.24,0,0,0-.61-1.34A2.32,2.32,0,0,0,10.48,1a2.13,2.13,0,0,0-1.55.65L4.6.11a1.25,1.25,0,0,0-.31,0Zm6.2,3.45a.2.2,0,0,1-.14-.06.24.24,0,0,1-.07-.16.23.23,0,0,1,.07-.15.2.2,0,0,1,.14-.06.21.21,0,0,1,.23.21.22.22,0,0,1-.23.22ZM2.26,7.36l2-4,2.06,4Zm12.39,4.55,2-4.06,2,4.06ZM1.83,9.39h5a2.68,2.68,0,0,1-5,0Zm12.38,4.55h5a2.68,2.68,0,0,1-5,0ZM8.62,18.57A1.52,1.52,0,0,1,9.78,18h1.44a1.52,1.52,0,0,1,1.16.53Z" transform="translate(0.4 -0.06)"/></svg>