<svg width="28" height="28" viewBox="0 0 28 28" fill="none" xmlns="http://www.w3.org/2000/svg">
<circle cx="14" cy="14" r="13" stroke="#697586" stroke-width="2"/>
<path d="M19.4141 8.58594L8.58594 19.4141" stroke="#697586" stroke-width="2.2" stroke-linecap="round" stroke-linejoin="round"/>
<path d="M9.74609 11.6797C10.814 11.6797 11.6797 10.814 11.6797 9.74609C11.6797 8.6782 10.814 7.8125 9.74609 7.8125C8.6782 7.8125 7.8125 8.6782 7.8125 9.74609C7.8125 10.814 8.6782 11.6797 9.74609 11.6797Z" stroke="#697586" stroke-width="2.2" stroke-linecap="round" stroke-linejoin="round"/>
<path d="M18.2539 20.1875C19.3218 20.1875 20.1875 19.3218 20.1875 18.2539C20.1875 17.186 19.3218 16.3203 18.2539 16.3203C17.186 16.3203 16.3203 17.186 16.3203 18.2539C16.3203 19.3218 17.186 20.1875 18.2539 20.1875Z" stroke="#697586" stroke-width="2.2" stroke-linecap="round" stroke-linejoin="round"/>
</svg>
