<svg width="36" height="32" viewBox="0 0 36 32" fill="none" xmlns="http://www.w3.org/2000/svg">
<path d="M27.8094 4.00095H22.5698C22.5682 4.00095 22.5669 4 22.5653 4H17.0925C17.091 4 17.0897 4.00095 17.0881 4.00095H5.15298C4.57293 4.00095 4.10254 4.47133 4.10254 5.05139C4.10254 5.63144 4.57293 6.10183 5.15298 6.10183H16.0421V12.4247C16.0421 13.0024 16.5148 13.4751 17.0925 13.4751H22.5653C23.1431 13.4751 23.6158 13.0024 23.6158 12.4247V6.10183H27.8094C28.5207 6.10183 29.0993 6.68042 29.0993 7.39178V24.0122C29.0993 24.7236 28.5207 25.3022 27.8094 25.3022H11.1889C10.478 25.3022 9.89952 24.7236 9.89952 24.0122V12.4655C9.89952 11.8855 9.42913 11.4151 8.84907 11.4151H6.0717C5.49165 11.4151 5.02126 11.8855 5.02126 12.4655C5.02126 13.0456 5.49165 13.516 6.0717 13.516H7.79863V24.0122C7.79863 25.8818 9.31946 27.403 11.1889 27.403H27.8094C29.679 27.403 31.2002 25.8818 31.2002 24.0122V7.39188C31.2002 5.5223 29.679 4.00095 27.8094 4.00095ZM21.5149 11.3742H18.143V6.10183H21.5149V11.3742Z" fill="#697586"/>
<path d="M1.85025 9.80792H8.33191C8.91196 9.80792 9.38235 9.33753 9.38235 8.75747C9.38235 8.17742 8.91196 7.70703 8.33191 7.70703H1.85025C1.27019 7.70703 0.799805 8.17742 0.799805 8.75747C0.799805 9.33753 1.27009 9.80792 1.85025 9.80792Z" fill="#697586"/>
<path d="M25.8407 23.3138C26.4208 23.3138 26.8912 22.8434 26.8912 22.2633C26.8912 21.6833 26.4208 21.2129 25.8407 21.2129H22.5602C21.9802 21.2129 21.5098 21.6833 21.5098 22.2633C21.5098 22.8434 21.9802 23.3138 22.5602 23.3138H25.8407Z" fill="#697586"/>
</svg>
