<svg width="24" height="24" viewBox="0 0 24 24" fill="none" xmlns="http://www.w3.org/2000/svg">
<path d="M20 20.3358L4 20.3358" stroke="currentColor" stroke-width="1.5" stroke-linecap="round" stroke-linejoin="round"/>
<path fill-rule="evenodd" clip-rule="evenodd" d="M16.75 2C16.286 2 15.8409 2.1843 15.5128 2.51238L15.5127 2.51246L6.21968 11.8055C6.12106 11.9041 6.0519 12.0282 6.01995 12.164L5.01995 16.414C4.96046 16.6668 5.03602 16.9325 5.21968 17.1161C5.40335 17.2998 5.66896 17.3753 5.92179 17.3158L10.1718 16.3158C10.3076 16.2839 10.4317 16.2147 10.5303 16.1161L19.8233 6.82312L19.8234 6.82304C20.1515 6.49486 20.3358 6.04983 20.3358 5.58579C20.3358 5.12175 20.1515 4.67671 19.8234 4.34854L19.8233 4.34846L17.9873 2.51246L17.9873 2.51238C17.6591 2.1843 17.2141 2 16.75 2ZM16.5733 3.5732L16.5733 3.57312C16.6202 3.5263 16.6838 3.5 16.75 3.5C16.8163 3.5 16.8799 3.52633 16.9268 3.5732L18.7626 5.40904C18.8095 5.45592 18.8358 5.5195 18.8358 5.58579C18.8358 5.65204 18.8095 5.71558 18.7627 5.76246L18.7626 5.76254L17.6553 6.8698L15.466 4.68046L16.5733 3.5732ZM14.4053 5.74112L7.43121 12.7153L6.75757 15.5782L9.62055 14.9046L16.5947 7.93046L14.4053 5.74112Z" fill="currentColor"/>
</svg>
