<svg width="32" height="32" viewBox="0 0 32 32" fill="none" xmlns="http://www.w3.org/2000/svg">
<g clip-path="url(#clip0_1707_41750)">
<path d="M29.6 22.6875V22.5875H29.5H25.75C25.1148 22.5875 24.6 22.0727 24.6 21.4375C24.6 20.8023 25.1148 20.2875 25.75 20.2875H29.5H29.6V20.1875V16.375V16.275H29.5H25.75C25.1148 16.275 24.6 15.7602 24.6 15.125V11.7678V11.7264L24.5707 11.6971L22.1779 9.30429L22.1486 9.275H22.1072H10.0178H9.9764L9.94711 9.30429L7.49179 11.7596L7.4625 11.7889V11.8303V22.6658V22.7075L7.49218 22.7369L11.4333 26.6346C12.1034 27.2974 12.992 27.6625 13.9343 27.6625H24.5H24.6V27.5625V26.4375C24.6 25.8023 25.1148 25.2875 25.75 25.2875C26.3852 25.2875 26.9 25.8023 26.9 26.4375V28.8125C26.9 29.4477 26.3852 29.9625 25.75 29.9625H13.9343C12.382 29.9625 10.9198 29.3616 9.81592 28.27L5.50391 24.0051L5.50386 24.005C5.28537 23.7892 5.1625 23.4948 5.1625 23.1875V18.875V18.775H5.0625H2.5H2.4V18.875V22C2.4 22.6352 1.8852 23.15 1.25 23.15C0.614799 23.15 0.1 22.6352 0.1 22V13.3125C0.1 12.6773 0.614799 12.1625 1.25 12.1625C1.8852 12.1625 2.4 12.6773 2.4 13.3125V16.375V16.475H2.5H5.0625H5.1625V16.375V11.3125C5.1625 11.0075 5.28357 10.715 5.49918 10.4994L8.68668 7.31192C8.90254 7.09606 9.19497 6.975 9.5 6.975H14.875H14.975V6.875V4.375V4.275H14.875H11.75C11.1148 4.275 10.6 3.7602 10.6 3.125C10.6 2.4898 11.1148 1.975 11.75 1.975H20.5C21.1352 1.975 21.65 2.4898 21.65 3.125C21.65 3.7602 21.1352 4.275 20.5 4.275H17.375H17.275V4.375V6.875V6.975H17.375H22.625C22.93 6.975 23.2225 7.09606 23.4383 7.31192L26.5633 10.4369C26.7789 10.6525 26.9 10.945 26.9 11.25V13.875V13.975H27H29.5H29.6V13.875V12.625C29.6 11.9898 30.1148 11.475 30.75 11.475C31.3852 11.475 31.9 11.9898 31.9 12.625V23.9375C31.9 24.5727 31.3852 25.0875 30.75 25.0875C30.1148 25.0875 29.6 24.5727 29.6 23.9375V22.6875ZM14.1379 24.4317L14.1377 24.4317C14.0453 24.4322 13.9711 24.4075 13.9227 24.3703C13.8767 24.335 13.8497 24.2857 13.85 24.2197C13.8502 24.1893 13.8579 24.1508 13.8793 24.1041L13.8793 24.1041L13.8805 24.1012L15.5602 20.1012L15.6185 19.9625H15.468H12.957C12.0647 19.9625 11.5044 19.0176 11.9368 18.2469L11.9377 18.2454L14.2973 13.8574L14.2973 13.8574C14.3824 13.6989 14.548 13.6 14.728 13.6H17.7766C18.1559 13.6 18.391 14.0131 18.197 14.3393L16.7932 16.6989L16.7033 16.85H16.8792H19.7739C20.4717 16.85 20.8422 17.6717 20.3876 18.2006L14.4902 24.2922C14.49 24.2924 14.4898 24.2926 14.4896 24.2928C14.4032 24.3787 14.2673 24.4313 14.1379 24.4317ZM13.7883 24.0625C13.7622 24.1196 13.7502 24.1721 13.75 24.2192C13.749 24.416 13.9197 24.5327 14.1382 24.5317L13.7883 24.0625Z" fill="#697586" stroke="#697586" stroke-width="0.2"/>
</g>
<defs>
<clipPath id="clip0_1707_41750">
<rect width="32" height="32" fill="white"/>
</clipPath>
</defs>
</svg>
