<svg width="27" height="26" viewBox="0 0 27 26" fill="none" xmlns="http://www.w3.org/2000/svg">
<g opacity="0.3">
<path d="M25.4097 10.4491C24.7463 9.78457 23.7448 9.67438 22.9576 10.0966C22.03 8.78627 20.963 7.51551 19.764 6.31753C18.565 5.11849 17.2942 4.05157 15.9839 3.12288C16.404 2.33359 16.2844 1.3238 15.569 0.608347C14.7589 -0.202782 13.4382 -0.202782 12.626 0.608347L5.74906 7.48428C4.93793 8.29541 4.93793 9.61613 5.75114 10.4293L5.81248 10.4907C6.21807 10.8963 6.75153 11.099 7.28397 11.099C7.62299 11.099 7.95885 11.0075 8.26567 10.8432C8.86779 11.6938 9.53023 12.5268 10.2509 13.3359C6.28668 16.5388 1.37207 20.946 0.860394 21.4577C-0.177423 22.4945 -0.177423 24.1833 0.860394 25.2211C1.37933 25.74 2.06046 26 2.74159 26C3.42272 26 4.10491 25.74 4.62384 25.2211C5.13547 24.7084 9.5416 19.7938 12.7446 15.8296C13.5536 16.5513 14.3866 17.2138 15.2383 17.8159C14.815 18.6042 14.9263 19.6046 15.5898 20.267L15.6522 20.3304L15.6533 20.3314C16.0589 20.737 16.5923 20.9408 17.1258 20.9408C17.6582 20.9408 18.1917 20.737 18.5973 20.3314L25.4732 13.4555C26.2843 12.6443 26.2843 11.3237 25.4097 10.4491ZM8.03685 9.73257C8.02959 9.73984 8.02644 9.74923 8.01918 9.75548C7.61258 10.1611 6.95222 10.1611 6.54769 9.75441L6.48427 9.692C6.07868 9.28641 6.07868 8.62503 6.48427 8.2195L13.3612 1.34356C13.5567 1.14805 13.8115 1.04613 14.0757 1.04613C14.3596 1.04613 14.6539 1.16364 14.8961 1.40597C15.3027 1.81257 15.3027 2.47293 14.8961 2.87954L14.2961 3.47957L8.03685 9.73257ZM3.88863 24.4859C3.25534 25.1171 2.22788 25.1171 1.59561 24.4859C0.963327 23.8536 0.963327 22.8251 1.59561 22.1928C2.10205 21.6864 7.00838 17.2886 10.9538 14.1043C11.1192 14.279 11.2877 14.4517 11.4572 14.6222L11.4582 14.6233C11.6267 14.7917 11.7983 14.9571 11.9772 15.1276C8.79289 19.0721 4.39507 23.9784 3.88863 24.4859ZM12.1934 13.8881C11.0162 12.7098 9.96487 11.4661 9.06223 10.1839L15.3246 3.92152C16.6089 4.82522 17.8527 5.87553 19.0288 7.05269C20.205 8.22782 21.2563 9.47257 22.16 10.7558L15.8976 17.0182C14.6154 16.1156 13.3706 15.0643 12.1934 13.8881ZM24.738 12.7202L17.862 19.5962C17.4554 20.0018 16.795 20.0028 16.3884 19.5962L16.326 19.5338C15.9204 19.1272 15.9204 18.4668 16.326 18.0602L23.1822 11.204L23.1853 11.2061C23.1926 11.1998 23.1967 11.1905 23.203 11.1843C23.3985 10.9888 23.6533 10.8879 23.9164 10.8879C24.2003 10.8879 24.4956 11.0044 24.7379 11.2467C25.1446 11.6533 25.1446 12.3136 24.738 12.7202Z" fill="#246EB2"/>
</g>
</svg>
