<svg width="25" height="24" viewBox="0 0 25 24" fill="none" xmlns="http://www.w3.org/2000/svg">
<path d="M15.0299 9.46992L9.96992 14.5299C9.31992 13.8799 8.91992 12.9899 8.91992 11.9999C8.91992 10.0199 10.5199 8.41992 12.4999 8.41992C13.4899 8.41992 14.3799 8.81992 15.0299 9.46992Z" stroke="#F81734" stroke-width="1.5" stroke-linecap="round" stroke-linejoin="round"/>
<path d="M18.3201 5.76998C16.5701 4.44998 14.5701 3.72998 12.5001 3.72998C8.97009 3.72998 5.68009 5.80998 3.39009 9.40998C2.49009 10.82 2.49009 13.19 3.39009 14.6C4.18009 15.84 5.10009 16.91 6.10009 17.77" stroke="#F81734" stroke-width="1.5" stroke-linecap="round" stroke-linejoin="round"/>
<path d="M8.91992 19.5299C10.0599 20.0099 11.2699 20.2699 12.4999 20.2699C16.0299 20.2699 19.3199 18.1899 21.6099 14.5899C22.5099 13.1799 22.5099 10.8099 21.6099 9.39993C21.2799 8.87993 20.9199 8.38993 20.5499 7.92993" stroke="#F81734" stroke-width="1.5" stroke-linecap="round" stroke-linejoin="round"/>
<path d="M16.0099 12.7C15.7499 14.11 14.5999 15.26 13.1899 15.52" stroke="#F81734" stroke-width="1.5" stroke-linecap="round" stroke-linejoin="round"/>
<path d="M9.97 14.53L2.5 22" stroke="#F81734" stroke-width="1.5" stroke-linecap="round" stroke-linejoin="round"/>
<path d="M22.5 2L15.03 9.47" stroke="#F81734" stroke-width="1.5" stroke-linecap="round" stroke-linejoin="round"/>
</svg>
