<svg width="24" height="24" viewBox="0 0 24 24" fill="none" xmlns="http://www.w3.org/2000/svg">
<g clip-path="url(#clip0_4553_7510)">
<path d="M19 17.382C19 17.7607 19.214 18.107 19.5528 18.2764L21 19V3C21 1.9 20.1 1 19 1H8.99C7.89 1 7 1.9 7 3H17.4C18.5 3 19 3.5 19 5V17.382ZM15 5H5C3.9 5 3 5.9 3 7V20.8768C3 21.8819 4.02767 22.5596 4.95149 22.1636L10 20L15.0485 22.1636C15.9723 22.5596 17 21.8819 17 20.8768V7C17 5.9 16.1 5 15 5Z" fill="#9AA4B2"/>
</g>
<defs>
<clipPath id="clip0_4553_7510">
<rect width="24" height="24" fill="white"/>
</clipPath>
</defs>
</svg>
