<svg width="28" height="28" viewBox="0 0 28 28" fill="none" xmlns="http://www.w3.org/2000/svg">
   <path d="M23.9668 12.7257L14.0385 22.6096C12.8222 23.8204 11.1725 24.5007 9.45244 24.5007C7.73234 24.5007 6.08269 23.8204 4.8664 22.6096C3.6501 21.3987 2.9668 19.7565 2.9668 18.0441C2.9668 16.3317 3.6501 14.6894 4.8664 13.4786L14.7947 3.59471C15.6056 2.78748 16.7053 2.33398 17.8521 2.33398C18.9988 2.33398 20.0986 2.78748 20.9094 3.59471C21.7203 4.40194 22.1758 5.49678 22.1758 6.63838C22.1758 7.77997 21.7203 8.87481 20.9094 9.68204L10.9703 19.5659C10.5649 19.9695 10.015 20.1963 9.44163 20.1963C8.86827 20.1963 8.31839 19.9695 7.91295 19.5659C7.50752 19.1623 7.27975 18.6149 7.27975 18.0441C7.27975 17.4733 7.50752 16.9258 7.91295 16.5222L17.085 7.40198" stroke="#2970FF" stroke-width="2" stroke-linecap="round" stroke-linejoin="round"/>
</svg>
