<svg width="30" height="46" viewBox="0 0 30 46" fill="none" xmlns="http://www.w3.org/2000/svg">
   <g clip-path="url(#clip0_8077_50420)">
      <path d="M30 -0.0214844H0V19.9781H30V-0.0214844Z" fill="#EF3340"/>
      <path d="M30 -0.0214844H0V6.64502H30V-0.0214844Z" fill="#00B5E2"/>
      <path d="M30 13.3115H0V19.978H30V13.3115Z" fill="#509E2F"/>
      <path d="M15.1875 12.416C13.8413 12.416 12.75 11.3247 12.75 9.97852C12.75 8.63232 13.8413 7.54102 15.1875 7.54102C15.6073 7.54102 16.0022 7.64713 16.347 7.83398C15.8061 7.30506 15.0663 6.97852 14.25 6.97852C12.5931 6.97852 11.25 8.32166 11.25 9.97852C11.25 11.6354 12.5931 12.9785 14.25 12.9785C15.0663 12.9785 15.8061 12.652 16.347 12.123C16.0022 12.3099 15.6073 12.416 15.1875 12.416Z" fill="#F0F0F0"/>
      <path d="M17.0625 8.29102L17.3854 9.19904L18.2558 8.78525L17.842 9.65561L18.75 9.97852L17.842 10.3014L18.2558 11.1718L17.3854 10.758L17.0625 11.666L16.7396 10.758L15.8692 11.1718L16.283 10.3014L15.375 9.97852L16.283 9.65561L15.8692 8.78525L16.7396 9.19904L17.0625 8.29102Z" fill="#F0F0F0"/>
   </g>
   <rect x="1.04827" y="23.6293" width="27.9032" height="20.4624" rx="2.79032" fill="#1B2434"/>
   <path d="M14.0627 38.511H15.9761L11.95 29.21H10.1031L6.02393 38.511H7.87085L8.69466 36.5445H13.2389L14.0627 38.511ZM9.33245 35.0165L10.9801 31.11L12.6011 35.0165H9.33245Z" fill="#9AA4B2"/>
   <path d="M16.2029 29.21L16.1896 30.7646H21.5045L16.0302 37.2487V38.511H23.9759V36.9564H18.4352L23.9095 30.459V29.21H16.2029Z" fill="#9AA4B2"/>
   <rect x="1.04827" y="23.6293" width="27.9032" height="20.4624" rx="2.79032" stroke="#364152" stroke-width="1.86021"/>
   <defs>
      <clipPath id="clip0_8077_50420">
         <rect y="0.978516" width="30" height="18" rx="4" fill="white"/>
      </clipPath>
   </defs>
</svg>
