<svg width="24" height="24" viewBox="0 0 24 24" fill="none" xmlns="http://www.w3.org/2000/svg">
   <g clip-path="url(#clip0_268_30013)">
      <path d="M6.60014 21.85C5.50014 20.6 4.40014 19.3 3.70014 17.75C3.00014 16.1 2.80014 14.2 3.15014 12.4C3.50014 10.6 4.30014 8.90005 5.45014 7.45005C5.35014 8.70005 5.80014 10 6.65014 10.95C6.15014 8.55005 6.95014 5.95005 8.55014 4.05005C10.1501 2.15005 12.3501 0.900049 14.6501 0.0500488C13.5001 1.25005 13.3501 3.15005 13.8001 4.75005C14.2501 6.35005 15.2001 7.75005 16.0501 9.20005C16.9001 10.65 17.7001 12.15 17.7501 13.8C18.2001 12.95 18.7001 12.1 19.0001 11.15C19.3001 10.2 19.4501 9.20005 19.2001 8.25005C20.1001 9.35005 20.6001 10.45 20.8501 11.85C21.1001 13.25 21.0501 14.7001 20.9001 16.1C20.7001 17.65 20.3001 19.25 19.4501 20.55C18.4501 22.1 16.8501 23.2 15.1001 23.8C12.0001 24.35 8.95014 23.9 6.60014 21.85Z" fill="#F36042"/>
      <path d="M10.4001 23.7C14.5001 25.3 18.5501 20.45 16.3001 16.7C16.3001 16.65 16.2501 16.65 16.2501 16.6C16.4501 18.65 15.9501 20.15 15.0001 21C15.5001 19.8 15.1501 18.4 14.5501 17.2C13.9501 16.05 13.1001 15 12.4501 13.9C11.8001 12.75 11.3001 11.45 11.6001 10.15C10.4001 11.05 9.55011 12.4 9.20011 13.85C8.85011 15.3 9.05011 16.9 9.70011 18.25C8.95011 17.7 8.40011 16.8 8.35011 15.85C7.55011 16.8 7.05011 18.05 7.10011 19.3C7.10011 21.25 8.65011 23 10.4001 23.7Z" fill="#FFD15C"/>
   </g>
   <defs>
      <clipPath id="clip0_268_30013">
         <rect width="24" height="24" fill="white"/>
      </clipPath>
   </defs>
</svg>
