<svg width="24" height="24" viewBox="0 0 24 24" fill="none" xmlns="http://www.w3.org/2000/svg">
    <path
        d="M18.1846 8.97382H19.4308C20.4989 8.97382 21.389 8.08371 21.389 6.95624V3.21778C21.389 2.09031 20.4989 1.2002 19.4308 1.2002H18.1846C17.0571 1.2002 16.167 2.09031 16.167 3.21778V4.34525H13.7341C13.3187 3.33646 12.1912 2.80239 11.1231 3.21778C10.589 3.3958 10.233 3.81118 9.9956 4.34525H7.62197V3.21778C7.62197 2.09031 6.73186 1.2002 5.66373 1.2002H4.41758C3.2901 1.2002 2.39999 2.09031 2.39999 3.21778V6.95624C2.39999 8.08371 3.2901 8.97382 4.41758 8.97382H5.66373C6.7912 8.97382 7.68131 8.08371 7.68131 6.95624V5.82877H10.1143C10.2923 6.36283 10.7077 6.71888 11.2418 6.95624V11.2881C10.1736 11.3474 9.34285 12.2376 9.34285 13.3057V14.5518C9.34285 15.62 10.1736 16.5101 11.2418 16.5694V18.231H7.62197V17.1035C7.62197 15.976 6.73186 15.0859 5.60439 15.0859H4.41758C3.2901 15.0859 2.39999 15.976 2.39999 17.1035V20.7826C2.39999 21.9101 3.2901 22.8002 4.35824 22.8002H5.60439C6.73186 22.8002 7.62197 21.9101 7.62197 20.7826V19.6551H16.167V20.7826C16.167 21.9101 17.0571 22.8002 18.1846 22.8002H19.4308C20.4989 22.8002 21.389 21.9101 21.389 20.7826V17.0441C21.389 15.9167 20.4989 15.0266 19.3714 15.0266H18.1253C16.9978 15.0266 16.1077 15.9167 16.1077 17.0441V18.1716H12.6066V16.5101C13.6747 16.4507 14.5055 15.5606 14.5055 14.4925V13.2463C14.5055 12.1782 13.6747 11.2881 12.6066 11.2288V6.8969C13.0813 6.71888 13.4967 6.30349 13.7341 5.76943H16.167V6.8969C16.167 8.08371 17.0571 8.97382 18.1846 8.97382ZM18.1846 2.68371H19.4308C19.7275 2.68371 19.9648 2.92107 19.9648 3.15844V6.8969C19.9648 7.1936 19.7275 7.43096 19.4308 7.43096H18.1846C17.8879 7.43096 17.6505 7.1936 17.6505 6.8969V3.21778C17.6505 2.92107 17.8879 2.68371 18.1846 2.68371ZM11.8945 4.58261C12.1912 4.52327 12.4286 4.76063 12.4286 5.05734C12.4879 5.35404 12.2505 5.5914 11.9538 5.5914C11.8945 5.5914 11.8945 5.5914 11.8352 5.5914C11.5385 5.5914 11.3011 5.35404 11.3011 5.11668C11.3604 4.81997 11.5978 4.58261 11.8945 4.58261ZM10.767 13.3057C10.767 13.009 11.0044 12.7716 11.2418 12.7716H12.4879C12.7846 12.7716 13.022 13.009 13.022 13.3057V14.5518C13.022 14.8485 12.7846 15.0859 12.4879 15.0859H11.3011C11.0044 15.0859 10.767 14.8485 10.767 14.6112V13.3057ZM3.88351 3.21778C3.88351 2.92107 4.12087 2.74305 4.35824 2.74305H5.60439C5.90109 2.74305 6.13846 2.98041 6.13846 3.21778V6.95624C6.13846 7.25294 5.90109 7.4903 5.60439 7.4903H4.41758C4.12087 7.4903 3.88351 7.25294 3.88351 6.95624V3.21778ZM3.88351 17.0441C3.88351 16.7474 4.12087 16.5101 4.35824 16.5101H5.60439C5.90109 16.5101 6.13846 16.7474 6.13846 17.0441V20.7826C6.13846 21.0793 5.90109 21.3167 5.60439 21.2573H4.41758C4.12087 21.2573 3.94285 21.02 3.94285 20.7826L3.88351 17.0441ZM18.1846 16.5694H19.4308C19.7275 16.5694 19.9648 16.8068 19.9648 17.1035V20.7826C19.9648 21.0793 19.7275 21.2573 19.4308 21.2573H18.1846C17.8879 21.2573 17.6505 21.02 17.6505 20.7826V17.0441C17.6505 16.7474 17.8879 16.5694 18.1846 16.5694Z"
        fill="#697586" />
    <path
        d="M19.4308 1.2002H18.1846C17.0571 1.2002 16.167 2.09031 16.167 3.21778V4.34525H13.7341C13.3187 3.33646 12.1912 2.80239 11.1231 3.21778C10.589 3.3958 10.233 3.81118 9.9956 4.34525H7.62197V3.21778C7.62197 2.09031 6.73186 1.2002 5.66373 1.2002H4.41758C3.2901 1.2002 2.39999 2.09031 2.39999 3.21778V6.95624C2.39999 8.08371 3.2901 8.97382 4.41758 8.97382H5.66373C6.7912 8.97382 7.68131 8.08371 7.68131 6.95624V5.82877H10.1143C10.3516 6.36283 10.767 6.77822 11.3011 6.95624C11.5978 7.01558 11.8945 7.01558 12.2505 7.01558H12.5472H12.6066C13.1407 6.83756 13.556 6.42217 13.7341 5.88811H16.167V6.95624C16.167 8.08371 17.0571 8.97382 18.1846 8.97382H19.4308C20.4989 8.97382 21.389 8.08371 21.389 6.95624V3.21778C21.389 2.09031 20.4989 1.2002 19.4308 1.2002ZM11.8945 4.58261C12.1912 4.52327 12.4286 4.76063 12.4286 5.05734C12.4879 5.35404 12.2505 5.5914 11.9538 5.5914C11.8945 5.5914 11.8945 5.5914 11.8352 5.5914C11.5385 5.5914 11.3011 5.35404 11.3011 5.11668C11.3604 4.81998 11.5978 4.58261 11.8945 4.58261Z"
        fill="#155EEF" />
</svg>