<svg width="32" height="32" viewBox="0 0 32 32" fill="none" xmlns="http://www.w3.org/2000/svg">
<path d="M21.0661 6.6133C21.0661 5.70801 20.7068 4.83984 20.0664 4.19968C19.4264 3.55952 18.5581 3.19995 17.6528 3.19995C15.1128 3.19995 11.6598 3.19995 9.11941 3.19995C8.21443 3.19995 7.34615 3.55952 6.70615 4.19968C6.06573 4.83979 5.70605 5.70801 5.70605 6.6133C5.70605 12.8352 5.70605 25.3867 5.70605 25.3867H21.0661V6.6133Z" stroke="#697586" stroke-width="1.92" stroke-miterlimit="10" stroke-linecap="round" stroke-linejoin="round"/>
<path d="M22.7734 27.0934C22.7734 26.6407 22.5937 26.2066 22.2737 25.8866C21.9537 25.5665 21.5194 25.3867 21.0667 25.3867C17.4968 25.3867 9.27705 25.3867 5.7067 25.3867C5.25445 25.3867 4.8201 25.5665 4.5001 25.8866C4.18005 26.2066 4 26.6407 4 27.0934C4 27.9467 4 28.8 4 28.8H22.7734V27.0934Z" stroke="#697586" stroke-width="1.92" stroke-miterlimit="10" stroke-linecap="round" stroke-linejoin="round"/>
<path d="M17.6544 6.61334H9.12109V11.7333H17.6544V6.61334Z" stroke="#697586" stroke-width="1.92" stroke-miterlimit="10" stroke-linecap="round" stroke-linejoin="round"/>
<path d="M29.5998 8.31999L27.8932 6.61334C26.9506 6.61334 26.1865 7.37741 26.1865 8.31999C26.1865 9.36242 26.1865 10.6909 26.1865 11.7333C26.1865 12.6759 26.9507 13.44 27.8932 13.44C28.7465 13.44 29.5998 13.44 29.5998 13.44V8.31999Z" stroke="#697586" stroke-width="1.92" stroke-miterlimit="10" stroke-linecap="round" stroke-linejoin="round"/>
<path d="M21.0664 18.5599H23.1998C23.7659 18.5599 24.3083 18.7847 24.7085 19.1848C25.1087 19.5848 25.3331 20.1275 25.3331 20.6933C25.3331 21.2479 25.3331 21.8453 25.3331 22.3999C25.3331 22.9657 25.558 23.5083 25.9582 23.9084C26.3584 24.3085 26.9007 24.5333 27.4665 24.5333C28.0326 24.5333 28.575 24.3085 28.9752 23.9084C29.3753 23.5083 29.5998 22.9657 29.5998 22.3999C29.5998 19.1774 29.5998 13.4399 29.5998 13.4399" stroke="#697586" stroke-width="1.92" stroke-miterlimit="10" stroke-linecap="round" stroke-linejoin="round"/>
<path d="M29.5995 8.31995L24.4795 3.19995" stroke="#697586" stroke-width="1.92" stroke-miterlimit="10" stroke-linecap="round" stroke-linejoin="round"/>
</svg>
