<svg width="25" height="24" viewBox="0 0 25 24" fill="none" xmlns="http://www.w3.org/2000/svg">
    <path
        d="M18.8513 8.97382H20.0975C21.1656 8.97382 22.0557 8.08371 22.0557 6.95624V3.21778C22.0557 2.09031 21.1656 1.2002 20.0975 1.2002H18.8513C17.7238 1.2002 16.8337 2.09031 16.8337 3.21778V4.34525H14.4007C13.9854 3.33646 12.8579 2.80239 11.7898 3.21778C11.2557 3.3958 10.8996 3.81118 10.6623 4.34525H8.28866V3.21778C8.28866 2.09031 7.39855 1.2002 6.33042 1.2002H5.08426C3.95679 1.2002 3.06668 2.09031 3.06668 3.21778V6.95624C3.06668 8.08371 3.95679 8.97382 5.08426 8.97382H6.33042C7.45789 8.97382 8.348 8.08371 8.348 6.95624V5.82877H10.781C10.959 6.36283 11.3744 6.71888 11.9084 6.95624V11.2881C10.8403 11.3474 10.0095 12.2376 10.0095 13.3057V14.5518C10.0095 15.62 10.8403 16.5101 11.9084 16.5694V18.231H8.28866V17.1035C8.28866 15.976 7.39855 15.0859 6.27108 15.0859H5.08426C3.95679 15.0859 3.06668 15.976 3.06668 17.1035V20.7826C3.06668 21.9101 3.95679 22.8002 5.02492 22.8002H6.27108C7.39855 22.8002 8.28866 21.9101 8.28866 20.7826V19.6551H16.8337V20.7826C16.8337 21.9101 17.7238 22.8002 18.8513 22.8002H20.0975C21.1656 22.8002 22.0557 21.9101 22.0557 20.7826V17.0441C22.0557 15.9167 21.1656 15.0266 20.0381 15.0266H18.792C17.6645 15.0266 16.7744 15.9167 16.7744 17.0441V18.1716H13.2733V16.5101C14.3414 16.4507 15.1722 15.5606 15.1722 14.4925V13.2463C15.1722 12.1782 14.3414 11.2881 13.2733 11.2288V6.8969C13.748 6.71888 14.1634 6.30349 14.4007 5.76943H16.8337V6.8969C16.8337 8.08371 17.7238 8.97382 18.8513 8.97382ZM18.8513 2.68371H20.0975C20.3942 2.68371 20.6315 2.92107 20.6315 3.15844V6.8969C20.6315 7.1936 20.3942 7.43096 20.0975 7.43096H18.8513C18.5546 7.43096 18.3172 7.1936 18.3172 6.8969V3.21778C18.3172 2.92107 18.5546 2.68371 18.8513 2.68371ZM12.5612 4.58261C12.8579 4.52327 13.0953 4.76063 13.0953 5.05734C13.1546 5.35404 12.9172 5.5914 12.6205 5.5914C12.5612 5.5914 12.5612 5.5914 12.5018 5.5914C12.2051 5.5914 11.9678 5.35404 11.9678 5.11668C12.0271 4.81997 12.2645 4.58261 12.5612 4.58261ZM11.4337 13.3057C11.4337 13.009 11.6711 12.7716 11.9084 12.7716H13.1546C13.4513 12.7716 13.6887 13.009 13.6887 13.3057V14.5518C13.6887 14.8485 13.4513 15.0859 13.1546 15.0859H11.9678C11.6711 15.0859 11.4337 14.8485 11.4337 14.6112V13.3057ZM4.5502 3.21778C4.5502 2.92107 4.78756 2.74305 5.02492 2.74305H6.27108C6.56778 2.74305 6.80514 2.98041 6.80514 3.21778V6.95624C6.80514 7.25294 6.56778 7.4903 6.27108 7.4903H5.08426C4.78756 7.4903 4.5502 7.25294 4.5502 6.95624V3.21778ZM4.5502 17.0441C4.5502 16.7474 4.78756 16.5101 5.02492 16.5101H6.27108C6.56778 16.5101 6.80514 16.7474 6.80514 17.0441V20.7826C6.80514 21.0793 6.56778 21.3167 6.27108 21.2573H5.08426C4.78756 21.2573 4.60954 21.02 4.60954 20.7826L4.5502 17.0441ZM18.8513 16.5694H20.0975C20.3942 16.5694 20.6315 16.8068 20.6315 17.1035V20.7826C20.6315 21.0793 20.3942 21.2573 20.0975 21.2573H18.8513C18.5546 21.2573 18.3172 21.02 18.3172 20.7826V17.0441C18.3172 16.7474 18.5546 16.5694 18.8513 16.5694Z"
        fill="#697586" />
    <path
        d="M20.0975 1.2002H18.8513C17.7238 1.2002 16.8337 2.09031 16.8337 3.21778V4.34525H14.4007C13.9854 3.33646 12.8579 2.80239 11.7898 3.21778C11.2557 3.3958 10.8996 3.81118 10.6623 4.34525H8.28866V3.21778C8.28866 2.09031 7.39855 1.2002 6.33042 1.2002H5.08426C3.95679 1.2002 3.06668 2.09031 3.06668 3.21778V6.95624C3.06668 8.08371 3.95679 8.97382 5.08426 8.97382H6.33042C7.45789 8.97382 8.348 8.08371 8.348 6.95624V5.82877H10.781C11.0183 6.36283 11.4337 6.77822 11.9678 6.95624C12.2645 7.01558 12.5612 7.01558 12.9172 7.01558H13.2139H13.2733C13.8073 6.83756 14.2227 6.42217 14.4007 5.88811H16.8337V6.95624C16.8337 8.08371 17.7238 8.97382 18.8513 8.97382H20.0975C21.1656 8.97382 22.0557 8.08371 22.0557 6.95624V3.21778C22.0557 2.09031 21.1656 1.2002 20.0975 1.2002ZM12.5612 4.58261C12.8579 4.52327 13.0953 4.76063 13.0953 5.05734C13.1546 5.35404 12.9172 5.5914 12.6205 5.5914C12.5612 5.5914 12.5612 5.5914 12.5018 5.5914C12.2051 5.5914 11.9678 5.35404 11.9678 5.11668C12.0271 4.81998 12.2645 4.58261 12.5612 4.58261Z"
        fill="#155EEF" />
    <path
        d="M20.0975 15.0264H18.8513C17.7238 15.0264 16.8337 15.9165 16.8337 17.044V18.1714H8.28866V17.044C8.28866 15.9165 7.39855 15.0264 6.27108 15.0264H5.08426C3.95679 15.0264 3.06668 15.9165 3.06668 17.044V20.7824C3.06668 21.9099 3.95679 22.8 5.02492 22.8H6.27108C7.39855 22.8 8.28866 21.9099 8.28866 20.7824V19.6549H16.8337V20.7824C16.8337 21.9099 17.7238 22.8 18.8513 22.8H20.0975C21.1656 22.8 22.0557 21.9099 22.0557 20.7824V17.044C22.0557 15.9758 21.1656 15.0857 20.0975 15.0264Z"
        fill="#155EEF" />
</svg>