<svg width="19" height="18" fill="none" xmlns="http://www.w3.org/2000/svg"><path d="M18.125 16.992H17.03v-5.43a.4.4 0 0 0-.405-.394.4.4 0 0 0-.405.394v5.43h-2.19V8.65a.4.4 0 0 0-.405-.394h-8.25a.4.4 0 0 0-.405.394v8.34H2.78v-5.429a.4.4 0 0 0-.405-.394.4.4 0 0 0-.405.394v5.43H.875a.4.4 0 0 0-.405.394.4.4 0 0 0 .405.394h17.25a.4.4 0 0 0 .405-.394.4.4 0 0 0-.405-.394Zm-4.905-4.368H5.78v-1.396h7.44v1.396Zm-7.44.788h7.44v1.396H5.78v-1.396Zm7.44-4.367v1.395H5.78V9.045h7.44Zm-7.44 7.947v-1.396h7.44v1.396H5.78Z" fill="#F81734" stroke="#F81734" stroke-width=".06"/><path d="M16.841 4.678 9.716.31a.415.415 0 0 0-.432 0L2.16 4.678a.392.392 0 0 0-.189.333V9.38a.4.4 0 0 0 .405.394.4.4 0 0 0 .405-.394v-4.15l6.72-4.12 6.72 4.12v4.15a.4.4 0 0 0 .405.394.4.4 0 0 0 .405-.394V5.01a.392.392 0 0 0-.189-.333Z" fill="#F81734" stroke="#F81734" stroke-width=".06"/><path d="M7.595 5.011c0 1.021.855 1.85 1.905 1.85s1.905-.829 1.905-1.85c0-1.02-.855-1.85-1.905-1.85s-1.905.83-1.905 1.85Zm3 0c0 .585-.49 1.062-1.095 1.062s-1.095-.477-1.095-1.062c0-.584.49-1.062 1.095-1.062.604 0 1.095.478 1.095 1.062ZM16.625 10.864a.4.4 0 0 0 .405-.394.4.4 0 0 0-.405-.394.4.4 0 0 0-.405.394.4.4 0 0 0 .405.394ZM2.375 10.864a.4.4 0 0 0 .405-.394.4.4 0 0 0-.405-.394.4.4 0 0 0-.405.394.4.4 0 0 0 .405.394Z" fill="#F81734" stroke="#F81734" stroke-width=".06"/></svg>