<svg width="32" height="33" viewBox="0 0 32 33" fill="none" xmlns="http://www.w3.org/2000/svg">
   <g filter="url(#filter0_d_4010_57062)">
      <path d="M16 30C23.732 30 30 23.732 30 16C30 8.268 23.732 2 16 2C8.268 2 2 8.268 2 16C2 23.732 8.268 30 16 30Z" fill="black"/>
   </g>
   <path d="M16 30C23.732 30 30 23.732 30 16C30 8.268 23.732 2 16 2C8.268 2 2 8.268 2 16C2 23.732 8.268 30 16 30Z" fill="white"/>
   <path fill-rule="evenodd" clip-rule="evenodd" d="M16 28C9.373 28 4 22.627 4 16C4 9.373 9.373 4 16 4C22.627 4 28 9.373 28 16C28 22.627 22.627 28 16 28Z" fill="black"/>
   <path fill-rule="evenodd" clip-rule="evenodd" d="M16 28C9.373 28 4 22.627 4 16C4 9.373 9.373 4 16 4C22.627 4 28 9.373 28 16C28 22.627 22.627 28 16 28Z" fill="#F81734"/>
   <path fill-rule="evenodd" clip-rule="evenodd" d="M23.0718 21.9696V17.3654C23.0718 17.0363 23.0191 16.72 22.9201 16.423L22.6707 15.4549L23.1053 15.2993C23.2837 15.2356 23.4381 15.1182 23.5472 14.9633C23.6564 14.8084 23.7148 14.6235 23.7147 14.434V13.8876C23.7147 13.6343 23.5771 13.4286 23.329 13.4286H22.1487L21.6576 11.5283C21.5432 11.0724 21.293 10.662 20.9401 10.3515C20.5872 10.0411 20.1482 9.84525 19.6814 9.79001L19.4757 9.76687C18.3198 9.63701 17.7413 9.57144 16.0004 9.57144C14.2596 9.57144 13.681 9.63573 12.5238 9.76687L12.3181 9.79001C11.8516 9.84549 11.4129 10.0414 11.0602 10.3519C10.7075 10.6623 10.4575 11.0726 10.3433 11.5283L9.85213 13.4286H8.67185C8.4237 13.4286 8.28613 13.6343 8.28613 13.8876V14.434C8.28613 14.8223 8.53042 15.1682 8.89556 15.2993L9.33013 15.4536L9.0807 16.423C8.9817 16.7187 8.92899 17.0363 8.92899 17.3654V21.9683C8.92899 22.2229 9.13085 22.4286 9.37899 22.4286H11.278C11.4837 22.4286 11.6637 22.2859 11.7151 22.0814L12.1433 20.5H19.8576L20.287 22.0814C20.3371 22.2859 20.5171 22.4286 20.7241 22.4286H22.6218C22.87 22.4286 23.0718 22.2229 23.0718 21.9696ZM10.8576 14.7143C11.116 14.578 14.3907 14.3633 16.0004 14.3633C17.6101 14.3633 20.8848 14.578 21.1433 14.7143L20.4426 11.9719C20.3762 11.7254 20.2368 11.5048 20.0426 11.3391C19.8485 11.1734 19.6087 11.0704 19.3548 11.0436C18.2423 10.905 17.1215 10.8427 16.0004 10.8572C14.365 10.8572 13.789 10.9202 12.646 11.0436C12.3922 11.0704 12.1524 11.1734 11.9582 11.3391C11.7641 11.5048 11.6246 11.7254 11.5583 11.9719L10.8576 14.7143ZM20.5004 18.5714C20.8414 18.5714 21.1684 18.436 21.4096 18.1949C21.6507 17.9537 21.7861 17.6267 21.7861 17.2857C21.7861 16.9447 21.6507 16.6177 21.4096 16.3766C21.1684 16.1355 20.8414 16 20.5004 16C20.1594 16 19.8324 16.1355 19.5913 16.3766C19.3502 16.6177 19.2147 16.9447 19.2147 17.2857C19.2147 17.6267 19.3502 17.9537 19.5913 18.1949C19.8324 18.436 20.1594 18.5714 20.5004 18.5714ZM12.7861 17.2857C12.7861 17.6267 12.6507 17.9537 12.4096 18.1949C12.1684 18.436 11.8414 18.5714 11.5004 18.5714C11.1594 18.5714 10.8324 18.436 10.5913 18.1949C10.3502 17.9537 10.2147 17.6267 10.2147 17.2857C10.2147 16.9447 10.3502 16.6177 10.5913 16.3766C10.8324 16.1355 11.1594 16 11.5004 16C11.8414 16 12.1684 16.1355 12.4096 16.3766C12.6507 16.6177 12.7861 16.9447 12.7861 17.2857Z" fill="white"/>
   <defs>
      <filter id="filter0_d_4010_57062" x="0" y="1" width="32" height="32" filterUnits="userSpaceOnUse" color-interpolation-filters="sRGB">
         <feFlood flood-opacity="0" result="BackgroundImageFix"/>
         <feColorMatrix in="SourceAlpha" type="matrix" values="0 0 0 0 0 0 0 0 0 0 0 0 0 0 0 0 0 0 127 0" result="hardAlpha"/>
         <feOffset dy="1"/>
         <feGaussianBlur stdDeviation="1"/>
         <feColorMatrix type="matrix" values="0 0 0 0 0 0 0 0 0 0 0 0 0 0 0 0 0 0 0.2 0"/>
         <feBlend mode="normal" in2="BackgroundImageFix" result="effect1_dropShadow_4010_57062"/>
         <feBlend mode="normal" in="SourceGraphic" in2="effect1_dropShadow_4010_57062" result="shape"/>
      </filter>
   </defs>
</svg>
