<svg width="25" height="24" viewBox="0 0 25 24" fill="none" xmlns="http://www.w3.org/2000/svg">
<path d="M16.6687 4.28818V5.37229L8.9508 8.45693H4.2312C2.80718 8.45693 1.64995 9.61416 1.64995 11.0382V12.7257C1.64995 14.1497 2.80718 15.3069 4.2312 15.3069H5.07521L6.34731 19.7551C6.48136 20.2287 6.97729 20.506 7.45128 20.3675C7.92483 20.2333 8.20196 19.7375 8.06346 19.2635C8.06344 19.2635 8.06343 19.2634 8.06341 19.2634L6.93419 15.3069H8.95079L16.6687 18.3958V19.4757C16.6687 19.9674 17.0708 20.3694 17.5625 20.3694C18.0541 20.3694 18.4562 19.9674 18.4562 19.4757V4.28818C18.4562 3.79651 18.0541 3.39444 17.5625 3.39444C17.0708 3.39444 16.6687 3.79651 16.6687 4.28818ZM3.43745 12.7299V11.0424C3.43745 10.606 3.79475 10.2487 4.2312 10.2487H8.2312V13.5237H4.2312C3.79475 13.5237 3.43745 13.1664 3.43745 12.7299ZM16.6687 16.4698L10.0187 13.8098V9.95829L16.6687 7.29829V16.4698Z" fill="#F81734" stroke="#F81734" stroke-width="0.1"/>
<path d="M22.4563 10.9924H20.7688C20.2773 10.9924 19.875 11.3901 19.875 11.8862C19.875 12.3778 20.2771 12.7799 20.7688 12.7799H22.4563C22.948 12.7799 23.35 12.3778 23.35 11.8862C23.35 11.3945 22.948 10.9924 22.4563 10.9924Z" fill="#F81734" stroke="#F81734" stroke-width="0.1"/>
<path d="M21.26 6.54158L21.2601 6.54151C21.6711 6.26899 22.2251 6.38058 22.4978 6.78738L22.498 6.78759C22.7705 7.19861 22.6589 7.75266 22.2521 8.02534L22.252 8.02541L21.1256 8.77635L21.1255 8.77642C20.7145 9.04893 20.1605 8.93737 19.8878 8.53063M21.26 6.54158L19.8877 8.53056C19.8878 8.53058 19.8878 8.53061 19.8878 8.53063M21.26 6.54158L20.1337 7.29245M21.26 6.54158L20.1337 7.29245M19.8878 8.53063C19.6107 8.11944 19.7225 7.56514 20.1336 7.29249M19.8878 8.53063C19.8878 8.53064 19.8878 8.53065 19.8878 8.53066L20.1336 7.29249M20.1336 7.29249C20.1336 7.29248 20.1337 7.29246 20.1337 7.29245M20.1336 7.29249L20.1337 7.29245" fill="#F81734" stroke="#F81734" stroke-width="0.1"/>
<path d="M20.1334 16.4755L20.1335 16.4756L21.2597 17.2264C21.2598 17.2264 21.2598 17.2264 21.2599 17.2264C21.671 17.5034 22.2252 17.3917 22.4978 16.9807C22.7748 16.5695 22.663 16.0153 22.2519 15.7426C22.2519 15.7426 22.2519 15.7426 22.2519 15.7426L21.126 14.992C21.1259 14.992 21.1259 14.9919 21.1258 14.9919C20.7186 14.7147 20.1601 14.8267 19.8876 15.2377C19.6151 15.6488 19.7266 16.2028 20.1334 16.4755Z" fill="#F81734" stroke="#F81734" stroke-width="0.1"/>
</svg>
