<svg id="Layer_1" enable-background="new 0 0 512 512" height="512" viewBox="0 0 512 512" width="512" xmlns="http://www.w3.org/2000/svg"><g><g><g><g><ellipse cx="267.745" cy="256" fill="#c9f0ff" rx="244.255" ry="245.451"/></g><path d="m267.745 10.549c-5.19 0-10.343.164-15.453.485 127.699 8.011 228.803 114.623 228.803 244.966s-101.104 236.955-228.803 244.966c5.11.321 10.262.485 15.453.485 134.898 0 244.255-109.892 244.255-245.451s-109.357-245.451-244.255-245.451z" fill="#b5eaff"/><g><g fill="#3498ac"><path d="m135.612 43.742c-4.183-.856-8.264 1.838-9.12 6.018-.391 1.91-.04 3.798.854 5.369 4.922-3.48 9.977-6.782 15.157-9.897-2.289-.516-4.585-1.017-6.891-1.49z"/><path d="m22.11 223.987c.471 1.791 1.534 3.268 2.924 4.278.508-4.539 1.14-9.039 1.891-13.5-3.706 1.353-5.839 5.331-4.815 9.222z"/><path d="m122.827 457.386c.002.707.099 1.425.306 2.137.064.219.137.433.218.643.002.008.003.015.004.023.718 3.69 3.952 6.252 7.575 6.252.489 0 .986-.047 1.484-.144 1.877-.365 3.46-1.382 4.564-2.769.065-.02.13-.04.195-.06-5.179-3.299-10.227-6.786-15.133-10.455.254 1.458.515 2.916.787 4.373z"/><path d="m403.075 466.297c.499.097.995.144 1.484.144 3.623 0 6.858-2.562 7.575-6.252.466-2.392.904-4.786 1.321-7.18-4.876 3.648-9.894 7.116-15.041 10.397 1.109 1.449 2.73 2.515 4.661 2.891z"/><path d="m408.997 49.76c-.857-4.18-4.94-6.873-9.12-6.018-2.306.473-4.601.974-6.891 1.49 5.18 3.115 10.235 6.417 15.157 9.897.894-1.571 1.245-3.459.854-5.369z"/><path d="m468.588 109.326c.961-4.157-1.629-8.307-5.787-9.269-2.024-.467-4.046-.091-5.699.895 3.569 4.396 6.99 8.919 10.255 13.561.419-1.725.83-3.454 1.231-5.187z"/></g><path d="m399.798 268.672c30.9-46.367 54.013-98.38 67.558-154.158-3.264-4.642-6.685-9.164-10.255-13.561-1.743 1.04-3.077 2.758-3.57 4.891-12.347 53.394-33.728 103.306-62.493 148-8.613-20.424-19.189-40.181-31.693-59.028-21.741-32.768-48.246-61.199-78.447-84.586 36.423-24.737 77.71-42.258 122.08-51.35 2.27-.465 4.101-1.883 5.163-3.751-4.922-3.48-9.977-6.782-15.157-9.897-45.597 10.274-87.947 29.112-125.241 55.297-37.294-26.185-79.644-45.023-125.241-55.297-5.18 3.115-10.235 6.417-15.157 9.897 1.063 1.868 2.893 3.286 5.164 3.751 44.37 9.093 85.657 26.613 122.08 51.35-30.201 23.387-56.706 51.818-78.447 84.586-.959 1.445-1.903 2.897-2.839 4.353-48.755-2.325-97.895 2.793-145.69 15.379-.236.062-.465.136-.69.218-.751 4.46-1.383 8.961-1.891 13.5 1.812 1.317 4.179 1.841 6.515 1.226 43.501-11.455 88.149-16.521 132.553-15.215-41.628 72.257-56.465 155.954-42.062 238.737 4.906 3.669 9.954 7.157 15.133 10.455 101.637-30.555 188.659-93.347 249.748-176.406 17.599 54.33 21.254 112.573 10.045 170.175-.439 2.257.153 4.475 1.448 6.169 5.147-3.281 10.164-6.749 15.041-10.397 9.625-55.326 6.187-111.06-9.578-163.514 30.037 19.544 57.867 42.546 82.826 68.609.716.747 1.548 1.313 2.438 1.709 2.267-4.874 4.376-9.837 6.327-14.878-28.617-29.462-60.811-55.068-95.668-76.264zm-132.053-149.035c30.422 22.887 57.048 51.053 78.725 83.723 10.82 16.308 20.134 33.329 27.912 50.892-28.57-15.093-58.67-27.34-89.85-36.459-30.596-8.948-61.916-14.762-93.487-17.445 21.302-31.392 47.218-58.531 76.7-80.711zm-130.98 327.798c-13.362-80.874 2.402-162.502 44.791-232.312 33.317 2.238 66.394 8.071 98.637 17.501 34.004 9.945 66.682 23.732 97.408 40.974-58.474 81.426-142.447 143.283-240.836 173.837z" fill="#78d2f5"/></g></g></g><g fill="#ff815c"><ellipse cx="267.745" cy="107.937" rx="23.489" ry="23.604"/><ellipse cx="176.333" cy="211.648" rx="23.489" ry="23.604"/><ellipse cx="389.962" cy="271.9" rx="23.489" ry="23.604"/><path d="m130.553 480.975c-12.952 0-23.489-10.589-23.489-23.604s10.537-23.604 23.489-23.604 23.49 10.589 23.49 23.604-10.538 23.604-23.49 23.604z"/><path d="m406.294 482.318c-12.952 0-23.489-10.589-23.489-23.605s10.537-23.604 23.489-23.604 23.49 10.589 23.49 23.604-10.537 23.605-23.49 23.605z"/><path d="m461.06 130.345c-12.952 0-23.49-10.589-23.49-23.604s10.538-23.604 23.49-23.604 23.489 10.589 23.489 23.604-10.537 23.604-23.489 23.604z"/><path d="m401.428 74.916c-12.952 0-23.489-10.589-23.489-23.604s10.537-23.604 23.489-23.604 23.49 10.589 23.49 23.604-10.538 23.604-23.49 23.604z"/><path d="m130.553 74.916c-12.952 0-23.489-10.589-23.489-23.604s10.537-23.604 23.489-23.604 23.49 10.589 23.49 23.604-10.538 23.604-23.49 23.604z"/><ellipse cx="23.489" cy="223.81" rx="23.489" ry="23.604"/></g></g></svg>