<svg width="32" height="32" viewBox="0 0 32 32" fill="none" xmlns="http://www.w3.org/2000/svg">
<path d="M28.2306 9.01915C28.2155 8.68747 28.207 8.36232 28.2023 8.04093C28.1841 6.81554 27.2201 5.81554 25.9965 5.74719C22.2542 5.53814 19.3275 4.29336 16.8555 1.88381C16.4418 1.50462 15.8213 1.50462 15.4077 1.88381C12.9356 4.29336 10.0089 5.53814 6.26664 5.74719C5.04305 5.81554 4.07901 6.81554 4.06082 8.04087C4.05609 8.36232 4.04759 8.68747 4.03251 9.01915C3.89498 16.2406 3.6888 26.1378 15.7003 30.3262C15.7577 30.3462 15.8167 30.3622 15.8763 30.3741L15.8769 30.3742C16.0451 30.4078 16.2181 30.4078 16.3862 30.3742C16.4462 30.3623 16.5056 30.3461 16.5634 30.3259C28.54 26.1376 28.3682 16.2748 28.2306 9.01915Z" stroke="#697586" stroke-width="2.24" stroke-miterlimit="10"/>
<path d="M22.8591 15.9991C22.8591 19.7146 19.8471 22.7266 16.1317 22.7266C12.4163 22.7266 9.4043 19.7146 9.4043 15.9991C9.4043 12.2836 12.4163 9.27162 16.1317 9.27162C19.8471 9.27162 22.8591 12.2836 22.8591 15.9991Z" stroke="#697586" stroke-width="2.24" stroke-miterlimit="10"/>
<path d="M18.9578 14.2669L14.7812 18.4434" stroke="#697586" stroke-width="2.24" stroke-miterlimit="10" stroke-linecap="round"/>
<path d="M13.1846 16.8473L14.7806 18.4434" stroke="#697586" stroke-width="2.24" stroke-miterlimit="10" stroke-linecap="round"/>
</svg>
