<svg width="24" height="24" viewBox="0 0 24 24" fill="none" xmlns="http://www.w3.org/2000/svg">
<path fill-rule="evenodd" clip-rule="evenodd" d="M14.28 2.77002L20.83 8.01002C21.75 8.76002 22.32 10.26 22.14 11.43L20.88 18.97C20.59 20.64 18.99 22 17.3 22H6.69996C4.98996 22 3.41996 20.67 3.12996 18.98L1.86996 11.44C1.66996 10.26 2.23996 8.76002 3.17996 8.01002L9.72996 2.76002C11 1.74002 13 1.75002 14.28 2.77002ZM11.25 18C11.25 18.41 11.59 18.75 12 18.75C12.41 18.75 12.75 18.41 12.75 18V15C12.75 14.59 12.41 14.25 12 14.25C11.59 14.25 11.25 14.59 11.25 15V18Z" fill="#9AA4B2"/>
</svg>
