<svg width="49" height="22" viewBox="0 0 49 22" fill="none" xmlns="http://www.w3.org/2000/svg">
<path d="M37.9552 0.000177399C35.0733 -0.0162613 32.3025 1.11036 30.2497 3.13316L24.4837 8.23565L24.4736 8.22562L21.3807 10.95L21.4008 10.97L15.8997 15.8487C15.0989 16.6555 14.1112 17.2519 13.0245 17.5851C11.9377 17.9184 10.7854 17.9781 9.67005 17.7589C8.55467 17.5397 7.51067 17.0485 6.63077 16.3289C5.75087 15.6092 5.06232 14.6834 4.62625 13.6337C4.19018 12.5839 4.0201 11.4428 4.13111 10.3115C4.24213 9.1802 4.6308 8.09385 5.26261 7.1489C5.89442 6.20395 6.74981 5.42965 7.75281 4.89477C8.75582 4.3599 9.87539 4.081 11.0121 4.08285C11.9403 4.08412 12.8589 4.27071 13.7141 4.63166C14.5692 4.99261 15.3437 5.52066 15.9921 6.18486L18.309 8.23677L21.3908 5.51128L18.8056 3.22556C17.2761 1.69547 15.3281 0.652011 13.2069 0.226531C11.0857 -0.19895 8.886 0.0125677 6.88473 0.834444C4.88346 1.65632 3.17002 3.05184 1.96009 4.84534C0.750165 6.63884 0.0978141 8.75017 0.0851489 10.9136C0.0724837 13.077 0.700071 15.1959 1.88892 17.0034C3.07777 18.811 4.77474 20.2264 6.76626 21.0717C8.75777 21.9169 10.9548 22.1542 13.0809 21.7536C15.2069 21.3529 17.167 20.3324 18.7143 18.8203L24.4837 13.7067L24.4937 13.7167L27.5754 10.9812L27.5654 10.9712L33.0665 6.10246C33.8665 5.2937 34.8539 4.69518 35.941 4.36013C37.0281 4.02508 38.1812 3.96388 39.2976 4.18199C40.4141 4.40011 41.4593 4.89077 42.3404 5.61033C43.2215 6.32989 43.9111 7.25604 44.3478 8.30642C44.7846 9.3568 44.955 10.4988 44.8439 11.631C44.7328 12.7631 44.3436 13.8502 43.7109 14.7956C43.0783 15.741 42.2218 16.5155 41.2176 17.05C40.2135 17.5845 39.0928 17.8626 37.9552 17.8595C37.028 17.8578 36.1103 17.672 35.2554 17.3129C34.4006 16.9537 33.6255 16.4285 32.9752 15.7675L30.6583 13.7167L27.5766 16.4522L30.1584 18.7379C31.4333 20.0261 33.0068 20.9793 34.7389 21.5127C36.471 22.0462 38.3081 22.1434 40.0868 21.7957C41.8656 21.448 43.5308 20.6662 44.9346 19.5198C46.3383 18.3733 47.437 16.8978 48.1331 15.2244C48.8291 13.551 49.1008 11.7315 48.9241 9.92773C48.7475 8.12396 48.1278 6.3918 47.1203 4.88524C46.1128 3.37869 44.7486 2.14441 43.1491 1.29216C41.5496 0.439918 39.7643 -0.00389839 37.9519 0.000177399H37.9552Z" fill="#F81734"/>
</svg>
