<svg width="16" height="16" viewBox="0 0 16 16"  xmlns="http://www.w3.org/2000/svg">
<g clip-path="url(#clip0)">
<path d="M8.15747 16C8.10449 16 8.05151 16 7.99817 15.9997C6.74402 16.0028 5.58521 15.9709 4.45825 15.9023C3.42505 15.8395 2.48193 15.4824 1.73071 14.8699C1.00586 14.2788 0.510864 13.4796 0.259522 12.4947C0.0407715 11.6373 0.0291748 10.7956 0.0180664 9.98154C0.0100097 9.39743 0.00170898 8.70529 0 8.00144C0.00170898 7.29465 0.0100097 6.60251 0.0180664 6.0184C0.0291748 5.20443 0.0407715 4.36276 0.259522 3.50521C0.510864 2.52035 1.00586 1.72115 1.73071 1.13008C2.48193 0.517534 3.42505 0.160478 4.45837 0.0976115C5.58533 0.02913 6.74438 -0.00285251 8.00122 0.000199254C9.25574 -0.0024863 10.4142 0.02913 11.5411 0.0976115C12.5743 0.160478 13.5175 0.517534 14.2687 1.13008C14.9937 1.72115 15.4885 2.52035 15.7399 3.50521C15.9586 4.36263 15.9702 5.20443 15.9813 6.0184C15.9894 6.60251 15.9978 7.29465 15.9994 7.99851V8.00144C15.9978 8.70529 15.9894 9.39743 15.9813 9.98154C15.9702 10.7955 15.9587 11.6372 15.7399 12.4947C15.4885 13.4796 14.9937 14.2788 14.2687 14.8699C13.5175 15.4824 12.5743 15.8395 11.5411 15.9023C10.4619 15.968 9.35327 16 8.15747 16ZM7.99817 14.7497C9.23193 14.7527 10.3647 14.7215 11.4652 14.6546C12.2465 14.6072 12.9238 14.3536 13.4788 13.9011C13.9917 13.4828 14.345 12.9056 14.5287 12.1856C14.7108 11.4719 14.7213 10.7055 14.7314 9.96445C14.7394 9.38425 14.7477 8.69699 14.7494 7.99997C14.7477 7.30283 14.7394 6.61569 14.7314 6.03549C14.7213 5.2944 14.7108 4.52804 14.5287 3.81417C14.345 3.0942 13.9917 2.51705 13.4788 2.09871C12.9238 1.64632 12.2465 1.39278 11.4652 1.34529C10.3647 1.27828 9.23193 1.24739 8.0011 1.25008C6.76758 1.24715 5.63464 1.27828 4.53418 1.34529C3.75293 1.39278 3.07556 1.64632 2.52063 2.09871C2.00769 2.51705 1.65442 3.0942 1.4707 3.81417C1.28857 4.52804 1.27808 5.29428 1.26794 6.03549C1.26001 6.61618 1.25171 7.3038 1.25 8.00144C1.25171 8.69602 1.26001 9.38376 1.26794 9.96445C1.27808 10.7055 1.28857 11.4719 1.4707 12.1856C1.65442 12.9056 2.00769 13.4828 2.52063 13.9011C3.07556 14.3535 3.75293 14.607 4.53418 14.6545C5.63464 14.7215 6.76782 14.7528 7.99817 14.7497ZM7.96838 11.9062C5.81458 11.9062 4.06213 10.1539 4.06213 7.99997C4.06213 5.84604 5.81458 4.09371 7.96838 4.09371C10.1223 4.09371 11.8746 5.84604 11.8746 7.99997C11.8746 10.1539 10.1223 11.9062 7.96838 11.9062ZM7.96838 5.34372C6.50378 5.34372 5.31213 6.53537 5.31213 7.99997C5.31213 9.46457 6.50378 10.6562 7.96838 10.6562C9.43311 10.6562 10.6246 9.46457 10.6246 7.99997C10.6246 6.53537 9.43311 5.34372 7.96838 5.34372ZM12.3121 2.84371C11.7944 2.84371 11.3746 3.26339 11.3746 3.78121C11.3746 4.29904 11.7944 4.71871 12.3121 4.71871C12.83 4.71871 13.2496 4.29904 13.2496 3.78121C13.2496 3.26339 12.83 2.84371 12.3121 2.84371Z" />
</g>
<defs>
<clipPath id="clip0">
<rect width="16" height="16" />
</clipPath>
</defs>
</svg>
