<svg id="link" xmlns="http://www.w3.org/2000/svg" width="12" height="12" viewBox="0 0 12 12">
  <g id="Group_115" data-name="Group 115" transform="translate(0 0)">
    <g id="Group_114" data-name="Group 114">
      <path id="Path_58" data-name="Path 58" d="M3.981,181.961l-1.414,1.414a1.5,1.5,0,1,1-2.121-2.121l2.829-2.829a1.5,1.5,0,0,1,2.121,0,.5.5,0,0,0,.707-.707,2.5,2.5,0,0,0-3.535,0l-2.829,2.829a2.5,2.5,0,1,0,3.536,3.535l1.414-1.414a.5.5,0,1,0-.707-.707Z" transform="translate(0.993 -172.815)" fill="#246eb2"/>
      <path id="Path_59" data-name="Path 59" d="M196.729-.268a2.5,2.5,0,0,0-3.536,0l-1.7,1.7a.5.5,0,0,0,.707.707l1.7-1.7a1.5,1.5,0,1,1,2.121,2.121L192.91,5.671a1.5,1.5,0,0,1-2.121,0,.5.5,0,0,0-.707.707,2.5,2.5,0,0,0,3.535,0l3.111-3.111A2.5,2.5,0,0,0,196.729-.268Z" transform="translate(-185.461 1.001)" fill="#246eb2"/>
    </g>
  </g>
</svg>
