<svg width="27" height="27" fill="none" xmlns="http://www.w3.org/2000/svg"><g clip-path="url(#a)" fill="#fff"><path d="M25.945 12.445H7.607a1.055 1.055 0 1 0 0 2.11h18.338a1.055 1.055 0 1 0 0-2.11ZM25.945 4.535H7.607a1.055 1.055 0 1 0 0 2.11h18.338a1.055 1.055 0 1 0 0-2.11ZM25.945 20.355H7.607a1.055 1.055 0 1 0 0 2.11h18.338a1.055 1.055 0 1 0 0-2.11ZM1.424 7.014a1.424 1.424 0 1 0 0-2.848 1.424 1.424 0 0 0 0 2.848ZM1.424 14.924a1.424 1.424 0 1 0 0-2.848 1.424 1.424 0 0 0 0 2.848ZM1.424 22.834a1.424 1.424 0 1 0 0-2.848 1.424 1.424 0 0 0 0 2.848Z"/></g><defs><clipPath id="a"><path fill="#fff" d="M0 0h27v27H0z"/></clipPath></defs></svg>