<svg id="Layer_1" data-name="Layer 1" xmlns="http://www.w3.org/2000/svg" viewBox="0 0 10.81 10.8">
  <path class="cls-1" d="M11.35,1.07a.74.74,0,0,0-.17-.25.67.67,0,0,0-.25-.16.77.77,0,0,0-.63,0L7.77,2,4.78.63,4.53.6,1.05,2.09a.81.81,0,0,0-.33.28.76.76,0,0,0-.12.42v7.85A.74.74,0,0,0,.69,11a.76.76,0,0,0,.25.28.86.86,0,0,0,.35.12h.06a.67.67,0,0,0,.31-.07L4.57,10l2.91,1.29.11,0a1.18,1.18,0,0,0,.21,0l.2,0,3-1.47a.75.75,0,0,0,.31-.28.77.77,0,0,0,.11-.4V1.36A.88.88,0,0,0,11.35,1.07ZM9.89,2.58V8.75l-1.35.67V3.25ZM5.33,8.72V2.52L7,3.28v6.2ZM3.81,2.52v6.2l-1.7.76V3.28Z" transform="translate(-0.6 -0.6)"/>
</svg>
