<svg width="24" height="24" viewBox="0 0 24 24" fill="none" xmlns="http://www.w3.org/2000/svg">
<path d="M16.1689 4.28818V5.37229L8.45104 8.45693H3.73145C2.30742 8.45693 1.1502 9.61416 1.1502 11.0382V12.7257C1.1502 14.1497 2.30742 15.3069 3.73145 15.3069H4.57546L5.84755 19.7551C5.98161 20.2287 6.47754 20.506 6.95152 20.3675C7.42507 20.2333 7.70221 19.7375 7.5637 19.2635C7.56368 19.2635 7.56367 19.2634 7.56365 19.2634L6.43443 15.3069H8.45103L16.1689 18.3958V19.4757C16.1689 19.9674 16.571 20.3694 17.0627 20.3694C17.5544 20.3694 17.9564 19.9674 17.9564 19.4757V4.28818C17.9564 3.79651 17.5544 3.39444 17.0627 3.39444C16.571 3.39444 16.1689 3.79651 16.1689 4.28818ZM2.9377 12.7299V11.0424C2.9377 10.606 3.295 10.2487 3.73145 10.2487H7.73144V13.5237H3.73145C3.295 13.5237 2.9377 13.1664 2.9377 12.7299ZM16.1689 16.4698L9.51894 13.8098V9.95829L16.1689 7.29829V16.4698Z" fill="currentColor" stroke="currentColor" stroke-width="0.1"/>
<path d="M21.9561 10.9924H20.2686C19.777 10.9924 19.3748 11.3901 19.3748 11.8862C19.3748 12.3778 19.7769 12.7799 20.2686 12.7799H21.9561C22.4477 12.7799 22.8498 12.3778 22.8498 11.8862C22.8498 11.3945 22.4477 10.9924 21.9561 10.9924Z" fill="currentColor" stroke="currentColor" stroke-width="0.1"/>
<path d="M20.7597 6.54158L20.7598 6.54151C21.1709 6.26899 21.7249 6.38058 21.9976 6.78738L21.9977 6.78759C22.2703 7.19861 22.1587 7.75266 21.7519 8.02534L21.7518 8.02541L20.6254 8.77635L20.6253 8.77642C20.2143 9.04893 19.6603 8.93737 19.3875 8.53063M20.7597 6.54158L19.3875 8.53056C19.3875 8.53058 19.3875 8.53061 19.3875 8.53063M20.7597 6.54158L19.6334 7.29245M20.7597 6.54158L19.6334 7.29245M19.3875 8.53063C19.1105 8.11944 19.2222 7.56514 19.6334 7.29249M19.3875 8.53063C19.3876 8.53064 19.3876 8.53065 19.3876 8.53066L19.6334 7.29249M19.6334 7.29249C19.6334 7.29248 19.6334 7.29246 19.6334 7.29245M19.6334 7.29249L19.6334 7.29245" fill="currentColor" stroke="currentColor" stroke-width="0.1"/>
<path d="M19.6332 16.4755L19.6333 16.4756L20.7595 17.2264C20.7595 17.2264 20.7596 17.2264 20.7596 17.2264C21.1707 17.5034 21.7249 17.3917 21.9976 16.9807C22.2746 16.5695 22.1628 16.0153 21.7517 15.7426C21.7517 15.7426 21.7517 15.7426 21.7516 15.7426L20.6258 14.992C20.6257 14.992 20.6256 14.9919 20.6255 14.9919C20.2184 14.7147 19.6599 14.8267 19.3873 15.2377C19.1148 15.6488 19.2264 16.2028 19.6332 16.4755Z" fill="currentColor" stroke="currentColor" stroke-width="0.1"/>
</svg>
