<svg width="24" height="24" viewBox="0 0 24 24" fill="none" xmlns="http://www.w3.org/2000/svg">
<path fill-rule="evenodd" clip-rule="evenodd" d="M11 2H13.2222C18.7451 2 23.2222 6.47715 23.2222 12C23.2222 17.5228 18.7451 22 13.2222 22H5.44444C2.98985 22 1 20.0102 1 17.5556V12C1 6.47715 5.47715 2 11 2ZM7.66634 8.94434C7.2061 8.94434 6.83301 9.31743 6.83301 9.77767C6.83301 10.2379 7.2061 10.611 7.66634 10.611H12.1108C12.571 10.611 12.9441 10.2379 12.9441 9.77767C12.9441 9.31743 12.571 8.94434 12.1108 8.94434H7.66634ZM7.66634 13.3888C7.2061 13.3888 6.83301 13.7619 6.83301 14.2221C6.83301 14.6824 7.2061 15.0554 7.66634 15.0554H16.5552C17.0155 15.0554 17.3886 14.6824 17.3886 14.2221C17.3886 13.7619 17.0155 13.3888 16.5552 13.3888H7.66634Z" fill="#9AA4B2"/>
</svg>
