<svg id="Layer_1" data-name="Layer 1" xmlns="http://www.w3.org/2000/svg" viewBox="0 0 21.8 21.8"><defs><style>.cls-1{fill:#fff;}.cls-2{fill:#081a3e;}</style></defs><path class="cls-1" d="M11.5,22.2A10.7,10.7,0,0,1,9.41,1,10.51,10.51,0,0,1,11.5.8a10.69,10.69,0,0,1,7.56,18.26A10.62,10.62,0,0,1,11.5,22.2Zm0-19.69A9,9,0,0,0,6.51,4a9,9,0,0,0-3.82,9.22,9,9,0,0,0,7.06,7.06,8.52,8.52,0,0,0,1.75.18h0a9,9,0,0,0,7.47-4,9,9,0,0,0-7.47-14Z" transform="translate(-0.6 -0.6)"/><path class="cls-2" d="M11.5,1a10.44,10.44,0,1,1-2.05.2A11,11,0,0,1,11.5,1m0,19.69a9.17,9.17,0,0,0,7.64-4.09,9.2,9.2,0,1,0-9.43,3.91,9,9,0,0,0,1.79.18M11.5.6a10.9,10.9,0,0,0,0,21.8,10.9,10.9,0,0,0,4.17-21A10.85,10.85,0,0,0,11.5.6Zm0,19.69a8.93,8.93,0,0,1-1.71-.17,8.79,8.79,0,0,1-6.41-12A8.79,8.79,0,1,1,11.5,20.29Z" transform="translate(-0.6 -0.6)"/><path class="cls-1" d="M6.91,12.36a.86.86,0,0,1-.59-.27.85.85,0,0,1,0-1.18.86.86,0,0,1,.58-.27h9.19a.88.88,0,0,1,.6.27.87.87,0,0,1,0,1.18.88.88,0,0,1-.59.27H6.91Z" transform="translate(-0.6 -0.6)"/><path class="cls-2" d="M16.09,10.84a.69.69,0,0,1,.45.2.67.67,0,0,1,.18.46.63.63,0,0,1-.18.45.66.66,0,0,1-.45.21H6.91A.66.66,0,0,1,6.46,12a.63.63,0,0,1-.18-.45A.67.67,0,0,1,6.46,11a.69.69,0,0,1,.45-.2h9.18m0-.4H6.91a1.06,1.06,0,0,0-.74,1.79,1,1,0,0,0,.72.32h9.2a1.08,1.08,0,0,0,.74-.33,1.06,1.06,0,0,0-.72-1.79Z" transform="translate(-0.6 -0.6)"/></svg>