<svg width="32" height="32" viewBox="0 0 32 32" fill="none" xmlns="http://www.w3.org/2000/svg">
   <path fill-rule="evenodd" clip-rule="evenodd" d="M9.25727 4.13745C8.65715 4.73757 8.32001 5.5515 8.32001 6.4002V25.6002C8.32001 26.4489 8.65715 27.2628 9.25727 27.8629C9.85738 28.4631 10.6713 28.8002 11.52 28.8002H21.12C21.9687 28.8002 22.7826 28.4631 23.3827 27.8629C23.9829 27.2628 24.32 26.4489 24.32 25.6002V6.4002C24.32 5.5515 23.9829 4.73757 23.3827 4.13745C22.7826 3.53734 21.9687 3.2002 21.12 3.2002H11.52C10.6713 3.2002 9.85738 3.53734 9.25727 4.13745ZM17.4514 22.8688C17.7514 23.1689 17.92 23.5758 17.92 24.0002C17.92 24.4245 17.7514 24.8315 17.4514 25.1316C17.1513 25.4316 16.7444 25.6002 16.32 25.6002C15.8957 25.6002 15.4887 25.4316 15.1886 25.1316C14.8886 24.8315 14.72 24.4245 14.72 24.0002C14.72 23.5758 14.8886 23.1689 15.1886 22.8688C15.4887 22.5688 15.8957 22.4002 16.32 22.4002C16.7444 22.4002 17.1513 22.5688 17.4514 22.8688ZM13.5 6C13.2239 6 13 6.22386 13 6.5C13 6.77614 13.2239 7 13.5 7H19.5C19.7761 7 20 6.77614 20 6.5C20 6.22386 19.7761 6 19.5 6H13.5Z" fill="currentColor"/>
</svg>
