<svg width="30" height="30" viewBox="0 0 30 30"  xmlns="http://www.w3.org/2000/svg">
<path fill-rule="evenodd" clip-rule="evenodd" d="M15.1015 3.1363C15.3434 3.56553 15.3106 4.09682 15.0177 4.49303C13.9499 5.9376 13.4361 7.71744 13.5697 9.50883C13.7033 11.3002 14.4754 12.9842 15.7456 14.2544C17.0159 15.5246 18.6998 16.2967 20.4912 16.4303C22.2826 16.5639 24.0624 16.0501 25.507 14.9823L26.25 15.9875L27.4947 16.1025C27.2762 18.4667 26.3889 20.7198 24.9367 22.5981C23.4845 24.4764 21.5273 25.9023 19.2943 26.7089C17.0612 27.5154 14.6447 27.6694 12.3273 27.1527C10.01 26.636 7.88774 25.47 6.2089 23.7911C4.53005 22.1123 3.36406 19.99 2.84734 17.6727C2.33063 15.3553 2.48458 12.9388 3.29117 10.7057C4.09776 8.4727 5.52363 6.51556 7.40194 5.06331C9.28024 3.61107 11.5333 2.7238 13.8975 2.50532C14.3881 2.45999 14.8596 2.70707 15.1015 3.1363ZM24.4512 18.3545C23.1348 18.8308 21.7227 19.0291 20.3053 18.9234C17.9168 18.7453 15.6715 17.7158 13.9779 16.0222C12.2842 14.3285 11.2547 12.0833 11.0766 9.69475C10.9709 8.27729 11.1692 6.86525 11.6455 5.54885C10.6735 5.90053 9.757 6.40255 8.93109 7.04111C7.42845 8.2029 6.28775 9.76862 5.64248 11.555C4.99721 13.3415 4.87405 15.2747 5.28742 17.1286C5.70079 18.9825 6.63359 20.6803 7.97666 22.0234C9.31974 23.3664 11.0175 24.2992 12.8714 24.7126C14.7253 25.126 16.6585 25.0028 18.445 24.3575C20.2314 23.7123 21.7971 22.5716 22.9589 21.0689C23.5975 20.243 24.0995 19.3266 24.4512 18.3545Z" />
</svg>
