<svg width="34" height="21" viewBox="0 0 34 21" fill="none" xmlns="http://www.w3.org/2000/svg">
   <path d="M28.3556 9.35677C28.0808 9.35677 27.8108 9.37749 27.5464 9.41568L27.2006 8.12486C27.5764 8.06191 27.9622 8.02864 28.3556 8.02864C28.903 8.02864 29.4491 8.09266 29.9785 8.21883C30.2346 8.27986 30.5026 8.1839 30.6615 7.97419C32.2038 5.94128 32.2923 4.72909 31.012 3.1704C29.3597 1.15894 27.8395 0.125387 26.3642 0.0107692C25.2591 -0.0753602 24.1949 0.35449 23.1073 1.32383C22.9642 1.45126 22.8832 1.63435 22.885 1.826C22.8868 2.01764 22.9714 2.19907 23.1169 2.32378L24.2012 3.25321C24.1569 3.44572 24.1188 3.62754 24.0835 3.79595C23.9928 4.22865 23.921 4.56925 23.8064 4.85168C23.6501 4.76057 23.496 4.67046 23.3447 4.5818C21.1162 3.27685 19.3563 2.24602 17.5646 2.74187C16.3742 3.07125 15.3297 4.05002 14.2997 5.80767L9.26333 4.36645L8.95235 3.40448C8.63227 2.41422 7.94874 1.87301 6.80157 1.70181L1.10501 0.736992C0.866009 0.696352 0.623957 0.789454 0.473479 0.97951C0.323002 1.1695 0.288072 1.42643 0.382237 1.64982C1.80101 5.01285 2.33844 5.90124 4.36365 6.9075L9.25191 9.33612C10.5133 9.9628 10.9651 10.4419 11.3537 11.5649L12.3129 14.3373H11.2488C10.9188 11.5368 8.53219 9.35677 5.64456 9.35677C2.53215 9.35677 0 11.8889 0 15.0013C0 18.1138 2.53215 20.6459 5.64456 20.6459C8.53226 20.6459 10.9189 18.4658 11.2488 15.6654H12.7725L13.422 17.5427C13.5145 17.8102 13.7665 17.9896 14.0495 17.9896H21.0793C21.2912 17.9896 21.4905 17.8885 21.6156 17.7173C21.7406 17.5461 21.7764 17.3256 21.7119 17.1237C21.4935 16.4392 21.3827 15.7252 21.3827 15.0013C21.3827 12.0138 23.2715 9.45944 25.9176 8.46878L26.2636 9.76033C24.1842 10.5933 22.7109 12.6279 22.7109 15.0014C22.7109 18.1138 25.243 20.646 28.3554 20.646C31.4678 20.646 34 18.1138 34 15.0014C34 11.889 31.468 9.35677 28.3556 9.35677ZM5.64456 19.3178C3.26448 19.3178 1.32813 17.3814 1.32813 15.0013C1.32813 12.6213 3.26448 10.6849 5.64456 10.6849C7.79886 10.6849 9.58945 12.2714 9.90986 14.3373H8.55762C8.25474 13.0082 7.06407 12.013 5.64456 12.013C3.99682 12.013 2.65627 13.3536 2.65627 15.0013C2.65627 16.6491 3.99682 17.9896 5.64456 17.9896C7.06407 17.9896 8.25468 16.9945 8.55762 15.6654H9.90986C9.58945 17.7313 7.79886 19.3178 5.64456 19.3178ZM5.64456 15.6654H7.16574C6.90901 16.2511 6.32397 16.6615 5.64456 16.6615C4.72915 16.6615 3.9844 15.9168 3.9844 15.0013C3.9844 14.0859 4.72915 13.3412 5.64456 13.3412C6.32397 13.3412 6.90901 13.7516 7.16574 14.3373H5.64456C5.2778 14.3373 4.9805 14.6346 4.9805 15.0013C4.9805 15.368 5.2778 15.6654 5.64456 15.6654ZM17.9188 4.02193C19.1691 3.67602 20.7157 4.58147 22.6735 5.72785C22.7257 5.7584 22.7787 5.78941 22.8315 5.82035C22.7193 5.87514 22.5957 5.92906 22.4576 5.98298L19.2663 7.22891L15.6225 6.18619C16.3944 4.94551 17.1493 4.23483 17.9188 4.02193ZM21.4594 10.3861H19.2906C18.9239 10.3861 18.6265 10.6834 18.6265 11.0501C18.6265 11.4168 18.9239 11.7142 19.2906 11.7142H20.734C20.5497 12.1398 20.4003 12.5837 20.2888 13.0424H17.7966C17.4299 13.0424 17.1326 13.3398 17.1326 13.7065C17.1326 14.0732 17.4299 14.3705 17.7966 14.3705H20.0785C20.0628 14.5788 20.0547 14.7891 20.0547 15.0013C20.0547 15.5617 20.1105 16.1172 20.2212 16.6615H14.5225L12.6088 11.1307C12.0434 9.49656 11.2004 8.8212 9.84279 8.14665L4.9546 5.71802C3.58284 5.03649 3.09833 4.52582 2.08743 2.2504L6.58648 3.01248C6.59112 3.01328 6.59571 3.01401 6.60035 3.01467C7.33322 3.12292 7.54818 3.37871 7.68863 3.81301L8.10852 5.1118C8.17658 5.3223 8.34499 5.48507 8.55769 5.54596L19.1163 8.56746C19.2561 8.60751 19.4052 8.60047 19.5406 8.54761L22.9406 7.22021C24.8813 6.46257 25.114 5.35318 25.3833 4.06855C25.4422 3.78791 25.5031 3.49772 25.5857 3.18428C25.6507 2.93811 25.5691 2.67646 25.3758 2.51071L24.5952 1.84167C25.1726 1.45491 25.7136 1.29288 26.2612 1.33492C27.3417 1.41892 28.5948 2.32013 29.9857 4.01343C30.3151 4.41446 30.5781 4.73547 30.5747 5.19686L29.6707 4.82479C29.3312 4.68507 28.9434 4.84703 28.8038 5.18604C28.6642 5.52518 28.826 5.91332 29.1651 6.05291L30.1103 6.44199C30.0341 6.5653 29.9479 6.69573 29.8496 6.83525C29.3579 6.74573 28.8571 6.70057 28.3554 6.70057C25.4852 6.70051 22.9507 8.16511 21.4594 10.3861ZM28.3556 19.3178C25.9755 19.3178 24.0391 17.3814 24.0391 15.0013C24.0391 13.2422 25.0976 11.7264 26.6106 11.0547L26.9603 12.3599C26.0137 12.8619 25.3673 13.8573 25.3673 15.0013C25.3673 16.6491 26.7078 17.9896 28.3556 17.9896C30.0033 17.9896 31.3439 16.6491 31.3439 15.0013C31.3439 13.3536 30.0033 12.013 28.3556 12.013C28.3178 12.013 28.2805 12.0145 28.2431 12.0159L27.8932 10.71C28.0452 10.6937 28.1994 10.6849 28.3556 10.6849C30.7357 10.6849 32.6721 12.6213 32.6721 15.0013C32.6721 17.3814 30.7356 19.3178 28.3556 19.3178ZM27.7141 15.1732C27.7936 15.4699 28.0619 15.6656 28.3552 15.6656C28.412 15.6656 28.4699 15.6582 28.5274 15.6428C28.8817 15.5478 29.0919 15.1837 28.997 14.8295L28.6032 13.3597C29.4016 13.4796 30.0157 14.1701 30.0157 15.0013C30.0157 15.9168 29.271 16.6615 28.3556 16.6615C27.4402 16.6615 26.6954 15.9168 26.6954 15.0013C26.6954 14.4771 26.9399 14.0091 27.3206 13.7046L27.7141 15.1732Z" fill="currentColor"/>
   <path d="M16.3025 10.3862H16.3021C15.9353 10.3862 15.6382 10.6836 15.6382 11.0503C15.6382 11.417 15.9358 11.7144 16.3025 11.7144C16.6693 11.7144 16.9666 11.417 16.9666 11.0503C16.9666 10.6836 16.6693 10.3862 16.3025 10.3862Z" fill="currentColor"/>
</svg>
