<svg width="24" height="24" viewBox="0 0 24 24" fill="none" xmlns="http://www.w3.org/2000/svg">
   <path d="M7.22251 9.42667L7.22252 9.42667C10.5673 8.72549 13.1816 6.11122 13.8827 2.76638M7.22251 9.42667L13.3933 2.66381M7.22251 9.42667C7.0674 9.45919 6.95613 9.59608 6.95608 9.75477L7.22251 9.42667ZM13.8827 2.76638L13.3933 2.66381M13.8827 2.76638C13.8827 2.7664 13.8826 2.76642 13.8826 2.76644L13.3933 2.66381M13.8827 2.76638C13.9152 2.61119 14.0521 2.5 14.2108 2.5C14.3695 2.5 14.5064 2.61121 14.5389 2.76642L14.5389 2.76644C15.24 6.11122 17.8543 8.72545 21.1991 9.42652L21.1991 9.42652C21.3543 9.45906 21.4656 9.59602 21.4656 9.75462C21.4656 9.91324 21.3544 10.0502 21.1991 10.0827L21.1991 10.0827C17.8543 10.7839 15.2402 13.3981 14.5391 16.7429L14.539 16.7429C14.5065 16.8982 14.3696 17.0094 14.211 17.0094C14.0523 17.0094 13.9154 16.8982 13.8829 16.7429L13.8829 16.7429C13.1817 13.3981 10.5673 10.7839 7.22255 10.0829L7.11999 10.5722M13.3933 2.66381C13.4744 2.27706 13.8155 2 14.2108 2C14.6061 2 14.9472 2.27706 15.0283 2.66386C15.6887 5.81436 18.1512 8.2768 21.3017 8.93716C21.6885 9.01822 21.9656 9.35939 21.9656 9.75462C21.9656 10.1498 21.6885 10.491 21.3017 10.5721C18.1512 11.2325 15.6888 13.695 15.0284 16.8455C14.9474 17.2323 14.6062 17.5094 14.211 17.5094C13.8157 17.5094 13.4746 17.2323 13.3935 16.8455C12.733 13.695 10.2705 11.2325 7.11999 10.5722M7.11999 10.5722L7.22255 10.0829C7.06732 10.0503 6.95611 9.91344 6.95608 9.75483L6.45608 9.75477C6.45608 10.15 6.73319 10.4912 7.11999 10.5722Z" fill="white" stroke="white"/>
   <path d="M2.71459 18.3718C4.19901 18.683 5.35926 19.8432 5.67048 21.3276C5.75155 21.7145 6.09271 21.9915 6.48794 21.9915C6.88322 21.9915 7.22434 21.7144 7.3054 21.3276C7.61657 19.8432 8.77683 18.6829 10.2611 18.3718C10.648 18.2907 10.925 17.9495 10.925 17.5543C10.925 17.1591 10.6479 16.8179 10.2611 16.7368C8.77677 16.4257 7.61652 15.2655 7.3053 13.781C7.22424 13.3942 6.88307 13.1172 6.48784 13.1172C6.09256 13.1172 5.75144 13.3943 5.67038 13.7811C5.35916 15.2656 4.19896 16.4258 2.71459 16.7369M2.71459 18.3718L2.81716 17.2263C2.66183 17.2588 2.55068 17.3958 2.55068 17.5543C2.55068 17.7129 2.66192 17.8499 2.81715 17.8824L2.81717 17.8824C4.49586 18.2343 5.80789 19.5463 6.15984 21.225L6.15985 21.2251C6.19238 21.3803 6.32929 21.4915 6.48794 21.4915C6.64657 21.4915 6.7835 21.3803 6.81604 21.225L6.81604 21.225C7.16793 19.5463 8.47996 18.2343 10.1586 17.8824L10.1586 17.8824C10.3138 17.8499 10.425 17.7129 10.425 17.5543C10.425 17.3957 10.3138 17.2587 10.1586 17.2262L10.1586 17.2262C8.47992 16.8743 7.16789 15.5623 6.81594 13.8836L6.81593 13.8836C6.78341 13.7284 6.64651 13.6172 6.48784 13.6172C6.32921 13.6172 6.19229 13.7284 6.15975 13.8837L6.15974 13.8837C5.8078 15.5624 4.49584 16.8744 2.8172 17.2262L2.71459 16.7369M2.71459 18.3718C2.32779 18.2907 2.05068 17.9496 2.05068 17.5543C2.05068 17.1591 2.32774 16.818 2.71459 16.7369M2.71459 18.3718V16.7369" fill="white" stroke="white"/>
</svg>
