<svg width="42" height="42" viewBox="0 0 42 42" fill="none" xmlns="http://www.w3.org/2000/svg">
<mask id="path-1-outside-1" maskUnits="userSpaceOnUse" x="0" y="0" width="42" height="42" fill="black">
<rect fill="white" width="42" height="42"/>
<path d="M21 1C10 1 1 10 1 21C1 32 10 41 21 41C32 41 41 32 41 21C41 10 32 1 21 1ZM21 39.6666C10.7334 39.6666 2.33336 31.2666 2.33336 21C2.33336 10.7334 10.7334 2.33336 21 2.33336C31.2666 2.33336 39.6666 10.7334 39.6666 21C39.6666 31.2666 31.2666 39.6666 21 39.6666Z"/>
</mask>
<path d="M21 1C10 1 1 10 1 21C1 32 10 41 21 41C32 41 41 32 41 21C41 10 32 1 21 1ZM21 39.6666C10.7334 39.6666 2.33336 31.2666 2.33336 21C2.33336 10.7334 10.7334 2.33336 21 2.33336C31.2666 2.33336 39.6666 10.7334 39.6666 21C39.6666 31.2666 31.2666 39.6666 21 39.6666Z" fill="#081A3E"/>
<path d="M21 1C10 1 1 10 1 21C1 32 10 41 21 41C32 41 41 32 41 21C41 10 32 1 21 1ZM21 39.6666C10.7334 39.6666 2.33336 31.2666 2.33336 21C2.33336 10.7334 10.7334 2.33336 21 2.33336C31.2666 2.33336 39.6666 10.7334 39.6666 21C39.6666 31.2666 31.2666 39.6666 21 39.6666Z" stroke="#081A3E" stroke-width="0.4" mask="url(#path-1-outside-1)"/>
<mask id="path-2-outside-2" maskUnits="userSpaceOnUse" x="5.33203" y="5.28125" width="31" height="31" fill="black">
<rect fill="white" x="5.33203" y="5.28125" width="31" height="31"/>
<path d="M23.385 6.52779L23.1321 6.46459C22.7988 6.39795 22.5321 6.33123 22.1987 6.33123C21.4654 6.26459 20.5987 6.26459 19.8654 6.33123C19.532 6.39787 19.2654 6.39787 18.932 6.46459L18.332 6.53123V6.57662C14.822 7.22818 11.741 9.14045 9.57969 11.8217L9.53203 11.7979L9.19867 12.2645C8.53203 13.1979 7.93203 14.1312 7.53203 15.1312L7.33203 15.6645L7.33977 15.6699C6.68977 17.3234 6.33203 19.1208 6.33203 20.9979C6.33203 22.5277 6.56992 24.0045 7.00961 25.3939L6.99867 25.3979L7.19867 25.9979C7.53203 26.8645 7.93203 27.7312 8.39867 28.5312C8.39867 28.6646 8.46531 28.7312 8.53203 28.7979C8.66539 28.9979 8.86539 29.2645 8.99867 29.4645L9.33203 29.8645L9.33562 29.8629C11.8665 33.1798 15.7736 35.397 20.1849 35.6413C20.4412 35.6639 20.7197 35.6644 20.9987 35.6644C21.2777 35.6644 21.556 35.6639 21.8124 35.6413C26.1698 35.4 30.0355 33.234 32.5685 29.9844L32.5987 29.9978L32.932 29.5312C33.132 29.3312 33.2654 29.0645 33.3987 28.8645C33.3987 28.837 33.4104 28.7979 33.4284 28.7571C33.4588 28.7089 33.4893 28.6609 33.5191 28.6123C33.5234 28.6075 33.5277 28.6022 33.532 28.5978C33.5587 28.5522 33.5843 28.5055 33.6105 28.4595C34.9142 26.27 35.6653 23.7176 35.6653 20.9978C35.6654 13.7433 30.3271 7.67615 23.385 6.52779ZM22.3321 28.3312V34.2643C22.3311 34.2644 22.33 34.2644 22.329 34.2646C22.2614 34.2646 22.1312 34.2646 22.0655 34.2646C21.3321 34.3312 20.6655 34.3312 19.9321 34.2646C19.8987 34.2646 19.8487 34.2646 19.7987 34.2646V28.3312C19.7987 27.3312 19.3321 26.4646 18.4654 25.9312C17.5987 25.3979 16.5988 25.3979 15.732 25.7979L9.93203 28.2645C9.86539 28.1979 9.86539 28.1312 9.79867 28.0645L9.66531 27.8645C9.33195 27.3312 9.06531 26.7979 8.79867 26.1979L14.132 24.1979L14.1987 24.1312C14.932 23.7312 15.4653 22.8646 15.5987 21.8646C15.732 20.8646 15.4653 19.8646 14.7987 19.1979L9.00094 15.1995C9.28125 14.6239 9.60164 14.0709 9.95875 13.5447L15.132 16.1313C15.9987 16.7313 17.2654 16.7313 18.2654 16.1979C19.132 15.6646 19.6654 14.8646 19.6654 13.8646V7.73147C19.6664 7.73139 19.6675 7.73131 19.6685 7.73115C19.7361 7.73115 19.8663 7.73115 19.932 7.73115C20.6654 7.66451 21.3987 7.66451 22.0654 7.73115C22.1311 7.73115 22.2614 7.73115 22.3289 7.73115C22.3299 7.73123 22.331 7.73131 22.332 7.73147V13.9312C22.332 14.7979 22.732 15.5979 23.4654 16.0646C24.3988 16.5979 25.732 16.6646 26.7987 16.1979L31.9987 13.5313C32.3321 14.0647 32.6654 14.6647 32.9321 15.1979L27.2655 19.1313L27.1988 19.1979C26.5322 19.7979 26.2655 20.7979 26.3988 21.8646C26.5322 22.8646 27.0655 23.7312 27.7988 24.1312L33.2655 26.1312C32.9988 26.7312 32.7321 27.2646 32.3988 27.7979L32.2655 27.9979C32.1988 28.0645 32.1988 28.1312 32.1321 28.1979L26.3988 25.7979C25.5321 25.3312 24.5321 25.3979 23.6654 25.9312C22.8654 26.4645 22.3321 27.3312 22.3321 28.3312ZM28.3988 23.0645C27.9988 22.7979 27.7321 22.3312 27.6654 21.7979C27.5988 21.1979 27.732 20.5979 28.0654 20.2645L33.535 16.4693C34.0502 17.8847 34.332 19.41 34.332 20.9979C34.332 22.3964 34.1132 23.7462 33.7091 25.0153L28.3988 23.0645ZM31.2194 12.4605L26.1987 14.9979C25.5988 15.3312 24.7321 15.2645 24.1987 14.9312C23.8654 14.7312 23.6654 14.3979 23.6654 13.9312V7.93443C26.6705 8.55068 29.3149 10.1865 31.2194 12.4605ZM18.3321 7.93443V13.8646C18.3321 14.4646 17.9987 14.7979 17.6655 14.9979C17.0655 15.2646 16.3321 15.2646 15.7988 14.9313L10.8018 12.4328C12.7044 10.1732 15.3394 8.54811 18.3321 7.93443ZM7.66539 20.9979C7.66539 19.4039 7.94914 17.873 8.4682 16.4529L13.8654 20.1979C14.1987 20.5312 14.332 21.1312 14.2654 21.7312C14.132 22.3312 13.932 22.7979 13.532 22.9979L8.26211 24.9337C7.87461 23.6884 7.66539 22.3664 7.66539 20.9979ZM10.6074 29.3269L16.1321 26.9979C16.5988 26.7312 17.1321 26.7979 17.5987 27.0645C18.0654 27.3312 18.3321 27.7979 18.3321 28.3312V34.0613C15.2361 33.4265 12.523 31.7093 10.6074 29.3269ZM23.6654 34.0613V28.3312C23.6654 27.7978 23.932 27.3312 24.332 27.0645C24.7987 26.7979 25.332 26.7312 25.8654 26.9979L31.3115 29.4244C29.4007 31.7562 26.7191 33.4351 23.6654 34.0613Z"/>
</mask>
<path d="M23.385 6.52779L23.1321 6.46459C22.7988 6.39795 22.5321 6.33123 22.1987 6.33123C21.4654 6.26459 20.5987 6.26459 19.8654 6.33123C19.532 6.39787 19.2654 6.39787 18.932 6.46459L18.332 6.53123V6.57662C14.822 7.22818 11.741 9.14045 9.57969 11.8217L9.53203 11.7979L9.19867 12.2645C8.53203 13.1979 7.93203 14.1312 7.53203 15.1312L7.33203 15.6645L7.33977 15.6699C6.68977 17.3234 6.33203 19.1208 6.33203 20.9979C6.33203 22.5277 6.56992 24.0045 7.00961 25.3939L6.99867 25.3979L7.19867 25.9979C7.53203 26.8645 7.93203 27.7312 8.39867 28.5312C8.39867 28.6646 8.46531 28.7312 8.53203 28.7979C8.66539 28.9979 8.86539 29.2645 8.99867 29.4645L9.33203 29.8645L9.33562 29.8629C11.8665 33.1798 15.7736 35.397 20.1849 35.6413C20.4412 35.6639 20.7197 35.6644 20.9987 35.6644C21.2777 35.6644 21.556 35.6639 21.8124 35.6413C26.1698 35.4 30.0355 33.234 32.5685 29.9844L32.5987 29.9978L32.932 29.5312C33.132 29.3312 33.2654 29.0645 33.3987 28.8645C33.3987 28.837 33.4104 28.7979 33.4284 28.7571C33.4588 28.7089 33.4893 28.6609 33.5191 28.6123C33.5234 28.6075 33.5277 28.6022 33.532 28.5978C33.5587 28.5522 33.5843 28.5055 33.6105 28.4595C34.9142 26.27 35.6653 23.7176 35.6653 20.9978C35.6654 13.7433 30.3271 7.67615 23.385 6.52779ZM22.3321 28.3312V34.2643C22.3311 34.2644 22.33 34.2644 22.329 34.2646C22.2614 34.2646 22.1312 34.2646 22.0655 34.2646C21.3321 34.3312 20.6655 34.3312 19.9321 34.2646C19.8987 34.2646 19.8487 34.2646 19.7987 34.2646V28.3312C19.7987 27.3312 19.3321 26.4646 18.4654 25.9312C17.5987 25.3979 16.5988 25.3979 15.732 25.7979L9.93203 28.2645C9.86539 28.1979 9.86539 28.1312 9.79867 28.0645L9.66531 27.8645C9.33195 27.3312 9.06531 26.7979 8.79867 26.1979L14.132 24.1979L14.1987 24.1312C14.932 23.7312 15.4653 22.8646 15.5987 21.8646C15.732 20.8646 15.4653 19.8646 14.7987 19.1979L9.00094 15.1995C9.28125 14.6239 9.60164 14.0709 9.95875 13.5447L15.132 16.1313C15.9987 16.7313 17.2654 16.7313 18.2654 16.1979C19.132 15.6646 19.6654 14.8646 19.6654 13.8646V7.73147C19.6664 7.73139 19.6675 7.73131 19.6685 7.73115C19.7361 7.73115 19.8663 7.73115 19.932 7.73115C20.6654 7.66451 21.3987 7.66451 22.0654 7.73115C22.1311 7.73115 22.2614 7.73115 22.3289 7.73115C22.3299 7.73123 22.331 7.73131 22.332 7.73147V13.9312C22.332 14.7979 22.732 15.5979 23.4654 16.0646C24.3988 16.5979 25.732 16.6646 26.7987 16.1979L31.9987 13.5313C32.3321 14.0647 32.6654 14.6647 32.9321 15.1979L27.2655 19.1313L27.1988 19.1979C26.5322 19.7979 26.2655 20.7979 26.3988 21.8646C26.5322 22.8646 27.0655 23.7312 27.7988 24.1312L33.2655 26.1312C32.9988 26.7312 32.7321 27.2646 32.3988 27.7979L32.2655 27.9979C32.1988 28.0645 32.1988 28.1312 32.1321 28.1979L26.3988 25.7979C25.5321 25.3312 24.5321 25.3979 23.6654 25.9312C22.8654 26.4645 22.3321 27.3312 22.3321 28.3312ZM28.3988 23.0645C27.9988 22.7979 27.7321 22.3312 27.6654 21.7979C27.5988 21.1979 27.732 20.5979 28.0654 20.2645L33.535 16.4693C34.0502 17.8847 34.332 19.41 34.332 20.9979C34.332 22.3964 34.1132 23.7462 33.7091 25.0153L28.3988 23.0645ZM31.2194 12.4605L26.1987 14.9979C25.5988 15.3312 24.7321 15.2645 24.1987 14.9312C23.8654 14.7312 23.6654 14.3979 23.6654 13.9312V7.93443C26.6705 8.55068 29.3149 10.1865 31.2194 12.4605ZM18.3321 7.93443V13.8646C18.3321 14.4646 17.9987 14.7979 17.6655 14.9979C17.0655 15.2646 16.3321 15.2646 15.7988 14.9313L10.8018 12.4328C12.7044 10.1732 15.3394 8.54811 18.3321 7.93443ZM7.66539 20.9979C7.66539 19.4039 7.94914 17.873 8.4682 16.4529L13.8654 20.1979C14.1987 20.5312 14.332 21.1312 14.2654 21.7312C14.132 22.3312 13.932 22.7979 13.532 22.9979L8.26211 24.9337C7.87461 23.6884 7.66539 22.3664 7.66539 20.9979ZM10.6074 29.3269L16.1321 26.9979C16.5988 26.7312 17.1321 26.7979 17.5987 27.0645C18.0654 27.3312 18.3321 27.7979 18.3321 28.3312V34.0613C15.2361 33.4265 12.523 31.7093 10.6074 29.3269ZM23.6654 34.0613V28.3312C23.6654 27.7978 23.932 27.3312 24.332 27.0645C24.7987 26.7979 25.332 26.7312 25.8654 26.9979L31.3115 29.4244C29.4007 31.7562 26.7191 33.4351 23.6654 34.0613Z" fill="#081A3E"/>
<path d="M23.385 6.52779L23.1321 6.46459C22.7988 6.39795 22.5321 6.33123 22.1987 6.33123C21.4654 6.26459 20.5987 6.26459 19.8654 6.33123C19.532 6.39787 19.2654 6.39787 18.932 6.46459L18.332 6.53123V6.57662C14.822 7.22818 11.741 9.14045 9.57969 11.8217L9.53203 11.7979L9.19867 12.2645C8.53203 13.1979 7.93203 14.1312 7.53203 15.1312L7.33203 15.6645L7.33977 15.6699C6.68977 17.3234 6.33203 19.1208 6.33203 20.9979C6.33203 22.5277 6.56992 24.0045 7.00961 25.3939L6.99867 25.3979L7.19867 25.9979C7.53203 26.8645 7.93203 27.7312 8.39867 28.5312C8.39867 28.6646 8.46531 28.7312 8.53203 28.7979C8.66539 28.9979 8.86539 29.2645 8.99867 29.4645L9.33203 29.8645L9.33562 29.8629C11.8665 33.1798 15.7736 35.397 20.1849 35.6413C20.4412 35.6639 20.7197 35.6644 20.9987 35.6644C21.2777 35.6644 21.556 35.6639 21.8124 35.6413C26.1698 35.4 30.0355 33.234 32.5685 29.9844L32.5987 29.9978L32.932 29.5312C33.132 29.3312 33.2654 29.0645 33.3987 28.8645C33.3987 28.837 33.4104 28.7979 33.4284 28.7571C33.4588 28.7089 33.4893 28.6609 33.5191 28.6123C33.5234 28.6075 33.5277 28.6022 33.532 28.5978C33.5587 28.5522 33.5843 28.5055 33.6105 28.4595C34.9142 26.27 35.6653 23.7176 35.6653 20.9978C35.6654 13.7433 30.3271 7.67615 23.385 6.52779ZM22.3321 28.3312V34.2643C22.3311 34.2644 22.33 34.2644 22.329 34.2646C22.2614 34.2646 22.1312 34.2646 22.0655 34.2646C21.3321 34.3312 20.6655 34.3312 19.9321 34.2646C19.8987 34.2646 19.8487 34.2646 19.7987 34.2646V28.3312C19.7987 27.3312 19.3321 26.4646 18.4654 25.9312C17.5987 25.3979 16.5988 25.3979 15.732 25.7979L9.93203 28.2645C9.86539 28.1979 9.86539 28.1312 9.79867 28.0645L9.66531 27.8645C9.33195 27.3312 9.06531 26.7979 8.79867 26.1979L14.132 24.1979L14.1987 24.1312C14.932 23.7312 15.4653 22.8646 15.5987 21.8646C15.732 20.8646 15.4653 19.8646 14.7987 19.1979L9.00094 15.1995C9.28125 14.6239 9.60164 14.0709 9.95875 13.5447L15.132 16.1313C15.9987 16.7313 17.2654 16.7313 18.2654 16.1979C19.132 15.6646 19.6654 14.8646 19.6654 13.8646V7.73147C19.6664 7.73139 19.6675 7.73131 19.6685 7.73115C19.7361 7.73115 19.8663 7.73115 19.932 7.73115C20.6654 7.66451 21.3987 7.66451 22.0654 7.73115C22.1311 7.73115 22.2614 7.73115 22.3289 7.73115C22.3299 7.73123 22.331 7.73131 22.332 7.73147V13.9312C22.332 14.7979 22.732 15.5979 23.4654 16.0646C24.3988 16.5979 25.732 16.6646 26.7987 16.1979L31.9987 13.5313C32.3321 14.0647 32.6654 14.6647 32.9321 15.1979L27.2655 19.1313L27.1988 19.1979C26.5322 19.7979 26.2655 20.7979 26.3988 21.8646C26.5322 22.8646 27.0655 23.7312 27.7988 24.1312L33.2655 26.1312C32.9988 26.7312 32.7321 27.2646 32.3988 27.7979L32.2655 27.9979C32.1988 28.0645 32.1988 28.1312 32.1321 28.1979L26.3988 25.7979C25.5321 25.3312 24.5321 25.3979 23.6654 25.9312C22.8654 26.4645 22.3321 27.3312 22.3321 28.3312ZM28.3988 23.0645C27.9988 22.7979 27.7321 22.3312 27.6654 21.7979C27.5988 21.1979 27.732 20.5979 28.0654 20.2645L33.535 16.4693C34.0502 17.8847 34.332 19.41 34.332 20.9979C34.332 22.3964 34.1132 23.7462 33.7091 25.0153L28.3988 23.0645ZM31.2194 12.4605L26.1987 14.9979C25.5988 15.3312 24.7321 15.2645 24.1987 14.9312C23.8654 14.7312 23.6654 14.3979 23.6654 13.9312V7.93443C26.6705 8.55068 29.3149 10.1865 31.2194 12.4605ZM18.3321 7.93443V13.8646C18.3321 14.4646 17.9987 14.7979 17.6655 14.9979C17.0655 15.2646 16.3321 15.2646 15.7988 14.9313L10.8018 12.4328C12.7044 10.1732 15.3394 8.54811 18.3321 7.93443ZM7.66539 20.9979C7.66539 19.4039 7.94914 17.873 8.4682 16.4529L13.8654 20.1979C14.1987 20.5312 14.332 21.1312 14.2654 21.7312C14.132 22.3312 13.932 22.7979 13.532 22.9979L8.26211 24.9337C7.87461 23.6884 7.66539 22.3664 7.66539 20.9979ZM10.6074 29.3269L16.1321 26.9979C16.5988 26.7312 17.1321 26.7979 17.5987 27.0645C18.0654 27.3312 18.3321 27.7979 18.3321 28.3312V34.0613C15.2361 33.4265 12.523 31.7093 10.6074 29.3269ZM23.6654 34.0613V28.3312C23.6654 27.7978 23.932 27.3312 24.332 27.0645C24.7987 26.7979 25.332 26.7312 25.8654 26.9979L31.3115 29.4244C29.4007 31.7562 26.7191 33.4351 23.6654 34.0613Z" stroke="#081A3E" stroke-width="0.4" mask="url(#path-2-outside-2)"/>
<mask id="path-3-outside-3" maskUnits="userSpaceOnUse" x="16.668" y="16.668" width="8" height="8" fill="black">
<rect fill="white" x="16.668" y="16.668" width="8" height="8"/>
<path d="M21.0013 17.668C19.1347 17.668 17.668 19.1346 17.668 21.0013C17.668 22.868 19.1346 24.3347 21.0013 24.3347C22.868 24.3347 24.3347 22.8681 24.3347 21.0013C24.3347 19.1347 22.868 17.668 21.0013 17.668ZM21.0013 23.0013C19.868 23.0013 19.0013 22.1347 19.0013 21.0013C19.0013 19.868 19.868 19.0013 21.0013 19.0013C22.1347 19.0013 23.0013 19.868 23.0013 21.0013C23.0013 22.1347 22.1347 23.0013 21.0013 23.0013Z"/>
</mask>
<path d="M21.0013 17.668C19.1347 17.668 17.668 19.1346 17.668 21.0013C17.668 22.868 19.1346 24.3347 21.0013 24.3347C22.868 24.3347 24.3347 22.8681 24.3347 21.0013C24.3347 19.1347 22.868 17.668 21.0013 17.668ZM21.0013 23.0013C19.868 23.0013 19.0013 22.1347 19.0013 21.0013C19.0013 19.868 19.868 19.0013 21.0013 19.0013C22.1347 19.0013 23.0013 19.868 23.0013 21.0013C23.0013 22.1347 22.1347 23.0013 21.0013 23.0013Z" fill="#081A3E"/>
<path d="M21.0013 17.668C19.1347 17.668 17.668 19.1346 17.668 21.0013C17.668 22.868 19.1346 24.3347 21.0013 24.3347C22.868 24.3347 24.3347 22.8681 24.3347 21.0013C24.3347 19.1347 22.868 17.668 21.0013 17.668ZM21.0013 23.0013C19.868 23.0013 19.0013 22.1347 19.0013 21.0013C19.0013 19.868 19.868 19.0013 21.0013 19.0013C22.1347 19.0013 23.0013 19.868 23.0013 21.0013C23.0013 22.1347 22.1347 23.0013 21.0013 23.0013Z" stroke="#081A3E" stroke-width="0.4" mask="url(#path-3-outside-3)"/>
</svg>
