<svg width="30" height="30" viewBox="0 0 30 30" fill="none" xmlns="http://www.w3.org/2000/svg">
   <path d="M16.5053 29H13.4947C13.3138 29 13.138 28.9396 12.9953 28.8283C12.8526 28.717 12.7511 28.5612 12.7071 28.3857L12.144 26.1376C11.0908 25.8655 10.081 25.4471 9.14408 24.8946L7.15608 26.0858C7.00082 26.1788 6.81893 26.2173 6.6393 26.1951C6.45966 26.1729 6.29259 26.0914 6.1646 25.9634L4.0366 23.8354C3.90849 23.7074 3.82686 23.5402 3.80469 23.3604C3.78252 23.1807 3.82108 22.9987 3.91424 22.8434L5.10508 20.8554C4.55272 19.9186 4.13452 18.909 3.86272 17.856L1.616 17.2932C1.44012 17.2495 1.28393 17.1481 1.1723 17.0053C1.06067 16.8625 1.00002 16.6865 1 16.5053V13.4947C1.00008 13.3135 1.06076 13.1376 1.17238 12.9948C1.28401 12.8521 1.44016 12.7508 1.616 12.7071L3.86272 12.144C4.13447 11.0908 4.55267 10.081 5.10508 9.14408L3.91424 7.15608C3.82086 7.00079 3.78222 6.81868 3.8045 6.63885C3.82678 6.45902 3.9087 6.29184 4.03716 6.16404L6.16516 4.03604C6.29315 3.90806 6.46022 3.82651 6.63986 3.80434C6.81949 3.78217 7.00138 3.82066 7.15664 3.91368L9.14464 5.1048C10.0815 4.55255 11.0911 4.13436 12.144 3.86244L12.7068 1.616C12.7505 1.44012 12.8519 1.28393 12.9947 1.1723C13.1375 1.06067 13.3135 1.00002 13.4947 1H16.5053C16.6862 0.999984 16.862 1.06042 17.0047 1.17172C17.1474 1.28302 17.2489 1.4388 17.2929 1.61432L17.856 3.86244C18.9092 4.13448 19.919 4.55286 20.8559 5.10536L22.8439 3.91424C22.9992 3.82122 23.1811 3.78273 23.3607 3.8049C23.5403 3.82707 23.7074 3.90862 23.8354 4.0366L25.9634 6.1646C26.0915 6.29263 26.1731 6.45981 26.1953 6.63956C26.2175 6.81932 26.1789 7.00132 26.0858 7.15664L24.8949 9.14464C25.4471 10.0814 25.8651 11.0911 26.1367 12.144L28.384 12.7068C28.5599 12.7505 28.7161 12.8519 28.8277 12.9947C28.9393 13.1375 29 13.3135 29 13.4947V16.5053C28.9999 16.6865 28.9392 16.8624 28.8276 17.0052C28.716 17.1479 28.5598 17.2492 28.384 17.2929L26.1373 17.856C25.8655 18.9092 25.4473 19.919 24.8949 20.8559L26.0858 22.8439C26.1791 22.9992 26.2178 23.1813 26.1955 23.3612C26.1732 23.541 26.0913 23.7082 25.9628 23.836L23.8348 25.964C23.7069 26.0919 23.5398 26.1735 23.3601 26.1957C23.1805 26.2178 22.9986 26.1793 22.8434 26.0863L20.8554 24.8952C19.9185 25.4475 18.9089 25.8656 17.856 26.1376L17.2932 28.384C17.2495 28.5599 17.1481 28.7161 17.0053 28.8277C16.8625 28.9393 16.6865 29 16.5053 29ZM9.14408 24.028C9.21838 24.0281 9.29119 24.0489 9.35436 24.088C10.3457 24.7011 11.4295 25.1501 12.564 25.4177C12.6354 25.4346 12.7007 25.4707 12.7529 25.5222C12.8051 25.5737 12.8421 25.6386 12.86 25.7097L13.4816 28.1897L16.5039 28.2L17.1375 25.7097C17.1556 25.6383 17.193 25.5732 17.2456 25.5217C17.2983 25.4701 17.3642 25.4342 17.436 25.4177C18.5709 25.1502 19.6551 24.7012 20.6468 24.088C20.7091 24.0494 20.7808 24.0288 20.8541 24.0282C20.9274 24.0277 20.9994 24.0473 21.0623 24.0849L23.2566 25.4009L25.3986 23.2729L24.0863 21.0637C24.0487 21.0008 24.029 20.9288 24.0295 20.8555C24.03 20.7823 24.0506 20.7105 24.0891 20.6482C24.7014 19.6558 25.1494 18.5712 25.416 17.436C25.4329 17.3646 25.4691 17.2993 25.5206 17.2471C25.5721 17.1949 25.6369 17.1579 25.708 17.14L28.188 16.5173L28.1989 13.495L25.7069 12.8614C25.6358 12.8432 25.5711 12.8059 25.5198 12.7535C25.4685 12.701 25.4326 12.6355 25.416 12.564C25.1486 11.4292 24.6998 10.345 24.0868 9.35324C24.0484 9.29088 24.0278 9.21914 24.0273 9.14587C24.0268 9.0726 24.0464 9.0006 24.084 8.93772L25.4 6.74336L23.272 4.60108L21.0628 5.91428C20.9999 5.95186 20.9279 5.97145 20.8546 5.97091C20.7814 5.97037 20.7097 5.94971 20.6473 5.9112C19.6554 5.29819 18.571 4.84945 17.436 4.58232C17.3646 4.56543 17.2993 4.52926 17.2471 4.47776C17.1949 4.42626 17.1579 4.3614 17.14 4.29028L16.5176 1.81032L13.4936 1.79996L12.86 4.29028C12.8421 4.3614 12.8051 4.42626 12.7529 4.47776C12.7007 4.52926 12.6354 4.56543 12.564 4.58232C11.4291 4.84977 10.3449 5.29879 9.35324 5.91204C9.2909 5.95055 9.21918 5.97121 9.14591 5.97175C9.07264 5.97229 9.00062 5.9527 8.93772 5.91512L6.74336 4.59912L4.60136 6.72712L5.91372 8.93632C5.95135 8.9992 5.97098 9.0712 5.97049 9.14447C5.97 9.21775 5.94939 9.28948 5.91092 9.35184C5.29863 10.3442 4.85056 11.4288 4.584 12.564C4.56711 12.6354 4.53094 12.7007 4.47944 12.7529C4.42794 12.8051 4.36308 12.8421 4.29196 12.86L1.812 13.4827L1.79996 16.5053L4.29196 17.1389C4.36322 17.1568 4.42818 17.1941 4.47969 17.2465C4.53121 17.2989 4.5673 17.3644 4.584 17.436C4.8514 18.5708 5.30023 19.655 5.91316 20.6468C5.95163 20.7091 5.97223 20.7809 5.97273 20.8541C5.97322 20.9274 5.95359 20.9994 5.91596 21.0623L4.59996 23.2566L6.72964 25.4012L8.93884 24.088C9.00055 24.0497 9.0715 24.029 9.14408 24.028Z" fill="currentColor" stroke="currentColor" stroke-width="0.6"/>
   <path d="M15.0001 23C13.4179 22.9999 11.8712 22.5307 10.5557 21.6517C9.24017 20.7726 8.21485 19.5232 7.60939 18.0614C7.00394 16.5996 6.84553 14.9912 7.15422 13.4394C7.46291 11.8876 8.22482 10.4621 9.3436 9.34336C10.4624 8.22457 11.8878 7.46266 13.4396 7.15398C14.9914 6.84529 16.5999 7.00369 18.0617 7.60915C19.5234 8.21461 20.7729 9.23993 21.6519 10.5555C22.531 11.871 23.0002 13.4176 23.0002 14.9998C23.0003 16.0505 22.7934 17.0908 22.3913 18.0614C21.9893 19.0321 21.4 19.914 20.6571 20.6569C19.9142 21.3998 19.0323 21.9891 18.0617 22.3911C17.091 22.7931 16.0507 23 15.0001 23ZM15.0001 7.79993C13.5761 7.79998 12.1841 8.2223 11.0001 9.01347C9.81612 9.80464 8.89333 10.9291 8.34843 12.2448C7.80353 13.5604 7.66099 15.008 7.93883 16.4047C8.21667 17.8013 8.90242 19.0842 9.90936 20.0911C10.9163 21.098 12.1992 21.7837 13.5958 22.0614C14.9925 22.3392 16.4401 22.1966 17.7557 21.6517C19.0713 21.1067 20.1958 20.1839 20.9869 18.9999C21.778 17.8159 22.2003 16.4238 22.2003 14.9998C22.2003 14.0543 22.014 13.118 21.6522 12.2445C21.2904 11.3709 20.76 10.5772 20.0914 9.90864C19.4228 9.24006 18.629 8.70972 17.7555 8.34791C16.8819 7.9861 15.9456 7.79989 15.0001 7.79993Z" fill="currentColor" stroke="currentColor" stroke-width="0.6"/>
   <path d="M16.4907 22.8519C16.3846 22.8519 16.2829 22.8097 16.2078 22.7347C16.1328 22.6597 16.0906 22.5579 16.0906 22.4518V18.576C16.0905 18.4994 16.1124 18.4244 16.1536 18.3599C16.1949 18.2954 16.2538 18.2441 16.3233 18.212C16.8669 17.9626 17.3354 17.5749 17.6821 17.0876C18.0288 16.6003 18.2416 16.0305 18.299 15.4353C18.3564 14.84 18.2566 14.24 18.0094 13.6955C17.7622 13.1509 17.3764 12.6807 16.8906 12.332V14.012C16.8906 14.0684 16.8788 14.1242 16.8557 14.1757C16.8327 14.2272 16.7991 14.2732 16.757 14.3108L15.1647 15.7267C15.0914 15.7919 14.9967 15.828 14.8987 15.828C14.8006 15.828 14.7059 15.7919 14.6327 15.7267L13.0442 14.3108C13.0022 14.2732 12.9686 14.2272 12.9456 14.1758C12.9225 14.1244 12.9106 14.0686 12.9107 14.0123V12.3342C12.4248 12.683 12.039 13.1531 11.7918 13.6977C11.5447 14.2423 11.4448 14.8422 11.5023 15.4375C11.5597 16.0328 11.7724 16.6025 12.1191 17.0898C12.4658 17.5771 12.9344 17.9649 13.4779 18.2142C13.5475 18.2463 13.6064 18.2976 13.6476 18.3621C13.6889 18.4267 13.7107 18.5017 13.7106 18.5782V22.4095C13.712 22.4629 13.7027 22.5161 13.6833 22.5658C13.6638 22.6156 13.6346 22.661 13.5973 22.6992C13.56 22.7375 13.5154 22.7679 13.4662 22.7887C13.417 22.8095 13.3641 22.8202 13.3106 22.8202C13.2572 22.8202 13.2043 22.8095 13.1551 22.7887C13.1058 22.7679 13.0613 22.7375 13.024 22.6992C12.9867 22.661 12.9575 22.6156 12.938 22.5658C12.9185 22.5161 12.9092 22.4629 12.9107 22.4095V18.8235C12.2191 18.4528 11.6447 17.8965 11.2521 17.2171C10.8595 16.5378 10.6643 15.7623 10.6885 14.978C10.7127 14.1937 10.9553 13.4318 11.389 12.7779C11.8227 12.124 12.4302 11.6041 13.1433 11.2767C13.2043 11.2486 13.2714 11.2364 13.3384 11.2411C13.4054 11.2457 13.4701 11.2672 13.5266 11.3035C13.5831 11.3397 13.6296 11.3896 13.6617 11.4485C13.6939 11.5075 13.7107 11.5736 13.7106 11.6407V13.8328L14.8989 14.8923L16.0906 13.8322V11.6398C16.0905 11.5727 16.1074 11.5066 16.1395 11.4477C16.1717 11.3888 16.2182 11.3389 16.2747 11.3026C16.3312 11.2664 16.3959 11.2449 16.4629 11.2402C16.5298 11.2356 16.5969 11.2478 16.6579 11.2758C17.371 11.6031 17.9786 12.123 18.4123 12.7768C18.8461 13.4307 19.0887 14.1926 19.1129 14.9769C19.137 15.7611 18.9418 16.5366 18.5492 17.2159C18.1566 17.8953 17.5822 18.4515 16.8906 18.8221V22.4509C16.8907 22.5035 16.8804 22.5556 16.8604 22.6042C16.8404 22.6529 16.8109 22.6971 16.7738 22.7343C16.7366 22.7715 16.6925 22.8011 16.644 22.8213C16.5954 22.8414 16.5433 22.8518 16.4907 22.8519Z" fill="currentColor" stroke="currentColor" stroke-width="0.6"/>
</svg>
