<svg width="17" height="17" viewBox="0 0 17 17" fill="none" xmlns="http://www.w3.org/2000/svg">
<path fill-rule="evenodd" clip-rule="evenodd" d="M9.414 17H7.586C7.47616 17 7.36948 16.9632 7.28288 16.8957C7.19629 16.8281 7.13474 16.7335 7.108 16.627L6.766 15.262C6.1267 15.0967 5.51373 14.8425 4.945 14.507L3.738 15.23C3.64397 15.286 3.53396 15.3092 3.42533 15.2958C3.31669 15.2824 3.21561 15.2332 3.138 15.156L1.843 13.864C1.76581 13.7864 1.71664 13.6853 1.70324 13.5767C1.68984 13.468 1.71298 13.358 1.769 13.264L2.492 12.057C2.15675 11.4882 1.90294 10.8753 1.738 10.236L0.374001 9.892C0.267111 9.86541 0.172204 9.8038 0.104418 9.71698C0.0366321 9.63016 -0.000128356 9.52315 3.36753e-07 9.413V7.586C9.49086e-05 7.47603 0.0369577 7.36924 0.104726 7.28263C0.172495 7.19601 0.267278 7.13455 0.374001 7.108L1.738 6.766C1.90294 6.12673 2.15675 5.51375 2.492 4.945L1.769 3.737C1.71293 3.64291 1.68986 3.5328 1.70345 3.42412C1.71703 3.31544 1.7665 3.21439 1.844 3.137L3.136 1.843C3.21361 1.76581 3.31469 1.71664 3.42333 1.70324C3.53196 1.68984 3.64197 1.71298 3.736 1.769L4.943 2.492C5.51179 2.15682 6.12475 1.90302 6.764 1.738L7.107 0.374001C7.13359 0.267111 7.1952 0.172204 7.28202 0.104418C7.36884 0.0366321 7.47585 -0.000128356 7.586 3.36753e-07H9.414C9.52384 3.912e-05 9.63052 0.0367584 9.71712 0.104332C9.80372 0.171906 9.86527 0.266463 9.892 0.373001L10.234 1.738C10.8733 1.90333 11.4863 2.15747 12.055 2.493L13.262 1.77C13.356 1.71398 13.466 1.69084 13.5747 1.70424C13.6833 1.71764 13.7844 1.76681 13.862 1.844L15.154 3.136C15.2312 3.21361 15.2804 3.31469 15.2938 3.42333C15.3072 3.53196 15.284 3.64197 15.228 3.736L14.505 4.943C14.8402 5.51176 15.094 6.12473 15.259 6.764L16.623 7.106C16.7297 7.13255 16.8245 7.19401 16.8923 7.28063C16.96 7.36724 16.9969 7.47403 16.997 7.584V9.413C16.9969 9.52298 16.96 9.62976 16.8923 9.71637C16.8245 9.80299 16.7297 9.86445 16.623 9.891L15.259 10.233C15.0941 10.8723 14.8403 11.4852 14.505 12.054L15.228 13.261C15.2841 13.3551 15.3071 13.4652 15.2936 13.5739C15.28 13.6826 15.2305 13.7836 15.153 13.861L13.861 15.153C13.7834 15.2302 13.6823 15.2794 13.5737 15.2928C13.465 15.3062 13.355 15.283 13.261 15.227L12.054 14.504C11.4852 14.8392 10.8723 15.093 10.233 15.258L9.891 16.622C9.86446 16.7287 9.80299 16.8235 9.71637 16.8913C9.62976 16.959 9.52298 16.9959 9.413 16.996L9.414 17ZM4.944 13.981C4.98918 13.9809 5.03351 13.9933 5.072 14.017C5.67399 14.3892 6.33213 14.6617 7.021 14.824C7.06434 14.8342 7.10405 14.8561 7.13579 14.8873C7.16753 14.9185 7.19009 14.9578 7.201 15.001L7.578 16.507L9.413 16.513L9.8 15C9.81099 14.9567 9.8337 14.9173 9.86563 14.8861C9.89756 14.8548 9.93748 14.833 9.981 14.823C10.6699 14.6607 11.328 14.3882 11.93 14.016C11.968 13.993 12.0116 13.9808 12.056 13.9808C12.1004 13.9808 12.144 13.993 12.182 14.016L13.514 14.816L14.814 13.524L14.014 12.183C13.991 12.145 13.9788 12.1014 13.9788 12.057C13.9788 12.0126 13.991 11.969 14.014 11.931C14.3858 11.3286 14.658 10.6701 14.82 9.981C14.8303 9.9371 14.8525 9.89693 14.8843 9.86496C14.9161 9.833 14.9562 9.8105 15 9.8L16.506 9.422L16.513 7.587L15 7.2C14.9567 7.18901 14.9173 7.1663 14.8861 7.13437C14.8548 7.10244 14.833 7.06252 14.823 7.019C14.6606 6.33015 14.3881 5.67202 14.016 5.07C13.993 5.03201 13.9808 4.98843 13.9808 4.944C13.9808 4.89957 13.993 4.85599 14.016 4.818L14.816 3.486L13.524 2.186L12.183 2.986C12.145 3.00904 12.1014 3.02122 12.057 3.02122C12.0126 3.02122 11.969 3.00904 11.931 2.986C11.3287 2.61373 10.6702 2.34122 9.981 2.179C9.93723 2.16882 9.89714 2.1467 9.86519 2.1151C9.83323 2.0835 9.81067 2.04366 9.8 2L9.421 0.491001L7.585 0.485001L7.2 2C7.18909 2.04316 7.16653 2.0825 7.13479 2.11371C7.10305 2.14492 7.06334 2.16682 7.02 2.177C6.33112 2.33932 5.67298 2.61183 5.071 2.984C5.03301 3.00704 4.98943 3.01922 4.945 3.01922C4.90057 3.01922 4.85699 3.00704 4.819 2.984L3.487 2.184L2.187 3.476L2.987 4.817C3.01004 4.85499 3.02222 4.89857 3.02222 4.943C3.02222 4.98743 3.01004 5.03101 2.987 5.069C2.61516 5.6714 2.34299 6.32986 2.181 7.019C2.17066 7.06302 2.14824 7.10329 2.11627 7.13527C2.08429 7.16724 2.04402 7.18966 2 7.2L0.493001 7.578L0.485001 9.413L2 9.8C2.04316 9.81091 2.0825 9.83347 2.11371 9.86521C2.14492 9.89695 2.16682 9.93666 2.177 9.98C2.3394 10.6689 2.6119 11.327 2.984 11.929C3.00704 11.967 3.01922 12.0106 3.01922 12.055C3.01922 12.0994 3.00704 12.143 2.984 12.181L2.184 13.513L3.477 14.813L4.818 14.013C4.85631 13.9911 4.89987 13.98 4.944 13.981ZM8.49997 13.3566C7.29424 13.3567 6.13159 12.9083 5.23814 12.0987C4.34469 11.289 3.78432 10.176 3.66602 8.97612C3.54773 7.77622 3.87996 6.57521 4.5981 5.60669C5.31625 4.63817 6.36896 3.97139 7.55149 3.73603C8.73401 3.50067 9.96181 3.71356 10.9961 4.33329C12.0303 4.95303 12.7971 5.9353 13.1473 7.08906C13.4974 8.24281 13.4059 9.48557 12.8906 10.5756C12.3752 11.6656 11.4728 12.525 10.359 12.9866C9.76961 13.2308 9.13792 13.3565 8.49997 13.3566ZM8.49997 4.12759C7.41489 4.1275 6.36857 4.531 5.56452 5.25961C4.76046 5.98822 4.25615 6.98986 4.14968 8.06969C4.04321 9.14953 4.34219 10.2304 4.98846 11.102C5.54909 11.8581 6.33628 12.4098 7.22977 12.6811V10.8208C6.81003 10.5956 6.46143 10.2578 6.22317 9.84539C5.98491 9.43294 5.86644 8.9622 5.88109 8.48611C5.89575 8.01002 6.04293 7.54745 6.3061 7.15044C6.56927 6.75342 6.93798 6.4377 7.37077 6.23878C7.40779 6.22187 7.44846 6.21452 7.48906 6.21741C7.52965 6.22031 7.56887 6.23335 7.60311 6.25535C7.63736 6.27735 7.66552 6.3076 7.68503 6.34332C7.70454 6.37903 7.71477 6.41908 7.71477 6.45978V7.79078L8.43577 8.43378L9.15977 7.78978V6.46178C9.15977 6.42108 9.17 6.38103 9.18951 6.34532C9.20902 6.3096 9.23718 6.27935 9.27143 6.25735C9.30567 6.23535 9.34489 6.22231 9.38548 6.21941C9.42608 6.21652 9.46675 6.22386 9.50377 6.24078C9.93686 6.43943 10.3059 6.75504 10.5693 7.15208C10.8327 7.54913 10.98 8.01182 10.9947 8.48807C11.0093 8.96432 10.8907 9.4352 10.6522 9.84769C10.4138 10.2602 10.0648 10.5979 9.64477 10.8228V12.7169C10.0287 12.6127 10.3995 12.4558 10.7462 12.248C11.677 11.6903 12.3671 10.8063 12.6822 9.76804C12.9973 8.72973 12.915 7.61133 12.4512 6.63036C11.9874 5.6494 11.1754 4.876 10.173 4.46059C9.64251 4.24114 9.07402 4.12832 8.49997 4.12859V4.12759ZM9.16177 12.8191C8.6856 12.8921 8.19701 12.8865 7.71577 12.7987V10.6718C7.71585 10.6253 7.70262 10.5798 7.67763 10.5406C7.65264 10.5015 7.61694 10.4703 7.57477 10.4508C7.24478 10.2993 6.96033 10.0639 6.74987 9.76801C6.53941 9.47213 6.41031 9.12619 6.37548 8.76477C6.34066 8.40335 6.40132 8.03912 6.55142 7.7085C6.70151 7.37789 6.93577 7.09247 7.23077 6.88078V7.89878C7.23079 7.93295 7.23801 7.96673 7.25197 7.99792C7.26592 8.02911 7.2863 8.057 7.31177 8.07978L8.27577 8.93978C8.32026 8.97935 8.37773 9.00121 8.43727 9.00121C8.49681 9.00121 8.55428 8.97935 8.59877 8.93978L9.56577 8.07978C9.59124 8.057 9.61162 8.02911 9.62557 7.99792C9.63953 7.96673 9.64675 7.93295 9.64677 7.89878V6.87878C9.94177 7.09047 10.176 7.37589 10.3261 7.7065C10.4762 8.03712 10.5369 8.40135 10.5021 8.76277C10.4672 9.12419 10.3381 9.47013 10.1277 9.76601C9.91721 10.0619 9.63276 10.2973 9.30277 10.4488C9.2606 10.4683 9.2249 10.4995 9.19991 10.5386C9.17492 10.5778 9.16169 10.6233 9.16177 10.6698V12.8191Z" fill="black"/>
</svg>
