<svg width="8" height="8" viewBox="0 0 8 8" fill="none" xmlns="http://www.w3.org/2000/svg">
<path d="M0.278746 7.97503C0.241307 7.97517 0.204305 7.96698 0.170422 7.95105C0.136539 7.93512 0.106623 7.91185 0.0828425 7.88293C0.0590621 7.854 0.0420127 7.82015 0.0329302 7.78382C0.0238476 7.74749 0.0229592 7.70959 0.0303294 7.67288L0.387552 5.88483C0.397159 5.83597 0.421219 5.79113 0.456612 5.75612L5.81793 0.39396C6.05512 0.156719 6.3768 0.0234375 6.71223 0.0234375C7.04766 0.0234375 7.36935 0.156719 7.60653 0.39396C7.84371 0.631202 7.97696 0.952971 7.97696 1.28848C7.97696 1.62399 7.84371 1.94576 7.60653 2.183L2.24571 7.54516C2.21046 7.5805 2.16549 7.60455 2.11653 7.61424L0.327932 7.97105C0.311598 7.97449 0.29494 7.97616 0.278249 7.97602L0.278746 7.97503ZM0.868983 6.05976L0.60119 7.40154L1.94264 7.13368L7.24682 1.8237C7.32094 1.7542 7.38033 1.67051 7.42148 1.5776C7.46263 1.48469 7.48468 1.38446 7.48635 1.28286C7.48801 1.18125 7.46924 1.08035 7.43115 0.986148C7.39306 0.891943 7.33644 0.806355 7.26463 0.734468C7.19283 0.66258 7.10732 0.60586 7.01317 0.567677C6.91902 0.529493 6.81816 0.510625 6.71659 0.512192C6.61501 0.51376 6.51478 0.535731 6.42185 0.576801C6.32893 0.617872 6.2452 0.677203 6.17565 0.751272L0.868983 6.05976ZM2.06585 7.36526H2.07082H2.06585Z" fill="white" stroke="white" stroke-width="0.1"/>
</svg>
