<svg id="Layer_1" data-name="Layer 1" xmlns="http://www.w3.org/2000/svg" viewBox="0 0 10.78 13.3">
  <g>
    <path class="cls-1" d="M5.65,3.65A2.31,2.31,0,0,0,5,2.41a2.48,2.48,0,0,0-1.24-.67,2.48,2.48,0,0,0-1.4.14,2.38,2.38,0,0,0-1.09.89,2.42,2.42,0,0,0,.3,3.06,2.45,2.45,0,0,0,1.71.71,2.39,2.39,0,0,0,1.35-.41,2.35,2.35,0,0,0,.89-1.08A2.33,2.33,0,0,0,5.65,3.65Zm-3.22,1a1,1,0,0,1-.18-.57,1.09,1.09,0,0,1,.08-.39,1.19,1.19,0,0,1,.22-.33,1.19,1.19,0,0,1,.33-.22,1.09,1.09,0,0,1,.39-.08,1,1,0,0,1,.57.17,1.06,1.06,0,0,1,.38.46,1.08,1.08,0,0,1,0,.59A1,1,0,0,1,4,4.83a1,1,0,0,1-.53.28,1.08,1.08,0,0,1-.59-.05A1,1,0,0,1,2.43,4.68Z" transform="translate(-0.85 -0.85)"/>
    <path class="cls-1" d="M11.45,10.09a2.43,2.43,0,0,0-4-.79A2.41,2.41,0,0,0,6.78,11a2.38,2.38,0,0,0,.41,1.34,2.39,2.39,0,0,0,2,1.08,2.59,2.59,0,0,0,.48,0,2.48,2.48,0,0,0,1.24-.67,2.45,2.45,0,0,0,.53-2.64Zm-3.18.54a1,1,0,0,1,.38-.46,1,1,0,0,1,1.58.85v0a1,1,0,0,1-.17.52A1,1,0,0,1,9.6,12,1,1,0,0,1,9,12a1.11,1.11,0,0,1-.52-.28,1,1,0,0,1-.28-.52A1,1,0,0,1,8.27,10.63Z" transform="translate(-0.85 -0.85)"/>
    <path class="cls-1" d="M10.87,1.4a.58.58,0,0,0-.11-.24.72.72,0,0,0-.19-.2.82.82,0,0,0-.26-.1.62.62,0,0,0-.27,0,.6.6,0,0,0-.25.1.72.72,0,0,0-.19.2L1.84,13.07a.6.6,0,0,0-.1.25.66.66,0,0,0,0,.28.8.8,0,0,0,.11.25A.86.86,0,0,0,2,14a.87.87,0,0,0,.25.1h.13l.15,0a.6.6,0,0,0,.25-.1.61.61,0,0,0,.19-.2l7.76-11.9a.6.6,0,0,0,.1-.25A.66.66,0,0,0,10.87,1.4Z" transform="translate(-0.85 -0.85)"/>
  </g>
</svg>
