<svg id="Layer_1" data-name="Layer 1" xmlns="http://www.w3.org/2000/svg" viewBox="0 0 8.2 11.69">
  <g>
    <path class="cls-1" d="M4.89,3.16h0A1.66,1.66,0,0,0,4,3.44a1.57,1.57,0,0,0-.61.74A1.63,1.63,0,0,0,3.72,6a1.61,1.61,0,0,0,.84.45l.33,0a1.72,1.72,0,0,0,.63-.12,1.64,1.64,0,0,0,.74-.61,1.61,1.61,0,0,0,.28-.92A1.66,1.66,0,0,0,4.89,3.16Zm-.7,2a.8.8,0,0,1,0-.43.75.75,0,0,1,.21-.39.78.78,0,0,1,.38-.2l.15,0a.67.67,0,0,1,.28.06.72.72,0,0,1,.34.28.74.74,0,0,1,.13.41.75.75,0,0,1-.22.53.77.77,0,0,1-1,.1A.84.84,0,0,1,4.19,5.11Z" transform="translate(-0.75 -0.75)"/>
    <path class="cls-1" d="M7.76,2h0a4.1,4.1,0,0,0-4.47-.89A4.27,4.27,0,0,0,1.94,2a4.65,4.65,0,0,0-.38,5.73l3.29,4.75L8.14,7.69a4.64,4.64,0,0,0,.8-2.93A4.58,4.58,0,0,0,7.76,2Zm-.63,5.6L4.85,10.85,2.3,7.17a3.72,3.72,0,0,1,.29-4.59,3.31,3.31,0,0,1,1-.69,3.25,3.25,0,0,1,2.45,0,3.16,3.16,0,0,1,1,.69,3.7,3.7,0,0,1,.94,2.24A3.64,3.64,0,0,1,7.4,7.17l-.27.39Z" transform="translate(-0.75 -0.75)"/>
  </g>
</svg>
