<svg width="94" height="28" viewBox="0 0 94 28" fill="none" xmlns="http://www.w3.org/2000/svg">
<path d="M90.2104 0.790039H3.19122C1.42876 0.790039 0 2.2188 0 3.98126V24.5988C0 26.3613 1.42876 27.79 3.19122 27.79H90.2104C91.9729 27.79 93.4017 26.3613 93.4017 24.5988V3.98126C93.4017 2.2188 91.9729 0.790039 90.2104 0.790039Z" fill="white"/>
<path d="M47.12 15.5871C46.5354 15.5888 45.9644 15.7637 45.4791 16.0897C44.9939 16.4158 44.6161 16.8783 44.3936 17.4189C44.171 17.9595 44.1137 18.5539 44.2288 19.1271C44.3439 19.7003 44.6263 20.2265 45.0402 20.6393C45.4542 21.052 45.9813 21.3329 46.5548 21.4463C47.1283 21.5597 47.7225 21.5006 48.2625 21.2765C48.8024 21.0524 49.2638 20.6733 49.5885 20.1871C49.9131 19.7009 50.0863 19.1294 50.0863 18.5448C50.0922 18.154 50.0194 17.7661 49.8723 17.404C49.7252 17.0419 49.5068 16.7132 49.23 16.4372C48.9533 16.1613 48.6239 15.9438 48.2614 15.7978C47.8989 15.6517 47.5107 15.5801 47.12 15.5871ZM47.12 20.3436C46.7594 20.3697 46.3994 20.2865 46.0868 20.105C45.7742 19.9235 45.5236 19.652 45.3676 19.3259C45.2116 18.9998 45.1574 18.6343 45.2122 18.277C45.2669 17.9197 45.4281 17.5872 45.6746 17.3228C45.9211 17.0584 46.2415 16.8744 46.5941 16.7948C46.9467 16.7152 47.3151 16.7437 47.6513 16.8765C47.9875 17.0093 48.2759 17.2404 48.4788 17.5395C48.6818 17.8386 48.7899 18.192 48.7891 18.5534C48.8031 19.0108 48.6353 19.455 48.3225 19.7889C48.0096 20.1228 47.5773 20.3192 47.12 20.335V20.3436ZM40.6337 15.5871C40.0491 15.5888 39.4781 15.7637 38.9929 16.0897C38.5076 16.4158 38.1299 16.8783 37.9073 17.4189C37.6848 17.9595 37.6275 18.5539 37.7426 19.1271C37.8577 19.7003 38.14 20.2265 38.554 20.6393C38.968 21.052 39.495 21.3329 40.0685 21.4463C40.642 21.5597 41.2363 21.5006 41.7763 21.2765C42.3162 21.0524 42.7776 20.6733 43.1022 20.1871C43.4269 19.7009 43.6001 19.1294 43.6001 18.5448C43.6059 18.1548 43.5334 17.7675 43.3868 17.4061C43.2403 17.0446 43.0226 16.7162 42.7468 16.4404C42.471 16.1646 42.1426 15.9469 41.7811 15.8003C41.4196 15.6538 41.0324 15.5812 40.6424 15.5871H40.6337ZM40.6337 20.3436C40.2732 20.3697 39.9132 20.2865 39.6006 20.105C39.288 19.9235 39.0374 19.652 38.8814 19.3259C38.7253 18.9998 38.6712 18.6343 38.7259 18.277C38.7807 17.9197 38.9418 17.5872 39.1883 17.3228C39.4348 17.0584 39.7553 16.8744 40.1079 16.7948C40.4605 16.7152 40.8289 16.7437 41.1651 16.8765C41.5013 17.0093 41.7896 17.2404 41.9926 17.5395C42.1955 17.8386 42.3037 18.192 42.3029 18.5534C42.3169 19.0093 42.1503 19.4523 41.8393 19.786C41.5283 20.1196 41.0981 20.317 40.6424 20.335L40.6337 20.3436ZM32.9281 16.5038V17.7578H35.9291C35.8854 18.3458 35.6447 18.9018 35.2459 19.3361C34.9453 19.643 34.5838 19.8836 34.1846 20.0422C33.7854 20.2008 33.3573 20.2741 32.9281 20.2572C32.063 20.226 31.2437 19.8605 30.6426 19.2374C30.0416 18.6144 29.7057 17.7824 29.7057 16.9168C29.7057 16.0511 30.0416 15.2191 30.6426 14.5961C31.2437 13.973 32.063 13.6075 32.9281 13.5763C33.7712 13.5656 34.5842 13.889 35.1896 14.4758L36.0545 13.6109C35.6405 13.2008 35.1489 12.8775 34.6083 12.6599C34.0677 12.4423 33.4891 12.3349 32.9065 12.344C32.2913 12.3251 31.6785 12.43 31.1046 12.6523C30.5307 12.8747 30.0073 13.2101 29.5655 13.6386C29.1236 14.0671 28.7723 14.58 28.5325 15.1468C28.2926 15.7136 28.1689 16.3229 28.1689 16.9384C28.1689 17.5539 28.2926 18.1631 28.5325 18.7299C28.7723 19.2967 29.1236 19.8096 29.5655 20.2381C30.0073 20.6666 30.5307 21.002 31.1046 21.2244C31.6785 21.4468 32.2913 21.5517 32.9065 21.5328C33.502 21.5558 34.0956 21.4521 34.648 21.2284C35.2004 21.0048 35.6989 20.6664 36.1107 20.2355C36.8426 19.4365 37.2322 18.3824 37.196 17.2994C37.1987 17.0371 37.177 16.7751 37.1312 16.5168L32.9281 16.5038ZM64.4468 17.481C64.2686 16.9453 63.9299 16.4774 63.4765 16.1409C63.0232 15.8044 62.4773 15.6156 61.9129 15.6C61.5329 15.6024 61.1574 15.6819 60.8089 15.8335C60.4605 15.9852 60.1465 16.2059 59.8858 16.4824C59.6251 16.7588 59.4231 17.0853 59.2922 17.442C59.1612 17.7987 59.1039 18.1783 59.1238 18.5578C59.1157 18.9466 59.1859 19.3331 59.3302 19.6942C59.4746 20.0553 59.6902 20.3837 59.9642 20.6597C60.2382 20.9357 60.565 21.1537 60.925 21.3007C61.2851 21.4478 61.671 21.5208 62.0599 21.5155C62.546 21.5198 63.0255 21.4036 63.4556 21.1772C63.8858 20.9508 64.2531 20.6213 64.5247 20.2182L63.5172 19.5437C63.3658 19.7944 63.152 20.0016 62.8965 20.1449C62.6411 20.2881 62.3528 20.3626 62.0599 20.3609C61.7584 20.3734 61.46 20.2947 61.2039 20.135C60.9478 19.9753 60.7458 19.7421 60.6243 19.4658L64.5809 17.8313L64.4468 17.481ZM60.4211 18.454C60.4064 18.2382 60.4351 18.0216 60.5055 17.8171C60.5758 17.6125 60.6864 17.4241 60.8306 17.263C60.9749 17.1018 61.1499 16.9711 61.3454 16.8786C61.541 16.7861 61.753 16.7336 61.9691 16.7243C62.1934 16.7101 62.417 16.7619 62.6122 16.8733C62.8074 16.9848 62.9656 17.1509 63.0674 17.3513L60.4211 18.454ZM57.2039 21.3209H58.5011V12.6294H57.2039V21.3209ZM55.0764 16.2487H55.0332C54.8359 16.0337 54.5949 15.8635 54.3264 15.7494C54.0579 15.6353 53.7681 15.5799 53.4765 15.5871C52.7197 15.628 52.0074 15.9575 51.4862 16.5077C50.9649 17.0578 50.6744 17.7869 50.6744 18.5448C50.6744 19.3027 50.9649 20.0317 51.4862 20.5819C52.0074 21.1321 52.7197 21.4616 53.4765 21.5025C53.7694 21.5097 54.0603 21.4531 54.3291 21.3366C54.5979 21.2202 54.8382 21.0466 55.0332 20.8279H55.0764V21.2604C55.0764 22.3933 54.471 22.99 53.4981 22.99C53.1729 22.9816 52.8576 22.8768 52.592 22.689C52.3264 22.5011 52.1226 22.2387 52.0063 21.9349L50.8733 22.4063C51.0906 22.9219 51.456 23.3615 51.9233 23.6694C52.3905 23.9773 52.9386 24.1396 53.4981 24.1359C55.0202 24.1359 56.3088 23.2408 56.3088 21.0528V15.7514H55.0764V16.2487ZM53.5889 20.335C53.1399 20.2968 52.7215 20.0914 52.4167 19.7595C52.1118 19.4275 51.9427 18.9933 51.9427 18.5426C51.9427 18.092 52.1118 17.6577 52.4167 17.3258C52.7215 16.9939 53.1399 16.7885 53.5889 16.7503C54.4537 16.7503 55.1672 17.5113 55.1672 18.5534C55.1849 18.7757 55.1574 18.9991 55.0863 19.2105C55.0153 19.4218 54.9023 19.6165 54.754 19.783C54.6057 19.9494 54.4253 20.0841 54.2236 20.179C54.0219 20.2739 53.803 20.3269 53.5803 20.335H53.5889ZM70.5439 12.6294H67.4262V21.3209H68.7234V18.0302H70.5353C70.899 18.0448 71.2619 17.9857 71.6022 17.8566C71.9425 17.7274 72.2533 17.5308 72.5158 17.2786C72.7782 17.0265 72.9871 16.7238 73.1297 16.3889C73.2724 16.054 73.3459 15.6938 73.3459 15.3298C73.3459 14.9658 73.2724 14.6055 73.1297 14.2706C72.9871 13.9357 72.7782 13.6331 72.5158 13.3809C72.2533 13.1287 71.9425 12.9322 71.6022 12.803C71.2619 12.6739 70.899 12.6148 70.5353 12.6294H70.5439ZM70.5785 16.8195H68.7234V13.8401H70.5698C70.7722 13.8292 70.9747 13.8596 71.1649 13.9296C71.3551 13.9995 71.5291 14.1075 71.6762 14.2469C71.8234 14.3863 71.9405 14.5542 72.0206 14.7404C72.1007 14.9266 72.142 15.1271 72.142 15.3298C72.142 15.5325 72.1007 15.733 72.0206 15.9192C71.9405 16.1054 71.8234 16.2733 71.6762 16.4127C71.5291 16.5521 71.3551 16.66 71.1649 16.73C70.9747 16.7999 70.7722 16.8304 70.5698 16.8195H70.5785ZM78.5825 15.5698C78.1091 15.5423 77.6379 15.6538 77.227 15.8904C76.816 16.127 76.4831 16.4784 76.2691 16.9016L77.4193 17.3816C77.5343 17.1716 77.708 16.9996 77.9192 16.8867C78.1304 16.7738 78.3699 16.7249 78.6084 16.7459C79.2787 16.7459 79.9619 17.1481 79.9706 17.8616V17.9524C79.554 17.7302 79.0891 17.6144 78.6171 17.6151C77.3761 17.6151 76.1134 18.2983 76.1134 19.5739C76.1134 20.7371 77.1296 21.4895 78.2755 21.4895C78.6037 21.5071 78.9306 21.4361 79.222 21.2839C79.5133 21.1318 79.7584 20.9041 79.9316 20.6247H79.9749V21.295H81.2289V17.961C81.2289 16.4303 80.0743 15.5698 78.5825 15.5698ZM78.4268 20.3263C77.9944 20.3263 77.4107 20.1145 77.4107 19.5869C77.4107 18.9167 78.1501 18.6615 78.7857 18.6615C79.1996 18.6495 79.609 18.7496 79.9706 18.9513C79.9246 19.329 79.7433 19.6774 79.4603 19.9318C79.1773 20.1862 78.8117 20.3294 78.4312 20.335L78.4268 20.3263ZM85.7779 15.7514L84.2904 19.522H84.2471L82.7164 15.7514H81.3197L83.6331 21.0182L82.3142 23.9673H83.6677L87.2308 15.7514H85.7779ZM74.1027 21.3122H75.3999V12.6207H74.1027V21.3122Z" fill="#0B1C3A"/>
<path d="M6.98778 5.70674C6.75994 5.97952 6.64541 6.3293 6.6678 6.684V22.052C6.64541 22.4067 6.75994 22.7565 6.98778 23.0293L7.03967 23.0812L15.6491 14.4545V14.2513L7.03967 5.65918L6.98778 5.70674Z" fill="#5BC9F4"/>
<path d="M18.5163 17.3386L15.6494 14.4544V14.2511L18.5207 11.3799L18.5855 11.4145L21.9843 13.3474C22.9572 13.9009 22.9572 14.8003 21.9843 15.3538L18.5855 17.2867L18.5163 17.3386Z" fill="url(#paint0_linear_8536_50854)"/>
<path d="M18.5854 17.3043L15.6493 14.3682L7.00098 23.0165C7.32096 23.3538 7.86581 23.397 8.44524 23.0597L18.5984 17.2913" fill="url(#paint1_linear_8536_50854)"/>
<path d="M18.5857 11.4271L8.43255 5.66304C7.83581 5.32576 7.30827 5.369 6.98828 5.70628L15.6366 14.3546L18.5857 11.4271Z" fill="url(#paint2_linear_8536_50854)"/>
<path d="M31.6137 6.20008C31.3446 5.95642 30.995 5.82088 30.6321 5.81955C30.2158 5.81955 29.8165 5.98492 29.5222 6.27929C29.2278 6.57366 29.0624 6.97292 29.0624 7.38922C29.0624 7.80552 29.2278 8.20477 29.5222 8.49914C29.8165 8.79351 30.2158 8.95888 30.6321 8.95888C30.7902 8.97429 30.9497 8.95775 31.1013 8.91026C31.2528 8.86276 31.3933 8.78527 31.5143 8.68241C31.6353 8.57954 31.7344 8.4534 31.8057 8.31147C31.877 8.16954 31.9191 8.01472 31.9293 7.85622H30.7618V7.37624H32.5563C32.5563 8.81186 31.7909 9.49075 30.6234 9.49075C30.0831 9.46622 29.5731 9.23433 29.1994 8.8433C28.8257 8.45228 28.6172 7.93224 28.6172 7.39138C28.6172 6.85052 28.8257 6.33048 29.1994 5.93945C29.5731 5.54843 30.0831 5.31653 30.6234 5.292C31.1352 5.29048 31.6283 5.48372 32.0028 5.83252L31.6137 6.20008Z" fill="#0B1C3A"/>
<path d="M35.7428 5.33872V5.8533H33.8705V7.15055H35.505V7.66944H33.8705V8.90615H35.8034V9.42072H33.3213V5.33008L35.7428 5.33872Z" fill="#0B1C3A"/>
<path d="M39.3241 5.33887V5.86209H38.083V9.42951H37.5252V5.86209H36.2842V5.33887H39.3241Z" fill="#0B1C3A"/>
<path d="M41.9744 5.33887V9.42951H41.4209V5.33887H41.9744Z" fill="#0B1C3A"/>
<path d="M45.7409 5.33887V5.86209H44.4999V9.42951H43.9421V5.86209H42.6924V5.33887H45.7409Z" fill="#0B1C3A"/>
<path d="M49.6374 5.2913C50.0545 5.28443 50.4641 5.40183 50.8142 5.62853C51.1644 5.85524 51.4391 6.18101 51.6035 6.56436C51.7679 6.94771 51.8144 7.3713 51.7373 7.78121C51.6602 8.19112 51.4628 8.56881 51.1703 8.86618C50.8778 9.16356 50.5035 9.36717 50.0949 9.45111C49.6863 9.53504 49.262 9.49549 48.876 9.3375C48.49 9.1795 48.1597 8.91021 47.9272 8.56391C47.6947 8.2176 47.5705 7.80994 47.5705 7.39284C47.567 7.11882 47.6179 6.84683 47.7201 6.59257C47.8224 6.33832 47.9739 6.10682 48.1661 5.91144C48.3583 5.71606 48.5872 5.56067 48.8398 5.45423C49.0923 5.3478 49.3634 5.29242 49.6374 5.2913V5.2913ZM49.6374 8.95386C49.9492 8.9642 50.257 8.88115 50.5212 8.71536C50.7855 8.54957 50.9942 8.30861 51.1205 8.02339C51.2469 7.73817 51.2851 7.4217 51.2303 7.11459C51.1756 6.80748 51.0303 6.52374 50.8132 6.29977C50.596 6.0758 50.3169 5.92181 50.0116 5.85758C49.7064 5.79334 49.3889 5.82178 49.0999 5.93925C48.8109 6.05671 48.5636 6.25785 48.3897 6.51685C48.2158 6.77584 48.1233 7.08089 48.124 7.39284C48.1188 7.59525 48.154 7.79666 48.2277 7.98527C48.3013 8.17389 48.4118 8.34592 48.5528 8.49129C48.6937 8.63666 48.8622 8.75245 49.0485 8.83187C49.2347 8.9113 49.4349 8.95277 49.6374 8.95386V8.95386Z" fill="#0B1C3A"/>
<path d="M54.9817 9.42951L53.1179 6.3464V9.42951H52.5645V5.33887H53.1093L54.9557 8.39604V5.33887H55.5092V9.42951H54.9817Z" fill="#0B1C3A"/>
<defs>
<linearGradient id="paint0_linear_8536_50854" x1="21.353" y1="14.3679" x2="4.53634" y2="14.3679" gradientUnits="userSpaceOnUse">
<stop stop-color="#FEE000"/>
<stop offset="0.42" stop-color="#FBBC0E"/>
<stop offset="0.78" stop-color="#FAA418"/>
<stop offset="1" stop-color="#F99B1C"/>
</linearGradient>
<linearGradient id="paint1_linear_8536_50854" x1="16.9898" y1="15.9638" x2="1.17203" y2="31.7772" gradientUnits="userSpaceOnUse">
<stop stop-color="#EF4547"/>
<stop offset="1" stop-color="#C6186D"/>
</linearGradient>
<linearGradient id="paint2_linear_8536_50854" x1="1.10311" y1="-3.11066" x2="14.015" y2="9.80126" gradientUnits="userSpaceOnUse">
<stop stop-color="#279E6F"/>
<stop offset="0.04" stop-color="#2BA06F"/>
<stop offset="0.46" stop-color="#53B26C"/>
<stop offset="0.8" stop-color="#6BBD6A"/>
<stop offset="1" stop-color="#74C169"/>
</linearGradient>
</defs>
</svg>
