<svg id="Layer_1" data-name="Layer 1" xmlns="http://www.w3.org/2000/svg" viewBox="0 0 15.93 15.93">
  <g>
    <path class="cls-1" d="M8,0a8,8,0,1,0,8,8A8,8,0,0,0,8,0ZM8,15a7,7,0,1,1,7-7A7,7,0,0,1,8,15Z" transform="translate(-0.04 -0.03)"/>
    <path class="cls-1" d="M11.71,7.82a.26.26,0,0,0-.13-.08.32.32,0,0,0-.14,0h-3v-3a.37.37,0,0,0-.74,0v3h-3a.37.37,0,0,0,0,.74h3v3a.37.37,0,0,0,.74,0v-3h3a.32.32,0,0,0,.14,0,.26.26,0,0,0,.13-.08.36.36,0,0,0,.08-.12.5.5,0,0,0,0-.28A.36.36,0,0,0,11.71,7.82Z" transform="translate(-0.04 -0.03)"/>
  </g>
</svg>
