<svg width="8" height="8" viewBox="0 0 8 8" fill="none" xmlns="http://www.w3.org/2000/svg">
<path d="M7.6 3.6H4.4V0.4C4.4 0.293913 4.35786 0.192172 4.28284 0.117157C4.20783 0.0421427 4.10609 0 4 0C3.89391 0 3.79217 0.0421427 3.71716 0.117157C3.64214 0.192172 3.6 0.293913 3.6 0.4V3.6H0.4C0.293913 3.6 0.192172 3.64214 0.117157 3.71716C0.0421427 3.79217 0 3.89391 0 4C0 4.10609 0.0421427 4.20783 0.117157 4.28284C0.192172 4.35786 0.293913 4.4 0.4 4.4H3.6V7.6C3.6 7.70609 3.64214 7.80783 3.71716 7.88284C3.79217 7.95786 3.89391 8 4 8C4.10609 8 4.20783 7.95786 4.28284 7.88284C4.35786 7.80783 4.4 7.70609 4.4 7.6V4.4H7.6C7.65253 4.4 7.70454 4.38965 7.75307 4.36955C7.8016 4.34945 7.8457 4.31999 7.88284 4.28284C7.91999 4.2457 7.94945 4.2016 7.96955 4.15307C7.98965 4.10454 8 4.05253 8 4C8 3.94747 7.98965 3.89546 7.96955 3.84693C7.94945 3.7984 7.91999 3.7543 7.88284 3.71716C7.8457 3.68001 7.8016 3.65055 7.75307 3.63045C7.70454 3.61035 7.65253 3.6 7.6 3.6Z" fill="white"/>
</svg>
