<svg xmlns="http://www.w3.org/2000/svg" viewBox="0 0 24 24"><defs><style>.cls-1{fill:#f81734;}.cls-2{fill:#fff;stroke:#fff;stroke-width:0.1px;}</style></defs><g id="Layer_2" data-name="Layer 2"><g id="Layer_1-2" data-name="Layer 1"><rect class="cls-1" width="24" height="24" rx="4"/><path class="cls-2" d="M15.82,4.93v1L8.75,8.75H4.42a2.37,2.37,0,0,0-2.37,2.37v1.54A2.38,2.38,0,0,0,4.42,15h.77l1.17,4.07a.81.81,0,0,0,1,.56.82.82,0,0,0,.57-1h0L6.9,15H8.75l7.07,2.83v1a.82.82,0,1,0,1.64,0V4.93a.82.82,0,0,0-1.64,0ZM3.7,12.67V11.12a.72.72,0,0,1,.72-.72H8.08v3H4.42A.72.72,0,0,1,3.7,12.67Zm12.12,3.42L9.73,13.66V10.13L15.82,7.7Z"/><path class="cls-2" d="M21.13,11.07H19.58a.83.83,0,0,0,0,1.65h1.55a.83.83,0,0,0,0-1.65Z"/><path class="cls-2" d="M20,7h0l-1,.69h0a.81.81,0,0,0-.23,1.14.82.82,0,0,0,1.14.23h0l1-.69h0a.82.82,0,0,0,.23-1.14h0A.82.82,0,0,0,20,7Z"/><path class="cls-2" d="M19,16.11h0l1,.68h0a.81.81,0,0,0,1.14-.22.82.82,0,0,0-.23-1.14h0l-1-.69h0a.81.81,0,0,0-1.14.23A.82.82,0,0,0,19,16.11Z"/></g></g></svg>
