<svg id="Layer_1" data-name="Layer 1" xmlns="http://www.w3.org/2000/svg" viewBox="0 0 25.8 21.91">
   <defs>
      <style>.cls-1{fill:#000;}.cls-2{fill:#081a3e;}</style>
   </defs>
   <path class="cls-1"
         d="M3.37,5.64A1,1,0,0,1,3.76,7a8.61,8.61,0,0,0,7.55,12.72.89.89,0,0,1,.39.06A.78.78,0,0,1,12,20a1,1,0,0,1,.23.32,1,1,0,0,1,.07.38,1,1,0,0,1-.63.92,1.06,1.06,0,0,1-.39.06A10.54,10.54,0,0,1,.76,11.27,10.43,10.43,0,0,1,2.05,6a1,1,0,0,1,.58-.47A1,1,0,0,1,3.37,5.64Z"
         transform="translate(-0.36 -0.13)"/>
   <path class="cls-2"
         d="M2.9,5.52a1,1,0,0,1,.94.7A.94.94,0,0,1,3.76,7a8.61,8.61,0,0,0,7.55,12.72h0a1,1,0,0,1,.34.07A.78.78,0,0,1,12,20a1,1,0,0,1,.23.32,1,1,0,0,1,.07.38,1,1,0,0,1-.63.92,1,1,0,0,1-.34.06h0A10.54,10.54,0,0,1,.76,11.27,10.43,10.43,0,0,1,2.05,6a1,1,0,0,1,.58-.47l.27,0m0-.4a1.65,1.65,0,0,0-.38,0,1.36,1.36,0,0,0-.82.65A11,11,0,0,0,11.31,22h0a1.35,1.35,0,0,0,.52-.09,1.36,1.36,0,0,0,.47-.29,1.33,1.33,0,0,0,.31-.46,1.24,1.24,0,0,0,.11-.54,1.27,1.27,0,0,0-.11-.54,1.39,1.39,0,0,0-.31-.45,1.57,1.57,0,0,0-.47-.3,1.36,1.36,0,0,0-.48-.09h-.07a8.3,8.3,0,0,1-4-1.08,8.16,8.16,0,0,1-4.14-7,8.12,8.12,0,0,1,1-4.07,1.38,1.38,0,0,0,.12-1,1.42,1.42,0,0,0-.66-.82,1.45,1.45,0,0,0-.67-.17Z"
         transform="translate(-0.36 -0.13)"/>
   <path class="cls-1"
         d="M18.77,3.63a10.31,10.31,0,0,1,2.3,3.42,10.55,10.55,0,0,1,.8,4v3.58l2.24-2.22a1,1,0,0,1,.68-.27,1,1,0,0,1,.68.29,1,1,0,0,1,.28.68.94.94,0,0,1-.27.69L23,16.34a3,3,0,0,1-4.13,0l-2.53-2.46a1,1,0,0,1-.22-.32.85.85,0,0,1-.09-.38,1,1,0,0,1,.28-.7.87.87,0,0,1,.32-.22.94.94,0,0,1,.76,0,.87.87,0,0,1,.32.22l2.25,2.19v-3.6A8.61,8.61,0,0,0,7.07,3.6a.92.92,0,0,1-.36.13.85.85,0,0,1-.39,0,.94.94,0,0,1-.61-.46.81.81,0,0,1-.12-.37.86.86,0,0,1,0-.39,1.16,1.16,0,0,1,.18-.35,1,1,0,0,1,.31-.24A10.57,10.57,0,0,1,18.77,3.62Z"
         transform="translate(-0.36 -0.13)"/>
   <path class="cls-2"
         d="M11.31.53a9.69,9.69,0,0,1,1.42.1,10.54,10.54,0,0,1,6,3h0a10.31,10.31,0,0,1,2.3,3.42,10.55,10.55,0,0,1,.8,4v3.58l2.24-2.22a1,1,0,0,1,.67-.27h0a1,1,0,0,1,.68.29,1,1,0,0,1,.28.68.94.94,0,0,1-.27.69L23,16.34a2.94,2.94,0,0,1-2.06.84h0a2.93,2.93,0,0,1-2.06-.83l-2.53-2.46a1,1,0,0,1-.22-.32.85.85,0,0,1-.09-.38,1,1,0,0,1,.28-.7.87.87,0,0,1,.32-.22,1,1,0,0,1,.38-.08h0a1,1,0,0,1,.38.08.87.87,0,0,1,.32.22l2.25,2.19v-3.6a8.6,8.6,0,0,0-8.55-8.59h0A8.6,8.6,0,0,0,7.07,3.6a.92.92,0,0,1-.36.13H6.56l-.24,0a.94.94,0,0,1-.61-.46.81.81,0,0,1-.12-.37.86.86,0,0,1,0-.39,1.16,1.16,0,0,1,.18-.35,1,1,0,0,1,.31-.24A10.55,10.55,0,0,1,11.31.53m0-.4a11,11,0,0,0-5.4,1.42,1.33,1.33,0,0,0-.41.34,1.29,1.29,0,0,0-.26.49,1.23,1.23,0,0,0,0,.54,1.38,1.38,0,0,0,.17.53,1.29,1.29,0,0,0,.36.41,1.22,1.22,0,0,0,.5.24,1.27,1.27,0,0,0,.34,0h.21a1.37,1.37,0,0,0,.51-.19,8.18,8.18,0,0,1,4-1h0A8.14,8.14,0,0,1,15.44,4a8.32,8.32,0,0,1,3,3,8.23,8.23,0,0,1,1.09,4.08v2.65L17.94,12.2a1.37,1.37,0,0,0-.44-.3,1.49,1.49,0,0,0-.54-.11,1.41,1.41,0,0,0-.54.11,1.25,1.25,0,0,0-.45.31,1.16,1.16,0,0,0-.29.46,1.39,1.39,0,0,0-.1.53,1.63,1.63,0,0,0,.12.54,1.55,1.55,0,0,0,.32.44l2.52,2.46a3.37,3.37,0,0,0,4.69,0l2.53-2.5a1.38,1.38,0,0,0,0-1.93,1.4,1.4,0,0,0-.95-.41h0a1.4,1.4,0,0,0-1,.38l-1.56,1.55V11.09a10.89,10.89,0,0,0-3.19-7.72l0,0A11.08,11.08,0,0,0,12.78.23a10.27,10.27,0,0,0-1.47-.1Z"
         transform="translate(-0.36 -0.13)"/>
</svg>
