<svg width="33" height="32" viewBox="0 0 33 32" fill="none" xmlns="http://www.w3.org/2000/svg">
<path d="M15.8617 25.5001C22.4186 25.5001 27.7665 20.1523 27.7665 13.5954C27.7665 7.03847 22.4186 1.69068 15.8617 1.69068C9.30482 1.69068 3.95703 7.03847 3.95703 13.5954C3.95703 20.1523 9.30482 25.5001 15.8617 25.5001Z" stroke="#697586" stroke-width="1.95" stroke-miterlimit="22.926" stroke-linecap="round" stroke-linejoin="round"/>
<path d="M10.6211 11.3687L11.7499 8.56811C12.0137 7.91339 12.6756 7.56871 13.3815 7.56871H18.2992C19.0049 7.56871 19.6666 7.91321 19.9306 8.56764L20.9886 11.1906" stroke="#697586" stroke-width="1.65" stroke-miterlimit="22.926" stroke-linecap="round" stroke-linejoin="round"/>
<path d="M11.4453 11.3093H20.2341C21.7544 11.3093 22.9944 12.5618 22.9944 14.0973V16.6989H8.68506V14.0973C8.68506 12.5617 9.92505 11.3093 11.4453 11.3093Z" stroke="#697586" stroke-width="1.65" stroke-miterlimit="22.926" stroke-linecap="round" stroke-linejoin="round"/>
<path d="M8.68506 14.0042H10.2008" stroke="#697586" stroke-width="1.65" stroke-miterlimit="22.926" stroke-linecap="round" stroke-linejoin="round"/>
<path d="M9.31494 10.8344H10.4153" stroke="#697586" stroke-width="1.65" stroke-miterlimit="22.926" stroke-linecap="round" stroke-linejoin="round"/>
<path d="M21.2661 10.8344H22.3665" stroke="#697586" stroke-width="1.65" stroke-miterlimit="22.926" stroke-linecap="round" stroke-linejoin="round"/>
<path d="M8.68506 15.8219V17.9594" stroke="#697586" stroke-width="1.65" stroke-miterlimit="22.926" stroke-linecap="round" stroke-linejoin="round"/>
<path d="M22.9946 15.8219V17.9594" stroke="#697586" stroke-width="1.65" stroke-miterlimit="22.926" stroke-linecap="round" stroke-linejoin="round"/>
<path d="M21.4507 14.0042H22.9664" stroke="#697586" stroke-width="1.65" stroke-miterlimit="22.926" stroke-linecap="round" stroke-linejoin="round"/>
<path d="M13.5537 14.0042H18.1255" stroke="#697586" stroke-width="1.65" stroke-miterlimit="22.926" stroke-linecap="round" stroke-linejoin="round"/>
<line x1="22.9393" y1="23" x2="28.4165" y2="28.4772" stroke="#697586" stroke-width="1.8" stroke-linecap="round"/>
</svg>
