<svg id="Layer_1" data-name="Layer 1" xmlns="http://www.w3.org/2000/svg" viewBox="0 0 11.51 11.51">
  <path class="cls-1" d="M12.2,11.18a1.07,1.07,0,0,0-.15-.22L9.32,8.25A4.77,4.77,0,0,0,10.23,6,4.73,4.73,0,0,0,8.06,1.37,4.68,4.68,0,0,0,5.51.63h0a4.8,4.8,0,0,0-2.37.63A4.66,4.66,0,0,0,1.4,3,4.72,4.72,0,0,0,.75,5.36a4.77,4.77,0,0,0,.63,2.39.66.66,0,0,0,.41.3A.67.67,0,0,0,2.29,8a.69.69,0,0,0,.31-.4.61.61,0,0,0-.05-.51,3.4,3.4,0,0,1,.9-4.38A3.41,3.41,0,0,1,8.91,5.16,3.4,3.4,0,0,1,3.84,8.35a.69.69,0,0,0-.51,0,.64.64,0,0,0-.39.31.67.67,0,0,0,.24.92,4.77,4.77,0,0,0,5.17-.33l2.74,2.71a.6.6,0,0,0,.22.16.73.73,0,0,0,.53,0,.72.72,0,0,0,.37-.37.63.63,0,0,0,0-.27A.75.75,0,0,0,12.2,11.18Z" transform="translate(-0.75 -0.63)"/>
</svg>
