<svg width="28" height="28" viewBox="0 0 28 28" fill="none" xmlns="http://www.w3.org/2000/svg">
<path fill-rule="evenodd" clip-rule="evenodd" d="M14.3904 2.33334C15.6891 2.33334 22.5036 4.67287 23.4057 5.57498C24.1577 6.32692 24.1462 6.93444 24.0935 9.84595C24.0729 11.0128 24.0442 12.6027 24.0442 14.8035C24.0442 22.6921 15.0231 25.5142 14.6391 25.63C14.5577 25.6552 14.474 25.6667 14.3904 25.6667C14.3067 25.6667 14.223 25.6552 14.1416 25.63C13.7576 25.5142 4.73654 22.6921 4.73654 14.8035C4.73654 12.6062 4.70789 11.0163 4.68726 9.84939C4.67784 9.32886 4.66974 8.88192 4.66707 8.49459L4.66675 8.05751C4.67658 6.62166 4.81134 6.13894 5.37616 5.57498C6.27598 4.67287 13.0905 2.33334 14.3904 2.33334ZM14.3904 4.05274C13.4183 4.05274 7.28583 6.2123 6.57859 6.80262C6.36997 7.01239 6.36195 7.3769 6.40665 9.8173C6.42728 10.9934 6.45594 12.5913 6.45594 14.8035C6.45594 20.7653 13.0149 23.412 14.3892 23.8991C15.7624 23.4097 22.3248 20.7481 22.3248 14.8035C22.3248 12.589 22.3535 10.9899 22.3752 9.81386C22.4188 7.37575 22.4108 7.01124 22.1895 6.79116C21.4961 6.2123 15.3624 4.05274 14.3904 4.05274ZM18.6562 10.7463C18.992 11.0822 18.992 11.6267 18.6562 11.9625L14.1881 16.4318C14.0597 16.5611 13.8939 16.6449 13.7159 16.6733L13.5805 16.684C13.3524 16.684 13.1335 16.5934 12.9719 16.4318L10.8031 14.2608C10.4684 13.9249 10.4684 13.3793 10.8043 13.0446C11.139 12.7087 11.6846 12.7087 12.0205 13.0446L13.5805 14.607L17.4411 10.7463C17.777 10.4105 18.3203 10.4105 18.6562 10.7463Z" fill="#32B878"/>
</svg>
