<svg width="34" height="34" viewBox="0 0 34 34" fill="none" xmlns="http://www.w3.org/2000/svg">
   <circle cx="17" cy="17" r="17" fill="#2970FF"/>
   <rect width="20" height="20" transform="translate(7 7)" fill="#2970FF"/>
   <path d="M22.892 14.0925L15.7587 10.5258C10.967 8.12584 9.00038 10.0925 11.4004 14.8842L12.1254 16.3342C12.3337 16.7592 12.3337 17.2508 12.1254 17.6758L11.4004 19.1175C9.00038 23.9092 10.9587 25.8758 15.7587 23.4758L22.892 19.9092C26.092 18.3092 26.092 15.6925 22.892 14.0925ZM20.2004 17.6258H15.7004C15.3587 17.6258 15.0754 17.3425 15.0754 17.0008C15.0754 16.6592 15.3587 16.3758 15.7004 16.3758H20.2004C20.542 16.3758 20.8254 16.6592 20.8254 17.0008C20.8254 17.3425 20.542 17.6258 20.2004 17.6258Z" fill="white"/>
</svg>
