<svg width="19" height="20" viewBox="0 0 19 20" fill="none" xmlns="http://www.w3.org/2000/svg">
<path fill-rule="evenodd" clip-rule="evenodd" d="M18.2661 18.8281H16.7212V0.586426C16.7212 0.430664 16.6592 0.281738 16.5493 0.171875C16.4395 0.0620117 16.2905 0 16.1353 0H2.72021C2.56494 0 2.41553 0.0620117 2.30566 0.171875C2.1958 0.281738 2.13428 0.430664 2.13428 0.586426V18.8281H0.585938C0.430664 18.8281 0.281738 18.8901 0.171875 19C0.0620117 19.1099 0 19.2588 0 19.4141C0 19.5698 0.0620117 19.7188 0.171875 19.8286C0.20166 19.8584 0.233887 19.8848 0.268555 19.9072C0.303223 19.9292 0.339844 19.9478 0.37793 19.9619C0.416504 19.9766 0.457031 19.9873 0.498047 19.9932C0.526855 19.9976 0.556152 20 0.585938 20H18.2661C18.4214 20 18.5708 19.9385 18.6807 19.8286C18.7905 19.7188 18.8521 19.5698 18.8521 19.4141C18.8521 19.2588 18.7905 19.1099 18.6807 19C18.5708 18.8901 18.4214 18.8281 18.2661 18.8281ZM7.4292 18.8281V14.834H11.4243V18.8291L7.4292 18.8281ZM12.5952 18.8281V14.248C12.5952 14.0928 12.5332 13.9438 12.4233 13.834C12.3813 13.792 12.3335 13.7568 12.2817 13.7295C12.1982 13.6855 12.105 13.6621 12.0093 13.6621H6.84424C6.68896 13.6621 6.53955 13.7241 6.42969 13.834C6.31982 13.9438 6.2583 14.0928 6.2583 14.248V18.8291H3.30615V1.17236H15.5493V18.8281H12.5952ZM8.16992 2.59033H5.29932C5.23291 2.59033 5.16797 2.60156 5.10645 2.62305C5.06934 2.63574 5.03369 2.65234 5 2.67236C4.9585 2.69727 4.91943 2.72705 4.88477 2.76172C4.7749 2.87158 4.71338 3.021 4.71338 3.17627V6.04736C4.71338 6.12891 4.73047 6.20898 4.7627 6.28271C4.7915 6.34863 4.83252 6.40918 4.88477 6.46143C4.99463 6.57129 5.14355 6.6333 5.29932 6.6333H8.16992C8.29443 6.6333 8.41455 6.59326 8.51416 6.52148C8.52783 6.51172 8.54102 6.50098 8.55371 6.48975L8.58447 6.46143C8.69434 6.35156 8.75635 6.20264 8.75635 6.04736V3.17627C8.75635 3.08496 8.73486 2.99561 8.69434 2.91455C8.6665 2.8584 8.62939 2.80664 8.58447 2.76172C8.47461 2.65186 8.32568 2.59033 8.16992 2.59033ZM7.58398 5.46143H5.88428V3.76123H7.58398V5.46143ZM10.687 2.59033H13.5581C13.7134 2.59033 13.8628 2.65186 13.9727 2.76172C14.0825 2.87158 14.144 3.021 14.144 3.17627V6.04736C14.144 6.20264 14.0825 6.35156 13.9727 6.46143C13.8628 6.57129 13.7134 6.6333 13.5581 6.6333H10.687C10.5317 6.6333 10.3828 6.57129 10.2729 6.46143C10.1631 6.35156 10.1011 6.20264 10.1011 6.04736V3.17627C10.1011 3.021 10.1631 2.87158 10.2729 2.76172C10.3828 2.65186 10.5317 2.59033 10.687 2.59033ZM11.272 5.46143H12.9722V3.76123H11.272V5.46143ZM8.16992 8.04541H5.29932C5.14355 8.04541 4.99463 8.10693 4.88477 8.2168C4.82861 8.27295 4.78467 8.33984 4.75537 8.4126C4.72803 8.48145 4.71338 8.55566 4.71338 8.63135V11.502C4.71338 11.5791 4.72852 11.6553 4.75781 11.7266C4.78711 11.7974 4.83057 11.8623 4.88477 11.9165C4.93896 11.9712 5.00391 12.0142 5.07471 12.0435C5.146 12.0732 5.22217 12.0884 5.29932 12.0884H8.16992C8.20117 12.0884 8.23193 12.0859 8.26221 12.0811C8.30762 12.0737 8.35205 12.061 8.39453 12.0435C8.42529 12.0308 8.45508 12.0156 8.48291 11.998C8.51953 11.9746 8.55371 11.9473 8.58447 11.9165C8.63916 11.8623 8.68213 11.7974 8.71143 11.7266C8.74121 11.6553 8.75635 11.5791 8.75635 11.502V8.63135C8.75635 8.47559 8.69434 8.32666 8.58447 8.2168C8.47461 8.10693 8.32568 8.04541 8.16992 8.04541ZM7.58398 10.916H5.88428V9.21631H7.58398V10.916ZM10.687 8.04541H13.5581C13.7134 8.04541 13.8628 8.10693 13.9727 8.2168C14.0825 8.32666 14.144 8.47559 14.144 8.63135V11.502C14.144 11.5791 14.1289 11.6553 14.0996 11.7266C14.0703 11.7974 14.0269 11.8623 13.9727 11.9165C13.918 11.9712 13.8535 12.0142 13.7822 12.0435C13.7417 12.0605 13.6997 12.0728 13.6562 12.0801C13.624 12.0854 13.5913 12.0884 13.5581 12.0884H10.687C10.6104 12.0884 10.5342 12.0732 10.4629 12.0435C10.3916 12.0142 10.3271 11.9712 10.2729 11.9165C10.2183 11.8623 10.1753 11.7974 10.146 11.7266C10.1162 11.6553 10.1011 11.5791 10.1011 11.502V8.63135C10.1011 8.47559 10.1631 8.32666 10.2729 8.2168C10.3828 8.10693 10.5317 8.04541 10.687 8.04541ZM11.272 10.916H12.9722V9.21631H11.272V10.916Z" fill="black"/>
</svg>
