<?xml version="1.0" encoding="UTF-8"?>
<!DOCTYPE svg PUBLIC "-//W3C//DTD SVG 1.1//EN" "http://www.w3.org/Graphics/SVG/1.1/DTD/svg11.dtd">
<!-- Creator: CorelDRAW 2021.5 -->
<svg xmlns="http://www.w3.org/2000/svg" xml:space="preserve" width="10.6667in" height="8in" version="1.1" shape-rendering="geometricPrecision" text-rendering="geometricPrecision" image-rendering="optimizeQuality" fill-rule="evenodd" clip-rule="evenodd"
viewBox="0 0 10666.66 8000"
 xmlns:xlink="http://www.w3.org/1999/xlink"
 xmlns:xodm="http://www.corel.com/coreldraw/odm/2003">
 <g id="Layer_x0020_1">
  <metadata id="CorelCorpID_0Corel-Layer"/>
  <polygon fill="none" points="-0,0 10666.66,0 10666.66,8000 -0,8000 "/>
  <g id="_1654301975168">
   <path fill="black" fill-rule="nonzero" d="M5891.32 7238.5c-35.95,55.72 -71.9,111.44 -109.65,165.37 -7.19,8.99 -25.16,21.57 -30.56,17.98 -10.79,-7.19 -23.37,-23.37 -21.57,-34.15 5.39,-48.54 10.79,-97.07 25.16,-142 35.95,-109.65 77.29,-215.7 116.84,-325.35 1.8,-3.59 3.59,-8.99 5.39,-12.58 71.9,-149.19 140.21,-301.98 217.5,-449.37 109.65,-210.3 228.28,-417.01 341.52,-623.72 170.76,-314.56 339.72,-629.12 514.08,-941.89 80.89,-145.59 167.17,-287.59 251.65,-431.39 16.18,-26.96 30.56,-53.93 39.55,-82.69 -95.27,88.08 -185.14,181.55 -285.8,264.23 -113.24,91.68 -235.47,176.15 -355.91,258.84 -48.54,34.15 -104.26,61.12 -158.18,84.48 -39.55,16.18 -84.48,19.77 -125.83,28.76 -107.85,23.37 -215.7,46.74 -323.55,73.7 -53.93,12.58 -111.44,-8.99 -152.79,-41.34 -100.66,-79.09 -84.48,-188.73 -86.28,-294.79 0,-43.14 0,-86.28 0,-125.83 -73.7,70.1 -143.8,140.21 -215.7,206.71 -48.53,44.94 -73.7,46.73 -124.02,12.58 -50.33,61.12 -98.86,124.03 -152.79,181.55 -37.75,41.34 -82.69,79.09 -125.83,116.84 -25.17,21.57 -73.7,8.99 -84.48,-21.57 -10.79,-32.36 -17.98,-68.3 -17.98,-100.66 3.59,-124.02 37.75,-242.66 79.09,-359.5 3.59,-7.19 5.39,-16.17 0,-30.56 -8.99,8.98 -21.57,16.17 -28.76,28.76 -32.36,64.71 -57.52,131.22 -93.46,192.33 -64.71,107.85 -134.81,210.31 -203.12,316.36 -23.37,35.95 -50.33,68.3 -75.5,102.45 -26.96,34.15 -59.31,50.33 -91.67,34.15 -86.28,134.81 -170.76,266.02 -258.84,397.24 -34.15,50.33 -70.11,98.86 -109.65,145.59 -32.36,37.75 -70.11,70.11 -111.44,98.86 -34.15,23.37 -97.07,-5.39 -102.45,-50.33 -8.99,-59.31 -16.18,-118.64 -8.99,-177.95 16.17,-152.79 68.3,-296.58 125.82,-438.59 32.36,-80.89 64.71,-161.78 97.07,-244.46 1.8,-5.39 -1.8,-12.58 -5.39,-28.76 -43.14,64.71 -80.89,120.43 -120.43,177.95 -32.36,46.73 -64.71,93.47 -97.07,142 -62.91,91.67 -127.62,183.35 -186.94,276.81 -66.51,104.26 -129.42,212.11 -195.93,316.36 -136.61,210.3 -275.02,420.61 -411.63,630.92 -86.28,133.01 -170.76,267.83 -260.64,399.05 -71.9,106.05 -147.39,210.3 -226.48,312.76 -28.76,35.95 -70.11,61.12 -107.85,88.08 -37.75,26.96 -73.7,19.77 -106.05,-14.39 -61.11,-66.51 -102.45,-145.59 -131.22,-231.87 -19.77,-61.11 -32.36,-125.82 -50.33,-197.72 -28.76,21.57 -55.72,43.14 -82.69,64.71 -127.62,104.26 -251.65,213.9 -384.66,310.96 -127.62,93.47 -260.64,177.96 -395.44,257.04 -133.01,77.29 -273.22,143.8 -411.63,208.51 -73.7,34.15 -152.79,50.33 -237.27,46.73 -59.31,-3.59 -122.23,7.19 -177.95,-7.19 -37.74,-8.99 -77.29,-46.73 -98.86,-80.88 -106.05,-172.56 -66.51,-366.69 -57.52,-551.83 5.39,-134.81 25.17,-267.83 52.13,-400.84 35.95,-176.15 68.3,-354.11 136.61,-524.86 41.34,-102.46 64.71,-213.9 104.26,-318.15 41.34,-111.44 88.08,-222.89 136.61,-332.54 52.13,-118.64 106.05,-239.07 167.16,-352.31 106.05,-197.72 213.9,-393.65 330.74,-584.18 89.87,-147.39 188.74,-289.4 291.2,-427.8 50.33,-68.3 120.43,-120.43 183.35,-179.75 44.94,-41.34 89.87,-82.69 138.41,-120.43 97.07,-75.5 203.11,-131.22 332.54,-115.04 84.48,10.79 185.14,111.44 190.53,199.52 5.4,97.07 3.59,192.33 5.4,289.4 0,7.19 3.59,12.58 12.58,21.57 14.38,-52.13 28.76,-106.05 43.14,-158.18 23.37,-82.69 44.94,-167.17 71.9,-248.06 55.72,-165.37 109.65,-330.73 174.36,-490.71 89.87,-221.09 185.14,-440.38 284,-657.88 129.42,-284 282.21,-555.42 452.97,-814.26 113.24,-172.56 233.67,-343.32 363.09,-506.89 134.81,-170.76 273.22,-339.72 424.21,-496.11 115.04,-120.43 253.44,-219.3 381.07,-325.35 185.14,-152.79 402.64,-246.26 616.54,-343.31 37.74,-17.98 80.89,-21.57 120.43,-32.36 32.36,-8.99 66.51,-23.37 98.86,-26.96 143.8,-14.38 287.6,-10.79 413.42,66.51 77.29,48.54 134.81,120.43 168.96,208.51 61.12,161.78 66.51,327.14 37.75,492.51 -23.37,145.59 -52.13,292.99 -88.08,436.79 -25.16,98.86 -68.3,194.13 -102.45,291.2 -17.98,52.13 -30.56,107.85 -53.93,159.98 -116.84,251.65 -230.08,503.3 -354.11,751.35 -75.5,150.99 -163.57,296.59 -251.65,440.39 -64.71,107.85 -133.01,215.7 -206.71,318.15 -127.62,176.15 -267.83,343.32 -438.59,481.72 -91.67,73.7 -194.13,131.22 -292.99,194.13 -12.58,8.99 -34.15,14.38 -46.74,10.79 -53.93,-14.38 -68.3,16.18 -88.08,57.52 -116.83,233.68 -235.47,467.35 -354.11,699.22 -133.01,258.84 -285.8,505.09 -449.37,744.17 -109.65,159.98 -215.7,321.74 -341.52,469.14 -172.56,203.11 -359.5,393.65 -541.05,587.78 -71.9,77.29 -145.59,150.99 -215.7,228.28 -8.98,8.99 -16.17,23.37 -16.17,35.95 8.99,129.42 48.53,248.06 116.84,359.5 16.17,25.16 34.15,50.33 55.72,70.1 23.37,21.57 48.53,14.38 73.7,-3.59 106.05,-80.89 174.36,-192.33 248.06,-298.38 89.87,-133.02 177.95,-266.03 266.03,-400.84 70.1,-107.85 140.21,-215.7 210.3,-323.55 82.69,-125.82 165.37,-249.85 246.26,-375.67 71.9,-111.44 136.61,-224.68 210.31,-334.33 125.82,-185.14 255.24,-368.49 382.86,-553.63 57.52,-82.69 115.04,-167.17 163.57,-255.24 41.34,-73.7 68.3,-154.58 106.05,-228.28 53.93,-104.26 113.24,-206.71 170.76,-309.17 52.13,-91.67 98.86,-185.14 158.18,-269.63 70.1,-97.07 156.38,-185.14 230.08,-280.41 25.17,-32.36 50.33,-48.54 88.08,-57.52 32.36,-7.19 43.14,3.59 43.14,32.36 0,14.38 0,30.56 -7.19,43.14 -55.72,97.07 -113.24,194.13 -172.56,291.2 -48.53,77.29 -98.86,152.79 -149.19,226.48 -32.36,48.54 -68.3,95.27 -104.26,143.8 -84.48,111.44 -167.16,222.89 -253.44,330.74 -86.28,107.85 -138.41,230.08 -188.74,355.91 -32.36,80.89 -66.51,159.98 -95.27,242.66 -43.14,122.23 -86.28,244.46 -122.23,370.28 -25.16,86.28 -26.96,176.15 16.18,262.43 75.5,-34.15 138.41,-79.09 183.35,-142 80.89,-115.04 161.78,-231.87 235.47,-350.51 46.73,-73.7 75.5,-154.58 98.86,-240.86 44.94,-163.57 109.65,-323.55 172.56,-481.72 48.53,-125.83 104.26,-248.06 156.38,-372.08 8.99,-19.77 21.57,-35.95 32.36,-55.72 5.39,-7.19 12.58,-16.18 12.58,-23.37 0,-14.38 -8.99,-37.74 -3.59,-44.94 34.15,-32.36 71.9,-62.91 107.85,-93.46 5.39,1.8 10.79,3.59 16.17,7.19 -14.38,50.33 -25.16,104.26 -43.14,152.79 -64.71,165.37 -131.22,330.74 -201.31,496.11 -52.13,124.02 -107.85,246.26 -163.57,368.49 -12.58,25.16 -30.56,48.53 -43.14,73.7 -5.39,10.79 -3.59,25.16 -3.59,37.74 5.39,3.59 12.58,5.39 17.98,8.99 28.76,-35.95 59.31,-73.7 88.08,-109.65 19.77,-23.37 26.96,-53.93 66.51,-62.91 19.77,-5.39 34.15,-46.73 48.53,-73.7 44.94,-80.89 88.08,-161.78 131.22,-242.66 32.36,-61.12 59.31,-125.83 91.67,-186.94 75.5,-142 152.79,-282.21 230.08,-422.41 5.39,-8.99 19.77,-12.58 30.56,-17.98 3.59,1.8 7.19,5.39 10.79,7.19 -5.39,19.77 -8.99,39.54 -17.98,57.52 -30.56,66.51 -64.71,129.42 -91.67,197.72 -41.34,102.45 -82.69,204.92 -115.04,309.17 -35.95,115.04 -59.31,233.67 -59.31,355.91 0,14.38 8.99,28.76 14.38,44.94 12.58,-5.39 28.76,-5.39 39.55,-14.38 52.13,-44.94 102.46,-91.67 152.79,-136.61 1.8,-1.8 1.8,-3.59 3.59,-3.59 98.86,-57.52 116.84,-154.58 134.81,-255.24 28.76,-165.37 97.07,-314.56 186.94,-454.77 32.36,-50.33 66.51,-98.86 100.66,-149.19 8.99,-12.58 19.77,-25.17 32.36,-30.56 12.58,-5.39 30.56,-3.59 44.94,-5.39 0,14.38 3.59,28.76 -1.8,41.34 -91.67,188.74 -185.14,377.48 -278.61,566.21 -23.37,48.53 -66.51,93.46 -43.14,158.17 70.11,-14.38 104.26,-71.89 152.79,-115.04 28.76,-26.96 55.72,-55.72 82.69,-82.69 34.15,-34.15 55.72,-70.1 71.9,-118.64 25.17,-79.09 71.9,-152.79 113.24,-226.49 21.57,-39.54 48.53,-77.29 77.29,-111.44 19.77,-25.17 46.73,-43.14 75.5,-59.31 -43.14,77.29 -86.28,152.79 -125.82,230.08 -39.55,77.29 -79.09,156.39 -109.65,239.07 -14.38,41.34 -10.79,89.87 -12.58,134.81 -1.8,62.91 -3.59,127.62 0,192.33 3.59,77.29 111.44,159.98 188.73,143.8 80.89,-17.98 161.78,-39.55 242.67,-59.31 41.34,-8.99 82.69,-14.38 124.02,-23.37 34.15,-7.19 70.1,-10.79 98.86,-26.96 89.87,-50.33 183.35,-98.86 266.02,-159.98 106.05,-79.09 208.51,-165.37 305.57,-255.24 107.85,-97.07 215.7,-194.13 310.97,-301.98 64.71,-75.5 109.65,-168.97 161.78,-253.44 -3.59,-3.59 -7.19,-7.19 -10.79,-12.58 -32.36,5.39 -66.51,7.19 -98.86,14.38 -88.08,16.18 -174.36,35.95 -262.43,48.54 -79.09,10.79 -159.98,21.57 -239.07,17.98 -53.93,-1.8 -107.85,-23.37 -159.98,-39.55 -26.96,-8.99 -23.37,-57.52 10.79,-79.09 62.91,-41.34 127.62,-84.48 194.13,-116.84 104.26,-52.13 212.1,-97.07 318.15,-145.59 179.74,-82.69 359.5,-167.17 537.44,-251.65 23.37,-10.79 44.94,-35.95 59.31,-59.31 142,-255.24 280.41,-512.28 420.61,-767.53 124.03,-222.89 249.85,-443.98 375.68,-665.07 52.13,-89.87 102.46,-181.55 158.18,-271.42 68.3,-109.65 136.61,-217.5 208.51,-323.55 88.08,-129.42 172.56,-264.23 273.22,-384.66 107.85,-127.62 213.9,-260.64 357.7,-354.11 16.18,-10.79 37.75,-10.79 57.52,-16.18 3.59,17.98 12.58,37.74 7.19,53.93 -12.58,48.53 -26.96,97.07 -50.33,140.2 -86.28,172.56 -176.15,343.32 -267.83,514.08 -82.69,152.79 -167.16,301.98 -253.44,452.97 -55.72,97.07 -115.04,192.33 -170.76,289.4 -70.1,122.23 -138.41,248.06 -210.3,370.28 -44.94,75.5 -95.27,145.59 -143.8,219.29 -35.95,53.93 -68.3,109.65 -104.26,163.57 -64.71,97.07 -133.01,192.33 -197.72,289.4 -21.57,32.36 -39.55,68.3 -64.71,113.24 37.74,-21.57 70.1,-37.75 100.66,-55.72 154.58,-86.28 309.17,-170.76 461.95,-260.64 248.06,-147.39 494.31,-300.18 742.36,-445.78 93.47,-55.72 194.13,-97.07 291.2,-145.59 70.1,-34.15 143.8,-66.51 210.3,-106.05 41.34,-25.17 82.69,-25.17 120.43,-7.19 12.58,5.39 23.37,44.94 16.18,62.91 -8.99,25.17 -30.56,48.54 -52.13,66.51 -102.45,91.67 -228.28,147.39 -341.52,221.09 -172.56,109.65 -343.31,226.49 -499.7,359.5 -172.56,145.59 -332.54,310.96 -490.71,472.74 -134.84,118.58 -258.86,262.39 -384.69,402.59 -10.79,12.58 -21.57,25.16 -30.56,52.13 28.76,0 55.72,0 84.48,0 55.72,1.8 109.65,3.59 165.37,5.39 59.31,1.8 118.64,3.59 176.15,10.79 57.52,7.19 113.24,17.98 168.96,34.15 61.11,17.98 122.23,37.74 177.95,64.71 73.7,35.95 86.28,106.05 21.57,156.38 -88.08,70.11 -181.55,138.41 -280.41,192.33 -154.58,82.69 -314.56,156.38 -474.54,228.28 -143.8,64.71 -289.4,124.02 -434.99,179.75 -115.04,43.14 -231.87,77.29 -348.71,116.83 -30.56,10.79 -64.71,26.96 -84.48,50.33 -62.91,75.5 -120.43,156.39 -185.14,242.67 34.15,10.79 64.71,23.37 97.07,28.76 77.29,16.18 154.58,30.56 231.87,44.94 109.65,21.57 217.5,44.94 327.14,66.51 88.08,17.98 177.95,34.15 266.03,50.33 3.59,0 8.99,0 14.38,1.8 64.71,19.77 129.42,39.54 194.13,59.31 5.39,1.8 10.79,8.99 26.96,23.37 -95.26,-12.58 -177.95,-21.57 -258.83,-34.15 -68.3,-10.79 -136.61,-23.37 -204.92,-35.95 -124.03,-21.57 -246.26,-43.14 -370.28,-64.71 -109.65,-19.77 -219.29,-44.94 -328.94,-64.71 -16.18,-3.59 -43.14,7.19 -53.93,21.57 -44.94,55.72 -84.48,116.84 -125.82,174.36 -55.72,75.5 -111.44,149.19 -167.17,224.68 -84.48,115.04 -170.76,228.28 -251.65,346.92 -109.65,159.98 -213.9,321.74 -319.96,483.52 -115.04,176.15 -228.28,352.3 -343.31,528.46 -66.51,102.44 -136.61,203.1 -203.12,303.76 3.59,-17.98 7.19,-39.55 16.18,-57.52 46.73,-86.28 93.47,-172.56 142,-257.04 34.15,-59.31 71.9,-115.04 109.65,-172.56 80.89,-120.43 161.78,-240.86 242.66,-361.3 44.94,-68.3 89.87,-134.81 136.61,-203.11 52.13,-75.5 106.05,-150.99 156.39,-228.28 52.13,-77.29 100.66,-154.58 152.79,-231.87 28.76,-43.14 57.52,-84.48 88.08,-125.83 71.9,-95.27 145.6,-186.94 213.9,-282.21 43.14,-59.31 80.88,-122.23 122.23,-188.73 -14.38,-5.4 -30.56,-14.39 -48.53,-21.57 -75.5,-34.15 -152.79,-68.3 -228.28,-106.05 -25.17,-12.58 -39.55,-12.58 -52.13,10.79 -39.55,73.7 -80.89,147.39 -120.43,222.89 -62.91,116.83 -124.03,235.47 -190.54,350.51 -79.09,136.61 -143.8,280.41 -235.47,409.83 -14.38,19.77 -26.96,39.54 -37.74,59.31 -66.51,125.82 -133.02,251.65 -195.93,379.27 -86.28,174.36 -170.76,346.92 -249.85,524.87 -41.34,91.67 -68.3,190.53 -102.46,284 -5.39,16.18 -12.58,32.36 -19.77,50.33 39.53,-17.98 70.09,-37.74 100.65,-55.72zm-377.48 -5877.79c-3.59,1.8 -7.19,3.59 -8.99,5.39 8.99,17.98 19.77,35.95 25.17,46.74 -16.18,17.98 -30.56,30.56 -39.55,44.94 -44.94,91.67 -91.67,183.35 -133.01,278.61 -82.69,183.35 -163.57,368.49 -244.46,551.83 -133.01,300.18 -264.23,602.16 -395.44,904.13 -86.28,197.72 -170.76,393.65 -257.04,591.37 -30.56,70.1 -62.91,140.21 -98.86,221.09 28.76,-5.39 50.33,-3.59 66.51,-12.58 62.91,-35.95 122.23,-75.5 183.35,-116.84 152.79,-100.66 280.41,-230.08 397.24,-368.49 98.86,-115.04 190.54,-239.07 273.22,-366.68 116.84,-181.55 224.68,-368.49 330.74,-553.63 52.13,-89.87 95.27,-185.14 138.41,-280.41 52.13,-115.04 98.86,-231.87 149.19,-348.71 46.73,-109.65 95.27,-217.5 136.61,-330.74 70.1,-195.93 142,-391.85 163.57,-603.96 14.38,-147.39 26.96,-291.2 -5.39,-438.58 -39.55,-168.96 -134.81,-278.61 -300.18,-337.93 -185.14,-66.51 -354.11,-3.59 -519.48,55.72 -115.04,41.34 -221.09,107.85 -330.74,167.17 -147.39,79.09 -278.61,179.74 -399.05,294.79 -75.5,73.7 -158.17,140.21 -233.67,213.9 -59.31,55.72 -115.04,115.04 -170.76,176.15 -50.33,55.72 -95.26,115.04 -143.8,174.36 -43.14,52.13 -89.87,102.46 -129.42,156.39 -80.89,111.44 -158.18,226.48 -233.68,341.52 -84.48,127.62 -170.76,253.44 -246.26,386.46 -86.28,150.99 -167.17,305.57 -242.66,463.76 -97.07,204.91 -185.14,415.22 -275.02,623.72 -7.19,16.17 -5.39,35.95 -7.19,52.13 -12.58,17.98 -26.96,34.15 -34.15,52.13 -19.77,48.53 -34.15,98.86 -52.13,149.18 -62.91,181.55 -129.42,361.3 -185.14,544.64 -48.54,154.58 -88.08,310.96 -125.83,469.14 -44.94,183.35 -88.08,368.49 -124.02,553.63 -28.76,145.59 -46.73,292.99 -62.91,440.39 -17.98,159.98 -35.95,319.95 -41.34,479.93 -5.39,176.15 0,352.31 7.19,528.46 3.59,73.7 21.57,147.39 34.15,230.08 16.18,-12.58 28.76,-17.98 37.74,-26.96 68.31,-68.3 136.61,-134.81 201.32,-203.12 134.81,-142 267.83,-284 399.04,-429.59 64.71,-71.9 124.03,-149.19 181.55,-224.69 80.89,-106.05 167.17,-212.1 239.07,-325.35 129.42,-203.12 275.01,-399.05 384.66,-614.74 25.17,-48.54 59.31,-91.67 84.48,-138.41 57.52,-107.85 115.04,-217.5 170.76,-327.14 64.71,-127.62 127.62,-257.04 190.53,-386.46 23.37,-48.53 46.74,-95.27 35.95,-154.58 -8.99,-43.14 -32.36,-91.67 14.38,-127.62 7.19,34.15 -14.38,79.09 32.36,111.44 5.39,-23.37 7.19,-46.74 16.18,-64.71 23.37,-48.54 52.13,-95.27 73.7,-143.8 52.13,-115.04 100.66,-233.67 150.99,-348.71 43.14,-98.86 89.87,-195.93 131.22,-294.79 46.73,-107.85 88.08,-219.3 134.81,-327.14 73.7,-172.56 149.19,-345.12 224.69,-515.88 84.48,-192.33 172.56,-384.66 257.04,-575.2 50.33,-113.24 100.66,-226.49 152.79,-337.93 7.19,-17.98 23.37,-32.36 34.15,-48.54 14.38,12.58 30.56,26.96 44.94,39.55 3.59,3.59 5.39,10.79 7.19,14.38 -44.95,32.35 -44.95,32.35 -64.73,10.78zm-3751.35 5563.23c-3.59,0 -5.39,-1.8 -8.99,-1.8 0,-7.19 -1.8,-14.39 0,-21.57 46.73,-177.95 91.67,-354.11 140.21,-532.06 23.37,-82.69 55.72,-163.57 82.69,-246.26 41.34,-116.84 80.89,-233.67 122.23,-350.51 19.77,-57.52 43.14,-113.24 61.11,-170.76 34.15,-109.65 66.51,-219.29 100.66,-328.94 37.74,-118.64 79.09,-237.27 113.24,-355.91 25.16,-84.48 41.34,-168.96 61.11,-255.24 21.57,-98.86 44.94,-195.93 64.71,-294.79 8.99,-43.14 14.38,-86.28 12.58,-131.22 -1.8,-86.28 0,-174.36 -17.98,-257.04 -23.37,-106.05 -122.23,-156.38 -228.28,-131.22 -100.66,23.37 -190.54,70.11 -264.23,138.41 -89.87,80.88 -183.35,163.57 -257.04,258.83 -125.82,163.57 -246.26,334.34 -354.1,510.49 -106.05,168.96 -201.32,345.11 -287.6,526.66 -104.26,217.5 -208.51,436.79 -282.21,666.87 -43.14,133.01 -91.67,264.23 -131.22,399.05 -39.55,138.41 -77.29,276.81 -102.46,417.01 -39.55,221.09 -68.3,443.98 -59.31,670.46 3.59,71.9 1.8,145.6 43.14,212.11 39.55,62.91 93.47,115.04 165.37,118.64 84.48,3.59 168.96,-12.58 255.24,-23.37 16.17,-1.8 30.56,-10.79 46.73,-17.98 30.56,-16.18 61.11,-34.15 91.67,-50.33 129.42,-66.51 262.43,-124.02 384.67,-199.52 152.79,-93.47 298.38,-199.52 440.38,-307.37 124.03,-93.47 239.07,-199.52 357.7,-298.39 21.57,-17.98 23.37,-34.15 17.98,-59.31 -12.58,-55.72 -25.17,-113.24 -30.56,-168.96 -8.99,-107.85 -12.58,-217.5 -17.98,-325.35 -12.58,-280.41 16.18,-557.22 50.33,-835.83 17.97,-147.4 41.34,-292.99 64.71,-445.78 -7.19,7.19 -10.79,8.99 -12.58,12.58 -23.37,73.7 -44.94,149.19 -68.3,222.89 -21.57,70.1 -44.94,138.41 -70.1,206.71 -41.34,120.43 -82.69,240.86 -127.62,361.3 -16.17,43.14 -41.34,84.48 -57.52,127.62 -37.74,104.26 -75.5,210.3 -107.85,318.15 -57.52,185.14 -109.65,370.28 -165.37,557.22 -5.41,25.19 -14.4,53.95 -25.18,84.51zm8385.27 -4741.77c-1.8,-5.39 -5.39,-8.99 -7.19,-14.38 -35.95,8.99 -75.5,12.58 -106.05,28.76 -251.65,133.01 -503.3,264.23 -751.35,402.64 -203.12,113.24 -400.84,235.46 -603.96,352.3 -154.58,88.08 -310.96,170.76 -465.55,257.04 -21.57,12.58 -41.34,32.36 -55.72,52.13 -26.96,35.95 -50.33,73.7 -77.29,109.65 -34.15,44.94 -71.9,88.08 -107.85,133.01 -41.34,52.13 -79.09,106.05 -120.43,158.18 -39.55,52.13 -80.89,106.05 -120.43,158.18 -7.19,8.99 -8.99,19.77 -14.38,39.55 21.57,-5.39 35.95,-10.79 48.53,-12.58 150.99,-14.38 303.78,-28.76 454.77,-43.14 19.77,-1.8 39.55,1.8 59.31,-1.8 19.77,-3.59 43.14,-10.79 55.72,-23.37 134.81,-145.59 264.23,-296.58 400.84,-440.39 138.41,-143.8 280.41,-285.8 426,-422.41 89.87,-84.48 188.74,-159.98 287.59,-235.46 79.09,-61.12 159.98,-122.23 246.26,-176.15 109.65,-68.3 226.48,-127.62 337.93,-195.93 46.72,-30.54 97.06,-64.7 113.24,-125.81zm-496.11 -1563.82c-1.8,-1.8 -5.39,-3.59 -7.19,-5.39 -43.14,32.36 -95.27,59.31 -129.42,100.66 -120.43,142 -242.67,284 -346.92,436.79 -147.4,213.9 -284,434.99 -418.82,657.89 -95.26,158.17 -183.35,319.95 -273.22,481.72 -134.81,242.67 -266.03,487.12 -399.05,729.78 -52.13,93.46 -107.85,185.14 -161.78,278.61 -3.59,7.19 -3.59,17.98 -7.19,35.95 35.95,-17.98 64.71,-30.56 93.47,-44.94 59.31,-32.36 124.02,-57.52 167.16,-115.04 37.75,-52.13 75.5,-104.26 109.65,-158.18 46.74,-75.5 88.08,-152.79 134.81,-228.28 68.3,-109.65 140.21,-217.5 212.1,-325.35 34.15,-52.13 73.7,-102.45 106.05,-158.17 62.91,-104.26 122.23,-210.31 183.35,-314.56 57.52,-97.07 118.64,-192.33 174.36,-291.19 82.69,-143.8 158.18,-292.99 244.46,-434.99 115.04,-185.14 212.11,-381.07 300.18,-580.59 7.2,-17.98 12.59,-41.35 17.98,-64.72zm-2006 4096.47c21.57,-3.59 32.36,-5.39 41.34,-7.19 79.09,-26.96 159.98,-53.93 239.07,-82.69 118.63,-43.14 237.27,-88.08 355.91,-134.81 104.25,-41.34 210.3,-80.89 312.76,-131.22 120.43,-59.31 233.68,-133.01 354.11,-192.33 66.51,-32.36 98.86,-104.26 170.76,-131.22 43.14,-16.17 37.74,-64.71 -3.59,-86.28 -107.85,-57.52 -224.69,-77.29 -343.32,-88.08 -106.05,-8.99 -213.9,-8.99 -319.95,-16.18 -75.5,-3.59 -140.21,8.99 -190.54,73.7 -91.67,116.83 -186.94,230.08 -278.61,345.11 -79.09,100.66 -156.39,203.12 -233.68,307.37 -35.96,43.14 -66.52,89.87 -104.26,143.8zm627.33 -864.59c-61.12,3.59 -116.84,3.59 -172.56,10.79 -62.91,7.19 -124.03,21.57 -186.94,30.56 -73.7,8.99 -147.4,12.58 -221.09,19.77 -50.33,5.39 -68.3,52.13 -97.07,82.69 -93.47,98.86 -183.35,201.31 -248.06,321.75 -93.47,170.76 -190.54,339.72 -285.8,510.49 -8.99,16.18 -16.18,34.15 -28.76,62.91 59.32,-16.18 106.05,-30.56 152.79,-43.14 98.86,-25.16 197.72,-48.53 298.38,-73.7 55.72,-14.38 111.44,-30.56 147.4,-79.09 32.36,-43.14 53.93,-91.67 86.28,-133.01 104.26,-134.81 210.3,-267.83 316.36,-400.84 75.49,-100.65 152.79,-199.52 239.07,-309.17zm-499.71 -404.43c-1.8,-1.8 -5.39,-5.4 -7.19,-7.19 -32.36,16.17 -62.91,32.36 -95.27,48.53 -186.94,89.87 -373.87,179.75 -559.01,271.42 -86.28,41.34 -172.56,84.48 -258.84,129.42 -32.36,16.17 -59.31,43.14 -93.47,68.3 16.18,7.19 21.57,10.79 26.96,10.79 107.85,12.58 213.9,32.36 325.35,-1.8 93.47,-28.76 192.33,-34.15 289.4,-52.13 41.34,-8.99 100.66,-12.58 118.64,-39.55 89.86,-138.41 168.95,-284 253.43,-427.8zm-3296.59 1155.78c3.59,1.8 5.39,5.39 8.99,7.19 3.59,-1.8 8.99,-3.59 10.79,-7.19 118.63,-159.98 239.07,-319.96 355.91,-481.72 73.7,-102.46 143.8,-204.92 212.1,-310.97 28.76,-44.94 46.73,-97.07 70.11,-147.39 -3.59,-3.59 -8.99,-7.19 -12.58,-8.99 -12.58,8.99 -25.17,17.98 -39.55,25.17 -43.14,25.16 -66.51,68.3 -97.07,104.25 -46.73,53.93 -91.67,109.65 -129.42,168.96 -77.29,120.43 -150.99,244.46 -222.89,368.49 -55.73,93.47 -104.27,188.74 -156.39,282.2zm3605.76 -1321.16c-53.93,26.96 -98.86,53.93 -147.4,73.7 -53.93,21.57 -86.28,61.12 -113.24,111.44 -52.13,95.27 -106.05,190.54 -159.98,284 -23.37,41.34 -46.74,80.89 -73.7,127.62 64.71,-14.38 422.41,-451.17 494.31,-596.76zm-578.79 1558.42c-3.59,-5.39 -7.19,-8.99 -12.58,-14.38 -142,46.73 -287.59,80.88 -434.99,140.2 86.28,64.71 176.15,75.5 264.23,97.07 5.39,1.8 12.58,-1.8 16.18,-5.39 55.72,-73.7 111.44,-145.6 167.17,-217.5zm-2813.07 199.52c100.66,-174.36 355.91,-783.7 343.32,-839.42 -35.95,64.71 -70.1,122.23 -97.07,181.55 -21.57,48.53 -34.15,102.45 -53.93,152.79 -43.14,113.24 -89.87,226.49 -133.01,341.52 -19.76,53.91 -39.54,109.64 -59.31,163.56zm789.1 -399.04c41.34,-39.55 244.46,-442.18 255.24,-508.69 -75.5,34.15 -266.03,409.83 -255.24,508.69z"/>
   <path fill="black" fill-rule="nonzero" d="M7971.02 5491.34c39.55,-12.58 77.29,-26.96 116.84,-37.74 39.55,-10.79 82.69,-16.18 140.21,-25.17 -17.98,16.18 -25.17,30.56 -35.95,34.15 -66.51,17.98 -133.01,32.36 -199.52,46.73 -5.39,1.8 -10.79,-1.8 -17.98,-3.59 -1.8,-5.39 -1.8,-9 -3.59,-14.38z"/>
   <path fill="white" fill-rule="nonzero" d="M4332.9 3715.42c-5.39,-1.8 -8.99,-3.59 -14.38,-7.19 -8.99,32.36 -17.98,62.91 -26.96,95.27 7.19,1.8 12.58,3.59 19.77,5.39 7.2,-30.56 14.39,-62.91 21.58,-93.47z"/>
   <path fill="black" fill-rule="nonzero" d="M4332.9 3715.42c-7.19,30.56 -14.38,62.91 -21.57,93.47 -7.19,-1.8 -12.58,-3.59 -19.77,-5.4 8.99,-32.36 17.98,-62.91 26.96,-95.26 5.39,1.81 10.78,3.6 14.38,7.19z"/>
  </g>
 </g>
</svg>
