<?xml version="1.0" encoding="UTF-8"?>
<!DOCTYPE svg PUBLIC "-//W3C//DTD SVG 1.1//EN" "http://www.w3.org/Graphics/SVG/1.1/DTD/svg11.dtd">
<!-- Creator: CorelDRAW 2021.5 -->
<svg xmlns="http://www.w3.org/2000/svg" xml:space="preserve" width="10.6667in" height="8in" version="1.1" shape-rendering="geometricPrecision" text-rendering="geometricPrecision" image-rendering="optimizeQuality" fill-rule="evenodd" clip-rule="evenodd"
viewBox="0 0 10666.66 8000"
 xmlns:xlink="http://www.w3.org/1999/xlink"
 xmlns:xodm="http://www.corel.com/coreldraw/odm/2003">
 <g id="Layer_x0020_1">
  <metadata id="CorelCorpID_0Corel-Layer"/>
  <polygon fill="none" points="-0,0 10666.66,0 10666.66,8000 -0,8000 "/>
  <g id="_1654301599680">
   <path fill="black" fill-rule="nonzero" d="M5656.69 5876.75c-20.83,32.29 -41.67,64.58 -63.54,95.83 -4.17,5.21 -14.58,12.5 -17.71,10.42 -6.25,-4.17 -13.54,-13.54 -12.5,-19.79 3.13,-28.13 6.25,-56.25 14.58,-82.29 20.83,-63.54 44.79,-125 67.71,-188.54 1.04,-2.08 2.08,-5.21 3.13,-7.29 41.67,-86.46 81.25,-175 126.04,-260.42 63.54,-121.87 132.29,-241.67 197.92,-361.46 98.96,-182.29 196.87,-364.58 297.92,-545.83 46.87,-84.37 96.87,-166.67 145.83,-250 9.37,-15.63 17.71,-31.25 22.92,-47.92 -55.21,51.04 -107.29,105.21 -165.63,153.13 -65.63,53.13 -136.46,102.08 -206.25,150 -28.13,19.79 -60.42,35.41 -91.67,48.95 -22.92,9.37 -48.96,11.46 -72.92,16.67 -62.5,13.54 -125,27.08 -187.5,42.71 -31.25,7.29 -64.58,-5.21 -88.54,-23.96 -58.33,-45.83 -48.96,-109.37 -50,-170.83 0,-25 0,-50 0,-72.92 -42.71,40.63 -83.33,81.25 -125,119.79 -28.13,26.04 -42.71,27.08 -71.87,7.29 -29.17,35.42 -57.29,71.87 -88.54,105.2 -21.87,23.96 -47.91,45.83 -72.91,67.71 -14.58,12.5 -42.71,5.21 -48.96,-12.5 -6.25,-18.75 -10.42,-39.58 -10.42,-58.33 2.08,-71.87 21.87,-140.62 45.83,-208.33 2.08,-4.17 3.13,-9.37 0,-17.71 -5.21,5.21 -12.5,9.37 -16.67,16.67 -18.75,37.5 -33.33,76.04 -54.17,111.46 -37.5,62.5 -78.13,121.87 -117.71,183.33 -13.54,20.83 -29.17,39.58 -43.75,59.37 -15.63,19.79 -34.37,29.17 -53.13,19.79 -50,78.13 -98.96,154.17 -150,230.21 -19.79,29.17 -40.63,57.29 -63.54,84.37 -18.75,21.87 -40.63,40.63 -64.58,57.29 -19.79,13.54 -56.25,-3.13 -59.37,-29.17 -5.21,-34.37 -9.37,-68.75 -5.21,-103.13 9.37,-88.54 39.58,-171.87 72.92,-254.17 18.75,-46.87 37.5,-93.75 56.25,-141.67 1.04,-3.13 -1.04,-7.29 -3.13,-16.67 -25,37.5 -46.87,69.79 -69.79,103.13 -18.75,27.08 -37.5,54.17 -56.25,82.29 -36.46,53.13 -73.96,106.25 -108.33,160.42 -38.54,60.42 -75,122.92 -113.54,183.33 -79.17,121.87 -159.37,243.75 -238.54,365.63 -50,77.08 -98.96,155.21 -151.04,231.25 -41.67,61.46 -85.42,121.87 -131.25,181.25 -16.67,20.83 -40.63,35.42 -62.5,51.04 -21.87,15.63 -42.71,11.46 -61.46,-8.33 -35.42,-38.54 -59.37,-84.37 -76.04,-134.37 -11.46,-35.42 -18.75,-72.92 -29.17,-114.58 -16.67,12.5 -32.29,25 -47.92,37.5 -73.96,60.42 -145.83,123.96 -222.92,180.21 -73.96,54.17 -151.04,103.13 -229.17,148.96 -77.08,44.79 -158.33,83.33 -238.54,120.83 -42.71,19.79 -88.54,29.17 -137.5,27.08 -34.37,-2.08 -70.83,4.17 -103.13,-4.17 -21.87,-5.21 -44.79,-27.08 -57.29,-46.87 -61.46,-100 -38.54,-212.5 -33.33,-319.79 3.13,-78.13 14.58,-155.21 30.21,-232.29 20.83,-102.08 39.58,-205.21 79.17,-304.17 23.96,-59.37 37.5,-123.96 60.42,-184.37 23.96,-64.58 51.04,-129.17 79.17,-192.71 30.21,-68.75 61.46,-138.54 96.87,-204.17 61.46,-114.58 123.96,-228.12 191.67,-338.54 52.08,-85.42 109.37,-167.71 168.75,-247.92 29.17,-39.58 69.79,-69.79 106.25,-104.17 26.04,-23.96 52.08,-47.92 80.21,-69.79 56.25,-43.75 117.71,-76.04 192.71,-66.67 48.96,6.25 107.29,64.58 110.42,115.63 3.13,56.25 2.08,111.46 3.13,167.71 0,4.17 2.08,7.29 7.29,12.5 8.33,-30.21 16.67,-61.46 25,-91.67 13.54,-47.92 26.04,-96.87 41.67,-143.75 32.29,-95.83 63.54,-191.67 101.04,-284.37 52.08,-128.13 107.29,-255.21 164.58,-381.25 75,-164.58 163.54,-321.87 262.5,-471.87 65.63,-100 135.42,-198.96 210.42,-293.75 78.13,-98.96 158.33,-196.87 245.83,-287.5 66.67,-69.79 146.87,-127.08 220.83,-188.54 107.29,-88.54 233.33,-142.71 357.29,-198.96 21.87,-10.42 46.87,-12.5 69.79,-18.75 18.75,-5.21 38.54,-13.54 57.29,-15.63 83.33,-8.33 166.67,-6.25 239.58,38.54 44.79,28.13 78.13,69.79 97.92,120.83 35.42,93.75 38.54,189.58 21.87,285.42 -13.54,84.37 -30.21,169.79 -51.04,253.13 -14.58,57.29 -39.58,112.5 -59.37,168.75 -10.42,30.21 -17.71,62.5 -31.25,92.71 -67.71,145.83 -133.33,291.67 -205.21,435.42 -43.75,87.5 -94.79,171.87 -145.83,255.21 -37.5,62.5 -77.08,125 -119.79,184.37 -73.96,102.08 -155.21,198.96 -254.17,279.17 -53.13,42.71 -112.5,76.04 -169.79,112.5 -7.29,5.21 -19.79,8.33 -27.08,6.25 -31.25,-8.33 -39.58,9.37 -51.04,33.33 -67.71,135.42 -136.46,270.83 -205.21,405.21 -77.08,150 -165.63,292.7 -260.42,431.25 -63.54,92.71 -125,186.46 -197.92,271.87 -100,117.71 -208.33,228.13 -313.54,340.63 -41.67,44.79 -84.37,87.5 -125,132.29 -5.21,5.21 -9.37,13.54 -9.37,20.83 5.21,75 28.13,143.75 67.71,208.33 9.37,14.58 19.79,29.17 32.29,40.63 13.54,12.5 28.13,8.33 42.71,-2.08 61.46,-46.87 101.04,-111.46 143.75,-172.92 52.08,-77.08 103.13,-154.17 154.17,-232.29 40.63,-62.5 81.25,-125 121.87,-187.5 47.92,-72.92 95.83,-144.79 142.71,-217.71 41.67,-64.58 79.17,-130.21 121.87,-193.75 72.92,-107.29 147.92,-213.54 221.87,-320.83 33.33,-47.91 66.67,-96.87 94.79,-147.91 23.96,-42.71 39.58,-89.58 61.46,-132.29 31.25,-60.42 65.63,-119.79 98.96,-179.17 30.21,-53.13 57.29,-107.29 91.67,-156.25 40.63,-56.25 90.63,-107.29 133.33,-162.5 14.58,-18.75 29.17,-28.13 51.04,-33.33 18.75,-4.17 25,2.08 25,18.75 0,8.33 0,17.71 -4.17,25 -32.29,56.25 -65.63,112.5 -100,168.75 -28.13,44.79 -57.29,88.54 -86.46,131.25 -18.75,28.13 -39.58,55.21 -60.42,83.33 -48.96,64.58 -96.87,129.17 -146.87,191.67 -50,62.5 -80.21,133.33 -109.37,206.25 -18.75,46.87 -38.54,92.71 -55.21,140.63 -25,70.83 -50,141.67 -70.83,214.58 -14.58,50 -15.63,102.08 9.37,152.08 43.75,-19.79 80.21,-45.83 106.25,-82.29 46.87,-66.67 93.75,-134.37 136.46,-203.13 27.08,-42.71 43.75,-89.58 57.29,-139.58 26.04,-94.79 63.54,-187.5 100,-279.16 28.13,-72.92 60.42,-143.75 90.63,-215.63 5.21,-11.46 12.5,-20.83 18.75,-32.29 3.13,-4.17 7.29,-9.37 7.29,-13.54 0,-8.33 -5.21,-21.87 -2.08,-26.04 19.79,-18.75 41.67,-36.46 62.5,-54.17 3.13,1.04 6.25,2.08 9.37,4.17 -8.33,29.17 -14.58,60.42 -25,88.54 -37.5,95.83 -76.04,191.67 -116.67,287.5 -30.21,71.87 -62.5,142.7 -94.79,213.54 -7.29,14.58 -17.71,28.13 -25,42.71 -3.13,6.25 -2.08,14.58 -2.08,21.87 3.13,2.08 7.29,3.13 10.42,5.21 16.67,-20.83 34.37,-42.71 51.04,-63.54 11.46,-13.54 15.63,-31.25 38.54,-36.46 11.46,-3.13 19.79,-27.08 28.13,-42.71 26.04,-46.87 51.04,-93.75 76.04,-140.62 18.75,-35.42 34.37,-72.92 53.13,-108.33 43.75,-82.29 88.54,-163.54 133.33,-244.79 3.13,-5.21 11.46,-7.29 17.71,-10.42 2.08,1.04 4.17,3.13 6.25,4.17 -3.13,11.46 -5.21,22.92 -10.42,33.33 -17.71,38.54 -37.5,75 -53.13,114.58 -23.95,59.37 -47.91,118.75 -66.66,179.17 -20.83,66.67 -34.37,135.42 -34.37,206.25 0,8.33 5.21,16.67 8.33,26.04 7.29,-3.13 16.67,-3.13 22.92,-8.33 30.21,-26.04 59.37,-53.13 88.54,-79.17 1.04,-1.04 1.04,-2.08 2.08,-2.08 57.29,-33.33 67.71,-89.58 78.13,-147.91 16.67,-95.83 56.25,-182.29 108.33,-263.54 18.75,-29.17 38.54,-57.29 58.33,-86.46 5.21,-7.29 11.46,-14.58 18.75,-17.71 7.29,-3.13 17.71,-2.08 26.04,-3.13 0,8.33 2.08,16.67 -1.04,23.96 -53.13,109.37 -107.29,218.75 -161.46,328.13 -13.54,28.13 -38.54,54.17 -25,91.67 40.63,-8.33 60.42,-41.67 88.54,-66.67 16.67,-15.63 32.29,-32.29 47.92,-47.92 19.79,-19.79 32.29,-40.63 41.67,-68.75 14.58,-45.83 41.67,-88.54 65.63,-131.25 12.5,-22.92 28.13,-44.79 44.79,-64.58 11.46,-14.58 27.08,-25 43.75,-34.37 -25,44.79 -50,88.54 -72.92,133.33 -22.92,44.79 -45.83,90.63 -63.54,138.54 -8.33,23.96 -6.25,52.08 -7.29,78.13 -1.04,36.46 -2.08,73.96 0,111.46 2.08,44.79 64.58,92.7 109.37,83.33 46.87,-10.42 93.75,-22.92 140.63,-34.37 23.96,-5.21 47.92,-8.33 71.87,-13.54 19.79,-4.17 40.63,-6.25 57.29,-15.62 52.08,-29.17 106.25,-57.29 154.17,-92.71 61.46,-45.83 120.83,-95.83 177.08,-147.92 62.5,-56.25 125,-112.5 180.21,-175 37.5,-43.75 63.54,-97.92 93.75,-146.87 -2.08,-2.08 -4.17,-4.17 -6.25,-7.29 -18.75,3.13 -38.54,4.17 -57.29,8.33 -51.04,9.37 -101.04,20.83 -152.08,28.13 -45.83,6.25 -92.71,12.5 -138.54,10.42 -31.25,-1.04 -62.5,-13.54 -92.71,-22.92 -15.63,-5.21 -13.54,-33.33 6.25,-45.83 36.46,-23.96 73.96,-48.96 112.5,-67.71 60.42,-30.21 122.92,-56.25 184.37,-84.37 104.17,-47.92 208.33,-96.87 311.46,-145.83 13.54,-6.25 26.04,-20.83 34.37,-34.37 82.29,-147.92 162.5,-296.87 243.75,-444.79 71.87,-129.17 144.79,-257.29 217.71,-385.42 30.21,-52.08 59.37,-105.21 91.67,-157.29 39.58,-63.54 79.17,-126.04 120.83,-187.5 51.04,-75 100,-153.13 158.33,-222.92 62.5,-73.96 123.96,-151.04 207.29,-205.21 9.37,-6.25 21.87,-6.25 33.33,-9.37 2.08,10.42 7.29,21.87 4.17,31.25 -7.29,28.13 -15.63,56.25 -29.17,81.25 -50,100 -102.08,198.96 -155.21,297.92 -47.92,88.54 -96.87,175 -146.87,262.5 -32.29,56.25 -66.67,111.46 -98.96,167.71 -40.63,70.83 -80.21,143.75 -121.87,214.58 -26.04,43.75 -55.21,84.37 -83.33,127.08 -20.83,31.25 -39.58,63.54 -60.42,94.79 -37.5,56.25 -77.08,111.46 -114.58,167.71 -12.5,18.75 -22.92,39.58 -37.5,65.63 21.87,-12.5 40.63,-21.87 58.33,-32.29 89.58,-50 179.17,-98.96 267.71,-151.04 143.75,-85.42 286.46,-173.96 430.21,-258.33 54.17,-32.29 112.5,-56.25 168.75,-84.37 40.63,-19.79 83.33,-38.54 121.87,-61.46 23.96,-14.58 47.92,-14.58 69.79,-4.17 7.29,3.13 13.54,26.04 9.37,36.46 -5.21,14.58 -17.71,28.13 -30.21,38.54 -59.37,53.13 -132.29,85.42 -197.92,128.13 -100,63.54 -198.96,131.25 -289.58,208.33 -100,84.37 -192.71,180.21 -284.37,273.96 -78.14,68.72 -150.02,152.06 -222.93,233.3 -6.25,7.29 -12.5,14.58 -17.71,30.21 16.67,0 32.29,0 48.96,0 32.29,1.04 63.54,2.08 95.83,3.13 34.37,1.04 68.75,2.08 102.08,6.25 33.33,4.17 65.63,10.42 97.92,19.79 35.42,10.42 70.83,21.87 103.13,37.5 42.71,20.83 50,61.46 12.5,90.63 -51.04,40.63 -105.21,80.21 -162.5,111.46 -89.58,47.92 -182.29,90.63 -275,132.29 -83.33,37.5 -167.71,71.87 -252.08,104.17 -66.67,25 -134.37,44.79 -202.08,67.71 -17.71,6.25 -37.5,15.63 -48.96,29.17 -36.46,43.75 -69.79,90.62 -107.29,140.62 19.79,6.25 37.5,13.54 56.25,16.67 44.79,9.37 89.58,17.71 134.37,26.04 63.54,12.5 126.04,26.04 189.58,38.54 51.04,10.42 103.13,19.79 154.17,29.17 2.08,0 5.21,0 8.33,1.04 37.5,11.46 75,22.92 112.5,34.37 3.13,1.04 6.25,5.21 15.63,13.54 -55.21,-7.29 -103.13,-12.5 -150,-19.79 -39.58,-6.25 -79.17,-13.54 -118.75,-20.83 -71.87,-12.5 -142.71,-25 -214.58,-37.5 -63.54,-11.46 -127.08,-26.04 -190.63,-37.5 -9.37,-2.08 -25,4.17 -31.25,12.5 -26.04,32.29 -48.96,67.71 -72.92,101.04 -32.29,43.75 -64.58,86.46 -96.87,130.21 -48.96,66.67 -98.96,132.29 -145.83,201.04 -63.54,92.71 -123.96,186.46 -185.42,280.21 -66.67,102.08 -132.29,204.17 -198.96,306.25 -38.54,59.37 -79.17,117.7 -117.71,176.04 2.08,-10.42 4.17,-22.92 9.37,-33.33 27.08,-50 54.17,-100 82.29,-148.96 19.79,-34.37 41.67,-66.67 63.54,-100 46.87,-69.79 93.75,-139.58 140.63,-209.37 26.04,-39.58 52.08,-78.13 79.17,-117.71 30.21,-43.75 61.46,-87.5 90.63,-132.29 30.21,-44.79 58.33,-89.58 88.54,-134.37 16.67,-25 33.33,-48.96 51.04,-72.92 41.67,-55.21 84.37,-108.33 123.96,-163.54 25,-34.37 46.87,-70.83 70.83,-109.37 -8.33,-3.13 -17.71,-8.33 -28.13,-12.5 -43.75,-19.79 -88.54,-39.58 -132.29,-61.46 -14.58,-7.29 -22.92,-7.29 -30.21,6.25 -22.92,42.71 -46.87,85.42 -69.79,129.17 -36.46,67.71 -71.87,136.46 -110.42,203.13 -45.83,79.17 -83.33,162.5 -136.46,237.5 -8.33,11.46 -15.63,22.92 -21.87,34.37 -38.54,72.92 -77.08,145.83 -113.54,219.79 -50,101.04 -98.96,201.04 -144.79,304.17 -23.96,53.13 -39.58,110.42 -59.37,164.58 -3.13,9.37 -7.29,18.75 -11.46,29.17 22.91,-10.42 40.62,-21.87 58.33,-32.29zm-218.75 -3406.25c-2.08,1.04 -4.17,2.08 -5.21,3.13 5.21,10.42 11.46,20.83 14.58,27.08 -9.37,10.42 -17.71,17.71 -22.92,26.04 -26.04,53.13 -53.13,106.25 -77.08,161.46 -47.92,106.25 -94.79,213.54 -141.66,319.79 -77.08,173.96 -153.13,348.96 -229.17,523.96 -50,114.58 -98.96,228.13 -148.96,342.71 -17.71,40.63 -36.46,81.25 -57.29,128.13 16.67,-3.13 29.17,-2.08 38.54,-7.29 36.46,-20.83 70.83,-43.75 106.25,-67.71 88.54,-58.33 162.5,-133.33 230.21,-213.54 57.29,-66.67 110.42,-138.54 158.33,-212.5 67.71,-105.21 130.21,-213.54 191.67,-320.83 30.21,-52.08 55.21,-107.29 80.21,-162.5 30.21,-66.67 57.29,-134.37 86.46,-202.08 27.08,-63.54 55.21,-126.04 79.17,-191.67 40.63,-113.54 82.29,-227.08 94.79,-350 8.33,-85.42 15.63,-168.75 -3.13,-254.17 -22.92,-97.92 -78.13,-161.46 -173.96,-195.83 -107.29,-38.54 -205.21,-2.08 -301.04,32.29 -66.67,23.96 -128.12,62.5 -191.66,96.87 -85.42,45.83 -161.46,104.17 -231.25,170.83 -43.75,42.71 -91.67,81.25 -135.42,123.96 -34.37,32.29 -66.67,66.67 -98.96,102.08 -29.17,32.29 -55.21,66.67 -83.33,101.04 -25,30.21 -52.08,59.37 -75,90.63 -46.87,64.58 -91.67,131.25 -135.42,197.92 -48.96,73.96 -98.96,146.87 -142.71,223.96 -50,87.5 -96.87,177.08 -140.63,268.75 -56.25,118.75 -107.29,240.63 -159.37,361.46 -4.17,9.37 -3.13,20.83 -4.17,30.21 -7.29,10.42 -15.63,19.79 -19.79,30.21 -11.46,28.13 -19.79,57.29 -30.21,86.46 -36.46,105.21 -75,209.37 -107.29,315.63 -28.13,89.58 -51.04,180.21 -72.92,271.87 -26.04,106.25 -51.04,213.54 -71.87,320.83 -16.67,84.37 -27.08,169.79 -36.46,255.21 -10.42,92.71 -20.83,185.42 -23.96,278.13 -3.13,102.08 0,204.17 4.17,306.25 2.08,42.71 12.5,85.42 19.79,133.33 9.37,-7.29 16.67,-10.42 21.87,-15.63 39.58,-39.58 79.17,-78.13 116.67,-117.71 78.13,-82.29 155.21,-164.58 231.25,-248.96 37.5,-41.67 71.87,-86.46 105.21,-130.21 46.87,-61.46 96.87,-122.92 138.54,-188.54 75,-117.71 159.37,-231.25 222.92,-356.25 14.58,-28.12 34.37,-53.12 48.96,-80.2 33.33,-62.5 66.67,-126.04 98.96,-189.58 37.5,-73.96 73.96,-148.96 110.42,-223.96 13.54,-28.13 27.08,-55.21 20.83,-89.58 -5.21,-25 -18.75,-53.13 8.33,-73.96 4.17,19.79 -8.33,45.83 18.75,64.58 3.13,-13.54 4.17,-27.08 9.37,-37.5 13.54,-28.13 30.21,-55.21 42.71,-83.33 30.21,-66.67 58.33,-135.42 87.5,-202.08 25,-57.29 52.08,-113.54 76.04,-170.83 27.08,-62.5 51.04,-127.08 78.13,-189.58 42.71,-100 86.46,-200 130.21,-298.96 48.96,-111.46 100,-222.92 148.95,-333.33 29.17,-65.63 58.33,-131.25 88.54,-195.83 4.17,-10.42 13.54,-18.75 19.79,-28.13 8.33,7.29 17.71,15.63 26.04,22.92 2.08,2.08 3.13,6.25 4.17,8.33 -26.05,18.75 -26.05,18.75 -37.51,6.25zm-2173.95 3223.96c-2.08,0 -3.13,-1.04 -5.21,-1.04 0,-4.17 -1.04,-8.33 0,-12.5 27.08,-103.13 53.13,-205.21 81.25,-308.33 13.54,-47.92 32.29,-94.79 47.92,-142.71 23.96,-67.71 46.87,-135.42 70.83,-203.13 11.46,-33.33 25,-65.63 35.42,-98.96 19.79,-63.54 38.54,-127.08 58.33,-190.63 21.87,-68.75 45.83,-137.5 65.63,-206.25 14.58,-48.96 23.96,-97.92 35.42,-147.92 12.5,-57.29 26.04,-113.54 37.5,-170.83 5.21,-25 8.33,-50 7.29,-76.04 -1.04,-50 0,-101.04 -10.42,-148.96 -13.54,-61.46 -70.83,-90.63 -132.29,-76.04 -58.33,13.54 -110.42,40.63 -153.13,80.21 -52.08,46.87 -106.25,94.79 -148.96,150 -72.92,94.79 -142.71,193.75 -205.21,295.83 -61.46,97.92 -116.67,200 -166.67,305.2 -60.42,126.04 -120.83,253.13 -163.54,386.46 -25,77.08 -53.13,153.13 -76.04,231.25 -22.92,80.21 -44.79,160.42 -59.37,241.67 -22.92,128.13 -39.58,257.29 -34.37,388.54 2.08,41.67 1.04,84.37 25,122.92 22.92,36.46 54.17,66.67 95.83,68.75 48.96,2.08 97.92,-7.29 147.92,-13.54 9.37,-1.04 17.71,-6.25 27.08,-10.42 17.71,-9.37 35.42,-19.79 53.13,-29.17 75,-38.54 152.08,-71.87 222.92,-115.63 88.54,-54.17 172.92,-115.63 255.21,-178.13 71.87,-54.17 138.54,-115.63 207.29,-172.92 12.5,-10.42 13.54,-19.79 10.42,-34.37 -7.29,-32.29 -14.58,-65.63 -17.71,-97.92 -5.21,-62.5 -7.29,-126.04 -10.42,-188.54 -7.29,-162.5 9.37,-322.92 29.17,-484.37 10.42,-85.42 23.96,-169.79 37.5,-258.33 -4.17,4.17 -6.25,5.21 -7.29,7.29 -13.54,42.71 -26.04,86.46 -39.58,129.17 -12.5,40.63 -26.04,80.21 -40.63,119.79 -23.96,69.79 -47.92,139.58 -73.96,209.37 -9.37,25 -23.96,48.96 -33.33,73.96 -21.87,60.42 -43.75,121.87 -62.5,184.37 -33.33,107.29 -63.54,214.58 -95.83,322.92 -3.13,14.59 -8.34,31.26 -14.59,48.97zm4859.37 -2747.91c-1.04,-3.13 -3.13,-5.21 -4.17,-8.33 -20.83,5.21 -43.75,7.29 -61.46,16.67 -145.83,77.08 -291.67,153.13 -435.42,233.33 -117.71,65.63 -232.29,136.46 -350,204.17 -89.58,51.04 -180.21,98.96 -269.79,148.96 -12.5,7.29 -23.96,18.75 -32.29,30.21 -15.63,20.83 -29.17,42.71 -44.79,63.54 -19.79,26.04 -41.67,51.04 -62.5,77.08 -23.96,30.21 -45.83,61.46 -69.79,91.67 -22.92,30.21 -46.87,61.46 -69.79,91.67 -4.17,5.21 -5.21,11.46 -8.33,22.92 12.5,-3.13 20.83,-6.25 28.13,-7.29 87.5,-8.33 176.04,-16.67 263.54,-25 11.46,-1.04 22.92,1.04 34.37,-1.04 11.46,-2.08 25,-6.25 32.29,-13.54 78.13,-84.37 153.13,-171.87 232.29,-255.21 80.21,-83.33 162.5,-165.63 246.87,-244.79 52.08,-48.96 109.37,-92.71 166.67,-136.46 45.83,-35.42 92.71,-70.83 142.71,-102.08 63.54,-39.58 131.25,-73.96 195.83,-113.54 27.08,-17.7 56.25,-37.49 65.62,-72.91zm-287.5 -906.25c-1.04,-1.04 -3.13,-2.08 -4.17,-3.13 -25,18.75 -55.21,34.37 -75,58.33 -69.79,82.29 -140.63,164.58 -201.04,253.13 -85.42,123.96 -164.58,252.08 -242.71,381.25 -55.21,91.67 -106.25,185.42 -158.33,279.17 -78.13,140.63 -154.17,282.29 -231.25,422.92 -30.21,54.17 -62.5,107.29 -93.75,161.46 -2.08,4.17 -2.08,10.42 -4.17,20.83 20.83,-10.42 37.5,-17.71 54.17,-26.04 34.37,-18.75 71.87,-33.33 96.87,-66.67 21.87,-30.21 43.75,-60.42 63.54,-91.67 27.08,-43.75 51.04,-88.54 78.13,-132.29 39.58,-63.54 81.25,-126.04 122.92,-188.54 19.79,-30.21 42.71,-59.37 61.46,-91.67 36.46,-60.42 70.83,-121.87 106.25,-182.29 33.33,-56.25 68.75,-111.46 101.04,-168.75 47.92,-83.33 91.67,-169.79 141.67,-252.08 66.67,-107.29 122.92,-220.83 173.96,-336.46 4.17,-10.42 7.3,-23.96 10.42,-37.5zm-1162.5 2373.96c12.5,-2.08 18.75,-3.13 23.96,-4.17 45.83,-15.63 92.71,-31.25 138.54,-47.92 68.75,-25 137.5,-51.04 206.25,-78.13 60.42,-23.96 121.87,-46.87 181.25,-76.04 69.79,-34.37 135.42,-77.08 205.21,-111.46 38.54,-18.75 57.29,-60.42 98.96,-76.04 25,-9.37 21.87,-37.5 -2.08,-50 -62.5,-33.33 -130.21,-44.79 -198.96,-51.04 -61.46,-5.21 -123.96,-5.21 -185.42,-9.37 -43.75,-2.08 -81.25,5.21 -110.42,42.71 -53.13,67.71 -108.33,133.33 -161.46,200 -45.83,58.33 -90.63,117.71 -135.42,178.13 -20.84,25 -38.55,52.08 -60.42,83.33zm363.54 -501.04c-35.42,2.08 -67.71,2.08 -100,6.25 -36.46,4.17 -71.87,12.5 -108.33,17.71 -42.71,5.21 -85.42,7.29 -128.13,11.46 -29.17,3.13 -39.58,30.21 -56.25,47.92 -54.17,57.29 -106.25,116.67 -143.75,186.46 -54.17,98.96 -110.42,196.87 -165.63,295.83 -5.21,9.37 -9.37,19.79 -16.67,36.46 34.37,-9.37 61.46,-17.71 88.54,-25 57.29,-14.58 114.58,-28.13 172.92,-42.71 32.29,-8.33 64.58,-17.71 85.42,-45.83 18.75,-25 31.25,-53.13 50,-77.08 60.42,-78.13 121.87,-155.21 183.33,-232.29 43.75,-58.33 88.54,-115.62 138.54,-179.17zm-289.59 -234.37c-1.04,-1.04 -3.13,-3.13 -4.17,-4.17 -18.75,9.37 -36.46,18.75 -55.21,28.13 -108.33,52.08 -216.67,104.17 -323.96,157.29 -50,23.96 -100,48.96 -150,75 -18.75,9.37 -34.37,25 -54.17,39.58 9.37,4.17 12.5,6.25 15.63,6.25 62.5,7.29 123.96,18.75 188.54,-1.04 54.17,-16.67 111.46,-19.79 167.71,-30.21 23.96,-5.21 58.33,-7.29 68.75,-22.92 52.07,-80.21 97.91,-164.58 146.87,-247.92zm-1910.41 669.79c2.08,1.04 3.13,3.13 5.21,4.17 2.08,-1.04 5.21,-2.08 6.25,-4.17 68.75,-92.71 138.54,-185.42 206.25,-279.17 42.71,-59.37 83.33,-118.75 122.92,-180.21 16.67,-26.04 27.08,-56.25 40.63,-85.42 -2.08,-2.08 -5.21,-4.17 -7.29,-5.21 -7.29,5.21 -14.58,10.42 -22.92,14.58 -25,14.58 -38.54,39.58 -56.25,60.42 -27.08,31.25 -53.13,63.54 -75,97.92 -44.79,69.79 -87.5,141.67 -129.17,213.54 -32.3,54.17 -60.43,109.37 -90.63,163.54zm2089.58 -765.63c-31.25,15.63 -57.29,31.25 -85.42,42.71 -31.25,12.5 -50,35.42 -65.63,64.58 -30.21,55.21 -61.46,110.42 -92.71,164.58 -13.54,23.96 -27.08,46.87 -42.71,73.96 37.5,-8.33 244.79,-261.46 286.46,-345.83zm-335.42 903.13c-2.08,-3.13 -4.17,-5.21 -7.29,-8.33 -82.29,27.08 -166.67,46.87 -252.08,81.25 50,37.5 102.08,43.75 153.13,56.25 3.13,1.04 7.29,-1.04 9.37,-3.13 32.29,-42.71 64.58,-84.37 96.87,-126.04zm-1630.2 115.62c58.33,-101.04 206.25,-454.16 198.96,-486.45 -20.83,37.5 -40.63,70.83 -56.25,105.21 -12.5,28.13 -19.79,59.37 -31.25,88.54 -25,65.63 -52.08,131.25 -77.08,197.92 -11.45,31.24 -22.91,63.53 -34.37,94.78zm457.29 -231.25c23.96,-22.92 141.67,-256.25 147.92,-294.79 -43.75,19.79 -154.17,237.5 -147.92,294.79z"/>
   <path fill="black" fill-rule="nonzero" d="M6861.9 4864.25c22.92,-7.29 44.79,-15.63 67.71,-21.87 22.92,-6.25 47.92,-9.37 81.25,-14.58 -10.42,9.37 -14.58,17.71 -20.83,19.79 -38.54,10.42 -77.08,18.75 -115.63,27.08 -3.13,1.04 -6.25,-1.04 -10.42,-2.08 -1.04,-3.13 -1.04,-5.21 -2.08,-8.33z"/>
   <path fill="white" fill-rule="nonzero" d="M4753.57 3835.09c-3.13,-1.04 -5.21,-2.08 -8.33,-4.17 -5.21,18.75 -10.42,36.46 -15.63,55.21 4.17,1.04 7.29,2.08 11.46,3.13 4.17,-17.71 8.34,-36.46 12.5,-54.17z"/>
   <path fill="black" fill-rule="nonzero" d="M4753.57 3835.09c-4.17,17.71 -8.33,36.46 -12.5,54.17 -4.17,-1.04 -7.29,-2.08 -11.46,-3.13 5.21,-18.75 10.42,-36.46 15.63,-55.21 3.12,1.05 6.25,2.09 8.33,4.17z"/>
  </g>
 </g>
</svg>
