<svg width="32" height="32" viewBox="0 0 32 32" fill="none" xmlns="http://www.w3.org/2000/svg">
<g clip-path="url(#clip0_984_20678)">
<path d="M1.39355 15.9992C1.39355 7.93241 7.933 1.39297 15.9998 1.39297C24.0666 1.39297 30.6061 7.93241 30.6061 15.9992C30.6061 24.066 24.0666 30.6055 15.9998 30.6055C7.933 30.6055 1.39355 24.066 1.39355 15.9992Z" stroke="#697586" stroke-width="2" stroke-miterlimit="10" stroke-linecap="round" stroke-linejoin="round"/>
<path d="M11.7665 8.02751C15.178 6.21432 19.5082 6.74472 22.3822 9.61871C25.9067 13.1432 25.9067 18.8575 22.3822 22.382C18.8577 25.9065 13.1434 25.9065 9.61891 22.382C6.75531 19.5184 6.21839 15.2091 8.00813 11.8033" stroke="#697586" stroke-width="2" stroke-miterlimit="10" stroke-linecap="round" stroke-linejoin="round"/>
<path d="M18.375 16C18.375 17.3117 17.3117 18.375 16 18.375C14.6883 18.375 13.625 17.3117 13.625 16C13.625 14.6883 14.6883 13.625 16 13.625C17.3117 13.625 18.375 14.6883 18.375 16Z" stroke="#697586" stroke-width="2" stroke-miterlimit="10" stroke-linecap="round" stroke-linejoin="round"/>
<path d="M21.9375 16C21.9375 19.2792 19.2792 21.9375 16 21.9375C12.7208 21.9375 10.0625 19.2792 10.0625 16C10.0625 12.7208 12.7208 10.0625 16 10.0625C19.2792 10.0625 21.9375 12.7208 21.9375 16Z" stroke="#697586" stroke-width="2" stroke-miterlimit="10" stroke-linecap="round" stroke-linejoin="round"/>
<path d="M15.9616 1.43192L13.8037 3.58984" stroke="#697586" stroke-width="2" stroke-miterlimit="10" stroke-linecap="round" stroke-linejoin="round"/>
<path d="M16.0391 30.5664L18.197 28.4085" stroke="#697586" stroke-width="2" stroke-miterlimit="10" stroke-linecap="round" stroke-linejoin="round"/>
<path d="M8.68147 3.40383L7.8916 6.35156" stroke="#697586" stroke-width="2" stroke-miterlimit="10" stroke-linecap="round" stroke-linejoin="round"/>
<path d="M23.3174 28.5957L24.1072 25.648" stroke="#697586" stroke-width="2" stroke-miterlimit="10" stroke-linecap="round" stroke-linejoin="round"/>
<path d="M3.36426 8.74953L4.15412 11.6973" stroke="#697586" stroke-width="2" stroke-miterlimit="10" stroke-linecap="round" stroke-linejoin="round"/>
<path d="M28.6336 23.25L27.8438 20.3023" stroke="#697586" stroke-width="2" stroke-miterlimit="10" stroke-linecap="round" stroke-linejoin="round"/>
<path d="M1.43359 16.0393L3.59152 18.1973" stroke="#697586" stroke-width="2" stroke-miterlimit="10" stroke-linecap="round" stroke-linejoin="round"/>
<path d="M30.5671 15.9609L28.4092 13.803" stroke="#697586" stroke-width="2" stroke-miterlimit="10" stroke-linecap="round" stroke-linejoin="round"/>
<path d="M3.4043 23.3176L6.35203 24.1074" stroke="#697586" stroke-width="2" stroke-miterlimit="10" stroke-linecap="round" stroke-linejoin="round"/>
<path d="M28.5952 8.68359L25.6475 7.89373" stroke="#697586" stroke-width="2" stroke-miterlimit="10" stroke-linecap="round" stroke-linejoin="round"/>
<path d="M8.75098 28.6348L11.6987 27.8449" stroke="#697586" stroke-width="2" stroke-miterlimit="10" stroke-linecap="round" stroke-linejoin="round"/>
<path d="M23.2475 3.36443L20.2998 4.1543" stroke="#697586" stroke-width="2" stroke-miterlimit="10" stroke-linecap="round" stroke-linejoin="round"/>
</g>
<defs>
<clipPath id="clip0_984_20678">
<rect width="32" height="32" fill="white"/>
</clipPath>
</defs>
</svg>
