<svg xmlns="http://www.w3.org/2000/svg" width="513.012" height="495.303"><g data-name="Group 14129" fill="#fff"><path data-name="Path 41797" d="M406.513 37.852a9.037 9.037 0 0 0 11.064-6.388l5.385-20.092a9.034 9.034 0 1 0-17.449-4.676l-5.386 20.092a9.045 9.045 0 0 0 6.386 11.064Z"/><path data-name="Path 41798" d="m506.313 155.739-20.092-5.381a9.033 9.033 0 0 0-4.676 17.451c4.744 1.271 8.406 2.258 11.25 3.024 9.558 2.575 9.913 2.671 10.936 2.671h.251a9.035 9.035 0 0 0 2.333-17.762Z"/><path data-name="Path 41799" d="M499.121 63.648a9.044 9.044 0 0 0-12.339-3.307l-22.08 12.748a9.035 9.035 0 0 0 2.177 16.549 9.119 9.119 0 0 0 2.354.312 8.994 8.994 0 0 0 4.5-1.214l22.08-12.748a9.043 9.043 0 0 0 3.308-12.34Z"/><path data-name="Path 41800" d="M415.183 172.549a53.457 53.457 0 0 0-52.689-91.257l-32.853-56.905a35.945 35.945 0 0 0-30.664-18.111 35.562 35.562 0 0 0-.731-.007 35.932 35.932 0 0 0-30.615 16.9 521.794 521.794 0 0 1-159.026 160.854 9.058 9.058 0 0 0-3.021 11.895c.353.647 54.941 95.184 55.487 96.129a9.033 9.033 0 0 0 15.646-9.034l-51.127-88.555A539.981 539.981 0 0 0 282.913 32.805a18.152 18.152 0 0 1 31.08.616l118.4 205.072a18.154 18.154 0 0 1-15.008 27.224 539.727 539.727 0 0 0-226.339 59.263c-.192.1-28.214 16.272-83.288 48.072l-2.382 1.376a29.422 29.422 0 0 1-40.145-10.758l-43.218-74.867a29.423 29.423 0 0 1 10.752-40.145l52.021-30.035a9.034 9.034 0 0 0-9.033-15.647l-52.022 30.035a47.508 47.508 0 0 0-17.369 64.825l43.224 74.867a47.507 47.507 0 0 0 64.827 17.369l1.535-.886 53.115 92a28.258 28.258 0 0 0 38.583 10.339l18.717-10.806a28.279 28.279 0 0 0 10.338-38.583l-37.821-65.509a9.034 9.034 0 0 0-15.648 9.031l37.822 65.509a10.172 10.172 0 0 1-3.725 13.9l-18.716 10.811a10.192 10.192 0 0 1-13.9-3.726l-53.116-92 67.872-39.186a521.785 521.785 0 0 1 218.623-57.2 36.216 36.216 0 0 0 29.949-54.31Zm-9.234-16-34.223-59.271a35.4 35.4 0 0 1 34.223 59.28Z"/></g></svg>