<svg width="32" height="32" viewBox="0 0 32 32" fill="none" xmlns="http://www.w3.org/2000/svg">
   <path d="M29.1803 23.3416C27.5157 23.3416 25.9524 22.6994 24.7779 21.5333C23.6039 20.3677 22.9574 18.8153 22.9574 17.1621C22.9574 16.709 22.59 16.3418 22.1371 16.3418C21.684 16.3418 21.3168 16.709 21.3168 17.1621C21.3168 18.8153 20.6702 20.3677 19.4961 21.5333C18.3216 22.6994 16.7583 23.3416 15.0938 23.3416C14.6407 23.3416 14.2734 23.7088 14.2734 24.1619C14.2734 24.615 14.6407 24.9822 15.0938 24.9822C18.525 24.9822 21.3168 27.7625 21.3168 31.1798C21.3168 31.6329 21.684 32.0002 22.1371 32.0002C22.59 32.0002 22.9574 31.6329 22.9574 31.1798C22.9574 27.7625 25.7491 24.9822 29.1803 24.9822C29.6334 24.9822 30.0006 24.615 30.0006 24.1619C30.0006 23.7088 29.6334 23.3416 29.1803 23.3416Z" fill="currentColor"/>
   <path d="M13.2238 16.9275C10.8079 16.9275 8.84235 14.9765 8.84235 12.5781C8.84235 12.1252 8.47513 11.7578 8.02203 11.7578C7.56894 11.7578 7.20172 12.1252 7.20172 12.5781C7.20172 14.9765 5.23618 16.9275 2.82031 16.9275C2.36722 16.9275 2 17.2949 2 17.7478C2 18.2009 2.36722 18.5681 2.82031 18.5681C5.23618 18.5681 7.20172 20.5253 7.20172 22.9309C7.20172 23.3838 7.56894 23.7513 8.02203 23.7513C8.47513 23.7513 8.84235 23.3838 8.84235 22.9309C8.84235 20.5253 10.8079 18.5681 13.2238 18.5681C13.6768 18.5681 14.0441 18.2009 14.0441 17.7478C14.0441 17.2949 13.6768 16.9275 13.2238 16.9275Z" fill="currentColor"/>
   <path d="M14.5585 9.6687C16.3352 9.6687 17.7808 11.1032 17.7808 12.8662C17.7808 13.3191 18.148 13.6865 18.6011 13.6865C19.0542 13.6865 19.4214 13.3191 19.4214 12.8662C19.4214 11.0974 20.867 9.65845 22.6437 9.65845C23.0968 9.65845 23.464 9.29102 23.464 8.83813C23.464 8.38504 23.0968 8.01782 22.6437 8.01782C20.867 8.01782 19.4214 6.58334 19.4214 4.82031C19.4214 4.36722 19.0542 4 18.6011 4C18.148 4 17.7808 4.36722 17.7808 4.82031C17.7808 6.58911 16.3352 8.02808 14.5585 8.02808C14.1054 8.02808 13.7382 8.39529 13.7382 8.84839C13.7382 9.30148 14.1054 9.6687 14.5585 9.6687Z" fill="currentColor"/>
</svg>
