<svg width="23" height="22" viewBox="0 0 23 22" fill="none" xmlns="http://www.w3.org/2000/svg">
<path opacity="0.35" d="M21.8153 8.55686C21.6779 8.13427 21.3031 7.83508 20.8614 7.79511L14.8368 7.24816L12.4558 1.67386C12.2801 1.26432 11.8801 1 11.4349 1C10.9897 1 10.5895 1.26432 10.4148 1.67386L8.03388 7.24816L2.00833 7.79511C1.56662 7.83587 1.1926 8.13507 1.05438 8.55686C0.916969 8.97946 1.04387 9.44298 1.37794 9.73596L5.93206 13.7293L4.58928 19.6434C4.49103 20.0782 4.65981 20.5279 5.02063 20.7887C5.21457 20.9296 5.44243 21 5.67108 21C5.86757 21 6.06422 20.9478 6.23985 20.8427L11.4349 17.7364L16.6289 20.8427C17.01 21.0704 17.4891 21.0495 17.8491 20.7887C18.2099 20.5279 18.3787 20.0782 18.2804 19.6434L16.9377 13.7293L21.4918 9.73596C21.8257 9.44298 21.9528 8.98041 21.8153 8.55686Z" fill="#081A3E"/>
<path d="M21.5514 10.0956C21.7507 9.90044 21.8913 9.65394 21.9574 9.38382C22.0235 9.1137 22.0125 8.83063 21.9256 8.56637C21.8388 8.30211 21.6795 8.06711 21.4656 7.88773C21.2518 7.70836 20.9919 7.5917 20.715 7.55086L15.6358 6.80923C15.5287 6.79377 15.427 6.75258 15.3396 6.68922C15.2522 6.62586 15.1817 6.54226 15.1343 6.44569L12.8518 1.86871C12.728 1.61695 12.5355 1.40479 12.2962 1.25638C12.0569 1.10798 11.7804 1.0293 11.4983 1.0293C11.2162 1.0293 10.9397 1.10798 10.7004 1.25638C10.4611 1.40479 10.2686 1.61695 10.1448 1.86871L7.8733 6.44751C7.82583 6.54408 7.75533 6.62768 7.66793 6.69104C7.58053 6.75439 7.47887 6.79559 7.37178 6.81105L2.28343 7.53813C2.0067 7.57926 1.74698 7.69611 1.53337 7.8756C1.31976 8.05509 1.16072 8.29011 1.07406 8.55433C0.987405 8.81854 0.976563 9.1015 1.04275 9.37149C1.10894 9.64148 1.24954 9.88783 1.44879 10.0829L5.13144 13.6602C5.20722 13.7358 5.26344 13.8286 5.29531 13.9305C5.32718 14.0324 5.33376 14.1405 5.31448 14.2455L4.44506 19.2787C4.39716 19.5541 4.4279 19.8373 4.53379 20.0962C4.63968 20.3552 4.81649 20.5795 5.04418 20.7437C5.27186 20.9079 5.54133 21.0056 5.82202 21.0255C6.10272 21.0454 6.38342 20.9869 6.63232 20.8565L11.1899 18.4844C11.2853 18.4347 11.3915 18.4087 11.4992 18.4087C11.607 18.4087 11.7131 18.4347 11.8085 18.4844L16.3679 20.8474C16.6168 20.9778 16.8975 21.0363 17.1782 21.0164C17.4589 20.9965 17.7284 20.8988 17.9561 20.7346C18.1837 20.5704 18.3606 20.3461 18.4664 20.0871C18.5723 19.8282 18.6031 19.545 18.5552 19.2696L17.6784 14.2455C17.6592 14.1405 17.6657 14.0324 17.6976 13.9305C17.7295 13.8286 17.7857 13.7358 17.8615 13.6602L21.5514 10.0956ZM16.8493 14.3872L17.7187 19.4187C17.7392 19.54 17.7251 19.6645 17.6783 19.7784C17.6314 19.8922 17.5535 19.9908 17.4533 20.0631C17.3531 20.1354 17.2346 20.1786 17.1111 20.1877C16.9876 20.1968 16.864 20.1716 16.7541 20.1148L12.2021 17.7391C11.9858 17.6264 11.7453 17.5675 11.501 17.5675C11.2568 17.5675 11.0162 17.6264 10.8 17.7391L6.24795 20.1203C6.13803 20.1776 6.01418 20.2032 5.89038 20.1943C5.76658 20.1854 5.64774 20.1423 5.54726 20.07C5.44678 19.9976 5.36867 19.8988 5.32171 19.7846C5.27476 19.6705 5.26084 19.5457 5.28153 19.4241L6.15094 14.3927C6.19232 14.1535 6.17446 13.9078 6.09888 13.6769C6.02331 13.4461 5.89229 13.2369 5.71715 13.0676L2.03633 9.49762C1.94783 9.41159 1.88523 9.30277 1.85555 9.18337C1.82587 9.06397 1.83029 8.93871 1.86831 8.82167C1.90633 8.70462 1.97644 8.60042 2.07078 8.52075C2.16513 8.44108 2.27996 8.3891 2.4024 8.37064L7.49075 7.64356C7.73257 7.60896 7.96226 7.51641 8.15998 7.37389C8.3577 7.23138 8.5175 7.04319 8.62557 6.82559L10.9025 2.2377C10.9577 2.12739 11.0428 2.03456 11.1482 1.96966C11.2536 1.90477 11.3752 1.87039 11.4992 1.87039C11.6232 1.87039 11.7448 1.90477 11.8502 1.96966C11.9556 2.03456 12.0407 2.12739 12.0959 2.2377L14.3728 6.8165C14.4809 7.0341 14.6407 7.22229 14.8384 7.3648C15.0361 7.50732 15.2658 7.59987 15.5077 7.63447L20.596 8.36155C20.7184 8.38001 20.8333 8.43199 20.9276 8.51166C21.022 8.59133 21.0921 8.69553 21.1301 8.81258C21.1681 8.92962 21.1725 9.05488 21.1429 9.17428C21.1132 9.29368 21.0506 9.4025 20.9621 9.48853L17.2831 13.0621C17.1079 13.2315 16.9769 13.4406 16.9014 13.6715C16.8258 13.9023 16.8079 14.148 16.8493 14.3872Z" fill="white" stroke="white" stroke-width="0.6"/>
</svg>
