<svg id="Layer_1" data-name="Layer 1" xmlns="http://www.w3.org/2000/svg" viewBox="0 0 22.23 21.19"><defs><style>.cls-1{fill:#f81734;}.cls-2{fill:#fff;}</style></defs><path class="cls-1" d="M5.2,20.79a1.85,1.85,0,0,1-1.75-2.17l.87-5a.23.23,0,0,0,0-.14.28.28,0,0,0-.08-.18L.57,9.74a1.77,1.77,0,0,1-.51-.9,1.81,1.81,0,0,1,0-1,1.83,1.83,0,0,1,.59-.87,1.93,1.93,0,0,1,.94-.43l5.09-.73a.21.21,0,0,0,.13,0,.35.35,0,0,0,.07-.09L9.22,1.06A1.76,1.76,0,0,1,9.93.29a1.85,1.85,0,0,1,1-.29,1.91,1.91,0,0,1,1,.29,1.86,1.86,0,0,1,.7.77l2.28,4.58.1.11a.24.24,0,0,0,.1,0l5.08.74a1.88,1.88,0,0,1,.95.43,1.76,1.76,0,0,1,.59,1.9,1.7,1.7,0,0,1-.51.9l-3.69,3.56a.24.24,0,0,0-.06.11.2.2,0,0,0,0,.11l.88,5a1.92,1.92,0,0,1-.76,1.85,2,2,0,0,1-1,.36h-.14a2,2,0,0,1-.88-.21L11,18.18a.3.3,0,0,0-.26,0L6.22,20.55a2,2,0,0,1-.89.22l-.11,0ZM10.89,1.64a.2.2,0,0,0-.13,0,.35.35,0,0,0-.1.11L8.39,6.37a2,2,0,0,1-.59.7A2.09,2.09,0,0,1,7,7.41l-5.09.73a.35.35,0,0,0-.14.06.3.3,0,0,0-.07.11.33.33,0,0,0,0,.14.24.24,0,0,0,.07.12l3.69,3.58a2,2,0,0,1,.48.76,2.06,2.06,0,0,1,.07.92l-.87,5c0,.08,0,.11,0,.15a.21.21,0,0,0,.08.11.33.33,0,0,0,.17.08.27.27,0,0,0,.12,0L10,16.75a1.82,1.82,0,0,1,.86-.21h0a1.87,1.87,0,0,1,.9.21l4.56,2.38.11,0a.28.28,0,0,0,.18-.06.18.18,0,0,0,.07-.1.11.11,0,0,0,0-.11l-.88-5a2.11,2.11,0,0,1,.07-.9,1.93,1.93,0,0,1,.48-.77L20,8.56c.11-.07.16-.11.18-.16a.46.46,0,0,0,0-.1.18.18,0,0,0-.07-.1A.31.31,0,0,0,20,8.13L14.91,7.4a2,2,0,0,1-1.44-1L11.14,1.79a.35.35,0,0,0-.1-.11.2.2,0,0,0-.13,0Z" transform="translate(0.21 0.2)"/><path class="cls-2" d="M10.93.2a1.74,1.74,0,0,1,.9.26,1.62,1.62,0,0,1,.63.69l2.28,4.58a.8.8,0,0,0,.15.17.5.5,0,0,0,.2.08l5.08.74A1.78,1.78,0,0,1,21,7.1a1.65,1.65,0,0,1,.53.77,1.83,1.83,0,0,1,0,.93,1.61,1.61,0,0,1-.46.81L17.4,13.17a.45.45,0,0,0-.11.19.41.41,0,0,0,0,.22l.87,5a1.61,1.61,0,0,1-.1.92,1.69,1.69,0,0,1-.58.74,1.84,1.84,0,0,1-.88.32h-.12a1.84,1.84,0,0,1-.79-.19L11.13,18a.51.51,0,0,0-.44,0L6.13,20.37a1.72,1.72,0,0,1-.8.2l-.12,0a1.69,1.69,0,0,1-1.46-1,1.64,1.64,0,0,1-.1-.93l.87-5a.41.41,0,0,0,0-.22.45.45,0,0,0-.12-.27L.71,9.6a1.61,1.61,0,0,1-.46-.81,1.83,1.83,0,0,1,0-.93,1.65,1.65,0,0,1,.53-.77,1.74,1.74,0,0,1,.84-.38L6.71,6a.49.49,0,0,0,.21-.08.39.39,0,0,0,.14-.17L9.4,1.15A1.5,1.5,0,0,1,10,.46a1.74,1.74,0,0,1,.9-.26m0,1.24h0a.42.42,0,0,0-.24.07.52.52,0,0,0-.17.19L8.21,6.28a1.9,1.9,0,0,1-.53.63,1.79,1.79,0,0,1-.76.3l-5.09.73A.52.52,0,0,0,1.6,8a.6.6,0,0,0-.14.21.57.57,0,0,0,0,.26.42.42,0,0,0,.13.21l3.68,3.57A1.91,1.91,0,0,1,5.7,13a1.75,1.75,0,0,1,.06.82l-.87,5a.36.36,0,0,0,0,.25.43.43,0,0,0,.15.2.57.57,0,0,0,.26.12h0a.46.46,0,0,0,.23-.06l4.55-2.38a1.72,1.72,0,0,1,.77-.19h0a1.72,1.72,0,0,1,.77.19l4.56,2.38h.21a.55.55,0,0,0,.28-.09.43.43,0,0,0,.15-.2.36.36,0,0,0,0-.25l-.87-5a1.85,1.85,0,0,1,.06-.81,1.83,1.83,0,0,1,.43-.69L20.18,8.7a.5.5,0,0,0,.22-.21.53.53,0,0,0,0-.25.41.41,0,0,0-.14-.2A.38.38,0,0,0,20,7.93L14.94,7.2a1.79,1.79,0,0,1-.76-.3,1.86,1.86,0,0,1-.53-.62L11.32,1.7a.52.52,0,0,0-.17-.19.42.42,0,0,0-.24-.07h0m0-1.64A2.08,2.08,0,0,0,9.82.12,2,2,0,0,0,9,1L6.7,5.55h0l0,0-5.09.73a2.24,2.24,0,0,0-1,.47,2.16,2.16,0,0,0-.65,1,2.21,2.21,0,0,0,0,1.17,2.11,2.11,0,0,0,.57,1l3.69,3.57v.08l-.87,5.05a2,2,0,0,0,.12,1.16A2.09,2.09,0,0,0,5.19,21h.18a2.14,2.14,0,0,0,1-.25l4.55-2.37.26-.35-.18.35,4.56,2.37a2,2,0,0,0,1,.24h.12a2.21,2.21,0,0,0,1.11-.39,2.09,2.09,0,0,0,.72-.92,1.93,1.93,0,0,0,.12-1.14l-.87-5-.28-.34.28.29L21.37,9.9a2,2,0,0,0,.57-1,2.17,2.17,0,0,0,0-1.13,2.15,2.15,0,0,0-.67-1,2.1,2.1,0,0,0-1-.47l-5.08-.74s-.05,0-.08-.07L12.82,1A2,2,0,0,0,12,.12,2.08,2.08,0,0,0,10.93-.2Zm0,2h0v0a.1.1,0,0,1,.06,0l2.32,4.57A2.12,2.12,0,0,0,14.88,7.6L20,8.33h0l-.05,0-.05,0L16.22,12a2.3,2.3,0,0,0-.53.85,2.43,2.43,0,0,0-.08,1l.88,5v.07h-.14l-4.49-2.34a2,2,0,0,0-1-.24,2.08,2.08,0,0,0-1,.24L5.36,19h0l0,0v0l0,0,.87-5a2.15,2.15,0,0,0-.07-1A2.38,2.38,0,0,0,5.56,12L1.87,8.43l-.41-.18.38.13a.13.13,0,0,1,.06-.05L7,7.61a2.28,2.28,0,0,0,.93-.37,2.35,2.35,0,0,0,.66-.78l2.27-4.58,0,0Z" transform="translate(0.21 0.2)"/></svg>