<svg id="Layer_1" data-name="Layer 1" xmlns="http://www.w3.org/2000/svg" viewBox="0 0 17.94 17.2">
  <path class="cls-1" d="M18.78,7.37a1.38,1.38,0,0,0-1.11-.93l-4.3-.63a.39.39,0,0,1-.2-.08A.5.5,0,0,1,13,5.56L11.1,1.67a1.36,1.36,0,0,0-.5-.56,1.4,1.4,0,0,0-1.45,0,1.26,1.26,0,0,0-.51.56L6.72,5.56a.39.39,0,0,1-.14.17.54.54,0,0,1-.21.08l-4.3.63a1.33,1.33,0,0,0-.68.31A1.32,1.32,0,0,0,1,7.37a1.37,1.37,0,0,0,0,.75,1.4,1.4,0,0,0,.37.66l3.11,3a.41.41,0,0,1,.12.19.5.5,0,0,1,0,.21L3.82,16.5a1.48,1.48,0,0,0,.08.75,1.42,1.42,0,0,0,.47.59,1.36,1.36,0,0,0,.71.26h.09a1.27,1.27,0,0,0,.64-.16l3.85-2a.47.47,0,0,1,.43,0l3.85,2a1.42,1.42,0,0,0,.73.16,1.38,1.38,0,0,0,1.18-.86,1.43,1.43,0,0,0,.08-.74l-.74-4.28a.53.53,0,0,1,0-.22.39.39,0,0,1,.12-.19l3.1-3a1.33,1.33,0,0,0,.37-.65A1.31,1.31,0,0,0,18.78,7.37Zm-4.44,4.35a1.3,1.3,0,0,0-.05.65L15,16.65a.42.42,0,0,1,0,.25.53.53,0,0,1-.16.2.5.5,0,0,1-.24.09.47.47,0,0,1-.25-.05l-3.84-2a1.36,1.36,0,0,0-1.28,0l-3.84,2a.45.45,0,0,1-.25.05.5.5,0,0,1-.24-.09.53.53,0,0,1-.16-.2.43.43,0,0,1,0-.25l.73-4.28a1.35,1.35,0,0,0,0-.66,1.42,1.42,0,0,0-.34-.55L2,8.13a.5.5,0,0,1-.13-.22.46.46,0,0,1,0-.26A.6.6,0,0,1,2,7.44a.52.52,0,0,1,.23-.1l4.3-.62a1.49,1.49,0,0,0,.61-.25A1.42,1.42,0,0,0,7.54,6L9.46,2.07a.44.44,0,0,1,.17-.19.48.48,0,0,1,.49,0,.52.52,0,0,1,.17.19L12.21,6a1.37,1.37,0,0,0,.42.51,1.35,1.35,0,0,0,.61.24l4.3.63a.52.52,0,0,1,.23.1.6.6,0,0,1,.14.21.46.46,0,0,1,0,.26.42.42,0,0,1-.13.22l-3.1,3A1.3,1.3,0,0,0,14.34,11.72Z" transform="translate(-0.9 -0.9)"/>
</svg>
