<svg width="130" height="130" viewBox="0 0 130 130" fill="none" xmlns="http://www.w3.org/2000/svg">
<circle opacity="0.1" cx="65" cy="65" r="65" fill="#00D261"/>
<circle cx="65" cy="65" r="45" fill="#00D261"/>
<path d="M65.0002 48.3335C55.8168 48.3335 48.3335 55.8168 48.3335 65.0002C48.3335 74.1835 55.8168 81.6668 65.0002 81.6668C74.1835 81.6668 81.6668 74.1835 81.6668 65.0002C81.6668 55.8168 74.1835 48.3335 65.0002 48.3335ZM72.9668 61.1668L63.5168 70.6168C63.2835 70.8502 62.9668 70.9835 62.6335 70.9835C62.3002 70.9835 61.9835 70.8502 61.7502 70.6168L57.0335 65.9002C56.5502 65.4168 56.5502 64.6168 57.0335 64.1335C57.5168 63.6502 58.3168 63.6502 58.8002 64.1335L62.6335 67.9668L71.2002 59.4002C71.6835 58.9168 72.4835 58.9168 72.9668 59.4002C73.4502 59.8835 73.4502 60.6668 72.9668 61.1668Z" fill="white"/>
</svg>
