<svg width="32" height="32" viewBox="0 0 32 32" fill="none" xmlns="http://www.w3.org/2000/svg">
<path d="M22.7807 3.94046C23.4094 3.7309 23.7493 3.05129 23.5396 2.42254C23.3301 1.79378 22.6504 1.45387 22.0217 1.66358L18.4215 2.86363C18.0867 2.97524 17.8179 3.22867 17.6868 3.55636L16.4009 6.77108L15.1149 3.55636C14.9838 3.2286 14.7151 2.97524 14.3802 2.86363L10.78 1.66358C10.151 1.45372 9.47168 1.79378 9.26212 2.42254C9.05249 3.05129 9.39233 3.7309 10.0211 3.94046L13.0932 4.96455L15.2866 10.4481C15.6882 11.4519 17.1137 11.4513 17.515 10.4481L19.7084 4.96455L22.7807 3.94046Z" fill="#697586"/>
<path d="M28.4014 6.40197C22.5645 6.40197 22.886 6.37617 22.622 6.46407C22.373 6.54702 22.5 6.47787 19.8811 8.44206C18.959 9.13367 19.4534 10.6022 20.6021 10.6022C21.1338 10.6022 21.19 10.4605 23.4012 8.80208H28.4014C29.0642 8.80208 29.6015 8.26475 29.6015 7.60202C29.6015 6.93929 29.0642 6.40197 28.4014 6.40197Z" fill="#697586"/>
<path d="M4.40032 8.80245H9.40058L11.4806 10.3625C12.015 10.7634 12.7664 10.6484 13.1606 10.1225C13.5583 9.59231 13.4508 8.8401 12.9206 8.44244C10.33 6.49947 10.3225 6.40234 9.8005 6.40234H4.40025C3.73744 6.40234 3.2002 6.93967 3.2002 7.6024C3.2002 8.26513 3.73759 8.80245 4.40032 8.80245Z" fill="#697586"/>
<path d="M28.4009 1.60156H26.0008C25.338 1.60156 24.8008 2.13889 24.8008 2.80162C24.8008 3.46435 25.338 4.00167 26.0008 4.00167H28.4009C29.0637 4.00167 29.601 3.46435 29.601 2.80162C29.601 2.13889 29.0637 1.60156 28.4009 1.60156Z" fill="#697586"/>
<path d="M4.40025 4.00167H6.80036C7.46316 4.00167 8.00041 3.46435 8.00041 2.80162C8.00041 2.13889 7.46316 1.60156 6.80036 1.60156H4.40025C3.73744 1.60156 3.2002 2.13889 3.2002 2.80162C3.2002 3.46435 3.73752 4.00167 4.40025 4.00167Z" fill="#697586"/>
<path d="M16.4009 16.3717L15.1149 13.1569C14.9838 12.8292 14.7151 12.5758 14.3802 12.4642L10.78 11.2642C10.151 11.0543 9.47168 11.3944 9.26212 12.0231C9.05249 12.6519 9.39233 13.3315 10.0211 13.541L13.0932 14.5651L15.2866 20.0486C15.6882 21.0525 17.1137 21.0519 17.5151 20.0486L19.7084 14.5651L22.7806 13.541C23.4093 13.3315 23.7492 12.6519 23.5395 12.0231C23.33 11.3944 22.6503 11.0545 22.0216 11.2642L18.4215 12.4642C18.0866 12.5758 17.8178 12.8293 17.6867 13.1569L16.4009 16.3717Z" fill="#697586"/>
<path d="M28.4014 16.0024C22.584 16.0024 22.8845 15.9771 22.6219 16.0646C22.3719 16.148 22.4981 16.0798 19.8811 18.0425C18.959 18.7341 19.4534 20.2027 20.6021 20.2027C21.1338 20.2027 21.19 20.0609 23.4012 18.4025H28.4014C29.0642 18.4025 29.6015 17.8652 29.6015 17.2025C29.6015 16.5398 29.0642 16.0024 28.4014 16.0024Z" fill="#697586"/>
<path d="M4.40032 18.4021H9.40058L11.4806 19.9621C12.015 20.363 12.7664 20.248 13.1606 19.7221C13.5583 19.1919 13.4508 18.4397 12.9206 18.042C10.3299 16.0989 10.322 16.002 9.8005 16.002H4.40025C3.73744 16.002 3.2002 16.5393 3.2002 17.202C3.2002 17.8647 3.73759 18.4021 4.40032 18.4021Z" fill="#697586"/>
<path d="M28.4009 11.2021H26.0008C25.338 11.2021 24.8008 11.7395 24.8008 12.4022C24.8008 13.0649 25.338 13.6023 26.0008 13.6023H28.4009C29.0637 13.6023 29.601 13.0649 29.601 12.4022C29.601 11.7395 29.0637 11.2021 28.4009 11.2021Z" fill="#697586"/>
<path d="M4.40025 13.6023H6.80036C7.46316 13.6023 8.00041 13.0649 8.00041 12.4022C8.00041 11.7395 7.46316 11.2021 6.80036 11.2021H4.40025C3.73744 11.2021 3.2002 11.7395 3.2002 12.4022C3.2002 13.0649 3.73752 13.6023 4.40025 13.6023Z" fill="#697586"/>
<path d="M22.7807 23.1416C23.4094 22.932 23.7493 22.2524 23.5396 21.6237C23.3301 20.9949 22.6504 20.6551 22.0217 20.8647L18.4215 22.0648C18.0867 22.1764 17.8179 22.4298 17.6868 22.7575L16.4009 25.9722L15.1149 22.7575C14.9838 22.4297 14.7151 22.1764 14.3802 22.0648L10.78 20.8647C10.151 20.6549 9.47168 20.9949 9.26212 21.6237C9.05249 22.2524 9.39233 22.932 10.0211 23.1416L13.0932 24.1657L15.2866 29.6492C15.6882 30.653 17.1137 30.6524 17.515 29.6492L19.7084 24.1657L22.7807 23.1416Z" fill="#697586"/>
<path d="M12.9206 27.6431C10.3125 25.687 10.428 25.7478 10.1794 25.6651C9.91682 25.5776 10.2384 25.603 4.40025 25.603C3.73744 25.603 3.2002 26.1404 3.2002 26.8031C3.2002 27.4658 3.73744 28.0032 4.40025 28.0032H9.4005L11.4806 29.5632C12.0149 29.9641 12.7663 29.8491 13.1606 29.3232C13.5583 28.793 13.4508 28.0408 12.9206 27.6431Z" fill="#697586"/>
<path d="M28.4014 25.6031C22.5645 25.6031 22.886 25.5773 22.622 25.6652C22.373 25.7483 22.5 25.679 19.8811 27.6432C18.959 28.3348 19.4534 29.8034 20.6021 29.8034C21.1338 29.8034 21.19 29.6616 23.4012 28.0032H28.4014C29.0642 28.0032 29.6015 27.4659 29.6015 26.8032C29.6015 26.1405 29.0642 25.6031 28.4014 25.6031Z" fill="#697586"/>
<path d="M28.4009 20.8027H26.0008C25.338 20.8027 24.8008 21.3401 24.8008 22.0028C24.8008 22.6655 25.338 23.2028 26.0008 23.2028H28.4009C29.0637 23.2028 29.601 22.6655 29.601 22.0028C29.601 21.3401 29.0637 20.8027 28.4009 20.8027Z" fill="#697586"/>
<path d="M4.40025 23.2028H6.80036C7.46316 23.2028 8.00041 22.6655 8.00041 22.0028C8.00041 21.3401 7.46316 20.8027 6.80036 20.8027H4.40025C3.73744 20.8027 3.2002 21.3401 3.2002 22.0028C3.2002 22.6655 3.73752 23.2028 4.40025 23.2028Z" fill="#697586"/>
</svg>
