<svg width="14" height="12" viewBox="0 0 14 12" fill="none" xmlns="http://www.w3.org/2000/svg">
<path d="M9.82204 9.11C8.86633 10.7653 8.38848 11.593 7.75448 11.8517C7.27009 12.0494 6.72752 12.0494 6.24312 11.8517C5.60913 11.593 5.13127 10.7653 4.17556 9.11L2.02781 5.39C1.0721 3.73466 0.594248 2.90699 0.68718 2.22857C0.758183 1.71023 1.02947 1.24035 1.44286 0.91969C1.98392 0.5 2.93963 0.5 4.85106 0.5L9.14655 0.5C11.058 0.500001 12.0137 0.500001 12.5547 0.919691C12.9681 1.24035 13.2394 1.71023 13.3104 2.22857C13.4034 2.90699 12.9255 3.73466 11.9698 5.39L9.82204 9.11Z" fill="#ECF2F9"/>
</svg>
