<svg width="24" height="24" viewBox="0 0 24 24" fill="none" xmlns="http://www.w3.org/2000/svg">
   <path fill-rule="evenodd" clip-rule="evenodd" d="M4.22182 19.7782C8.51759 24.0739 15.4823 24.0739 19.7782 19.7782C24.0739 15.4823 24.0739 8.51759 19.7782 4.22182C15.4823 -0.0739408 8.51759 -0.0739408 4.22182 4.22182C-0.0739408 8.51759 -0.0739408 15.4823 4.22182 19.7782ZM6.87581 18.8526C10.2269 21.365 15.002 21.0973 18.0496 18.0496C21.0973 15.002 21.365 10.2269 18.8526 6.87581L15.4569 10.2715C14.9796 10.7488 14.2057 10.7488 13.7284 10.2715C13.2512 9.79424 13.2512 9.02033 13.7284 8.54302L17.1241 5.14732C13.7731 2.63493 8.99802 2.90258 5.9503 5.9503C2.90258 8.99802 2.63493 13.7731 5.14732 17.1241L8.54302 13.7284C9.02033 13.2512 9.79424 13.2512 10.2715 13.7284C10.7488 14.2057 10.7488 14.9796 10.2715 15.4569L6.87581 18.8526Z" fill="#364152"/>
</svg>
