<svg id="Layer_1" data-name="Layer 1" xmlns="http://www.w3.org/2000/svg" viewBox="0 0 15.9 16.6">
  <g>
    <path class="cls-1" d="M14.26,11.05A7.88,7.88,0,0,0,8.65,8.72h0a8,8,0,0,0-7.95,8,.61.61,0,0,0,.19.44.64.64,0,0,0,.89,0A.59.59,0,0,0,2,16.67a7,7,0,0,1,.49-2.59,6.76,6.76,0,0,1,3.62-3.66,6.76,6.76,0,0,1,5.15,0,6.61,6.61,0,0,1,2.18,1.47,6.52,6.52,0,0,1,1.44,2.19,6.59,6.59,0,0,1,.49,2.59.6.6,0,0,0,.19.44.61.61,0,0,0,.44.19.64.64,0,0,0,.45-.19.6.6,0,0,0,.19-.44A7.94,7.94,0,0,0,14.26,11.05Z" transform="translate(-0.7 -0.7)"/>
    <path class="cls-1" d="M5.85,7.46a3.92,3.92,0,0,0,2,1.08,4.13,4.13,0,0,0,.78.08,4,4,0,0,0,1.51-.31,3.87,3.87,0,0,0,1.77-1.45A4,4,0,0,0,8.65.7h0A4,4,0,0,0,5,3.14a3.94,3.94,0,0,0,.86,4.32ZM6,4.13A2.68,2.68,0,0,1,8.12,2,2.32,2.32,0,0,1,8.65,2a2.54,2.54,0,0,1,1,.2,2.69,2.69,0,0,1,.88,4.39,2.75,2.75,0,0,1-3.4.34,2.66,2.66,0,0,1-1-1.21A2.69,2.69,0,0,1,6,4.13Z" transform="translate(-0.7 -0.7)"/>
  </g>
</svg>
