<svg width="24" height="24" viewBox="0 0 24 24" fill="none" xmlns="http://www.w3.org/2000/svg">
<path d="M11.994 1C9.11204 1 6.76904 3.343 6.76904 6.225C6.76904 9.05199 8.98004 11.34 11.862 11.439C11.95 11.428 12.038 11.428 12.104 11.439C12.126 11.439 12.137 11.439 12.159 11.439C12.17 11.439 12.17 11.439 12.181 11.439C14.997 11.34 17.208 9.05199 17.219 6.225C17.219 3.343 14.876 1 11.994 1Z" fill="#9AA4B2"/>
<path d="M17.582 14.3759C14.513 12.3299 9.508 12.3299 6.417 14.3759C5.02 15.2999 4.25 16.5649 4.25 17.9179C4.25 19.2709 5.02 20.5249 6.406 21.4489C7.946 22.4829 9.97 22.9999 11.994 22.9999C14.018 22.9999 16.042 22.4829 17.582 21.4489C18.968 20.5139 19.738 19.2599 19.738 17.8959C19.727 16.5539 18.968 15.2889 17.582 14.3759Z" fill="#9AA4B2"/>
</svg>
