<svg width="20" height="20" viewBox="0 0 20 20" fill="none" xmlns="http://www.w3.org/2000/svg">
<rect x="2" y="2" width="16" height="16" rx="4" fill="#9AA4B2"/>
<path fill-rule="evenodd" clip-rule="evenodd" d="M9.54595 5.818C9.62238 5.83717 9.69429 5.8712 9.75757 5.91816C9.82084 5.96512 9.87425 6.02409 9.91474 6.09169C9.95522 6.15929 9.982 6.23421 9.99353 6.31216C10.0051 6.39011 10.0011 6.46957 9.98195 6.546L9.71795 7.6H11.4819L11.818 6.254C11.8567 6.09964 11.9551 5.96699 12.0917 5.88522C12.1593 5.84474 12.2342 5.81796 12.3121 5.80643C12.3901 5.79489 12.4695 5.79882 12.5459 5.818C12.6224 5.83717 12.6943 5.87121 12.7576 5.91817C12.8208 5.96513 12.8742 6.0241 12.9147 6.0917C12.9552 6.1593 12.982 6.23421 12.9935 6.31216C13.0051 6.39011 13.0011 6.46957 12.982 6.546L12.718 7.6H14.2C14.3591 7.6 14.5117 7.66321 14.6242 7.77573C14.7367 7.88826 14.8 8.04087 14.8 8.2C14.8 8.35913 14.7367 8.51174 14.6242 8.62426C14.5117 8.73678 14.3591 8.8 14.2 8.8H12.418L11.818 11.2H13C13.0787 11.2 13.1568 11.2155 13.2296 11.2457C13.3024 11.2758 13.3685 11.32 13.4242 11.3757C13.4799 11.4314 13.5241 11.4976 13.5543 11.5704C13.5844 11.6432 13.6 11.7212 13.6 11.8C13.6 11.8788 13.5844 11.9568 13.5543 12.0296C13.5241 12.1024 13.4799 12.1685 13.4242 12.2243C13.3685 12.28 13.3024 12.3242 13.2296 12.3543C13.1568 12.3845 13.0787 12.4 13 12.4H11.518L11.182 13.745C11.164 13.8226 11.1307 13.8958 11.0841 13.9604C11.0375 14.0251 10.9785 14.0797 10.9106 14.1213C10.8426 14.1629 10.767 14.1905 10.6883 14.2026C10.6096 14.2146 10.5292 14.2109 10.4519 14.1916C10.3747 14.1722 10.302 14.1377 10.2382 14.09C10.1744 14.0423 10.1207 13.9824 10.0803 13.9138C10.0399 13.8451 10.0136 13.7691 10.0029 13.6901C9.99219 13.6112 9.99731 13.5309 10.018 13.454L10.282 12.4H8.51795L8.18195 13.745C8.16396 13.8226 8.13069 13.8958 8.0841 13.9604C8.0375 14.0251 7.9785 14.0797 7.91055 14.1213C7.8426 14.1629 7.76705 14.1905 7.68831 14.2026C7.60957 14.2146 7.52922 14.2109 7.45194 14.1916C7.37466 14.1722 7.302 14.1377 7.2382 14.09C7.1744 14.0423 7.12073 13.9824 7.08033 13.9138C7.03994 13.8451 7.01362 13.7691 7.00291 13.6901C6.99219 13.6112 6.99731 13.5309 7.01795 13.454L7.28195 12.4H5.79995C5.64082 12.4 5.48821 12.3368 5.37569 12.2243C5.26317 12.1117 5.19995 11.9591 5.19995 11.8C5.19995 11.6409 5.26317 11.4883 5.37569 11.3757C5.48821 11.2632 5.64082 11.2 5.79995 11.2H7.58195L8.18195 8.8H6.99995C6.84082 8.8 6.68821 8.73678 6.57569 8.62426C6.46317 8.51174 6.39995 8.35913 6.39995 8.2C6.39995 8.04087 6.46317 7.88826 6.57569 7.77573C6.68821 7.66321 6.84082 7.6 6.99995 7.6H8.48195L8.81795 6.254C8.83712 6.17757 8.87116 6.10566 8.91812 6.04238C8.96508 5.97911 9.02404 5.9257 9.09165 5.88521C9.15925 5.84473 9.23416 5.81795 9.31211 5.80642C9.39006 5.79489 9.46952 5.79882 9.54595 5.818ZM9.41795 8.8L8.81795 11.2H10.581L11.181 8.8H9.41795Z" fill="white"/>
</svg>
