<svg width="33" height="32" viewBox="0 0 33 32" fill="none" xmlns="http://www.w3.org/2000/svg">
<path d="M26.5136 5.82606C23.7744 3.08693 20.1744 1.59998 16.3396 1.59998C13.444 1.59998 10.7049 2.46085 8.35704 4.02606C6.00921 5.59128 4.13095 7.86084 3.0353 10.5217C1.93965 13.1826 1.6266 16 2.25269 18.8174C2.80052 21.6348 4.20921 24.1391 6.16573 26.1739C8.20052 28.2087 10.7049 29.5391 13.5223 30.0869C14.4614 30.2435 15.4005 30.4 16.3396 30.4C18.2179 30.4 20.0962 30.0087 21.8179 29.3043C24.4788 28.2087 26.6701 26.4087 28.3136 23.9826C29.8788 21.6348 30.7396 18.8174 30.7396 16C30.7396 12.1652 29.2527 8.56519 26.5136 5.82606ZM28.5483 16C28.5483 19.2869 27.2962 22.3391 24.9483 24.6087C22.6788 26.8782 19.5483 28.2087 16.3396 28.2087C13.9136 28.2087 11.5657 27.5043 9.53095 26.1739C7.49617 24.8435 5.93095 22.9652 5.07008 20.6956C4.13095 18.4261 3.89617 16 4.36573 13.6521C4.8353 11.3043 6.00921 9.11302 7.73095 7.39128C9.45269 5.66954 11.644 4.49563 13.9918 4.02606C14.7744 3.86954 15.557 3.79128 16.4179 3.79128C17.9831 3.79128 19.6266 4.10432 21.1136 4.73041C23.3831 5.66954 25.2614 7.23476 26.5918 9.19128C27.844 11.2261 28.5483 13.5739 28.5483 16Z" fill="#697586"/>
<path d="M23.3833 14.7478C23.6963 14.7478 23.9311 14.6695 24.1659 14.4348C24.4007 14.2 24.4789 13.9652 24.4789 13.6521C24.4789 13.3391 24.4007 13.1043 24.1659 12.8695C23.9311 12.6348 23.6963 12.5565 23.3833 12.5565H21.192L22.1311 9.26954C22.1311 9.11301 22.2094 8.95649 22.1311 8.87823C22.1311 8.72171 22.0529 8.56519 21.9746 8.48693C21.8963 8.33041 21.8181 8.25214 21.6616 8.17388C21.5833 8.09562 21.4268 8.01736 21.2703 8.01736C21.1137 8.01736 21.0355 7.86084 20.8789 7.86084C20.7224 7.86084 20.5659 7.9391 20.4876 8.01736C20.3311 8.09562 20.2529 8.17388 20.1746 8.33041C20.0963 8.40867 20.0181 8.56519 20.0181 8.72171L18.9224 12.6348H15.7137L16.6529 9.3478C16.7311 9.03475 16.7311 8.79997 16.5746 8.48693C16.4181 8.25214 16.1833 8.01736 15.9485 7.9391C15.5572 7.86084 15.2442 7.86084 15.0094 8.01736C14.7746 8.17388 14.5398 8.40867 14.4616 8.64345L13.3659 12.5565H9.29634C8.98329 12.5565 8.74851 12.6348 8.51373 12.8695C8.27894 13.1043 8.20068 13.3391 8.20068 13.6521C8.20068 13.9652 8.27894 14.2 8.51373 14.4348C8.74851 14.6695 8.98329 14.7478 9.29634 14.7478H12.8181L12.1137 17.2521H9.29634C8.98329 17.2521 8.74851 17.3304 8.51373 17.5652C8.35721 17.8 8.20068 18.0348 8.20068 18.3478C8.20068 18.6608 8.27894 18.8956 8.51373 19.1304C8.74851 19.3652 8.98329 19.4434 9.29634 19.4434H11.4876L10.6268 22.7304C10.6268 22.8869 10.5485 23.0434 10.6268 23.1217C10.6268 23.2782 10.705 23.4348 10.7833 23.513C10.8616 23.6695 10.9398 23.7478 11.0963 23.8261C11.1746 23.9043 11.3311 23.9826 11.4876 23.9826C11.8007 24.0608 12.192 23.9826 12.4268 23.8261C12.5833 23.6695 12.7398 23.513 12.8181 23.2782L13.9137 19.3652H17.1224L16.105 22.7304C16.105 22.8869 16.0268 23.0434 16.105 23.1217C16.105 23.2782 16.1833 23.4348 16.2616 23.513C16.3398 23.6695 16.4181 23.7478 16.5746 23.8261C16.6529 23.9043 16.8094 23.9826 16.9659 23.9826C17.0442 23.9826 17.1224 23.9826 17.2789 23.9826C17.5137 23.9826 17.7485 23.9043 17.905 23.7478C18.0616 23.5913 18.2181 23.4348 18.2963 23.2L19.392 19.2869H23.5398C23.8529 19.2869 24.0876 19.2087 24.3224 18.9739C24.5572 18.7391 24.6355 18.5043 24.6355 18.1913C24.6355 17.8782 24.5572 17.6434 24.3224 17.4087C24.0876 17.1739 23.8529 17.0956 23.5398 17.0956H20.0181L20.7224 14.5913H23.3833V14.7478ZM18.2963 14.7478L17.592 17.2521H14.3833L15.0876 14.7478H18.2963Z" fill="#697586"/>
</svg>
