<svg width="32" height="32" viewBox="0 0 32 32" fill="none" xmlns="http://www.w3.org/2000/svg">
   <path d="M23.2617 11.0687C22.518 10.7977 21.7318 10.6617 20.9403 10.6671C18.3806 10.6671 16.5727 11.9566 16.5599 13.8076C16.5439 15.1675 17.8446 15.9338 18.8285 16.3882C19.838 16.8553 20.1756 17.1497 20.1724 17.5673C20.166 18.2024 19.3661 18.4904 18.6221 18.4904C17.5998 18.4904 17.0415 18.3464 16.1824 17.9912L15.864 17.8424L15.5009 19.9734C16.1232 20.2326 17.2447 20.4534 18.403 20.4742C21.1243 20.4742 22.9033 19.1927 22.9241 17.2233C22.9465 16.1354 22.2426 15.3163 20.7611 14.638C19.8604 14.198 19.3021 13.902 19.3021 13.4573C19.3021 13.0621 19.7804 12.6398 20.7803 12.6398C21.4459 12.6238 22.1082 12.7485 22.7209 13.0061L22.9609 13.1133L23.3241 11.0543L23.2617 11.0687ZM29.9042 10.8399H27.9044C27.2821 10.8399 26.8133 11.0111 26.5413 11.6287L22.6953 20.3414H25.4167L25.9606 18.9127L29.2819 18.9159C29.3603 19.2503 29.6002 20.3398 29.6002 20.3398H32L29.9042 10.8399ZM12.8787 10.7599H15.4721L13.8498 20.2662H11.2597L12.8787 10.7567V10.7599ZM6.29537 15.9978L6.56414 17.3177L9.09829 10.8383H11.8452L7.76402 20.3254H5.0251L2.78532 12.2926C2.74941 12.1595 2.66418 12.0451 2.54695 11.9726C1.7396 11.5561 0.884237 11.2402 0 11.0319L0.0351964 10.8319H4.21078C4.77552 10.8543 5.23148 11.0319 5.38346 11.6367L6.29537 16.0026V15.9978ZM26.7045 16.9673L27.738 14.3084C27.7252 14.3372 27.9508 13.7596 28.082 13.4029L28.2596 14.2236L28.8595 16.9657H26.7029L26.7045 16.9673Z" fill="#2970FF"/>
</svg>
