<svg width="50" height="50" viewBox="0 0 50 50" fill="none" xmlns="http://www.w3.org/2000/svg">
<g clip-path="url(#clip0)">
<path d="M47.0703 26.9509H46.0938V20.115C46.0938 17.4201 44.2014 15.1603 41.676 14.5908L37.2312 6.89214C36.5798 5.76392 35.528 4.95679 34.2695 4.61958C33.381 4.38159 32.4647 4.39907 31.6056 4.65845L28.3735 1.42632C26.4717 -0.475342 23.3775 -0.475537 21.4757 1.42632L8.45127 14.4509H5.66406C2.54092 14.4509 0 16.9918 0 20.115V44.3337C0 47.4569 2.54092 49.9978 5.66406 49.9978H18.6523C19.1916 49.9978 19.6289 49.5605 19.6289 49.0212C19.6289 48.482 19.1916 48.0447 18.6523 48.0447H5.66406C3.61787 48.0447 1.95312 46.3799 1.95312 44.3337V20.115C1.95312 18.0688 3.61787 16.4041 5.66406 16.4041H40.4297C42.4759 16.4041 44.1406 18.0688 44.1406 20.115V26.9509H36.9141C34.0063 26.9509 31.6406 29.3167 31.6406 32.2244C31.6406 35.1321 34.0063 37.4978 36.9141 37.4978H44.1406V44.3337C44.1406 46.3799 42.4759 48.0447 40.4297 48.0447H27.4414C26.9021 48.0447 26.4648 48.482 26.4648 49.0212C26.4648 49.5605 26.9021 49.9978 27.4414 49.9978H40.4297C43.5528 49.9978 46.0938 47.4569 46.0938 44.3337V37.4978H47.0703C48.6857 37.4978 50 36.1835 50 34.5681V29.8806C50 28.2653 48.6857 26.9509 47.0703 26.9509ZM33.7641 6.5062C34.5186 6.70835 35.1492 7.19224 35.5397 7.8687L39.34 14.4509H18.2903L31.545 6.79829C32.2214 6.40786 33.0093 6.30396 33.7641 6.5062ZM22.8568 2.80747C23.4091 2.25513 24.1436 1.95093 24.9246 1.95093C25.7058 1.95093 26.4402 2.25513 26.9925 2.80747L29.7592 5.57417L14.3842 14.4509H11.2135L22.8568 2.80747ZM48.0469 34.5681C48.0469 35.1066 47.6088 35.5447 47.0703 35.5447H36.9141C35.0832 35.5447 33.5938 34.0552 33.5938 32.2244C33.5938 30.3935 35.0832 28.9041 36.9141 28.9041H47.0703C47.6088 28.9041 48.0469 29.3421 48.0469 29.8806V34.5681Z" fill="#081A3E"/>
<path d="M36.751 31.25C36.4941 31.25 36.2422 31.3544 36.0605 31.5361C35.8789 31.7179 35.7744 31.9688 35.7744 32.2266C35.7744 32.4834 35.8788 32.7354 36.0605 32.9169C36.2422 33.0985 36.4941 33.2031 36.751 33.2031C37.0088 33.2031 37.2598 33.0986 37.4413 32.9169C37.6239 32.7354 37.7275 32.4834 37.7275 32.2266C37.7275 31.9697 37.6239 31.7178 37.4413 31.5361C37.2598 31.3545 37.0088 31.25 36.751 31.25Z" fill="#081A3E"/>
<path d="M23.0469 48.0469C22.79 48.0469 22.5381 48.1513 22.3564 48.333C22.1748 48.5147 22.0703 48.7666 22.0703 49.0234C22.0703 49.2803 22.1747 49.5322 22.3564 49.7138C22.5381 49.8954 22.79 50 23.0469 50C23.3037 50 23.5557 49.8955 23.7372 49.7138C23.9188 49.5322 24.0234 49.2803 24.0234 49.0234C24.0234 48.7666 23.9189 48.5146 23.7372 48.333C23.5557 48.1514 23.3037 48.0469 23.0469 48.0469Z" fill="#081A3E"/>
</g>
<defs>
<clipPath id="clip0">
<rect width="50" height="50" fill="white"/>
</clipPath>
</defs>
</svg>
