<svg width="58" height="58" viewBox="0 0 58 58" fill="none" xmlns="http://www.w3.org/2000/svg">
<path fill-rule="evenodd" clip-rule="evenodd" d="M57.3268 29.0001C57.3268 44.6481 44.6416 57.3334 28.9935 57.3334C13.3454 57.3334 0.660156 44.6481 0.660156 29.0001C0.660156 13.352 13.3454 0.666748 28.9935 0.666748C44.6416 0.666748 57.3268 13.352 57.3268 29.0001ZM26.1602 43.1667C26.1602 41.6019 27.4287 40.3334 28.9935 40.3334C30.5583 40.3334 31.8268 41.6019 31.8268 43.1667C31.8268 44.7315 30.5583 46.0001 28.9935 46.0001C27.4287 46.0001 26.1602 44.7315 26.1602 43.1667ZM26.8685 34.6667C26.8685 35.8403 27.8199 36.7917 28.9935 36.7917C30.1671 36.7917 31.1185 35.8403 31.1185 34.6667L31.1185 14.8334C31.1185 13.6598 30.1671 12.7084 28.9935 12.7084C27.8199 12.7084 26.8685 13.6598 26.8685 14.8334L26.8685 34.6667Z" fill="white"/>
</svg>
