<svg width="17" height="16" viewBox="0 0 17 16"  xmlns="http://www.w3.org/2000/svg">
<path d="M11.6759 9.53704L11.6699 9.58704C10.2039 8.85604 10.0509 8.75904 9.86092 9.04304C9.72992 9.24304 9.34692 9.68604 9.23193 9.81804C9.11693 9.95004 8.99893 9.95804 8.80093 9.86804C8.21387 9.63401 7.67235 9.29895 7.20092 8.87804C6.76592 8.47486 6.39259 8.00988 6.09293 7.49804C5.89293 7.16104 6.30593 7.11304 6.67793 6.40904C6.70441 6.35406 6.71673 6.29333 6.71376 6.23238C6.71079 6.17143 6.69263 6.11219 6.66092 6.06004C6.61092 5.96004 6.21293 4.98004 6.04593 4.58904C5.87893 4.19804 5.72093 4.24904 5.59793 4.24904C5.43883 4.2088 5.27223 4.20865 5.11307 4.24862C4.9539 4.28858 4.80714 4.36741 4.68592 4.47804C3.61292 5.66104 3.88193 6.88204 4.80293 8.18204C6.61193 10.55 7.57593 10.982 9.33893 11.591C9.74481 11.714 10.1736 11.7417 10.5919 11.672C10.8695 11.6149 11.1322 11.5009 11.3635 11.3372C11.5948 11.1736 11.7897 10.9638 11.9359 10.721C12.069 10.4232 12.1107 10.0926 12.0559 9.77104C12.0069 9.68204 11.8759 9.62704 11.6759 9.53704Z" />
<path d="M13.6849 2.29995C12.5656 1.19771 11.1466 0.449386 9.60483 0.14831C8.06306 -0.152765 6.46676 0.00673503 5.01505 0.606917C3.56333 1.2071 2.32044 2.2214 1.44138 3.52331C0.562333 4.82522 0.086031 6.35712 0.0718828 7.92795C0.0705208 9.31958 0.437255 10.6868 1.13488 11.891L0.00488281 16L4.22788 14.9C5.43967 15.5555 6.80056 15.8862 8.17806 15.8598C9.55557 15.8334 10.9028 15.4508 12.0885 14.7492C13.2743 14.0476 14.2582 13.051 14.9445 11.8563C15.6308 10.6617 15.9961 9.30969 16.0049 7.93195C16.0076 6.88957 15.8029 5.85706 15.4029 4.89448C15.0029 3.93189 14.4155 3.05845 13.6749 2.32495L13.6849 2.29995ZM14.6729 7.91095C14.6644 9.07705 14.3489 10.2203 13.758 11.2257C13.1672 12.2311 12.3219 13.063 11.3072 13.6378C10.2926 14.2125 9.14439 14.5098 7.9783 14.4996C6.81221 14.4895 5.66938 14.1723 4.66488 13.58L4.42488 13.437L1.92488 14.087L2.59488 11.657L2.43588 11.407C1.57857 10.0279 1.25871 8.38158 1.53727 6.78184C1.81582 5.18209 2.67331 3.74079 3.94629 2.73267C5.21926 1.72455 6.8187 1.22011 8.43971 1.31551C10.0607 1.4109 11.5899 2.09947 12.7359 3.24995C13.3523 3.85902 13.8413 4.58478 14.1742 5.38488C14.5071 6.18497 14.6773 7.04336 14.6749 7.90995L14.6729 7.91095Z" />
</svg>
