<svg width="14" height="14" fill="none" xmlns="http://www.w3.org/2000/svg"><g clip-path="url(#a)"><path d="M7 0a7 7 0 0 0-5.667 11.103l-.875 2.6 2.693-.86A7 7 0 1 0 7 0Z" fill="#4CAF50"/><path d="M11.075 9.886a1.975 1.975 0 0 1-1.374.988c-.366.077-.844.14-2.45-.526A8.77 8.77 0 0 1 3.766 7.27a3.998 3.998 0 0 1-.832-2.111 2.235 2.235 0 0 1 .716-1.704c.198-.173.454-.263.716-.25.088 0 .165.004.235.007.205.009.308.021.444.346.169.407.58 1.411.63 1.514a.416.416 0 0 1 .029.38 1.21 1.21 0 0 1-.227.32c-.103.12-.201.21-.304.338-.095.111-.202.23-.083.438.309.523.692.999 1.138 1.41A5.146 5.146 0 0 0 7.87 8.972a.443.443 0 0 0 .493-.078c.195-.231.378-.473.547-.724a.39.39 0 0 1 .502-.152c.19.065 1.19.56 1.395.662.205.102.341.152.391.239.052.328.009.663-.123.968Z" fill="#FAFAFA"/></g><defs><clipPath id="a"><path fill="#fff" d="M0 0h14v14H0z"/></clipPath></defs></svg>