<svg width="21" height="17" viewBox="0 0 21 17" fill="none" xmlns="http://www.w3.org/2000/svg">
<path fill-rule="evenodd" clip-rule="evenodd" d="M20.8 8.34175C20.8 8.34175 20.8 4.71475 20.3339 2.9773C20.0779 2.01985 19.321 1.2652 18.3571 1.00585C16.6139 0.541748 10.6 0.541748 10.6 0.541748C10.6 0.541748 4.58916 0.541748 2.84292 1.00585C1.8831 1.2613 1.12524 2.01692 0.866164 2.9773C0.400024 4.71475 0.400024 8.34175 0.400024 8.34175C0.400024 8.34175 0.400024 11.9687 0.866164 13.7062C1.12218 14.6636 1.87902 15.4183 2.84292 15.6776C4.58916 16.1417 10.6 16.1417 10.6 16.1417C10.6 16.1417 16.6139 16.1417 18.3571 15.6776C19.3169 15.4222 20.0748 14.6666 20.3339 13.7062C20.8 11.9687 20.8 8.34175 20.8 8.34175ZM14.68 8.34194L8.55999 11.7544V4.92944L14.68 8.34194Z" fill="currentColor"/>
</svg>
