<svg width="161" height="253" viewBox="0 0 161 253" fill="none" xmlns="http://www.w3.org/2000/svg">
<path d="M64.8109 25.7363L10.7871 3.19922C10.7871 3.19922 4.68504 9.65471 5.76984 18.0619L60.0908 39.4868L64.8109 25.7363Z" fill="#354B79"/>
<path d="M11.4585 11.8919C13.0281 7.84536 12.8193 3.99049 10.9921 3.28179C9.16501 2.57309 6.41146 5.27893 4.84191 9.32546C3.27237 13.372 3.48119 17.2269 5.30832 17.9356C7.13545 18.6443 9.88901 15.9384 11.4585 11.8919Z" fill="#354B79" stroke="#C6DAF1" stroke-width="5.58" stroke-miterlimit="10"/>
<path d="M43.1052 16.6847C45.6953 11.1708 48.6222 7.67718 50.4855 8.29271C52.4159 8.9311 52.6353 13.7975 51.2748 20.093C50.8443 22.0624 50.3103 24.0076 49.675 25.9208C48.7651 28.7158 47.6272 31.4313 46.2728 34.04C43.9371 38.4585 41.4674 41.1035 39.8249 40.5611C38.1307 40.0019 37.7528 36.1898 38.606 31.0142" fill="#354B79"/>
<path d="M43.1052 16.6847C45.6953 11.1708 48.6222 7.67718 50.4855 8.29271C52.4159 8.9311 52.6353 13.7975 51.2748 20.093C50.8443 22.0624 50.3103 24.0076 49.675 25.9208C48.7651 28.7158 47.6272 31.4313 46.2728 34.04C43.9371 38.4585 41.4674 41.1035 39.8249 40.5611C38.1307 40.0019 37.7528 36.1898 38.606 31.0142" stroke="#C6DAF1" stroke-width="6.27" stroke-miterlimit="10"/>
<path d="M71.1856 18.0018C71.1856 18.0018 65.5986 17.1897 64.1344 19.9551C64.1344 19.9551 50.3839 50.6282 48.5937 67.7138C47.5363 78.5314 48.8649 81.7889 53.5302 83.8229L71.1856 18.0018Z" fill="#081A3E"/>
<path d="M160.295 47.5445C160.28 47.4638 160.263 47.383 160.246 47.3007C159.939 45.8697 159.344 44.5162 158.498 43.3225C157.651 42.1289 156.57 41.1201 155.321 40.3577C153.993 39.539 152.672 38.7447 151.359 37.9748L151.175 37.8666C123.712 21.8124 98.9366 16.038 85.8306 14.0329L85.7453 14.0207L85.18 13.9354C81.2187 13.3488 78.4076 13.1203 77.0151 13.0472C72.3909 12.8064 70.2929 16.2467 69.5113 18.0629C69.3569 18.4156 69.2271 18.7785 69.1228 19.1492L55.9436 56.325C53.0153 65.1924 52.5521 82.4152 52.5521 82.4152V240.775C52.5521 240.775 52.2611 243.975 56.0137 246.345C57.1251 247.04 58.3582 247.518 59.6475 247.753C61.9055 248.178 64.1132 248.571 66.2706 248.933L66.5753 248.984C103.712 255.196 125.961 252.457 137.408 249.664C137.601 249.618 137.791 249.569 137.979 249.524C140.676 248.863 143.323 248.014 145.902 246.985C150.215 245.251 150.637 242.396 150.578 241.077C150.501 239.326 150.491 237.573 150.492 235.82L150.677 85.115C150.219 79.4624 157.466 60.1279 159.625 54.5211C160.491 52.3028 160.723 49.8872 160.295 47.5445ZM138.724 45.9554L138.671 45.9432C138.464 45.8997 138.281 45.778 138.162 45.6034C138.042 45.4289 137.995 45.2149 138.029 45.0062L139.435 36.6264C139.467 36.4353 139.565 36.2616 139.713 36.1363C139.86 36.011 140.048 35.9423 140.241 35.9423C140.278 35.9423 140.313 35.9423 140.35 35.9423C140.458 35.9566 140.563 35.9926 140.658 36.0482C140.753 36.1038 140.835 36.1778 140.901 36.2659C140.966 36.354 141.013 36.4544 141.039 36.5611C141.065 36.6678 141.07 36.7786 141.052 36.8869L139.702 45.2774C139.689 45.3626 139.662 45.445 139.621 45.5212C139.54 45.682 139.408 45.8116 139.246 45.89C139.084 45.9685 138.9 45.9915 138.724 45.9554ZM142.123 46.9915L142.067 46.9808C141.86 46.9366 141.678 46.8144 141.559 46.6396C141.44 46.4647 141.393 46.2508 141.428 46.0422L142.835 37.6624C142.866 37.4711 142.965 37.2972 143.113 37.1717C143.261 37.0461 143.448 36.9771 143.642 36.9768C143.678 36.9771 143.713 36.9797 143.749 36.9844C143.857 36.9988 143.962 37.0347 144.057 37.0902C144.152 37.1457 144.234 37.2195 144.3 37.3074C144.365 37.3954 144.413 37.4955 144.439 37.602C144.465 37.7085 144.47 37.8192 144.453 37.9276L143.101 46.3195C143.088 46.4048 143.061 46.4872 143.02 46.5633C142.939 46.7237 142.807 46.8526 142.645 46.9301C142.482 47.0075 142.299 47.0291 142.123 46.9915ZM147.85 38.9651L146.5 47.3571C146.487 47.4422 146.459 47.5245 146.42 47.6009C146.338 47.7608 146.206 47.8893 146.043 47.9664C145.881 48.0435 145.698 48.065 145.522 48.0275L145.466 48.0153C145.259 47.9722 145.077 47.8504 144.958 47.6756C144.838 47.5009 144.792 47.2868 144.827 47.0783L146.231 38.6985C146.266 38.4839 146.385 38.2922 146.562 38.1655C146.739 38.0387 146.958 37.9874 147.173 38.0228C147.388 38.0581 147.579 38.1773 147.706 38.354C147.833 38.5307 147.884 38.7506 147.849 38.9651H147.85Z" fill="#081A3E"/>
<path d="M151.274 38.2144C151.236 38.1657 151.198 38.1154 151.158 38.0621C123.7 22.0079 98.9229 16.2334 85.8184 14.2284L85.7331 14.2162C85.5233 14.1851 85.3114 14.1704 85.0993 14.172C81.1257 14.204 79.2426 20.2329 78.9028 21.4396C78.8571 21.6011 78.8083 21.7611 78.7504 21.9195L66.7612 56.2005C66.6866 56.4169 66.618 56.6378 66.5632 56.8602C64.3402 65.819 63.9883 82.6091 63.9883 82.6091V243.596C63.9883 243.669 63.9883 243.748 63.9883 243.815C63.9969 244.765 64.1987 245.704 64.5813 246.574C64.964 247.444 65.5196 248.227 66.2143 248.875L66.2722 248.928L66.5769 248.98C103.713 255.192 125.962 252.452 137.409 249.66C137.603 249.614 137.793 249.565 137.98 249.52C140.741 247.728 140.961 245.122 140.903 243.946C140.863 243.157 140.834 242.368 140.836 241.575L140.988 85.315C140.429 75.6874 148.531 56.6865 149.494 54.4651C149.549 54.3417 149.605 54.2198 149.665 54.098C150.108 53.2082 152.31 48.5978 152.864 43.8746C153.091 41.8528 152.52 39.8223 151.274 38.2144ZM139.623 45.5277C139.605 45.6373 139.565 45.7421 139.506 45.8358C139.446 45.9295 139.368 46.0101 139.277 46.0728C139.185 46.1355 139.082 46.1789 138.973 46.2005C138.864 46.222 138.752 46.2212 138.643 46.1981L138.588 46.1859C138.382 46.1421 138.2 46.0202 138.081 45.8457C137.961 45.6712 137.914 45.4574 137.948 45.2489L139.356 36.8691C139.37 36.7861 139.396 36.7058 139.435 36.6314C139.504 36.4972 139.608 36.3846 139.736 36.3058C139.864 36.227 140.012 36.1852 140.162 36.185C140.198 36.1853 140.235 36.1878 140.27 36.1926C140.379 36.2067 140.484 36.2425 140.579 36.298C140.673 36.3534 140.756 36.4273 140.821 36.5153C140.887 36.6033 140.934 36.7035 140.96 36.8101C140.986 36.9167 140.99 37.0274 140.973 37.1357L139.623 45.5277ZM143.021 46.5637C143.003 46.6733 142.963 46.7781 142.904 46.8719C142.845 46.9656 142.767 47.0464 142.675 47.1092C142.584 47.172 142.481 47.2156 142.372 47.2374C142.263 47.2591 142.151 47.2585 142.042 47.2357L141.986 47.2235C141.779 47.1796 141.597 47.0575 141.478 46.8826C141.359 46.7077 141.312 46.4935 141.348 46.2849L142.754 37.9051C142.769 37.8213 142.796 37.7402 142.835 37.6644C142.903 37.5308 143.007 37.4187 143.136 37.3405C143.264 37.2623 143.411 37.221 143.561 37.221C143.597 37.2188 143.633 37.2188 143.668 37.221C143.777 37.2351 143.882 37.271 143.977 37.3264C144.071 37.3818 144.154 37.4557 144.22 37.5436C144.285 37.6316 144.332 37.7318 144.359 37.8384C144.385 37.945 144.389 38.0558 144.372 38.1641L143.021 46.5546V46.5637ZM146.42 47.5998C146.402 47.7094 146.362 47.8142 146.302 47.9079C146.243 48.0016 146.165 48.0822 146.073 48.1449C145.982 48.2076 145.878 48.251 145.77 48.2726C145.661 48.2941 145.549 48.2933 145.44 48.2702L145.385 48.2595C145.178 48.2157 144.996 48.0936 144.877 47.9187C144.757 47.7439 144.71 47.5297 144.745 47.321L146.151 38.9412C146.165 38.8582 146.192 38.7779 146.231 38.7035C146.299 38.5692 146.403 38.4565 146.532 38.3777C146.66 38.2989 146.808 38.2572 146.959 38.2571C146.995 38.2573 147.03 38.2599 147.066 38.2647C147.174 38.2788 147.279 38.3146 147.374 38.37C147.469 38.4255 147.552 38.4993 147.617 38.5873C147.683 38.6753 147.73 38.7755 147.756 38.8821C147.782 38.9887 147.787 39.0994 147.77 39.2078L146.42 47.5983V47.5998Z" fill="#354B79"/>
<path d="M71.509 50.8594L140.286 73.206C140.286 73.206 138.116 79.0643 138.334 82.6523V207.333H66.8452V82.4497C66.8452 82.4497 66.4918 57.4992 71.509 50.8594Z" fill="#081A3E"/>
<path d="M90.4799 29.9183C100.108 30.7243 148.179 50.0664 148.179 50.0664L140.376 71.8448L72.3887 49.236L76.3805 38.7994C77.4506 35.9909 79.4042 33.6062 81.9472 32.0044C84.4902 30.4026 87.4847 29.6705 90.4799 29.9183Z" fill="#081A3E"/>
<path d="M125.74 80.9258H77.0568C74.264 80.9258 72 83.1898 72 85.9826V114.814C72 117.607 74.264 119.871 77.0568 119.871H125.74C128.533 119.871 130.797 117.607 130.797 114.814V85.9826C130.797 83.1898 128.533 80.9258 125.74 80.9258Z" fill="#ECF2F9"/>
<path d="M66.8398 208.598V220.815C66.8398 233.918 75.0475 244.545 85.1733 244.545H119.838C129.963 244.545 138.172 233.921 138.172 220.815V208.598H66.8398Z" fill="#081A3E"/>
<path d="M85.36 99.2022L85.6 95.4822H91.58V93.7422H83.92L83.4 101.002H87.36C89.06 101.002 90.28 101.982 90.28 103.602C90.28 105.222 89.08 106.182 87.32 106.182C85.78 106.182 84.66 105.462 84.28 104.102L82.7 105.002C83.36 106.942 85.18 108.002 87.32 108.002C88.66 108.002 89.78 107.602 90.72 106.822C91.66 106.042 92.12 104.962 92.12 103.602C92.12 102.222 91.66 101.162 90.74 100.382C89.84 99.6022 88.72 99.2022 87.4 99.2022H85.36ZM94.8888 107.962C95.6288 107.962 96.1888 107.382 96.1888 106.662C96.1888 105.942 95.6288 105.362 94.8888 105.362C94.1688 105.362 93.5888 105.942 93.5888 106.662C93.5888 107.382 94.1688 107.962 94.8888 107.962ZM107.007 106.022C107.947 104.702 108.427 102.942 108.427 100.742C108.427 98.5422 107.947 96.7822 107.007 95.4622C106.067 94.1422 104.727 93.4822 103.027 93.4822C101.327 93.4822 99.9866 94.1422 99.0466 95.4622C98.1066 96.7822 97.6266 98.5422 97.6266 100.742C97.6266 102.942 98.1066 104.702 99.0466 106.022C99.9866 107.342 101.327 108.002 103.027 108.002C104.727 108.002 106.067 107.342 107.007 106.022ZM99.4866 100.742C99.4866 97.2422 100.767 95.2822 103.027 95.2822C105.287 95.2822 106.587 97.2822 106.587 100.742C106.587 104.202 105.287 106.182 103.027 106.182C100.767 106.182 99.4866 104.202 99.4866 100.742ZM119.604 106.022C120.544 104.702 121.024 102.942 121.024 100.742C121.024 98.5422 120.544 96.7822 119.604 95.4622C118.664 94.1422 117.324 93.4822 115.624 93.4822C113.924 93.4822 112.584 94.1422 111.644 95.4622C110.704 96.7822 110.224 98.5422 110.224 100.742C110.224 102.942 110.704 104.702 111.644 106.022C112.584 107.342 113.924 108.002 115.624 108.002C117.324 108.002 118.664 107.342 119.604 106.022ZM112.084 100.742C112.084 97.2422 113.364 95.2822 115.624 95.2822C117.884 95.2822 119.184 97.2822 119.184 100.742C119.184 104.202 117.884 106.182 115.624 106.182C113.364 106.182 112.084 104.202 112.084 100.742Z" fill="#081A3E"/>
<path d="M80.2 134.8V146H81.688V142H84.264C85.304 142 86.152 141.648 86.84 140.96C87.528 140.272 87.88 139.408 87.88 138.4C87.88 137.376 87.528 136.528 86.84 135.84C86.152 135.152 85.304 134.8 84.264 134.8H80.2ZM81.688 140.608V136.192H84.264C85.496 136.192 86.408 137.12 86.408 138.4C86.408 139.024 86.2 139.552 85.8 139.984C85.4 140.4 84.888 140.608 84.264 140.608H81.688ZM90.7136 138H89.3216V146H90.7136V141.76C90.7136 140.88 90.9536 140.256 91.4496 139.856C91.9456 139.456 92.5216 139.28 93.2096 139.312V137.856C92.0096 137.856 91.1776 138.352 90.7136 139.344V138ZM100.886 144.992C101.702 144.176 102.118 143.184 102.118 142C102.118 140.816 101.702 139.824 100.886 139.008C100.07 138.192 99.0621 137.792 97.8941 137.792C96.7261 137.792 95.7181 138.192 94.9021 139.008C94.0861 139.824 93.6861 140.816 93.6861 142C93.6861 143.184 94.0861 144.176 94.9021 144.992C95.7181 145.808 96.7261 146.208 97.8941 146.208C99.0621 146.208 100.07 145.808 100.886 144.992ZM97.8941 144.848C97.1101 144.848 96.4381 144.576 95.8941 144.032C95.3501 143.488 95.0781 142.816 95.0781 142C95.0781 141.184 95.3501 140.512 95.8941 139.968C96.4381 139.424 97.1101 139.152 97.8941 139.152C98.6941 139.152 99.3661 139.424 99.9101 139.968C100.454 140.512 100.726 141.184 100.726 142C100.726 142.816 100.454 143.488 99.9101 144.032C99.3661 144.576 98.6941 144.848 97.8941 144.848ZM112.399 137.792C111.279 137.792 110.447 138.24 109.887 139.152C109.391 138.24 108.607 137.792 107.535 137.792C106.495 137.792 105.695 138.224 105.151 139.072V138H103.759V146H105.151V141.552C105.151 139.936 106.031 139.12 107.199 139.12C108.239 139.12 108.895 139.84 108.895 141.072V146H110.287V141.552C110.287 139.904 111.055 139.12 112.255 139.12C113.327 139.12 114.015 139.84 114.015 141.072V146H115.407V141.024C115.407 139.04 114.191 137.792 112.399 137.792ZM118.041 136.544C118.553 136.544 118.969 136.128 118.969 135.616C118.969 135.104 118.553 134.672 118.041 134.672C117.513 134.672 117.097 135.104 117.097 135.616C117.097 136.128 117.513 136.544 118.041 136.544ZM118.729 146V138H117.337V146H118.729ZM122.245 146V134.32H120.853V146H122.245Z" fill="white"/>
</svg>
