<svg width="123" height="104" viewBox="0 0 123 104" fill="none" xmlns="http://www.w3.org/2000/svg">
<path d="M111.573 103.996H10.8374V1.23438H111.573V103.996Z" fill="white"/>
<path d="M111.573 104H10.8374V0H111.573V104ZM12.3133 102.758H110.097V1.24209H12.3133V102.758Z" fill="#E6E6E6"/>
<path d="M25.4383 25.2529C30.175 25.2529 34.0148 21.3925 34.0148 16.6304C34.0148 11.8683 30.175 8.00781 25.4383 8.00781C20.7016 8.00781 16.8618 11.8683 16.8618 16.6304C16.8618 21.3925 20.7016 25.2529 25.4383 25.2529Z" fill="#E6E6E6"/>
<path d="M69.0202 10.543H42.1777C41.4774 10.543 40.9097 11.1107 40.9097 11.811C40.9097 12.5113 41.4774 13.079 42.1777 13.079H69.0202C69.7205 13.079 70.2882 12.5113 70.2882 11.811C70.2882 11.1107 69.7205 10.543 69.0202 10.543Z" fill="#E6E6E6"/>
<path d="M104.386 16.6328H42.1777C41.4774 16.6328 40.9097 17.2005 40.9097 17.9008C40.9097 18.6011 41.4774 19.1689 42.1777 19.1689H104.386C105.086 19.1689 105.654 18.6011 105.654 17.9008C105.654 17.2005 105.086 16.6328 104.386 16.6328Z" fill="#E6E6E6"/>
<path d="M104.386 22.7188H42.1777C41.4774 22.7188 40.9097 23.2865 40.9097 23.9868C40.9097 24.6871 41.4774 25.2548 42.1777 25.2548H104.386C105.086 25.2548 105.654 24.6871 105.654 23.9868C105.654 23.2865 105.086 22.7188 104.386 22.7188Z" fill="#E6E6E6"/>
<path d="M25.4383 95.8349C30.175 95.8349 34.0148 91.9745 34.0148 87.2124C34.0148 82.4503 30.175 78.5898 25.4383 78.5898C20.7016 78.5898 16.8618 82.4503 16.8618 87.2124C16.8618 91.9745 20.7016 95.8349 25.4383 95.8349Z" fill="#E6E6E6"/>
<path d="M69.0202 81.125H42.1777C41.4774 81.125 40.9097 81.6927 40.9097 82.393C40.9097 83.0933 41.4774 83.6611 42.1777 83.6611H69.0202C69.7205 83.6611 70.2882 83.0933 70.2882 82.393C70.2882 81.6927 69.7205 81.125 69.0202 81.125Z" fill="#E6E6E6"/>
<path d="M104.386 87.2109H42.1777C41.4774 87.2109 40.9097 87.7787 40.9097 88.479C40.9097 89.1793 41.4774 89.747 42.1777 89.747H104.386C105.086 89.747 105.654 89.1793 105.654 88.479C105.654 87.7787 105.086 87.2109 104.386 87.2109Z" fill="#E6E6E6"/>
<path d="M104.386 93.3008H42.1777C41.4774 93.3008 40.9097 93.8685 40.9097 94.5688C40.9097 95.2691 41.4774 95.8368 42.1777 95.8368H104.386C105.086 95.8368 105.654 95.2691 105.654 94.5688C105.654 93.8685 105.086 93.3008 104.386 93.3008Z" fill="#E6E6E6"/>
<path d="M122.516 68.3277H0V35.5117H122.516V68.3277Z" fill="white"/>
<path d="M122.516 68.3277H0V35.5117H122.516V68.3277ZM1.47778 66.842H121.038V36.9974H1.47778V66.842Z" fill="#CCCCCC"/>
<path d="M15.2039 60.3974C19.887 60.3974 23.6833 56.5807 23.6833 51.8725C23.6833 47.1644 19.887 43.3477 15.2039 43.3477C10.5209 43.3477 6.72461 47.1644 6.72461 51.8725C6.72461 56.5807 10.5209 60.3974 15.2039 60.3974Z" fill="#246EB2"/>
<path d="M66.8212 44.6875H34.2473C33.5549 44.6875 32.9937 45.2488 32.9937 45.9412C32.9937 46.6335 33.5549 47.1948 34.2473 47.1948H66.8212C67.5135 47.1948 68.0748 46.6335 68.0748 45.9412C68.0748 45.2488 67.5135 44.6875 66.8212 44.6875Z" fill="#246EB2"/>
<path d="M109.052 50.707H34.2473C33.5549 50.707 32.9937 51.2683 32.9937 51.9607C32.9937 52.6531 33.5549 53.2144 34.2473 53.2144H109.052C109.744 53.2144 110.305 52.6531 110.305 51.9607C110.305 51.2683 109.744 50.707 109.052 50.707Z" fill="#246EB2"/>
<path d="M109.052 56.7227H34.2473C33.5549 56.7227 32.9937 57.2839 32.9937 57.9763C32.9937 58.6687 33.5549 59.23 34.2473 59.23H109.052C109.744 59.23 110.305 58.6687 110.305 57.9763C110.305 57.2839 109.744 56.7227 109.052 56.7227Z" fill="#246EB2"/>
</svg>
