<svg width="164" height="120" viewBox="0 0 164 120" fill="none" xmlns="http://www.w3.org/2000/svg">
<g clip-path="url(#clip0)">
<path opacity="0.1" d="M151.636 48.1558C148.196 55.9249 152.585 64.8742 157.743 71.62C159.473 73.878 161.374 76.2416 161.617 79.0838C161.906 82.55 159.559 85.7372 156.773 87.8202C151.694 91.6164 144.755 92.79 138.711 90.8753C133.487 89.2248 129.095 85.483 123.826 83.9744C115.009 81.4507 105.67 85.6348 98.1252 90.8456C92.7857 94.533 87.0666 99.0159 80.6294 98.2285C76.097 97.674 72.2512 94.4934 69.6433 90.7466C68.384 88.931 67.288 86.9124 65.4526 85.691C64.3616 84.9647 63.0808 84.5801 61.7983 84.3062C50.0959 81.8056 37.6788 87.9093 26.1315 84.77C18.3327 82.649 12.1134 76.4842 8.2478 69.3885C4.38222 62.2928 2.57649 54.2777 1.07285 46.3369C0.00494385 40.6937 -0.881409 34.6048 1.56801 29.4121C4.16597 23.9191 10.1789 20.5899 16.2216 19.9677C22.2643 19.3454 28.3268 21.0703 33.8941 23.5032C40.8511 26.5451 47.6696 30.8036 55.2637 30.8184C60.4349 30.8283 65.3651 28.8377 70.3102 27.3308C78.5926 24.8005 87.1755 23.5428 95.7468 22.3824C103.948 21.2716 112.229 20.2367 120.48 20.8969C126.318 21.3607 131.473 23.5923 137.138 24.6239C140.83 25.2973 144.54 24.7889 148.163 25.9295C152.62 27.3242 157.215 30.5609 157.461 35.6529C157.694 40.4939 153.462 44.0311 151.636 48.1558Z" fill="#246EB2"/>
<g opacity="0.5">
<path opacity="0.5" d="M48.2673 30.2325C49.0925 30.4701 50.1175 31.0841 50.6193 32.7694C51.6096 36.0705 49.3187 38.3284 50.0697 41.7566C50.2749 42.6681 50.6685 43.5266 51.2251 44.277C52.1444 45.5232 53.1446 46.1141 54.1119 46.9872C55.3413 48.1024 56.2222 49.5491 56.6488 51.1532C57.1162 52.9237 57.1552 54.7801 56.7627 56.5686C56.4177 58.064 55.8301 59.1518 55.3184 60.3649C54.6814 61.9129 54.1842 63.5148 53.8329 65.1515C53.6378 65.947 53.5271 66.7608 53.5028 67.5795C53.4863 68.6078 53.6464 69.7252 53.8032 70.8278L55.2012 80.5842C55.3877 81.8831 55.5759 83.2036 55.5825 84.4398C55.5924 85.8676 55.363 87.0939 55.1352 88.2906C54.64 90.872 54.1168 93.5509 52.9895 94.9126C51.8622 96.2743 49.9508 95.8022 48.774 93.0227C47.6549 90.3818 47.6318 86.8496 46.6448 84.0239C45.09 79.5674 41.9968 78.9732 40.2819 74.7264C38.6313 70.6528 39.1397 65.6483 38.3012 61.007C37.7037 57.6778 36.4312 54.6408 35.6769 51.3513C34.5924 46.6125 34.6997 41.6939 35.5663 38.0528C36.4328 34.4116 37.9876 31.9111 39.7042 30.0146C40.4321 29.2108 41.2095 28.4961 42.1239 28.4251C43.0961 28.3508 43.9395 29.5805 44.9051 29.942C46.0242 30.3595 47.1399 29.9122 48.2673 30.2325Z" fill="#246EB2"/>
<path opacity="0.5" d="M43.0039 28.6562C43.0039 28.6562 44.6544 70.7915 51.5752 95.6389" stroke="#535461" stroke-width="2" stroke-miterlimit="10"/>
<path opacity="0.5" d="M50.6621 32.9766C50.6621 32.9766 43.2709 39.7125 44.6656 52.5471" stroke="#535461" stroke-width="2" stroke-miterlimit="10"/>
<path opacity="0.5" d="M56.8716 52.1406C56.8716 52.1406 44.7235 54.5834 45.6247 61.8492" stroke="#535461" stroke-width="2" stroke-miterlimit="10"/>
<path opacity="0.5" d="M35.5515 37.9531C35.5515 37.9531 40.4652 42.2561 44.8457 54.4438" stroke="#535461" stroke-width="2" stroke-miterlimit="10"/>
<path opacity="0.5" d="M40.3564 74.7896C40.3564 74.7896 43.7103 77.4305 46.4023 68.2188" stroke="#535461" stroke-width="2" stroke-miterlimit="10"/>
<path opacity="0.5" d="M54.8247 80.1621C54.8247 80.1621 47.9848 79.2692 47.3543 74.9844" stroke="#535461" stroke-width="2" stroke-miterlimit="10"/>
</g>
<path d="M31.7337 1.97171C33.4272 2.2226 35.464 3.00661 36.3008 5.42797C37.9431 10.175 32.9485 13.7682 34.099 18.7281C34.4439 20.2136 35.2939 21.4218 36.1902 22.3032C37.9464 24.0297 39.9452 24.779 41.8433 25.9509C43.7415 27.1228 45.7122 28.9615 46.6019 31.7856C47.4585 34.5024 47.0871 37.5048 46.1975 39.7479C45.3078 41.991 43.961 43.663 42.7577 45.5083C41.2925 47.78 40.0673 50.1979 39.1018 52.7229C38.671 53.8337 38.2765 55.0056 38.1362 56.3359C37.9811 57.8528 38.1775 59.4852 38.3722 61.0829L40.1086 75.2776C40.3397 77.1675 40.5724 79.0904 40.4387 80.911C40.2885 83.0121 39.6679 84.8442 39.0556 86.6334C37.7351 90.4924 36.3222 94.5016 33.8349 96.6391C31.3475 98.7765 27.439 98.3094 25.3362 94.3547C23.3341 90.5898 23.7021 85.3988 21.9955 81.355C19.3051 74.9822 12.9752 74.4672 9.92993 68.4179C7.0068 62.6146 8.64249 55.1904 7.46895 48.4463C6.62717 43.6135 4.35106 39.294 3.17752 34.5387C1.49395 27.6873 2.29778 20.4331 4.52602 14.9682C6.75427 9.50318 10.2666 5.63594 14.0431 2.64019C15.6441 1.37091 17.3442 0.22378 19.239 0.0125095C21.2593 -0.211965 22.8703 1.4881 24.8163 1.91559C27.0775 2.42231 29.4378 1.6317 31.7337 1.97171Z" fill="#246EB2"/>
<path d="M21.028 0.269531C21.028 0.269531 19.4352 62.1256 30.8257 97.8947" stroke="#535461" stroke-width="2" stroke-miterlimit="10"/>
<path d="M36.3667 5.72266C36.3667 5.72266 20.254 16.5206 21.6339 35.2543" stroke="#535461" stroke-width="2" stroke-miterlimit="10"/>
<path d="M46.9434 33.2148C46.9434 33.2148 21.5117 38.2523 22.5152 48.8439" stroke="#535461" stroke-width="2" stroke-miterlimit="10"/>
<path d="M4.50308 14.8438C4.50308 14.8438 14.1687 20.5976 21.7827 38.0257" stroke="#535461" stroke-width="2" stroke-miterlimit="10"/>
<path d="M10.0782 68.5196C10.0782 68.5196 16.7068 72.0088 23.3701 58.1211" stroke="#535461" stroke-width="2" stroke-miterlimit="10"/>
<path d="M39.397 74.718C39.397 74.718 25.3458 74.2129 24.542 67.9805" stroke="#535461" stroke-width="2" stroke-miterlimit="10"/>
<path opacity="0.1" d="M82.8757 103.291C43.8905 103.291 12.2866 100.256 12.2866 96.5109C12.2866 92.7662 43.8905 89.7305 82.8757 89.7305C121.861 89.7305 153.465 92.7662 153.465 96.5109C153.465 100.256 121.861 103.291 82.8757 103.291Z" fill="#246EB2"/>
<path d="M148.906 91.5023C149.466 91.8076 149.953 91.9974 149.994 91.9133C150.035 91.8291 149.617 91.5254 149.058 91.2217C148.498 90.918 148.72 91.1391 148.677 91.2217C148.634 91.3042 148.345 91.1953 148.906 91.5023Z" fill="#FFD037"/>
<path d="M111.46 74.4333C111.46 74.4333 92.1073 62.069 78.7279 62.069C78.7279 62.069 62.6202 59.5602 45.0996 63.8004C27.579 68.0407 21.1072 73.5387 16.2496 71.9244L36.657 72.5219L111.46 74.4333Z" fill="#8CD0F3"/>
<path opacity="0.1" d="M111.46 74.4333C111.46 74.4333 92.1073 62.069 78.7279 62.069C78.7279 62.069 62.6202 59.5602 45.0996 63.8004C27.579 68.0407 21.1072 73.5387 16.2496 71.9244L36.657 72.5219L111.46 74.4333Z" fill="#8CD0F3"/>
<path d="M20.2424 93.3571H138.27L135.025 80.3558L114.954 75.0195L20.2424 77.5086V93.3571Z" fill="#121C3F"/>
<path d="M14.0297 85.2303V89.3798C14.0297 89.3798 17.5338 91.9216 17.8524 93.9122C17.8524 93.9122 22.87 95.1864 24.3027 95.1864C24.4331 95.1864 24.5751 95.1864 24.7236 95.2013C24.4998 94.6007 24.3248 93.983 24.2004 93.3543C23.8489 91.59 23.8932 89.7697 24.3299 88.0246C24.7667 86.2794 25.5851 84.6529 26.7262 83.2621C27.8673 81.8713 29.3026 80.7509 30.9288 79.9816C32.555 79.2124 34.3316 78.8134 36.1306 78.8134C37.9295 78.8134 39.7061 79.2124 41.3323 79.9816C42.9585 80.7509 44.3939 81.8713 45.5349 83.2621C46.676 84.6529 47.4944 86.2794 47.9311 88.0246C48.3679 89.7697 48.4122 91.59 48.0607 93.3543C47.8918 94.2049 47.6323 95.0349 47.2866 95.8301H54.0902C54.0902 95.8301 54.1529 95.8516 54.2552 95.8962C54.62 96.0612 55.48 96.497 55.6037 97.1819H111.988L113.144 97.172C112.898 96.7599 112.678 96.3332 112.483 95.8945C112.121 95.0819 111.852 94.2308 111.681 93.3576C111.346 91.6901 111.363 89.9708 111.733 88.3105C112.102 86.6502 112.816 85.0858 113.827 83.718C114.838 82.3503 116.124 81.2096 117.603 80.3696C119.082 79.5295 120.721 79.0086 122.414 78.8406C124.106 78.6726 125.815 78.8611 127.431 79.394C129.046 79.9269 130.532 80.7924 131.792 81.9347C133.052 83.0769 134.059 84.4706 134.748 86.0258C135.437 87.5811 135.792 89.2634 135.791 90.9643C135.791 91.7662 135.712 92.5661 135.556 93.3527C135.29 94.6844 134.803 95.9621 134.114 97.1324C134.919 96.936 136.677 96.3781 136.677 96.3781C136.677 96.3781 144.162 95.5826 146.074 93.9023L145.785 93.7026L144.56 92.8658L145.118 90.72C145.185 90.6296 145.241 90.5308 145.283 90.4262C145.432 90.0681 145.562 89.4029 145.037 88.5677C144.242 87.2935 144.639 82.7545 144.639 82.7545C144.639 82.7545 133.808 75.2692 112.465 73.5956C112.465 73.5956 111.955 73.9917 110.902 74.0743C110.189 74.132 109.227 74.0445 108.004 73.5956C108.004 73.5956 106.253 74.3912 98.7607 70.0915C98.7607 70.0915 86.0168 61.3304 69.2918 62.1292C69.2918 62.1292 52.0897 61.0927 37.4361 66.7508C31.1211 69.187 26.3164 70.486 22.8915 71.1726C19.729 71.808 17.7434 71.9252 16.834 71.9351H16.8141C16.5171 71.9351 16.3405 71.9351 16.2777 71.9351H16.2513C16.2513 71.9351 16.2513 73.8316 16.1506 76.0714V76.083C16.1143 76.862 16.0648 77.6824 15.9955 78.4796V78.5291C15.804 80.7491 15.4739 82.766 14.9012 83.1655L14.0297 85.2303Z" fill="#2856B8"/>
<path d="M142.918 82.5732C142.918 82.5732 138.12 78.8298 132.146 79.627C132.146 79.627 137.582 83.9284 140.031 83.6494L140.449 83.2912L142.925 83.4299C142.925 83.4299 143.294 82.8522 142.918 82.5732Z" fill="#8CD0F3"/>
<path opacity="0.2" d="M138.26 89.0508V91.2609C138.26 91.2609 138.425 93.3719 140.332 93.4511L145.778 93.7202L144.555 92.8833L145.113 90.7376C145.181 90.6479 145.236 90.5497 145.278 90.4455C144.783 89.9899 143.616 89.2208 141.243 89.0557L138.26 89.0508Z" fill="white"/>
<path opacity="0.2" d="M112.915 79.7861L108.734 79.6211C108.734 79.6211 110.426 80.9547 111.621 81.0752C112.816 81.1957 112.915 79.7861 112.915 79.7861Z" fill="white"/>
<path opacity="0.2" d="M104.114 92.472C104.114 92.472 66.3046 87.215 57.1655 88.887C57.1655 88.887 54.4784 89.0669 53.4617 90.1414C52.4449 91.2159 53.4617 90.5194 53.4617 90.5194L104.114 92.472Z" fill="white"/>
<path opacity="0.5" d="M82.9487 77.7181C82.9487 77.7181 82.4701 76.8219 81.6943 76.8021L76.6568 76.543C76.6568 76.543 76.7361 77.2395 77.6323 77.4986L82.9487 77.7181Z" fill="#18218A"/>
<path opacity="0.5" d="M53.7998 76.2013C53.7998 76.2013 53.3211 75.3051 52.5454 75.2853L47.5079 75.0195C47.5079 75.0195 47.5871 75.7161 48.4834 75.9752L53.7998 76.2013Z" fill="#18218A"/>
<path d="M71.0003 63.9241L74.8659 74.0617L88.8031 74.0766H92.3914H95.5126H98.2112H101.268C101.268 74.0766 99.4062 72.7099 96.4072 70.9686C95.4169 70.3909 94.2928 69.7736 93.0731 69.153C91.9507 68.5786 90.7425 67.9976 89.4732 67.4463C88.4829 67.0106 87.4398 66.5914 86.3735 66.2002C81.539 64.4324 76.1054 63.2457 71.0003 63.9241Z" fill="#8CD0F3"/>
<path d="M49.1007 71.325C49.1007 71.325 54.9238 72.1883 60.4812 72.827C62.6055 73.0713 64.6901 73.2826 66.3968 73.3998L66.6345 73.4163C67.2947 73.4592 67.9071 73.4873 68.427 73.4972C69.2523 73.512 69.8696 73.4757 70.1782 73.3767L68.5722 63.6797C68.5722 63.6797 66.5916 63.7011 63.6618 63.8447L63.0214 63.8794C62.4124 63.9141 61.7703 63.9537 61.1002 63.9999C60.1429 64.0659 59.1344 64.1451 58.0945 64.2409C53.0736 64.7014 47.3858 65.5283 43.7843 67.0171C36.1207 70.1895 49.1007 71.325 49.1007 71.325Z" fill="#8CD0F3"/>
<path d="M22.2628 76.2025V78.7906C22.2628 78.7906 26.4436 78.85 25.5474 78.0148C24.9674 77.4602 24.4407 76.8524 23.9744 76.1992L22.2628 76.2025Z" fill="#8CD0F3"/>
<path d="M15.9989 78.5262L19.394 78.7919V75.6806C19.394 75.6806 17.8211 73.4705 16.2481 75.92L16.1573 76.0636L15.9989 78.5262Z" fill="#8CD0F3"/>
<path d="M123.615 100.684C118.248 100.684 113.898 96.3332 113.898 90.9668C113.898 85.6004 118.248 81.25 123.615 81.25C128.981 81.25 133.332 85.6004 133.332 90.9668C133.332 96.3332 128.981 100.684 123.615 100.684Z" fill="#182A7C"/>
<path d="M115.821 90.9589C115.817 92.964 116.584 94.8937 117.963 96.3496C119.341 97.8055 121.226 98.6763 123.229 98.7821C125.231 98.8879 127.197 98.2205 128.721 96.918C130.246 95.6154 131.212 93.7771 131.419 91.7829C131.627 89.7887 131.061 87.7908 129.838 86.2021C128.615 84.6133 126.828 83.5551 124.847 83.2459C122.866 82.9367 120.842 83.4003 119.193 84.5408C117.544 85.6813 116.396 87.4117 115.986 89.3744C115.877 89.8956 115.822 90.4265 115.821 90.9589Z" fill="#3F8FFE"/>
<path opacity="0.5" d="M123.627 97.6705C119.927 97.6705 116.927 94.6636 116.927 90.9544C116.927 87.2452 119.927 84.2383 123.627 84.2383C127.327 84.2383 130.326 87.2452 130.326 90.9544C130.326 94.6636 127.327 97.6705 123.627 97.6705Z" fill="#18218A"/>
<path d="M121.385 83.4596V83.7435L123.615 91.1264L125.404 83.3375C124.076 83.028 122.691 83.0701 121.385 83.4596Z" fill="#3F8FFE"/>
<path d="M121.402 98.4584C122.679 98.8366 124.031 98.8832 125.332 98.5938L123.617 91.125L121.402 98.4584Z" fill="#3F8FFE"/>
<path d="M115.821 90.9579C115.82 91.7724 115.946 92.5821 116.194 93.3578H116.225L123.608 91.1279L115.973 89.375C115.869 89.8962 115.818 90.4265 115.821 90.9579Z" fill="#3F8FFE"/>
<path d="M123.615 91.125L130.998 93.3549H131.055C131.467 92.0658 131.54 90.6927 131.268 89.3672L123.615 91.125Z" fill="#3F8FFE"/>
<path d="M123.626 91.8109C123.153 91.8109 122.77 91.4274 122.77 90.9543C122.77 90.4812 123.153 90.0977 123.626 90.0977C124.099 90.0977 124.483 90.4812 124.483 90.9543C124.483 91.4274 124.099 91.8109 123.626 91.8109Z" fill="#182A7C"/>
<path d="M36.1899 100.684C30.8235 100.684 26.4732 96.3332 26.4732 90.9668C26.4732 85.6004 30.8235 81.25 36.1899 81.25C41.5564 81.25 45.9067 85.6004 45.9067 90.9668C45.9067 96.3332 41.5564 100.684 36.1899 100.684Z" fill="#182A7C"/>
<path d="M28.3945 90.9589C28.391 92.964 29.1577 94.8937 30.5363 96.3496C31.9149 97.8055 33.8001 98.6763 35.8023 98.7821C37.8046 98.8879 39.7709 98.2205 41.2952 96.918C42.8195 95.6154 43.7853 93.7771 43.993 91.7829C44.2008 89.7887 43.6346 87.7908 42.4115 86.2021C41.1883 84.6133 39.4017 83.5551 37.4207 83.2459C35.4396 82.9367 33.4155 83.4003 31.7664 84.5408C30.1174 85.6813 28.9694 87.4117 28.5596 89.3744C28.4509 89.8956 28.3956 90.4265 28.3945 90.9589Z" fill="#3F8FFE"/>
<path opacity="0.5" d="M36.1998 97.6705C32.4997 97.6705 29.5002 94.6636 29.5002 90.9544C29.5002 87.2452 32.4997 84.2383 36.1998 84.2383C39.8999 84.2383 42.8994 87.2452 42.8994 90.9544C42.8994 94.6636 39.8999 97.6705 36.1998 97.6705Z" fill="#18218A"/>
<path d="M33.9604 83.4596V83.7435L36.1903 91.1264L37.9795 83.3375C36.652 83.028 35.2667 83.0701 33.9604 83.4596Z" fill="#3F8FFE"/>
<path d="M33.9753 98.4584C35.2525 98.8366 36.6051 98.8832 37.9053 98.5938L36.1903 91.125L33.9753 98.4584Z" fill="#3F8FFE"/>
<path d="M28.3944 90.9556C28.3933 91.7701 28.5191 92.5798 28.7674 93.3555H28.8054L36.1899 91.124L28.5545 89.3711C28.4478 89.8925 28.3941 90.4234 28.3944 90.9556Z" fill="#3F8FFE"/>
<path d="M36.19 91.125L43.5729 93.3549H43.6307C44.0418 92.0658 44.1152 90.6927 43.8436 89.3672L36.19 91.125Z" fill="#3F8FFE"/>
<path d="M36.2 91.8109C35.7269 91.8109 35.3434 91.4274 35.3434 90.9543C35.3434 90.4812 35.7269 90.0977 36.2 90.0977C36.6731 90.0977 37.0566 90.4812 37.0566 90.9543C37.0566 91.4274 36.6731 91.8109 36.2 91.8109Z" fill="#182A7C"/>
<path opacity="0.2" d="M93.0716 69.1602L95.5128 74.0804H98.2114L96.4074 70.9758C95.4121 70.3981 94.2914 69.7824 93.0716 69.1602Z" fill="white"/>
<path opacity="0.2" d="M86.3735 66.207L88.8048 74.0752H92.3931L89.4716 67.4499C88.4747 67.0175 87.4381 66.6015 86.3735 66.207Z" fill="white"/>
<path opacity="0.2" d="M61.097 64.009L66.3937 73.4023L66.6313 73.4188C67.2916 73.4617 67.9039 73.4897 68.4238 73.4996L63.6587 63.8555L63.0183 63.8901C62.4175 63.9231 61.7705 63.9628 61.097 64.009Z" fill="white"/>
<path opacity="0.2" d="M101.176 74.0508L104.2 94.8791L78.9446 94.3261L74.7984 74.1416L101.176 74.0508Z" stroke="white" stroke-miterlimit="10"/>
<path opacity="0.5" d="M54.2536 95.8923C54.6183 96.0573 55.4783 96.4931 55.6021 97.1781H111.988L113.144 97.1682C112.898 96.756 112.678 96.3294 112.483 95.8906L54.2536 95.8923Z" fill="#18218A"/>
<path opacity="0.1" d="M77.8749 87.1258H77.9326C77.9326 87.1258 76.0345 86.6142 77.8749 87.1258Z" fill="black"/>
<path opacity="0.1" d="M62.1829 96.6836V96.9642C62.2047 96.8719 62.2047 96.7759 62.1829 96.6836Z" fill="black"/>
<g opacity="0.05">
<path opacity="0.05" d="M84.7758 101.643C85.2363 101.848 89.8364 100.417 89.8364 100.417C89.8929 99.9719 89.8879 99.5215 89.8216 99.0781C90.0857 99.7152 89.9387 100.775 89.9387 100.775C89.9387 100.775 85.3386 102.206 84.8781 102.001C84.7263 101.934 84.5794 101.541 84.4506 101.044C84.553 101.362 84.6619 101.597 84.7758 101.643Z" fill="black"/>
<path opacity="0.05" d="M87.4399 88.4961C87.4776 88.5999 87.5095 88.7057 87.5356 88.813C87.5356 88.813 88.6448 95.4367 89.3066 97.891C88.6943 95.8988 87.5389 89.0853 87.4399 88.4961Z" fill="black"/>
<path opacity="0.05" d="M80.6362 105.528C80.6362 105.528 84.0611 100.576 83.9076 98.2656C83.9076 98.2656 83.9439 98.5528 84.0083 98.9589C83.8531 101.375 80.7386 105.888 80.7386 105.888C78.3568 105.888 77.2922 104.201 76.8317 102.43C77.3401 104.061 78.4146 105.528 80.6362 105.528Z" fill="black"/>
</g>
</g>
<defs>
<clipPath id="clip0">
<rect width="163.457" height="120" fill="white" transform="matrix(-1 0 0 1 163.458 0)"/>
</clipPath>
</defs>
</svg>
