<svg width="134" height="104" viewBox="0 0 134 104" fill="none" xmlns="http://www.w3.org/2000/svg">
<path d="M133.835 24.7143H133.263V9.06018C133.263 7.87038 133.029 6.69223 132.574 5.593C132.118 4.49377 131.451 3.49498 130.61 2.65367C129.768 1.81235 128.77 1.14498 127.67 0.689667C126.571 0.23435 125.393 9.38324e-07 124.203 0H91.0377C89.8479 -2.81488e-06 88.6698 0.234343 87.5706 0.689656C86.4713 1.14497 85.4725 1.81234 84.6312 2.65365C83.7899 3.49496 83.1225 4.49375 82.6672 5.59298C82.2119 6.69221 81.9775 7.87035 81.9775 9.06015V94.9398C81.9775 97.3427 82.9321 99.6472 84.6312 101.346C86.3303 103.045 88.6348 104 91.0377 104H124.203C126.606 104 128.91 103.045 130.61 101.346C132.309 99.6472 133.263 97.3428 133.263 94.9399V35.8571H133.835L133.835 24.7143Z" fill="#D6E4F8"/>
<path d="M124.568 2.35547H120.239C120.438 2.84357 120.514 3.37314 120.46 3.89753C120.406 4.42191 120.225 4.92503 119.931 5.36254C119.636 5.80006 119.239 6.15855 118.774 6.40644C118.309 6.65433 117.79 6.784 117.263 6.78404H98.2628C97.7356 6.784 97.2166 6.65433 96.7514 6.40644C96.2861 6.15855 95.889 5.80006 95.595 5.36254C95.301 4.92503 95.119 4.42191 95.0652 3.89752C95.0115 3.37314 95.0875 2.84357 95.2865 2.35547H91.2431C89.4486 2.35547 87.7277 3.06831 86.4588 4.33719C85.1899 5.60607 84.4771 7.32703 84.4771 9.12149V94.8752C84.477 96.6696 85.1899 98.3906 86.4588 99.6595C87.7276 100.928 89.4486 101.641 91.2431 101.641H124.568C125.457 101.641 126.337 101.466 127.157 101.126C127.978 100.786 128.724 100.288 129.352 99.6595C129.981 99.0312 130.479 98.2853 130.819 97.4644C131.159 96.6435 131.334 95.7637 131.334 94.8752V9.1215C131.334 8.23297 131.159 7.35314 130.819 6.53225C130.479 5.71136 129.981 4.96548 129.352 4.33719C128.724 3.70891 127.978 3.21053 127.157 2.8705C126.337 2.53048 125.457 2.35547 124.568 2.35547Z" fill="white"/>
<path d="M109.655 95.5724C106.71 95.5738 103.854 94.563 101.566 92.7093C99.2779 90.8556 97.6963 88.2718 97.0865 85.3908C96.4766 82.5097 96.8756 79.5067 98.2164 76.8848C99.5573 74.2629 101.759 72.1816 104.451 70.9896C107.144 69.7976 110.165 69.5674 113.007 70.3376C115.85 71.1077 118.341 72.8315 120.064 75.2199C121.786 77.6083 122.636 80.5162 122.469 83.4564C122.303 86.3965 121.131 89.1902 119.15 91.3692L121.832 94.3753L120.494 94.9429C118.424 95.821 116.398 94.9666 115.261 94.2847C113.514 95.1318 111.597 95.5721 109.655 95.5724ZM109.655 72.0012C108.017 72.0017 106.402 72.3766 104.931 73.0972C103.46 73.8178 102.174 74.865 101.17 76.1589C100.166 77.4528 99.4712 78.959 99.1385 80.5625C98.8058 82.166 98.8441 83.8244 99.2504 85.4108C99.6567 86.9973 100.42 88.4699 101.483 89.716C102.545 90.9622 103.879 91.949 105.381 92.601C106.883 93.2529 108.515 93.5529 110.151 93.4778C111.787 93.4028 113.384 92.9548 114.82 92.168L115.393 91.8532L115.926 92.2322C116.534 92.6749 117.225 92.9911 117.958 93.1622L116.271 91.2707L117.01 90.5756C118.085 89.5747 118.941 88.3624 119.524 87.0148C120.107 85.6672 120.405 84.2135 120.399 82.7452C120.396 79.8967 119.263 77.1658 117.249 75.1516C115.234 73.1375 112.504 72.0045 109.655 72.0012Z" fill="#E6E6E6"/>
<path d="M121.441 82.745C121.44 80.1631 120.59 77.6529 119.024 75.6007C117.457 73.5485 115.259 72.0678 112.769 71.3864C110.278 70.705 107.633 70.8606 105.24 71.8294C102.846 72.7981 100.838 74.5262 99.5223 76.748C98.2069 78.9698 97.6579 81.5622 97.9597 84.1265C98.2614 86.6908 99.3972 89.0849 101.192 90.9407C102.988 92.7964 105.343 94.0111 107.896 94.3977C110.448 94.7844 113.058 94.3217 115.322 93.0808C116.136 93.6605 118.124 94.8166 120.087 93.9838L117.724 91.3345C118.899 90.2337 119.835 88.9033 120.474 87.4257C121.114 85.9482 121.443 84.355 121.441 82.745Z" fill="white"/>
<path d="M112.006 80.3359H103.585V81.118H112.006V80.3359Z" fill="#246EB2"/>
<path d="M118.263 83.0352H103.585V83.8172H118.263V83.0352Z" fill="#E6E6E6"/>
<path d="M118.248 85.7422H103.585V86.5242H118.248V85.7422Z" fill="#E6E6E6"/>
<path d="M109.655 38.5489C106.71 38.5503 103.854 37.5395 101.566 35.6858C99.2779 33.8321 97.6963 31.2483 97.0865 28.3673C96.4766 25.4863 96.8756 22.4832 98.2164 19.8613C99.5573 17.2394 101.759 15.1581 104.451 13.9661C107.144 12.7741 110.165 12.544 113.007 13.3141C115.85 14.0843 118.341 15.808 120.064 18.1964C121.786 20.5848 122.636 23.4928 122.469 26.4329C122.303 29.3731 121.131 32.1667 119.15 34.3457L121.832 37.3518L120.494 37.9194C118.424 38.7975 116.398 37.943 115.261 37.2611C113.514 38.1083 111.597 38.5485 109.655 38.5489ZM109.655 14.9778C108.017 14.9783 106.401 15.3532 104.931 16.0737C103.46 16.7943 102.174 17.8416 101.17 19.1354C100.166 20.4293 99.4712 21.9355 99.1385 23.539C98.8058 25.1425 98.844 26.8009 99.2504 28.3873C99.6567 29.9738 100.42 31.4464 101.483 32.6925C102.545 33.9387 103.879 34.9255 105.381 35.5775C106.883 36.2294 108.515 36.5294 110.151 36.4543C111.787 36.3793 113.384 35.9312 114.82 35.1445L115.393 34.8297L115.925 35.2087C116.534 35.6514 117.225 35.9676 117.958 36.1387L116.271 34.2472L117.01 33.5521C118.085 32.5512 118.941 31.3389 119.524 29.9913C120.107 28.6437 120.405 27.19 120.399 25.7217C120.396 22.8732 119.263 20.1423 117.249 18.1282C115.234 16.114 112.503 14.981 109.655 14.9778V14.9778Z" fill="#E6E6E6"/>
<path d="M121.44 25.7255C121.439 23.1436 120.59 20.6334 119.023 18.5812C117.456 16.5289 115.259 15.0483 112.768 14.3669C110.278 13.6855 107.633 13.8411 105.239 14.8098C102.846 15.7786 100.837 17.5067 99.5218 19.7285C98.2064 21.9503 97.6574 24.5427 97.9592 27.107C98.2609 29.6713 99.3967 32.0654 101.192 33.9212C102.987 35.7769 105.342 36.9916 107.895 37.3782C110.448 37.7649 113.057 37.3022 115.321 36.0613C116.136 36.6409 118.123 37.7971 120.087 36.9643L117.723 34.315C118.898 33.2142 119.834 31.8838 120.474 30.4062C121.113 28.9287 121.442 27.3355 121.44 25.7255Z" fill="white"/>
<path d="M112.006 23.3203H103.585V24.1024H112.006V23.3203Z" fill="#246EB2"/>
<path d="M118.263 26.0195H103.585V26.8016H118.263V26.0195Z" fill="#E6E6E6"/>
<path d="M118.248 28.7227H103.585V29.5047H118.248V28.7227Z" fill="#E6E6E6"/>
<path d="M125.98 39.6451C127.006 39.6451 127.837 38.8134 127.837 37.7874C127.837 36.7614 127.006 35.9297 125.98 35.9297C124.954 35.9297 124.122 36.7614 124.122 37.7874C124.122 38.8134 124.954 39.6451 125.98 39.6451Z" fill="#E6E6E6"/>
<path d="M125.98 96.6646C127.006 96.6646 127.837 95.8329 127.837 94.8069C127.837 93.7809 127.006 92.9492 125.98 92.9492C124.954 92.9492 124.122 93.7809 124.122 94.8069C124.122 95.8329 124.954 96.6646 125.98 96.6646Z" fill="#E6E6E6"/>
<path d="M84.9537 68.0233C83.5942 68.8386 81.172 69.8602 78.6969 68.8103L77.0969 68.1316L80.3032 64.5374C77.7446 61.7164 76.3291 58.0431 76.333 54.2346C76.3369 50.4261 77.7599 46.7557 80.3243 43.9399C82.8886 41.1241 86.4102 39.3649 90.2017 39.0058C93.9933 38.6466 97.7826 39.7133 100.83 41.9975C103.877 44.2818 105.964 47.6197 106.683 51.3597C107.402 55.0997 106.702 58.9734 104.718 62.2247C102.735 65.476 99.611 67.8715 95.9565 68.9437C92.3021 70.0158 88.3792 69.6877 84.9536 68.0233H84.9537Z" fill="#246EB2"/>
<path opacity="0.1" d="M104.574 54.154C104.573 50.6324 103.255 47.2385 100.877 44.6407C98.4994 42.0428 95.2353 40.4293 91.7275 40.1179C92.138 40.082 92.5532 40.0625 92.973 40.0625C96.7087 40.0649 100.291 41.5506 102.931 44.193C105.572 46.8354 107.056 50.4183 107.056 54.154C107.056 57.8898 105.572 61.4726 102.931 64.1151C100.291 66.7575 96.7087 68.2432 92.973 68.2455C92.5538 68.2455 92.1394 68.2258 91.7295 68.19C95.2369 67.8781 98.5005 66.2644 100.878 63.6667C103.255 61.0689 104.573 57.6753 104.574 54.154Z" fill="black"/>
<path d="M93.6346 51.3477H83.5654V52.2827H93.6346V51.3477Z" fill="white"/>
<path d="M101.115 54.5781H83.5654V55.5132H101.115V54.5781Z" fill="white"/>
<path d="M101.098 57.8125H83.5654V58.7475H101.098V57.8125Z" fill="white"/>
<path d="M0.198791 103.757H75.9381C75.9908 103.757 76.0414 103.736 76.0787 103.699C76.116 103.661 76.1369 103.611 76.1369 103.558C76.1369 103.505 76.116 103.455 76.0787 103.418C76.0414 103.38 75.9908 103.359 75.9381 103.359H0.198791C0.146068 103.359 0.0955049 103.38 0.0582243 103.418C0.0209438 103.455 0 103.505 0 103.558C0 103.611 0.0209438 103.661 0.0582243 103.699C0.0955049 103.736 0.146068 103.757 0.198791 103.757Z" fill="#D6E4F8"/>
<path d="M36.5342 18.2225L36.8335 16.7258C36.8335 16.7258 41.2366 15.229 41.7293 18.2225H36.5342Z" fill="#E6E6E6"/>
<path d="M44.9859 100.638L47.8726 100.638L49.2458 89.5039L44.9854 89.5041L44.9859 100.638Z" fill="#FFB8B8"/>
<path d="M44.248 99.6955L49.9329 99.6953H49.9331C50.8939 99.6954 51.8153 100.077 52.4947 100.756C53.1741 101.436 53.5558 102.357 53.5559 103.318V103.436L44.2482 103.436L44.248 99.6955Z" fill="#2F2E41"/>
<path d="M31.0699 100.638L33.9566 100.638L35.3298 89.5039L31.0693 89.5041L31.0699 100.638Z" fill="#FFB8B8"/>
<path d="M30.333 99.6955L36.0178 99.6953H36.0181C36.9789 99.6954 37.9003 100.077 38.5797 100.756C39.2591 101.436 39.6408 102.357 39.6409 103.318V103.436L30.3332 103.436L30.333 99.6955Z" fill="#2F2E41"/>
<path d="M32.344 24.5181L29.051 24.2188L26.9556 34.0975L27.2549 43.078L30.5479 55.0522L35.0382 52.358L32.6434 40.0844L32.344 24.5181Z" fill="#2F2E41"/>
<path d="M30.2599 53.9981L30.9971 60.2845L31.6894 74.9529L30.0991 96.8115L35.7867 96.5064L38.5746 73.7555L40.277 63.2781L42.6718 75.2522L44.1687 97.7037L50.006 97.2359V75.1733L50.1557 59.0871L48.0603 52.8008L30.2599 53.9981Z" fill="#2F2E41"/>
<path d="M42.5207 18.5253C42.5207 18.5253 40.4253 15.5318 36.5337 17.6273L34.7375 20.0221L29.0498 24.2131L30.2473 38.2827L28.7505 55.9445L50.0046 55.6452L46.4123 37.9833V19.1241L42.5207 18.5253Z" fill="#2F2E41"/>
<path opacity="0.25" d="M30.9971 29.1836L29.2808 49.7066L31.4462 38.5838L30.9971 29.1836Z" fill="black"/>
<path d="M66.724 46.3865C66.4184 46.4904 66.0937 46.5259 65.7729 46.4907C65.452 46.4555 65.1428 46.3504 64.867 46.1827C64.5912 46.0151 64.3555 45.789 64.1765 45.5204C63.9975 45.2518 63.8796 44.9472 63.831 44.6281L58.9331 43.4176L58.9428 40.2617L65.8356 42.0683C66.3771 42.0223 66.9166 42.1765 67.352 42.5017C67.7874 42.8269 68.0883 43.3005 68.1978 43.8328C68.3073 44.3651 68.2178 44.9191 67.9461 45.3897C67.6745 45.8604 67.2397 46.2151 66.724 46.3865Z" fill="#FFB8B8"/>
<path d="M61.6034 40.2309L60.7798 44.9492L62.844 45.3095L63.6676 40.5913L61.6034 40.2309Z" fill="#E6E6E6"/>
<path d="M42.0741 14.3338C44.9872 12.7414 46.0578 9.08894 44.4653 6.17585C42.8729 3.26276 39.2204 2.19217 36.3073 3.7846C33.3942 5.37704 32.3236 9.02949 33.9161 11.9426C35.5085 14.8557 39.161 15.9263 42.0741 14.3338Z" fill="#FFB8B8"/>
<path d="M39.6402 14.3648C38.1695 14.7179 36.6201 14.5118 35.2928 13.7866C33.9656 13.0613 32.9553 11.8687 32.4581 10.4403C31.9608 9.01184 32.0122 7.44961 32.6023 6.05697C33.1923 4.66433 34.2788 3.54067 35.6509 2.90422C36.7075 2.43265 37.863 2.2253 39.0176 2.30006C40.8154 2.39458 42.5628 3.05904 44.3624 3.01008L44.6232 3.42936L45.6063 3.19095L45.8169 3.97142L46.0759 3.96246C46.5397 4.82442 45.7934 6.05848 44.8146 6.04803C44.4271 6.0439 44.0607 5.88245 43.6818 5.80126C43.3028 5.72006 42.8566 5.74029 42.5953 6.02649C42.2557 6.39842 42.4035 6.97882 42.4743 7.47746C42.5451 7.97611 42.3683 8.64775 41.8649 8.66402C41.6078 8.67233 41.3632 8.48793 41.1106 8.53641C40.8163 8.59288 40.6675 8.94825 40.7105 9.24481C40.7833 9.5358 40.9022 9.81329 41.0626 10.0668C41.7923 11.5234 41.1761 13.5048 39.7491 14.2908" fill="#2F2E41"/>
<path d="M44.9851 20.2804L46.4139 19.1238C46.4139 19.1238 49.2976 18.9233 49.2455 21.9803L53.8595 36.4134L62.7112 39.5491L61.5184 45.7116L48.9946 40.9406L42.6333 30.3968L44.9851 20.2804Z" fill="#2F2E41"/>
</svg>
