<svg width="359" height="223" viewBox="0 0 359 223" fill="none" xmlns="http://www.w3.org/2000/svg">
<path d="M43.3996 9.1782C44.6645 9.1782 45.6899 8.15281 45.6899 6.88793C45.6899 5.62305 44.6645 4.59766 43.3996 4.59766C42.1348 4.59766 41.1094 5.62305 41.1094 6.88793C41.1094 8.15281 42.1348 9.1782 43.3996 9.1782Z" fill="#7D7B8C"/>
<path d="M51.2541 9.1782C52.519 9.1782 53.5444 8.15281 53.5444 6.88793C53.5444 5.62305 52.519 4.59766 51.2541 4.59766C49.9893 4.59766 48.9639 5.62305 48.9639 6.88793C48.9639 8.15281 49.9893 9.1782 51.2541 9.1782Z" fill="#7D7B8C"/>
<path d="M59.1067 9.1782C60.3716 9.1782 61.397 8.15281 61.397 6.88793C61.397 5.62305 60.3716 4.59766 59.1067 4.59766C57.8418 4.59766 56.8164 5.62305 56.8164 6.88793C56.8164 8.15281 57.8418 9.1782 59.1067 9.1782Z" fill="#7D7B8C"/>
<path d="M276.354 132.199H57.4697V158.047H276.354V132.199Z" fill="#F2F2F2"/>
<path d="M295.822 43.043H165.604V109.134H295.822V43.043Z" fill="#F2F2F2"/>
<path d="M188.46 103.085L217.953 53.8438L248.544 103.085" fill="#246EB2"/>
<path d="M233.167 77.8893L239.056 62.5117L272.428 103.082H233.003L233.167 77.8893Z" fill="#246EB2"/>
<path d="M226.967 71.7818C227.884 71.2208 228.681 70.4846 229.313 69.6153C229.945 68.7461 230.4 67.7608 230.651 66.7158C230.902 65.6708 230.944 64.5865 230.776 63.525C230.608 62.4635 230.232 61.4455 229.671 60.5293C229.109 59.613 228.372 58.8165 227.502 58.1851C226.633 57.5538 225.647 57.1 224.602 56.8498C223.557 56.5996 222.472 56.5578 221.411 56.7268C220.349 56.8958 219.332 57.2723 218.416 57.8348" fill="#246EB2"/>
<path d="M332.61 148.617C332.355 149.322 332.225 150.067 332.228 150.817C332.217 151.911 332.498 152.988 333.042 153.938C332.508 154.891 332.228 155.966 332.228 157.058C332.228 158.151 332.508 159.226 333.042 160.179C332.508 161.133 332.228 162.207 332.228 163.3C332.228 164.393 332.508 165.467 333.042 166.421C332.508 167.374 332.228 168.449 332.228 169.541C332.228 170.634 332.508 171.709 333.042 172.662C332.498 173.612 332.217 174.689 332.228 175.783C332.228 178.603 333.974 180.89 336.129 180.89C338.283 180.89 340.03 178.603 340.03 175.783C340.04 174.689 339.759 173.612 339.215 172.662C339.749 171.709 340.03 170.634 340.03 169.541C340.03 168.449 339.749 167.374 339.215 166.421C339.749 165.467 340.03 164.393 340.03 163.3C340.03 162.207 339.749 161.133 339.215 160.179C339.749 159.226 340.03 158.151 340.03 157.058C340.03 155.966 339.749 154.891 339.215 153.938C339.759 152.988 340.04 151.911 340.03 150.817C340.032 150.078 339.906 149.343 339.658 148.647" fill="#57B894"/>
<path d="M321.525 95.6104C320.992 94.9319 320.507 94.2174 320.072 93.4719L330.322 91.7885L319.237 91.871C318.173 89.5572 317.593 87.0507 317.532 84.505C317.47 81.9592 317.929 79.4278 318.88 77.0654L333.753 84.7806L320.037 74.6983C321.322 72.4777 323.05 70.5456 325.114 69.0221C327.179 67.4987 329.535 66.4167 332.035 65.8435C334.536 65.2703 337.128 65.2181 339.65 65.6903C342.171 66.1625 344.569 67.1489 346.693 68.5881C348.817 70.0272 350.622 71.8883 351.995 74.0554C353.368 76.2225 354.28 78.6491 354.675 81.1842C355.07 83.7192 354.938 86.3084 354.288 88.7903C353.638 91.2723 352.485 93.5938 350.899 95.6104C351.729 96.6664 352.444 97.8089 353.03 99.018L339.724 105.93L353.911 101.169C354.908 104.114 355.154 107.26 354.628 110.324C354.102 113.388 352.82 116.272 350.899 118.716C353.066 121.472 354.415 124.783 354.79 128.269C355.165 131.756 354.552 135.278 353.02 138.432C351.488 141.586 349.099 144.245 346.127 146.106C343.154 147.967 339.718 148.954 336.212 148.954C332.705 148.954 329.269 147.967 326.297 146.106C323.325 144.245 320.936 141.586 319.404 138.432C317.872 135.278 317.258 131.756 317.634 128.269C318.009 124.783 319.357 121.472 321.525 118.716C318.935 115.422 317.526 111.354 317.526 107.163C317.526 102.973 318.935 98.9041 321.525 95.6104L321.525 95.6104Z" fill="#57B894"/>
<path d="M335.882 148.281C335.626 148.986 335.497 149.731 335.499 150.481C335.489 151.575 335.77 152.652 336.314 153.602C335.78 154.555 335.499 155.63 335.499 156.723C335.499 157.815 335.78 158.89 336.314 159.843C335.78 160.797 335.499 161.871 335.499 162.964C335.499 164.057 335.78 165.131 336.314 166.085C335.78 167.038 335.499 168.113 335.499 169.205C335.499 170.298 335.78 171.373 336.314 172.326C335.77 173.276 335.489 174.353 335.499 175.447C335.499 178.267 337.246 180.554 339.4 180.554C341.555 180.554 343.301 178.267 343.301 175.447C343.312 174.353 343.031 173.276 342.487 172.326C343.021 171.373 343.301 170.298 343.301 169.205C343.301 168.113 343.021 167.038 342.487 166.085C343.021 165.131 343.301 164.057 343.301 162.964C343.301 161.871 343.021 160.797 342.487 159.843C343.021 158.89 343.301 157.815 343.301 156.723C343.301 155.63 343.021 154.555 342.487 153.602C343.031 152.652 343.312 151.575 343.301 150.481C343.304 149.742 343.178 149.008 342.929 148.311" stroke="#3F3D56" stroke-miterlimit="10"/>
<path d="M324.796 95.2862C324.263 94.6077 323.777 93.8932 323.343 93.1477L333.593 91.4643L322.507 91.5468C321.444 89.233 320.864 86.7265 320.802 84.1808C320.741 81.635 321.2 79.1035 322.15 76.7412L337.023 84.4564L323.307 74.3741C324.592 72.1535 326.321 70.2213 328.385 68.6979C330.449 67.1745 332.805 66.0925 335.306 65.5193C337.807 64.946 340.398 64.8939 342.92 65.3661C345.442 65.8383 347.839 66.8247 349.963 68.2638C352.087 69.703 353.892 71.5641 355.265 73.7312C356.639 75.8983 357.551 78.3249 357.946 80.86C358.34 83.395 358.208 85.9842 357.559 88.4661C356.909 90.948 355.755 93.2696 354.169 95.2862C355 96.3422 355.714 97.4847 356.3 98.6938L342.995 105.606L357.182 100.845C358.178 103.79 358.424 106.936 357.898 110C357.372 113.064 356.09 115.948 354.169 118.392C356.337 121.148 357.686 124.459 358.061 127.945C358.436 131.432 357.822 134.953 356.29 138.108C354.758 141.262 352.369 143.921 349.397 145.782C346.425 147.643 342.989 148.629 339.482 148.629C335.976 148.629 332.54 147.643 329.568 145.782C326.595 143.921 324.207 141.262 322.675 138.108C321.143 134.953 320.529 131.432 320.904 127.945C321.279 124.459 322.628 121.148 324.796 118.392C322.205 115.098 320.797 111.029 320.797 106.839C320.797 102.649 322.205 98.5799 324.796 95.2862L324.796 95.2862Z" stroke="#3F3D56" stroke-miterlimit="10"/>
<path d="M312.016 1H37.1836V179.641H312.016V1Z" stroke="#3F3D56" stroke-miterlimit="10"/>
<path d="M37.1836 10.9297H312.016" stroke="#3F3D56" stroke-miterlimit="10"/>
<path d="M44.0559 8.19773C45.3208 8.19773 46.3462 7.17234 46.3462 5.90746C46.3462 4.64258 45.3208 3.61719 44.0559 3.61719C42.791 3.61719 41.7656 4.64258 41.7656 5.90746C41.7656 7.17234 42.791 8.19773 44.0559 8.19773Z" stroke="#3F3D56" stroke-miterlimit="10"/>
<path d="M51.9094 8.19773C53.1743 8.19773 54.1997 7.17234 54.1997 5.90746C54.1997 4.64258 53.1743 3.61719 51.9094 3.61719C50.6445 3.61719 49.6191 4.64258 49.6191 5.90746C49.6191 7.17234 50.6445 8.19773 51.9094 8.19773Z" stroke="#3F3D56" stroke-miterlimit="10"/>
<path d="M59.76 8.19773C61.0249 8.19773 62.0503 7.17234 62.0503 5.90746C62.0503 4.64258 61.0249 3.61719 59.76 3.61719C58.4951 3.61719 57.4697 4.64258 57.4697 5.90746C57.4697 7.17234 58.4951 8.19773 59.76 8.19773Z" stroke="#3F3D56" stroke-miterlimit="10"/>
<path d="M137.303 50.2461H42.4199V57.1169H137.303V50.2461Z" fill="#F2F2F2"/>
<path d="M137.303 66.6055H42.4199V73.4763H137.303V66.6055Z" fill="#F2F2F2"/>
<path d="M137.303 82.9609H42.4199V89.8318H137.303V82.9609Z" fill="#F2F2F2"/>
<path d="M140.575 47.9453H45.6924V54.8161H140.575V47.9453Z" stroke="#3F3D56" stroke-miterlimit="10"/>
<path d="M140.575 64.3047H45.6924V71.1755H140.575V64.3047Z" stroke="#3F3D56" stroke-miterlimit="10"/>
<path d="M140.575 80.668H45.6924V87.5388H140.575V80.668Z" stroke="#3F3D56" stroke-miterlimit="10"/>
<path d="M303.51 34.6914H173.292V100.782H303.51V34.6914Z" stroke="#3F3D56" stroke-miterlimit="10"/>
<path d="M284.043 126.312H65.1582V152.16H284.043V126.312Z" stroke="#3F3D56" stroke-miterlimit="10"/>
<path d="M190.096 100.792L219.589 51.5508L250.18 100.792" stroke="#3F3D56" stroke-miterlimit="10"/>
<path d="M234.148 74.9479L240.038 59.5703L273.41 100.795" stroke="#3F3D56" stroke-miterlimit="10"/>
<path d="M229.256 67.1998C230.173 66.6387 230.97 65.9026 231.602 65.0333C232.234 64.1641 232.689 63.1788 232.94 62.1338C233.191 61.0888 233.234 60.0045 233.065 58.943C232.897 57.8815 232.522 56.8635 231.96 55.9473C231.398 55.031 230.661 54.2345 229.791 53.6031C228.922 52.9718 227.936 52.518 226.891 52.2678C225.846 52.0175 224.761 51.9757 223.7 52.1447C222.639 52.3138 221.621 52.6903 220.705 53.2528" stroke="#3F3D56" stroke-miterlimit="10"/>
<path d="M7.74137 141.854C8.83561 141.906 9.92694 141.703 10.9293 141.261C11.9317 140.819 12.8178 140.15 13.5177 139.308C14.2176 138.465 14.7122 137.471 14.9625 136.405C15.2129 135.338 15.2121 134.228 14.9602 133.162C14.7083 132.096 14.2123 131.103 13.5112 130.261C12.81 129.419 11.923 128.752 10.92 128.312C9.91693 127.871 8.8253 127.67 7.73115 127.723C6.63699 127.777 5.5702 128.084 4.61486 128.62L5.86442 132.044L3.29356 129.575C1.91495 130.836 1.09308 132.592 1.00856 134.458C0.976014 135.112 1.03639 135.768 1.18788 136.406C1.53932 137.903 2.36921 139.245 3.55179 140.228C4.73437 141.211 6.20519 141.782 7.74137 141.854Z" fill="#57B894"/>
<path d="M28.4107 179.651C26.9111 176.875 28.6125 173.472 30.5683 170.995C32.524 168.519 34.9077 165.943 34.857 162.788C34.7843 158.254 29.9714 155.576 26.1261 153.172C23.273 151.388 20.6414 149.272 18.2864 146.869C17.3423 145.905 16.4296 144.874 15.8774 143.643C15.0821 141.871 15.1043 139.854 15.1544 137.912C15.3215 131.441 15.6411 124.977 16.1135 118.52" stroke="#3F3D56" stroke-miterlimit="10"/>
<path d="M7.74137 140.877C8.83561 140.929 9.92694 140.726 10.9293 140.284C11.9317 139.842 12.8178 139.174 13.5177 138.331C14.2176 137.488 14.7122 136.495 14.9625 135.428C15.2129 134.362 15.2121 133.252 14.9602 132.185C14.7083 131.119 14.2123 130.126 13.5112 129.285C12.81 128.443 11.923 127.775 10.92 127.335C9.91693 126.895 8.82531 126.693 7.73115 126.747C6.63699 126.8 5.5702 127.107 4.61486 127.643L5.86442 131.067L3.29356 128.599C1.91495 129.859 1.09308 131.615 1.00856 133.481C0.976014 134.136 1.03639 134.791 1.18788 135.429C1.53932 136.926 2.36921 138.268 3.55179 139.251C4.73437 140.234 6.20519 140.805 7.74137 140.877Z" stroke="#3F3D56" stroke-miterlimit="10"/>
<path d="M8.80559 119.48C8.86057 118.296 9.21279 117.144 9.82979 116.132C10.4468 115.119 11.3087 114.278 12.3362 113.686L13.9195 116.818L13.8718 113.027C15.31 112.603 16.8457 112.647 18.2571 113.153C19.6685 113.659 20.8826 114.601 21.724 115.841C22.5655 117.082 22.9909 118.559 22.9387 120.057C22.8864 121.556 22.3594 122.999 21.4336 124.178C20.5078 125.357 19.2311 126.212 17.7879 126.618C16.3447 127.025 14.8097 126.962 13.4044 126.44C11.9992 125.917 10.7964 124.961 9.96981 123.71C9.1432 122.459 8.7355 120.978 8.80559 119.48Z" fill="#57B894"/>
<path d="M8.80559 118.164C8.86057 116.979 9.21279 115.828 9.82979 114.815C10.4468 113.803 11.3087 112.962 12.3362 112.37L13.9195 115.502L13.8718 111.71C15.31 111.286 16.8457 111.331 18.2571 111.837C19.6685 112.343 20.8826 113.284 21.724 114.525C22.5655 115.766 22.9909 117.242 22.9387 118.741C22.8864 120.239 22.3594 121.682 21.4336 122.862C20.5078 124.041 19.2311 124.896 17.7879 125.302C16.3447 125.709 14.8097 125.646 13.4044 125.123C11.9992 124.6 10.7964 123.645 9.96981 122.394C9.1432 121.143 8.7355 119.662 8.80559 118.164V118.164Z" stroke="#3F3D56" stroke-miterlimit="10"/>
<path d="M24.9617 153.611C26.6966 153.692 28.4007 153.132 29.7492 152.037C31.0976 150.942 31.9961 149.39 32.2734 147.675C32.5507 145.961 32.1874 144.204 31.2527 142.74C30.318 141.276 28.8774 140.207 27.2053 139.737L27.242 142.651L25.6409 139.482C25.6346 139.481 25.6281 139.48 25.6217 139.48C24.6939 139.437 23.7666 139.577 22.8928 139.892C22.0191 140.207 21.2159 140.691 20.5292 141.316C19.8425 141.942 19.2857 142.696 18.8906 143.537C18.4955 144.378 18.2698 145.288 18.2265 146.216C18.1831 147.143 18.3229 148.071 18.638 148.944C18.953 149.818 19.437 150.621 20.0625 151.308C20.6879 151.995 21.4424 152.552 22.283 152.947C23.1236 153.342 24.0338 153.568 24.9617 153.611Z" fill="#57B894"/>
<path d="M24.908 152.298C26.6429 152.379 28.347 151.819 29.6955 150.724C31.0439 149.63 31.9424 148.077 32.2197 146.363C32.497 144.648 32.1336 142.891 31.199 141.427C30.2643 139.964 28.8236 138.895 27.1516 138.425L27.1883 141.339L25.5872 138.169C25.5809 138.168 25.5744 138.168 25.568 138.168C24.6402 138.125 23.7129 138.264 22.8391 138.579C21.9654 138.894 21.1622 139.378 20.4755 140.004C19.0886 141.267 18.2603 143.029 18.1727 144.903C18.1294 145.831 18.2692 146.758 18.5843 147.632C18.8993 148.506 19.3833 149.309 20.0087 149.996C21.2718 151.382 23.0341 152.211 24.908 152.298Z" stroke="#3F3D56" stroke-miterlimit="10"/>
<path d="M21.417 167.016C22.1592 168.458 23.3747 169.601 24.8596 170.253C26.3445 170.905 28.0086 171.027 29.5728 170.598C31.1369 170.169 32.506 169.216 33.4505 167.897C34.3949 166.579 34.8572 164.975 34.7599 163.356C34.6626 161.737 34.0116 160.201 32.9161 159.005C31.8205 157.809 30.3471 157.026 28.7428 156.788C27.1385 156.549 25.501 156.87 24.1049 157.695C22.7088 158.521 21.639 159.801 21.0749 161.322L25.492 164.916L20.6328 163.79C20.6321 164.912 20.901 166.019 21.417 167.016Z" fill="#57B894"/>
<path d="M21.417 166.023C22.1592 167.465 23.3747 168.609 24.8596 169.261C26.3445 169.913 28.0086 170.035 29.5728 169.606C31.1369 169.177 32.506 168.224 33.4505 166.905C34.3949 165.586 34.8572 163.983 34.7599 162.364C34.6626 160.745 34.0116 159.209 32.9161 158.013C31.8205 156.817 30.3471 156.034 28.7428 155.796C27.1385 155.557 25.501 155.877 24.1049 156.703C22.7088 157.528 21.639 158.809 21.0749 160.329L25.492 163.924L20.6328 162.798C20.6321 163.92 20.901 165.026 21.417 166.023V166.023Z" stroke="#3F3D56" stroke-miterlimit="10"/>
<path opacity="0.1" d="M180.404 219.01C135.434 219.01 98.979 215.508 98.979 211.188C98.979 206.869 135.434 203.367 180.404 203.367C225.374 203.367 261.829 206.869 261.829 211.188C261.829 215.508 225.374 219.01 180.404 219.01Z" fill="#246EB2"/>
<path d="M256.569 205.413C257.215 205.765 257.776 205.984 257.824 205.887C257.872 205.79 257.39 205.44 256.744 205.089C256.099 204.739 256.354 204.994 256.305 205.089C256.255 205.184 255.922 205.059 256.569 205.413Z" fill="#FFD037"/>
<path d="M213.376 185.722C213.376 185.722 191.052 171.459 175.619 171.459C175.619 171.459 157.039 168.566 136.829 173.457C116.619 178.348 109.153 184.69 103.55 182.828L127.09 183.517L213.376 185.722Z" fill="#8CD0F3"/>
<path opacity="0.1" d="M213.376 185.722C213.376 185.722 191.052 171.459 175.619 171.459C175.619 171.459 157.039 168.566 136.829 173.457C116.619 178.348 109.153 184.69 103.55 182.828L127.09 183.517L213.376 185.722Z" fill="#8CD0F3"/>
<path d="M108.155 207.551H244.301L240.558 192.554L217.406 186.398L108.155 189.27V207.551Z" fill="#121C3F"/>
<path d="M100.991 198.182V202.969C100.991 202.969 105.033 205.901 105.4 208.197C105.4 208.197 111.188 209.667 112.841 209.667C112.991 209.667 113.155 209.667 113.326 209.684C113.068 208.991 112.866 208.279 112.723 207.554C112.317 205.518 112.369 203.419 112.872 201.406C113.376 199.393 114.32 197.516 115.636 195.912C116.953 194.308 118.608 193.015 120.484 192.128C122.36 191.241 124.409 190.78 126.484 190.78C128.56 190.78 130.609 191.241 132.485 192.128C134.361 193.015 136.016 194.308 137.332 195.912C138.649 197.516 139.593 199.393 140.096 201.406C140.6 203.419 140.651 205.518 140.246 207.554C140.051 208.535 139.752 209.492 139.353 210.409H147.201C147.201 210.409 147.273 210.434 147.391 210.486C147.812 210.676 148.804 211.179 148.947 211.969H213.987L215.32 211.957C215.036 211.482 214.782 210.99 214.558 210.484C214.14 209.546 213.83 208.565 213.633 207.557C213.246 205.634 213.266 203.651 213.692 201.736C214.118 199.82 214.941 198.016 216.108 196.438C217.274 194.86 218.758 193.545 220.464 192.576C222.17 191.607 224.06 191.006 226.013 190.812C227.965 190.618 229.937 190.836 231.8 191.45C233.663 192.065 235.377 193.063 236.831 194.381C238.284 195.699 239.446 197.306 240.24 199.1C241.035 200.894 241.445 202.835 241.443 204.797C241.443 205.722 241.353 206.644 241.173 207.552C240.866 209.088 240.304 210.562 239.509 211.912C240.438 211.685 242.466 211.042 242.466 211.042C242.466 211.042 251.1 210.124 253.305 208.186L252.972 207.955L251.559 206.99L252.202 204.515C252.28 204.411 252.344 204.297 252.393 204.176C252.564 203.763 252.714 202.996 252.109 202.032C251.191 200.562 251.65 195.327 251.65 195.327C251.65 195.327 239.157 186.692 214.537 184.762C214.537 184.762 213.949 185.219 212.734 185.314C211.912 185.381 210.802 185.28 209.391 184.762C209.391 184.762 207.371 185.679 198.729 180.72C198.729 180.72 184.029 170.614 164.736 171.535C164.736 171.535 144.893 170.34 127.99 176.866C120.706 179.676 115.164 181.175 111.213 181.967C107.565 182.7 105.275 182.835 104.226 182.846H104.203C103.86 182.846 103.656 182.846 103.584 182.846H103.554C103.554 182.846 103.554 185.034 103.437 187.618V187.631C103.396 188.53 103.338 189.476 103.258 190.395V190.453C103.038 193.013 102.657 195.34 101.996 195.801L100.991 198.182Z" fill="#2856B8"/>
<path d="M249.663 195.113C249.663 195.113 244.129 190.795 237.238 191.714C237.238 191.714 243.508 196.676 246.334 196.354L246.815 195.941L249.671 196.101C249.671 196.101 250.098 195.435 249.663 195.113Z" fill="#8CD0F3"/>
<path opacity="0.2" d="M244.291 202.578V205.127C244.291 205.127 244.481 207.563 246.68 207.654L252.963 207.964L251.552 206.999L252.196 204.524C252.274 204.42 252.338 204.307 252.386 204.187C251.815 203.661 250.469 202.774 247.731 202.584L244.291 202.578Z" fill="white"/>
<path opacity="0.2" d="M215.052 191.894L210.229 191.703C210.229 191.703 212.181 193.241 213.559 193.38C214.938 193.519 215.052 191.894 215.052 191.894Z" fill="white"/>
<path opacity="0.2" d="M204.901 206.526C204.901 206.526 161.288 200.462 150.746 202.391C150.746 202.391 147.647 202.598 146.474 203.837C145.301 205.077 146.474 204.273 146.474 204.273L204.901 206.526Z" fill="white"/>
<path opacity="0.5" d="M180.488 189.512C180.488 189.512 179.936 188.478 179.041 188.455L173.231 188.156C173.231 188.156 173.322 188.96 174.356 189.259L180.488 189.512Z" fill="#18218A"/>
<path opacity="0.5" d="M146.864 187.762C146.864 187.762 146.312 186.728 145.417 186.705L139.607 186.398C139.607 186.398 139.698 187.202 140.732 187.501L146.864 187.762Z" fill="#18218A"/>
<path d="M166.705 173.591L171.164 185.284L187.241 185.302H191.38H194.98H198.093H201.619C201.619 185.302 199.472 183.725 196.012 181.716C194.87 181.05 193.573 180.338 192.166 179.622C190.871 178.96 189.478 178.289 188.014 177.653C186.871 177.151 185.668 176.667 184.438 176.216C178.862 174.177 172.594 172.808 166.705 173.591Z" fill="#8CD0F3"/>
<path d="M141.445 182.139C141.445 182.139 148.162 183.135 154.572 183.872C157.023 184.154 159.427 184.397 161.396 184.533L161.67 184.552C162.432 184.601 163.138 184.633 163.738 184.645C164.69 184.662 165.402 184.62 165.758 184.506L163.905 173.32C163.905 173.32 161.621 173.345 158.241 173.511L157.502 173.551C156.8 173.591 156.059 173.636 155.286 173.69C154.182 173.766 153.019 173.857 151.819 173.968C146.027 174.499 139.467 175.453 135.312 177.17C126.472 180.829 141.445 182.139 141.445 182.139Z" fill="#8CD0F3"/>
<path d="M110.486 187.766V190.751C110.486 190.751 115.308 190.819 114.275 189.856C113.606 189.216 112.998 188.515 112.46 187.762L110.486 187.766Z" fill="#8CD0F3"/>
<path d="M103.26 190.439L107.177 190.746V187.157C107.177 187.157 105.362 184.608 103.548 187.433L103.443 187.599L103.26 190.439Z" fill="#8CD0F3"/>
<path d="M227.396 216.003C221.206 216.003 216.188 210.985 216.188 204.794C216.188 198.604 221.206 193.586 227.396 193.586C233.586 193.586 238.604 198.604 238.604 204.794C238.604 210.985 233.586 216.003 227.396 216.003Z" fill="#182A7C"/>
<path d="M218.405 204.786C218.401 207.099 219.285 209.325 220.875 211.004C222.465 212.684 224.64 213.688 226.95 213.81C229.259 213.932 231.527 213.163 233.286 211.66C235.044 210.158 236.158 208.037 236.398 205.737C236.637 203.436 235.984 201.132 234.573 199.299C233.162 197.466 231.102 196.246 228.816 195.889C226.531 195.533 224.196 196.067 222.294 197.383C220.392 198.698 219.068 200.694 218.595 202.958C218.47 203.56 218.406 204.172 218.405 204.786Z" fill="#3F8FFE"/>
<path opacity="0.5" d="M227.411 212.521C223.143 212.521 219.683 209.053 219.683 204.774C219.683 200.496 223.143 197.027 227.411 197.027C231.679 197.027 235.139 200.496 235.139 204.774C235.139 209.053 231.679 212.521 227.411 212.521Z" fill="#18218A"/>
<path d="M224.825 196.127V196.454L227.397 204.971L229.461 195.986C227.93 195.629 226.332 195.678 224.825 196.127Z" fill="#3F8FFE"/>
<path d="M224.844 213.432C226.317 213.868 227.877 213.922 229.377 213.588L227.399 204.973L224.844 213.432Z" fill="#3F8FFE"/>
<path d="M218.407 204.779C218.406 205.719 218.551 206.652 218.837 207.547H218.873L227.39 204.975L218.582 202.953C218.462 203.554 218.404 204.166 218.407 204.779Z" fill="#3F8FFE"/>
<path d="M227.396 204.973L235.912 207.545H235.979C236.453 206.058 236.538 204.474 236.225 202.945L227.396 204.973Z" fill="#3F8FFE"/>
<path d="M227.408 205.765C226.863 205.765 226.42 205.323 226.42 204.777C226.42 204.231 226.863 203.789 227.408 203.789C227.954 203.789 228.396 204.231 228.396 204.777C228.396 205.323 227.954 205.765 227.408 205.765Z" fill="#182A7C"/>
<path d="M126.552 216.003C120.362 216.003 115.344 210.985 115.344 204.794C115.344 198.604 120.362 193.586 126.552 193.586C132.743 193.586 137.761 198.604 137.761 204.794C137.761 210.985 132.743 216.003 126.552 216.003Z" fill="#182A7C"/>
<path d="M117.561 204.786C117.557 207.099 118.441 209.325 120.032 211.004C121.622 212.684 123.796 213.688 126.106 213.81C128.415 213.932 130.684 213.163 132.442 211.66C134.2 210.158 135.314 208.037 135.554 205.737C135.794 203.436 135.141 201.132 133.73 199.299C132.319 197.466 130.258 196.246 127.973 195.889C125.688 195.533 123.353 196.067 121.45 197.383C119.548 198.698 118.224 200.694 117.751 202.958C117.626 203.56 117.562 204.172 117.561 204.786Z" fill="#3F8FFE"/>
<path opacity="0.5" d="M126.563 212.521C122.295 212.521 118.835 209.053 118.835 204.774C118.835 200.496 122.295 197.027 126.563 197.027C130.831 197.027 134.291 200.496 134.291 204.774C134.291 209.053 130.831 212.521 126.563 212.521Z" fill="#18218A"/>
<path d="M123.98 196.127V196.454L126.552 204.971L128.616 195.986C127.085 195.629 125.487 195.678 123.98 196.127Z" fill="#3F8FFE"/>
<path d="M123.997 213.432C125.47 213.868 127.03 213.922 128.53 213.588L126.552 204.973L123.997 213.432Z" fill="#3F8FFE"/>
<path d="M117.559 204.781C117.557 205.72 117.702 206.654 117.989 207.549H118.033L126.551 204.975L117.743 202.953C117.62 203.555 117.558 204.167 117.559 204.781Z" fill="#3F8FFE"/>
<path d="M126.552 204.973L135.069 207.545H135.135C135.61 206.058 135.694 204.474 135.381 202.945L126.552 204.973Z" fill="#3F8FFE"/>
<path d="M126.563 205.765C126.017 205.765 125.575 205.323 125.575 204.777C125.575 204.231 126.017 203.789 126.563 203.789C127.108 203.789 127.551 204.231 127.551 204.777C127.551 205.323 127.108 205.765 126.563 205.765Z" fill="#182A7C"/>
<path opacity="0.2" d="M192.165 179.637L194.981 185.312H198.094L196.013 181.731C194.865 181.065 193.572 180.354 192.165 179.637Z" fill="white"/>
<path opacity="0.2" d="M184.438 176.227L187.243 185.303H191.382L188.012 177.66C186.862 177.161 185.666 176.682 184.438 176.227Z" fill="white"/>
<path opacity="0.2" d="M155.282 173.701L161.392 184.536L161.666 184.555C162.427 184.604 163.134 184.637 163.733 184.648L158.237 173.523L157.498 173.563C156.805 173.601 156.059 173.647 155.282 173.701Z" fill="white"/>
<path opacity="0.2" d="M201.512 185.281L205 209.307L175.868 208.669L171.085 185.386L201.512 185.281Z" stroke="white" stroke-miterlimit="10"/>
<path opacity="0.5" d="M147.388 210.475C147.809 210.665 148.801 211.168 148.944 211.958H213.986L215.318 211.946C215.035 211.471 214.781 210.979 214.557 210.473L147.388 210.475Z" fill="#18218A"/>
<path opacity="0.1" d="M174.636 200.368H174.702C174.702 200.368 172.513 199.778 174.636 200.368Z" fill="black"/>
<path opacity="0.1" d="M156.535 211.391V211.716C156.56 211.609 156.56 211.498 156.535 211.391Z" fill="black"/>
<g opacity="0.05">
<path opacity="0.05" d="M182.595 217.111C183.126 217.347 188.433 215.696 188.433 215.696C188.498 215.183 188.492 214.664 188.415 214.152C188.72 214.887 188.551 216.11 188.551 216.11C188.551 216.11 183.244 217.76 182.713 217.524C182.538 217.446 182.369 216.993 182.22 216.42C182.338 216.787 182.464 217.058 182.595 217.111Z" fill="black"/>
<path opacity="0.05" d="M185.667 201.945C185.71 202.065 185.747 202.187 185.777 202.311C185.777 202.311 187.057 209.951 187.82 212.782C187.114 210.484 185.781 202.625 185.667 201.945Z" fill="black"/>
<path opacity="0.05" d="M177.819 221.588C177.819 221.588 181.77 215.876 181.593 213.211C181.593 213.211 181.635 213.542 181.709 214.011C181.53 216.798 177.937 222.003 177.937 222.003C175.19 222.003 173.962 220.057 173.431 218.015C174.017 219.896 175.257 221.588 177.819 221.588Z" fill="black"/>
</g>
</svg>
