<svg width="239" height="141" viewBox="0 0 239 141" fill="none" xmlns="http://www.w3.org/2000/svg">
<path d="M234.308 118.265H61.1003C59.9179 118.263 58.7844 117.793 57.9483 116.957C57.1122 116.121 56.642 114.987 56.6406 113.805V7.00166C56.6416 6.13544 56.9861 5.30497 57.5986 4.69245C58.2111 4.07993 59.0416 3.73537 59.9078 3.73438H235.444C236.325 3.73538 237.17 4.08588 237.793 4.70899C238.416 5.33211 238.767 6.17694 238.768 7.05814V113.805C238.766 114.987 238.296 116.121 237.46 116.957C236.624 117.793 235.49 118.263 234.308 118.265Z" fill="#F2F2F2"/>
<path d="M227.99 111.946H66.5649C64.1985 111.946 62.2734 110.143 62.2734 107.927V14.9218C62.2734 13.2784 63.7 11.9414 65.4535 11.9414H229.049C230.831 11.9414 232.281 13.3005 232.281 14.9709V107.927C232.281 110.143 230.356 111.946 227.99 111.946Z" fill="white"/>
<path d="M238.706 6.7436H56.5781V4.47312C56.5798 3.28682 57.052 2.14964 57.8912 1.31106C58.7303 0.472481 59.8677 0.000979367 61.054 0H234.23C235.416 0.000973655 236.553 0.472471 237.393 1.31105C238.232 2.14964 238.704 3.28682 238.706 4.47312V6.7436Z" fill="#CCCCCC"/>
<path d="M64.7124 4.53812C65.3518 4.53812 65.8701 4.01979 65.8701 3.38039C65.8701 2.74099 65.3518 2.22266 64.7124 2.22266C64.073 2.22266 63.5547 2.74099 63.5547 3.38039C63.5547 4.01979 64.073 4.53812 64.7124 4.53812Z" fill="white"/>
<path d="M69.1069 4.53812C69.7463 4.53812 70.2647 4.01979 70.2647 3.38039C70.2647 2.74099 69.7463 2.22266 69.1069 2.22266C68.4675 2.22266 67.9492 2.74099 67.9492 3.38039C67.9492 4.01979 68.4675 4.53812 69.1069 4.53812Z" fill="white"/>
<path d="M73.5015 4.53812C74.1409 4.53812 74.6592 4.01979 74.6592 3.38039C74.6592 2.74099 74.1409 2.22266 73.5015 2.22266C72.8621 2.22266 72.3438 2.74099 72.3438 3.38039C72.3438 4.01979 72.8621 4.53812 73.5015 4.53812Z" fill="white"/>
<path d="M92.9584 94.8793H52.7299C51.4759 94.8779 50.2737 94.3791 49.3869 93.4924C48.5002 92.6057 48.0014 91.4034 48 90.1494V42.5381C48.0011 41.6002 48.3741 40.701 49.0372 40.0378C49.7004 39.3746 50.5996 39.0016 51.5374 39.0005H94.0944C95.0473 39.0016 95.9608 39.3806 96.6345 40.0544C97.3083 40.7282 97.6873 41.6417 97.6884 42.5945V90.1494C97.687 91.4034 97.1882 92.6057 96.3014 93.4924C95.4147 94.3791 94.2125 94.8779 92.9584 94.8793Z" fill="white"/>
<path d="M92.3295 94.6481H52.101C50.847 94.6467 49.6448 94.1479 48.758 93.2612C47.8713 92.3745 47.3725 91.1722 47.3711 89.9182V42.3069C47.3721 41.369 47.7452 40.4698 48.4083 39.8066C49.0715 39.1434 49.9707 38.7704 50.9085 38.7693H93.4655C94.4183 38.7704 95.3319 39.1494 96.0056 39.8232C96.6794 40.497 97.0584 41.4105 97.0595 42.3633V89.9182C97.0581 91.1722 96.5593 92.3745 95.6725 93.2612C94.7858 94.1479 93.5835 94.6467 92.3295 94.6481ZM50.9085 39.3099C50.114 39.3108 49.3522 39.6268 48.7904 40.1887C48.2285 40.7505 47.9125 41.5123 47.9117 42.3069V89.9182C47.9129 91.0289 48.3547 92.0938 49.1401 92.8792C49.9255 93.6645 50.9903 94.1063 52.101 94.1076H92.3295C93.4402 94.1063 94.5051 93.6645 95.2905 92.8791C96.0759 92.0937 96.5177 91.0289 96.5189 89.9182V42.3633C96.518 41.5538 96.196 40.7777 95.6236 40.2052C95.0512 39.6328 94.275 39.3108 93.4655 39.3099H50.9085Z" fill="#3F3D56"/>
<path d="M49.0178 76.5969C48.663 76.7758 48.2733 76.8746 47.8762 76.8866C47.479 76.8985 47.0841 76.8233 46.7191 76.666C46.3542 76.5088 46.0282 76.2735 45.7641 75.9767C45.4999 75.6799 45.3041 75.3287 45.1903 74.948L35.541 74.5267L38.4843 70.4612L47.1962 71.4846C47.8484 71.3359 48.5326 71.4316 49.1189 71.7536C49.7053 72.0756 50.1532 72.6015 50.3778 73.2316C50.6023 73.8618 50.5879 74.5524 50.3372 75.1727C50.0866 75.7929 49.6172 76.2997 49.0178 76.5969Z" fill="#FFB8B8"/>
<path d="M22.2279 72.7407L16.9215 62.521C16.1904 61.1167 15.8677 59.5355 15.9902 57.957C16.1127 56.3785 16.6755 54.866 17.6145 53.5913C17.8036 53.3389 18.0042 53.0935 18.2108 52.8619C19.0536 51.9152 20.1041 51.1765 21.2799 50.7033C22.4558 50.2302 23.7252 50.0355 24.9888 50.1345C26.295 50.2232 27.563 50.613 28.6936 51.2732C29.8242 51.9335 30.7867 52.8463 31.5058 53.9403L34.0541 57.7924C34.315 58.0254 37.8226 61.2622 36.5178 65.474L36.2935 69.5128C36.2778 69.7752 36.178 70.0257 36.0088 70.2269C35.8396 70.4281 35.6101 70.5695 35.3542 70.6299L23.5826 73.3648C23.3195 73.4262 23.0435 73.3982 22.7982 73.2852C22.5528 73.1722 22.3521 72.9806 22.2279 72.7407L22.2279 72.7407Z" fill="#246EB2"/>
<path d="M18.5062 92.1411C18.2291 91.8563 18.0178 91.5143 17.8872 91.139C17.7566 90.7637 17.7098 90.3644 17.7502 89.9691C17.7907 89.5739 17.9173 89.1922 18.1211 88.8512C18.325 88.5101 18.6011 88.2179 18.9301 87.9951L16.4355 78.6643L21.1971 80.2515L22.836 88.8688C23.1736 89.4463 23.2877 90.1276 23.1565 90.7836C23.0254 91.4396 22.6582 92.0247 22.1245 92.4281C21.5908 92.8314 20.9277 93.025 20.2608 92.9721C19.5939 92.9192 18.9696 92.6235 18.5062 92.1411H18.5062Z" fill="#FFB8B8"/>
<path d="M17.3362 87.7238C17.1613 87.6391 17.0095 87.5133 16.8937 87.3573C16.7779 87.2012 16.7015 87.0195 16.671 86.8276L15.0284 70.8917C14.8073 69.5978 14.7746 68.2787 14.9314 66.9754L16.9004 55.0509C16.9825 54.3549 17.3299 53.7174 17.8704 53.2712C18.4108 52.8251 19.1025 52.6046 19.8015 52.6557C20.1691 52.6819 20.5276 52.7824 20.8553 52.9511C21.183 53.1198 21.4731 53.3531 21.708 53.6371C21.943 53.921 22.118 54.2497 22.2224 54.6031C22.3267 54.9566 22.3584 55.3276 22.3154 55.6936L20.7078 69.3726L22.5488 85.5061C22.5773 85.7484 22.5319 85.9936 22.4186 86.2096C22.3053 86.4257 22.1293 86.6024 21.9138 86.7166L18.4313 87.7112C18.2628 87.7998 18.0756 87.8472 17.8853 87.8494C17.6949 87.8516 17.5067 87.8086 17.3362 87.7238L17.3362 87.7238Z" fill="#246EB2"/>
<path d="M43.7194 136.316L46.9749 135.699L46.1427 122.848L41.3379 123.759L43.7194 136.316Z" fill="#FFB8B8"/>
<path d="M42.6875 135.41L49.0989 134.194L49.0991 134.194C49.6357 134.092 50.1871 134.097 50.7217 134.208C51.2564 134.32 51.7639 134.535 52.2152 134.843C52.6666 135.15 53.053 135.544 53.3523 136C53.6516 136.457 53.858 136.968 53.9598 137.505L53.9849 137.638L43.4876 139.629L42.6875 135.41Z" fill="#2F2E41"/>
<path d="M14.9087 136.418L18.2224 136.417L19.7987 123.636L14.9082 123.637L14.9087 136.418Z" fill="#FFB8B8"/>
<path d="M14.0645 135.34L20.5901 135.34H20.5904C21.1365 135.34 21.6773 135.447 22.1818 135.656C22.6864 135.865 23.1449 136.171 23.531 136.558C23.9172 136.944 24.2235 137.402 24.4325 137.907C24.6415 138.411 24.7491 138.952 24.7491 139.498V139.633L14.0647 139.634L14.0645 135.34Z" fill="#2F2E41"/>
<path d="M24.6052 47.269C28.2715 47.269 31.2436 44.2969 31.2436 40.6306C31.2436 36.9643 28.2715 33.9922 24.6052 33.9922C20.9389 33.9922 17.9668 36.9643 17.9668 40.6306C17.9668 44.2969 20.9389 47.269 24.6052 47.269Z" fill="#FFB8B8"/>
<path d="M14.3633 131.284C14.2492 131.161 14.1617 131.016 14.1061 130.858C14.0505 130.7 14.0282 130.532 14.0403 130.364L18.5588 89.3487C18.5199 88.9646 17.9063 82.0004 22.8858 73.0895L22.9133 73.0402L36.2566 69.3401L37.732 75.5637L47.6197 129.677C47.6551 129.99 47.5676 130.304 47.3757 130.553C47.1837 130.803 46.9024 130.968 46.5911 131.013L43.1495 131.53C42.8588 131.573 42.5622 131.51 42.3144 131.352C42.0667 131.194 41.8846 130.951 41.8019 130.669L30.1495 94.1729C30.1251 94.0888 30.0742 94.0149 30.0043 93.9622C29.9345 93.9095 29.8495 93.8808 29.762 93.8804C29.6745 93.88 29.5892 93.9079 29.5188 93.9599C29.4485 94.012 29.3969 94.0854 29.3717 94.1692L19.8123 130.795C19.7379 131.047 19.584 131.269 19.3736 131.427C19.1632 131.585 18.9074 131.671 18.6443 131.672H15.2531C15.0862 131.671 14.9211 131.637 14.7681 131.57C14.615 131.504 14.4773 131.406 14.3633 131.284Z" fill="#2F2E41"/>
<path d="M42.5641 75.8538L28.1871 73.3886C27.2525 73.2318 26.3871 72.7963 25.7041 72.1394C25.0211 71.4825 24.5524 70.6346 24.3593 69.7068L21.3573 55.5282C21.2408 54.9779 21.2457 54.4088 21.3718 53.8605C21.4978 53.3123 21.7419 52.7982 22.087 52.354C22.4322 51.9098 22.8701 51.5462 23.3702 51.2887C23.8703 51.0311 24.4205 50.8857 24.9826 50.8627C25.9545 50.8274 26.9043 51.1576 27.6446 51.7883C28.385 52.4189 28.862 53.3042 28.9817 54.2693L30.4883 66.9073L43.1713 70.2026C43.4111 70.2852 43.6192 70.4408 43.7662 70.6475C43.9133 70.8542 43.992 71.1018 43.9913 71.3554L43.9859 74.6581C43.9857 74.835 43.9468 75.0097 43.872 75.1701C43.7971 75.3304 43.6882 75.4724 43.5528 75.5863C43.4174 75.7002 43.2588 75.7831 43.088 75.8293C42.9173 75.8755 42.7384 75.8838 42.5641 75.8538H42.5641Z" fill="#246EB2"/>
<path d="M30.2525 39.0873C31.3092 38.8688 32.3367 38.1657 32.6189 37.1243C32.8655 36.2145 32.5007 35.2336 31.9296 34.4836C31.185 33.5556 30.1516 32.9032 28.9936 32.6301C27.8355 32.357 26.6195 32.4788 25.5386 32.9762C25.6406 32.4397 25.2371 31.9105 24.7406 31.6832C24.2266 31.4934 23.677 31.4196 23.1311 31.4671C21.404 31.4912 19.5653 31.5489 18.1372 32.5206C16.9985 33.2954 16.2755 34.5694 15.901 35.8948C15.5264 37.2202 15.4652 38.611 15.4063 39.9871C15.3031 42.3987 16.248 47.4748 16.248 47.4748C16.248 47.4748 19.5896 48.3934 21.0535 48.819C22.6266 49.2764 25.2809 49.7338 26.854 50.1912C27.2566 50.3082 27.7958 50.374 27.9981 50.0067C28.1597 49.7135 27.9729 49.3564 27.785 49.0793C26.9578 47.8593 26.0102 46.7086 25.3739 45.3789C24.7376 44.0493 24.4398 42.4695 24.9862 41.1004C25.5325 39.7314 29.1958 39.3057 30.2525 39.0873Z" fill="#2F2E41"/>
<path d="M134.483 85.8035H220.93C222.076 85.8035 223.176 85.3479 223.987 84.5369C224.798 83.7259 225.254 82.6259 225.254 81.479V42.4102C225.254 41.2633 224.798 40.1633 223.987 39.3523C223.176 38.5413 222.076 38.0857 220.93 38.0857H134.483C133.336 38.0857 132.236 38.5413 131.425 39.3523C130.614 40.1633 130.158 41.2633 130.158 42.4102V81.479C130.158 82.6259 130.614 83.7259 131.425 84.5369C132.236 85.3479 133.336 85.8035 134.483 85.8035Z" fill="#F2F2F2"/>
<path d="M211.493 64.1097H142.57C141.997 64.1097 141.447 63.8819 141.042 63.4764C140.636 63.0709 140.408 62.5209 140.408 61.9474C140.408 61.3739 140.636 60.824 141.042 60.4185C141.447 60.013 141.997 59.7852 142.57 59.7852H211.493C212.066 59.7852 212.616 60.013 213.022 60.4185C213.427 60.824 213.655 61.3739 213.655 61.9474C213.655 62.5209 213.427 63.0709 213.022 63.4764C212.616 63.8819 212.066 64.1097 211.493 64.1097Z" fill="white"/>
<path d="M211.493 73.2972H142.57C141.997 73.2972 141.447 73.0694 141.042 72.6639C140.636 72.2584 140.408 71.7084 140.408 71.1349C140.408 70.5615 140.636 70.0115 141.042 69.606C141.447 69.2005 141.997 68.9727 142.57 68.9727H211.493C212.066 68.9727 212.616 69.2005 213.022 69.606C213.427 70.0115 213.655 70.5615 213.655 71.1349C213.655 71.7084 213.427 72.2584 213.022 72.6639C212.616 73.0694 212.066 73.2972 211.493 73.2972Z" fill="white"/>
<path d="M199.33 54.9144H142.57C141.997 54.9144 141.447 54.6866 141.042 54.2811C140.636 53.8755 140.408 53.3256 140.408 52.7521C140.408 52.1786 140.636 51.6287 141.042 51.2232C141.447 50.8177 141.997 50.5898 142.57 50.5898H199.33C199.903 50.5898 200.453 50.8177 200.859 51.2232C201.264 51.6287 201.492 52.1786 201.492 52.7521C201.492 53.3256 201.264 53.8755 200.859 54.2811C200.453 54.6866 199.903 54.9144 199.33 54.9144Z" fill="white"/>
<path d="M64.8679 140.002H0.270283C0.198599 140.002 0.129852 139.973 0.0791638 139.922C0.0284759 139.872 0 139.803 0 139.731C0 139.66 0.0284759 139.591 0.0791638 139.54C0.129852 139.489 0.198599 139.461 0.270283 139.461H64.8679C64.9395 139.461 65.0083 139.489 65.059 139.54C65.1096 139.591 65.1381 139.66 65.1381 139.731C65.1381 139.803 65.1096 139.872 65.059 139.922C65.0083 139.973 64.9395 140.002 64.8679 140.002Z" fill="#BCD3F0"/>
<path d="M73.155 67.3745H70.8438C70.6887 67.3745 70.5625 67.5007 70.5625 67.6558V69.9774C70.5625 70.1325 70.6887 70.2586 70.8438 70.2586H73.155C73.3101 70.2586 73.4362 70.1325 73.4362 69.9774V67.6558C73.4362 67.5007 73.3101 67.3745 73.155 67.3745Z" fill="#246EB2"/>
<path d="M81.6804 57.8848H76.9136V55.8902C76.9136 54.8479 76.0575 54 75.0052 54H68.9948C67.9425 54 67.0864 54.8479 67.0864 55.8902V57.8849H62.3196C59.9378 57.8848 58 59.8226 58 62.2045V64.7935C58.1603 65.5742 58.7241 66.2169 59.5042 66.4665L68.9175 68.767V67.6577C68.9175 66.5952 69.7819 65.7308 70.8444 65.7308H73.1556C74.2181 65.7308 75.0825 66.5952 75.0825 67.6577V68.767L84.4958 66.4665C85.2759 66.2169 85.8397 65.5742 86 64.7935V62.2045C86 59.8226 84.0622 57.8848 81.6804 57.8848ZM75.2679 57.8849H68.7321V55.8902C68.7321 55.7508 68.845 55.6456 68.9948 55.6456H75.0052C75.155 55.6456 75.2679 55.7508 75.2679 55.8902V57.8849Z" fill="#246EB2"/>
<path d="M84.9599 68.0428C84.9441 68.0477 84.9283 68.052 84.9123 68.0559L75.0169 70.4743C74.7968 71.2961 74.0459 71.9032 73.1556 71.9032H70.8444C69.9541 71.9032 69.2032 71.2961 68.9831 70.4743L59.0877 68.0559C59.0717 68.052 59.0559 68.0476 59.0401 68.0428C58.6623 67.926 58.3136 67.756 58 67.5432V74.5374C58 76.4829 59.5828 78.0658 61.5284 78.0658H82.4716C84.4171 78.0658 86 76.483 86 74.5374V67.5432C85.6864 67.756 85.3377 67.926 84.9599 68.0428Z" fill="#246EB2"/>
</svg>
