<svg width="468" height="564" viewBox="0 0 468 564" fill="none" xmlns="http://www.w3.org/2000/svg">
<rect width="468" height="564" rx="4" fill="#242426"/>
<path d="M33.55 32.466C34.468 31.836 34.918 30.954 34.918 29.838C34.918 28.866 34.576 28.056 33.892 27.39C33.208 26.724 32.38 26.4 31.39 26.4H26.35V39H31.786C32.812 39 33.676 38.658 34.378 37.974C35.08 37.29 35.44 36.444 35.44 35.436C35.44 34.086 34.702 33.024 33.55 32.466ZM31.39 27.966C31.912 27.966 32.344 28.164 32.704 28.542C33.082 28.92 33.262 29.37 33.262 29.892C33.262 30.972 32.452 31.818 31.39 31.818H28.024V27.966H31.39ZM28.024 37.434V33.348H31.786C32.344 33.348 32.812 33.546 33.19 33.942C33.586 34.338 33.784 34.824 33.784 35.382C33.784 36.534 32.92 37.434 31.786 37.434H28.024ZM38.0542 28.362C38.6302 28.362 39.0982 27.894 39.0982 27.318C39.0982 26.742 38.6302 26.256 38.0542 26.256C37.4602 26.256 36.9922 26.742 36.9922 27.318C36.9922 27.894 37.4602 28.362 38.0542 28.362ZM38.8282 39V30H37.2622V39H38.8282ZM47.6433 31.044V30H41.0733V31.494H45.4833L40.8933 37.956V39H47.8233V37.506H43.0353L47.6433 31.044ZM54.172 29.766C52.858 29.766 51.886 30.27 51.256 31.296V30H49.69V39H51.256V34.23C51.256 32.214 52.3 31.26 53.866 31.26C55.252 31.26 56.098 32.106 56.098 33.564V39H57.664V33.474C57.664 31.188 56.278 29.766 54.172 29.766ZM68.4901 35.22C68.5261 34.986 68.5441 34.752 68.5441 34.518C68.5441 33.204 68.1301 32.088 67.2841 31.17C66.4561 30.234 65.3761 29.766 64.0621 29.766C62.6761 29.766 61.5421 30.216 60.6601 31.116C59.7781 32.016 59.3461 33.15 59.3461 34.5C59.3461 35.868 59.7961 37.002 60.6781 37.902C61.5781 38.784 62.7481 39.234 64.1701 39.234C65.9341 39.234 67.2481 38.55 68.1301 37.2L66.7981 36.444C66.2581 37.326 65.3941 37.758 64.2061 37.758C62.4961 37.758 61.2541 36.822 60.9481 35.22H68.4901ZM64.0621 31.242C65.5021 31.242 66.6901 32.142 66.9601 33.852H60.9481C61.2181 32.268 62.3881 31.242 64.0621 31.242ZM71.3427 32.43C71.3427 31.656 72.0627 31.224 72.9447 31.224C73.8987 31.224 74.5467 31.602 74.8707 32.376L76.1847 31.638C75.6087 30.468 74.4027 29.766 72.9447 29.766C72.0267 29.766 71.2707 30.018 70.6587 30.522C70.0647 31.026 69.7587 31.674 69.7587 32.448C69.7587 34.356 71.5947 34.824 73.0167 35.202C74.0067 35.436 74.7987 35.832 74.7987 36.534C74.7987 37.38 74.0427 37.758 73.0167 37.758C71.9187 37.758 71.0727 37.218 70.7847 36.354L69.4347 37.128C69.9567 38.406 71.2707 39.234 73.0167 39.234C74.0067 39.234 74.7987 38.982 75.4287 38.496C76.0587 38.01 76.3827 37.344 76.3827 36.534C76.4007 34.608 74.5287 34.086 73.1247 33.78C72.1347 33.51 71.3427 33.132 71.3427 32.43ZM87.7048 29.766C86.2108 29.766 85.0768 30.36 84.3028 31.548V30H82.7368V42.6H84.3028V37.452C85.0768 38.64 86.2108 39.234 87.7048 39.234C88.9648 39.234 90.0448 38.784 90.9268 37.866C91.8088 36.948 92.2588 35.814 92.2588 34.5C92.2588 33.186 91.8088 32.07 90.9268 31.152C90.0448 30.234 88.9648 29.766 87.7048 29.766ZM87.5068 37.722C86.5888 37.722 85.8328 37.416 85.2208 36.804C84.6088 36.174 84.3028 35.418 84.3028 34.5C84.3028 33.582 84.6088 32.826 85.2208 32.214C85.8328 31.584 86.5888 31.278 87.5068 31.278C88.4068 31.278 89.1628 31.584 89.7748 32.214C90.3868 32.826 90.6928 33.582 90.6928 34.5C90.6928 35.418 90.3868 36.174 89.7748 36.804C89.1628 37.416 88.4068 37.722 87.5068 37.722ZM95.6935 30H94.1275V39H95.6935V34.23C95.6935 33.24 95.9635 32.538 96.5215 32.088C97.0795 31.638 97.7275 31.44 98.5015 31.476V29.838C97.1515 29.838 96.2155 30.396 95.6935 31.512V30ZM107.138 37.866C108.056 36.948 108.524 35.832 108.524 34.5C108.524 33.168 108.056 32.052 107.138 31.134C106.22 30.216 105.086 29.766 103.772 29.766C102.458 29.766 101.324 30.216 100.406 31.134C99.4875 32.052 99.0375 33.168 99.0375 34.5C99.0375 35.832 99.4875 36.948 100.406 37.866C101.324 38.784 102.458 39.234 103.772 39.234C105.086 39.234 106.22 38.784 107.138 37.866ZM103.772 37.704C102.89 37.704 102.134 37.398 101.522 36.786C100.91 36.174 100.604 35.418 100.604 34.5C100.604 33.582 100.91 32.826 101.522 32.214C102.134 31.602 102.89 31.296 103.772 31.296C104.672 31.296 105.428 31.602 106.04 32.214C106.652 32.826 106.958 33.582 106.958 34.5C106.958 35.418 106.652 36.174 106.04 36.786C105.428 37.398 104.672 37.704 103.772 37.704ZM112.286 30V29.73C112.286 28.218 113.024 27.678 114.662 27.678C115.166 27.678 115.778 27.732 116.516 27.822V26.4C115.778 26.238 115.148 26.166 114.662 26.166C112.034 26.166 110.72 27.354 110.72 29.73V30H109.28V31.512H110.72V39H112.286V31.512H115.616V39H117.182V30H112.286ZM121.147 39V25.86H119.581V39H121.147ZM127.586 33.78C127.55 34.014 127.532 34.248 127.532 34.482C127.532 35.796 127.946 36.912 128.792 37.83C129.62 38.766 130.7 39.234 132.014 39.234C133.4 39.234 134.534 38.784 135.416 37.884C136.298 36.984 136.73 35.85 136.73 34.5C136.73 33.132 136.28 31.998 135.398 31.098C134.498 30.216 133.328 29.766 131.906 29.766C130.502 29.766 129.404 30.198 128.558 31.044L129.62 32.106C130.16 31.53 130.898 31.242 131.87 31.242C133.58 31.242 134.822 32.178 135.128 33.78H127.586ZM132.014 37.758C130.574 37.758 129.386 36.858 129.116 35.148H135.128C134.858 36.732 133.688 37.758 132.014 37.758ZM140.096 39V25.86H138.53V39H140.096ZM149.937 31.548C149.163 30.36 148.029 29.766 146.535 29.766C145.275 29.766 144.195 30.234 143.313 31.152C142.431 32.07 141.981 33.186 141.981 34.5C141.981 35.814 142.431 36.948 143.313 37.866C144.195 38.784 145.275 39.234 146.535 39.234C148.029 39.234 149.163 38.64 149.937 37.452V39H151.503V26.4H149.937V31.548ZM146.733 37.722C145.833 37.722 145.077 37.416 144.465 36.804C143.853 36.174 143.547 35.418 143.547 34.5C143.547 33.582 143.853 32.826 144.465 32.214C145.077 31.584 145.833 31.278 146.733 31.278C147.651 31.278 148.407 31.584 149.019 32.214C149.631 32.826 149.937 33.582 149.937 34.5C149.937 35.418 149.631 36.174 149.019 36.804C148.407 37.416 147.651 37.722 146.733 37.722ZM153.426 33.78C153.39 34.014 153.372 34.248 153.372 34.482C153.372 35.796 153.786 36.912 154.632 37.83C155.46 38.766 156.54 39.234 157.854 39.234C159.24 39.234 160.374 38.784 161.256 37.884C162.138 36.984 162.57 35.85 162.57 34.5C162.57 33.132 162.12 31.998 161.238 31.098C160.338 30.216 159.168 29.766 157.746 29.766C156.342 29.766 155.244 30.198 154.398 31.044L155.46 32.106C156 31.53 156.738 31.242 157.71 31.242C159.42 31.242 160.662 32.178 160.968 33.78H153.426ZM157.854 37.758C156.414 37.758 155.226 36.858 154.956 35.148H160.968C160.698 36.732 159.528 37.758 157.854 37.758ZM177.51 35.22C177.546 34.986 177.564 34.752 177.564 34.518C177.564 33.204 177.15 32.088 176.304 31.17C175.476 30.234 174.396 29.766 173.082 29.766C171.696 29.766 170.562 30.216 169.68 31.116C168.798 32.016 168.366 33.15 168.366 34.5C168.366 35.868 168.816 37.002 169.698 37.902C170.598 38.784 171.768 39.234 173.19 39.234C174.954 39.234 176.268 38.55 177.15 37.2L175.818 36.444C175.278 37.326 174.414 37.758 173.226 37.758C171.516 37.758 170.274 36.822 169.968 35.22H177.51ZM173.082 31.242C174.522 31.242 175.71 32.142 175.98 33.852H169.968C170.238 32.268 171.408 31.242 173.082 31.242ZM183.996 30H181.602V27.48L180.036 27.948V30H178.254V31.512H180.036V36.39C180.036 38.622 181.26 39.36 183.996 39V37.596C182.394 37.668 181.602 37.776 181.602 36.39V31.512H183.996V30ZM192.845 31.548C192.071 30.36 190.937 29.766 189.443 29.766C188.183 29.766 187.103 30.234 186.221 31.152C185.339 32.07 184.889 33.186 184.889 34.5C184.889 35.814 185.339 36.948 186.221 37.866C187.103 38.784 188.183 39.234 189.443 39.234C190.937 39.234 192.071 38.64 192.845 37.452V39H194.411V26.4H192.845V31.548ZM189.641 37.722C188.741 37.722 187.985 37.416 187.373 36.804C186.761 36.174 186.455 35.418 186.455 34.5C186.455 33.582 186.761 32.826 187.373 32.214C187.985 31.584 188.741 31.278 189.641 31.278C190.559 31.278 191.315 31.584 191.927 32.214C192.539 32.826 192.845 33.582 192.845 34.5C192.845 35.418 192.539 36.174 191.927 36.804C191.315 37.416 190.559 37.722 189.641 37.722ZM197.576 28.362C198.152 28.362 198.62 27.894 198.62 27.318C198.62 26.742 198.152 26.256 197.576 26.256C196.982 26.256 196.514 26.742 196.514 27.318C196.514 27.894 196.982 28.362 197.576 28.362ZM198.35 39V30H196.784V39H198.35ZM203.907 34.356L208.209 30H206.193L202.305 33.978V26.4H200.739V39H202.305V34.734L206.409 39H208.353L203.907 34.356ZM216.435 31.548C215.661 30.36 214.527 29.766 213.033 29.766C211.773 29.766 210.693 30.234 209.811 31.152C208.929 32.07 208.479 33.186 208.479 34.5C208.479 35.814 208.929 36.948 209.811 37.866C210.693 38.784 211.773 39.234 213.033 39.234C214.527 39.234 215.661 38.64 216.435 37.452V39H218.001V26.4H216.435V31.548ZM213.231 37.722C212.331 37.722 211.575 37.416 210.963 36.804C210.351 36.174 210.045 35.418 210.045 34.5C210.045 33.582 210.351 32.826 210.963 32.214C211.575 31.584 212.331 31.278 213.231 31.278C214.149 31.278 214.905 31.584 215.517 32.214C216.129 32.826 216.435 33.582 216.435 34.5C216.435 35.418 216.129 36.174 215.517 36.804C214.905 37.416 214.149 37.722 213.231 37.722ZM219.924 33.78C219.888 34.014 219.87 34.248 219.87 34.482C219.87 35.796 220.284 36.912 221.13 37.83C221.958 38.766 223.038 39.234 224.352 39.234C225.738 39.234 226.872 38.784 227.754 37.884C228.636 36.984 229.068 35.85 229.068 34.5C229.068 33.132 228.618 31.998 227.736 31.098C226.836 30.216 225.666 29.766 224.244 29.766C222.84 29.766 221.742 30.198 220.896 31.044L221.958 32.106C222.498 31.53 223.236 31.242 224.208 31.242C225.918 31.242 227.16 32.178 227.466 33.78H219.924ZM224.352 37.758C222.912 37.758 221.724 36.858 221.454 35.148H227.466C227.196 36.732 226.026 37.758 224.352 37.758ZM235.35 29.766C234.036 29.766 233.064 30.27 232.434 31.296V30H230.868V39H232.434V34.23C232.434 32.214 233.478 31.26 235.044 31.26C236.43 31.26 237.276 32.106 237.276 33.564V39H238.842V33.474C238.842 31.188 237.456 29.766 235.35 29.766ZM246.878 32.43C246.878 31.656 247.598 31.224 248.48 31.224C249.434 31.224 250.082 31.602 250.406 32.376L251.72 31.638C251.144 30.468 249.938 29.766 248.48 29.766C247.562 29.766 246.806 30.018 246.194 30.522C245.6 31.026 245.294 31.674 245.294 32.448C245.294 34.356 247.13 34.824 248.552 35.202C249.542 35.436 250.334 35.832 250.334 36.534C250.334 37.38 249.578 37.758 248.552 37.758C247.454 37.758 246.608 37.218 246.32 36.354L244.97 37.128C245.492 38.406 246.806 39.234 248.552 39.234C249.542 39.234 250.334 38.982 250.964 38.496C251.594 38.01 251.918 37.344 251.918 36.534C251.936 34.608 250.064 34.086 248.66 33.78C247.67 33.51 246.878 33.132 246.878 32.43ZM261.122 37.866C262.04 36.948 262.508 35.832 262.508 34.5C262.508 33.168 262.04 32.052 261.122 31.134C260.204 30.216 259.07 29.766 257.756 29.766C256.442 29.766 255.308 30.216 254.39 31.134C253.472 32.052 253.022 33.168 253.022 34.5C253.022 35.832 253.472 36.948 254.39 37.866C255.308 38.784 256.442 39.234 257.756 39.234C259.07 39.234 260.204 38.784 261.122 37.866ZM257.756 37.704C256.874 37.704 256.118 37.398 255.506 36.786C254.894 36.174 254.588 35.418 254.588 34.5C254.588 33.582 254.894 32.826 255.506 32.214C256.118 31.602 256.874 31.296 257.756 31.296C258.656 31.296 259.412 31.602 260.024 32.214C260.636 32.826 260.942 33.582 260.942 34.5C260.942 35.418 260.636 36.174 260.024 36.786C259.412 37.398 258.656 37.704 257.756 37.704ZM268.836 29.766C267.522 29.766 266.55 30.27 265.92 31.296V30H264.354V39H265.92V34.23C265.92 32.214 266.964 31.26 268.53 31.26C269.916 31.26 270.762 32.106 270.762 33.564V39H272.328V33.474C272.328 31.188 270.942 29.766 268.836 29.766ZM276.08 30H274.514V39H276.08V34.23C276.08 33.24 276.35 32.538 276.908 32.088C277.466 31.638 278.114 31.44 278.888 31.476V29.838C277.538 29.838 276.602 30.396 276.08 31.512V30ZM287.38 31.548C286.606 30.36 285.472 29.766 283.978 29.766C282.718 29.766 281.638 30.234 280.756 31.152C279.874 32.07 279.424 33.186 279.424 34.5C279.424 35.814 279.874 36.948 280.756 37.866C281.638 38.784 282.718 39.234 283.978 39.234C285.472 39.234 286.606 38.64 287.38 37.452V39H288.946V30H287.38V31.548ZM284.176 37.722C283.276 37.722 282.52 37.416 281.908 36.804C281.296 36.174 280.99 35.418 280.99 34.5C280.99 33.582 281.296 32.826 281.908 32.214C282.52 31.584 283.276 31.278 284.176 31.278C285.094 31.278 285.85 31.584 286.462 32.214C287.074 32.826 287.38 33.582 287.38 34.5C287.38 35.418 287.074 36.174 286.462 36.804C285.85 37.416 285.094 37.722 284.176 37.722Z" fill="white"/>
<path d="M314 35L443 35" stroke="white"/>
<path d="M25 178H443" stroke="#1C1C1E"/>
<rect x="35" y="204" width="398" height="43" rx="4" fill="#1C1C1E"/>
<path d="M65 219.8L61.448 225.72L57.88 219.8H56.2V231H57.688V222.264L61.352 228.344H61.544L65.208 222.248V231H66.68V219.8H65ZM75.555 224.376C74.867 223.32 73.859 222.792 72.531 222.792C71.411 222.792 70.451 223.208 69.667 224.024C68.883 224.84 68.483 225.832 68.483 227C68.483 228.168 68.883 229.176 69.667 229.992C70.451 230.808 71.411 231.208 72.531 231.208C73.859 231.208 74.867 230.68 75.555 229.624V231H76.947V223H75.555V224.376ZM72.707 229.864C71.907 229.864 71.235 229.592 70.691 229.048C70.147 228.488 69.875 227.816 69.875 227C69.875 226.184 70.147 225.512 70.691 224.968C71.235 224.408 71.907 224.136 72.707 224.136C73.523 224.136 74.195 224.408 74.739 224.968C75.283 225.512 75.555 226.184 75.555 227C75.555 227.816 75.283 228.488 74.739 229.048C74.195 229.592 73.523 229.864 72.707 229.864ZM82.864 222.04C84.352 222.04 85.248 221.24 85.248 219.88H83.952C83.952 220.568 83.584 220.92 82.864 220.92C82.144 220.92 81.776 220.568 81.776 219.88H80.48C80.48 221.24 81.392 222.04 82.864 222.04ZM85.696 224.376C85.008 223.32 84 222.792 82.688 222.792C81.552 222.792 80.576 223.192 79.792 224.008C79.008 224.808 78.608 225.784 78.608 226.952C78.608 228.12 79.008 229.096 79.792 229.912C80.576 230.728 81.552 231.128 82.688 231.128C83.984 231.128 84.992 230.6 85.696 229.528V230.664C85.696 232.184 84.688 233.112 83.024 233.112C81.728 233.112 80.848 232.664 80.416 231.768L79.2 232.456C79.856 233.72 81.2 234.408 82.992 234.408C84.112 234.408 85.072 234.072 85.872 233.416C86.672 232.76 87.072 231.848 87.072 230.664V223H85.696V224.376ZM85.696 226.952C85.696 227.768 85.424 228.44 84.88 228.984C84.336 229.528 83.664 229.8 82.848 229.8C82.032 229.8 81.36 229.528 80.816 228.984C80.272 228.44 80 227.768 80 226.952C80 226.152 80.272 225.48 80.816 224.936C81.36 224.392 82.032 224.12 82.848 224.12C83.664 224.12 84.336 224.392 84.88 224.936C85.424 225.48 85.696 226.152 85.696 226.952ZM95.805 224.376C95.117 223.32 94.109 222.792 92.781 222.792C91.661 222.792 90.701 223.208 89.917 224.024C89.133 224.84 88.733 225.832 88.733 227C88.733 228.168 89.133 229.176 89.917 229.992C90.701 230.808 91.661 231.208 92.781 231.208C94.109 231.208 95.117 230.68 95.805 229.624V231H97.197V223H95.805V224.376ZM92.957 229.864C92.157 229.864 91.485 229.592 90.941 229.048C90.397 228.488 90.125 227.816 90.125 227C90.125 226.184 90.397 225.512 90.941 224.968C91.485 224.408 92.157 224.136 92.957 224.136C93.773 224.136 94.445 224.408 94.989 224.968C95.533 225.512 95.805 226.184 95.805 227C95.805 227.816 95.533 228.488 94.989 229.048C94.445 229.592 93.773 229.864 92.957 229.864ZM105.018 223.928V223H99.178V224.328H103.098L99.018 230.072V231H105.178V229.672H100.922L105.018 223.928ZM112.961 224.376C112.273 223.32 111.265 222.792 109.937 222.792C108.817 222.792 107.857 223.208 107.073 224.024C106.289 224.84 105.889 225.832 105.889 227C105.889 228.168 106.289 229.176 107.073 229.992C107.857 230.808 108.817 231.208 109.937 231.208C111.265 231.208 112.273 230.68 112.961 229.624V231H114.353V223H112.961V224.376ZM110.113 229.864C109.313 229.864 108.641 229.592 108.097 229.048C107.553 228.488 107.281 227.816 107.281 227C107.281 226.184 107.553 225.512 108.097 224.968C108.641 224.408 109.313 224.136 110.113 224.136C110.929 224.136 111.601 224.408 112.145 224.968C112.689 225.512 112.961 226.184 112.961 227C112.961 227.816 112.689 228.488 112.145 229.048C111.601 229.592 110.929 229.864 110.113 229.864ZM120.446 222.792C119.278 222.792 118.414 223.24 117.854 224.152V223H116.462V231H117.854V226.76C117.854 224.968 118.782 224.12 120.174 224.12C121.406 224.12 122.158 224.872 122.158 226.168V231H123.55V226.088C123.55 224.056 122.318 222.792 120.446 222.792ZM126.886 231V223H125.493V231H126.886ZM132.993 222.792C131.825 222.792 130.961 223.24 130.401 224.152V223H129.009V231H130.401V226.76C130.401 224.968 131.329 224.12 132.721 224.12C133.953 224.12 134.705 224.872 134.705 226.168V231H136.097V226.088C136.097 224.056 134.865 222.792 132.993 222.792ZM148.664 224.376C147.976 223.32 146.968 222.792 145.64 222.792C144.52 222.792 143.56 223.208 142.776 224.024C141.992 224.84 141.592 225.832 141.592 227C141.592 228.168 141.992 229.176 142.776 229.992C143.56 230.808 144.52 231.208 145.64 231.208C146.968 231.208 147.976 230.68 148.664 229.624V231H150.056V219.8H148.664V224.376ZM145.816 229.864C145.016 229.864 144.344 229.592 143.8 229.048C143.256 228.488 142.984 227.816 142.984 227C142.984 226.184 143.256 225.512 143.8 224.968C144.344 224.408 145.016 224.136 145.816 224.136C146.632 224.136 147.304 224.408 147.848 224.968C148.392 225.512 148.664 226.184 148.664 227C148.664 227.816 148.392 228.488 147.848 229.048C147.304 229.592 146.632 229.864 145.816 229.864ZM152.869 221.544C153.381 221.544 153.797 221.128 153.797 220.616C153.797 220.104 153.381 219.672 152.869 219.672C152.341 219.672 151.925 220.104 151.925 220.616C151.925 221.128 152.341 221.544 152.869 221.544ZM153.557 231V223H152.165V231H153.557ZM162.321 224.376C161.633 223.32 160.625 222.792 159.313 222.792C158.177 222.792 157.201 223.192 156.417 224.008C155.633 224.808 155.233 225.784 155.233 226.952C155.233 228.12 155.633 229.096 156.417 229.912C157.201 230.728 158.177 231.128 159.313 231.128C160.609 231.128 161.617 230.6 162.321 229.528V230.664C162.321 232.184 161.313 233.112 159.649 233.112C158.353 233.112 157.473 232.664 157.041 231.768L155.825 232.456C156.481 233.72 157.825 234.408 159.617 234.408C160.737 234.408 161.697 234.072 162.497 233.416C163.297 232.76 163.697 231.848 163.697 230.664V223H162.321V224.376ZM162.321 226.952C162.321 227.768 162.049 228.44 161.505 228.984C160.961 229.528 160.289 229.8 159.473 229.8C158.657 229.8 157.985 229.528 157.441 228.984C156.897 228.44 156.625 227.768 156.625 226.952C156.625 226.152 156.897 225.48 157.441 224.936C157.985 224.392 158.657 224.12 159.473 224.12C160.289 224.12 160.961 224.392 161.505 224.936C162.049 225.48 162.321 226.152 162.321 226.952ZM165.406 226.36C165.374 226.568 165.358 226.776 165.358 226.984C165.358 228.152 165.726 229.144 166.478 229.96C167.214 230.792 168.174 231.208 169.342 231.208C170.574 231.208 171.582 230.808 172.366 230.008C173.15 229.208 173.534 228.2 173.534 227C173.534 225.784 173.134 224.776 172.35 223.976C171.55 223.192 170.51 222.792 169.246 222.792C167.998 222.792 167.022 223.176 166.27 223.928L167.214 224.872C167.694 224.36 168.35 224.104 169.214 224.104C170.734 224.104 171.838 224.936 172.11 226.36H165.406ZM169.342 229.896C168.062 229.896 167.006 229.096 166.766 227.576H172.11C171.87 228.984 170.83 229.896 169.342 229.896ZM176.526 223H175.134V231H176.526V226.76C176.526 225.88 176.766 225.256 177.262 224.856C177.758 224.456 178.334 224.28 179.022 224.312V222.856C177.822 222.856 176.99 223.352 176.526 224.344V223ZM192.064 227.64C192.096 227.432 192.112 227.224 192.112 227.016C192.112 225.848 191.744 224.856 190.992 224.04C190.256 223.208 189.296 222.792 188.128 222.792C186.896 222.792 185.888 223.192 185.104 223.992C184.32 224.792 183.936 225.8 183.936 227C183.936 228.216 184.336 229.224 185.12 230.024C185.92 230.808 186.96 231.208 188.224 231.208C189.792 231.208 190.96 230.6 191.744 229.4L190.56 228.728C190.08 229.512 189.312 229.896 188.256 229.896C186.736 229.896 185.632 229.064 185.36 227.64H192.064ZM188.128 224.104C189.408 224.104 190.464 224.904 190.704 226.424H185.36C185.6 225.016 186.64 224.104 188.128 224.104ZM195.104 231V219.32H193.712V231H195.104ZM203.852 224.376C203.164 223.32 202.156 222.792 200.828 222.792C199.708 222.792 198.748 223.208 197.964 224.024C197.18 224.84 196.78 225.832 196.78 227C196.78 228.168 197.18 229.176 197.964 229.992C198.748 230.808 199.708 231.208 200.828 231.208C202.156 231.208 203.164 230.68 203.852 229.624V231H205.244V223H203.852V224.376ZM201.004 229.864C200.204 229.864 199.532 229.592 198.988 229.048C198.444 228.488 198.172 227.816 198.172 227C198.172 226.184 198.444 225.512 198.988 224.968C199.532 224.408 200.204 224.136 201.004 224.136C201.82 224.136 202.492 224.408 203.036 224.968C203.58 225.512 203.852 226.184 203.852 227C203.852 227.816 203.58 228.488 203.036 229.048C202.492 229.592 201.82 229.864 201.004 229.864ZM211.337 222.792C210.169 222.792 209.305 223.24 208.745 224.152V223H207.353V231H208.745V226.76C208.745 224.968 209.673 224.12 211.065 224.12C212.297 224.12 213.049 224.872 213.049 226.168V231H214.441V226.088C214.441 224.056 213.209 222.792 211.337 222.792ZM217.776 231V219.32H216.384V231H217.776ZM226.524 224.376C225.836 223.32 224.828 222.792 223.5 222.792C222.38 222.792 221.42 223.208 220.636 224.024C219.852 224.84 219.452 225.832 219.452 227C219.452 228.168 219.852 229.176 220.636 229.992C221.42 230.808 222.38 231.208 223.5 231.208C224.828 231.208 225.836 230.68 226.524 229.624V231H227.916V223H226.524V224.376ZM223.676 229.864C222.876 229.864 222.204 229.592 221.66 229.048C221.116 228.488 220.844 227.816 220.844 227C220.844 226.184 221.116 225.512 221.66 224.968C222.204 224.408 222.876 224.136 223.676 224.136C224.492 224.136 225.164 224.408 225.708 224.968C226.252 225.512 226.524 226.184 226.524 227C226.524 227.816 226.252 228.488 225.708 229.048C225.164 229.592 224.492 229.864 223.676 229.864ZM231.417 223H230.025V231H231.417V226.76C231.417 225.88 231.657 225.256 232.153 224.856C232.649 224.456 233.225 224.28 233.913 224.312V222.856C232.713 222.856 231.881 223.352 231.417 224.344V223ZM236.667 231V223H235.275V231H236.667Z" fill="white"/>
<rect x="35" y="471" width="148" height="12" rx="4" fill="#ECF2F9"/>
<rect x="35" y="494" width="100" height="12" rx="4" fill="#ECF2F9"/>
<rect x="35" y="517" width="50" height="12" rx="4" fill="#ECF2F9"/>
<rect x="35" y="267" width="189" height="189" rx="4" fill="#ECF2F9"/>
<path d="M82.9219 366.234C84.2179 366.234 85.2619 365.91 86.0719 365.262C86.8819 364.596 87.2779 363.714 87.2779 362.616C87.2779 361.824 87.0979 361.176 86.6479 360.726C86.3419 360.366 86.1799 360.168 85.6759 359.898C85.1899 359.628 85.0459 359.538 84.4159 359.304C84.1099 359.178 83.8939 359.106 83.7499 359.052L83.0119 358.818C82.0399 358.512 81.3559 358.206 80.9599 357.918C80.5639 357.63 80.3659 357.216 80.3659 356.658C80.3659 355.506 81.2839 354.786 82.6519 354.786C84.0199 354.786 84.9739 355.434 85.5139 356.73L86.9179 355.92C86.1799 354.264 84.6499 353.166 82.6519 353.166C81.5539 353.166 80.6179 353.49 79.8439 354.138C79.0699 354.768 78.6919 355.632 78.6919 356.73C78.6919 357.648 79.0699 358.386 79.4839 358.836C79.6819 359.052 79.9879 359.268 80.4019 359.484C80.8159 359.682 81.1759 359.844 81.4459 359.952L82.6519 360.348C83.7139 360.69 84.4879 360.996 84.9379 361.302C85.3879 361.608 85.6219 362.058 85.6219 362.652C85.6219 363.822 84.6859 364.596 82.9579 364.596C81.2119 364.596 80.0779 363.84 79.5919 362.31L78.1519 363.138C78.8179 365.064 80.5639 366.234 82.9219 366.234ZM89.8902 355.362C90.4662 355.362 90.9342 354.894 90.9342 354.318C90.9342 353.742 90.4662 353.256 89.8902 353.256C89.2962 353.256 88.8282 353.742 88.8282 354.318C88.8282 354.894 89.2962 355.362 89.8902 355.362ZM90.6642 366V357H89.0982V366H90.6642ZM99.4792 358.044V357H92.9092V358.494H97.3192L92.7292 364.956V366H99.6592V364.506H94.8712L99.4792 358.044ZM102.318 355.362C102.894 355.362 103.362 354.894 103.362 354.318C103.362 353.742 102.894 353.256 102.318 353.256C101.724 353.256 101.256 353.742 101.256 354.318C101.256 354.894 101.724 355.362 102.318 355.362ZM103.092 366V357H101.526V366H103.092ZM109.963 356.766C108.649 356.766 107.677 357.27 107.047 358.296V357H105.481V366H107.047V361.23C107.047 359.214 108.091 358.26 109.657 358.26C111.043 358.26 111.889 359.106 111.889 360.564V366H113.455V360.474C113.455 358.188 112.069 356.766 109.963 356.766ZM128.781 362.22C128.817 361.986 128.835 361.752 128.835 361.518C128.835 360.204 128.421 359.088 127.575 358.17C126.747 357.234 125.667 356.766 124.353 356.766C122.967 356.766 121.833 357.216 120.951 358.116C120.069 359.016 119.637 360.15 119.637 361.5C119.637 362.868 120.087 364.002 120.969 364.902C121.869 365.784 123.039 366.234 124.461 366.234C126.225 366.234 127.539 365.55 128.421 364.2L127.089 363.444C126.549 364.326 125.685 364.758 124.497 364.758C122.787 364.758 121.545 363.822 121.239 362.22H128.781ZM124.353 358.242C125.793 358.242 126.981 359.142 127.251 360.852H121.239C121.509 359.268 122.679 358.242 124.353 358.242ZM132.201 366V352.86H130.635V366H132.201ZM142.042 358.548C141.268 357.36 140.134 356.766 138.64 356.766C137.38 356.766 136.3 357.234 135.418 358.152C134.536 359.07 134.086 360.186 134.086 361.5C134.086 362.814 134.536 363.948 135.418 364.866C136.3 365.784 137.38 366.234 138.64 366.234C140.134 366.234 141.268 365.64 142.042 364.452V366H143.608V357H142.042V358.548ZM138.838 364.722C137.938 364.722 137.182 364.416 136.57 363.804C135.958 363.174 135.652 362.418 135.652 361.5C135.652 360.582 135.958 359.826 136.57 359.214C137.182 358.584 137.938 358.278 138.838 358.278C139.756 358.278 140.512 358.584 141.124 359.214C141.736 359.826 142.042 360.582 142.042 361.5C142.042 362.418 141.736 363.174 141.124 363.804C140.512 364.416 139.756 364.722 138.838 364.722ZM150.463 356.766C149.149 356.766 148.177 357.27 147.547 358.296V357H145.981V366H147.547V361.23C147.547 359.214 148.591 358.26 150.157 358.26C151.543 358.26 152.389 359.106 152.389 360.564V366H153.955V360.474C153.955 358.188 152.569 356.766 150.463 356.766ZM157.707 366V357H156.141V366H157.707ZM164.578 356.766C163.264 356.766 162.292 357.27 161.662 358.296V357H160.096V366H161.662V361.23C161.662 359.214 162.706 358.26 164.272 358.26C165.658 358.26 166.504 359.106 166.504 360.564V366H168.07V360.474C168.07 358.188 166.684 356.766 164.578 356.766ZM171.822 366V357H170.256V366H171.822ZM180.637 358.044V357H174.067V358.494H178.477L173.887 364.956V366H180.817V364.506H176.029L180.637 358.044Z" fill="#246EB2"/>
<rect x="244" y="426" width="148" height="12" rx="4" fill="#ECECF9"/>
<rect x="244" y="449" width="100" height="12" rx="4" fill="#ECECF9"/>
<rect x="244" y="472" width="50" height="12" rx="4" fill="#ECECF9"/>
<rect x="244" y="267" width="189" height="143.64" rx="4" fill="#ECECF9"/>
<path d="M291.922 343.234C293.218 343.234 294.262 342.91 295.072 342.262C295.882 341.596 296.278 340.714 296.278 339.616C296.278 338.824 296.098 338.176 295.648 337.726C295.342 337.366 295.18 337.168 294.676 336.898C294.19 336.628 294.046 336.538 293.416 336.304C293.11 336.178 292.894 336.106 292.75 336.052L292.012 335.818C291.04 335.512 290.356 335.206 289.96 334.918C289.564 334.63 289.366 334.216 289.366 333.658C289.366 332.506 290.284 331.786 291.652 331.786C293.02 331.786 293.974 332.434 294.514 333.73L295.918 332.92C295.18 331.264 293.65 330.166 291.652 330.166C290.554 330.166 289.618 330.49 288.844 331.138C288.07 331.768 287.692 332.632 287.692 333.73C287.692 334.648 288.07 335.386 288.484 335.836C288.682 336.052 288.988 336.268 289.402 336.484C289.816 336.682 290.176 336.844 290.446 336.952L291.652 337.348C292.714 337.69 293.488 337.996 293.938 338.302C294.388 338.608 294.622 339.058 294.622 339.652C294.622 340.822 293.686 341.596 291.958 341.596C290.212 341.596 289.078 340.84 288.592 339.31L287.152 340.138C287.818 342.064 289.564 343.234 291.922 343.234ZM298.89 332.362C299.466 332.362 299.934 331.894 299.934 331.318C299.934 330.742 299.466 330.256 298.89 330.256C298.296 330.256 297.828 330.742 297.828 331.318C297.828 331.894 298.296 332.362 298.89 332.362ZM299.664 343V334H298.098V343H299.664ZM308.479 335.044V334H301.909V335.494H306.319L301.729 341.956V343H308.659V341.506H303.871L308.479 335.044ZM311.318 332.362C311.894 332.362 312.362 331.894 312.362 331.318C312.362 330.742 311.894 330.256 311.318 330.256C310.724 330.256 310.256 330.742 310.256 331.318C310.256 331.894 310.724 332.362 311.318 332.362ZM312.092 343V334H310.526V343H312.092ZM318.963 333.766C317.649 333.766 316.677 334.27 316.047 335.296V334H314.481V343H316.047V338.23C316.047 336.214 317.091 335.26 318.657 335.26C320.043 335.26 320.889 336.106 320.889 337.564V343H322.455V337.474C322.455 335.188 321.069 333.766 318.963 333.766ZM337.781 339.22C337.817 338.986 337.835 338.752 337.835 338.518C337.835 337.204 337.421 336.088 336.575 335.17C335.747 334.234 334.667 333.766 333.353 333.766C331.967 333.766 330.833 334.216 329.951 335.116C329.069 336.016 328.637 337.15 328.637 338.5C328.637 339.868 329.087 341.002 329.969 341.902C330.869 342.784 332.039 343.234 333.461 343.234C335.225 343.234 336.539 342.55 337.421 341.2L336.089 340.444C335.549 341.326 334.685 341.758 333.497 341.758C331.787 341.758 330.545 340.822 330.239 339.22H337.781ZM333.353 335.242C334.793 335.242 335.981 336.142 336.251 337.852H330.239C330.509 336.268 331.679 335.242 333.353 335.242ZM341.201 343V329.86H339.635V343H341.201ZM351.042 335.548C350.268 334.36 349.134 333.766 347.64 333.766C346.38 333.766 345.3 334.234 344.418 335.152C343.536 336.07 343.086 337.186 343.086 338.5C343.086 339.814 343.536 340.948 344.418 341.866C345.3 342.784 346.38 343.234 347.64 343.234C349.134 343.234 350.268 342.64 351.042 341.452V343H352.608V334H351.042V335.548ZM347.838 341.722C346.938 341.722 346.182 341.416 345.57 340.804C344.958 340.174 344.652 339.418 344.652 338.5C344.652 337.582 344.958 336.826 345.57 336.214C346.182 335.584 346.938 335.278 347.838 335.278C348.756 335.278 349.512 335.584 350.124 336.214C350.736 336.826 351.042 337.582 351.042 338.5C351.042 339.418 350.736 340.174 350.124 340.804C349.512 341.416 348.756 341.722 347.838 341.722ZM359.463 333.766C358.149 333.766 357.177 334.27 356.547 335.296V334H354.981V343H356.547V338.23C356.547 336.214 357.591 335.26 359.157 335.26C360.543 335.26 361.389 336.106 361.389 337.564V343H362.955V337.474C362.955 335.188 361.569 333.766 359.463 333.766ZM366.707 343V334H365.141V343H366.707ZM373.578 333.766C372.264 333.766 371.292 334.27 370.662 335.296V334H369.096V343H370.662V338.23C370.662 336.214 371.706 335.26 373.272 335.26C374.658 335.26 375.504 336.106 375.504 337.564V343H377.07V337.474C377.07 335.188 375.684 333.766 373.578 333.766ZM380.822 343V334H379.256V343H380.822ZM389.637 335.044V334H383.067V335.494H387.477L382.887 341.956V343H389.817V341.506H385.029L389.637 335.044Z" fill="#6363B9"/>
<g clip-path="url(#clip0)">
<path d="M264 95C264 100.982 262.248 106.556 259.229 111.237L253.355 113.384C240.856 117.952 227.144 117.952 214.645 113.384L208.771 111.237C205.752 106.556 204 100.982 204 95C204 89.6 205.428 84.53 207.93 80.15C207.936 80.138 207.942 80.126 207.948 80.12C213.114 71.084 222.846 65 234 65C245.154 65 254.886 71.084 260.052 80.12C260.058 80.126 260.064 80.138 260.07 80.15C262.572 84.53 264 89.6 264 95Z" fill="#FFE706"/>
<path d="M264 95.0005C264 100.982 262.248 106.556 259.229 111.238L253.355 113.384C240.856 117.953 227.144 117.953 214.645 113.384L208.771 111.238C205.752 106.556 204 100.982 204 95.0005C204 89.6005 205.428 84.5305 207.93 80.1505C207.936 80.1385 207.942 80.1265 207.948 80.1205C210.924 85.3224 215.412 89.5465 220.818 92.1924C221.43 92.4924 222.06 92.7744 222.696 93.0324C226.098 94.4184 229.812 95.1984 233.7 95.2344H234.3C238.188 95.1984 241.902 94.4184 245.304 93.0324C245.94 92.7744 246.57 92.4924 247.182 92.1924C252.582 89.5465 257.076 85.3224 260.052 80.1205C260.058 80.1265 260.064 80.1385 260.07 80.1505C262.572 84.5305 264 89.6005 264 95.0005Z" fill="#FFBF03"/>
<path d="M234.127 90.9375L234.001 90.8672H226.11V83.2055H234.001L234.22 83.0648C235.48 82.2586 235.357 80.3813 234.001 79.7473V79.7461H222.65V94.3277H234.001L234.124 94.2598C235.428 93.5379 235.431 91.6617 234.127 90.9375Z" fill="#C94D31"/>
<path d="M234.002 79.7461V83.2055H241.895V90.8684H234.002V94.3266H245.354V79.7461H234.002Z" fill="#903D32"/>
<path d="M234.001 125.003H234C229.071 125.003 224.42 123.813 220.318 121.706C220.318 119.136 218.235 117.052 215.664 117.052H213.661C211.798 115.334 210.151 113.381 208.771 111.24V90.1737C208.771 88.7181 209.953 87.5361 211.413 87.5361H234.001L234.958 88.9798C242.253 99.9921 241.87 114.393 234.001 125.003Z" fill="#D85F39"/>
<path d="M259.23 90.1737V111.24C257.853 113.374 256.213 115.322 254.355 117.038L252.243 117.072C249.712 117.114 247.683 119.175 247.683 121.706C243.582 123.813 238.929 125.003 234.002 125.003V87.5361H256.588C258.046 87.5361 259.23 88.7181 259.23 90.1737Z" fill="#C94D31"/>
<path d="M234.002 87.5361V111.001H211.583C210.03 111.001 208.771 109.742 208.771 108.189V90.1743C208.771 88.7184 209.954 87.5361 211.413 87.5361H234.002Z" fill="#C94D31"/>
<path d="M259.229 90.1743V108.189C259.229 109.742 257.97 111.001 256.418 111.001H234.002V87.5361H256.588C258.047 87.5361 259.229 88.7184 259.229 90.1743Z" fill="#903D32"/>
<path d="M240.253 102.019L234.003 108.184H213.014C210.671 108.184 208.771 106.284 208.771 103.942V87.5366H234.003L240.095 93.1312C242.679 95.5042 242.75 99.5566 240.253 102.019Z" fill="#ED794A"/>
<path d="M259.229 87.5366V103.942C259.229 106.284 257.33 108.184 254.988 108.184H234.002V87.5366H259.229Z" fill="#D85F39"/>
<path d="M218.008 102.896H222.077V113.476H218.008V102.896Z" fill="#384C81"/>
<path d="M220.041 102.896H222.075V113.476H220.041V102.896Z" fill="#303B5A"/>
<path d="M217.195 105.337V111.003H222.862V105.337H217.195ZM221.29 109.431H218.768V106.909H221.29V109.431Z" fill="white"/>
<path d="M220.043 105.337V106.908H221.291V109.43H220.043V111.003H222.864V105.337H220.043Z" fill="#DFF0F8"/>
<path d="M245.357 102.896H249.426V113.476H245.357V102.896Z" fill="#384C81"/>
<path d="M247.391 102.896H249.425V113.476H247.391V102.896Z" fill="#303B5A"/>
<path d="M244.545 105.337V111.003H250.212V105.337H244.545ZM248.639 109.431H246.118V106.909H248.639V109.431Z" fill="white"/>
<path d="M247.391 105.337V106.908H248.639V109.43H247.391V111.003H250.211V105.337H247.391Z" fill="#DFF0F8"/>
<path d="M226.994 114.806V116.919C226.994 119.563 224.849 121.708 222.205 121.708H220.318C217.887 120.46 215.649 118.891 213.661 117.054C213.661 117.01 213.66 116.964 213.66 116.919V114.806H226.994Z" fill="#C94D31"/>
<path d="M254.357 114.806V116.919C254.357 116.96 254.357 116.999 254.356 117.04C252.364 118.884 250.121 120.458 247.683 121.708H245.812C243.167 121.708 241.023 119.563 241.023 116.919V114.806H254.357Z" fill="#903D32"/>
</g>
<path d="M189.839 151.208C190.991 151.208 191.919 150.92 192.639 150.344C193.359 149.752 193.711 148.968 193.711 147.992C193.711 147.288 193.551 146.712 193.151 146.312C192.879 145.992 192.735 145.816 192.287 145.576C191.855 145.336 191.727 145.256 191.167 145.048C190.895 144.936 190.703 144.872 190.575 144.824L189.919 144.616C189.055 144.344 188.447 144.072 188.095 143.816C187.743 143.56 187.567 143.192 187.567 142.696C187.567 141.672 188.383 141.032 189.599 141.032C190.815 141.032 191.663 141.608 192.143 142.76L193.391 142.04C192.735 140.568 191.375 139.592 189.599 139.592C188.623 139.592 187.791 139.88 187.103 140.456C186.415 141.016 186.079 141.784 186.079 142.76C186.079 143.576 186.415 144.232 186.783 144.632C186.959 144.824 187.231 145.016 187.599 145.208C187.967 145.384 188.287 145.528 188.527 145.624L189.599 145.976C190.543 146.28 191.231 146.552 191.631 146.824C192.031 147.096 192.239 147.496 192.239 148.024C192.239 149.064 191.407 149.752 189.871 149.752C188.319 149.752 187.311 149.08 186.879 147.72L185.599 148.456C186.191 150.168 187.743 151.208 189.839 151.208ZM196.033 141.544C196.545 141.544 196.961 141.128 196.961 140.616C196.961 140.104 196.545 139.672 196.033 139.672C195.505 139.672 195.089 140.104 195.089 140.616C195.089 141.128 195.505 141.544 196.033 141.544ZM196.721 151V143H195.329V151H196.721ZM204.557 143.928V143H198.717V144.328H202.637L198.557 150.072V151H204.717V149.672H200.461L204.557 143.928ZM207.08 141.544C207.592 141.544 208.008 141.128 208.008 140.616C208.008 140.104 207.592 139.672 207.08 139.672C206.552 139.672 206.136 140.104 206.136 140.616C206.136 141.128 206.552 141.544 207.08 141.544ZM207.768 151V143H206.376V151H207.768ZM213.876 142.792C212.708 142.792 211.844 143.24 211.284 144.152V143H209.892V151H211.284V146.76C211.284 144.968 212.212 144.12 213.604 144.12C214.836 144.12 215.588 144.872 215.588 146.168V151H216.98V146.088C216.98 144.056 215.748 142.792 213.876 142.792ZM231.563 142.792C230.443 142.792 229.611 143.24 229.051 144.152C228.555 143.24 227.771 142.792 226.699 142.792C225.659 142.792 224.859 143.224 224.315 144.072V143H222.923V151H224.315V146.552C224.315 144.936 225.195 144.12 226.363 144.12C227.403 144.12 228.059 144.84 228.059 146.072V151H229.451V146.552C229.451 144.904 230.219 144.12 231.419 144.12C232.491 144.12 233.179 144.84 233.179 146.072V151H234.571V146.024C234.571 144.04 233.355 142.792 231.563 142.792ZM243.125 144.376C242.437 143.32 241.429 142.792 240.101 142.792C238.981 142.792 238.021 143.208 237.237 144.024C236.453 144.84 236.053 145.832 236.053 147C236.053 148.168 236.453 149.176 237.237 149.992C238.021 150.808 238.981 151.208 240.101 151.208C241.429 151.208 242.437 150.68 243.125 149.624V151H244.517V143H243.125V144.376ZM240.277 149.864C239.477 149.864 238.805 149.592 238.261 149.048C237.717 148.488 237.445 147.816 237.445 147C237.445 146.184 237.717 145.512 238.261 144.968C238.805 144.408 239.477 144.136 240.277 144.136C241.093 144.136 241.765 144.408 242.309 144.968C242.853 145.512 243.125 146.184 243.125 147C243.125 147.816 242.853 148.488 242.309 149.048C241.765 149.592 241.093 149.864 240.277 149.864ZM250.434 142.04C251.922 142.04 252.818 141.24 252.818 139.88H251.522C251.522 140.568 251.154 140.92 250.434 140.92C249.714 140.92 249.346 140.568 249.346 139.88H248.05C248.05 141.24 248.962 142.04 250.434 142.04ZM253.266 144.376C252.578 143.32 251.57 142.792 250.258 142.792C249.122 142.792 248.146 143.192 247.362 144.008C246.578 144.808 246.178 145.784 246.178 146.952C246.178 148.12 246.578 149.096 247.362 149.912C248.146 150.728 249.122 151.128 250.258 151.128C251.554 151.128 252.562 150.6 253.266 149.528V150.664C253.266 152.184 252.258 153.112 250.594 153.112C249.298 153.112 248.418 152.664 247.986 151.768L246.77 152.456C247.426 153.72 248.77 154.408 250.562 154.408C251.682 154.408 252.642 154.072 253.442 153.416C254.242 152.76 254.642 151.848 254.642 150.664V143H253.266V144.376ZM253.266 146.952C253.266 147.768 252.994 148.44 252.45 148.984C251.906 149.528 251.234 149.8 250.418 149.8C249.602 149.8 248.93 149.528 248.386 148.984C247.842 148.44 247.57 147.768 247.57 146.952C247.57 146.152 247.842 145.48 248.386 144.936C248.93 144.392 249.602 144.12 250.418 144.12C251.234 144.12 251.906 144.392 252.45 144.936C252.994 145.48 253.266 146.152 253.266 146.952ZM263.375 144.376C262.687 143.32 261.679 142.792 260.351 142.792C259.231 142.792 258.271 143.208 257.487 144.024C256.703 144.84 256.303 145.832 256.303 147C256.303 148.168 256.703 149.176 257.487 149.992C258.271 150.808 259.231 151.208 260.351 151.208C261.679 151.208 262.687 150.68 263.375 149.624V151H264.767V143H263.375V144.376ZM260.527 149.864C259.727 149.864 259.055 149.592 258.511 149.048C257.967 148.488 257.695 147.816 257.695 147C257.695 146.184 257.967 145.512 258.511 144.968C259.055 144.408 259.727 144.136 260.527 144.136C261.343 144.136 262.015 144.408 262.559 144.968C263.103 145.512 263.375 146.184 263.375 147C263.375 147.816 263.103 148.488 262.559 149.048C262.015 149.592 261.343 149.864 260.527 149.864ZM272.588 143.928V143H266.748V144.328H270.668L266.588 150.072V151H272.748V149.672H268.492L272.588 143.928ZM280.532 144.376C279.844 143.32 278.836 142.792 277.508 142.792C276.388 142.792 275.428 143.208 274.644 144.024C273.86 144.84 273.46 145.832 273.46 147C273.46 148.168 273.86 149.176 274.644 149.992C275.428 150.808 276.388 151.208 277.508 151.208C278.836 151.208 279.844 150.68 280.532 149.624V151H281.924V143H280.532V144.376ZM277.684 149.864C276.884 149.864 276.212 149.592 275.668 149.048C275.124 148.488 274.852 147.816 274.852 147C274.852 146.184 275.124 145.512 275.668 144.968C276.212 144.408 276.884 144.136 277.684 144.136C278.5 144.136 279.172 144.408 279.716 144.968C280.26 145.512 280.532 146.184 280.532 147C280.532 147.816 280.26 148.488 279.716 149.048C279.172 149.592 278.5 149.864 277.684 149.864Z" fill="white"/>
<rect x="297" y="135" width="49" height="23" rx="4" fill="#246EB2"/>
<path d="M307.913 151.169C308.849 151.169 309.603 150.935 310.188 150.467C310.773 149.986 311.059 149.349 311.059 148.556C311.059 147.984 310.929 147.516 310.604 147.191C310.383 146.931 310.266 146.788 309.902 146.593C309.551 146.398 309.447 146.333 308.992 146.164C308.771 146.073 308.615 146.021 308.511 145.982L307.978 145.813C307.276 145.592 306.782 145.371 306.496 145.163C306.21 144.955 306.067 144.656 306.067 144.253C306.067 143.421 306.73 142.901 307.718 142.901C308.706 142.901 309.395 143.369 309.785 144.305L310.799 143.72C310.266 142.524 309.161 141.731 307.718 141.731C306.925 141.731 306.249 141.965 305.69 142.433C305.131 142.888 304.858 143.512 304.858 144.305C304.858 144.968 305.131 145.501 305.43 145.826C305.573 145.982 305.794 146.138 306.093 146.294C306.392 146.437 306.652 146.554 306.847 146.632L307.718 146.918C308.485 147.165 309.044 147.386 309.369 147.607C309.694 147.828 309.863 148.153 309.863 148.582C309.863 149.427 309.187 149.986 307.939 149.986C306.678 149.986 305.859 149.44 305.508 148.335L304.468 148.933C304.949 150.324 306.21 151.169 307.913 151.169ZM318.056 145.761H313.636V141.9H312.427V151H313.636V146.905H318.056V151H319.252V141.9H318.056V145.761ZM320.719 146.45C320.719 147.763 321.174 148.868 322.084 149.791C322.994 150.714 324.112 151.169 325.425 151.169C326.738 151.169 327.856 150.714 328.766 149.791C329.689 148.868 330.144 147.763 330.144 146.45C330.144 145.137 329.689 144.019 328.766 143.109C327.856 142.186 326.738 141.731 325.425 141.731C324.112 141.731 322.994 142.186 322.084 143.109C321.174 144.019 320.719 145.137 320.719 146.45ZM328.935 146.45C328.935 147.451 328.597 148.283 327.921 148.972C327.258 149.648 326.426 149.986 325.425 149.986C324.424 149.986 323.592 149.648 322.916 148.972C322.253 148.283 321.915 147.451 321.915 146.45C321.915 145.449 322.253 144.604 322.916 143.928C323.592 143.239 324.424 142.901 325.425 142.901C326.426 142.901 327.258 143.239 327.921 143.928C328.597 144.604 328.935 145.449 328.935 146.45ZM331.597 141.9V151H332.806V147.75H334.899C335.744 147.75 336.433 147.464 336.992 146.905C337.551 146.346 337.837 145.644 337.837 144.825C337.837 143.993 337.551 143.304 336.992 142.745C336.433 142.186 335.744 141.9 334.899 141.9H331.597ZM332.806 146.619V143.031H334.899C335.9 143.031 336.641 143.785 336.641 144.825C336.641 145.332 336.472 145.761 336.147 146.112C335.822 146.45 335.406 146.619 334.899 146.619H332.806Z" fill="white"/>
<rect x="154" y="282" width="55" height="25" rx="4" fill="#246EB2"/>
<path d="M167.214 299.182C168.222 299.182 169.034 298.93 169.664 298.426C170.294 297.908 170.602 297.222 170.602 296.368C170.602 295.752 170.462 295.248 170.112 294.898C169.874 294.618 169.748 294.464 169.356 294.254C168.978 294.044 168.866 293.974 168.376 293.792C168.138 293.694 167.97 293.638 167.858 293.596L167.284 293.414C166.528 293.176 165.996 292.938 165.688 292.714C165.38 292.49 165.226 292.168 165.226 291.734C165.226 290.838 165.94 290.278 167.004 290.278C168.068 290.278 168.81 290.782 169.23 291.79L170.322 291.16C169.748 289.872 168.558 289.018 167.004 289.018C166.15 289.018 165.422 289.27 164.82 289.774C164.218 290.264 163.924 290.936 163.924 291.79C163.924 292.504 164.218 293.078 164.54 293.428C164.694 293.596 164.932 293.764 165.254 293.932C165.576 294.086 165.856 294.212 166.066 294.296L167.004 294.604C167.83 294.87 168.432 295.108 168.782 295.346C169.132 295.584 169.314 295.934 169.314 296.396C169.314 297.306 168.586 297.908 167.242 297.908C165.884 297.908 165.002 297.32 164.624 296.13L163.504 296.774C164.022 298.272 165.38 299.182 167.214 299.182ZM178.137 293.358H173.377V289.2H172.075V299H173.377V294.59H178.137V299H179.425V289.2H178.137V293.358ZM181.005 294.1C181.005 295.514 181.495 296.704 182.475 297.698C183.455 298.692 184.659 299.182 186.073 299.182C187.487 299.182 188.691 298.692 189.671 297.698C190.665 296.704 191.155 295.514 191.155 294.1C191.155 292.686 190.665 291.482 189.671 290.502C188.691 289.508 187.487 289.018 186.073 289.018C184.659 289.018 183.455 289.508 182.475 290.502C181.495 291.482 181.005 292.686 181.005 294.1ZM189.853 294.1C189.853 295.178 189.489 296.074 188.761 296.816C188.047 297.544 187.151 297.908 186.073 297.908C184.995 297.908 184.099 297.544 183.371 296.816C182.657 296.074 182.293 295.178 182.293 294.1C182.293 293.022 182.657 292.112 183.371 291.384C184.099 290.642 184.995 290.278 186.073 290.278C187.151 290.278 188.047 290.642 188.761 291.384C189.489 292.112 189.853 293.022 189.853 294.1ZM192.72 289.2V299H194.022V295.5H196.276C197.186 295.5 197.928 295.192 198.53 294.59C199.132 293.988 199.44 293.232 199.44 292.35C199.44 291.454 199.132 290.712 198.53 290.11C197.928 289.508 197.186 289.2 196.276 289.2H192.72ZM194.022 294.282V290.418H196.276C197.354 290.418 198.152 291.23 198.152 292.35C198.152 292.896 197.97 293.358 197.62 293.736C197.27 294.1 196.822 294.282 196.276 294.282H194.022Z" fill="white"/>
<rect x="363" y="282" width="55" height="25" rx="4" fill="#246EB2"/>
<path d="M376.214 299.182C377.222 299.182 378.034 298.93 378.664 298.426C379.294 297.908 379.602 297.222 379.602 296.368C379.602 295.752 379.462 295.248 379.112 294.898C378.874 294.618 378.748 294.464 378.356 294.254C377.978 294.044 377.866 293.974 377.376 293.792C377.138 293.694 376.97 293.638 376.858 293.596L376.284 293.414C375.528 293.176 374.996 292.938 374.688 292.714C374.38 292.49 374.226 292.168 374.226 291.734C374.226 290.838 374.94 290.278 376.004 290.278C377.068 290.278 377.81 290.782 378.23 291.79L379.322 291.16C378.748 289.872 377.558 289.018 376.004 289.018C375.15 289.018 374.422 289.27 373.82 289.774C373.218 290.264 372.924 290.936 372.924 291.79C372.924 292.504 373.218 293.078 373.54 293.428C373.694 293.596 373.932 293.764 374.254 293.932C374.576 294.086 374.856 294.212 375.066 294.296L376.004 294.604C376.83 294.87 377.432 295.108 377.782 295.346C378.132 295.584 378.314 295.934 378.314 296.396C378.314 297.306 377.586 297.908 376.242 297.908C374.884 297.908 374.002 297.32 373.624 296.13L372.504 296.774C373.022 298.272 374.38 299.182 376.214 299.182ZM387.137 293.358H382.377V289.2H381.075V299H382.377V294.59H387.137V299H388.425V289.2H387.137V293.358ZM390.005 294.1C390.005 295.514 390.495 296.704 391.475 297.698C392.455 298.692 393.659 299.182 395.073 299.182C396.487 299.182 397.691 298.692 398.671 297.698C399.665 296.704 400.155 295.514 400.155 294.1C400.155 292.686 399.665 291.482 398.671 290.502C397.691 289.508 396.487 289.018 395.073 289.018C393.659 289.018 392.455 289.508 391.475 290.502C390.495 291.482 390.005 292.686 390.005 294.1ZM398.853 294.1C398.853 295.178 398.489 296.074 397.761 296.816C397.047 297.544 396.151 297.908 395.073 297.908C393.995 297.908 393.099 297.544 392.371 296.816C391.657 296.074 391.293 295.178 391.293 294.1C391.293 293.022 391.657 292.112 392.371 291.384C393.099 290.642 393.995 290.278 395.073 290.278C396.151 290.278 397.047 290.642 397.761 291.384C398.489 292.112 398.853 293.022 398.853 294.1ZM401.72 289.2V299H403.022V295.5H405.276C406.186 295.5 406.928 295.192 407.53 294.59C408.132 293.988 408.44 293.232 408.44 292.35C408.44 291.454 408.132 290.712 407.53 290.11C406.928 289.508 406.186 289.2 405.276 289.2H401.72ZM403.022 294.282V290.418H405.276C406.354 290.418 407.152 291.23 407.152 292.35C407.152 292.896 406.97 293.358 406.62 293.736C406.27 294.1 405.822 294.282 405.276 294.282H403.022Z" fill="white"/>
<defs>
<clipPath id="clip0">
<rect width="60" height="60" fill="white" transform="translate(204 65)"/>
</clipPath>
</defs>
</svg>
