<svg width="285" height="189" viewBox="0 0 285 189" fill="none" xmlns="http://www.w3.org/2000/svg">
<rect width="285" height="189" rx="4" fill="white"/>
<path d="M33.8153 26.84V25.4H25.8953V26.984H31.8173L25.7333 36.542V38H33.9593V36.416H27.7133L33.8153 26.84ZM35.2263 32.78C35.1903 33.014 35.1723 33.248 35.1723 33.482C35.1723 34.796 35.5863 35.912 36.4323 36.83C37.2603 37.766 38.3403 38.234 39.6543 38.234C41.0403 38.234 42.1743 37.784 43.0563 36.884C43.9383 35.984 44.3703 34.85 44.3703 33.5C44.3703 32.132 43.9203 30.998 43.0383 30.098C42.1383 29.216 40.9683 28.766 39.5463 28.766C38.1423 28.766 37.0443 29.198 36.1983 30.044L37.2603 31.106C37.8003 30.53 38.5383 30.242 39.5103 30.242C41.2203 30.242 42.4623 31.178 42.7683 32.78H35.2263ZM39.6543 36.758C38.2143 36.758 37.0263 35.858 36.7563 34.148H42.7683C42.4983 35.732 41.3283 36.758 39.6543 36.758ZM50.6524 28.766C49.3384 28.766 48.3664 29.27 47.7364 30.296V29H46.1704V38H47.7364V33.23C47.7364 31.214 48.7804 30.26 50.3464 30.26C51.7324 30.26 52.5784 31.106 52.5784 32.564V38H54.1444V32.474C54.1444 30.188 52.7584 28.766 50.6524 28.766ZM63.8006 30.548C63.0266 29.36 61.8926 28.766 60.4166 28.766C59.1386 28.766 58.0406 29.216 57.1586 30.134C56.2766 31.034 55.8266 32.132 55.8266 33.446C55.8266 34.76 56.2766 35.858 57.1586 36.776C58.0406 37.694 59.1386 38.144 60.4166 38.144C61.8746 38.144 63.0086 37.55 63.8006 36.344V37.622C63.8006 39.332 62.6666 40.376 60.7946 40.376C59.3366 40.376 58.3466 39.872 57.8606 38.864L56.4926 39.638C57.2306 41.06 58.7426 41.834 60.7586 41.834C62.0186 41.834 63.0986 41.456 63.9986 40.718C64.8986 39.98 65.3486 38.954 65.3486 37.622V29H63.8006V30.548ZM63.8006 33.446C63.8006 34.364 63.4946 35.12 62.8826 35.732C62.2706 36.344 61.5146 36.65 60.5966 36.65C59.6786 36.65 58.9226 36.344 58.3106 35.732C57.6986 35.12 57.3926 34.364 57.3926 33.446C57.3926 32.546 57.6986 31.79 58.3106 31.178C58.9226 30.566 59.6786 30.26 60.5966 30.26C61.5146 30.26 62.2706 30.566 62.8826 31.178C63.4946 31.79 63.8006 32.546 63.8006 33.446ZM73.5712 31.43C73.5712 30.656 74.2912 30.224 75.1732 30.224C76.1272 30.224 76.7752 30.602 77.0992 31.376L78.4132 30.638C77.8372 29.468 76.6312 28.766 75.1732 28.766C74.2552 28.766 73.4992 29.018 72.8872 29.522C72.2932 30.026 71.9872 30.674 71.9872 31.448C71.9872 33.356 73.8232 33.824 75.2452 34.202C76.2352 34.436 77.0272 34.832 77.0272 35.534C77.0272 36.38 76.2712 36.758 75.2452 36.758C74.1472 36.758 73.3012 36.218 73.0132 35.354L71.6632 36.128C72.1852 37.406 73.4992 38.234 75.2452 38.234C76.2352 38.234 77.0272 37.982 77.6572 37.496C78.2872 37.01 78.6112 36.344 78.6112 35.534C78.6292 33.608 76.7572 33.086 75.3532 32.78C74.3632 32.51 73.5712 32.132 73.5712 31.43ZM87.6713 30.548C86.8973 29.36 85.7633 28.766 84.2693 28.766C83.0093 28.766 81.9293 29.234 81.0473 30.152C80.1653 31.07 79.7153 32.186 79.7153 33.5C79.7153 34.814 80.1653 35.948 81.0473 36.866C81.9293 37.784 83.0093 38.234 84.2693 38.234C85.7633 38.234 86.8973 37.64 87.6713 36.452V38H89.2373V29H87.6713V30.548ZM84.4673 36.722C83.5673 36.722 82.8113 36.416 82.1993 35.804C81.5873 35.174 81.2812 34.418 81.2812 33.5C81.2812 32.582 81.5873 31.826 82.1993 31.214C82.8113 30.584 83.5673 30.278 84.4673 30.278C85.3853 30.278 86.1413 30.584 86.7533 31.214C87.3653 31.826 87.6713 32.582 87.6713 33.5C87.6713 34.418 87.3653 35.174 86.7533 35.804C86.1413 36.416 85.3853 36.722 84.4673 36.722ZM95.2999 36.056L92.2399 29H90.5659L94.4899 37.964L94.3279 38.306C93.8059 39.62 92.9959 40.232 91.8979 40.142V41.6C93.6979 41.726 95.1199 40.592 95.8939 38.558L99.5659 29H97.8919L95.2999 36.056ZM102.44 38V29H100.874V38H102.44Z" fill="#081A3E"/>
<path d="M27.1 96.52H31.44V95.596H27.1V92.124H31.79V91.2H26.12V101H31.86V100.076H27.1V96.52ZM34.3278 101V90.78H33.4038V101H34.3278ZM42.3086 95.372C41.6646 94.35 40.7266 93.832 39.4806 93.832C38.4866 93.832 37.6326 94.182 36.9186 94.896C36.2186 95.61 35.8686 96.478 35.8686 97.5C35.8686 98.522 36.2186 99.39 36.9186 100.104C37.6326 100.818 38.4866 101.168 39.4806 101.168C40.7266 101.168 41.6646 100.65 42.3086 99.628V101H43.2326V94H42.3086V95.372ZM37.5906 99.474C37.0586 98.928 36.7926 98.27 36.7926 97.5C36.7926 96.73 37.0586 96.072 37.5906 95.54C38.1226 94.994 38.7806 94.728 39.5506 94.728C40.3206 94.728 40.9786 94.994 41.5106 95.54C42.0426 96.072 42.3086 96.73 42.3086 97.5C42.3086 98.27 42.0426 98.928 41.5106 99.474C40.9786 100.006 40.3206 100.272 39.5506 100.272C38.7806 100.272 38.1226 100.006 37.5906 99.474ZM48.465 93.832C47.415 93.832 46.631 94.252 46.113 95.092V94H45.189V101H46.113V97.332C46.113 95.554 47.037 94.728 48.381 94.728C49.599 94.728 50.285 95.456 50.285 96.702V101H51.209V96.702C51.209 94.952 50.159 93.832 48.465 93.832ZM53.9196 101V90.78H52.9956V101H53.9196ZM61.9004 95.372C61.2564 94.35 60.3184 93.832 59.0724 93.832C58.0784 93.832 57.2244 94.182 56.5104 94.896C55.8104 95.61 55.4604 96.478 55.4604 97.5C55.4604 98.522 55.8104 99.39 56.5104 100.104C57.2244 100.818 58.0784 101.168 59.0724 101.168C60.3184 101.168 61.2564 100.65 61.9004 99.628V101H62.8244V94H61.9004V95.372ZM57.1824 99.474C56.6504 98.928 56.3844 98.27 56.3844 97.5C56.3844 96.73 56.6504 96.072 57.1824 95.54C57.7144 94.994 58.3724 94.728 59.1424 94.728C59.9124 94.728 60.5704 94.994 61.1024 95.54C61.6344 96.072 61.9004 96.73 61.9004 97.5C61.9004 98.27 61.6344 98.928 61.1024 99.474C60.5704 100.006 59.9124 100.272 59.1424 100.272C58.3724 100.272 57.7144 100.006 57.1824 99.474ZM65.7048 94H64.7808V101H65.7048V97.108C65.7048 95.498 66.6428 94.784 67.9168 94.784V93.888C66.8668 93.888 66.1388 94.308 65.7048 95.162V94ZM70.1071 101V94H69.1831V101H70.1071ZM75.3439 93.832C74.2939 93.832 73.5099 94.252 72.9919 95.092V94H72.0679V101H72.9919V97.332C72.9919 95.554 73.9159 94.728 75.2599 94.728C76.4779 94.728 77.1639 95.456 77.1639 96.702V101H78.0879V96.702C78.0879 94.952 77.0379 93.832 75.3439 93.832ZM80.7985 101V94H79.8745V101H80.7985ZM87.6593 94.616V94H82.6193V94.896H86.3713L82.4793 100.384V101H87.7993V100.104H83.7673L87.6593 94.616ZM94.7675 92.768C95.0055 92.53 95.0055 92.11 94.7675 91.872C94.5295 91.634 94.1095 91.634 93.8715 91.872C93.6335 92.11 93.6335 92.53 93.8715 92.768C94.1095 93.006 94.5295 93.006 94.7675 92.768ZM97.4275 92.768C97.6655 92.53 97.6655 92.11 97.4275 91.872C97.1895 91.634 96.7695 91.634 96.5315 91.872C96.2935 92.11 96.2935 92.53 96.5315 92.768C96.7695 93.006 97.1895 93.006 97.4275 92.768ZM97.7635 97.668C97.7635 99.446 96.8395 100.272 95.4955 100.272C94.2775 100.272 93.5915 99.544 93.5915 98.298V94H92.6675V98.298C92.6675 100.048 93.7175 101.168 95.4115 101.168C96.4615 101.168 97.2455 100.748 97.7635 99.908V101H98.6875V94H97.7635V97.668ZM105.542 94.616V94H100.502V94.896H104.254L100.362 100.384V101H105.682V100.104H101.65L105.542 94.616ZM110.27 101.168C111.348 101.168 112.216 100.818 112.902 100.118C113.588 99.418 113.924 98.55 113.924 97.5C113.924 96.436 113.574 95.554 112.888 94.868C112.202 94.182 111.306 93.832 110.2 93.832C109.136 93.832 108.24 94.21 107.596 94.84L108.24 95.498C108.674 95.022 109.346 94.728 110.186 94.728C111.684 94.728 112.79 95.624 112.972 97.038H106.826C106.812 97.22 106.798 97.374 106.798 97.472C106.798 98.466 107.12 99.334 107.764 100.062C108.394 100.804 109.234 101.168 110.27 101.168ZM110.27 100.272C109.64 100.272 109.08 100.062 108.604 99.656C108.128 99.25 107.848 98.676 107.75 97.934H112.972C112.79 99.32 111.726 100.272 110.27 100.272ZM116.318 94H115.394V101H116.318V97.108C116.318 95.498 117.256 94.784 118.53 94.784V93.888C117.48 93.888 116.752 94.308 116.318 95.162V94ZM120.734 92.32C121 92.054 121 91.634 120.734 91.368C120.468 91.102 120.048 91.102 119.782 91.368C119.516 91.634 119.516 92.054 119.782 92.32C120.048 92.586 120.468 92.586 120.734 92.32ZM120.72 101V94H119.796V101H120.72ZM125.957 93.832C124.907 93.832 124.123 94.252 123.605 95.092V94H122.681V101H123.605V97.332C123.605 95.554 124.529 94.728 125.873 94.728C127.091 94.728 127.777 95.456 127.777 96.702V101H128.701V96.702C128.701 94.952 127.651 93.832 125.957 93.832ZM136.508 95.372C135.864 94.35 134.926 93.832 133.68 93.832C132.686 93.832 131.832 94.182 131.118 94.896C130.418 95.61 130.068 96.478 130.068 97.5C130.068 98.522 130.418 99.39 131.118 100.104C131.832 100.818 132.686 101.168 133.68 101.168C134.926 101.168 135.864 100.65 136.508 99.628V101H137.432V91.2H136.508V95.372ZM131.79 99.474C131.258 98.928 130.992 98.27 130.992 97.5C130.992 96.73 131.258 96.072 131.79 95.54C132.322 94.994 132.98 94.728 133.75 94.728C134.52 94.728 135.178 94.994 135.71 95.54C136.242 96.072 136.508 96.73 136.508 97.5C136.508 98.27 136.242 98.928 135.71 99.474C135.178 100.006 134.52 100.272 133.75 100.272C132.98 100.272 132.322 100.006 131.79 99.474ZM142.44 101.168C143.518 101.168 144.386 100.818 145.072 100.118C145.758 99.418 146.094 98.55 146.094 97.5C146.094 96.436 145.744 95.554 145.058 94.868C144.372 94.182 143.476 93.832 142.37 93.832C141.306 93.832 140.41 94.21 139.766 94.84L140.41 95.498C140.844 95.022 141.516 94.728 142.356 94.728C143.854 94.728 144.96 95.624 145.142 97.038H138.996C138.982 97.22 138.968 97.374 138.968 97.472C138.968 98.466 139.29 99.334 139.934 100.062C140.564 100.804 141.404 101.168 142.44 101.168ZM142.44 100.272C141.81 100.272 141.25 100.062 140.774 99.656C140.298 99.25 140.018 98.676 139.92 97.934H145.142C144.96 99.32 143.896 100.272 142.44 100.272ZM150.84 93.832C149.79 93.832 149.006 94.252 148.488 95.092V94H147.564V101H148.488V97.332C148.488 95.554 149.412 94.728 150.756 94.728C151.974 94.728 152.66 95.456 152.66 96.702V101H153.584V96.702C153.584 94.952 152.534 93.832 150.84 93.832ZM162.147 93.832C161.097 93.832 160.313 94.252 159.795 95.092V94H158.871V101H159.795V97.332C159.795 95.554 160.719 94.728 162.063 94.728C163.281 94.728 163.967 95.456 163.967 96.702V101H164.891V96.702C164.891 94.952 163.841 93.832 162.147 93.832ZM169.057 92.768C169.295 92.53 169.295 92.11 169.057 91.872C168.819 91.634 168.399 91.634 168.161 91.872C167.923 92.11 167.923 92.53 168.161 92.768C168.399 93.006 168.819 93.006 169.057 92.768ZM171.717 92.768C171.955 92.53 171.955 92.11 171.717 91.872C171.479 91.634 171.059 91.634 170.821 91.872C170.583 92.11 170.583 92.53 170.821 92.768C171.059 93.006 171.479 93.006 171.717 92.768ZM172.543 100.118C173.257 99.404 173.621 98.536 173.621 97.5C173.621 96.464 173.257 95.596 172.543 94.896C171.829 94.182 170.961 93.832 169.939 93.832C168.917 93.832 168.035 94.182 167.321 94.896C166.607 95.596 166.257 96.464 166.257 97.5C166.257 98.536 166.607 99.404 167.321 100.118C168.035 100.818 168.917 101.168 169.939 101.168C170.961 101.168 171.829 100.818 172.543 100.118ZM167.979 99.474C167.447 98.928 167.181 98.27 167.181 97.5C167.181 96.73 167.447 96.072 167.979 95.54C168.511 94.994 169.169 94.728 169.939 94.728C170.709 94.728 171.367 94.994 171.899 95.54C172.431 96.072 172.697 96.73 172.697 97.5C172.697 98.27 172.431 98.928 171.899 99.474C171.367 100.006 170.709 100.272 169.939 100.272C169.169 100.272 168.511 100.006 167.979 99.474ZM182.63 93.832C181.622 93.832 180.866 94.252 180.362 95.106C179.956 94.252 179.242 93.832 178.234 93.832C177.31 93.832 176.596 94.224 176.092 95.022V94H175.168V101H176.092V97.122C176.092 95.498 176.988 94.728 178.108 94.728C179.116 94.728 179.746 95.4 179.746 96.632V101H180.67V97.122C180.67 95.484 181.454 94.728 182.616 94.728C183.638 94.728 184.324 95.414 184.324 96.632V101H185.248V96.632C185.248 94.91 184.198 93.832 182.63 93.832ZM187.959 94H187.035V101H187.959V97.108C187.959 95.498 188.897 94.784 190.171 94.784V93.888C189.121 93.888 188.393 94.308 187.959 95.162V94ZM194.489 101.168C195.567 101.168 196.435 100.818 197.121 100.118C197.807 99.418 198.143 98.55 198.143 97.5C198.143 96.436 197.793 95.554 197.107 94.868C196.421 94.182 195.525 93.832 194.419 93.832C193.355 93.832 192.459 94.21 191.815 94.84L192.459 95.498C192.893 95.022 193.565 94.728 194.405 94.728C195.903 94.728 197.009 95.624 197.191 97.038H191.045C191.031 97.22 191.017 97.374 191.017 97.472C191.017 98.466 191.339 99.334 191.983 100.062C192.613 100.804 193.453 101.168 194.489 101.168ZM194.489 100.272C193.859 100.272 193.299 100.062 192.823 99.656C192.347 99.25 192.067 98.676 191.969 97.934H197.191C197.009 99.32 195.945 100.272 194.489 100.272ZM202.889 93.832C201.839 93.832 201.055 94.252 200.537 95.092V94H199.613V101H200.537V97.332C200.537 95.554 201.461 94.728 202.805 94.728C204.023 94.728 204.709 95.456 204.709 96.702V101H205.633V96.702C205.633 94.952 204.583 93.832 202.889 93.832ZM208.357 92.32C208.623 92.054 208.623 91.634 208.357 91.368C208.091 91.102 207.671 91.102 207.405 91.368C207.139 91.634 207.139 92.054 207.405 92.32C207.671 92.586 208.091 92.586 208.357 92.32ZM208.343 101V94H207.419V101H208.343ZM215.204 94.616V94H210.164V94.896H213.916L210.024 100.384V101H215.344V100.104H211.312L215.204 94.616ZM219.932 101.168C221.01 101.168 221.878 100.818 222.564 100.118C223.25 99.418 223.586 98.55 223.586 97.5C223.586 96.436 223.236 95.554 222.55 94.868C221.864 94.182 220.968 93.832 219.862 93.832C218.798 93.832 217.902 94.21 217.258 94.84L217.902 95.498C218.336 95.022 219.008 94.728 219.848 94.728C221.346 94.728 222.452 95.624 222.634 97.038H216.488C216.474 97.22 216.46 97.374 216.46 97.472C216.46 98.466 216.782 99.334 217.426 100.062C218.056 100.804 218.896 101.168 219.932 101.168ZM219.932 100.272C219.302 100.272 218.742 100.062 218.266 99.656C217.79 99.25 217.51 98.676 217.412 97.934H222.634C222.452 99.32 221.388 100.272 219.932 100.272ZM51.5645 114.372C50.9205 113.35 49.9825 112.832 48.7365 112.832C47.7425 112.832 46.8885 113.182 46.1745 113.896C45.4745 114.61 45.1245 115.478 45.1245 116.5C45.1245 117.522 45.4745 118.39 46.1745 119.104C46.8885 119.818 47.7425 120.168 48.7365 120.168C49.9825 120.168 50.9205 119.65 51.5645 118.628V120H52.4885V110.2H51.5645V114.372ZM46.8465 118.474C46.3145 117.928 46.0485 117.27 46.0485 116.5C46.0485 115.73 46.3145 115.072 46.8465 114.54C47.3785 113.994 48.0365 113.728 48.8065 113.728C49.5765 113.728 50.2345 113.994 50.7665 114.54C51.2985 115.072 51.5645 115.73 51.5645 116.5C51.5645 117.27 51.2985 117.928 50.7665 118.474C50.2345 119.006 49.5765 119.272 48.8065 119.272C48.0365 119.272 47.3785 119.006 46.8465 118.474ZM57.4968 120.168C58.5748 120.168 59.4428 119.818 60.1288 119.118C60.8148 118.418 61.1508 117.55 61.1508 116.5C61.1508 115.436 60.8008 114.554 60.1148 113.868C59.4288 113.182 58.5328 112.832 57.4268 112.832C56.3628 112.832 55.4668 113.21 54.8228 113.84L55.4668 114.498C55.9008 114.022 56.5728 113.728 57.4128 113.728C58.9108 113.728 60.0168 114.624 60.1988 116.038H54.0528C54.0388 116.22 54.0248 116.374 54.0248 116.472C54.0248 117.466 54.3468 118.334 54.9908 119.062C55.6208 119.804 56.4608 120.168 57.4968 120.168ZM57.4968 119.272C56.8668 119.272 56.3068 119.062 55.8308 118.656C55.3548 118.25 55.0748 117.676 54.9768 116.934H60.1988C60.0168 118.32 58.9528 119.272 57.4968 119.272ZM66.1206 110.032C64.2306 109.906 63.1806 110.886 63.1806 112.72V113H61.9906V113.896H63.1806V120H64.1046V113.896H66.1206V113H64.1046V112.72C64.1046 111.376 64.7626 110.816 66.1206 110.928V110.032ZM70.157 120.168C71.235 120.168 72.103 119.818 72.789 119.118C73.475 118.418 73.811 117.55 73.811 116.5C73.811 115.436 73.461 114.554 72.775 113.868C72.089 113.182 71.193 112.832 70.087 112.832C69.023 112.832 68.127 113.21 67.483 113.84L68.127 114.498C68.561 114.022 69.233 113.728 70.073 113.728C71.571 113.728 72.677 114.624 72.859 116.038H66.713C66.699 116.22 66.685 116.374 66.685 116.472C66.685 117.466 67.007 118.334 67.651 119.062C68.281 119.804 69.121 120.168 70.157 120.168ZM70.157 119.272C69.527 119.272 68.967 119.062 68.491 118.656C68.015 118.25 67.735 117.676 67.637 116.934H72.859C72.677 118.32 71.613 119.272 70.157 119.272ZM80.6848 116.36L84.2968 113H83.0368L79.7048 116.094V110.2H78.7808V120H79.7048V116.626L83.2048 120H84.4368L80.6848 116.36ZM88.2355 112.832C87.1575 112.832 86.2895 113.182 85.6035 113.882C84.9175 114.582 84.5815 115.45 84.5815 116.5C84.5815 117.564 84.9315 118.446 85.6175 119.132C86.3035 119.818 87.1995 120.168 88.3055 120.168C89.6635 120.168 90.7695 119.552 91.3855 118.558L90.5735 118.082C90.1815 118.796 89.3835 119.272 88.3195 119.272C86.8215 119.272 85.7155 118.376 85.5335 116.962H91.6795C91.6935 116.78 91.7075 116.626 91.7075 116.528C91.7075 115.534 91.3855 114.666 90.7415 113.938C90.1115 113.196 89.2715 112.832 88.2355 112.832ZM88.2355 113.728C88.8655 113.728 89.4255 113.938 89.9015 114.344C90.3775 114.75 90.6575 115.324 90.7555 116.066H85.5335C85.7155 114.68 86.7795 113.728 88.2355 113.728ZM98.8053 117.9C98.3433 118.74 97.4893 119.272 96.4393 119.272C95.6693 119.272 95.0113 119.006 94.4793 118.474C93.9473 117.928 93.6813 117.27 93.6813 116.5C93.6813 115.73 93.9473 115.072 94.4793 114.54C95.0113 113.994 95.6693 113.728 96.4393 113.728C97.4893 113.728 98.3713 114.26 98.7493 115.1L99.5053 114.666C99.0013 113.546 97.8253 112.832 96.4393 112.832C95.3893 112.832 94.5073 113.182 93.8073 113.896C93.1073 114.596 92.7573 115.464 92.7573 116.5C92.7573 117.466 93.0653 118.278 93.6673 118.964C94.2693 119.65 95.0533 120.042 95.9913 120.14V121.19C96.8593 121.218 97.2933 121.414 97.2933 121.764C97.2933 122.212 96.6073 122.38 95.2353 122.268V123.024C97.1533 123.136 98.1053 122.716 98.1053 121.764C98.1053 121.19 97.6013 120.784 96.8033 120.63V120.154C98.0213 120.042 99.0573 119.356 99.5753 118.348L98.8053 117.9ZM101.84 111.32C102.106 111.054 102.106 110.634 101.84 110.368C101.574 110.102 101.154 110.102 100.888 110.368C100.622 110.634 100.622 111.054 100.888 111.32C101.154 111.586 101.574 111.586 101.84 111.32ZM101.826 120V113H100.902V120H101.826ZM109.807 114.372C109.163 113.35 108.225 112.832 106.979 112.832C105.985 112.832 105.131 113.182 104.417 113.896C103.717 114.61 103.367 115.478 103.367 116.5C103.367 117.522 103.717 118.39 104.417 119.104C105.131 119.818 105.985 120.168 106.979 120.168C108.225 120.168 109.163 119.65 109.807 118.628V120H110.731V110.2H109.807V114.372ZM105.089 118.474C104.557 117.928 104.291 117.27 104.291 116.5C104.291 115.73 104.557 115.072 105.089 114.54C105.621 113.994 106.279 113.728 107.049 113.728C107.819 113.728 108.477 113.994 109.009 114.54C109.541 115.072 109.807 115.73 109.807 116.5C109.807 117.27 109.541 117.928 109.009 118.474C108.477 119.006 107.819 119.272 107.049 119.272C106.279 119.272 105.621 119.006 105.089 118.474ZM119.421 112.832C118.343 112.832 117.475 113.182 116.789 113.882C116.103 114.582 115.767 115.45 115.767 116.5C115.767 117.564 116.117 118.446 116.803 119.132C117.489 119.818 118.385 120.168 119.491 120.168C120.849 120.168 121.955 119.552 122.571 118.558L121.759 118.082C121.367 118.796 120.569 119.272 119.505 119.272C118.007 119.272 116.901 118.376 116.719 116.962H122.865C122.879 116.78 122.893 116.626 122.893 116.528C122.893 115.534 122.571 114.666 121.927 113.938C121.297 113.196 120.457 112.832 119.421 112.832ZM119.421 113.728C120.051 113.728 120.611 113.938 121.087 114.344C121.563 114.75 121.843 115.324 121.941 116.066H116.719C116.901 114.68 117.965 113.728 119.421 113.728ZM130.383 114.372C129.739 113.35 128.801 112.832 127.555 112.832C126.561 112.832 125.707 113.182 124.993 113.896C124.293 114.61 123.943 115.478 123.943 116.5C123.943 117.522 124.293 118.39 124.993 119.104C125.707 119.818 126.561 120.168 127.555 120.168C128.801 120.168 129.739 119.65 130.383 118.628V120H131.307V110.2H130.383V114.372ZM125.665 118.474C125.133 117.928 124.867 117.27 124.867 116.5C124.867 115.73 125.133 115.072 125.665 114.54C126.197 113.994 126.855 113.728 127.625 113.728C128.395 113.728 129.053 113.994 129.585 114.54C130.117 115.072 130.383 115.73 130.383 116.5C130.383 117.27 130.117 117.928 129.585 118.474C129.053 119.006 128.395 119.272 127.625 119.272C126.855 119.272 126.197 119.006 125.665 118.474ZM134.201 111.32C134.467 111.054 134.467 110.634 134.201 110.368C133.935 110.102 133.515 110.102 133.249 110.368C132.983 110.634 132.983 111.054 133.249 111.32C133.515 111.586 133.935 111.586 134.201 111.32ZM134.187 120V113H133.263V120H134.187ZM137.072 120V109.78H136.148V120H137.072ZM139.971 111.32C140.237 111.054 140.237 110.634 139.971 110.368C139.705 110.102 139.285 110.102 139.019 110.368C138.753 110.634 138.753 111.054 139.019 111.32C139.285 111.586 139.705 111.586 139.971 111.32ZM139.957 120V113H139.033V120H139.957ZM145.67 112.832C144.424 112.832 143.486 113.35 142.842 114.372V110.2H141.918V120H142.842V118.628C143.486 119.65 144.424 120.168 145.67 120.168C146.664 120.168 147.518 119.818 148.218 119.104C148.932 118.39 149.282 117.522 149.282 116.5C149.282 115.478 148.932 114.61 148.218 113.896C147.518 113.182 146.664 112.832 145.67 112.832ZM143.64 118.474C143.108 117.928 142.842 117.27 142.842 116.5C142.842 115.73 143.108 115.072 143.64 114.54C144.172 113.994 144.83 113.728 145.6 113.728C146.37 113.728 147.028 113.994 147.56 114.54C148.092 115.072 148.358 115.73 148.358 116.5C148.358 117.27 148.092 117.928 147.56 118.474C147.028 119.006 146.37 119.272 145.6 119.272C144.83 119.272 144.172 119.006 143.64 118.474ZM151.433 119.916C151.727 119.622 151.727 119.118 151.433 118.824C151.139 118.53 150.635 118.53 150.341 118.824C150.047 119.118 150.047 119.622 150.341 119.916C150.635 120.21 151.139 120.21 151.433 119.916Z" fill="#081A3E"/>
<path d="M31.832 120V118.74H27.394L29.9 116.248C31.062 115.086 31.65 114.008 31.65 113.014C31.65 112.104 31.342 111.376 30.74 110.83C30.138 110.284 29.424 110.018 28.598 110.018C27.268 110.018 26.12 110.676 25.504 111.95L26.596 112.594C27.016 111.712 27.688 111.278 28.612 111.278C29.578 111.278 30.348 111.922 30.348 113.028C30.348 113.686 29.886 114.484 28.962 115.408L25.504 118.936V120H31.832ZM39.4421 118.796C40.1001 117.872 40.4361 116.64 40.4361 115.1C40.4361 113.56 40.1001 112.328 39.4421 111.404C38.7841 110.48 37.8461 110.018 36.6561 110.018C35.4661 110.018 34.5281 110.48 33.8701 111.404C33.2121 112.328 32.8761 113.56 32.8761 115.1C32.8761 116.64 33.2121 117.872 33.8701 118.796C34.5281 119.72 35.4661 120.182 36.6561 120.182C37.8461 120.182 38.7841 119.72 39.4421 118.796ZM34.1781 115.1C34.1781 112.65 35.0741 111.278 36.6561 111.278C38.2381 111.278 39.1481 112.678 39.1481 115.1C39.1481 117.522 38.2381 118.908 36.6561 118.908C35.0741 118.908 34.1781 117.522 34.1781 115.1Z" fill="#246EB2"/>
<path d="M259.778 159.032L255.328 154.582C255.225 154.479 255.086 154.422 254.941 154.422C254.795 154.422 254.656 154.479 254.554 154.582L254.226 154.91C254.123 155.013 254.065 155.152 254.065 155.297C254.065 155.442 254.123 155.581 254.226 155.684L257.964 159.422L254.223 163.163C254.12 163.266 254.062 163.405 254.062 163.55C254.062 163.695 254.12 163.834 254.223 163.937L254.551 164.265C254.653 164.367 254.792 164.425 254.938 164.425C255.083 164.425 255.222 164.367 255.325 164.265L259.779 159.811C259.881 159.708 259.938 159.568 259.938 159.423C259.938 159.278 259.881 159.138 259.779 159.035L259.778 159.032Z" fill="#246EB2"/>
<path d="M205.466 159.1C205.466 160.514 205.956 161.704 206.936 162.698C207.916 163.692 209.12 164.182 210.534 164.182C211.948 164.182 213.152 163.692 214.132 162.698C215.126 161.704 215.616 160.514 215.616 159.1C215.616 157.686 215.126 156.482 214.132 155.502C213.152 154.508 211.948 154.018 210.534 154.018C209.12 154.018 207.916 154.508 206.936 155.502L207.832 156.384C208.56 155.642 209.456 155.278 210.534 155.278C211.612 155.278 212.508 155.642 213.222 156.384C213.81 156.972 214.16 157.672 214.272 158.484H205.494C205.466 158.68 205.466 158.89 205.466 159.1ZM213.222 161.816C212.508 162.544 211.612 162.908 210.534 162.908C209.456 162.908 208.56 162.544 207.832 161.816C207.258 161.214 206.908 160.514 206.796 159.702H214.272C214.16 160.514 213.81 161.214 213.222 161.816ZM220.863 157H219.001V155.04L217.783 155.404V157H216.397V158.176H217.783V161.97C217.783 163.706 218.735 164.28 220.863 164V162.908C219.617 162.964 219.001 163.048 219.001 161.97V158.176H220.863V157ZM223.564 157H222.346V164H223.564V160.29C223.564 159.52 223.774 158.974 224.208 158.624C224.642 158.274 225.146 158.12 225.748 158.148V156.874C224.698 156.874 223.97 157.308 223.564 158.176V157ZM232.353 158.204C231.751 157.28 230.869 156.818 229.707 156.818C228.727 156.818 227.887 157.182 227.201 157.896C226.515 158.61 226.165 159.478 226.165 160.5C226.165 161.522 226.515 162.404 227.201 163.118C227.887 163.832 228.727 164.182 229.707 164.182C230.869 164.182 231.751 163.72 232.353 162.796V164H233.571V157H232.353V158.204ZM229.861 163.006C229.161 163.006 228.573 162.768 228.097 162.292C227.621 161.802 227.383 161.214 227.383 160.5C227.383 159.786 227.621 159.198 228.097 158.722C228.573 158.232 229.161 157.994 229.861 157.994C230.575 157.994 231.163 158.232 231.639 158.722C232.115 159.198 232.353 159.786 232.353 160.5C232.353 161.214 232.115 161.802 231.639 162.292C231.163 162.768 230.575 163.006 229.861 163.006ZM239.014 154.018C236.97 154.018 235.948 154.942 235.948 156.79V157H234.828V158.176H235.948V164H237.166V158.176H238.622V157H237.166V156.79C237.166 155.6 237.768 155.11 239.014 155.11C239.168 155.11 239.42 155.124 239.756 155.138V164H240.974V154.228C240.232 154.088 239.574 154.018 239.014 154.018ZM244.058 164V157H242.84V164H244.058Z" fill="#246EB2"/>
<path d="M32.808 70V68.56H27.736L30.6 65.712C31.928 64.384 32.6 63.152 32.6 62.016C32.6 60.976 32.248 60.144 31.56 59.52C30.872 58.896 30.056 58.592 29.112 58.592C27.592 58.592 26.28 59.344 25.576 60.8L26.824 61.536C27.304 60.528 28.072 60.032 29.128 60.032C30.232 60.032 31.112 60.768 31.112 62.032C31.112 62.784 30.584 63.696 29.528 64.752L25.576 68.784V70H32.808ZM41.5052 68.624C42.2573 67.568 42.6413 66.16 42.6413 64.4C42.6413 62.64 42.2573 61.232 41.5052 60.176C40.7533 59.12 39.6813 58.592 38.3213 58.592C36.9613 58.592 35.8893 59.12 35.1373 60.176C34.3853 61.232 34.0013 62.64 34.0013 64.4C34.0013 66.16 34.3853 67.568 35.1373 68.624C35.8893 69.68 36.9613 70.208 38.3213 70.208C39.6813 70.208 40.7533 69.68 41.5052 68.624ZM35.4893 64.4C35.4893 61.6 36.5133 60.032 38.3213 60.032C40.1293 60.032 41.1693 61.632 41.1693 64.4C41.1693 67.168 40.1293 68.752 38.3213 68.752C36.5133 68.752 35.4893 67.168 35.4893 64.4Z" fill="#246EB2"/>
<g clip-path="url(#clip0)">
<path d="M239.25 37.2828C241.76 40.3042 244.888 42.7545 248.422 44.4696C250.022 45.2943 251.765 45.8089 253.556 45.9863C253.68 45.9913 253.799 45.9971 253.922 45.9971C254.542 46.0155 255.158 45.8983 255.728 45.6535C256.297 45.4087 256.806 45.0424 257.219 44.5801C257.228 44.5723 257.235 44.5633 257.241 44.5534C257.568 44.1758 257.915 43.816 258.281 43.4758C258.535 43.2332 258.793 42.9804 259.041 42.7218C259.312 42.4772 259.529 42.1781 259.677 41.844C259.826 41.5099 259.902 41.1483 259.901 40.7828C259.9 40.4173 259.822 40.0561 259.672 39.7228C259.521 39.3896 259.303 39.0917 259.03 38.8486L255.792 35.6108C255.553 35.3432 255.261 35.1277 254.935 34.9776C254.608 34.8276 254.255 34.7461 253.896 34.7384C253.534 34.7476 253.178 34.829 252.849 34.9778C252.52 35.1266 252.223 35.3399 251.977 35.6051L250.048 37.5341C249.871 37.4316 249.687 37.3398 249.515 37.2539C249.312 37.1561 249.115 37.0481 248.922 36.9303C247.069 35.7253 245.423 34.2272 244.05 32.4944C243.387 31.6949 242.833 30.8109 242.402 29.8656C242.907 29.4077 243.382 28.9267 243.84 28.4594C244.002 28.2926 244.169 28.1257 244.336 27.9582C244.606 27.7105 244.824 27.4114 244.978 27.0785C245.131 26.7456 245.217 26.3854 245.23 26.019C245.218 25.6524 245.133 25.2918 244.979 24.9587C244.826 24.6256 244.607 24.3268 244.336 24.0798L242.732 22.4729C242.543 22.2844 242.365 22.1009 242.182 21.9124C241.827 21.5463 241.455 21.1693 241.089 20.8291C240.843 20.5724 240.549 20.367 240.224 20.2247C239.898 20.0823 239.548 20.006 239.193 20C238.468 20.016 237.779 20.3158 237.273 20.8349L235.258 22.8499C234.538 23.5539 234.099 24.4962 234.024 25.5004C233.951 26.9749 234.207 28.4471 234.773 29.8107C235.818 32.5435 237.333 35.0724 239.25 37.2828ZM235.339 25.6138C235.391 24.9191 235.696 24.2676 236.195 23.7823L238.2 21.7781C238.458 21.5018 238.815 21.3375 239.193 21.3202C239.378 21.3291 239.559 21.3752 239.725 21.4558C239.892 21.5363 240.041 21.6496 240.163 21.7889C240.524 22.1226 240.863 22.4729 241.229 22.8448C241.413 23.0333 241.601 23.2218 241.79 23.4161L243.395 25.0216C243.542 25.1478 243.662 25.3018 243.749 25.4747C243.836 25.6477 243.887 25.8361 243.901 26.0291C243.887 26.2221 243.836 26.4106 243.749 26.5835C243.662 26.7564 243.542 26.9104 243.395 27.0366C243.228 27.2034 243.062 27.3761 242.894 27.5422C242.393 28.0477 241.924 28.528 241.407 28.9866L241.38 29.0133C241.216 29.1596 241.102 29.3536 241.054 29.5681C241.005 29.7826 241.025 30.0068 241.111 30.2093C241.116 30.2252 241.122 30.2361 241.127 30.2527C241.607 31.3629 242.244 32.3987 243.018 33.3286C244.478 35.1776 246.232 36.7744 248.21 38.0556C248.44 38.1972 248.677 38.3267 248.921 38.4434C249.124 38.5411 249.322 38.6491 249.514 38.7669C249.536 38.7778 249.552 38.7886 249.573 38.7994C249.734 38.886 249.913 38.9321 250.096 38.9338C250.247 38.929 250.396 38.8941 250.534 38.8312C250.672 38.7684 250.796 38.6788 250.898 38.5676L252.913 36.5526C253.038 36.4116 253.189 36.2966 253.358 36.2143C253.528 36.132 253.711 36.084 253.899 36.0731C254.082 36.0842 254.261 36.1324 254.425 36.2149C254.589 36.2973 254.735 36.4122 254.853 36.5526L258.103 39.7961C258.254 39.9191 258.376 40.0746 258.459 40.251C258.542 40.4274 258.585 40.6203 258.583 40.8154C258.581 41.0104 258.536 41.2026 258.45 41.3777C258.364 41.5529 258.24 41.7064 258.087 41.827C257.861 42.0697 257.623 42.3008 257.37 42.5434C256.975 42.9133 256.599 43.3036 256.244 43.7127C255.955 44.0355 255.597 44.2907 255.198 44.4602C254.799 44.6297 254.367 44.7093 253.933 44.6935C253.842 44.6935 253.745 44.6884 253.653 44.6827C252.031 44.5151 250.456 44.0435 249.009 43.2924C245.643 41.6621 242.666 39.3303 240.276 36.4537C238.457 34.3563 237.015 31.959 236.015 29.3687C235.514 28.1826 235.283 26.9001 235.339 25.6138Z" fill="#246EB2" fill-opacity="0.3"/>
</g>
<defs>
<clipPath id="clip0">
<rect width="25.9018" height="26" fill="white" transform="translate(234 20)"/>
</clipPath>
</defs>
</svg>
