<svg width="359" height="223" viewBox="0 0 359 223" fill="none" xmlns="http://www.w3.org/2000/svg">
<path d="M43.3996 9.1782C44.6645 9.1782 45.6899 8.15281 45.6899 6.88793C45.6899 5.62305 44.6645 4.59766 43.3996 4.59766C42.1348 4.59766 41.1094 5.62305 41.1094 6.88793C41.1094 8.15281 42.1348 9.1782 43.3996 9.1782Z" fill="#7D7B8C"/>
<path d="M51.2551 9.1782C52.52 9.1782 53.5454 8.15281 53.5454 6.88793C53.5454 5.62305 52.52 4.59766 51.2551 4.59766C49.9902 4.59766 48.9648 5.62305 48.9648 6.88793C48.9648 8.15281 49.9902 9.1782 51.2551 9.1782Z" fill="#7D7B8C"/>
<path d="M59.1067 9.1782C60.3716 9.1782 61.397 8.15281 61.397 6.88793C61.397 5.62305 60.3716 4.59766 59.1067 4.59766C57.8418 4.59766 56.8164 5.62305 56.8164 6.88793C56.8164 8.15281 57.8418 9.1782 59.1067 9.1782Z" fill="#7D7B8C"/>
<path d="M276.353 132.199H57.4688V158.047H276.353V132.199Z" fill="#F2F2F2"/>
<path d="M295.822 43.0422H165.604V109.133H295.822V43.0422Z" fill="#F2F2F2"/>
<path d="M188.461 103.084L217.954 53.8433L248.545 103.084" fill="#246EB2"/>
<path d="M233.167 77.8895L239.057 62.512L272.429 103.083H233.004L233.167 77.8895Z" fill="#246EB2"/>
<path d="M226.967 71.7818C227.884 71.2208 228.681 70.4846 229.313 69.6153C229.945 68.7461 230.4 67.7608 230.651 66.7158C230.902 65.6708 230.944 64.5865 230.776 63.525C230.608 62.4635 230.232 61.4455 229.671 60.5293C229.109 59.613 228.372 58.8165 227.502 58.1851C226.633 57.5538 225.647 57.1 224.602 56.8498C223.557 56.5996 222.472 56.5578 221.411 56.7268C220.349 56.8958 219.332 57.2723 218.416 57.8348" fill="#246EB2"/>
<path d="M332.61 148.617C332.354 149.322 332.224 150.067 332.227 150.817C332.216 151.911 332.497 152.988 333.041 153.938C332.507 154.891 332.227 155.966 332.227 157.058C332.227 158.151 332.507 159.226 333.041 160.179C332.507 161.133 332.227 162.207 332.227 163.3C332.227 164.393 332.507 165.467 333.041 166.421C332.507 167.374 332.227 168.449 332.227 169.541C332.227 170.634 332.507 171.709 333.041 172.662C332.497 173.612 332.216 174.689 332.227 175.783C332.227 178.603 333.973 180.89 336.128 180.89C338.282 180.89 340.029 178.603 340.029 175.783C340.039 174.689 339.758 173.612 339.215 172.662C339.748 171.709 340.029 170.634 340.029 169.541C340.029 168.449 339.748 167.374 339.215 166.421C339.748 165.467 340.029 164.393 340.029 163.3C340.029 162.207 339.748 161.133 339.215 160.179C339.748 159.226 340.029 158.151 340.029 157.058C340.029 155.966 339.748 154.891 339.215 153.938C339.758 152.988 340.039 151.911 340.029 150.817C340.031 150.078 339.905 149.343 339.657 148.647" fill="white"/>
<path d="M321.526 95.6104C320.993 94.9319 320.508 94.2174 320.073 93.4719L330.323 91.7885L319.238 91.871C318.174 89.5572 317.594 87.0507 317.533 84.505C317.471 81.9592 317.93 79.4278 318.881 77.0654L333.754 84.7806L320.038 74.6983C321.323 72.4777 323.051 70.5456 325.115 69.0221C327.18 67.4987 329.536 66.4167 332.036 65.8435C334.537 65.2703 337.129 65.2181 339.651 65.6903C342.172 66.1625 344.57 67.1489 346.694 68.5881C348.818 70.0272 350.623 71.8883 351.996 74.0554C353.369 76.2225 354.281 78.6491 354.676 81.1842C355.071 83.7192 354.939 86.3084 354.289 88.7903C353.639 91.2723 352.486 93.5938 350.899 95.6104C351.73 96.6664 352.445 97.8089 353.031 99.018L339.725 105.93L353.912 101.169C354.908 104.114 355.155 107.26 354.629 110.324C354.103 113.388 352.821 116.272 350.899 118.716C353.067 121.472 354.416 124.783 354.791 128.269C355.166 131.756 354.553 135.278 353.021 138.432C351.488 141.586 349.1 144.245 346.128 146.106C343.155 147.967 339.719 148.954 336.213 148.954C332.706 148.954 329.27 147.967 326.298 146.106C323.326 144.245 320.937 141.586 319.405 138.432C317.873 135.278 317.259 131.756 317.635 128.269C318.01 124.783 319.358 121.472 321.526 118.716C318.936 115.422 317.527 111.354 317.527 107.163C317.527 102.973 318.936 98.9041 321.526 95.6104L321.526 95.6104Z" fill="white"/>
<path d="M335.881 148.28C335.625 148.985 335.496 149.73 335.498 150.48C335.488 151.574 335.769 152.651 336.313 153.601C335.779 154.554 335.498 155.629 335.498 156.722C335.498 157.814 335.779 158.889 336.313 159.842C335.779 160.796 335.498 161.87 335.498 162.963C335.498 164.056 335.779 165.13 336.313 166.084C335.779 167.037 335.498 168.112 335.498 169.204C335.498 170.297 335.779 171.372 336.313 172.325C335.769 173.275 335.488 174.352 335.498 175.446C335.498 178.266 337.245 180.553 339.399 180.553C341.554 180.553 343.3 178.266 343.3 175.446C343.311 174.352 343.03 173.275 342.486 172.325C343.02 171.372 343.3 170.297 343.3 169.204C343.3 168.112 343.02 167.037 342.486 166.084C343.02 165.13 343.3 164.056 343.3 162.963C343.3 161.87 343.02 160.796 342.486 159.842C343.02 158.889 343.3 157.814 343.3 156.722C343.3 155.629 343.02 154.554 342.486 153.601C343.03 152.651 343.311 151.574 343.3 150.48C343.303 149.741 343.177 149.007 342.928 148.31" stroke="#3F3D56" stroke-miterlimit="10"/>
<path d="M324.796 95.2862C324.263 94.6077 323.777 93.8932 323.343 93.1477L333.593 91.4643L322.507 91.5468C321.444 89.233 320.864 86.7265 320.802 84.1808C320.741 81.635 321.2 79.1035 322.15 76.7412L337.023 84.4564L323.307 74.3741C324.592 72.1535 326.321 70.2213 328.385 68.6979C330.449 67.1745 332.805 66.0925 335.306 65.5193C337.807 64.946 340.398 64.8939 342.92 65.3661C345.442 65.8383 347.839 66.8247 349.963 68.2638C352.087 69.703 353.892 71.5641 355.265 73.7312C356.639 75.8983 357.551 78.3249 357.946 80.86C358.34 83.395 358.208 85.9842 357.559 88.4661C356.909 90.948 355.755 93.2696 354.169 95.2862C355 96.3422 355.714 97.4847 356.3 98.6938L342.995 105.606L357.182 100.845C358.178 103.79 358.424 106.936 357.898 110C357.372 113.064 356.09 115.948 354.169 118.392C356.337 121.148 357.686 124.459 358.061 127.945C358.436 131.432 357.822 134.953 356.29 138.108C354.758 141.262 352.369 143.921 349.397 145.782C346.425 147.643 342.989 148.629 339.482 148.629C335.976 148.629 332.54 147.643 329.568 145.782C326.595 143.921 324.207 141.262 322.675 138.108C321.143 134.953 320.529 131.432 320.904 127.945C321.279 124.459 322.628 121.148 324.796 118.392C322.205 115.098 320.797 111.029 320.797 106.839C320.797 102.649 322.205 98.5799 324.796 95.2862L324.796 95.2862Z" stroke="#3F3D56" stroke-miterlimit="10"/>
<path d="M312.016 1H37.1836V179.641H312.016V1Z" stroke="#3F3D56" stroke-miterlimit="10"/>
<path d="M37.1836 10.9297H312.016" stroke="#3F3D56" stroke-miterlimit="10"/>
<path d="M44.0559 8.19773C45.3208 8.19773 46.3462 7.17234 46.3462 5.90746C46.3462 4.64258 45.3208 3.61719 44.0559 3.61719C42.791 3.61719 41.7656 4.64258 41.7656 5.90746C41.7656 7.17234 42.791 8.19773 44.0559 8.19773Z" stroke="#3F3D56" stroke-miterlimit="10"/>
<path d="M51.9094 8.19773C53.1743 8.19773 54.1997 7.17234 54.1997 5.90746C54.1997 4.64258 53.1743 3.61719 51.9094 3.61719C50.6445 3.61719 49.6191 4.64258 49.6191 5.90746C49.6191 7.17234 50.6445 8.19773 51.9094 8.19773Z" stroke="#3F3D56" stroke-miterlimit="10"/>
<path d="M59.759 8.19773C61.0239 8.19773 62.0493 7.17234 62.0493 5.90746C62.0493 4.64258 61.0239 3.61719 59.759 3.61719C58.4941 3.61719 57.4688 4.64258 57.4688 5.90746C57.4688 7.17234 58.4941 8.19773 59.759 8.19773Z" stroke="#3F3D56" stroke-miterlimit="10"/>
<path d="M137.303 50.2454H42.4199V57.1162H137.303V50.2454Z" fill="#F2F2F2"/>
<path d="M137.303 66.6047H42.4199V73.4756H137.303V66.6047Z" fill="#F2F2F2"/>
<path d="M137.303 82.9602H42.4199V89.831H137.303V82.9602Z" fill="#F2F2F2"/>
<path d="M140.576 47.9458H45.6934V54.8166H140.576V47.9458Z" stroke="#3F3D56" stroke-miterlimit="10"/>
<path d="M140.576 64.3049H45.6934V71.1757H140.576V64.3049Z" stroke="#3F3D56" stroke-miterlimit="10"/>
<path d="M140.576 80.6682H45.6934V87.539H140.576V80.6682Z" stroke="#3F3D56" stroke-miterlimit="10"/>
<path d="M303.511 34.6914H173.293V100.782H303.511V34.6914Z" stroke="#3F3D56" stroke-miterlimit="10"/>
<path d="M284.043 126.312H65.1582V152.159H284.043V126.312Z" stroke="#3F3D56" stroke-miterlimit="10"/>
<path d="M190.096 100.792L219.589 51.5513L250.18 100.792" stroke="#3F3D56" stroke-miterlimit="10"/>
<path d="M234.148 74.9479L240.038 59.5703L273.41 100.795" stroke="#3F3D56" stroke-miterlimit="10"/>
<path d="M229.256 67.1993C230.173 66.6383 230.97 65.9021 231.602 65.0328C232.234 64.1636 232.689 63.1783 232.94 62.1333C233.191 61.0883 233.234 60.004 233.065 58.9425C232.897 57.881 232.522 56.863 231.96 55.9468C231.398 55.0305 230.661 54.234 229.791 53.6026C228.922 52.9713 227.936 52.5175 226.891 52.2673C225.846 52.0171 224.761 51.9752 223.7 52.1443C222.639 52.3133 221.621 52.6898 220.705 53.2523" stroke="#3F3D56" stroke-miterlimit="10"/>
<path d="M7.74137 141.854C8.83561 141.906 9.92694 141.703 10.9293 141.261C11.9317 140.819 12.8178 140.151 13.5177 139.308C14.2176 138.465 14.7122 137.472 14.9625 136.405C15.2129 135.339 15.2121 134.229 14.9602 133.162C14.7083 132.096 14.2123 131.103 13.5112 130.262C12.81 129.42 11.923 128.753 10.92 128.312C9.91693 127.872 8.8253 127.67 7.73115 127.724C6.63699 127.777 5.5702 128.084 4.61486 128.62L5.86442 132.044L3.29356 129.576C1.91495 130.836 1.09308 132.592 1.00856 134.458C0.976014 135.113 1.03639 135.768 1.18788 136.406C1.53932 137.903 2.36921 139.245 3.55179 140.228C4.73437 141.211 6.20519 141.782 7.74137 141.854Z" fill="white"/>
<path d="M28.4097 179.652C26.9101 176.876 28.6116 173.472 30.5673 170.996C32.5231 168.52 34.9067 165.944 34.8561 162.789C34.7833 158.254 29.9705 155.577 26.1251 153.173C23.272 151.389 20.6404 149.273 18.2854 146.87C17.3413 145.906 16.4286 144.875 15.8764 143.644C15.0812 141.871 15.1033 139.855 15.1534 137.912C15.3205 131.442 15.6402 124.978 16.1125 118.52" stroke="#3F3D56" stroke-miterlimit="10"/>
<path d="M7.74137 140.877C8.83561 140.929 9.92694 140.726 10.9293 140.284C11.9317 139.842 12.8178 139.174 13.5177 138.331C14.2176 137.488 14.7122 136.495 14.9625 135.428C15.2129 134.362 15.2121 133.252 14.9602 132.185C14.7083 131.119 14.2123 130.126 13.5112 129.285C12.81 128.443 11.923 127.775 10.92 127.335C9.91693 126.895 8.82531 126.693 7.73115 126.747C6.63699 126.8 5.5702 127.107 4.61486 127.643L5.86442 131.067L3.29356 128.599C1.91495 129.859 1.09308 131.615 1.00856 133.481C0.976014 134.136 1.03639 134.791 1.18788 135.429C1.53932 136.926 2.36921 138.268 3.55179 139.251C4.73437 140.234 6.20519 140.805 7.74137 140.877Z" stroke="#3F3D56" stroke-miterlimit="10"/>
<path d="M8.80461 119.48C8.85959 118.296 9.21181 117.144 9.82881 116.132C10.4458 115.119 11.3077 114.278 12.3352 113.686L13.9185 116.818L13.8708 113.027C15.3091 112.603 16.8447 112.647 18.2561 113.153C19.6675 113.659 20.8816 114.601 21.7231 115.841C22.5646 117.082 22.9899 118.559 22.9377 120.057C22.8855 121.556 22.3584 122.999 21.4326 124.178C20.5068 125.357 19.2301 126.212 17.7869 126.618C16.3437 127.025 14.8087 126.962 13.4035 126.44C11.9982 125.917 10.7954 124.961 9.96883 123.71C9.14222 122.459 8.73452 120.978 8.80461 119.48Z" fill="white"/>
<path d="M8.80461 118.164C8.85959 116.98 9.21181 115.828 9.82881 114.815C10.4458 113.803 11.3077 112.962 12.3352 112.37L13.9185 115.502L13.8708 111.71C15.3091 111.287 16.8447 111.331 18.2561 111.837C19.6675 112.343 20.8816 113.284 21.7231 114.525C22.5646 115.766 22.9899 117.243 22.9377 118.741C22.8855 120.239 22.3584 121.682 21.4326 122.862C20.5068 124.041 19.2301 124.896 17.7869 125.302C16.3437 125.709 14.8087 125.646 13.4035 125.123C11.9982 124.601 10.7954 123.645 9.96883 122.394C9.14222 121.143 8.73452 119.662 8.80461 118.164V118.164Z" stroke="#3F3D56" stroke-miterlimit="10"/>
<path d="M24.9617 153.611C26.6966 153.692 28.4007 153.132 29.7492 152.037C31.0976 150.942 31.9961 149.39 32.2734 147.675C32.5507 145.961 32.1874 144.204 31.2527 142.74C30.318 141.276 28.8774 140.207 27.2053 139.737L27.242 142.651L25.6409 139.482C25.6346 139.481 25.6281 139.48 25.6217 139.48C24.6939 139.437 23.7666 139.577 22.8928 139.892C22.0191 140.207 21.2159 140.691 20.5292 141.316C19.8425 141.942 19.2857 142.696 18.8906 143.537C18.4955 144.378 18.2698 145.288 18.2265 146.216C18.1831 147.143 18.3229 148.071 18.638 148.944C18.953 149.818 19.437 150.621 20.0625 151.308C20.6879 151.995 21.4424 152.552 22.283 152.947C23.1236 153.342 24.0338 153.568 24.9617 153.611Z" fill="white"/>
<path d="M24.907 152.298C26.6419 152.379 28.346 151.819 29.6945 150.724C31.0429 149.63 31.9414 148.077 32.2187 146.363C32.496 144.648 32.1327 142.891 31.198 141.427C30.2633 139.964 28.8227 138.895 27.1506 138.425L27.1874 141.339L25.5862 138.169C25.5799 138.168 25.5735 138.168 25.567 138.168C24.6392 138.125 23.7119 138.264 22.8382 138.579C21.9644 138.894 21.1612 139.378 20.4745 140.004C19.0876 141.267 18.2593 143.029 18.1718 144.903C18.1284 145.831 18.2683 146.758 18.5833 147.632C18.8983 148.506 19.3823 149.309 20.0078 149.996C21.2709 151.382 23.0332 152.211 24.907 152.298Z" stroke="#3F3D56" stroke-miterlimit="10"/>
<path d="M21.417 167.016C22.1592 168.458 23.3747 169.601 24.8596 170.254C26.3445 170.906 28.0086 171.028 29.5728 170.599C31.1369 170.17 32.506 169.216 33.4505 167.898C34.3949 166.579 34.8572 164.976 34.7599 163.357C34.6626 161.738 34.0116 160.202 32.9161 159.006C31.8205 157.81 30.3471 157.027 28.7428 156.788C27.1385 156.55 25.501 156.87 24.1049 157.696C22.7088 158.521 21.639 159.802 21.0749 161.322L25.492 164.917L20.6328 163.79C20.6321 164.913 20.901 166.019 21.417 167.016Z" fill="white"/>
<path d="M21.417 166.023C22.1592 167.465 23.3747 168.609 24.8596 169.261C26.3445 169.913 28.0086 170.035 29.5728 169.606C31.1369 169.177 32.506 168.224 33.4505 166.905C34.3949 165.586 34.8572 163.983 34.7599 162.364C34.6626 160.745 34.0116 159.209 32.9161 158.013C31.8205 156.817 30.3471 156.034 28.7428 155.796C27.1385 155.557 25.501 155.877 24.1049 156.703C22.7088 157.528 21.639 158.809 21.0749 160.329L25.492 163.924L20.6328 162.798C20.6321 163.92 20.901 165.026 21.417 166.023V166.023Z" stroke="#3F3D56" stroke-miterlimit="10"/>
<path opacity="0.1" d="M180.403 219.009C135.433 219.009 98.978 215.507 98.978 211.188C98.978 206.868 135.433 203.366 180.403 203.366C225.373 203.366 261.828 206.868 261.828 211.188C261.828 215.507 225.373 219.009 180.403 219.009Z" fill="#246EB2"/>
<path d="M256.568 205.413C257.214 205.765 257.775 205.984 257.823 205.887C257.871 205.79 257.389 205.439 256.743 205.089C256.098 204.739 256.353 204.994 256.304 205.089C256.254 205.184 255.921 205.059 256.568 205.413Z" fill="#FFD037"/>
<path d="M213.375 185.721C213.375 185.721 191.052 171.459 175.618 171.459C175.618 171.459 157.038 168.565 136.828 173.456C116.618 178.347 109.152 184.689 103.549 182.827L127.089 183.517L213.375 185.721Z" fill="#8CD0F3"/>
<path opacity="0.1" d="M213.375 185.721C213.375 185.721 191.052 171.459 175.618 171.459C175.618 171.459 157.038 168.565 136.828 173.456C116.618 178.347 109.152 184.689 103.549 182.827L127.089 183.517L213.375 185.721Z" fill="#8CD0F3"/>
<path d="M108.155 207.551H244.301L240.558 192.553L217.406 186.398L108.155 189.269V207.551Z" fill="#121C3F"/>
<path d="M100.991 198.182V202.968C100.991 202.968 105.033 205.9 105.4 208.197C105.4 208.197 111.188 209.666 112.841 209.666C112.991 209.666 113.155 209.666 113.326 209.684C113.068 208.991 112.866 208.278 112.723 207.553C112.317 205.518 112.369 203.418 112.872 201.405C113.376 199.392 114.32 197.516 115.636 195.912C116.953 194.307 118.608 193.015 120.484 192.128C122.36 191.24 124.409 190.78 126.484 190.78C128.56 190.78 130.609 191.24 132.485 192.128C134.361 193.015 136.016 194.307 137.332 195.912C138.649 197.516 139.593 199.392 140.096 201.405C140.6 203.418 140.651 205.518 140.246 207.553C140.051 208.534 139.752 209.492 139.353 210.409H147.201C147.201 210.409 147.273 210.434 147.391 210.485C147.812 210.676 148.804 211.178 148.947 211.968H213.987L215.32 211.957C215.036 211.481 214.782 210.989 214.558 210.483C214.14 209.546 213.83 208.564 213.633 207.557C213.246 205.633 213.266 203.65 213.692 201.735C214.118 199.82 214.941 198.015 216.108 196.438C217.274 194.86 218.758 193.544 220.464 192.575C222.17 191.606 224.06 191.005 226.013 190.811C227.965 190.618 229.937 190.835 231.8 191.45C233.663 192.065 235.377 193.063 236.831 194.38C238.284 195.698 239.446 197.306 240.24 199.1C241.035 200.894 241.445 202.834 241.443 204.796C241.443 205.721 241.353 206.644 241.173 207.551C240.866 209.087 240.304 210.561 239.509 211.911C240.438 211.685 242.466 211.041 242.466 211.041C242.466 211.041 251.1 210.123 253.305 208.185L252.972 207.955L251.559 206.99L252.202 204.514C252.28 204.41 252.344 204.296 252.393 204.176C252.564 203.762 252.714 202.995 252.109 202.032C251.191 200.562 251.65 195.326 251.65 195.326C251.65 195.326 239.157 186.692 214.537 184.761C214.537 184.761 213.949 185.218 212.734 185.313C211.912 185.38 210.802 185.279 209.391 184.761C209.391 184.761 207.371 185.679 198.729 180.719C198.729 180.719 184.029 170.613 164.736 171.535C164.736 171.535 144.893 170.339 127.99 176.866C120.706 179.676 115.164 181.174 111.213 181.966C107.565 182.699 105.275 182.834 104.226 182.846H104.203C103.86 182.846 103.656 182.846 103.584 182.846H103.554C103.554 182.846 103.554 185.034 103.437 187.617V187.63C103.396 188.529 103.338 189.475 103.258 190.395V190.452C103.038 193.013 102.657 195.339 101.996 195.8L100.991 198.182Z" fill="#2856B8"/>
<path d="M249.662 195.112C249.662 195.112 244.128 190.794 237.237 191.714C237.237 191.714 243.507 196.676 246.333 196.354L246.814 195.941L249.67 196.101C249.67 196.101 250.097 195.434 249.662 195.112Z" fill="#8CD0F3"/>
<path opacity="0.2" d="M244.289 202.578V205.127C244.289 205.127 244.479 207.562 246.678 207.653L252.961 207.964L251.55 206.999L252.194 204.523C252.272 204.42 252.336 204.307 252.384 204.186C251.813 203.661 250.467 202.774 247.729 202.583L244.289 202.578Z" fill="white"/>
<path opacity="0.2" d="M215.051 191.893L210.228 191.703C210.228 191.703 212.18 193.241 213.558 193.38C214.937 193.519 215.051 191.893 215.051 191.893Z" fill="white"/>
<path opacity="0.2" d="M204.9 206.525C204.9 206.525 161.287 200.461 150.745 202.39C150.745 202.39 147.646 202.598 146.473 203.837C145.3 205.076 146.473 204.273 146.473 204.273L204.9 206.525Z" fill="white"/>
<path opacity="0.5" d="M180.488 189.511C180.488 189.511 179.936 188.478 179.041 188.455L173.231 188.156C173.231 188.156 173.322 188.959 174.356 189.258L180.488 189.511Z" fill="#18218A"/>
<path opacity="0.5" d="M146.863 187.761C146.863 187.761 146.311 186.727 145.416 186.704L139.606 186.398C139.606 186.398 139.697 187.201 140.731 187.5L146.863 187.761Z" fill="#18218A"/>
<path d="M166.703 173.59L171.162 185.284L187.239 185.301H191.378H194.978H198.091H201.617C201.617 185.301 199.47 183.725 196.01 181.716C194.868 181.05 193.571 180.338 192.164 179.622C190.87 178.959 189.476 178.289 188.012 177.653C186.869 177.15 185.666 176.667 184.436 176.216C178.86 174.176 172.592 172.808 166.703 173.59Z" fill="#8CD0F3"/>
<path d="M141.445 182.139C141.445 182.139 148.162 183.135 154.572 183.871C157.023 184.153 159.427 184.397 161.396 184.532L161.67 184.551C162.432 184.601 163.138 184.633 163.738 184.644C164.69 184.661 165.402 184.62 165.758 184.505L163.905 173.32C163.905 173.32 161.621 173.345 158.241 173.51L157.502 173.55C156.8 173.59 156.059 173.636 155.286 173.689C154.182 173.765 153.019 173.857 151.819 173.967C146.027 174.498 139.467 175.452 135.312 177.17C126.472 180.829 141.445 182.139 141.445 182.139Z" fill="#8CD0F3"/>
<path d="M110.484 187.765V190.75C110.484 190.75 115.307 190.819 114.273 189.856C113.604 189.216 112.996 188.515 112.458 187.761L110.484 187.765Z" fill="#8CD0F3"/>
<path d="M103.259 190.439L107.176 190.745V187.157C107.176 187.157 105.361 184.607 103.547 187.433L103.442 187.598L103.259 190.439Z" fill="#8CD0F3"/>
<path d="M227.395 216.002C221.205 216.002 216.187 210.984 216.187 204.794C216.187 198.604 221.205 193.585 227.395 193.585C233.585 193.585 238.604 198.604 238.604 204.794C238.604 210.984 233.585 216.002 227.395 216.002Z" fill="#182A7C"/>
<path d="M218.404 204.786C218.4 207.099 219.284 209.325 220.874 211.004C222.465 212.684 224.639 213.688 226.949 213.81C229.258 213.932 231.526 213.163 233.285 211.66C235.043 210.158 236.157 208.037 236.397 205.737C236.636 203.436 235.983 201.132 234.572 199.299C233.161 197.466 231.101 196.246 228.815 195.889C226.53 195.533 224.195 196.067 222.293 197.383C220.391 198.698 219.067 200.694 218.594 202.958C218.469 203.56 218.405 204.172 218.404 204.786Z" fill="#3F8FFE"/>
<path opacity="0.5" d="M227.409 212.521C223.141 212.521 219.681 209.053 219.681 204.774C219.681 200.495 223.141 197.027 227.409 197.027C231.677 197.027 235.137 200.495 235.137 204.774C235.137 209.053 231.677 212.521 227.409 212.521Z" fill="#18218A"/>
<path d="M224.825 196.127V196.454L227.397 204.971L229.461 195.986C227.93 195.629 226.332 195.678 224.825 196.127Z" fill="#3F8FFE"/>
<path d="M224.842 213.432C226.315 213.868 227.875 213.922 229.375 213.588L227.397 204.972L224.842 213.432Z" fill="#3F8FFE"/>
<path d="M218.406 204.779C218.405 205.719 218.55 206.653 218.836 207.548H218.872L227.389 204.975L218.581 202.953C218.461 203.555 218.403 204.166 218.406 204.779Z" fill="#3F8FFE"/>
<path d="M227.396 204.973L235.912 207.545H235.979C236.453 206.058 236.538 204.475 236.225 202.946L227.396 204.973Z" fill="#3F8FFE"/>
<path d="M227.406 205.765C226.861 205.765 226.418 205.322 226.418 204.777C226.418 204.231 226.861 203.789 227.406 203.789C227.952 203.789 228.395 204.231 228.395 204.777C228.395 205.322 227.952 205.765 227.406 205.765Z" fill="#182A7C"/>
<path d="M126.551 216.002C120.361 216.002 115.343 210.984 115.343 204.794C115.343 198.604 120.361 193.585 126.551 193.585C132.742 193.585 137.76 198.604 137.76 204.794C137.76 210.984 132.742 216.002 126.551 216.002Z" fill="#182A7C"/>
<path d="M117.56 204.786C117.556 207.099 118.44 209.325 120.031 211.004C121.621 212.684 123.795 213.688 126.105 213.81C128.415 213.932 130.683 213.163 132.441 211.66C134.199 210.158 135.313 208.037 135.553 205.737C135.793 203.436 135.14 201.132 133.729 199.299C132.318 197.466 130.257 196.246 127.972 195.889C125.687 195.533 123.352 196.067 121.449 197.383C119.547 198.698 118.223 200.694 117.75 202.958C117.625 203.56 117.561 204.172 117.56 204.786Z" fill="#3F8FFE"/>
<path opacity="0.5" d="M126.561 212.521C122.293 212.521 118.833 209.053 118.833 204.774C118.833 200.495 122.293 197.027 126.561 197.027C130.829 197.027 134.289 200.495 134.289 204.774C134.289 209.053 130.829 212.521 126.561 212.521Z" fill="#18218A"/>
<path d="M123.979 196.127V196.454L126.551 204.971L128.615 195.986C127.084 195.629 125.486 195.678 123.979 196.127Z" fill="#3F8FFE"/>
<path d="M123.996 213.432C125.469 213.868 127.029 213.922 128.529 213.588L126.551 204.972L123.996 213.432Z" fill="#3F8FFE"/>
<path d="M117.559 204.781C117.557 205.721 117.702 206.655 117.989 207.549H118.033L126.551 204.975L117.743 202.953C117.62 203.555 117.558 204.167 117.559 204.781Z" fill="#3F8FFE"/>
<path d="M126.55 204.973L135.067 207.545H135.133C135.608 206.058 135.692 204.475 135.379 202.946L126.55 204.973Z" fill="#3F8FFE"/>
<path d="M126.563 205.765C126.017 205.765 125.575 205.322 125.575 204.777C125.575 204.231 126.017 203.789 126.563 203.789C127.108 203.789 127.551 204.231 127.551 204.777C127.551 205.322 127.108 205.765 126.563 205.765Z" fill="#182A7C"/>
<path opacity="0.2" d="M192.163 179.636L194.979 185.312H198.092L196.011 181.731C194.863 181.064 193.57 180.354 192.163 179.636Z" fill="white"/>
<path opacity="0.2" d="M184.437 176.226L187.242 185.302H191.381L188.011 177.659C186.861 177.16 185.665 176.681 184.437 176.226Z" fill="white"/>
<path opacity="0.2" d="M155.281 173.7L161.391 184.535L161.665 184.554C162.426 184.604 163.133 184.636 163.732 184.648L158.236 173.523L157.497 173.563C156.804 173.601 156.058 173.647 155.281 173.7Z" fill="white"/>
<path opacity="0.2" d="M201.512 185.281L205 209.306L175.868 208.668L171.085 185.385L201.512 185.281Z" stroke="white" stroke-miterlimit="10"/>
<path opacity="0.5" d="M147.386 210.474C147.807 210.664 148.799 211.167 148.942 211.957H213.984L215.316 211.946C215.033 211.47 214.779 210.978 214.555 210.472L147.386 210.474Z" fill="#18218A"/>
<path opacity="0.1" d="M174.635 200.367H174.701C174.701 200.367 172.512 199.777 174.635 200.367Z" fill="black"/>
<path opacity="0.1" d="M156.534 211.39V211.715C156.559 211.608 156.559 211.497 156.534 211.39Z" fill="black"/>
<g opacity="0.05">
<path opacity="0.05" d="M182.593 217.11C183.124 217.346 188.431 215.695 188.431 215.695C188.496 215.182 188.49 214.663 188.414 214.151C188.718 214.886 188.549 216.109 188.549 216.109C188.549 216.109 183.242 217.759 182.711 217.523C182.536 217.445 182.367 216.992 182.218 216.419C182.336 216.786 182.462 217.057 182.593 217.11Z" fill="black"/>
<path opacity="0.05" d="M185.665 201.944C185.709 202.064 185.745 202.186 185.775 202.31C185.775 202.31 187.055 209.95 187.818 212.781C187.112 210.483 185.779 202.624 185.665 201.944Z" fill="black"/>
<path opacity="0.05" d="M177.817 221.587C177.817 221.587 181.768 215.875 181.591 213.209C181.591 213.209 181.633 213.541 181.707 214.009C181.528 216.796 177.935 222.002 177.935 222.002C175.188 222.002 173.96 220.056 173.429 218.013C174.015 219.894 175.255 221.587 177.817 221.587Z" fill="black"/>
</g>
</svg>
