<svg width="128" height="128" viewBox="0 0 128 128" fill="none" xmlns="http://www.w3.org/2000/svg">
<g clip-path="url(#clip0_10013_55738)">
<path d="M99.9782 51.8054C99.9782 51.8054 101.224 50.5504 101.224 44.7329C101.224 36.2899 98.1052 30.2031 98.1052 30.2031H87.3612C87.3612 30.2031 84.2427 36.2896 84.2427 44.7329C84.2427 50.5501 85.4882 51.8054 85.4882 51.8054L75.8994 59.4401C74.3524 60.6719 73.4512 62.5414 73.4512 64.5189V124.157C73.4512 126.28 75.1722 128.001 77.2949 128.001H108.171C110.294 128.001 112.015 126.28 112.015 124.157V64.5189C112.015 62.5414 111.114 60.6719 109.567 59.4401L99.9782 51.8054Z" fill="#FD9727"/>
<path d="M109.567 59.4401L99.9785 51.8054C99.9785 51.8054 101.224 50.5504 101.224 44.7329C101.224 36.2899 98.1055 30.2031 98.1055 30.2031H90.0462C89.779 34.6966 89.391 40.1771 89.0547 44.7226C88.6355 50.3909 91.0462 55.8994 95.4927 59.4399C97.0397 60.6716 97.941 62.5411 97.941 64.5186V124.157C97.941 126.28 96.22 128.001 94.0972 128.001H108.172C110.294 128.001 112.015 126.28 112.015 124.157V64.5189C112.015 62.5414 111.114 60.6719 109.567 59.4401Z" fill="#E57F23"/>
<path d="M112.016 68.3789H73.4512V119.931H112.016V68.3789Z" fill="#4A4256"/>
<path d="M101.218 44.1474C101.079 36.0104 98.106 30.2031 98.106 30.2031H87.362C87.362 30.2031 84.3888 36.0106 84.25 44.1474H101.218Z" fill="#4A4256"/>
<path d="M39.5929 53.0252V40.3047H29.8624V53.0252C29.8624 56.9804 26.9147 60.3154 22.9894 60.8009C18.9877 61.2959 15.9824 64.6959 15.9824 68.7282V124.481C15.9824 126.424 17.5579 128 19.5014 128H49.9537C51.8972 128 53.4727 126.424 53.4727 124.481V68.7282C53.4727 64.6959 50.4674 61.2959 46.4657 60.8009C42.5407 60.3154 39.5929 56.9804 39.5929 53.0252Z" fill="#77D057"/>
<path d="M46.4673 60.8009C42.542 60.3154 39.5943 56.9804 39.5943 53.0252V40.3047H32.767V124.481C32.767 126.424 31.1915 128 29.248 128H49.9553C51.8988 128 53.4743 126.424 53.4743 124.481V68.7282C53.4743 64.6959 50.469 61.2959 46.4673 60.8009Z" fill="#68B543"/>
<path d="M39.9648 51.9347H29.4933C28.95 51.9347 28.5098 51.4944 28.5098 50.9512V41.2882C28.5098 40.7449 28.95 40.3047 29.4933 40.3047H39.9648C40.508 40.3047 40.9483 40.7449 40.9483 41.2882V50.9512C40.9483 51.4944 40.508 51.9347 39.9648 51.9347Z" fill="#602952"/>
<path d="M22.9894 60.801C18.9877 61.296 15.9824 64.696 15.9824 68.7282V124.481C15.9824 126.424 17.5579 128 19.5014 128H49.9537C51.8972 128 53.4727 126.424 53.4727 124.481V68.7282C53.4727 64.696 50.4674 61.296 46.4657 60.801C45.4099 60.6705 24.0454 60.6705 22.9894 60.801Z" fill="#306318"/>
<path d="M53.1703 66.542C53.0383 66.0775 52.865 65.6297 52.6548 65.2027C52.5495 64.9892 52.4353 64.781 52.312 64.5787C51.372 63.0347 49.9198 61.8297 48.1738 61.207C47.6308 61.0132 47.0603 60.8747 46.467 60.8012C45.877 60.7282 38.9508 60.696 32.7668 60.7045V124.481C32.7668 126.424 31.1913 128 29.248 128H49.955C50.8053 128 51.5853 127.698 52.1935 127.196C52.8018 126.694 53.2385 125.992 53.4028 125.19C53.4498 124.961 53.4743 124.724 53.4743 124.481V68.7285C53.474 67.9725 53.3683 67.2387 53.1703 66.542Z" fill="#2C5114"/>
<path d="M48.1391 112.23V72.9837C48.1391 71.5947 47.0131 70.4688 45.6241 70.4688H23.8334C22.4444 70.4688 21.3184 71.5947 21.3184 72.9837V112.23C21.3184 113.229 22.1279 114.039 23.1264 114.039H46.3309C47.3296 114.038 48.1391 113.229 48.1391 112.23Z" fill="#E9EAEB"/>
<path d="M32.7659 114.038H46.3301C47.3286 114.038 48.1381 113.229 48.1381 112.23V72.9837C48.1381 71.5947 47.0121 70.4688 45.6231 70.4688H32.7656L32.7659 114.038Z" fill="#B6D1C6"/>
<path d="M34.7263 88.7142C38.3149 88.7142 41.224 85.8051 41.224 82.2165C41.224 78.6279 38.3149 75.7188 34.7263 75.7188C31.1377 75.7188 28.2285 78.6279 28.2285 82.2165C28.2285 85.8051 31.1377 88.7142 34.7263 88.7142Z" fill="#602952"/>
<path d="M32.7656 88.412C33.3846 88.608 34.0436 88.7143 34.7276 88.7143C38.3161 88.7143 41.2254 85.8052 41.2254 82.2165C41.2254 78.628 38.3164 75.7188 34.7276 75.7188C34.0436 75.7188 33.3849 75.825 32.7656 76.021V88.412Z" fill="#512047"/>
<path d="M40.1285 109.993H29.3285C28.2778 109.993 27.4258 109.141 27.4258 108.09C27.4258 107.04 28.2778 106.188 29.3285 106.188H40.1285C41.1793 106.188 42.0313 107.04 42.0313 108.09C42.0313 109.141 41.1795 109.993 40.1285 109.993Z" fill="white"/>
<path d="M48.1364 94.0469H21.3164V100.869H48.1364V94.0469Z" fill="#FC502A"/>
<path d="M48.1401 94.0469H32.7676V100.869H48.1401V94.0469Z" fill="#E60D28"/>
<path d="M79.5069 117.7C78.8719 117.24 78.5384 116.468 78.5519 115.684L79.8056 43.5479C79.8514 42.4362 79.4381 41.3544 78.6629 40.5562L71.3076 32.9844C70.2191 31.8639 69.6101 30.3629 69.6101 28.8007V0.00390625H63.2391H56.8681V28.8009C56.8681 30.3632 56.2591 31.8639 55.1706 32.9847L47.8154 40.5564C47.0401 41.3547 46.6269 42.4364 46.6726 43.5482L47.9264 115.684C47.9401 116.469 47.6066 117.24 46.9714 117.7C46.5404 118.013 46.2661 118.526 46.2819 119.103L46.4499 125.316C46.4901 126.809 47.7124 127.999 49.2059 127.999H63.2391H77.2724C78.7661 127.999 79.9881 126.809 80.0284 125.316L80.1964 119.103C80.2121 118.526 79.9379 118.013 79.5069 117.7Z" fill="#CDEAE0"/>
<path d="M79.5059 117.7C78.8709 117.24 78.5374 116.468 78.5509 115.684L79.8047 43.5479C79.8504 42.4362 79.4372 41.3544 78.6619 40.5562L71.3067 32.9844C70.2182 31.8637 69.6092 30.3629 69.6092 28.8007V0.00390625H63.2382H56.8672V28.0622C56.8672 28.5437 57.0117 29.0139 57.2817 29.4124L64.8352 40.5562C65.6104 41.3544 66.0237 42.4362 65.9779 43.5479L64.7242 115.684C64.7104 116.468 65.0439 117.24 65.6792 117.7C66.1102 118.013 66.3844 118.525 66.3687 119.102L66.2007 125.316C66.1604 126.809 64.9382 127.998 63.4447 127.998H77.2717C78.7654 127.998 79.9874 126.809 80.0277 125.316L80.1957 119.102C80.2112 118.526 79.9369 118.013 79.5059 117.7Z" fill="#B6D1C6"/>
<path d="M69.2413 24.8008H57.2388C56.657 24.8008 56.1855 24.3293 56.1855 23.7475V1.05325C56.1855 0.4715 56.657 0 57.2388 0H69.2413C69.823 0 70.2945 0.4715 70.2945 1.05325V23.7475C70.2945 24.3293 69.8228 24.8008 69.2413 24.8008Z" fill="#E60D28"/>
<path d="M54.4362 57.0779C60.0847 53.3659 66.3922 53.3659 72.0437 57.0852C72.5702 57.4317 73.2732 57.0732 73.2992 56.4432L73.4502 52.7724C73.5027 51.4969 72.7589 50.3199 71.5824 49.8237C66.1692 47.5404 60.3154 47.5374 54.8994 49.8177C53.7222 50.3134 52.9774 51.4907 53.0299 52.7672L53.181 56.4354C53.2072 57.0654 53.9097 57.4239 54.4362 57.0779Z" fill="#FC502A"/>
<path d="M70.4515 108.282H56.0277C54.977 108.282 54.125 107.43 54.125 106.379C54.125 105.329 54.977 104.477 56.0277 104.477H70.4515C71.5022 104.477 72.3543 105.329 72.3543 106.379C72.3543 107.43 71.5025 108.282 70.4515 108.282Z" fill="white"/>
<path d="M70.4515 114.251H56.0277C54.977 114.251 54.125 113.399 54.125 112.348C54.125 111.297 54.977 110.445 56.0277 110.445H70.4515C71.5022 110.445 72.3543 111.297 72.3543 112.348C72.3543 113.399 71.5025 114.251 70.4515 114.251Z" fill="white"/>
<path d="M70.5914 81.1391H55.8889C55.2154 81.1391 54.6661 80.5998 54.6539 79.9263L54.4416 68.3596C54.4289 67.6686 54.9856 67.1016 55.6766 67.1016H70.8036C71.4946 67.1016 72.0514 67.6686 72.0386 68.3596L71.8264 79.9263C71.8141 80.5996 71.2646 81.1391 70.5914 81.1391Z" fill="#FC502A"/>
<path d="M70.2936 4.84375H56.1836V8.64925H70.2936V4.84375Z" fill="#E9EAEB"/>
<path d="M112.016 68.3789H97.9414V119.931H112.016V68.3789Z" fill="#352F3F"/>
<path d="M101.461 82.7835C95.5742 80.157 89.9065 80.151 84.0052 82.7838C83.3082 83.0948 82.4882 82.8265 82.099 82.17C81.6105 81.346 81.122 80.522 80.6335 79.6977C80.1755 78.925 80.489 77.927 81.3042 77.5498C88.8962 74.0363 96.5672 74.0347 104.162 77.5498C104.978 77.927 105.291 78.9252 104.833 79.6977C104.345 80.5217 103.856 81.3457 103.368 82.17C102.978 82.8265 102.158 83.0945 101.461 82.7835Z" fill="#E9EAEB"/>
<path d="M92.7344 102.176C98.0447 102.176 102.35 99.2245 102.35 95.5839C102.35 91.9434 98.0447 88.9922 92.7344 88.9922C87.424 88.9922 83.1191 91.9434 83.1191 95.5839C83.1191 99.2245 87.424 102.176 92.7344 102.176Z" fill="#E9EAEB"/>
<path d="M102.708 112.567H82.7602C81.7094 112.567 80.8574 111.715 80.8574 110.664C80.8574 109.614 81.7094 108.762 82.7602 108.762H102.708C103.759 108.762 104.611 109.614 104.611 110.664C104.611 111.715 103.759 112.567 102.708 112.567Z" fill="white"/>
<path d="M97.9414 90.0469V101.127C100.593 99.9531 102.349 97.9114 102.349 95.5869C102.349 93.2626 100.592 91.2206 97.9414 90.0469Z" fill="#B6D1C6"/>
<path d="M104.163 77.5489C102.094 76.5912 100.019 75.8967 97.9414 75.4609V81.5204C99.1084 81.8362 100.281 82.2559 101.462 82.7827C102.159 83.0937 102.979 82.8257 103.368 82.1689C103.857 81.3449 104.345 80.5209 104.834 79.6967C105.292 78.9244 104.978 77.9262 104.163 77.5489Z" fill="#B6D1C6"/>
<path d="M101.218 44.1476C101.092 36.7761 98.6402 31.3164 98.1799 30.3546C98.1759 30.3464 98.1732 30.3409 98.1697 30.3331C98.1552 30.3029 98.1432 30.2781 98.1334 30.2586C98.1164 30.2241 98.1059 30.2031 98.1059 30.2031H90.0467C89.7907 34.5094 89.4237 39.7199 89.0977 44.1474L101.218 44.1476Z" fill="#352F3F"/>
<path d="M99.2018 32.0368H86.2648C85.6925 32.0368 85.2285 31.5728 85.2285 31.0005V19.6808C85.2285 19.1085 85.6925 18.6445 86.2648 18.6445H99.2018C99.774 18.6445 100.238 19.1085 100.238 19.6808V31.0005C100.238 31.5728 99.774 32.0368 99.2018 32.0368Z" fill="#4A4256"/>
<path d="M100.24 23.4766H85.2305V27.0041H100.24V23.4766Z" fill="#E9EAEB"/>
<path d="M70.8034 67.1016H65.5702L65.3262 81.1388H70.5912C71.2647 81.1388 71.8139 80.5996 71.8262 79.9261L72.0384 68.3593C72.0512 67.6686 71.4944 67.1016 70.8034 67.1016Z" fill="#E60D28"/>
<path d="M71.5828 49.8263C69.7278 49.0438 67.8208 48.5358 65.8976 48.2891L65.7891 54.5266C67.9178 54.9056 70.0228 55.7573 72.0436 57.0876C72.5701 57.4341 73.2731 57.0756 73.2991 56.4456L73.4501 52.7748C73.5031 51.4993 72.7593 50.3226 71.5828 49.8263Z" fill="#E60D28"/>
</g>
<defs>
<clipPath id="clip0_10013_55738">
<rect width="128" height="128" fill="white"/>
</clipPath>
</defs>
</svg>
