<svg width="116" height="34" viewBox="0 0 116 34" fill="none" xmlns="http://www.w3.org/2000/svg">
<rect width="116" height="34" rx="4" fill="white"/>
<path d="M24.9579 16.0506C24.9345 13.2507 27.2495 11.8899 27.3511 11.8273C26.0372 9.91902 24.0038 9.65311 23.2921 9.62964C21.5871 9.44976 19.9291 10.6542 19.061 10.6542C18.1772 10.6542 16.832 9.65311 15.3929 9.67657C13.5394 9.70785 11.7953 10.7793 10.849 12.453C8.88592 15.8551 10.3484 20.8605 12.2333 23.6135C13.1796 24.9587 14.2745 26.4681 15.7214 26.4134C17.1292 26.3586 17.661 25.514 19.3581 25.514C21.0475 25.514 21.5402 26.4134 23.0105 26.3821C24.5278 26.3586 25.4741 25.0291 26.3892 23.6682C27.4763 22.1275 27.9142 20.6024 27.9299 20.5242C27.8908 20.5086 24.9892 19.398 24.9579 16.0506Z" fill="black"/>
<path d="M22.1816 7.8007C22.9402 6.85437 23.4564 5.56392 23.3156 4.25C22.2207 4.29693 20.8442 5.00863 20.0543 5.93932C19.3582 6.76052 18.7325 8.0979 18.889 9.35707C20.1247 9.45092 21.3917 8.7314 22.1816 7.8007Z" fill="black"/>
<path d="M45.3865 22.157H43.4156L42.3363 18.7627H38.5823L37.5577 22.157H35.6416L39.3565 10.6055H41.6559L45.3865 22.157ZM42.0157 17.3393L41.038 14.3282C40.9364 14.0154 40.7409 13.2959 40.4593 12.154H40.4202C40.3029 12.6467 40.123 13.3741 39.8727 14.3282L38.9108 17.3393H42.0157Z" fill="black"/>
<path d="M54.9359 17.8952C54.9359 19.3108 54.5527 20.4292 53.7784 21.2504C53.0902 21.9855 52.2299 22.3453 51.2131 22.3453C50.1104 22.3453 49.3205 21.9543 48.8356 21.1643V25.5363H46.982V16.5656C46.982 15.6741 46.9585 14.7668 46.9116 13.8283H48.5384L48.64 15.15H48.6713C49.2892 14.1568 50.2277 13.6562 51.479 13.6562C52.4645 13.6562 53.2779 14.0473 53.9348 14.8216C54.6074 15.6037 54.9359 16.6204 54.9359 17.8952ZM53.0511 17.9578C53.0511 17.1444 52.8712 16.4796 52.5036 15.9556C52.1047 15.4081 51.5651 15.1344 50.8925 15.1344C50.4389 15.1344 50.0244 15.2908 49.6489 15.588C49.2814 15.893 49.0311 16.2841 48.9216 16.7768C48.8669 17.0036 48.8356 17.1913 48.8356 17.3399V18.732C48.8356 19.3342 49.0233 19.8504 49.3909 20.2649C49.7584 20.6795 50.2433 20.8906 50.8377 20.8906C51.5338 20.8906 52.0734 20.6169 52.4645 20.0851C52.8555 19.5454 53.0511 18.8415 53.0511 17.9578Z" fill="black"/>
<path d="M64.5087 17.8952C64.5087 19.3108 64.1254 20.4292 63.3512 21.2504C62.6629 21.9855 61.8026 22.3453 60.7859 22.3453C59.6831 22.3453 58.8932 21.9543 58.4083 21.1643V25.5363H56.5548V16.5656C56.5548 15.6741 56.5313 14.7668 56.4844 13.8283H58.1111L58.2128 15.15H58.2441C58.8619 14.1568 59.8005 13.6562 61.0518 13.6562C62.0372 13.6562 62.8506 14.0473 63.5076 14.8216C64.1802 15.6037 64.5087 16.6204 64.5087 17.8952ZM62.6238 17.9578C62.6238 17.1444 62.4439 16.4796 62.0763 15.9556C61.6775 15.4081 61.1378 15.1344 60.4652 15.1344C60.0116 15.1344 59.5971 15.2908 59.2217 15.588C58.8541 15.893 58.6117 16.2841 58.4944 16.7768C58.4396 17.0036 58.4083 17.1913 58.4083 17.3399V18.732C58.4083 19.3342 58.596 19.8504 58.9636 20.2649C59.3312 20.6795 59.8161 20.8906 60.4105 20.8906C61.1065 20.8906 61.654 20.6169 62.0372 20.0851C62.4361 19.5454 62.6238 18.8415 62.6238 17.9578Z" fill="black"/>
<path d="M75.2235 18.9193C75.2235 19.9047 74.8794 20.7025 74.199 21.3203C73.4482 21.9929 72.4002 22.3292 71.055 22.3292C69.8115 22.3292 68.8182 22.0868 68.0674 21.6097L68.4975 20.069C69.3109 20.5461 70.2025 20.7885 71.1723 20.7885C71.8684 20.7885 72.4158 20.6321 72.799 20.3192C73.1901 20.0064 73.3856 19.5841 73.3856 19.0601C73.3856 18.5908 73.2214 18.1998 72.9085 17.8791C72.5879 17.5585 72.0561 17.2613 71.3131 16.9875C69.2718 16.2289 68.2629 15.1261 68.2629 13.6793C68.2629 12.7329 68.6227 11.9587 69.3344 11.3486C70.0461 10.7464 70.9924 10.4414 72.1734 10.4414C73.2214 10.4414 74.0973 10.6213 74.7934 10.9889L74.3241 12.4905C73.6672 12.1385 72.932 11.9587 72.103 11.9587C71.4538 11.9587 70.9377 12.1229 70.5701 12.4357C70.2651 12.7251 70.1086 13.0692 70.1086 13.4838C70.1086 13.9374 70.2885 14.3206 70.6405 14.61C70.9455 14.8837 71.5086 15.1809 72.322 15.5016C73.3152 15.9004 74.0426 16.3697 74.5118 16.9093C74.9889 17.449 75.2235 18.1216 75.2235 18.9193Z" fill="black"/>
<path d="M81.3551 15.2186H79.3138V19.262C79.3138 20.2865 79.6736 20.8027 80.3931 20.8027C80.7216 20.8027 80.9953 20.7714 81.2143 20.7167L81.269 22.1245C80.9015 22.2574 80.4244 22.3278 79.83 22.3278C79.0948 22.3278 78.5317 22.101 78.1172 21.6552C77.7027 21.2094 77.4994 20.4586 77.4994 19.4106V15.2108H76.2871V13.8265H77.4994V12.3014L79.3138 11.7539V13.8265H81.3551V15.2186Z" fill="black"/>
<path d="M90.5366 17.9265C90.5366 19.2091 90.169 20.2571 89.4417 21.0783C88.6752 21.923 87.6585 22.3453 86.3915 22.3453C85.1715 22.3453 84.1939 21.9386 83.4665 21.1331C82.7392 20.3275 82.3794 19.303 82.3794 18.0672C82.3794 16.7768 82.7548 15.721 83.4978 14.8998C84.2486 14.0786 85.2575 13.6641 86.5245 13.6641C87.7446 13.6641 88.73 14.0708 89.473 14.8841C90.1847 15.6662 90.5366 16.6829 90.5366 17.9265ZM88.6205 17.9656C88.6205 17.1991 88.4563 16.55 88.1278 16.0025C87.7367 15.3377 87.1814 15.0093 86.4619 15.0093C85.7189 15.0093 85.148 15.3377 84.7648 16.0025C84.4285 16.55 84.2721 17.2148 84.2721 18.0047C84.2721 18.7711 84.4363 19.4281 84.7648 19.9677C85.1636 20.6325 85.7268 20.961 86.4463 20.961C87.1502 20.961 87.7055 20.6247 88.1121 19.9521C88.4484 19.389 88.6205 18.732 88.6205 17.9656Z" fill="black"/>
<path d="M96.559 15.4551C96.3791 15.4238 96.1836 15.4081 95.9724 15.4081C95.3233 15.4081 94.8149 15.6506 94.463 16.1433C94.158 16.5735 94.0016 17.1287 94.0016 17.7857V22.1576H92.148V16.4483C92.148 15.4863 92.1324 14.6104 92.0933 13.8283H93.7044L93.7748 15.4238H93.8295C94.025 14.8763 94.33 14.4305 94.7524 14.102C95.1669 13.8048 95.6127 13.6562 96.0898 13.6562C96.2618 13.6562 96.4182 13.6719 96.5512 13.6875L96.559 15.4551Z" fill="black"/>
<path d="M104.834 17.598C104.834 17.9265 104.81 18.2081 104.763 18.4349H99.2104C99.2339 19.2561 99.4998 19.8896 100.016 20.3197C100.485 20.7029 101.087 20.8985 101.83 20.8985C102.652 20.8985 103.402 20.7655 104.075 20.5074L104.364 21.79C103.574 22.1342 102.644 22.3062 101.572 22.3062C100.282 22.3062 99.2652 21.923 98.53 21.1644C97.7948 20.4057 97.4272 19.3812 97.4272 18.1064C97.4272 16.855 97.7714 15.807 98.4596 14.9702C99.1791 14.0786 100.149 13.6328 101.369 13.6328C102.566 13.6328 103.481 14.0786 104.091 14.9702C104.583 15.6897 104.834 16.5578 104.834 17.598ZM103.066 17.1209C103.082 16.5735 102.957 16.0964 102.706 15.6975C102.386 15.1814 101.893 14.9233 101.236 14.9233C100.634 14.9233 100.141 15.1735 99.7657 15.6741C99.4607 16.0729 99.273 16.5578 99.2182 17.1131L103.066 17.1209Z" fill="black"/>
</svg>
