<svg width="239" height="141" viewBox="0 0 239 141" fill="none" xmlns="http://www.w3.org/2000/svg">
<path d="M234.308 118.265H61.1003C59.9179 118.263 58.7844 117.793 57.9483 116.957C57.1122 116.121 56.642 114.987 56.6406 113.805V7.00166C56.6416 6.13544 56.9861 5.30497 57.5986 4.69245C58.2111 4.07993 59.0416 3.73537 59.9078 3.73438H235.444C236.325 3.73538 237.17 4.08588 237.793 4.70899C238.416 5.33211 238.767 6.17694 238.768 7.05814V113.805C238.766 114.987 238.296 116.121 237.46 116.957C236.624 117.793 235.49 118.263 234.308 118.265Z" fill="#F2F2F2"/>
<path d="M227.989 111.946H66.5644C64.1981 111.946 62.2729 110.143 62.2729 107.927V14.9218C62.2729 13.2784 63.6995 11.9414 65.453 11.9414H229.048C230.831 11.9414 232.281 13.3005 232.281 14.9709V107.927C232.281 110.143 230.356 111.946 227.989 111.946Z" fill="white"/>
<path d="M238.705 6.7436H56.5776V4.47312C56.5794 3.28682 57.0516 2.14964 57.8907 1.31106C58.7298 0.472481 59.8672 0.000979367 61.0535 0H234.229C235.415 0.000973655 236.553 0.472471 237.392 1.31105C238.231 2.14964 238.703 3.28682 238.705 4.47312V6.7436Z" fill="#CCCCCC"/>
<path d="M64.7114 4.53812C65.3508 4.53812 65.8692 4.01979 65.8692 3.38039C65.8692 2.74099 65.3508 2.22266 64.7114 2.22266C64.072 2.22266 63.5537 2.74099 63.5537 3.38039C63.5537 4.01979 64.072 4.53812 64.7114 4.53812Z" fill="white"/>
<path d="M69.106 4.53812C69.7454 4.53812 70.2637 4.01979 70.2637 3.38039C70.2637 2.74099 69.7454 2.22266 69.106 2.22266C68.4666 2.22266 67.9482 2.74099 67.9482 3.38039C67.9482 4.01979 68.4666 4.53812 69.106 4.53812Z" fill="white"/>
<path d="M73.5005 4.53812C74.1399 4.53812 74.6582 4.01979 74.6582 3.38039C74.6582 2.74099 74.1399 2.22266 73.5005 2.22266C72.8611 2.22266 72.3428 2.74099 72.3428 3.38039C72.3428 4.01979 72.8611 4.53812 73.5005 4.53812Z" fill="white"/>
<path d="M92.9584 94.8788H52.7299C51.4759 94.8774 50.2737 94.3786 49.3869 93.4919C48.5002 92.6052 48.0014 91.4029 48 90.1489V42.5376C48.0011 41.5997 48.3741 40.7005 49.0372 40.0373C49.7004 39.3741 50.5996 39.0011 51.5374 39H94.0944C95.0473 39.0011 95.9608 39.3801 96.6345 40.0539C97.3083 40.7277 97.6873 41.6412 97.6884 42.594V90.1489C97.687 91.4029 97.1882 92.6052 96.3014 93.4919C95.4147 94.3786 94.2125 94.8774 92.9584 94.8788Z" fill="white"/>
<path d="M92.329 94.6484H52.1006C50.8465 94.647 49.6443 94.1482 48.7575 93.2614C47.8708 92.3747 47.372 91.1725 47.3706 89.9184V42.3071C47.3717 41.3692 47.7447 40.4701 48.4078 39.8069C49.071 39.1437 49.9702 38.7706 50.908 38.7695H93.465C94.4179 38.7706 95.3314 39.1496 96.0051 39.8234C96.6789 40.4972 97.0579 41.4107 97.059 42.3636V89.9184C97.0576 91.1725 96.5588 92.3747 95.6721 93.2614C94.7853 94.1482 93.5831 94.647 92.329 94.6484ZM50.908 39.3101C50.1135 39.311 49.3517 39.6271 48.7899 40.1889C48.2281 40.7508 47.912 41.5125 47.9112 42.3071V89.9184C47.9124 91.0291 48.3542 92.094 49.1396 92.8794C49.925 93.6648 50.9898 94.1066 52.1006 94.1078H92.329C93.4397 94.1066 94.5046 93.6648 95.29 92.8794C96.0754 92.094 96.5172 91.0291 96.5184 89.9184V42.3636C96.5175 41.554 96.1955 40.7779 95.6231 40.2055C95.0507 39.633 94.2745 39.311 93.465 39.3101H50.908Z" fill="#3F3D56"/>
<path d="M49.0174 76.5967C48.6625 76.7755 48.2728 76.8744 47.8757 76.8863C47.4785 76.8983 47.0836 76.823 46.7187 76.6658C46.3537 76.5086 46.0277 76.2733 45.7636 75.9765C45.4994 75.6796 45.3036 75.3285 45.1898 74.9478L35.5405 74.5264L38.4838 70.4609L47.1957 71.4843C47.8479 71.3356 48.5321 71.4314 49.1184 71.7533C49.7048 72.0753 50.1527 72.6012 50.3773 73.2314C50.6018 73.8616 50.5874 74.5522 50.3368 75.1724C50.0861 75.7927 49.6167 76.2994 49.0174 76.5967Z" fill="#FFB8B8"/>
<path d="M22.2274 72.7407L16.921 62.521C16.1899 61.1167 15.8672 59.5355 15.9897 57.957C16.1122 56.3785 16.675 54.866 17.614 53.5913C17.8031 53.3389 18.0037 53.0935 18.2103 52.8619C19.0532 51.9152 20.1036 51.1765 21.2794 50.7033C22.4553 50.2302 23.7247 50.0355 24.9883 50.1345C26.2945 50.2232 27.5625 50.613 28.6931 51.2732C29.8237 51.9335 30.7862 52.8463 31.5054 53.9403L34.0536 57.7924C34.3145 58.0254 37.8222 61.2622 36.5173 65.474L36.293 69.5128C36.2773 69.7752 36.1775 70.0257 36.0083 70.2269C35.8391 70.4281 35.6096 70.5695 35.3537 70.6299L23.5821 73.3648C23.319 73.4262 23.043 73.3982 22.7977 73.2852C22.5523 73.1722 22.3517 72.9806 22.2274 72.7407L22.2274 72.7407Z" fill="#246EB2"/>
<path d="M18.5057 92.1408C18.2286 91.8561 18.0173 91.514 17.8867 91.1388C17.7561 90.7635 17.7093 90.3642 17.7498 89.9689C17.7902 89.5736 17.9168 89.192 18.1206 88.8509C18.3245 88.5099 18.6006 88.2177 18.9296 87.9949L16.4351 78.6641L21.1966 80.2512L22.8355 88.8686C23.1731 89.4461 23.2872 90.1274 23.156 90.7834C23.0249 91.4394 22.6577 92.0245 22.124 92.4278C21.5903 92.8312 20.9272 93.0248 20.2603 92.9719C19.5935 92.919 18.9692 92.6233 18.5057 92.1408H18.5057Z" fill="#FFB8B8"/>
<path d="M17.3362 87.7238C17.1613 87.6391 17.0095 87.5133 16.8937 87.3573C16.7779 87.2012 16.7015 87.0195 16.671 86.8276L15.0284 70.8917C14.8073 69.5978 14.7746 68.2787 14.9314 66.9754L16.9004 55.0509C16.9825 54.3549 17.3299 53.7174 17.8704 53.2712C18.4108 52.8251 19.1025 52.6046 19.8015 52.6557C20.1691 52.6819 20.5276 52.7824 20.8553 52.9511C21.183 53.1198 21.4731 53.3531 21.708 53.6371C21.943 53.921 22.118 54.2497 22.2224 54.6031C22.3267 54.9566 22.3584 55.3276 22.3154 55.6936L20.7078 69.3726L22.5488 85.5061C22.5773 85.7484 22.5319 85.9936 22.4186 86.2096C22.3053 86.4257 22.1293 86.6024 21.9138 86.7166L18.4313 87.7112C18.2628 87.7998 18.0756 87.8472 17.8853 87.8494C17.6949 87.8516 17.5067 87.8086 17.3362 87.7238L17.3362 87.7238Z" fill="#246EB2"/>
<path d="M43.7189 136.316L46.9744 135.699L46.1422 122.848L41.3374 123.759L43.7189 136.316Z" fill="#FFB8B8"/>
<path d="M42.6865 135.41L49.0979 134.194L49.0982 134.194C49.6347 134.092 50.1861 134.097 50.7207 134.208C51.2554 134.32 51.7629 134.535 52.2143 134.843C52.6656 135.15 53.052 135.544 53.3513 136C53.6506 136.457 53.857 136.968 53.9588 137.505L53.984 137.638L43.4866 139.629L42.6865 135.41Z" fill="#2F2E41"/>
<path d="M14.9092 136.418L18.2229 136.418L19.7992 123.637L14.9087 123.637L14.9092 136.418Z" fill="#FFB8B8"/>
<path d="M14.0645 135.34L20.5901 135.34H20.5904C21.1365 135.34 21.6773 135.447 22.1818 135.656C22.6864 135.865 23.1449 136.172 23.531 136.558C23.9172 136.944 24.2235 137.402 24.4325 137.907C24.6415 138.412 24.7491 138.952 24.7491 139.498V139.634L14.0647 139.634L14.0645 135.34Z" fill="#2F2E41"/>
<path d="M24.6047 47.269C28.271 47.269 31.2431 44.2969 31.2431 40.6306C31.2431 36.9643 28.271 33.9922 24.6047 33.9922C20.9384 33.9922 17.9663 36.9643 17.9663 40.6306C17.9663 44.2969 20.9384 47.269 24.6047 47.269Z" fill="#FFB8B8"/>
<path d="M14.3638 131.284C14.2497 131.161 14.1622 131.016 14.1066 130.858C14.051 130.699 14.0286 130.531 14.0408 130.364L18.5593 89.3484C18.5204 88.9644 17.9067 82.0001 22.8862 73.0892L22.9138 73.04L36.2571 69.3398L37.7325 75.5635L47.6202 129.677C47.6556 129.99 47.5681 130.304 47.3761 130.553C47.1842 130.802 46.9029 130.967 46.5916 131.013L43.15 131.529C42.8593 131.573 42.5627 131.51 42.3149 131.352C42.0672 131.193 41.8851 130.951 41.8023 130.669L30.15 94.1726C30.1256 94.0886 30.0747 94.0147 30.0048 93.962C29.935 93.9093 29.85 93.8806 29.7625 93.8802C29.675 93.8797 29.5897 93.9076 29.5193 93.9597C29.449 94.0117 29.3974 94.0851 29.3722 94.1689L19.8128 130.795C19.7384 131.047 19.5845 131.269 19.3741 131.427C19.1637 131.585 18.9079 131.67 18.6447 131.671H15.2536C15.0867 131.671 14.9216 131.637 14.7686 131.57C14.6155 131.503 14.4778 131.406 14.3638 131.284Z" fill="#2F2E41"/>
<path d="M42.5651 75.853L28.1881 73.3879C27.2535 73.231 26.3881 72.7956 25.7051 72.1387C25.0221 71.4817 24.5534 70.6339 24.3603 69.7061L21.3583 55.5275C21.2418 54.9771 21.2467 54.408 21.3727 53.8598C21.4988 53.3116 21.7429 52.7974 22.088 52.3533C22.4332 51.9091 22.8711 51.5455 23.3711 51.2879C23.8712 51.0304 24.4215 50.885 24.9836 50.8619C25.9555 50.8266 26.9053 51.1569 27.6456 51.7876C28.3859 52.4182 28.863 53.3034 28.9827 54.2686L30.4893 66.9065L43.1722 70.2019C43.4121 70.2845 43.6201 70.4401 43.7672 70.6468C43.9142 70.8535 43.993 71.101 43.9923 71.3547L43.9869 74.6574C43.9866 74.8343 43.9477 75.009 43.8729 75.1693C43.7981 75.3296 43.6892 75.4717 43.5538 75.5856C43.4184 75.6994 43.2598 75.7824 43.089 75.8286C42.9182 75.8748 42.7394 75.8831 42.5651 75.853H42.5651Z" fill="#246EB2"/>
<path d="M30.2515 39.0873C31.3082 38.8688 32.3357 38.1657 32.618 37.1243C32.8646 36.2145 32.4997 35.2336 31.9287 34.4836C31.184 33.5556 30.1506 32.9032 28.9926 32.6301C27.8346 32.357 26.6185 32.4788 25.5377 32.9762C25.6397 32.4397 25.2362 31.9105 24.7396 31.6832C24.2256 31.4934 23.676 31.4196 23.1301 31.4671C21.403 31.4912 19.5643 31.5489 18.1362 32.5206C16.9975 33.2954 16.2745 34.5694 15.9 35.8948C15.5254 37.2202 15.4642 38.611 15.4053 39.9871C15.3021 42.3987 16.247 47.4748 16.247 47.4748C16.247 47.4748 19.5886 48.3934 21.0525 48.819C22.6256 49.2764 25.2799 49.7338 26.853 50.1912C27.2556 50.3082 27.7948 50.374 27.9972 50.0067C28.1587 49.7135 27.9719 49.3564 27.784 49.0793C26.9569 47.8593 26.0093 46.7086 25.3729 45.3789C24.7366 44.0493 24.4388 42.4695 24.9852 41.1004C25.5315 39.7314 29.1948 39.3057 30.2515 39.0873Z" fill="#2F2E41"/>
<path d="M134.484 85.8038H220.93C222.077 85.8038 223.177 85.3482 223.988 84.5372C224.799 83.7261 225.255 82.6262 225.255 81.4792V42.4105C225.255 41.2635 224.799 40.1636 223.988 39.3526C223.177 38.5416 222.077 38.0859 220.93 38.0859H134.484C133.337 38.0859 132.237 38.5416 131.426 39.3526C130.615 40.1636 130.159 41.2635 130.159 42.4105V81.4792C130.159 82.6262 130.615 83.7261 131.426 84.5372C132.237 85.3482 133.337 85.8038 134.484 85.8038Z" fill="#F2F2F2"/>
<path d="M211.492 64.1097H142.57C141.997 64.1097 141.447 63.8819 141.041 63.4764C140.636 63.0709 140.408 62.5209 140.408 61.9474C140.408 61.3739 140.636 60.824 141.041 60.4185C141.447 60.013 141.997 59.7852 142.57 59.7852H211.492C212.066 59.7852 212.616 60.013 213.021 60.4185C213.427 60.824 213.654 61.3739 213.654 61.9474C213.654 62.5209 213.427 63.0709 213.021 63.4764C212.616 63.8819 212.066 64.1097 211.492 64.1097Z" fill="white"/>
<path d="M211.492 73.2972H142.57C141.997 73.2972 141.447 73.0694 141.041 72.6639C140.636 72.2584 140.408 71.7084 140.408 71.1349C140.408 70.5615 140.636 70.0115 141.041 69.606C141.447 69.2005 141.997 68.9727 142.57 68.9727H211.492C212.066 68.9727 212.616 69.2005 213.021 69.606C213.427 70.0115 213.654 70.5615 213.654 71.1349C213.654 71.7084 213.427 72.2584 213.021 72.6639C212.616 73.0694 212.066 73.2972 211.492 73.2972Z" fill="white"/>
<path d="M199.329 54.9144H142.57C141.997 54.9144 141.447 54.6866 141.041 54.2811C140.636 53.8755 140.408 53.3256 140.408 52.7521C140.408 52.1786 140.636 51.6287 141.041 51.2232C141.447 50.8177 141.997 50.5898 142.57 50.5898H199.329C199.903 50.5898 200.453 50.8177 200.858 51.2232C201.264 51.6287 201.492 52.1786 201.492 52.7521C201.492 53.3256 201.264 53.8755 200.858 54.2811C200.453 54.6866 199.903 54.9144 199.329 54.9144Z" fill="white"/>
<path d="M64.8679 140.002H0.270283C0.198599 140.002 0.129852 139.973 0.0791638 139.922C0.0284759 139.872 0 139.803 0 139.731C0 139.66 0.0284759 139.591 0.0791638 139.54C0.129852 139.489 0.198599 139.461 0.270283 139.461H64.8679C64.9395 139.461 65.0083 139.489 65.059 139.54C65.1096 139.591 65.1381 139.66 65.1381 139.731C65.1381 139.803 65.1096 139.872 65.059 139.922C65.0083 139.973 64.9395 140.002 64.8679 140.002Z" fill="#BCD3F0"/>
</svg>
