<svg width="44" height="18" viewBox="0 0 44 18" fill="none" xmlns="http://www.w3.org/2000/svg">
<path fill-rule="evenodd" clip-rule="evenodd" d="M13.4636 1.83989C13.4176 1.83989 13.3709 1.82717 13.3292 1.80061C11.9941 0.952348 10.4482 0.503985 8.85882 0.503985C8.67731 0.503985 8.49303 0.509901 8.31151 0.521355C8.1085 0.534446 7.90411 0.555089 7.70436 0.582908C7.5676 0.601034 7.43976 0.505747 7.42078 0.368041C7.40167 0.230334 7.49783 0.103202 7.63535 0.0840687C7.84729 0.0546141 8.06413 0.0328379 8.27946 0.0188659C8.47166 0.00678198 8.66662 0.000488281 8.85882 0.000488281C10.5438 0.000488281 12.1828 0.475915 13.5985 1.37566C13.7158 1.45005 13.7504 1.60563 13.676 1.72295C13.6283 1.7986 13.5468 1.83989 13.4636 1.83989ZM11.1757 2.10473C11.1495 2.10473 11.1229 2.10057 11.0967 2.09189C10.6353 1.93908 10.1572 1.83435 9.67577 1.78073C8.69076 1.67134 7.70738 1.76084 6.78095 2.04342C6.64808 2.08396 6.50754 2.00906 6.46719 1.87601C6.42671 1.74296 6.50151 1.60236 6.63438 1.56183C7.62605 1.25935 8.67882 1.16256 9.73133 1.2805C10.2475 1.3379 10.7601 1.45005 11.2546 1.61394C11.3865 1.65762 11.458 1.80011 11.4142 1.9319C11.3794 2.03776 11.2811 2.10473 11.1757 2.10473ZM14.884 2.96772C14.8204 2.96772 14.7568 2.9438 14.7079 2.89572C14.638 2.82699 14.5669 2.75965 14.4946 2.69356C14.3922 2.59979 14.3849 2.44056 14.4784 2.33784C14.572 2.23538 14.7311 2.22796 14.8336 2.32161C14.9104 2.39184 14.9859 2.46334 15.06 2.53622C15.1592 2.63365 15.1607 2.793 15.0635 2.89219C15.0143 2.94254 14.949 2.96772 14.884 2.96772ZM13.9961 3.8214C13.933 3.8214 13.8699 3.79786 13.8211 3.7504C13.7511 3.68256 13.6798 3.61584 13.6071 3.55089C13.5036 3.45812 13.4946 3.29902 13.5872 3.19542C13.6799 3.09183 13.8386 3.08277 13.9423 3.17541C14.0201 3.24514 14.0963 3.31626 14.1712 3.38902C14.2709 3.48569 14.2732 3.64505 14.1766 3.74499C14.1273 3.79584 14.0618 3.8214 13.9961 3.8214ZM1.87499 4.09693C1.82383 4.09693 1.77242 4.08145 1.72792 4.04923C1.61529 3.96766 1.59015 3.81019 1.67135 3.69766C2.58987 2.42583 3.82692 1.41468 5.24875 0.773481C5.37558 0.716208 5.52441 0.772852 5.58123 0.899607C5.6383 1.02636 5.58186 1.17552 5.45528 1.23254C4.11339 1.83762 2.94586 2.79212 2.07901 3.99271C2.02973 4.06081 1.95293 4.09693 1.87499 4.09693ZM7.86388 4.29959C7.74723 4.29959 7.64277 4.21803 7.618 4.0992C7.5896 3.96313 7.67696 3.82983 7.81285 3.80138C7.91718 3.77961 8.02264 3.7611 8.12648 3.74625C8.26362 3.72674 8.39121 3.8219 8.41094 3.95973C8.43068 4.09731 8.33514 4.22482 8.19762 4.24458C8.10435 4.25793 8.00932 4.27467 7.91542 4.2943C7.8982 4.29783 7.88085 4.29959 7.86388 4.29959ZM0.488484 7.10482C0.468874 7.10482 0.449138 7.10268 0.429277 7.09777C0.294272 7.06517 0.211307 6.92923 0.243865 6.79391C0.268377 6.69246 0.294649 6.59163 0.322555 6.49144C0.360015 6.35751 0.498288 6.27934 0.632288 6.31647C0.766037 6.35386 0.844224 6.49282 0.80689 6.62663C0.780618 6.72116 0.755729 6.81632 0.732725 6.91223C0.704819 7.02753 0.601994 7.10482 0.488484 7.10482ZM5.66319 7.27777C5.62045 7.27777 5.57721 7.26695 5.53749 7.24404C5.41731 7.1743 5.37634 7.02023 5.44585 6.8999C5.49978 6.80688 5.55785 6.71486 5.61882 6.627C5.69776 6.51284 5.85476 6.48414 5.96852 6.56344C6.08266 6.64261 6.1112 6.79945 6.032 6.91374C5.97883 6.99053 5.92817 7.07083 5.88116 7.15215C5.83452 7.23283 5.75005 7.27777 5.66319 7.27777ZM12.1206 7.40251C12.0306 7.40251 11.9433 7.35405 11.8982 7.26871C11.8791 7.23258 11.8594 7.19671 11.8387 7.16109C11.8151 7.11967 11.7904 7.08002 11.7655 7.04037C11.7337 6.99002 11.7012 6.9393 11.6665 6.89033C11.6541 6.87258 11.6419 6.85647 11.6295 6.84048L11.6078 6.81179C11.4031 6.53801 11.1686 6.30363 10.9109 6.11495L10.8715 6.08524C10.8586 6.07542 10.8459 6.06573 10.8327 6.05642C10.7826 6.02092 10.7305 5.98807 10.6785 5.95521C10.6409 5.93167 10.6028 5.90776 10.5637 5.88535C10.5184 5.8593 10.4729 5.83475 10.4268 5.81096C10.3751 5.78428 10.3218 5.7586 10.2677 5.73418C10.2253 5.71492 10.1908 5.69919 10.1558 5.68484C10.0859 5.65626 10.0104 5.62857 9.93158 5.60277L9.89877 5.59131C9.88846 5.58753 9.87815 5.58388 9.86759 5.58074C9.66031 5.51717 9.44598 5.47324 9.22965 5.45008C9.15297 5.44202 9.07478 5.43926 8.99219 5.43623C8.9663 5.43523 8.94619 5.43397 8.9262 5.43258C8.90546 5.4312 8.88459 5.42956 8.86335 5.42956C8.21648 5.42956 7.5896 5.6083 7.04643 5.94678C6.9284 6.02004 6.7734 5.98404 6.70012 5.86597C6.62683 5.7479 6.66291 5.5927 6.78082 5.51919C7.40381 5.13112 8.12245 4.92607 8.85895 4.92607C8.89704 4.92619 8.92884 4.92808 8.96064 4.93035C8.97573 4.93135 8.99081 4.93236 9.00602 4.93299C9.09766 4.93626 9.18817 4.93941 9.2827 4.94935C9.53121 4.97591 9.77709 5.02626 10.0143 5.09914C10.0315 5.10443 10.0492 5.11047 10.067 5.11677L10.0895 5.1247C10.1782 5.15377 10.2651 5.18562 10.3461 5.21885C10.3873 5.23584 10.4276 5.25397 10.4677 5.27222C10.5363 5.30331 10.5974 5.33264 10.6575 5.36361C10.7108 5.3913 10.763 5.41924 10.814 5.4487C10.8584 5.47412 10.9021 5.50144 10.9459 5.52888C11.006 5.56664 11.0652 5.6044 11.1226 5.64493C11.1407 5.65777 11.1586 5.67124 11.1763 5.68484L11.2073 5.70812C11.5056 5.92664 11.7755 6.19626 12.0102 6.50994L12.0293 6.53499C12.0457 6.55639 12.0619 6.57791 12.0773 6.59981C12.1164 6.65507 12.1538 6.71323 12.1907 6.77163C12.2196 6.81745 12.2477 6.86302 12.2744 6.90959C12.2977 6.94987 12.3204 6.99116 12.3426 7.03295C12.4076 7.15567 12.3608 7.30811 12.2381 7.37331C12.2005 7.3932 12.1603 7.40251 12.1206 7.40251ZM1.53974 8.18935C1.52918 8.18935 1.51862 8.18872 1.50794 8.18746C1.37004 8.16997 1.27262 8.04409 1.28984 7.90614C1.55307 5.81725 2.68729 3.90913 4.40163 2.67116C4.51439 2.58997 4.67164 2.61527 4.7526 2.72805C4.83393 2.84071 4.80841 2.99805 4.69578 3.07949C3.09419 4.23615 2.03451 6.01828 1.78876 7.96907C1.77267 8.09646 1.66444 8.18935 1.53974 8.18935ZM13.6995 8.26563C13.5775 8.26563 13.4704 8.17651 13.4513 8.0519C13.4442 8.00507 13.4363 7.9585 13.4268 7.91255C13.4201 7.88121 13.4117 7.85063 13.4033 7.81991C13.3967 7.79562 13.3901 7.77132 13.3839 7.7469L13.3751 7.71078C13.3531 7.62128 13.3322 7.53682 13.3068 7.45601C13.297 7.42542 13.2853 7.39534 13.2738 7.36513C13.2651 7.34247 13.2566 7.31981 13.2483 7.29703L13.24 7.27349C13.208 7.18412 13.178 7.09953 13.143 7.0191C13.1305 6.98965 13.116 6.9612 13.1019 6.93262C13.0915 6.91173 13.0811 6.89083 13.0711 6.86969L13.0625 6.85131C13.021 6.76421 12.9818 6.68188 12.9383 6.60359C12.9226 6.57539 12.9053 6.54795 12.8881 6.52051L12.8537 6.46475C12.8057 6.3847 12.7511 6.29432 12.6947 6.2125C12.6761 6.18607 12.6562 6.16001 12.6362 6.13408L12.5981 6.08386C12.5377 6.00242 12.478 5.92324 12.415 5.84898C12.3922 5.82204 12.368 5.79623 12.344 5.7703L12.3065 5.72952C12.2421 5.65891 12.1734 5.58426 12.1025 5.51554C12.0754 5.48935 12.0474 5.46456 12.0194 5.43951L11.9804 5.40451C11.9109 5.3417 11.8361 5.27524 11.7597 5.21457C11.7266 5.18814 11.6931 5.16359 11.6595 5.13905L11.6225 5.11186C11.5539 5.06126 11.4721 5.00184 11.389 4.94784C11.3461 4.92015 11.3019 4.89409 11.2575 4.86791L11.2368 4.85545C11.1704 4.81605 11.0833 4.76507 10.9944 4.71913L10.9799 4.7117C10.8565 4.64839 10.8076 4.49658 10.8708 4.37285C10.9341 4.24937 11.0853 4.1999 11.2092 4.26359L11.2264 4.27253C11.3256 4.32363 11.4213 4.37965 11.4932 4.42257L11.5133 4.43428C11.5635 4.46398 11.6134 4.49356 11.6624 4.52528C11.7568 4.58658 11.8462 4.65141 11.9211 4.70667L11.9564 4.7326C11.9956 4.76142 12.0348 4.79012 12.0729 4.82071C12.1597 4.88969 12.2418 4.96257 12.3174 5.03092L12.3538 5.0634C12.3869 5.0931 12.42 5.12268 12.4521 5.15365C12.5335 5.23244 12.6082 5.31376 12.6779 5.39029L12.7123 5.42755C12.7414 5.45902 12.7705 5.49036 12.7982 5.52309C12.8708 5.60868 12.9358 5.69478 13.0013 5.78289L13.0353 5.82783C13.06 5.85993 13.0845 5.89202 13.1076 5.92538C13.1735 6.02067 13.2323 6.11835 13.2842 6.2047L13.3144 6.25341C13.336 6.28802 13.3575 6.32264 13.3775 6.35839C13.4289 6.45091 13.4733 6.54443 13.5164 6.63493L13.552 6.70807C13.5702 6.74469 13.5883 6.78132 13.6046 6.81921C13.6459 6.91475 13.6803 7.01104 13.7134 7.10407L13.7217 7.1271C13.7286 7.14636 13.736 7.16574 13.7434 7.185C13.7584 7.22415 13.7732 7.26355 13.786 7.3037C13.8167 7.4005 13.8403 7.49704 13.8633 7.59044L13.872 7.62581C13.877 7.64633 13.8827 7.66672 13.8882 7.68711C13.8993 7.72752 13.9102 7.76793 13.9188 7.80934C13.9303 7.86409 13.9399 7.91973 13.9484 7.97587C13.9693 8.11332 13.875 8.24172 13.7379 8.26274C13.7249 8.26475 13.7122 8.26563 13.6995 8.26563ZM17.437 9.83956C17.4302 9.83956 17.4231 9.83931 17.4161 9.83868C17.2778 9.82723 17.1747 9.70563 17.1862 9.56717C17.2052 9.33695 17.2147 9.10269 17.2147 8.87109C17.2148 7.61285 16.9429 6.40358 16.4067 5.2765C16.347 5.151 16.4001 5.00071 16.5255 4.94092C16.6506 4.88138 16.8009 4.93425 16.8606 5.05987C17.4294 6.25517 17.7176 7.53745 17.7175 8.87109C17.7175 9.11641 17.7073 9.36426 17.6874 9.60846C17.6765 9.73999 17.5666 9.83956 17.437 9.83956ZM4.01245 9.96606C3.89241 9.96606 3.78631 9.87971 3.76507 9.75699C3.71479 9.4666 3.68927 9.16827 3.68927 8.87046C3.68927 8.72054 3.69581 8.56786 3.70863 8.41668C3.85294 6.72795 4.83317 5.2123 6.33068 4.36228C6.4516 4.29393 6.60484 4.33635 6.67334 4.45719C6.74173 4.57815 6.69936 4.73184 6.57869 4.80044C5.22537 5.5684 4.33978 6.93628 4.20981 8.4596C4.19799 8.59655 4.19208 8.73476 4.19208 8.87046C4.19208 9.13958 4.21509 9.40895 4.26047 9.67139C4.28422 9.80834 4.19246 9.93862 4.05557 9.96216C4.04111 9.96481 4.02678 9.96606 4.01245 9.96606ZM1.53258 10.0028C1.40712 10.0028 1.29864 9.90879 1.28331 9.7809C1.27099 9.67756 1.26081 9.57334 1.25263 9.46886C1.24182 9.3304 1.3454 9.20931 1.4838 9.19848C1.62095 9.18741 1.74313 9.29125 1.75407 9.42997C1.76161 9.52752 1.77104 9.62469 1.7826 9.72099C1.79907 9.8592 1.70064 9.98457 1.56274 10.0011C1.55256 10.0022 1.54251 10.0028 1.53258 10.0028ZM16.0525 10.7693C16.0338 10.7693 16.0151 10.7675 15.9963 10.7632C15.8609 10.7323 15.7762 10.5973 15.8071 10.4618C15.9251 9.94316 15.9851 9.40794 15.9851 8.87109C15.9851 8.57151 15.9662 8.26689 15.9291 7.96542C15.794 6.86579 15.3899 5.79498 14.7605 4.86879C14.6824 4.75387 14.7122 4.59728 14.827 4.51912C14.9415 4.44107 15.0981 4.47053 15.1762 4.58558C15.8503 5.57759 16.2834 6.72506 16.4283 7.904C16.4678 8.2256 16.4879 8.55099 16.4879 8.87109C16.4879 9.44558 16.4238 10.0184 16.2973 10.5737C16.2707 10.6903 16.1671 10.7693 16.0525 10.7693ZM9.47339 12.7614C9.35284 12.7614 9.24637 12.6742 9.22563 12.5513C9.20275 12.4142 9.29501 12.2844 9.43203 12.2613C10.1429 12.1417 10.7862 11.8099 11.2923 11.3018L11.2995 11.2929C11.3104 11.2802 11.3214 11.2674 11.333 11.2555C11.4131 11.1724 11.4919 11.0814 11.5677 10.9844L11.589 10.9561C11.6503 10.8758 11.7105 10.7893 11.7676 10.6989C11.7805 10.678 11.7936 10.6561 11.8066 10.6342C11.8517 10.5593 11.8957 10.4785 11.9381 10.393C11.9526 10.3634 11.9677 10.3334 11.9818 10.3024C12.0134 10.2341 12.0447 10.1575 12.0778 10.0685L12.0893 10.0376C12.0992 10.0118 12.109 9.98608 12.1176 9.95977C12.1443 9.88009 12.1668 9.79563 12.1852 9.72351L12.1974 9.67794C12.2039 9.65352 12.2106 9.62935 12.216 9.60468C12.2259 9.55811 12.2345 9.5104 12.242 9.46244C12.2638 9.32524 12.3922 9.23197 12.5297 9.25324C12.6669 9.27476 12.7604 9.40391 12.7387 9.54137C12.7296 9.59864 12.7194 9.65566 12.7072 9.71192C12.6999 9.74553 12.6913 9.77751 12.6826 9.80935L12.6722 9.84888C12.6515 9.92944 12.6262 10.0246 12.5946 10.119C12.5839 10.1511 12.5719 10.1833 12.5598 10.2155L12.549 10.2442C12.5114 10.3451 12.4753 10.4331 12.4386 10.5126C12.4226 10.5477 12.4057 10.5822 12.3886 10.6168C12.3401 10.7146 12.2894 10.8074 12.238 10.893C12.2235 10.9174 12.2086 10.9423 12.1931 10.9673C12.1275 11.071 12.0586 11.1701 11.988 11.2624L11.9641 11.2942C11.8771 11.4056 11.7867 11.5098 11.6951 11.6048L11.6814 11.6204C11.6724 11.6307 11.6635 11.6411 11.6541 11.651C11.0677 12.2401 10.3302 12.6205 9.51537 12.7577C9.50129 12.7602 9.48709 12.7614 9.47339 12.7614ZM5.88028 12.8629C5.66998 12.8629 5.47275 12.7817 5.30971 12.6278C5.12392 12.4525 4.94982 12.2616 4.79207 12.061C4.70608 11.9517 4.72481 11.7934 4.83405 11.7075C4.94329 11.6216 5.10117 11.6401 5.18703 11.7496C5.32957 11.9308 5.48695 12.103 5.65464 12.2615C5.72353 12.3266 5.79945 12.3594 5.88028 12.3594C6.07386 12.3594 6.2638 12.1745 6.2638 11.9858C6.2638 11.9142 6.23577 11.8442 6.18059 11.7779C6.1376 11.726 6.09272 11.6764 6.04784 11.6307C5.60562 11.1805 5.27502 10.626 5.09124 10.0267C5.05051 9.89369 5.12518 9.75296 5.25792 9.71218C5.39067 9.67165 5.5312 9.74616 5.57206 9.87896C5.73208 10.4013 6.02057 10.8847 6.40597 11.2775C6.46065 11.3329 6.51496 11.393 6.56712 11.4558C6.69773 11.613 6.76662 11.7963 6.76662 11.9858C6.76662 12.453 6.35242 12.8629 5.88028 12.8629ZM1.96814 14.2868C1.89159 14.2868 1.81616 14.2518 1.76676 14.1861C0.610919 12.6433 0 10.8055 0 8.87121C0 8.69222 0.00540525 8.51172 0.0159643 8.33474C0.0242608 8.19577 0.141793 8.08853 0.281827 8.09847C0.420352 8.10665 0.526069 8.22586 0.517772 8.36469C0.507842 8.53173 0.502814 8.70229 0.502814 8.87121C0.502814 10.6956 1.07904 12.4289 2.16889 13.884C2.25235 13.995 2.22985 14.1528 2.11873 14.2362C2.0736 14.2705 2.02056 14.2868 1.96814 14.2868ZM9.47364 14.5157C9.33474 14.5157 9.22223 14.403 9.22223 14.2639V13.7534C9.22223 13.6266 9.31663 13.5195 9.44246 13.5038C10.5221 13.3687 11.5274 12.852 12.2731 12.0493L12.2984 12.0213C12.4954 11.8071 12.6756 11.5662 12.8499 11.284C12.8705 11.251 12.8909 11.2183 12.9101 11.1849C12.9467 11.1205 12.9818 11.0544 13.0157 10.9875C13.0455 10.9295 13.0733 10.8708 13.1003 10.8117L13.1161 10.7772C13.138 10.7294 13.16 10.6817 13.1799 10.6327C13.2214 10.5315 13.2593 10.4293 13.2925 10.3287C13.3361 10.1969 13.4775 10.1247 13.6102 10.1691C13.7419 10.2128 13.8134 10.355 13.7698 10.4872C13.733 10.5985 13.6911 10.7115 13.6452 10.8236C13.6227 10.8789 13.598 10.9329 13.5732 10.9872L13.5574 11.0215C13.5269 11.088 13.4963 11.1526 13.4636 11.2166C13.4261 11.2901 13.3874 11.3633 13.3463 11.4351C13.3238 11.4744 13.3004 11.5121 13.2772 11.5497C13.0862 11.8586 12.8872 12.1243 12.6691 12.3616L12.6416 12.3919C11.8662 13.2267 10.8374 13.7819 9.72505 13.9709V14.2639C9.72505 14.403 9.61241 14.5157 9.47364 14.5157ZM5.80989 15.8497C5.77507 15.8497 5.73987 15.8422 5.70606 15.827C4.26399 15.1708 3.07735 14.0996 2.27423 12.73C2.20396 12.6099 2.24406 12.4557 2.36373 12.3852C2.48365 12.315 2.63764 12.3553 2.7079 12.475C3.45823 13.755 4.56693 14.7554 5.91397 15.3686C6.04043 15.4261 6.09636 15.5754 6.03904 15.7019C5.99681 15.7947 5.90542 15.8497 5.80989 15.8497ZM11.7479 15.9178C11.6501 15.9178 11.5572 15.8602 11.5164 15.7646C11.462 15.6364 11.5215 15.4888 11.6491 15.4343C13.0104 14.8536 14.1424 13.8794 14.923 12.6175C14.996 12.4993 15.1509 12.4628 15.2691 12.536C15.3872 12.6092 15.4237 12.7644 15.3505 12.8826C14.5151 14.2334 13.3033 15.2759 11.8463 15.8975C11.8141 15.9112 11.7807 15.9178 11.7479 15.9178ZM9.47364 16.3339C9.33474 16.3339 9.22223 16.2214 9.22223 16.0822V15.7792C9.22223 15.6402 9.33474 15.5274 9.47364 15.5274C9.61241 15.5274 9.72505 15.6402 9.72505 15.7792V16.0822C9.72505 16.2214 9.61241 16.3339 9.47364 16.3339ZM8.24401 16.4831C8.23709 16.4831 8.23005 16.4828 8.22314 16.4822C8.18656 16.4792 8.14998 16.4756 8.1134 16.4722C7.97525 16.4589 7.87406 16.3358 7.88764 16.1973C7.89493 16.1217 7.93515 16.057 7.9926 16.0162V12.3348C7.9926 12.1957 8.10511 12.083 8.24401 12.083C8.38278 12.083 8.49541 12.1957 8.49541 12.3348V16.2313C8.49541 16.3018 8.46587 16.3689 8.41421 16.4166C8.36757 16.4595 8.30686 16.4831 8.24401 16.4831ZM13.0093 16.673C12.9207 16.673 12.8347 16.6261 12.7888 16.5429C12.7218 16.421 12.7661 16.2678 12.8876 16.2007C14.6211 15.244 15.9636 13.7005 16.6676 11.8544C16.7172 11.7243 16.8621 11.6592 16.9922 11.709C17.1219 11.7586 17.1869 11.9041 17.1374 12.0339C16.3908 13.9911 14.9679 15.6275 13.1305 16.6418C13.0919 16.6629 13.0503 16.673 13.0093 16.673ZM11.3382 17.3761C11.2301 17.3761 11.1303 17.3057 11.0976 17.1968C11.0575 17.0635 11.1329 16.9233 11.2659 16.8832C11.3599 16.8549 11.4532 16.8251 11.5459 16.7936C11.6781 16.7484 11.8201 16.8198 11.8646 16.9513C11.9093 17.0831 11.8386 17.2257 11.7071 17.2705C11.6091 17.3038 11.5102 17.3354 11.4107 17.3653C11.3866 17.3724 11.3622 17.3761 11.3382 17.3761ZM7.83208 17.6781C7.82215 17.6781 7.81209 17.6775 7.80203 17.6765C6.24972 17.4914 4.76881 16.8937 3.51944 15.9477C3.4087 15.8638 3.3867 15.7059 3.47042 15.5949C3.55414 15.484 3.71164 15.4622 3.82264 15.5461C5.00111 16.4384 6.39768 17.002 7.86149 17.1764C7.99926 17.1929 8.09769 17.3181 8.08147 17.4562C8.06614 17.5841 7.95766 17.6781 7.83208 17.6781Z" fill="#1D8CEF"/>
<path fill-rule="evenodd" clip-rule="evenodd" d="M6.41184 3.56005C6.31517 3.56005 6.22315 3.50391 6.18167 3.40976C6.12573 3.2825 6.18331 3.13384 6.31027 3.07783C6.40618 3.03553 6.50322 2.9955 6.60114 2.95787C6.73037 2.90815 6.87593 2.97247 6.92596 3.10237C6.97587 3.23215 6.91125 3.37778 6.78153 3.42763C6.69127 3.46262 6.60165 3.4995 6.51315 3.53852C6.48009 3.553 6.44578 3.56005 6.41184 3.56005ZM13.5417 5.25394C13.4692 5.25394 13.3972 5.22272 13.3475 5.1623C12.5596 4.2044 11.5066 3.535 10.302 3.22623C10.0809 3.16959 9.85548 3.12553 9.63211 3.09545C9.49446 3.07669 9.39805 2.94994 9.41652 2.81223C9.43525 2.67427 9.56322 2.57861 9.69936 2.59636C9.94196 2.62908 10.1866 2.67692 10.4266 2.73847C11.7354 3.07392 12.8795 3.80135 13.7357 4.8422C13.8239 4.94945 13.8086 5.10818 13.7014 5.19654C13.6546 5.23518 13.5979 5.25394 13.5417 5.25394ZM2.81131 9.67086C2.68272 9.67086 2.57298 9.57255 2.56116 9.44177C2.54432 9.25485 2.53577 9.0644 2.53564 8.87559C2.53564 8.34755 2.60252 7.81787 2.73463 7.30128C3.08409 5.93416 3.85427 4.75321 4.96197 3.88619C5.07108 3.80059 5.22922 3.81973 5.3147 3.92949C5.4003 4.039 5.38107 4.19722 5.27158 4.28269C4.25225 5.08086 3.54353 6.16778 3.22173 7.42615C3.10005 7.90195 3.03846 8.38971 3.03846 8.87559C3.03858 9.04904 3.0465 9.22451 3.06209 9.39646C3.07441 9.53492 2.97259 9.65714 2.83419 9.66985C2.82652 9.67048 2.81885 9.67086 2.81131 9.67086ZM13.48 13.0666C13.4223 13.0666 13.3642 13.0469 13.317 13.0065C13.2113 12.9163 13.1987 12.7572 13.2888 12.6517C13.8673 11.9728 14.2735 11.1871 14.4962 10.3161C14.6178 9.84041 14.6795 9.35278 14.6795 8.86678C14.6795 8.30223 14.597 7.74108 14.4342 7.19894C14.3943 7.0659 14.4697 6.92529 14.6025 6.88539C14.7359 6.84562 14.8758 6.92089 14.9157 7.05394C15.0928 7.64315 15.1823 8.25314 15.1823 8.86678C15.1823 9.39482 15.1153 9.9245 14.9833 10.441C14.7414 11.387 14.3 12.2408 13.6713 12.9783C13.6216 13.0367 13.551 13.0666 13.48 13.0666ZM12.1137 14.2539C12.0307 14.2539 11.9493 14.2127 11.9013 14.137C11.8269 14.0199 11.8616 13.8641 11.9787 13.7897C12.0604 13.7375 12.1409 13.6837 12.2198 13.6276C12.3333 13.5477 12.4902 13.5747 12.5703 13.6881C12.6504 13.8017 12.6233 13.9586 12.5101 14.0391C12.4242 14.0995 12.3371 14.1583 12.2484 14.2147C12.2066 14.2411 12.16 14.2539 12.1137 14.2539ZM6.86764 14.8654C6.84036 14.8654 6.81258 14.861 6.78543 14.8516C5.27661 14.329 4.03101 13.2608 3.2778 11.8443C3.21268 11.7219 3.25907 11.5694 3.38175 11.5038C3.50432 11.4386 3.65642 11.4855 3.72178 11.6081C4.41491 12.9117 5.56133 13.8948 6.94985 14.3759C7.08108 14.4212 7.15059 14.5647 7.10521 14.6961C7.06914 14.8002 6.97184 14.8654 6.86764 14.8654Z" fill="#005ABC"/>
<path fill-rule="evenodd" clip-rule="evenodd" d="M22.734 4.22879C23.2391 4.22879 23.5621 4.26152 23.7595 4.29223C23.8774 4.31061 23.9639 4.41219 23.9639 4.53139V5.6275C23.9639 5.74872 23.874 5.85055 23.7543 5.86754C23.5626 5.89473 23.2605 5.92167 22.8471 5.92167C21.7197 5.92167 21.402 5.60359 21.402 5.10085C21.402 4.49552 21.8015 4.22879 22.734 4.22879ZM22.8471 6.77333C23.7215 6.77333 24.5072 6.69718 24.9132 6.64154C25.0329 6.62505 25.1217 6.52272 25.1217 6.40175V3.52075C25.1217 1.92026 24.0045 1.33545 22.4062 1.33545C21.064 1.33545 20.7053 1.70476 20.7053 2.0946C20.7053 2.24313 20.7615 2.36799 20.826 2.4629C20.8942 2.56411 21.0276 2.59809 21.1356 2.54132C21.3656 2.42048 21.7837 2.27938 22.3859 2.27938C23.197 2.27938 23.7942 2.46202 23.9259 3.16251C23.9587 3.33534 23.8442 3.46524 23.6692 3.45001C23.4088 3.42773 23.0558 3.40797 22.6933 3.40797C20.8798 3.40797 20.2339 3.99278 20.2339 5.11117C20.2339 5.9729 20.7156 6.77333 22.8471 6.77333Z" fill="#005ABC"/>
<path fill-rule="evenodd" clip-rule="evenodd" d="M30.8073 5.08045C30.8073 4.16724 30.1511 3.72605 29.0138 3.57223L27.9692 3.43881C27.4051 3.36706 27.0978 3.20267 27.0978 2.84367C27.0978 2.42313 27.4978 2.21783 28.2866 2.21783C29.198 2.21783 29.7803 2.48153 30.0338 2.64429C30.1305 2.70634 30.2573 2.69136 30.3363 2.60778C30.4293 2.50935 30.5202 2.36346 30.5202 2.18711C30.5202 1.68437 29.7002 1.33545 28.2763 1.33545C26.5858 1.33545 25.9404 2.0844 25.9404 2.95658C25.9404 3.96206 26.7089 4.39293 27.8049 4.50584L28.6042 4.59823C29.3421 4.6803 29.5876 4.86483 29.5876 5.24459C29.5876 5.69598 29.0859 5.86012 28.3788 5.86012C27.5291 5.86012 26.8327 5.62322 26.4866 5.45808C26.3711 5.40307 26.2332 5.44637 26.171 5.55815L25.9609 5.93439C25.8947 6.05371 25.9389 6.20527 26.0606 6.26745C26.4473 6.4652 27.2934 6.77334 28.4405 6.77334C29.9668 6.77334 30.8073 6.10633 30.8073 5.08045Z" fill="#005ABC"/>
<path fill-rule="evenodd" clip-rule="evenodd" d="M34.1153 4.22879C34.6208 4.22879 34.9436 4.26152 35.1408 4.29223C35.2587 4.31061 35.3447 4.41219 35.3447 4.53139V5.6275C35.3447 5.74872 35.256 5.85055 35.1358 5.86754C34.9436 5.89473 34.6424 5.92167 34.228 5.92167C33.101 5.92167 32.7835 5.60359 32.7835 5.10085C32.7835 4.49552 33.1834 4.22879 34.1153 4.22879ZM34.228 6.77333C35.1035 6.77333 35.8883 6.69718 36.2947 6.64154C36.4143 6.62505 36.5027 6.52272 36.5027 6.40175V3.52075C36.5027 1.92026 35.386 1.33545 33.7876 1.33545C32.4454 1.33545 32.0866 1.70476 32.0866 2.0946C32.0866 2.24313 32.1429 2.36799 32.2068 2.4629C32.2761 2.56411 32.4089 2.59809 32.5169 2.54132C32.7471 2.42048 33.1649 2.27938 33.767 2.27938C34.5784 2.27938 35.1755 2.46202 35.3074 3.16251C35.3401 3.33534 35.2261 3.46524 35.0505 3.45001C34.7901 3.42773 34.4371 3.40797 34.0747 3.40797C32.2611 3.40797 31.6152 3.99278 31.6152 5.11117C31.6152 5.9729 32.0969 6.77333 34.228 6.77333Z" fill="#005ABC"/>
<path fill-rule="evenodd" clip-rule="evenodd" d="M38.4793 6.38766V3.81844C38.4793 2.88483 38.9198 2.39229 39.8112 2.39229C40.6823 2.39229 41.143 2.88483 41.143 3.81844V6.38766C41.143 6.52134 41.2516 6.62971 41.3847 6.62971H42.0694C42.2032 6.62971 42.3111 6.52134 42.3111 6.38766V3.52087C42.3111 2.15627 41.2661 1.33545 39.8112 1.33545C38.3769 1.33545 37.311 2.15627 37.311 3.52087V6.38766C37.311 6.52134 37.419 6.62971 37.5529 6.62971H38.2375C38.3708 6.62971 38.4793 6.52134 38.4793 6.38766Z" fill="#005ABC"/>
<path fill-rule="evenodd" clip-rule="evenodd" d="M20.2339 8.70557C20.2339 8.33512 20.46 8.16016 20.8609 8.16016C21.1075 8.16016 21.3338 8.24235 21.4057 8.27332V15.5047C21.4057 15.638 21.2977 15.7462 21.1645 15.7462H20.4751C20.3419 15.7462 20.2339 15.638 20.2339 15.5047V8.70557Z" fill="#1D8CEF"/>
<path fill-rule="evenodd" clip-rule="evenodd" d="M26.8849 13.1628C26.8849 12.1952 26.2271 11.4645 25.2813 11.4645C24.3356 11.4645 23.6777 12.1952 23.6777 13.1628C23.6777 14.1096 24.3356 14.8507 25.2813 14.8507C26.2271 14.8507 26.8849 14.1096 26.8849 13.1628ZM28.1079 13.1628C28.1079 14.6965 26.8849 15.8904 25.2813 15.8904C23.6777 15.8904 22.4546 14.6965 22.4546 13.1628C22.4546 11.598 23.6777 10.4351 25.2813 10.4351C26.8849 10.4351 28.1079 11.598 28.1079 13.1628Z" fill="#1D8CEF"/>
<path fill-rule="evenodd" clip-rule="evenodd" d="M33.268 13.1421C33.268 12.1953 32.6205 11.4953 31.6952 11.4953C30.7394 11.4953 30.1124 12.2364 30.1124 13.1421C30.1124 14.1303 30.7394 14.7787 31.6952 14.7787C32.6205 14.7787 33.268 14.0889 33.268 13.1421ZM29.6568 16.866C29.7022 16.7416 29.8391 16.6782 29.9634 16.723C30.2424 16.8237 30.7435 16.9609 31.3767 16.9609C32.3018 16.9609 33.2783 16.6316 33.2783 15.1185V14.995C32.9597 15.3654 32.3533 15.767 31.5206 15.767C29.9889 15.767 28.8892 14.7067 28.8892 13.1421C28.8892 11.5878 30.061 10.4351 31.7055 10.4351C33.268 10.4351 34.4398 11.351 34.4398 13.3687V14.8507C34.4398 17.033 33.1961 17.9077 31.5 17.9077C30.6279 17.9077 29.9863 17.7271 29.6428 17.5982C29.5196 17.5521 29.4568 17.4155 29.5018 17.2918L29.6568 16.866Z" fill="#1D8CEF"/>
<path fill-rule="evenodd" clip-rule="evenodd" d="M35.5706 11.1244C35.5706 10.7436 35.7967 10.579 36.1976 10.579C36.4443 10.579 36.6705 10.6612 36.7424 10.6919V15.5139C36.7424 15.6421 36.6387 15.7461 36.5107 15.7461H35.8025C35.6744 15.7461 35.5706 15.6421 35.5706 15.5139V11.1244ZM36.8658 9.58079C36.8658 9.98232 36.5575 10.2911 36.1565 10.2911C35.7547 10.2911 35.4475 9.98333 35.4473 9.58091C35.4473 9.1795 35.7556 8.87073 36.1565 8.87061C36.5582 8.87061 36.8658 9.17849 36.8658 9.58079Z" fill="#1D8CEF"/>
<mask id="mask0_8864_51635" style="mask-type:alpha" maskUnits="userSpaceOnUse" x="37" y="10" width="7" height="6">
<path d="M37.9966 10.4351H43.0128V15.7462H37.9966V10.4351Z" fill="white"/>
</mask>
<g mask="url(#mask0_8864_51635)">
<path fill-rule="evenodd" clip-rule="evenodd" d="M37.9966 12.6275C37.9966 11.2585 39.0656 10.4351 40.5046 10.4351C41.9643 10.4351 43.0128 11.2585 43.0128 12.6275V15.5109C43.0128 15.6407 42.9076 15.7462 42.7777 15.7462H42.0759C41.9462 15.7462 41.841 15.6407 41.841 15.5109V12.926C41.841 11.9894 41.3784 11.4953 40.5046 11.4953C39.6104 11.4953 39.1684 11.9894 39.1684 12.926V15.5109C39.1684 15.6407 39.063 15.7462 38.9333 15.7462H38.2315C38.1018 15.7462 37.9966 15.6407 37.9966 15.5109V12.6275Z" fill="#1D8CEF"/>
</g>
<path fill-rule="evenodd" clip-rule="evenodd" d="M8.40804 8.63158C8.45204 8.50948 8.41659 8.3729 8.31905 8.28781C8.07392 8.07358 7.97424 7.75285 8.0523 7.42935C8.12408 7.13178 8.37272 6.8857 8.67102 6.81697C8.73412 6.80237 8.79697 6.79494 8.85882 6.79356C8.86322 6.79343 8.86749 6.79293 8.87189 6.79306C8.87641 6.79293 8.88069 6.79343 8.88509 6.79356C8.94693 6.79494 9.00979 6.80237 9.07289 6.81697C9.37118 6.8857 9.61982 7.13178 9.6916 7.42935C9.76966 7.75285 9.66998 8.07358 9.42486 8.28781C9.32719 8.3729 9.29186 8.50948 9.33586 8.63158L10.0257 10.5485H8.87742H8.86636H7.71818L8.40804 8.63158ZM7.97939 11.1779H8.86636H8.87742H9.76451H10.2065C10.3695 11.1779 10.523 11.0981 10.6168 10.9643C10.6839 10.8685 10.7142 10.7532 10.7059 10.6391C10.7099 10.5951 10.7051 10.5495 10.6892 10.5053L10.0049 8.60388C10.2309 8.33766 10.3573 7.99868 10.3573 7.6456C10.3573 7.19145 10.1537 6.76864 9.79858 6.48555C9.73484 6.43482 9.66671 6.39202 9.59682 6.353C9.5923 6.35036 9.58764 6.34796 9.58312 6.34545C9.53158 6.31738 9.47879 6.29258 9.42448 6.27093C9.41593 6.26753 9.40751 6.26363 9.39884 6.26036C9.24334 6.20183 9.07892 6.16998 8.91111 6.16608C8.89791 6.1657 8.88496 6.16406 8.87189 6.16406C8.85894 6.16406 8.84574 6.1657 8.8328 6.16608C8.66498 6.16998 8.50044 6.20183 8.34507 6.26036C8.33639 6.26363 8.32797 6.26753 8.3193 6.27093C8.26512 6.29258 8.21232 6.31738 8.16079 6.34545C8.15626 6.34796 8.15161 6.35036 8.14708 6.353C8.07719 6.39202 8.00906 6.43482 7.94533 6.48555C7.59022 6.76864 7.38658 7.19145 7.38658 7.6456C7.38658 7.99868 7.51303 8.33766 7.73905 8.60388L7.05459 10.5053C7.03863 10.5495 7.03398 10.5951 7.038 10.639C7.02958 10.7532 7.05975 10.8685 7.12713 10.9643C7.2209 11.0981 7.37426 11.1779 7.53742 11.1779H7.71818H7.97939Z" fill="#005ABC"/>
</svg>
