<svg width="104" height="104" viewBox="0 0 104 104" fill="none" xmlns="http://www.w3.org/2000/svg">
   <g clip-path="url(#clip0_2822_52318)">
      <path fill-rule="evenodd" clip-rule="evenodd" d="M100.537 32.0653V92.7363C100.537 94.6511 98.9847 96.2033 97.0699 96.2033H6.9301C5.01531 96.2033 3.46312 94.6511 3.46312 92.7363V32.0653H100.537ZM27.7293 61.5339H22.5351C21.5756 61.5339 20.798 62.3024 20.798 63.2836V66.718C20.798 67.6844 21.5878 68.4677 22.5351 68.4677H27.7269L27.7251 73.6619C27.7247 74.6216 28.4929 75.4 29.4741 75.4006L32.9086 75.4026C33.8749 75.4033 34.6586 74.6134 34.6588 73.6658L34.6606 68.4679H39.8549C40.8143 68.4679 41.592 67.6994 41.592 66.7182V63.2838C41.592 62.3174 40.8022 61.5341 39.8549 61.5341H34.6631L34.6649 56.3399C34.6653 55.3802 33.897 54.6018 32.9159 54.6012L29.4814 54.5994C28.5151 54.5987 27.7314 55.3885 27.7312 56.3362L27.7293 61.5339ZM62.4007 66.7182C62.4007 67.6846 63.1905 68.4679 64.1378 68.4679H81.4576C82.4171 68.4679 83.1947 67.6994 83.1947 66.7182V63.2838C83.1947 62.3174 82.4049 61.5341 81.4576 61.5341H64.1378C63.1784 61.5341 62.4007 62.3026 62.4007 63.2838V66.7182ZM0 25.1153V21.6808C0 20.6997 0.769288 19.9312 1.71836 19.9312H102.282C103.223 19.9312 104 20.7145 104 21.6808V25.1153C104 26.0965 103.231 26.8649 102.282 26.8649H1.71836C0.777414 26.8649 0 26.0816 0 25.1153ZM62.4007 12.981V9.54651C62.4007 8.56535 63.1786 7.79688 64.1378 7.79688H81.4576C82.4051 7.79688 83.1947 8.58018 83.1947 9.54651V12.981C83.1947 13.9622 82.4169 14.7306 81.4576 14.7306H64.1378C63.1905 14.7306 62.4007 13.9473 62.4007 12.981ZM20.7978 12.981V9.54651C20.7978 8.56535 21.5756 7.79688 22.5349 7.79688H39.8547C40.8022 7.79688 41.5918 8.58018 41.5918 9.54651V12.981C41.5918 13.9622 40.8139 14.7306 39.8547 14.7306H22.5349C21.5876 14.7306 20.7978 13.9473 20.7978 12.981Z" fill="#CDD5DF"/>
   </g>
   <defs>
      <clipPath id="clip0_2822_52318">
         <rect width="104" height="104" fill="white"/>
      </clipPath>
   </defs>
</svg>
