<?xml version="1.0" encoding="UTF-8"?>
<svg xmlns="http://www.w3.org/2000/svg" viewBox="0 0 64 64" width="512" height="512"><g id="Layer_32" data-name="Layer 32"><path d="M41,47H23a1,1,0,0,0-1,1v2a3,3,0,0,0,3,3H39a3,3,0,0,0,3-3V48A1,1,0,0,0,41,47Zm-1,3a1,1,0,0,1-1,1H25a1,1,0,0,1-1-1V49H40Z"/><path d="M58,36a3,3,0,0,0-3-3H53a2.991,2.991,0,0,0-2.424,1.248l-2.184-5.462a3.446,3.446,0,0,0-2.358-2.058A57.894,57.894,0,0,0,32,25h-.006a57.863,57.863,0,0,0-14.028,1.728,3.446,3.446,0,0,0-2.358,2.058l-2.184,5.461A2.993,2.993,0,0,0,11,33H9a3,3,0,0,0,0,6h2.132L9.277,41.781A7.589,7.589,0,0,0,8,46V60a3,3,0,0,0,3,3h4a3,3,0,0,0,3-3V57H46v3a3,3,0,0,0,3,3h4a3,3,0,0,0,3-3V46a7.589,7.589,0,0,0-1.277-4.219L52.868,39H55A3,3,0,0,0,58,36Zm-6,0a1,1,0,0,1,1-1h2a1,1,0,0,1,0,2H52ZM17.466,29.528a1.443,1.443,0,0,1,.99-.861A55.865,55.865,0,0,1,31.994,27H32a55.9,55.9,0,0,1,13.548,1.668,1.44,1.44,0,0,1,.986.861l3.039,7.6-1.7.154c-.146.014-.293.022-.44.035l-2.5-6.665A1.143,1.143,0,0,0,44.083,30a73.585,73.585,0,0,0-24.249.014,1,1,0,0,0-.771.635l-2.5,6.665c-.147-.013-.294-.021-.441-.035l-1.7-.154Zm18.539,8.423A2.989,2.989,0,0,1,41.97,37.7C39.986,37.817,38,37.906,36.005,37.951Zm7.954-.36A4.986,4.986,0,0,0,34,37.975c-5.134.058-10.272-.107-15.364-.5l2.094-5.585a71.533,71.533,0,0,1,22.534,0l2.094,5.585C44.893,37.515,44.427,37.559,43.959,37.591ZM8,36a1,1,0,0,1,1-1h2a1,1,0,0,1,1,1v1H9A1,1,0,0,1,8,36Zm2.035,9.519,6.539,1.09A1.707,1.707,0,0,1,16.293,50H10V46C10,45.838,10.022,45.679,10.035,45.519ZM16,60a1,1,0,0,1-1,1H11a1,1,0,0,1-1-1V56.446A3.957,3.957,0,0,0,12,57h4Zm37,1H49a1,1,0,0,1-1-1V57h4a3.957,3.957,0,0,0,2-.553V60A1,1,0,0,1,53,61Zm1-15v4H47.707a1.707,1.707,0,0,1-.281-3.391l6.539-1.09C53.978,45.679,54,45.838,54,46Zm-.553-2.422L47.1,44.637A3.707,3.707,0,0,0,47.707,52H54v1a2,2,0,0,1-2,2H12a2,2,0,0,1-2-2V52h6.293a3.707,3.707,0,0,0,.61-7.363l-6.35-1.059a5.544,5.544,0,0,1,.388-.687L13.5,39.05l2.44.221C21.253,39.755,26.655,40,32,40s10.747-.245,16.058-.729l2.44-.221,2.561,3.841A5.544,5.544,0,0,1,53.447,43.578Z"/><path d="M41,6.318V6a1,1,0,0,0-1-1H37.781L36.97,1.757A1,1,0,0,0,36,1H28a1,1,0,0,0-.97.757L26.219,5H24a1,1,0,0,0-1,1v.318C12.192,7.105,1,9.507,1,14c0,3.651,7.3,5.626,12.978,6.61l-3.564,2.58,1.172,1.62,5.529-4a1,1,0,0,0,.231-1.387l-3.529-5-1.634,1.154,2.164,3.065C6.084,17.217,3,15.139,3,14c0-1.727,6.379-4.664,20-5.67V16a1,1,0,0,0,1,1H40a1,1,0,0,0,1-1V8.33C54.621,9.336,61,12.273,61,14c0,2.5-11.033,6-29,6-3.044,0-6.048-.107-8.927-.318l-.146,2c2.927.214,5.98.323,9.073.323,15.405,0,31-2.748,31-8C63,9.507,51.808,7.105,41,6.318ZM39,15H25V7h2a1,1,0,0,0,.97-.757L28.781,3h6.438l.811,3.243A1,1,0,0,0,37,7h2Z"/><path d="M32,6a4,4,0,1,0,4,4A4,4,0,0,0,32,6Zm0,6a2,2,0,1,1,2-2A2,2,0,0,1,32,12Z"/></g></svg>
