<svg width="468" height="564" viewBox="0 0 468 564" fill="none" xmlns="http://www.w3.org/2000/svg">
<rect width="468" height="564" rx="4" fill="white"/>
<path d="M30.418 39.234C31.714 39.234 32.758 38.91 33.568 38.262C34.378 37.596 34.774 36.714 34.774 35.616C34.774 34.824 34.594 34.176 34.144 33.726C33.838 33.366 33.676 33.168 33.172 32.898C32.686 32.628 32.542 32.538 31.912 32.304C31.606 32.178 31.39 32.106 31.246 32.052L30.508 31.818C29.536 31.512 28.852 31.206 28.456 30.918C28.06 30.63 27.862 30.216 27.862 29.658C27.862 28.506 28.78 27.786 30.148 27.786C31.516 27.786 32.47 28.434 33.01 29.73L34.414 28.92C33.676 27.264 32.146 26.166 30.148 26.166C29.05 26.166 28.114 26.49 27.34 27.138C26.566 27.768 26.188 28.632 26.188 29.73C26.188 30.648 26.566 31.386 26.98 31.836C27.178 32.052 27.484 32.268 27.898 32.484C28.312 32.682 28.672 32.844 28.942 32.952L30.148 33.348C31.21 33.69 31.984 33.996 32.434 34.302C32.884 34.608 33.118 35.058 33.118 35.652C33.118 36.822 32.182 37.596 30.454 37.596C28.708 37.596 27.574 36.84 27.088 35.31L25.648 36.138C26.314 38.064 28.06 39.234 30.418 39.234ZM44.2572 31.548C43.4832 30.36 42.3492 29.766 40.8552 29.766C39.5952 29.766 38.5152 30.234 37.6332 31.152C36.7512 32.07 36.3012 33.186 36.3012 34.5C36.3012 35.814 36.7512 36.948 37.6332 37.866C38.5152 38.784 39.5952 39.234 40.8552 39.234C42.3492 39.234 43.4832 38.64 44.2572 37.452V39H45.8232V30H44.2572V31.548ZM41.0532 37.722C40.1532 37.722 39.3972 37.416 38.7852 36.804C38.1732 36.174 37.8672 35.418 37.8672 34.5C37.8672 33.582 38.1732 32.826 38.7852 32.214C39.3972 31.584 40.1532 31.278 41.0532 31.278C41.9712 31.278 42.7272 31.584 43.3392 32.214C43.9512 32.826 44.2572 33.582 44.2572 34.5C44.2572 35.418 43.9512 36.174 43.3392 36.804C42.7272 37.416 41.9712 37.722 41.0532 37.722ZM55.6478 31.548C54.8738 30.36 53.7398 29.766 52.2458 29.766C50.9858 29.766 49.9058 30.234 49.0238 31.152C48.1418 32.07 47.6918 33.186 47.6918 34.5C47.6918 35.814 48.1418 36.948 49.0238 37.866C49.9058 38.784 50.9858 39.234 52.2458 39.234C53.7398 39.234 54.8738 38.64 55.6478 37.452V39H57.2138V26.4H55.6478V31.548ZM52.4438 37.722C51.5438 37.722 50.7878 37.416 50.1758 36.804C49.5638 36.174 49.2578 35.418 49.2578 34.5C49.2578 33.582 49.5638 32.826 50.1758 32.214C50.7878 31.584 51.5438 31.278 52.4438 31.278C53.3618 31.278 54.1178 31.584 54.7298 32.214C55.3418 32.826 55.6478 33.582 55.6478 34.5C55.6478 35.418 55.3418 36.174 54.7298 36.804C54.1178 37.416 53.3618 37.722 52.4438 37.722ZM59.1364 33.78C59.1004 34.014 59.0824 34.248 59.0824 34.482C59.0824 35.796 59.4964 36.912 60.3424 37.83C61.1704 38.766 62.2504 39.234 63.5644 39.234C64.9504 39.234 66.0844 38.784 66.9664 37.884C67.8484 36.984 68.2804 35.85 68.2804 34.5C68.2804 33.132 67.8304 31.998 66.9484 31.098C66.0484 30.216 64.8784 29.766 63.4564 29.766C62.0524 29.766 60.9544 30.198 60.1084 31.044L61.1704 32.106C61.7104 31.53 62.4484 31.242 63.4204 31.242C65.1304 31.242 66.3724 32.178 66.6784 33.78H59.1364ZM63.5644 37.758C62.1244 37.758 60.9364 36.858 60.6664 35.148H66.6784C66.4084 36.732 65.2384 37.758 63.5644 37.758ZM79.5486 29.766C78.0546 29.766 76.9206 30.36 76.1466 31.548V30H74.5806V42.6H76.1466V37.452C76.9206 38.64 78.0546 39.234 79.5486 39.234C80.8086 39.234 81.8886 38.784 82.7706 37.866C83.6526 36.948 84.1026 35.814 84.1026 34.5C84.1026 33.186 83.6526 32.07 82.7706 31.152C81.8886 30.234 80.8086 29.766 79.5486 29.766ZM79.3506 37.722C78.4326 37.722 77.6766 37.416 77.0646 36.804C76.4526 36.174 76.1466 35.418 76.1466 34.5C76.1466 33.582 76.4526 32.826 77.0646 32.214C77.6766 31.584 78.4326 31.278 79.3506 31.278C80.2506 31.278 81.0066 31.584 81.6186 32.214C82.2306 32.826 82.5366 33.582 82.5366 34.5C82.5366 35.418 82.2306 36.174 81.6186 36.804C81.0066 37.416 80.2506 37.722 79.3506 37.722ZM87.5372 30H85.9712V39H87.5372V34.23C87.5372 33.24 87.8072 32.538 88.3652 32.088C88.9232 31.638 89.5712 31.44 90.3452 31.476V29.838C88.9952 29.838 88.0592 30.396 87.5372 31.512V30ZM98.9813 37.866C99.8993 36.948 100.367 35.832 100.367 34.5C100.367 33.168 99.8993 32.052 98.9813 31.134C98.0633 30.216 96.9293 29.766 95.6153 29.766C94.3013 29.766 93.1673 30.216 92.2493 31.134C91.3313 32.052 90.8813 33.168 90.8813 34.5C90.8813 35.832 91.3313 36.948 92.2493 37.866C93.1673 38.784 94.3013 39.234 95.6153 39.234C96.9293 39.234 98.0633 38.784 98.9813 37.866ZM95.6153 37.704C94.7333 37.704 93.9773 37.398 93.3653 36.786C92.7533 36.174 92.4473 35.418 92.4473 34.5C92.4473 33.582 92.7533 32.826 93.3653 32.214C93.9773 31.602 94.7333 31.296 95.6153 31.296C96.5153 31.296 97.2713 31.602 97.8833 32.214C98.4953 32.826 98.8013 33.582 98.8013 34.5C98.8013 35.418 98.4953 36.174 97.8833 36.786C97.2713 37.398 96.5153 37.704 95.6153 37.704ZM104.129 30V29.73C104.129 28.218 104.867 27.678 106.505 27.678C107.009 27.678 107.621 27.732 108.359 27.822V26.4C107.621 26.238 106.991 26.166 106.505 26.166C103.877 26.166 102.563 27.354 102.563 29.73V30H101.123V31.512H102.563V39H104.129V31.512H107.459V39H109.025V30H104.129ZM112.99 39V25.86H111.424V39H112.99Z" fill="#081A3E"/>
<path d="M138 35L443 35" stroke="#081A3E"/>
<path d="M25 178H443" stroke="#D6E4F8"/>
<g clip-path="url(#clip0)">
<path d="M264 95C264 100.982 262.248 106.556 259.229 111.237L253.355 113.384C240.856 117.952 227.144 117.952 214.645 113.384L208.771 111.237C205.752 106.556 204 100.982 204 95C204 89.6 205.428 84.53 207.93 80.15C207.936 80.138 207.942 80.126 207.948 80.12C213.114 71.084 222.846 65 234 65C245.154 65 254.886 71.084 260.052 80.12C260.058 80.126 260.064 80.138 260.07 80.15C262.572 84.53 264 89.6 264 95Z" fill="#E2E5F2"/>
<path d="M264 95.0011C264 100.983 262.248 106.557 259.229 111.238L253.355 113.385C240.856 117.953 227.144 117.953 214.645 113.385L208.771 111.238C205.752 106.557 204 100.983 204 95.0011C204 89.6011 205.428 84.5311 207.93 80.1511C207.936 80.1391 207.942 80.1271 207.948 80.1211C210.924 85.323 215.412 89.5471 220.818 92.193C221.43 92.493 222.06 92.775 222.696 93.033C226.098 94.419 229.812 95.199 233.7 95.235H234.3C238.188 95.199 241.902 94.419 245.304 93.033C245.94 92.775 246.57 92.493 247.182 92.193C252.582 89.5471 257.076 85.323 260.052 80.1211C260.058 80.1271 260.064 80.1391 260.07 80.1511C262.572 84.5311 264 89.6011 264 95.0011Z" fill="#C2C9EB"/>
<path d="M234.126 90.9375L234.001 90.8672H226.109V83.2055H234.001L234.22 83.0648C235.48 82.2586 235.357 80.3813 234.001 79.7473V79.7461H222.65V94.3277H234.001L234.124 94.2598C235.428 93.5379 235.43 91.6617 234.126 90.9375Z" fill="#C94D31"/>
<path d="M234 79.7461V83.2055H241.893V90.8684H234V94.3266H245.352V79.7461H234Z" fill="#903D32"/>
<path d="M234.001 125.002H234C229.071 125.002 224.42 123.812 220.318 121.705C220.318 119.135 218.235 117.052 215.664 117.052H213.661C211.798 115.333 210.151 113.38 208.771 111.239V90.1727C208.771 88.7171 209.953 87.5352 211.413 87.5352H234.001L234.958 88.9788C242.253 99.9911 241.87 114.392 234.001 125.002Z" fill="#D85F39"/>
<path d="M259.229 90.1727V111.239C257.853 113.373 256.212 115.321 254.355 117.037L252.243 117.071C249.712 117.113 247.683 119.174 247.683 121.705C243.581 123.812 238.929 125.002 234.001 125.002V87.5352H256.588C258.046 87.5352 259.229 88.7171 259.229 90.1727Z" fill="#C94D31"/>
<path d="M234.001 87.5352V111H211.582C210.03 111 208.771 109.741 208.771 108.188V90.1733C208.771 88.7175 209.953 87.5352 211.412 87.5352H234.001Z" fill="#C94D31"/>
<path d="M259.229 90.1733V108.188C259.229 109.741 257.97 111 256.417 111H234.001V87.5352H256.587C258.046 87.5352 259.229 88.7175 259.229 90.1733Z" fill="#903D32"/>
<path d="M240.253 102.017L234.003 108.182H213.014C210.671 108.182 208.771 106.283 208.771 103.94V87.5352H234.003L240.095 93.1297C242.679 95.5027 242.75 99.5551 240.253 102.017Z" fill="#ED794A"/>
<path d="M259.228 87.5352V103.94C259.228 106.283 257.33 108.182 254.987 108.182H234.001V87.5352H259.228Z" fill="#D85F39"/>
<path d="M218.007 102.895H222.076V113.475H218.007V102.895Z" fill="#384C81"/>
<path d="M220.042 102.895H222.076V113.475H220.042V102.895Z" fill="#303B5A"/>
<path d="M217.195 105.336V111.002H222.862V105.336H217.195ZM221.29 109.43H218.768V106.908H221.29V109.43Z" fill="white"/>
<path d="M220.042 105.336V106.907H221.29V109.429H220.042V111.002H222.863V105.336H220.042Z" fill="#DFF0F8"/>
<path d="M245.356 102.895H249.425V113.475H245.356V102.895Z" fill="#384C81"/>
<path d="M247.391 102.895H249.425V113.475H247.391V102.895Z" fill="#303B5A"/>
<path d="M244.544 105.336V111.002H250.212V105.336H244.544ZM248.639 109.43H246.117V106.908H248.639V109.43Z" fill="white"/>
<path d="M247.391 105.336V106.907H248.639V109.429H247.391V111.002H250.212V105.336H247.391Z" fill="#DFF0F8"/>
<path d="M226.994 114.805V116.918C226.994 119.563 224.849 121.707 222.205 121.707H220.318C217.887 120.459 215.649 118.89 213.661 117.054C213.661 117.009 213.66 116.963 213.66 116.918V114.805H226.994Z" fill="#C94D31"/>
<path d="M254.356 114.805V116.918C254.356 116.959 254.356 116.998 254.355 117.039C252.363 118.883 250.12 120.457 247.682 121.707H245.811C243.166 121.707 241.022 119.563 241.022 116.918V114.805H254.356Z" fill="#903D32"/>
</g>
<path d="M189.839 151.208C190.991 151.208 191.919 150.92 192.639 150.344C193.359 149.752 193.711 148.968 193.711 147.992C193.711 147.288 193.551 146.712 193.151 146.312C192.879 145.992 192.735 145.816 192.287 145.576C191.855 145.336 191.727 145.256 191.167 145.048C190.895 144.936 190.703 144.872 190.575 144.824L189.919 144.616C189.055 144.344 188.447 144.072 188.095 143.816C187.743 143.56 187.567 143.192 187.567 142.696C187.567 141.672 188.383 141.032 189.599 141.032C190.815 141.032 191.663 141.608 192.143 142.76L193.391 142.04C192.735 140.568 191.375 139.592 189.599 139.592C188.623 139.592 187.791 139.88 187.103 140.456C186.415 141.016 186.079 141.784 186.079 142.76C186.079 143.576 186.415 144.232 186.783 144.632C186.959 144.824 187.231 145.016 187.599 145.208C187.967 145.384 188.287 145.528 188.527 145.624L189.599 145.976C190.543 146.28 191.231 146.552 191.631 146.824C192.031 147.096 192.239 147.496 192.239 148.024C192.239 149.064 191.407 149.752 189.871 149.752C188.319 149.752 187.311 149.08 186.879 147.72L185.599 148.456C186.191 150.168 187.743 151.208 189.839 151.208ZM196.033 141.544C196.545 141.544 196.961 141.128 196.961 140.616C196.961 140.104 196.545 139.672 196.033 139.672C195.505 139.672 195.089 140.104 195.089 140.616C195.089 141.128 195.505 141.544 196.033 141.544ZM196.721 151V143H195.329V151H196.721ZM204.557 143.928V143H198.717V144.328H202.637L198.557 150.072V151H204.717V149.672H200.461L204.557 143.928ZM207.08 141.544C207.592 141.544 208.008 141.128 208.008 140.616C208.008 140.104 207.592 139.672 207.08 139.672C206.552 139.672 206.136 140.104 206.136 140.616C206.136 141.128 206.552 141.544 207.08 141.544ZM207.768 151V143H206.376V151H207.768ZM213.876 142.792C212.708 142.792 211.844 143.24 211.284 144.152V143H209.892V151H211.284V146.76C211.284 144.968 212.212 144.12 213.604 144.12C214.836 144.12 215.588 144.872 215.588 146.168V151H216.98V146.088C216.98 144.056 215.748 142.792 213.876 142.792ZM231.563 142.792C230.443 142.792 229.611 143.24 229.051 144.152C228.555 143.24 227.771 142.792 226.699 142.792C225.659 142.792 224.859 143.224 224.315 144.072V143H222.923V151H224.315V146.552C224.315 144.936 225.195 144.12 226.363 144.12C227.403 144.12 228.059 144.84 228.059 146.072V151H229.451V146.552C229.451 144.904 230.219 144.12 231.419 144.12C232.491 144.12 233.179 144.84 233.179 146.072V151H234.571V146.024C234.571 144.04 233.355 142.792 231.563 142.792ZM243.125 144.376C242.437 143.32 241.429 142.792 240.101 142.792C238.981 142.792 238.021 143.208 237.237 144.024C236.453 144.84 236.053 145.832 236.053 147C236.053 148.168 236.453 149.176 237.237 149.992C238.021 150.808 238.981 151.208 240.101 151.208C241.429 151.208 242.437 150.68 243.125 149.624V151H244.517V143H243.125V144.376ZM240.277 149.864C239.477 149.864 238.805 149.592 238.261 149.048C237.717 148.488 237.445 147.816 237.445 147C237.445 146.184 237.717 145.512 238.261 144.968C238.805 144.408 239.477 144.136 240.277 144.136C241.093 144.136 241.765 144.408 242.309 144.968C242.853 145.512 243.125 146.184 243.125 147C243.125 147.816 242.853 148.488 242.309 149.048C241.765 149.592 241.093 149.864 240.277 149.864ZM250.434 142.04C251.922 142.04 252.818 141.24 252.818 139.88H251.522C251.522 140.568 251.154 140.92 250.434 140.92C249.714 140.92 249.346 140.568 249.346 139.88H248.05C248.05 141.24 248.962 142.04 250.434 142.04ZM253.266 144.376C252.578 143.32 251.57 142.792 250.258 142.792C249.122 142.792 248.146 143.192 247.362 144.008C246.578 144.808 246.178 145.784 246.178 146.952C246.178 148.12 246.578 149.096 247.362 149.912C248.146 150.728 249.122 151.128 250.258 151.128C251.554 151.128 252.562 150.6 253.266 149.528V150.664C253.266 152.184 252.258 153.112 250.594 153.112C249.298 153.112 248.418 152.664 247.986 151.768L246.77 152.456C247.426 153.72 248.77 154.408 250.562 154.408C251.682 154.408 252.642 154.072 253.442 153.416C254.242 152.76 254.642 151.848 254.642 150.664V143H253.266V144.376ZM253.266 146.952C253.266 147.768 252.994 148.44 252.45 148.984C251.906 149.528 251.234 149.8 250.418 149.8C249.602 149.8 248.93 149.528 248.386 148.984C247.842 148.44 247.57 147.768 247.57 146.952C247.57 146.152 247.842 145.48 248.386 144.936C248.93 144.392 249.602 144.12 250.418 144.12C251.234 144.12 251.906 144.392 252.45 144.936C252.994 145.48 253.266 146.152 253.266 146.952ZM263.375 144.376C262.687 143.32 261.679 142.792 260.351 142.792C259.231 142.792 258.271 143.208 257.487 144.024C256.703 144.84 256.303 145.832 256.303 147C256.303 148.168 256.703 149.176 257.487 149.992C258.271 150.808 259.231 151.208 260.351 151.208C261.679 151.208 262.687 150.68 263.375 149.624V151H264.767V143H263.375V144.376ZM260.527 149.864C259.727 149.864 259.055 149.592 258.511 149.048C257.967 148.488 257.695 147.816 257.695 147C257.695 146.184 257.967 145.512 258.511 144.968C259.055 144.408 259.727 144.136 260.527 144.136C261.343 144.136 262.015 144.408 262.559 144.968C263.103 145.512 263.375 146.184 263.375 147C263.375 147.816 263.103 148.488 262.559 149.048C262.015 149.592 261.343 149.864 260.527 149.864ZM272.588 143.928V143H266.748V144.328H270.668L266.588 150.072V151H272.748V149.672H268.492L272.588 143.928ZM280.532 144.376C279.844 143.32 278.836 142.792 277.508 142.792C276.388 142.792 275.428 143.208 274.644 144.024C273.86 144.84 273.46 145.832 273.46 147C273.46 148.168 273.86 149.176 274.644 149.992C275.428 150.808 276.388 151.208 277.508 151.208C278.836 151.208 279.844 150.68 280.532 149.624V151H281.924V143H280.532V144.376ZM277.684 149.864C276.884 149.864 276.212 149.592 275.668 149.048C275.124 148.488 274.852 147.816 274.852 147C274.852 146.184 275.124 145.512 275.668 144.968C276.212 144.408 276.884 144.136 277.684 144.136C278.5 144.136 279.172 144.408 279.716 144.968C280.26 145.512 280.532 146.184 280.532 147C280.532 147.816 280.26 148.488 279.716 149.048C279.172 149.592 278.5 149.864 277.684 149.864Z" fill="#081A3E"/>
<rect x="35" y="204" width="398" height="43" rx="4" fill="#081A3E"/>
<path d="M55.608 225.4C55.608 227.016 56.168 228.376 57.288 229.512C58.408 230.648 59.784 231.208 61.4 231.208C63.016 231.208 64.392 230.648 65.512 229.512C66.648 228.376 67.208 227.016 67.208 225.4C67.208 223.784 66.648 222.408 65.512 221.288C64.392 220.152 63.016 219.592 61.4 219.592C59.784 219.592 58.408 220.152 57.288 221.288C56.168 222.408 55.608 223.784 55.608 225.4ZM65.72 225.4C65.72 226.632 65.304 227.656 64.472 228.504C63.656 229.336 62.632 229.752 61.4 229.752C60.168 229.752 59.144 229.336 58.312 228.504C57.496 227.656 57.08 226.632 57.08 225.4C57.08 224.168 57.496 223.128 58.312 222.296C59.144 221.448 60.168 221.032 61.4 221.032C62.632 221.032 63.656 221.448 64.472 222.296C65.304 223.128 65.72 224.168 65.72 225.4ZM72.3346 226.872L75.2146 223H73.5826L71.5186 225.784L69.4546 223H67.8066L70.7026 226.888L67.6306 231H69.2626L71.5186 227.976L73.7586 231H75.3906L72.3346 226.872ZM81.861 228.808C81.877 227.096 80.213 226.632 78.965 226.36C78.085 226.12 77.381 225.784 77.381 225.16C77.381 224.472 78.021 224.088 78.805 224.088C79.653 224.088 80.229 224.424 80.517 225.112L81.685 224.456C81.173 223.416 80.101 222.792 78.805 222.792C77.989 222.792 77.317 223.016 76.773 223.464C76.245 223.912 75.973 224.488 75.973 225.176C75.973 226.872 77.605 227.288 78.869 227.624C79.749 227.832 80.453 228.184 80.453 228.808C80.453 229.56 79.781 229.896 78.869 229.896C77.893 229.896 77.141 229.416 76.885 228.648L75.685 229.336C76.117 230.376 76.981 231 78.277 231.176V232.328C79.157 232.376 79.605 232.568 79.605 232.904C79.605 233.336 78.885 233.512 77.461 233.4V234.456C79.701 234.584 80.821 234.104 80.821 233C80.821 232.36 80.277 231.896 79.461 231.72V231.176C80.917 230.984 81.861 230.088 81.861 228.808ZM89.9144 224.376C89.2264 223.32 88.2184 222.792 86.8904 222.792C85.7704 222.792 84.8104 223.208 84.0264 224.024C83.2424 224.84 82.8424 225.832 82.8424 227C82.8424 228.168 83.2424 229.176 84.0264 229.992C84.8104 230.808 85.7704 231.208 86.8904 231.208C88.2184 231.208 89.2264 230.68 89.9144 229.624V231H91.3064V223H89.9144V224.376ZM87.0664 229.864C86.2664 229.864 85.5944 229.592 85.0504 229.048C84.5064 228.488 84.2344 227.816 84.2344 227C84.2344 226.184 84.5064 225.512 85.0504 224.968C85.5944 224.408 86.2664 224.136 87.0664 224.136C87.8824 224.136 88.5544 224.408 89.0984 224.968C89.6424 225.512 89.9144 226.184 89.9144 227C89.9144 227.816 89.6424 228.488 89.0984 229.048C88.5544 229.592 87.8824 229.864 87.0664 229.864ZM94.8074 223H93.4154V231H94.8074V226.76C94.8074 225.88 95.0474 225.256 95.5434 224.856C96.0394 224.456 96.6154 224.28 97.3034 224.312V222.856C96.1034 222.856 95.2714 223.352 94.8074 224.344V223ZM104.297 226.04H109.017V224.648H104.297V221.208H109.417V219.8H102.809V231H109.497V229.592H104.297V226.04ZM112.542 231V219.32H111.15V231H112.542ZM121.289 224.376C120.601 223.32 119.593 222.792 118.265 222.792C117.145 222.792 116.185 223.208 115.401 224.024C114.617 224.84 114.217 225.832 114.217 227C114.217 228.168 114.617 229.176 115.401 229.992C116.185 230.808 117.145 231.208 118.265 231.208C119.593 231.208 120.601 230.68 121.289 229.624V231H122.681V223H121.289V224.376ZM118.441 229.864C117.641 229.864 116.969 229.592 116.425 229.048C115.881 228.488 115.609 227.816 115.609 227C115.609 226.184 115.881 225.512 116.425 224.968C116.969 224.408 117.641 224.136 118.441 224.136C119.257 224.136 119.929 224.408 120.473 224.968C121.017 225.512 121.289 226.184 121.289 227C121.289 227.816 121.017 228.488 120.473 229.048C119.929 229.592 119.257 229.864 118.441 229.864ZM128.774 222.792C127.606 222.792 126.742 223.24 126.182 224.152V223H124.79V231H126.182V226.76C126.182 224.968 127.11 224.12 128.502 224.12C129.734 224.12 130.486 224.872 130.486 226.168V231H131.878V226.088C131.878 224.056 130.646 222.792 128.774 222.792ZM135.214 231V219.32H133.822V231H135.214ZM143.961 224.376C143.273 223.32 142.265 222.792 140.937 222.792C139.817 222.792 138.857 223.208 138.073 224.024C137.289 224.84 136.889 225.832 136.889 227C136.889 228.168 137.289 229.176 138.073 229.992C138.857 230.808 139.817 231.208 140.937 231.208C142.265 231.208 143.273 230.68 143.961 229.624V231H145.353V223H143.961V224.376ZM141.113 229.864C140.313 229.864 139.641 229.592 139.097 229.048C138.553 228.488 138.281 227.816 138.281 227C138.281 226.184 138.553 225.512 139.097 224.968C139.641 224.408 140.313 224.136 141.113 224.136C141.929 224.136 142.601 224.408 143.145 224.968C143.689 225.512 143.961 226.184 143.961 227C143.961 227.816 143.689 228.488 143.145 229.048C142.601 229.592 141.929 229.864 141.113 229.864ZM148.854 223H147.462V231H148.854V226.76C148.854 225.88 149.094 225.256 149.59 224.856C150.086 224.456 150.662 224.28 151.35 224.312V222.856C150.15 222.856 149.318 223.352 148.854 224.344V223Z" fill="white"/>
<rect x="35" y="471" width="148" height="12" rx="4" fill="#F2F3F8"/>
<rect x="35" y="494" width="100" height="12" rx="4" fill="#F2F3F8"/>
<rect x="35" y="517" width="50" height="12" rx="4" fill="#F2F3F8"/>
<rect x="35" y="267" width="189" height="189" rx="4" fill="#F2F3F8"/>
<path d="M95.8068 366L92.8368 360.96C93.6108 360.69 94.2228 360.204 94.7088 359.538C95.1948 358.872 95.4468 358.116 95.4468 357.306C95.4468 356.226 95.0688 355.308 94.2948 354.552C93.5208 353.778 92.6028 353.4 91.5228 353.4H86.4828V366H88.1568V361.176H91.1268L93.9528 366H95.8068ZM91.5228 354.966C92.1528 354.966 92.6748 355.2 93.1068 355.65C93.5568 356.1 93.7728 356.658 93.7728 357.306C93.7728 357.954 93.5568 358.512 93.1068 358.98C92.6748 359.43 92.1528 359.664 91.5228 359.664H88.1568V354.966H91.5228ZM96.8747 360.78C96.8387 361.014 96.8207 361.248 96.8207 361.482C96.8207 362.796 97.2347 363.912 98.0807 364.83C98.9087 365.766 99.9887 366.234 101.303 366.234C102.689 366.234 103.823 365.784 104.705 364.884C105.587 363.984 106.019 362.85 106.019 361.5C106.019 360.132 105.569 358.998 104.687 358.098C103.787 357.216 102.617 356.766 101.195 356.766C99.7907 356.766 98.6927 357.198 97.8467 358.044L98.9087 359.106C99.4487 358.53 100.187 358.242 101.159 358.242C102.869 358.242 104.111 359.178 104.417 360.78H96.8747ZM101.303 364.758C99.8627 364.758 98.6747 363.858 98.4047 362.148H104.417C104.147 363.732 102.977 364.758 101.303 364.758ZM115.271 358.548C114.497 357.36 113.363 356.766 111.869 356.766C110.609 356.766 109.529 357.234 108.647 358.152C107.765 359.07 107.315 360.186 107.315 361.5C107.315 362.814 107.765 363.948 108.647 364.866C109.529 365.784 110.609 366.234 111.869 366.234C113.363 366.234 114.497 365.64 115.271 364.452V369.6H116.837V357H115.271V358.548ZM112.067 364.722C111.167 364.722 110.411 364.416 109.799 363.804C109.187 363.174 108.881 362.418 108.881 361.5C108.881 360.582 109.187 359.826 109.799 359.214C110.411 358.584 111.167 358.278 112.067 358.278C112.985 358.278 113.741 358.584 114.353 359.214C114.965 359.826 115.271 360.582 115.271 361.5C115.271 362.418 114.965 363.174 114.353 363.804C113.741 364.416 112.985 364.722 112.067 364.722ZM120.001 355.362C120.577 355.362 121.045 354.894 121.045 354.318C121.045 353.742 120.577 353.256 120.001 353.256C119.407 353.256 118.939 353.742 118.939 354.318C118.939 354.894 119.407 355.362 120.001 355.362ZM120.775 366V357H119.209V366H120.775ZM128.133 356.766C126.639 356.766 125.505 357.36 124.731 358.548V353.4H123.165V366H124.731V364.452C125.505 365.64 126.639 366.234 128.133 366.234C129.393 366.234 130.473 365.784 131.355 364.866C132.237 363.948 132.687 362.814 132.687 361.5C132.687 360.186 132.237 359.07 131.355 358.152C130.473 357.234 129.393 356.766 128.133 356.766ZM127.935 364.722C127.017 364.722 126.261 364.416 125.649 363.804C125.037 363.174 124.731 362.418 124.731 361.5C124.731 360.582 125.037 359.826 125.649 359.214C126.261 358.584 127.017 358.278 127.935 358.278C128.835 358.278 129.591 358.584 130.203 359.214C130.815 359.826 131.121 360.582 131.121 361.5C131.121 362.418 130.815 363.174 130.203 363.804C129.591 364.416 128.835 364.722 127.935 364.722ZM147.695 362.22C147.731 361.986 147.749 361.752 147.749 361.518C147.749 360.204 147.335 359.088 146.489 358.17C145.661 357.234 144.581 356.766 143.267 356.766C141.881 356.766 140.747 357.216 139.865 358.116C138.983 359.016 138.551 360.15 138.551 361.5C138.551 362.868 139.001 364.002 139.883 364.902C140.783 365.784 141.953 366.234 143.375 366.234C145.139 366.234 146.453 365.55 147.335 364.2L146.003 363.444C145.463 364.326 144.599 364.758 143.411 364.758C141.701 364.758 140.459 363.822 140.153 362.22H147.695ZM143.267 358.242C144.707 358.242 145.895 359.142 146.165 360.852H140.153C140.423 359.268 141.593 358.242 143.267 358.242ZM151.115 366V352.86H149.549V366H151.115ZM160.956 358.548C160.182 357.36 159.048 356.766 157.554 356.766C156.294 356.766 155.214 357.234 154.332 358.152C153.45 359.07 153 360.186 153 361.5C153 362.814 153.45 363.948 154.332 364.866C155.214 365.784 156.294 366.234 157.554 366.234C159.048 366.234 160.182 365.64 160.956 364.452V366H162.522V357H160.956V358.548ZM157.752 364.722C156.852 364.722 156.096 364.416 155.484 363.804C154.872 363.174 154.566 362.418 154.566 361.5C154.566 360.582 154.872 359.826 155.484 359.214C156.096 358.584 156.852 358.278 157.752 358.278C158.67 358.278 159.426 358.584 160.038 359.214C160.65 359.826 160.956 360.582 160.956 361.5C160.956 362.418 160.65 363.174 160.038 363.804C159.426 364.416 158.67 364.722 157.752 364.722ZM169.377 356.766C168.063 356.766 167.091 357.27 166.461 358.296V357H164.895V366H166.461V361.23C166.461 359.214 167.505 358.26 169.071 358.26C170.457 358.26 171.303 359.106 171.303 360.564V366H172.869V360.474C172.869 358.188 171.483 356.766 169.377 356.766Z" fill="#646E95"/>
<rect x="244" y="426" width="148" height="12" rx="4" fill="#F2F3F8"/>
<rect x="244" y="449" width="100" height="12" rx="4" fill="#F2F3F8"/>
<rect x="244" y="472" width="50" height="12" rx="4" fill="#F2F3F8"/>
<rect x="244" y="267" width="189" height="143.64" rx="4" fill="#F2F3F8"/>
<path d="M304.807 343L301.837 337.96C302.611 337.69 303.223 337.204 303.709 336.538C304.195 335.872 304.447 335.116 304.447 334.306C304.447 333.226 304.069 332.308 303.295 331.552C302.521 330.778 301.603 330.4 300.523 330.4H295.483V343H297.157V338.176H300.127L302.953 343H304.807ZM300.523 331.966C301.153 331.966 301.675 332.2 302.107 332.65C302.557 333.1 302.773 333.658 302.773 334.306C302.773 334.954 302.557 335.512 302.107 335.98C301.675 336.43 301.153 336.664 300.523 336.664H297.157V331.966H300.523ZM305.875 337.78C305.839 338.014 305.821 338.248 305.821 338.482C305.821 339.796 306.235 340.912 307.081 341.83C307.909 342.766 308.989 343.234 310.303 343.234C311.689 343.234 312.823 342.784 313.705 341.884C314.587 340.984 315.019 339.85 315.019 338.5C315.019 337.132 314.569 335.998 313.687 335.098C312.787 334.216 311.617 333.766 310.195 333.766C308.791 333.766 307.693 334.198 306.847 335.044L307.909 336.106C308.449 335.53 309.187 335.242 310.159 335.242C311.869 335.242 313.111 336.178 313.417 337.78H305.875ZM310.303 341.758C308.863 341.758 307.675 340.858 307.405 339.148H313.417C313.147 340.732 311.977 341.758 310.303 341.758ZM324.271 335.548C323.497 334.36 322.363 333.766 320.869 333.766C319.609 333.766 318.529 334.234 317.647 335.152C316.765 336.07 316.315 337.186 316.315 338.5C316.315 339.814 316.765 340.948 317.647 341.866C318.529 342.784 319.609 343.234 320.869 343.234C322.363 343.234 323.497 342.64 324.271 341.452V346.6H325.837V334H324.271V335.548ZM321.067 341.722C320.167 341.722 319.411 341.416 318.799 340.804C318.187 340.174 317.881 339.418 317.881 338.5C317.881 337.582 318.187 336.826 318.799 336.214C319.411 335.584 320.167 335.278 321.067 335.278C321.985 335.278 322.741 335.584 323.353 336.214C323.965 336.826 324.271 337.582 324.271 338.5C324.271 339.418 323.965 340.174 323.353 340.804C322.741 341.416 321.985 341.722 321.067 341.722ZM329.001 332.362C329.577 332.362 330.045 331.894 330.045 331.318C330.045 330.742 329.577 330.256 329.001 330.256C328.407 330.256 327.939 330.742 327.939 331.318C327.939 331.894 328.407 332.362 329.001 332.362ZM329.775 343V334H328.209V343H329.775ZM337.133 333.766C335.639 333.766 334.505 334.36 333.731 335.548V330.4H332.165V343H333.731V341.452C334.505 342.64 335.639 343.234 337.133 343.234C338.393 343.234 339.473 342.784 340.355 341.866C341.237 340.948 341.687 339.814 341.687 338.5C341.687 337.186 341.237 336.07 340.355 335.152C339.473 334.234 338.393 333.766 337.133 333.766ZM336.935 341.722C336.017 341.722 335.261 341.416 334.649 340.804C334.037 340.174 333.731 339.418 333.731 338.5C333.731 337.582 334.037 336.826 334.649 336.214C335.261 335.584 336.017 335.278 336.935 335.278C337.835 335.278 338.591 335.584 339.203 336.214C339.815 336.826 340.121 337.582 340.121 338.5C340.121 339.418 339.815 340.174 339.203 340.804C338.591 341.416 337.835 341.722 336.935 341.722ZM356.695 339.22C356.731 338.986 356.749 338.752 356.749 338.518C356.749 337.204 356.335 336.088 355.489 335.17C354.661 334.234 353.581 333.766 352.267 333.766C350.881 333.766 349.747 334.216 348.865 335.116C347.983 336.016 347.551 337.15 347.551 338.5C347.551 339.868 348.001 341.002 348.883 341.902C349.783 342.784 350.953 343.234 352.375 343.234C354.139 343.234 355.453 342.55 356.335 341.2L355.003 340.444C354.463 341.326 353.599 341.758 352.411 341.758C350.701 341.758 349.459 340.822 349.153 339.22H356.695ZM352.267 335.242C353.707 335.242 354.895 336.142 355.165 337.852H349.153C349.423 336.268 350.593 335.242 352.267 335.242ZM360.115 343V329.86H358.549V343H360.115ZM369.956 335.548C369.182 334.36 368.048 333.766 366.554 333.766C365.294 333.766 364.214 334.234 363.332 335.152C362.45 336.07 362 337.186 362 338.5C362 339.814 362.45 340.948 363.332 341.866C364.214 342.784 365.294 343.234 366.554 343.234C368.048 343.234 369.182 342.64 369.956 341.452V343H371.522V334H369.956V335.548ZM366.752 341.722C365.852 341.722 365.096 341.416 364.484 340.804C363.872 340.174 363.566 339.418 363.566 338.5C363.566 337.582 363.872 336.826 364.484 336.214C365.096 335.584 365.852 335.278 366.752 335.278C367.67 335.278 368.426 335.584 369.038 336.214C369.65 336.826 369.956 337.582 369.956 338.5C369.956 339.418 369.65 340.174 369.038 340.804C368.426 341.416 367.67 341.722 366.752 341.722ZM378.377 333.766C377.063 333.766 376.091 334.27 375.461 335.296V334H373.895V343H375.461V338.23C375.461 336.214 376.505 335.26 378.071 335.26C379.457 335.26 380.303 336.106 380.303 337.564V343H381.869V337.474C381.869 335.188 380.483 333.766 378.377 333.766Z" fill="#646E95"/>
<defs>
<clipPath id="clip0">
<rect width="60" height="60" fill="white" transform="translate(204 65)"/>
</clipPath>
</defs>
</svg>
