<svg width="285" height="189" viewBox="0 0 285 189" fill="none" xmlns="http://www.w3.org/2000/svg">
<rect width="285" height="189" rx="4" fill="white"/>
<path d="M36.2812 25.4L32.2853 32.06L28.2713 25.4H26.3813V38H28.0553V28.172L32.1773 35.012H32.3933L36.5153 28.154V38H38.1713V25.4H36.2812ZM49.3436 34.22C49.3796 33.986 49.3976 33.752 49.3976 33.518C49.3976 32.204 48.9836 31.088 48.1376 30.17C47.3096 29.234 46.2296 28.766 44.9156 28.766C43.5296 28.766 42.3956 29.216 41.5136 30.116C40.6316 31.016 40.1996 32.15 40.1996 33.5C40.1996 34.868 40.6496 36.002 41.5316 36.902C42.4316 37.784 43.6016 38.234 45.0236 38.234C46.7876 38.234 48.1016 37.55 48.9836 36.2L47.6516 35.444C47.1116 36.326 46.2476 36.758 45.0596 36.758C43.3496 36.758 42.1076 35.822 41.8016 34.22H49.3436ZM44.9156 30.242C46.3556 30.242 47.5436 31.142 47.8136 32.852H41.8016C42.0716 31.268 43.2416 30.242 44.9156 30.242ZM52.1962 31.43C52.1962 30.656 52.9162 30.224 53.7982 30.224C54.7522 30.224 55.4002 30.602 55.7242 31.376L57.0382 30.638C56.4622 29.468 55.2562 28.766 53.7982 28.766C52.8802 28.766 52.1242 29.018 51.5122 29.522C50.9182 30.026 50.6122 30.674 50.6122 31.448C50.6122 33.356 52.4482 33.824 53.8702 34.202C54.8602 34.436 55.6522 34.832 55.6522 35.534C55.6522 36.38 54.8962 36.758 53.8702 36.758C52.7722 36.758 51.9262 36.218 51.6382 35.354L50.2882 36.128C50.8102 37.406 52.1242 38.234 53.8702 38.234C54.8602 38.234 55.6522 37.982 56.2822 37.496C56.9122 37.01 57.2362 36.344 57.2362 35.534C57.2542 33.608 55.3822 33.086 53.9782 32.78C52.9882 32.51 52.1962 32.132 52.1962 31.43ZM66.2963 30.548C65.5223 29.36 64.3883 28.766 62.8943 28.766C61.6343 28.766 60.5543 29.234 59.6723 30.152C58.7903 31.07 58.3403 32.186 58.3403 33.5C58.3403 34.814 58.7903 35.948 59.6723 36.866C60.5543 37.784 61.6343 38.234 62.8943 38.234C64.3883 38.234 65.5223 37.64 66.2963 36.452V38H67.8623V29H66.2963V30.548ZM63.0923 36.722C62.1923 36.722 61.4363 36.416 60.8243 35.804C60.2123 35.174 59.9062 34.418 59.9062 33.5C59.9062 32.582 60.2123 31.826 60.8243 31.214C61.4363 30.584 62.1923 30.278 63.0923 30.278C64.0103 30.278 64.7663 30.584 65.3783 31.214C65.9903 31.826 66.2963 32.582 66.2963 33.5C66.2963 34.418 65.9903 35.174 65.3783 35.804C64.7663 36.416 64.0103 36.722 63.0923 36.722ZM71.2295 27.362C71.8055 27.362 72.2735 26.894 72.2735 26.318C72.2735 25.742 71.8055 25.256 71.2295 25.256C70.6355 25.256 70.1675 25.742 70.1675 26.318C70.1675 26.894 70.6355 27.362 71.2295 27.362ZM70.4375 38.54C70.4375 39.926 69.8435 40.448 68.5295 40.322V41.834C70.8155 41.996 72.0035 40.862 72.0035 38.54V29H70.4375V38.54ZM75.9493 38V24.86H74.3833V38H75.9493ZM85.7904 30.548C85.0164 29.36 83.8824 28.766 82.3884 28.766C81.1284 28.766 80.0484 29.234 79.1664 30.152C78.2844 31.07 77.8344 32.186 77.8344 33.5C77.8344 34.814 78.2844 35.948 79.1664 36.866C80.0484 37.784 81.1284 38.234 82.3884 38.234C83.8824 38.234 85.0164 37.64 85.7904 36.452V38H87.3564V29H85.7904V30.548ZM82.5864 36.722C81.6864 36.722 80.9304 36.416 80.3184 35.804C79.7064 35.174 79.4004 34.418 79.4004 33.5C79.4004 32.582 79.7064 31.826 80.3184 31.214C80.9304 30.584 81.6864 30.278 82.5864 30.278C83.5044 30.278 84.2604 30.584 84.8724 31.214C85.4844 31.826 85.7904 32.582 85.7904 33.5C85.7904 34.418 85.4844 35.174 84.8724 35.804C84.2604 36.416 83.5044 36.722 82.5864 36.722ZM91.295 29H89.729V38H91.295V33.23C91.295 32.24 91.565 31.538 92.123 31.088C92.681 30.638 93.329 30.44 94.103 30.476V28.838C92.753 28.838 91.817 29.396 91.295 30.512V29Z" fill="#081A3E"/>
<path d="M259.91 159.032L255.46 154.582C255.358 154.479 255.218 154.422 255.073 154.422C254.928 154.422 254.789 154.479 254.686 154.582L254.358 154.91C254.256 155.013 254.198 155.152 254.198 155.297C254.198 155.442 254.256 155.581 254.358 155.684L258.096 159.422L254.355 163.163C254.253 163.266 254.195 163.405 254.195 163.55C254.195 163.695 254.253 163.834 254.355 163.937L254.683 164.265C254.786 164.367 254.925 164.425 255.07 164.425C255.215 164.425 255.355 164.367 255.457 164.265L259.911 159.811C260.013 159.708 260.071 159.568 260.071 159.423C260.071 159.278 260.013 159.138 259.911 159.035L259.91 159.032Z" fill="#246EB2"/>
<path d="M205.598 159.1C205.598 160.514 206.088 161.704 207.068 162.698C208.048 163.692 209.252 164.182 210.666 164.182C212.08 164.182 213.284 163.692 214.264 162.698C215.258 161.704 215.748 160.514 215.748 159.1C215.748 157.686 215.258 156.482 214.264 155.502C213.284 154.508 212.08 154.018 210.666 154.018C209.252 154.018 208.048 154.508 207.068 155.502L207.964 156.384C208.692 155.642 209.588 155.278 210.666 155.278C211.744 155.278 212.64 155.642 213.354 156.384C213.942 156.972 214.292 157.672 214.404 158.484H205.626C205.598 158.68 205.598 158.89 205.598 159.1ZM213.354 161.816C212.64 162.544 211.744 162.908 210.666 162.908C209.588 162.908 208.692 162.544 207.964 161.816C207.39 161.214 207.04 160.514 206.928 159.702H214.404C214.292 160.514 213.942 161.214 213.354 161.816ZM220.996 157H219.134V155.04L217.916 155.404V157H216.53V158.176H217.916V161.97C217.916 163.706 218.868 164.28 220.996 164V162.908C219.75 162.964 219.134 163.048 219.134 161.97V158.176H220.996V157ZM223.697 157H222.479V164H223.697V160.29C223.697 159.52 223.907 158.974 224.341 158.624C224.775 158.274 225.279 158.12 225.881 158.148V156.874C224.831 156.874 224.103 157.308 223.697 158.176V157ZM232.486 158.204C231.884 157.28 231.002 156.818 229.84 156.818C228.86 156.818 228.02 157.182 227.334 157.896C226.648 158.61 226.298 159.478 226.298 160.5C226.298 161.522 226.648 162.404 227.334 163.118C228.02 163.832 228.86 164.182 229.84 164.182C231.002 164.182 231.884 163.72 232.486 162.796V164H233.704V157H232.486V158.204ZM229.994 163.006C229.294 163.006 228.706 162.768 228.23 162.292C227.754 161.802 227.516 161.214 227.516 160.5C227.516 159.786 227.754 159.198 228.23 158.722C228.706 158.232 229.294 157.994 229.994 157.994C230.708 157.994 231.296 158.232 231.772 158.722C232.248 159.198 232.486 159.786 232.486 160.5C232.486 161.214 232.248 161.802 231.772 162.292C231.296 162.768 230.708 163.006 229.994 163.006ZM239.147 154.018C237.103 154.018 236.081 154.942 236.081 156.79V157H234.961V158.176H236.081V164H237.299V158.176H238.755V157H237.299V156.79C237.299 155.6 237.901 155.11 239.147 155.11C239.301 155.11 239.553 155.124 239.889 155.138V164H241.107V154.228C240.365 154.088 239.707 154.018 239.147 154.018ZM244.191 164V157H242.973V164H244.191Z" fill="#246EB2"/>
<path d="M40.794 57.566C41.074 57.272 41.074 56.796 40.794 56.516C40.514 56.236 40.038 56.236 39.744 56.516C39.464 56.796 39.464 57.272 39.744 57.566C40.038 57.846 40.514 57.846 40.794 57.566ZM43.454 57.566C43.734 57.272 43.734 56.796 43.454 56.516C43.174 56.236 42.698 56.236 42.404 56.516C42.124 56.796 42.124 57.272 42.404 57.566C42.698 57.846 43.174 57.846 43.454 57.566ZM37.924 65.21C37.924 66.26 38.26 67.114 38.946 67.744C39.632 68.374 40.528 68.682 41.606 68.682C42.684 68.682 43.566 68.374 44.252 67.744C44.938 67.114 45.274 66.26 45.274 65.21V58.7H43.986V65.154C43.986 66.54 43.132 67.408 41.606 67.408C40.08 67.408 39.226 66.54 39.226 65.154V58.7H37.924V65.21ZM54.6988 61.318C53.7188 61.318 52.9908 61.71 52.5008 62.508C52.0668 61.71 51.3808 61.318 50.4428 61.318C49.5328 61.318 48.8328 61.696 48.3568 62.438V61.5H47.1388V68.5H48.3568V64.608C48.3568 63.194 49.1268 62.48 50.1488 62.48C51.0588 62.48 51.6328 63.11 51.6328 64.188V68.5H52.8508V64.608C52.8508 63.166 53.5228 62.48 54.5728 62.48C55.5108 62.48 56.1128 63.11 56.1128 64.188V68.5H57.3308V64.146C57.3308 62.41 56.2668 61.318 54.6988 61.318ZM63.8497 65.21C63.8497 66.778 63.0377 67.52 61.8197 67.52C60.7417 67.52 60.0837 66.862 60.0837 65.728V61.5H58.8657V65.798C58.8657 67.576 59.9437 68.682 61.5817 68.682C62.6037 68.682 63.3597 68.29 63.8497 67.492V68.5H65.0677V61.5H63.8497V65.21ZM74.482 61.318C73.502 61.318 72.774 61.71 72.284 62.508C71.85 61.71 71.164 61.318 70.226 61.318C69.316 61.318 68.616 61.696 68.14 62.438V61.5H66.922V68.5H68.14V64.608C68.14 63.194 68.91 62.48 69.932 62.48C70.842 62.48 71.416 63.11 71.416 64.188V68.5H72.634V64.608C72.634 63.166 73.306 62.48 74.356 62.48C75.294 62.48 75.896 63.11 75.896 64.188V68.5H77.114V64.146C77.114 62.41 76.05 61.318 74.482 61.318ZM79.4189 60.226C79.8669 60.226 80.2309 59.862 80.2309 59.414C80.2309 58.966 79.8669 58.588 79.4189 58.588C78.9569 58.588 78.5929 58.966 78.5929 59.414C78.5929 59.862 78.9569 60.226 79.4189 60.226ZM80.0209 68.5V61.5H78.8029V68.5H80.0209ZM82.6491 63.152C83.1671 63.152 83.5591 62.746 83.5591 62.242C83.5591 61.738 83.1671 61.332 82.6491 61.332C82.1451 61.332 81.7391 61.738 81.7391 62.242C81.7391 62.746 82.1451 63.152 82.6491 63.152ZM82.6491 68.654C83.1671 68.654 83.5591 68.248 83.5591 67.744C83.5591 67.24 83.1671 66.834 82.6491 66.834C82.1451 66.834 81.7391 67.24 81.7391 67.744C81.7391 68.248 82.1451 68.654 82.6491 68.654ZM94.6914 68.5V67.24H90.2534L92.7594 64.748C93.9214 63.586 94.5094 62.508 94.5094 61.514C94.5094 60.604 94.2014 59.876 93.5994 59.33C92.9974 58.784 92.2834 58.518 91.4574 58.518C90.1274 58.518 88.9794 59.176 88.3634 60.45L89.4554 61.094C89.8754 60.212 90.5474 59.778 91.4714 59.778C92.4374 59.778 93.2074 60.422 93.2074 61.528C93.2074 62.186 92.7454 62.984 91.8214 63.908L88.3634 67.436V68.5H94.6914Z" fill="#081A3E"/>
<path d="M37.532 93.6C37.532 95.014 38.022 96.204 39.002 97.198C39.982 98.192 41.186 98.682 42.6 98.682C44.014 98.682 45.218 98.192 46.198 97.198C47.192 96.204 47.682 95.014 47.682 93.6C47.682 92.186 47.192 90.982 46.198 90.002C45.218 89.008 44.014 88.518 42.6 88.518C41.186 88.518 39.982 89.008 39.002 90.002C38.022 90.982 37.532 92.186 37.532 93.6ZM46.38 93.6C46.38 94.678 46.016 95.574 45.288 96.316C44.574 97.044 43.678 97.408 42.6 97.408C41.522 97.408 40.626 97.044 39.898 96.316C39.184 95.574 38.82 94.678 38.82 93.6C38.82 92.522 39.184 91.612 39.898 90.884C40.626 90.142 41.522 89.778 42.6 89.778C43.678 89.778 44.574 90.142 45.288 90.884C46.016 91.612 46.38 92.522 46.38 93.6ZM52.1678 94.888L54.6878 91.5H53.2598L51.4538 93.936L49.6478 91.5H48.2058L50.7398 94.902L48.0518 98.5H49.4798L51.4538 95.854L53.4138 98.5H54.8418L52.1678 94.888ZM60.8009 95.21C60.8009 96.778 59.9889 97.52 58.7709 97.52C57.6929 97.52 57.0349 96.862 57.0349 95.728V91.5H55.8169V95.798C55.8169 97.576 56.8949 98.682 58.5329 98.682C59.5549 98.682 60.3109 98.29 60.8009 97.492V98.5H62.0189V91.5H60.8009V95.21ZM67.3592 91.318C66.3372 91.318 65.5812 91.71 65.0912 92.508V91.5H63.8732V98.5H65.0912V94.79C65.0912 93.222 65.9032 92.48 67.1212 92.48C68.1992 92.48 68.8572 93.138 68.8572 94.272V98.5H70.0752V94.202C70.0752 92.424 68.9972 91.318 67.3592 91.318ZM79.3356 91.318C78.3556 91.318 77.6276 91.71 77.1376 92.508C76.7036 91.71 76.0176 91.318 75.0796 91.318C74.1696 91.318 73.4696 91.696 72.9936 92.438V91.5H71.7756V98.5H72.9936V94.608C72.9936 93.194 73.7636 92.48 74.7856 92.48C75.6956 92.48 76.2696 93.11 76.2696 94.188V98.5H77.4876V94.608C77.4876 93.166 78.1596 92.48 79.2096 92.48C80.1476 92.48 80.7496 93.11 80.7496 94.188V98.5H81.9676V94.146C81.9676 92.41 80.9036 91.318 79.3356 91.318ZM89.4524 92.704C88.8504 91.78 87.9684 91.318 86.8064 91.318C85.8264 91.318 84.9864 91.682 84.3004 92.396C83.6144 93.11 83.2644 93.978 83.2644 95C83.2644 96.022 83.6144 96.904 84.3004 97.618C84.9864 98.332 85.8264 98.682 86.8064 98.682C87.9684 98.682 88.8504 98.22 89.4524 97.296V98.5H90.6704V91.5H89.4524V92.704ZM86.9604 97.506C86.2604 97.506 85.6724 97.268 85.1964 96.792C84.7204 96.302 84.4824 95.714 84.4824 95C84.4824 94.286 84.7204 93.698 85.1964 93.222C85.6724 92.732 86.2604 92.494 86.9604 92.494C87.6744 92.494 88.2624 92.732 88.7384 93.222C89.2144 93.698 89.4524 94.286 89.4524 95C89.4524 95.714 89.2144 96.302 88.7384 96.792C88.2624 97.268 87.6744 97.506 86.9604 97.506ZM100.076 91.318C99.0958 91.318 98.3678 91.71 97.8778 92.508C97.4438 91.71 96.7578 91.318 95.8198 91.318C94.9098 91.318 94.2098 91.696 93.7338 92.438V91.5H92.5158V98.5H93.7338V94.608C93.7338 93.194 94.5038 92.48 95.5258 92.48C96.4358 92.48 97.0098 93.11 97.0098 94.188V98.5H98.2278V94.608C98.2278 93.166 98.8998 92.48 99.9498 92.48C100.888 92.48 101.49 93.11 101.49 94.188V98.5H102.708V94.146C102.708 92.41 101.644 91.318 100.076 91.318ZM105.615 98.5V91.5H104.397V98.5H105.615ZM112.429 96.582C112.443 95.084 110.987 94.678 109.895 94.44C109.125 94.23 108.509 93.936 108.509 93.39C108.509 92.788 109.069 92.452 109.755 92.452C110.497 92.452 111.001 92.746 111.253 93.348L112.275 92.774C111.827 91.864 110.889 91.318 109.755 91.318C109.041 91.318 108.453 91.514 107.977 91.906C107.515 92.298 107.277 92.802 107.277 93.404C107.277 94.888 108.705 95.252 109.811 95.546C110.581 95.728 111.197 96.036 111.197 96.582C111.197 97.24 110.609 97.534 109.811 97.534C108.957 97.534 108.299 97.114 108.075 96.442L107.025 97.044C107.403 97.954 108.159 98.5 109.293 98.654V99.662C110.063 99.704 110.455 99.872 110.455 100.166C110.455 100.544 109.825 100.698 108.579 100.6V101.524C110.539 101.636 111.519 101.216 111.519 100.25C111.519 99.69 111.043 99.284 110.329 99.13V98.654C111.603 98.486 112.429 97.702 112.429 96.582ZM114.491 93.152C115.009 93.152 115.401 92.746 115.401 92.242C115.401 91.738 115.009 91.332 114.491 91.332C113.987 91.332 113.581 91.738 113.581 92.242C113.581 92.746 113.987 93.152 114.491 93.152ZM114.491 98.654C115.009 98.654 115.401 98.248 115.401 97.744C115.401 97.24 115.009 96.834 114.491 96.834C113.987 96.834 113.581 97.24 113.581 97.744C113.581 98.248 113.987 98.654 114.491 98.654ZM119.897 89.596L120.219 90.716L122.305 90.1V98.5H123.593V88.7H122.473L119.897 89.596Z" fill="#F81734"/>
<path d="M29 65C30.1046 65 31 64.1046 31 63C31 61.8954 30.1046 61 29 61C27.8954 61 27 61.8954 27 63C27 64.1046 27.8954 65 29 65Z" fill="#081A3E"/>
<path d="M29 96C30.1046 96 31 95.1046 31 94C31 92.8954 30.1046 92 29 92C27.8954 92 27 92.8954 27 94C27 95.1046 27.8954 96 29 96Z" fill="#F81734"/>
<path d="M247.058 20C247.051 20.007 247.037 20.007 247.016 20.007C239.967 20.007 234.233 25.7401 234.233 32.7899C234.233 35.6669 235.216 38.4603 237.013 40.7104L235.153 45.0294C235 45.3847 235.167 45.7957 235.515 45.942C235.641 45.9977 235.78 46.0117 235.912 45.9908L242.732 44.7926C244.098 45.2872 245.533 45.538 246.982 45.531C254.031 45.531 259.764 39.7978 259.764 32.7481C259.778 25.7192 254.087 20.007 247.058 20ZM246.988 44.1447C245.644 44.1447 244.313 43.9009 243.053 43.4272C242.934 43.3785 242.809 43.3715 242.683 43.3924L236.943 44.3955L238.462 40.8637C238.566 40.6199 238.525 40.3342 238.35 40.1322C237.528 39.1779 236.874 38.0911 236.414 36.9139C235.898 35.5973 235.634 34.1971 235.634 32.7829C235.634 26.4994 240.747 21.3932 247.023 21.3932C253.286 21.3793 258.371 26.4437 258.378 32.7063C258.378 32.7202 258.378 32.7342 258.378 32.7481C258.378 39.0385 253.265 44.1447 246.988 44.1447Z" fill="#246EB2" fill-opacity="0.3"/>
<path d="M246.447 30.2188H242.685C242.302 30.2188 241.988 30.5322 241.988 30.9154C241.988 31.2985 242.302 31.612 242.685 31.612H246.447C246.83 31.612 247.143 31.2985 247.143 30.9154C247.143 30.5322 246.83 30.2188 246.447 30.2188Z" fill="#246EB2" fill-opacity="0.3"/>
<path d="M251.323 33.7031H242.685C242.302 33.7031 241.988 34.0166 241.988 34.3997C241.988 34.7829 242.302 35.0964 242.685 35.0964H251.323C251.706 35.0964 252.02 34.7829 252.02 34.3997C252.02 34.0166 251.706 33.7031 251.323 33.7031Z" fill="#246EB2" fill-opacity="0.3"/>
</svg>
