<svg width="285" height="189" viewBox="0 0 285 189" fill="none" xmlns="http://www.w3.org/2000/svg">
<rect width="285" height="189" rx="4" fill="#242426"/>
<path d="M36.2812 25.4L32.2853 32.06L28.2713 25.4H26.3813V38H28.0553V28.172L32.1773 35.012H32.3933L36.5153 28.154V38H38.1713V25.4H36.2812ZM43.4216 27.542C43.7816 27.164 43.7816 26.552 43.4216 26.192C43.0616 25.832 42.4496 25.832 42.0716 26.192C41.7116 26.552 41.7116 27.164 42.0716 27.542C42.4496 27.902 43.0616 27.902 43.4216 27.542ZM46.8416 27.542C47.2016 27.164 47.2016 26.552 46.8416 26.192C46.4816 25.832 45.8696 25.832 45.4916 26.192C45.1316 26.552 45.1316 27.164 45.4916 27.542C45.8696 27.902 46.4816 27.902 46.8416 27.542ZM46.9136 33.77C46.9136 35.786 45.8696 36.74 44.3036 36.74C42.9176 36.74 42.0716 35.894 42.0716 34.436V29H40.5056V34.526C40.5056 36.812 41.8916 38.234 43.9976 38.234C45.3116 38.234 46.2836 37.73 46.9136 36.704V38H48.4796V29H46.9136V33.77ZM58.3158 30.548C57.5418 29.36 56.4078 28.766 54.9138 28.766C53.6538 28.766 52.5738 29.234 51.6918 30.152C50.8098 31.07 50.3598 32.186 50.3598 33.5C50.3598 34.814 50.8098 35.948 51.6918 36.866C52.5738 37.784 53.6538 38.234 54.9138 38.234C56.4078 38.234 57.5418 37.64 58.3158 36.452V41.6H59.8818V29H58.3158V30.548ZM55.1118 36.722C54.2118 36.722 53.4558 36.416 52.8438 35.804C52.2318 35.174 51.9258 34.418 51.9258 33.5C51.9258 32.582 52.2318 31.826 52.8438 31.214C53.4558 30.584 54.2118 30.278 55.1118 30.278C56.0298 30.278 56.7858 30.584 57.3978 31.214C58.0098 31.826 58.3158 32.582 58.3158 33.5C58.3158 34.418 58.0098 35.174 57.3978 35.804C56.7858 36.416 56.0298 36.722 55.1118 36.722ZM69.7064 30.548C68.9324 29.36 67.7984 28.766 66.3044 28.766C65.0444 28.766 63.9644 29.234 63.0824 30.152C62.2004 31.07 61.7504 32.186 61.7504 33.5C61.7504 34.814 62.2004 35.948 63.0824 36.866C63.9644 37.784 65.0444 38.234 66.3044 38.234C67.7984 38.234 68.9324 37.64 69.7064 36.452V38H71.2724V29H69.7064V30.548ZM66.5024 36.722C65.6024 36.722 64.8464 36.416 64.2344 35.804C63.6224 35.174 63.3164 34.418 63.3164 33.5C63.3164 32.582 63.6224 31.826 64.2344 31.214C64.8464 30.584 65.6024 30.278 66.5024 30.278C67.4204 30.278 68.1764 30.584 68.7884 31.214C69.4004 31.826 69.7064 32.582 69.7064 33.5C69.7064 34.418 69.4004 35.174 68.7884 35.804C68.1764 36.416 67.4204 36.722 66.5024 36.722ZM77.119 36.326L74.293 29H72.601L76.201 38H78.037L81.637 29H79.945L77.119 36.326ZM83.7534 27.362C84.3294 27.362 84.7974 26.894 84.7974 26.318C84.7974 25.742 84.3294 25.256 83.7534 25.256C83.1594 25.256 82.6914 25.742 82.6914 26.318C82.6914 26.894 83.1594 27.362 83.7534 27.362ZM84.5274 38V29H82.9614V38H84.5274ZM88.4825 38V24.86H86.9165V38H88.4825ZM90.4216 32.78C90.3856 33.014 90.3676 33.248 90.3676 33.482C90.3676 34.796 90.7816 35.912 91.6276 36.83C92.4556 37.766 93.5356 38.234 94.8496 38.234C96.2356 38.234 97.3696 37.784 98.2516 36.884C99.1336 35.984 99.5656 34.85 99.5656 33.5C99.5656 32.132 99.1156 30.998 98.2336 30.098C97.3336 29.216 96.1636 28.766 94.7416 28.766C93.3376 28.766 92.2396 29.198 91.3936 30.044L92.4556 31.106C92.9956 30.53 93.7336 30.242 94.7056 30.242C96.4156 30.242 97.6576 31.178 97.9636 32.78H90.4216ZM94.8496 36.758C93.4096 36.758 92.2216 35.858 91.9516 34.148H97.9636C97.6936 35.732 96.5236 36.758 94.8496 36.758Z" fill="white"/>
<path d="M33.862 58.2L30.6 63.66L27.338 58.2H26.12V68H27.1V59.684L30.53 65.424H30.67L34.1 59.684V68H35.08V58.2H33.862ZM39.1093 59.768C39.3473 59.53 39.3473 59.11 39.1093 58.872C38.8713 58.634 38.4513 58.634 38.2133 58.872C37.9753 59.11 37.9753 59.53 38.2133 59.768C38.4513 60.006 38.8713 60.006 39.1093 59.768ZM41.7693 59.768C42.0073 59.53 42.0073 59.11 41.7693 58.872C41.5313 58.634 41.1113 58.634 40.8733 58.872C40.6353 59.11 40.6353 59.53 40.8733 59.768C41.1113 60.006 41.5313 60.006 41.7693 59.768ZM42.1053 64.668C42.1053 66.446 41.1813 67.272 39.8373 67.272C38.6193 67.272 37.9333 66.544 37.9333 65.298V61H37.0093V65.298C37.0093 67.048 38.0593 68.168 39.7533 68.168C40.8033 68.168 41.5873 67.748 42.1053 66.908V68H43.0293V61H42.1053V64.668ZM51.0039 62.372C50.3599 61.35 49.4219 60.832 48.1759 60.832C47.1819 60.832 46.3279 61.182 45.6139 61.896C44.9139 62.61 44.5639 63.478 44.5639 64.5C44.5639 65.522 44.9139 66.39 45.6139 67.104C46.3279 67.818 47.1819 68.168 48.1759 68.168C49.4219 68.168 50.3599 67.65 51.0039 66.628V70.8H51.9279V61H51.0039V62.372ZM46.2859 66.474C45.7539 65.928 45.4879 65.27 45.4879 64.5C45.4879 63.73 45.7539 63.072 46.2859 62.54C46.8179 61.994 47.4759 61.728 48.2459 61.728C49.0159 61.728 49.6739 61.994 50.2059 62.54C50.7379 63.072 51.0039 63.73 51.0039 64.5C51.0039 65.27 50.7379 65.928 50.2059 66.474C49.6739 67.006 49.0159 67.272 48.2459 67.272C47.4759 67.272 46.8179 67.006 46.2859 66.474ZM59.9043 62.372C59.2603 61.35 58.3223 60.832 57.0763 60.832C56.0823 60.832 55.2283 61.182 54.5143 61.896C53.8143 62.61 53.4643 63.478 53.4643 64.5C53.4643 65.522 53.8143 66.39 54.5143 67.104C55.2283 67.818 56.0823 68.168 57.0763 68.168C58.3223 68.168 59.2603 67.65 59.9043 66.628V68H60.8283V61H59.9043V62.372ZM55.1863 66.474C54.6543 65.928 54.3883 65.27 54.3883 64.5C54.3883 63.73 54.6543 63.072 55.1863 62.54C55.7183 61.994 56.3763 61.728 57.1463 61.728C57.9163 61.728 58.5743 61.994 59.1063 62.54C59.6383 63.072 59.9043 63.73 59.9043 64.5C59.9043 65.27 59.6383 65.928 59.1063 66.474C58.5743 67.006 57.9163 67.272 57.1463 67.272C56.3763 67.272 55.7183 67.006 55.1863 66.474ZM65.3747 67.034L62.9247 61H61.9447L64.8147 68H65.9347L68.8047 61H67.8247L65.3747 67.034ZM70.8594 59.32C71.1254 59.054 71.1254 58.634 70.8594 58.368C70.5934 58.102 70.1734 58.102 69.9074 58.368C69.6414 58.634 69.6414 59.054 69.9074 59.32C70.1734 59.586 70.5934 59.586 70.8594 59.32ZM70.8454 68V61H69.9214V68H70.8454ZM73.7302 68V57.78H72.8062V68H73.7302ZM78.7429 68.168C79.8209 68.168 80.6889 67.818 81.3749 67.118C82.0609 66.418 82.3969 65.55 82.3969 64.5C82.3969 63.436 82.0469 62.554 81.3609 61.868C80.6749 61.182 79.7789 60.832 78.6729 60.832C77.6089 60.832 76.7129 61.21 76.0689 61.84L76.7129 62.498C77.1469 62.022 77.8189 61.728 78.6589 61.728C80.1569 61.728 81.2629 62.624 81.4449 64.038H75.2989C75.2849 64.22 75.2709 64.374 75.2709 64.472C75.2709 65.466 75.5929 66.334 76.2369 67.062C76.8669 67.804 77.7069 68.168 78.7429 68.168ZM78.7429 67.272C78.1129 67.272 77.5529 67.062 77.0769 66.656C76.6009 66.25 76.3209 65.676 76.2229 64.934H81.4449C81.2629 66.32 80.1989 67.272 78.7429 67.272ZM87.1427 60.832C86.0927 60.832 85.3087 61.252 84.7907 62.092V61H83.8667V68H84.7907V64.332C84.7907 62.554 85.7147 61.728 87.0587 61.728C88.2767 61.728 88.9627 62.456 88.9627 63.702V68H89.8867V63.702C89.8867 61.952 88.8367 60.832 87.1427 60.832ZM92.6114 59.32C92.8774 59.054 92.8774 58.634 92.6114 58.368C92.3454 58.102 91.9254 58.102 91.6594 58.368C91.3934 58.634 91.3934 59.054 91.6594 59.32C91.9254 59.586 92.3454 59.586 92.6114 59.32ZM92.5974 68V61H91.6734V68H92.5974ZM97.8341 60.832C96.7841 60.832 96.0001 61.252 95.4821 62.092V61H94.5581V68H95.4821V64.332C95.4821 62.554 96.4061 61.728 97.7501 61.728C98.9681 61.728 99.6541 62.456 99.6541 63.702V68H100.578V63.702C100.578 61.952 99.5281 60.832 97.8341 60.832ZM109.617 60.832C108.371 60.832 107.433 61.35 106.789 62.372V58.2H105.865V68H106.789V66.628C107.433 67.65 108.371 68.168 109.617 68.168C110.611 68.168 111.465 67.818 112.165 67.104C112.879 66.39 113.229 65.522 113.229 64.5C113.229 63.478 112.879 62.61 112.165 61.896C111.465 61.182 110.611 60.832 109.617 60.832ZM107.587 66.474C107.055 65.928 106.789 65.27 106.789 64.5C106.789 63.73 107.055 63.072 107.587 62.54C108.119 61.994 108.777 61.728 109.547 61.728C110.317 61.728 110.975 61.994 111.507 62.54C112.039 63.072 112.305 63.73 112.305 64.5C112.305 65.27 112.039 65.928 111.507 66.474C110.975 67.006 110.317 67.272 109.547 67.272C108.777 67.272 108.119 67.006 107.587 66.474ZM115.703 59.32C115.969 59.054 115.969 58.634 115.703 58.368C115.437 58.102 115.017 58.102 114.751 58.368C114.485 58.634 114.485 59.054 114.751 59.32C115.017 59.586 115.437 59.586 115.703 59.32ZM115.689 68V61H114.765V68H115.689ZM121.36 61H119.344V59.04L118.42 59.32V61H116.95V61.896H118.42V66.138C118.42 67.762 119.4 68.294 121.36 68V67.188C120.016 67.244 119.344 67.342 119.344 66.138V61.896H121.36V61ZM130.362 60.832C129.354 60.832 128.598 61.252 128.094 62.106C127.688 61.252 126.974 60.832 125.966 60.832C125.042 60.832 124.328 61.224 123.824 62.022V61H122.9V68H123.824V64.122C123.824 62.498 124.72 61.728 125.84 61.728C126.848 61.728 127.478 62.4 127.478 63.632V68H128.402V64.122C128.402 62.484 129.186 61.728 130.348 61.728C131.37 61.728 132.056 62.414 132.056 63.632V68H132.98V63.632C132.98 61.91 131.93 60.832 130.362 60.832ZM137.819 68.168C138.897 68.168 139.765 67.818 140.451 67.118C141.137 66.418 141.473 65.55 141.473 64.5C141.473 63.436 141.123 62.554 140.437 61.868C139.751 61.182 138.855 60.832 137.749 60.832C136.685 60.832 135.789 61.21 135.145 61.84L135.789 62.498C136.223 62.022 136.895 61.728 137.735 61.728C139.233 61.728 140.339 62.624 140.521 64.038H134.375C134.361 64.22 134.347 64.374 134.347 64.472C134.347 65.466 134.669 66.334 135.313 67.062C135.943 67.804 136.783 68.168 137.819 68.168ZM137.819 67.272C137.189 67.272 136.629 67.062 136.153 66.656C135.677 66.25 135.397 65.676 135.299 64.934H140.521C140.339 66.32 139.275 67.272 137.819 67.272ZM149.033 67.034L146.583 61H145.603L148.473 68H149.593L152.463 61H151.483L149.033 67.034ZM159.326 62.372C158.682 61.35 157.744 60.832 156.498 60.832C155.504 60.832 154.65 61.182 153.936 61.896C153.236 62.61 152.886 63.478 152.886 64.5C152.886 65.522 153.236 66.39 153.936 67.104C154.65 67.818 155.504 68.168 156.498 68.168C157.744 68.168 158.682 67.65 159.326 66.628V68H160.25V61H159.326V62.372ZM154.608 66.474C154.076 65.928 153.81 65.27 153.81 64.5C153.81 63.73 154.076 63.072 154.608 62.54C155.14 61.994 155.798 61.728 156.568 61.728C157.338 61.728 157.996 61.994 158.528 62.54C159.06 63.072 159.326 63.73 159.326 64.5C159.326 65.27 159.06 65.928 158.528 66.474C157.996 67.006 157.338 67.272 156.568 67.272C155.798 67.272 155.14 67.006 154.608 66.474ZM165.357 64.374L167.905 61H166.799L164.797 63.646L162.795 61H161.689L164.251 64.374L161.507 68H162.613L164.797 65.116L166.981 68H168.087L165.357 64.374ZM173.053 61H171.037V59.04L170.113 59.32V61H168.643V61.896H170.113V66.138C170.113 67.762 171.093 68.294 173.053 68V67.188C171.709 67.244 171.037 67.342 171.037 66.138V61.896H173.053V61ZM175.517 68V61H174.593V68H175.517ZM178.654 62.176C178.948 61.882 178.948 61.378 178.654 61.084C178.36 60.79 177.856 60.79 177.562 61.084C177.268 61.378 177.268 61.882 177.562 62.176C177.856 62.47 178.36 62.47 178.654 62.176ZM178.654 67.916C178.948 67.622 178.948 67.118 178.654 66.824C178.36 66.53 177.856 66.53 177.562 66.824C177.268 67.118 177.268 67.622 177.562 67.916C177.856 68.21 178.36 68.21 178.654 67.916ZM31.832 87V85.74H27.394L29.9 83.248C31.062 82.086 31.65 81.008 31.65 80.014C31.65 79.104 31.342 78.376 30.74 77.83C30.138 77.284 29.424 77.018 28.598 77.018C27.268 77.018 26.12 77.676 25.504 78.95L26.596 79.594C27.016 78.712 27.688 78.278 28.612 78.278C29.578 78.278 30.348 78.922 30.348 80.028C30.348 80.686 29.886 81.484 28.962 82.408L25.504 85.936V87H31.832ZM39.4421 85.796C40.1001 84.872 40.4361 83.64 40.4361 82.1C40.4361 80.56 40.1001 79.328 39.4421 78.404C38.7841 77.48 37.8461 77.018 36.6561 77.018C35.4661 77.018 34.5281 77.48 33.8701 78.404C33.2121 79.328 32.8761 80.56 32.8761 82.1C32.8761 83.64 33.2121 84.872 33.8701 85.796C34.5281 86.72 35.4661 87.182 36.6561 87.182C37.8461 87.182 38.7841 86.72 39.4421 85.796ZM34.1781 82.1C34.1781 79.65 35.0741 78.278 36.6561 78.278C38.2381 78.278 39.1481 79.678 39.1481 82.1C39.1481 84.522 38.2381 85.908 36.6561 85.908C35.0741 85.908 34.1781 84.522 34.1781 82.1ZM42.3346 87.154C42.8526 87.154 43.2446 86.748 43.2446 86.244C43.2446 85.74 42.8526 85.334 42.3346 85.334C41.8306 85.334 41.4246 85.74 41.4246 86.244C41.4246 86.748 41.8306 87.154 42.3346 87.154ZM50.8171 85.796C51.4751 84.872 51.8111 83.64 51.8111 82.1C51.8111 80.56 51.4751 79.328 50.8171 78.404C50.1591 77.48 49.2211 77.018 48.0311 77.018C46.8411 77.018 45.9031 77.48 45.2451 78.404C44.5871 79.328 44.2511 80.56 44.2511 82.1C44.2511 83.64 44.5871 84.872 45.2451 85.796C45.9031 86.72 46.8411 87.182 48.0311 87.182C49.2211 87.182 50.1591 86.72 50.8171 85.796ZM45.5531 82.1C45.5531 79.65 46.4491 78.278 48.0311 78.278C49.6131 78.278 50.5231 79.678 50.5231 82.1C50.5231 84.522 49.6131 85.908 48.0311 85.908C46.4491 85.908 45.5531 84.522 45.5531 82.1ZM59.0937 87V85.74H54.6557L57.1617 83.248C58.3237 82.086 58.9117 81.008 58.9117 80.014C58.9117 79.104 58.6037 78.376 58.0017 77.83C57.3997 77.284 56.6857 77.018 55.8597 77.018C54.5297 77.018 53.3817 77.676 52.7657 78.95L53.8577 79.594C54.2777 78.712 54.9497 78.278 55.8737 78.278C56.8397 78.278 57.6097 78.922 57.6097 80.028C57.6097 80.686 57.1477 81.484 56.2237 82.408L52.7657 85.936V87H59.0937ZM61.3385 87.154C61.8565 87.154 62.2485 86.748 62.2485 86.244C62.2485 85.74 61.8565 85.334 61.3385 85.334C60.8345 85.334 60.4285 85.74 60.4285 86.244C60.4285 86.748 60.8345 87.154 61.3385 87.154ZM69.8808 87V85.74H65.4428L67.9488 83.248C69.1108 82.086 69.6988 81.008 69.6988 80.014C69.6988 79.104 69.3908 78.376 68.7888 77.83C68.1868 77.284 67.4728 77.018 66.6468 77.018C65.3168 77.018 64.1688 77.676 63.5528 78.95L64.6448 79.594C65.0648 78.712 65.7368 78.278 66.6608 78.278C67.6268 78.278 68.3968 78.922 68.3968 80.028C68.3968 80.686 67.9348 81.484 67.0108 82.408L63.5528 85.936V87H69.8808ZM77.4909 85.796C78.1489 84.872 78.4849 83.64 78.4849 82.1C78.4849 80.56 78.1489 79.328 77.4909 78.404C76.8329 77.48 75.8949 77.018 74.7049 77.018C73.5149 77.018 72.5769 77.48 71.9189 78.404C71.2609 79.328 70.9249 80.56 70.9249 82.1C70.9249 83.64 71.2609 84.872 71.9189 85.796C72.5769 86.72 73.5149 87.182 74.7049 87.182C75.8949 87.182 76.8329 86.72 77.4909 85.796ZM72.2269 82.1C72.2269 79.65 73.1229 78.278 74.7049 78.278C76.2869 78.278 77.1969 79.678 77.1969 82.1C77.1969 84.522 76.2869 85.908 74.7049 85.908C73.1229 85.908 72.2269 84.522 72.2269 82.1ZM85.7675 87V85.74H81.3295L83.8355 83.248C84.9975 82.086 85.5855 81.008 85.5855 80.014C85.5855 79.104 85.2775 78.376 84.6755 77.83C84.0735 77.284 83.3595 77.018 82.5335 77.018C81.2035 77.018 80.0555 77.676 79.4395 78.95L80.5315 79.594C80.9515 78.712 81.6235 78.278 82.5475 78.278C83.5135 78.278 84.2835 78.922 84.2835 80.028C84.2835 80.686 83.8215 81.484 82.8975 82.408L79.4395 85.936V87H85.7675ZM93.3776 85.796C94.0356 84.872 94.3716 83.64 94.3716 82.1C94.3716 80.56 94.0356 79.328 93.3776 78.404C92.7196 77.48 91.7816 77.018 90.5916 77.018C89.4016 77.018 88.4636 77.48 87.8056 78.404C87.1476 79.328 86.8116 80.56 86.8116 82.1C86.8116 83.64 87.1476 84.872 87.8056 85.796C88.4636 86.72 89.4016 87.182 90.5916 87.182C91.7816 87.182 92.7196 86.72 93.3776 85.796ZM88.1136 82.1C88.1136 79.65 89.0096 78.278 90.5916 78.278C92.1736 78.278 93.0836 79.678 93.0836 82.1C93.0836 84.522 92.1736 85.908 90.5916 85.908C89.0096 85.908 88.1136 84.522 88.1136 82.1Z" fill="white"/>
<path d="M259.778 159.03L255.328 154.58C255.225 154.478 255.086 154.42 254.941 154.42C254.795 154.42 254.656 154.478 254.554 154.58L254.226 154.908C254.123 155.011 254.065 155.15 254.065 155.295C254.065 155.44 254.123 155.579 254.226 155.682L257.964 159.42L254.223 163.161C254.12 163.264 254.062 163.403 254.062 163.548C254.062 163.693 254.12 163.832 254.223 163.935L254.551 164.263C254.653 164.366 254.792 164.423 254.938 164.423C255.083 164.423 255.222 164.366 255.325 164.263L259.779 159.809C259.881 159.706 259.938 159.566 259.938 159.421C259.938 159.276 259.881 159.136 259.779 159.033L259.778 159.03Z" fill="white"/>
<path d="M205.466 159.1C205.466 160.514 205.956 161.704 206.936 162.698C207.916 163.692 209.12 164.182 210.534 164.182C211.948 164.182 213.152 163.692 214.132 162.698C215.126 161.704 215.616 160.514 215.616 159.1C215.616 157.686 215.126 156.482 214.132 155.502C213.152 154.508 211.948 154.018 210.534 154.018C209.12 154.018 207.916 154.508 206.936 155.502L207.832 156.384C208.56 155.642 209.456 155.278 210.534 155.278C211.612 155.278 212.508 155.642 213.222 156.384C213.81 156.972 214.16 157.672 214.272 158.484H205.494C205.466 158.68 205.466 158.89 205.466 159.1ZM213.222 161.816C212.508 162.544 211.612 162.908 210.534 162.908C209.456 162.908 208.56 162.544 207.832 161.816C207.258 161.214 206.908 160.514 206.796 159.702H214.272C214.16 160.514 213.81 161.214 213.222 161.816ZM220.863 157H219.001V155.04L217.783 155.404V157H216.397V158.176H217.783V161.97C217.783 163.706 218.735 164.28 220.863 164V162.908C219.617 162.964 219.001 163.048 219.001 161.97V158.176H220.863V157ZM223.564 157H222.346V164H223.564V160.29C223.564 159.52 223.774 158.974 224.208 158.624C224.642 158.274 225.146 158.12 225.748 158.148V156.874C224.698 156.874 223.97 157.308 223.564 158.176V157ZM232.353 158.204C231.751 157.28 230.869 156.818 229.707 156.818C228.727 156.818 227.887 157.182 227.201 157.896C226.515 158.61 226.165 159.478 226.165 160.5C226.165 161.522 226.515 162.404 227.201 163.118C227.887 163.832 228.727 164.182 229.707 164.182C230.869 164.182 231.751 163.72 232.353 162.796V164H233.571V157H232.353V158.204ZM229.861 163.006C229.161 163.006 228.573 162.768 228.097 162.292C227.621 161.802 227.383 161.214 227.383 160.5C227.383 159.786 227.621 159.198 228.097 158.722C228.573 158.232 229.161 157.994 229.861 157.994C230.575 157.994 231.163 158.232 231.639 158.722C232.115 159.198 232.353 159.786 232.353 160.5C232.353 161.214 232.115 161.802 231.639 162.292C231.163 162.768 230.575 163.006 229.861 163.006ZM239.014 154.018C236.97 154.018 235.948 154.942 235.948 156.79V157H234.828V158.176H235.948V164H237.166V158.176H238.622V157H237.166V156.79C237.166 155.6 237.768 155.11 239.014 155.11C239.168 155.11 239.42 155.124 239.756 155.138V164H240.974V154.228C240.232 154.088 239.574 154.018 239.014 154.018ZM244.058 164V157H242.84V164H244.058Z" fill="white"/>
<path d="M29.788 153.024C30.068 152.73 30.068 152.254 29.788 151.974C29.508 151.694 29.032 151.694 28.738 151.974C28.458 152.254 28.458 152.73 28.738 153.024C29.032 153.304 29.508 153.304 29.788 153.024ZM32.448 153.024C32.728 152.73 32.728 152.254 32.448 151.974C32.168 151.694 31.692 151.694 31.398 151.974C31.118 152.254 31.118 152.73 31.398 153.024C31.692 153.304 32.168 153.304 32.448 153.024ZM25.532 159.1C25.532 160.514 26.022 161.704 27.002 162.698C27.982 163.692 29.186 164.182 30.6 164.182C32.014 164.182 33.218 163.692 34.198 162.698C35.192 161.704 35.682 160.514 35.682 159.1C35.682 157.686 35.192 156.482 34.198 155.502C33.218 154.508 32.014 154.018 30.6 154.018C29.186 154.018 27.982 154.508 27.002 155.502C26.022 156.482 25.532 157.686 25.532 159.1ZM34.38 159.1C34.38 160.178 34.016 161.074 33.288 161.816C32.574 162.544 31.678 162.908 30.6 162.908C29.522 162.908 28.626 162.544 27.898 161.816C27.184 161.074 26.82 160.178 26.82 159.1C26.82 158.022 27.184 157.112 27.898 156.384C28.626 155.642 29.522 155.278 30.6 155.278C31.678 155.278 32.574 155.642 33.288 156.384C34.016 157.112 34.38 158.022 34.38 159.1ZM42.9173 158.204C42.3153 157.28 41.4333 156.818 40.2713 156.818C39.2913 156.818 38.4513 157.182 37.7653 157.896C37.0793 158.61 36.7293 159.478 36.7293 160.5C36.7293 161.522 37.0793 162.404 37.7653 163.118C38.4513 163.832 39.2913 164.182 40.2713 164.182C41.4333 164.182 42.3153 163.72 42.9173 162.796V164H44.1353V154.2H42.9173V158.204ZM40.4253 163.006C39.7253 163.006 39.1373 162.768 38.6613 162.292C38.1853 161.802 37.9473 161.214 37.9473 160.5C37.9473 159.786 38.1853 159.198 38.6613 158.722C39.1373 158.232 39.7253 157.994 40.4253 157.994C41.1393 157.994 41.7273 158.232 42.2033 158.722C42.6793 159.198 42.9173 159.786 42.9173 160.5C42.9173 161.214 42.6793 161.802 42.2033 162.292C41.7273 162.768 41.1393 163.006 40.4253 163.006ZM45.6306 159.94C45.6026 160.122 45.5886 160.304 45.5886 160.486C45.5886 161.508 45.9106 162.376 46.5686 163.09C47.2126 163.818 48.0526 164.182 49.0746 164.182C50.1526 164.182 51.0346 163.832 51.7206 163.132C52.4066 162.432 52.7426 161.55 52.7426 160.5C52.7426 159.436 52.3926 158.554 51.7066 157.854C51.0066 157.168 50.0966 156.818 48.9906 156.818C47.8986 156.818 47.0446 157.154 46.3866 157.812L47.2126 158.638C47.6326 158.19 48.2066 157.966 48.9626 157.966C50.2926 157.966 51.2586 158.694 51.4966 159.94H45.6306ZM49.0746 163.034C47.9546 163.034 47.0306 162.334 46.8206 161.004H51.4966C51.2866 162.236 50.3766 163.034 49.0746 163.034ZM57.6288 156.818C56.6068 156.818 55.8508 157.21 55.3608 158.008V157H54.1427V164H55.3608V160.29C55.3608 158.722 56.1728 157.98 57.3908 157.98C58.4688 157.98 59.1268 158.638 59.1268 159.772V164H60.3448V159.702C60.3448 157.924 59.2668 156.818 57.6288 156.818ZM62.6611 155.726C63.1091 155.726 63.4731 155.362 63.4731 154.914C63.4731 154.466 63.1091 154.088 62.6611 154.088C62.1991 154.088 61.8351 154.466 61.8351 154.914C61.8351 155.362 62.1991 155.726 62.6611 155.726ZM63.2631 164V157H62.0451V164H63.2631ZM70.0776 162.082C70.0916 160.584 68.6356 160.178 67.5436 159.94C66.7736 159.73 66.1576 159.436 66.1576 158.89C66.1576 158.288 66.7176 157.952 67.4036 157.952C68.1456 157.952 68.6496 158.246 68.9016 158.848L69.9236 158.274C69.4756 157.364 68.5376 156.818 67.4036 156.818C66.6896 156.818 66.1016 157.014 65.6256 157.406C65.1636 157.798 64.9256 158.302 64.9256 158.904C64.9256 160.388 66.3536 160.752 67.4596 161.046C68.2296 161.228 68.8456 161.536 68.8456 162.082C68.8456 162.74 68.2576 163.034 67.4596 163.034C66.6056 163.034 65.9476 162.614 65.7236 161.942L64.6736 162.544C65.0516 163.454 65.8076 164 66.9416 164.154V165.162C67.7116 165.204 68.1036 165.372 68.1036 165.666C68.1036 166.044 67.4736 166.198 66.2276 166.1V167.024C68.1876 167.136 69.1676 166.716 69.1676 165.75C69.1676 165.19 68.6916 164.784 67.9776 164.63V164.154C69.2516 163.986 70.0776 163.202 70.0776 162.082ZM81.7397 161.06C81.7677 160.878 81.7817 160.696 81.7817 160.514C81.7817 159.492 81.4597 158.624 80.8017 157.91C80.1577 157.182 79.3177 156.818 78.2957 156.818C77.2177 156.818 76.3357 157.168 75.6497 157.868C74.9637 158.568 74.6277 159.45 74.6277 160.5C74.6277 161.564 74.9777 162.446 75.6637 163.146C76.3637 163.832 77.2737 164.182 78.3797 164.182C79.7517 164.182 80.7737 163.65 81.4597 162.6L80.4237 162.012C80.0037 162.698 79.3317 163.034 78.4077 163.034C77.0777 163.034 76.1117 162.306 75.8737 161.06H81.7397ZM78.2957 157.966C79.4157 157.966 80.3397 158.666 80.5497 159.996H75.8737C76.0837 158.764 76.9937 157.966 78.2957 157.966ZM86.7847 157H84.9227V155.04L83.7047 155.404V157H82.3187V158.176H83.7047V161.97C83.7047 163.706 84.6567 164.28 86.7847 164V162.908C85.5387 162.964 84.9227 163.048 84.9227 161.97V158.176H86.7847V157Z" fill="#29A53E"/>
<path d="M25 165.4H87.3447V166.1H25V165.4Z" fill="#29A53E"/>
<path fill-rule="evenodd" clip-rule="evenodd" d="M252.833 21.3334C252.833 20.6891 252.311 20.1667 251.667 20.1667C251.022 20.1667 250.5 20.6891 250.5 21.3334V22.5H243.505V21.3334C243.505 20.6891 242.983 20.1667 242.339 20.1667C241.694 20.1667 241.172 20.6891 241.172 21.3334V22.5H238.836C236.903 22.5 235.336 24.067 235.336 26V30.6667V42.3334C235.336 44.2664 236.903 45.8334 238.836 45.8334H255.169C257.102 45.8334 258.669 44.2664 258.669 42.3334V30.6667V26C258.669 24.067 257.102 22.5 255.169 22.5H252.833V21.3334ZM256.336 29.5V26C256.336 25.3557 255.814 24.8334 255.169 24.8334H252.833V26.0001C252.833 26.6444 252.311 27.1667 251.667 27.1667C251.022 27.1667 250.5 26.6444 250.5 26.0001V24.8334H243.505V26.0001C243.505 26.6444 242.983 27.1667 242.339 27.1667C241.694 27.1667 241.172 26.6444 241.172 26.0001V24.8334H238.836C238.192 24.8334 237.669 25.3557 237.669 26V29.5H256.336ZM237.669 31.8334H256.336V42.3334C256.336 42.9777 255.814 43.5 255.169 43.5H238.836C238.192 43.5 237.669 42.9777 237.669 42.3334V31.8334Z" fill="white" fill-opacity="0.3"/>
<path d="M250.5 22.5V23C250.776 23 251 22.7762 251 22.5H250.5ZM243.505 22.5H243.005C243.005 22.7762 243.229 23 243.505 23V22.5ZM241.172 22.5V23C241.448 23 241.672 22.7762 241.672 22.5H241.172ZM252.833 22.5H252.333C252.333 22.7762 252.557 23 252.833 23V22.5ZM256.336 29.5V30C256.612 30 256.836 29.7762 256.836 29.5H256.336ZM252.833 24.8334V24.3334C252.557 24.3334 252.333 24.5572 252.333 24.8334H252.833ZM250.5 24.8334H251C251 24.5572 250.776 24.3334 250.5 24.3334V24.8334ZM243.505 24.8334V24.3334C243.229 24.3334 243.005 24.5572 243.005 24.8334H243.505ZM241.172 24.8334H241.672C241.672 24.5572 241.448 24.3334 241.172 24.3334V24.8334ZM237.669 29.5H237.169C237.169 29.7762 237.393 30 237.669 30V29.5ZM256.336 31.8334H256.836C256.836 31.5572 256.612 31.3334 256.336 31.3334V31.8334ZM237.669 31.8334V31.3334C237.393 31.3334 237.169 31.5572 237.169 31.8334H237.669ZM251.667 20.6667C252.035 20.6667 252.333 20.9652 252.333 21.3334H253.333C253.333 20.4129 252.587 19.6667 251.667 19.6667V20.6667ZM251 21.3334C251 20.9652 251.298 20.6667 251.667 20.6667V19.6667C250.746 19.6667 250 20.4129 250 21.3334H251ZM251 22.5V21.3334H250V22.5H251ZM243.505 23H250.5V22H243.505V23ZM243.005 21.3334V22.5H244.005V21.3334H243.005ZM242.339 20.6667C242.707 20.6667 243.005 20.9652 243.005 21.3334H244.005C244.005 20.4129 243.259 19.6667 242.339 19.6667V20.6667ZM241.672 21.3334C241.672 20.9652 241.97 20.6667 242.339 20.6667V19.6667C241.418 19.6667 240.672 20.4129 240.672 21.3334H241.672ZM241.672 22.5V21.3334H240.672V22.5H241.672ZM238.836 23H241.172V22H238.836V23ZM235.836 26C235.836 24.3432 237.179 23 238.836 23V22C236.627 22 234.836 23.7909 234.836 26H235.836ZM235.836 30.6667V26H234.836V30.6667H235.836ZM235.836 42.3334V30.6667H234.836V42.3334H235.836ZM238.836 45.3334C237.179 45.3334 235.836 43.9902 235.836 42.3334H234.836C234.836 44.5425 236.627 46.3334 238.836 46.3334V45.3334ZM255.169 45.3334H238.836V46.3334H255.169V45.3334ZM258.169 42.3334C258.169 43.9902 256.826 45.3334 255.169 45.3334V46.3334C257.378 46.3334 259.169 44.5425 259.169 42.3334H258.169ZM258.169 30.6667V42.3334H259.169V30.6667H258.169ZM258.169 26V30.6667H259.169V26H258.169ZM255.169 23C256.826 23 258.169 24.3432 258.169 26H259.169C259.169 23.7909 257.378 22 255.169 22V23ZM252.833 23H255.169V22H252.833V23ZM252.333 21.3334V22.5H253.333V21.3334H252.333ZM255.836 26V29.5H256.836V26H255.836ZM255.169 25.3334C255.537 25.3334 255.836 25.6318 255.836 26H256.836C256.836 25.0796 256.09 24.3334 255.169 24.3334V25.3334ZM252.833 25.3334H255.169V24.3334H252.833V25.3334ZM253.333 26.0001V24.8334H252.333V26.0001H253.333ZM251.667 27.6667C252.587 27.6667 253.333 26.9206 253.333 26.0001H252.333C252.333 26.3683 252.035 26.6667 251.667 26.6667V27.6667ZM250 26.0001C250 26.9206 250.746 27.6667 251.667 27.6667V26.6667C251.298 26.6667 251 26.3683 251 26.0001H250ZM250 24.8334V26.0001H251V24.8334H250ZM243.505 25.3334H250.5V24.3334H243.505V25.3334ZM244.005 26.0001V24.8334H243.005V26.0001H244.005ZM242.339 27.6667C243.259 27.6667 244.005 26.9206 244.005 26.0001H243.005C243.005 26.3683 242.707 26.6667 242.339 26.6667V27.6667ZM240.672 26.0001C240.672 26.9206 241.418 27.6667 242.339 27.6667V26.6667C241.97 26.6667 241.672 26.3683 241.672 26.0001H240.672ZM240.672 24.8334V26.0001H241.672V24.8334H240.672ZM238.836 25.3334H241.172V24.3334H238.836V25.3334ZM238.169 26C238.169 25.6318 238.468 25.3334 238.836 25.3334V24.3334C237.915 24.3334 237.169 25.0796 237.169 26H238.169ZM238.169 29.5V26H237.169V29.5H238.169ZM237.669 30H256.336V29H237.669V30ZM256.336 31.3334H237.669V32.3334H256.336V31.3334ZM255.836 31.8334V42.3334H256.836V31.8334H255.836ZM255.836 42.3334C255.836 42.7016 255.537 43 255.169 43V44C256.09 44 256.836 43.2538 256.836 42.3334H255.836ZM255.169 43H238.836V44H255.169V43ZM238.836 43C238.468 43 238.169 42.7016 238.169 42.3334H237.169C237.169 43.2538 237.915 44 238.836 44V43ZM238.169 42.3334V31.8334H237.169V42.3334H238.169Z" fill="#242426"/>
<path d="M27.688 111.168L27.88 108.192H32.664V106.8H26.536L26.12 112.608H29.288C30.648 112.608 31.624 113.392 31.624 114.688C31.624 115.984 30.664 116.752 29.256 116.752C28.024 116.752 27.128 116.176 26.824 115.088L25.56 115.808C26.088 117.36 27.544 118.208 29.256 118.208C30.328 118.208 31.224 117.888 31.976 117.264C32.728 116.64 33.096 115.776 33.096 114.688C33.096 113.584 32.728 112.736 31.992 112.112C31.272 111.488 30.376 111.168 29.32 111.168H27.688ZM45.3835 111.376C44.6955 110.32 43.6875 109.792 42.3755 109.792C41.2395 109.792 40.2635 110.192 39.4795 111.008C38.6955 111.808 38.2955 112.784 38.2955 113.952C38.2955 115.12 38.6955 116.096 39.4795 116.912C40.2635 117.728 41.2395 118.128 42.3755 118.128C43.6715 118.128 44.6795 117.6 45.3835 116.528V117.664C45.3835 119.184 44.3755 120.112 42.7115 120.112C41.4155 120.112 40.5355 119.664 40.1035 118.768L38.8875 119.456C39.5435 120.72 40.8875 121.408 42.6795 121.408C43.7995 121.408 44.7595 121.072 45.5595 120.416C46.3595 119.76 46.7595 118.848 46.7595 117.664V110H45.3835V111.376ZM45.3835 113.952C45.3835 114.768 45.1115 115.44 44.5675 115.984C44.0235 116.528 43.3515 116.8 42.5355 116.8C41.7195 116.8 41.0475 116.528 40.5035 115.984C39.9595 115.44 39.6875 114.768 39.6875 113.952C39.6875 113.152 39.9595 112.48 40.5035 111.936C41.0475 111.392 41.7195 111.12 42.5355 111.12C43.3515 111.12 44.0235 111.392 44.5675 111.936C45.1115 112.48 45.3835 113.152 45.3835 113.952ZM51.2845 108.704C51.6045 108.368 51.6045 107.824 51.2845 107.504C50.9645 107.184 50.4205 107.184 50.0845 107.504C49.7645 107.824 49.7645 108.368 50.0845 108.704C50.4205 109.024 50.9645 109.024 51.2845 108.704ZM54.3245 108.704C54.6445 108.368 54.6445 107.824 54.3245 107.504C54.0045 107.184 53.4605 107.184 53.1245 107.504C52.8045 107.824 52.8045 108.368 53.1245 108.704C53.4605 109.024 54.0045 109.024 54.3245 108.704ZM54.3885 114.24C54.3885 116.032 53.4605 116.88 52.0685 116.88C50.8365 116.88 50.0845 116.128 50.0845 114.832V110H48.6925V114.912C48.6925 116.944 49.9245 118.208 51.7965 118.208C52.9645 118.208 53.8285 117.76 54.3885 116.848V118H55.7805V110H54.3885V114.24ZM61.8838 109.792C60.7158 109.792 59.8518 110.24 59.2918 111.152V110H57.8997V118H59.2918V113.76C59.2918 111.968 60.2198 111.12 61.6118 111.12C62.8438 111.12 63.5958 111.872 63.5958 113.168V118H64.9878V113.088C64.9878 111.056 63.7558 109.792 61.8838 109.792Z" fill="#F81734"/>
</svg>
