<svg width="285" height="189" viewBox="0 0 285 189" fill="none" xmlns="http://www.w3.org/2000/svg">
<rect width="285" height="189" rx="4" fill="white"/>
<path d="M28.0553 32.42H33.3653V30.854H28.0553V26.984H33.8153V25.4H26.3813V38H33.9053V36.416H28.0553V32.42ZM37.3302 38V24.86H35.7642V38H37.3302ZM47.1713 30.548C46.3973 29.36 45.2633 28.766 43.7693 28.766C42.5093 28.766 41.4293 29.234 40.5473 30.152C39.6653 31.07 39.2153 32.186 39.2153 33.5C39.2153 34.814 39.6653 35.948 40.5473 36.866C41.4293 37.784 42.5093 38.234 43.7693 38.234C45.2633 38.234 46.3973 37.64 47.1713 36.452V38H48.7373V29H47.1713V30.548ZM43.9673 36.722C43.0673 36.722 42.3113 36.416 41.6993 35.804C41.0873 35.174 40.7812 34.418 40.7812 33.5C40.7812 32.582 41.0873 31.826 41.6993 31.214C42.3113 30.584 43.0673 30.278 43.9673 30.278C44.8853 30.278 45.6413 30.584 46.2533 31.214C46.8653 31.826 47.1713 32.582 47.1713 33.5C47.1713 34.418 46.8653 35.174 46.2533 35.804C45.6413 36.416 44.8853 36.722 43.9673 36.722ZM55.5919 28.766C54.2779 28.766 53.3059 29.27 52.6759 30.296V29H51.1099V38H52.6759V33.23C52.6759 31.214 53.7199 30.26 55.2859 30.26C56.6719 30.26 57.5179 31.106 57.5179 32.564V38H59.0839V32.474C59.0839 30.188 57.6979 28.766 55.5919 28.766ZM62.836 38V24.86H61.27V38H62.836ZM72.6771 30.548C71.9031 29.36 70.7691 28.766 69.2751 28.766C68.0151 28.766 66.9351 29.234 66.0531 30.152C65.1711 31.07 64.7211 32.186 64.7211 33.5C64.7211 34.814 65.1711 35.948 66.0531 36.866C66.9351 37.784 68.0151 38.234 69.2751 38.234C70.7691 38.234 71.9031 37.64 72.6771 36.452V38H74.2431V29H72.6771V30.548ZM69.4731 36.722C68.5731 36.722 67.8171 36.416 67.2051 35.804C66.5931 35.174 66.2871 34.418 66.2871 33.5C66.2871 32.582 66.5931 31.826 67.2051 31.214C67.8171 30.584 68.5731 30.278 69.4731 30.278C70.3911 30.278 71.1471 30.584 71.7591 31.214C72.3711 31.826 72.6771 32.582 72.6771 33.5C72.6771 34.418 72.3711 35.174 71.7591 35.804C71.1471 36.416 70.3911 36.722 69.4731 36.722ZM78.1817 29H76.6157V38H78.1817V33.23C78.1817 32.24 78.4517 31.538 79.0097 31.088C79.5677 30.638 80.2157 30.44 80.9897 30.476V28.838C79.6397 28.838 78.7037 29.396 78.1817 30.512V29ZM84.088 38V29H82.522V38H84.088ZM96.1971 28.766C94.9371 28.766 94.0011 29.27 93.3711 30.296C92.8131 29.27 91.9311 28.766 90.7251 28.766C89.5551 28.766 88.6551 29.252 88.0431 30.206V29H86.4771V38H88.0431V32.996C88.0431 31.178 89.0331 30.26 90.3471 30.26C91.5171 30.26 92.2551 31.07 92.2551 32.456V38H93.8211V32.996C93.8211 31.142 94.6851 30.26 96.0351 30.26C97.2411 30.26 98.0151 31.07 98.0151 32.456V38H99.5811V32.402C99.5811 30.17 98.2131 28.766 96.1971 28.766Z" fill="#081A3E"/>
<path d="M49.682 63.1C49.682 61.686 49.178 60.496 48.184 59.502C47.19 58.508 46 58.018 44.6 58.018C43.2 58.018 42.01 58.508 41.016 59.502C40.022 60.496 39.532 61.686 39.532 63.1C39.532 64.514 40.022 65.704 41.016 66.698C42.01 67.692 43.2 68.182 44.6 68.182C45.594 68.182 46.518 67.902 47.372 67.356L48.478 68.476L49.374 67.664L48.296 66.586C49.22 65.606 49.682 64.444 49.682 63.1ZM44.6 66.908C43.55 66.908 42.654 66.544 41.912 65.802C41.184 65.06 40.82 64.164 40.82 63.1C40.82 62.022 41.184 61.126 41.912 60.384C42.654 59.642 43.55 59.278 44.6 59.278C45.65 59.278 46.546 59.642 47.274 60.384C48.016 61.126 48.38 62.022 48.38 63.1C48.38 64.108 48.058 64.962 47.4 65.676L45.384 63.66L44.488 64.458L46.448 66.432C45.888 66.754 45.272 66.908 44.6 66.908ZM56.9856 62.204C56.3836 61.28 55.5016 60.818 54.3396 60.818C53.3596 60.818 52.5196 61.182 51.8336 61.896C51.1476 62.61 50.7976 63.478 50.7976 64.5C50.7976 65.522 51.1476 66.404 51.8336 67.118C52.5196 67.832 53.3596 68.182 54.3396 68.182C55.5016 68.182 56.3836 67.72 56.9856 66.796V68H58.2036V61H56.9856V62.204ZM54.4936 67.006C53.7936 67.006 53.2056 66.768 52.7296 66.292C52.2536 65.802 52.0156 65.214 52.0156 64.5C52.0156 63.786 52.2536 63.198 52.7296 62.722C53.2056 62.232 53.7936 61.994 54.4936 61.994C55.2076 61.994 55.7956 62.232 56.2716 62.722C56.7476 63.198 56.9856 63.786 56.9856 64.5C56.9856 65.214 56.7476 65.802 56.2716 66.292C55.7956 66.768 55.2076 67.006 54.4936 67.006ZM61.267 68V57.78H60.049V68H61.267ZM68.9212 62.204C68.3192 61.28 67.4372 60.818 66.2752 60.818C65.2952 60.818 64.4552 61.182 63.7692 61.896C63.0832 62.61 62.7332 63.478 62.7332 64.5C62.7332 65.522 63.0832 66.404 63.7692 67.118C64.4552 67.832 65.2952 68.182 66.2752 68.182C67.4372 68.182 68.3192 67.72 68.9212 66.796V68H70.1392V61H68.9212V62.204ZM66.4292 67.006C65.7292 67.006 65.1412 66.768 64.6652 66.292C64.1892 65.802 63.9512 65.214 63.9512 64.5C63.9512 63.786 64.1892 63.198 64.6652 62.722C65.1412 62.232 65.7292 61.994 66.4292 61.994C67.1432 61.994 67.7312 62.232 68.2072 62.722C68.6832 63.198 68.9212 63.786 68.9212 64.5C68.9212 65.214 68.6832 65.802 68.2072 66.292C67.7312 66.768 67.1432 67.006 66.4292 67.006ZM75.4705 60.818C74.4485 60.818 73.6925 61.21 73.2025 62.008V61H71.9845V68H73.2025V64.29C73.2025 62.722 74.0145 61.98 75.2325 61.98C76.3105 61.98 76.9685 62.638 76.9685 63.772V68H78.1865V63.702C78.1865 61.924 77.1085 60.818 75.4705 60.818Z" fill="#081A3E"/>
<path d="M117.694 57.304C118.156 57.304 118.562 56.926 118.562 56.436C118.562 55.946 118.184 55.554 117.694 55.554C117.204 55.554 116.812 55.946 116.812 56.436C116.812 56.926 117.204 57.304 117.694 57.304ZM117.05 68H118.352V58.2H117.05V68ZM121.378 62.89C121.378 62.288 121.938 61.952 122.624 61.952C123.366 61.952 123.87 62.246 124.122 62.848L125.144 62.274C124.696 61.364 123.758 60.818 122.624 60.818C121.91 60.818 121.322 61.014 120.846 61.406C120.384 61.798 120.146 62.302 120.146 62.904C120.146 64.388 121.574 64.752 122.68 65.046C123.45 65.228 124.066 65.536 124.066 66.082C124.066 66.74 123.478 67.034 122.68 67.034C121.826 67.034 121.168 66.614 120.944 65.942L119.894 66.544C120.3 67.538 121.322 68.182 122.68 68.182C123.45 68.182 124.066 67.986 124.556 67.608C125.046 67.23 125.298 66.712 125.298 66.082C125.312 64.584 123.856 64.178 122.764 63.94C121.994 63.73 121.378 63.436 121.378 62.89ZM130.275 61H128.413V59.04L127.195 59.404V61H125.809V62.176H127.195V65.97C127.195 67.706 128.147 68.28 130.275 68V66.908C129.029 66.964 128.413 67.048 128.413 65.97V62.176H130.275V61ZM132.333 59.726C132.781 59.726 133.145 59.362 133.145 58.914C133.145 58.466 132.781 58.088 132.333 58.088C131.871 58.088 131.507 58.466 131.507 58.914C131.507 59.362 131.871 59.726 132.333 59.726ZM132.935 68V61H131.717V68H132.935ZM138.391 58.018C136.417 57.892 135.325 58.9 135.325 60.79V61H134.205V62.176H135.325V68H136.543V62.176H138.391V61H136.543V60.79C136.543 59.628 137.159 59.096 138.391 59.194V58.018ZM144.732 62.204C144.13 61.28 143.248 60.818 142.086 60.818C141.106 60.818 140.266 61.182 139.58 61.896C138.894 62.61 138.544 63.478 138.544 64.5C138.544 65.522 138.894 66.404 139.58 67.118C140.266 67.832 141.106 68.182 142.086 68.182C143.248 68.182 144.13 67.72 144.732 66.796V68H145.95V61H144.732V62.204ZM142.24 67.006C141.54 67.006 140.952 66.768 140.476 66.292C140 65.802 139.762 65.214 139.762 64.5C139.762 63.786 140 63.198 140.476 62.722C140.952 62.232 141.54 61.994 142.24 61.994C142.954 61.994 143.542 62.232 144.018 62.722C144.494 63.198 144.732 63.786 144.732 64.5C144.732 65.214 144.494 65.802 144.018 66.292C143.542 66.768 142.954 67.006 142.24 67.006ZM153.591 62.204C152.989 61.28 152.107 60.818 150.945 60.818C149.965 60.818 149.125 61.182 148.439 61.896C147.753 62.61 147.403 63.478 147.403 64.5C147.403 65.522 147.753 66.404 148.439 67.118C149.125 67.832 149.965 68.182 150.945 68.182C152.107 68.182 152.989 67.72 153.591 66.796V68H154.809V58.2H153.591V62.204ZM151.099 67.006C150.399 67.006 149.811 66.768 149.335 66.292C148.859 65.802 148.621 65.214 148.621 64.5C148.621 63.786 148.859 63.198 149.335 62.722C149.811 62.232 150.399 61.994 151.099 61.994C151.813 61.994 152.401 62.232 152.877 62.722C153.353 63.198 153.591 63.786 153.591 64.5C153.591 65.214 153.353 65.802 152.877 66.292C152.401 66.768 151.813 67.006 151.099 67.006ZM156.304 63.94C156.276 64.122 156.262 64.304 156.262 64.486C156.262 65.508 156.584 66.376 157.242 67.09C157.886 67.818 158.726 68.182 159.748 68.182C160.826 68.182 161.708 67.832 162.394 67.132C163.08 66.432 163.416 65.55 163.416 64.5C163.416 63.436 163.066 62.554 162.38 61.854C161.68 61.168 160.77 60.818 159.664 60.818C158.572 60.818 157.718 61.154 157.06 61.812L157.886 62.638C158.306 62.19 158.88 61.966 159.636 61.966C160.966 61.966 161.932 62.694 162.17 63.94H156.304ZM159.748 67.034C158.628 67.034 157.704 66.334 157.494 65.004H162.17C161.96 66.236 161.05 67.034 159.748 67.034ZM174.225 67.118C174.939 66.404 175.303 65.536 175.303 64.5C175.303 63.464 174.939 62.596 174.225 61.882C173.511 61.168 172.629 60.818 171.607 60.818C170.585 60.818 169.703 61.168 168.989 61.882C168.275 62.596 167.925 63.464 167.925 64.5C167.925 65.536 168.275 66.404 168.989 67.118C169.703 67.832 170.585 68.182 171.607 68.182C172.629 68.182 173.511 67.832 174.225 67.118ZM171.607 66.992C170.921 66.992 170.333 66.754 169.857 66.278C169.381 65.802 169.143 65.214 169.143 64.5C169.143 63.786 169.381 63.198 169.857 62.722C170.333 62.246 170.921 62.008 171.607 62.008C172.307 62.008 172.895 62.246 173.371 62.722C173.847 63.198 174.085 63.786 174.085 64.5C174.085 65.214 173.847 65.802 173.371 66.278C172.895 66.754 172.307 66.992 171.607 66.992ZM177.956 68V57.78H176.738V68H177.956ZM184.645 64.71C184.645 66.278 183.833 67.02 182.615 67.02C181.537 67.02 180.879 66.362 180.879 65.228V61H179.661V65.298C179.661 67.076 180.739 68.182 182.377 68.182C183.399 68.182 184.155 67.79 184.645 66.992V68H185.863V61H184.645V64.71ZM191.203 60.818C190.181 60.818 189.425 61.21 188.935 62.008V61H187.717V68H188.935V64.29C188.935 62.722 189.747 61.98 190.965 61.98C192.043 61.98 192.701 62.638 192.701 63.772V68H193.919V63.702C193.919 61.924 192.841 60.818 191.203 60.818ZM201.415 62.204C200.813 61.28 199.931 60.818 198.769 60.818C197.789 60.818 196.949 61.182 196.263 61.896C195.577 62.61 195.227 63.478 195.227 64.5C195.227 65.522 195.577 66.404 196.263 67.118C196.949 67.832 197.789 68.182 198.769 68.182C199.931 68.182 200.813 67.72 201.415 66.796V68H202.633V61H201.415V62.204ZM198.923 67.006C198.223 67.006 197.635 66.768 197.159 66.292C196.683 65.802 196.445 65.214 196.445 64.5C196.445 63.786 196.683 63.198 197.159 62.722C197.635 62.232 198.223 61.994 198.923 61.994C199.637 61.994 200.225 62.232 200.701 62.722C201.177 63.198 201.415 63.786 201.415 64.5C201.415 65.214 201.177 65.802 200.701 66.292C200.225 66.768 199.637 67.006 198.923 67.006ZM207.965 60.818C206.943 60.818 206.187 61.21 205.697 62.008V61H204.479V68H205.697V64.29C205.697 62.722 206.509 61.98 207.727 61.98C208.805 61.98 209.463 62.638 209.463 63.772V68H210.681V63.702C210.681 61.924 209.603 60.818 207.965 60.818Z" fill="#081A3E"/>
<path d="M259.778 159.032L255.328 154.582C255.225 154.479 255.086 154.422 254.941 154.422C254.795 154.422 254.656 154.479 254.554 154.582L254.226 154.91C254.123 155.013 254.065 155.152 254.065 155.297C254.065 155.442 254.123 155.581 254.226 155.684L257.964 159.422L254.223 163.163C254.12 163.266 254.062 163.405 254.062 163.55C254.062 163.695 254.12 163.834 254.223 163.937L254.551 164.265C254.653 164.367 254.792 164.425 254.938 164.425C255.083 164.425 255.222 164.367 255.325 164.265L259.779 159.811C259.881 159.708 259.938 159.568 259.938 159.423C259.938 159.278 259.881 159.138 259.779 159.035L259.778 159.032Z" fill="#246EB2"/>
<path d="M27.352 159.66H31.482V158.442H27.352V155.432H31.832V154.2H26.05V164H31.902V162.768H27.352V159.66ZM34.5658 164V153.78H33.3478V164H34.5658ZM42.22 158.204C41.618 157.28 40.736 156.818 39.574 156.818C38.594 156.818 37.754 157.182 37.068 157.896C36.382 158.61 36.032 159.478 36.032 160.5C36.032 161.522 36.382 162.404 37.068 163.118C37.754 163.832 38.594 164.182 39.574 164.182C40.736 164.182 41.618 163.72 42.22 162.796V164H43.438V157H42.22V158.204ZM39.728 163.006C39.028 163.006 38.44 162.768 37.964 162.292C37.488 161.802 37.25 161.214 37.25 160.5C37.25 159.786 37.488 159.198 37.964 158.722C38.44 158.232 39.028 157.994 39.728 157.994C40.442 157.994 41.03 158.232 41.506 158.722C41.982 159.198 42.22 159.786 42.22 160.5C42.22 161.214 41.982 161.802 41.506 162.292C41.03 162.768 40.442 163.006 39.728 163.006ZM48.7694 156.818C47.7474 156.818 46.9914 157.21 46.5014 158.008V157H45.2834V164H46.5014V160.29C46.5014 158.722 47.3134 157.98 48.5314 157.98C49.6094 157.98 50.2674 158.638 50.2674 159.772V164H51.4854V159.702C51.4854 157.924 50.4074 156.818 48.7694 156.818ZM59.5557 162.488L57.1757 157H55.8737L58.9257 163.972L58.7997 164.238C58.3937 165.26 57.7637 165.736 56.9097 165.666V166.8C58.3097 166.898 59.4157 166.016 60.0177 164.434L62.8737 157H61.5717L59.5557 162.488ZM70.3374 161.06C70.3654 160.878 70.3794 160.696 70.3794 160.514C70.3794 159.492 70.0574 158.624 69.3994 157.91C68.7554 157.182 67.9154 156.818 66.8934 156.818C65.8154 156.818 64.9334 157.168 64.2474 157.868C63.5614 158.568 63.2254 159.45 63.2254 160.5C63.2254 161.564 63.5754 162.446 64.2614 163.146C64.9614 163.832 65.8714 164.182 66.9774 164.182C68.3494 164.182 69.3714 163.65 70.0574 162.6L69.0214 162.012C68.6014 162.698 67.9294 163.034 67.0054 163.034C65.6754 163.034 64.7094 162.306 64.4714 161.06H70.3374ZM66.8934 157.966C68.0134 157.966 68.9374 158.666 69.1474 159.996H64.4714C64.6814 158.764 65.5914 157.966 66.8934 157.966ZM72.9975 157H71.7795V164H72.9975V160.29C72.9975 159.52 73.2075 158.974 73.6415 158.624C74.0755 158.274 74.5795 158.12 75.1815 158.148V156.874C74.1315 156.874 73.4035 157.308 72.9975 158.176V157ZM77.5912 164V153.78H76.3732V164H77.5912ZM79.0994 159.94C79.0714 160.122 79.0574 160.304 79.0574 160.486C79.0574 161.508 79.3794 162.376 80.0374 163.09C80.6814 163.818 81.5214 164.182 82.5434 164.182C83.6214 164.182 84.5034 163.832 85.1894 163.132C85.8754 162.432 86.2114 161.55 86.2114 160.5C86.2114 159.436 85.8614 158.554 85.1754 157.854C84.4754 157.168 83.5654 156.818 82.4594 156.818C81.3674 156.818 80.5134 157.154 79.8554 157.812L80.6814 158.638C81.1014 158.19 81.6754 157.966 82.4314 157.966C83.7614 157.966 84.7274 158.694 84.9654 159.94H79.0994ZM82.5434 163.034C81.4234 163.034 80.4994 162.334 80.2894 161.004H84.9654C84.7554 162.236 83.8454 163.034 82.5434 163.034ZM92.5815 162.082C92.5955 160.584 91.1395 160.178 90.0475 159.94C89.2775 159.73 88.6615 159.436 88.6615 158.89C88.6615 158.288 89.2215 157.952 89.9075 157.952C90.6495 157.952 91.1535 158.246 91.4055 158.848L92.4275 158.274C91.9795 157.364 91.0415 156.818 89.9075 156.818C89.1935 156.818 88.6055 157.014 88.1295 157.406C87.6675 157.798 87.4295 158.302 87.4295 158.904C87.4295 160.388 88.8575 160.752 89.9635 161.046C90.7335 161.228 91.3495 161.536 91.3495 162.082C91.3495 162.74 90.7615 163.034 89.9635 163.034C89.1095 163.034 88.4515 162.614 88.2275 161.942L87.1775 162.544C87.5555 163.454 88.3115 164 89.4455 164.154V165.162C90.2155 165.204 90.6075 165.372 90.6075 165.666C90.6075 166.044 89.9775 166.198 88.7315 166.1V167.024C90.6915 167.136 91.6715 166.716 91.6715 165.75C91.6715 165.19 91.1955 164.784 90.4815 164.63V164.154C91.7555 163.986 92.5815 163.202 92.5815 162.082ZM99.6282 158.204C99.0262 157.28 98.1442 156.818 96.9822 156.818C96.0022 156.818 95.1622 157.182 94.4762 157.896C93.7902 158.61 93.4402 159.478 93.4402 160.5C93.4402 161.522 93.7902 162.404 94.4762 163.118C95.1622 163.832 96.0022 164.182 96.9822 164.182C98.1442 164.182 99.0262 163.72 99.6282 162.796V164H100.846V154.2H99.6282V158.204ZM97.1362 163.006C96.4362 163.006 95.8482 162.768 95.3722 162.292C94.8962 161.802 94.6582 161.214 94.6582 160.5C94.6582 159.786 94.8962 159.198 95.3722 158.722C95.8482 158.232 96.4362 157.994 97.1362 157.994C97.8502 157.994 98.4382 158.232 98.9142 158.722C99.3902 159.198 99.6282 159.786 99.6282 160.5C99.6282 161.214 99.3902 161.802 98.9142 162.292C98.4382 162.768 97.8502 163.006 97.1362 163.006ZM103.308 155.726C103.756 155.726 104.12 155.362 104.12 154.914C104.12 154.466 103.756 154.088 103.308 154.088C102.846 154.088 102.482 154.466 102.482 154.914C102.482 155.362 102.846 155.726 103.308 155.726ZM103.91 164V157H102.692V164H103.91ZM106.986 157H105.768V164H106.986V160.29C106.986 159.52 107.196 158.974 107.63 158.624C108.064 158.274 108.568 158.12 109.17 158.148V156.874C108.12 156.874 107.392 157.308 106.986 158.176V157Z" fill="#29A53E"/>
<path d="M25 165.4H109.436V166.1H25V165.4Z" fill="#29A53E"/>
<path d="M205.466 159.1C205.466 160.514 205.956 161.704 206.936 162.698C207.916 163.692 209.12 164.182 210.534 164.182C211.948 164.182 213.152 163.692 214.132 162.698C215.126 161.704 215.616 160.514 215.616 159.1C215.616 157.686 215.126 156.482 214.132 155.502C213.152 154.508 211.948 154.018 210.534 154.018C209.12 154.018 207.916 154.508 206.936 155.502L207.832 156.384C208.56 155.642 209.456 155.278 210.534 155.278C211.612 155.278 212.508 155.642 213.222 156.384C213.81 156.972 214.16 157.672 214.272 158.484H205.494C205.466 158.68 205.466 158.89 205.466 159.1ZM213.222 161.816C212.508 162.544 211.612 162.908 210.534 162.908C209.456 162.908 208.56 162.544 207.832 161.816C207.258 161.214 206.908 160.514 206.796 159.702H214.272C214.16 160.514 213.81 161.214 213.222 161.816ZM220.863 157H219.001V155.04L217.783 155.404V157H216.397V158.176H217.783V161.97C217.783 163.706 218.735 164.28 220.863 164V162.908C219.617 162.964 219.001 163.048 219.001 161.97V158.176H220.863V157ZM223.564 157H222.346V164H223.564V160.29C223.564 159.52 223.774 158.974 224.208 158.624C224.642 158.274 225.146 158.12 225.748 158.148V156.874C224.698 156.874 223.97 157.308 223.564 158.176V157ZM232.353 158.204C231.751 157.28 230.869 156.818 229.707 156.818C228.727 156.818 227.887 157.182 227.201 157.896C226.515 158.61 226.165 159.478 226.165 160.5C226.165 161.522 226.515 162.404 227.201 163.118C227.887 163.832 228.727 164.182 229.707 164.182C230.869 164.182 231.751 163.72 232.353 162.796V164H233.571V157H232.353V158.204ZM229.861 163.006C229.161 163.006 228.573 162.768 228.097 162.292C227.621 161.802 227.383 161.214 227.383 160.5C227.383 159.786 227.621 159.198 228.097 158.722C228.573 158.232 229.161 157.994 229.861 157.994C230.575 157.994 231.163 158.232 231.639 158.722C232.115 159.198 232.353 159.786 232.353 160.5C232.353 161.214 232.115 161.802 231.639 162.292C231.163 162.768 230.575 163.006 229.861 163.006ZM239.014 154.018C236.97 154.018 235.948 154.942 235.948 156.79V157H234.828V158.176H235.948V164H237.166V158.176H238.622V157H237.166V156.79C237.166 155.6 237.768 155.11 239.014 155.11C239.168 155.11 239.42 155.124 239.756 155.138V164H240.974V154.228C240.232 154.088 239.574 154.018 239.014 154.018ZM244.058 164V157H242.84V164H244.058Z" fill="#246EB2"/>
<rect x="25" y="88" width="235" height="20" rx="10" fill="#F81734"/>
<rect x="25" y="88" width="185" height="20" rx="10" fill="#246EB2"/>
<rect x="25" y="60" width="6" height="6" rx="3" fill="#246EB2"/>
<rect x="103" y="60" width="6" height="6" rx="3" fill="#F81734"/>
<path d="M119.304 97.294C120.045 96.826 120.422 96.163 120.422 95.305C120.422 94.486 120.149 93.849 119.59 93.407C119.044 92.952 118.381 92.731 117.601 92.731C116.834 92.731 116.171 92.952 115.612 93.407C115.066 93.849 114.793 94.486 114.793 95.305C114.793 96.163 115.17 96.826 115.911 97.294C115.027 97.749 114.494 98.529 114.494 99.504C114.494 100.336 114.78 100.986 115.365 101.467C115.95 101.935 116.691 102.169 117.601 102.169C118.524 102.169 119.265 101.935 119.85 101.467C120.435 100.986 120.721 100.336 120.721 99.504C120.721 98.529 120.188 97.749 119.304 97.294ZM117.601 93.888C118.537 93.888 119.213 94.382 119.213 95.331C119.213 96.254 118.498 96.787 117.601 96.787C116.704 96.787 115.989 96.254 115.989 95.331C115.989 94.382 116.678 93.888 117.601 93.888ZM117.601 101.012C116.457 101.012 115.69 100.453 115.69 99.426C115.69 98.425 116.457 97.853 117.601 97.853C118.758 97.853 119.525 98.425 119.525 99.426C119.525 100.453 118.758 101.012 117.601 101.012Z" fill="white"/>
<path d="M236.344 102V100.83H232.223L234.55 98.516C235.629 97.437 236.175 96.436 236.175 95.513C236.175 94.668 235.889 93.992 235.33 93.485C234.771 92.978 234.108 92.731 233.341 92.731C232.106 92.731 231.04 93.342 230.468 94.525L231.482 95.123C231.872 94.304 232.496 93.901 233.354 93.901C234.251 93.901 234.966 94.499 234.966 95.526C234.966 96.137 234.537 96.878 233.679 97.736L230.468 101.012V102H236.344Z" fill="white"/>
<path d="M258.375 24.875H238.875C237.978 24.875 237.25 25.6025 237.25 26.5V42.75C237.25 43.6475 237.978 44.375 238.875 44.375H258.375C259.272 44.375 260 43.6475 260 42.75V26.5C260 25.6025 259.272 24.875 258.375 24.875ZM258.917 42.75C258.917 43.0492 258.674 43.2917 258.375 43.2917H238.875C238.576 43.2917 238.333 43.0492 238.333 42.75V26.5C238.333 26.2008 238.576 25.9583 238.875 25.9583H258.375C258.674 25.9583 258.917 26.2008 258.917 26.5V42.75Z" fill="#246EB2" fill-opacity="0.3"/>
<path d="M256.208 21.625H235.625C234.728 21.625 234 22.3525 234 23.25V40.5833C234 41.4808 234.728 42.2083 235.625 42.2083H236.167V41.125H235.625C235.326 41.125 235.083 40.8825 235.083 40.5833V23.25C235.083 22.9508 235.326 22.7083 235.625 22.7083H256.208C256.507 22.7083 256.75 22.9508 256.75 23.25V23.7917H257.833V23.25C257.833 22.3525 257.106 21.625 256.208 21.625Z" fill="#246EB2" fill-opacity="0.3"/>
<path d="M246.301 32.6156C246.09 32.4042 245.747 32.4042 245.535 32.6156L237.41 40.7406L238.176 41.5066L245.918 33.7645L254.202 42.0482L254.968 41.2823L246.301 32.6156Z" fill="#246EB2" fill-opacity="0.3"/>
<path d="M253.884 32.6156C253.673 32.4042 253.33 32.4042 253.118 32.6156L250.41 35.3239L251.176 36.0899L253.501 33.7645L259.077 39.3399L259.843 38.5739L253.884 32.6156Z" fill="#246EB2" fill-opacity="0.3"/>
<path d="M249.708 27.043C248.213 27.043 247 28.2555 247 29.7513C247 31.247 248.213 32.4596 249.708 32.4596C251.203 32.4578 252.415 31.2463 252.417 29.7513C252.417 28.2555 251.204 27.043 249.708 27.043ZM249.708 31.3763C248.811 31.3763 248.083 30.6487 248.083 29.7513C248.083 28.8538 248.811 28.1263 249.708 28.1263C250.606 28.1263 251.333 28.8538 251.333 29.7513C251.333 30.6487 250.606 31.3763 249.708 31.3763Z" fill="#246EB2" fill-opacity="0.3"/>
</svg>
