<svg width="285" height="189" viewBox="0 0 285 189" fill="none" xmlns="http://www.w3.org/2000/svg">
<rect width="285" height="189" rx="4" fill="#242426"/>
<path d="M33.5813 31.466C34.4993 30.836 34.9492 29.954 34.9492 28.838C34.9492 27.866 34.6073 27.056 33.9233 26.39C33.2393 25.724 32.4113 25.4 31.4213 25.4H26.3813V38H31.8173C32.8433 38 33.7073 37.658 34.4093 36.974C35.1113 36.29 35.4713 35.444 35.4713 34.436C35.4713 33.086 34.7333 32.024 33.5813 31.466ZM31.4213 26.966C31.9433 26.966 32.3753 27.164 32.7353 27.542C33.1133 27.92 33.2933 28.37 33.2933 28.892C33.2933 29.972 32.4833 30.818 31.4213 30.818H28.0553V26.966H31.4213ZM28.0553 36.434V32.348H31.8173C32.3753 32.348 32.8433 32.546 33.2213 32.942C33.6173 33.338 33.8153 33.824 33.8153 34.382C33.8153 35.534 32.9513 36.434 31.8173 36.434H28.0553ZM44.7982 30.548C44.0242 29.36 42.8902 28.766 41.3962 28.766C40.1362 28.766 39.0562 29.234 38.1742 30.152C37.2922 31.07 36.8422 32.186 36.8422 33.5C36.8422 34.814 37.2922 35.948 38.1742 36.866C39.0562 37.784 40.1362 38.234 41.3962 38.234C42.8902 38.234 44.0242 37.64 44.7982 36.452V38H46.3642V29H44.7982V30.548ZM41.5942 36.722C40.6942 36.722 39.9382 36.416 39.3262 35.804C38.7142 35.174 38.4082 34.418 38.4082 33.5C38.4082 32.582 38.7142 31.826 39.3262 31.214C39.9382 30.584 40.6942 30.278 41.5942 30.278C42.5122 30.278 43.2682 30.584 43.8802 31.214C44.4922 31.826 44.7982 32.582 44.7982 33.5C44.7982 34.418 44.4922 35.174 43.8802 35.804C43.2682 36.416 42.5122 36.722 41.5942 36.722ZM50.3028 38V24.86H48.7368V38H50.3028ZM60.1439 30.548C59.3699 29.36 58.2359 28.766 56.7419 28.766C55.4819 28.766 54.4019 29.234 53.5199 30.152C52.6379 31.07 52.1879 32.186 52.1879 33.5C52.1879 34.814 52.6379 35.948 53.5199 36.866C54.4019 37.784 55.4819 38.234 56.7419 38.234C58.2359 38.234 59.3699 37.64 60.1439 36.452V38H61.7099V29H60.1439V30.548ZM56.9399 36.722C56.0399 36.722 55.2839 36.416 54.6719 35.804C54.0599 35.174 53.7539 34.418 53.7539 33.5C53.7539 32.582 54.0599 31.826 54.6719 31.214C55.2839 30.584 56.0399 30.278 56.9399 30.278C57.8579 30.278 58.6139 30.584 59.2259 31.214C59.8379 31.826 60.1439 32.582 60.1439 33.5C60.1439 34.418 59.8379 35.174 59.2259 35.804C58.6139 36.416 57.8579 36.722 56.9399 36.722ZM68.5645 28.766C67.2505 28.766 66.2785 29.27 65.6485 30.296V29H64.0825V38H65.6485V33.23C65.6485 31.214 66.6925 30.26 68.2585 30.26C69.6445 30.26 70.4905 31.106 70.4905 32.564V38H72.0565V32.474C72.0565 30.188 70.6705 28.766 68.5645 28.766ZM75.5927 31.43C75.5927 30.656 76.3127 30.224 77.1947 30.224C78.1487 30.224 78.7967 30.602 79.1207 31.376L80.4347 30.638C79.8587 29.468 78.6527 28.766 77.1947 28.766C76.2767 28.766 75.5207 29.018 74.9087 29.522C74.3147 30.026 74.0087 30.674 74.0087 31.448C74.0087 33.356 75.8447 33.824 77.2667 34.202C78.2567 34.436 79.0487 34.832 79.0487 35.534C79.0487 36.38 78.2927 36.758 77.2667 36.758C76.1687 36.758 75.3227 36.218 75.0347 35.354L73.6847 36.128C74.2067 37.406 75.5207 38.234 77.2667 38.234C78.2567 38.234 79.0487 37.982 79.6787 37.496C80.3087 37.01 80.6327 36.344 80.6327 35.534C80.6507 33.608 78.7787 33.086 77.3747 32.78C76.3847 32.51 75.5927 32.132 75.5927 31.43Z" fill="white"/>
<path d="M259.778 159.032L255.328 154.582C255.225 154.479 255.086 154.422 254.941 154.422C254.795 154.422 254.656 154.479 254.554 154.582L254.226 154.91C254.123 155.013 254.065 155.152 254.065 155.297C254.065 155.442 254.123 155.581 254.226 155.684L257.964 159.422L254.223 163.163C254.12 163.266 254.062 163.405 254.062 163.55C254.062 163.695 254.12 163.834 254.223 163.937L254.551 164.265C254.653 164.367 254.792 164.425 254.938 164.425C255.083 164.425 255.222 164.367 255.325 164.265L259.779 159.811C259.881 159.708 259.938 159.568 259.938 159.423C259.938 159.278 259.881 159.138 259.779 159.035L259.778 159.032Z" fill="white"/>
<path d="M205.466 159.1C205.466 160.514 205.956 161.704 206.936 162.698C207.916 163.692 209.12 164.182 210.534 164.182C211.948 164.182 213.152 163.692 214.132 162.698C215.126 161.704 215.616 160.514 215.616 159.1C215.616 157.686 215.126 156.482 214.132 155.502C213.152 154.508 211.948 154.018 210.534 154.018C209.12 154.018 207.916 154.508 206.936 155.502L207.832 156.384C208.56 155.642 209.456 155.278 210.534 155.278C211.612 155.278 212.508 155.642 213.222 156.384C213.81 156.972 214.16 157.672 214.272 158.484H205.494C205.466 158.68 205.466 158.89 205.466 159.1ZM213.222 161.816C212.508 162.544 211.612 162.908 210.534 162.908C209.456 162.908 208.56 162.544 207.832 161.816C207.258 161.214 206.908 160.514 206.796 159.702H214.272C214.16 160.514 213.81 161.214 213.222 161.816ZM220.863 157H219.001V155.04L217.783 155.404V157H216.397V158.176H217.783V161.97C217.783 163.706 218.735 164.28 220.863 164V162.908C219.617 162.964 219.001 163.048 219.001 161.97V158.176H220.863V157ZM223.564 157H222.346V164H223.564V160.29C223.564 159.52 223.774 158.974 224.208 158.624C224.642 158.274 225.146 158.12 225.748 158.148V156.874C224.698 156.874 223.97 157.308 223.564 158.176V157ZM232.353 158.204C231.751 157.28 230.869 156.818 229.707 156.818C228.727 156.818 227.887 157.182 227.201 157.896C226.515 158.61 226.165 159.478 226.165 160.5C226.165 161.522 226.515 162.404 227.201 163.118C227.887 163.832 228.727 164.182 229.707 164.182C230.869 164.182 231.751 163.72 232.353 162.796V164H233.571V157H232.353V158.204ZM229.861 163.006C229.161 163.006 228.573 162.768 228.097 162.292C227.621 161.802 227.383 161.214 227.383 160.5C227.383 159.786 227.621 159.198 228.097 158.722C228.573 158.232 229.161 157.994 229.861 157.994C230.575 157.994 231.163 158.232 231.639 158.722C232.115 159.198 232.353 159.786 232.353 160.5C232.353 161.214 232.115 161.802 231.639 162.292C231.163 162.768 230.575 163.006 229.861 163.006ZM239.014 154.018C236.97 154.018 235.948 154.942 235.948 156.79V157H234.828V158.176H235.948V164H237.166V158.176H238.622V157H237.166V156.79C237.166 155.6 237.768 155.11 239.014 155.11C239.168 155.11 239.42 155.124 239.756 155.138V164H240.974V154.228C240.232 154.088 239.574 154.018 239.014 154.018ZM244.058 164V157H242.84V164H244.058Z" fill="white"/>
<path d="M26.12 58.2V68H27.1V64.36H29.62C30.502 64.36 31.23 64.066 31.818 63.478C32.406 62.89 32.7 62.162 32.7 61.28C32.7 60.398 32.406 59.67 31.818 59.082C31.23 58.494 30.502 58.2 29.62 58.2H26.12ZM27.1 63.436V59.124H29.62C30.222 59.124 30.726 59.334 31.118 59.74C31.524 60.146 31.72 60.65 31.72 61.28C31.72 61.91 31.524 62.428 31.118 62.834C30.726 63.24 30.222 63.436 29.62 63.436H27.1ZM39.1658 64.668C39.1658 66.446 38.2418 67.272 36.8978 67.272C35.6798 67.272 34.9938 66.544 34.9938 65.298V61H34.0698V65.298C34.0698 67.048 35.1198 68.168 36.8138 68.168C37.8638 68.168 38.6478 67.748 39.1658 66.908V68H40.0898V61H39.1658V64.668ZM42.9685 68V57.78H42.0445V68H42.9685ZM50.3332 64.36L53.9452 61H52.6852L49.3532 64.094V58.2H48.4292V68H49.3532V64.626L52.8532 68H54.0852L50.3332 64.36ZM56.2852 59.32C56.5512 59.054 56.5512 58.634 56.2852 58.368C56.0192 58.102 55.5992 58.102 55.3332 58.368C55.0672 58.634 55.0672 59.054 55.3332 59.32C55.5992 59.586 56.0192 59.586 56.2852 59.32ZM56.2712 68V61H55.3472V68H56.2712ZM58.96 62.834C58.96 62.12 59.632 61.728 60.43 61.728C61.284 61.728 61.844 62.05 62.11 62.708L62.88 62.26C62.474 61.378 61.564 60.832 60.43 60.832C59.744 60.832 59.17 61.028 58.708 61.406C58.26 61.784 58.036 62.26 58.036 62.834C58.036 64.346 59.506 64.668 60.682 64.962C61.48 65.172 62.124 65.522 62.124 66.152C62.124 66.922 61.424 67.272 60.514 67.272C59.576 67.272 58.862 66.824 58.596 66.096L57.812 66.558C58.19 67.51 59.17 68.168 60.514 68.168C61.256 68.168 61.872 67.986 62.334 67.608C62.81 67.23 63.048 66.754 63.048 66.152C63.048 64.64 61.578 64.318 60.402 64.024C59.604 63.814 58.96 63.464 58.96 62.834ZM67.6414 68.168C68.7194 68.168 69.5874 67.818 70.2734 67.118C70.9594 66.418 71.2954 65.55 71.2954 64.5C71.2954 63.436 70.9454 62.554 70.2594 61.868C69.5734 61.182 68.6774 60.832 67.5714 60.832C66.5074 60.832 65.6114 61.21 64.9674 61.84L65.6114 62.498C66.0454 62.022 66.7174 61.728 67.5574 61.728C69.0554 61.728 70.1614 62.624 70.3434 64.038H64.1974C64.1834 64.22 64.1694 64.374 64.1694 64.472C64.1694 65.466 64.4914 66.334 65.1354 67.062C65.7654 67.804 66.6054 68.168 67.6414 68.168ZM67.6414 67.272C67.0114 67.272 66.4514 67.062 65.9754 66.656C65.4994 66.25 65.2194 65.676 65.1214 64.934H70.3434C70.1614 66.32 69.0974 67.272 67.6414 67.272ZM73.4932 62.834C73.4932 62.12 74.1652 61.728 74.9632 61.728C75.8172 61.728 76.3772 62.05 76.6432 62.708L77.4132 62.26C77.0072 61.378 76.0972 60.832 74.9632 60.832C74.2772 60.832 73.7032 61.028 73.2412 61.406C72.7932 61.784 72.5692 62.26 72.5692 62.834C72.5692 64.346 74.0392 64.668 75.2152 64.962C76.0132 65.172 76.6572 65.522 76.6572 66.152C76.6572 66.922 75.9572 67.272 75.0472 67.272C74.1092 67.272 73.3952 66.824 73.1292 66.096L72.3452 66.558C72.7232 67.51 73.7032 68.168 75.0472 68.168C75.7892 68.168 76.4052 67.986 76.8672 67.608C77.3432 67.23 77.5812 66.754 77.5812 66.152C77.5812 64.64 76.1112 64.318 74.9352 64.024C74.1372 63.814 73.4932 63.464 73.4932 62.834ZM79.9922 59.32C80.2582 59.054 80.2582 58.634 79.9922 58.368C79.7262 58.102 79.3062 58.102 79.0402 58.368C78.7742 58.634 78.7742 59.054 79.0402 59.32C79.3062 59.586 79.7262 59.586 79.9922 59.32ZM79.9782 68V61H79.0542V68H79.9782ZM85.215 60.832C84.165 60.832 83.381 61.252 82.863 62.092V61H81.939V68H82.863V64.332C82.863 62.554 83.787 61.728 85.131 61.728C86.349 61.728 87.035 62.456 87.035 63.702V68H87.959V63.702C87.959 61.952 86.909 60.832 85.215 60.832ZM90.6836 59.32C90.9496 59.054 90.9496 58.634 90.6836 58.368C90.4176 58.102 89.9976 58.102 89.7316 58.368C89.4656 58.634 89.4656 59.054 89.7316 59.32C89.9976 59.586 90.4176 59.586 90.6836 59.32ZM90.6696 68V61H89.7456V68H90.6696ZM95.9064 60.832C94.8564 60.832 94.0724 61.252 93.5544 62.092V61H92.6304V68H93.5544V64.332C93.5544 62.554 94.4784 61.728 95.8224 61.728C97.0404 61.728 97.7264 62.456 97.7264 63.702V68H98.6504V63.702C98.6504 61.952 97.6004 60.832 95.9064 60.832ZM107.689 60.832C106.443 60.832 105.505 61.35 104.861 62.372V58.2H103.937V68H104.861V66.628C105.505 67.65 106.443 68.168 107.689 68.168C108.683 68.168 109.537 67.818 110.237 67.104C110.951 66.39 111.301 65.522 111.301 64.5C111.301 63.478 110.951 62.61 110.237 61.896C109.537 61.182 108.683 60.832 107.689 60.832ZM105.659 66.474C105.127 65.928 104.861 65.27 104.861 64.5C104.861 63.73 105.127 63.072 105.659 62.54C106.191 61.994 106.849 61.728 107.619 61.728C108.389 61.728 109.047 61.994 109.579 62.54C110.111 63.072 110.377 63.73 110.377 64.5C110.377 65.27 110.111 65.928 109.579 66.474C109.047 67.006 108.389 67.272 107.619 67.272C106.849 67.272 106.191 67.006 105.659 66.474ZM118.857 62.372C118.213 61.35 117.275 60.832 116.029 60.832C115.035 60.832 114.181 61.182 113.467 61.896C112.767 62.61 112.417 63.478 112.417 64.5C112.417 65.522 112.767 66.39 113.467 67.104C114.181 67.818 115.035 68.168 116.029 68.168C117.275 68.168 118.213 67.65 118.857 66.628V68H119.781V61H118.857V62.372ZM114.139 66.474C113.607 65.928 113.341 65.27 113.341 64.5C113.341 63.73 113.607 63.072 114.139 62.54C114.671 61.994 115.329 61.728 116.099 61.728C116.869 61.728 117.527 61.994 118.059 62.54C118.591 63.072 118.857 63.73 118.857 64.5C118.857 65.27 118.591 65.928 118.059 66.474C117.527 67.006 116.869 67.272 116.099 67.272C115.329 67.272 114.671 67.006 114.139 66.474ZM122.662 68V57.78H121.738V68H122.662ZM130.643 62.372C129.999 61.35 129.061 60.832 127.815 60.832C126.821 60.832 125.967 61.182 125.253 61.896C124.553 62.61 124.203 63.478 124.203 64.5C124.203 65.522 124.553 66.39 125.253 67.104C125.967 67.818 126.821 68.168 127.815 68.168C129.061 68.168 129.999 67.65 130.643 66.628V68H131.567V61H130.643V62.372ZM125.925 66.474C125.393 65.928 125.127 65.27 125.127 64.5C125.127 63.73 125.393 63.072 125.925 62.54C126.457 61.994 127.115 61.728 127.885 61.728C128.655 61.728 129.313 61.994 129.845 62.54C130.377 63.072 130.643 63.73 130.643 64.5C130.643 65.27 130.377 65.928 129.845 66.474C129.313 67.006 128.655 67.272 127.885 67.272C127.115 67.272 126.457 67.006 125.925 66.474ZM136.799 60.832C135.749 60.832 134.965 61.252 134.447 62.092V61H133.523V68H134.447V64.332C134.447 62.554 135.371 61.728 136.715 61.728C137.933 61.728 138.619 62.456 138.619 63.702V68H139.543V63.702C139.543 61.952 138.493 60.832 136.799 60.832ZM142.058 62.834C142.058 62.12 142.73 61.728 143.528 61.728C144.382 61.728 144.942 62.05 145.208 62.708L145.978 62.26C145.572 61.378 144.662 60.832 143.528 60.832C142.842 60.832 142.268 61.028 141.806 61.406C141.358 61.784 141.134 62.26 141.134 62.834C141.134 64.346 142.604 64.668 143.78 64.962C144.578 65.172 145.222 65.522 145.222 66.152C145.222 66.922 144.522 67.272 143.612 67.272C142.674 67.272 141.96 66.824 141.694 66.096L140.91 66.558C141.288 67.51 142.268 68.168 143.612 68.168C144.354 68.168 144.97 67.986 145.432 67.608C145.908 67.23 146.146 66.754 146.146 66.152C146.146 64.64 144.676 64.318 143.5 64.024C142.702 63.814 142.058 63.464 142.058 62.834ZM148.543 68V61H147.619V68H148.543ZM151.679 62.176C151.973 61.882 151.973 61.378 151.679 61.084C151.385 60.79 150.881 60.79 150.587 61.084C150.293 61.378 150.293 61.882 150.587 62.176C150.881 62.47 151.385 62.47 151.679 62.176ZM151.679 67.916C151.973 67.622 151.973 67.118 151.679 66.824C151.385 66.53 150.881 66.53 150.587 66.824C150.293 67.118 150.293 67.622 150.587 67.916C150.881 68.21 151.385 68.21 151.679 67.916Z" fill="white"/>
<path d="M34.224 89.624C34.976 88.568 35.36 87.16 35.36 85.4C35.36 83.64 34.976 82.232 34.224 81.176C33.472 80.12 32.4 79.592 31.04 79.592C29.68 79.592 28.608 80.12 27.856 81.176C27.104 82.232 26.72 83.64 26.72 85.4C26.72 87.16 27.104 88.568 27.856 89.624C28.608 90.68 29.68 91.208 31.04 91.208C32.4 91.208 33.472 90.68 34.224 89.624ZM28.208 85.4C28.208 82.6 29.232 81.032 31.04 81.032C32.848 81.032 33.888 82.632 33.888 85.4C33.888 88.168 32.848 89.752 31.04 89.752C29.232 89.752 28.208 88.168 28.208 85.4ZM37.5298 91.176C38.1218 91.176 38.5698 90.712 38.5698 90.136C38.5698 89.56 38.1218 89.096 37.5298 89.096C36.9538 89.096 36.4898 89.56 36.4898 90.136C36.4898 90.712 36.9538 91.176 37.5298 91.176ZM39.7084 80.824L40.0764 82.104L42.4604 81.4V91H43.9324V79.8H42.6524L39.7084 80.824ZM52.6755 81.112V79.8H45.9555V81.192H50.9315L48.3395 84.696L48.9315 85.608H49.3155C50.7075 85.608 51.6675 86.392 51.6675 87.688C51.6675 88.984 50.7075 89.752 49.3155 89.752C48.0195 89.752 47.2195 89.24 46.8835 88.2L45.6355 88.936C46.1955 90.408 47.6035 91.208 49.3155 91.208C50.3875 91.208 51.2835 90.888 52.0355 90.264C52.7875 89.64 53.1555 88.776 53.1555 87.688C53.1555 85.912 51.9555 84.712 50.2435 84.392L52.6755 81.112Z" fill="white"/>
<path d="M67.1603 81.2671L67.1317 80L66.2397 80.4532L66.2144 81.2726C62.7398 81.6102 60 85.4357 60 90.108C60 90.4094 60.0114 90.7067 60.0341 91H61.2506C61.2396 90.78 61.2319 90.5688 61.2319 90.35C61.2319 86.1121 63.4075 82.6342 66.1814 82.2614L65.9328 90.2213L67.344 89.5415L67.1801 82.2625C69.9496 82.643 72.1197 86.1176 72.1197 90.35C72.1197 90.5699 72.112 90.7899 72.101 91H73.3912C73.4132 90.7067 73.4245 90.4094 73.4253 90.108C73.4297 85.4115 70.6568 81.5706 67.1603 81.2671Z" fill="white"/>
<path d="M31.65 158.918C32.364 158.428 32.714 157.742 32.714 156.874C32.714 156.118 32.448 155.488 31.916 154.97C31.384 154.452 30.74 154.2 29.97 154.2H26.05V164H30.278C31.076 164 31.748 163.734 32.294 163.202C32.84 162.67 33.12 162.012 33.12 161.228C33.12 160.178 32.546 159.352 31.65 158.918ZM29.97 155.418C30.376 155.418 30.712 155.572 30.992 155.866C31.286 156.16 31.426 156.51 31.426 156.916C31.426 157.756 30.796 158.414 29.97 158.414H27.352V155.418H29.97ZM27.352 162.782V159.604H30.278C30.712 159.604 31.076 159.758 31.37 160.066C31.678 160.374 31.832 160.752 31.832 161.186C31.832 162.082 31.16 162.782 30.278 162.782H27.352ZM40.3743 158.204C39.7723 157.28 38.8903 156.818 37.7283 156.818C36.7483 156.818 35.9083 157.182 35.2223 157.896C34.5363 158.61 34.1863 159.478 34.1863 160.5C34.1863 161.522 34.5363 162.404 35.2223 163.118C35.9083 163.832 36.7483 164.182 37.7283 164.182C38.8903 164.182 39.7723 163.72 40.3743 162.796V164H41.5923V157H40.3743V158.204ZM37.8823 163.006C37.1823 163.006 36.5943 162.768 36.1183 162.292C35.6423 161.802 35.4043 161.214 35.4043 160.5C35.4043 159.786 35.6423 159.198 36.1183 158.722C36.5943 158.232 37.1823 157.994 37.8823 157.994C38.5963 157.994 39.1843 158.232 39.6603 158.722C40.1363 159.198 40.3743 159.786 40.3743 160.5C40.3743 161.214 40.1363 161.802 39.6603 162.292C39.1843 162.768 38.5963 163.006 37.8823 163.006ZM44.6557 164V153.78H43.4377V164H44.6557ZM52.3098 158.204C51.7078 157.28 50.8258 156.818 49.6638 156.818C48.6838 156.818 47.8438 157.182 47.1578 157.896C46.4718 158.61 46.1218 159.478 46.1218 160.5C46.1218 161.522 46.4718 162.404 47.1578 163.118C47.8438 163.832 48.6838 164.182 49.6638 164.182C50.8258 164.182 51.7078 163.72 52.3098 162.796V164H53.5278V157H52.3098V158.204ZM49.8178 163.006C49.1178 163.006 48.5298 162.768 48.0538 162.292C47.5778 161.802 47.3398 161.214 47.3398 160.5C47.3398 159.786 47.5778 159.198 48.0538 158.722C48.5298 158.232 49.1178 157.994 49.8178 157.994C50.5318 157.994 51.1198 158.232 51.5958 158.722C52.0718 159.198 52.3098 159.786 52.3098 160.5C52.3098 161.214 52.0718 161.802 51.5958 162.292C51.1198 162.768 50.5318 163.006 49.8178 163.006ZM58.8592 156.818C57.8372 156.818 57.0812 157.21 56.5912 158.008V157H55.3732V164H56.5912V160.29C56.5912 158.722 57.4032 157.98 58.6212 157.98C59.6992 157.98 60.3572 158.638 60.3572 159.772V164H61.5752V159.702C61.5752 157.924 60.4972 156.818 58.8592 156.818ZM64.3256 158.89C64.3256 158.288 64.8856 157.952 65.5716 157.952C66.3136 157.952 66.8176 158.246 67.0696 158.848L68.0916 158.274C67.6436 157.364 66.7056 156.818 65.5716 156.818C64.8576 156.818 64.2696 157.014 63.7936 157.406C63.3316 157.798 63.0936 158.302 63.0936 158.904C63.0936 160.388 64.5216 160.752 65.6276 161.046C66.3976 161.228 67.0136 161.536 67.0136 162.082C67.0136 162.74 66.4256 163.034 65.6276 163.034C64.7736 163.034 64.1156 162.614 63.8916 161.942L62.8416 162.544C63.2476 163.538 64.2696 164.182 65.6276 164.182C66.3976 164.182 67.0136 163.986 67.5036 163.608C67.9936 163.23 68.2456 162.712 68.2456 162.082C68.2596 160.584 66.8036 160.178 65.7116 159.94C64.9416 159.73 64.3256 159.436 64.3256 158.89ZM70.8373 164V157H69.6193V164H70.8373ZM81.9915 158.204C81.3895 157.28 80.5075 156.818 79.3455 156.818C78.3655 156.818 77.5255 157.182 76.8395 157.896C76.1535 158.61 75.8035 159.478 75.8035 160.5C75.8035 161.522 76.1535 162.404 76.8395 163.118C77.5255 163.832 78.3655 164.182 79.3455 164.182C80.5075 164.182 81.3895 163.72 81.9915 162.796V164H83.2095V157H81.9915V158.204ZM79.4995 163.006C78.7995 163.006 78.2115 162.768 77.7355 162.292C77.2595 161.802 77.0215 161.214 77.0215 160.5C77.0215 159.786 77.2595 159.198 77.7355 158.722C78.2115 158.232 78.7995 157.994 79.4995 157.994C80.2135 157.994 80.8015 158.232 81.2775 158.722C81.7535 159.198 81.9915 159.786 81.9915 160.5C81.9915 161.214 81.7535 161.802 81.2775 162.292C80.8015 162.768 80.2135 163.006 79.4995 163.006ZM86.2729 157H85.0549V164H86.2729V160.29C86.2729 159.52 86.4829 158.974 86.9169 158.624C87.3509 158.274 87.8549 158.12 88.4569 158.148V156.874C87.4069 156.874 86.6789 157.308 86.2729 158.176V157ZM93.6207 157H91.7587V155.04L90.5407 155.404V157H89.1547V158.176H90.5407V161.97C90.5407 163.706 91.4927 164.28 93.6207 164V162.908C92.3747 162.964 91.7587 163.048 91.7587 161.97V158.176H93.6207V157ZM96.2807 164V157H95.0627V164H96.2807ZM99.3568 157H98.1388V164H99.3568V160.29C99.3568 159.52 99.5668 158.974 100.001 158.624C100.435 158.274 100.939 158.12 101.541 158.148V156.874C100.491 156.874 99.7628 157.308 99.3568 158.176V157Z" fill="#29A53E"/>
<path d="M25 165.4H101.807V166.1H25V165.4Z" fill="#29A53E"/>
<path d="M258.477 33.0145H257.969V29.4598C257.969 28.0584 256.985 26.8834 255.672 26.5872L253.36 22.5839C253.021 21.9972 252.475 21.5775 251.82 21.4022C251.358 21.2784 250.882 21.2875 250.435 21.4224L248.754 19.7417C247.765 18.7528 246.156 18.7527 245.167 19.7417L238.395 26.5145H236.945C235.321 26.5145 234 27.8358 234 29.4598V42.0535C234 43.6776 235.321 44.9989 236.945 44.9989H243.699C243.98 44.9989 244.207 44.7715 244.207 44.491C244.207 44.2106 243.98 43.9832 243.699 43.9832H236.945C235.881 43.9832 235.016 43.1176 235.016 42.0535V29.4598C235.016 28.3958 235.881 27.5301 236.945 27.5301H255.023C256.087 27.5301 256.953 28.3958 256.953 29.4598V33.0145H253.195C251.683 33.0145 250.453 34.2447 250.453 35.7567C250.453 37.2687 251.683 38.4989 253.195 38.4989H256.953V42.0535C256.953 43.1176 256.087 43.9832 255.023 43.9832H248.27C247.989 43.9832 247.762 44.2106 247.762 44.491C247.762 44.7715 247.989 44.9989 248.27 44.9989H255.023C256.647 44.9989 257.969 43.6776 257.969 42.0535V38.4989H258.477C259.317 38.4989 260 37.8154 260 36.9754V34.5379C260 33.6979 259.317 33.0145 258.477 33.0145ZM251.557 22.3832C251.95 22.4883 252.278 22.74 252.481 23.0917L254.457 26.5145H243.511L250.403 22.5351C250.755 22.3321 251.165 22.2781 251.557 22.3832ZM245.886 20.4599C246.173 20.1727 246.555 20.0145 246.961 20.0145C247.367 20.0145 247.749 20.1727 248.036 20.4599L249.475 21.8986L241.48 26.5145H239.831L245.886 20.4599ZM258.984 36.9754C258.984 37.2554 258.757 37.4832 258.477 37.4832H253.195C252.243 37.4832 251.469 36.7087 251.469 35.7567C251.469 34.8046 252.243 34.0301 253.195 34.0301H258.477C258.757 34.0301 258.984 34.2579 258.984 34.5379V36.9754Z" fill="white" fill-opacity="0.3"/>
<path d="M251.833 21.3539L251.82 21.4022L251.833 21.3539C251.372 21.2304 250.897 21.2366 250.449 21.366L248.79 19.7063L248.754 19.7417L248.79 19.7063C247.781 18.6979 246.14 18.6978 245.132 19.7063L238.374 26.4645H236.945C235.294 26.4645 233.95 27.8081 233.95 29.4598V42.0535C233.95 43.7052 235.294 45.0489 236.945 45.0489H243.699C244.007 45.0489 244.257 44.7991 244.257 44.491C244.257 44.183 244.007 43.9332 243.699 43.9332H236.945C235.909 43.9332 235.066 43.09 235.066 42.0535V29.4598C235.066 28.4234 235.909 27.5801 236.945 27.5801H255.023C256.06 27.5801 256.903 28.4234 256.903 29.4598V32.9645H253.195C251.656 32.9645 250.403 34.217 250.403 35.7567C250.403 37.2963 251.656 38.5489 253.195 38.5489H256.903V42.0535C256.903 43.09 256.06 43.9332 255.023 43.9332H248.27C247.962 43.9332 247.712 44.183 247.712 44.491C247.712 44.7991 247.962 45.0489 248.27 45.0489H255.023C256.675 45.0489 258.019 43.7052 258.019 42.0535V38.5489H258.477C259.344 38.5489 260.05 37.8431 260.05 36.9754V34.5379C260.05 33.6703 259.344 32.9645 258.477 32.9645H258.019V29.4598C258.019 28.0421 257.029 26.8524 255.704 26.5433L253.403 22.5589C253.058 21.9608 252.5 21.5327 251.833 21.3539ZM245.921 20.4952L245.886 20.4599L245.921 20.4952C246.199 20.2174 246.568 20.0645 246.961 20.0645C247.354 20.0645 247.723 20.2174 248.001 20.4952L248.036 20.4599L248.001 20.4952L249.393 21.8878L241.466 26.4645H239.952L245.921 20.4952ZM251.544 22.4315C251.924 22.5332 252.241 22.7764 252.437 23.1167L252.481 23.0917L252.437 23.1167L254.37 26.4645H243.698L250.428 22.5784C250.769 22.382 251.165 22.3298 251.544 22.4315ZM258.934 36.9754C258.934 37.2278 258.729 37.4332 258.477 37.4332H253.195C252.271 37.4332 251.519 36.6811 251.519 35.7567C251.519 34.8322 252.271 34.0801 253.195 34.0801H258.477C258.729 34.0801 258.934 34.2855 258.934 34.5379V36.9754Z" stroke="white" stroke-opacity="0.3" stroke-width="0.1"/>
<path d="M253.111 35.25C252.978 35.25 252.847 35.3043 252.752 35.3988C252.658 35.4933 252.604 35.6238 252.604 35.7578C252.604 35.8914 252.658 36.0224 252.752 36.1168C252.847 36.2112 252.978 36.2656 253.111 36.2656C253.245 36.2656 253.376 36.2113 253.47 36.1168C253.565 36.0224 253.619 35.8914 253.619 35.7578C253.619 35.6243 253.565 35.4932 253.47 35.3988C253.376 35.3043 253.245 35.25 253.111 35.25Z" fill="white" fill-opacity="0.3"/>
<path d="M253.111 35.2C252.965 35.2 252.821 35.2596 252.717 35.3634L252.752 36.1168L252.717 36.1521C252.717 36.1521 252.717 36.1522 252.717 36.1522C252.821 36.256 252.964 36.3156 253.111 36.3156C253.259 36.3156 253.402 36.256 253.506 36.1522C253.61 36.0483 253.669 35.9045 253.669 35.7578C253.669 35.6111 253.61 35.4673 253.506 35.3634C253.402 35.2596 253.259 35.2 253.111 35.2Z" stroke="white" stroke-opacity="0.3" stroke-width="0.1"/>
<path d="M245.984 43.9844C245.851 43.9844 245.72 44.0387 245.625 44.1332C245.531 44.2277 245.477 44.3586 245.477 44.4922C245.477 44.6257 245.531 44.7568 245.625 44.8512C245.72 44.9456 245.851 45 245.984 45C246.118 45 246.249 44.9457 246.343 44.8512C246.438 44.7568 246.492 44.6257 246.492 44.4922C246.492 44.3586 246.438 44.2276 246.343 44.1332C246.249 44.0387 246.118 43.9844 245.984 43.9844Z" fill="white" fill-opacity="0.3"/>
<path d="M245.59 44.0978C245.694 43.9939 245.838 43.9344 245.984 43.9344C246.131 43.9344 246.275 43.994 246.379 44.0978C246.379 44.0978 246.379 44.0978 246.379 44.0978C246.379 44.0978 246.379 44.0978 246.379 44.0978C246.483 44.2016 246.542 44.3454 246.542 44.4922C246.542 44.639 246.483 44.7828 246.379 44.8865L245.59 44.0978ZM245.59 44.0978C245.486 44.2017 245.427 44.3453 245.427 44.4922C245.427 44.639 245.486 44.7828 245.59 44.8865L245.59 44.0978Z" stroke="white" stroke-opacity="0.3" stroke-width="0.1"/>
</svg>
