<svg width="261" height="137" viewBox="0 0 261 137" fill="none" xmlns="http://www.w3.org/2000/svg">
<g clip-path="url(#clip0)">
<g opacity="0.1">
<path opacity="0.1" d="M114.13 89.869C115.626 89.869 116.839 88.2789 116.839 86.3173C116.839 84.3558 115.626 82.7656 114.13 82.7656C112.633 82.7656 111.42 84.3558 111.42 86.3173C111.42 88.2789 112.633 89.869 114.13 89.869Z" fill="#3F3D56"/>
<path opacity="0.1" d="M116.274 71.1217C116.652 70.461 116.848 69.7115 116.841 68.9501C116.841 66.9884 115.627 65.3984 114.129 65.3984C112.632 65.3984 111.411 66.9931 111.411 68.9549C111.404 69.7163 111.599 70.4658 111.977 71.1264C111.606 71.7894 111.411 72.5367 111.411 73.2968C111.411 74.0569 111.606 74.8042 111.977 75.4671C111.606 76.1301 111.411 76.8774 111.411 77.6375C111.411 78.3976 111.606 79.1449 111.977 79.8078C111.599 80.4683 111.403 81.2179 111.411 81.9794C111.411 83.9388 112.625 85.5311 114.12 85.5311C115.615 85.5311 116.831 83.9388 116.831 81.9794C116.839 81.2179 116.643 80.4683 116.265 79.8078C116.636 79.1449 116.831 78.3976 116.831 77.6375C116.831 76.8774 116.636 76.1301 116.265 75.4671C116.636 74.8042 116.831 74.0569 116.831 73.2968C116.831 72.5367 116.636 71.7894 116.265 71.1264L116.274 71.1217Z" fill="#3F3D56"/>
<path opacity="0.1" d="M114.129 68.1659C115.625 68.1659 116.838 66.5757 116.838 64.6142C116.838 62.6526 115.625 61.0625 114.129 61.0625C112.633 61.0625 111.42 62.6526 111.42 64.6142C111.42 66.5757 112.633 68.1659 114.129 68.1659Z" fill="#3F3D56"/>
<path opacity="0.1" d="M114.13 63.8261C115.626 63.8261 116.839 62.2359 116.839 60.2744C116.839 58.3128 115.626 56.7227 114.13 56.7227C112.633 56.7227 111.42 58.3128 111.42 60.2744C111.42 62.2359 112.633 63.8261 114.13 63.8261Z" fill="#3F3D56"/>
<path opacity="0.1" d="M103.988 30.5659C103.617 30.0947 103.28 29.5976 102.979 29.0785L110.097 27.9081L102.398 27.9653C101.661 26.3553 101.26 24.6117 101.219 22.8411C101.178 21.0705 101.498 19.3102 102.16 17.6678L112.489 23.0334L102.967 16.0206C103.852 14.4623 105.05 13.1042 106.485 12.0317C107.919 10.9591 109.56 10.1954 111.304 9.78848C113.048 9.38155 114.857 9.34021 116.617 9.66707C118.378 9.99392 120.052 10.6819 121.534 11.6878C123.016 12.6936 124.274 13.9956 125.229 15.5119C126.185 17.0282 126.817 18.7259 127.085 20.4985C127.353 22.271 127.253 24.08 126.789 25.8117C126.326 27.5435 125.51 29.1605 124.392 30.5611C124.969 31.2953 125.466 32.0897 125.873 32.9305L116.629 37.7503L126.482 34.4394C127.175 36.4874 127.346 38.6761 126.981 40.8072C126.615 42.9382 125.725 44.9444 124.39 46.6439C125.896 48.5607 126.833 50.8633 127.093 53.2882C127.354 55.7132 126.928 58.1627 125.864 60.3566C124.8 62.5505 123.141 64.4002 121.076 65.6944C119.011 66.9886 116.625 67.6749 114.189 67.6749C111.753 67.6749 109.367 66.9886 107.302 65.6944C105.237 64.4002 103.578 62.5505 102.514 60.3566C101.45 58.1627 101.024 55.7132 101.285 53.2882C101.545 50.8633 102.482 48.5607 103.988 46.6439C102.188 44.3531 101.21 41.5231 101.21 38.6084C101.21 35.6938 102.188 32.8638 103.988 30.573V30.5659Z" fill="#246EB2"/>
<path opacity="0.1" d="M127.168 38.6017C127.172 41.5171 126.193 44.3486 124.39 46.6371C125.896 48.554 126.833 50.8566 127.093 53.2815C127.354 55.7065 126.928 58.1559 125.864 60.3498C124.8 62.5437 123.14 64.3935 121.076 65.6877C119.011 66.9819 116.625 67.6682 114.189 67.6682C111.753 67.6682 109.366 66.9819 107.302 65.6877C105.237 64.3935 103.578 62.5437 102.514 60.3498C101.45 58.1559 101.024 55.7065 101.285 53.2815C101.545 50.8566 102.482 48.554 103.988 46.6371C102.248 44.425 127.168 37.1429 127.168 38.6017Z" fill="black"/>
</g>
<g opacity="0.1">
<path opacity="0.1" d="M145.758 81.3764C146.877 81.3764 147.784 80.1886 147.784 78.7233C147.784 77.2581 146.877 76.0703 145.758 76.0703C144.639 76.0703 143.732 77.2581 143.732 78.7233C143.732 80.1886 144.639 81.3764 145.758 81.3764Z" fill="#3F3D56"/>
<path opacity="0.1" d="M147.357 67.3681C147.639 66.8748 147.784 66.3154 147.779 65.7472C147.779 64.2813 146.872 63.0918 145.755 63.0918C144.639 63.0918 143.729 64.2836 143.729 65.7472C143.723 66.3157 143.869 66.8755 144.153 67.3681C143.875 67.8635 143.729 68.4221 143.729 68.9902C143.729 69.5583 143.875 70.1169 144.153 70.6123C143.875 71.1077 143.729 71.6663 143.729 72.2344C143.729 72.8025 143.875 73.3611 144.153 73.8565C143.869 74.3491 143.723 74.9089 143.729 75.4774C143.729 76.9434 144.636 78.1328 145.755 78.1328C146.874 78.1328 147.779 76.941 147.779 75.4774C147.784 74.9092 147.639 74.3498 147.357 73.8565C147.633 73.3604 147.777 72.8021 147.777 72.2344C147.777 71.6667 147.633 71.1084 147.357 70.6123C147.633 70.1162 147.777 69.5579 147.777 68.9902C147.777 68.4225 147.633 67.8642 147.357 67.3681Z" fill="#3F3D56"/>
<path opacity="0.1" d="M145.758 65.1576C146.877 65.1576 147.784 63.9698 147.784 62.5046C147.784 61.0394 146.877 59.8516 145.758 59.8516C144.639 59.8516 143.732 61.0394 143.732 62.5046C143.732 63.9698 144.639 65.1576 145.758 65.1576Z" fill="#3F3D56"/>
<path opacity="0.1" d="M145.758 61.9154C146.877 61.9154 147.784 60.7276 147.784 59.2624C147.784 57.7972 146.877 56.6094 145.758 56.6094C144.639 56.6094 143.732 57.7972 143.732 59.2624C143.732 60.7276 144.639 61.9154 145.758 61.9154Z" fill="#3F3D56"/>
<path opacity="0.1" d="M138.178 37.0621C137.9 36.7105 137.648 36.3393 137.423 35.9513L142.744 35.0765L136.99 35.1194C136.438 33.9165 136.137 32.6135 136.105 31.2901C136.073 29.9667 136.311 28.6506 136.804 27.4225L144.524 31.4342L137.404 26.1901C138.07 25.0336 138.967 24.0269 140.039 23.2329C141.11 22.4389 142.334 21.8747 143.633 21.5754C144.933 21.2761 146.28 21.2482 147.59 21.4934C148.901 21.7386 150.147 22.2517 151.25 23.0006C152.354 23.7494 153.292 24.7181 154.005 25.846C154.718 26.974 155.191 28.237 155.395 29.5563C155.599 30.8755 155.529 32.2227 155.19 33.5137C154.85 34.8047 154.249 36.0118 153.423 37.0597C153.854 37.609 154.225 38.2027 154.53 38.8308L147.626 42.423L154.989 39.9487C155.507 41.4792 155.634 43.1147 155.361 44.7071C155.088 46.2996 154.423 47.7986 153.425 49.0687C154.552 50.5007 155.254 52.2215 155.45 54.034C155.646 55.8466 155.328 57.6778 154.533 59.318C153.738 60.9583 152.499 62.3414 150.955 63.3091C149.412 64.2769 147.628 64.7901 145.808 64.7901C143.987 64.7901 142.203 64.2769 140.66 63.3091C139.117 62.3414 137.877 60.9583 137.082 59.318C136.287 57.6778 135.97 55.8466 136.165 54.034C136.361 52.2215 137.063 50.5007 138.19 49.0687C136.845 47.357 136.114 45.2422 136.114 43.0642C136.114 40.8862 136.845 38.7715 138.19 37.0597L138.178 37.0621Z" fill="#246EB2"/>
<path opacity="0.1" d="M155.499 43.0648C155.502 45.2433 154.771 47.3591 153.423 49.0693C154.55 50.5013 155.252 52.2221 155.448 54.0346C155.643 55.8472 155.326 57.6784 154.531 59.3187C153.736 60.9589 152.496 62.3421 150.953 63.3098C149.41 64.2775 147.626 64.7907 145.805 64.7907C143.985 64.7907 142.201 64.2775 140.658 63.3098C139.114 62.3421 137.875 60.9589 137.08 59.3187C136.285 57.6784 135.967 55.8472 136.163 54.0346C136.359 52.2221 137.061 50.5013 138.188 49.0693C136.883 47.4174 155.499 41.9755 155.499 43.0648Z" fill="black"/>
</g>
<g opacity="0.1">
<path opacity="0.1" d="M247.242 80.3338C248.738 80.3338 249.951 78.7437 249.951 76.7822C249.951 74.8206 248.738 73.2305 247.242 73.2305C245.746 73.2305 244.533 74.8206 244.533 76.7822C244.533 78.7437 245.746 80.3338 247.242 80.3338Z" fill="#3F3D56"/>
<path opacity="0.1" d="M245.097 61.5865C244.719 60.9258 244.524 60.1763 244.53 59.415C244.53 57.4532 245.745 55.8633 247.242 55.8633C248.739 55.8633 249.951 57.4532 249.951 59.415C249.958 60.1763 249.762 60.9258 249.384 61.5865C249.756 62.2494 249.951 62.9968 249.951 63.7569C249.951 64.5169 249.756 65.2643 249.384 65.9272C249.756 66.5901 249.951 67.3374 249.951 68.0975C249.951 68.8576 249.756 69.605 249.384 70.2679C249.763 70.9283 249.959 71.678 249.951 72.4394C249.951 74.3988 248.737 75.9911 247.242 75.9911C245.747 75.9911 244.53 74.3988 244.53 72.4394C244.523 71.678 244.718 70.9283 245.097 70.2679C244.726 69.605 244.531 68.8576 244.531 68.0975C244.531 67.3374 244.726 66.5901 245.097 65.9272C244.726 65.2643 244.531 64.5169 244.531 63.7569C244.531 62.9968 244.726 62.2494 245.097 61.5865Z" fill="#3F3D56"/>
<path opacity="0.1" d="M247.242 58.6307C248.738 58.6307 249.951 57.0406 249.951 55.079C249.951 53.1175 248.738 51.5273 247.242 51.5273C245.746 51.5273 244.533 53.1175 244.533 55.079C244.533 57.0406 245.746 58.6307 247.242 58.6307Z" fill="#3F3D56"/>
<path opacity="0.1" d="M247.242 54.2909C248.738 54.2909 249.951 52.7007 249.951 50.7392C249.951 48.7776 248.738 47.1875 247.242 47.1875C245.746 47.1875 244.533 48.7776 244.533 50.7392C244.533 52.7007 245.746 54.2909 247.242 54.2909Z" fill="#3F3D56"/>
<path opacity="0.1" d="M257.383 21.0307C257.754 20.5595 258.092 20.0625 258.392 19.5433L251.275 18.3729L258.973 18.4301C259.71 16.8202 260.112 15.0765 260.153 13.306C260.194 11.5354 259.873 9.77501 259.211 8.13261L248.882 13.4983L258.404 6.48548C257.519 4.92715 256.321 3.56903 254.887 2.49651C253.452 1.42399 251.811 0.660261 250.067 0.253327C248.324 -0.153608 246.515 -0.194947 244.754 0.131909C242.994 0.458765 241.32 1.14675 239.838 2.15261C238.356 3.15847 237.097 4.46046 236.142 5.97674C235.187 7.49301 234.555 9.19079 234.286 10.9633C234.018 12.7359 234.119 14.5449 234.582 16.2766C235.045 18.0083 235.862 19.6253 236.979 21.026C236.402 21.7602 235.906 22.5546 235.499 23.3954L244.742 28.2152L234.889 24.9042C234.197 26.9523 234.025 29.1409 234.391 31.272C234.756 33.4031 235.647 35.4092 236.982 37.1087C235.476 39.0256 234.539 41.3282 234.278 43.7531C234.017 46.1781 234.443 48.6275 235.508 50.8214C236.572 53.0153 238.231 54.8651 240.295 56.1593C242.36 57.4535 244.747 58.1398 247.182 58.1398C249.618 58.1398 252.005 57.4535 254.069 56.1593C256.134 54.8651 257.793 53.0153 258.857 50.8214C259.921 48.6275 260.347 46.1781 260.087 43.7531C259.826 41.3282 258.889 39.0256 257.383 37.1087C259.183 34.818 260.161 31.9879 260.161 29.0733C260.161 26.1587 259.183 23.3286 257.383 21.0379V21.0307Z" fill="#246EB2"/>
<path opacity="0.1" d="M234.203 29.0665C234.198 31.9819 235.177 34.8135 236.981 37.1019C235.475 39.0188 234.538 41.3214 234.278 43.7463C234.017 46.1713 234.443 48.6207 235.507 50.8146C236.571 53.0085 238.23 54.8583 240.295 56.1525C242.36 57.4467 244.746 58.133 247.182 58.133C249.618 58.133 252.004 57.4467 254.069 56.1525C256.134 54.8583 257.793 53.0085 258.857 50.8146C259.921 48.6207 260.347 46.1713 260.086 43.7463C259.826 41.3214 258.889 39.0188 257.383 37.1019C259.123 34.8899 234.203 27.6077 234.203 29.0665Z" fill="black"/>
</g>
<g opacity="0.1">
<path opacity="0.1" d="M221.088 79.9467C222.207 79.9467 223.114 78.7589 223.114 77.2937C223.114 75.8284 222.207 74.6406 221.088 74.6406C219.969 74.6406 219.062 75.8284 219.062 77.2937C219.062 78.7589 219.969 79.9467 221.088 79.9467Z" fill="#3F3D56"/>
<path opacity="0.1" d="M219.489 65.9384C219.207 65.4452 219.062 64.8857 219.068 64.3175C219.068 62.8516 219.975 61.6621 221.091 61.6621C222.207 61.6621 223.117 62.854 223.117 64.3175C223.123 64.8861 222.977 65.4458 222.693 65.9384C222.971 66.4338 223.117 66.9924 223.117 67.5605C223.117 68.1287 222.971 68.6873 222.693 69.1826C222.971 69.678 223.117 70.2366 223.117 70.8047C223.117 71.3729 222.971 71.9315 222.693 72.4269C222.977 72.9195 223.123 73.4792 223.117 74.0478C223.117 75.5137 222.21 76.7032 221.091 76.7032C219.972 76.7032 219.068 75.5113 219.068 74.0478C219.062 73.4796 219.207 72.9201 219.489 72.4269C219.213 71.9307 219.069 71.3724 219.069 70.8047C219.069 70.2371 219.213 69.6788 219.489 69.1826C219.213 68.6865 219.069 68.1282 219.069 67.5605C219.069 66.9929 219.213 66.4346 219.489 65.9384Z" fill="#3F3D56"/>
<path opacity="0.1" d="M221.088 63.728C222.207 63.728 223.114 62.5402 223.114 61.0749C223.114 59.6097 222.207 58.4219 221.088 58.4219C219.969 58.4219 219.062 59.6097 219.062 61.0749C219.062 62.5402 219.969 63.728 221.088 63.728Z" fill="#3F3D56"/>
<path opacity="0.1" d="M221.088 60.4858C222.207 60.4858 223.114 59.298 223.114 57.8327C223.114 56.3675 222.207 55.1797 221.088 55.1797C219.969 55.1797 219.062 56.3675 219.062 57.8327C219.062 59.298 219.969 60.4858 221.088 60.4858Z" fill="#3F3D56"/>
<path opacity="0.1" d="M228.668 35.6324C228.946 35.2808 229.198 34.9096 229.423 34.5216L224.102 33.6468L229.856 33.6897C230.408 32.4868 230.709 31.1838 230.741 29.8604C230.773 28.537 230.535 27.221 230.042 25.9928L222.322 30.0045L229.442 24.7604C228.776 23.6039 227.879 22.5972 226.807 21.8032C225.736 21.0092 224.512 20.445 223.213 20.1457C221.913 19.8464 220.566 19.8185 219.256 20.0637C217.945 20.3089 216.699 20.822 215.596 21.5709C214.492 22.3198 213.554 23.2884 212.841 24.4164C212.128 25.5443 211.655 26.8073 211.451 28.1266C211.247 29.4458 211.317 30.793 211.656 32.084C211.996 33.375 212.597 34.5821 213.423 35.63C212.992 36.1793 212.621 36.773 212.316 37.4011L219.22 40.9933L211.871 38.5214C211.354 40.0519 211.226 41.6874 211.499 43.2798C211.772 44.8723 212.437 46.3714 213.435 47.6414C212.308 49.0734 211.607 50.7942 211.411 52.6067C211.215 54.4193 211.532 56.2505 212.327 57.8908C213.122 59.531 214.362 60.9142 215.905 61.8819C217.448 62.8496 219.232 63.3628 221.053 63.3628C222.874 63.3628 224.658 62.8496 226.201 61.8819C227.744 60.9142 228.984 59.531 229.778 57.8908C230.573 56.2505 230.891 54.4193 230.695 52.6067C230.499 50.7942 229.798 49.0734 228.671 47.6414C230.016 45.9297 230.747 43.8149 230.747 41.6369C230.747 39.4589 230.016 37.3442 228.671 35.6324H228.668Z" fill="#246EB2"/>
<path opacity="0.1" d="M211.348 41.6351C211.344 43.8136 212.076 45.9294 213.423 47.6396C212.297 49.0717 211.595 50.7924 211.399 52.605C211.203 54.4175 211.521 56.2487 212.316 57.889C213.11 59.5293 214.35 60.9124 215.893 61.8801C217.436 62.8478 219.22 63.361 221.041 63.361C222.862 63.361 224.646 62.8478 226.189 61.8801C227.732 60.9124 228.972 59.5293 229.767 57.889C230.562 56.2487 230.879 54.4175 230.683 52.605C230.487 50.7924 229.786 49.0717 228.659 47.6396C229.964 45.9877 211.348 40.5458 211.348 41.6351Z" fill="black"/>
</g>
<g opacity="0.1">
<path opacity="0.1" d="M14.6622 80.3338C16.1584 80.3338 17.3713 78.7437 17.3713 76.7822C17.3713 74.8206 16.1584 73.2305 14.6622 73.2305C13.166 73.2305 11.9531 74.8206 11.9531 76.7822C11.9531 78.7437 13.166 80.3338 14.6622 80.3338Z" fill="#3F3D56"/>
<path opacity="0.1" d="M16.8045 61.5865C17.1824 60.9258 17.378 60.1763 17.3711 59.415C17.3711 57.4532 16.157 55.8633 14.662 55.8633C13.167 55.8633 11.9529 57.4532 11.9529 59.415C11.9453 60.1761 12.14 60.9256 12.5171 61.5865C12.147 62.2499 11.9527 62.997 11.9527 63.7569C11.9527 64.5167 12.147 65.2639 12.5171 65.9272C12.147 66.5905 11.9527 67.3377 11.9527 68.0975C11.9527 68.8574 12.147 69.6046 12.5171 70.2679C12.1392 70.9285 11.9445 71.6782 11.9529 72.4394C11.9529 74.3988 13.1646 75.9911 14.662 75.9911C16.1594 75.9911 17.3782 74.4036 17.3782 72.4442C17.3858 71.6827 17.1902 70.9331 16.8116 70.2727C17.183 69.6098 17.3781 68.8624 17.3781 68.1023C17.3781 67.3422 17.183 66.5949 16.8116 65.932C17.183 65.2691 17.3781 64.5217 17.3781 63.7616C17.3781 63.0015 17.183 62.2542 16.8116 61.5913L16.8045 61.5865Z" fill="#3F3D56"/>
<path opacity="0.1" d="M14.6622 58.6307C16.1584 58.6307 17.3713 57.0406 17.3713 55.079C17.3713 53.1175 16.1584 51.5273 14.6622 51.5273C13.166 51.5273 11.9531 53.1175 11.9531 55.079C11.9531 57.0406 13.166 58.6307 14.6622 58.6307Z" fill="#3F3D56"/>
<path opacity="0.1" d="M14.6622 54.287C16.1584 54.287 17.3713 52.6968 17.3713 50.7353C17.3713 48.7737 16.1584 47.1836 14.6622 47.1836C13.166 47.1836 11.9531 48.7737 11.9531 50.7353C11.9531 52.6968 13.166 54.287 14.6622 54.287Z" fill="#3F3D56"/>
<path opacity="0.1" d="M4.52328 21.0299C4.15281 20.5582 3.81555 20.0611 3.51392 19.5425L10.6342 18.3721L2.9283 18.4413C2.19123 16.8313 1.78996 15.0877 1.74902 13.3171C1.70809 11.5465 2.02836 9.78613 2.69024 8.14373L13.0219 13.5094L3.49963 6.4966C4.38715 4.94291 5.58562 3.58953 7.01993 2.52131C8.45424 1.45309 10.0935 0.69305 11.8348 0.288843C13.5762 -0.115364 15.3822 -0.155029 17.1396 0.172336C18.897 0.499701 20.5679 1.18704 22.0476 2.19126C23.5273 3.19548 24.7839 4.49494 25.7386 6.00818C26.6933 7.52142 27.3255 9.21582 27.5957 10.9852C27.8658 12.7545 27.768 14.5606 27.3084 16.2904C26.8488 18.0201 26.0373 19.6361 24.9248 21.0371C25.502 21.7713 25.9984 22.5657 26.4055 23.4065L17.1594 28.2144L27.0149 24.9034C27.7058 26.9518 27.8761 29.1404 27.5103 31.2712C27.1446 33.402 26.2543 35.408 24.92 37.1079C26.426 39.0248 27.363 41.3274 27.6236 43.7523C27.8843 46.1773 27.4582 48.6267 26.3941 50.8206C25.33 53.0145 23.6708 54.8643 21.6062 56.1585C19.5417 57.4527 17.155 58.139 14.7193 58.139C12.2835 58.139 9.8969 57.4527 7.83233 56.1585C5.76776 54.8643 4.10856 53.0145 3.04445 50.8206C1.98033 48.6267 1.55425 46.1773 1.81493 43.7523C2.0756 41.3274 3.01251 39.0248 4.51852 37.1079C2.71873 34.8172 1.74023 31.9871 1.74023 29.0725C1.74023 26.1579 2.71873 23.3278 4.51852 21.0371L4.52328 21.0299Z" fill="#246EB2"/>
<path opacity="0.1" d="M27.698 29.0665C27.7027 31.9819 26.7237 34.8135 24.9199 37.1019C26.4259 39.0188 27.3628 41.3214 27.6235 43.7463C27.8841 46.1713 27.4581 48.6207 26.394 50.8146C25.3298 53.0085 23.6706 54.8583 21.6061 56.1525C19.5415 57.4467 17.1549 58.133 14.7191 58.133C12.2834 58.133 9.89675 57.4467 7.83218 56.1525C5.76761 54.8583 4.10841 53.0085 3.0443 50.8146C1.98018 48.6207 1.55411 46.1713 1.81478 43.7463C2.07545 41.3214 3.01236 39.0188 4.51837 37.1019C2.77817 34.8899 27.698 27.6077 27.698 29.0665Z" fill="black"/>
</g>
<g opacity="0.1">
<path opacity="0.1" d="M40.813 79.9467C41.9318 79.9467 42.8388 78.7589 42.8388 77.2937C42.8388 75.8284 41.9318 74.6406 40.813 74.6406C39.6941 74.6406 38.7871 75.8284 38.7871 77.2937C38.7871 78.7589 39.6941 79.9467 40.813 79.9467Z" fill="#3F3D56"/>
<path opacity="0.1" d="M42.4147 65.9384C42.6964 65.4452 42.8418 64.8857 42.8361 64.3175C42.8361 62.8516 41.9315 61.6621 40.8126 61.6621C39.6937 61.6621 38.7867 62.854 38.7867 64.3175C38.7818 64.8859 38.928 65.4454 39.2105 65.9384C38.9327 66.4338 38.7868 66.9924 38.7868 67.5605C38.7868 68.1287 38.9327 68.6873 39.2105 69.1826C38.9327 69.678 38.7868 70.2366 38.7868 70.8047C38.7868 71.3729 38.9327 71.9315 39.2105 72.4269C38.928 72.9199 38.7818 73.4794 38.7867 74.0478C38.7867 75.5137 39.6937 76.7032 40.8126 76.7032C41.9315 76.7032 42.8361 75.5113 42.8361 74.0478C42.8418 73.4796 42.6964 72.9201 42.4147 72.4269C42.6903 71.9307 42.8349 71.3724 42.8349 70.8047C42.8349 70.2371 42.6903 69.6788 42.4147 69.1826C42.6903 68.6865 42.8349 68.1282 42.8349 67.5605C42.8349 66.9929 42.6903 66.4346 42.4147 65.9384Z" fill="#3F3D56"/>
<path opacity="0.1" d="M40.813 63.728C41.9318 63.728 42.8388 62.5402 42.8388 61.0749C42.8388 59.6097 41.9318 58.4219 40.813 58.4219C39.6941 58.4219 38.7871 59.6097 38.7871 61.0749C38.7871 62.5402 39.6941 63.728 40.813 63.728Z" fill="#3F3D56"/>
<path opacity="0.1" d="M40.813 60.4858C41.9318 60.4858 42.8388 59.298 42.8388 57.8327C42.8388 56.3675 41.9318 55.1797 40.813 55.1797C39.6941 55.1797 38.7871 56.3675 38.7871 57.8327C38.7871 59.298 39.6941 60.4858 40.813 60.4858Z" fill="#3F3D56"/>
<path opacity="0.1" d="M33.233 35.6324C32.9558 35.2803 32.7037 34.9091 32.4784 34.5216L37.799 33.6468L32.0451 33.6897C31.4931 32.4868 31.192 31.1838 31.1601 29.8604C31.1281 28.537 31.3661 27.221 31.8594 25.9928L39.5796 30.0045L32.4593 24.7604C33.1252 23.6039 34.0221 22.5972 35.0938 21.8032C36.1656 21.0092 37.3893 20.445 38.6886 20.1457C39.9879 19.8464 41.3348 19.8185 42.6454 20.0637C43.9559 20.3089 45.2019 20.822 46.3055 21.5709C47.4092 22.3198 48.3469 23.2884 49.06 24.4164C49.7731 25.5443 50.2464 26.8073 50.4502 28.1266C50.6541 29.4458 50.5842 30.793 50.2449 32.084C49.9056 33.375 49.3042 34.5821 48.4782 35.63C48.9107 36.1781 49.2819 36.772 49.5852 37.4011L42.6815 40.9933L50.0446 38.5191C50.5618 40.0495 50.6896 41.685 50.4165 43.2775C50.1434 44.8699 49.4781 46.369 48.4806 47.639C49.6075 49.0711 50.309 50.7918 50.5049 52.6044C50.7008 54.4169 50.3832 56.2481 49.5884 57.8884C48.7936 59.5287 47.5537 60.9118 46.0106 61.8795C44.4675 62.8472 42.6835 63.3604 40.8628 63.3604C39.042 63.3604 37.258 62.8472 35.7149 61.8795C34.1718 60.9118 32.9319 59.5287 32.1371 57.8884C31.3423 56.2481 31.0247 54.4169 31.2206 52.6044C31.4165 50.7918 32.118 49.0711 33.2449 47.639C31.9 45.9273 31.1688 43.8125 31.1688 41.6345C31.1688 39.4565 31.9 37.3418 33.2449 35.63L33.233 35.6324Z" fill="#246EB2"/>
<path opacity="0.1" d="M50.5543 41.6351C50.5575 43.8136 49.826 45.9294 48.4784 47.6396C49.6053 49.0717 50.3068 50.7924 50.5027 52.605C50.6986 54.4175 50.381 56.2487 49.5862 57.889C48.7914 59.5293 47.5515 60.9124 46.0084 61.8801C44.4653 62.8478 42.6813 63.361 40.8606 63.361C39.0398 63.361 37.2558 62.8478 35.7127 61.8801C34.1696 60.9124 32.9297 59.5293 32.1349 57.889C31.3401 56.2487 31.0225 54.4175 31.2184 52.605C31.4143 50.7924 32.1159 49.0717 33.2427 47.6396C31.9334 45.9877 50.5543 40.5458 50.5543 41.6351Z" fill="black"/>
</g>
<path opacity="0.1" d="M130.455 119.657C202.504 119.657 260.911 118.712 260.911 117.546C260.911 116.379 202.504 115.434 130.455 115.434C58.4069 115.434 0 116.379 0 117.546C0 118.712 58.4069 119.657 130.455 119.657Z" fill="#246EB2"/>
<path opacity="0.1" d="M130.455 137.001C202.504 137.001 260.911 136.056 260.911 134.889C260.911 133.723 202.504 132.777 130.455 132.777C58.4069 132.777 0 133.723 0 134.889C0 136.056 58.4069 137.001 130.455 137.001Z" fill="#246EB2"/>
<path opacity="0.1" d="M130.455 83.4661C202.504 83.4661 260.911 82.5205 260.911 81.3541C260.911 80.1877 202.504 79.2422 130.455 79.2422C58.4069 79.2422 0 80.1877 0 81.3541C0 82.5205 58.4069 83.4661 130.455 83.4661Z" fill="#246EB2"/>
<path opacity="0.1" d="M130.455 101.56C202.504 101.56 260.911 100.614 260.911 99.4479C260.911 98.2815 202.504 97.3359 130.455 97.3359C58.4069 97.3359 0 98.2815 0 99.4479C0 100.614 58.4069 101.56 130.455 101.56Z" fill="#246EB2"/>
<path opacity="0.1" d="M192.538 26.3067C191.689 26.146 190.81 26.2422 190.015 26.5832C189.538 26.7961 189.021 26.9062 188.499 26.9062C187.976 26.9062 187.46 26.7961 186.982 26.5832C186.418 26.335 185.806 26.2126 185.189 26.2246C184.573 26.2365 183.966 26.3825 183.411 26.6523C183.095 26.8204 182.743 26.9088 182.385 26.9097C180.938 26.9097 179.736 25.4509 179.486 23.5273C179.771 23.3147 180.013 23.0502 180.2 22.7478C181.047 21.3796 182.359 20.5 183.835 20.5C185.311 20.5 186.606 21.3677 187.454 22.7216C187.706 23.1307 188.06 23.4673 188.481 23.6987C188.902 23.9302 189.375 24.0485 189.856 24.0422H189.894C191.058 24.0302 192.055 24.9551 192.538 26.3067Z" fill="#246EB2"/>
<path opacity="0.1" d="M196.945 20.2675L194.608 21.7501L196.036 19.1662C195.634 18.8456 195.136 18.6686 194.622 18.6633H194.584C194.424 18.6654 194.265 18.6535 194.108 18.6275L193.303 19.1305L193.643 18.5107C193.081 18.3157 192.595 17.9468 192.256 17.4571L190.827 18.3581L191.722 16.7277C190.894 15.7313 189.775 15.1211 188.547 15.1211C187.071 15.1211 185.759 15.9983 184.909 17.3665C184.659 17.7756 184.304 18.1111 183.883 18.3388C183.461 18.5666 182.986 18.6785 182.507 18.6633H182.429C180.8 18.6633 179.481 20.5106 179.481 22.7894C179.481 25.0682 180.8 26.918 182.429 26.918C182.786 26.9156 183.138 26.8273 183.455 26.6605C184.009 26.39 184.616 26.2435 185.232 26.2311C185.849 26.2188 186.461 26.3409 187.025 26.589C187.502 26.8034 188.019 26.9143 188.542 26.9143C189.065 26.9143 189.581 26.8034 190.058 26.589C190.619 26.3465 191.224 26.2271 191.835 26.239C192.445 26.251 193.045 26.3939 193.596 26.6581C193.909 26.8222 194.257 26.9088 194.61 26.9108C196.238 26.9108 197.557 25.0611 197.557 22.7823C197.567 21.9059 197.357 21.0411 196.945 20.2675Z" fill="#246EB2"/>
<path opacity="0.1" d="M93.1426 25.0173C92.5469 24.9046 91.9313 24.9718 91.3738 25.2104C91.0402 25.3597 90.6788 25.4369 90.3133 25.4369C89.9478 25.4369 89.5864 25.3597 89.2528 25.2104C88.8578 25.0367 88.4299 24.9512 87.9986 24.9599C87.5674 24.9685 87.1432 25.0711 86.7555 25.2604C86.5349 25.3757 86.2902 25.4369 86.0414 25.4392C85.0296 25.4392 84.1869 24.419 84.0107 23.0722C84.2127 22.924 84.3848 22.7388 84.5178 22.5264C85.1106 21.5729 86.0295 20.9531 87.0626 20.9531C88.0958 20.9531 89.0028 21.561 89.5956 22.5073C89.7726 22.7937 90.0206 23.0295 90.3155 23.1915C90.6104 23.3536 90.9422 23.4365 91.2786 23.4322H91.3048C92.1047 23.4274 92.8022 24.0758 93.1426 25.0173Z" fill="#246EB2"/>
<path opacity="0.1" d="M96.2253 20.7916L94.5899 21.8309L95.5826 20.0217C95.302 19.7968 94.9541 19.6725 94.5946 19.6689H94.5661C94.4528 19.6709 94.3396 19.6622 94.228 19.6427L93.6734 19.9955L93.9114 19.5616C93.5183 19.4247 93.1783 19.1669 92.9401 18.8251L91.9474 19.4544L92.5759 18.315C92.312 17.9737 91.9756 17.6955 91.591 17.5005C91.2064 17.3055 90.7834 17.1986 90.3525 17.1875C89.3193 17.1875 88.4004 17.8025 87.8076 18.7607C87.6319 19.0472 87.3837 19.2821 87.0882 19.4416C86.7926 19.6011 86.4602 19.6795 86.1246 19.6689H86.0698C84.9295 19.6689 84.0059 20.9609 84.0059 22.5579C84.0059 24.155 84.9295 25.447 86.0698 25.447C86.319 25.445 86.564 25.3829 86.784 25.2658C87.1716 25.0775 87.5954 24.9757 88.0262 24.9675C88.4569 24.9592 88.8843 25.0448 89.2788 25.2181C89.6146 25.3714 89.9787 25.4526 90.3477 25.4565C90.7109 25.4559 91.0701 25.3796 91.4023 25.2324C91.7944 25.0625 92.2183 24.9789 92.6454 24.9871C93.0725 24.9953 93.4929 25.0952 93.8781 25.2801C94.0985 25.3957 94.3435 25.4562 94.5923 25.4565C95.7302 25.4565 96.6538 24.1622 96.6538 22.5675C96.6635 21.9487 96.516 21.3377 96.2253 20.7916Z" fill="#246EB2"/>
<path opacity="0.1" d="M64.1777 43.7087C64.7726 43.5962 65.3875 43.6634 65.9441 43.9018C66.2782 44.0511 66.64 44.1283 67.0059 44.1283C67.3717 44.1283 67.7335 44.0511 68.0676 43.9018C68.4625 43.7284 68.8903 43.6428 69.3214 43.6511C69.7526 43.6593 70.1768 43.7611 70.5648 43.9495C70.7847 44.0668 71.0298 44.129 71.279 44.1306C72.2907 44.1306 73.1335 43.108 73.3072 41.7612C73.1055 41.6135 72.9341 41.4282 72.8026 41.2154C72.2074 40.2619 71.2885 39.6445 70.2577 39.6445C69.2269 39.6445 68.3176 40.25 67.7224 41.1987C67.5456 41.4848 67.298 41.7203 67.0035 41.8823C66.709 42.0444 66.3777 42.1275 66.0417 42.1236H66.0155C65.2133 42.1283 64.5134 42.7743 64.1777 43.7087Z" fill="#246EB2"/>
<path opacity="0.1" d="M61.0929 39.4924L62.7307 40.5317L61.7356 38.7248C62.0169 38.4992 62.3655 38.3742 62.7259 38.3697H62.7521C62.8661 38.3713 62.9799 38.3633 63.0925 38.3458L63.6472 38.6962L63.4092 38.2648C63.8015 38.1275 64.1406 37.8698 64.3781 37.5282L65.3708 38.1575L64.7518 37.0157C65.0159 36.6748 65.3524 36.3969 65.7369 36.2023C66.1215 36.0077 66.5445 35.9013 66.9753 35.8906C68.0061 35.8906 68.9273 36.5056 69.5201 37.4639C69.6956 37.75 69.9434 37.9847 70.2385 38.1441C70.5337 38.3036 70.8656 38.3822 71.2008 38.372H71.2579C72.3958 38.372 73.3195 39.6664 73.3195 41.2611C73.3195 42.8558 72.3958 44.1501 71.2579 44.1501C71.0089 44.149 70.7639 44.0877 70.5437 43.9713C70.1561 43.782 69.7319 43.6794 69.3006 43.6708C68.8694 43.6621 68.4414 43.7476 68.0465 43.9213C67.712 44.0759 67.3484 44.1572 66.98 44.1596C66.616 44.1593 66.256 44.083 65.923 43.9356C65.5314 43.7657 65.1079 43.6821 64.6812 43.6903C64.2544 43.6985 63.8345 43.7984 63.4496 43.9832C63.2293 44.0988 62.9842 44.1594 62.7355 44.1596C61.5952 44.1596 60.6715 42.8677 60.6715 41.2706C60.6604 40.6518 60.8053 40.0402 61.0929 39.4924Z" fill="#246EB2"/>
<path d="M158.144 116.862C158.765 115.708 158.061 114.297 157.251 113.27C156.442 112.242 155.452 111.172 155.473 109.863C155.504 107.983 157.499 106.87 159.091 105.873C160.274 105.131 161.365 104.25 162.341 103.251C162.749 102.866 163.087 102.413 163.338 101.911C163.669 101.177 163.66 100.338 163.638 99.5278C163.57 96.8438 163.438 94.1613 163.241 91.4805" stroke="#3F3D56" stroke-width="4" stroke-miterlimit="10"/>
<path d="M166.271 91.3456C166.248 90.8539 166.102 90.3759 165.846 89.9556C165.59 89.5353 165.233 89.1862 164.807 88.9405L164.15 90.2396L164.171 88.6663C163.575 88.4907 162.939 88.5091 162.354 88.7191C161.77 88.929 161.267 89.3195 160.918 89.8343C160.57 90.3491 160.393 90.9615 160.415 91.583C160.436 92.2046 160.655 92.8033 161.038 93.2926C161.422 93.7819 161.95 94.1366 162.548 94.3054C163.146 94.4742 163.782 94.4484 164.364 94.2317C164.947 94.0151 165.445 93.6188 165.788 93.1C166.13 92.5813 166.3 91.9669 166.271 91.3456Z" fill="#246EB2"/>
<path d="M161.043 111.209C160.749 111.782 160.273 112.243 159.691 112.519C159.108 112.795 158.451 112.871 157.821 112.735C157.191 112.599 156.624 112.259 156.206 111.768C155.788 111.277 155.544 110.661 155.511 110.017C155.489 109.61 155.554 109.204 155.701 108.825C155.917 108.272 156.295 107.797 156.786 107.464C157.277 107.13 157.857 106.954 158.45 106.957C159.043 106.96 159.621 107.144 160.108 107.483C160.594 107.822 160.967 108.3 161.177 108.856L159.346 110.348L161.36 109.871C161.362 110.336 161.254 110.794 161.043 111.209Z" fill="#246EB2"/>
<path d="M159.596 105.512C158.877 105.546 158.17 105.313 157.611 104.859C157.052 104.405 156.68 103.76 156.565 103.048C156.45 102.337 156.601 101.608 156.989 101C157.376 100.393 157.974 99.9495 158.667 99.755L158.651 100.964L159.315 99.6477C160.091 99.6114 160.851 99.8854 161.425 100.41C162 100.934 162.343 101.665 162.38 102.443C162.416 103.22 162.142 103.98 161.619 104.556C161.095 105.131 160.365 105.475 159.589 105.512H159.596Z" fill="#246EB2"/>
<path d="M166.712 100.771C166.257 100.794 165.804 100.712 165.387 100.529C164.97 100.347 164.601 100.07 164.31 99.7198C164.018 99.37 163.812 98.957 163.708 98.5136C163.604 98.0702 163.604 97.6085 163.709 97.1652C163.813 96.7218 164.02 96.309 164.311 95.9594C164.603 95.6098 164.972 95.3329 165.389 95.1509C165.806 94.9688 166.26 94.8864 166.714 94.9103C167.168 94.9342 167.611 95.0637 168.007 95.2885L167.49 96.7187L168.545 95.6747C168.971 96.0662 169.272 96.5755 169.41 97.1382C169.548 97.701 169.517 98.292 169.32 98.8368C169.123 99.3816 168.769 99.8558 168.303 100.2C167.837 100.543 167.28 100.741 166.702 100.769L166.712 100.771Z" fill="#246EB2"/>
<path opacity="0.1" d="M165.875 92.1276C165.199 92.2015 164.542 92.4112 163.861 92.4541C163.181 92.497 162.433 92.3326 162.009 91.8058C161.81 91.4988 161.629 91.1804 161.467 90.8523C161.282 90.563 161.028 90.3239 160.729 90.1562C160.539 90.5281 160.431 90.9363 160.411 91.3533C160.392 91.7704 160.462 92.1868 160.616 92.5748C160.77 92.9628 161.005 93.3134 161.305 93.6031C161.605 93.8929 161.964 94.1151 162.357 94.2551C162.75 94.395 163.168 94.4493 163.583 94.4145C163.999 94.3796 164.402 94.2564 164.766 94.0529C165.13 93.8495 165.447 93.5707 165.695 93.2349C165.943 92.8992 166.116 92.5143 166.204 92.1061C166.097 92.1085 165.985 92.1156 165.875 92.1276Z" fill="black"/>
<path opacity="0.1" d="M166.712 100.768C166.206 100.792 165.704 100.684 165.252 100.456C164.8 100.228 164.416 99.8861 164.135 99.4647C163.854 99.0433 163.687 98.5564 163.65 98.0512C163.613 97.546 163.708 97.0399 163.924 96.582C164.156 96.7392 164.356 96.9399 164.512 97.1732C164.687 97.5073 164.881 97.8313 165.093 98.1433C165.55 98.6797 166.331 98.8584 167.038 98.8227C167.745 98.7869 168.428 98.5843 169.133 98.5247C169.23 98.5247 169.328 98.5104 169.428 98.5081C169.282 99.1292 168.938 99.6858 168.448 100.094C167.958 100.501 167.348 100.738 166.712 100.768Z" fill="black"/>
<path opacity="0.1" d="M159.596 105.514C159.096 105.537 158.598 105.432 158.15 105.208C157.702 104.984 157.319 104.649 157.037 104.235C156.755 103.821 156.584 103.341 156.54 102.842C156.496 102.343 156.58 101.84 156.784 101.383C157.026 101.542 157.237 101.744 157.406 101.979C157.598 102.321 157.81 102.651 158.041 102.968C158.534 103.519 159.367 103.714 160.115 103.683C160.862 103.652 161.543 103.49 162.257 103.445C162.08 104.022 161.729 104.53 161.253 104.9C160.777 105.27 160.198 105.484 159.596 105.514Z" fill="black"/>
<path opacity="0.1" d="M161.043 111.208C160.749 111.782 160.273 112.242 159.691 112.518C159.108 112.794 158.451 112.87 157.821 112.734C157.191 112.598 156.624 112.259 156.206 111.767C155.788 111.276 155.544 110.66 155.511 110.016C155.489 109.61 155.554 109.203 155.701 108.824C155.943 108.983 156.159 109.176 156.344 109.399C156.623 109.737 156.806 110.114 157.13 110.44C157.727 111.029 158.696 111.272 159.556 111.294C160.053 111.295 160.55 111.267 161.043 111.208Z" fill="black"/>
<path d="M12.9292 99.6979C13.5505 98.5442 12.8458 97.1331 12.0364 96.1057C11.227 95.0783 10.2367 94.0033 10.2582 92.6994C10.2891 90.8187 12.284 89.7055 13.8766 88.7091C15.0593 87.9665 16.1501 87.0864 17.1261 86.087C17.5343 85.7024 17.8719 85.2489 18.1236 84.7474C18.4545 84.0132 18.4449 83.1742 18.4235 82.3637C18.3537 79.6797 18.2212 76.9973 18.026 74.3164" stroke="#3F3D56" stroke-width="4" stroke-miterlimit="10"/>
<path d="M21.0561 74.1855C21.0331 73.6938 20.887 73.2158 20.6311 72.7955C20.3753 72.3752 20.0179 72.0261 19.592 71.7803L18.935 73.0794L18.9564 71.5062C18.3605 71.3305 17.7243 71.349 17.1396 71.5589C16.5549 71.7688 16.052 72.1594 15.7033 72.6742C15.3547 73.1889 15.1784 73.8013 15.2 74.4229C15.2216 75.0445 15.4398 75.6432 15.8233 76.1325C16.2068 76.6218 16.7356 76.9765 17.3334 77.1452C17.9313 77.314 18.5672 77.2883 19.1495 77.0716C19.7317 76.855 20.2302 76.4587 20.5729 75.9399C20.9156 75.4212 21.0848 74.8068 21.0561 74.1855Z" fill="#246EB2"/>
<path d="M15.8286 94.0484C15.5338 94.6222 15.0584 95.0826 14.4759 95.3585C13.8934 95.6344 13.2363 95.7104 12.6064 95.5747C11.9764 95.439 11.4087 95.0991 10.9911 94.6078C10.5735 94.1164 10.3292 93.5009 10.2961 92.8566C10.2742 92.4503 10.3392 92.0439 10.4866 91.6647C10.7024 91.1117 11.0806 90.6372 11.5712 90.3037C12.0619 89.9703 12.6419 89.7936 13.2349 89.7969C13.8279 89.8003 14.4059 89.9835 14.8927 90.3225C15.3796 90.6615 15.7523 91.1403 15.9619 91.6957L14.1312 93.1879L16.1452 92.7112C16.1475 93.1758 16.039 93.6343 15.8286 94.0484Z" fill="#246EB2"/>
<path d="M14.3809 88.3475C13.6617 88.3815 12.9552 88.1491 12.3962 87.6948C11.8372 87.2405 11.4648 86.596 11.35 85.8843C11.2352 85.1726 11.3861 84.4435 11.7739 83.8361C12.1617 83.2286 12.7592 82.7854 13.4525 82.5909L13.4358 83.7995L14.1 82.4837C14.4845 82.4657 14.8688 82.5237 15.2309 82.6544C15.5931 82.7851 15.9259 82.986 16.2106 83.2455C16.4952 83.505 16.7259 83.8181 16.8897 84.167C17.0535 84.5158 17.147 84.8935 17.165 85.2785C17.1829 85.6636 17.125 86.0484 16.9945 86.411C16.8639 86.7736 16.6633 87.1069 16.4041 87.3919C16.1449 87.6769 15.8322 87.9079 15.4839 88.0719C15.1355 88.2359 14.7583 88.3295 14.3737 88.3475H14.3809Z" fill="#246EB2"/>
<path d="M21.4968 83.6109C21.0424 83.6344 20.5888 83.5516 20.1719 83.3692C19.755 83.1867 19.3863 82.9096 19.0949 82.5597C18.8035 82.2099 18.5975 81.7969 18.4932 81.3534C18.3888 80.91 18.389 80.4484 18.4937 80.005C18.5984 79.5617 18.8048 79.1489 19.0965 78.7992C19.3882 78.4496 19.7571 78.1728 20.1742 77.9907C20.5912 77.8086 21.0449 77.7262 21.4992 77.7501C21.9535 77.774 22.3961 77.9035 22.7918 78.1283L22.2752 79.5586L23.3298 78.5145C23.7563 78.9061 24.0575 79.4153 24.1955 79.9781C24.3334 80.5408 24.3018 81.1318 24.1047 81.6766C23.9077 82.2214 23.5539 82.6956 23.0881 83.0394C22.6223 83.3832 22.0653 83.5812 21.4872 83.6085L21.4968 83.6109Z" fill="#246EB2"/>
<path opacity="0.1" d="M20.6611 74.9674C19.985 75.0413 19.3279 75.2511 18.6471 75.294C17.9662 75.3369 17.2187 75.1724 16.795 74.6456C16.5957 74.3386 16.4145 74.0203 16.2522 73.6921C16.0672 73.4029 15.8137 73.1638 15.5143 72.9961C15.3247 73.368 15.2165 73.7761 15.197 74.1932C15.1776 74.6102 15.2472 75.0267 15.4013 75.4147C15.5554 75.8026 15.7905 76.1532 16.0907 76.443C16.3909 76.7327 16.7495 76.955 17.1424 77.0949C17.5352 77.2348 17.9534 77.2891 18.369 77.2543C18.7845 77.2194 19.1878 77.0962 19.552 76.8928C19.9161 76.6894 20.2327 76.4105 20.4807 76.0747C20.7286 75.739 20.9021 75.3542 20.9896 74.9459C20.8825 74.9483 20.7706 74.9555 20.6611 74.9674Z" fill="black"/>
<path opacity="0.1" d="M21.4968 83.6076C20.9915 83.6316 20.4887 83.5242 20.0371 83.2958C19.5856 83.0675 19.2008 82.726 18.9201 82.3046C18.6395 81.8832 18.4725 81.3962 18.4356 80.891C18.3986 80.3859 18.4929 79.8797 18.7092 79.4219C18.9415 79.579 19.1412 79.7798 19.2972 80.013C19.4722 80.3472 19.6662 80.6711 19.878 80.9832C20.3351 81.5195 21.1159 81.6983 21.823 81.6625C22.53 81.6268 23.2132 81.4242 23.9179 81.3646C24.0155 81.3646 24.1131 81.3503 24.2131 81.3479C24.0672 81.969 23.7232 82.5257 23.2331 82.9335C22.7429 83.3412 22.1334 83.5779 21.4968 83.6076Z" fill="black"/>
<path opacity="0.1" d="M14.3811 88.3497C13.881 88.3731 13.3833 88.2679 12.9354 88.0441C12.4874 87.8202 12.1043 87.4852 11.8223 87.071C11.5404 86.6568 11.3692 86.1771 11.3249 85.6778C11.2807 85.1785 11.365 84.6762 11.5697 84.2188C11.8112 84.378 12.0217 84.5799 12.191 84.8147C12.3829 85.1568 12.5952 85.4872 12.8266 85.8039C13.3194 86.3545 14.1526 86.55 14.9001 86.519C15.6476 86.488 16.3284 86.3259 17.0426 86.2806C16.8649 86.8574 16.5141 87.3654 16.0379 87.7356C15.5617 88.1058 14.9832 88.3202 14.3811 88.3497Z" fill="black"/>
<path opacity="0.1" d="M15.8286 94.0477C15.5338 94.6215 15.0584 95.0819 14.4759 95.3578C13.8934 95.6337 13.2363 95.7097 12.6064 95.574C11.9764 95.4383 11.4087 95.0985 10.9911 94.6071C10.5735 94.1158 10.3292 93.5003 10.2961 92.8559C10.2742 92.4496 10.3392 92.0433 10.4866 91.6641C10.728 91.8227 10.9446 92.0163 11.1293 92.2385C11.4079 92.577 11.5912 92.9536 11.9149 93.2802C12.5125 93.869 13.4813 94.1121 14.3407 94.1336C14.838 94.1351 15.3348 94.1064 15.8286 94.0477Z" fill="black"/>
<path d="M109.63 80.0643C109.009 78.9129 109.713 77.5018 110.525 76.4744C111.337 75.447 112.322 74.3768 112.301 73.0681C112.272 71.185 110.277 70.0742 108.683 69.0778C107.5 68.3357 106.41 67.4555 105.435 66.4558C105.025 66.0732 104.687 65.6203 104.436 65.1185C104.107 64.382 104.117 63.5453 104.136 62.7348C104.207 60.0508 104.34 57.3684 104.533 54.6875" stroke="#3F3D56" stroke-width="4" stroke-miterlimit="10"/>
<path d="M101.505 54.5526C101.528 54.0611 101.673 53.5832 101.929 53.1629C102.184 52.7426 102.541 52.3934 102.967 52.1475L103.624 53.4466L103.605 51.8733C103.918 51.7823 104.243 51.7429 104.569 51.7566C105.148 51.7836 105.706 51.9818 106.172 52.3263C106.638 52.6708 106.992 53.146 107.189 53.6918C107.386 54.2377 107.416 54.8297 107.277 55.3929C107.138 55.9562 106.835 56.4655 106.406 56.8564C105.978 57.2473 105.444 57.5022 104.871 57.589C104.298 57.6758 103.712 57.5905 103.187 57.3439C102.663 57.0973 102.223 56.7005 101.923 56.2037C101.624 55.7069 101.478 55.1323 101.505 54.5526Z" fill="#246EB2"/>
<path d="M106.731 74.4117C107.038 75.0106 107.542 75.4854 108.157 75.7567C108.772 76.0279 109.462 76.079 110.111 75.9014C110.759 75.7238 111.327 75.3282 111.719 74.7811C112.111 74.2341 112.303 73.5687 112.263 72.8966C112.223 72.2246 111.954 71.5867 111.5 71.0901C111.046 70.5934 110.435 70.2681 109.77 70.1688C109.105 70.0695 108.426 70.2022 107.847 70.5446C107.268 70.887 106.825 71.4184 106.591 72.0495L108.421 73.5417L106.407 73.0649C106.406 73.5334 106.517 73.9953 106.731 74.4117Z" fill="#246EB2"/>
<path d="M108.178 68.719C108.898 68.7536 109.605 68.5218 110.164 68.0677C110.724 67.6135 111.097 66.969 111.212 66.257C111.327 65.5451 111.176 64.8156 110.788 64.2079C110.401 63.6002 109.803 63.1568 109.109 62.9624L109.123 64.1709L108.459 62.8551C107.683 62.8169 106.923 63.089 106.347 63.6115C105.772 64.1341 105.427 64.8644 105.388 65.6417C105.372 65.9802 105.414 66.319 105.514 66.6428C105.69 67.2218 106.041 67.7322 106.518 68.104C106.994 68.4757 107.575 68.6905 108.178 68.719Z" fill="#246EB2"/>
<path d="M101.065 63.9703C101.519 63.9935 101.972 63.9104 102.389 63.7277C102.806 63.545 103.174 63.2677 103.465 62.9178C103.757 62.5678 103.962 62.1548 104.066 61.7114C104.171 61.268 104.17 60.8064 104.065 60.3632C103.96 59.92 103.754 59.5073 103.462 59.1579C103.17 58.8084 102.801 58.5317 102.384 58.3498C101.967 58.1678 101.514 58.0856 101.06 58.1095C100.605 58.1335 100.163 58.263 99.7673 58.4878L100.286 59.918L99.2198 58.8954C98.9353 59.1535 98.7047 59.4654 98.5413 59.8131C98.3778 60.1609 98.2848 60.5376 98.2675 60.9216C98.2534 61.1931 98.2782 61.4652 98.3413 61.7296C98.4907 62.3486 98.8373 62.902 99.3286 63.3063C99.8199 63.7105 100.429 63.9436 101.065 63.9703Z" fill="#246EB2"/>
<path opacity="0.1" d="M101.9 55.3346C102.576 55.4085 103.233 55.6183 103.912 55.6612C104.59 55.7041 105.34 55.5396 105.766 55.0128C105.965 54.7058 106.145 54.3874 106.307 54.0593C106.493 53.77 106.747 53.5309 107.047 53.3633C107.237 53.7353 107.345 54.1436 107.365 54.5609C107.385 54.9782 107.315 55.395 107.161 55.7832C107.007 56.1714 106.772 56.5222 106.471 56.8121C106.171 57.102 105.812 57.3243 105.419 57.4642C105.026 57.604 104.607 57.6582 104.191 57.6231C103.776 57.5879 103.372 57.4643 103.008 57.2604C102.644 57.0565 102.327 56.7771 102.08 56.4409C101.832 56.1047 101.659 55.7194 101.572 55.3108C101.679 55.3131 101.788 55.3227 101.9 55.3346Z" fill="black"/>
<path opacity="0.1" d="M101.065 63.9709C101.57 63.9942 102.072 63.8863 102.524 63.6578C102.975 63.4293 103.359 63.0878 103.64 62.6666C103.92 62.2454 104.087 61.7588 104.125 61.2539C104.162 60.749 104.068 60.2431 103.853 59.7852C103.62 59.9422 103.419 60.143 103.262 60.3763C103.087 60.7105 102.893 61.0344 102.681 61.3465C102.227 61.8828 101.446 62.0616 100.739 62.0258C100.032 61.9901 99.3485 61.7875 98.6438 61.7279C98.5462 61.7279 98.4462 61.7136 98.3486 61.7112C98.4941 62.3325 98.838 62.8894 99.3282 63.2972C99.8185 63.7051 100.428 63.9416 101.065 63.9709Z" fill="black"/>
<path opacity="0.1" d="M108.178 68.7169C108.678 68.741 109.176 68.6362 109.625 68.4126C110.073 68.1889 110.457 67.8539 110.739 67.4394C111.021 67.025 111.192 66.545 111.236 66.0455C111.28 65.5459 111.195 65.0433 110.99 64.5859C110.748 64.7447 110.538 64.9467 110.371 65.1819C110.179 65.524 109.966 65.8544 109.735 66.1711C109.24 66.7217 108.409 66.9172 107.659 66.8862C106.909 66.8552 106.231 66.6931 105.517 66.6478C105.693 67.2252 106.044 67.7337 106.52 68.1041C106.997 68.4744 107.576 68.6884 108.178 68.7169Z" fill="black"/>
<path opacity="0.1" d="M106.73 74.4149C107.074 75.079 107.659 75.5863 108.364 75.8334C109.069 76.0805 109.842 76.0486 110.524 75.7442C111.207 75.4398 111.747 74.886 112.035 74.1959C112.324 73.5057 112.338 72.7314 112.075 72.0312C111.832 72.1886 111.616 72.3823 111.432 72.6057C111.154 72.9442 110.956 73.3208 110.647 73.6474C110.047 74.2362 109.08 74.4793 108.218 74.5008C107.721 74.501 107.224 74.4724 106.73 74.4149Z" fill="black"/>
<path d="M185.62 80.6039C198.763 80.6039 209.417 69.936 209.417 56.7765C209.417 43.6171 198.763 32.9492 185.62 32.9492C172.478 32.9492 161.824 43.6171 161.824 56.7765C161.824 69.936 172.478 80.6039 185.62 80.6039Z" fill="#3F3D56"/>
<path d="M195.835 62.9197C195.007 62.0902 193.014 60.8387 192.026 60.3715C190.886 59.8233 190.467 59.8328 189.66 60.4168C188.989 60.8935 188.553 61.3536 187.782 61.1844C187.011 61.0151 185.482 59.8614 184.004 58.3859C182.526 56.9104 181.378 55.3896 181.214 54.6054C181.05 53.8211 181.502 53.3945 181.983 52.7223C182.564 51.9142 182.58 51.4947 182.028 50.3529C181.552 49.3637 180.316 47.3733 179.481 46.539C178.645 45.7047 178.464 45.8882 178.007 46.0622C177.537 46.2597 177.085 46.499 176.657 46.7774C175.829 47.3328 175.365 47.7952 175.039 48.4912C174.712 49.1873 174.344 50.4792 176.241 53.8617C177.64 56.4493 179.413 58.8162 181.502 60.8864C183.576 62.9826 185.948 64.7609 188.541 66.1639C191.917 68.0708 193.21 67.6918 193.905 67.3676C194.6 67.0435 195.062 66.5834 195.614 65.7467C195.892 65.3188 196.131 64.8665 196.328 64.3952C196.485 63.9375 196.671 63.7516 195.835 62.9197Z" fill="#246EB2"/>
<path opacity="0.1" d="M185.62 32.9492C180.911 32.9469 176.307 34.3432 172.39 36.9615C168.473 39.5798 165.42 43.3025 163.617 47.6586C161.814 52.0147 161.341 56.8085 162.26 61.4335C163.178 66.0585 165.445 70.3069 168.775 73.6413C172.105 76.9757 176.348 79.2461 180.967 80.1655C185.586 81.0849 190.374 80.6118 194.724 78.8062C199.074 77.0006 202.792 73.9435 205.407 70.0217C208.022 66.0999 209.417 61.4897 209.414 56.7742C209.411 50.4564 206.903 44.3982 202.442 39.9309C197.98 35.4635 191.93 32.9524 185.62 32.9492ZM185.62 77.4336C181.54 77.4336 177.551 76.2219 174.158 73.9518C170.765 71.6818 168.12 68.4552 166.558 64.6802C164.997 60.9052 164.588 56.7513 165.384 52.7437C166.181 48.7362 168.146 45.055 171.031 42.1658C173.917 39.2765 177.593 37.3089 181.595 36.5117C185.598 35.7146 189.746 36.1237 193.516 37.6874C197.286 39.251 200.509 41.899 202.776 45.2964C205.043 48.6938 206.253 52.6881 206.253 56.7742C206.253 59.4872 205.719 62.1737 204.682 64.6802C203.645 67.1867 202.126 69.4642 200.21 71.3826C198.294 73.301 196.019 74.8227 193.516 75.861C191.013 76.8992 188.33 77.4336 185.62 77.4336Z" fill="black"/>
<path d="M130.951 116.791C144.093 116.791 154.747 106.124 154.747 92.9641C154.747 79.8046 144.093 69.1367 130.951 69.1367C117.808 69.1367 107.154 79.8046 107.154 92.9641C107.154 106.124 117.808 116.791 130.951 116.791Z" fill="#3F3D56"/>
<path d="M144.484 85.7693L137.359 93.0277C137.347 93.0397 137.337 93.0541 137.33 93.0701C137.323 93.0861 137.32 93.1033 137.32 93.1206C137.32 93.138 137.323 93.1552 137.33 93.1712C137.337 93.1871 137.347 93.2016 137.359 93.2136L142.359 98.5364C142.478 98.657 142.56 98.8104 142.592 98.9771C142.625 99.1439 142.608 99.3167 142.543 99.4738C142.479 99.6309 142.369 99.7653 142.228 99.8602C142.087 99.9551 141.921 100.006 141.752 100.007C141.523 100.007 141.304 99.9158 141.142 99.7544L136.169 94.4507C136.144 94.4257 136.11 94.4117 136.074 94.4117C136.038 94.4117 136.004 94.4257 135.979 94.4507L134.767 95.6759C134.271 96.184 133.678 96.5876 133.024 96.8631C132.37 97.1385 131.668 97.2804 130.958 97.2802C130.235 97.2768 129.52 97.1292 128.854 96.846C128.189 96.5628 127.587 96.1496 127.082 95.6307L125.918 94.4388C125.893 94.4138 125.859 94.3997 125.823 94.3997C125.787 94.3997 125.753 94.4138 125.728 94.4388L120.767 99.7306C120.687 99.8107 120.592 99.8742 120.488 99.9175C120.383 99.9609 120.272 99.9832 120.159 99.9832C120.046 99.9832 119.934 99.9609 119.829 99.9175C119.725 99.8742 119.63 99.8107 119.55 99.7306C119.47 99.6508 119.406 99.556 119.363 99.4514C119.319 99.3469 119.297 99.2348 119.297 99.1216C119.297 99.0083 119.319 98.8962 119.363 98.7917C119.406 98.6872 119.47 98.5923 119.55 98.5125L124.53 93.2017C124.553 93.1758 124.565 93.1428 124.565 93.1087C124.565 93.0746 124.553 93.0417 124.53 93.0158L117.405 85.7574C117.387 85.739 117.364 85.7264 117.338 85.7213C117.313 85.7162 117.286 85.7188 117.262 85.7288C117.238 85.7387 117.218 85.7556 117.204 85.7773C117.189 85.7989 117.182 85.8244 117.182 85.8504V100.374C117.184 100.936 117.407 101.474 117.804 101.871C118.2 102.268 118.737 102.491 119.298 102.493H142.597C143.157 102.491 143.695 102.268 144.091 101.871C144.488 101.474 144.711 100.936 144.713 100.374V85.8623C144.714 85.8353 144.707 85.8085 144.692 85.7858C144.678 85.763 144.657 85.7453 144.631 85.7351C144.606 85.7249 144.579 85.7228 144.553 85.7289C144.526 85.735 144.502 85.7491 144.484 85.7693Z" fill="#246EB2"/>
<path d="M130.951 95.5555C131.434 95.5603 131.913 95.4677 132.359 95.2835C132.806 95.0992 133.211 94.8269 133.55 94.4829L143.927 83.9064C143.559 83.6009 143.096 83.4324 142.618 83.4297H119.302C118.824 83.4312 118.361 83.5998 117.993 83.9064L128.372 94.4829C128.709 94.825 129.11 95.0962 129.553 95.2804C129.996 95.4647 130.471 95.5582 130.951 95.5555Z" fill="#246EB2"/>
<path opacity="0.1" d="M130.651 69.1406C125.941 69.1383 121.337 70.5346 117.42 73.1529C113.504 75.7712 110.451 79.4939 108.647 83.85C106.844 88.2061 106.372 92.9999 107.29 97.6249C108.208 102.25 110.476 106.498 113.806 109.833C117.136 113.167 121.378 115.438 125.997 116.357C130.616 117.276 135.404 116.803 139.754 114.998C144.105 113.192 147.823 110.135 150.437 106.213C153.052 102.291 154.447 97.6811 154.444 92.9656C154.441 86.6478 151.933 80.5896 147.472 76.1223C143.01 71.6549 136.96 69.1438 130.651 69.1406ZM130.651 113.625C126.57 113.625 122.581 112.413 119.188 110.143C115.795 107.873 113.15 104.647 111.589 100.872C110.027 97.0966 109.619 92.9427 110.415 88.9351C111.211 84.9276 113.176 81.2464 116.061 78.3572C118.947 75.4679 122.623 73.5003 126.625 72.7031C130.628 71.906 134.776 72.3151 138.546 73.8788C142.316 75.4424 145.539 78.0904 147.806 81.4878C150.073 84.8852 151.283 88.8795 151.283 92.9656C151.283 98.4448 149.109 103.7 145.24 107.574C141.371 111.448 136.123 113.625 130.651 113.625Z" fill="black"/>
<path d="M74.4759 99.0023C87.6182 99.0023 98.2721 88.3345 98.2721 75.175C98.2721 62.0155 87.6182 51.3477 74.4759 51.3477C61.3336 51.3477 50.6797 62.0155 50.6797 75.175C50.6797 88.3345 61.3336 99.0023 74.4759 99.0023Z" fill="#3F3D56"/>
<path d="M74.4758 63.7695L64.9893 85.6851L65.8748 86.5719L74.4782 82.7723L83.0816 86.5719L83.9672 85.6851L74.4758 63.7695Z" fill="#246EB2"/>
<path opacity="0.1" d="M74.4763 51.3359C69.7675 51.3336 65.1637 52.7296 61.2473 55.3474C57.3309 57.9652 54.2778 61.6872 52.4742 66.0426C50.6706 70.398 50.1975 75.1912 51.1147 79.8158C52.0319 84.4405 54.2982 88.689 57.627 92.0238C60.9558 95.3587 65.1976 97.6301 69.8158 98.5508C74.434 99.4715 79.2211 99.0001 83.5717 97.1963C87.9224 95.3925 91.641 92.3373 94.2573 88.4171C96.8737 84.4969 98.2701 79.8878 98.2701 75.1728C98.2701 68.8529 95.7637 62.7918 91.3018 58.3218C86.84 53.8519 80.7879 51.3391 74.4763 51.3359ZM74.4763 95.8203C70.3951 95.8203 66.4056 94.6084 63.0123 92.3377C59.6191 90.0671 56.9746 86.8399 55.4133 83.0642C53.8521 79.2884 53.4442 75.1339 54.2412 71.1261C55.0383 67.1182 57.0045 63.4371 59.8912 60.5483C62.7779 57.6595 66.4554 55.6928 70.4584 54.897C74.4615 54.1012 78.6104 54.512 82.3803 56.0775C86.1501 57.643 89.3717 60.2928 91.6373 63.6918C93.903 67.0908 95.1111 71.0863 95.1087 75.1728C95.1081 80.6516 92.9341 85.9058 89.0648 89.7797C85.1956 93.6536 79.948 95.8298 74.4763 95.8298V95.8203Z" fill="black"/>
<g opacity="0.1">
<path opacity="0.1" d="M181.531 116.236C181.531 116.236 179.164 116.172 178.45 116.043C178.45 116.165 178.45 116.236 178.45 116.236C178.264 116.422 181.726 116.517 181.726 116.517C181.773 116.522 181.818 116.54 181.854 116.57C181.728 116.236 181.531 116.236 181.531 116.236Z" fill="black"/>
<path opacity="0.1" d="M185.649 112.392C185.554 112.299 185.461 110.988 185.461 110.988C185.413 111.018 185.358 111.038 185.302 111.045C185.335 111.441 185.399 112.049 185.461 112.111C185.523 112.173 185.937 114.547 185.835 115.672C185.732 116.797 185.835 116.795 185.835 116.795C185.835 116.795 182.8 117.241 182.064 116.943C182.064 116.983 182.085 117.029 182.093 117.076C182.185 117.639 186.023 117.076 186.023 117.076C186.023 117.076 185.928 117.076 186.023 115.954C186.118 114.831 185.742 112.488 185.649 112.392Z" fill="black"/>
</g>
<g opacity="0.1">
<path opacity="0.1" d="M180.971 110.991H180.919C181.121 111.031 181.329 111.031 181.531 110.991H181.59C181.385 110.961 181.177 110.961 180.971 110.991Z" fill="black"/>
<path opacity="0.1" d="M185.882 105.883C185.547 106.638 185.051 110.731 184.963 111.544C185.292 111.63 185.509 111.692 185.509 111.692C185.509 111.692 186.023 106.877 186.399 106.023L185.882 105.883Z" fill="black"/>
</g>
<path d="M199.109 98.7737C199.73 97.6223 199.026 96.2088 198.214 95.1814C197.402 94.1541 196.416 93.0862 196.438 91.7751C196.466 89.8944 198.461 88.7836 200.056 87.7849C201.239 87.0429 202.329 86.1627 203.303 85.1628C203.713 84.7797 204.051 84.3269 204.303 83.8255C204.632 83.089 204.622 82.2523 204.603 81.4419C204.533 78.7562 204.401 76.0738 204.206 73.3945" stroke="#3F3D56" stroke-width="4" stroke-miterlimit="10"/>
<path d="M207.234 73.2503C207.211 72.7592 207.065 72.2816 206.81 71.8617C206.554 71.4418 206.197 71.0931 205.772 70.8475L205.115 72.1467L205.134 70.5734C204.822 70.48 204.496 70.4405 204.17 70.4566C203.591 70.4837 203.033 70.682 202.567 71.0266C202.1 71.3712 201.746 71.8466 201.55 72.3925C201.353 72.9385 201.323 73.5306 201.462 74.0939C201.602 74.6573 201.905 75.1665 202.333 75.5573C202.762 75.9481 203.297 76.2028 203.87 76.2893C204.443 76.3758 205.029 76.2902 205.553 76.0432C206.078 75.7963 206.517 75.3991 206.817 74.902C207.116 74.4048 207.261 73.83 207.234 73.2503Z" fill="#246EB2"/>
<path d="M202.008 93.1159C201.701 93.7145 201.197 94.1891 200.582 94.4601C199.967 94.7311 199.277 94.7821 198.629 94.6044C197.98 94.4267 197.412 94.0312 197.021 93.4842C196.629 92.9371 196.437 92.2719 196.477 91.5999C196.517 90.928 196.786 90.2902 197.24 89.7936C197.694 89.2969 198.304 88.9716 198.969 88.8721C199.634 88.7726 200.313 88.905 200.892 89.2472C201.471 89.5893 201.914 90.1203 202.149 90.7512L200.318 92.2434L202.332 91.7667C202.334 92.2359 202.223 92.6987 202.008 93.1159Z" fill="#246EB2"/>
<path d="M200.561 87.4153C199.842 87.4499 199.135 87.2181 198.575 86.764C198.015 86.3099 197.643 85.6653 197.527 84.9534C197.412 84.2414 197.563 83.512 197.951 82.9043C198.339 82.2966 198.937 81.8532 199.63 81.6587L199.616 82.8673L200.28 81.5539C201.057 81.5183 201.815 81.7927 202.39 82.317C202.964 82.8413 203.307 83.5725 203.344 84.3499C203.362 84.7348 203.304 85.1196 203.174 85.4822C203.044 85.8447 202.843 86.178 202.584 86.463C202.325 86.7479 202.012 86.9788 201.664 87.1427C201.315 87.3065 200.938 87.4 200.554 87.4177L200.561 87.4153Z" fill="#246EB2"/>
<path d="M207.674 82.6773C207.22 82.7005 206.767 82.6174 206.35 82.4348C205.933 82.2521 205.565 81.9748 205.274 81.6248C204.982 81.2748 204.777 80.8618 204.673 80.4184C204.568 79.975 204.569 79.5134 204.674 79.0702C204.779 78.627 204.985 78.2144 205.277 77.8649C205.569 77.5154 205.938 77.2388 206.355 77.0568C206.772 76.8749 207.225 76.7926 207.679 76.8166C208.134 76.8405 208.576 76.97 208.972 77.1949L208.453 78.6251L209.519 77.6001C209.803 77.8584 210.034 78.1703 210.197 78.518C210.361 78.8657 210.454 79.2423 210.471 79.6262C210.486 79.8977 210.461 80.1699 210.398 80.4343C210.248 81.0535 209.902 81.6072 209.411 82.0119C208.919 82.4165 208.31 82.6501 207.674 82.6773Z" fill="#246EB2"/>
<path opacity="0.1" d="M206.841 74.0338C206.165 74.1101 205.505 74.3199 204.827 74.3628C204.148 74.4057 203.398 74.2412 202.972 73.712C202.773 73.4053 202.593 73.0869 202.432 72.7585C202.246 72.4698 201.993 72.2309 201.694 72.0625C201.504 72.4345 201.395 72.8428 201.376 73.2601C201.356 73.6775 201.426 74.0942 201.58 74.4824C201.734 74.8707 201.969 75.2215 202.27 75.5114C202.57 75.8013 202.929 76.0236 203.322 76.1634C203.715 76.3033 204.134 76.3574 204.55 76.3223C204.965 76.2871 205.369 76.1635 205.733 75.9596C206.097 75.7558 206.414 75.4764 206.661 75.1401C206.909 74.8039 207.082 74.4186 207.169 74.01C207.06 74.0147 206.95 74.0219 206.841 74.0338Z" fill="black"/>
<path opacity="0.1" d="M207.674 82.674C207.169 82.6973 206.667 82.5894 206.215 82.3609C205.764 82.1324 205.38 81.7909 205.099 81.3697C204.819 80.9485 204.652 80.4619 204.614 79.957C204.577 79.4522 204.671 78.9462 204.886 78.4883C205.119 78.6445 205.32 78.8444 205.477 79.0771C205.651 79.4118 205.845 79.7358 206.058 80.0472C206.512 80.5859 207.293 80.7623 208 80.7289C208.707 80.6956 209.39 80.4906 210.095 80.431C210.193 80.431 210.293 80.4143 210.39 80.4119C210.245 81.0335 209.901 81.5907 209.411 81.9989C208.921 82.4071 208.311 82.6442 207.674 82.674Z" fill="black"/>
<path opacity="0.1" d="M200.561 87.413C200.06 87.4376 199.561 87.3329 199.112 87.109C198.663 86.8851 198.279 86.5495 197.997 86.1344C197.715 85.7193 197.544 85.2386 197.501 84.7383C197.457 84.238 197.543 83.735 197.749 83.2773C197.99 83.4374 198.199 83.6392 198.368 83.8733C198.607 84.1951 198.737 84.5669 199.004 84.8625C199.499 85.4155 200.33 85.6086 201.08 85.5919C201.83 85.5752 202.508 85.3964 203.222 85.3416C203.046 85.9192 202.695 86.4281 202.219 86.7989C201.743 87.1696 201.164 87.3841 200.561 87.413Z" fill="black"/>
<path opacity="0.1" d="M202.008 93.1142C201.659 93.7689 201.075 94.2668 200.373 94.5076C199.672 94.7485 198.906 94.7145 198.228 94.4124C197.551 94.1103 197.013 93.5626 196.723 92.8795C196.433 92.1964 196.412 91.4285 196.664 90.7305C196.906 90.8885 197.122 91.0822 197.307 91.3049C197.587 91.6458 197.771 92.02 198.092 92.349C198.692 92.9378 199.659 93.1785 200.52 93.2024C201.018 93.2018 201.514 93.1724 202.008 93.1142Z" fill="black"/>
<path d="M236.96 135.008C237.582 133.857 236.877 132.443 236.065 131.416C235.254 130.388 234.268 129.321 234.289 128.009C234.318 126.129 236.313 125.018 237.908 124.019C239.09 123.277 240.18 122.397 241.155 121.397C241.565 121.014 241.903 120.561 242.155 120.06C242.483 119.323 242.474 118.487 242.455 117.676C242.387 114.991 242.254 112.308 242.057 109.629" stroke="#3F3D56" stroke-width="4" stroke-miterlimit="10"/>
<path d="M245.085 109.484C245.062 108.993 244.917 108.516 244.661 108.096C244.406 107.676 244.049 107.327 243.623 107.081L242.966 108.381L242.985 106.807C242.677 106.715 242.355 106.676 242.033 106.691C241.454 106.718 240.896 106.916 240.43 107.26C239.963 107.605 239.61 108.08 239.413 108.626C239.216 109.172 239.186 109.764 239.325 110.328C239.465 110.891 239.768 111.4 240.197 111.791C240.625 112.182 241.16 112.437 241.733 112.523C242.306 112.61 242.892 112.524 243.417 112.277C243.941 112.03 244.381 111.633 244.68 111.136C244.979 110.639 245.124 110.064 245.097 109.484H245.085Z" fill="#246EB2"/>
<path d="M239.859 129.346C239.552 129.945 239.048 130.42 238.433 130.691C237.818 130.962 237.128 131.013 236.48 130.835C235.831 130.657 235.264 130.262 234.872 129.715C234.48 129.168 234.288 128.502 234.328 127.83C234.368 127.158 234.637 126.521 235.091 126.024C235.545 125.527 236.155 125.202 236.82 125.103C237.485 125.003 238.164 125.135 238.743 125.478C239.322 125.82 239.766 126.351 240 126.982L238.169 128.474L240.183 127.997C240.185 128.466 240.074 128.929 239.859 129.346Z" fill="#246EB2"/>
<path d="M238.412 123.646C237.693 123.68 236.986 123.449 236.426 122.994C235.867 122.54 235.494 121.896 235.378 121.184C235.263 120.472 235.414 119.742 235.802 119.135C236.19 118.527 236.788 118.084 237.481 117.889L237.467 119.098L238.131 117.784C238.908 117.749 239.666 118.023 240.241 118.547C240.815 119.072 241.159 119.803 241.195 120.58C241.213 120.965 241.155 121.35 241.025 121.713C240.895 122.075 240.694 122.409 240.435 122.693C240.176 122.978 239.863 123.209 239.515 123.373C239.167 123.537 238.789 123.63 238.405 123.648L238.412 123.646Z" fill="#246EB2"/>
<path d="M245.525 118.908C245.071 118.931 244.617 118.848 244.2 118.665C243.784 118.483 243.415 118.205 243.124 117.855C242.833 117.505 242.627 117.092 242.523 116.649C242.419 116.205 242.419 115.744 242.524 115.301C242.629 114.858 242.836 114.445 243.127 114.095C243.419 113.746 243.788 113.469 244.205 113.287C244.622 113.105 245.076 113.023 245.53 113.047C245.984 113.071 246.427 113.2 246.822 113.425L246.303 114.856L247.37 113.831C247.654 114.089 247.884 114.401 248.048 114.749C248.211 115.096 248.304 115.473 248.322 115.857C248.336 116.128 248.311 116.4 248.248 116.665C248.099 117.284 247.752 117.838 247.261 118.242C246.77 118.647 246.16 118.881 245.525 118.908Z" fill="#246EB2"/>
<path opacity="0.1" d="M244.692 110.264C244.016 110.341 243.356 110.55 242.678 110.593C241.999 110.636 241.249 110.472 240.823 109.942C240.624 109.636 240.444 109.317 240.283 108.989C240.097 108.7 239.844 108.461 239.545 108.293C239.355 108.665 239.247 109.073 239.227 109.491C239.207 109.908 239.277 110.325 239.431 110.713C239.585 111.101 239.82 111.452 240.121 111.742C240.421 112.032 240.78 112.254 241.173 112.394C241.566 112.534 241.985 112.588 242.401 112.553C242.816 112.518 243.22 112.394 243.584 112.19C243.948 111.986 244.265 111.707 244.512 111.371C244.76 111.034 244.933 110.649 245.02 110.24C244.911 110.245 244.801 110.252 244.692 110.264Z" fill="black"/>
<path opacity="0.1" d="M245.526 118.908C245.021 118.932 244.518 118.824 244.067 118.595C243.616 118.367 243.231 118.025 242.951 117.604C242.67 117.183 242.503 116.696 242.466 116.191C242.429 115.687 242.522 115.181 242.738 114.723C242.971 114.879 243.171 115.079 243.328 115.311C243.502 115.646 243.696 115.97 243.909 116.282C244.364 116.82 245.145 116.997 245.852 116.963C246.559 116.93 247.242 116.725 247.947 116.665C248.044 116.665 248.144 116.649 248.242 116.646C248.097 117.268 247.753 117.825 247.262 118.233C246.772 118.642 246.162 118.879 245.526 118.908Z" fill="black"/>
<path opacity="0.1" d="M238.412 123.647C237.911 123.672 237.412 123.567 236.963 123.343C236.515 123.119 236.131 122.784 235.848 122.369C235.566 121.954 235.395 121.473 235.352 120.973C235.308 120.472 235.394 119.969 235.601 119.512C235.841 119.672 236.05 119.874 236.22 120.108C236.458 120.429 236.588 120.801 236.855 121.097C237.35 121.65 238.181 121.843 238.931 121.826C239.681 121.81 240.359 121.631 241.074 121.576C240.897 122.154 240.546 122.663 240.07 123.033C239.594 123.404 239.015 123.618 238.412 123.647Z" fill="black"/>
<path opacity="0.1" d="M239.859 129.349C239.51 130.003 238.926 130.501 238.224 130.742C237.523 130.983 236.757 130.949 236.079 130.647C235.402 130.345 234.864 129.797 234.574 129.114C234.284 128.431 234.263 127.663 234.515 126.965C234.757 127.123 234.973 127.317 235.158 127.539C235.439 127.88 235.634 128.254 235.943 128.583C236.543 129.172 237.51 129.413 238.371 129.437C238.869 129.436 239.365 129.407 239.859 129.349Z" fill="black"/>
</g>
<defs>
<clipPath id="clip0">
<rect width="260.911" height="137" fill="white"/>
</clipPath>
</defs>
</svg>
