<svg width="285" height="189" viewBox="0 0 285 189" fill="none" xmlns="http://www.w3.org/2000/svg">
<rect width="285" height="189" rx="4" fill="white"/>
<path d="M87.28 56.28C88.22 54.96 88.7 53.2 88.7 51C88.7 48.8 88.22 47.04 87.28 45.72C86.34 44.4 85 43.74 83.3 43.74C81.6 43.74 80.26 44.4 79.32 45.72C78.38 47.04 77.9 48.8 77.9 51C77.9 53.2 78.38 54.96 79.32 56.28C80.26 57.6 81.6 58.26 83.3 58.26C85 58.26 86.34 57.6 87.28 56.28ZM79.76 51C79.76 47.5 81.04 45.54 83.3 45.54C85.56 45.54 86.86 47.54 86.86 51C86.86 54.46 85.56 56.44 83.3 56.44C81.04 56.44 79.76 54.46 79.76 51ZM92.8991 49.46L93.1391 45.74H99.1191V44H91.4591L90.9391 51.26H94.8991C96.5991 51.26 97.8191 52.24 97.8191 53.86C97.8191 55.48 96.6191 56.44 94.8591 56.44C93.3191 56.44 92.1991 55.72 91.8191 54.36L90.2391 55.26C90.8991 57.2 92.7191 58.26 94.8591 58.26C96.1991 58.26 97.3191 57.86 98.2591 57.08C99.1991 56.3 99.6591 55.22 99.6591 53.86C99.6591 52.48 99.1991 51.42 98.2791 50.64C97.3791 49.86 96.2591 49.46 94.9391 49.46H92.8991ZM103.368 49.46L103.608 45.74H109.588V44H101.928L101.408 51.26H105.368C107.068 51.26 108.288 52.24 108.288 53.86C108.288 55.48 107.088 56.44 105.328 56.44C103.788 56.44 102.668 55.72 102.288 54.36L100.708 55.26C101.368 57.2 103.188 58.26 105.328 58.26C106.668 58.26 107.788 57.86 108.728 57.08C109.668 56.3 110.128 55.22 110.128 53.86C110.128 52.48 109.668 51.42 108.748 50.64C107.848 49.86 106.728 49.46 105.408 49.46H103.368ZM119.667 52.7V51.02H112.367V52.7H119.667ZM130.92 58V56.2H124.58L128.16 52.64C129.82 50.98 130.66 49.44 130.66 48.02C130.66 46.72 130.22 45.68 129.36 44.9C128.5 44.12 127.48 43.74 126.3 43.74C124.4 43.74 122.76 44.68 121.88 46.5L123.44 47.42C124.04 46.16 125 45.54 126.32 45.54C127.7 45.54 128.8 46.46 128.8 48.04C128.8 48.98 128.14 50.12 126.82 51.44L121.88 56.48V58H130.92ZM141.467 58V56.2H135.127L138.707 52.64C140.367 50.98 141.207 49.44 141.207 48.02C141.207 46.72 140.767 45.68 139.907 44.9C139.047 44.12 138.027 43.74 136.847 43.74C134.947 43.74 133.307 44.68 132.427 46.5L133.987 47.42C134.587 46.16 135.547 45.54 136.867 45.54C138.247 45.54 139.347 46.46 139.347 48.04C139.347 48.98 138.687 50.12 137.367 51.44L132.427 56.48V58H141.467ZM152.014 58V56.2H145.674L149.254 52.64C150.914 50.98 151.754 49.44 151.754 48.02C151.754 46.72 151.314 45.68 150.454 44.9C149.594 44.12 148.574 43.74 147.394 43.74C145.494 43.74 143.854 44.68 142.974 46.5L144.534 47.42C145.134 46.16 146.094 45.54 147.414 45.54C148.794 45.54 149.894 46.46 149.894 48.04C149.894 48.98 149.234 50.12 147.914 51.44L142.974 56.48V58H152.014ZM161.601 52.7V51.02H154.301V52.7H161.601ZM163.374 45.28L163.834 46.88L166.814 46V58H168.654V44H167.054L163.374 45.28ZM179.583 45.64V44H171.183V45.74H177.403L174.163 50.12L174.903 51.26H175.383C177.123 51.26 178.323 52.24 178.323 53.86C178.323 55.48 177.123 56.44 175.383 56.44C173.763 56.44 172.763 55.8 172.343 54.5L170.783 55.42C171.483 57.26 173.243 58.26 175.383 58.26C176.723 58.26 177.843 57.86 178.783 57.08C179.723 56.3 180.183 55.22 180.183 53.86C180.183 51.64 178.683 50.14 176.543 49.74L179.583 45.64ZM189.726 52.7V51.02H182.426V52.7H189.726ZM194.579 49.46L194.819 45.74H200.799V44H193.139L192.619 51.26H196.579C198.279 51.26 199.499 52.24 199.499 53.86C199.499 55.48 198.299 56.44 196.539 56.44C194.999 56.44 193.879 55.72 193.499 54.36L191.919 55.26C192.579 57.2 194.399 58.26 196.539 58.26C197.879 58.26 198.999 57.86 199.939 57.08C200.879 56.3 201.339 55.22 201.339 53.86C201.339 52.48 200.879 51.42 199.959 50.64C199.059 49.86 197.939 49.46 196.619 49.46H194.579ZM201.85 45.28L202.31 46.88L205.29 46V58H207.13V44H205.53L201.85 45.28Z" fill="#081A3E"/>
<path d="M84.5 74.97C83.81 73.875 82.805 73.32 81.47 73.32C80.405 73.32 79.49 73.695 78.725 74.46C77.975 75.225 77.6 76.155 77.6 77.25C77.6 78.345 77.975 79.275 78.725 80.04C79.49 80.805 80.405 81.18 81.47 81.18C82.805 81.18 83.81 80.625 84.5 79.53V81H85.49V73.5H84.5V74.97ZM79.445 79.365C78.875 78.78 78.59 78.075 78.59 77.25C78.59 76.425 78.875 75.72 79.445 75.15C80.015 74.565 80.72 74.28 81.545 74.28C82.37 74.28 83.075 74.565 83.645 75.15C84.215 75.72 84.5 76.425 84.5 77.25C84.5 78.075 84.215 78.78 83.645 79.365C83.075 79.935 82.37 80.22 81.545 80.22C80.72 80.22 80.015 79.935 79.445 79.365ZM94.0361 74.97C93.3461 73.875 92.3411 73.32 91.0061 73.32C89.9411 73.32 89.0261 73.695 88.2611 74.46C87.5111 75.225 87.1361 76.155 87.1361 77.25C87.1361 78.345 87.5111 79.275 88.2611 80.04C89.0261 80.805 89.9411 81.18 91.0061 81.18C92.3411 81.18 93.3461 80.625 94.0361 79.53V81H95.0261V70.5H94.0361V74.97ZM88.9811 79.365C88.4111 78.78 88.1261 78.075 88.1261 77.25C88.1261 76.425 88.4111 75.72 88.9811 75.15C89.5511 74.565 90.2561 74.28 91.0811 74.28C91.9061 74.28 92.6111 74.565 93.1811 75.15C93.7511 75.72 94.0361 76.425 94.0361 77.25C94.0361 78.075 93.7511 78.78 93.1811 79.365C92.6111 79.935 91.9061 80.22 91.0811 80.22C90.2561 80.22 89.5511 79.935 88.9811 79.365ZM103.572 74.97C102.882 73.875 101.877 73.32 100.542 73.32C99.4773 73.32 98.5623 73.695 97.7973 74.46C97.0473 75.225 96.6723 76.155 96.6723 77.25C96.6723 78.345 97.0473 79.275 97.7973 80.04C98.5623 80.805 99.4773 81.18 100.542 81.18C101.877 81.18 102.882 80.625 103.572 79.53V81H104.562V73.5H103.572V74.97ZM98.5173 79.365C97.9473 78.78 97.6623 78.075 97.6623 77.25C97.6623 76.425 97.9473 75.72 98.5173 75.15C99.0873 74.565 99.7923 74.28 100.617 74.28C101.442 74.28 102.147 74.565 102.717 75.15C103.287 75.72 103.572 76.425 103.572 77.25C103.572 78.075 103.287 78.78 102.717 79.365C102.147 79.935 101.442 80.22 100.617 80.22C99.7923 80.22 99.0873 79.935 98.5173 79.365ZM107.648 81V70.05H106.658V81H107.648ZM116.199 74.97C115.509 73.875 114.504 73.32 113.169 73.32C112.104 73.32 111.189 73.695 110.424 74.46C109.674 75.225 109.299 76.155 109.299 77.25C109.299 78.345 109.674 79.275 110.424 80.04C111.189 80.805 112.104 81.18 113.169 81.18C114.504 81.18 115.509 80.625 116.199 79.53V81H117.189V73.5H116.199V74.97ZM111.144 79.365C110.574 78.78 110.289 78.075 110.289 77.25C110.289 76.425 110.574 75.72 111.144 75.15C111.714 74.565 112.419 74.28 113.244 74.28C114.069 74.28 114.774 74.565 115.344 75.15C115.914 75.72 116.199 76.425 116.199 77.25C116.199 78.075 115.914 78.78 115.344 79.365C114.774 79.935 114.069 80.22 113.244 80.22C112.419 80.22 111.714 79.935 111.144 79.365ZM123.26 73.5H121.1V71.4L120.11 71.7V73.5H118.535V74.46H120.11V79.005C120.11 80.745 121.16 81.315 123.26 81V80.13C121.82 80.19 121.1 80.295 121.1 79.005V74.46H123.26V73.5ZM129.774 71.82C128.229 71.82 126.924 72.345 125.874 73.41C124.839 74.46 124.314 75.735 124.314 77.25C124.314 78.825 124.854 80.115 125.949 81.135C127.044 82.17 128.409 82.68 130.044 82.68C131.034 82.68 131.904 82.545 132.654 82.275V81.825C131.919 82.11 131.049 82.26 130.044 82.26C128.529 82.26 127.269 81.795 126.264 80.85C125.259 79.905 124.764 78.705 124.764 77.25C124.764 75.825 125.244 74.64 126.219 73.68C127.194 72.72 128.379 72.24 129.774 72.24C131.124 72.24 132.264 72.69 133.179 73.59C134.109 74.49 134.574 75.615 134.574 76.95C134.574 78.795 133.899 79.635 133.014 79.635C132.369 79.635 132.039 79.155 132.039 78.195V74.955H131.109V75.57C130.689 75.09 130.164 74.85 129.519 74.85C128.829 74.85 128.244 75.075 127.779 75.54C127.314 76.005 127.089 76.575 127.089 77.25C127.089 77.925 127.314 78.495 127.779 78.96C128.244 79.425 128.829 79.65 129.519 79.65C130.194 79.65 130.749 79.38 131.184 78.84C131.379 79.695 132.024 80.13 132.864 80.13C133.449 80.13 133.944 79.86 134.379 79.335C134.814 78.81 135.024 78.015 135.024 76.95C135.024 75.255 134.229 73.62 132.594 72.6C131.769 72.075 130.839 71.82 129.774 71.82ZM128.469 78.345C128.169 78.06 128.019 77.7 128.019 77.25C128.019 76.8 128.169 76.44 128.469 76.17C128.784 75.885 129.144 75.75 129.579 75.75C130.014 75.75 130.374 75.885 130.659 76.17C130.959 76.44 131.109 76.8 131.109 77.25C131.109 77.7 130.959 78.06 130.659 78.345C130.374 78.615 130.014 78.75 129.579 78.75C129.144 78.75 128.784 78.615 128.469 78.345ZM143.123 74.97C142.433 73.875 141.428 73.32 140.093 73.32C139.028 73.32 138.113 73.695 137.348 74.46C136.598 75.225 136.223 76.155 136.223 77.25C136.223 78.345 136.598 79.275 137.348 80.04C138.113 80.805 139.028 81.18 140.093 81.18C141.428 81.18 142.433 80.625 143.123 79.53V81H144.113V73.5H143.123V74.97ZM138.068 79.365C137.498 78.78 137.213 78.075 137.213 77.25C137.213 76.425 137.498 75.72 138.068 75.15C138.638 74.565 139.343 74.28 140.168 74.28C140.993 74.28 141.698 74.565 142.268 75.15C142.838 75.72 143.123 76.425 143.123 77.25C143.123 78.075 142.838 78.78 142.268 79.365C141.698 79.935 140.993 80.22 140.168 80.22C139.343 80.22 138.638 79.935 138.068 79.365ZM147.199 81V70.05H146.209V81H147.199ZM150.56 80.91C150.875 80.595 150.875 80.055 150.56 79.74C150.245 79.425 149.705 79.425 149.39 79.74C149.075 80.055 149.075 80.595 149.39 80.91C149.705 81.225 150.245 81.225 150.56 80.91ZM154.477 79.965L151.852 73.5H150.802L153.877 81H155.077L158.152 73.5H157.102L154.477 79.965ZM162.521 73.32C161.366 73.32 160.436 73.695 159.701 74.445C158.966 75.195 158.606 76.125 158.606 77.25C158.606 78.39 158.981 79.335 159.716 80.07C160.451 80.805 161.411 81.18 162.596 81.18C164.051 81.18 165.236 80.52 165.896 79.455L165.026 78.945C164.606 79.71 163.751 80.22 162.611 80.22C161.006 80.22 159.821 79.26 159.626 77.745H166.211C166.226 77.55 166.241 77.385 166.241 77.28C166.241 76.215 165.896 75.285 165.206 74.505C164.531 73.71 163.631 73.32 162.521 73.32ZM162.521 74.28C163.196 74.28 163.796 74.505 164.306 74.94C164.816 75.375 165.116 75.99 165.221 76.785H159.626C159.821 75.3 160.961 74.28 162.521 74.28ZM171.326 73.32C170.201 73.32 169.361 73.77 168.806 74.67V73.5H167.816V81H168.806V77.07C168.806 75.165 169.796 74.28 171.236 74.28C172.541 74.28 173.276 75.06 173.276 76.395V81H174.266V76.395C174.266 74.52 173.141 73.32 171.326 73.32ZM180.155 73.5H177.995V71.4L177.005 71.7V73.5H175.43V74.46H177.005V79.005C177.005 80.745 178.055 81.315 180.155 81V80.13C178.715 80.19 177.995 80.295 177.995 79.005V74.46H180.155V73.5ZM187.085 77.43C187.085 79.335 186.095 80.22 184.655 80.22C183.35 80.22 182.615 79.44 182.615 78.105V73.5H181.625V78.105C181.625 79.98 182.75 81.18 184.565 81.18C185.69 81.18 186.53 80.73 187.085 79.83V81H188.075V73.5H187.085V77.43ZM191.159 73.5H190.169V81H191.159V76.83C191.159 75.105 192.164 74.34 193.529 74.34V73.38C192.404 73.38 191.624 73.83 191.159 74.745V73.5ZM197.897 73.32C196.742 73.32 195.812 73.695 195.077 74.445C194.342 75.195 193.982 76.125 193.982 77.25C193.982 78.39 194.357 79.335 195.092 80.07C195.827 80.805 196.787 81.18 197.972 81.18C199.427 81.18 200.612 80.52 201.272 79.455L200.402 78.945C199.982 79.71 199.127 80.22 197.987 80.22C196.382 80.22 195.197 79.26 195.002 77.745H201.587C201.602 77.55 201.617 77.385 201.617 77.28C201.617 76.215 201.272 75.285 200.582 74.505C199.907 73.71 199.007 73.32 197.897 73.32ZM197.897 74.28C198.572 74.28 199.172 74.505 199.682 74.94C200.192 75.375 200.492 75.99 200.597 76.785H195.002C195.197 75.3 196.337 74.28 197.897 74.28ZM203.679 75.465C203.679 74.7 204.399 74.28 205.254 74.28C206.169 74.28 206.769 74.625 207.054 75.33L207.879 74.85C207.444 73.905 206.469 73.32 205.254 73.32C204.519 73.32 203.904 73.53 203.409 73.935C202.929 74.34 202.689 74.85 202.689 75.465C202.689 77.085 204.264 77.43 205.524 77.745C206.379 77.97 207.069 78.345 207.069 79.02C207.069 79.845 206.319 80.22 205.344 80.22C204.339 80.22 203.574 79.74 203.289 78.96L202.449 79.455C202.854 80.475 203.904 81.18 205.344 81.18C206.139 81.18 206.799 80.985 207.294 80.58C207.804 80.175 208.059 79.665 208.059 79.02C208.059 77.4 206.484 77.055 205.224 76.74C204.369 76.515 203.679 76.14 203.679 75.465Z" fill="#081A3E"/>
<path d="M84.28 123.28C85.22 121.96 85.7 120.2 85.7 118C85.7 115.8 85.22 114.04 84.28 112.72C83.34 111.4 82 110.74 80.3 110.74C78.6 110.74 77.26 111.4 76.32 112.72C75.38 114.04 74.9 115.8 74.9 118C74.9 120.2 75.38 121.96 76.32 123.28C77.26 124.6 78.6 125.26 80.3 125.26C82 125.26 83.34 124.6 84.28 123.28ZM76.76 118C76.76 114.5 78.04 112.54 80.3 112.54C82.56 112.54 83.86 114.54 83.86 118C83.86 121.46 82.56 123.44 80.3 123.44C78.04 123.44 76.76 121.46 76.76 118ZM89.8991 116.46L90.1391 112.74H96.1191V111H88.4591L87.9391 118.26H91.8991C93.5991 118.26 94.8191 119.24 94.8191 120.86C94.8191 122.48 93.6191 123.44 91.8591 123.44C90.3191 123.44 89.1991 122.72 88.8191 121.36L87.2391 122.26C87.8991 124.2 89.7191 125.26 91.8591 125.26C93.1991 125.26 94.3191 124.86 95.2591 124.08C96.1991 123.3 96.6591 122.22 96.6591 120.86C96.6591 119.48 96.1991 118.42 95.2791 117.64C94.3791 116.86 93.2591 116.46 91.9391 116.46H89.8991ZM100.368 116.46L100.608 112.74H106.588V111H98.9278L98.4078 118.26H102.368C104.068 118.26 105.288 119.24 105.288 120.86C105.288 122.48 104.088 123.44 102.328 123.44C100.788 123.44 99.6678 122.72 99.2878 121.36L97.7078 122.26C98.3678 124.2 100.188 125.26 102.328 125.26C103.668 125.26 104.788 124.86 105.728 124.08C106.668 123.3 107.128 122.22 107.128 120.86C107.128 119.48 106.668 118.42 105.748 117.64C104.848 116.86 103.728 116.46 102.408 116.46H100.368ZM116.667 119.7V118.02H109.367V119.7H116.667ZM127.92 125V123.2H121.58L125.16 119.64C126.82 117.98 127.66 116.44 127.66 115.02C127.66 113.72 127.22 112.68 126.36 111.9C125.5 111.12 124.48 110.74 123.3 110.74C121.4 110.74 119.76 111.68 118.88 113.5L120.44 114.42C121.04 113.16 122 112.54 123.32 112.54C124.7 112.54 125.8 113.46 125.8 115.04C125.8 115.98 125.14 117.12 123.82 118.44L118.88 123.48V125H127.92ZM138.467 125V123.2H132.127L135.707 119.64C137.367 117.98 138.207 116.44 138.207 115.02C138.207 113.72 137.767 112.68 136.907 111.9C136.047 111.12 135.027 110.74 133.847 110.74C131.947 110.74 130.307 111.68 129.427 113.5L130.987 114.42C131.587 113.16 132.547 112.54 133.867 112.54C135.247 112.54 136.347 113.46 136.347 115.04C136.347 115.98 135.687 117.12 134.367 118.44L129.427 123.48V125H138.467ZM149.014 125V123.2H142.674L146.254 119.64C147.914 117.98 148.754 116.44 148.754 115.02C148.754 113.72 148.314 112.68 147.454 111.9C146.594 111.12 145.574 110.74 144.394 110.74C142.494 110.74 140.854 111.68 139.974 113.5L141.534 114.42C142.134 113.16 143.094 112.54 144.414 112.54C145.794 112.54 146.894 113.46 146.894 115.04C146.894 115.98 146.234 117.12 144.914 118.44L139.974 123.48V125H149.014ZM158.601 119.7V118.02H151.301V119.7H158.601ZM160.374 112.28L160.834 113.88L163.814 113V125H165.654V111H164.054L160.374 112.28ZM176.583 112.64V111H168.183V112.74H174.403L171.163 117.12L171.903 118.26H172.383C174.123 118.26 175.323 119.24 175.323 120.86C175.323 122.48 174.123 123.44 172.383 123.44C170.763 123.44 169.763 122.8 169.343 121.5L167.783 122.42C168.483 124.26 170.243 125.26 172.383 125.26C173.723 125.26 174.843 124.86 175.783 124.08C176.723 123.3 177.183 122.22 177.183 120.86C177.183 118.64 175.683 117.14 173.543 116.74L176.583 112.64ZM186.726 119.7V118.02H179.426V119.7H186.726ZM198.499 123.28C199.439 121.96 199.919 120.2 199.919 118C199.919 115.8 199.439 114.04 198.499 112.72C197.559 111.4 196.219 110.74 194.519 110.74C192.819 110.74 191.479 111.4 190.539 112.72C189.599 114.04 189.119 115.8 189.119 118C189.119 120.2 189.599 121.96 190.539 123.28C191.479 124.6 192.819 125.26 194.519 125.26C196.219 125.26 197.559 124.6 198.499 123.28ZM190.979 118C190.979 114.5 192.259 112.54 194.519 112.54C196.779 112.54 198.079 114.54 198.079 118C198.079 121.46 196.779 123.44 194.519 123.44C192.259 123.44 190.979 121.46 190.979 118ZM204.118 116.46L204.358 112.74H210.338V111H202.678L202.158 118.26H206.118C207.818 118.26 209.038 119.24 209.038 120.86C209.038 122.48 207.838 123.44 206.078 123.44C204.538 123.44 203.418 122.72 203.038 121.36L201.458 122.26C202.118 124.2 203.938 125.26 206.078 125.26C207.418 125.26 208.538 124.86 209.478 124.08C210.418 123.3 210.878 122.22 210.878 120.86C210.878 119.48 210.418 118.42 209.498 117.64C208.598 116.86 207.478 116.46 206.158 116.46H204.118Z" fill="#081A3E"/>
<path d="M76.515 140.32C75.36 140.32 74.43 140.695 73.695 141.445C72.96 142.195 72.6 143.125 72.6 144.25C72.6 145.39 72.975 146.335 73.71 147.07C74.445 147.805 75.405 148.18 76.59 148.18C78.045 148.18 79.23 147.52 79.89 146.455L79.02 145.945C78.6 146.71 77.745 147.22 76.605 147.22C75 147.22 73.815 146.26 73.62 144.745H80.205C80.22 144.55 80.235 144.385 80.235 144.28C80.235 143.215 79.89 142.285 79.2 141.505C78.525 140.71 77.625 140.32 76.515 140.32ZM76.515 141.28C77.19 141.28 77.79 141.505 78.3 141.94C78.81 142.375 79.11 142.99 79.215 143.785H73.62C73.815 142.3 74.955 141.28 76.515 141.28ZM82.7998 148V137.05H81.8098V148H82.7998ZM88.3956 148.18C89.8506 148.18 91.1406 147.43 91.7556 146.23L90.9306 145.75C90.4356 146.65 89.5206 147.22 88.3956 147.22C87.5706 147.22 86.8656 146.935 86.2956 146.365C85.7256 145.78 85.4406 145.075 85.4406 144.25C85.4406 143.425 85.7256 142.72 86.2956 142.15C86.8656 141.565 87.5706 141.28 88.3956 141.28C89.5206 141.28 90.4656 141.85 90.8706 142.75L91.6806 142.285C91.1406 141.085 89.8806 140.32 88.3956 140.32C87.2706 140.32 86.3256 140.695 85.5756 141.46C84.8256 142.21 84.4506 143.14 84.4506 144.25C84.4506 145.36 84.8256 146.29 85.5756 147.055C86.3256 147.805 87.2706 148.18 88.3956 148.18ZM96.687 140.32C95.562 140.32 94.722 140.77 94.167 141.67V137.5H93.177V148H94.167V144.07C94.167 142.165 95.157 141.28 96.597 141.28C97.902 141.28 98.637 142.06 98.637 143.395V148H99.627V143.395C99.627 141.52 98.502 140.32 96.687 140.32ZM102.546 138.7C102.831 138.415 102.831 137.965 102.546 137.68C102.261 137.395 101.811 137.395 101.526 137.68C101.241 137.965 101.241 138.415 101.526 138.7C101.811 138.985 102.261 138.985 102.546 138.7ZM102.531 148V140.5H101.541V148H102.531ZM108.142 140.32C107.017 140.32 106.177 140.77 105.622 141.67V140.5H104.632V148H105.622V144.07C105.622 142.165 106.612 141.28 108.052 141.28C109.357 141.28 110.092 142.06 110.092 143.395V148H111.082V143.395C111.082 141.52 109.957 140.32 108.142 140.32ZM114.256 147.91C114.571 147.595 114.571 147.055 114.256 146.74C113.941 146.425 113.401 146.425 113.086 146.74C112.771 147.055 112.771 147.595 113.086 147.91C113.401 148.225 113.941 148.225 114.256 147.91ZM124.448 140.32C123.368 140.32 122.558 140.77 122.018 141.685C121.583 140.77 120.818 140.32 119.738 140.32C118.748 140.32 117.983 140.74 117.443 141.595V140.5H116.453V148H117.443V143.845C117.443 142.105 118.403 141.28 119.603 141.28C120.683 141.28 121.358 142 121.358 143.32V148H122.348V143.845C122.348 142.09 123.188 141.28 124.433 141.28C125.528 141.28 126.263 142.015 126.263 143.32V148H127.253V143.32C127.253 141.475 126.128 140.32 124.448 140.32ZM134.178 138.82C132.633 138.82 131.328 139.345 130.278 140.41C129.243 141.46 128.718 142.735 128.718 144.25C128.718 145.825 129.258 147.115 130.353 148.135C131.448 149.17 132.813 149.68 134.448 149.68C135.438 149.68 136.308 149.545 137.058 149.275V148.825C136.323 149.11 135.453 149.26 134.448 149.26C132.933 149.26 131.673 148.795 130.668 147.85C129.663 146.905 129.168 145.705 129.168 144.25C129.168 142.825 129.648 141.64 130.623 140.68C131.598 139.72 132.783 139.24 134.178 139.24C135.528 139.24 136.668 139.69 137.583 140.59C138.513 141.49 138.978 142.615 138.978 143.95C138.978 145.795 138.303 146.635 137.418 146.635C136.773 146.635 136.443 146.155 136.443 145.195V141.955H135.513V142.57C135.093 142.09 134.568 141.85 133.923 141.85C133.233 141.85 132.648 142.075 132.183 142.54C131.718 143.005 131.493 143.575 131.493 144.25C131.493 144.925 131.718 145.495 132.183 145.96C132.648 146.425 133.233 146.65 133.923 146.65C134.598 146.65 135.153 146.38 135.588 145.84C135.783 146.695 136.428 147.13 137.268 147.13C137.853 147.13 138.348 146.86 138.783 146.335C139.218 145.81 139.428 145.015 139.428 143.95C139.428 142.255 138.633 140.62 136.998 139.6C136.173 139.075 135.243 138.82 134.178 138.82ZM132.873 145.345C132.573 145.06 132.423 144.7 132.423 144.25C132.423 143.8 132.573 143.44 132.873 143.17C133.188 142.885 133.548 142.75 133.983 142.75C134.418 142.75 134.778 142.885 135.063 143.17C135.363 143.44 135.513 143.8 135.513 144.25C135.513 144.7 135.363 145.06 135.063 145.345C134.778 145.615 134.418 145.75 133.983 145.75C133.548 145.75 133.188 145.615 132.873 145.345ZM147.527 141.97C146.837 140.875 145.832 140.32 144.497 140.32C143.432 140.32 142.517 140.695 141.752 141.46C141.002 142.225 140.627 143.155 140.627 144.25C140.627 145.345 141.002 146.275 141.752 147.04C142.517 147.805 143.432 148.18 144.497 148.18C145.832 148.18 146.837 147.625 147.527 146.53V148H148.517V140.5H147.527V141.97ZM142.472 146.365C141.902 145.78 141.617 145.075 141.617 144.25C141.617 143.425 141.902 142.72 142.472 142.15C143.042 141.565 143.747 141.28 144.572 141.28C145.397 141.28 146.102 141.565 146.672 142.15C147.242 142.72 147.527 143.425 147.527 144.25C147.527 145.075 147.242 145.78 146.672 146.365C146.102 146.935 145.397 147.22 144.572 147.22C143.747 147.22 143.042 146.935 142.472 146.365ZM151.603 148V137.05H150.613V148H151.603ZM154.964 147.91C155.279 147.595 155.279 147.055 154.964 146.74C154.649 146.425 154.109 146.425 153.794 146.74C153.479 147.055 153.479 147.595 153.794 147.91C154.109 148.225 154.649 148.225 154.964 147.91ZM158.882 146.965L156.257 140.5H155.207L158.282 148H159.482L162.557 140.5H161.507L158.882 146.965ZM166.925 140.32C165.77 140.32 164.84 140.695 164.105 141.445C163.37 142.195 163.01 143.125 163.01 144.25C163.01 145.39 163.385 146.335 164.12 147.07C164.855 147.805 165.815 148.18 167 148.18C168.455 148.18 169.64 147.52 170.3 146.455L169.43 145.945C169.01 146.71 168.155 147.22 167.015 147.22C165.41 147.22 164.225 146.26 164.03 144.745H170.615C170.63 144.55 170.645 144.385 170.645 144.28C170.645 143.215 170.3 142.285 169.61 141.505C168.935 140.71 168.035 140.32 166.925 140.32ZM166.925 141.28C167.6 141.28 168.2 141.505 168.71 141.94C169.22 142.375 169.52 142.99 169.625 143.785H164.03C164.225 142.3 165.365 141.28 166.925 141.28ZM175.73 140.32C174.605 140.32 173.765 140.77 173.21 141.67V140.5H172.22V148H173.21V144.07C173.21 142.165 174.2 141.28 175.64 141.28C176.945 141.28 177.68 142.06 177.68 143.395V148H178.67V143.395C178.67 141.52 177.545 140.32 175.73 140.32ZM184.559 140.5H182.399V138.4L181.409 138.7V140.5H179.834V141.46H181.409V146.005C181.409 147.745 182.459 148.315 184.559 148V147.13C183.119 147.19 182.399 147.295 182.399 146.005V141.46H184.559V140.5ZM191.489 144.43C191.489 146.335 190.499 147.22 189.059 147.22C187.754 147.22 187.019 146.44 187.019 145.105V140.5H186.029V145.105C186.029 146.98 187.154 148.18 188.969 148.18C190.094 148.18 190.934 147.73 191.489 146.83V148H192.479V140.5H191.489V144.43ZM195.563 140.5H194.573V148H195.563V143.83C195.563 142.105 196.568 141.34 197.933 141.34V140.38C196.808 140.38 196.028 140.83 195.563 141.745V140.5ZM202.301 140.32C201.146 140.32 200.216 140.695 199.481 141.445C198.746 142.195 198.386 143.125 198.386 144.25C198.386 145.39 198.761 146.335 199.496 147.07C200.231 147.805 201.191 148.18 202.376 148.18C203.831 148.18 205.016 147.52 205.676 146.455L204.806 145.945C204.386 146.71 203.531 147.22 202.391 147.22C200.786 147.22 199.601 146.26 199.406 144.745H205.991C206.006 144.55 206.021 144.385 206.021 144.28C206.021 143.215 205.676 142.285 204.986 141.505C204.311 140.71 203.411 140.32 202.301 140.32ZM202.301 141.28C202.976 141.28 203.576 141.505 204.086 141.94C204.596 142.375 204.896 142.99 205.001 143.785H199.406C199.601 142.3 200.741 141.28 202.301 141.28ZM208.083 142.465C208.083 141.7 208.803 141.28 209.658 141.28C210.573 141.28 211.173 141.625 211.458 142.33L212.283 141.85C211.848 140.905 210.873 140.32 209.658 140.32C208.923 140.32 208.308 140.53 207.813 140.935C207.333 141.34 207.093 141.85 207.093 142.465C207.093 144.085 208.668 144.43 209.928 144.745C210.783 144.97 211.473 145.345 211.473 146.02C211.473 146.845 210.723 147.22 209.748 147.22C208.743 147.22 207.978 146.74 207.693 145.96L206.853 146.455C207.258 147.475 208.308 148.18 209.748 148.18C210.543 148.18 211.203 147.985 211.698 147.58C212.208 147.175 212.463 146.665 212.463 146.02C212.463 144.4 210.888 144.055 209.628 143.74C208.773 143.515 208.083 143.14 208.083 142.465Z" fill="#081A3E"/>
</svg>
