<svg width="285" height="189" viewBox="0 0 285 189" fill="none" xmlns="http://www.w3.org/2000/svg">
<rect width="285" height="189" rx="4" fill="white"/>
<path d="M30.4493 38.234C31.7453 38.234 32.7893 37.91 33.5993 37.262C34.4093 36.596 34.8053 35.714 34.8053 34.616C34.8053 33.824 34.6253 33.176 34.1753 32.726C33.8693 32.366 33.7073 32.168 33.2033 31.898C32.7173 31.628 32.5733 31.538 31.9433 31.304C31.6373 31.178 31.4213 31.106 31.2773 31.052L30.5393 30.818C29.5673 30.512 28.8833 30.206 28.4873 29.918C28.0913 29.63 27.8933 29.216 27.8933 28.658C27.8933 27.506 28.8113 26.786 30.1793 26.786C31.5473 26.786 32.5013 27.434 33.0413 28.73L34.4453 27.92C33.7073 26.264 32.1773 25.166 30.1793 25.166C29.0813 25.166 28.1453 25.49 27.3713 26.138C26.5973 26.768 26.2192 27.632 26.2192 28.73C26.2192 29.648 26.5973 30.386 27.0113 30.836C27.2093 31.052 27.5153 31.268 27.9293 31.484C28.3433 31.682 28.7033 31.844 28.9733 31.952L30.1793 32.348C31.2413 32.69 32.0153 32.996 32.4653 33.302C32.9153 33.608 33.1493 34.058 33.1493 34.652C33.1493 35.822 32.2133 36.596 30.4853 36.596C28.7393 36.596 27.6053 35.84 27.1193 34.31L25.6793 35.138C26.3453 37.064 28.0913 38.234 30.4493 38.234ZM41.2578 29H38.8638V26.48L37.2978 26.948V29H35.5158V30.512H37.2978V35.39C37.2978 37.622 38.5218 38.36 41.2578 38V36.596C39.6558 36.668 38.8638 36.776 38.8638 35.39V30.512H41.2578V29ZM50.1068 30.548C49.3328 29.36 48.1988 28.766 46.7048 28.766C45.4448 28.766 44.3648 29.234 43.4828 30.152C42.6008 31.07 42.1508 32.186 42.1508 33.5C42.1508 34.814 42.6008 35.948 43.4828 36.866C44.3648 37.784 45.4448 38.234 46.7048 38.234C48.1988 38.234 49.3328 37.64 50.1068 36.452V38H51.6728V29H50.1068V30.548ZM46.9028 36.722C46.0028 36.722 45.2468 36.416 44.6348 35.804C44.0228 35.174 43.7168 34.418 43.7168 33.5C43.7168 32.582 44.0228 31.826 44.6348 31.214C45.2468 30.584 46.0028 30.278 46.9028 30.278C47.8208 30.278 48.5768 30.584 49.1888 31.214C49.8008 31.826 50.1068 32.582 50.1068 33.5C50.1068 34.418 49.8008 35.174 49.1888 35.804C48.5768 36.416 47.8208 36.722 46.9028 36.722ZM58.9414 29H56.5474V26.48L54.9814 26.948V29H53.1994V30.512H54.9814V35.39C54.9814 37.622 56.2054 38.36 58.9414 38V36.596C57.3394 36.668 56.5474 36.776 56.5474 35.39V30.512H58.9414V29ZM61.5874 27.362C62.1634 27.362 62.6314 26.894 62.6314 26.318C62.6314 25.742 62.1634 25.256 61.5874 25.256C60.9934 25.256 60.5254 25.742 60.5254 26.318C60.5254 26.894 60.9934 27.362 61.5874 27.362ZM62.3614 38V29H60.7954V38H62.3614ZM66.0829 31.43C66.0829 30.656 66.8029 30.224 67.6849 30.224C68.6389 30.224 69.2869 30.602 69.6109 31.376L70.9249 30.638C70.3489 29.468 69.1429 28.766 67.6849 28.766C66.7669 28.766 66.0109 29.018 65.3989 29.522C64.8049 30.026 64.4989 30.674 64.4989 31.448C64.4989 33.356 66.3349 33.824 67.7569 34.202C68.7469 34.436 69.5389 34.832 69.5389 35.534C69.5389 36.38 68.7829 36.758 67.7569 36.758C66.6589 36.758 65.8129 36.218 65.5249 35.354L64.1749 36.128C64.6969 37.406 66.0109 38.234 67.7569 38.234C68.7469 38.234 69.5389 37.982 70.1689 37.496C70.7989 37.01 71.1229 36.344 71.1229 35.534C71.1409 33.608 69.2689 33.086 67.8649 32.78C66.8749 32.51 66.0829 32.132 66.0829 31.43ZM77.5215 29H75.1275V26.48L73.5615 26.948V29H71.7795V30.512H73.5615V35.39C73.5615 37.622 74.7855 38.36 77.5215 38V36.596C75.9195 36.668 75.1275 36.776 75.1275 35.39V30.512H77.5215V29ZM80.1675 27.362C80.7435 27.362 81.2115 26.894 81.2115 26.318C81.2115 25.742 80.7435 25.256 80.1675 25.256C79.5735 25.256 79.1055 25.742 79.1055 26.318C79.1055 26.894 79.5735 27.362 80.1675 27.362ZM80.9415 38V29H79.3755V38H80.9415ZM86.4986 33.356L90.8006 29H88.7846L84.8966 32.978V25.4H83.3306V38H84.8966V33.734L89.0006 38H90.9446L86.4986 33.356ZM99.0267 30.548C98.2527 29.36 97.1187 28.766 95.6247 28.766C94.3647 28.766 93.2847 29.234 92.4027 30.152C91.5207 31.07 91.0707 32.186 91.0707 33.5C91.0707 34.814 91.5207 35.948 92.4027 36.866C93.2847 37.784 94.3647 38.234 95.6247 38.234C97.1187 38.234 98.2527 37.64 99.0267 36.452V38H100.593V29H99.0267V30.548ZM95.8227 36.722C94.9227 36.722 94.1667 36.416 93.5547 35.804C92.9427 35.174 92.6367 34.418 92.6367 33.5C92.6367 32.582 92.9427 31.826 93.5547 31.214C94.1667 30.584 94.9227 30.278 95.8227 30.278C96.7407 30.278 97.4967 30.584 98.1087 31.214C98.7207 31.826 99.0267 32.582 99.0267 33.5C99.0267 34.418 98.7207 35.174 98.1087 35.804C97.4967 36.416 96.7407 36.722 95.8227 36.722Z" fill="#081A3E"/>
<path d="M259.844 159.028L255.394 154.578C255.291 154.476 255.152 154.418 255.007 154.418C254.862 154.418 254.723 154.476 254.62 154.578L254.292 154.906C254.189 155.009 254.132 155.148 254.132 155.293C254.132 155.438 254.189 155.577 254.292 155.68L258.03 159.418L254.289 163.159C254.186 163.262 254.129 163.401 254.129 163.546C254.129 163.691 254.186 163.83 254.289 163.933L254.617 164.261C254.72 164.363 254.859 164.421 255.004 164.421C255.149 164.421 255.288 164.363 255.391 164.261L259.845 159.807C259.947 159.704 260.004 159.564 260.004 159.419C260.004 159.274 259.947 159.134 259.845 159.031L259.844 159.028Z" fill="#246EB2"/>
<path d="M205.532 159.1C205.532 160.514 206.022 161.704 207.002 162.698C207.982 163.692 209.186 164.182 210.6 164.182C212.014 164.182 213.218 163.692 214.198 162.698C215.192 161.704 215.682 160.514 215.682 159.1C215.682 157.686 215.192 156.482 214.198 155.502C213.218 154.508 212.014 154.018 210.6 154.018C209.186 154.018 207.982 154.508 207.002 155.502L207.898 156.384C208.626 155.642 209.522 155.278 210.6 155.278C211.678 155.278 212.574 155.642 213.288 156.384C213.876 156.972 214.226 157.672 214.338 158.484H205.56C205.532 158.68 205.532 158.89 205.532 159.1ZM213.288 161.816C212.574 162.544 211.678 162.908 210.6 162.908C209.522 162.908 208.626 162.544 207.898 161.816C207.324 161.214 206.974 160.514 206.862 159.702H214.338C214.226 160.514 213.876 161.214 213.288 161.816ZM220.929 157H219.067V155.04L217.849 155.404V157H216.463V158.176H217.849V161.97C217.849 163.706 218.801 164.28 220.929 164V162.908C219.683 162.964 219.067 163.048 219.067 161.97V158.176H220.929V157ZM223.63 157H222.412V164H223.63V160.29C223.63 159.52 223.84 158.974 224.274 158.624C224.708 158.274 225.212 158.12 225.814 158.148V156.874C224.764 156.874 224.036 157.308 223.63 158.176V157ZM232.419 158.204C231.817 157.28 230.935 156.818 229.773 156.818C228.793 156.818 227.953 157.182 227.267 157.896C226.581 158.61 226.231 159.478 226.231 160.5C226.231 161.522 226.581 162.404 227.267 163.118C227.953 163.832 228.793 164.182 229.773 164.182C230.935 164.182 231.817 163.72 232.419 162.796V164H233.637V157H232.419V158.204ZM229.927 163.006C229.227 163.006 228.639 162.768 228.163 162.292C227.687 161.802 227.449 161.214 227.449 160.5C227.449 159.786 227.687 159.198 228.163 158.722C228.639 158.232 229.227 157.994 229.927 157.994C230.641 157.994 231.229 158.232 231.705 158.722C232.181 159.198 232.419 159.786 232.419 160.5C232.419 161.214 232.181 161.802 231.705 162.292C231.229 162.768 230.641 163.006 229.927 163.006ZM239.081 154.018C237.037 154.018 236.015 154.942 236.015 156.79V157H234.895V158.176H236.015V164H237.233V158.176H238.689V157H237.233V156.79C237.233 155.6 237.835 155.11 239.081 155.11C239.235 155.11 239.487 155.124 239.823 155.138V164H241.041V154.228C240.299 154.088 239.641 154.018 239.081 154.018ZM244.124 164V157H242.906V164H244.124Z" fill="#246EB2"/>
<path d="M42.084 80.466V79.4H36.624V80.531H40.667L38.561 83.378L39.042 84.119H39.354C40.485 84.119 41.265 84.756 41.265 85.809C41.265 86.862 40.485 87.486 39.354 87.486C38.301 87.486 37.651 87.07 37.378 86.225L36.364 86.823C36.819 88.019 37.963 88.669 39.354 88.669C40.225 88.669 40.953 88.409 41.564 87.902C42.175 87.395 42.474 86.693 42.474 85.809C42.474 84.366 41.499 83.391 40.108 83.131L42.084 80.466ZM49.3729 85.64V83.066H48.1639V85.64H44.8229L48.0859 79.4H46.7859L43.5229 85.64V86.771H48.1639V88.5H49.3729V86.771H50.4779V85.64H49.3729ZM52.936 82.949L53.092 80.531H56.979V79.4H52L51.662 84.119H54.236C55.341 84.119 56.134 84.756 56.134 85.809C56.134 86.862 55.354 87.486 54.21 87.486C53.209 87.486 52.481 87.018 52.234 86.134L51.207 86.719C51.636 87.98 52.819 88.669 54.21 88.669C55.081 88.669 55.809 88.409 56.42 87.902C57.031 87.395 57.33 86.693 57.33 85.809C57.33 84.912 57.031 84.223 56.433 83.716C55.848 83.209 55.12 82.949 54.262 82.949H52.936ZM57.7906 80.544H62.1846L58.8956 88.5H60.1566L63.4716 80.479V79.4H57.7906V80.544Z" fill="#081A3E"/>
<path d="M50 109C63.8071 109 75 97.8071 75 84C75 70.1929 63.8071 59 50 59C36.1929 59 25 70.1929 25 84C25 97.8071 36.1929 109 50 109Z" stroke="#081A3E" stroke-width="2" stroke-miterlimit="10"/>
<path d="M32.1254 124.47H35.9604V123.339H32.1254V120.544H36.2854V119.4H30.9164V128.5H36.3504V127.356H32.1254V124.47ZM38.824 128.5V119.01H37.693V128.5H38.824ZM45.9314 123.118C45.3724 122.26 44.5534 121.831 43.4744 121.831C42.5644 121.831 41.7844 122.169 41.1474 122.832C40.5104 123.495 40.1854 124.301 40.1854 125.25C40.1854 126.199 40.5104 127.018 41.1474 127.681C41.7844 128.344 42.5644 128.669 43.4744 128.669C44.5534 128.669 45.3724 128.24 45.9314 127.382V128.5H47.0624V122H45.9314V123.118ZM43.6174 127.577C42.9674 127.577 42.4214 127.356 41.9794 126.914C41.5374 126.459 41.3164 125.913 41.3164 125.25C41.3164 124.587 41.5374 124.041 41.9794 123.599C42.4214 123.144 42.9674 122.923 43.6174 122.923C44.2804 122.923 44.8264 123.144 45.2684 123.599C45.7104 124.041 45.9314 124.587 45.9314 125.25C45.9314 125.913 45.7104 126.459 45.2684 126.914C44.8264 127.356 44.2804 127.577 43.6174 127.577ZM52.013 121.831C51.064 121.831 50.362 122.195 49.907 122.936V122H48.776V128.5H49.907V125.055C49.907 123.599 50.661 122.91 51.792 122.91C52.793 122.91 53.404 123.521 53.404 124.574V128.5H54.535V124.509C54.535 122.858 53.534 121.831 52.013 121.831ZM57.2449 128.5V119.01H56.1139V128.5H57.2449ZM64.3523 123.118C63.7933 122.26 62.9743 121.831 61.8953 121.831C60.9853 121.831 60.2053 122.169 59.5683 122.832C58.9313 123.495 58.6063 124.301 58.6063 125.25C58.6063 126.199 58.9313 127.018 59.5683 127.681C60.2053 128.344 60.9853 128.669 61.8953 128.669C62.9743 128.669 63.7933 128.24 64.3523 127.382V128.5H65.4833V122H64.3523V123.118ZM62.0383 127.577C61.3883 127.577 60.8423 127.356 60.4003 126.914C59.9583 126.459 59.7373 125.913 59.7373 125.25C59.7373 124.587 59.9583 124.041 60.4003 123.599C60.8423 123.144 61.3883 122.923 62.0383 122.923C62.7013 122.923 63.2473 123.144 63.6893 123.599C64.1313 124.041 64.3523 124.587 64.3523 125.25C64.3523 125.913 64.1313 126.459 63.6893 126.914C63.2473 127.356 62.7013 127.577 62.0383 127.577ZM68.3279 122H67.1969V128.5H68.3279V125.055C68.3279 124.34 68.5229 123.833 68.9259 123.508C69.3289 123.183 69.7969 123.04 70.3559 123.066V121.883C69.3809 121.883 68.7049 122.286 68.3279 123.092V122Z" fill="#081A3E"/>
<path d="M220.182 80.232L220.481 81.272L222.418 80.7V88.5H223.614V79.4H222.574L220.182 80.232ZM224.868 80.544H229.262L225.973 88.5H227.234L230.549 80.479V79.4H224.868V80.544ZM233.463 82.546C233.372 82.546 233.229 82.559 233.034 82.572L235.179 79.4H233.801L230.876 83.781C230.512 84.288 230.33 84.899 230.33 85.601C230.33 86.498 230.616 87.239 231.201 87.811C231.786 88.383 232.54 88.669 233.463 88.669C234.373 88.669 235.127 88.383 235.712 87.811C236.297 87.239 236.596 86.498 236.596 85.601C236.596 84.704 236.297 83.963 235.712 83.404C235.127 82.832 234.373 82.546 233.463 82.546ZM233.463 83.703C234.607 83.703 235.4 84.457 235.4 85.601C235.4 86.745 234.607 87.512 233.463 87.512C232.319 87.512 231.526 86.745 231.526 85.601C231.526 84.457 232.306 83.703 233.463 83.703Z" fill="#F81734"/>
<path d="M228 109C241.807 109 253 97.8071 253 84C253 70.1929 241.807 59 228 59C214.193 59 203 70.1929 203 84C203 97.8071 214.193 109 228 109Z" stroke="#F81734" stroke-width="2" stroke-miterlimit="10"/>
<path d="M199.913 128.669C200.849 128.669 201.603 128.435 202.188 127.967C202.773 127.486 203.059 126.849 203.059 126.056C203.059 125.484 202.929 125.016 202.604 124.691C202.383 124.431 202.266 124.288 201.902 124.093C201.551 123.898 201.447 123.833 200.992 123.664C200.771 123.573 200.615 123.521 200.511 123.482L199.978 123.313C199.276 123.092 198.782 122.871 198.496 122.663C198.21 122.455 198.067 122.156 198.067 121.753C198.067 120.921 198.73 120.401 199.718 120.401C200.706 120.401 201.395 120.869 201.785 121.805L202.799 121.22C202.266 120.024 201.161 119.231 199.718 119.231C198.925 119.231 198.249 119.465 197.69 119.933C197.131 120.388 196.858 121.012 196.858 121.805C196.858 122.468 197.131 123.001 197.43 123.326C197.573 123.482 197.794 123.638 198.093 123.794C198.392 123.937 198.652 124.054 198.847 124.132L199.718 124.418C200.485 124.665 201.044 124.886 201.369 125.107C201.694 125.328 201.863 125.653 201.863 126.082C201.863 126.927 201.187 127.486 199.939 127.486C198.678 127.486 197.859 126.94 197.508 125.835L196.468 126.433C196.949 127.824 198.21 128.669 199.913 128.669ZM210.766 125.77C210.792 125.601 210.805 125.432 210.805 125.263C210.805 124.314 210.506 123.508 209.895 122.845C209.297 122.169 208.517 121.831 207.568 121.831C206.567 121.831 205.748 122.156 205.111 122.806C204.474 123.456 204.162 124.275 204.162 125.25C204.162 126.238 204.487 127.057 205.124 127.707C205.774 128.344 206.619 128.669 207.646 128.669C208.92 128.669 209.869 128.175 210.506 127.2L209.544 126.654C209.154 127.291 208.53 127.603 207.672 127.603C206.437 127.603 205.54 126.927 205.319 125.77H210.766ZM207.568 122.897C208.608 122.897 209.466 123.547 209.661 124.782H205.319C205.514 123.638 206.359 122.897 207.568 122.897ZM217.11 126.42C216.746 127.109 216.018 127.551 215.147 127.551C214.497 127.551 213.951 127.33 213.509 126.888C213.08 126.446 212.859 125.9 212.859 125.25C212.859 124.587 213.08 124.041 213.509 123.599C213.951 123.157 214.497 122.936 215.147 122.936C216.018 122.936 216.746 123.391 217.071 124.08L218.02 123.534C217.513 122.494 216.434 121.831 215.147 121.831C214.172 121.831 213.353 122.156 212.703 122.819C212.053 123.469 211.728 124.275 211.728 125.25C211.728 126.134 212.001 126.888 212.547 127.525C213.106 128.162 213.808 128.526 214.666 128.643V129.579C215.381 129.618 215.745 129.774 215.745 130.047C215.745 130.398 215.16 130.541 214.003 130.45V131.308C215.823 131.412 216.733 131.022 216.733 130.125C216.733 129.605 216.291 129.228 215.628 129.085V128.63C216.681 128.487 217.591 127.863 218.072 126.979L217.11 126.42ZM219.761 120.817C220.177 120.817 220.515 120.479 220.515 120.063C220.515 119.647 220.177 119.296 219.761 119.296C219.332 119.296 218.994 119.647 218.994 120.063C218.994 120.479 219.332 120.817 219.761 120.817ZM220.32 128.5V122H219.189V128.5H220.32ZM223.177 128.5V119.01H222.045V128.5H223.177ZM231.922 121.831C231.012 121.831 230.336 122.195 229.881 122.936C229.478 122.195 228.841 121.831 227.97 121.831C227.125 121.831 226.475 122.182 226.033 122.871V122H224.902V128.5H226.033V124.886C226.033 123.573 226.748 122.91 227.697 122.91C228.542 122.91 229.075 123.495 229.075 124.496V128.5H230.206V124.886C230.206 123.547 230.83 122.91 231.805 122.91C232.676 122.91 233.235 123.495 233.235 124.496V128.5H234.366V124.457C234.366 122.845 233.378 121.831 231.922 121.831ZM236.506 120.817C236.922 120.817 237.26 120.479 237.26 120.063C237.26 119.647 236.922 119.296 236.506 119.296C236.077 119.296 235.739 119.647 235.739 120.063C235.739 120.479 236.077 120.817 236.506 120.817ZM237.065 128.5V122H235.934V128.5H237.065ZM243.393 126.719C243.406 125.328 242.054 124.951 241.04 124.73C240.325 124.535 239.753 124.262 239.753 123.755C239.753 123.196 240.273 122.884 240.91 122.884C241.599 122.884 242.067 123.157 242.301 123.716L243.25 123.183C242.834 122.338 241.963 121.831 240.91 121.831C240.247 121.831 239.701 122.013 239.259 122.377C238.83 122.741 238.609 123.209 238.609 123.768C238.609 125.146 239.935 125.484 240.962 125.757C241.677 125.926 242.249 126.212 242.249 126.719C242.249 127.33 241.703 127.603 240.962 127.603C240.169 127.603 239.558 127.213 239.35 126.589L238.375 127.148C238.726 127.993 239.428 128.5 240.481 128.643V129.579C241.196 129.618 241.56 129.774 241.56 130.047C241.56 130.398 240.975 130.541 239.818 130.45V131.308C241.638 131.412 242.548 131.022 242.548 130.125C242.548 129.605 242.106 129.228 241.443 129.085V128.643C242.626 128.487 243.393 127.759 243.393 126.719ZM245.8 128.5V119.01H244.669V128.5H245.8ZM247.2 124.73C247.174 124.899 247.161 125.068 247.161 125.237C247.161 126.186 247.46 126.992 248.071 127.655C248.669 128.331 249.449 128.669 250.398 128.669C251.399 128.669 252.218 128.344 252.855 127.694C253.492 127.044 253.804 126.225 253.804 125.25C253.804 124.262 253.479 123.443 252.842 122.793C252.192 122.156 251.347 121.831 250.32 121.831C249.306 121.831 248.513 122.143 247.902 122.754L248.669 123.521C249.059 123.105 249.592 122.897 250.294 122.897C251.529 122.897 252.426 123.573 252.647 124.73H247.2ZM250.398 127.603C249.358 127.603 248.5 126.953 248.305 125.718H252.647C252.452 126.862 251.607 127.603 250.398 127.603ZM256.235 122H255.104V128.5H256.235V125.055C256.235 124.34 256.43 123.833 256.833 123.508C257.236 123.183 257.704 123.04 258.263 123.066V121.883C257.288 121.883 256.612 122.286 256.235 123.092V122Z" fill="#081A3E"/>
<path d="M136.084 80.466V79.4H130.624V80.531H134.667L132.561 83.378L133.042 84.119H133.354C134.485 84.119 135.265 84.756 135.265 85.809C135.265 86.862 134.485 87.486 133.354 87.486C132.301 87.486 131.651 87.07 131.378 86.225L130.364 86.823C130.819 88.019 131.963 88.669 133.354 88.669C134.225 88.669 134.953 88.409 135.564 87.902C136.175 87.395 136.474 86.693 136.474 85.809C136.474 84.366 135.499 83.391 134.108 83.131L136.084 80.466ZM143.225 88.5V87.33H139.104L141.431 85.016C142.51 83.937 143.056 82.936 143.056 82.013C143.056 81.168 142.77 80.492 142.211 79.985C141.652 79.478 140.989 79.231 140.222 79.231C138.987 79.231 137.921 79.842 137.349 81.025L138.363 81.623C138.753 80.804 139.377 80.401 140.235 80.401C141.132 80.401 141.847 80.999 141.847 82.026C141.847 82.637 141.418 83.378 140.56 84.236L137.349 87.512V88.5H143.225ZM143.855 80.232L144.154 81.272L146.091 80.7V88.5H147.287V79.4H146.247L143.855 80.232Z" fill="#29A53E"/>
<path d="M139 109C152.807 109 164 97.8071 164 84C164 70.1929 152.807 59 139 59C125.193 59 114 70.1929 114 84C114 97.8071 125.193 109 139 109Z" stroke="#29A53E" stroke-width="2" stroke-miterlimit="10"/>
<path d="M104.02 118.847C104.28 118.574 104.28 118.132 104.02 117.872C103.76 117.612 103.318 117.612 103.045 117.872C102.785 118.132 102.785 118.574 103.045 118.847C103.318 119.107 103.76 119.107 104.02 118.847ZM106.49 118.847C106.75 118.574 106.75 118.132 106.49 117.872C106.23 117.612 105.788 117.612 105.515 117.872C105.255 118.132 105.255 118.574 105.515 118.847C105.788 119.107 106.23 119.107 106.49 118.847ZM101.355 125.945C101.355 126.92 101.667 127.713 102.304 128.298C102.941 128.883 103.773 129.169 104.774 129.169C105.775 129.169 106.594 128.883 107.231 128.298C107.868 127.713 108.18 126.92 108.18 125.945V119.9H106.984V125.893C106.984 127.18 106.191 127.986 104.774 127.986C103.357 127.986 102.564 127.18 102.564 125.893V119.9H101.355V125.945ZM116.931 122.331C116.021 122.331 115.345 122.695 114.89 123.436C114.487 122.695 113.85 122.331 112.979 122.331C112.134 122.331 111.484 122.682 111.042 123.371V122.5H109.911V129H111.042V125.386C111.042 124.073 111.757 123.41 112.706 123.41C113.551 123.41 114.084 123.995 114.084 124.996V129H115.215V125.386C115.215 124.047 115.839 123.41 116.814 123.41C117.685 123.41 118.244 123.995 118.244 124.996V129H119.375V124.957C119.375 123.345 118.387 122.331 116.931 122.331ZM125.428 125.945C125.428 127.401 124.674 128.09 123.543 128.09C122.542 128.09 121.931 127.479 121.931 126.426V122.5H120.8V126.491C120.8 128.142 121.801 129.169 123.322 129.169C124.271 129.169 124.973 128.805 125.428 128.064V129H126.559V122.5H125.428V125.945ZM135.301 122.331C134.391 122.331 133.715 122.695 133.26 123.436C132.857 122.695 132.22 122.331 131.349 122.331C130.504 122.331 129.854 122.682 129.412 123.371V122.5H128.281V129H129.412V125.386C129.412 124.073 130.127 123.41 131.076 123.41C131.921 123.41 132.454 123.995 132.454 124.996V129H133.585V125.386C133.585 124.047 134.209 123.41 135.184 123.41C136.055 123.41 136.614 123.995 136.614 124.996V129H137.745V124.957C137.745 123.345 136.757 122.331 135.301 122.331ZM139.886 121.317C140.302 121.317 140.64 120.979 140.64 120.563C140.64 120.147 140.302 119.796 139.886 119.796C139.457 119.796 139.119 120.147 139.119 120.563C139.119 120.979 139.457 121.317 139.886 121.317ZM140.445 129V122.5H139.314V129H140.445ZM149.008 122.331C147.929 122.331 147.11 122.76 146.551 123.618V119.9H145.42V129H146.551V127.882C147.11 128.74 147.929 129.169 149.008 129.169C149.918 129.169 150.698 128.844 151.335 128.181C151.972 127.518 152.297 126.699 152.297 125.75C152.297 124.801 151.972 123.995 151.335 123.332C150.698 122.669 149.918 122.331 149.008 122.331ZM148.865 128.077C148.202 128.077 147.656 127.856 147.214 127.414C146.772 126.959 146.551 126.413 146.551 125.75C146.551 125.087 146.772 124.541 147.214 124.099C147.656 123.644 148.202 123.423 148.865 123.423C149.515 123.423 150.061 123.644 150.503 124.099C150.945 124.541 151.166 125.087 151.166 125.75C151.166 126.413 150.945 126.959 150.503 127.414C150.061 127.856 149.515 128.077 148.865 128.077ZM159.029 123.618C158.47 122.76 157.651 122.331 156.572 122.331C155.662 122.331 154.882 122.669 154.245 123.332C153.608 123.995 153.283 124.801 153.283 125.75C153.283 126.699 153.608 127.518 154.245 128.181C154.882 128.844 155.662 129.169 156.572 129.169C157.651 129.169 158.47 128.74 159.029 127.882V129H160.16V122.5H159.029V123.618ZM156.715 128.077C156.065 128.077 155.519 127.856 155.077 127.414C154.635 126.959 154.414 126.413 154.414 125.75C154.414 125.087 154.635 124.541 155.077 124.099C155.519 123.644 156.065 123.423 156.715 123.423C157.378 123.423 157.924 123.644 158.366 124.099C158.808 124.541 159.029 125.087 159.029 125.75C159.029 126.413 158.808 126.959 158.366 127.414C157.924 127.856 157.378 128.077 156.715 128.077ZM165.032 125.646L167.372 122.5H166.046L164.369 124.762L162.692 122.5H161.353L163.706 125.659L161.21 129H162.536L164.369 126.543L166.189 129H167.515L165.032 125.646ZM169.695 129V122.5H168.564V129H169.695ZM176.022 127.219C176.035 125.828 174.683 125.451 173.669 125.23C172.954 125.035 172.382 124.762 172.382 124.255C172.382 123.696 172.902 123.384 173.539 123.384C174.228 123.384 174.696 123.657 174.93 124.216L175.879 123.683C175.463 122.838 174.592 122.331 173.539 122.331C172.876 122.331 172.33 122.513 171.888 122.877C171.459 123.241 171.238 123.709 171.238 124.268C171.238 125.646 172.564 125.984 173.591 126.257C174.306 126.426 174.878 126.712 174.878 127.219C174.878 127.83 174.332 128.103 173.591 128.103C172.798 128.103 172.187 127.713 171.979 127.089L171.004 127.648C171.355 128.493 172.057 129 173.11 129.143V130.079C173.825 130.118 174.189 130.274 174.189 130.547C174.189 130.898 173.604 131.041 172.447 130.95V131.808C174.267 131.912 175.177 131.522 175.177 130.625C175.177 130.105 174.735 129.728 174.072 129.585V129.143C175.255 128.987 176.022 128.259 176.022 127.219Z" fill="#081A3E"/>
<g clip-path="url(#clip0)">
<path d="M257.833 33.4344H246.567V22.1677C246.567 21.9284 246.373 21.7344 246.133 21.7344C239.432 21.7344 234 27.1666 234 33.8677C234 40.5688 239.432 46.001 246.133 46.001C252.834 46.001 258.267 40.5688 258.267 33.8677C258.267 33.6284 258.073 33.4344 257.833 33.4344ZM246.133 45.1344C239.911 45.1358 234.865 40.0928 234.864 33.8704C234.863 27.8145 239.649 22.8407 245.7 22.6093V33.8677C245.7 34.107 245.894 34.301 246.133 34.301H257.392C257.152 40.3471 252.184 45.1271 246.133 45.1344Z" fill="#246EB2" fill-opacity="0.3"/>
<path d="M247.866 20C247.627 20 247.433 20.194 247.433 20.4333V32.1333C247.433 32.3726 247.627 32.5667 247.866 32.5667H259.566C259.805 32.5667 259.999 32.3726 259.999 32.1333C259.992 25.4355 254.564 20.0076 247.866 20ZM248.299 31.7V20.8749C254.178 21.1088 258.89 25.8211 259.124 31.7H248.299Z" fill="#246EB2" fill-opacity="0.3"/>
</g>
<defs>
<clipPath id="clip0">
<rect width="26" height="26" fill="white" transform="translate(234 20)"/>
</clipPath>
</defs>
</svg>
