<svg width="285" height="189" viewBox="0 0 285 189" fill="none" xmlns="http://www.w3.org/2000/svg">
<rect width="285" height="189" rx="4" fill="#242426"/>
<path d="M26.3813 25.4V38H28.0553V33.5H30.9533C32.1233 33.5 33.0773 33.104 33.8513 32.33C34.6253 31.556 35.0213 30.584 35.0213 29.45C35.0213 28.298 34.6253 27.344 33.8513 26.57C33.0773 25.796 32.1233 25.4 30.9533 25.4H26.3813ZM28.0553 31.934V26.966H30.9533C32.3393 26.966 33.3653 28.01 33.3653 29.45C33.3653 30.152 33.1313 30.746 32.6813 31.232C32.2313 31.7 31.6553 31.934 30.9533 31.934H28.0553ZM38.2091 29H36.6431V38H38.2091V33.23C38.2091 32.24 38.4791 31.538 39.0371 31.088C39.5951 30.638 40.2431 30.44 41.0171 30.476V28.838C39.6671 28.838 38.7311 29.396 38.2091 30.512V29ZM49.6531 36.866C50.5711 35.948 51.0391 34.832 51.0391 33.5C51.0391 32.168 50.5711 31.052 49.6531 30.134C48.7351 29.216 47.6011 28.766 46.2871 28.766C44.9731 28.766 43.8391 29.216 42.9211 30.134C42.0031 31.052 41.5531 32.168 41.5531 33.5C41.5531 34.832 42.0031 35.948 42.9211 36.866C43.8391 37.784 44.9731 38.234 46.2871 38.234C47.6011 38.234 48.7351 37.784 49.6531 36.866ZM46.2871 36.704C45.4051 36.704 44.6491 36.398 44.0371 35.786C43.4251 35.174 43.1191 34.418 43.1191 33.5C43.1191 32.582 43.4251 31.826 44.0371 31.214C44.6491 30.602 45.4051 30.296 46.2871 30.296C47.1871 30.296 47.9431 30.602 48.5551 31.214C49.1671 31.826 49.4731 32.582 49.4731 33.5C49.4731 34.418 49.1671 35.174 48.5551 35.786C47.9431 36.398 47.1871 36.704 46.2871 36.704ZM54.8013 29V28.73C54.8013 27.218 55.5393 26.678 57.1773 26.678C57.6813 26.678 58.2933 26.732 59.0313 26.822V25.4C58.2933 25.238 57.6633 25.166 57.1773 25.166C54.5493 25.166 53.2353 26.354 53.2353 28.73V29H51.7953V30.512H53.2353V38H54.8013V30.512H58.1313V38H59.6973V29H54.8013ZM63.6622 38V24.86H62.0962V38H63.6622ZM66.8433 27.362C67.4193 27.362 67.8873 26.894 67.8873 26.318C67.8873 25.742 67.4193 25.256 66.8433 25.256C66.2493 25.256 65.7813 25.742 65.7813 26.318C65.7813 26.894 66.2493 27.362 66.8433 27.362ZM67.6173 38V29H66.0513V38H67.6173ZM79.7264 28.766C78.4664 28.766 77.5304 29.27 76.9004 30.296C76.3424 29.27 75.4604 28.766 74.2544 28.766C73.0844 28.766 72.1844 29.252 71.5724 30.206V29H70.0064V38H71.5724V32.996C71.5724 31.178 72.5624 30.26 73.8764 30.26C75.0464 30.26 75.7844 31.07 75.7844 32.456V38H77.3504V32.996C77.3504 31.142 78.2144 30.26 79.5644 30.26C80.7704 30.26 81.5444 31.07 81.5444 32.456V38H83.1104V32.402C83.1104 30.17 81.7424 28.766 79.7264 28.766Z" fill="white"/>
<path d="M259.778 159.032L255.328 154.582C255.225 154.479 255.086 154.422 254.941 154.422C254.795 154.422 254.656 154.479 254.554 154.582L254.226 154.91C254.123 155.013 254.065 155.152 254.065 155.297C254.065 155.442 254.123 155.581 254.226 155.684L257.964 159.422L254.223 163.163C254.12 163.266 254.062 163.405 254.062 163.55C254.062 163.695 254.12 163.834 254.223 163.937L254.551 164.265C254.653 164.367 254.792 164.425 254.938 164.425C255.083 164.425 255.222 164.367 255.325 164.265L259.779 159.811C259.881 159.708 259.938 159.568 259.938 159.423C259.938 159.278 259.881 159.138 259.779 159.035L259.778 159.032Z" fill="white"/>
<path d="M205.466 159.1C205.466 160.514 205.956 161.704 206.936 162.698C207.916 163.692 209.12 164.182 210.534 164.182C211.948 164.182 213.152 163.692 214.132 162.698C215.126 161.704 215.616 160.514 215.616 159.1C215.616 157.686 215.126 156.482 214.132 155.502C213.152 154.508 211.948 154.018 210.534 154.018C209.12 154.018 207.916 154.508 206.936 155.502L207.832 156.384C208.56 155.642 209.456 155.278 210.534 155.278C211.612 155.278 212.508 155.642 213.222 156.384C213.81 156.972 214.16 157.672 214.272 158.484H205.494C205.466 158.68 205.466 158.89 205.466 159.1ZM213.222 161.816C212.508 162.544 211.612 162.908 210.534 162.908C209.456 162.908 208.56 162.544 207.832 161.816C207.258 161.214 206.908 160.514 206.796 159.702H214.272C214.16 160.514 213.81 161.214 213.222 161.816ZM220.863 157H219.001V155.04L217.783 155.404V157H216.397V158.176H217.783V161.97C217.783 163.706 218.735 164.28 220.863 164V162.908C219.617 162.964 219.001 163.048 219.001 161.97V158.176H220.863V157ZM223.564 157H222.346V164H223.564V160.29C223.564 159.52 223.774 158.974 224.208 158.624C224.642 158.274 225.146 158.12 225.748 158.148V156.874C224.698 156.874 223.97 157.308 223.564 158.176V157ZM232.353 158.204C231.751 157.28 230.869 156.818 229.707 156.818C228.727 156.818 227.887 157.182 227.201 157.896C226.515 158.61 226.165 159.478 226.165 160.5C226.165 161.522 226.515 162.404 227.201 163.118C227.887 163.832 228.727 164.182 229.707 164.182C230.869 164.182 231.751 163.72 232.353 162.796V164H233.571V157H232.353V158.204ZM229.861 163.006C229.161 163.006 228.573 162.768 228.097 162.292C227.621 161.802 227.383 161.214 227.383 160.5C227.383 159.786 227.621 159.198 228.097 158.722C228.573 158.232 229.161 157.994 229.861 157.994C230.575 157.994 231.163 158.232 231.639 158.722C232.115 159.198 232.353 159.786 232.353 160.5C232.353 161.214 232.115 161.802 231.639 162.292C231.163 162.768 230.575 163.006 229.861 163.006ZM239.014 154.018C236.97 154.018 235.948 154.942 235.948 156.79V157H234.828V158.176H235.948V164H237.166V158.176H238.622V157H237.166V156.79C237.166 155.6 237.768 155.11 239.014 155.11C239.168 155.11 239.42 155.124 239.756 155.138V164H240.974V154.228C240.232 154.088 239.574 154.018 239.014 154.018ZM244.058 164V157H242.84V164H244.058Z" fill="white"/>
<path d="M35.16 70L30.984 58.8H29.304L25.128 70H26.712L27.624 67.488H32.664L33.576 70H35.16ZM30.136 60.576L32.152 66.096H28.136L30.136 60.576ZM39.1128 68.512L36.6008 62H35.0968L38.2968 70H39.9288L43.1288 62H41.6248L39.1128 68.512ZM48.658 62H46.53V59.76L45.138 60.176V62H43.554V63.344H45.138V67.68C45.138 69.664 46.226 70.32 48.658 70V68.752C47.234 68.816 46.53 68.912 46.53 67.68V63.344H48.658V62ZM56.6518 68.992C57.4678 68.176 57.8837 67.184 57.8837 66C57.8837 64.816 57.4678 63.824 56.6518 63.008C55.8358 62.192 54.8278 61.792 53.6598 61.792C52.4918 61.792 51.4838 62.192 50.6678 63.008C49.8518 63.824 49.4518 64.816 49.4518 66C49.4518 67.184 49.8518 68.176 50.6678 68.992C51.4838 69.808 52.4918 70.208 53.6598 70.208C54.8278 70.208 55.8358 69.808 56.6518 68.992ZM53.6598 68.848C52.8758 68.848 52.2038 68.576 51.6598 68.032C51.1158 67.488 50.8438 66.816 50.8438 66C50.8438 65.184 51.1158 64.512 51.6598 63.968C52.2038 63.424 52.8758 63.152 53.6598 63.152C54.4598 63.152 55.1318 63.424 55.6758 63.968C56.2198 64.512 56.4918 65.184 56.4918 66C56.4918 66.816 56.2198 67.488 55.6758 68.032C55.1318 68.576 54.4598 68.848 53.6598 68.848ZM60.5529 64.16C60.5529 63.472 61.1929 63.088 61.9769 63.088C62.8249 63.088 63.4009 63.424 63.6889 64.112L64.8569 63.456C64.3449 62.416 63.2729 61.792 61.9769 61.792C61.1609 61.792 60.4889 62.016 59.9449 62.464C59.4169 62.912 59.1449 63.488 59.1449 64.176C59.1449 65.872 60.7769 66.288 62.0409 66.624C62.9209 66.832 63.6249 67.184 63.6249 67.808C63.6249 68.56 62.9529 68.896 62.0409 68.896C61.0649 68.896 60.3129 68.416 60.0569 67.648L58.8569 68.336C59.3209 69.472 60.4889 70.208 62.0409 70.208C62.9209 70.208 63.6249 69.984 64.1849 69.552C64.7449 69.12 65.0329 68.528 65.0329 67.808C65.0489 66.096 63.3849 65.632 62.1369 65.36C61.2569 65.12 60.5529 64.784 60.5529 64.16ZM73.0863 63.376C72.3983 62.32 71.3903 61.792 70.0623 61.792C68.9423 61.792 67.9823 62.208 67.1983 63.024C66.4143 63.84 66.0143 64.832 66.0143 66C66.0143 67.168 66.4143 68.176 67.1983 68.992C67.9823 69.808 68.9423 70.208 70.0623 70.208C71.3903 70.208 72.3983 69.68 73.0863 68.624V70H74.4783V62H73.0863V63.376ZM70.2383 68.864C69.4383 68.864 68.7663 68.592 68.2223 68.048C67.6783 67.488 67.4062 66.816 67.4062 66C67.4062 65.184 67.6783 64.512 68.2223 63.968C68.7663 63.408 69.4383 63.136 70.2383 63.136C71.0543 63.136 71.7263 63.408 72.2703 63.968C72.8143 64.512 73.0863 65.184 73.0863 66C73.0863 66.816 72.8143 67.488 72.2703 68.048C71.7263 68.592 71.0543 68.864 70.2383 68.864ZM77.9793 70V58.32H76.5872V70H77.9793ZM86.8549 68.992C87.6709 68.176 88.0869 67.184 88.0869 66C88.0869 64.816 87.6709 63.824 86.8549 63.008C86.0389 62.192 85.0309 61.792 83.8629 61.792C82.6949 61.792 81.6869 62.192 80.8709 63.008C80.0549 63.824 79.6549 64.816 79.6549 66C79.6549 67.184 80.0549 68.176 80.8709 68.992C81.6869 69.808 82.6949 70.208 83.8629 70.208C85.0309 70.208 86.0389 69.808 86.8549 68.992ZM83.8629 68.848C83.0789 68.848 82.4069 68.576 81.8629 68.032C81.3189 67.488 81.0469 66.816 81.0469 66C81.0469 65.184 81.3189 64.512 81.8629 63.968C82.4069 63.424 83.0789 63.152 83.8629 63.152C84.6629 63.152 85.3349 63.424 85.8789 63.968C86.4229 64.512 86.6949 65.184 86.6949 66C86.6949 66.816 86.4229 67.488 85.8789 68.032C85.3349 68.576 84.6629 68.848 83.8629 68.848ZM93.7119 61.792C92.5439 61.792 91.6799 62.24 91.1199 63.152V62H89.7279V70H91.1199V65.76C91.1199 63.968 92.0479 63.12 93.4399 63.12C94.6719 63.12 95.4239 63.872 95.4239 65.168V70H96.8159V65.088C96.8159 63.056 95.5839 61.792 93.7119 61.792ZM104.215 62.688L104.855 58.8H103.655L102.615 62.688H104.215ZM106.695 62.688L107.335 58.8H106.135L105.095 62.688H106.695ZM117.113 70L112.937 58.8H111.257L107.081 70H108.665L109.577 67.488H114.617L115.529 70H117.113ZM112.089 60.576L114.105 66.096H110.089L112.089 60.576ZM123.732 66.24C123.732 68.032 122.804 68.88 121.412 68.88C120.18 68.88 119.428 68.128 119.428 66.832V62H118.036V66.912C118.036 68.944 119.268 70.208 121.14 70.208C122.308 70.208 123.172 69.76 123.732 68.848V70H125.124V62H123.732V66.24ZM131.596 62H129.468V59.76L128.076 60.176V62H126.492V63.344H128.076V67.68C128.076 69.664 129.164 70.32 131.596 70V68.752C130.172 68.816 129.468 68.912 129.468 67.68V63.344H131.596V62ZM139.589 68.992C140.405 68.176 140.821 67.184 140.821 66C140.821 64.816 140.405 63.824 139.589 63.008C138.773 62.192 137.765 61.792 136.597 61.792C135.429 61.792 134.421 62.192 133.605 63.008C132.789 63.824 132.389 64.816 132.389 66C132.389 67.184 132.789 68.176 133.605 68.992C134.421 69.808 135.429 70.208 136.597 70.208C137.765 70.208 138.773 69.808 139.589 68.992ZM136.597 68.848C135.813 68.848 135.141 68.576 134.597 68.032C134.053 67.488 133.781 66.816 133.781 66C133.781 65.184 134.053 64.512 134.597 63.968C135.141 63.424 135.813 63.152 136.597 63.152C137.397 63.152 138.069 63.424 138.613 63.968C139.157 64.512 139.429 65.184 139.429 66C139.429 66.816 139.157 67.488 138.613 68.032C138.069 68.576 137.397 68.848 136.597 68.848ZM151.87 70.208C152.894 70.208 153.838 69.968 154.702 69.472C155.566 68.976 156.238 68.304 156.702 67.472L155.406 66.736C154.766 67.952 153.406 68.752 151.87 68.752C150.574 68.752 149.518 68.336 148.702 67.504C147.886 66.672 147.486 65.632 147.486 64.4C147.486 63.152 147.886 62.112 148.702 61.28C149.518 60.448 150.574 60.032 151.87 60.032C153.406 60.032 154.766 60.832 155.406 62.064L156.702 61.312C155.742 59.648 153.918 58.592 151.87 58.592C150.174 58.592 148.766 59.152 147.662 60.272C146.558 61.392 146.014 62.768 146.014 64.4C146.014 66.032 146.558 67.408 147.662 68.528C148.766 69.648 150.174 70.208 151.87 70.208ZM158.994 60.544C159.506 60.544 159.922 60.128 159.922 59.616C159.922 59.104 159.506 58.672 158.994 58.672C158.466 58.672 158.05 59.104 158.05 59.616C158.05 60.128 158.466 60.544 158.994 60.544ZM159.682 70V62H158.29V70H159.682ZM166.158 62H164.03V59.76L162.638 60.176V62H161.054V63.344H162.638V67.68C162.638 69.664 163.726 70.32 166.158 70V68.752C164.734 68.816 164.03 68.912 164.03 67.68V63.344H166.158V62ZM171.258 68.272L168.538 62H167.05L170.538 69.968L170.394 70.272C169.93 71.44 169.21 71.984 168.234 71.904V73.2C169.834 73.312 171.098 72.304 171.786 70.496L175.05 62H173.562L171.258 68.272ZM26.2 79.8V91H30.568C32.088 91 33.352 90.456 34.36 89.384C35.368 88.296 35.88 86.968 35.88 85.4C35.88 83.832 35.368 82.504 34.36 81.432C33.352 80.344 32.088 79.8 30.568 79.8H26.2ZM27.688 89.592V81.208H30.568C31.704 81.208 32.648 81.608 33.368 82.408C34.088 83.208 34.456 84.2 34.456 85.4C34.456 86.6 34.088 87.592 33.368 88.392C32.648 89.192 31.704 89.592 30.568 89.592H27.688ZM45.2204 87.64C45.2524 87.432 45.2684 87.224 45.2684 87.016C45.2684 85.848 44.9004 84.856 44.1484 84.04C43.4124 83.208 42.4524 82.792 41.2844 82.792C40.0524 82.792 39.0444 83.192 38.2604 83.992C37.4764 84.792 37.0924 85.8 37.0924 87C37.0924 88.216 37.4924 89.224 38.2764 90.024C39.0764 90.808 40.1164 91.208 41.3804 91.208C42.9484 91.208 44.1164 90.6 44.9004 89.4L43.7164 88.728C43.2364 89.512 42.4684 89.896 41.4124 89.896C39.8924 89.896 38.7884 89.064 38.5164 87.64H45.2204ZM41.2844 84.104C42.5644 84.104 43.6204 84.904 43.8604 86.424H38.5164C38.7564 85.016 39.7964 84.104 41.2844 84.104ZM52.3885 87.24C52.3885 89.032 51.4605 89.88 50.0685 89.88C48.8365 89.88 48.0845 89.128 48.0845 87.832V83H46.6925V87.912C46.6925 89.944 47.9245 91.208 49.7965 91.208C50.9645 91.208 51.8285 90.76 52.3885 89.848V91H53.7805V83H52.3885V87.24ZM60.2518 83H58.1238V80.76L56.7318 81.176V83H55.1478V84.344H56.7318V88.68C56.7318 90.664 57.8198 91.32 60.2518 91V89.752C58.8278 89.816 58.1238 89.912 58.1238 88.68V84.344H60.2518V83ZM62.7091 85.16C62.7091 84.472 63.3491 84.088 64.1331 84.088C64.9811 84.088 65.5571 84.424 65.8451 85.112L67.0131 84.456C66.5011 83.416 65.4291 82.792 64.1331 82.792C63.3171 82.792 62.6451 83.016 62.1011 83.464C61.5731 83.912 61.3011 84.488 61.3011 85.176C61.3011 86.872 62.9331 87.288 64.1971 87.624C65.0771 87.832 65.7811 88.184 65.7811 88.808C65.7811 89.56 65.1091 89.896 64.1971 89.896C63.2211 89.896 62.4691 89.416 62.2131 88.648L61.0131 89.336C61.4771 90.472 62.6451 91.208 64.1971 91.208C65.0771 91.208 65.7811 90.984 66.3411 90.552C66.9011 90.12 67.1891 89.528 67.1891 88.808C67.2051 87.096 65.5411 86.632 64.2931 86.36C63.4131 86.12 62.7091 85.784 62.7091 85.16ZM72.3785 91.208C73.9305 91.208 75.2905 90.392 75.9785 89.128L74.7945 88.44C74.3465 89.288 73.4505 89.832 72.3785 89.832C71.5785 89.832 70.9065 89.56 70.3625 89.016C69.8345 88.472 69.5625 87.8 69.5625 87C69.5625 86.184 69.8345 85.512 70.3625 84.968C70.9065 84.424 71.5785 84.152 72.3785 84.152C73.4505 84.152 74.3465 84.712 74.7465 85.56L75.9145 84.888C75.2905 83.608 73.9625 82.792 72.3785 82.792C71.1785 82.792 70.1705 83.192 69.3705 84.008C68.5705 84.808 68.1705 85.8 68.1705 87C68.1705 88.2 68.5705 89.192 69.3705 90.008C70.1705 90.808 71.1785 91.208 72.3785 91.208ZM81.3369 82.792C80.1689 82.792 79.3049 83.24 78.7449 84.152V79.8H77.3529V91H78.7449V86.76C78.7449 84.968 79.6729 84.12 81.0649 84.12C82.2969 84.12 83.0489 84.872 83.0489 86.168V91H84.4409V86.088C84.4409 84.056 83.2089 82.792 81.3369 82.792ZM87.7761 91V79.32H86.3841V91H87.7761ZM96.5238 84.376C95.8358 83.32 94.8278 82.792 93.4998 82.792C92.3798 82.792 91.4198 83.208 90.6358 84.024C89.8518 84.84 89.4518 85.832 89.4518 87C89.4518 88.168 89.8518 89.176 90.6358 89.992C91.4198 90.808 92.3798 91.208 93.4998 91.208C94.8278 91.208 95.8358 90.68 96.5238 89.624V91H97.9158V83H96.5238V84.376ZM93.6758 89.864C92.8758 89.864 92.2038 89.592 91.6598 89.048C91.1158 88.488 90.8438 87.816 90.8438 87C90.8438 86.184 91.1158 85.512 91.6598 84.968C92.2038 84.408 92.8758 84.136 93.6758 84.136C94.4918 84.136 95.1638 84.408 95.7078 84.968C96.2518 85.512 96.5238 86.184 96.5238 87C96.5238 87.816 96.2518 88.488 95.7078 89.048C95.1638 89.592 94.4918 89.864 93.6758 89.864ZM104.009 82.792C102.841 82.792 101.977 83.24 101.417 84.152V83H100.025V91H101.417V86.76C101.417 84.968 102.345 84.12 103.737 84.12C104.969 84.12 105.721 84.872 105.721 86.168V91H107.113V86.088C107.113 84.056 105.881 82.792 104.009 82.792ZM115.68 84.376C114.992 83.32 113.984 82.792 112.656 82.792C111.536 82.792 110.576 83.208 109.792 84.024C109.008 84.84 108.608 85.832 108.608 87C108.608 88.168 109.008 89.176 109.792 89.992C110.576 90.808 111.536 91.208 112.656 91.208C113.984 91.208 114.992 90.68 115.68 89.624V91H117.072V79.8H115.68V84.376ZM112.832 89.864C112.032 89.864 111.36 89.592 110.816 89.048C110.272 88.488 110 87.816 110 87C110 86.184 110.272 85.512 110.816 84.968C111.36 84.408 112.032 84.136 112.832 84.136C113.648 84.136 114.32 84.408 114.864 84.968C115.408 85.512 115.68 86.184 115.68 87C115.68 87.816 115.408 88.488 114.864 89.048C114.32 89.592 113.648 89.864 112.832 89.864Z" fill="white"/>
<path d="M247.424 33.0354C244.131 33.0404 240.973 34.3509 238.644 36.6799C236.316 39.0088 235.005 42.1661 235 45.4597C235 45.603 235.057 45.7404 235.158 45.8418C235.26 45.9431 235.397 46 235.54 46C235.684 46 235.821 45.9431 235.922 45.8418C236.024 45.7404 236.081 45.603 236.081 45.4597C236.064 43.9588 236.345 42.4694 236.907 41.0778C237.47 39.6863 238.303 38.4201 239.359 37.3528C240.414 36.2854 241.671 35.4381 243.056 34.8598C244.441 34.2814 245.927 33.9837 247.428 33.9837C248.929 33.9837 250.415 34.2814 251.8 34.8598C253.185 35.4381 254.442 36.2854 255.497 37.3528C256.553 38.4201 257.386 39.6863 257.948 41.0778C258.511 42.4694 258.792 43.9588 258.775 45.4597C258.775 45.603 258.832 45.7404 258.933 45.8418C259.035 45.9431 259.172 46 259.315 46C259.459 46 259.596 45.9431 259.698 45.8418C259.799 45.7404 259.856 45.603 259.856 45.4597C259.851 42.1647 258.54 39.0061 256.209 36.6769C253.879 34.3477 250.719 33.0381 247.424 33.0354Z" fill="white" fill-opacity="0.3" stroke="white" stroke-opacity="0.3" stroke-width="0.4"/>
<path d="M247.424 20C246.248 20 245.099 20.3486 244.122 21.0016C243.145 21.6547 242.383 22.583 241.933 23.669C241.483 24.755 241.365 25.95 241.595 27.1029C241.824 28.2558 242.39 29.3149 243.221 30.1461C244.052 30.9773 245.111 31.5433 246.264 31.7727C247.417 32.002 248.612 31.8843 249.698 31.4344C250.784 30.9846 251.713 30.2228 252.366 29.2454C253.019 28.268 253.367 27.1189 253.367 25.9434C253.365 24.3677 252.739 22.8571 251.624 21.7429C250.51 20.6287 249 20.0019 247.424 20V20ZM247.424 30.8077C246.462 30.8077 245.522 30.5225 244.722 29.9882C243.923 29.4538 243.299 28.6944 242.931 27.8058C242.563 26.9172 242.467 25.9395 242.655 24.9962C242.842 24.0529 243.305 23.1864 243.985 22.5064C244.665 21.8263 245.532 21.3631 246.475 21.1755C247.419 20.9879 248.396 21.0842 249.285 21.4522C250.173 21.8203 250.933 22.4436 251.467 23.2432C252.002 24.0429 252.287 24.9831 252.287 25.9449C252.285 27.2341 251.772 28.4701 250.861 29.3817C249.949 30.2933 248.713 30.8062 247.424 30.8077Z" fill="white" fill-opacity="0.3" stroke="white" stroke-opacity="0.3" stroke-width="0.4"/>
</svg>
