<svg width="104" height="104" viewBox="0 0 104 104" fill="none" xmlns="http://www.w3.org/2000/svg">
   <g clip-path="url(#clip0_2822_52090)">
      <path d="M18.4906 91.7647H3.0589C1.36954 91.7647 0 90.3952 0 88.7058C0 87.0165 1.36954 85.6471 3.0589 85.6471H12.3518C4.6478 76.578 0 64.8318 0 52C0 23.2811 23.2811 0 52 0C80.7189 0 104 23.2811 104 52C104 80.7189 80.7189 104 52 104H15.2942C13.6048 104 12.2353 102.63 12.2353 100.941C12.2353 99.2517 13.6048 97.8824 15.2942 97.8824H27.5078C24.2839 96.1579 21.2632 94.1036 18.4906 91.7647ZM52 93.2941C74.8061 93.2941 93.2941 74.8061 93.2941 52C93.2941 29.1939 74.8061 10.7059 52 10.7059C29.1939 10.7059 10.7059 29.1939 10.7059 52C10.7059 74.8061 29.1939 93.2941 52 93.2941ZM35.6037 83.1296C32.7219 81.6086 30.077 79.699 27.7382 77.4708L35.3849 63.2197C37.2853 59.678 35.9546 55.2665 32.4132 53.3661C32.2764 53.294 32.2764 53.294 32.1377 53.2257L17.3214 46.069C17.8685 42.8468 18.8539 39.7739 20.2139 36.9136L36.4728 39.8515C40.4281 40.5663 44.2136 37.9392 44.9283 33.9841C44.9553 33.8287 44.9553 33.8288 44.9776 33.6727L47.2297 17.1444C48.7896 16.9329 50.3821 16.8237 52 16.8237C53.6179 16.8237 55.2102 16.9329 56.7703 17.1444L59.0224 33.6727C59.565 37.6551 63.2333 40.4436 67.2157 39.901C67.3718 39.8787 67.3718 39.8787 67.5272 39.8517L83.7861 36.9137C85.1461 39.7741 86.1313 42.847 86.6785 46.0691L71.8623 53.2259C68.2432 54.9741 66.7265 59.3251 68.4745 62.9444C68.5428 63.083 68.5428 63.083 68.6149 63.2198L76.2616 77.471C73.923 79.6992 71.2779 81.6087 68.3961 83.1298L57.2574 71.4915C54.4784 68.5878 49.8716 68.4868 46.9679 71.2658C46.8534 71.377 46.8534 71.377 46.7422 71.4915L35.6037 83.1296ZM52 62.7059C57.9128 62.7059 62.7059 57.9128 62.7059 52C62.7059 46.0872 57.9128 41.2941 52 41.2941C46.0872 41.2941 41.2941 46.0872 41.2941 52C41.2941 57.9128 46.0872 62.7059 52 62.7059ZM42.933 85.9968L52 76.5229L61.067 85.9968C58.1743 86.7662 55.135 87.1765 52 87.1765C48.865 87.1765 45.8257 86.7664 42.933 85.9968ZM22.699 71.4703C19.3218 66.398 17.2264 60.3989 16.8759 53.9357L28.9723 59.7787L22.699 71.4703ZM24.3407 30.2639C28.2819 25.2559 33.5538 21.3443 39.6237 19.0625L37.7668 32.69L24.3407 30.2639ZM64.3763 19.0625C70.446 21.3443 75.7181 25.2559 79.6593 30.2639L66.2332 32.69L64.3763 19.0625ZM87.1241 53.9357C86.7736 60.3989 84.6784 66.3981 81.301 71.4703L75.0277 59.7787L87.1241 53.9357ZM52 56.5883C49.466 56.5883 47.4117 54.534 47.4117 52C47.4117 49.466 49.466 47.4117 52 47.4117C54.534 47.4117 56.5883 49.466 56.5883 52C56.5883 54.534 54.534 56.5883 52 56.5883Z" fill="#CDD5DF"/>
   </g>
   <defs>
      <clipPath id="clip0_2822_52090">
         <rect width="104" height="104" fill="white"/>
      </clipPath>
   </defs>
</svg>
