<svg width="17" height="18" viewBox="0 0 17 18" fill="none" xmlns="http://www.w3.org/2000/svg">
<mask id="path-1-outside-1_7618_19295" maskUnits="userSpaceOnUse" x="0" y="0" width="17" height="18" fill="black">
<rect fill="white" width="17" height="18"/>
<path fill-rule="evenodd" clip-rule="evenodd" d="M11.6939 15.8857H13.1165C13.6503 15.8888 14.1636 15.6799 14.5435 15.3048C14.9235 14.9297 15.139 14.4191 15.1427 13.8852V7.39492C15.1402 7.20484 15.0942 7.01789 15.0082 6.84836C14.9222 6.67883 14.7985 6.53126 14.6466 6.41695L9.7406 2.50495C9.42222 2.25148 9.02735 2.11347 8.6204 2.11347C8.21345 2.11347 7.81852 2.25148 7.50014 2.50495L2.62259 6.41695C2.46732 6.53124 2.34072 6.68004 2.25277 6.85161C2.16483 7.02318 2.11794 7.21283 2.11581 7.40561V13.8852C2.11957 14.4191 2.33509 14.9297 2.71501 15.3048C3.09492 15.6799 3.60816 15.8888 4.14203 15.8857H5.57437H11.6939ZM5.57437 17.0015H4.14295C3.31314 17.0043 2.51612 16.6778 1.92686 16.0935C1.3376 15.5093 1.00423 14.715 1 13.8852V7.40024C1.00244 7.03864 1.08839 6.68252 1.25109 6.35959C1.41379 6.03666 1.64883 5.75564 1.93798 5.5385L6.80131 1.63545C7.31719 1.22407 7.95743 1 8.61725 1C9.27707 1 9.91737 1.22407 10.4332 1.63545L15.3312 5.54208C15.6151 5.75955 15.8456 6.03894 16.0052 6.35894C16.1648 6.67894 16.2493 7.03115 16.2523 7.38873V13.8888C16.2467 14.7172 15.9132 15.5096 15.3249 16.0927C14.7366 16.6759 13.9413 17.0023 13.1129 17.0006H11.6815"/>
</mask>
<path fill-rule="evenodd" clip-rule="evenodd" d="M11.6939 15.8857H13.1165C13.6503 15.8888 14.1636 15.6799 14.5435 15.3048C14.9235 14.9297 15.139 14.4191 15.1427 13.8852V7.39492C15.1402 7.20484 15.0942 7.01789 15.0082 6.84836C14.9222 6.67883 14.7985 6.53126 14.6466 6.41695L9.7406 2.50495C9.42222 2.25148 9.02735 2.11347 8.6204 2.11347C8.21345 2.11347 7.81852 2.25148 7.50014 2.50495L2.62259 6.41695C2.46732 6.53124 2.34072 6.68004 2.25277 6.85161C2.16483 7.02318 2.11794 7.21283 2.11581 7.40561V13.8852C2.11957 14.4191 2.33509 14.9297 2.71501 15.3048C3.09492 15.6799 3.60816 15.8888 4.14203 15.8857H5.57437H11.6939ZM5.57437 17.0015H4.14295C3.31314 17.0043 2.51612 16.6778 1.92686 16.0935C1.3376 15.5093 1.00423 14.715 1 13.8852V7.40024C1.00244 7.03864 1.08839 6.68252 1.25109 6.35959C1.41379 6.03666 1.64883 5.75564 1.93798 5.5385L6.80131 1.63545C7.31719 1.22407 7.95743 1 8.61725 1C9.27707 1 9.91737 1.22407 10.4332 1.63545L15.3312 5.54208C15.6151 5.75955 15.8456 6.03894 16.0052 6.35894C16.1648 6.67894 16.2493 7.03115 16.2523 7.38873V13.8888C16.2467 14.7172 15.9132 15.5096 15.3249 16.0927C14.7366 16.6759 13.9413 17.0023 13.1129 17.0006H11.6815" fill="white"/>
<path d="M13.1165 15.8857L13.1169 15.8057H13.1165V15.8857ZM15.1427 13.8852L15.2227 13.8858V13.8852H15.1427ZM15.1427 7.39492H15.2227L15.2227 7.39386L15.1427 7.39492ZM14.6466 6.41695L14.5967 6.47952L14.5985 6.48087L14.6466 6.41695ZM9.7406 2.50495L9.79048 2.4424L9.79043 2.44236L9.7406 2.50495ZM7.50014 2.50495L7.45031 2.44236L7.45009 2.44254L7.50014 2.50495ZM2.62259 6.41695L2.67006 6.48143L2.67265 6.47936L2.62259 6.41695ZM2.11581 7.40561L2.03581 7.40473V7.40561H2.11581ZM2.11581 13.8852H2.03581L2.03581 13.8858L2.11581 13.8852ZM4.14203 15.8857V15.8057L4.14157 15.8057L4.14203 15.8857ZM4.14295 17.0015V16.9215L4.14268 16.9215L4.14295 17.0015ZM1 13.8852H0.919999L0.920001 13.8856L1 13.8852ZM1 7.40024L0.92 7.3997V7.40024H1ZM1.93798 5.5385L1.98605 5.6025L1.98805 5.60089L1.93798 5.5385ZM6.80131 1.63545L6.75143 1.5729L6.75124 1.57306L6.80131 1.63545ZM8.61725 1V1.08V1ZM10.4332 1.63545L10.4831 1.57291L10.4831 1.5729L10.4332 1.63545ZM15.3312 5.54208L15.2813 5.60463L15.2825 5.60559L15.3312 5.54208ZM16.2523 7.38873H16.3323L16.3323 7.38807L16.2523 7.38873ZM16.2523 13.8888L16.3323 13.8894V13.8888H16.2523ZM13.1129 17.0006L13.1131 16.9206H13.1129V17.0006ZM11.6939 15.9657H13.1165V15.8057H11.6939V15.9657ZM13.116 15.9657C13.6711 15.9689 14.2047 15.7517 14.5997 15.3617L14.4873 15.2478C14.1225 15.608 13.6296 15.8086 13.1169 15.8057L13.116 15.9657ZM14.5997 15.3617C14.9947 14.9717 15.2188 14.4409 15.2227 13.8858L15.0627 13.8847C15.0591 14.3973 14.8522 14.8877 14.4873 15.2478L14.5997 15.3617ZM15.2227 13.8852V7.39492H15.0627V13.8852H15.2227ZM15.2227 7.39386C15.22 7.19156 15.171 6.99258 15.0795 6.81217L14.9368 6.88455C15.0173 7.04319 15.0604 7.21813 15.0627 7.39598L15.2227 7.39386ZM15.0795 6.81217C14.988 6.63174 14.8563 6.47468 14.6947 6.35303L14.5985 6.48087C14.7406 6.58783 14.8563 6.72592 14.9368 6.88455L15.0795 6.81217ZM14.6965 6.3544L9.79048 2.4424L9.69073 2.56749L14.5967 6.4795L14.6965 6.3544ZM9.79043 2.44236C9.45789 2.17762 9.04545 2.03347 8.6204 2.03347V2.19347C9.00925 2.19347 9.38656 2.32534 9.69078 2.56753L9.79043 2.44236ZM8.6204 2.03347C8.19535 2.03347 7.78285 2.17762 7.45031 2.44236L7.54997 2.56753C7.85419 2.32534 8.23155 2.19347 8.6204 2.19347V2.03347ZM7.45009 2.44254L2.57254 6.35454L2.67265 6.47936L7.5502 2.56735L7.45009 2.44254ZM2.57517 6.35252C2.40992 6.47415 2.27518 6.63253 2.18158 6.81512L2.32397 6.88811C2.40626 6.72756 2.52473 6.58832 2.67002 6.48138L2.57517 6.35252ZM2.18158 6.81512C2.08798 6.99772 2.03808 7.19955 2.03581 7.40473L2.1958 7.4065C2.1978 7.2261 2.24167 7.04865 2.32397 6.88811L2.18158 6.81512ZM2.03581 7.40561V13.8852H2.19581V7.40561H2.03581ZM2.03581 13.8858C2.03972 14.4409 2.2638 14.9717 2.6588 15.3617L2.77121 15.2478C2.40638 14.8877 2.19942 14.3973 2.19581 13.8847L2.03581 13.8858ZM2.6588 15.3617C3.05381 15.7517 3.58743 15.9689 4.14249 15.9657L4.14157 15.8057C3.6289 15.8086 3.13604 15.608 2.77121 15.2478L2.6588 15.3617ZM4.14203 15.9657H5.57437V15.8057H4.14203V15.9657ZM5.57437 15.9657H11.6939V15.8057H5.57437V15.9657ZM5.57437 16.9215H4.14295V17.0815H5.57437V16.9215ZM4.14268 16.9215C3.33406 16.9243 2.55739 16.606 1.98318 16.0367L1.87053 16.1503C2.47484 16.7495 3.29223 17.0844 4.14322 17.0815L4.14268 16.9215ZM1.98318 16.0367C1.40897 15.4674 1.08413 14.6934 1.08 13.8848L0.920001 13.8856C0.924344 14.7366 1.26622 15.5512 1.87053 16.1503L1.98318 16.0367ZM1.08 13.8852V7.40024H0.92V13.8852H1.08ZM1.08 7.40078C1.08235 7.05151 1.16537 6.70752 1.32253 6.39558L1.17964 6.32359C1.0114 6.65752 0.922521 7.02578 0.920002 7.3997L1.08 7.40078ZM1.32253 6.39558C1.47969 6.08365 1.70673 5.81221 1.98602 5.60247L1.88994 5.47453C1.59094 5.69908 1.34788 5.98966 1.17964 6.32359L1.32253 6.39558ZM1.98805 5.60089L6.85138 1.69784L6.75124 1.57306L1.88791 5.47611L1.98805 5.60089ZM6.85119 1.698C7.3529 1.29791 7.97556 1.08 8.61725 1.08V0.92C7.93931 0.92 7.28147 1.15023 6.75143 1.5729L6.85119 1.698ZM8.61725 1.08C9.25895 1.08 9.88166 1.29792 10.3834 1.698L10.4831 1.5729C9.95308 1.15023 9.29519 0.92 8.61725 0.92V1.08ZM10.3834 1.69799L15.2813 5.60462L15.3811 5.47954L10.4831 1.57291L10.3834 1.69799ZM15.2825 5.60559C15.5568 5.81566 15.7795 6.08554 15.9336 6.39465L16.0768 6.32323C15.9118 5.99234 15.6734 5.70344 15.3799 5.47857L15.2825 5.60559ZM15.9336 6.39465C16.0878 6.70376 16.1694 7.04398 16.1723 7.3894L16.3323 7.38807C16.3292 7.01832 16.2419 6.65412 16.0768 6.32323L15.9336 6.39465ZM16.1723 7.38873V13.8888H16.3323V7.38873H16.1723ZM16.1723 13.8883C16.1668 14.6955 15.8419 15.4676 15.2686 16.0359L15.3812 16.1495C15.9846 15.5515 16.3265 14.7389 16.3323 13.8894L16.1723 13.8883ZM15.2686 16.0359C14.6953 16.6041 13.9203 16.9222 13.1131 16.9206L13.1128 17.0806C13.9623 17.0823 14.7779 16.7476 15.3812 16.1495L15.2686 16.0359ZM13.1129 16.9206H11.6815V17.0806H13.1129V16.9206Z" fill="white" mask="url(#path-1-outside-1_7618_19295)"/>
<path d="M13.31 16.5708H13.35L13.35 16.5308L13.3509 9.75253C13.373 9.30196 13.2162 8.86087 12.9148 8.52521C12.6132 8.18931 12.1911 7.98617 11.7404 7.96007L11.7404 7.96H11.7381H5.6843V7.95993L5.68201 7.96007C5.23122 7.98593 4.80889 8.18903 4.50721 8.52499C4.20575 8.86071 4.04915 9.3019 4.07147 9.75252V16.5353V16.5753H4.11147H5.17839H5.21839V16.5353V9.75153C5.21839 9.57415 5.27377 9.41121 5.36052 9.29349C5.44744 9.17554 5.56311 9.10605 5.6843 9.10605H11.7381C11.8588 9.10605 11.9742 9.1755 12.061 9.29347C12.1477 9.4112 12.2031 9.57414 12.2031 9.75153V16.5308V16.5708H12.2431H13.31Z" fill="white" stroke="white" stroke-width="0.08"/>
<path d="M6.99683 10.6104V10.6104L7.00665 11.7173V11.7573H7.00683H10.4234H10.4278C10.5799 11.7573 10.7258 11.6969 10.8333 11.5894C10.9408 11.4818 11.0013 11.3359 11.0013 11.1838C11.0013 11.0317 10.9408 10.8859 10.8333 10.7783C10.7258 10.6708 10.5799 10.6104 10.4278 10.6104H6.99683Z" fill="white" stroke="white" stroke-width="0.08"/>
<path d="M6.99683 13.2764V13.2764L7.00665 14.3833V14.4233H7.00683H10.4234H10.4278C10.5799 14.4233 10.7258 14.3629 10.8333 14.2554C10.9408 14.1478 11.0013 14.0019 11.0013 13.8498C11.0013 13.6977 10.9408 13.5519 10.8333 13.4444C10.7258 13.3368 10.5799 13.2764 10.4278 13.2764H6.99683Z" fill="white" stroke="white" stroke-width="0.08"/>
</svg>
