<svg width="110" height="15" viewBox="0 0 110 15" fill="none" xmlns="http://www.w3.org/2000/svg">
<path d="M80.8741 13.0117C80.8484 12.7738 80.8801 12.5333 80.9666 12.3102C81.0531 12.0872 81.1918 11.8882 81.3712 11.7299C81.7241 11.4781 82.1499 11.3489 82.5832 11.3623C83.01 11.3508 83.4287 11.48 83.7749 11.7299C84.0431 11.9564 84.2329 12.262 84.3169 12.603C84.401 12.9439 84.375 13.3025 84.2428 13.6278C84.1105 13.9531 83.8788 14.2283 83.5807 14.4139C83.2826 14.5995 82.9335 14.686 82.5832 14.6611C82.1467 14.6743 81.7189 14.5374 81.3712 14.2733C81.1952 14.1166 81.0586 13.9209 80.9722 13.7017C80.8859 13.4826 80.8523 13.2462 80.8741 13.0117Z" fill="#FFFFFF"/>
<path d="M96.3485 14.4029L95.3158 11.0208H90.149L89.1163 14.4029H85.8774L90.8853 0.152758H94.5616L99.5897 14.4029H96.3485ZM94.5999 8.49997L93.5672 5.20011C93.5003 4.97464 93.4142 4.68972 93.309 4.34549C93.2038 4.00126 93.0978 3.65032 92.9911 3.29256C92.8851 2.9348 92.8006 2.62469 92.7375 2.36239C92.6713 2.6277 92.5819 2.95547 92.4691 3.34554C92.3564 3.73562 92.2504 4.10695 92.1512 4.45944C92.052 4.81118 91.9754 5.05798 91.9258 5.20341L90.9111 8.50327L94.5999 8.49997Z" fill="#FFFFFF"/>
<path d="M101.236 14.4029V0.213586H104.236V11.9193H110V14.3995L101.236 14.4029Z" fill="#FFFFFF"/>
<path d="M18.9119 8.57318L21.8735 8.50107H21.842L21.8881 8.34996L22.8554 5.20121C22.908 5.0554 22.9832 4.80699 23.0809 4.456L23.3976 3.3421C23.5104 2.95128 23.5998 2.62316 23.666 2.35784C23.7329 2.62316 23.8189 2.93362 23.9241 3.28912C24.0294 3.64462 24.1353 3.99557 24.2421 4.34205C24.348 4.68703 24.4327 4.97195 24.4958 5.19667L25.2984 7.7637L25.339 7.89113C25.8633 7.59463 26.6084 7.14144 27.6592 6.44585L27.7021 6.41654L25.4901 0.148217H21.8137L18.8544 8.56864L18.9119 8.57318Z" fill="#FFFFFF"/>
<path d="M8.29422 8.8359L10.6177 8.77727L12.4214 3.296H12.5015C12.488 3.56094 12.4711 3.95428 12.4531 4.48077C12.4351 5.00726 12.4136 5.55748 12.3945 6.14033C12.3753 6.72319 12.3628 7.24066 12.3628 7.69049V8.73777L15.1656 8.6702V0.214825H11.0732L8.29533 8.68603L8.24564 8.837L8.29422 8.8359Z" fill="#FFFFFF"/>
<path d="M2.68992 9.11444V7.80553C2.68992 7.32865 2.67528 6.78518 2.64822 6.17639C2.62117 5.5676 2.59519 4.99716 2.56813 4.46728C2.54107 3.93741 2.5219 3.53606 2.5095 3.27563H2.594L4.28508 8.78401L4.33022 8.93402L6.73389 8.87539H6.77999L4.10025 0.217027H0.00564242V11.1741L1.3517 10.0197C1.70798 9.60511 2.16889 9.2936 2.68648 9.11774L2.68992 9.11444Z" fill="#FFFFFF"/>
<path d="M31.8859 3.58001C32.7182 3.03578 33.6599 2.68128 34.6445 2.54167C36.4483 2.38722 38.4011 2.31615 40.3345 2.29698L40.3964 2.14601L40.8722 1.0017C40.1902 0.704768 39.4871 0.459095 38.7685 0.266673C38.08 0.0915925 37.3719 0.00483445 36.6614 0.00849729C35.4005 -0.0625248 34.1549 0.313421 33.144 1.07037C32.7889 1.36085 32.495 1.71888 32.2792 2.12372C32.0634 2.52855 31.9302 2.9722 31.887 3.42891C31.887 3.48189 31.8779 3.53597 31.8723 3.58896L31.8859 3.58001Z" fill="#FFFFFF"/>
<path d="M58.7073 4.85854L60.1865 5.42223C60.6502 5.60036 61.1579 5.79307 61.7095 6.00051V2.72089L63.4378 1.93177V0.221568H56.979V1.93177L58.7073 2.72089V4.85854Z" fill="#FFFFFF"/>
<path d="M68.2564 7.7242C68.2286 7.04777 68.1981 6.37142 68.165 5.69499C68.1319 5.01856 68.1038 4.34208 68.0805 3.66565H68.1583L71.2789 9.07714L71.3804 9.25412C72.7253 9.60812 73.9339 9.87638 75.0185 10.0906L75.1165 10.1086L69.3816 0.203402H65.5845V7.44346C66.5259 7.78167 67.4176 8.08387 68.2688 8.34542L68.2564 7.7242Z" fill="#FFFFFF"/>
<path d="M2.31793 10.8562L2.25477 10.9294L0 12.8617V14.4029H2.68428V10.5326C2.54773 10.623 2.42447 10.7318 2.31793 10.8562Z" fill="#FFFFFF"/>
<path d="M54.8529 3.5056V0.214825H51.8529V2.93406L52.2283 2.99269C53.1131 3.10848 53.9897 3.27975 54.8529 3.5056Z" fill="#FFFFFF"/>
<path d="M46.2284 0.213586H43.2284V2.32193C44.2678 2.34447 45.278 2.37823 46.2284 2.42445V0.213586Z" fill="#FFFFFF"/>
<path d="M12.3606 14.404H15.1633V9.9531L12.3606 10.0208V14.404Z" fill="#FFFFFF"/>
<path d="M61.7029 7.38043C60.969 7.10196 60.3117 6.85282 59.7244 6.62847L58.7017 6.23956V11.9036L56.9735 12.6983V14.4074H63.4323V12.6983L61.704 11.9036L61.7029 7.38043Z" fill="#FFFFFF"/>
<path d="M7.87256 10.1279H7.82177L7.51516 11.0591H7.45433L7.17124 10.1415H7.125L4.71583 10.2012L6.0056 14.3962H8.76874L10.1927 10.067L7.87256 10.1279Z" fill="#FFFFFF"/>
<path d="M65.5652 14.4051H68.2495V9.70951C67.4002 9.44871 66.5055 9.15227 65.5652 8.82007V14.4051Z" fill="#FFFFFF"/>
<path d="M75.4424 0.213586V6.93179C75.4551 7.59394 75.4747 8.2492 75.501 8.89783C75.5168 9.28452 75.5325 9.6702 75.5494 10.0558C75.5483 10.1062 75.5502 10.1565 75.5551 10.2067C76.5246 10.3916 77.3849 10.5337 78.1481 10.6577V0.210283L75.4424 0.213586Z" fill="#FFFFFF"/>
<path d="M72.2664 10.8099L74.3329 14.3996H78.1491V11.9611L77.9304 11.9249C76.4468 11.6814 74.5764 11.368 72.2664 10.8099Z" fill="#FFFFFF"/>
<path d="M28.1068 7.69833C27.0046 8.4973 25.8118 9.16332 24.5533 9.68254L24.4044 9.72203L18.4564 9.8697H18.4034L16.8115 14.4007H20.0517L21.0844 11.0186H26.2512L27.2839 14.4007H30.524L28.1485 7.66792L28.1068 7.69833Z" fill="#FFFFFF"/>
<path d="M51.854 4.23388V5.77839H46.2295V3.71189C45.2915 3.66567 44.2836 3.62731 43.2295 3.60702V14.3973H46.2295V8.27675H51.854V14.3973H54.854V4.83597C53.9292 4.56764 52.9845 4.37382 52.0288 4.25645L51.854 4.23388Z" fill="#FFFFFF"/>
<path d="M39.3379 7.28795C38.7515 6.87437 38.1285 6.51556 37.4766 6.21589C36.7863 5.8984 36.1158 5.53962 35.4687 5.14149C35.2601 5.02107 35.0873 4.84715 34.9684 4.63766C34.8495 4.42817 34.7887 4.1907 34.7923 3.94983C34.7897 3.90816 34.7897 3.86627 34.7923 3.8246H34.7471C33.735 4.01791 32.7801 4.43894 31.9547 5.05575C32.0057 5.28312 32.0812 5.50422 32.1801 5.71522C32.3903 6.16165 32.6837 6.56385 33.0448 6.90013C33.3788 7.21349 33.7481 7.48704 34.1452 7.71526C34.5285 7.93397 34.8858 8.12187 35.2173 8.27895C35.7434 8.53073 36.2139 8.76595 36.6288 8.98466C36.9908 9.1681 37.3223 9.40611 37.6118 9.69038C37.7313 9.81032 37.8255 9.95318 37.8886 10.1103C37.9517 10.2673 37.9826 10.4355 37.9794 10.6047C37.9846 10.8082 37.9456 11.0104 37.8652 11.1975C37.7848 11.3845 37.6649 11.5519 37.5137 11.6882C37.0565 12.0166 36.4959 12.1683 35.9355 12.1154C35.2016 12.1126 34.4731 11.9885 33.7798 11.7479C33.056 11.5033 32.3593 11.235 31.6829 10.943V13.7456C32.9382 14.3323 34.311 14.6247 35.6964 14.6003C37.0776 14.6878 38.4456 14.2889 39.5633 13.4729C40.0073 13.1105 40.3613 12.6499 40.5972 12.1276C40.8332 11.6053 40.9446 11.0354 40.923 10.4627C40.9446 9.81471 40.8011 9.17189 40.5059 8.59465C40.2167 8.07901 39.818 7.63293 39.3379 7.28795Z" fill="#FFFFFF"/>
</svg>
