<svg xmlns="http://www.w3.org/2000/svg" viewBox="0 0 885 200"><defs><style>.cls-1{fill:#081a3e;}.cls-2{fill:#f81734;}.cls-3{fill:#fff;}.cls-4{fill:#c90d2c;}.cls-5{fill:#d03f3e;}.cls-6{fill:#dae5ef;}.cls-7{fill:#cbd6e0;}</style></defs><g id="Layer_2" data-name="Layer 2"><g id="Layer_1-2" data-name="Layer 1"><path class="cls-1" d="M114.36,74.37l-21.5,60.91H91.3L69.8,74.37H43.45v86.87H63.2V108.92H65l19.12,52.33h16l19.13-52.33H121v52.33h19.74V74.37Z"/><path class="cls-1" d="M209.07,74.37H180.12l-33.6,86.87h21.3l5.39-14.59H216l5.35,14.59h21.42ZM179,131l13.66-37.11h3.93L210.21,131Z"/><path class="cls-1" d="M312.05,116.87c-4.33-2.13-11.76-4.18-22.23-6.09l-2-.31-9.41-1.67c-8.76-1.64-13.14-5.07-13.14-10.23a8.87,8.87,0,0,1,4.6-7.92q4.6-2.84,13.39-2.84,18.21,0,20.48,13.14h18.5q-.3-29.49-38.56-29.46-18.21,0-28.17,6.87t-10,19.28a23.24,23.24,0,0,0,1.92,9.71,20.54,20.54,0,0,0,4.75,6.83,27,27,0,0,0,7.56,4.61,59.46,59.46,0,0,0,8.74,3c2.67.64,6,1.31,9.81,2l10.76,1.87c5.29.89,9.16,2.18,11.59,3.82a7.93,7.93,0,0,1,3.6,6.94c0,3.44-1.8,6.2-5.43,8.27s-8.73,3.09-15.34,3.09q-10.44-.09-15.84-3.62a12.42,12.42,0,0,1-5.89-9.81H243.18q-.1,15.09,10.09,22.44t30.24,7.34c13.43,0,23.69-2.36,30.71-7s10.54-11.38,10.54-20.06Q324.67,123.18,312.05,116.87Z"/><path class="cls-1" d="M395.49,74.37v34.85H352.37V74.37H331.8v86.87h20.57V126.39h43.12v34.85h20.67V74.37Z"/><path class="cls-1" d="M425,74.37v86.87h20.57V74.37Z"/><path class="cls-1" d="M520.59,74.37v58.42h-2L478.29,74.37H454.41v86.87h20.17V102.82h1.86l40.83,58.42h23.48V74.37Z"/><path class="cls-2" d="M834.75,130.54,823.3,144.32a33.94,33.94,0,0,1-4.74-4.7l-11.12-13.33a22.17,22.17,0,0,0-.42-16.67,18.66,18.66,0,0,0-1.15-2.33,22,22,0,0,0-3.94-5,22.39,22.39,0,1,0-15.46,38.56,19.83,19.83,0,0,0,3.87-.36l11.14,13.37a56.28,56.28,0,0,0,7.61,7.52l-26.46,31.78A19,19,0,0,1,768.09,200H576.94a18.93,18.93,0,0,1-19-18.93V55.82a18.94,18.94,0,0,1,19-18.93H768.09a18.94,18.94,0,0,1,14.54,6.81l36.51,43.88L821,89.82l.23.27,5.57,6.68L827,97l7.74,9.3A18.94,18.94,0,0,1,834.75,130.54Z"/><path class="cls-2" d="M885,125.28a41.79,41.79,0,0,1-16.8,33.52l0,0a41.51,41.51,0,0,1-22.78,8.23h-.29c-.63,0-1.27.05-1.9.05v0a49.22,49.22,0,0,1-18.57-3.93,45.33,45.33,0,0,1-11.25-6.89,48.64,48.64,0,0,1-6.74-6.65l-20.31-24.33A9.14,9.14,0,0,1,788,112c1.2-.87,2.63-1.89,4.2-3,1.8-1.27,3.8-2.67,6-4.16a17.55,17.55,0,0,1,3.87,4.65,19,19,0,0,1,1.25,2.67c-1.73,1.16-3.36,2.29-4.86,3.33-2,1.4-3.78,2.65-5.24,3.72,0,0-.08,0-.08.16l20.37,24.51a40.47,40.47,0,0,0,5.58,5.53A36.54,36.54,0,0,0,828.1,155a42.34,42.34,0,0,0,15.74,3.2h.31a32.89,32.89,0,0,0,.74-65.72l-.65,0c-.36,0-.7,0-1,0a32.63,32.63,0,0,0-16.38,4.38l-5.56-6.69-.22-.26a41.57,41.57,0,0,1,22.16-6.35h.23l.85,0A41.76,41.76,0,0,1,885,125.28Z"/><polygon class="cls-3" points="758.01 144.07 758.01 161.57 686.39 161.57 686.39 73.48 707.26 73.48 707.26 144.07 758.01 144.07"/><path class="cls-3" d="M638.67,73.48H609.33l-34.1,88.09h21.62l5.44-14.79H645.7l5.45,14.79h21.7Zm-30.5,57.46L622,93.29h4l13.84,37.65Z"/><path class="cls-2" d="M122.28,62.55,35.7,73l2.72-9.51c-.26-6-3.28-3.44-3.28-3.44-.44,5.38-11.09,23.07-11.09,23.07l-.47,4.49L11.35,79l1.38-24.9c-1.39-11.57,1.54-16.4,1.54-16.4-.79-18.31,15-21.67,15-21.67,1.61-4.1,12-11.71,12-11.71C77-7.52,89.31,8.73,89.31,8.73c30,10.8,38.6,39.28,38.6,39.28Z"/><path class="cls-4" d="M31.17,13.14a65,65,0,0,1,8.16-7.39A163.91,163.91,0,0,0,29.6,39,151.51,151.51,0,0,1,31.17,13.14Z"/><path class="cls-5" d="M58.86,14a3.66,3.66,0,0,1,2.56-1.1C60.57,13.27,59.7,13.63,58.86,14Z"/><path class="cls-4" d="M41.05,36.12c1.54-5.46,3.31-11.07,7.16-15.23,2.89-3.14,6.7-5.18,10.65-6.88A11.14,11.14,0,0,0,56.73,17L46.64,35.27c-2.56,4.64-5.19,9.59-5,14.9C47.5,42,57,37.37,66.21,33.32c4.66-2.05,9.54-4.08,14.65-4C70.65,32.78,62,39.63,53.51,46.35c-4.41,3.53-8.93,7.13-11.94,11.88-1.09,1.68-2,3.55-3.17,5.21-.26-5.6-2.92-3.64-3.23-3.41C36.87,52,38.83,44,41.05,36.12Z"/><path class="cls-6" d="M142,80.31c-.86,1.47-1.56,3.69-1.68.85.1,2.39,0,1.11-.07.19,0,.71-.21.15-.47.48-.31-1-.64.62-1.23.7-.65-1.29-1.37.48-2.39.83-1-.1-2.23,2.71-3.93.86a15.77,15.77,0,0,0-5.83.8c-2.31.13-5,.88-8.12.66s-6.76-.8-10.79.4c-2.35-.19-4.67-.59-6.88.29-2.24.1-4.47-.45-6.57.53-2.2-1.11-4.23.39-6.25.72-2,1.2-4,.92-5.89.87-1.86,1.2-3.74.23-5.49,1-1.79-.39-3.4,1.65-5,1.06-1.53,2.44-3.2-.45-4.6,1.09C65.21,90,64,92.86,62.65,92.69c-1.37-2-2.52-.63-3.56,1-1.1,0-2,3.13-3,.93-.88.76-1.72,0-2.39.79s-1.38-2.13-1.74.62c-.51-.7-.79,1.51-1.08.4-.27-.52-.46-2-.36.14a13.12,13.12,0,0,0-5.68,2c-1.65,1-3.09,2-4.43-.06-1.29-.8-2.3-.09-3.18-1.21-.91-2.09-1.49-1.16-1.91-1.42-.47-1.53-.63-.69-.63-.68-1.89-4.73-1.83-17-.94-19.71.26.19.4-2.58.62-3a25.14,25.14,0,0,0,.75-2.53c.77-1.83,1.94-1.44,3.26-2.16,1.3-1.33,3,1.07,4.48-2.2,1.63-1.09,3.3-3.8,5.19-2.11,1.88,1.33,3.63-1,5.39-2,1.78-.41,3.4-3.34,5.07-1.69,1.58-.64,3-1.36,4.26-1.32,1.19-1.22,2.24-.39,2.93-.86.74.85,1-1.15,1.08-.31.67-4,1.81-3,3.14-1.81,1.33,1,2.68-1.63,4.25-1.34a6.14,6.14,0,0,1,4.89-1c1.64-1.31,3.34-1.79,5-.62,1.55-2.94,3.21-1.8,4.76-.36,1.46-.36,2.9,1.53,4-.17,1.18.74,2.06-.39,2.73-.06.71,1.36,1,.06,1,0,0-.88.63,1,1.53-.49,1,1.24,2.31,1,3.64-1,1.36-1.54,2.88-2.07,4.35-.82,1.49,1.52,2.76,1.2,3.63.07,1.16-1.57,2.77-.73,4.38.82,1.57.86,3.13,1.93,4.2.45,1.06-1.72,2,1.7,1.88.13,2-1.45,3.42-.5,4.46-2.21,1.13.6,1.84-1.53,2.6-1,.64-2.34,1.43-.2,2.37.24,1,2.36,2.08.31,3.77,1.6,1.79-2.88,4.29,4.31,6.78,6.61,3.44,2.14,4.45,23.74,4.15,19.83,0,1.46-.17-2.54,0,.94C144,81.91,142.91,80.46,142,80.31Z"/><path class="cls-6" d="M21.17,79.74A13.53,13.53,0,0,1,7.71,103.22C1.23,99.5-2.18,90,1.54,83.52S14.69,76,21.17,79.74Z"/><path class="cls-7" d="M20.29,92.78a13.5,13.5,0,0,0,0-13.51c.32.13.6.3.92.46A13.52,13.52,0,0,1,7.73,103.2a14.33,14.33,0,0,1-5.06-5A13.45,13.45,0,0,0,20.29,92.78Z"/><path class="cls-7" d="M19.71,79.06l-.06,0a.94.94,0,0,0,0,.55Z"/></g></g></svg>