<svg width="206" height="40" viewBox="0 0 206 40" fill="none" xmlns="http://www.w3.org/2000/svg">
<path d="M193.484 22.8177L190.815 26.027C190.42 25.7053 190.047 25.3376 189.712 24.9336L187.121 21.8277C187.592 20.5697 187.562 19.1776 187.023 17.9425C186.945 17.7568 186.857 17.5749 186.753 17.4006C186.499 16.964 186.192 16.5696 185.836 16.2383C184.877 15.3173 183.592 14.7888 182.234 14.7888C180.371 14.7888 178.644 15.7826 177.714 17.4006C176.785 19.011 176.785 21.0005 177.714 22.6166C178.644 24.227 180.371 25.2227 182.234 25.2227C182.541 25.2227 182.841 25.1959 183.136 25.1385L185.731 28.2539C186.271 28.8973 186.868 29.4871 187.504 30.0041L181.34 37.4088C180.5 38.4141 179.257 39 177.951 39H134.414C131.972 39 130 37.0258 130 34.5901V5.40988C130 2.97612 131.972 1 134.414 1H177.951C179.257 1 180.5 1.5802 181.34 2.58549L189.846 12.8088L190.281 13.3316L190.334 13.3928L191.631 14.9496L191.68 15.0109L193.484 17.1766C194.842 18.8138 194.842 21.1862 193.484 22.8177Z" fill="#F81734"/>
<path d="M154.126 31L152.526 26.456H143.918L142.318 31H136.75L145.582 8.59998H150.83L159.662 31H154.126ZM145.454 22.04H150.99L148.206 14.104L145.454 22.04Z" fill="white"/>
<path d="M166.287 8.59998V26.328H175.215V31H161.327V8.59998H166.287Z" fill="white"/>
<path d="M205.489 21.5934C205.489 24.7873 203.952 27.6232 201.575 29.4021C201.571 29.4059 201.569 29.4078 201.566 29.4078C200.07 30.5261 198.243 31.2212 196.258 31.3246C196.237 31.3265 196.214 31.3265 196.191 31.3265C196.043 31.3342 195.894 31.338 195.746 31.338V31.3323C194.186 31.315 192.679 30.9531 191.421 30.415C190.492 30.0225 189.607 29.4825 188.799 28.8104C188.235 28.3547 187.706 27.8358 187.229 27.2613L182.498 21.5934C182.115 21.1415 181.942 20.546 182.017 19.96C182.09 19.376 182.406 18.8475 182.881 18.5009C183.16 18.2979 183.493 18.0605 183.861 17.8077C184.28 17.5109 184.746 17.1854 185.253 16.8388C185.611 17.1433 185.918 17.5071 186.155 17.9207C186.27 18.1237 186.368 18.3305 186.446 18.543C186.042 18.813 185.663 19.0773 185.314 19.3205C184.847 19.646 184.434 19.937 184.093 20.186C184.087 20.1917 184.074 20.1955 184.074 20.2223L188.82 25.9324C189.219 26.4092 189.653 26.8439 190.121 27.2211C190.774 27.7592 191.484 28.1957 192.231 28.5098C192.677 28.6993 194.136 29.2547 195.9 29.2547C195.923 29.2566 195.947 29.2547 195.97 29.2547C197.64 29.2068 199.174 28.6266 200.413 27.6768C202.236 26.2752 203.412 24.0731 203.412 21.5953C203.412 20.3947 203.136 19.2573 202.64 18.2462C201.453 15.8067 199.005 14.091 196.143 13.9455C196.093 13.9436 196.043 13.9398 195.992 13.9398C195.909 13.9359 195.829 13.934 195.748 13.934C194.358 13.934 193.056 14.3036 191.932 14.9527L190.636 13.3959L190.584 13.3347C192.081 12.3945 193.851 11.8545 195.748 11.8545H195.8C195.867 11.8545 195.932 11.8564 195.999 11.8583C199.72 11.9541 202.921 14.1312 204.48 17.2716C205.125 18.5718 205.489 20.0404 205.489 21.5934Z" fill="#F81734"/>
<path d="M22.6857 8.59999L28.3812 31H23.2297L20.19 18.104H20.126L15.9664 27.8H12.4148L8.28717 18.104H8.22318L5.18348 31H0L5.72743 8.59999H9.47106L14.1746 20.184H14.2386L18.9421 8.59999H22.6857Z" fill="white"/>
<path d="M46.2151 31L44.6153 26.456H36.0082L34.4083 31H28.8409L37.672 8.59999H42.9195L51.7506 31H46.2151ZM37.544 22.04H43.0795L40.2957 14.104L37.544 22.04Z" fill="white"/>
<path d="M55.3925 9.72C56.6084 8.65333 58.3788 8.12 60.704 8.12C63.0291 8.12 65.4501 8.664 67.9672 9.752L65.8874 14.136C63.8823 13.1973 62.1971 12.728 60.8319 12.728C59.4667 12.728 58.7841 13.1653 58.7841 14.04C58.7841 14.3813 58.9015 14.6907 59.1361 14.968C59.3921 15.224 59.84 15.544 60.48 15.928L64.1916 18.264C65.6208 19.1387 66.6874 20.0773 67.3913 21.08C68.0952 22.0827 68.4472 23.3307 68.4472 24.824C68.4472 26.9787 67.7433 28.632 66.3354 29.784C64.9275 30.9147 62.9117 31.48 60.288 31.48C57.2803 31.48 54.4966 30.7333 51.9368 29.24L54.1766 24.792C56.4164 26.1573 58.5175 26.84 60.48 26.84C62.3145 26.84 63.2317 26.2427 63.2317 25.048C63.2317 24.5787 63.0611 24.1733 62.7198 23.832C62.3785 23.4907 61.8452 23.096 61.1199 22.648L57.6963 20.504C54.9445 18.8613 53.5687 16.728 53.5687 14.104C53.5687 12.248 54.1766 10.7867 55.3925 9.72Z" fill="white"/>
<path d="M85.3717 8.59999H90.3313V31H85.3717V21.592H76.0607V31H71.1012V8.59999H76.0607V16.92H85.3717V8.59999Z" fill="white"/>
<path d="M99.1834 8.59999V31H94.2239V8.59999H99.1834Z" fill="white"/>
<path d="M123 8.59999V31H118.776L108.089 17.208H108.057V31H103.098V8.59999H107.29L118.008 22.456H118.04V8.59999H123Z" fill="white"/>
</svg>
