<?xml version="1.0" encoding="utf-8"?>
<!-- Generator: Adobe Illustrator 25.4.1, SVG Export Plug-In . SVG Version: 6.00 Build 0)  -->
<svg version="1.0" id="Layer_1" xmlns="http://www.w3.org/2000/svg" xmlns:xlink="http://www.w3.org/1999/xlink" x="0px" y="0px"
	 viewBox="0 0 1024 199.43" style="enable-background:new 0 0 1024 199.43;" xml:space="preserve">
<style type="text/css">
	.st0{fill:#48CC48;}
	.st1{fill:#F9A602;}
	.st2{fill:#0000FA;}
	.st3{fill:#BF162F;}
	.st4{fill:#292C3A;}
	.st5{display:none;fill:#BF162F;}
	.st6{fill:#FFFFFF;}
	.st7{fill:none;}
	.st8{fill:#F81734;}
</style>
<g>
	<g>
		<g>
			<path class="st6" d="M86.29,45.6l-26.17,74.11h-1.89L32.06,45.6H0v105.69h24.03V87.63h2.14l23.27,63.67h19.51l23.27-63.67h2.14
				v63.67h24.03V45.6H86.29z"/>
		</g>
		<g>
			<path class="st6" d="M201.53,45.6H166.3l-40.88,105.69h25.92l6.55-17.75h52.09l6.52,17.75h26.06L201.53,45.6z M164.92,114.55
				l16.61-45.16h4.79l16.59,45.16H164.92z"/>
		</g>
		<g>
			<path class="st6" d="M326.84,97.31c-5.28-2.6-14.31-5.09-27.06-7.41c-1.08-0.19-1.87-0.3-2.38-0.38l-11.45-2.03
				c-10.66-2-15.99-6.17-15.99-12.45c0-4.11,1.87-7.33,5.6-9.63c3.73-2.3,9.17-3.46,16.29-3.46c14.77,0,23.08,5.33,24.92,15.99
				h22.51c-0.24-23.92-15.88-35.85-46.92-35.85c-14.77,0-26.19,2.79-34.28,8.36c-8.09,5.57-12.15,13.39-12.15,23.46
				c0,4.44,0.78,8.39,2.33,11.82c1.57,3.44,3.49,6.22,5.79,8.31c2.3,2.11,5.38,3.95,9.2,5.6c3.82,1.62,7.36,2.84,10.63,3.65
				c3.25,0.78,7.25,1.6,11.93,2.44l13.1,2.27c6.44,1.08,11.15,2.65,14.1,4.65c2.92,2,4.38,4.82,4.38,8.44
				c0,4.19-2.19,7.55-6.6,10.07c-4.41,2.52-10.63,3.76-18.67,3.76c-8.47-0.08-14.88-1.54-19.27-4.41
				c-4.36-2.84-6.74-6.82-7.17-11.93h-22.65c-0.08,12.23,4,21.32,12.28,27.3c8.25,5.95,20.51,8.93,36.8,8.93
				c16.34,0,28.82-2.87,37.37-8.55c8.55-5.71,12.82-13.85,12.82-24.41C342.23,110.6,337.06,102.43,326.84,97.31z"/>
		</g>
		<g>
			<path class="st6" d="M428.36,45.6V88h-52.47V45.6h-25.03v105.69h25.03v-42.4h52.47v42.4h25.16V45.6H428.36z"/>
		</g>
		<g>
			<path class="st6" d="M464.21,45.6v105.69h25.03V45.6H464.21z"/>
		</g>
		<g>
			<path class="st6" d="M580.59,45.6v71.08h-2.38L529.12,45.6h-29.06v105.69h24.54V80.21h2.27l49.68,71.08h28.57V45.6H580.59z"/>
		</g>
	</g>
</g>
<path class="st6" d="M962.86,113.94l-13.94,16.76c-2.06-1.68-4.01-3.6-5.76-5.71l-13.53-16.22c2.46-6.57,2.3-13.84-0.51-20.29
	c-0.41-0.97-0.87-1.92-1.41-2.83c-1.33-2.28-2.93-4.34-4.79-6.07c-5.01-4.81-11.72-7.57-18.81-7.57c-9.73,0-18.75,5.19-23.61,13.64
	c-4.85,8.41-4.85,18.8,0,27.24c4.86,8.41,13.88,13.61,23.61,13.61c1.6,0,3.17-0.14,4.71-0.44l13.55,16.27
	c2.82,3.36,5.94,6.44,9.26,9.14l-32.19,38.67c-4.39,5.25-10.88,8.31-17.7,8.31H649.15c-12.75,0-23.05-10.31-23.05-23.03V23.03
	C626.1,10.32,636.4,0,649.15,0h232.59c6.82,0,13.31,3.03,17.7,8.28l44.42,53.39l2.27,2.73l0.28,0.32l6.77,8.13l0.26,0.32l9.42,11.31
	C969.95,93.03,969.95,105.42,962.86,113.94z"/>
<path class="st6" d="M1024,107.54c0,16.68-8.03,31.49-20.44,40.78c-0.02,0.02-0.03,0.03-0.05,0.03
	c-7.81,5.84-17.35,9.47-27.72,10.01c-0.11,0.01-0.23,0.01-0.35,0.01c-0.77,0.04-1.55,0.06-2.32,0.06v-0.03
	c-8.15-0.09-16.02-1.98-22.59-4.79c-4.85-2.05-9.47-4.87-13.69-8.38c-2.95-2.38-5.71-5.09-8.2-8.09l-24.71-29.6
	c-2-2.36-2.9-5.47-2.51-8.53c0.38-3.05,2.03-5.81,4.51-7.62c1.46-1.06,3.2-2.3,5.12-3.62c2.19-1.55,4.62-3.25,7.27-5.06
	c1.87,1.59,3.47,3.49,4.71,5.65c0.6,1.06,1.11,2.14,1.52,3.25c-2.11,1.41-4.09,2.79-5.91,4.06c-2.44,1.7-4.6,3.22-6.38,4.52
	c-0.03,0.03-0.1,0.05-0.1,0.19l24.79,29.82c2.08,2.49,4.35,4.76,6.79,6.73c3.41,2.81,7.12,5.09,11.02,6.73
	c2.33,0.99,9.95,3.89,19.16,3.89c0.12,0.01,0.25,0,0.37,0c8.72-0.25,16.73-3.28,23.2-8.24c9.52-7.32,15.66-18.82,15.66-31.76
	c0-6.27-1.44-12.21-4.03-17.49c-6.2-12.74-18.98-21.7-33.93-22.46c-0.26-0.01-0.52-0.03-0.79-0.03c-0.43-0.02-0.85-0.03-1.27-0.03
	c-7.26,0-14.06,1.93-19.93,5.32l-6.77-8.13l-0.27-0.32c7.82-4.91,17.06-7.73,26.97-7.73h0.27c0.35,0,0.69,0.01,1.04,0.02
	c19.43,0.5,36.15,11.87,44.29,28.27C1022.1,91.76,1024,99.43,1024,107.54z"/>
<polygon class="st8" points="869.48,130.4 869.48,151.69 782.33,151.69 782.33,44.51 807.73,44.51 807.73,130.4 "/>
<path class="st8" d="M724.27,44.51h-35.71l-41.49,107.18h26.31L680,133.7h52.82l6.63,17.99h26.41L724.27,44.51z M687.15,114.43
	l16.82-45.81h4.85l16.85,45.81H687.15z"/>
</svg>
