<svg width="130" height="16" fill="none" xmlns="http://www.w3.org/2000/svg"><g clip-path="url(#clip0)" fill="#F81734"><path d="M120.519 5.436a2.94 2.94 0 00-1.471-.368h-10.177l-.804 2.725h9.373c.423 0 .668.34.545.763l-.776 2.67c.313-1.049-.3-1.894-1.349-1.894h-6.894c-1.267 0-2.588 1.022-2.956 2.29l-.613 2.084c-.368 1.267.354 2.289 1.621 2.289h12.411l2.153-7.357c.409-1.417-.055-2.63-1.063-3.202zm-3.583 6.69l-.368 1.28h-6.989c-.259 0-.422-.218-.34-.477l.231-.79c.123-.422.572-.763.995-.763h5.94c.422-.014.667.327.531.75zM68.065 5.068c-1.362 0-2.78 1.104-3.174 2.466L67.043.177h-3.61L58.8 15.995h3.61l2.057-7.03c.205-.695.927-1.254 1.608-1.254h6.035l-2.425 8.284h3.611l3.201-10.927h-8.433zM126.39 0l-4.66 15.913h3.611L130 0h-3.61zM78.694 5.068l-3.202 10.913h3.61l3.202-10.913h-3.61zM83.761.068h-3.61l-.967 3.338h3.596l.981-3.338zM98.473 15.954h3.596l.981-3.338h-3.61l-.967 3.338zM90.557 5.068c-1.362 0-2.779 1.104-3.174 2.466l.722-2.466h-3.61l-3.202 10.927h3.61l2.057-7.03c.205-.695.927-1.254 1.608-1.254h6.036l-2.425 8.284h3.61L98.99 5.068h-8.433zM56.568 5.068l-11.076-.014-1.09 3.72a3.261 3.261 0 00-.123.994c.041.682.368 1.254.9 1.594.354.232.79.355 1.307.355H53.326c.163 0 .258.04.354.15a.613.613 0 01.109.585l-.082.273c-.123.422-.572.763-.995.763h-5.544c-.423 0-.668-.34-.545-.763l.122-.409h-3.787l-.245.845c-.26.899-.069 1.716.45 2.22 0 .014.013.014.026.014.368.354.886.559 1.513.559h8.978c.082 0 .163 0 .245-.014 1.662-.15 3.324-1.512 3.815-3.174l.163-.545c.15-.532.164-1.036.041-1.472a1.946 1.946 0 00-1.035-1.253 2.453 2.453 0 00-1.077-.232h-7.397a.614.614 0 01-.423-.15H48c-.028-.027-.055-.054-.069-.081v-.014c-.095-.136-.108-.327-.054-.531l.3-1.036 6.321.014c.423 0 .668.34.545.763l-.081.3h3.637l.082-.287c.477-1.662-.45-3.065-2.112-3.174zM18.842 5.068c-1.226 0-2.493.627-3.42 1.58-.367-.953-1.267-1.58-2.507-1.58H9.06c-1.226 0-2.534.995-2.916 2.22l.191-.667.123-.436.15-.49.19-.627H3.201l-.19.627-.15.49-.123.436L0 15.981H3.61l1.622-5.531.109-.368c0-.027.013-.041.013-.068l.15-.49.164-.56c.15-.517.585-.953 1.09-1.144.108-.04.231-.068.34-.095.068-.014.123-.014.177-.014h3.57c.694 0 1.09.559.885 1.254l-.177.626-.136.477v.014L9.673 15.98h3.61l1.622-5.545v-.014l.109-.354v-.013l.136-.477v-.014l.177-.613c.136-.45.477-.831.885-1.05.15-.08.314-.135.477-.176.069-.014.137-.027.205-.027H21.77l-.19.626-.15.49-.123.437-1.226 4.21-.736 2.52h3.61l2.739-9.36.122-.436.15-.49.191-.627h-7.316zM5.845 8.324l.027-.082.109-.354-.136.436zm.109-.368l.054-.204.014-.027.122-.395-.19.626zM40.87 5.436a2.943 2.943 0 00-1.47-.368H29.222l-.19.627-.15.49-.463 1.594h9.36c.422 0 .667.34.544.763l-.177.627-.15.49-.45 1.54c0-.014.014-.027.014-.041.273-1.022-.327-1.853-1.349-1.853h-6.893c-1.267 0-2.589 1.022-2.957 2.289l-.19.627-.123.436-.3 1.021c-.368 1.267.354 2.29 1.621 2.29h12.398l1.826-6.24.15-.491.177-.627c.409-1.39-.04-2.602-1.05-3.174zm-3.569 6.635l-.013.054-.177.627-.191.654h-6.99a.353.353 0 01-.367-.34c0-.042 0-.096.027-.15l.055-.164v-.014l.177-.626c.122-.423.572-.763.994-.763h5.94c.3 0 .505.163.559.395a.884.884 0 01-.014.327z"/></g><defs><clipPath id="clip0"><path fill="#fff" d="M0 0h130v15.981H0z"/></clipPath></defs></svg>