<svg width="144" height="144" viewBox="0 0 144 144" fill="none" xmlns="http://www.w3.org/2000/svg">
   <path d="M109.335 73.9501C109.817 73.4436 110.337 72.9613 110.883 72.4966L113.64 81.5317C109.758 83.9828 107.176 88.307 107.176 93.2377C107.176 100.88 113.371 107.074 121.013 107.074C128.654 107.074 134.849 100.88 134.849 93.2377C134.849 86.4921 129.73 80.588 123.34 79.3652L135.388 75.2465C140.471 79.463 144 86.1174 144 93.2388C144 105.933 133.708 116.225 121.013 116.225C110.7 116.225 101.394 109.144 98.4814 99.7899C99.1373 91.4744 103.587 79.986 109.335 73.9501Z" fill="#9AA4B2"/>
   <path d="M114.201 112.172C107.172 107.469 104.151 98.6034 106.666 90.5284C108.055 86.0691 110.096 81.557 112.53 77.892L110.883 72.4966C110.337 72.9613 109.818 73.4436 109.336 73.9501C103.587 79.986 99.1373 91.4744 98.4814 99.7899C101.394 109.145 110.7 116.225 121.013 116.225C122.086 116.225 123.14 116.146 124.174 116.004C120.566 115.5 117.158 114.149 114.201 112.172Z" fill="#4B5565"/>
   <path d="M120.085 67.4735C120.501 67.4537 120.92 67.4395 121.342 67.4395C127.207 67.4395 132.798 69.629 137.113 72.9491C137.92 73.5698 137.71 74.8409 136.747 75.1705L121.42 80.4099L117.455 68.6194L120.085 67.4735Z" fill="#CDD5DF"/>
   <path d="M126.414 67.9844C124.764 67.6328 123.066 67.4395 121.342 67.4395C120.92 67.4395 120.501 67.4537 120.085 67.4735L117.455 68.6194L121.42 80.4099L129.646 77.5974L126.414 67.9844Z" fill="#E3E8EF"/>
   <path d="M29.7103 51.752L38.9542 59.3501C41.0295 61.0563 43.7618 61.7385 46.3964 61.209L51.3721 68.5544L42.6467 69.1049C39.943 69.2762 37.2766 68.4116 35.1881 66.689L20.7521 54.7798L29.7103 51.752Z" fill="#9AA4B2"/>
   <path d="M44.5177 66.689L31.9933 56.3563C31.1594 55.6686 31.4055 54.3326 32.4294 53.9866L29.7103 51.752L20.7521 54.7798L35.1881 66.689C37.2766 68.4116 39.9441 69.2762 42.6467 69.1049L48.4563 68.7379C47.027 68.3424 45.6823 67.6492 44.5177 66.689Z" fill="#4B5565"/>
   <path d="M96.3787 49.524C93.2135 50.7754 81.4977 57.2749 75.03 60.5719C72.2054 62.0122 69.9368 64.3424 68.5734 67.2043L67.1298 70.2366L50.4349 50.8863C62.4111 34.5738 70.5981 38.6168 81.4592 41.0788C89.2024 42.8334 98.0255 48.8912 98.0255 48.8912C97.4806 48.911 96.9291 49.3065 96.3787 49.524Z" fill="#AEB6C0"/>
   <path d="M66.6167 47.3389C70.0972 43.3168 73.2733 41.0262 76.3286 39.8429C67.8252 37.839 60.4567 37.2359 50.4349 50.8864L67.1298 70.2366L68.5734 67.2044C69.6193 65.0104 71.198 63.1307 73.1503 61.7222L66.6189 54.1526C64.9314 52.196 64.9259 49.2923 66.6167 47.3389Z" fill="#9AA4B2"/>
   <path d="M22.9867 70.251C30.9935 70.251 38.0402 74.3467 42.1567 80.554L33.7621 84.5618C31.2253 81.4164 27.3428 79.4015 22.9867 79.4015C15.3457 79.4015 9.15051 85.5967 9.15051 93.2377C9.15051 100.88 15.3457 107.074 22.9867 107.074C30.0685 107.074 35.9044 101.752 36.7218 94.8911L45.9426 94.444C45.3153 106.578 35.2782 116.225 22.9867 116.225C10.292 116.225 0 105.933 0 93.2388C0 80.543 10.292 70.251 22.9867 70.251Z" fill="#9AA4B2"/>
   <path d="M7.96838 93.2388C7.96838 81.8987 16.1818 72.4834 26.9824 70.6003C25.6849 70.3729 24.3501 70.251 22.9867 70.251C10.292 70.251 0 80.543 0 93.2388C0 105.933 10.292 116.225 22.9867 116.225C24.3468 116.225 25.6772 116.101 26.9725 115.874C16.1763 113.988 7.96838 104.574 7.96838 93.2388Z" fill="#4B5565"/>
   <path d="M4.68457 37.2578H9.42408C11.495 37.2578 13.4912 38.0422 15.0084 39.454L20.7521 44.7955L30.0828 52.464L21.2739 55.2567C18.2131 56.0137 14.4679 54.7085 12.4596 52.2783L3.00257 40.8306C1.82703 39.4067 2.83887 37.2578 4.68457 37.2578Z" fill="#4B5565"/>
   <path d="M21.6222 52.2783L12.1652 40.8306C11.3621 39.8583 11.5818 38.5476 12.3893 37.8137C11.4522 37.4501 10.4469 37.2578 9.42298 37.2578H4.68457C2.83887 37.2578 1.82703 39.4067 3.00257 40.8306L12.4596 52.2783C14.4679 54.7096 18.2131 56.0137 21.2739 55.2567L24.1908 54.3317C23.1976 53.8021 22.3077 53.1078 21.6222 52.2783Z" fill="#9AA4B2"/>
   <path d="M60.4303 92.0577C59.6492 90.4482 59.2537 88.719 59.2537 86.9183C59.2537 85.0737 59.6701 83.3049 60.4918 81.6603L60.5676 81.5087L55.5579 74.1138L20.8587 90.401L20.8576 90.4021C18.0637 91.7347 19.0701 96.0337 22.2397 95.8854L50.1757 94.556L49.9658 94.155C49.7791 93.798 49.7945 93.3772 50.0065 93.0267C50.2196 92.6752 50.5789 92.4741 50.992 92.4741H60.6325L60.4303 92.0577Z" fill="#E3E8EF"/>
   <path d="M35.621 90.4021L35.6221 90.401L59.1197 79.3718L55.5579 74.1138L20.8587 90.401L20.8576 90.4021C18.0637 91.7347 19.0701 96.0337 22.2397 95.8854L35.0541 95.2756C33.5677 94.066 33.527 91.4008 35.621 90.4021Z" fill="#AEB6C0"/>
   <path d="M57.3728 58.5669L67.1287 69.3676L63.4515 77.0865C61.8497 78.2302 60.5402 79.7551 59.6536 81.5305L45.9745 61.3387L57.3728 58.5669Z" fill="#E3E8EF"/>
   <path d="M57.8441 66.321C56.551 64.4116 57.5596 61.7991 59.7997 61.2542L57.3728 58.5669L45.9745 61.3387L59.6536 81.5305C60.5402 79.7551 61.8497 78.2302 63.4515 77.0865L64.147 75.6254L57.8441 66.321Z" fill="#CDD5DF"/>
   <path d="M105.561 52.952C105.251 53.0794 104.94 53.2101 104.63 53.3398L102.238 46.1338L95.9084 41.9854C94.0968 40.7978 93.609 38.394 94.8164 36.6153C96.0249 34.8366 98.4715 34.3565 100.282 35.5441L107.748 40.4374C108.484 40.9197 109.034 41.6305 109.307 42.4578L111.497 49.0496C110.119 50.5273 108.197 51.8665 105.561 52.952Z" fill="#9AA4B2"/>
   <path d="M117.423 68.0293L125.206 91.8927C125.888 93.9834 124.745 96.2312 122.655 96.9135C122.245 97.0475 121.83 97.1101 121.42 97.1101C119.743 97.1101 118.183 96.0433 117.635 94.3624L110.47 72.392C112.478 70.6825 114.871 69.2411 117.423 68.0293Z" fill="#9AA4B2"/>
   <path d="M108.178 46.134L101.848 41.9856C100.037 40.799 99.5482 38.3952 100.757 36.6165C100.879 36.4364 101.016 36.2738 101.162 36.1211L100.282 35.5443C98.4716 34.3577 96.0249 34.8379 94.8164 36.6165C93.6079 38.3952 94.0968 40.799 95.9074 41.9856L102.238 46.134L104.629 53.3399C104.94 53.2103 105.251 53.0795 105.561 52.9521C107.196 52.2786 108.556 51.5074 109.682 50.667L108.178 46.134Z" fill="#4B5565"/>
   <path d="M123.575 94.3624L117.126 74.5914C116.684 73.2324 117.167 71.7317 118.339 70.9132L118.359 70.8989L117.423 68.0293C114.871 69.2411 112.478 70.6825 110.47 72.392L117.635 94.3624C118.183 96.0433 119.743 97.1101 121.42 97.1101C121.828 97.1101 122.245 97.0475 122.655 96.9135C123.349 96.6871 123.936 96.285 124.388 95.7764C124.033 95.3787 123.751 94.903 123.575 94.3624Z" fill="#4B5565"/>
   <path d="M74.4236 75.698C73.2667 75.3299 72.0341 75.1289 70.7542 75.1289C68.1383 75.1289 65.4291 75.6727 63.4515 77.0866L68.5734 66.3354C69.9368 63.4735 72.2054 61.1433 75.03 59.703C81.4977 56.406 93.2135 50.4865 96.3787 49.2352C100.818 47.4796 105.65 53.2408 105.65 53.2408C97.6685 56.585 89.1145 61.007 83.0413 64.1931C78.4061 66.6232 75.4695 70.6937 74.4236 75.698Z" fill="#E3E8EF"/>
   <path d="M72.2505 69.1855C73.6139 66.3235 75.8826 63.9933 78.7072 62.553C85.1748 59.256 96.8906 53.3366 100.056 52.0853C101.796 51.3964 103.597 51.8655 105.144 52.6895C103.792 51.2909 99.958 47.8193 96.3776 49.2354C93.2135 50.4867 81.4966 56.4062 75.0289 59.7032C72.2054 61.1435 69.9368 63.4737 68.5734 66.3356L63.4515 77.0868C65.0874 75.9179 67.2242 75.3444 69.394 75.1807L72.2505 69.1855Z" fill="#E3E8EF"/>
   <path d="M74.7367 80.0067C74.3247 79.8254 74.0577 79.4135 74.0577 78.9564C74.0577 77.7853 74.1786 76.6119 74.4181 75.4683L74.4708 75.2123L74.2225 75.1332C73.0074 74.7454 71.7429 74.5498 70.4641 74.5498C63.6427 74.5498 58.0946 80.0979 58.0946 86.9193C58.0946 88.8079 58.5099 90.6217 59.3295 92.3103L59.4086 92.474H63.7657C64.1217 92.474 64.4568 92.641 64.682 92.931C66.2926 94.9976 68.7546 96.1907 71.3573 96.1907C71.5452 96.1907 71.733 96.1841 71.922 96.172C76.0375 95.8984 79.407 92.597 79.7607 88.4926C80.0728 84.8715 78.0535 81.4613 74.7367 80.0067Z" fill="#9AA4B2"/>
   <path d="M73.9457 92.9301C73.7194 92.64 73.3854 92.4741 73.0283 92.4741H71.2925C68.5778 92.4741 67.7889 90.1351 67.6011 89.354C67.4418 88.5597 67.3572 87.7467 67.3572 86.9183C67.3572 82.0195 70.2213 77.7755 74.3621 75.7749C74.3818 75.6727 74.3972 75.5695 74.4181 75.4673L74.4708 75.2124L74.2225 75.1322C73.0074 74.7455 71.7429 74.5488 70.4641 74.5488C63.6427 74.5488 58.0946 80.098 58.0946 86.9183C58.0946 88.808 58.5099 90.6218 59.3295 92.3104L59.4086 92.4741H63.7657C64.1217 92.4741 64.4568 92.64 64.682 92.9301C66.2926 94.9977 68.7546 96.1908 71.3573 96.1908C71.5452 96.1908 71.733 96.1842 71.922 96.1721C73.4052 96.0732 74.7905 95.58 75.9738 94.7988C75.2102 94.2968 74.5225 93.6716 73.9457 92.9301Z" fill="#4B5565"/>
   <path d="M78.394 83.6436H78.3929C79.2081 85.041 79.6234 86.701 79.4718 88.4677C79.1301 92.4337 75.8748 95.6187 71.9022 95.8823C69.0611 96.0713 66.5079 94.8024 64.9116 92.7523C64.6347 92.3975 64.2161 92.1843 63.7657 92.1843H50.4118C49.2451 92.1843 48.5606 93.4961 49.2264 94.4541L58.5725 107.878C58.8427 108.266 59.2855 108.497 59.7579 108.497H96.5291C97.2608 108.497 97.8761 107.95 97.9617 107.224C98.2858 104.489 99.2241 97.7401 101.251 90.7649L78.394 83.6436Z" fill="#697586"/>
   <path d="M68.8536 108.497C68.3812 108.497 67.9395 108.266 67.6693 107.878L58.3232 94.4539C57.6563 93.4958 58.3408 92.1852 59.5075 92.1841H50.4119C49.2452 92.1841 48.5607 93.4958 49.2265 94.4539L58.5737 107.878C58.8429 108.266 59.2856 108.497 59.758 108.497H96.5303H68.8536Z" fill="#9AA4B2"/>
   <path d="M75.8738 94.5189C80.7341 97.8467 88.017 94.8694 88.5674 88.4677C88.6157 87.903 88.6003 87.347 88.5355 86.8032L78.394 83.6436H78.3929C79.2081 85.041 79.6234 86.701 79.4718 88.4677C79.2554 90.9791 77.87 93.1764 75.8738 94.5189Z" fill="#9AA4B2"/>
   <path d="M137.547 56.3354C137.867 56.3354 138.182 56.3486 138.494 56.3662L136.567 50.4303C135.997 48.6791 135.248 46.9982 134.336 45.4095L128.107 44.7998C126.189 44.6119 124.453 43.5803 123.372 41.984L114.778 29.2915L113.517 30.0649C112.45 30.7197 112.014 32.0601 112.509 33.2114C114.364 37.5302 117.298 47.9507 105.36 52.9517C97.9353 56.0619 90.2701 59.8533 84.3474 62.9316C87.9751 62.9855 91.9532 63.7952 95.9017 65.4398C101.532 67.7854 106.008 71.3669 108.687 75.2473C108.9 75.0001 109.115 74.7606 109.335 74.5288C115.578 67.9744 127.552 64.985 134.74 63.7281C131.74 63.1821 129.606 61.7902 129.606 60.1554C129.607 58.046 133.162 56.3354 137.547 56.3354Z" fill="#AEB6C0"/>
   <path d="M92.1367 63.6129C92.5597 63.391 92.9991 63.1625 93.4441 62.9307C93.4441 62.9307 93.4441 62.9307 93.443 62.9307C93.554 62.8735 93.8517 62.7197 94.0132 62.6362C99.8535 59.6128 107.266 55.9631 114.457 52.9507C120.927 50.2404 123.028 45.937 123.299 41.8754L114.778 29.2905L113.518 30.064C112.45 30.7198 112.015 32.0591 112.509 33.2104C114.364 37.5303 117.298 47.9497 105.36 52.9507C97.9364 56.0609 90.2701 59.8534 84.3474 62.9307C86.6315 62.9647 89.0551 63.2998 91.5226 63.9524C91.7247 63.8359 91.9291 63.7217 92.1367 63.6129Z" fill="#CDD5DF"/>
   <path d="M127.818 45.0898C125.899 44.902 124.163 43.8693 123.083 42.273L114.436 29.5013L116.982 27.9369C118.037 27.2887 119.406 27.4985 120.22 28.4313L131.316 41.1611C132.549 42.5751 133.62 44.1132 134.524 45.7457L127.818 45.0898Z" fill="#CDD5DF"/>
   <path d="M130.87 42.4092C128.952 42.2213 127.216 41.1897 126.135 39.5934L118.003 27.582C117.65 27.6249 117.302 27.7413 116.982 27.9369L114.435 29.5013L123.082 42.2729C124.163 43.8693 125.899 44.902 127.817 45.0887L134.524 45.7446C133.91 44.6372 133.212 43.5759 132.446 42.563L130.87 42.4092Z" fill="#9AA4B2"/>
   <path d="M86.1338 89.1616C83.4762 88.0542 81.0911 86.6556 79.052 85.0758C78.306 82.9247 76.6899 81.1801 74.6201 80.2715C74.1005 80.0441 73.7676 79.5255 73.7676 78.9564C73.7676 72.5162 77.337 66.6045 83.0411 63.6129C83.6443 63.2976 84.2738 62.9691 84.9176 62.6362C88.4398 62.6373 92.3334 63.4031 96.1929 65.0104C101.91 67.3922 106.372 71.1243 108.813 75.1046C105.269 79.1465 102.802 85.301 101.117 91.2325C96.751 91.9895 91.4105 91.3589 86.1338 89.1616Z" fill="#9AA4B2"/>
   <path d="M74.6201 80.2715C76.6899 81.1801 78.306 82.9247 79.0509 85.0758C81.09 86.6556 83.4762 88.0542 86.1338 89.1616C86.8545 89.4615 87.5752 89.7296 88.2959 89.9713C88.4266 89.4934 88.5222 88.9935 88.5673 88.4673C88.8727 84.9198 86.8589 81.6503 83.7157 80.2715C83.1949 80.0441 82.8632 79.5255 82.8632 78.9564C82.8632 72.5228 86.4249 66.6177 92.118 63.6228C89.6351 62.9603 87.1984 62.6362 84.9176 62.6362C84.2738 62.9691 83.6432 63.2965 83.0411 63.6129C77.337 66.6045 73.7676 72.5162 73.7676 78.9564C73.7676 79.5255 74.0994 80.0441 74.6201 80.2715Z" fill="#697586"/>
   <path d="M20.8224 44.7124C22.9054 42.2767 26.5023 41.8779 29.1467 43.6884C37.4238 49.3541 50.4349 50.8867 50.4349 50.8867L57.7386 58.9726L45.9745 61.3402C43.3839 61.8609 40.6967 61.1897 38.6554 59.512L20.7521 44.7959C20.7751 44.7673 20.7982 44.7398 20.8224 44.7124Z" fill="#697586"/>
   <path d="M53.0706 59.512L39.6815 48.5059C36.1362 47.4029 32.2987 45.8461 29.1478 43.6884C26.5023 41.8779 22.9054 42.2767 20.8224 44.7124C20.7993 44.7398 20.7751 44.7673 20.7521 44.7959L38.6554 59.512C40.6967 61.1897 43.3839 61.8609 45.9745 61.3391L53.4814 59.8284C53.3419 59.7274 53.2046 59.6219 53.0706 59.512Z" fill="#697586"/>
   <path d="M129.409 60.1337C129.409 57.9957 132.864 56.2632 137.126 56.2632C137.588 56.2632 138.04 56.2841 138.479 56.3236L139.628 59.8645C140.135 61.4235 139.112 63.0604 137.489 63.2911C136.628 63.4142 135.614 63.5735 134.492 63.7723C131.527 63.2329 129.409 61.8069 129.409 60.1337Z" fill="#9AA4B2"/>
   <path d="M135.301 60.1337C135.301 58.8032 136.639 57.6299 138.677 56.9333L138.478 56.3236C138.04 56.2841 137.587 56.2632 137.126 56.2632C132.864 56.2632 129.409 57.9957 129.409 60.1337C129.409 61.8069 131.527 63.2329 134.492 63.7723C135.613 63.5735 136.627 63.4142 137.489 63.2911C137.711 63.2604 137.92 63.2 138.117 63.1198C136.4 62.41 135.301 61.3367 135.301 60.1337Z" fill="#4B5565"/>
</svg>
