<svg width="104" height="104" viewBox="0 0 104 104" fill="none" xmlns="http://www.w3.org/2000/svg">
   <path d="M88.5625 41.1328C88.5625 40.3567 88.2663 39.6098 87.7344 39.0445L63.3594 13.146C62.7835 12.5344 61.9808 12.1875 61.1406 12.1875H30.6719C29.8017 12.1875 28.9729 12.5596 28.3946 13.21L16.2071 26.921C15.7115 27.4787 15.4375 28.199 15.4375 28.9453V82.6719C15.4375 85.0107 16.3205 87.1473 17.7706 88.7656C16.3205 90.3839 15.4375 92.5206 15.4375 94.8594C15.4375 99.8995 19.538 104 24.5781 104H79.4219C84.462 104 88.5625 99.8995 88.5625 94.8594C88.5625 92.5206 87.6795 90.3839 86.2294 88.7656C87.6797 87.1473 88.5625 85.0107 88.5625 82.6719V41.1328ZM52 85.7179C46.9599 85.7179 42.8594 81.6175 42.8594 76.5773C42.8594 75.3224 43.2179 73.036 46.3176 67.6926C47.8833 64.9935 49.428 62.7522 49.493 62.6582C50.062 61.8347 50.999 61.3429 52 61.3429C53.001 61.3429 53.938 61.8345 54.507 62.6582C54.572 62.7522 56.1167 64.9935 57.6824 67.6926C60.7821 73.0362 61.1406 75.3224 61.1406 76.5773C61.1406 81.6175 57.0401 85.7179 52 85.7179ZM74.461 49.7715C73.2826 50.8814 71.783 51.4288 70.2835 51.4288C68.6619 51.4288 67.0461 50.7861 65.847 49.5125L51.8533 34.6442C49.5444 32.1925 49.6635 28.3361 52.1121 26.0303C54.5669 23.7242 58.4261 23.8404 60.7261 26.289L74.7197 41.1574C77.0287 43.6093 76.9096 47.4654 74.461 49.7715Z" fill="#CDD5DF"/>
   <path d="M48.9531 76.581C48.9531 78.2576 50.32 79.6244 52 79.6244C53.6792 79.6244 55.0455 78.2588 55.0469 76.58C55.0209 75.6452 53.7544 72.9912 52.0006 70.0371C50.2454 72.9942 48.9779 75.6495 48.9531 76.581Z" fill="#CDD5DF"/>
   <path d="M48.9531 0H30.6719C28.9892 0 27.625 1.36419 27.625 3.04688V6.09375H52V3.04688C52 1.36419 50.6358 0 48.9531 0Z" fill="#CDD5DF"/>
</svg>
