<svg width="120" height="120" viewBox="0 0 120 120" fill="none" xmlns="http://www.w3.org/2000/svg">
<path opacity="0.6" d="M109.199 59.9865C109.199 58.8425 109.158 57.6859 109.077 56.53L120 47.178L119.467 45.0652C118.736 42.17 117.788 39.308 116.65 36.5552C115.51 33.8074 114.156 31.1141 112.626 28.5499L111.509 26.6787L97.1959 27.7878C95.6695 26.0267 94.0174 24.3717 92.2584 22.8426L93.3696 8.50274L91.4984 7.38616C88.934 5.85561 86.2407 4.5017 83.4895 3.36029C80.7403 2.22332 77.8783 1.27613 74.9833 0.545175L72.8705 0.0117188L63.5352 10.9151C62.3521 10.8303 61.1757 10.7881 60.0001 10.7881V31.8727C75.502 31.8727 88.1138 44.4844 88.1138 59.9863C88.1138 75.4882 75.502 88.0999 60.0001 88.0999V109.185C61.1507 109.185 62.3008 109.144 63.4567 109.063L72.8087 119.986L74.9214 119.453C77.8167 118.722 80.6786 117.775 83.4314 116.636C86.1793 115.496 88.8728 114.143 91.4366 112.612L93.3078 111.496L92.1987 97.1823C93.9598 95.6562 95.6147 94.0038 97.1439 92.2448L111.484 93.356L112.6 91.4848C114.131 88.9204 115.485 86.2271 116.626 83.4759C117.763 80.7267 118.71 77.8647 119.441 74.9697L119.975 72.857L109.071 63.5216C109.156 62.3385 109.199 61.1556 109.199 59.9865V59.9865Z" fill="#646E95"/>
<path opacity="0.6" d="M10.8013 59.9865C10.8013 58.8425 10.842 57.6859 10.9231 56.53L0 47.178L0.533456 45.0652C1.26441 42.17 2.21161 39.308 3.34997 36.5552C4.48998 33.8074 5.84389 31.1141 7.37397 28.5499L8.49079 26.6787L22.8041 27.7878C24.3305 26.0267 25.9826 24.3717 27.7416 22.8426L26.6304 8.50274L28.5016 7.38616C31.066 5.85561 33.7593 4.5017 36.5105 3.36029C39.2598 2.22332 42.1217 1.27613 45.0167 0.545175L47.1295 0.0117188L56.4648 10.9151C57.6479 10.8303 58.8243 10.7881 59.9999 10.7881V31.8727C44.498 31.8727 31.8862 44.4844 31.8862 59.9863C31.8862 75.4882 44.498 88.0999 59.9999 88.0999V109.185C58.8493 109.185 57.6992 109.144 56.5433 109.063L47.1913 119.986L45.0786 119.453C42.1833 118.722 39.3214 117.775 36.5686 116.636C33.8207 115.496 31.1272 114.143 28.5635 112.612L26.6923 111.496L27.8013 97.1823C26.0403 95.6562 24.3853 94.0038 22.8561 92.2448L8.51632 93.356L7.39974 91.4848C5.86919 88.9204 4.51528 86.2271 3.37387 83.4759C2.23691 80.7267 1.28971 77.8647 0.558758 74.9697L0.0253023 72.857L10.9287 63.5216C10.8439 62.3385 10.8013 61.1556 10.8013 59.9865V59.9865Z" fill="#646E95"/>
<path opacity="0.6" d="M43.125 60C43.125 50.6951 50.6951 43.125 60 43.125V31.875C44.4917 31.875 31.875 44.4917 31.875 60C31.875 75.5083 44.4917 88.125 60 88.125V76.875C50.6951 76.875 43.125 69.3049 43.125 60V60Z" fill="#3F3D56"/>
<path opacity="0.6" d="M76.875 60C76.875 69.3049 69.3049 76.875 60 76.875L60 88.125C75.5083 88.125 88.125 75.5083 88.125 60C88.125 44.4917 75.5083 31.875 60 31.875L60 43.125C69.3049 43.125 76.875 50.6951 76.875 60V60Z" fill="#3F3D56"/>
</svg>
