<svg width="104" height="104" viewBox="0 0 104 104" fill="none" xmlns="http://www.w3.org/2000/svg">
   <g clip-path="url(#clip0_2822_51754)">
      <path d="M75.2291 82.4786C76.4701 79.6378 78.4304 77.258 80.8121 75.4376C80.0158 75.5345 79.2304 75.5954 78.4591 75.5954C74.4346 75.5954 70.7563 74.2665 67.6178 71.6338C62.9906 75.7408 57.0437 78.3681 50.4922 78.7968C50.6321 80.1096 50.9566 81.3345 51.4248 82.4788L75.2291 82.4786Z" fill="#CDD5DF"/>
      <path d="M73.7155 50.1966C73.7155 36.3512 62.4526 25.0884 48.6073 25.0884C34.7619 25.0884 23.499 36.3512 23.499 50.1966C23.499 64.042 34.7619 75.3048 48.6073 75.3048C62.4526 75.3048 73.7155 64.042 73.7155 50.1966ZM28.8794 50.1966C28.8794 39.3015 37.7122 30.4688 48.6073 30.4688C59.5024 30.4688 68.3351 39.3015 68.3351 50.1966C68.3351 61.0917 59.5024 69.9245 48.6073 69.9245C37.7122 69.9245 28.8794 61.0919 28.8794 50.1966Z" fill="#CDD5DF"/>
      <path d="M47.6241 82.4786C47.2617 81.3092 47.016 80.0861 46.905 78.8055C40.3428 78.4182 34.3778 75.8302 29.7274 71.752C27.265 74.8043 26.3575 78.4038 26.996 82.4786H47.6241Z" fill="#CDD5DF"/>
      <path d="M95.7584 27.1025L92.9176 29.9433L90.3816 27.4074L94.1783 23.6107C93.547 22.366 92.8566 21.159 92.1123 19.9862L87.5372 24.5613L85.0013 22.0254L90.0319 16.993C89.216 15.9205 88.3515 14.8876 87.4386 13.8975L82.157 19.1811L79.6211 16.6452L84.9027 11.3616C83.9127 10.4506 82.8797 9.58617 81.8072 8.7683L76.7766 13.8007L74.2407 11.2648L78.8158 6.68967C77.6447 5.94536 76.4377 5.25499 75.193 4.62364L71.3964 8.42032L68.8605 5.88441L71.7013 3.04361C66.9969 1.16567 61.8873 0.093345 56.541 0L98.8036 42.2608C98.7104 36.9163 97.6379 31.8067 95.7584 27.1025Z" fill="#9AA4B2"/>
      <path d="M20.0072 52.0869C12.9428 52.858 9.38465 58.3927 7.60742 63.3032C9.00987 67.699 11.1262 71.8526 13.9204 75.6529C17.8463 76.4995 21.313 78.9564 23.3558 82.4789H23.3593C22.719 77.4948 24.0354 72.979 27.1864 69.2235C23.0722 64.5962 20.4395 58.6456 20.0072 52.0869Z" fill="#CDD5DF"/>
      <path d="M97.7203 46.2492L52.5541 1.08301C51.4296 1.9331 50.637 3.19754 50.4468 4.66269L94.1405 48.3581C95.6058 48.1681 96.8702 47.3737 97.7203 46.2492Z" fill="#9AA4B2"/>
      <path d="M50.3198 21.5894C64.7158 22.4467 76.2638 33.9372 77.2072 48.3116C80.3314 47.9763 83.009 46.6957 85.1951 44.4862L47.8825 7.17188C45.5653 7.20953 43.293 7.4337 41.0781 7.82652C46.6002 10.999 49.8032 15.7356 50.3198 21.5894Z" fill="#CDD5DF"/>
      <path d="M84.2643 89.6523L88.8107 80.5578L103.815 82.2238C101.229 77.9268 96.6697 75.3047 91.6498 75.3047C85.5934 75.3047 80.1645 79.1499 78.138 84.8691L77.7165 86.0653H21.1423L20.6563 85.043C18.879 81.3073 15.0678 78.8916 10.9466 78.8916C5.01213 78.8916 0.186035 83.7176 0.186035 89.6522C0.186035 95.5867 5.01213 100.413 10.9466 100.413C15.068 100.413 18.879 97.9987 20.6563 94.2613L21.1423 93.239H77.7146L78.1361 94.4353C80.1627 100.156 85.5915 104 91.6479 104C96.6676 104 101.227 101.378 103.813 97.0807L88.8088 98.7467L84.2643 89.6523ZM10.9447 95.0325C7.9729 95.0325 5.56432 92.624 5.56432 89.6522C5.56432 86.6803 7.9729 84.2718 10.9447 84.2718C13.9165 84.2718 16.3251 86.6803 16.3251 89.6522C16.3251 92.624 13.9165 95.0325 10.9447 95.0325Z" fill="#CDD5DF"/>
      <path d="M29.5946 28.7615C34.2126 24.6616 40.1454 22.0361 46.6843 21.5984C46.0727 15.8415 42.3209 11.677 35.4788 9.20752C26.4363 12.1129 18.6921 17.9308 13.3477 25.5548C19.4867 23.903 25.0965 24.9898 29.5946 28.7615Z" fill="#CDD5DF"/>
      <path d="M19.9981 48.4838C20.3872 41.9377 22.9662 35.9834 27.0321 31.3384C22.5342 27.7013 16.9403 27.4053 10.362 30.4883C7.30421 36.3978 5.56445 43.0962 5.56445 50.1966C5.56445 52.7505 5.80298 55.2649 6.23521 57.729C9.40613 52.2053 14.1443 49.0004 19.9981 48.4838Z" fill="#CDD5DF"/>
      <path d="M91.6247 50.9142L87.7329 47.0225C84.8706 49.926 81.3429 51.5545 77.2161 51.906C76.827 58.4538 74.248 64.4098 70.1821 69.0549C74.6837 72.6955 80.2774 72.9915 86.8576 69.9049C89.8797 64.0459 91.5135 57.5697 91.6247 50.9142Z" fill="#CDD5DF"/>
      <path d="M50.9132 55.0391L56.3025 60.4284L58.8384 57.8925L53.4491 52.5032C53.7845 51.802 53.9871 51.0255 53.9871 50.1969C53.9871 49.3684 53.7845 48.5918 53.4491 47.8906L58.8419 42.4978L56.306 39.9619L50.9132 45.3547C50.2119 45.0193 49.4354 44.8167 48.6069 44.8167C47.7783 44.8167 47.0018 45.0193 46.3006 45.3547L40.9041 39.96L38.3682 42.4959L43.7647 47.8924C43.4293 48.5936 43.2267 49.3701 43.2267 50.1987C43.2267 51.0272 43.4293 51.8037 43.7647 52.505L38.3718 57.8978L40.9077 60.4337L46.3006 55.0409C47.0018 55.3762 47.7783 55.5789 48.6069 55.5789C49.4354 55.5771 50.2119 55.3745 50.9132 55.0391Z" fill="#9AA4B2"/>
   </g>
   <defs>
      <clipPath id="clip0_2822_51754">
         <rect width="104" height="104" fill="white"/>
      </clipPath>
   </defs>
</svg>
