<svg width="14" height="40" fill="none" xmlns="http://www.w3.org/2000/svg"><path d="M13.587 35.002a.12.12 0 010 .035.135.135 0 01-.015.033.219.219 0 01-.058.058l-5.95 3.935a.307.307 0 01-.09.04.399.399 0 01-.2 0 .307.307 0 01-.09-.04l-5.95-3.935a.2.2 0 01-.06-.058.123.123 0 010-.134.192.192 0 01.055-.059.3.3 0 01.09-.04.4.4 0 01.292.035h.007l5.753 3.81 5.753-3.806a.301.301 0 01.09-.039.4.4 0 01.2 0 .313.313 0 01.123.066c.01.01.018.02.025.031a.14.14 0 01.02.033.122.122 0 01.005.035z" fill="#282B39"/><path d="M13.91 35.002a.26.26 0 01-.043.15.363.363 0 01-.054.066.482.482 0 01-.074.06l-5.946 3.937a.673.673 0 01-.197.087.874.874 0 01-.449 0 .673.673 0 01-.197-.087L1.006 35.28a.483.483 0 01-.13-.128.303.303 0 01-.035-.074.259.259 0 010-.152.298.298 0 01.033-.07A.486.486 0 011 34.73a.667.667 0 01.194-.088.867.867 0 01.446-.005.674.674 0 01.198.083l.003.002.003.002.003.002.003.002 5.522 3.65 5.525-3.651a.66.66 0 01.194-.086.867.867 0 01.446 0 .678.678 0 01.197.085.497.497 0 01.13.126.304.304 0 01.035.073c.008.025.012.05.012.077z" fill="#246EB2"/><path d="M13.587 35.002a.12.12 0 010 .035.135.135 0 01-.015.033.219.219 0 01-.058.058l-5.95 3.935a.307.307 0 01-.09.04.399.399 0 01-.2 0 .307.307 0 01-.09-.04l-5.95-3.935a.2.2 0 01-.06-.058.123.123 0 010-.134.192.192 0 01.055-.059.3.3 0 01.09-.04.4.4 0 01.292.035h.007l5.753 3.81 5.753-3.806a.301.301 0 01.09-.039.4.4 0 01.2 0 .313.313 0 01.123.066c.01.01.018.02.025.031a.14.14 0 01.02.033.122.122 0 01.005.035z" fill="#282B39"/><path d="M13.91 35.002a.26.26 0 01-.043.15.363.363 0 01-.054.066.482.482 0 01-.074.06l-5.946 3.937a.673.673 0 01-.197.087.874.874 0 01-.449 0 .673.673 0 01-.197-.087L1.006 35.28a.483.483 0 01-.13-.128.303.303 0 01-.035-.074.259.259 0 010-.152.298.298 0 01.033-.07A.486.486 0 011 34.73a.667.667 0 01.194-.088.867.867 0 01.446-.005.674.674 0 01.198.083l.003.002.003.002.003.002.003.002 5.522 3.65 5.525-3.651a.66.66 0 01.194-.086.867.867 0 01.446 0 .678.678 0 01.197.085.497.497 0 01.13.126.304.304 0 01.035.073c.008.025.012.05.012.077z" fill="#246EB2"/><path d="M4.202 3.159v-.017a.066.066 0 01.008-.016.085.085 0 01.016-.014l.017-.013L7.276 1.2a.16.16 0 01.046-.018.216.216 0 01.1 0 .16.16 0 01.045.019l3.033 1.9a.1.1 0 01.03.028c.007.01.011.02.012.032a.06.06 0 01-.01.033.093.093 0 01-.028.029.156.156 0 01-.045.019.21.21 0 01-.104.001.164.164 0 01-.045-.021L7.374 1.383 4.438 3.22a.161.161 0 01-.046.019.216.216 0 01-.1 0 .16.16 0 01-.046-.019l-.021-.008a.084.084 0 01-.015-.02.065.065 0 01-.008-.016v-.017z" fill="#282B39"/><path d="M3.812 3.159c0-.023.003-.044.01-.065a.249.249 0 01.03-.062.323.323 0 01.049-.057.435.435 0 01.066-.05l3.034-1.897a.613.613 0 01.174-.072.813.813 0 01.396 0c.064.016.123.04.174.072l3.032 1.895a.432.432 0 01.117.109c.014.02.024.04.031.062a.211.211 0 01.002.13.243.243 0 01-.028.06.421.421 0 01-.11.106.601.601 0 01-.172.075.807.807 0 01-.398.004.627.627 0 01-.177-.07l-.005-.004-.005-.003-2.659-1.664-2.66 1.665a.558.558 0 01-.172.072.77.77 0 01-.202.026.842.842 0 01-.202-.025.667.667 0 01-.171-.072.432.432 0 01-.067-.05.318.318 0 01-.048-.058.246.246 0 01-.03-.062.215.215 0 01-.01-.065z" fill="#246EB2"/><path d="M4.202 3.159v-.017a.066.066 0 01.008-.016.085.085 0 01.016-.014l.017-.013L7.276 1.2a.16.16 0 01.046-.018.216.216 0 01.1 0 .16.16 0 01.045.019l3.033 1.9a.1.1 0 01.03.028c.007.01.011.02.012.032a.06.06 0 01-.01.033.093.093 0 01-.028.029.156.156 0 01-.045.019.21.21 0 01-.104.001.164.164 0 01-.045-.021L7.374 1.383 4.438 3.22a.161.161 0 01-.046.019.216.216 0 01-.1 0 .16.16 0 01-.046-.019l-.021-.008a.084.084 0 01-.015-.02.065.065 0 01-.008-.016v-.017z" fill="#282B39"/><path d="M3.812 3.159c0-.023.003-.044.01-.065a.249.249 0 01.03-.062.323.323 0 01.049-.057.435.435 0 01.066-.05l3.034-1.897a.613.613 0 01.174-.072.813.813 0 01.396 0c.064.016.123.04.174.072l3.032 1.895a.432.432 0 01.117.109c.014.02.024.04.031.062a.211.211 0 01.002.13.243.243 0 01-.028.06.421.421 0 01-.11.106.601.601 0 01-.172.075.807.807 0 01-.398.004.627.627 0 01-.177-.07l-.005-.004-.005-.003-2.659-1.664-2.66 1.665a.558.558 0 01-.172.072.77.77 0 01-.202.026.842.842 0 01-.202-.025.667.667 0 01-.171-.072.432.432 0 01-.067-.05.318.318 0 01-.048-.058.246.246 0 01-.03-.062.215.215 0 01-.01-.065zM6.807 34.765l.002-3.348c0-.05.016-.099.044-.143a.407.407 0 01.12-.116.635.635 0 01.178-.078.816.816 0 01.436 0 .635.635 0 01.178.078c.05.033.092.073.12.116a.261.261 0 01.044.143l.003 3.348c0 .051-.016.1-.044.144a.408.408 0 01-.12.118.636.636 0 01-.18.079.822.822 0 01-.438 0 .636.636 0 01-.179-.08.408.408 0 01-.12-.117.264.264 0 01-.044-.144zm.005-6.663l.003-3.283c0-.05.015-.097.043-.14a.4.4 0 01.12-.114.633.633 0 01.176-.077.818.818 0 01.431 0 .633.633 0 01.176.077.4.4 0 01.12.114c.027.043.043.09.043.14l.003 3.283c0 .05-.016.098-.044.141a.402.402 0 01-.12.116.633.633 0 01-.177.077.823.823 0 01-.434 0 .633.633 0 01-.177-.077.402.402 0 01-.12-.116.257.257 0 01-.043-.141zm.005-6.535l.003-3.22c0-.05.016-.096.043-.138a.395.395 0 01.118-.112.628.628 0 01.175-.075.82.82 0 01.427 0 .628.628 0 01.175.075c.05.032.09.07.117.112a.248.248 0 01.044.137l.002 3.221a.25.25 0 01-.043.139.396.396 0 01-.118.113.633.633 0 01-.176.076.82.82 0 01-.43 0 .633.633 0 01-.175-.076.396.396 0 01-.118-.113.25.25 0 01-.044-.139zm.006-6.41l.002-3.16c0-.048.016-.094.043-.135a.388.388 0 01.117-.11.626.626 0 01.173-.074.818.818 0 01.423 0 .626.626 0 01.173.074c.05.031.089.069.117.11a.241.241 0 01.042.135l.003 3.16a.245.245 0 01-.043.136.39.39 0 01-.117.11.628.628 0 01-.174.075.818.818 0 01-.426 0 .628.628 0 01-.173-.075.39.39 0 01-.117-.11.245.245 0 01-.043-.136zm.005-6.29l.002-3.1c0-.048.016-.092.043-.133a.384.384 0 01.115-.108.623.623 0 01.172-.072.818.818 0 01.419 0 .623.623 0 01.171.072c.05.031.089.068.116.108.027.04.042.085.042.132l.003 3.1A.238.238 0 017.868 9a.386.386 0 01-.116.11.624.624 0 01-.172.073.818.818 0 01-.422 0 .624.624 0 01-.172-.074A.386.386 0 016.87 9a.238.238 0 01-.042-.133z" fill="#246EB2"/></svg>