<svg width="112" height="112" viewBox="0 0 112 112" fill="none" xmlns="http://www.w3.org/2000/svg">
   <path d="M55.9998 48.7373C51.9951 48.7373 48.7373 51.9954 48.7373 55.9998C49.1363 65.6346 62.8648 65.6318 63.2623 55.9998C63.2623 51.9951 60.0045 48.7373 55.9998 48.7373Z" fill="#CDD5DF"/>
   <path d="M52.3535 84.1174C54.7637 84.4267 57.2362 84.4267 59.6464 84.1174C59.1717 75.9878 57.1411 71.2298 56.0001 70.0186C54.8586 71.2298 52.8282 75.9878 52.3535 84.1174Z" fill="#CDD5DF"/>
   <path d="M43.8486 62.5894C39.5454 64.7823 35.052 65.6018 29.5142 66.1088C32.3916 73.622 38.3775 79.6079 45.8907 82.4853C46.2208 78.3214 46.9498 74.4848 48.0152 71.3967C48.4498 70.1367 48.919 69.0633 49.4101 68.1509C47.0638 66.8731 45.1263 64.9357 43.8486 62.5894Z" fill="#CDD5DF"/>
   <path d="M59.6459 27.8824C57.2357 27.5731 54.7632 27.5731 52.353 27.8824C52.8277 36.012 54.8584 40.77 55.9994 41.9812C57.1408 40.77 59.1712 36.012 59.6459 27.8824Z" fill="#CDD5DF"/>
   <path d="M27.8824 52.3535C27.5724 54.7622 27.5724 57.2378 27.8824 59.6464C36.0122 59.1717 40.77 57.1411 41.9813 56.0001C40.77 54.8586 36.0122 52.8282 27.8824 52.3535Z" fill="#CDD5DF"/>
   <path d="M43.8486 49.4101C45.1261 47.0636 47.0636 45.1263 49.4101 43.8486C48.919 42.9362 48.4498 41.8628 48.0152 40.6028C46.9498 37.5147 46.2208 33.6781 45.8907 29.5142C38.3775 32.3916 32.3916 38.3775 29.5142 45.8907C35.052 46.3975 39.5458 47.2174 43.8486 49.4101Z" fill="#CDD5DF"/>
   <path d="M108.718 45.6894C108.624 45.6894 108.552 45.6308 108.536 45.5498C108.52 45.4698 108.564 45.3875 108.64 45.356C110.34 44.6514 111.115 42.7253 110.427 41.0637L105.047 28.0754C104.358 26.4138 102.449 25.5996 100.748 26.3035C100.672 26.335 100.583 26.3081 100.538 26.2399C100.492 26.1714 100.501 26.0793 100.568 26.0124C101.849 24.7309 101.849 22.6535 100.568 21.372L90.6272 11.4314C89.3457 10.1499 87.2683 10.1499 85.9868 11.4314C85.9199 11.4983 85.8278 11.5075 85.7593 11.4616C85.6911 11.4165 85.6642 11.3273 85.6957 11.2511C86.3998 9.55057 85.5854 7.6411 83.9238 6.9527L70.9358 1.57254C69.2741 0.884355 67.348 1.65895 66.6434 3.35907C66.6117 3.43542 66.5297 3.47939 66.4496 3.46298C66.3687 3.44701 66.3101 3.37548 66.3101 3.28076C66.3101 1.46864 64.8409 -0.000488281 63.0288 -0.000488281H48.9704C47.1583 -0.000488281 45.6892 1.46864 45.6892 3.28076C45.6892 3.37548 45.6305 3.44701 45.5496 3.46298C45.4695 3.47939 45.3873 3.43542 45.3558 3.35907C44.6512 1.65873 42.7251 0.884355 41.0635 1.57254L28.0752 6.95248C26.4136 7.64089 25.5994 9.55035 26.3033 11.2509C26.3348 11.3273 26.3079 11.4163 26.2397 11.4614C26.1712 11.5073 26.0791 11.4981 26.0122 11.4312C24.7307 10.1497 22.6533 10.1497 21.3718 11.4312L11.4314 21.372C10.1499 22.6535 10.1499 24.7309 11.4314 26.0124C11.4983 26.0793 11.5075 26.1714 11.4616 26.2399C11.4165 26.3081 11.3273 26.335 11.2509 26.3035C9.55035 25.5994 7.64089 26.4138 6.95248 28.0754L1.57254 41.0637C0.884355 42.7253 1.65895 44.6514 3.35907 45.356C3.43542 45.3877 3.47939 45.4698 3.46298 45.5498C3.44701 45.6308 3.37548 45.6894 3.28076 45.6894C1.46864 45.6894 -0.000488281 47.1585 -0.000488281 48.9706V63.029C-0.000488281 64.8412 1.46864 66.3103 3.28076 66.3103C3.37548 66.3103 3.44701 66.3689 3.46298 66.4499C3.47939 66.5299 3.43542 66.6122 3.35907 66.6437C1.65873 67.3483 0.884355 69.2743 1.57254 70.936L6.95248 83.9243C7.64089 85.5859 9.55035 86.4001 11.2509 85.6961C11.3273 85.6646 11.4163 85.6915 11.4616 85.7598C11.5075 85.8282 11.4983 85.9203 11.4314 85.9873C10.1499 87.2687 10.1499 89.3462 11.4314 90.6276L21.372 100.568C22.6535 101.85 24.7309 101.85 26.0124 100.568C26.0793 100.501 26.1714 100.492 26.2399 100.538C26.3081 100.583 26.335 100.672 26.3035 100.749C25.5994 102.449 26.4138 104.359 28.0754 105.047L41.0637 110.427C42.7253 111.115 44.6514 110.341 45.356 108.641C45.3877 108.564 45.4698 108.52 45.5498 108.537C45.6308 108.553 45.6894 108.624 45.6894 108.719C45.6894 110.531 47.1585 112 48.9706 112H63.029C64.8412 112 66.3103 110.531 66.3103 108.719C66.3103 108.624 66.3689 108.553 66.4499 108.537C66.5299 108.52 66.6122 108.564 66.6437 108.641C67.3483 110.341 69.2743 111.115 70.936 110.427L83.9243 105.047C85.5859 104.359 86.4001 102.449 85.6961 100.749C85.6646 100.672 85.6915 100.583 85.7598 100.538C85.8282 100.492 85.9203 100.501 85.9873 100.568C87.2687 101.85 89.3462 101.85 90.6276 100.568L100.568 90.6276C101.85 89.3462 101.85 87.2687 100.568 85.9873C100.501 85.9203 100.492 85.8282 100.538 85.7598C100.583 85.6915 100.672 85.6646 100.749 85.6961C102.449 86.4003 104.359 85.5859 105.047 83.9243L110.427 70.936C111.115 69.2743 110.341 67.3483 108.641 66.6437C108.564 66.6119 108.52 66.5299 108.537 66.4499C108.553 66.3689 108.624 66.3103 108.719 66.3103C110.531 66.3103 112 64.8412 112 63.029V48.9706C112 47.1585 110.531 45.6894 108.718 45.6894ZM55.9997 90.9122C36.7489 90.9122 21.0872 75.2506 21.0872 55.9997C23.005 9.68357 89.0017 9.69692 90.9124 55.9999C90.9122 75.2506 75.2506 90.9122 55.9997 90.9122Z" fill="#CDD5DF"/>
   <path d="M68.1509 62.5894C66.8734 64.9359 64.9359 66.8731 62.5894 68.1509C63.0804 69.0633 63.5497 70.1367 63.9843 71.3967C65.0496 74.4848 65.7787 78.3214 66.1088 82.4853C73.622 79.6079 79.6079 73.622 82.4853 66.1088C76.9474 65.602 72.4537 64.7821 68.1509 62.5894Z" fill="#CDD5DF"/>
   <path d="M66.1088 29.5142C65.7787 33.6781 65.0496 37.5147 63.9843 40.6028C63.5497 41.8628 63.0804 42.9362 62.5894 43.8486C64.9359 45.1261 66.8731 47.0636 68.1509 49.4101C72.4541 47.2172 76.9472 46.3977 82.4853 45.8907C79.6079 38.3775 73.622 32.3916 66.1088 29.5142Z" fill="#CDD5DF"/>
   <path d="M84.1174 59.6459C84.4274 57.2373 84.4274 54.7617 84.1174 52.353C75.9876 52.8277 71.2298 54.8584 70.0186 55.9994C71.2298 57.1408 75.9876 59.1712 84.1174 59.6459Z" fill="#CDD5DF"/>
</svg>
