<svg width="488" height="360" viewBox="0 0 488 360" fill="none" xmlns="http://www.w3.org/2000/svg">
<path d="M485.142 316.361H2V316.603H485.142V316.361Z" fill="#4B5565"/>
<path d="M436.73 331.91H404.727V332.152H436.73V331.91Z" fill="#697586"/>
<path d="M392.559 331.91H324.137V332.152H392.559V331.91Z" fill="#697586"/>
<path d="M286.408 322.941H267.865V323.183H286.408V322.941Z" fill="#697586"/>
<path d="M85.8253 324.564H52.6914V324.806H85.8253V324.564Z" fill="#697586"/>
<path d="M154.672 324.564H94.4238V324.806H154.672V324.564Z" fill="#697586"/>
<path d="M219.551 328.643H183.982V328.884H219.551V328.643Z" fill="#697586"/>
<path d="M231.012 273.265H44.4317C42.97 273.263 41.5691 272.68 40.5364 271.646C39.5038 270.611 38.9238 269.21 38.9238 267.748V5.46917C38.9366 4.0159 39.5221 2.62634 40.5534 1.60231C41.5847 0.578281 42.9783 0.00248952 44.4317 0H231.012C232.475 0 233.878 0.581305 234.913 1.61603C235.948 2.65076 236.529 4.05416 236.529 5.51749V267.748C236.529 269.211 235.948 270.615 234.913 271.649C233.878 272.684 232.475 273.265 231.012 273.265ZM44.4317 0.193258C43.0341 0.195817 41.6946 0.752799 40.7073 1.74195C39.7199 2.7311 39.1654 4.07158 39.1654 5.46917V267.748C39.1654 269.145 39.7199 270.486 40.7073 271.475C41.6946 272.464 43.0341 273.021 44.4317 273.024H231.012C232.41 273.021 233.75 272.465 234.739 271.476C235.728 270.487 236.285 269.146 236.287 267.748V5.46917C236.285 4.0707 235.728 2.73023 234.739 1.74136C233.75 0.752485 232.41 0.195812 231.012 0.193258H44.4317Z" fill="#9AA4B2"/>
<path d="M440.025 273.265H253.435C251.973 273.263 250.571 272.681 249.537 271.646C248.503 270.612 247.921 269.21 247.918 267.748V5.46917C247.933 4.01502 248.521 2.62547 249.554 1.60171C250.587 0.577943 251.981 0.00246237 253.435 0H440.025C441.477 0.00502903 442.868 0.581944 443.897 1.6057C444.926 2.62946 445.51 4.01757 445.523 5.46917V267.748C445.523 269.208 444.945 270.608 443.914 271.642C442.883 272.677 441.485 273.26 440.025 273.265ZM253.435 0.193258C252.037 0.195812 250.697 0.752485 249.708 1.74136C248.719 2.73023 248.162 4.0707 248.16 5.46917V267.748C248.162 269.146 248.719 270.487 249.708 271.476C250.697 272.465 252.037 273.021 253.435 273.024H440.025C441.423 273.021 442.764 272.465 443.753 271.476C444.742 270.487 445.298 269.146 445.301 267.748V5.46917C445.298 4.0707 444.742 2.73023 443.753 1.74136C442.764 0.752485 441.423 0.195812 440.025 0.193258H253.435Z" fill="#9AA4B2"/>
<path d="M327.626 310.932H345.512V180.899H327.626V310.932Z" fill="#697586"/>
<path d="M145.057 316.354H342.082V310.933H145.057V316.354Z" fill="#697586"/>
<path d="M327.627 180.906H141.617V310.939H327.627V180.906Z" fill="#9AA4B2"/>
<path d="M327.626 180.906H345.512V176.171H327.626V180.906Z" fill="#9AA4B2"/>
<path d="M327.627 176.174H141.617V180.909H327.627V176.174Z" fill="#697586"/>
<path d="M321.205 220.12H148.057V190.842H321.205V220.12ZM149.255 218.912H320.007V192.05H149.255V218.912Z" fill="#697586"/>
<path d="M321.205 300.999H148.057V227.301H321.205V300.999ZM149.255 299.801H320.007V228.499H149.255V299.801Z" fill="#697586"/>
<path d="M171.381 195.297L297.877 195.297V191.451L171.381 191.451V195.297Z" fill="#697586"/>
<path d="M171.381 231.744L297.877 231.744V227.898L171.381 227.898V231.744Z" fill="#697586"/>
<path d="M408.709 312.911C408.329 312.908 407.965 312.756 407.698 312.486C407.43 312.216 407.279 311.851 407.279 311.471V88.1821C407.279 87.8028 407.43 87.439 407.698 87.1708C407.966 86.9026 408.33 86.752 408.709 86.752C409.089 86.752 409.452 86.9026 409.721 87.1708C409.989 87.439 410.139 87.8028 410.139 88.1821V311.471C410.139 311.851 409.989 312.216 409.721 312.486C409.453 312.756 409.09 312.908 408.709 312.911Z" fill="#9AA4B2"/>
<path d="M405.827 309.453H411.625C412.666 309.453 413.663 309.866 414.399 310.602C415.135 311.338 415.548 312.336 415.548 313.376V316.352H401.904V313.376C401.904 312.336 402.318 311.338 403.053 310.602C403.789 309.866 404.787 309.453 405.827 309.453Z" fill="#697586"/>
<path d="M380.92 117.887C380.92 117.887 381.625 90.5605 408.71 90.5605C435.795 90.5605 436.51 117.887 436.51 117.887H380.92Z" fill="#697586"/>
<path d="M78.43 312.911C78.0481 312.911 77.6819 312.759 77.4119 312.489C77.1419 312.219 76.9902 311.853 76.9902 311.471V88.1821C76.9928 87.8019 77.1456 87.4382 77.4153 87.1702C77.6851 86.9023 78.0498 86.7519 78.43 86.752C78.8093 86.752 79.173 86.9026 79.4412 87.1708C79.7094 87.439 79.8601 87.8028 79.8601 88.1821V311.471C79.8601 311.851 79.7097 312.216 79.4418 312.486C79.1739 312.756 78.8102 312.908 78.43 312.911Z" fill="#9AA4B2"/>
<path d="M75.5559 309.453H81.3536C82.3941 309.453 83.392 309.866 84.1277 310.602C84.8634 311.338 85.2768 312.336 85.2768 313.376V316.352H71.6328V313.376C71.6328 312.861 71.7343 312.351 71.9314 311.875C72.1286 311.399 72.4176 310.966 72.7819 310.602C73.1462 310.238 73.5786 309.949 74.0546 309.752C74.5306 309.555 75.0407 309.453 75.5559 309.453Z" fill="#697586"/>
<path d="M50.6309 117.887C50.6309 117.887 51.3362 90.5605 78.4309 90.5605C105.525 90.5605 106.221 117.887 106.221 117.887H50.6309Z" fill="#697586"/>
<path d="M278.406 174.125H209.664V176.174H278.406V174.125Z" fill="#697586"/>
<path d="M278.406 174.124H209.664L216.273 134.768H285.015L278.406 174.124Z" fill="#697586"/>
<path d="M277.132 174.124H208.391L215 134.768H283.742L277.132 174.124Z" fill="#4B5565"/>
<path d="M211 171.033L216.624 137.57C216.656 137.364 216.762 137.176 216.922 137.041C217.082 136.906 217.284 136.833 217.493 136.836H280.302C280.43 136.836 280.556 136.863 280.673 136.917C280.789 136.97 280.892 137.049 280.975 137.146C281.057 137.244 281.118 137.358 281.152 137.481C281.186 137.605 281.193 137.734 281.172 137.86L275.548 171.323C275.514 171.529 275.408 171.717 275.249 171.853C275.09 171.989 274.888 172.065 274.678 172.067H211.87C211.741 172.067 211.613 172.04 211.496 171.985C211.379 171.931 211.276 171.852 211.193 171.753C211.11 171.655 211.049 171.539 211.016 171.415C210.983 171.29 210.977 171.16 211 171.033Z" fill="#364152"/>
<path d="M262.851 174.125H194.109V176.174H262.851V174.125Z" fill="#697586"/>
<path d="M333.33 31.6562H151.205V90.5223H333.33V31.6562Z" fill="#4B5565"/>
<path d="M333.329 90.5117H335.938V31.6457H333.329V90.5117Z" fill="#697586"/>
<path d="M325.348 39.6289H159.176V82.5416H325.348V39.6289Z" fill="#364152"/>
<path d="M252.271 61.0851L242.268 51.082L232.265 61.0851L242.268 71.0881L252.271 61.0851Z" fill="#9AA4B2"/>
<path d="M225.417 61.0851L215.414 51.082L205.411 61.0851L215.414 71.0881L225.417 61.0851Z" fill="#9AA4B2"/>
<path d="M198.564 61.0851L188.561 51.082L178.558 61.0851L188.561 71.0881L198.564 61.0851Z" fill="#9AA4B2"/>
<path d="M279.122 61.0851L269.119 51.082L259.116 61.0851L269.119 71.0881L279.122 61.0851Z" fill="#9AA4B2"/>
<path d="M305.976 61.085L295.973 51.082L285.97 61.0851L295.973 71.0881L305.976 61.085Z" fill="#9AA4B2"/>
<path d="M243.574 360C347.046 360 430.927 355.102 430.927 349.061C430.927 343.02 347.046 338.123 243.574 338.123C140.101 338.123 56.2207 343.02 56.2207 349.061C56.2207 355.102 140.101 360 243.574 360Z" fill="#364152"/>
<path d="M352.703 65.7519C352.792 64.6347 352.647 63.5112 352.277 62.4533C351.907 61.3954 351.32 60.4263 350.554 59.6078C349.789 58.7894 348.861 58.1397 347.83 57.7002C346.799 57.2607 345.688 57.0411 344.567 57.0553H210.804C208.451 57.0888 206.196 57.9986 204.478 59.607C202.761 61.2153 201.705 63.4065 201.518 65.7519L198.445 112.085L179.187 254.525C178.999 255.61 179.055 256.722 179.349 257.783C179.644 258.843 180.17 259.825 180.89 260.657C181.611 261.489 182.507 262.151 183.514 262.594C184.521 263.038 185.614 263.252 186.715 263.222H320.487C322.892 263.158 325.198 262.252 327.004 260.663C328.81 259.074 330.002 256.902 330.372 254.525L349.63 112.085L352.703 65.7519Z" fill="#528BFF"/>
<path opacity="0.2" d="M352.703 65.7519C352.792 64.6347 352.647 63.5112 352.277 62.4533C351.907 61.3954 351.32 60.4263 350.554 59.6078C349.789 58.7894 348.861 58.1397 347.83 57.7002C346.799 57.2607 345.688 57.0411 344.567 57.0553H210.804C208.451 57.0888 206.196 57.9986 204.478 59.607C202.761 61.2153 201.705 63.4065 201.518 65.7519L198.445 112.085L179.187 254.525C178.999 255.61 179.055 256.722 179.349 257.783C179.644 258.843 180.17 259.825 180.89 260.657C181.611 261.489 182.507 262.151 183.514 262.594C184.521 263.038 185.614 263.252 186.715 263.222H320.487C322.892 263.158 325.198 262.252 327.004 260.663C328.81 259.074 330.002 256.902 330.372 254.525L349.63 112.085L352.703 65.7519Z" fill="black"/>
<path d="M315.725 263.234H181.953C180.853 263.263 179.761 263.047 178.755 262.603C177.748 262.159 176.853 261.497 176.133 260.666C175.413 259.834 174.887 258.853 174.591 257.793C174.296 256.734 174.24 255.622 174.426 254.538L193.684 112.088H344.869L325.61 254.528C325.243 256.907 324.052 259.081 322.245 260.672C320.439 262.263 318.132 263.17 315.725 263.234Z" fill="#528BFF"/>
<path d="M230.696 53.6562H210.771V54.6225H230.696V53.6562Z" fill="#528BFF"/>
<path d="M201.343 55.6565L200.938 54.7771C202.537 54.04 204.278 53.6576 206.039 53.6562V54.6225C204.418 54.6237 202.816 54.9764 201.343 55.6565Z" fill="#528BFF"/>
<path d="M339.819 57.0104H206.046C203.694 57.0438 201.438 57.9536 199.721 59.562C198.003 61.1703 196.948 63.3615 196.76 65.7069L193.688 112.089H344.872L347.936 65.7552C348.033 64.6355 347.894 63.5078 347.529 62.4447C347.164 61.3817 346.581 60.4069 345.816 59.5831C345.051 58.7593 344.123 58.1048 343.09 57.6617C342.057 57.2186 340.943 56.9967 339.819 57.0104Z" fill="#528BFF"/>
<path opacity="0.9" d="M201.154 100.744L203.299 68.3443C203.398 67.1092 203.954 65.9553 204.858 65.1082C205.762 64.2611 206.95 63.7819 208.189 63.7641H336.772C337.363 63.7554 337.948 63.8703 338.492 64.1014C339.035 64.3325 339.524 64.6747 339.927 65.1061C340.33 65.5375 340.639 66.0484 340.832 66.6061C341.026 67.1638 341.101 67.7559 341.053 68.3443L338.908 100.744C338.807 101.978 338.251 103.131 337.347 103.978C336.443 104.824 335.257 105.304 334.018 105.324H205.435C204.845 105.331 204.26 105.215 203.717 104.984C203.175 104.752 202.686 104.41 202.283 103.979C201.881 103.548 201.572 103.037 201.378 102.48C201.183 101.923 201.107 101.332 201.154 100.744Z" fill="#364152"/>
<g opacity="0.4">
<path d="M327.503 69.067L326.044 70.4295C326.008 70.4642 325.966 70.4915 325.92 70.5098C325.873 70.528 325.824 70.5369 325.774 70.5358H318.043C317.989 70.5371 317.935 70.5265 317.885 70.5048C317.835 70.4831 317.79 70.4508 317.754 70.4102L316.497 69.0574C316.445 69.0009 316.41 68.9303 316.396 68.8542C316.383 68.778 316.393 68.6997 316.423 68.6288C316.454 68.558 316.505 68.4977 316.57 68.4554C316.634 68.413 316.71 68.3905 316.787 68.3906H327.252C327.33 68.3915 327.406 68.4161 327.47 68.461C327.534 68.506 327.583 68.5693 327.61 68.6425C327.637 68.7158 327.642 68.7956 327.623 68.8713C327.604 68.9471 327.562 69.0154 327.503 69.067Z" fill="#528BFF"/>
<path d="M325.457 94.1804H314.992C314.913 94.1805 314.835 94.1567 314.769 94.1119C314.703 94.0672 314.653 94.0037 314.623 93.9296C314.594 93.8556 314.588 93.7744 314.605 93.6968C314.623 93.6192 314.664 93.5486 314.722 93.4944L316.171 92.1416C316.246 92.0747 316.342 92.037 316.442 92.0353H324.172C324.228 92.0338 324.283 92.0452 324.333 92.0687C324.383 92.0922 324.427 92.1271 324.462 92.1706L325.728 93.5234C325.777 93.5789 325.809 93.6469 325.821 93.7198C325.833 93.7928 325.825 93.8676 325.797 93.936C325.769 94.0044 325.722 94.0635 325.662 94.1067C325.602 94.1499 325.531 94.1754 325.457 94.1804Z" fill="#528BFF"/>
<path d="M326.472 81.5521L325.728 82.2575C325.653 82.3244 325.557 82.3621 325.457 82.3638H316.384C316.33 82.3627 316.277 82.3506 316.228 82.3283C316.179 82.306 316.135 82.274 316.099 82.2343C316.063 82.1945 316.035 82.1478 316.018 82.0969C316 82.0461 315.993 81.9923 315.997 81.9387L316.094 80.5762C316.101 80.4762 316.146 80.3828 316.22 80.3146C316.293 80.2465 316.39 80.2087 316.49 80.209H325.592C325.647 80.2084 325.701 80.2192 325.751 80.2409C325.801 80.2625 325.845 80.2945 325.882 80.3346L326.501 81.0014C326.535 81.0392 326.562 81.0836 326.58 81.1319C326.597 81.1803 326.604 81.2316 326.602 81.2828C326.599 81.3341 326.586 81.3843 326.564 81.4306C326.541 81.4768 326.51 81.5181 326.472 81.5521Z" fill="#528BFF"/>
<path d="M327.706 82.2947L326.942 92.7596C326.935 92.8359 326.906 92.9086 326.859 92.9688C326.811 93.0289 326.747 93.074 326.675 93.0986C326.602 93.1231 326.524 93.1261 326.449 93.1071C326.375 93.0881 326.308 93.0479 326.256 92.9915L325.01 91.6387C324.972 91.5988 324.943 91.5516 324.925 91.5001C324.907 91.4485 324.899 91.3937 324.903 91.3392L325.473 83.5606C325.475 83.5107 325.487 83.4618 325.509 83.4168C325.53 83.3719 325.561 83.332 325.599 83.2997L327.049 81.9469C327.109 81.8928 327.184 81.8585 327.265 81.8486C327.345 81.8388 327.427 81.8538 327.498 81.8917C327.57 81.9297 327.628 81.9886 327.665 82.0607C327.702 82.1327 327.716 82.2144 327.706 82.2947Z" fill="#528BFF"/>
<path d="M328.61 69.8799L327.847 80.3737C327.841 80.4509 327.813 80.5248 327.767 80.5863C327.72 80.6478 327.656 80.6943 327.583 80.72C327.51 80.7457 327.431 80.7494 327.356 80.7308C327.281 80.7122 327.213 80.6721 327.161 80.6153L325.904 79.2529C325.87 79.2133 325.844 79.1674 325.827 79.1176C325.81 79.0678 325.804 79.0153 325.808 78.963L326.368 71.1844C326.377 71.0852 326.422 70.9926 326.494 70.9235L327.943 69.561C328.001 69.5062 328.075 69.4702 328.154 69.4579C328.233 69.4455 328.314 69.4574 328.386 69.4919C328.458 69.5264 328.518 69.5819 328.558 69.6512C328.598 69.7204 328.616 69.8002 328.61 69.8799Z" fill="#528BFF"/>
</g>
<path opacity="0.4" d="M310.751 98.56C310.782 98.1992 310.945 97.8625 311.209 97.6146C311.473 97.3667 311.819 97.2251 312.181 97.2169H328.608C328.8 97.2151 328.99 97.253 329.167 97.3283C329.343 97.4036 329.503 97.5146 329.634 97.6544C329.766 97.7942 329.867 97.9596 329.932 98.1404C329.996 98.3212 330.023 98.5134 330.009 98.7049C329.978 99.0674 329.814 99.4054 329.548 99.6535C329.282 99.9016 328.933 100.042 328.569 100.048H312.181C311.986 100.057 311.791 100.024 311.61 99.9518C311.428 99.8794 311.264 99.7691 311.129 99.6282C310.994 99.4873 310.89 99.3191 310.825 99.1349C310.759 98.9507 310.734 98.7547 310.751 98.56Z" fill="#528BFF"/>
<path opacity="0.4" d="M290.208 98.56C290.239 98.1992 290.402 97.8625 290.666 97.6146C290.93 97.3667 291.276 97.2251 291.638 97.2169H308.065C308.257 97.2151 308.447 97.253 308.624 97.3283C308.8 97.4036 308.959 97.5146 309.091 97.6544C309.223 97.7942 309.324 97.9596 309.388 98.1404C309.453 98.3212 309.479 98.5134 309.466 98.7049C309.435 99.0674 309.271 99.4054 309.005 99.6535C308.739 99.9016 308.39 100.042 308.026 100.048H291.6C291.408 100.051 291.217 100.015 291.04 99.9396C290.863 99.8647 290.704 99.7536 290.573 99.6133C290.442 99.4731 290.342 99.3068 290.279 99.1254C290.216 98.944 290.192 98.7513 290.208 98.56Z" fill="#528BFF"/>
<path opacity="0.4" d="M269.663 98.5599C269.694 98.1991 269.857 97.8625 270.121 97.6146C270.385 97.3667 270.731 97.225 271.093 97.2168H287.52C287.711 97.2163 287.9 97.2553 288.076 97.3312C288.251 97.407 288.409 97.5183 288.54 97.6579C288.67 97.7975 288.771 97.9625 288.835 98.1427C288.899 98.3228 288.925 98.5142 288.912 98.7049C288.883 99.0681 288.719 99.4074 288.452 99.6559C288.186 99.9045 287.836 100.044 287.472 100.048H271.045C270.854 100.05 270.664 100.012 270.489 99.9366C270.313 99.8611 270.155 99.7497 270.025 99.6096C269.895 99.4695 269.795 99.3038 269.733 99.123C269.671 98.9422 269.647 98.7504 269.663 98.5599Z" fill="#528BFF"/>
<path opacity="0.4" d="M249.118 98.5599C249.149 98.1991 249.312 97.8625 249.576 97.6146C249.84 97.3667 250.186 97.225 250.548 97.2168H266.975C267.166 97.2163 267.355 97.2553 267.531 97.3312C267.706 97.407 267.864 97.5183 267.995 97.6579C268.125 97.7975 268.226 97.9625 268.29 98.1427C268.354 98.3228 268.38 98.5142 268.367 98.7049C268.338 99.0681 268.174 99.4074 267.907 99.6559C267.641 99.9045 267.291 100.044 266.927 100.048H250.5C250.309 100.05 250.119 100.012 249.944 99.9366C249.768 99.8611 249.61 99.7497 249.48 99.6096C249.35 99.4695 249.25 99.3038 249.188 99.123C249.126 98.9422 249.102 98.7504 249.118 98.5599Z" fill="#528BFF"/>
<path opacity="0.1" d="M203.749 178.153L209.798 133.443C210.024 131.977 210.757 130.638 211.87 129.658C212.982 128.678 214.404 128.119 215.886 128.08H260.596C261.274 128.061 261.948 128.194 262.569 128.467C263.19 128.741 263.742 129.149 264.186 129.662C264.63 130.175 264.954 130.781 265.135 131.435C265.316 132.088 265.35 132.774 265.234 133.443L259.185 178.153C258.961 179.617 258.23 180.957 257.119 181.937C256.008 182.917 254.588 183.476 253.107 183.516H208.387C207.709 183.534 207.035 183.402 206.415 183.128C205.794 182.855 205.241 182.446 204.798 181.933C204.354 181.42 204.029 180.815 203.848 180.161C203.667 179.507 203.633 178.821 203.749 178.153Z" fill="#1B2434"/>
<path opacity="0.1" d="M267.446 178.153L273.524 133.443C273.75 131.978 274.483 130.638 275.596 129.658C276.709 128.678 278.13 128.119 279.612 128.08H324.322C325.001 128.06 325.675 128.191 326.297 128.464C326.919 128.737 327.472 129.145 327.916 129.659C328.36 130.172 328.685 130.779 328.865 131.433C329.046 132.088 329.078 132.774 328.96 133.443L322.921 178.153C322.693 179.618 321.96 180.956 320.847 181.936C319.735 182.916 318.315 183.475 316.833 183.516H272.075C271.397 183.535 270.723 183.403 270.103 183.129C269.482 182.855 268.931 182.447 268.487 181.933C268.044 181.42 267.721 180.814 267.541 180.161C267.361 179.507 267.329 178.821 267.446 178.153Z" fill="#1B2434"/>
<path opacity="0.1" d="M195.144 241.852L201.193 197.122C201.421 195.658 202.155 194.319 203.267 193.34C204.379 192.36 205.799 191.801 207.281 191.76H251.991C252.669 191.741 253.343 191.873 253.964 192.147C254.585 192.421 255.137 192.829 255.581 193.342C256.025 193.855 256.349 194.46 256.53 195.114C256.712 195.768 256.745 196.454 256.629 197.122L250.58 241.842C250.354 243.305 249.622 244.642 248.511 245.62C247.401 246.599 245.982 247.156 244.502 247.195H199.783C199.106 247.213 198.434 247.081 197.815 246.809C197.196 246.536 196.645 246.13 196.201 245.619C195.758 245.108 195.433 244.505 195.25 243.854C195.068 243.203 195.031 242.519 195.144 241.852Z" fill="#1B2434"/>
<path opacity="0.1" d="M258.842 241.852L264.881 197.122C265.108 195.658 265.842 194.319 266.954 193.34C268.066 192.36 269.487 191.801 270.968 191.76H315.678C316.357 191.741 317.031 191.873 317.651 192.147C318.272 192.421 318.825 192.829 319.268 193.342C319.712 193.855 320.036 194.46 320.218 195.114C320.399 195.768 320.433 196.454 320.317 197.122L314.277 241.842C314.048 243.305 313.313 244.641 312.201 245.619C311.089 246.597 309.67 247.155 308.19 247.195H263.47C262.794 247.214 262.122 247.082 261.503 246.809C260.885 246.537 260.334 246.13 259.891 245.619C259.448 245.108 259.125 244.505 258.943 243.853C258.762 243.202 258.727 242.518 258.842 241.852Z" fill="#1B2434"/>
<path d="M200.779 178.153L206.857 133.443C207.082 131.977 207.816 130.638 208.928 129.658C210.041 128.678 211.462 128.119 212.944 128.08H257.654C258.332 128.061 259.006 128.194 259.627 128.467C260.248 128.741 260.8 129.149 261.244 129.662C261.688 130.175 262.012 130.781 262.193 131.435C262.375 132.088 262.408 132.774 262.292 133.443L256.243 178.153C256.02 179.617 255.288 180.957 254.177 181.937C253.066 182.917 251.646 183.476 250.165 183.516H205.417C204.739 183.534 204.065 183.402 203.444 183.128C202.823 182.855 202.271 182.446 201.827 181.933C201.383 181.42 201.059 180.815 200.877 180.161C200.696 179.507 200.662 178.821 200.779 178.153Z" fill="#528BFF"/>
<path opacity="0.2" d="M200.779 178.153L206.857 133.443C207.082 131.977 207.816 130.638 208.928 129.658C210.041 128.678 211.462 128.119 212.944 128.08H257.654C258.332 128.061 259.006 128.194 259.627 128.467C260.248 128.741 260.8 129.149 261.244 129.662C261.688 130.175 262.012 130.781 262.193 131.435C262.375 132.088 262.408 132.774 262.292 133.443L256.243 178.153C256.02 179.617 255.288 180.957 254.177 181.937C253.066 182.917 251.646 183.476 250.165 183.516H205.417C204.739 183.534 204.065 183.402 203.444 183.128C202.823 182.855 202.271 182.446 201.827 181.933C201.383 181.42 201.059 180.815 200.877 180.161C200.696 179.507 200.662 178.821 200.779 178.153Z" fill="#364152"/>
<path d="M264.476 178.153L270.515 133.443C270.741 131.978 271.474 130.638 272.587 129.658C273.699 128.678 275.12 128.119 276.603 128.08H321.313C321.991 128.06 322.666 128.191 323.288 128.464C323.91 128.737 324.463 129.145 324.907 129.659C325.351 130.172 325.675 130.779 325.856 131.433C326.036 132.088 326.069 132.774 325.951 133.443L319.912 178.153C319.684 179.618 318.95 180.956 317.838 181.936C316.726 182.916 315.306 183.475 313.824 183.516H269.104C268.426 183.535 267.753 183.403 267.132 183.129C266.512 182.855 265.96 182.447 265.517 181.933C265.074 181.42 264.75 180.814 264.57 180.161C264.39 179.507 264.358 178.821 264.476 178.153Z" fill="#528BFF"/>
<path opacity="0.2" d="M264.476 178.153L270.515 133.443C270.741 131.978 271.474 130.638 272.587 129.658C273.699 128.678 275.12 128.119 276.603 128.08H321.313C321.991 128.06 322.666 128.191 323.288 128.464C323.91 128.737 324.463 129.145 324.907 129.659C325.351 130.172 325.675 130.779 325.856 131.433C326.036 132.088 326.069 132.774 325.951 133.443L319.912 178.153C319.684 179.618 318.95 180.956 317.838 181.936C316.726 182.916 315.306 183.475 313.824 183.516H269.104C268.426 183.535 267.753 183.403 267.132 183.129C266.512 182.855 265.96 182.447 265.517 181.933C265.074 181.42 264.75 180.814 264.57 180.161C264.39 179.507 264.358 178.821 264.476 178.153Z" fill="#364152"/>
<path d="M192.166 241.852L198.215 197.122C198.442 195.658 199.176 194.319 200.288 193.34C201.4 192.36 202.821 191.801 204.302 191.76H249.012C249.691 191.741 250.365 191.873 250.985 192.147C251.606 192.421 252.159 192.829 252.602 193.342C253.046 193.855 253.37 194.46 253.552 195.114C253.733 195.768 253.767 196.454 253.651 197.122L247.602 241.842C247.376 243.305 246.644 244.642 245.533 245.62C244.422 246.599 243.003 247.156 241.524 247.195H196.804C196.128 247.213 195.456 247.081 194.837 246.809C194.217 246.536 193.666 246.13 193.223 245.619C192.779 245.108 192.455 244.505 192.272 243.854C192.089 243.203 192.053 242.519 192.166 241.852Z" fill="#528BFF"/>
<path opacity="0.2" d="M192.166 241.852L198.215 197.122C198.442 195.658 199.176 194.319 200.288 193.34C201.4 192.36 202.821 191.801 204.302 191.76H249.012C249.691 191.741 250.365 191.873 250.985 192.147C251.606 192.421 252.159 192.829 252.602 193.342C253.046 193.855 253.37 194.46 253.552 195.114C253.733 195.768 253.767 196.454 253.651 197.122L247.602 241.842C247.376 243.305 246.644 244.642 245.533 245.62C244.422 246.599 243.003 247.156 241.524 247.195H196.804C196.128 247.213 195.456 247.081 194.837 246.809C194.217 246.536 193.666 246.13 193.223 245.619C192.779 245.108 192.455 244.505 192.272 243.854C192.089 243.203 192.053 242.519 192.166 241.852Z" fill="#364152"/>
<path d="M255.863 241.852L261.931 197.122C262.159 195.658 262.893 194.319 264.005 193.34C265.117 192.36 266.537 191.801 268.019 191.76H312.729C313.407 191.741 314.081 191.873 314.702 192.147C315.323 192.421 315.875 192.829 316.319 193.342C316.763 193.855 317.087 194.46 317.268 195.114C317.449 195.768 317.483 196.454 317.367 197.122L311.328 241.842C311.098 243.305 310.364 244.641 309.252 245.619C308.14 246.597 306.72 247.155 305.24 247.195H260.492C259.816 247.214 259.144 247.082 258.525 246.809C257.906 246.537 257.355 246.13 256.913 245.619C256.47 245.108 256.146 244.505 255.965 243.853C255.783 243.202 255.748 242.518 255.863 241.852Z" fill="#528BFF"/>
<path opacity="0.2" d="M255.863 241.852L261.931 197.122C262.159 195.658 262.893 194.319 264.005 193.34C265.117 192.36 266.537 191.801 268.019 191.76H312.729C313.407 191.741 314.081 191.873 314.702 192.147C315.323 192.421 315.875 192.829 316.319 193.342C316.763 193.855 317.087 194.46 317.268 195.114C317.449 195.768 317.483 196.454 317.367 197.122L311.328 241.842C311.098 243.305 310.364 244.641 309.252 245.619C308.14 246.597 306.72 247.155 305.24 247.195H260.492C259.816 247.214 259.144 247.082 258.525 246.809C257.906 246.537 257.355 246.13 256.913 245.619C256.47 245.108 256.146 244.505 255.965 243.853C255.783 243.202 255.748 242.518 255.863 241.852Z" fill="#364152"/>
<path d="M228.999 174.404C228.322 174.42 227.65 174.285 227.031 174.01C226.411 173.735 225.861 173.327 225.417 172.815C224.974 172.303 224.65 171.699 224.467 171.046C224.285 170.394 224.248 169.71 224.361 169.042L227.946 142.565C228.175 141.101 228.909 139.762 230.02 138.781C231.132 137.8 232.551 137.238 234.033 137.193C234.712 137.176 235.386 137.309 236.007 137.584C236.628 137.859 237.18 138.268 237.623 138.782C238.067 139.296 238.391 139.902 238.572 140.556C238.754 141.21 238.788 141.896 238.672 142.565L235.096 169.042C234.865 170.506 234.129 171.844 233.015 172.823C231.902 173.802 230.481 174.362 228.999 174.404Z" fill="#364152"/>
<path d="M212.912 155.8C213.143 154.334 213.879 152.995 214.992 152.014C216.105 151.033 217.526 150.472 219.009 150.427H245.505C246.183 150.412 246.856 150.546 247.476 150.822C248.096 151.097 248.647 151.506 249.09 152.02C249.534 152.533 249.858 153.138 250.04 153.792C250.222 154.445 250.257 155.131 250.143 155.8C249.912 157.263 249.177 158.599 248.065 159.578C246.954 160.557 245.536 161.118 244.055 161.162H217.579C216.899 161.182 216.224 161.05 215.601 160.778C214.978 160.505 214.424 160.097 213.978 159.584C213.531 159.071 213.204 158.466 213.02 157.812C212.836 157.157 212.799 156.47 212.912 155.8Z" fill="#364152"/>
<path d="M207.974 232.643C206.167 230.556 206.631 227.145 208.998 225.058L230.256 206.331C232.624 204.244 236.054 204.244 237.842 206.331C239.649 208.418 239.185 211.839 236.817 213.926L215.559 232.643C213.192 234.73 209.752 234.73 207.974 232.643Z" fill="#364152"/>
<path d="M211.531 206.331C213.899 204.244 217.329 204.244 219.126 206.331L235.312 225.058C237.119 227.145 236.655 230.556 234.287 232.643C231.92 234.73 228.49 234.73 226.702 232.643L210.507 213.926C208.7 211.839 209.164 208.418 211.531 206.331Z" fill="#364152"/>
<path d="M276.599 155.8C276.83 154.334 277.566 152.995 278.679 152.014C279.793 151.034 281.213 150.472 282.696 150.427H309.173C309.851 150.41 310.525 150.544 311.146 150.819C311.767 151.093 312.319 151.502 312.763 152.016C313.206 152.53 313.53 153.136 313.712 153.79C313.893 154.445 313.927 155.131 313.811 155.8C313.58 157.263 312.845 158.599 311.734 159.578C310.622 160.557 309.204 161.118 307.723 161.163H281.257C280.578 161.181 279.904 161.048 279.282 160.775C278.66 160.501 278.107 160.093 277.662 159.581C277.217 159.068 276.891 158.463 276.707 157.809C276.523 157.156 276.486 156.469 276.599 155.8Z" fill="#364152"/>
<path d="M269.124 211.141C269.356 209.677 270.092 208.339 271.205 207.36C272.319 206.381 273.739 205.821 275.221 205.778H301.698C302.375 205.763 303.047 205.898 303.666 206.173C304.285 206.448 304.836 206.856 305.279 207.368C305.722 207.88 306.047 208.484 306.229 209.137C306.412 209.789 306.448 210.473 306.336 211.141C306.107 212.606 305.373 213.945 304.261 214.926C303.15 215.907 301.73 216.469 300.248 216.514H273.762C273.084 216.529 272.411 216.394 271.791 216.119C271.171 215.844 270.62 215.435 270.177 214.921C269.733 214.408 269.409 213.803 269.227 213.149C269.045 212.496 269.01 211.81 269.124 211.141Z" fill="#364152"/>
<path d="M266.872 227.829C267.103 226.366 267.838 225.03 268.949 224.051C270.061 223.071 271.479 222.511 272.96 222.466H299.436C300.114 222.45 300.787 222.583 301.408 222.857C302.028 223.132 302.58 223.539 303.024 224.052C303.468 224.565 303.794 225.169 303.977 225.822C304.16 226.475 304.197 227.16 304.084 227.829C303.853 229.295 303.117 230.634 302.004 231.614C300.89 232.595 299.47 233.157 297.987 233.202H271.51C270.832 233.219 270.158 233.085 269.537 232.81C268.916 232.536 268.364 232.126 267.92 231.613C267.477 231.099 267.153 230.493 266.971 229.839C266.79 229.184 266.756 228.498 266.872 227.829Z" fill="#364152"/>
<path d="M130.863 120.493C129.124 123.72 127.336 127.199 125.703 130.6C124.07 134.002 122.495 137.471 121.142 140.94C120.785 141.809 120.495 142.679 120.176 143.549C120.007 143.994 119.909 144.464 119.886 144.94C119.847 146.311 120.101 147.675 120.63 148.94C122.014 152.192 123.852 155.231 126.09 157.966L122.795 161.831C121.876 161.238 120.992 160.592 120.147 159.898C119.298 159.233 118.489 158.52 117.722 157.763C116.094 156.201 114.669 154.442 113.48 152.525C112.095 150.327 111.23 147.842 110.948 145.259C110.81 143.771 110.931 142.27 111.305 140.824C111.576 139.857 111.827 138.794 112.137 137.799C113.321 133.849 114.75 129.976 116.417 126.204C117.248 124.339 118.098 122.493 119.036 120.677C119.973 118.86 120.872 117.101 121.993 115.246L130.863 120.493Z" fill="#FF8B7B"/>
<path d="M124.719 156.855L129.551 158.131L125.956 165.117C125.956 165.117 122.362 163.745 121.473 160.585L124.719 156.855Z" fill="#FF8B7B"/>
<path d="M136.217 160.332L131.888 165.811L125.965 165.115L129.559 158.129L136.217 160.332Z" fill="#FF8B7B"/>
<path d="M153.652 83.64C153.758 84.1811 154.135 84.5579 154.483 84.4903C154.831 84.4227 155.034 83.9202 154.918 83.3887C154.802 82.8573 154.435 82.4225 154.087 82.5384C153.739 82.6544 153.536 83.0989 153.652 83.64Z" fill="#364152"/>
<path d="M154.084 84.5664C155.057 86.0799 156.234 87.4521 157.582 88.6441C157.264 88.974 156.878 89.2312 156.451 89.3979C156.024 89.5647 155.566 89.6372 155.108 89.6104L154.084 84.5664Z" fill="#FF5652"/>
<path d="M154.807 88.22C153.232 88.22 151.666 86.5 151.193 84.1423C150.934 82.9916 151.012 81.7911 151.415 80.683C151.527 80.2266 151.767 79.8115 152.106 79.4859C152.444 79.1602 152.869 78.9374 153.329 78.8433C153.789 78.7492 154.267 78.7876 154.707 78.9542C155.146 79.1208 155.529 79.4086 155.812 79.7843C156.596 80.6612 157.133 81.7311 157.367 82.8841C157.602 84.0372 157.525 85.2318 157.145 86.3454C157.006 86.7909 156.756 87.1934 156.418 87.5148C156.079 87.8361 155.664 88.0656 155.212 88.1813C155.079 88.2073 154.943 88.2202 154.807 88.22ZM153.763 79.0499C153.635 79.0356 153.505 79.0356 153.376 79.0499C152.968 79.1603 152.594 79.3725 152.29 79.6665C151.986 79.9605 151.761 80.3269 151.637 80.7313C151.252 81.7966 151.178 82.9496 151.425 84.0553C151.917 86.5 153.599 88.2296 155.183 87.9204C155.593 87.8125 155.968 87.6013 156.273 87.3069C156.577 87.0125 156.801 86.6448 156.923 86.2391C157.286 85.1699 157.359 84.0236 157.135 82.9169C156.911 81.8101 156.398 80.7826 155.647 79.9389C155.408 79.6731 155.118 79.4577 154.794 79.3051C154.471 79.1524 154.12 79.0657 153.763 79.0499Z" fill="#364152"/>
<path d="M204.572 139.334L210.766 138.02L211.568 146.426C211.568 146.426 206.215 147.45 203.654 143.218L204.572 139.334Z" fill="#FF8B7B"/>
<path d="M216.623 139.904L216.227 146.04L211.57 146.426L210.768 138.02L216.623 139.904Z" fill="#FF8B7B"/>
<path d="M151.068 81.0594C151.028 81.0596 150.989 81.052 150.953 81.0371C150.916 81.0222 150.883 81.0002 150.855 80.9724C150.824 80.9435 150.799 80.9084 150.782 80.8693C150.765 80.8302 150.756 80.788 150.756 80.7454C150.756 80.7027 150.765 80.6605 150.782 80.6214C150.799 80.5824 150.824 80.5472 150.855 80.5183C151.193 80.1358 151.618 79.8397 152.093 79.6548C152.569 79.4699 153.082 79.4015 153.59 79.4554C153.632 79.4613 153.672 79.4755 153.709 79.4972C153.745 79.519 153.777 79.5478 153.802 79.582C153.828 79.6162 153.846 79.6551 153.856 79.6964C153.866 79.7377 153.867 79.7806 153.86 79.8226C153.844 79.9072 153.796 79.9823 153.726 80.0326C153.656 80.0829 153.569 80.1046 153.483 80.0931C153.082 80.0535 152.676 80.111 152.301 80.2606C151.926 80.4103 151.593 80.6478 151.329 80.9531C151.295 80.988 151.254 81.0155 151.209 81.0339C151.165 81.0522 151.116 81.0609 151.068 81.0594Z" fill="#364152"/>
<path d="M138.731 93.418C139.698 98.3943 140.297 105.284 136.799 108.598C136.799 108.598 138.152 113.642 147.428 113.642C157.593 113.642 152.317 109.217 152.317 109.217C148.095 107.903 148.133 103.1 149.1 99.235L138.731 93.418Z" fill="#FF8B7B"/>
<path d="M149.166 107.389C151.446 105.747 154.819 103.824 155.524 105.834C155.949 107.042 156.123 112.946 153.775 112.501C150.306 111.854 149.166 107.389 149.166 107.389Z" fill="#364152"/>
<path d="M134.913 111.922C134.005 110.647 134.044 106.598 135.01 105.883C136.566 104.733 143.233 104.463 152.22 106.531C151.253 110.454 153.331 112.512 153.331 112.512L134.913 111.922Z" fill="#528BFF"/>
<path d="M104.71 341.328C104.984 341.425 105.275 341.466 105.565 341.45C105.855 341.433 106.139 341.359 106.401 341.231C106.504 341.141 106.576 341.02 106.603 340.885C106.631 340.751 106.615 340.611 106.555 340.487C106.529 340.383 106.478 340.285 106.408 340.203C106.337 340.121 106.249 340.056 106.15 340.014C105.183 339.569 103.116 340.429 103.029 340.468C103 340.48 102.975 340.5 102.958 340.526C102.941 340.552 102.932 340.582 102.932 340.613C102.93 340.644 102.937 340.676 102.953 340.703C102.968 340.73 102.991 340.753 103.019 340.768C103.563 341.008 104.129 341.196 104.71 341.328ZM105.821 340.236L106.005 340.304C106.064 340.328 106.117 340.364 106.16 340.411C106.204 340.458 106.236 340.514 106.256 340.574C106.343 340.864 106.256 340.961 106.198 340.99C105.831 341.299 104.468 340.99 103.521 340.632C104.249 340.331 105.035 340.196 105.821 340.236Z" fill="#528BFF"/>
<path d="M103.06 340.778H103.137C103.91 340.546 105.553 339.377 105.572 338.614C105.573 338.492 105.532 338.374 105.456 338.28C105.381 338.185 105.275 338.118 105.156 338.092C105.04 338.049 104.916 338.032 104.792 338.042C104.669 338.052 104.549 338.089 104.441 338.15C103.533 338.614 102.963 340.488 102.944 340.575C102.938 340.596 102.936 340.618 102.939 340.64C102.941 340.661 102.948 340.682 102.959 340.701C102.97 340.72 102.984 340.736 103.002 340.75C103.019 340.763 103.038 340.773 103.06 340.778ZM104.992 338.372H105.06C105.263 338.44 105.263 338.536 105.263 338.585C105.263 339.039 104.161 339.957 103.33 340.324C103.537 339.57 103.969 338.896 104.567 338.392C104.698 338.331 104.847 338.324 104.982 338.372H104.992Z" fill="#528BFF"/>
<path d="M154.887 342.468C155.767 342.468 156.607 342.343 156.887 341.956C156.958 341.852 156.996 341.729 156.996 341.604C156.996 341.478 156.958 341.355 156.887 341.251C156.832 341.156 156.758 341.074 156.67 341.01C156.582 340.945 156.482 340.899 156.375 340.874C155.245 340.565 152.868 341.918 152.771 341.976C152.743 341.992 152.719 342.016 152.704 342.045C152.688 342.074 152.682 342.107 152.684 342.14C152.691 342.173 152.707 342.204 152.731 342.228C152.756 342.252 152.786 342.268 152.819 342.275C153.502 342.401 154.194 342.466 154.887 342.468ZM155.969 341.145C156.072 341.134 156.176 341.134 156.279 341.145C156.41 341.175 156.524 341.254 156.598 341.367C156.714 341.57 156.665 341.666 156.598 341.724C156.279 342.169 154.559 342.178 153.303 341.995C154.129 341.543 155.034 341.255 155.969 341.145Z" fill="#528BFF"/>
<path d="M152.836 342.276H152.904C153.725 341.909 155.349 340.44 155.223 339.667C155.223 339.483 155.069 339.261 154.624 339.222C154.464 339.204 154.301 339.219 154.147 339.265C153.992 339.312 153.849 339.389 153.725 339.493C153.112 340.236 152.744 341.151 152.672 342.112C152.671 342.134 152.674 342.156 152.682 342.178C152.689 342.199 152.701 342.218 152.717 342.234C152.732 342.25 152.751 342.263 152.771 342.272C152.792 342.281 152.814 342.286 152.836 342.286V342.276ZM154.489 339.522H154.585C154.875 339.522 154.895 339.657 154.904 339.696C154.982 340.16 153.87 341.319 153.039 341.822C153.113 341.046 153.427 340.313 153.938 339.725C154.089 339.59 154.286 339.518 154.489 339.522Z" fill="#528BFF"/>
<path d="M145.357 342.12H152.16L152.836 326.379H146.034L145.357 342.12Z" fill="#FF8B7B"/>
<path d="M95.4824 338.971L102.121 340.411L108.798 325.752L102.15 324.312L95.4824 338.971Z" fill="#FF8B7B"/>
<path d="M102.756 339.744L95.2961 338.131C95.1642 338.102 95.0266 338.119 94.9056 338.179C94.7846 338.239 94.6873 338.337 94.6294 338.459L92.0397 344.083C91.9708 344.219 91.9351 344.37 91.9356 344.522C91.936 344.675 91.9726 344.825 92.0424 344.961C92.1121 345.097 92.2131 345.214 92.3369 345.303C92.4607 345.392 92.6039 345.451 92.7548 345.474C95.3734 345.986 96.6779 346.112 99.9536 346.817C101.973 347.262 106.534 348.373 109.317 348.972C112.1 349.571 113.066 346.895 111.984 346.402C107.152 344.17 105.065 342.208 103.751 340.382C103.509 340.054 103.155 339.827 102.756 339.744Z" fill="#364152"/>
<path d="M152.112 341.328H144.691C144.555 341.327 144.424 341.373 144.319 341.457C144.213 341.542 144.14 341.66 144.111 341.792L142.768 347.86C142.728 348.006 142.724 348.159 142.754 348.307C142.785 348.455 142.85 348.594 142.944 348.713C143.038 348.831 143.158 348.926 143.295 348.989C143.433 349.053 143.583 349.083 143.734 349.078C146.411 349.029 150.285 348.875 153.648 348.875C157.581 348.875 160.982 349.087 165.601 349.087C168.384 349.087 169.167 346.266 167.997 346.005C162.673 344.845 158.335 344.72 153.745 341.889C153.263 341.554 152.698 341.36 152.112 341.328Z" fill="#364152"/>
<path d="M124.644 110.153C118.276 111.612 113.049 127.875 113.049 127.875L125.842 137.625C129.148 134.095 131.479 129.766 132.606 125.063C134.79 116.521 131.157 108.646 124.644 110.153Z" fill="#528BFF"/>
<path opacity="0.4" d="M124.644 110.153C118.276 111.612 113.049 127.875 113.049 127.875L125.842 137.625C129.148 134.095 131.479 129.766 132.606 125.063C134.79 116.521 131.157 108.646 124.644 110.153Z" fill="#364152"/>
<path d="M162.842 117.883L173.578 127.758C175.365 129.401 177.153 131.034 178.95 132.638C180.748 134.242 182.545 135.846 184.275 137.237L182.777 136.435C183.608 136.745 184.477 137.044 185.395 137.286C186.313 137.527 187.26 137.73 188.236 137.924C190.244 138.287 192.27 138.549 194.305 138.706C196.382 138.88 198.508 138.996 200.643 139.054C202.779 139.112 204.992 139.16 207.089 139.17L208.055 144.175C205.848 144.976 203.588 145.622 201.291 146.108C198.989 146.605 196.659 146.96 194.314 147.171C191.908 147.391 189.488 147.426 187.077 147.277C184.514 147.13 181.975 146.692 179.511 145.973L178.786 145.76L178.023 145.171C175.897 143.538 174.013 141.943 172.119 140.339C170.225 138.735 168.389 137.073 166.553 135.421C162.9 132.097 159.277 128.792 155.73 125.362L162.842 117.883Z" fill="#FF8B7B"/>
<path opacity="0.2" d="M130.103 122.098C126.644 125.518 125.513 131.761 125.271 137.172L125.842 137.607C129.145 134.075 131.475 129.747 132.606 125.045C132.731 124.542 132.847 124.079 132.934 123.528L130.103 122.098Z" fill="black"/>
<path d="M164.9 116.918C166.291 124.262 167.161 139.345 163.122 169.203H126.77C126.519 163.628 130.027 136.398 124.645 110.106C128.666 109.333 132.733 108.82 136.82 108.569C141.969 108.274 147.131 108.274 152.28 108.569C153.981 108.724 155.653 108.975 157.112 109.236C159.034 109.579 160.807 110.497 162.198 111.869C163.588 113.24 164.53 115 164.9 116.918Z" fill="#528BFF"/>
<path opacity="0.4" d="M164.9 116.918C166.291 124.262 167.161 139.345 163.122 169.203H126.77C126.519 163.628 130.027 136.398 124.645 110.106C128.666 109.333 132.733 108.82 136.82 108.569C141.969 108.274 147.131 108.274 152.28 108.569C153.981 108.724 155.653 108.975 157.112 109.236C159.034 109.579 160.807 110.497 162.198 111.869C163.588 113.24 164.53 115 164.9 116.918Z" fill="#364152"/>
<path opacity="0.2" d="M159.334 127.809L165.904 126.234C166.107 130.215 166.127 135.144 165.827 141.241C162.803 137.801 158.947 132.428 159.334 127.809Z" fill="black"/>
<path opacity="0.2" d="M152.838 326.379L152.49 334.496H145.688L146.035 326.379H152.838Z" fill="black"/>
<path opacity="0.2" d="M102.149 324.312L108.797 325.752L105.347 333.309L98.709 331.869L102.149 324.312Z" fill="black"/>
<path d="M135.49 86.1513C137.239 92.664 137.935 96.5678 141.955 99.2734C148.004 103.351 155.483 98.6743 155.763 91.7654C155.975 85.5522 153.086 75.9376 146.1 74.6235C144.559 74.3264 142.967 74.4282 141.476 74.9193C139.985 75.4105 138.644 76.2746 137.581 77.4296C136.518 78.5846 135.768 79.9921 135.402 81.5186C135.036 83.0451 135.067 84.6398 135.49 86.1513Z" fill="#FF8B7B"/>
<path d="M150.28 86.6447C153.333 86.2099 152.454 82.6829 151.314 80.9533C151.314 80.9533 158.078 72.7882 150.28 69.4932C142.482 66.1981 144.366 71.3388 144.366 71.3388C144.366 71.3388 138.25 66.7489 132.935 70.4594C127.62 74.17 132.21 75.774 132.21 75.774C132.21 75.774 122.547 78.6149 126.413 83.5043C130.278 88.3937 134.269 87.9009 134.269 87.9009C134.269 87.9009 126.258 91.0606 132.336 94.6069C138.414 98.1532 140.694 98.3078 140.694 98.3078C142.319 98.5099 143.963 98.1309 145.335 97.2379C146.707 96.3449 147.719 94.9954 148.193 93.428L150.28 86.6447Z" fill="#364152"/>
<path d="M147.653 86.6623C147.783 88.338 148.463 89.924 149.586 91.1748C151.064 92.8078 152.61 91.7836 152.881 89.8027C153.112 88.0054 152.629 84.9712 150.813 84.1016C148.996 83.2319 147.537 84.6427 147.653 86.6623Z" fill="#FF8B7B"/>
<path d="M150.23 169.234C150.23 169.234 142.5 221.172 138.278 240.633C133.639 261.94 108.777 332.43 108.777 332.43L96.6113 329.792C96.6113 329.792 114.004 272.337 117.87 242.546C120.865 219.665 126.75 169.215 126.75 169.215L150.23 169.234Z" fill="#364152"/>
<path d="M111.693 328.38L109.423 332.786L95.7305 329.819L96.89 325.703L111.693 328.38Z" fill="#528BFF"/>
<path opacity="0.3" d="M145.349 187.737C136.43 189.486 137.377 222.746 138.449 239.858C141.02 227.761 144.788 204.492 147.358 187.979C146.736 187.671 146.026 187.586 145.349 187.737Z" fill="black"/>
<path d="M163.123 169.234C163.123 169.234 164.089 220.051 163.326 240.739C162.553 262.297 155.025 332.884 155.025 332.884H143.507C143.507 332.884 143.092 263.553 142.541 242.382C142.019 219.346 139.217 169.234 139.217 169.234H163.123Z" fill="#364152"/>
<path d="M157.235 328.34C157.293 328.34 156.587 333.113 156.587 333.113H142.576L142.199 328.852L157.235 328.34Z" fill="#528BFF"/>
<path d="M150.654 119.181C147.388 127.964 166.54 138.313 166.54 138.313L174.831 127.684C174.831 127.684 169.294 116.678 162.51 111.711C154.123 105.556 153.128 112.494 150.654 119.181Z" fill="#528BFF"/>
<path opacity="0.4" d="M150.654 119.181C147.388 127.964 166.54 138.313 166.54 138.313L174.831 127.684C174.831 127.684 169.294 116.678 162.51 111.711C154.123 105.556 153.128 112.494 150.654 119.181Z" fill="#364152"/>
<path d="M205.652 141.993C206.965 141.993 208.03 141.193 208.03 140.206C208.03 139.218 206.965 138.418 205.652 138.418C204.34 138.418 203.275 139.218 203.275 140.206C203.275 141.193 204.34 141.993 205.652 141.993Z" fill="#364152"/>
<path d="M204.74 145.907C204.669 145.908 204.598 145.893 204.532 145.863C204.467 145.833 204.409 145.789 204.364 145.733C204.282 145.636 204.243 145.51 204.254 145.383C204.265 145.257 204.325 145.14 204.422 145.057C204.48 145.009 205.716 143.878 205.185 141.25C205.172 141.188 205.172 141.125 205.184 141.063C205.196 141.001 205.221 140.943 205.256 140.891C205.291 140.839 205.336 140.794 205.389 140.759C205.441 140.725 205.5 140.701 205.562 140.689C205.624 140.677 205.688 140.676 205.75 140.688C205.813 140.701 205.872 140.725 205.925 140.76C205.978 140.795 206.023 140.84 206.059 140.892C206.094 140.945 206.119 141.004 206.132 141.066C206.789 144.284 205.117 145.733 205.05 145.791C204.963 145.865 204.854 145.905 204.74 145.907Z" fill="#364152"/>
<path opacity="0.4" d="M207.588 140.107C207.588 140.841 206.728 141.431 205.655 141.431C204.583 141.431 203.723 140.841 203.723 140.107C203.723 139.373 204.583 138.793 205.655 138.793C206.728 138.793 207.588 139.344 207.588 140.107Z" fill="#364152"/>
<path d="M153.647 108.678C149.202 111.857 141.501 124.139 140.119 131.396C140.11 131.443 140.086 131.487 140.051 131.522C140.016 131.556 139.972 131.579 139.924 131.587C139.875 131.595 139.826 131.589 139.781 131.569C139.737 131.548 139.7 131.515 139.675 131.473C135.479 124.676 132.989 116.965 132.418 108.997C132.416 108.965 132.407 108.934 132.392 108.906C132.378 108.878 132.358 108.852 132.334 108.832C132.31 108.811 132.281 108.795 132.251 108.786C132.221 108.776 132.189 108.772 132.157 108.775C131.075 108.847 129.997 108.979 128.93 109.171C128.877 109.186 128.83 109.217 128.797 109.261C128.764 109.305 128.746 109.358 128.746 109.413C129.271 119.371 132.817 128.933 138.911 136.826C138.923 136.85 138.93 136.877 138.93 136.903C138.93 136.93 138.923 136.957 138.911 136.981C138.322 147.851 139.105 167.283 139.201 169.593C139.204 169.655 139.23 169.714 139.275 169.757C139.32 169.801 139.38 169.825 139.443 169.825H142.342C142.374 169.825 142.407 169.818 142.436 169.805C142.466 169.793 142.493 169.774 142.516 169.751C142.539 169.727 142.556 169.699 142.568 169.669C142.579 169.638 142.585 169.606 142.583 169.573C142.448 167.351 141.54 150.47 142.583 136.623C144.216 126.323 153.985 112.398 157.416 109.644C157.453 109.617 157.48 109.579 157.496 109.536C157.511 109.493 157.513 109.446 157.502 109.401C157.49 109.357 157.466 109.316 157.432 109.286C157.398 109.255 157.355 109.235 157.309 109.229C155.86 108.91 154.198 108.707 153.802 108.669C153.751 108.655 153.696 108.658 153.647 108.678Z" fill="#528BFF"/>
</svg>
