<svg  viewBox="0 0 12 11" xmlns="http://www.w3.org/2000/svg">
<path d="M11.0955 3.87465L10.2539 1.06933C10.062 0.429565 9.4845 0 8.81689 0H3.1831C2.5155 0 1.93798 0.429566 1.74609 1.06933L0.904492 3.87465C0.373075 4.10559 0 4.63444 0 5.25V8.25C0 8.66418 0.335815 9 0.75 9H0.750046L0.75 9.74995C0.75 10.1642 1.08577 10.5 1.5 10.5H2.25004C2.66423 10.5 3.00004 10.1642 3.00004 9.75L2.99972 9H9L8.99995 9.74995C8.99995 10.1642 9.33572 10.5 9.74995 10.5H10.5C10.9142 10.5 11.25 10.1642 11.25 9.75V9.00004L11.2497 9H11.25C11.6642 9 12 8.66418 12 8.25V5.25C12 4.63444 11.6269 4.10559 11.0955 3.87465L11.0955 3.87465ZM3.18308 1.5H8.81687L9.49189 3.75H2.50806L3.18308 1.5H3.18308ZM2.99998 7.125C2.58575 7.125 2.24998 6.78918 2.24998 6.375C2.24998 5.96077 2.58575 5.625 2.99998 5.625C3.41421 5.625 3.74998 5.96077 3.74998 6.375C3.74998 6.78918 3.41421 7.125 2.99998 7.125ZM8.99998 7.125C8.58575 7.125 8.24998 6.78918 8.24998 6.375C8.24998 5.96077 8.58575 5.625 8.99998 5.625C9.41421 5.625 9.74998 5.96077 9.74998 6.375C9.74998 6.78918 9.41421 7.125 8.99998 7.125Z" fill="#081A3E"/>
</svg>
