<svg width="217" height="153" viewBox="0 0 217 153" fill="none" xmlns="http://www.w3.org/2000/svg">
<path d="M175.371 0H45.0857C39.0894 0 34.2285 4.86091 34.2285 10.8571V141.143C34.2285 147.139 39.0894 152 45.0857 152H175.371C181.368 152 186.229 147.139 186.229 141.143V10.8571C186.229 4.86091 181.368 0 175.371 0Z" fill="#E3E8EF"/>
<g filter="url(#filter0_d_2360_45531)">
<path d="M58.1131 58.6287H204.685C206.124 58.6287 207.505 59.2006 208.523 60.2187C209.541 61.2367 210.113 62.6175 210.113 64.0572V91.2001C210.113 92.6398 209.541 94.0206 208.523 95.0387C207.505 96.0567 206.124 96.6287 204.685 96.6287H58.1131C56.6734 96.6287 55.2926 96.0567 54.2746 95.0387C53.2565 94.0206 52.6846 92.6398 52.6846 91.2001V64.0572C52.6846 62.6175 53.2565 61.2367 54.2746 60.2187C55.2926 59.2006 56.6734 58.6287 58.1131 58.6287V58.6287Z" fill="white"/>
</g>
<path d="M138.456 67.3143H110.228C108.429 67.3143 106.971 68.7726 106.971 70.5715C106.971 72.3703 108.429 73.8286 110.228 73.8286H138.456C140.255 73.8286 141.714 72.3703 141.714 70.5715C141.714 68.7726 140.255 67.3143 138.456 67.3143Z" fill="#9AA4B2"/>
<path d="M157.999 81.4286H110.228C108.429 81.4286 106.971 82.8869 106.971 84.6857C106.971 86.4846 108.429 87.9429 110.228 87.9429H157.999C159.798 87.9429 161.256 86.4846 161.256 84.6857C161.256 82.8869 159.798 81.4286 157.999 81.4286Z" fill="#E3E8EF"/>
<path d="M84.7137 87.9429C90.4101 87.9429 95.028 83.325 95.028 77.6286C95.028 71.9322 90.4101 67.3143 84.7137 67.3143C79.0173 67.3143 74.3994 71.9322 74.3994 77.6286C74.3994 83.325 79.0173 87.9429 84.7137 87.9429Z" fill="#9AA4B2"/>
<path fill-rule="evenodd" clip-rule="evenodd" d="M83.0311 72.2001H86.3805C87.8517 72.2001 89.0405 72.7809 89.0568 74.2575V82.4981C89.0568 82.5904 89.0351 82.6826 88.9917 82.7641C88.9211 82.8944 88.8017 82.9921 88.6551 83.0355C88.514 83.0789 88.3565 83.0572 88.2262 82.9812L84.7085 81.2224L81.1854 82.9812C81.1045 83.0241 81.0117 83.0518 80.9194 83.0518C80.6154 83.0518 80.3711 82.8021 80.3711 82.4981V74.2575C80.3711 72.7809 81.5654 72.2001 83.0311 72.2001ZM82.662 76.3366H86.7497C86.9831 76.3366 87.1731 76.1461 87.1731 75.9078C87.1731 75.6689 86.9831 75.4789 86.7497 75.4789H82.662C82.4285 75.4789 82.2385 75.6689 82.2385 75.9078C82.2385 76.1461 82.4285 76.3366 82.662 76.3366Z" fill="white"/>
<rect x="81.6992" y="74.6144" width="5" height="2" fill="white"/>
<g filter="url(#filter1_d_2360_45531)">
<path d="M11.4286 105.314H158C159.44 105.314 160.821 105.886 161.839 106.904C162.857 107.922 163.429 109.303 163.429 110.743V137.886C163.429 139.325 162.857 140.706 161.839 141.724C160.821 142.742 159.44 143.314 158 143.314H11.4286C9.98882 143.314 8.60805 142.742 7.58999 141.724C6.57194 140.706 6 139.325 6 137.886V110.743C6 109.303 6.57194 107.922 7.58999 106.904C8.60805 105.886 9.98882 105.314 11.4286 105.314V105.314Z" fill="white"/>
</g>
<path d="M91.7709 114H63.5423C61.7434 114 60.2852 115.458 60.2852 117.257C60.2852 119.056 61.7434 120.514 63.5423 120.514H91.7709C93.5697 120.514 95.028 119.056 95.028 117.257C95.028 115.458 93.5697 114 91.7709 114Z" fill="#9AA4B2"/>
<path d="M111.314 128.114H63.5423C61.7434 128.114 60.2852 129.573 60.2852 131.371C60.2852 133.17 61.7434 134.629 63.5423 134.629H111.314C113.113 134.629 114.571 133.17 114.571 131.371C114.571 129.573 113.113 128.114 111.314 128.114Z" fill="#E3E8EF"/>
<path d="M38.0282 134.629C43.7246 134.629 48.3424 130.011 48.3424 124.314C48.3424 118.618 43.7246 114 38.0282 114C32.3317 114 27.7139 118.618 27.7139 124.314C27.7139 130.011 32.3317 134.629 38.0282 134.629Z" fill="#9AA4B2"/>
<path fill-rule="evenodd" clip-rule="evenodd" d="M36.3455 118.886H39.695C41.1661 118.886 42.355 119.467 42.3713 120.943V129.184C42.3713 129.276 42.3495 129.368 42.3061 129.45C42.2355 129.58 42.1161 129.678 41.9695 129.721C41.8284 129.765 41.671 129.743 41.5407 129.667L38.023 127.908L34.4998 129.667C34.4189 129.71 34.3261 129.737 34.2338 129.737C33.9298 129.737 33.6855 129.488 33.6855 129.184V120.943C33.6855 119.467 34.8798 118.886 36.3455 118.886ZM35.9764 123.022H40.0641C40.2975 123.022 40.4875 122.832 40.4875 122.593C40.4875 122.355 40.2975 122.165 40.0641 122.165H35.9764C35.743 122.165 35.553 122.355 35.553 122.593C35.553 122.832 35.743 123.022 35.9764 123.022Z" fill="white"/>
<rect x="35.0137" y="121.3" width="5" height="2" fill="white"/>
<g filter="url(#filter2_d_2360_45531)">
<path d="M158 11.9429H11.4286C8.43045 11.9429 6 14.3733 6 17.3714V44.5143C6 47.5124 8.43045 49.9429 11.4286 49.9429H158C160.998 49.9429 163.429 47.5124 163.429 44.5143V17.3714C163.429 14.3733 160.998 11.9429 158 11.9429Z" fill="white"/>
</g>
<path d="M89.599 20.6287H61.3704C59.5716 20.6287 58.1133 22.0869 58.1133 23.8858C58.1133 25.6847 59.5716 27.1429 61.3704 27.1429H89.599C91.3979 27.1429 92.8561 25.6847 92.8561 23.8858C92.8561 22.0869 91.3979 20.6287 89.599 20.6287Z" fill="#9AA4B2"/>
<path d="M109.142 34.7429H61.3704C59.5716 34.7429 58.1133 36.2012 58.1133 38.0001C58.1133 39.7989 59.5716 41.2572 61.3704 41.2572H109.142C110.941 41.2572 112.399 39.7989 112.399 38.0001C112.399 36.2012 110.941 34.7429 109.142 34.7429Z" fill="#E3E8EF"/>
<path d="M38.0282 41.2571C43.7246 41.2571 48.3424 36.6392 48.3424 30.9428C48.3424 25.2464 43.7246 20.6285 38.0282 20.6285C32.3317 20.6285 27.7139 25.2464 27.7139 30.9428C27.7139 36.6392 32.3317 41.2571 38.0282 41.2571Z" fill="#9AA4B2"/>
<path fill-rule="evenodd" clip-rule="evenodd" d="M36.3455 25.5143H39.695C41.1661 25.5143 42.355 26.0951 42.3713 27.5717V35.8123C42.3713 35.9046 42.3495 35.9969 42.3061 36.0783C42.2355 36.2086 42.1161 36.3063 41.9695 36.3497C41.8284 36.3931 41.671 36.3714 41.5407 36.2954L38.023 34.5366L34.4998 36.2954C34.4189 36.3383 34.3261 36.366 34.2338 36.366C33.9298 36.366 33.6855 36.1163 33.6855 35.8123V27.5717C33.6855 26.0951 34.8798 25.5143 36.3455 25.5143ZM35.9764 29.6509H40.0641C40.2975 29.6509 40.4875 29.4603 40.4875 29.222C40.4875 28.9831 40.2975 28.7931 40.0641 28.7931H35.9764C35.743 28.7931 35.553 28.9831 35.553 29.222C35.553 29.4603 35.743 29.6509 35.9764 29.6509Z" fill="white"/>
<rect x="35.0137" y="27.9286" width="5" height="2" fill="white"/>
<defs>
<filter id="filter0_d_2360_45531" x="46.6846" y="55.6287" width="169.429" height="50" filterUnits="userSpaceOnUse" color-interpolation-filters="sRGB">
<feFlood flood-opacity="0" result="BackgroundImageFix"/>
<feColorMatrix in="SourceAlpha" type="matrix" values="0 0 0 0 0 0 0 0 0 0 0 0 0 0 0 0 0 0 127 0" result="hardAlpha"/>
<feOffset dy="3"/>
<feGaussianBlur stdDeviation="3"/>
<feColorMatrix type="matrix" values="0 0 0 0 0 0 0 0 0 0 0 0 0 0 0 0 0 0 0.161 0"/>
<feBlend mode="normal" in2="BackgroundImageFix" result="effect1_dropShadow_2360_45531"/>
<feBlend mode="normal" in="SourceGraphic" in2="effect1_dropShadow_2360_45531" result="shape"/>
</filter>
<filter id="filter1_d_2360_45531" x="0" y="102.314" width="169.429" height="50" filterUnits="userSpaceOnUse" color-interpolation-filters="sRGB">
<feFlood flood-opacity="0" result="BackgroundImageFix"/>
<feColorMatrix in="SourceAlpha" type="matrix" values="0 0 0 0 0 0 0 0 0 0 0 0 0 0 0 0 0 0 127 0" result="hardAlpha"/>
<feOffset dy="3"/>
<feGaussianBlur stdDeviation="3"/>
<feColorMatrix type="matrix" values="0 0 0 0 0 0 0 0 0 0 0 0 0 0 0 0 0 0 0.161 0"/>
<feBlend mode="normal" in2="BackgroundImageFix" result="effect1_dropShadow_2360_45531"/>
<feBlend mode="normal" in="SourceGraphic" in2="effect1_dropShadow_2360_45531" result="shape"/>
</filter>
<filter id="filter2_d_2360_45531" x="0" y="8.94287" width="169.429" height="50" filterUnits="userSpaceOnUse" color-interpolation-filters="sRGB">
<feFlood flood-opacity="0" result="BackgroundImageFix"/>
<feColorMatrix in="SourceAlpha" type="matrix" values="0 0 0 0 0 0 0 0 0 0 0 0 0 0 0 0 0 0 127 0" result="hardAlpha"/>
<feOffset dy="3"/>
<feGaussianBlur stdDeviation="3"/>
<feColorMatrix type="matrix" values="0 0 0 0 0 0 0 0 0 0 0 0 0 0 0 0 0 0 0.161 0"/>
<feBlend mode="normal" in2="BackgroundImageFix" result="effect1_dropShadow_2360_45531"/>
<feBlend mode="normal" in="SourceGraphic" in2="effect1_dropShadow_2360_45531" result="shape"/>
</filter>
</defs>
</svg>
