<svg width="216" height="183" viewBox="0 0 216 183" fill="none" xmlns="http://www.w3.org/2000/svg">
<path d="M106.414 160.999C148.799 160.999 183.16 126.637 183.16 84.102C183.16 41.5665 148.647 7.20508 106.414 7.20508C64.0304 7.20508 29.6689 41.5665 29.6689 84.102C29.6689 126.637 64.0304 160.999 106.414 160.999Z" fill="#EAEEF9"/>
<path d="M178.165 33.6974C181.593 33.6974 184.371 30.9188 184.371 27.4912C184.371 24.0635 181.593 21.2849 178.165 21.2849C174.738 21.2849 171.959 24.0635 171.959 27.4912C171.959 30.9188 174.738 33.6974 178.165 33.6974Z" fill="#D5DDEA"/>
<path d="M187.247 9.47682C189.588 9.47682 191.485 7.57922 191.485 5.23841C191.485 2.8976 189.588 1 187.247 1C184.906 1 183.008 2.8976 183.008 5.23841C183.008 7.57922 184.906 9.47682 187.247 9.47682Z" fill="#D5DDEA"/>
<path d="M33.756 33.5452C36.0968 33.5452 37.9944 31.6476 37.9944 29.3068C37.9944 26.966 36.0968 25.0684 33.756 25.0684C31.4152 25.0684 29.5176 26.966 29.5176 29.3068C29.5176 31.6476 31.4152 33.5452 33.756 33.5452Z" fill="#D5DDEA"/>
<path d="M7.87134 115.286C12.2186 115.286 15.7427 111.762 15.7427 107.414C15.7427 103.067 12.2186 99.543 7.87134 99.543C3.52412 99.543 0 103.067 0 107.414C0 111.762 3.52412 115.286 7.87134 115.286Z" fill="#D5DDEA"/>
<g filter="url(#filter0_d_2360_45403)">
<path d="M158.638 45.6563L159.849 143.14C159.849 146.47 157.124 149.043 153.794 149.043H58.7321C55.4019 149.043 52.6772 146.319 52.6772 143.14V17.8039C52.6772 14.4737 55.4019 11.9004 58.7321 11.9004H127.606L158.638 45.6563Z" fill="url(#paint0_linear_2360_45403)"/>
</g>
<path d="M98.9977 129.516H80.379C79.6221 129.516 79.0166 128.759 79.0166 127.851C79.0166 126.942 79.6221 126.186 80.379 126.186H98.9977C99.7546 126.186 100.36 126.942 100.36 127.851C100.36 128.91 99.7546 129.516 98.9977 129.516Z" fill="#C2C8D6"/>
<path d="M88.4011 129.516H68.1172C67.3604 129.516 66.7549 128.759 66.7549 127.851C66.7549 126.942 67.3604 126.186 68.1172 126.186H88.4011C89.1579 126.186 89.7634 126.942 89.7634 127.851C89.7634 128.91 89.1579 129.516 88.4011 129.516Z" fill="#C2C8D6"/>
<path d="M114.286 32.3341H68.7227C67.6631 32.3341 66.7549 31.4259 66.7549 30.3663C66.7549 29.3067 67.6631 28.3984 68.7227 28.3984H114.286C115.345 28.3984 116.253 29.3067 116.253 30.3663C116.253 31.4259 115.345 32.3341 114.286 32.3341Z" fill="#C2C8D6"/>
<path d="M86.2819 43.2325H68.7227C67.6631 43.2325 66.7549 42.3243 66.7549 41.2647C66.7549 40.2051 67.6631 39.2969 68.7227 39.2969H86.1305C87.1901 39.2969 88.0983 40.2051 88.0983 41.2647C88.0983 42.3243 87.1901 43.2325 86.2819 43.2325Z" fill="#C2C8D6"/>
<path d="M127.606 11.9004V38.8446C127.606 42.6289 130.937 45.6563 134.721 45.6563H158.638" fill="#D5DDEA"/>
<path d="M105.284 103.32H92.1298H86.3454H68.8512C68.1458 103.32 67.4404 104.028 67.4404 105.018C67.4404 105.867 68.0048 106.716 68.8512 106.716H86.3454H92.1298H105.284C105.989 106.716 106.695 106.008 106.695 105.018C106.554 104.028 105.989 103.32 105.284 103.32Z" fill="#C2C8D6"/>
<path d="M103.63 91.01H84.1608H77.53H68.8512C68.1458 91.01 67.4404 91.7174 67.4404 92.7078C67.4404 93.5567 68.0048 94.4056 68.8512 94.4056H77.53H84.1608H103.63C104.336 94.4056 105.041 93.6982 105.041 92.7078C104.9 91.7174 104.336 91.01 103.63 91.01Z" fill="#C2C8D6"/>
<path d="M113.129 78.5605H108.05H102.971H68.8512C68.1458 78.5605 67.4404 79.268 67.4404 80.2583C67.4404 81.1072 68.0048 81.9561 68.8512 81.9561H102.971H108.615H112.988C113.693 81.9561 114.399 81.2487 114.399 80.2583C114.54 79.4094 113.835 78.5605 113.129 78.5605Z" fill="#C2C8D6"/>
<path d="M145.321 105.448H136.077H125.722H108.019C106.756 105.448 105.493 106.709 105.493 108.475C105.493 109.989 106.503 111.502 108.019 111.502H125.722H136.077H145.321C146.584 111.502 147.847 110.241 147.847 108.475C147.594 106.709 146.584 105.448 145.321 105.448Z" fill="#C2C8D6"/>
<path d="M145.317 90.3105H122.502H110.61H106.511C105.246 90.3105 103.98 91.572 103.98 93.338C103.98 94.8517 104.993 96.3654 106.511 96.3654H110.61H122.502H145.317C146.582 96.3654 147.847 95.104 147.847 93.338C147.594 91.572 146.582 90.3105 145.317 90.3105Z" fill="#C2C8D6"/>
<path d="M145.546 75.1719H136.472H127.398H114.064C112.804 75.1719 111.543 76.4333 111.543 78.1993C111.543 79.713 112.552 81.2267 114.064 81.2267H127.398H137.48H145.294C146.554 81.2267 147.814 79.9653 147.814 78.1993C148.066 76.6856 146.806 75.1719 145.546 75.1719Z" fill="#C2C8D6"/>
<path d="M145.459 66.25H128.952H124.861H68.8512C68.1458 66.25 67.4404 66.9574 67.4404 67.9478C67.4404 68.7967 68.0048 69.6456 68.8512 69.6456H124.861H128.952H145.318C146.305 69.6456 146.87 68.9382 146.87 67.9478C146.87 67.0989 146.305 66.25 145.459 66.25Z" fill="#C2C8D6"/>
<path d="M188.237 142.087L172.434 126.012C170.813 124.363 168.483 123.745 166.356 124.157L162.506 120.241C173.447 106.433 172.535 86.1329 159.974 73.3553C149.438 62.6385 133.736 60.2684 120.972 66.3481C117.426 67.9969 114.083 70.3669 111.044 73.3553C107.296 77.0649 104.662 81.4959 103.041 86.236C102.231 88.503 101.623 90.77 101.319 93.1401C99.7992 103.754 103.041 114.986 111.044 123.126C111.247 123.332 111.348 123.436 111.55 123.642C118.237 130.237 126.847 133.431 135.559 133.431C143.259 133.431 150.958 130.855 157.238 125.703L161.088 129.618C160.683 131.782 161.291 134.152 162.911 135.801L178.613 151.876C181.247 154.555 185.502 154.555 188.136 151.876C190.871 149.197 190.871 144.766 188.237 142.087ZM155.01 118.077C153.794 119.314 152.477 120.344 151.16 121.375C149.843 122.302 148.526 123.023 147.209 123.642C139.915 127.145 131.305 127.145 124.011 123.642C121.174 122.302 118.54 120.447 116.21 118.077C109.524 111.276 106.992 101.899 108.613 93.1401C109.018 90.77 109.727 88.3999 110.841 86.236C112.158 83.4537 113.982 80.7746 116.21 78.5075C117.73 76.9619 119.351 75.6223 121.073 74.5918C125.53 71.7065 130.596 70.3669 135.661 70.3669C142.752 70.3669 149.742 73.0461 155.111 78.5075C165.748 89.4304 165.748 107.154 155.01 118.077Z" fill="url(#paint1_linear_2360_45403)"/>
<defs>
<filter id="filter0_d_2360_45403" x="30.6772" y="0.900391" width="151.171" height="181.143" filterUnits="userSpaceOnUse" color-interpolation-filters="sRGB">
<feFlood flood-opacity="0" result="BackgroundImageFix"/>
<feColorMatrix in="SourceAlpha" type="matrix" values="0 0 0 0 0 0 0 0 0 0 0 0 0 0 0 0 0 0 127 0" result="hardAlpha"/>
<feOffset dy="11"/>
<feGaussianBlur stdDeviation="11"/>
<feColorMatrix type="matrix" values="0 0 0 0 0.397708 0 0 0 0 0.47749 0 0 0 0 0.575 0 0 0 0.27 0"/>
<feBlend mode="normal" in2="BackgroundImageFix" result="effect1_dropShadow_2360_45403"/>
<feBlend mode="normal" in="SourceGraphic" in2="effect1_dropShadow_2360_45403" result="shape"/>
</filter>
<linearGradient id="paint0_linear_2360_45403" x1="106.228" y1="8.72814" x2="106.228" y2="150.522" gradientUnits="userSpaceOnUse">
<stop stop-color="#FDFEFF"/>
<stop offset="0.9964" stop-color="#ECF0F5"/>
</linearGradient>
<linearGradient id="paint1_linear_2360_45403" x1="186.66" y1="63.0627" x2="103.676" y2="63.3466" gradientUnits="userSpaceOnUse">
<stop stop-color="#B0BACC"/>
<stop offset="1" stop-color="#969EAE"/>
</linearGradient>
</defs>
</svg>
