<svg width="391" height="288" viewBox="0 0 391 288" fill="none" xmlns="http://www.w3.org/2000/svg">
<path d="M388.114 253.09H1.59998V253.283H388.114V253.09Z" fill="#EBEBEB"/>
<path d="M349.384 265.527H323.781V265.721H349.384V265.527Z" fill="#EBEBEB"/>
<path d="M314.047 265.527H259.309V265.721H314.047V265.527Z" fill="#EBEBEB"/>
<path d="M229.127 258.354H214.292V258.547H229.127V258.354Z" fill="#EBEBEB"/>
<path d="M68.6602 259.652H42.1531V259.846H68.6602V259.652Z" fill="#EBEBEB"/>
<path d="M123.737 259.652H75.5391V259.846H123.737V259.652Z" fill="#EBEBEB"/>
<path d="M175.641 262.914H147.186V263.107H175.641V262.914Z" fill="#EBEBEB"/>
<path d="M184.809 218.612H35.5454C34.3761 218.61 33.2554 218.144 32.4293 217.317C31.6031 216.489 31.1392 215.368 31.1392 214.198V4.37534C31.1493 3.21272 31.6178 2.10107 32.4428 1.28185C33.2678 0.462625 34.3828 0.00199162 35.5454 0H184.809C185.98 0 187.103 0.465044 187.931 1.29283C188.758 2.12061 189.223 3.24333 189.223 4.41399V214.198C189.223 215.369 188.758 216.492 187.931 217.319C187.103 218.147 185.98 218.612 184.809 218.612ZM35.5454 0.154606C34.4274 0.156654 33.3558 0.602239 32.5659 1.39356C31.776 2.18488 31.3324 3.25727 31.3324 4.37534V214.198C31.3324 215.316 31.776 216.389 32.5659 217.18C33.3558 217.971 34.4274 218.417 35.5454 218.419H184.809C185.928 218.417 187.001 217.972 187.792 217.181C188.583 216.389 189.028 215.317 189.03 214.198V4.37534C189.028 3.25656 188.583 2.18418 187.792 1.39309C187.001 0.601988 185.928 0.15665 184.809 0.154606H35.5454Z" fill="#EBEBEB"/>
<path d="M352.02 218.612H202.748C201.578 218.61 200.457 218.145 199.63 217.317C198.802 216.49 198.337 215.368 198.334 214.198V4.37534C198.347 3.21202 198.817 2.10038 199.643 1.28137C200.469 0.462355 201.585 0.0019699 202.748 0H352.02C353.181 0.00402322 354.294 0.465555 355.118 1.28456C355.941 2.10357 356.408 3.21406 356.419 4.37534V214.198C356.419 215.366 355.956 216.487 355.131 217.314C354.307 218.141 353.188 218.608 352.02 218.612ZM202.748 0.154606C201.63 0.15665 200.557 0.601988 199.766 1.39309C198.975 2.18418 198.53 3.25656 198.528 4.37534V214.198C198.53 215.317 198.975 216.389 199.766 217.181C200.557 217.972 201.63 218.417 202.748 218.419H352.02C353.139 218.417 354.211 217.972 355.002 217.181C355.793 216.389 356.239 215.317 356.241 214.198V4.37534C356.239 3.25656 355.793 2.18418 355.002 1.39309C354.211 0.601988 353.139 0.15665 352.02 0.154606H202.748Z" fill="#EBEBEB"/>
<path d="M262.101 248.746H276.409V144.72H262.101V248.746Z" fill="#F0F0F0"/>
<path d="M116.045 253.082L273.666 253.082V248.745L116.045 248.745V253.082Z" fill="#F0F0F0"/>
<path d="M262.102 144.725H113.294V248.751H262.102V144.725Z" fill="#F5F5F5"/>
<path d="M262.101 144.725H276.409V140.937H262.101V144.725Z" fill="#E6E6E6"/>
<path d="M262.102 140.939H113.294V144.727H262.102V140.939Z" fill="#F0F0F0"/>
<path d="M256.964 176.097H118.445V152.674H256.964V176.097ZM119.404 175.13H256.006V153.64H119.404V175.13Z" fill="#E0E0E0"/>
<path d="M256.964 240.799H118.445V181.84H256.964V240.799ZM119.404 239.84H256.006V182.798H119.404V239.84Z" fill="#E0E0E0"/>
<path d="M137.104 156.238H238.302V153.162H137.104V156.238Z" fill="#E0E0E0"/>
<path d="M137.104 185.395H238.302V182.318H137.104V185.395Z" fill="#E0E0E0"/>
<path d="M326.968 250.329C326.663 250.327 326.372 250.205 326.158 249.989C325.944 249.774 325.823 249.482 325.823 249.178V70.5464C325.823 70.243 325.944 69.952 326.159 69.7374C326.373 69.5229 326.664 69.4023 326.968 69.4023C327.271 69.4023 327.562 69.5229 327.777 69.7374C327.991 69.952 328.112 70.243 328.112 70.5464V249.178C328.112 249.482 327.991 249.774 327.777 249.989C327.563 250.205 327.272 250.327 326.968 250.329Z" fill="#F5F5F5"/>
<path d="M324.662 247.562H329.3C330.132 247.563 330.931 247.893 331.519 248.482C332.108 249.07 332.439 249.869 332.439 250.701V253.082H321.523V250.701C321.523 249.869 321.854 249.07 322.443 248.482C323.031 247.893 323.83 247.562 324.662 247.562Z" fill="#F0F0F0"/>
<path d="M304.736 94.3104C304.736 94.3104 305.3 72.4492 326.968 72.4492C348.636 72.4492 349.208 94.3104 349.208 94.3104H304.736Z" fill="#E0E0E0"/>
<path d="M62.7441 250.329C62.4386 250.329 62.1456 250.208 61.9296 249.992C61.7136 249.776 61.5923 249.483 61.5923 249.178V70.5464C61.5943 70.2423 61.7166 69.9513 61.9324 69.737C62.1482 69.5226 62.44 69.4023 62.7441 69.4023C63.0475 69.4023 63.3385 69.5229 63.5531 69.7374C63.7676 69.952 63.8882 70.243 63.8882 70.5464V249.178C63.8882 249.482 63.7679 249.774 63.5536 249.989C63.3392 250.205 63.0482 250.327 62.7441 250.329Z" fill="#F5F5F5"/>
<path d="M60.4446 247.562H65.0828C65.9152 247.563 66.7135 247.893 67.3021 248.482C67.8906 249.07 68.2213 249.869 68.2213 250.701V253.082H57.3062V250.701C57.3062 250.289 57.3873 249.881 57.5451 249.5C57.7028 249.119 57.934 248.773 58.2254 248.482C58.5168 248.19 58.8628 247.959 59.2436 247.801C59.6244 247.644 60.0325 247.562 60.4446 247.562Z" fill="#F0F0F0"/>
<path d="M40.5046 94.3104C40.5046 94.3104 41.0689 72.4492 62.7446 72.4492C84.4203 72.4492 84.9769 94.3104 84.9769 94.3104H40.5046Z" fill="#E0E0E0"/>
<path d="M222.724 139.301H167.731V140.94H222.724V139.301Z" fill="#E0E0E0"/>
<path d="M222.724 139.3H167.731L173.019 107.814H228.012L222.724 139.3Z" fill="#E0E0E0"/>
<path d="M221.706 139.3H166.712L172 107.814H226.993L221.706 139.3Z" fill="#EBEBEB"/>
<path d="M168.8 136.826L173.299 110.056C173.325 109.891 173.41 109.741 173.537 109.633C173.665 109.525 173.828 109.467 173.995 109.469H224.242C224.344 109.469 224.445 109.491 224.538 109.533C224.631 109.576 224.713 109.639 224.78 109.717C224.846 109.795 224.894 109.887 224.922 109.985C224.949 110.084 224.954 110.187 224.937 110.288L220.438 137.058C220.411 137.223 220.326 137.374 220.199 137.483C220.072 137.592 219.91 137.652 219.743 137.653H169.496C169.393 137.654 169.291 137.632 169.197 137.588C169.103 137.545 169.021 137.482 168.954 137.403C168.888 137.324 168.84 137.231 168.813 137.132C168.786 137.032 168.782 136.928 168.8 136.826Z" fill="#FAFAFA"/>
<path d="M210.281 139.301H155.288V140.94H210.281V139.301Z" fill="#F0F0F0"/>
<path d="M266.664 25.3242H120.964V72.4171H266.664V25.3242Z" fill="#EBEBEB"/>
<path d="M266.663 72.4102H268.75V25.3173H266.663V72.4102Z" fill="#E0E0E0"/>
<path d="M260.278 31.7031H127.341V66.0333H260.278V31.7031Z" fill="white"/>
<path d="M201.816 48.8677L193.814 40.8652L185.812 48.8677L193.814 56.8701L201.816 48.8677Z" fill="#F5F5F5"/>
<path d="M180.334 48.8677L172.331 40.8652L164.329 48.8677L172.331 56.8701L180.334 48.8677Z" fill="#F5F5F5"/>
<path d="M158.851 48.8677L150.848 40.8652L142.846 48.8677L150.848 56.8701L158.851 48.8677Z" fill="#F5F5F5"/>
<path d="M223.298 48.8677L215.295 40.8652L207.293 48.8677L215.295 56.8701L223.298 48.8677Z" fill="#F5F5F5"/>
<path d="M244.78 48.8676L236.778 40.8652L228.776 48.8677L236.778 56.8701L244.78 48.8676Z" fill="#F5F5F5"/>
<path d="M194.859 287.999C277.636 287.999 344.741 284.082 344.741 279.249C344.741 274.416 277.636 270.498 194.859 270.498C112.081 270.498 44.9763 274.416 44.9763 279.249C44.9763 284.082 112.081 287.999 194.859 287.999Z" fill="#F5F5F5"/>
<path d="M282.162 52.6004C282.233 51.7066 282.117 50.8078 281.821 49.9615C281.525 49.1151 281.056 48.3398 280.443 47.6851C279.831 47.0304 279.089 46.5106 278.264 46.159C277.439 45.8074 276.55 45.6317 275.653 45.6431H168.643C166.761 45.6698 164.957 46.3977 163.583 47.6844C162.209 48.9711 161.364 50.724 161.214 52.6004L158.756 89.667L143.35 203.619C143.199 204.487 143.244 205.377 143.479 206.225C143.715 207.073 144.136 207.859 144.712 208.524C145.289 209.19 146.005 209.72 146.811 210.074C147.617 210.429 148.492 210.601 149.372 210.576H256.39C258.313 210.525 260.158 209.801 261.603 208.53C263.048 207.258 264.002 205.521 264.298 203.619L279.704 89.667L282.162 52.6004Z" fill="#528BFF"/>
<path opacity="0.2" d="M282.162 52.6004C282.233 51.7066 282.117 50.8078 281.821 49.9615C281.525 49.1151 281.056 48.3398 280.443 47.6851C279.831 47.0304 279.089 46.5106 278.264 46.159C277.439 45.8074 276.55 45.6317 275.653 45.6431H168.643C166.761 45.6698 164.957 46.3977 163.583 47.6844C162.209 48.9711 161.364 50.724 161.214 52.6004L158.756 89.667L143.35 203.619C143.199 204.487 143.244 205.377 143.479 206.225C143.715 207.073 144.136 207.859 144.712 208.524C145.289 209.19 146.005 209.72 146.811 210.074C147.617 210.429 148.492 210.601 149.372 210.576H256.39C258.313 210.525 260.158 209.801 261.603 208.53C263.048 207.258 264.002 205.521 264.298 203.619L279.704 89.667L282.162 52.6004Z" fill="black"/>
<path d="M252.58 210.587H145.562C144.683 210.61 143.809 210.438 143.004 210.082C142.199 209.727 141.482 209.198 140.906 208.532C140.33 207.867 139.909 207.082 139.673 206.234C139.437 205.387 139.392 204.497 139.54 203.63L154.947 89.6699H275.895L260.488 203.622C260.194 205.525 259.241 207.264 257.796 208.537C256.351 209.81 254.505 210.535 252.58 210.587Z" fill="#528BFF"/>
<path d="M184.557 42.9238H168.617V43.6969H184.557V42.9238Z" fill="#528BFF"/>
<path d="M161.075 44.524L160.75 43.8205C162.03 43.2308 163.422 42.9249 164.832 42.9238V43.6969C163.534 43.6978 162.252 43.98 161.075 44.524Z" fill="#528BFF"/>
<path d="M271.855 45.6079H164.837C162.955 45.6346 161.15 46.3625 159.777 47.6492C158.403 48.9359 157.558 50.6888 157.408 52.5651L154.95 89.6705H275.898L278.348 52.6038C278.426 51.708 278.315 50.8058 278.023 49.9554C277.731 49.105 277.265 48.3251 276.653 47.6661C276.041 47.0071 275.298 46.4834 274.472 46.129C273.645 45.7745 272.754 45.597 271.855 45.6079Z" fill="#528BFF"/>
<path opacity="0.9" d="M160.923 80.5939L162.639 54.6743C162.718 53.6862 163.163 52.7631 163.886 52.0854C164.609 51.4077 165.56 51.0243 166.551 51.0101H269.418C269.89 51.0031 270.358 51.095 270.793 51.2799C271.228 51.4648 271.619 51.7386 271.941 52.0837C272.264 52.4288 272.511 52.8376 272.666 53.2837C272.821 53.7299 272.881 54.2035 272.842 54.6743L271.126 80.5939C271.046 81.5814 270.6 82.5035 269.877 83.1808C269.154 83.8581 268.205 84.2421 267.214 84.2581H164.348C163.876 84.2639 163.408 84.1712 162.974 83.9859C162.54 83.8006 162.149 83.5267 161.827 83.1819C161.504 82.8371 161.258 82.4288 161.102 81.9832C160.946 81.5376 160.886 81.0644 160.923 80.5939Z" fill="white"/>
<g opacity="0.4">
<path d="M262.003 55.2521L260.835 56.342C260.807 56.3698 260.773 56.3917 260.736 56.4063C260.699 56.4208 260.659 56.4279 260.619 56.4271H254.435C254.391 56.4281 254.348 56.4196 254.308 56.4023C254.268 56.3849 254.232 56.3591 254.203 56.3266L253.198 55.2443C253.156 55.1992 253.128 55.1427 253.117 55.0818C253.107 55.0208 253.114 54.9582 253.139 54.9015C253.163 54.8448 253.204 54.7966 253.256 54.7627C253.308 54.7289 253.368 54.7109 253.43 54.7109H261.802C261.864 54.7116 261.925 54.7313 261.976 54.7673C262.027 54.8032 262.066 54.8539 262.088 54.9125C262.11 54.9711 262.113 55.0349 262.098 55.0955C262.083 55.1561 262.05 55.2107 262.003 55.2521Z" fill="#528BFF"/>
<path d="M260.366 75.3432H251.994C251.93 75.3433 251.868 75.3242 251.815 75.2884C251.763 75.2526 251.722 75.2018 251.699 75.1425C251.675 75.0833 251.67 75.0184 251.684 74.9563C251.698 74.8942 251.731 74.8377 251.777 74.7943L252.937 73.7121C252.997 73.6586 253.073 73.6284 253.153 73.6271H259.338C259.382 73.6259 259.426 73.635 259.466 73.6538C259.507 73.6726 259.542 73.7005 259.57 73.7353L260.582 74.8175C260.621 74.8619 260.647 74.9164 260.657 74.9747C260.667 75.033 260.66 75.0929 260.637 75.1476C260.615 75.2023 260.578 75.2496 260.529 75.2842C260.481 75.3187 260.425 75.3392 260.366 75.3432Z" fill="#528BFF"/>
<path d="M261.177 65.2405L260.582 65.8049C260.523 65.8583 260.446 65.8885 260.366 65.8899H253.107C253.064 65.889 253.022 65.8793 252.982 65.8615C252.943 65.8436 252.908 65.818 252.879 65.7862C252.85 65.7544 252.828 65.717 252.814 65.6764C252.8 65.6357 252.795 65.5927 252.798 65.5498L252.875 64.4598C252.881 64.3798 252.917 64.305 252.976 64.2505C253.034 64.196 253.112 64.1658 253.192 64.166H260.474C260.517 64.1655 260.561 64.1742 260.601 64.1915C260.641 64.2088 260.676 64.2344 260.706 64.2665L261.201 64.7999C261.228 64.8302 261.25 64.8657 261.264 64.9044C261.277 64.943 261.284 64.9841 261.281 65.0251C261.279 65.0661 261.269 65.1063 261.251 65.1433C261.233 65.1803 261.208 65.2133 261.177 65.2405Z" fill="#528BFF"/>
<path d="M262.164 65.8338L261.554 74.2057C261.548 74.2668 261.525 74.3249 261.487 74.3731C261.449 74.4212 261.398 74.4573 261.34 74.4769C261.282 74.4966 261.219 74.4989 261.16 74.4837C261.1 74.4685 261.046 74.4364 261.005 74.3913L260.008 73.309C259.978 73.2771 259.955 73.2393 259.94 73.1981C259.925 73.1569 259.92 73.113 259.923 73.0694L260.379 66.8465C260.38 66.8066 260.39 66.7675 260.407 66.7315C260.424 66.6956 260.449 66.6636 260.479 66.6378L261.639 65.5555C261.687 65.5123 261.747 65.4849 261.812 65.477C261.876 65.4691 261.941 65.4811 261.999 65.5114C262.056 65.5418 262.103 65.5889 262.132 65.6466C262.162 65.7042 262.173 65.7696 262.164 65.8338Z" fill="#528BFF"/>
<path d="M262.888 55.902L262.277 64.297C262.273 64.3587 262.251 64.4179 262.213 64.4671C262.176 64.5163 262.125 64.5535 262.066 64.574C262.008 64.5946 261.945 64.5976 261.885 64.5827C261.825 64.5678 261.77 64.5357 261.728 64.4903L260.723 63.4003C260.696 63.3687 260.675 63.3319 260.662 63.2921C260.648 63.2523 260.643 63.2103 260.646 63.1684L261.094 56.9455C261.102 56.8662 261.138 56.7921 261.195 56.7368L262.355 55.6469C262.401 55.603 262.46 55.5742 262.523 55.5643C262.586 55.5545 262.651 55.564 262.709 55.5916C262.766 55.6192 262.814 55.6636 262.846 55.719C262.878 55.7744 262.893 55.8382 262.888 55.902Z" fill="#528BFF"/>
</g>
<path opacity="0.4" d="M248.601 78.846C248.625 78.5574 248.756 78.2881 248.967 78.0898C249.178 77.8914 249.455 77.7781 249.745 77.7715H262.886C263.04 77.7701 263.192 77.8004 263.333 77.8607C263.475 77.9209 263.602 78.0098 263.707 78.1216C263.812 78.2334 263.893 78.3658 263.945 78.5104C263.997 78.655 264.018 78.8088 264.007 78.962C263.982 79.2519 263.851 79.5223 263.638 79.7208C263.425 79.9193 263.146 80.0318 262.855 80.0365H249.745C249.589 80.0437 249.433 80.0174 249.288 79.9595C249.142 79.9016 249.011 79.8133 248.903 79.7006C248.795 79.5879 248.712 79.4533 248.659 79.306C248.607 79.1586 248.587 79.0018 248.601 78.846Z" fill="#528BFF"/>
<path opacity="0.4" d="M232.166 78.846C232.191 78.5574 232.321 78.2881 232.533 78.0898C232.744 77.8914 233.021 77.7781 233.31 77.7715H246.452C246.605 77.7701 246.758 77.8004 246.899 77.8607C247.04 77.9209 247.167 78.0098 247.273 78.1216C247.378 78.2334 247.459 78.3658 247.511 78.5104C247.562 78.655 247.583 78.8088 247.573 78.962C247.548 79.2519 247.416 79.5223 247.204 79.7208C246.991 79.9193 246.712 80.0318 246.421 80.0365H233.279C233.126 80.0392 232.973 80.0097 232.832 79.9498C232.69 79.8898 232.563 79.8009 232.458 79.6887C232.353 79.5765 232.273 79.4435 232.223 79.2984C232.173 79.1532 232.153 78.9991 232.166 78.846Z" fill="#528BFF"/>
<path opacity="0.4" d="M215.73 78.846C215.755 78.5574 215.886 78.288 216.097 78.0897C216.308 77.8914 216.585 77.7781 216.875 77.7715H230.016C230.169 77.7711 230.32 77.8023 230.461 77.863C230.601 77.9237 230.727 78.0127 230.832 78.1244C230.936 78.2361 231.017 78.3681 231.068 78.5122C231.119 78.6563 231.14 78.8094 231.129 78.9619C231.106 79.2525 230.975 79.5239 230.762 79.7228C230.549 79.9216 230.269 80.0335 229.977 80.0365H216.836C216.683 80.0381 216.531 80.0077 216.391 79.9473C216.25 79.8869 216.124 79.7978 216.02 79.6858C215.916 79.5737 215.836 79.4411 215.786 79.2965C215.737 79.1518 215.718 78.9984 215.73 78.846Z" fill="#528BFF"/>
<path opacity="0.4" d="M199.294 78.846C199.319 78.5574 199.45 78.288 199.661 78.0897C199.872 77.8914 200.149 77.7781 200.439 77.7715H213.58C213.733 77.7711 213.884 77.8023 214.025 77.863C214.165 77.9237 214.291 78.0127 214.396 78.1244C214.5 78.2361 214.581 78.3681 214.632 78.5122C214.683 78.6563 214.704 78.8094 214.693 78.9619C214.67 79.2525 214.539 79.5239 214.326 79.7228C214.113 79.9216 213.833 80.0335 213.541 80.0365H200.4C200.247 80.0381 200.095 80.0077 199.955 79.9473C199.814 79.8869 199.688 79.7978 199.584 79.6858C199.48 79.5737 199.4 79.4411 199.35 79.2965C199.301 79.1518 199.282 78.9984 199.294 78.846Z" fill="#528BFF"/>
<path opacity="0.1" d="M162.999 142.521L167.839 106.753C168.019 105.58 168.606 104.509 169.496 103.725C170.386 102.94 171.523 102.494 172.709 102.462H208.477C209.019 102.447 209.558 102.553 210.055 102.772C210.552 102.991 210.994 103.318 211.349 103.728C211.704 104.139 211.963 104.623 212.108 105.146C212.253 105.669 212.28 106.218 212.187 106.753L207.348 142.521C207.169 143.692 206.584 144.764 205.695 145.548C204.807 146.332 203.671 146.779 202.486 146.811H166.71C166.167 146.826 165.628 146.72 165.132 146.501C164.635 146.282 164.193 145.956 163.838 145.545C163.483 145.135 163.224 144.65 163.079 144.127C162.933 143.604 162.906 143.055 162.999 142.521Z" fill="#1B2434"/>
<path opacity="0.1" d="M213.957 142.521L218.819 106.753C219 105.581 219.587 104.509 220.477 103.725C221.367 102.941 222.504 102.494 223.689 102.463H259.457C260 102.446 260.54 102.551 261.038 102.77C261.535 102.988 261.977 103.315 262.333 103.726C262.688 104.136 262.947 104.621 263.092 105.145C263.236 105.669 263.262 106.218 263.168 106.753L258.337 142.521C258.154 143.693 257.567 144.763 256.678 145.547C255.788 146.331 254.652 146.778 253.466 146.811H217.66C217.117 146.826 216.579 146.721 216.082 146.502C215.586 146.283 215.144 145.956 214.79 145.545C214.435 145.134 214.177 144.65 214.033 144.127C213.889 143.604 213.863 143.055 213.957 142.521Z" fill="#1B2434"/>
<path opacity="0.1" d="M156.115 193.479L160.955 157.696C161.137 156.524 161.724 155.453 162.613 154.67C163.503 153.886 164.639 153.439 165.825 153.406H201.593C202.135 153.391 202.674 153.497 203.171 153.716C203.668 153.934 204.11 154.261 204.465 154.672C204.82 155.082 205.079 155.566 205.224 156.089C205.369 156.612 205.396 157.161 205.303 157.696L200.464 193.472C200.283 194.642 199.698 195.712 198.809 196.494C197.921 197.277 196.785 197.723 195.602 197.754H159.826C159.285 197.769 158.747 197.663 158.252 197.445C157.757 197.227 157.316 196.902 156.961 196.493C156.606 196.085 156.346 195.602 156.2 195.081C156.054 194.56 156.025 194.013 156.115 193.479Z" fill="#1B2434"/>
<path opacity="0.1" d="M207.073 193.479L211.905 157.696C212.087 156.524 212.674 155.453 213.563 154.67C214.453 153.886 215.589 153.439 216.775 153.406H252.543C253.085 153.391 253.624 153.497 254.121 153.716C254.618 153.934 255.06 154.261 255.415 154.672C255.77 155.082 256.029 155.566 256.174 156.089C256.319 156.612 256.346 157.161 256.253 157.696L251.422 193.472C251.238 194.642 250.65 195.711 249.761 196.493C248.871 197.276 247.736 197.722 246.552 197.754H210.776C210.235 197.769 209.698 197.663 209.203 197.445C208.708 197.227 208.267 196.902 207.913 196.493C207.559 196.084 207.3 195.602 207.154 195.081C207.009 194.559 206.981 194.013 207.073 193.479Z" fill="#1B2434"/>
<path d="M160.623 142.521L165.485 106.753C165.666 105.58 166.252 104.509 167.142 103.725C168.032 102.94 169.169 102.494 170.355 102.462H206.123C206.666 102.447 207.205 102.553 207.702 102.772C208.198 102.991 208.64 103.318 208.995 103.728C209.35 104.139 209.61 104.623 209.755 105.146C209.9 105.669 209.927 106.218 209.834 106.753L204.995 142.521C204.816 143.692 204.231 144.764 203.342 145.548C202.453 146.332 201.317 146.779 200.132 146.811H164.333C163.791 146.826 163.252 146.72 162.755 146.501C162.258 146.282 161.816 145.956 161.461 145.545C161.106 145.135 160.847 144.65 160.702 144.127C160.557 143.604 160.53 143.055 160.623 142.521Z" fill="#528BFF"/>
<path opacity="0.2" d="M160.623 142.521L165.485 106.753C165.666 105.58 166.252 104.509 167.142 103.725C168.032 102.94 169.169 102.494 170.355 102.462H206.123C206.666 102.447 207.205 102.553 207.702 102.772C208.198 102.991 208.64 103.318 208.995 103.728C209.35 104.139 209.61 104.623 209.755 105.146C209.9 105.669 209.927 106.218 209.834 106.753L204.995 142.521C204.816 143.692 204.231 144.764 203.342 145.548C202.453 146.332 201.317 146.779 200.132 146.811H164.333C163.791 146.826 163.252 146.72 162.755 146.501C162.258 146.282 161.816 145.956 161.461 145.545C161.106 145.135 160.847 144.65 160.702 144.127C160.557 143.604 160.53 143.055 160.623 142.521Z" fill="white"/>
<path d="M211.581 142.521L216.412 106.753C216.593 105.581 217.179 104.509 218.069 103.725C218.959 102.941 220.096 102.494 221.282 102.463H257.05C257.593 102.446 258.133 102.551 258.63 102.77C259.128 102.988 259.57 103.315 259.925 103.726C260.281 104.136 260.54 104.621 260.685 105.145C260.829 105.669 260.855 106.218 260.761 106.753L255.929 142.521C255.747 143.693 255.16 144.763 254.27 145.547C253.381 146.331 252.244 146.778 251.059 146.811H215.283C214.741 146.826 214.202 146.721 213.706 146.502C213.209 146.283 212.768 145.956 212.413 145.545C212.059 145.134 211.8 144.65 211.656 144.127C211.512 143.604 211.486 143.055 211.581 142.521Z" fill="#528BFF"/>
<path opacity="0.2" d="M211.581 142.521L216.412 106.753C216.593 105.581 217.179 104.509 218.069 103.725C218.959 102.941 220.096 102.494 221.282 102.463H257.05C257.593 102.446 258.133 102.551 258.63 102.77C259.128 102.988 259.57 103.315 259.925 103.726C260.281 104.136 260.54 104.621 260.685 105.145C260.829 105.669 260.855 106.218 260.761 106.753L255.929 142.521C255.747 143.693 255.16 144.763 254.27 145.547C253.381 146.331 252.244 146.778 251.059 146.811H215.283C214.741 146.826 214.202 146.721 213.706 146.502C213.209 146.283 212.768 145.956 212.413 145.545C212.059 145.134 211.8 144.65 211.656 144.127C211.512 143.604 211.486 143.055 211.581 142.521Z" fill="white"/>
<path d="M153.733 193.479L158.572 157.696C158.754 156.524 159.341 155.453 160.231 154.67C161.12 153.886 162.257 153.439 163.442 153.406H199.21C199.752 153.391 200.292 153.497 200.788 153.716C201.285 153.934 201.727 154.261 202.082 154.672C202.437 155.082 202.696 155.566 202.841 156.089C202.986 156.612 203.013 157.161 202.92 157.696L198.081 193.472C197.901 194.642 197.315 195.712 196.426 196.494C195.538 197.277 194.403 197.723 193.219 197.754H157.443C156.902 197.769 156.365 197.663 155.869 197.445C155.374 197.227 154.933 196.902 154.578 196.493C154.223 196.085 153.964 195.602 153.817 195.081C153.671 194.56 153.642 194.013 153.733 193.479Z" fill="#528BFF"/>
<path opacity="0.2" d="M153.733 193.479L158.572 157.696C158.754 156.524 159.341 155.453 160.231 154.67C161.12 153.886 162.257 153.439 163.442 153.406H199.21C199.752 153.391 200.292 153.497 200.788 153.716C201.285 153.934 201.727 154.261 202.082 154.672C202.437 155.082 202.696 155.566 202.841 156.089C202.986 156.612 203.013 157.161 202.92 157.696L198.081 193.472C197.901 194.642 197.315 195.712 196.426 196.494C195.538 197.277 194.403 197.723 193.219 197.754H157.443C156.902 197.769 156.365 197.663 155.869 197.445C155.374 197.227 154.933 196.902 154.578 196.493C154.223 196.085 153.964 195.602 153.817 195.081C153.671 194.56 153.642 194.013 153.733 193.479Z" fill="white"/>
<path d="M204.69 193.479L209.545 157.696C209.727 156.524 210.314 155.453 211.204 154.67C212.093 153.886 213.23 153.439 214.415 153.406H250.183C250.726 153.391 251.265 153.497 251.761 153.716C252.258 153.934 252.7 154.261 253.055 154.672C253.41 155.082 253.669 155.566 253.814 156.089C253.96 156.612 253.987 157.161 253.894 157.696L249.062 193.472C248.878 194.642 248.291 195.711 247.401 196.493C246.512 197.276 245.376 197.722 244.192 197.754H208.393C207.852 197.769 207.315 197.663 206.82 197.445C206.325 197.227 205.884 196.902 205.53 196.493C205.176 196.084 204.917 195.602 204.772 195.081C204.626 194.559 204.599 194.013 204.69 193.479Z" fill="#528BFF"/>
<path opacity="0.2" d="M204.69 193.479L209.545 157.696C209.727 156.524 210.314 155.453 211.204 154.67C212.093 153.886 213.23 153.439 214.415 153.406H250.183C250.726 153.391 251.265 153.497 251.761 153.716C252.258 153.934 252.7 154.261 253.055 154.672C253.41 155.082 253.669 155.566 253.814 156.089C253.96 156.612 253.987 157.161 253.894 157.696L249.062 193.472C248.878 194.642 248.291 195.711 247.401 196.493C246.512 197.276 245.376 197.722 244.192 197.754H208.393C207.852 197.769 207.315 197.663 206.82 197.445C206.325 197.227 205.884 196.902 205.53 196.493C205.176 196.084 204.917 195.602 204.772 195.081C204.626 194.559 204.599 194.013 204.69 193.479Z" fill="white"/>
<path d="M183.199 139.522C182.657 139.535 182.12 139.427 181.624 139.207C181.129 138.987 180.688 138.661 180.334 138.251C179.98 137.841 179.72 137.358 179.574 136.836C179.428 136.314 179.399 135.766 179.489 135.232L182.357 114.051C182.54 112.879 183.127 111.808 184.016 111.024C184.906 110.239 186.041 109.789 187.227 109.753C187.77 109.739 188.309 109.846 188.805 110.066C189.302 110.286 189.744 110.613 190.099 111.024C190.454 111.435 190.713 111.92 190.858 112.444C191.003 112.967 191.03 113.516 190.937 114.051L188.077 135.232C187.892 136.404 187.303 137.474 186.412 138.257C185.522 139.041 184.385 139.488 183.199 139.522Z" fill="white"/>
<path d="M170.329 124.639C170.514 123.466 171.103 122.395 171.994 121.611C172.884 120.826 174.021 120.377 175.207 120.341H196.404C196.946 120.328 197.485 120.436 197.981 120.657C198.477 120.877 198.918 121.204 199.272 121.615C199.627 122.026 199.886 122.51 200.032 123.033C200.177 123.555 200.205 124.104 200.114 124.639C199.929 125.809 199.341 126.878 198.452 127.662C197.563 128.445 196.428 128.893 195.244 128.929H174.063C173.519 128.945 172.979 128.84 172.481 128.621C171.983 128.403 171.539 128.077 171.182 127.667C170.825 127.256 170.563 126.772 170.416 126.248C170.268 125.725 170.239 125.175 170.329 124.639Z" fill="white"/>
<path d="M166.379 186.112C164.933 184.443 165.304 181.714 167.198 180.044L184.205 165.063C186.099 163.393 188.843 163.393 190.273 165.063C191.719 166.733 191.348 169.469 189.454 171.139L172.447 186.112C170.553 187.782 167.801 187.782 166.379 186.112Z" fill="white"/>
<path d="M169.225 165.063C171.119 163.393 173.863 163.393 175.301 165.063L188.249 180.044C189.695 181.714 189.324 184.443 187.43 186.112C185.536 187.782 182.792 187.782 181.362 186.112L168.406 171.139C166.96 169.469 167.331 166.733 169.225 165.063Z" fill="white"/>
<path d="M221.279 124.639C221.464 123.467 222.053 122.395 222.943 121.611C223.834 120.826 224.971 120.377 226.157 120.341H247.338C247.881 120.327 248.42 120.434 248.917 120.654C249.413 120.874 249.855 121.201 250.21 121.612C250.565 122.023 250.824 122.508 250.969 123.031C251.114 123.555 251.141 124.104 251.049 124.639C250.864 125.809 250.276 126.879 249.387 127.662C248.498 128.445 247.363 128.893 246.179 128.929H225.005C224.462 128.944 223.923 128.838 223.426 128.619C222.928 128.4 222.486 128.074 222.129 127.664C221.773 127.254 221.512 126.77 221.365 126.247C221.218 125.724 221.189 125.175 221.279 124.639Z" fill="white"/>
<path d="M215.299 168.912C215.485 167.741 216.073 166.671 216.964 165.887C217.855 165.104 218.991 164.656 220.177 164.622H241.358C241.9 164.61 242.438 164.718 242.933 164.937C243.428 165.157 243.869 165.484 244.223 165.894C244.578 166.304 244.837 166.787 244.983 167.308C245.13 167.83 245.159 168.378 245.069 168.912C244.885 170.084 244.298 171.155 243.409 171.94C242.52 172.725 241.384 173.174 240.199 173.21H219.01C218.467 173.223 217.929 173.115 217.433 172.895C216.937 172.674 216.496 172.347 216.141 171.936C215.787 171.525 215.527 171.041 215.382 170.519C215.236 169.996 215.208 169.447 215.299 168.912Z" fill="white"/>
<path d="M213.498 182.262C213.683 181.092 214.27 180.023 215.159 179.239C216.049 178.456 217.183 178.008 218.368 177.972H239.549C240.091 177.959 240.63 178.065 241.126 178.285C241.622 178.504 242.064 178.83 242.419 179.24C242.774 179.65 243.035 180.134 243.181 180.656C243.328 181.179 243.357 181.727 243.267 182.262C243.082 183.435 242.493 184.506 241.603 185.29C240.712 186.075 239.576 186.524 238.389 186.56H217.208C216.665 186.574 216.126 186.467 215.629 186.247C215.133 186.027 214.691 185.7 214.336 185.289C213.981 184.878 213.722 184.393 213.577 183.87C213.432 183.346 213.405 182.797 213.498 182.262Z" fill="white"/>
<path d="M104.69 96.3948C103.299 98.9767 101.869 101.76 100.562 104.481C99.2559 107.202 97.9959 109.977 96.9136 112.752C96.6276 113.448 96.3957 114.144 96.1406 114.839C96.0051 115.196 95.9268 115.571 95.9087 115.952C95.8777 117.049 96.0806 118.14 96.5039 119.153C97.6107 121.754 99.0812 124.185 100.872 126.373L98.2355 129.465C97.5005 128.99 96.7933 128.474 96.1174 127.919C95.4385 127.387 94.7907 126.817 94.1771 126.21C92.875 124.961 91.7349 123.554 90.7835 122.021C89.6761 120.262 88.9835 118.274 88.7582 116.208C88.6476 115.017 88.7444 113.817 89.0442 112.659C89.2607 111.886 89.4616 111.036 89.709 110.24C90.6563 107.079 91.8 103.981 93.1335 100.963C93.7983 99.4715 94.4786 97.995 95.2284 96.5417C95.9783 95.0884 96.6972 93.6815 97.5939 92.1973L104.69 96.3948Z" fill="#FF8B7B"/>
<path d="M99.7754 125.484L103.64 126.505L100.765 132.094C100.765 132.094 97.8892 130.996 97.178 128.468L99.7754 125.484Z" fill="#FF8B7B"/>
<path d="M108.974 128.266L105.51 132.649L100.772 132.093L103.647 126.504L108.974 128.266Z" fill="#FF8B7B"/>
<path d="M122.921 66.912C123.007 67.3449 123.308 67.6464 123.586 67.5922C123.865 67.5381 124.027 67.1362 123.934 66.711C123.841 66.2858 123.548 65.938 123.269 66.0307C122.991 66.1235 122.829 66.4791 122.921 66.912Z" fill="#1B2434"/>
<path d="M123.267 67.6543C124.046 68.8651 124.987 69.9628 126.066 70.9165C125.811 71.1804 125.502 71.3861 125.161 71.5195C124.819 71.653 124.453 71.7109 124.087 71.6895L123.267 67.6543Z" fill="#FF5652"/>
<path d="M123.845 70.5768C122.585 70.5768 121.333 69.2008 120.954 67.3146C120.747 66.3941 120.809 65.4336 121.132 64.5471C121.222 64.1821 121.413 63.85 121.684 63.5895C121.955 63.3289 122.295 63.1507 122.663 63.0754C123.031 63.0001 123.414 63.0309 123.765 63.1641C124.117 63.2974 124.423 63.5277 124.649 63.8282C125.277 64.5297 125.706 65.3856 125.894 66.3081C126.081 67.2305 126.02 68.1862 125.716 69.0771C125.605 69.4335 125.405 69.7555 125.134 70.0126C124.863 70.2697 124.531 70.4532 124.17 70.5458C124.063 70.5666 123.954 70.577 123.845 70.5768ZM123.01 63.2407C122.907 63.2293 122.804 63.2293 122.701 63.2407C122.374 63.329 122.075 63.4988 121.832 63.734C121.589 63.9692 121.409 64.2623 121.31 64.5858C121.001 65.438 120.942 66.3605 121.14 67.245C121.534 69.2008 122.879 70.5845 124.147 70.3371C124.474 70.2508 124.774 70.0818 125.018 69.8463C125.262 69.6108 125.441 69.3166 125.538 68.9921C125.829 68.1367 125.887 67.2196 125.708 66.3343C125.529 65.4489 125.118 64.6268 124.518 63.9519C124.326 63.7393 124.094 63.5669 123.835 63.4448C123.577 63.3227 123.296 63.2533 123.01 63.2407Z" fill="#1B2434"/>
<path d="M163.658 111.467L168.613 110.416L169.254 117.141C169.254 117.141 164.972 117.961 162.923 114.575L163.658 111.467Z" fill="#FF8B7B"/>
<path d="M173.299 111.923L172.982 116.832L169.256 117.141L168.614 110.416L173.299 111.923Z" fill="#FF8B7B"/>
<path d="M120.854 64.8483C120.822 64.8485 120.791 64.8424 120.762 64.8305C120.733 64.8185 120.706 64.801 120.684 64.7787C120.659 64.7556 120.639 64.7275 120.625 64.6962C120.612 64.665 120.604 64.6312 120.604 64.5971C120.604 64.5629 120.612 64.5292 120.625 64.4979C120.639 64.4667 120.659 64.4386 120.684 64.4154C120.954 64.1094 121.294 63.8725 121.675 63.7246C122.055 63.5767 122.466 63.522 122.872 63.5651C122.905 63.5698 122.938 63.5812 122.967 63.5986C122.996 63.616 123.022 63.639 123.042 63.6664C123.062 63.6938 123.076 63.7249 123.084 63.7579C123.092 63.791 123.094 63.8253 123.088 63.8588C123.075 63.9265 123.036 63.9867 122.98 64.0269C122.924 64.0671 122.855 64.0844 122.787 64.0753C122.465 64.0436 122.141 64.0896 121.841 64.2093C121.541 64.329 121.274 64.519 121.063 64.7633C121.036 64.7912 121.003 64.8132 120.967 64.8279C120.931 64.8425 120.893 64.8495 120.854 64.8483Z" fill="#1B2434"/>
<path d="M110.985 74.7344C111.758 78.7155 112.237 84.2272 109.439 86.8786C109.439 86.8786 110.521 90.9138 117.942 90.9138C126.074 90.9138 121.854 87.3734 121.854 87.3734C118.475 86.3221 118.506 82.4801 119.279 79.388L110.985 74.7344Z" fill="#FF8B7B"/>
<path d="M119.333 85.9119C121.157 84.5978 123.855 83.0594 124.419 84.6673C124.759 85.6336 124.899 90.3568 123.02 90.0012C120.245 89.4833 119.333 85.9119 119.333 85.9119Z" fill="#1B2434"/>
<path d="M107.931 89.5392C107.204 88.5188 107.235 85.2798 108.008 84.7077C109.253 83.7878 114.586 83.5714 121.776 85.2257C121.003 88.3642 122.665 90.0107 122.665 90.0107L107.931 89.5392Z" fill="#528BFF"/>
<path d="M83.7678 273.063C83.9872 273.141 84.2197 273.174 84.452 273.16C84.6842 273.147 84.9115 273.088 85.1206 272.986C85.2034 272.914 85.2603 272.817 85.2827 272.709C85.305 272.602 85.2915 272.49 85.2443 272.391C85.2228 272.307 85.1824 272.229 85.1261 272.163C85.0698 272.098 84.9991 272.046 84.9196 272.012C84.1466 271.656 82.4923 272.344 82.4227 272.375C82.3997 272.385 82.38 272.401 82.3662 272.421C82.3524 272.442 82.3452 272.466 82.3454 272.491C82.344 272.516 82.3498 272.541 82.3621 272.563C82.3744 272.585 82.3928 272.603 82.415 272.615C82.8504 272.808 83.3035 272.958 83.7678 273.063ZM84.6568 272.19L84.8037 272.244C84.851 272.263 84.8935 272.292 84.9283 272.33C84.963 272.367 84.9891 272.412 85.0047 272.46C85.0742 272.692 85.0047 272.77 84.9583 272.793C84.6645 273.04 83.5746 272.793 82.817 272.507C83.3991 272.266 84.0276 272.157 84.6568 272.19Z" fill="#528BFF"/>
<path d="M82.4475 272.623H82.5093C83.1277 272.437 84.4419 271.502 84.4573 270.891C84.4579 270.794 84.4252 270.7 84.3648 270.624C84.3043 270.548 84.2197 270.495 84.1249 270.474C84.032 270.44 83.9326 270.426 83.8338 270.434C83.735 270.442 83.6391 270.471 83.5529 270.52C82.8262 270.891 82.3702 272.391 82.3547 272.461C82.35 272.477 82.3487 272.495 82.3509 272.512C82.353 272.529 82.3585 272.546 82.3672 272.561C82.3758 272.576 82.3873 272.59 82.4011 272.6C82.4149 272.611 82.4307 272.619 82.4475 272.623ZM83.9935 270.698H84.0476C84.21 270.752 84.21 270.83 84.21 270.868C84.21 271.232 83.3287 271.966 82.6639 272.26C82.8296 271.656 83.1747 271.117 83.6534 270.714C83.7579 270.665 83.8772 270.66 83.9858 270.698H83.9935Z" fill="#528BFF"/>
<path d="M123.91 273.974C124.613 273.974 125.286 273.874 125.51 273.565C125.566 273.481 125.597 273.383 125.597 273.282C125.597 273.182 125.566 273.084 125.51 273C125.466 272.925 125.407 272.859 125.336 272.807C125.266 272.755 125.185 272.718 125.1 272.699C124.196 272.451 122.294 273.534 122.217 273.58C122.194 273.593 122.175 273.612 122.163 273.636C122.151 273.659 122.145 273.685 122.147 273.711C122.153 273.738 122.166 273.763 122.185 273.782C122.204 273.801 122.229 273.814 122.255 273.82C122.801 273.92 123.355 273.972 123.91 273.974ZM124.775 272.915C124.858 272.907 124.941 272.907 125.023 272.915C125.128 272.939 125.219 273.003 125.278 273.093C125.371 273.255 125.332 273.333 125.278 273.379C125.023 273.735 123.647 273.742 122.642 273.596C123.303 273.234 124.027 273.003 124.775 272.915Z" fill="#528BFF"/>
<path d="M122.269 273.822H122.323C122.98 273.528 124.279 272.353 124.178 271.735C124.178 271.588 124.055 271.41 123.699 271.379C123.571 271.365 123.441 271.376 123.317 271.413C123.194 271.451 123.079 271.513 122.98 271.596C122.489 272.19 122.195 272.922 122.138 273.691C122.137 273.708 122.139 273.726 122.145 273.743C122.152 273.76 122.161 273.775 122.173 273.788C122.186 273.802 122.2 273.812 122.217 273.819C122.233 273.826 122.251 273.83 122.269 273.83V273.822ZM123.591 271.619H123.668C123.9 271.619 123.916 271.727 123.923 271.758C123.985 272.129 123.096 273.057 122.431 273.459C122.491 272.838 122.742 272.252 123.15 271.781C123.271 271.673 123.429 271.615 123.591 271.619Z" fill="#528BFF"/>
<path d="M116.286 273.696H121.728L122.269 261.104H116.827L116.286 273.696Z" fill="#FF8B7B"/>
<path d="M76.3857 271.178L81.6964 272.33L87.0381 260.603L81.7196 259.451L76.3857 271.178Z" fill="#FF8B7B"/>
<path d="M82.2046 271.796L76.2368 270.505C76.1313 270.482 76.0212 270.496 75.9244 270.544C75.8276 270.591 75.7497 270.67 75.7034 270.768L73.6317 275.267C73.5765 275.376 73.548 275.496 73.5483 275.618C73.5487 275.74 73.578 275.861 73.6338 275.969C73.6896 276.078 73.7704 276.172 73.8694 276.243C73.9685 276.314 74.083 276.361 74.2037 276.38C76.2986 276.79 77.3422 276.89 79.9628 277.454C81.5784 277.81 85.2271 278.699 87.4534 279.178C89.6797 279.657 90.4528 277.516 89.587 277.122C85.7218 275.336 84.0521 273.767 83.0008 272.306C82.8074 272.044 82.5238 271.862 82.2046 271.796Z" fill="#1B2434"/>
<path d="M121.689 273.063H115.753C115.644 273.062 115.539 273.098 115.455 273.166C115.37 273.233 115.312 273.328 115.289 273.434L114.214 278.288C114.183 278.405 114.179 278.527 114.203 278.646C114.228 278.764 114.28 278.875 114.355 278.97C114.43 279.065 114.527 279.141 114.636 279.191C114.746 279.242 114.866 279.266 114.987 279.262C117.129 279.224 120.228 279.1 122.919 279.1C126.065 279.1 128.786 279.27 132.481 279.27C134.707 279.27 135.333 277.013 134.398 276.804C130.139 275.876 126.668 275.776 122.996 273.511C122.61 273.243 122.158 273.088 121.689 273.063Z" fill="#1B2434"/>
<path d="M99.7153 88.1237C94.621 89.291 90.439 102.301 90.439 102.301L100.674 110.101C103.318 107.277 105.183 103.814 106.085 100.052C107.832 93.218 104.926 86.9178 99.7153 88.1237Z" fill="#528BFF"/>
<path opacity="0.4" d="M99.7153 88.1237C94.621 89.291 90.439 102.301 90.439 102.301L100.674 110.101C103.318 107.277 105.183 103.814 106.085 100.052C107.832 93.218 104.926 86.9178 99.7153 88.1237Z" fill="white"/>
<path d="M130.274 94.3066L138.862 102.207C140.292 103.521 141.722 104.828 143.16 106.111C144.598 107.394 146.036 108.677 147.419 109.79L146.221 109.149C146.886 109.396 147.582 109.636 148.316 109.829C149.051 110.022 149.808 110.185 150.589 110.339C152.195 110.63 153.816 110.839 155.443 110.965C157.106 111.105 158.806 111.197 160.515 111.244C162.223 111.29 163.993 111.329 165.671 111.336L166.444 115.341C164.678 115.981 162.87 116.498 161.032 116.887C159.191 117.285 157.327 117.569 155.451 117.737C153.526 117.913 151.591 117.941 149.661 117.822C147.611 117.704 145.58 117.354 143.608 116.779L143.029 116.608L142.418 116.137C140.717 114.831 139.21 113.555 137.695 112.272C136.18 110.989 134.711 109.659 133.242 108.337C130.32 105.678 127.421 103.034 124.584 100.29L130.274 94.3066Z" fill="#FF8B7B"/>
<path opacity="0.2" d="M104.082 97.6777C101.315 100.414 100.41 105.408 100.217 109.737L100.673 110.085C103.316 107.259 105.18 103.797 106.084 100.035C106.185 99.6335 106.278 99.2624 106.347 98.8218L104.082 97.6777Z" fill="black"/>
<path d="M131.92 93.5339C133.033 99.4089 133.729 111.476 130.498 135.362H101.416C101.215 130.902 104.021 109.118 99.7156 88.084C102.933 87.4663 106.186 87.0557 109.456 86.8549C113.575 86.6187 117.705 86.6187 121.824 86.8549C123.185 86.9786 124.522 87.1796 125.689 87.3883C127.227 87.6631 128.646 88.3974 129.758 89.4945C130.87 90.5916 131.624 91.9999 131.92 93.5339Z" fill="#528BFF"/>
<path opacity="0.4" d="M131.92 93.5339C133.033 99.4089 133.729 111.476 130.498 135.362H101.416C101.215 130.902 104.021 109.118 99.7156 88.084C102.933 87.4663 106.186 87.0557 109.456 86.8549C113.575 86.6187 117.705 86.6187 121.824 86.8549C123.185 86.9786 124.522 87.1796 125.689 87.3883C127.227 87.6631 128.646 88.3974 129.758 89.4945C130.87 90.5916 131.624 91.9999 131.92 93.5339Z" fill="white"/>
<path opacity="0.2" d="M127.467 102.248L132.723 100.988C132.886 104.173 132.901 108.116 132.662 112.993C130.242 110.241 127.158 105.943 127.467 102.248Z" fill="black"/>
<path opacity="0.2" d="M122.27 261.104L121.992 267.597H116.55L116.828 261.104H122.27Z" fill="black"/>
<path opacity="0.2" d="M81.719 259.451L87.0374 260.603L84.2777 266.648L78.967 265.496L81.719 259.451Z" fill="black"/>
<path d="M108.392 68.9218C109.791 74.132 110.348 77.255 113.564 79.4195C118.403 82.6817 124.386 78.9402 124.61 73.4131C124.78 68.4425 122.469 60.7509 116.88 59.6996C115.647 59.4619 114.373 59.5434 113.181 59.9363C111.988 60.3292 110.915 61.0204 110.065 61.9444C109.215 62.8684 108.615 63.9945 108.322 65.2157C108.029 66.4368 108.053 67.7126 108.392 68.9218Z" fill="#FF8B7B"/>
<path d="M120.224 69.3162C122.667 68.9683 121.963 66.1467 121.051 64.763C121.051 64.763 126.462 58.2309 120.224 55.5949C113.985 52.9589 115.493 57.0714 115.493 57.0714C115.493 57.0714 110.6 53.3995 106.348 56.3679C102.096 59.3364 105.768 60.6196 105.768 60.6196C105.768 60.6196 98.0379 62.8923 101.13 66.8038C104.222 70.7153 107.415 70.3211 107.415 70.3211C107.415 70.3211 101.006 72.8489 105.869 75.6859C110.731 78.5229 112.555 78.6466 112.555 78.6466C113.855 78.8083 115.17 78.5051 116.268 77.7907C117.366 77.0763 118.175 75.9967 118.554 74.7428L120.224 69.3162Z" fill="#1B2434"/>
<path d="M118.122 69.3302C118.227 70.6708 118.77 71.9396 119.668 72.9402C120.851 74.2466 122.088 73.4272 122.304 71.8425C122.49 70.4047 122.103 67.9774 120.65 67.2817C119.197 66.5859 118.03 67.7146 118.122 69.3302Z" fill="#FF8B7B"/>
<path d="M120.184 135.389C120.184 135.389 114 176.939 110.622 192.508C106.911 209.553 87.0215 265.945 87.0215 265.945L77.2891 263.835C77.2891 263.835 91.2036 217.871 94.2957 194.038C96.6921 175.733 101.4 135.373 101.4 135.373L120.184 135.389Z" fill="#1B2434"/>
<path d="M89.3546 262.704L87.538 266.229L76.5842 263.856L77.5119 260.562L89.3546 262.704Z" fill="#528BFF"/>
<path opacity="0.3" d="M116.279 150.189C109.144 151.588 109.901 178.196 110.759 191.886C112.815 182.208 115.83 163.594 117.887 150.382C117.388 150.136 116.821 150.068 116.279 150.189Z" fill="black"/>
<path d="M130.498 135.389C130.498 135.389 131.271 176.042 130.66 192.593C130.042 209.839 124.02 266.309 124.02 266.309H114.806C114.806 266.309 114.473 210.844 114.033 193.907C113.615 175.478 111.373 135.389 111.373 135.389H130.498Z" fill="#1B2434"/>
<path d="M125.788 262.672C125.834 262.672 125.27 266.491 125.27 266.491H114.061L113.759 263.082L125.788 262.672Z" fill="#528BFF"/>
<path d="M120.523 95.3446C117.91 102.371 133.232 110.651 133.232 110.651L139.864 102.147C139.864 102.147 135.435 93.3425 130.008 89.3691C123.298 84.4449 122.502 89.9952 120.523 95.3446Z" fill="#528BFF"/>
<path opacity="0.4" d="M120.523 95.3446C117.91 102.371 133.232 110.651 133.232 110.651L139.864 102.147C139.864 102.147 135.435 93.3425 130.008 89.3691C123.298 84.4449 122.502 89.9952 120.523 95.3446Z" fill="white"/>
<path d="M164.522 113.595C165.572 113.595 166.423 112.954 166.423 112.164C166.423 111.375 165.572 110.734 164.522 110.734C163.472 110.734 162.62 111.375 162.62 112.164C162.62 112.954 163.472 113.595 164.522 113.595Z" fill="#1B2434"/>
<path d="M163.792 116.727C163.735 116.728 163.678 116.716 163.626 116.692C163.574 116.667 163.527 116.632 163.491 116.588C163.426 116.51 163.394 116.409 163.403 116.308C163.411 116.207 163.46 116.113 163.537 116.047C163.583 116.008 164.573 115.104 164.148 113.001C164.138 112.952 164.137 112.901 164.147 112.852C164.157 112.802 164.176 112.755 164.204 112.714C164.233 112.672 164.269 112.636 164.311 112.609C164.353 112.581 164.4 112.562 164.449 112.553C164.499 112.543 164.55 112.542 164.6 112.552C164.65 112.562 164.697 112.581 164.74 112.609C164.782 112.637 164.818 112.673 164.847 112.715C164.875 112.757 164.895 112.804 164.905 112.854C165.431 115.428 164.094 116.588 164.039 116.634C163.97 116.693 163.883 116.726 163.792 116.727Z" fill="#1B2434"/>
<path opacity="0.4" d="M166.07 112.086C166.07 112.674 165.382 113.146 164.524 113.146C163.666 113.146 162.978 112.674 162.978 112.086C162.978 111.499 163.666 111.035 164.524 111.035C165.382 111.035 166.07 111.476 166.07 112.086Z" fill="white"/>
<path d="M122.918 86.9422C119.362 89.4854 113.201 99.3106 112.095 105.116C112.088 105.154 112.069 105.19 112.041 105.217C112.013 105.244 111.977 105.263 111.939 105.269C111.9 105.276 111.861 105.271 111.825 105.254C111.79 105.238 111.76 105.211 111.74 105.178C108.383 99.7401 106.391 93.5712 105.934 87.1973C105.932 87.1718 105.925 87.1471 105.914 87.1244C105.902 87.1017 105.886 87.0815 105.867 87.0649C105.848 87.0484 105.825 87.0359 105.801 87.0281C105.777 87.0203 105.751 87.0174 105.726 87.0195C104.86 87.0773 103.998 87.1831 103.144 87.3364C103.102 87.3482 103.064 87.3735 103.038 87.4083C103.011 87.4432 102.997 87.4858 102.997 87.5297C103.417 95.4963 106.253 103.146 111.129 109.46C111.139 109.48 111.144 109.501 111.144 109.522C111.144 109.544 111.139 109.565 111.129 109.584C110.658 118.281 111.284 133.826 111.361 135.674C111.363 135.724 111.384 135.771 111.42 135.806C111.456 135.84 111.504 135.859 111.554 135.859H113.873C113.899 135.859 113.925 135.854 113.949 135.844C113.973 135.834 113.995 135.819 114.013 135.8C114.031 135.781 114.045 135.759 114.054 135.735C114.063 135.71 114.068 135.684 114.067 135.658C113.958 133.88 113.232 120.376 114.067 109.298C115.373 101.058 123.188 89.9183 125.933 87.7152C125.962 87.6932 125.984 87.663 125.997 87.6283C126.009 87.5936 126.01 87.5561 126.001 87.5205C125.992 87.4849 125.973 87.4528 125.945 87.4283C125.918 87.4037 125.884 87.3879 125.848 87.3828C124.688 87.1277 123.358 86.9654 123.041 86.9344C123 86.9234 122.957 86.9261 122.918 86.9422Z" fill="#528BFF"/>
</svg>
