<svg width="12" height="12" viewBox="0 0 12 12" fill="none" xmlns="http://www.w3.org/2000/svg">
<path d="M11.7224 7.57799L10.4564 6.58499C10.4804 6.39298 10.4984 6.19799 10.4984 5.99999C10.4984 5.80199 10.4804 5.607 10.4564 5.41499L11.7254 4.42198C11.8394 4.33198 11.8724 4.16998 11.7974 4.03799L10.5974 1.95899C10.5224 1.82998 10.3664 1.77598 10.2314 1.82998L8.73739 2.43298C8.42838 2.19597 8.08939 1.99499 7.7234 1.84199L7.4984 0.252C7.47137 0.111009 7.34838 0 7.19839 0H4.7984C4.64841 0 4.52539 0.111009 4.5014 0.252L4.2764 1.84199C3.91041 1.99499 3.57139 2.19299 3.26241 2.43298L1.76841 1.82998C1.63341 1.77899 1.4774 1.82998 1.40242 1.95899L0.202385 4.03799C0.127375 4.167 0.160394 4.329 0.274385 4.42198L1.54037 5.41499C1.51638 5.607 1.49838 5.80199 1.49838 5.99999C1.49838 6.19799 1.51638 6.39298 1.54037 6.58499L0.274385 7.57799C0.160394 7.66799 0.127375 7.82999 0.202385 7.96198L1.40239 10.041C1.4774 10.17 1.63338 10.224 1.76838 10.17L3.26238 9.56699C3.57139 9.804 3.91038 10.005 4.27637 10.158L4.50137 11.748C4.52536 11.889 4.64838 12 4.79837 12H7.19836C7.34835 12 7.47137 11.889 7.49536 11.748L7.72036 10.158C8.08635 10.005 8.42537 9.80698 8.73435 9.56699L10.2283 10.17C10.3633 10.221 10.5194 10.17 10.5943 10.041L11.7943 7.96198C11.8694 7.833 11.8364 7.671 11.7224 7.57799ZM5.99838 8.09999C4.83738 8.09999 3.89837 7.16098 3.89837 5.99999C3.89837 4.83899 4.83738 3.90001 5.99838 3.90001C7.15938 3.90001 8.09839 4.83902 8.09839 6.00001C8.09839 7.16101 7.15938 8.09999 5.99838 8.09999Z" fill="#081A3E"/>
</svg>
