<?xml version="1.0" encoding="utf-8"?>
<!-- Generator: Adobe Illustrator 26.0.1, SVG Export Plug-In . SVG Version: 6.00 Build 0)  -->
<svg version="1.1" id="Layer_1" xmlns="http://www.w3.org/2000/svg" xmlns:xlink="http://www.w3.org/1999/xlink" x="0px" y="0px"
	 viewBox="0 0 595.3 841.9" style="enable-background:new 0 0 595.3 841.9;" xml:space="preserve">
<style type="text/css">
	.st0{fill:#FFFFFF;}
</style>
<g>
	<path d="M334.1,608.1c-2,3.1-4,6.2-6.1,9.2c-0.4,0.5-1.4,1.2-1.7,1c-0.6-0.4-1.3-1.3-1.2-1.9c0.3-2.7,0.6-5.4,1.4-7.9
		c2-6.1,4.3-12,6.5-18.1c0.1-0.2,0.2-0.5,0.3-0.7c4-8.3,7.8-16.8,12.1-25c6.1-11.7,12.7-23.2,19-34.7c9.5-17.5,18.9-35,28.6-52.4
		c4.5-8.1,9.3-16,14-24c0.9-1.5,1.7-3,2.2-4.6c-5.3,4.9-10.3,10.1-15.9,14.7c-6.3,5.1-13.1,9.8-19.8,14.4c-2.7,1.9-5.8,3.4-8.8,4.7
		c-2.2,0.9-4.7,1.1-7,1.6c-6,1.3-12,2.6-18,4.1c-3,0.7-6.2-0.5-8.5-2.3c-5.6-4.4-4.7-10.5-4.8-16.4c0-2.4,0-4.8,0-7
		c-4.1,3.9-8,7.8-12,11.5c-2.7,2.5-4.1,2.6-6.9,0.7c-2.8,3.4-5.5,6.9-8.5,10.1c-2.1,2.3-4.6,4.4-7,6.5c-1.4,1.2-4.1,0.5-4.7-1.2
		c-0.6-1.8-1-3.8-1-5.6c0.2-6.9,2.1-13.5,4.4-20c0.2-0.4,0.3-0.9,0-1.7c-0.5,0.5-1.2,0.9-1.6,1.6c-1.8,3.6-3.2,7.3-5.2,10.7
		c-3.6,6-7.5,11.7-11.3,17.6c-1.3,2-2.8,3.8-4.2,5.7c-1.5,1.9-3.3,2.8-5.1,1.9c-4.8,7.5-9.5,14.8-14.4,22.1
		c-1.9,2.8-3.9,5.5-6.1,8.1c-1.8,2.1-3.9,3.9-6.2,5.5c-1.9,1.3-5.4-0.3-5.7-2.8c-0.5-3.3-0.9-6.6-0.5-9.9c0.9-8.5,3.8-16.5,7-24.4
		c1.8-4.5,3.6-9,5.4-13.6c0.1-0.3-0.1-0.7-0.3-1.6c-2.4,3.6-4.5,6.7-6.7,9.9c-1.8,2.6-3.6,5.2-5.4,7.9c-3.5,5.1-7.1,10.2-10.4,15.4
		c-3.7,5.8-7.2,11.8-10.9,17.6c-7.6,11.7-15.3,23.4-22.9,35.1c-4.8,7.4-9.5,14.9-14.5,22.2c-4,5.9-8.2,11.7-12.6,17.4
		c-1.6,2-3.9,3.4-6,4.9c-2.1,1.5-4.1,1.1-5.9-0.8c-3.4-3.7-5.7-8.1-7.3-12.9c-1.1-3.4-1.8-7-2.8-11c-1.6,1.2-3.1,2.4-4.6,3.6
		c-7.1,5.8-14,11.9-21.4,17.3c-7.1,5.2-14.5,9.9-22,14.3c-7.4,4.3-15.2,8-22.9,11.6c-4.1,1.9-8.5,2.8-13.2,2.6
		c-3.3-0.2-6.8,0.4-9.9-0.4c-2.1-0.5-4.3-2.6-5.5-4.5c-5.9-9.6-3.7-20.4-3.2-30.7c0.3-7.5,1.4-14.9,2.9-22.3
		c2-9.8,3.8-19.7,7.6-29.2c2.3-5.7,3.6-11.9,5.8-17.7c2.3-6.2,4.9-12.4,7.6-18.5c2.9-6.6,5.9-13.3,9.3-19.6
		c5.9-11,11.9-21.9,18.4-32.5c5-8.2,10.5-16.1,16.2-23.8c2.8-3.8,6.7-6.7,10.2-10c2.5-2.3,5-4.6,7.7-6.7c5.4-4.2,11.3-7.3,18.5-6.4
		c4.7,0.6,10.3,6.2,10.6,11.1c0.3,5.4,0.2,10.7,0.3,16.1c0,0.4,0.2,0.7,0.7,1.2c0.8-2.9,1.6-5.9,2.4-8.8c1.3-4.6,2.5-9.3,4-13.8
		c3.1-9.2,6.1-18.4,9.7-27.3c5-12.3,10.3-24.5,15.8-36.6c7.2-15.8,15.7-30.9,25.2-45.3c6.3-9.6,13-19.1,20.2-28.2
		c7.5-9.5,15.2-18.9,23.6-27.6c6.4-6.7,14.1-12.2,21.2-18.1c10.3-8.5,22.4-13.7,34.3-19.1c2.1-1,4.5-1.2,6.7-1.8
		c1.8-0.5,3.7-1.3,5.5-1.5c8-0.8,16-0.6,23,3.7c4.3,2.7,7.5,6.7,9.4,11.6c3.4,9,3.7,18.2,2.1,27.4c-1.3,8.1-2.9,16.3-4.9,24.3
		c-1.4,5.5-3.8,10.8-5.7,16.2c-1,2.9-1.7,6-3,8.9c-6.5,14-12.8,28-19.7,41.8c-4.2,8.4-9.1,16.5-14,24.5c-3.6,6-7.4,12-11.5,17.7
		c-7.1,9.8-14.9,19.1-24.4,26.8c-5.1,4.1-10.8,7.3-16.3,10.8c-0.7,0.5-1.9,0.8-2.6,0.6c-3-0.8-3.8,0.9-4.9,3.2
		c-6.5,13-13.1,26-19.7,38.9c-7.4,14.4-15.9,28.1-25,41.4c-6.1,8.9-12,17.9-19,26.1c-9.6,11.3-20,21.9-30.1,32.7
		c-4,4.3-8.1,8.4-12,12.7c-0.5,0.5-0.9,1.3-0.9,2c0.5,7.2,2.7,13.8,6.5,20c0.9,1.4,1.9,2.8,3.1,3.9c1.3,1.2,2.7,0.8,4.1-0.2
		c5.9-4.5,9.7-10.7,13.8-16.6c5-7.4,9.9-14.8,14.8-22.3c3.9-6,7.8-12,11.7-18c4.6-7,9.2-13.9,13.7-20.9c4-6.2,7.6-12.5,11.7-18.6
		c7-10.3,14.2-20.5,21.3-30.8c3.2-4.6,6.4-9.3,9.1-14.2c2.3-4.1,3.8-8.6,5.9-12.7c3-5.8,6.3-11.5,9.5-17.2c2.9-5.1,5.5-10.3,8.8-15
		c3.9-5.4,8.7-10.3,12.8-15.6c1.4-1.8,2.8-2.7,4.9-3.2c1.8-0.4,2.4,0.2,2.4,1.8c0,0.8,0,1.7-0.4,2.4c-3.1,5.4-6.3,10.8-9.6,16.2
		c-2.7,4.3-5.5,8.5-8.3,12.6c-1.8,2.7-3.8,5.3-5.8,8c-4.7,6.2-9.3,12.4-14.1,18.4c-4.8,6-7.7,12.8-10.5,19.8
		c-1.8,4.5-3.7,8.9-5.3,13.5c-2.4,6.8-4.8,13.6-6.8,20.6c-1.4,4.8-1.5,9.8,0.9,14.6c4.2-1.9,7.7-4.4,10.2-7.9
		c4.5-6.4,9-12.9,13.1-19.5c2.6-4.1,4.2-8.6,5.5-13.4c2.5-9.1,6.1-18,9.6-26.8c2.7-7,5.8-13.8,8.7-20.7c0.5-1.1,1.2-2,1.8-3.1
		c0.3-0.4,0.7-0.9,0.7-1.3c0-0.8-0.5-2.1-0.2-2.5c1.9-1.8,4-3.5,6-5.2c0.3,0.1,0.6,0.2,0.9,0.4c-0.8,2.8-1.4,5.8-2.4,8.5
		c-3.6,9.2-7.3,18.4-11.2,27.6c-2.9,6.9-6,13.7-9.1,20.5c-0.7,1.4-1.7,2.7-2.4,4.1c-0.3,0.6-0.2,1.4-0.2,2.1c0.3,0.2,0.7,0.3,1,0.5
		c1.6-2,3.3-4.1,4.9-6.1c1.1-1.3,1.5-3,3.7-3.5c1.1-0.3,1.9-2.6,2.7-4.1c2.5-4.5,4.9-9,7.3-13.5c1.8-3.4,3.3-7,5.1-10.4
		c4.2-7.9,8.5-15.7,12.8-23.5c0.3-0.5,1.1-0.7,1.7-1c0.2,0.1,0.4,0.3,0.6,0.4c-0.3,1.1-0.5,2.2-1,3.2c-1.7,3.7-3.6,7.2-5.1,11
		c-2.3,5.7-4.6,11.4-6.4,17.2c-2,6.4-3.3,13-3.3,19.8c0,0.8,0.5,1.6,0.8,2.5c0.7-0.3,1.6-0.3,2.2-0.8c2.9-2.5,5.7-5.1,8.5-7.6
		c0.1-0.1,0.1-0.2,0.2-0.2c5.5-3.2,6.5-8.6,7.5-14.2c1.6-9.2,5.4-17.5,10.4-25.3c1.8-2.8,3.7-5.5,5.6-8.3c0.5-0.7,1.1-1.4,1.8-1.7
		c0.7-0.3,1.7-0.2,2.5-0.3c0,0.8,0.2,1.6-0.1,2.3c-5.1,10.5-10.3,21-15.5,31.5c-1.3,2.7-3.7,5.2-2.4,8.8c3.9-0.8,5.8-4,8.5-6.4
		c1.6-1.5,3.1-3.1,4.6-4.6c1.9-1.9,3.1-3.9,4-6.6c1.4-4.4,4-8.5,6.3-12.6c1.2-2.2,2.7-4.3,4.3-6.2c1.1-1.4,2.6-2.4,4.2-3.3
		c-2.4,4.3-4.8,8.5-7,12.8c-2.2,4.3-4.4,8.7-6.1,13.3c-0.8,2.3-0.6,5-0.7,7.5c-0.1,3.5-0.2,7.1,0,10.7c0.2,4.3,6.2,8.9,10.5,8
		c4.5-1,9-2.2,13.5-3.3c2.3-0.5,4.6-0.8,6.9-1.3c1.9-0.4,3.9-0.6,5.5-1.5c5-2.8,10.2-5.5,14.8-8.9c5.9-4.4,11.6-9.2,17-14.2
		c6-5.4,12-10.8,17.3-16.8c3.6-4.2,6.1-9.4,9-14.1c-0.2-0.2-0.4-0.4-0.6-0.7c-1.8,0.3-3.7,0.4-5.5,0.8c-4.9,0.9-9.7,2-14.6,2.7
		c-4.4,0.6-8.9,1.2-13.3,1c-3-0.1-6-1.3-8.9-2.2c-1.5-0.5-1.3-3.2,0.6-4.4c3.5-2.3,7.1-4.7,10.8-6.5c5.8-2.9,11.8-5.4,17.7-8.1
		c10-4.6,20-9.3,29.9-14c1.3-0.6,2.5-2,3.3-3.3c7.9-14.2,15.6-28.5,23.4-42.7c6.9-12.4,13.9-24.7,20.9-37c2.9-5,5.7-10.1,8.8-15.1
		c3.8-6.1,7.6-12.1,11.6-18c4.9-7.2,9.6-14.7,15.2-21.4c6-7.1,11.9-14.5,19.9-19.7c0.9-0.6,2.1-0.6,3.2-0.9c0.2,1,0.7,2.1,0.4,3
		c-0.7,2.7-1.5,5.4-2.8,7.8c-4.8,9.6-9.8,19.1-14.9,28.6c-4.6,8.5-9.3,16.8-14.1,25.2c-3.1,5.4-6.4,10.7-9.5,16.1
		c-3.9,6.8-7.7,13.8-11.7,20.6c-2.5,4.2-5.3,8.1-8,12.2c-2,3-3.8,6.1-5.8,9.1c-3.6,5.4-7.4,10.7-11,16.1c-1.2,1.8-2.2,3.8-3.6,6.3
		c2.1-1.2,3.9-2.1,5.6-3.1c8.6-4.8,17.2-9.5,25.7-14.5c13.8-8.2,27.5-16.7,41.3-24.8c5.2-3.1,10.8-5.4,16.2-8.1
		c3.9-1.9,8-3.7,11.7-5.9c2.3-1.4,4.6-1.4,6.7-0.4c0.7,0.3,1.3,2.5,0.9,3.5c-0.5,1.4-1.7,2.7-2.9,3.7c-5.7,5.1-12.7,8.2-19,12.3
		c-9.6,6.1-19.1,12.6-27.8,20c-9.6,8.1-18.5,17.3-27.3,26.3C487.9,398,481,406,474,413.8c-0.6,0.7-1.2,1.4-1.7,2.9
		c1.6,0,3.1,0,4.7,0c3.1,0.1,6.1,0.2,9.2,0.3c3.3,0.1,6.6,0.2,9.8,0.6c3.2,0.4,6.3,1,9.4,1.9c3.4,1,6.8,2.1,9.9,3.6
		c4.1,2,4.8,5.9,1.2,8.7c-4.9,3.9-10.1,7.7-15.6,10.7c-8.6,4.6-17.5,8.7-26.4,12.7c-8,3.6-16.1,6.9-24.2,10
		c-6.4,2.4-12.9,4.3-19.4,6.5c-1.7,0.6-3.6,1.5-4.7,2.8c-3.5,4.2-6.7,8.7-10.3,13.5c1.9,0.6,3.6,1.3,5.4,1.6
		c4.3,0.9,8.6,1.7,12.9,2.5c6.1,1.2,12.1,2.5,18.2,3.7c4.9,1,9.9,1.9,14.8,2.8c0.2,0,0.5,0,0.8,0.1c3.6,1.1,7.2,2.2,10.8,3.3
		c0.3,0.1,0.6,0.5,1.5,1.3c-5.3-0.7-9.9-1.2-14.4-1.9c-3.8-0.6-7.6-1.3-11.4-2c-6.9-1.2-13.7-2.4-20.6-3.6
		c-6.1-1.1-12.2-2.5-18.3-3.6c-0.9-0.2-2.4,0.4-3,1.2c-2.5,3.1-4.7,6.5-7,9.7c-3.1,4.2-6.2,8.3-9.3,12.5c-4.7,6.4-9.5,12.7-14,19.3
		c-6.1,8.9-11.9,17.9-17.8,26.9c-6.4,9.8-12.7,19.6-19.1,29.4C341.7,596.9,337.8,602.5,334.1,608.1c0.2-1,0.4-2.2,0.9-3.2
		c2.6-4.8,5.2-9.6,7.9-14.3c1.9-3.3,4-6.4,6.1-9.6c4.5-6.7,9-13.4,13.5-20.1c2.5-3.8,5-7.5,7.6-11.3c2.9-4.2,5.9-8.4,8.7-12.7
		c2.9-4.3,5.6-8.6,8.5-12.9c1.6-2.4,3.2-4.7,4.9-7c4-5.3,8.1-10.4,11.9-15.7c2.4-3.3,4.5-6.8,6.8-10.5c-0.8-0.3-1.7-0.8-2.7-1.2
		c-4.2-1.9-8.5-3.8-12.7-5.9c-1.4-0.7-2.2-0.7-2.9,0.6c-2.2,4.1-4.5,8.2-6.7,12.4c-3.5,6.5-6.9,13.1-10.6,19.5
		c-4.4,7.6-8,15.6-13.1,22.8c-0.8,1.1-1.5,2.2-2.1,3.3c-3.7,7-7.4,14-10.9,21.1c-4.8,9.7-9.5,19.3-13.9,29.2
		c-2.3,5.1-3.8,10.6-5.7,15.8c-0.3,0.9-0.7,1.8-1.1,2.8C330.7,610.2,332.4,609.1,334.1,608.1z M313.1,281.1
		c-0.2,0.1-0.4,0.2-0.5,0.3c0.5,1,1.1,2,1.4,2.6c-0.9,1-1.7,1.7-2.2,2.5c-2.5,5.1-5.1,10.2-7.4,15.5c-4.6,10.2-9.1,20.5-13.6,30.7
		c-7.4,16.7-14.7,33.5-22,50.3c-4.8,11-9.5,21.9-14.3,32.9c-1.7,3.9-3.5,7.8-5.5,12.3c1.6-0.3,2.8-0.2,3.7-0.7
		c3.5-2,6.8-4.2,10.2-6.5c8.5-5.6,15.6-12.8,22.1-20.5c5.5-6.4,10.6-13.3,15.2-20.4c6.5-10.1,12.5-20.5,18.4-30.8
		c2.9-5,5.3-10.3,7.7-15.6c2.9-6.4,5.5-12.9,8.3-19.4c2.6-6.1,5.3-12.1,7.6-18.4c3.9-10.9,7.9-21.8,9.1-33.6
		c0.8-8.2,1.5-16.2-0.3-24.4c-2.2-9.4-7.5-15.5-16.7-18.8c-10.3-3.7-19.7-0.2-28.9,3.1c-6.4,2.3-12.3,6-18.4,9.3
		c-8.2,4.4-15.5,10-22.2,16.4c-4.2,4.1-8.8,7.8-13,11.9c-3.3,3.1-6.4,6.4-9.5,9.8c-2.8,3.1-5.3,6.4-8,9.7c-2.4,2.9-5,5.7-7.2,8.7
		c-4.5,6.2-8.8,12.6-13,19c-4.7,7.1-9.5,14.1-13.7,21.5c-4.8,8.4-9.3,17-13.5,25.8c-5.4,11.4-10.3,23.1-15.3,34.7
		c-0.4,0.9-0.3,2-0.4,2.9c-0.7,1-1.5,1.9-1.9,2.9c-1.1,2.7-1.9,5.5-2.9,8.3c-3.5,10.1-7.2,20.1-10.3,30.3c-2.7,8.6-4.9,17.3-7,26.1
		c-2.5,10.2-4.9,20.5-6.9,30.8c-1.6,8.1-2.6,16.3-3.5,24.5c-1,8.9-2,17.8-2.3,26.7c-0.3,9.8,0,19.6,0.4,29.4
		c0.2,4.1,1.2,8.2,1.9,12.8c0.9-0.7,1.6-1,2.1-1.5c3.8-3.8,7.6-7.5,11.2-11.3c7.5-7.9,14.9-15.8,22.2-23.9c3.6-4,6.9-8.3,10.1-12.5
		c4.5-5.9,9.3-11.8,13.3-18.1c7.2-11.3,15.3-22.2,21.4-34.2c1.4-2.7,3.3-5.1,4.7-7.7c3.2-6,6.4-12.1,9.5-18.2
		c3.6-7.1,7.1-14.3,10.6-21.5c1.3-2.7,2.6-5.3,2-8.6c-0.5-2.4-1.8-5.1,0.8-7.1c0.4,1.9-0.8,4.4,1.8,6.2c0.3-1.3,0.4-2.6,0.9-3.6
		c1.3-2.7,2.9-5.3,4.1-8c2.9-6.4,5.6-13,8.4-19.4c2.4-5.5,5-10.9,7.3-16.4c2.6-6,4.9-12.2,7.5-18.2c4.1-9.6,8.3-19.2,12.5-28.7
		c4.7-10.7,9.6-21.4,14.3-32c2.8-6.3,5.6-12.6,8.5-18.8c0.4-1,1.3-1.8,1.9-2.7c0.8,0.7,1.7,1.5,2.5,2.2c0.2,0.2,0.3,0.6,0.4,0.8
		C314.2,282.3,314.2,282.3,313.1,281.1z M104.4,590.6c-0.2,0-0.3-0.1-0.5-0.1c0-0.4-0.1-0.8,0-1.2c2.6-9.9,5.1-19.7,7.8-29.6
		c1.3-4.6,3.1-9.1,4.6-13.7c2.3-6.5,4.5-13,6.8-19.5c1.1-3.2,2.4-6.3,3.4-9.5c1.9-6.1,3.7-12.2,5.6-18.3c2.1-6.6,4.4-13.2,6.3-19.8
		c1.4-4.7,2.3-9.4,3.4-14.2c1.2-5.5,2.5-10.9,3.6-16.4c0.5-2.4,0.8-4.8,0.7-7.3c-0.1-4.8,0-9.7-1-14.3c-1.3-5.9-6.8-8.7-12.7-7.3
		c-5.6,1.3-10.6,3.9-14.7,7.7c-5,4.5-10.2,9.1-14.3,14.4c-7,9.1-13.7,18.6-19.7,28.4c-5.9,9.4-11.2,19.2-16,29.3
		c-5.8,12.1-11.6,24.3-15.7,37.1c-2.4,7.4-5.1,14.7-7.3,22.2c-2.2,7.7-4.3,15.4-5.7,23.2c-2.2,12.3-3.8,24.7-3.3,37.3
		c0.2,4,0.1,8.1,2.4,11.8c2.2,3.5,5.2,6.4,9.2,6.6c4.7,0.2,9.4-0.7,14.2-1.3c0.9-0.1,1.7-0.6,2.6-1c1.7-0.9,3.4-1.9,5.1-2.8
		c7.2-3.7,14.6-6.9,21.4-11.1c8.5-5.2,16.6-11.1,24.5-17.1c6.9-5.2,13.3-11.1,19.9-16.6c1.2-1,1.3-1.9,1-3.3
		c-0.7-3.1-1.4-6.3-1.7-9.4c-0.5-6-0.7-12.1-1-18.1c-0.7-15.6,0.9-31,2.8-46.5c1-8.2,2.3-16.3,3.6-24.8c-0.4,0.4-0.6,0.5-0.7,0.7
		c-1.3,4.1-2.5,8.3-3.8,12.4c-1.2,3.9-2.5,7.7-3.9,11.5c-2.3,6.7-4.6,13.4-7.1,20.1c-0.9,2.4-2.3,4.7-3.2,7.1
		c-2.1,5.8-4.2,11.7-6,17.7c-3.2,10.3-6.1,20.6-9.2,31C105.5,587.3,105,588.9,104.4,590.6z M570.9,326.8c-0.1-0.3-0.3-0.5-0.4-0.8
		c-2,0.5-4.2,0.7-5.9,1.6c-14,7.4-28,14.7-41.8,22.4c-11.3,6.3-22.3,13.1-33.6,19.6c-8.6,4.9-17.3,9.5-25.9,14.3
		c-1.2,0.7-2.3,1.8-3.1,2.9c-1.5,2-2.8,4.1-4.3,6.1c-1.9,2.5-4,4.9-6,7.4c-2.3,2.9-4.4,5.9-6.7,8.8c-2.2,2.9-4.5,5.9-6.7,8.8
		c-0.4,0.5-0.5,1.1-0.8,2.2c1.2-0.3,2-0.6,2.7-0.7c8.4-0.8,16.9-1.6,25.3-2.4c1.1-0.1,2.2,0.1,3.3-0.1c1.1-0.2,2.4-0.6,3.1-1.3
		c7.5-8.1,14.7-16.5,22.3-24.5c7.7-8,15.6-15.9,23.7-23.5c5-4.7,10.5-8.9,16-13.1c4.4-3.4,8.9-6.8,13.7-9.8
		c6.1-3.8,12.6-7.1,18.8-10.9C567.2,332.1,570,330.2,570.9,326.8z M543.3,239.8c-0.1-0.1-0.3-0.2-0.4-0.3c-2.4,1.8-5.3,3.3-7.2,5.6
		c-6.7,7.9-13.5,15.8-19.3,24.3c-8.2,11.9-15.8,24.2-23.3,36.6c-5.3,8.8-10.2,17.8-15.2,26.8c-7.5,13.5-14.8,27.1-22.2,40.6
		c-2.9,5.2-6,10.3-9,15.5c-0.2,0.4-0.2,1-0.4,2c2-1,3.6-1.7,5.2-2.5c3.3-1.8,6.9-3.2,9.3-6.4c2.1-2.9,4.2-5.8,6.1-8.8
		c2.6-4.2,4.9-8.5,7.5-12.7c3.8-6.1,7.8-12.1,11.8-18.1c1.9-2.9,4.1-5.7,5.9-8.8c3.5-5.8,6.8-11.7,10.2-17.5
		c3.2-5.4,6.6-10.7,9.7-16.2c4.6-8,8.8-16.3,13.6-24.2c6.4-10.3,11.8-21.2,16.7-32.3C542.7,242.4,543,241.1,543.3,239.8z
		 M431.7,467.7c1.2-0.2,1.8-0.3,2.3-0.4c4.4-1.5,8.9-3,13.3-4.6c6.6-2.4,13.2-4.9,19.8-7.5c5.8-2.3,11.7-4.5,17.4-7.3
		c6.7-3.3,13-7.4,19.7-10.7c3.7-1.8,5.5-5.8,9.5-7.3c2.4-0.9,2.1-3.6-0.2-4.8c-6-3.2-12.5-4.3-19.1-4.9c-5.9-0.5-11.9-0.5-17.8-0.9
		c-4.2-0.2-7.8,0.5-10.6,4.1c-5.1,6.5-10.4,12.8-15.5,19.2c-4.4,5.6-8.7,11.3-13,17.1C435.5,462.1,433.8,464.7,431.7,467.7z
		 M466.6,419.6c-3.4,0.2-6.5,0.2-9.6,0.6c-3.5,0.4-6.9,1.2-10.4,1.7c-4.1,0.5-8.2,0.7-12.3,1.1c-2.8,0.3-3.8,2.9-5.4,4.6
		c-5.2,5.5-10.2,11.2-13.8,17.9c-5.2,9.5-10.6,18.9-15.9,28.4c-0.5,0.9-0.9,1.9-1.6,3.5c3.3-0.9,5.9-1.7,8.5-2.4
		c5.5-1.4,11-2.7,16.6-4.1c3.1-0.8,6.2-1.7,8.2-4.4c1.8-2.4,3-5.1,4.8-7.4c5.8-7.5,11.7-14.9,17.6-22.3
		C457.5,431.2,461.8,425.7,466.6,419.6z M438.8,397.1c-0.1-0.1-0.3-0.3-0.4-0.4c-1.8,0.9-3.5,1.8-5.3,2.7c-10.4,5-20.8,10-31.1,15.1
		c-4.8,2.3-9.6,4.7-14.4,7.2c-1.8,0.9-3.3,2.4-5.2,3.8c0.9,0.4,1.2,0.6,1.5,0.6c6,0.7,11.9,1.8,18.1-0.1c5.2-1.6,10.7-1.9,16.1-2.9
		c2.3-0.5,5.6-0.7,6.6-2.2C429.7,413.2,434.1,405.1,438.8,397.1z M255.4,461.4c0.2,0.1,0.3,0.3,0.5,0.4c0.2-0.1,0.5-0.2,0.6-0.4
		c6.6-8.9,13.3-17.8,19.8-26.8c4.1-5.7,8-11.4,11.8-17.3c1.6-2.5,2.6-5.4,3.9-8.2c-0.2-0.2-0.5-0.4-0.7-0.5c-0.7,0.5-1.4,1-2.2,1.4
		c-2.4,1.4-3.7,3.8-5.4,5.8c-2.6,3-5.1,6.1-7.2,9.4c-4.3,6.7-8.4,13.6-12.4,20.5C261,450.9,258.3,456.2,255.4,461.4z M456,387.9
		c-3,1.5-5.5,3-8.2,4.1c-3,1.2-4.8,3.4-6.3,6.2c-2.9,5.3-5.9,10.6-8.9,15.8c-1.3,2.3-2.6,4.5-4.1,7.1C432.1,420.3,452,396,456,387.9
		z M423.8,474.6c-0.2-0.3-0.4-0.5-0.7-0.8c-7.9,2.6-16,4.5-24.2,7.8c4.8,3.6,9.8,4.2,14.7,5.4c0.3,0.1,0.7-0.1,0.9-0.3
		C417.6,482.6,420.7,478.6,423.8,474.6z M267.3,485.7c5.6-9.7,19.8-43.6,19.1-46.7c-2,3.6-3.9,6.8-5.4,10.1c-1.2,2.7-1.9,5.7-3,8.5
		c-2.4,6.3-5,12.6-7.4,19C269.5,479.6,268.4,482.7,267.3,485.7z M311.2,463.5c2.3-2.2,13.6-24.6,14.2-28.3
		C321.2,437.1,310.6,458,311.2,463.5z"/>
	<path d="M449.8,510.9c2.2-0.7,4.3-1.5,6.5-2.1c2.2-0.6,4.6-0.9,7.8-1.4c-1,0.9-1.4,1.7-2,1.9c-3.7,1-7.4,1.8-11.1,2.6
		c-0.3,0.1-0.6-0.1-1-0.2C449.9,511.4,449.9,511.2,449.8,510.9z"/>
	<path class="st0" d="M247.4,412.1c-0.3-0.1-0.5-0.2-0.8-0.4c-0.5,1.8-1,3.5-1.5,5.3c0.4,0.1,0.7,0.2,1.1,0.3
		C246.6,415.6,247,413.8,247.4,412.1z"/>
	<path d="M247.4,412.1c-0.4,1.7-0.8,3.5-1.2,5.2c-0.4-0.1-0.7-0.2-1.1-0.3c0.5-1.8,1-3.5,1.5-5.3
		C246.9,411.8,247.2,411.9,247.4,412.1z"/>
</g>
</svg>
