<svg xmlns="http://www.w3.org/2000/svg" width="30" height="30" viewBox="0 0 30 30">
  <g id="_6" data-name="6" transform="translate(16101 8353)">
    <g id="Group_14812" data-name="Group 14812" transform="translate(81 43)">
      <circle id="Ellipse_2719" data-name="Ellipse 2719" cx="15" cy="15" r="15" transform="translate(-16182 -8396)" fill="#fff"/>
    </g>
    <g id="yungul_1" data-name="yungul 1" transform="translate(-16093 -8344)">
      <path id="Path_26899" data-name="Path 26899" d="M14.008,52.824A1.529,1.529,0,0,0,12.495,51.5H8.349V49.968a.218.218,0,0,0-.218-.218H.218A.218.218,0,0,0,0,49.968v9.6a.218.218,0,0,0,.218.218H.884a2.182,2.182,0,0,0,4.342,0H8.8a2.182,2.182,0,0,0,4.342,0h1.538a.218.218,0,0,0,.218-.218V53.9a1.093,1.093,0,0,0-.886-1.071Zm-1.514-.892a1.093,1.093,0,0,1,1.069.873H9.876a.218.218,0,1,0,0,.436H13.8a.656.656,0,0,1,.617.436H13.8a.218.218,0,0,0-.218.218v2.836a.218.218,0,0,0,.218.218h.655v1.527h-1.6A2.181,2.181,0,0,0,8.8,59.35H8.349V53.241H9A.218.218,0,0,0,9,52.8H8.349v-.873Zm1.964,2.182v2.4h-.436v-2.4ZM7.913,58.477H4.943a2.18,2.18,0,0,0-3.777,0H.436V56.95H7.913Zm-2.777.436H7.913v.436H5.225A2.167,2.167,0,0,0,5.136,58.914Zm2.777-8.727v6.327H.436V50.186ZM.436,58.914H.973a2.167,2.167,0,0,0-.09.436H.436Zm2.618,2.4A1.745,1.745,0,1,1,4.8,59.568,1.747,1.747,0,0,1,3.055,61.314Zm7.913,0a1.745,1.745,0,1,1,1.745-1.745A1.747,1.747,0,0,1,10.967,61.314Zm2.171-1.964a2.166,2.166,0,0,0-.09-.436h1.41v.436Z" transform="translate(0 -49.75)" fill="#646e95" stroke="#646e95" stroke-width="0.1"/>
      <path id="Path_26900" data-name="Path 26900" d="M333.091,188.023h2.182a.218.218,0,0,0,.218-.218v-2.836a.218.218,0,0,0-.218-.218h-3.055a.218.218,0,0,0-.218.218v1.964A1.092,1.092,0,0,0,333.091,188.023Zm-.655-2.836h2.618v2.4h-1.964a.655.655,0,0,1-.655-.655Z" transform="translate(-322.342 -180.823)" fill="#646e95" stroke="#646e95" stroke-width="0.1"/>
      <path id="Path_26901" data-name="Path 26901" d="M333.309,342.25a1.309,1.309,0,1,0,1.309,1.309A1.311,1.311,0,0,0,333.309,342.25Zm0,2.182a.873.873,0,1,1,.873-.873A.874.874,0,0,1,333.309,344.432Z" transform="translate(-322.342 -333.741)" fill="#646e95" stroke="#646e95" stroke-width="0.1"/>
      <path id="Path_26902" data-name="Path 26902" d="M61.309,342.25a1.309,1.309,0,1,0,1.309,1.309A1.311,1.311,0,0,0,61.309,342.25Zm0,2.182a.873.873,0,1,1,.873-.873A.874.874,0,0,1,61.309,344.432Z" transform="translate(-58.255 -333.741)" fill="#646e95" stroke="#646e95" stroke-width="0.1"/>
    </g>
  </g>
</svg>
