<svg xmlns="http://www.w3.org/2000/svg" width="30" height="30" viewBox="0 0 30 30">
  <g id="_1" data-name="1" transform="translate(16182 8396)">
    <circle id="Ellipse_2719" data-name="Ellipse 2719" cx="15" cy="15" r="15" transform="translate(-16182 -8396)" fill="#646e95"/>
    <g id="motorbike" transform="translate(-16175 -8386)">
      <path id="Path_25603" data-name="Path 25603" d="M15.646,101.567a.234.234,0,0,0-.4.237,2.11,2.11,0,1,1-3.75.212l.623.592a1.334,1.334,0,1,0,.979-1.029l-.623-.592a2.108,2.108,0,0,1,2.319.278.234.234,0,0,0,.3-.357,2.577,2.577,0,0,0-2.979-.261l-.288-.274a2.917,2.917,0,0,1,1.447-.382,2.972,2.972,0,0,1,.466.037.234.234,0,0,0,.19-.054l.74-.64a.943.943,0,0,0,.263-.371,2.2,2.2,0,0,0-.17-1.9,5.089,5.089,0,0,0-4.317-1.636.582.582,0,0,0-.456.878l.1.173H9.6a.234.234,0,1,0,0,.469h.756a1.689,1.689,0,0,1,.151.761,2.595,2.595,0,0,0-3.838.446H4.984a.586.586,0,0,1-.366-.129L2.9,96.65a.234.234,0,0,0-.147-.052h-1.4a.706.706,0,0,0-.412,1.279l.5.362a.234.234,0,1,0,.273-.381l-.5-.362a.237.237,0,0,1,.138-.429h1.32l1.651,1.326a1.057,1.057,0,0,0,.66.232H6.758l1.518.58.835.319a2.516,2.516,0,0,1-1.522.516H7.074a1.447,1.447,0,0,0-1.267.752l-.387-.278h0l-3.063-2.2a.234.234,0,1,0-.273.381l2.777,1.995L4.355,101a2.583,2.583,0,1,0,.721,1.224l.555-.341v1.757a1.216,1.216,0,0,0,1.215,1.215H7.974v.125H6.445a.234.234,0,0,0,0,.469H8.209a.234.234,0,0,0,.234-.234v-.359h2.15a.234.234,0,0,0,.2-.36,2.933,2.933,0,0,1,0-3.142l.34.323a2.579,2.579,0,1,0,4.51-.11Zm-1.361,1.3a.864.864,0,0,1-1.71.176l.357.339a.71.71,0,1,0,.979-1.029l-.357-.339A.865.865,0,0,1,14.285,102.871Zm.2-5.375a1.973,1.973,0,0,1,0,1.322.67.67,0,0,1,0-1.322Zm-5.7.033a2.111,2.111,0,0,1,1.607.734,1.975,1.975,0,0,1-.828.935L7.613,98.45l-.446-.17A2.115,2.115,0,0,1,8.789,97.529Zm-3.141,3.728c0,.023-.007.047-.01.073l-2.083,1.282h0l-.7.432a.241.241,0,1,1-.248-.415l.735-.452h0l1.1-.675h0l.835-.513ZM2.118,103.2a.712.712,0,0,0,.977.24l.234-.144a.864.864,0,1,1-.624-1.284l-.346.213a.71.71,0,0,0-.242.975Zm2.572-.333a2.113,2.113,0,1,1-.751-1.613l-.721.443a1.333,1.333,0,1,0,.693,1.242l.743-.457A2.1,2.1,0,0,1,4.689,102.871Zm5.508,1.516H6.845a.747.747,0,0,1-.746-.746v-2.156a.978.978,0,0,1,.816-.962,3.822,3.822,0,0,0,2.4-.568c.739-.53,1.409-.868,1.617-1.861a2.159,2.159,0,0,0-.071-1.145h.278a.234.234,0,1,0,0-.469h-.5l-.246-.413a.113.113,0,0,1,.087-.171,4.7,4.7,0,0,1,3.675,1.21,1.139,1.139,0,0,0-.035,2.083l-.415.359a3.405,3.405,0,0,0-3.834,3.377A3.4,3.4,0,0,0,10.2,104.388Zm1.233-3.743.494.47h0l1.663,1.582a.241.241,0,0,1-.333.35l-1.663-1.581h0l-.51-.485A2.966,2.966,0,0,1,11.43,100.644Z" transform="translate(0 -95.413)" fill="#fff"/>
      <path id="Path_25604" data-name="Path 25604" d="M227.867,340.71h-.673a.234.234,0,1,0,0,.469h.673a.234.234,0,1,0,0-.469Z" transform="translate(-219.867 -333.044)" fill="#fff"/>
    </g>
  </g>
</svg>
