<svg xmlns="http://www.w3.org/2000/svg" width="30" height="30" viewBox="0 0 30 30">
  <g id="_2" data-name="2" transform="translate(16141 8396)">
    <g id="Group_14811" data-name="Group 14811" transform="translate(41)">
      <circle id="Ellipse_2719" data-name="Ellipse 2719" cx="15" cy="15" r="15" transform="translate(-16182 -8396)" fill="#646e95"/>
    </g>
    <path id="Path_25614" data-name="Path 25614" d="M15.178,7.332H11.514a.293.293,0,1,1,0-.586h3.664a1.938,1.938,0,0,1,3.831,0H20a.421.421,0,0,0,.3-.123.416.416,0,0,0,.123-.3v-.5H19.36a.293.293,0,0,1-.293-.293V4.347c-.158-.053-.325-.106-.5-.157A13.693,13.693,0,0,0,15.7,3.65a1.08,1.08,0,0,1-.271.456,1.068,1.068,0,0,1-.756.315H3.849a1.076,1.076,0,0,1-1.03-.777H2.272a.569.569,0,0,0-.46.226,1.193,1.193,0,0,0-.226.714V6.327A.42.42,0,0,0,2,6.746H2.69a1.938,1.938,0,0,1,3.831,0h3.665a.293.293,0,1,1,0,.586H6.522a1.938,1.938,0,0,1-3.831,0H2a1.006,1.006,0,0,1-1-1V4.582A1.8,1.8,0,0,1,1.354,3.5a1.132,1.132,0,0,1,.917-.447h.8c.34,0,.783-.369,1.278-.781A4.178,4.178,0,0,1,6.883,1h4.509A4.805,4.805,0,0,1,14.1,2.285a3.269,3.269,0,0,0,1.329.772,17.573,17.573,0,0,1,3.3.571,6.476,6.476,0,0,1,1.8.781A.956.956,0,0,1,21,5.128v1.2a1.006,1.006,0,0,1-1,1h-.987a1.938,1.938,0,0,1-3.831,0Zm-4.4-4.85a.768.768,0,0,1,.56.234,1.178,1.178,0,0,1,.292.559l.136.559h2.909a.482.482,0,0,0,.342-.143.513.513,0,0,0,.081-.107,4.982,4.982,0,0,1-1.348-.835,4.393,4.393,0,0,0-2.36-1.163H9.431V3.834h.6l-.084-.347a.972.972,0,0,1-.029-.227.725.725,0,0,1,.2-.514.862.862,0,0,1,.422-.236A1.026,1.026,0,0,1,10.779,2.482Zm-.1.6a.194.194,0,0,0-.164.271l.117.484h.538l-.1-.422C11.013,3.2,10.916,3.022,10.675,3.079Zm-4.295-.6a.768.768,0,0,1,.56.234,1.178,1.178,0,0,1,.292.559l.136.559H8.845V1.587H6.883a3.761,3.761,0,0,0-2.16,1.138,4.341,4.341,0,0,1-1.3.86.473.473,0,0,0,.081.106.48.48,0,0,0,.342.143H5.632l-.084-.347a.978.978,0,0,1-.03-.227.725.725,0,0,1,.2-.514.862.862,0,0,1,.422-.236,1.027,1.027,0,0,1,.24-.029Zm-.1.6a.194.194,0,0,0-.164.271l.117.484h.538l-.1-.422c-.051-.21-.148-.391-.389-.333ZM7.4,5.557a.293.293,0,0,1,0-.586h.786a.293.293,0,1,1,0,.586Zm6.3,0a.293.293,0,0,1,0-.586h.786a.293.293,0,1,1,0,.586Zm3.393.545a.933.933,0,1,1-.359.071.938.938,0,0,1,.359-.071Zm.249.689a.352.352,0,1,0,.088.147A.353.353,0,0,0,17.342,6.791ZM4.606,6.1a.937.937,0,1,1-.359.071A.938.938,0,0,1,4.606,6.1Zm.352.937a.347.347,0,1,0-.026.135.352.352,0,0,0,.026-.135Zm13.09-.955a1.343,1.343,0,1,0,.294.438,1.351,1.351,0,0,0-.294-.438Zm-12.487,0a1.343,1.343,0,1,0,.294.438,1.351,1.351,0,0,0-.294-.438Zm14.631-1.2a3.211,3.211,0,0,0-.54-.3v.667h.762V5.128c0-.059-.082-.145-.221-.247Z" transform="translate(-16137 -8386)" fill="#fff"/>
  </g>
</svg>
