<svg width="24" height="24" viewBox="0 0 24 24" fill="none" xmlns="http://www.w3.org/2000/svg">
<path d="M20 12V18C20 20.2091 18.2091 22 16 22H8C5.79086 22 4 20.2091 4 18V12" stroke="#364152" stroke-width="1.5"/>
<path d="M16.7688 2H7.23128C5.41393 2 3.77967 3.24476 3.10472 5.14305L2.34673 7.27487C2.11729 7.92019 1.95868 8.61074 2.12604 9.27488C2.52238 10.8478 3.80826 12 5.33336 12C7.17431 12 8.66669 10.3211 8.66669 8.25C8.66669 10.3211 10.1591 12 12 12C13.841 12 15.3334 10.3211 15.3334 8.25C15.3334 10.3211 16.8257 12 18.6667 12C20.1918 12 21.4777 10.8478 21.874 9.27488C22.0414 8.61074 21.8828 7.92019 21.6533 7.27487L20.8953 5.14305C20.2204 3.24475 18.5861 2 16.7688 2Z" stroke="#364152" stroke-width="1.5" stroke-linejoin="round"/>
<path d="M9 17C11.3561 18.3404 12.6476 18.3263 15 17" stroke="#364152" stroke-width="1.5" stroke-linecap="round" stroke-linejoin="round"/>
</svg>
