<svg width="20" height="22" viewBox="0 0 20 22" fill="none" xmlns="http://www.w3.org/2000/svg">
<path d="M6 6H10M6 10H14M6 14H14M3 1H17C18.1046 1 19 1.89543 19 3V18.1543C19 19.5396 17.6259 20.5053 16.3226 20.0361L14.7608 19.4739C14.2728 19.2982 13.7356 19.319 13.2626 19.5318L10.8207 20.6307C10.2988 20.8655 9.70122 20.8655 9.17927 20.6307L6.73737 19.5318C6.26439 19.319 5.72721 19.2982 5.2392 19.4739L3.67744 20.0361C2.37412 20.5053 1 19.5396 1 18.1543V3C1 1.89543 1.89543 1 3 1Z" stroke="#364152" stroke-width="1.6" stroke-linecap="round"/>
</svg>
