<svg width="35" height="22" viewBox="0 0 35 22" fill="none" xmlns="http://www.w3.org/2000/svg">
<path d="M22.2339 2.31445H12.7695V19.3232H22.2339V2.31445Z" fill="#FF5F00"/>
<path d="M13.3706 10.8164C13.3686 9.17848 13.7396 7.56163 14.4554 6.0884C15.1712 4.61518 16.213 3.32426 17.5018 2.31351C15.9063 1.05899 13.9899 0.278721 11.9718 0.0618994C9.95377 -0.154922 7.9154 0.20045 6.08977 1.0874C4.26413 1.97434 2.72488 3.35708 1.64799 5.07752C0.571091 6.79796 0 8.7867 0 10.8164C0 12.8461 0.571091 14.8348 1.64799 16.5553C2.72488 18.2757 4.26413 19.6584 6.08977 20.5454C7.9154 21.4323 9.95377 21.7877 11.9718 21.5709C13.9899 21.3541 15.9063 20.5738 17.5018 19.3193C16.213 18.3085 15.1712 17.0176 14.4554 15.5444C13.7396 14.0711 13.3686 12.4543 13.3706 10.8164V10.8164Z" fill="#EB001B"/>
<path d="M34.9985 10.8177C34.998 12.8468 34.4268 14.8348 33.35 16.5547C32.2733 18.2746 30.7345 19.6569 28.9095 20.5437C27.0844 21.4305 25.0467 21.7861 23.0292 21.5698C21.0116 21.3535 19.0956 20.5741 17.5 19.3205C18.7873 18.3084 19.828 17.0172 20.5435 15.5443C21.2591 14.0714 21.6309 12.4552 21.6309 10.8177C21.6309 9.18014 21.2591 7.56397 20.5435 6.09106C19.828 4.61815 18.7873 3.32694 17.5 2.3148C19.0956 1.06127 21.0116 0.281826 23.0292 0.0655367C25.0467 -0.150753 27.0844 0.204828 28.9095 1.09166C30.7345 1.97849 32.2733 3.36079 33.35 5.08065C34.4268 6.80052 34.998 8.78857 34.9985 10.8177V10.8177Z" fill="#F79E1B"/>
</svg>
