<svg width="20" height="17" viewBox="0 0 20 17" fill="none" xmlns="http://www.w3.org/2000/svg">
<path d="M1.80931 12.1853C1.80931 11.3656 1.81922 10.546 1.80931 9.72724C1.7865 9.43252 1.82252 9.13622 1.9153 8.85556C2.00808 8.5749 2.15575 8.31549 2.34972 8.09243C2.5785 7.84563 2.50647 7.72134 2.22905 7.59974C1.96178 7.47601 1.70164 7.33738 1.44991 7.18451C0.986936 6.91429 0.90948 6.54229 1.08962 5.8019C1.20942 5.30561 1.43188 5.02729 2.00024 5.07052C2.58661 5.11466 3.1802 5.06151 3.76927 5.08763C4.09983 5.10294 4.28538 5.01017 4.37095 4.6778C4.46199 4.36349 4.56931 4.05413 4.6925 3.75097C4.79565 3.42754 4.99841 3.145 5.2718 2.94375C5.5452 2.7425 5.87524 2.63285 6.21472 2.63047C6.75515 2.60165 7.29557 2.62056 7.836 2.62417C8.10622 2.62417 8.3404 2.70884 8.344 3.02859C8.344 3.37897 8.09721 3.45464 7.80898 3.45644C7.31719 3.45644 6.8254 3.46455 6.33451 3.45644C6.13661 3.43791 5.93856 3.4902 5.7756 3.60401C5.61264 3.71782 5.49534 3.88574 5.44459 4.07792C5.31219 4.46433 5.15818 4.84444 5.03478 5.23355C4.98329 5.44285 4.85845 5.62676 4.68293 5.75187C4.50742 5.87698 4.29285 5.935 4.0782 5.9154C3.48853 5.9154 2.89856 5.9154 2.30829 5.9154C2.11734 5.9154 1.91468 5.87396 1.84622 6.15409C1.77777 6.43421 1.95161 6.52788 2.14977 6.62876C2.41278 6.76207 2.6749 6.89898 2.92801 7.0485C3.04697 7.09854 3.1517 7.17722 3.2329 7.27754C3.3141 7.37786 3.36927 7.49669 3.39343 7.62347C3.41759 7.75026 3.41003 7.88104 3.37141 8.00419C3.33279 8.12734 3.26432 8.23903 3.1721 8.32932C2.97619 8.54872 2.82653 8.8054 2.73213 9.08398C2.63772 9.36256 2.60049 9.65731 2.62264 9.95061C2.64246 11.4584 2.63886 12.9662 2.62264 14.4731C2.62264 14.8046 2.6911 14.9721 3.04958 14.9154C3.13142 14.909 3.21365 14.909 3.29549 14.9154C4.1872 14.9154 4.18541 14.9154 4.28629 14.0399C4.28657 13.9404 4.30688 13.842 4.34604 13.7506C4.3852 13.6591 4.44239 13.5765 4.51419 13.5077C4.58598 13.4388 4.67091 13.3851 4.76391 13.3498C4.85691 13.3145 4.9561 13.2983 5.0555 13.3022C6.00576 13.2833 6.956 13.2932 7.90626 13.2959C8.17647 13.2959 8.35664 13.4139 8.34763 13.7039C8.33862 13.9939 8.15216 14.1011 7.88825 14.1029C7.10193 14.1029 6.3147 14.12 5.52837 14.0975C5.19961 14.0885 5.07802 14.1597 5.07802 14.52C5.08522 15.7503 5.06991 15.7512 3.85574 15.7512C3.41349 15.7512 2.97034 15.7585 2.52809 15.7512C1.99396 15.7404 1.8219 15.5711 1.8183 15.0406C1.80479 14.0867 1.80931 13.1365 1.80931 12.1853Z" fill="#F81734" stroke="#F81734" stroke-width="0.6"/>
<path d="M18.1826 12.2519C18.1826 13.1697 18.1826 14.0875 18.1826 15.0045C18.1826 15.5683 18.0132 15.7386 17.4539 15.7467C16.848 15.7551 16.2418 15.7551 15.6353 15.7467C15.1003 15.7386 14.9274 15.5602 14.9148 15.0423C14.8922 14.1028 14.8922 14.1028 13.9681 14.1028C13.3781 14.1028 12.7881 14.1028 12.1982 14.1028C11.9045 14.1028 11.6578 14.0335 11.6578 13.6849C11.6578 13.3363 11.928 13.2886 12.2117 13.2895C13.0476 13.2895 13.8834 13.2895 14.7184 13.2895C15.4561 13.2895 15.7488 13.5597 15.7092 14.2983C15.6849 14.7928 15.8191 14.9441 16.3262 14.9243C17.3674 14.8829 17.3683 14.9126 17.3683 13.8651C17.3683 12.505 17.3602 11.1449 17.3683 9.78481C17.3907 9.27369 17.2126 8.77404 16.872 8.39229C16.7635 8.30091 16.6809 8.18247 16.6329 8.04895C16.5848 7.91543 16.5729 7.77158 16.5983 7.63197C16.6237 7.49235 16.6856 7.36194 16.7776 7.25393C16.8696 7.14591 16.9886 7.06415 17.1224 7.0169C17.4061 6.85387 17.6926 6.69354 17.9862 6.55032C18.1817 6.45485 18.1744 6.31074 18.1393 6.1396C18.1042 5.96846 17.9835 5.91261 17.8169 5.91351C17.2107 5.91351 16.6045 5.91351 15.9983 5.91351C15.7592 5.956 15.5131 5.9019 15.3138 5.7631C15.1145 5.6243 14.9785 5.41211 14.9355 5.17312C14.8067 4.82003 14.6797 4.46516 14.5617 4.10847C14.5131 3.90718 14.3936 3.73019 14.2249 3.61004C14.0563 3.48989 13.8499 3.43468 13.6438 3.45455C13.152 3.46536 12.6603 3.45906 12.1694 3.45455C11.8991 3.45455 11.6623 3.38339 11.6497 3.06184C11.6352 2.71056 11.8802 2.62499 12.1712 2.62319C12.6954 2.62319 13.2205 2.60337 13.7438 2.62319C14.0913 2.62286 14.43 2.73271 14.7111 2.93696C14.9922 3.1412 15.2013 3.42931 15.3084 3.75989C15.4723 4.18503 15.4786 4.76329 15.8281 4.99838C16.1947 5.24607 16.7504 5.05423 17.2224 5.07314C17.4674 5.08305 17.7142 5.07314 17.9601 5.07314C18.6446 5.07314 18.7356 5.14971 18.9176 5.85767C19.0995 6.56564 18.9914 6.92322 18.4825 7.20875C18.2446 7.35313 17.9986 7.48364 17.7457 7.59965C17.4332 7.73026 17.4494 7.87798 17.6556 8.09956C18.0419 8.55447 18.2317 9.14407 18.1835 9.73886C18.1736 10.581 18.1826 11.4169 18.1826 12.2519Z" fill="#F81734" stroke="#F81734" stroke-width="0.6"/>
<path d="M9.59336 8.73279C9.59336 6.40833 9.59336 4.08387 9.59336 1.75942C9.58944 1.62846 9.59212 1.4974 9.60144 1.36672C9.60859 1.26848 9.65216 1.17644 9.72359 1.10863C9.79503 1.04082 9.88919 1.00211 9.98767 1.00008C10.0861 0.998056 10.1818 1.03285 10.256 1.09767C10.3302 1.16248 10.3775 1.25264 10.3887 1.3505C10.4007 1.48073 10.404 1.61163 10.3986 1.74231C10.3986 6.42605 10.3986 11.1077 10.3986 15.7872C10.3986 15.8692 10.3986 15.9511 10.3986 16.0331C10.4094 16.315 10.3085 16.5375 10.0032 16.5429C9.69783 16.5483 9.58704 16.3349 9.59245 16.0493C9.59245 15.853 9.59245 15.6566 9.59245 15.4603L9.59336 8.73279Z" fill="#F81734" stroke="#F81734" stroke-width="0.6"/>
<path d="M5.59586 11.0378C5.31843 11.0378 5.03923 11.054 4.76361 11.0333C4.63916 11.034 4.51908 10.9873 4.42787 10.9026C4.33667 10.8179 4.28118 10.7017 4.2727 10.5775C4.20335 10.1001 4.29071 10.0028 4.7726 10.056C5.21035 10.1037 5.649 10.1515 6.08585 10.2064C6.32094 10.2361 6.54882 10.3028 6.61007 10.5712C6.67943 10.8747 6.67762 11.1368 6.23266 11.0837C6.02088 11.0712 5.80855 11.0712 5.59676 11.0837L5.59586 11.0378Z" fill="#F81734" stroke="#F81734" stroke-width="0.6"/>
<path d="M14.3122 11.081C14.1987 11.081 14.0176 11.0936 13.8393 11.081C13.6609 11.0684 13.3799 11.2161 13.3583 10.854C13.3412 10.5685 13.4051 10.3136 13.7303 10.2568C14.3104 10.1668 14.894 10.0983 15.4777 10.0272C15.6822 10.0028 15.7164 10.1434 15.7236 10.3064C15.738 10.6162 15.7182 10.9369 15.3534 11.0107C15.0083 11.0579 14.6604 11.0814 14.3122 11.081Z" fill="#F81734" stroke="#F81734" stroke-width="0.6"/>
</svg>
