<svg width="82" height="24" fill="none" xmlns="http://www.w3.org/2000/svg"><rect opacity=".2" x=".5" y=".5" width="80.882" height="23" rx="3.5" stroke="#fff"/><path d="M17.617 11.33c-.016-1.976 1.618-2.936 1.69-2.98-.928-1.348-2.363-1.535-2.865-1.552-1.204-.127-2.374.723-2.987.723-.624 0-1.573-.706-2.59-.69-1.308.022-2.539.779-3.207 1.96-1.385 2.402-.353 5.935.977 7.878.668.95 1.441 2.015 2.463 1.976.993-.038 1.369-.634 2.567-.634 1.192 0 1.54.634 2.578.612 1.07-.016 1.739-.955 2.385-1.915.767-1.088 1.076-2.164 1.087-2.22-.027-.01-2.075-.795-2.098-3.157ZM15.658 5.506c.535-.668.9-1.579.8-2.506-.773.033-1.744.535-2.302 1.192-.491.58-.933 1.524-.822 2.413.872.066 1.766-.442 2.324-1.099ZM32.037 15.64h-1.39l-.763-2.396h-2.65l-.723 2.396H25.16l2.622-8.154h1.623l2.633 8.154Zm-2.379-3.4-.69-2.126c-.072-.22-.21-.729-.409-1.535h-.027c-.083.348-.21.862-.387 1.535l-.679 2.126h2.192ZM38.778 12.633c0 1-.27 1.789-.817 2.368-.486.52-1.093.773-1.81.773-.78 0-1.337-.276-1.68-.833v3.085h-1.307v-6.332c0-.629-.017-1.27-.05-1.932h1.148l.072.933h.022c.436-.701 1.099-1.054 1.982-1.054.695 0 1.27.276 1.733.822.475.552.707 1.27.707 2.17Zm-1.33.044c0-.574-.127-1.043-.387-1.413a1.338 1.338 0 0 0-1.137-.58c-.32 0-.613.11-.878.32-.26.216-.436.492-.513.84-.04.16-.061.292-.061.397v.982c0 .426.132.79.392 1.083.26.292.602.441 1.021.441.492 0 .872-.193 1.148-.568.276-.381.414-.878.414-1.502ZM45.535 12.633c0 1-.27 1.789-.817 2.368-.486.52-1.093.773-1.81.773-.779 0-1.337-.276-1.679-.833v3.085h-1.308v-6.332c0-.629-.017-1.27-.05-1.932h1.148l.072.933h.022c.436-.701 1.099-1.054 1.982-1.054.696 0 1.27.276 1.734.822.474.552.706 1.27.706 2.17Zm-1.33.044c0-.574-.127-1.043-.387-1.413a1.338 1.338 0 0 0-1.137-.58c-.32 0-.613.11-.878.32-.26.216-.43.492-.513.84a1.79 1.79 0 0 0-.06.397v.982c0 .426.132.79.391 1.083.26.292.602.441 1.021.441.492 0 .878-.193 1.149-.568.281-.381.414-.878.414-1.502ZM53.099 13.355c0 .696-.243 1.26-.723 1.695-.53.475-1.27.712-2.22.712-.877 0-1.579-.17-2.109-.507l.304-1.088a3.666 3.666 0 0 0 1.888.508c.491 0 .878-.11 1.148-.331.276-.221.414-.52.414-.89a1.15 1.15 0 0 0-.336-.833c-.227-.226-.602-.436-1.127-.63-1.44-.535-2.153-1.313-2.153-2.334 0-.668.254-1.215.757-1.646.502-.425 1.17-.64 2.004-.64.74 0 1.358.127 1.85.387l-.332 1.06a3.258 3.258 0 0 0-1.568-.376c-.458 0-.823.116-1.082.337a.98.98 0 0 0-.326.74c0 .32.127.59.376.795.215.193.613.403 1.187.629.7.282 1.214.613 1.545.994.337.38.503.855.503 1.418ZM57.427 10.745h-1.44v2.854c0 .723.253 1.087.761 1.087.232 0 .425-.022.58-.06l.038.993c-.26.094-.596.144-1.016.144-.519 0-.916-.16-1.209-.475-.292-.315-.436-.845-.436-1.584v-2.965h-.855v-.977h.855V8.685l1.281-.386v1.463h1.441v.982ZM63.908 12.655c0 .906-.259 1.645-.773 2.225-.54.596-1.258.894-2.152.894-.862 0-1.552-.287-2.065-.855-.514-.569-.768-1.292-.768-2.164 0-.911.265-1.657.79-2.236.53-.58 1.242-.873 2.136-.873.862 0 1.557.288 2.082.862.502.552.75 1.27.75 2.147Zm-1.352.028c0-.541-.116-1-.348-1.386-.276-.47-.668-.701-1.176-.701-.524 0-.927.232-1.198.701-.237.387-.348.856-.348 1.413 0 .541.116 1.005.348 1.386.282.47.68.701 1.187.701.497 0 .889-.237 1.176-.712.237-.397.359-.861.359-1.402ZM68.16 10.91a2.418 2.418 0 0 0-.415-.033c-.458 0-.817.171-1.065.52-.216.303-.326.695-.326 1.159v3.086h-1.308v-4.03c0-.68-.012-1.298-.04-1.85h1.138l.05 1.126h.038c.138-.386.354-.7.652-.933.293-.21.607-.314.944-.314.121 0 .232.01.326.022l.005 1.247ZM74 12.422c0 .232-.016.43-.05.59h-3.92c.017.58.205 1.028.57 1.331.33.27.756.409 1.28.409.58 0 1.11-.094 1.585-.276l.204.905c-.558.243-1.215.364-1.971.364-.911 0-1.629-.27-2.148-.806-.519-.535-.778-1.258-.778-2.158 0-.883.243-1.623.729-2.214.508-.63 1.192-.944 2.053-.944.845 0 1.491.315 1.922.944.347.508.524 1.12.524 1.855Zm-1.248-.337a1.76 1.76 0 0 0-.254-1.005c-.226-.364-.574-.546-1.038-.546-.425 0-.772.177-1.037.53a1.963 1.963 0 0 0-.387 1.016l2.716.005Z" fill="#fff"/></svg>