<svg width="259" height="315" viewBox="0 0 259 315" fill="none" xmlns="http://www.w3.org/2000/svg" stroke="#B0C5DD" stroke-linecap="round" stroke-linejoin="round">
  <g class="roof">
    <path d="M129.477 50.0546C169.772 50.0546 169.447 76.7288 169.447 76.7288V92.598C168.69 93.9538 168.209 95.4463 168.033 96.9891C167.857 98.5319 167.988 100.094 168.42 101.586C168.498 101.859 168.526 102.022 168.526 102.022L162.464 133.868V187.515C162.464 199.62 171.726 202.629 171.726 202.629V227.245C171.726 234.636 160.569 246.851 160.569 246.851L156.778 231.469C156.778 231.469 156.534 241.218 129.481 241.218" />
    <path d="M129.529 50.0546C89.2345 50.0546 89.5592 76.7288 89.5592 76.7288V92.598C90.3161 93.9539 90.7966 95.4463 90.973 96.9891C91.1493 98.5319 91.0179 100.094 90.5864 101.586C90.5436 101.729 90.5081 101.875 90.4802 102.022L96.5425 133.868V187.515C96.5425 199.62 87.2812 202.629 87.2812 202.629V227.245C87.2812 234.636 98.4384 246.851 98.4384 246.851L102.229 231.469C102.229 231.469 102.473 241.218 129.526 241.218" />
    <path d="M95.4501 202.137C95.4501 202.137 96.5878 220.253 99.2702 225.453L93.8274 237.802C93.8274 237.802 86.2702 214.81 95.4501 202.137Z" />
    <path d="M163.304 202.137C163.304 202.137 162.167 220.253 159.484 225.453L164.927 237.802C164.927 237.802 172.484 214.81 163.304 202.137Z" />
    <path d="M162.566 103.451C162.623 103.093 162.6 102.727 162.499 102.378C162.397 102.03 162.22 101.708 161.98 101.437C160.07 99.3007 153.254 94.876 129.664 94.876C105.964 94.876 99.0099 99.3455 97.0425 101.47C96.7994 101.734 96.6165 102.048 96.5063 102.389C96.3962 102.731 96.3616 103.092 96.4047 103.449L98.7798 123.731C98.8201 124.078 98.9332 124.413 99.1116 124.713C99.29 125.014 99.5297 125.274 99.8152 125.475C100.101 125.677 100.425 125.816 100.768 125.884C101.111 125.951 101.465 125.946 101.805 125.868C105.8 124.939 114.495 123.469 129.502 123.469C144.336 123.469 152.606 124.906 156.408 125.836C156.744 125.918 157.092 125.929 157.432 125.868C157.772 125.807 158.095 125.677 158.381 125.484C158.668 125.292 158.911 125.042 159.095 124.75C159.28 124.459 159.402 124.132 159.453 123.791L162.566 103.451Z" />
  </g>
  <g class="front">
    <path d="M128.957 36.8581C86.2069 36.8581 89.9256 38.808 89.9256 38.808C89.493 37.8561 89.2691 36.8225 89.2691 35.7768C89.2691 34.7312 89.493 33.6976 89.9256 32.7457C89.9256 32.7457 85.4844 28.0885 85.4844 23.6472C85.4844 19.2059 87.2856 12.49 87.2856 12.49C87.2856 5.88291 91.5509 5.66615 91.5509 5.66615C91.5509 1.54958 95.7754 0.466675 95.7754 0.466675H162.306C162.306 0.466675 166.53 1.54626 166.53 5.66615C166.53 5.66615 170.795 5.88291 170.795 12.49C170.795 12.49 172.597 19.2059 172.597 23.6472C172.597 28.0885 168.155 32.7457 168.155 32.7457C168.588 33.6976 168.812 34.7312 168.812 35.7768C168.812 36.8225 168.588 37.8561 168.155 38.808C168.155 38.808 171.874 36.8581 129.124 36.8581H128.957Z" />
    <path d="M95.7218 11.0059C97.0978 11.0059 98.2132 9.89051 98.2132 8.51456C98.2132 7.13862 97.0978 6.02319 95.7218 6.02319C94.3459 6.02319 93.2305 7.13862 93.2305 8.51456C93.2305 9.89051 94.3459 11.0059 95.7218 11.0059Z" />
    <path d="M162.671 11.0059C164.047 11.0059 165.162 9.89051 165.162 8.51456C165.162 7.13862 164.047 6.02319 162.671 6.02319C161.295 6.02319 160.18 7.13862 160.18 8.51456C160.18 9.89051 161.295 11.0059 162.671 11.0059Z" />
    <path d="M128.956 14.5437H109.909C105.929 14.5437 103.41 7.71985 103.41 7.71985H154.935C154.935 7.71985 152.416 14.5437 148.436 14.5437H128.956Z" />
    <path d="M137.658 21.8019H148.561C149.628 21.776 150.672 22.1161 151.52 22.7657C152.367 23.4153 152.966 24.3354 153.218 25.3729L156.789 34.3634H101.516L105.087 25.3729C105.339 24.3352 105.938 23.4151 106.785 22.7655C107.633 22.1158 108.677 21.7758 109.745 21.8019H137.655H137.658Z" />
    <path d="M170.48 12.4858C170.48 12.4858 155.275 12.4859 155.275 15.6275C155.275 18.7691 147.584 18.4435 147.584 18.4435H110.181C110.181 18.4435 102.491 18.7683 102.491 15.6275C102.491 12.4867 87.2852 12.4858 87.2852 12.4858" />
    <path d="M102.799 16.6133C102.799 16.6133 85.7461 15.0703 85.7461 20.1843" />
    <path d="M155.309 16.6133C155.309 16.6133 172.361 15.0703 172.361 20.1843" />
  </g>
  <g class="rear">
    <path d="M129.843 313.89L164.009 313.7C165.604 313.696 167.16 313.205 168.468 312.292C169.776 311.38 170.774 310.09 171.329 308.594C171.358 308.511 171.386 308.435 171.412 308.354C172.494 305.136 172.85 301.719 172.453 298.347C172.056 294.975 170.916 291.734 169.116 288.855L167.804 286.707L167.8 285.98C167.841 284.038 168.154 282.111 168.73 280.257C168.82 279.921 168.861 279.574 168.854 279.227C168.841 278.393 168.501 277.598 167.907 277.013C167.312 276.429 166.511 276.101 165.678 276.103L160.47 276.132L157.958 264.231C157.636 262.703 156.796 261.334 155.581 260.353C154.365 259.373 152.849 258.843 151.287 258.852L129.529 258.973L120.66 259.022L107.212 259.097C105.65 259.105 104.14 259.653 102.935 260.646C101.731 261.64 100.906 263.019 100.601 264.55L98.2221 276.478L92.9561 276.508C92.1368 276.512 91.3526 276.841 90.7748 277.422C90.197 278.003 89.8727 278.789 89.8727 279.608V279.666C89.8696 280.014 89.9149 280.36 90.0072 280.695C90.6056 282.543 90.9411 284.466 91.0038 286.408L91.0079 287.134L89.7207 289.294C87.9531 292.191 86.8494 295.443 86.4892 298.818C86.1289 302.192 86.5209 305.605 87.6371 308.809C87.6661 308.892 87.6952 308.969 87.7251 309.049C88.2964 310.541 89.3109 311.823 90.6321 312.722C91.9534 313.621 93.5182 314.094 95.1162 314.077L120.968 313.893L129.843 313.89Z" />
    <path d="M136.968 275.691H154.728C154.728 275.691 153.524 269.172 151.313 265.519C150.888 264.821 150.291 264.243 149.578 263.843C148.865 263.443 148.061 263.233 147.244 263.234H111.163C110.345 263.233 109.542 263.443 108.829 263.843C108.116 264.244 107.518 264.821 107.094 265.519C104.882 269.173 103.68 275.691 103.68 275.691H136.97H136.968Z" />
    <path d="M103.516 311.401C104.413 311.401 105.141 310.674 105.141 309.776C105.141 308.878 104.413 308.151 103.516 308.151C102.618 308.151 101.891 308.878 101.891 309.776C101.891 310.674 102.618 311.401 103.516 311.401Z" />
    <path d="M110.863 303.8H100.068C99.8386 303.8 99.6523 303.986 99.6523 304.216V305.045C99.6523 305.275 99.8386 305.461 100.068 305.461H110.863C111.092 305.461 111.279 305.275 111.279 305.045V304.216C111.279 303.986 111.092 303.8 110.863 303.8Z" />
    <path d="M155.321 311.401C156.218 311.401 156.946 310.674 156.946 309.776C156.946 308.878 156.218 308.151 155.321 308.151C154.423 308.151 153.695 308.878 153.695 309.776C153.695 310.674 154.423 311.401 155.321 311.401Z" />
    <path d="M147.972 305.461H158.769C158.998 305.461 159.184 305.275 159.184 305.047V304.214C159.184 303.986 158.998 303.8 158.769 303.8H147.972C147.743 303.8 147.557 303.986 147.557 304.214V305.047C147.557 305.275 147.743 305.461 147.972 305.461Z" />
    <path d="M160.473 276.132V289.845H164.666C165.499 289.845 166.297 289.514 166.886 288.926C167.474 288.337 167.805 287.539 167.805 286.707V286.707" />
    <path d="M98.2272 276.478V289.848H93.8474C93.0932 289.848 92.37 289.549 91.8367 289.016C91.3035 288.482 91.0039 287.759 91.0039 287.005" />
    <path d="M98.2291 289.845C98.2291 289.845 97.4236 297.427 103.679 297.427H154.73C154.73 297.427 160.473 297.969 160.473 289.845" />
    <path d="M86.5352 304.631C86.5352 304.631 87.7053 300.569 129.204 300.786C170.703 301.002 172.539 303.8 172.539 303.8" />
    <path d="M98.1953 283.734H160.472" />
  </g>
  <g class="left-door-rear left-door-front">
    <path d="M9.03125 63.8972V61.9697C9.12485 57.4611 10.4527 53.0645 12.8705 49.2579C13.3169 48.5364 13.5621 47.7086 13.5805 46.8604C13.5802 46.8074 13.594 46.7552 13.6204 46.7092C14.0341 45.9853 14.7087 45.4468 15.5063 45.2036C15.5614 45.1919 15.6183 45.1926 15.6731 45.2056C15.7278 45.2187 15.779 45.2438 15.8228 45.2791C15.8666 45.3144 15.9021 45.3591 15.9265 45.4098C15.9509 45.4605 15.9637 45.516 15.9639 45.5723V47.1643C15.9638 47.2315 15.9818 47.2975 16.0162 47.3553C16.0505 47.4131 16.0997 47.4605 16.1588 47.4926C16.2178 47.5247 16.2845 47.5402 16.3516 47.5375C16.4187 47.5348 16.4839 47.5141 16.5402 47.4774C17.6323 46.7724 20.0688 45.3357 22.0038 45.1712C22.0983 45.1659 22.1872 45.1249 22.2524 45.0564C22.3177 44.9879 22.3544 44.8971 22.3551 44.8025V44.8025C22.3551 44.4078 22.5119 44.0293 22.791 43.7502C23.0701 43.4711 23.4486 43.3143 23.8433 43.3143H27.783C28.1654 43.3143 28.5441 43.3896 28.8975 43.536C29.2508 43.6824 29.5719 43.8969 29.8423 44.1673C30.1128 44.4378 30.3273 44.7588 30.4737 45.1122C30.62 45.4655 30.6954 45.8443 30.6954 46.2267V46.2267C30.6951 46.2804 30.7065 46.3334 30.7287 46.3822C30.7509 46.431 30.7833 46.4745 30.8239 46.5096C30.8644 46.5447 30.9121 46.5706 30.9636 46.5856C31.0151 46.6005 31.0692 46.6042 31.1222 46.5963C34.0952 46.1287 51.6013 44.4371 51.6013 69.4197L52.4649 91.2175C52.4676 91.2689 52.4588 91.3203 52.4392 91.3678C52.2731 91.7698 51.4925 93.8766 52.4683 95.6331L71.4242 129.754C71.4242 129.754 75.486 133.816 75.486 183.86C75.486 183.86 75.1812 233.302 71.2681 240.248C71.2355 240.308 71.187 240.358 71.1278 240.393C71.0687 240.427 71.0012 240.445 70.9327 240.444C70.8642 240.443 70.7972 240.423 70.7393 240.387C70.6813 240.35 70.6344 240.298 70.6038 240.237L69.6222 238.31C69.5942 238.254 69.5531 238.207 69.5023 238.172C69.4515 238.137 69.3928 238.115 69.3314 238.108C69.27 238.101 69.2079 238.11 69.1507 238.133C69.0934 238.156 69.0428 238.193 69.0035 238.241C66.9796 240.67 56.8348 252.343 48.7553 252.343H35.2188C35.1315 252.341 35.0465 252.372 34.9795 252.428C34.9125 252.484 34.8677 252.562 34.8534 252.648C34.7704 253.23 34.2024 254.445 31.0051 254.532C30.9079 254.533 30.8149 254.572 30.7459 254.64C30.6769 254.709 30.6373 254.801 30.6356 254.899V256.601C30.6356 256.65 30.6259 256.699 30.6072 256.744C30.5884 256.789 30.5609 256.83 30.5263 256.865C30.4917 256.899 30.4506 256.926 30.4053 256.945C30.3601 256.964 30.3116 256.973 30.2627 256.973H28.0711C27.9892 256.972 27.9093 256.999 27.8443 257.049C27.7792 257.099 27.7328 257.169 27.7124 257.248C27.6199 257.691 27.3728 258.086 27.0154 258.364C26.658 258.641 26.2135 258.782 25.7616 258.761C24.4487 258.761 24.2095 257.907 24.1838 257.418C24.175 257.326 24.1319 257.24 24.0631 257.179C23.9943 257.117 23.9048 257.084 23.8125 257.085H20.7706C20.5289 257.065 16.5078 256.57 16.5029 246.866V246.836L14.7539 227.333C14.7492 227.281 14.7553 227.229 14.7719 227.18C14.7885 227.13 14.8152 227.085 14.8504 227.047C14.8855 227.009 14.9282 226.978 14.9758 226.957C15.0234 226.937 15.0749 226.926 15.1268 226.926C18.094 226.934 36.1639 226.213 36.1639 207.422C36.1639 188.471 16.5361 187.48 13.6162 187.437C13.568 187.436 13.5204 187.426 13.4761 187.407C13.4318 187.388 13.3917 187.36 13.3581 187.326C13.3245 187.291 13.298 187.25 13.2801 187.205C13.2623 187.161 13.2535 187.113 13.2541 187.065V104.139C13.2536 104.089 13.2629 104.04 13.2815 103.995C13.3002 103.949 13.3278 103.908 13.3627 103.873C13.3976 103.838 13.4391 103.811 13.4848 103.792C13.5305 103.774 13.5794 103.765 13.6287 103.766C16.556 103.812 35.6764 103.381 35.6764 84.1753C35.6764 63.8831 14.7946 64.2443 9.4033 64.27C9.35434 64.2702 9.30584 64.2606 9.2606 64.2419C9.21536 64.2232 9.17427 64.1957 9.13969 64.161C9.10511 64.1264 9.07772 64.0852 9.05911 64.0399C9.0405 63.9947 9.03103 63.9461 9.03125 63.8972V63.8972Z" />
    <path d="M55.4572 237.312L69.4429 226.052C69.4862 226.017 69.5212 225.973 69.5452 225.922C69.5692 225.872 69.5816 225.817 69.5816 225.761V204.98C69.5816 204.98 69.2569 201.568 66.332 203.084C63.5741 204.514 55.8052 214.231 54.9307 215.332C54.8776 215.397 54.8483 215.478 54.8477 215.562V237.021C54.8472 237.092 54.8669 237.162 54.9045 237.222C54.9421 237.282 54.9961 237.33 55.06 237.361C55.124 237.391 55.1953 237.403 55.2657 237.394C55.336 237.386 55.4025 237.357 55.4572 237.312V237.312Z" />
    <path d="M53.4757 161.309L67.6698 162.543C67.7628 162.551 67.8494 162.593 67.9124 162.662C67.9755 162.731 68.0104 162.821 68.0103 162.914V182.149C68.0315 183.885 67.7067 185.608 67.055 187.217C66.4033 188.826 65.4376 190.29 64.2143 191.522C62.1224 193.57 58.9276 195.304 54.091 195.39C53.9909 195.391 53.8943 195.353 53.822 195.284C53.7498 195.215 53.7077 195.12 53.7049 195.02L53.0704 161.688C53.0693 161.635 53.0792 161.583 53.0995 161.535C53.1198 161.487 53.1501 161.443 53.1884 161.408C53.2266 161.372 53.272 161.345 53.3215 161.328C53.371 161.311 53.4235 161.304 53.4757 161.309V161.309Z" />
    <path d="M67.5573 156.295L52.4538 152.891C52.3728 152.873 52.3001 152.828 52.2474 152.764C52.1947 152.7 52.1651 152.62 52.1631 152.537L51.1525 113.754C51.1503 113.671 51.1758 113.59 51.225 113.523C51.2742 113.457 51.3443 113.408 51.4241 113.386C51.504 113.363 51.5891 113.368 51.666 113.399C51.7428 113.43 51.807 113.487 51.8484 113.558L66.5475 138.996C67.5083 140.659 68.0142 142.546 68.0141 144.466V155.935C68.0136 155.991 68.0007 156.046 67.9761 156.096C67.9515 156.146 67.916 156.19 67.8722 156.225C67.8283 156.259 67.7773 156.284 67.7228 156.296C67.6683 156.308 67.6117 156.308 67.5573 156.295V156.295Z" />
    <path d="M45.0835 61.3759L45.7927 72.2299C45.7971 72.298 45.7828 72.3659 45.7513 72.4264C45.7197 72.4869 45.6723 72.5376 45.6139 72.573C45.5556 72.6083 45.4887 72.627 45.4205 72.627C45.3523 72.627 45.2854 72.6083 45.2271 72.5729C44.0529 71.882 41.5233 69.9155 40.7701 65.485C40.4797 63.8943 39.7485 62.417 38.6599 61.2214C37.2938 59.6809 35.6702 56.8607 35.5274 52.098C35.5262 52.0316 35.5425 51.9661 35.5747 51.908C35.6068 51.8499 35.6537 51.8014 35.7107 51.7672C35.7676 51.733 35.8325 51.7144 35.8989 51.7133C35.9653 51.7122 36.0308 51.7286 36.0888 51.7609L40.7227 54.4034C41.9697 55.1141 43.0208 56.1232 43.7818 57.34C44.5429 58.5569 44.9901 59.9436 45.0835 61.3759V61.3759Z" />
    <path d="M16.1013 218.367C22.1935 218.367 27.1322 213.428 27.1322 207.336C27.1322 201.244 22.1935 196.305 16.1013 196.305C10.009 196.305 5.07031 201.244 5.07031 207.336C5.07031 213.428 10.009 218.367 16.1013 218.367Z" />
    <path d="M16.1004 222.69C24.5803 222.69 31.4547 215.816 31.4547 207.336C31.4547 198.856 24.5803 191.982 16.1004 191.982C7.62045 191.982 0.746094 198.856 0.746094 207.336C0.746094 215.816 7.62045 222.69 16.1004 222.69Z" />
    <path d="M16.1013 94.9895C22.1935 94.9895 27.1322 90.0508 27.1322 83.9586C27.1322 77.8663 22.1935 72.9276 16.1013 72.9276C10.009 72.9276 5.07031 77.8663 5.07031 83.9586C5.07031 90.0508 10.009 94.9895 16.1013 94.9895Z" />
    <path d="M16.1004 99.3129C24.5803 99.3129 31.4547 92.4385 31.4547 83.9586C31.4547 75.4786 24.5803 68.6042 16.1004 68.6042C7.62045 68.6042 0.746094 75.4786 0.746094 83.9586C0.746094 92.4385 7.62045 99.3129 16.1004 99.3129Z" />
    <path d="M50.9947 93.8359C50.8542 94.1371 50.7429 94.4511 50.6625 94.7735C50.3459 95.9718 50.2764 97.2219 50.4583 98.4479C50.6402 99.6738 51.0696 100.85 51.7205 101.905L66.1206 125.676C66.3669 126.082 66.7538 126.384 67.2079 126.525C67.662 126.665 68.1518 126.634 68.5846 126.437V126.437" />
    <path d="M55.6992 249.515V245.552C55.6994 245.491 55.7132 245.43 55.7394 245.375C55.7657 245.32 55.8039 245.271 55.8512 245.232L66.3357 236.649C66.3965 236.6 66.4698 236.569 66.5473 236.559C66.6249 236.55 66.7034 236.563 66.774 236.596C66.8446 236.63 66.9043 236.682 66.9464 236.748C66.9884 236.814 67.0111 236.89 67.0117 236.968V239.4" />
  </g>
  <g class="right-door-rear right-door-front">
    <path d="M207.668 93.8359C207.808 94.1372 207.92 94.4511 208 94.7735C208.317 95.9718 208.386 97.2219 208.204 98.4479C208.023 99.6738 207.593 100.85 206.942 101.905L192.543 125.676C192.297 126.082 191.91 126.385 191.455 126.525C191.001 126.665 190.511 126.634 190.078 126.437V126.437" />
    <path d="M249.63 63.8972V61.9697C249.536 57.4612 248.209 53.0646 245.791 49.2579C245.345 48.5374 245.1 47.7108 245.081 46.8637C245.082 46.8082 245.067 46.7537 245.039 46.7059C244.625 45.9834 243.951 45.4461 243.155 45.2036C243.1 45.1919 243.043 45.1926 242.988 45.2056C242.933 45.2187 242.882 45.2438 242.838 45.2791C242.795 45.3145 242.759 45.3591 242.735 45.4099C242.711 45.4606 242.698 45.5161 242.698 45.5723V47.1643C242.698 47.2312 242.68 47.297 242.646 47.3547C242.613 47.4124 242.564 47.4598 242.505 47.4921C242.446 47.5243 242.38 47.5401 242.313 47.5378C242.246 47.5355 242.181 47.5152 242.125 47.4791C241.034 46.7748 238.595 45.3357 236.658 45.1712C236.564 45.1659 236.475 45.1249 236.409 45.0564C236.344 44.9879 236.307 44.8971 236.307 44.8025V44.8025C236.307 44.4078 236.15 44.0293 235.871 43.7502C235.592 43.4711 235.213 43.3143 234.819 43.3143H230.879C230.106 43.3143 229.365 43.6211 228.819 44.1673C228.273 44.7135 227.966 45.4542 227.966 46.2267V46.2267C227.966 46.2803 227.955 46.3333 227.933 46.3822C227.911 46.431 227.878 46.4745 227.838 46.5096C227.797 46.5447 227.75 46.5706 227.698 46.5856C227.647 46.6005 227.593 46.6042 227.54 46.5963C224.567 46.1287 207.061 44.4371 207.061 69.4197L206.197 91.2175C206.194 91.2689 206.202 91.3204 206.223 91.3678C206.389 91.7698 207.169 93.8766 206.194 95.6331L187.238 129.754C187.238 129.754 183.176 133.816 183.176 183.86C183.176 183.86 183.481 233.301 187.394 240.248C187.426 240.308 187.475 240.358 187.534 240.393C187.593 240.427 187.661 240.445 187.729 240.444C187.798 240.443 187.865 240.423 187.923 240.387C187.981 240.35 188.027 240.298 188.058 240.237L189.04 238.31C189.068 238.254 189.109 238.207 189.159 238.172C189.21 238.137 189.269 238.115 189.33 238.108C189.392 238.101 189.454 238.11 189.511 238.133C189.568 238.156 189.619 238.193 189.658 238.241C191.682 240.67 201.827 252.343 209.906 252.343H223.442C223.53 252.341 223.615 252.371 223.682 252.427C223.749 252.483 223.794 252.562 223.808 252.648C223.891 253.23 224.459 254.445 227.655 254.532C227.753 254.533 227.846 254.572 227.916 254.642C227.985 254.711 228.025 254.804 228.026 254.902V256.6C228.026 256.649 228.036 256.698 228.055 256.743C228.073 256.788 228.101 256.829 228.135 256.864C228.17 256.899 228.211 256.926 228.256 256.945C228.302 256.964 228.35 256.973 228.399 256.973H230.591C230.673 256.972 230.752 256.999 230.817 257.049C230.882 257.099 230.929 257.169 230.949 257.248C231.042 257.691 231.289 258.086 231.646 258.364C232.004 258.641 232.448 258.782 232.9 258.761C234.213 258.761 234.452 257.907 234.478 257.418C234.487 257.326 234.53 257.24 234.599 257.179C234.667 257.117 234.757 257.084 234.849 257.085H237.891C238.133 257.065 242.154 256.57 242.158 246.865V246.836L243.907 227.333C243.912 227.281 243.906 227.229 243.889 227.18C243.872 227.13 243.846 227.085 243.811 227.047C243.775 227.009 243.733 226.978 243.685 226.957C243.638 226.937 243.586 226.926 243.534 226.926C240.567 226.934 222.496 226.213 222.496 207.422C222.496 188.471 242.125 187.48 245.045 187.437C245.093 187.436 245.141 187.426 245.185 187.407C245.229 187.388 245.269 187.36 245.303 187.326C245.336 187.291 245.363 187.25 245.38 187.205C245.398 187.161 245.407 187.113 245.406 187.065V104.139C245.407 104.089 245.397 104.04 245.379 103.995C245.36 103.949 245.333 103.908 245.298 103.873C245.263 103.838 245.222 103.811 245.176 103.792C245.13 103.774 245.082 103.765 245.032 103.766C242.105 103.812 222.984 103.381 222.984 84.1753C222.984 63.8831 243.866 64.2443 249.258 64.27C249.307 64.2702 249.355 64.2606 249.4 64.2419C249.446 64.2232 249.487 64.1957 249.521 64.161C249.556 64.1264 249.583 64.0852 249.602 64.0399C249.62 63.9947 249.63 63.9461 249.63 63.8972V63.8972Z" />
    <path d="M203.199 237.312L189.214 226.052C189.17 226.017 189.135 225.973 189.111 225.922C189.087 225.872 189.074 225.817 189.074 225.761V204.98C189.074 204.98 189.4 201.568 192.324 203.084C195.083 204.514 202.852 214.231 203.726 215.332C203.779 215.397 203.809 215.478 203.809 215.562V237.021C203.81 237.092 203.79 237.162 203.753 237.222C203.715 237.283 203.661 237.331 203.597 237.362C203.533 237.392 203.462 237.404 203.391 237.395C203.321 237.386 203.254 237.357 203.199 237.312Z" />
    <path d="M205.186 161.309L190.994 162.543C190.901 162.551 190.814 162.593 190.751 162.662C190.688 162.731 190.653 162.821 190.653 162.914V182.149C190.632 183.885 190.957 185.608 191.608 187.217C192.26 188.826 193.225 190.289 194.449 191.522C196.541 193.57 199.736 195.304 204.573 195.39C204.673 195.391 204.769 195.353 204.842 195.284C204.914 195.214 204.956 195.12 204.959 195.019L205.593 161.687C205.594 161.635 205.584 161.583 205.564 161.534C205.544 161.486 205.513 161.443 205.475 161.407C205.436 161.371 205.391 161.344 205.341 161.327C205.291 161.31 205.239 161.304 205.186 161.309V161.309Z" />
    <path d="M191.105 156.295L206.209 152.89C206.29 152.872 206.362 152.828 206.415 152.763C206.467 152.699 206.497 152.62 206.499 152.537L207.509 113.754C207.511 113.672 207.485 113.591 207.436 113.524C207.387 113.458 207.317 113.409 207.238 113.387C207.158 113.365 207.073 113.369 206.997 113.4C206.92 113.431 206.856 113.487 206.814 113.558L192.115 138.996C191.154 140.659 190.648 142.546 190.648 144.466V155.935C190.649 155.991 190.662 156.046 190.686 156.096C190.711 156.146 190.746 156.19 190.79 156.225C190.834 156.259 190.885 156.284 190.94 156.296C190.994 156.308 191.051 156.308 191.105 156.295V156.295Z" />
    <path d="M213.58 61.3759L212.872 72.2299C212.867 72.298 212.882 72.3659 212.913 72.4264C212.945 72.4869 212.992 72.5376 213.051 72.573C213.109 72.6083 213.176 72.627 213.244 72.627C213.312 72.627 213.379 72.6083 213.437 72.5729C214.612 71.882 217.141 69.9155 217.894 65.485C218.185 63.8946 218.916 62.4176 220.004 61.2214C221.37 59.6809 222.998 56.8607 223.137 52.098C223.138 52.0316 223.122 51.9661 223.09 51.908C223.058 51.8499 223.011 51.8014 222.954 51.7672C222.897 51.733 222.832 51.7144 222.766 51.7133C222.699 51.7122 222.634 51.7286 222.576 51.7609L217.942 54.4034C216.695 55.1143 215.644 56.1233 214.883 57.3402C214.121 58.557 213.674 59.9436 213.58 61.3759V61.3759Z" />
    <path d="M202.962 249.515V245.552C202.962 245.491 202.948 245.43 202.922 245.375C202.896 245.32 202.858 245.271 202.811 245.232L192.324 236.649C192.264 236.6 192.19 236.569 192.113 236.559C192.035 236.55 191.957 236.563 191.886 236.596C191.816 236.63 191.756 236.682 191.714 236.748C191.672 236.814 191.649 236.89 191.648 236.968V239.4" />
    <path d="M242.562 218.367C248.654 218.367 253.593 213.428 253.593 207.336C253.593 201.244 248.654 196.305 242.562 196.305C236.47 196.305 231.531 201.244 231.531 207.336C231.531 213.428 236.47 218.367 242.562 218.367Z" />
    <path d="M242.561 222.69C251.041 222.69 257.916 215.816 257.916 207.336C257.916 198.856 251.041 191.982 242.561 191.982C234.081 191.982 227.207 198.856 227.207 207.336C227.207 215.816 234.081 222.69 242.561 222.69Z" />
    <path d="M242.562 94.9895C248.654 94.9895 253.593 90.0508 253.593 83.9586C253.593 77.8663 248.654 72.9276 242.562 72.9276C236.47 72.9276 231.531 77.8663 231.531 83.9586C231.531 90.0508 236.47 94.9895 242.562 94.9895Z" />
    <path d="M242.561 99.3129C251.041 99.3129 257.916 92.4385 257.916 83.9586C257.916 75.4786 251.041 68.6042 242.561 68.6042C234.081 68.6042 227.207 75.4786 227.207 83.9586C227.207 92.4385 234.081 99.3129 242.561 99.3129Z" />
  </g>
</svg>