<svg width="147" height="110" viewBox="0 0 147 110" fill="none" xmlns="http://www.w3.org/2000/svg">
<g opacity="0.606">
<path opacity="0.606" d="M11.0835 86.5543C9.67675 86.5559 8.32801 87.1155 7.33326 88.1102C6.33851 89.105 5.77895 90.4537 5.77734 91.8605V104.277C5.77895 105.684 6.33851 107.032 7.33326 108.027C8.32801 109.022 9.67675 109.581 11.0835 109.583H17.8142C19.221 109.581 20.5698 109.022 21.5645 108.027C22.5593 107.032 23.1188 105.684 23.1204 104.277V91.8605C23.1188 90.4537 22.5593 89.105 21.5645 88.1102C20.5698 87.1155 19.221 86.5559 17.8142 86.5543H11.0835Z" fill="#3F3D56"/>
<path opacity="0.606" d="M135.509 110H128.778C127.261 109.998 125.808 109.395 124.735 108.323C123.663 107.251 123.06 105.797 123.059 104.281V91.8642C123.06 90.3479 123.663 88.8942 124.735 87.822C125.808 86.7497 127.261 86.1466 128.778 86.145H135.509C137.025 86.1466 138.479 86.7497 139.551 87.822C140.623 88.8942 141.226 90.3479 141.228 91.8642V104.281C141.226 105.797 140.623 107.251 139.551 108.323C138.479 109.395 137.025 109.998 135.509 110Z" fill="#3F3D56"/>
<path opacity="0.606" d="M131.04 100.058H15.1456C9.86982 100.058 5.57812 96.9482 5.57812 93.1272V70.8394L11.3307 64.78H135.982L140.617 70.8546V93.1303C140.62 96.9482 136.328 100.058 131.04 100.058Z" fill="#646E95"/>
<path opacity="0.606" d="M135.444 75.9142H11.9927L10.7383 56.6789L11.5371 54.7108L16.1781 43.2905H130.423L136.698 56.2568L135.444 75.9142Z" fill="#646E95"/>
<path opacity="0.606" d="M136.489 56.3119L135.578 70.7664H108.418V60.0356L135.726 54.7264L136.489 56.3119Z" fill="white"/>
<path opacity="0.606" d="M38.613 60.0293V70.7661H11.8604L10.9492 56.7247L11.7298 54.799L38.613 60.0293Z" fill="white"/>
<path opacity="0.606" d="M129.729 46.6107H16.8594L28.8993 6.48185C29.3895 4.82395 30.4001 3.36778 31.7817 2.32854C33.1634 1.2893 34.8427 0.722175 36.5716 0.710986L111.323 0.000229522C113.128 -0.0133637 114.886 0.577183 116.317 1.67794C117.748 2.7787 118.77 4.32643 119.22 6.07484L129.729 46.6107Z" fill="#646E95"/>
<path opacity="0.606" d="M121.048 42.8201L25.5366 41.6872C25.4157 41.6859 25.2968 41.6562 25.1895 41.6005C25.0822 41.5448 24.9895 41.4646 24.9188 41.3665C24.8482 41.2684 24.8015 41.155 24.7828 41.0355C24.764 40.9161 24.7736 40.7939 24.8108 40.6788L33.9682 12.1099C34.0178 11.9539 34.1158 11.8177 34.2479 11.7211C34.3801 11.6244 34.5395 11.5723 34.7032 11.5723H111.526C111.689 11.5721 111.848 11.6238 111.98 11.7199C112.113 11.8159 112.211 11.9514 112.261 12.1069L121.795 41.8057C121.833 41.9222 121.842 42.046 121.822 42.1669C121.802 42.2878 121.754 42.4021 121.682 42.5007C121.609 42.5992 121.514 42.679 121.404 42.7335C121.294 42.788 121.173 42.8157 121.051 42.8141L121.048 42.8201Z" fill="white"/>
<path opacity="0.606" d="M16.9329 45.7814H0V42.0607C0.00479848 40.8587 0.48443 39.7072 1.33438 38.8573C2.18434 38.0073 3.33569 37.5277 4.5377 37.5229H16.9329V45.7814Z" fill="#646E95"/>
<path opacity="0.606" d="M146.598 45.7814H129.668V37.5229H142.063C143.265 37.5277 144.417 38.0073 145.267 38.8573C146.117 39.7072 146.596 40.8587 146.601 42.0607L146.598 45.7814Z" fill="#646E95"/>
</g>
</svg>
