<svg width="17" height="11" viewBox="0 0 17 11" fill="none" xmlns="http://www.w3.org/2000/svg">
  <path d="M.498 9.35a1.2 1.2 0 001.2 1.134h13.6a1.2 1.2 0 001.2-1.2v-2.3h-16V9.35z" fill="#73AF00"/>
  <path d="M15.298 0h-13.6a1.2 1.2 0 00-1.2 1.134v2.361h16v-2.3A1.2 1.2 0 0015.298 0z" fill="#82AFFF"/>
  <path d="M16.498 3.495h-16V6.99h16V3.495z" fill="#FF4B55"/>
  <path d="M8.876 6.386a1.122 1.122 0 010-2.244 1.1 1.1 0 01.62.191.027.027 0 00.035-.041 1.39 1.39 0 00-1.054-.429 1.4 1.4 0 00.05 2.8 1.39 1.39 0 001.006-.43.027.027 0 00-.035-.04 1.1 1.1 0 01-.622.193z" fill="#F5F5F5"/>
  <path d="M9.857 4.573l.116.327.314-.149a.028.028 0 01.04.02.028.028 0 01-.003.017l-.149.314.327.116c.005.002.01.006.013.01a.028.028 0 010 .032.028.028 0 01-.013.01l-.327.116.15.314c.002.005.002.011.001.017a.029.029 0 01-.008.014.028.028 0 01-.03.006l-.315-.149-.116.327a.028.028 0 01-.052 0l-.116-.327-.314.149a.028.028 0 01-.037-.037l.15-.314-.328-.116a.028.028 0 010-.052l.327-.116-.149-.314a.028.028 0 01.037-.037l.314.149.116-.327a.028.028 0 01.052 0z" fill="#F5F5F5"/>
</svg>
