<svg width="116" height="34" viewBox="0 0 116 34" fill="none" xmlns="http://www.w3.org/2000/svg">
<rect width="116" height="34" rx="4" fill="white"/>
<path opacity="0.54" d="M55.9972 14.7048C53.889 14.7048 52.1753 16.3057 52.1753 18.5154C52.1753 20.7139 53.889 22.326 55.9972 22.326C58.1055 22.326 59.8191 20.7139 59.8191 18.5154C59.8191 16.317 58.1055 14.7048 55.9972 14.7048ZM55.9972 20.8266C54.8473 20.8266 53.8439 19.8683 53.8439 18.5154C53.8439 17.14 54.836 16.2042 55.9972 16.2042C57.1584 16.2042 58.1506 17.14 58.1506 18.5154C58.1393 19.8683 57.1472 20.8266 55.9972 20.8266ZM66.2341 15.5616H66.1777C65.8057 15.1106 65.0841 14.7048 64.1709 14.7048C62.2656 14.7048 60.5181 16.3846 60.5181 18.5267C60.5181 20.6575 62.2656 22.326 64.1709 22.326C65.0841 22.326 65.8057 21.9202 66.1777 21.4579H66.2341V22.0104C66.2341 23.4647 65.4562 24.2426 64.2047 24.2426C63.1788 24.2426 62.5474 23.5098 62.2881 22.8897L60.8338 23.4986C61.2509 24.5132 62.3671 25.7534 64.216 25.7534C66.1777 25.7534 67.835 24.6034 67.835 21.7849V14.9415H66.2453L66.2341 15.5616ZM64.3175 20.8266C63.1675 20.8266 62.1979 19.857 62.1979 18.5267C62.1979 17.1851 63.1675 16.2042 64.3175 16.2042C65.4562 16.2042 66.3468 17.1851 66.3468 18.5267C66.3468 19.8683 65.4562 20.8266 64.3175 20.8266ZM47.6544 14.7048C45.5462 14.7048 43.8325 16.3057 43.8325 18.5154C43.8325 20.7139 45.5462 22.326 47.6544 22.326C49.7627 22.326 51.4763 20.7139 51.4763 18.5154C51.4763 16.317 49.7627 14.7048 47.6544 14.7048ZM47.6544 20.8266C46.5045 20.8266 45.5011 19.8683 45.5011 18.5154C45.5011 17.14 46.4932 16.2042 47.6544 16.2042C48.8044 16.2042 49.8078 17.14 49.8078 18.5154C49.7965 19.8683 48.8044 20.8266 47.6544 20.8266ZM37.722 15.866V17.4782H41.589C41.4762 18.3914 41.1718 19.0566 40.7096 19.5188C40.1459 20.0825 39.2665 20.7026 37.722 20.7026C35.3431 20.7026 33.4829 18.786 33.4829 16.4072C33.4829 14.0283 35.3431 12.1117 37.722 12.1117C39.0072 12.1117 39.943 12.6191 40.6419 13.2617L41.7806 12.123C40.8111 11.1985 39.5258 10.4883 37.722 10.4883C34.4638 10.4883 31.7129 13.149 31.7129 16.4072C31.7129 19.6654 34.4525 22.326 37.722 22.326C39.4807 22.326 40.8111 21.7511 41.8483 20.6688C42.9193 19.5977 43.2463 18.0983 43.2463 16.892C43.2463 16.5199 43.2124 16.1704 43.1561 15.8773L37.722 15.866ZM78.3086 17.14C77.9929 16.2831 77.0233 14.7161 75.0504 14.7161C73.0887 14.7161 71.454 16.2606 71.454 18.5267C71.454 20.6575 73.0661 22.3373 75.2308 22.3373C76.9782 22.3373 77.9929 21.2663 78.4101 20.6462L77.1135 19.7781C76.6851 20.4095 76.0876 20.8266 75.242 20.8266C74.3965 20.8266 73.7877 20.432 73.3931 19.6766L78.489 17.5684L78.3086 17.14ZM73.1225 18.4027C73.0774 16.9258 74.2612 16.1817 75.118 16.1817C75.7832 16.1817 76.3469 16.5086 76.5273 16.9934L73.1225 18.4027ZM68.9737 22.1006H70.6422V10.9054H68.9737V22.1006ZM86.1553 10.9054H82.153V22.1006H83.8216V17.8615H86.1553C88.0043 17.8615 89.8307 16.5199 89.8307 14.3778C89.8307 12.247 88.0043 10.9054 86.1553 10.9054ZM86.2004 16.2832H83.8216V12.45H86.2004C87.4518 12.45 88.1621 13.4872 88.1621 14.3666C88.1621 15.2459 87.4518 16.2832 86.2004 16.2832ZM90.7551 22.1006H92.4237V10.9054H90.7551V22.1006ZM96.5275 14.6822C95.3211 14.6822 94.0584 15.2121 93.5398 16.3959L95.028 17.016C95.3437 16.3959 95.9299 16.193 96.55 16.193C97.4181 16.193 98.2975 16.7116 98.3088 17.636V17.7488C98.0044 17.5797 97.3617 17.3204 96.5613 17.3204C94.9604 17.3204 93.3369 18.1997 93.3369 19.8458C93.3369 21.3452 94.6447 22.3035 96.1216 22.3035C97.249 22.3035 97.8691 21.7962 98.2524 21.2099H98.3088V22.078H99.921V17.7826C99.9322 15.7984 98.4441 14.6822 96.5275 14.6822ZM96.3245 20.8266C95.7721 20.8266 95.0167 20.556 95.0167 19.8796C95.0167 19.0115 95.9638 18.6845 96.7868 18.6845C97.5196 18.6845 97.8691 18.8424 98.3088 19.0566C98.1848 20.0938 97.2941 20.8266 96.3245 20.8266ZM105.806 14.9303L103.889 19.7894H103.833L101.849 14.9303H100.045L103.021 21.7172L101.319 25.5053H103.066L107.666 14.9415H105.806V14.9303Z" fill="black"/>
<path d="M8.86077 7.07155C8.63529 7.30831 8.5 7.68035 8.5 8.15386V25.2115C8.5 25.685 8.63529 26.0571 8.86077 26.2938L8.91714 26.3502L18.4775 16.7898V16.5643L8.91714 7.00391L8.86077 7.07155Z" fill="url(#paint0_linear_7315_41296)"/>
<path d="M21.6568 19.9816L18.4775 16.791V16.5656L21.6681 13.375L21.7357 13.4201L25.5126 15.5622C26.5949 16.171 26.5949 17.1744 25.5126 17.7944L21.7357 19.9365L21.6568 19.9816Z" fill="url(#paint1_linear_7315_41296)"/>
<path d="M21.7358 19.9359L18.4776 16.6777L8.86084 26.2945C9.21034 26.6666 9.80786 26.7229 10.4618 26.3396L21.7358 19.9359Z" fill="url(#paint2_linear_7315_41296)"/>
<path d="M21.7358 13.4307L10.4618 7.02704C9.79659 6.65499 9.21034 6.70009 8.86084 7.07213L18.4776 16.6889L21.7358 13.4307Z" fill="url(#paint3_linear_7315_41296)"/>
<path opacity="0.2" d="M21.6569 19.8672L10.4618 26.2258C9.83041 26.5865 9.27798 26.564 8.91721 26.237L8.86084 26.2934L8.91721 26.3498C9.27798 26.6767 9.84168 26.6993 10.4618 26.3385L21.7358 19.9348L21.6569 19.8672Z" fill="black"/>
<path opacity="0.12" d="M8.86077 26.1818C8.63529 25.945 8.5 25.573 8.5 25.0995V25.2122C8.5 25.6857 8.63529 26.0578 8.86077 26.2945L8.91714 26.2381L8.86077 26.1818ZM25.5013 17.6811L21.6568 19.8683L21.7245 19.9359L25.5013 17.7939C26.0424 17.4895 26.313 17.0836 26.313 16.6777C26.2679 17.0498 25.9973 17.3993 25.5013 17.6811Z" fill="black"/>
<path opacity="0.25" d="M10.4617 7.12825L25.5013 15.674C25.9861 15.9558 26.2679 16.3053 26.313 16.6774C26.313 16.2715 26.0424 15.8656 25.5013 15.5612L10.4617 7.01551C9.37938 6.40671 8.5 6.91405 8.5 8.14292V8.25566C8.5 7.02679 9.37938 6.51945 10.4617 7.12825Z" fill="white"/>
<defs>
<linearGradient id="paint0_linear_7315_41296" x1="17.6203" y1="7.96829" x2="4.67347" y2="20.9151" gradientUnits="userSpaceOnUse">
<stop stop-color="#00A0FF"/>
<stop offset="0.007" stop-color="#00A1FF"/>
<stop offset="0.26" stop-color="#00BEFF"/>
<stop offset="0.512" stop-color="#00D2FF"/>
<stop offset="0.76" stop-color="#00DFFF"/>
<stop offset="1" stop-color="#00E3FF"/>
</linearGradient>
<linearGradient id="paint1_linear_7315_41296" x1="26.9081" y1="16.6839" x2="8.24148" y2="16.6839" gradientUnits="userSpaceOnUse">
<stop stop-color="#FFE000"/>
<stop offset="0.409" stop-color="#FFBD00"/>
<stop offset="0.775" stop-color="#FFA500"/>
<stop offset="1" stop-color="#FF9C00"/>
</linearGradient>
<linearGradient id="paint2_linear_7315_41296" x1="19.9623" y1="18.4569" x2="2.40554" y2="36.0136" gradientUnits="userSpaceOnUse">
<stop stop-color="#FF3A44"/>
<stop offset="1" stop-color="#C31162"/>
</linearGradient>
<linearGradient id="paint3_linear_7315_41296" x1="6.43917" y1="1.38663" x2="14.279" y2="9.2265" gradientUnits="userSpaceOnUse">
<stop stop-color="#32A071"/>
<stop offset="0.069" stop-color="#2DA771"/>
<stop offset="0.476" stop-color="#15CF74"/>
<stop offset="0.801" stop-color="#06E775"/>
<stop offset="1" stop-color="#00F076"/>
</linearGradient>
</defs>
</svg>
