<svg width="82" height="25" fill="none" xmlns="http://www.w3.org/2000/svg"><rect x=".5" y=".73" width="80.882" height="23" rx="3.5" stroke="#CED1D8"/><path opacity=".54" d="M39.529 10.61c-1.489 0-2.698 1.13-2.698 2.689 0 1.552 1.21 2.69 2.698 2.69s2.697-1.138 2.697-2.69-1.21-2.69-2.697-2.69Zm0 4.32c-.812 0-1.52-.676-1.52-1.631 0-.97.7-1.631 1.52-1.631.82 0 1.52.66 1.52 1.631-.008.955-.709 1.631-1.52 1.631Zm7.226-3.716h-.04c-.263-.318-.772-.605-1.417-.605-1.345 0-2.578 1.186-2.578 2.698 0 1.504 1.233 2.682 2.578 2.682.645 0 1.154-.287 1.417-.613h.04v.39c0 1.027-.55 1.576-1.433 1.576-.724 0-1.17-.517-1.353-.955l-1.026.43c.294.716 1.082 1.591 2.387 1.591 1.385 0 2.555-.812 2.555-2.801v-4.83h-1.122l-.008.437Zm-1.353 3.716c-.812 0-1.496-.684-1.496-1.623 0-.947.684-1.64 1.496-1.64.803 0 1.432.693 1.432 1.64s-.629 1.623-1.432 1.623ZM33.64 10.61c-1.489 0-2.698 1.13-2.698 2.689 0 1.552 1.21 2.69 2.698 2.69s2.697-1.138 2.697-2.69-1.21-2.69-2.697-2.69Zm0 4.32c-.812 0-1.52-.676-1.52-1.631 0-.97.7-1.631 1.52-1.631.811 0 1.52.66 1.52 1.631-.008.955-.709 1.631-1.52 1.631Zm-7.012-3.501v1.138h2.73c-.08.644-.294 1.114-.62 1.44-.399.398-1.02.836-2.11.836-1.679 0-2.992-1.353-2.992-3.032 0-1.68 1.313-3.032 2.992-3.032.908 0 1.568.358 2.062.812l.803-.804c-.684-.653-1.591-1.154-2.865-1.154-2.3 0-4.241 1.878-4.241 4.178s1.934 4.178 4.241 4.178c1.242 0 2.181-.406 2.913-1.17.756-.756.987-1.814.987-2.666 0-.263-.024-.51-.064-.716l-3.836-.008Zm28.65.9c-.223-.606-.907-1.712-2.3-1.712-1.385 0-2.539 1.09-2.539 2.69 0 1.504 1.138 2.69 2.666 2.69a2.68 2.68 0 0 0 2.244-1.194l-.915-.613c-.302.446-.724.74-1.32.74-.598 0-1.027-.278-1.306-.811l3.597-1.489-.127-.302Zm-3.661.89c-.032-1.042.804-1.567 1.409-1.567.47 0 .867.23.994.573l-2.403.994Zm-2.929 2.61h1.178V7.928h-1.178v7.903Zm12.129-7.902h-2.825v7.903h1.177v-2.992h1.648c1.305 0 2.594-.948 2.594-2.46 0-1.504-1.29-2.45-2.594-2.45Zm.032 3.796h-1.68V9.018h1.68c.883 0 1.384.732 1.384 1.352 0 .621-.501 1.353-1.384 1.353Zm3.215 4.107h1.177V7.927h-1.177v7.903Zm4.074-5.237c-.851 0-1.743.374-2.109 1.21l1.05.438c.224-.438.637-.581 1.075-.581.613 0 1.234.366 1.242 1.018v.08a2.646 2.646 0 0 0-1.234-.302c-1.13 0-2.276.62-2.276 1.782 0 1.059.923 1.735 1.966 1.735.795 0 1.233-.358 1.504-.772h.04v.613h1.138v-3.032c.007-1.4-1.043-2.189-2.396-2.189Zm-.143 4.337c-.39 0-.923-.19-.923-.668 0-.613.668-.844 1.25-.844.516 0 .763.112 1.074.263a1.421 1.421 0 0 1-1.401 1.25Zm6.693-4.162-1.353 3.43h-.04l-1.4-3.43H70.62l2.101 4.791-1.202 2.674h1.234L76 10.776h-1.313v-.008Z" fill="#000"/><path d="M6.255 5.222c-.16.167-.255.43-.255.764v12.04c0 .334.096.597.255.764l.04.04 6.748-6.748v-.16L6.294 5.174l-.04.048Z" fill="url(#a)"/><path d="m15.287 14.333-2.244-2.252v-.159l2.252-2.252.048.032 2.666 1.512c.764.43.764 1.138 0 1.575l-2.666 1.513-.056.031Z" fill="url(#b)"/><path d="m15.342 14.302-2.3-2.3-6.788 6.788c.247.263.668.303 1.13.032l7.958-4.52Z" fill="url(#c)"/><path d="M15.342 9.71 7.384 5.19c-.47-.263-.883-.231-1.13.031l6.788 6.789 2.3-2.3Z" fill="url(#d)"/><path opacity=".2" d="m15.286 14.254-7.902 4.488c-.446.255-.836.24-1.09.008l-.04.04.04.04c.254.23.652.247 1.09-.008l7.958-4.52-.056-.048Z" fill="#000"/><path opacity=".12" d="M6.255 18.71c-.16-.166-.255-.43-.255-.763v.08c0 .333.096.596.255.763l.04-.04-.04-.04Zm11.746-6-2.714 1.544.048.048L18 12.79c.382-.215.573-.502.573-.788-.032.263-.223.51-.573.708Z" fill="#000"/><path opacity=".25" d="M7.385 5.261 18 11.294c.342.199.541.445.573.708 0-.286-.191-.573-.573-.788L7.385 5.182C6.62 4.752 6 5.11 6 5.978v.08c0-.868.62-1.226 1.385-.797Z" fill="#fff"/><defs><linearGradient id="a" x1="12.438" y1="5.855" x2="3.299" y2="14.993" gradientUnits="userSpaceOnUse"><stop stop-color="#00A0FF"/><stop offset=".007" stop-color="#00A1FF"/><stop offset=".26" stop-color="#00BEFF"/><stop offset=".512" stop-color="#00D2FF"/><stop offset=".76" stop-color="#00DFFF"/><stop offset="1" stop-color="#00E3FF"/></linearGradient><linearGradient id="b" x1="18.994" y1="12.006" x2="5.818" y2="12.006" gradientUnits="userSpaceOnUse"><stop stop-color="#FFE000"/><stop offset=".409" stop-color="#FFBD00"/><stop offset=".775" stop-color="orange"/><stop offset="1" stop-color="#FF9C00"/></linearGradient><linearGradient id="c" x1="14.09" y1="13.258" x2="1.697" y2="25.651" gradientUnits="userSpaceOnUse"><stop stop-color="#FF3A44"/><stop offset="1" stop-color="#C31162"/></linearGradient><linearGradient id="d" x1="4.544" y1="1.208" x2="10.079" y2="6.742" gradientUnits="userSpaceOnUse"><stop stop-color="#32A071"/><stop offset=".069" stop-color="#2DA771"/><stop offset=".476" stop-color="#15CF74"/><stop offset=".801" stop-color="#06E775"/><stop offset="1" stop-color="#00F076"/></linearGradient></defs></svg>