<svg width="257" height="50" viewBox="0 0 257 50" fill="none" xmlns="http://www.w3.org/2000/svg">
<path d="M21.6342 11.4336L15.073 30.0141H14.5991L8.03791 11.4336H0V37.9316H6.02467V21.9711H6.5612L12.3953 37.9341H17.2868L23.1209 21.9711H23.6574V37.9341H29.6821V11.4336H21.6342Z" fill="white"/>
<path d="M50.5272 11.4336H41.6945L31.4453 37.9316H37.9438L39.586 33.4814H52.6457L54.2804 37.9316H60.814L50.5272 11.4336ZM41.3485 28.7204L45.5129 17.3981H46.7138L50.8732 28.7204H41.3485Z" fill="white"/>
<path d="M81.9443 24.3972C80.6205 23.7453 78.3566 23.1211 75.16 22.5394C74.8892 22.4918 74.6911 22.4642 74.5633 22.4441L71.6926 21.9352C69.02 21.4337 67.6837 20.3883 67.6837 18.8138C67.6837 17.7833 68.1525 16.976 69.0877 16.3994C70.0228 15.8228 71.3867 15.5319 73.1718 15.5319C76.8749 15.5319 78.9583 16.8682 79.4196 19.5409H85.0632C85.003 13.5438 81.0818 10.5527 73.2997 10.5527C69.5966 10.5527 66.7335 11.2522 64.7052 12.6487C62.6769 14.0452 61.659 16.0058 61.659 18.5305C61.659 19.6436 61.8546 20.634 62.2432 21.4939C62.6368 22.3564 63.1182 23.0534 63.6948 23.5774C64.2714 24.1064 65.0436 24.5677 66.0014 24.9814C66.9591 25.3875 67.8466 25.6934 68.6665 25.8965C69.4813 26.092 70.4841 26.2976 71.6575 26.5082L74.9418 27.0773C76.5564 27.3481 77.7373 27.7417 78.4769 28.2432C79.209 28.7446 79.5751 29.4516 79.5751 30.3592C79.5751 31.4097 79.026 32.2521 77.9203 32.8839C76.8147 33.5157 75.2552 33.8266 73.2395 33.8266C71.1159 33.8065 69.5089 33.4405 68.4082 32.7209C67.3151 32.0089 66.7184 31.011 66.6106 29.7299H60.9319C60.9119 32.7961 61.9348 35.0751 64.0107 36.5744C66.0791 38.0662 69.1528 38.8133 73.237 38.8133C77.3337 38.8133 80.4626 38.0937 82.6062 36.6697C84.7498 35.2381 85.8203 33.1973 85.8203 30.5497C85.8028 27.7292 84.5066 25.6808 81.9443 24.3972Z" fill="white"/>
<path d="M107.395 11.4336V22.0639H94.2402V11.4336H87.9648V37.9316H94.2402V27.3013H107.395V37.9316H113.703V11.4336H107.395Z" fill="white"/>
<path d="M116.385 11.4336V37.9316H122.66V11.4336H116.385Z" fill="white"/>
<path d="M145.563 11.4336V29.2544H144.966L132.659 11.4336H125.373V37.9316H131.526V20.1108H132.095L144.55 37.9316H151.713V11.4336H145.563Z" fill="white"/>
<path d="M241.403 28.5664L237.908 32.7684C237.392 32.3472 236.903 31.8658 236.464 31.3368L233.072 27.2702C233.689 25.623 233.649 23.8003 232.944 22.1832C232.841 21.94 232.726 21.7019 232.591 21.4737C232.257 20.9021 231.856 20.3856 231.39 19.9519C230.134 18.7459 228.451 18.054 226.674 18.054C224.234 18.054 221.973 19.3552 220.754 21.4737C219.538 23.5822 219.538 26.1871 220.754 28.3032C221.973 30.4117 224.234 31.7154 226.674 31.7154C227.075 31.7154 227.469 31.6803 227.855 31.6051L231.252 35.6842C231.959 36.5266 232.741 37.2988 233.573 37.9757L225.503 47.6709C224.402 48.9871 222.775 49.7543 221.065 49.7543H162.752C159.555 49.7543 156.973 47.1694 156.973 43.9803V5.77396C156.973 2.58737 159.555 0 162.752 0H221.065C222.775 0 224.402 0.759665 225.503 2.07592L236.64 15.4616L237.209 16.146L237.279 16.2262L238.976 18.2646L239.042 18.3448L241.403 21.1804C243.181 23.324 243.181 26.4303 241.403 28.5664Z" fill="white"/>
<path d="M256.731 26.9623C256.731 31.1442 254.718 34.8573 251.607 37.1864C251.602 37.1914 251.599 37.194 251.594 37.194C249.636 38.6581 247.244 39.5682 244.645 39.7036C244.617 39.7061 244.587 39.7061 244.557 39.7061C244.364 39.7161 244.168 39.7212 243.975 39.7212V39.7136C241.932 39.6911 239.959 39.2172 238.311 38.5127C237.096 37.9987 235.937 37.2917 234.879 36.4117C234.14 35.815 233.448 35.1356 232.823 34.3834L226.628 26.9623C226.127 26.3706 225.901 25.5909 225.999 24.8237C226.094 24.059 226.508 23.367 227.13 22.9132C227.496 22.6475 227.932 22.3366 228.413 22.0057C228.962 21.617 229.572 21.1908 230.236 20.737C230.705 21.1357 231.106 21.612 231.417 22.1536C231.567 22.4193 231.695 22.6901 231.798 22.9684C231.269 23.3219 230.773 23.6679 230.316 23.9863C229.704 24.4125 229.163 24.7936 228.717 25.1195C228.709 25.1271 228.692 25.1321 228.692 25.1672L234.907 32.6435C235.428 33.2678 235.997 33.8369 236.609 34.3308C237.464 35.0353 238.394 35.6069 239.372 36.0181C239.956 36.2663 241.867 36.9934 244.176 36.9934C244.206 36.9959 244.238 36.9934 244.268 36.9934C246.455 36.9307 248.463 36.171 250.085 34.9275C252.472 33.0923 254.011 30.209 254.011 26.9648C254.011 25.3928 253.65 23.9036 253.001 22.5798C251.446 19.3857 248.242 17.1393 244.494 16.9487C244.429 16.9462 244.364 16.9412 244.296 16.9412C244.188 16.9362 244.083 16.9337 243.978 16.9337C242.157 16.9337 240.453 17.4176 238.981 18.2675L237.284 16.2292L237.216 16.149C239.176 14.918 241.493 14.2109 243.978 14.2109H244.045C244.133 14.2109 244.218 14.2134 244.306 14.216C249.177 14.3413 253.369 17.1919 255.41 21.3037C256.255 23.006 256.731 24.929 256.731 26.9623Z" fill="white"/>
<path d="M217.99 32.6921V38.0298H196.141V11.1582H202.509V32.6921H217.99Z" fill="#242426"/>
<path d="M181.586 11.1582H172.633L162.23 38.0298H168.827L170.486 33.5194H183.729L185.391 38.0298H192.013L181.586 11.1582ZM172.279 28.6882L176.496 17.2029H177.712L181.937 28.6882H172.279Z" fill="#242426"/>
</svg>
