<svg width="257" height="50" viewBox="0 0 257 50" fill="none" xmlns="http://www.w3.org/2000/svg">
<path d="M21.6342 11.4336L15.073 30.0141H14.5991L8.03791 11.4336H0V37.9316H6.02467V21.9711H6.5612L12.3953 37.9341H17.2868L23.1209 21.9711H23.6574V37.9341H29.6821V11.4336H21.6342Z" fill="white"/>
<path d="M50.5265 11.4336H41.6938L31.4446 37.9316H37.9431L39.5853 33.4814H52.645L54.2797 37.9316H60.8133L50.5265 11.4336ZM41.3478 28.7204L45.5122 17.3981H46.7131L50.8725 28.7204H41.3478Z" fill="white"/>
<path d="M81.9437 24.3972C80.6199 23.7453 78.3559 23.1211 75.1593 22.5394C74.8886 22.4918 74.6905 22.4642 74.5626 22.4441L71.692 21.9352C69.0193 21.4337 67.683 20.3883 67.683 18.8138C67.683 17.7833 68.1519 16.976 69.087 16.3994C70.0222 15.8228 71.3861 15.5319 73.1712 15.5319C76.8742 15.5319 78.9576 16.8682 79.419 19.5409H85.0625C85.0024 13.5438 81.0812 10.5527 73.299 10.5527C69.596 10.5527 66.7328 11.2522 64.7045 12.6487C62.6763 14.0452 61.6584 16.0058 61.6584 18.5305C61.6584 19.6436 61.8539 20.634 62.2425 21.4939C62.6361 22.3564 63.1175 23.0534 63.6942 23.5774C64.2708 24.1064 65.043 24.5677 66.0007 24.9814C66.9585 25.3875 67.846 25.6934 68.6658 25.8965C69.4806 26.092 70.4835 26.2976 71.6568 26.5082L74.9412 27.0773C76.5558 27.3481 77.7367 27.7417 78.4763 28.2432C79.2084 28.7446 79.5744 29.4516 79.5744 30.3592C79.5744 31.4097 79.0253 32.2521 77.9197 32.8839C76.814 33.5157 75.2546 33.8266 73.2389 33.8266C71.1153 33.8065 69.5082 33.4405 68.4076 32.7209C67.3145 32.0089 66.7178 31.011 66.61 29.7299H60.9313C60.9112 32.7961 61.9341 35.0751 64.0101 36.5744C66.0785 38.0662 69.1522 38.8133 73.2363 38.8133C77.333 38.8133 80.4619 38.0937 82.6055 36.6697C84.7492 35.2381 85.8197 33.1973 85.8197 30.5497C85.8021 27.7292 84.506 25.6808 81.9437 24.3972Z" fill="white"/>
<path d="M107.396 11.4336V22.0639H94.2412V11.4336H87.9658V37.9316H94.2412V27.3013H107.396V37.9316H113.704V11.4336H107.396Z" fill="white"/>
<path d="M116.384 11.4336V37.9316H122.66V11.4336H116.384Z" fill="white"/>
<path d="M145.563 11.4336V29.2544H144.966L132.658 11.4336H125.373V37.9316H131.525V20.1108H132.094L144.55 37.9316H151.713V11.4336H145.563Z" fill="white"/>
<path d="M241.403 28.5664L237.908 32.7684C237.391 32.3472 236.902 31.8658 236.464 31.3368L233.072 27.2702C233.688 25.623 233.648 23.8003 232.944 22.1832C232.841 21.94 232.726 21.7019 232.59 21.4737C232.257 20.9021 231.856 20.3856 231.389 19.9519C230.133 18.7459 228.451 18.054 226.673 18.054C224.234 18.054 221.972 19.3552 220.754 21.4737C219.538 23.5822 219.538 26.1871 220.754 28.3032C221.972 30.4117 224.234 31.7154 226.673 31.7154C227.074 31.7154 227.468 31.6803 227.854 31.6051L231.251 35.6842C231.958 36.5266 232.741 37.2988 233.573 37.9757L225.502 47.6709C224.402 48.9871 222.775 49.7543 221.065 49.7543H162.751C159.555 49.7543 156.972 47.1694 156.972 43.9803V5.77396C156.972 2.58737 159.555 0 162.751 0H221.065C222.775 0 224.402 0.759665 225.502 2.07592L236.639 15.4616L237.208 16.146L237.279 16.2262L238.976 18.2646L239.041 18.3448L241.403 21.1804C243.18 23.324 243.18 26.4303 241.403 28.5664Z" fill="white"/>
<path d="M256.731 26.9623C256.731 31.1442 254.718 34.8573 251.607 37.1864C251.602 37.1914 251.599 37.194 251.594 37.194C249.636 38.6581 247.244 39.5682 244.645 39.7036C244.617 39.7061 244.587 39.7061 244.557 39.7061C244.364 39.7161 244.168 39.7212 243.975 39.7212V39.7136C241.932 39.6911 239.959 39.2172 238.311 38.5127C237.096 37.9987 235.937 37.2917 234.879 36.4117C234.14 35.815 233.448 35.1356 232.823 34.3834L226.628 26.9623C226.127 26.3706 225.901 25.5909 225.999 24.8237C226.094 24.059 226.508 23.367 227.13 22.9132C227.496 22.6475 227.932 22.3366 228.413 22.0057C228.962 21.617 229.572 21.1908 230.236 20.737C230.705 21.1357 231.106 21.612 231.417 22.1536C231.567 22.4193 231.695 22.6901 231.798 22.9684C231.269 23.3219 230.773 23.6679 230.316 23.9863C229.704 24.4125 229.163 24.7936 228.717 25.1195C228.709 25.1271 228.692 25.1321 228.692 25.1672L234.907 32.6435C235.428 33.2678 235.997 33.8369 236.609 34.3308C237.464 35.0353 238.394 35.6069 239.372 36.0181C239.956 36.2663 241.867 36.9934 244.176 36.9934C244.206 36.9959 244.238 36.9934 244.268 36.9934C246.455 36.9307 248.463 36.171 250.085 34.9275C252.472 33.0923 254.011 30.209 254.011 26.9648C254.011 25.3928 253.65 23.9036 253.001 22.5798C251.446 19.3857 248.242 17.1393 244.494 16.9487C244.429 16.9462 244.364 16.9412 244.296 16.9412C244.188 16.9362 244.083 16.9337 243.978 16.9337C242.157 16.9337 240.453 17.4176 238.981 18.2675L237.284 16.2292L237.216 16.149C239.176 14.918 241.493 14.2109 243.978 14.2109H244.045C244.133 14.2109 244.218 14.2134 244.306 14.216C249.177 14.3413 253.369 17.1919 255.41 21.3037C256.255 23.006 256.731 24.929 256.731 26.9623Z" fill="white"/>
<path d="M217.991 32.6921V38.0298H196.142V11.1582H202.51V32.6921H217.991Z" fill="#081A3E"/>
<path d="M181.585 11.1582H172.632L162.23 38.0298H168.826L170.486 33.5194H183.729L185.391 38.0298H192.012L181.585 11.1582ZM172.279 28.6882L176.496 17.2029H177.712L181.936 28.6882H172.279Z" fill="#081A3E"/>
</svg>
