<svg width="70" height="70" viewBox="0 0 70 70" fill="none" xmlns="http://www.w3.org/2000/svg">
<rect width="70" height="70" rx="16" fill="#F81734"/>
<path d="M18.3055 17.0703L16.2921 22.7719H16.1467L14.1333 17.0703H11.6668V25.2015H13.5155V20.3039H13.6802L15.4704 25.2023H16.9714L18.7617 20.3039H18.9263V25.2023H20.7751V17.0703H18.3055Z" fill="white"/>
<path d="M27.1715 17.0703H24.4611L21.316 25.2015H23.3101L23.814 23.8359H27.8216L28.3232 25.2015H30.3281L27.1715 17.0703ZM24.3549 22.375L25.6328 18.9006H26.0013L27.2776 22.375H24.3549Z" fill="white"/>
<path d="M36.8122 21.0491C36.4059 20.8491 35.7112 20.6575 34.7303 20.479C34.6472 20.4644 34.5864 20.4559 34.5472 20.4498L33.6663 20.2936C32.8462 20.1397 32.4361 19.8189 32.4361 19.3358C32.4361 19.0196 32.58 18.7718 32.867 18.5949C33.1539 18.4179 33.5725 18.3287 34.1202 18.3287C35.2565 18.3287 35.8959 18.7388 36.0374 19.5589H37.7692C37.7508 17.7186 36.5475 16.8008 34.1595 16.8008C33.0231 16.8008 32.1445 17.0154 31.5221 17.444C30.8997 17.8725 30.5874 18.4741 30.5874 19.2488C30.5874 19.5904 30.6474 19.8943 30.7667 20.1582C30.8874 20.4229 31.0352 20.6367 31.2121 20.7975C31.3891 20.9599 31.626 21.1014 31.9199 21.2284C32.2138 21.353 32.4861 21.4469 32.7377 21.5092C32.9878 21.5692 33.2955 21.6323 33.6555 21.6969L34.6634 21.8715C35.1588 21.9546 35.5212 22.0754 35.7482 22.2293C35.9728 22.3831 36.0851 22.6001 36.0851 22.8786C36.0851 23.201 35.9166 23.4595 35.5774 23.6533C35.2381 23.8472 34.7595 23.9426 34.141 23.9426C33.4894 23.9365 32.9962 23.8241 32.6585 23.6033C32.323 23.3848 32.1399 23.0786 32.1069 22.6855H30.3643C30.3581 23.6264 30.672 24.3257 31.309 24.7858C31.9437 25.2436 32.887 25.4728 34.1402 25.4728C35.3973 25.4728 36.3575 25.252 37.0153 24.815C37.6731 24.3758 38.0016 23.7495 38.0016 22.9371C37.9962 22.0716 37.5984 21.443 36.8122 21.0491Z" fill="white"/>
<path d="M44.6226 17.0703V20.3323H40.5859V17.0703H38.6602V25.2015H40.5859V21.9395H44.6226V25.2015H46.5583V17.0703H44.6226Z" fill="white"/>
<path d="M47.3807 17.0703V25.2015H49.3064V17.0703H47.3807Z" fill="white"/>
<path d="M56.3344 17.0703V22.5388H56.1513L52.3746 17.0703H50.1389V25.2015H52.0268V19.733H52.2015L56.0236 25.2015H58.2216V17.0703H56.3344Z" fill="white"/>
<path d="M51.0548 43.1982L49.4238 45.1591C49.1828 44.9625 48.9546 44.7379 48.7499 44.491L47.1669 42.5933C47.4547 41.8246 47.436 40.974 47.1072 40.2194C47.0592 40.1059 47.0054 39.9947 46.9422 39.8882C46.7866 39.6215 46.5994 39.3805 46.3818 39.1781C45.7956 38.6153 45.0106 38.2924 44.181 38.2924C43.0426 38.2924 41.9873 38.8996 41.4187 39.8882C40.8512 40.8722 40.8512 42.0878 41.4187 43.0753C41.9873 44.0593 43.0426 44.6677 44.181 44.6677C44.3682 44.6677 44.5519 44.6513 44.7321 44.6162L46.3175 46.5198C46.6474 46.9129 47.0124 47.2733 47.4009 47.5892L43.6347 52.1136C43.121 52.7278 42.3617 53.0859 41.5638 53.0859H14.3507C12.8589 53.0859 11.6538 51.8796 11.6538 50.3913V32.5617C11.6538 31.0746 12.8589 29.8672 14.3507 29.8672H41.5638C42.3617 29.8672 43.121 30.2217 43.6347 30.8359L48.8318 37.0826L49.0974 37.402L49.1301 37.4394L49.9222 38.3906L49.9527 38.4281L51.0548 39.7514C51.8843 40.7517 51.8843 42.2013 51.0548 43.1982Z" fill="white"/>
<path d="M58.2083 42.4506C58.2083 44.4022 57.2687 46.135 55.8168 47.2219C55.8144 47.2242 55.8133 47.2254 55.8109 47.2254C54.8972 47.9087 53.781 48.3334 52.5677 48.3966C52.5548 48.3977 52.5408 48.3977 52.5267 48.3977C52.4367 48.4024 52.3454 48.4048 52.2553 48.4048V48.4013C51.3018 48.3907 50.381 48.1696 49.6123 47.8408C49.0448 47.601 48.5043 47.271 48.0106 46.8604C47.6654 46.5819 47.3425 46.2648 47.0512 45.9138L44.1601 42.4506C43.9261 42.1745 43.8208 41.8106 43.8664 41.4526C43.9109 41.0958 44.1039 40.7728 44.3941 40.5611C44.5649 40.4371 44.7685 40.292 44.9931 40.1375C45.2494 39.9562 45.5337 39.7573 45.8437 39.5455C46.0625 39.7315 46.2497 39.9538 46.3948 40.2066C46.465 40.3306 46.5246 40.4569 46.5726 40.5868C46.3258 40.7518 46.0941 40.9132 45.8812 41.0618C45.5957 41.2607 45.343 41.4386 45.1347 41.5907C45.1312 41.5942 45.123 41.5965 45.123 41.6129L48.0234 45.1019C48.2668 45.3932 48.5324 45.6588 48.8178 45.8893C49.2168 46.218 49.6509 46.4848 50.1072 46.6767C50.3798 46.7925 51.2713 47.1318 52.3489 47.1318C52.3629 47.133 52.3782 47.1318 52.3922 47.1318C53.4124 47.1026 54.3496 46.748 55.1066 46.1677C56.2204 45.3113 56.9388 43.9658 56.9388 42.4518C56.9388 41.7182 56.7703 41.0232 56.4673 40.4055C55.7419 38.9149 54.2466 37.8666 52.4975 37.7776C52.4671 37.7765 52.4367 37.7741 52.4051 37.7741C52.3548 37.7718 52.3056 37.7706 52.2565 37.7706C51.4071 37.7706 50.6115 37.9964 49.9247 38.3931L49.1326 37.4419L49.101 37.4044C50.0159 36.8299 51.097 36.5 52.2565 36.5H52.2881C52.329 36.5 52.3688 36.5012 52.4097 36.5023C54.6831 36.5608 56.6393 37.8911 57.5917 39.8099C57.986 40.6044 58.2083 41.5018 58.2083 42.4506Z" fill="white"/>
<path d="M40.1295 45.1234V47.6143H29.9329V35.0742H32.9047V45.1234H40.1295Z" fill="#F81734"/>
<path d="M23.1399 35.0742H18.9618L14.1075 47.6143H17.1857L17.9603 45.5095H24.1402L24.9159 47.6143H28.0059L23.1399 35.0742ZM18.7968 43.2549L20.7648 37.8951H21.3322L23.3037 43.2549H18.7968Z" fill="#F81734"/>
</svg>
