<svg width="148" height="28" viewBox="0 0 148 28" fill="none" xmlns="http://www.w3.org/2000/svg">
<path fill-rule="evenodd" clip-rule="evenodd" d="M136.946 18.3043L138.849 16.0157C139.817 14.8523 139.817 13.1604 138.849 11.9929L137.563 10.4485L137.528 10.4048L136.603 9.29467L136.565 9.25097L136.255 8.87819L130.189 1.58775C129.59 0.870856 128.704 0.457108 127.772 0.457108H96.7251C94.9841 0.457108 93.5776 1.86631 93.5776 3.60187V24.4108C93.5776 26.1478 94.9841 27.5556 96.7251 27.5556H127.772C128.704 27.5556 129.59 27.1378 130.189 26.4209L134.585 21.1404C134.132 20.7718 133.705 20.3512 133.32 19.8924L131.47 17.6707C131.26 17.7117 131.045 17.7308 130.827 17.7308C129.498 17.7308 128.267 17.0207 127.603 15.8723C126.941 14.7198 126.941 13.3011 127.603 12.1527C128.267 10.9988 129.498 10.2901 130.827 10.2901C131.795 10.2901 132.711 10.667 133.396 11.3238C133.649 11.56 133.868 11.8413 134.05 12.1527C134.123 12.2769 134.186 12.4067 134.242 12.5391C134.626 13.4199 134.648 14.4126 134.312 15.3097L136.159 17.5246C136.398 17.8127 136.665 18.0749 136.946 18.3043ZM109.641 18.6103L110.782 21.8507H114.73L108.432 5.87685H104.689L98.3912 21.8507H102.362L103.503 18.6103H109.641ZM108.546 15.4612H104.598L106.561 9.80186L108.546 15.4612ZM119.455 18.519V5.87685H115.917V21.8507H125.821V18.519H119.455Z" fill="#F81734"/>
<path d="M147.41 15.1426C147.41 17.4203 146.314 19.4426 144.619 20.7112C144.617 20.7139 144.615 20.7153 144.613 20.7153C143.546 21.5127 142.243 22.0084 140.827 22.0821C140.812 22.0835 140.796 22.0835 140.78 22.0835C140.674 22.089 140.568 22.0917 140.463 22.0917V22.0876C139.35 22.0753 138.275 21.8172 137.378 21.4335C136.716 21.1536 136.085 20.7685 135.509 20.2892C135.106 19.9642 134.729 19.5942 134.389 19.1845L131.015 15.1426C130.742 14.8204 130.619 14.3957 130.672 13.9778C130.724 13.5614 130.949 13.1845 131.288 12.9373C131.487 12.7926 131.725 12.6233 131.987 12.443C132.286 12.2314 132.618 11.9992 132.98 11.7521C133.235 11.9692 133.454 12.2286 133.623 12.5236C133.705 12.6683 133.775 12.8158 133.83 12.9674C133.542 13.1599 133.272 13.3483 133.023 13.5218C132.69 13.7539 132.395 13.9615 132.152 14.139C132.148 14.1431 132.139 14.1458 132.139 14.1649L135.524 18.2369C135.808 18.5769 136.118 18.8868 136.451 19.1558C136.917 19.5396 137.423 19.8509 137.956 20.0748C138.274 20.21 139.314 20.606 140.572 20.606C140.588 20.6074 140.606 20.606 140.623 20.606C141.813 20.5719 142.907 20.1581 143.79 19.4808C145.09 18.4813 145.929 16.911 145.929 15.144C145.929 14.2878 145.732 13.4767 145.379 12.7557C144.532 11.0161 142.787 9.79256 140.745 9.68878C140.71 9.68742 140.674 9.68469 140.638 9.68469C140.579 9.68195 140.521 9.68059 140.464 9.68059C139.473 9.68059 138.544 9.94413 137.743 10.407L136.818 9.29688L136.781 9.25319C137.849 8.58272 139.111 8.19765 140.464 8.19765H140.501C140.549 8.19765 140.595 8.19901 140.643 8.20038C143.296 8.26865 145.579 9.82124 146.691 12.0607C147.151 12.9878 147.41 14.0352 147.41 15.1426Z" fill="#F81734"/>
<path d="M17.0499 5.87684L21.1115 21.8507H17.4378L15.2702 12.6543H15.2245L12.2583 19.5687H9.72551L6.78205 12.6543H6.73642L4.56875 21.8507H0.872314L4.95665 5.87684H7.6263L10.9805 14.1376H11.0261L14.3803 5.87684H17.0499Z" fill="#081A3E"/>
<path d="M33.8292 21.8507L32.6883 18.6103H26.5504L25.4095 21.8507H21.4393L27.7369 5.87684H31.479L37.7766 21.8507H33.8292ZM27.6456 15.4612H31.5931L29.6079 9.80185L27.6456 15.4612Z" fill="#081A3E"/>
<path d="M40.3737 6.67554C41.2408 5.91488 42.5033 5.53455 44.1614 5.53455C45.8195 5.53455 47.546 5.92248 49.341 6.69835L47.8579 9.82467C46.428 9.15529 45.2262 8.82059 44.2527 8.82059C43.2791 8.82059 42.7924 9.13247 42.7924 9.75621C42.7924 9.99962 42.876 10.2202 43.0434 10.418C43.2259 10.6005 43.5453 10.8287 44.0017 11.1026L46.6485 12.7684C47.6677 13.3922 48.4283 14.0615 48.9303 14.7766C49.4323 15.4916 49.6833 16.3815 49.6833 17.4465C49.6833 18.983 49.1813 20.162 48.1773 20.9835C47.1733 21.7898 45.7358 22.193 43.8648 22.193C41.7199 22.193 39.7348 21.6605 37.9094 20.5956L39.5066 17.4237C41.1039 18.3973 42.6022 18.8841 44.0017 18.8841C45.3099 18.8841 45.964 18.4582 45.964 17.6062C45.964 17.2715 45.8423 16.9825 45.5989 16.7391C45.3555 16.4957 44.9752 16.2142 44.458 15.8947L42.0166 14.3658C40.0543 13.1944 39.0731 11.6731 39.0731 9.80185C39.0731 8.4783 39.5066 7.4362 40.3737 6.67554Z" fill="#081A3E"/>
<path d="M61.7525 5.87684H65.2892V21.8507H61.7525V15.1417H55.1126V21.8507H51.5759V5.87684H55.1126V11.81H61.7525V5.87684Z" fill="#081A3E"/>
<path d="M71.6018 5.87684V21.8507H68.0651V5.87684H71.6018Z" fill="#081A3E"/>
<path d="M88.5859 5.87684V21.8507H85.574L77.9529 12.0154H77.9301V21.8507H74.3934V5.87684H77.3825L85.0263 15.7578H85.0492V5.87684H88.5859Z" fill="#081A3E"/>
</svg>
