<svg width="307" height="250" fill="none" xmlns="http://www.w3.org/2000/svg"><path d="M143.648 203.902H4.623a4.118 4.118 0 0 1-4.111-4.112V4.36A4.118 4.118 0 0 1 4.623.287h139.025a4.11 4.11 0 0 1 4.104 4.11V199.79a4.11 4.11 0 0 1-4.104 4.112ZM4.623.43A3.938 3.938 0 0 0 .692 4.36v195.43a3.94 3.94 0 0 0 3.931 3.932h139.025a3.933 3.933 0 0 0 3.924-3.932V4.36a3.93 3.93 0 0 0-3.924-3.93H4.623ZM299.384 203.902H160.352a4.114 4.114 0 0 1-4.104-4.112V4.36a4.11 4.11 0 0 1 4.104-4.074h139.032a4.113 4.113 0 0 1 4.104 4.075V199.79a4.11 4.11 0 0 1-4.104 4.112ZM160.352.43a3.929 3.929 0 0 0-3.924 3.93v195.43a3.93 3.93 0 0 0 3.924 3.932h139.032a3.95 3.95 0 0 0 3.938-3.932V4.36a3.946 3.946 0 0 0-3.938-3.93H160.352Z" fill="#E6E6E6"/><path d="M40.4 240.391H10.729v.18H40.4v-.18ZM100.88 238.951H71.122v.18h29.758v-.18ZM139.602 238.951h-7.2v.18h7.2v-.18ZM67.638 245.1h-33.3v.18h33.3v-.18ZM182.816 240.297h-15.552v.18h15.552v-.18ZM209.333 240.297h-20.109v.18h20.109v-.18ZM306.318 243.343h-44.957v.18h44.957v-.18Z" fill="#E0E0E0"/><path d="M268.957 40.246h-34.28V64.2h34.28V40.246Z" fill="#E6E6E6"/><path d="M250.136 40.246h-15.459V64.2h15.459V40.246Z" fill="#F0F0F0"/><path opacity=".4" d="M242.396 43.493a5.103 5.103 0 0 1 5.007 6.1 5.104 5.104 0 1 1-5.007-6.1Z" fill="#E0E0E0"/><path d="M244.88 58.555A2.49 2.49 0 0 1 241.903 61a2.496 2.496 0 0 1-1.958-1.958 2.497 2.497 0 0 1 1.06-2.557 2.489 2.489 0 0 1 2.338-.232 2.474 2.474 0 0 1 1.349 1.349c.125.302.189.627.188.954Z" fill="#E0E0E0"/><path d="M242.36 50.398a1.454 1.454 0 1 0 0-2.909 1.454 1.454 0 0 0 0 2.909Z" fill="#FAFAFA"/><path d="M195.776 31.663h-14.825v32.544h14.825V31.663Z" fill="#F0F0F0"/><path d="M215.036 31.663h-19.67v32.544h19.67V31.663Z" fill="#E6E6E6"/><path d="M188.31 41.995a2.057 2.057 0 0 1 1.908 1.268 2.059 2.059 0 1 1-1.908-1.268ZM188.31 38.791a1.033 1.033 0 0 1 .951.636 1.027 1.027 0 0 1-.223 1.122 1.032 1.032 0 0 1-1.758-.728 1.03 1.03 0 0 1 1.03-1.03ZM188.31 35.68a1.032 1.032 0 0 1 .951.636 1.026 1.026 0 0 1-.223 1.122 1.03 1.03 0 1 1-.728-1.757Z" fill="#fff"/><path d="M214.69 49.915h-33.408v.511h33.408v-.511ZM214.69 52.803h-33.408v.51h33.408v-.51ZM214.69 55.69h-33.408v.51h33.408v-.51ZM214.69 58.577h-33.408v.51h33.408v-.51ZM214.69 61.464h-33.408v.511h33.408v-.511ZM188.662 50.794h-1.411v1.41h1.411v-1.41ZM188.662 53.832h-1.411v1.411h1.411v-1.411ZM188.662 56.568h-1.411v1.411h1.411v-1.411ZM188.662 59.52h-1.411v1.411h1.411V59.52ZM188.662 62.386h-1.411v1.411h1.411v-1.411ZM152.626 96.24h-.72V68.671a5.623 5.623 0 0 1 5.616-5.616h23.76v.72h-23.76a4.904 4.904 0 0 0-4.896 4.896V96.24Z" fill="#E0E0E0"/><path d="M151.186 96.29h-.72V68.47a6.818 6.818 0 0 1 6.811-6.812h24.005v.72h-24.005a6.1 6.1 0 0 0-6.091 6.091V96.29Z" fill="#E0E0E0"/><path d="M72.346 27.12H49.803v23.998h22.543V27.12Z" fill="#E6E6E6"/><path d="M78.12 27.12h-5.774v23.998h5.775V27.12Z" fill="#F5F5F5"/><path d="M60.826 23.42H43.892v27.698h16.934V23.419Z" fill="#E6E6E6"/><path d="M65.715 23.42H60.82v27.698h4.896V23.419Z" fill="#F5F5F5"/><path d="M55.837 27.12H41.559v23.998h14.278V27.12Z" fill="#EBEBEB"/><path d="M59.098 27.12h-3.261v23.998h3.261V27.12Z" fill="#F5F5F5"/><path d="M44.151 31.18H25.424v19.938H44.15V31.18Z" fill="#E6E6E6"/><path d="M48.946 31.18h-4.795v19.938h4.795V31.18Z" fill="#F5F5F5"/><path d="M34.583 28.106h-14.07v23.012h14.07V28.106Z" fill="#E6E6E6"/><path d="M38.643 28.106h-4.068v23.012h4.068V28.106Z" fill="#F5F5F5"/><path d="M30.435 31.18H16.77v19.938h13.665V31.18Z" fill="#E6E6E6"/><path d="M33.15 31.18h-2.708v19.938h2.708V31.18Z" fill="#F0F0F0"/><path d="M.8 58.051h146.88v-6.948H.8v6.948Z" fill="#E6E6E6"/><path d="M27.16 58.217h8.12l-5.918 8.935H27.16v-8.935ZM27.16 58.217h-1.174v8.935h1.173v-8.935ZM118.383 58.217h8.129l-5.919 8.935h-2.21v-8.935Z" fill="#E0E0E0"/><path d="M118.39 58.217h-1.173v8.935h1.173v-8.935Z" fill="#E0E0E0"/><path d="M303.366 64.207h-146.88v6.949h146.88v-6.949Z" fill="#E6E6E6"/><path d="M277.014 80.249h-2.211l-5.918-8.935h8.129v8.935ZM278.187 71.314h-1.173v8.935h1.173v-8.935ZM185.782 80.249h-2.21l-5.918-8.935h8.128v8.935Z" fill="#E0E0E0"/><path d="M186.956 71.314h-1.174v8.935h1.174v-8.935Z" fill="#E0E0E0"/><path d="M114.164 37.121a10.375 10.375 0 0 0-.454-3.046l2.671-2.347-1.677-2.916-3.37 1.145a10.511 10.511 0 0 0-5.277-3.053l-.72-3.485h-3.363l-.72 3.485a10.49 10.49 0 0 0-5.27 3.053l-3.377-1.145-1.678 2.916 2.672 2.347a10.453 10.453 0 0 0 0 6.092l-2.672 2.347 1.678 2.916 3.377-1.145a10.49 10.49 0 0 0 5.27 3.053l.72 3.485h3.363l.72-3.485a10.51 10.51 0 0 0 5.277-3.053l3.37 1.145 1.677-2.916-2.671-2.347c.302-.987.455-2.014.454-3.046Zm-10.483 5.66a5.45 5.45 0 1 1 0-10.9 5.45 5.45 0 0 1 0 10.9ZM132.351 38.885a6.645 6.645 0 0 0-1.296-1.555l.72-2.24-1.944-1.058-1.505 1.8a6.848 6.848 0 0 0-4.003.101l-1.591-1.714-1.894 1.152.807 2.196a6.96 6.96 0 0 0-1.915 3.528l-2.283.519.058 2.21 2.311.403a6.934 6.934 0 0 0 2.088 3.42l-.72 2.24 1.944 1.058 1.505-1.8a6.99 6.99 0 0 0 4.01-.1l1.591 1.713 1.887-1.152-.807-2.203a6.945 6.945 0 0 0 1.916-3.521l2.282-.519-.058-2.217-2.304-.396a6.612 6.612 0 0 0-.799-1.865Zm-3.938 6.782a3.599 3.599 0 0 1-5.387-3.908 3.603 3.603 0 0 1 6.575-1.031 3.6 3.6 0 0 1-1.188 4.94Z" fill="#F0F0F0"/><path d="M299.01 154.646H5.523v3.694H299.01v-3.694Z" fill="#407BFF"/><path d="M23.005 157.296v88.085h2.29l2.88-88.085h-5.17ZM50.034 160.176v81.605h2.29l2.88-81.605h-5.17Z" fill="#407BFF"/><path opacity=".5" d="M50.034 160.176v81.605h2.29l2.88-81.605h-5.17Z" fill="#000"/><path d="M282.572 157.296v88.085h-2.282l-2.888-88.085h5.17ZM255.543 160.176v81.605h-2.289l-2.88-81.605h5.169Z" fill="#407BFF"/><path opacity=".5" d="M255.543 160.176v81.605h-2.289l-2.88-81.605h5.169Z" fill="#000"/><path d="M287.792 162.293H17.605l-5.976-3.953h282.139l-5.976 3.953Z" fill="#407BFF"/><path opacity=".5" d="M287.792 162.293H17.605l-5.976-3.953h282.139l-5.976 3.953Z" fill="#000"/><path d="M24.812 143.32v2.88c0 .478.189.936.526 1.275l2.282 2.282c.202.201.449.352.72.439a5.861 5.861 0 0 0 5.314 3.392h.856a5.848 5.848 0 0 0 5.451-3.63 5.856 5.856 0 0 0 .439-2.26v-6.718H27.814v.548h-1.202a1.8 1.8 0 0 0-1.8 1.792Zm1.44 0a.353.353 0 0 1 .36-.352h1.202v4.924l-1.44-1.44a.338.338 0 0 1-.108-.252l-.014-2.88Z" fill="#407BFF"/><path opacity=".5" d="M24.812 143.32v2.88c0 .478.189.936.526 1.275l2.282 2.282c.202.201.449.352.72.439a5.861 5.861 0 0 0 5.314 3.392h.856a5.848 5.848 0 0 0 5.451-3.63 5.856 5.856 0 0 0 .439-2.26v-6.718H27.814v.548h-1.202a1.8 1.8 0 0 0-1.8 1.792Zm1.44 0a.353.353 0 0 1 .36-.352h1.202v4.924l-1.44-1.44a.338.338 0 0 1-.108-.252l-.014-2.88Z" fill="#fff"/><path d="M43.38 154.56h-18.1a3.336 3.336 0 0 1-2.16-1.066h22.392a3.316 3.316 0 0 1-2.131 1.066Z" fill="#407BFF"/><path opacity=".5" d="M43.38 154.56h-18.1a3.336 3.336 0 0 1-2.16-1.066h22.392a3.316 3.316 0 0 1-2.131 1.066Z" fill="#fff"/><path d="M286.899 145.747c-.093-2.88-2.268-3.557-5.104-3.881v-1.044a.461.461 0 0 0-.468-.446h-9.807a.464.464 0 0 0-.435.271.48.48 0 0 0-.04.175v13.615h10.757v-1.49c2.837-.317 5.011-4.334 5.097-7.2Zm-5.104 5.443v-7.56c2.088.303 3.528.591 3.218 2.679-.245 1.67-1.555 4.651-3.218 4.881Z" fill="#407BFF"/><path opacity=".5" d="M286.899 145.747c-.093-2.88-2.268-3.557-5.104-3.881v-1.044a.461.461 0 0 0-.468-.446h-9.807a.464.464 0 0 0-.435.271.48.48 0 0 0-.04.175v13.615h10.757v-1.49c2.837-.317 5.011-4.334 5.097-7.2Zm-5.104 5.443v-7.56c2.088.303 3.528.591 3.218 2.679-.245 1.67-1.555 4.651-3.218 4.881Z" fill="#fff"/><path d="M156.241 137.085h-8.489v17.244h8.489v-17.244Z" fill="#407BFF"/><path opacity=".5" d="M156.241 137.085h-8.489v17.244h8.489v-17.244Z" fill="#fff"/><path d="M160.078 154.639h-16.084l3.924-3.449h8.236l3.924 3.449Z" fill="#407BFF"/><path opacity=".5" d="M160.078 154.639h-16.084l3.924-3.449h8.236l3.924 3.449Z" fill="#fff"/><path d="M195.437 149.059h-40.204l7.264 5.602h40.198l-7.258-5.602Z" fill="#407BFF"/><path opacity=".4" d="M195.437 149.059h-40.204l7.264 5.602h40.198l-7.258-5.602Z" fill="#fff"/><path d="m156.161 154.661-.928-5.602 7.264 5.602h-6.336Z" fill="#407BFF"/><path opacity=".5" d="m156.161 154.661-.928-5.602 7.264 5.602h-6.336Z" fill="#000"/><path d="M188.382 96.269h-73.174a1.39 1.39 0 0 0-1.39 1.39v44.87a1.39 1.39 0 0 0 1.39 1.389h73.174a1.39 1.39 0 0 0 1.389-1.389v-44.87a1.39 1.39 0 0 0-1.389-1.39Z" fill="#407BFF"/><path opacity=".5" d="M186.934 99.25h-70.358v41.522h70.358V99.25Z" fill="#000"/><path opacity=".4" d="M184.695 107.789h-35.503v24.444h35.503v-24.444Z" fill="#000"/><path d="M184.695 107.789h-35.503v2.239h35.503v-2.239Z" fill="#407BFF"/><path d="m155.701 121.31 5.803 3.211c.221.107.42.256.583.44a.819.819 0 0 1 .144.489.9.9 0 0 1-.273.655.874.874 0 0 1-.627.274 1.61 1.61 0 0 1-.72-.266l-7.488-4.162a.725.725 0 0 1-.291-1.023.724.724 0 0 1 .291-.266l7.488-4.161c.217-.14.464-.226.72-.252a.852.852 0 0 1 .634.266.891.891 0 0 1 .273.648.801.801 0 0 1-.144.49 1.863 1.863 0 0 1-.583.439l-5.81 3.218ZM170.634 115.312l-5.76 12.377c-.093.225-.227.43-.396.605a.848.848 0 0 1-.548.18.861.861 0 0 1-.633-.259.806.806 0 0 1-.274-.598c.021-.252.095-.498.216-.72l5.76-12.369c.09-.221.22-.424.382-.598a.889.889 0 0 1 .554-.187.848.848 0 0 1 .627.259.821.821 0 0 1 .259.59 1.784 1.784 0 0 1-.187.72ZM177.855 121.31l-5.803-3.218a2.09 2.09 0 0 1-.583-.439.803.803 0 0 1-.144-.49.884.884 0 0 1 .273-.648.876.876 0 0 1 .641-.266c.256.027.503.113.72.252l7.488 4.161a.718.718 0 0 1 .399.645.718.718 0 0 1-.399.644l-7.488 4.162a1.652 1.652 0 0 1-.72.266.862.862 0 0 1-.648-.281.915.915 0 0 1-.266-.648.812.812 0 0 1 .144-.489c.167-.18.364-.329.583-.44l5.803-3.211ZM121.868 103.08h-2.405v2.404h2.405v-2.404ZM121.868 109.308h-2.405v2.404h2.405v-2.404ZM121.868 115.528h-2.405v2.405h2.405v-2.405ZM121.868 121.75h-2.405v2.404h2.405v-2.404ZM121.868 127.97h-2.405v2.405h2.405v-2.405ZM121.868 134.191h-2.405v2.405h2.405v-2.405ZM133.734 103.627h-9.584v.72h9.584v-.72ZM129.795 109.862h-3.413v.72h3.413v-.72ZM144.649 116.86h-3.413v.72h3.413v-.72ZM129.795 122.412h-3.413v.72h3.413v-.72ZM134.713 122.412H131.3v.72h3.413v-.72ZM140.019 116.86H131.3v.72h8.719v-.72ZM142.121 122.412h-5.738v.72h5.738v-.72ZM139.774 135.753h-3.412v.72h3.412v-.72ZM144.699 135.753h-3.413v.72h3.413v-.72ZM148.27 135.753h-1.908v.72h1.908v-.72ZM142.121 109.862h-10.62v.72h10.62v-.72ZM134.713 128.914H131.3v.72h3.413v-.72ZM137.83 128.914h-1.973v.72h1.973v-.72ZM144.908 128.914h-5.573v.72h5.573v-.72Z" fill="#fff"/><path d="M145.837 76.44c-.18 8.712-9.231 16.02-20.225 16.308a23.307 23.307 0 0 1-9.85-1.822c-1.109 2.736-3.441 5.083-10.13 6.135 6.977-5.393 3.161-9.958 1.569-13.968a12.675 12.675 0 0 1-1.202-5.602c.18-8.72 9.23-16.013 20.225-16.308 10.994-.295 19.785 6.545 19.613 15.257Z" fill="#407BFF"/><path d="M126.152 67.317h-9.583v.72h9.583v-.72ZM122.213 73.56h-3.412v.72h3.412v-.72ZM137.067 80.558h-3.413v.72h3.413v-.72ZM122.213 86.11h-3.412v.72h3.412v-.72ZM127.138 86.11h-3.412v.72h3.412v-.72ZM132.445 80.558h-8.719v.72h8.719v-.72ZM134.54 86.11h-5.738v.72h5.738v-.72ZM134.547 73.56h-10.62v.72h10.62v-.72Z" fill="#fff"/><path d="m187.402 241.5-5.248-1.57 1.224-12.866 5.248 1.57-1.224 12.866Z" fill="#7F3E3B"/><path opacity=".2" d="m189.058 225.725-5.249-1.562-.684 7.207 5.307.986.626-6.631Z" fill="#000"/><path d="M218.47 162.034s-36.093 3.045-35.208 18.72c.72 12.83 2.628 9.36-1.108 47.52l9.079.504s9.237-31.205 7.992-43.604c10.173 0 33.465.893 36.849-8.287a40.85 40.85 0 0 0 2.412-14.544l-20.016-.309Z" fill="#407BFF"/><path d="m192.673 230.506-11.866-2.031.195-5.248 12.283 2.728-.612 4.551ZM181.614 237.771l6.062 1.202a.452.452 0 0 1 .346.504l-.504 5.76a1.021 1.021 0 0 1-1.109.95c-2.103-.46-3.096-.799-5.76-1.332-1.642-.324-5.393-1.108-7.675-1.368-2.283-.259-2.009-2.923-1.023-3.059 4.435-.584 6.955-1.304 8.676-2.412.284-.208.639-.296.987-.245Z" fill="#263238"/><path d="M178.892 238.8c.477.065.96.08 1.44.044a.119.119 0 0 0 .068-.021.116.116 0 0 0 .04-.059.145.145 0 0 0 .016-.068.145.145 0 0 0-.016-.068c-.151-.152-1.512-1.44-2.211-1.296a.447.447 0 0 0-.352.302.712.712 0 0 0 .043.72c.255.268.603.428.972.446Zm1.159-.194c-1.001 0-1.706-.115-1.915-.41a.44.44 0 0 1 0-.461.22.22 0 0 1 .062-.102.238.238 0 0 1 .103-.057c.339-.072 1.188.504 1.779 1.037l-.029-.007Z" fill="#407BFF"/><path d="M180.339 238.85h.058a.15.15 0 0 0 .054-.036.147.147 0 0 0 .032-.057c0-.065.396-1.599-.065-2.211a.604.604 0 0 0-.504-.266.48.48 0 0 0-.518.302c-.223.569.396 1.829.878 2.24a.09.09 0 0 0 .029.022.074.074 0 0 0 .036.006Zm-.374-2.311c.1.021.189.077.252.158.207.569.23 1.189.064 1.772a2.558 2.558 0 0 1-.648-1.793c0-.072.08-.151.267-.144l.065.007Z" fill="#407BFF"/><path d="m164.002 243.501-4.996-2.246 3.456-12.326 4.996 2.246-3.456 12.326Z" fill="#7F3E3B"/><path opacity=".2" d="m168.301 228-4.997-2.247-1.778 6.358 4.996 2.246 1.779-6.357Z" fill="#000"/><path d="M207.728 162.034c-.238 0-40.464 4.14-40.514 17.784-.087 22.564-6.531 48.427-6.531 48.427l7.92 3.938s13.846-28.036 13.637-45.626c11.066-3.175 39.693 2.16 43.077-7.013 2.773-7.502 1.275-17.51 1.275-17.51h-18.864Z" fill="#407BFF"/><path d="m169.899 233.328-10.656-4.795.857-4.364 11.239 3.881-1.44 5.278ZM159.502 237.115l6.077 1.26a.506.506 0 0 1 .339.562l-.476 6.3c-.086.684-.576 1.152-1.101 1.044-2.103-.482-3.096-.857-5.76-1.44-1.642-.331-6.113-1.44-8.367-2.009-2.253-.569-1.749-3.456-.72-3.477 4.457-.065 7.344-.792 9.058-2.038a1.203 1.203 0 0 1 .95-.202Z" fill="#263238"/><path d="M157.04 238.476a7.137 7.137 0 0 0 1.188-.821.142.142 0 0 0 .043-.137.123.123 0 0 0-.108-.086c-.209 0-2.066-.273-2.549.266a.485.485 0 0 0-.1.454.713.713 0 0 0 .46.554c.372.06.752-.023 1.066-.23Zm.814-.842c-.785.612-1.44.907-1.779.806a.483.483 0 0 1-.281-.382.22.22 0 0 1 .051-.215c.216-.26 1.195-.281 1.973-.209h.036Z" fill="#407BFF"/><path d="m158.192 237.655.05-.036a.103.103 0 0 0 .019-.061.103.103 0 0 0-.019-.061c-.036-.051-.633-1.527-1.36-1.75a.638.638 0 0 0-.562.087.486.486 0 0 0-.238.554c.152.598 1.397 1.238 2.038 1.282l.072-.015Zm-1.678-1.641a.38.38 0 0 1 .303 0c.507.334.895.821 1.109 1.389a2.564 2.564 0 0 1-1.592-1.058c-.043-.058 0-.173.13-.274l.05-.057Z" fill="#407BFF"/><path d="M221.394 118.502c1.058 2.276 1.929 4.464 2.8 6.74.872 2.275 1.642 4.55 2.355 6.883a75.182 75.182 0 0 1 1.829 7.2 37.55 37.55 0 0 1 .806 7.826 16.075 16.075 0 0 1-.684 4.558 10.433 10.433 0 0 1-1.202 2.563 9.03 9.03 0 0 1-1.03 1.253l-.31.302c-.172.144-.36.303-.54.425a5.996 5.996 0 0 1-.964.533 8.568 8.568 0 0 1-1.556.497c-.42.087-.846.149-1.274.187-.731.043-1.465.043-2.196 0a31.902 31.902 0 0 1-3.874-.432 73.629 73.629 0 0 1-13.975-4.003l1.044-3.968c4.572.548 9.238 1.131 13.637 1.332 1.094 0 2.16.051 3.154 0 .442-.026.882-.082 1.317-.165.36-.065.67-.195.562-.187a.658.658 0 0 0-.202.1c-.073.043-.14.093-.201.152.024-.04.045-.081.064-.123.093-.206.165-.421.216-.641.159-.791.224-1.598.195-2.404a32.373 32.373 0 0 0-.915-6.113c-.489-2.16-1.123-4.263-1.814-6.401a123.23 123.23 0 0 0-2.261-6.408 212.174 212.174 0 0 0-2.534-6.278l7.553-3.428Z" fill="#7F3E3B"/><path d="m204.61 150.147-4.773-2.686-2.398 5.17s5.58 2.325 6.754.871l.417-3.355ZM195.97 148.44l-2.181 3.456 3.65.698 2.398-5.169-3.867 1.015Z" fill="#7F3E3B"/><path d="M210.262 122.606a155.195 155.195 0 0 1-2.88 6.718 262.912 262.912 0 0 1-3.081 6.602 127.079 127.079 0 0 1-7.2 12.96c-.72 1.066-1.44 2.124-2.247 3.183a28.16 28.16 0 0 1-1.324 1.598c-.26.274-.468.526-.771.807l-.432.417-.245.231a6.121 6.121 0 0 1-2.361 1.252c-.459.131-.925.229-1.397.296-.769.092-1.544.123-2.318.093a29.482 29.482 0 0 1-3.989-.396 73.302 73.302 0 0 1-14.271-4.046l1.052-3.975c4.658.562 9.417 1.16 13.896 1.347a31.29 31.29 0 0 0 3.168-.043 8.412 8.412 0 0 0 1.26-.202c.134-.034.264-.082.388-.144.044 0 0-.05-.194.072a.742.742 0 0 0-.194.144l.072-.086.201-.224c.13-.129.288-.345.439-.518.296-.374.598-.778.9-1.217.598-.857 1.181-1.807 1.757-2.772 1.152-1.929 2.225-3.981 3.276-6.055a214.636 214.636 0 0 0 3.053-6.322c1.98-4.248 3.917-8.64 5.76-12.888l7.682 3.168Z" fill="#7F3E3B"/><path d="m170.842 149.383-4.78-2.743-2.398 5.17s5.58 2.333 6.761.878l.417-3.305Z" fill="#7F3E3B"/><path d="m162.202 147.684-2.188 3.449 3.65.698 2.398-5.169-3.86 1.022ZM222.625 97.06l-3.053 3.536-4.658 4.817.352.871c.36.89.569 1.834.62 2.793.108 1.93-.08 3.564-3.125 4.875 0 0-3.197 4.176 4.406 3.017 7.603-1.16 8.748-5.105 8.748-5.105-3.355-2.398-3.557-10.368-3.29-14.803Z" fill="#7F3E3B"/><path d="M207.123 93.072c0 .475-.237.878-.554.893-.317.014-.569-.36-.576-.836-.007-.475.245-.878.554-.892.31-.015.569.36.576.835ZM208.714 91.3a.277.277 0 0 1-.23-.129 2.351 2.351 0 0 0-1.742-1.109.29.29 0 0 1-.274-.287.279.279 0 0 1 .179-.257.272.272 0 0 1 .109-.017 2.874 2.874 0 0 1 2.203 1.368.286.286 0 0 1-.086.389.335.335 0 0 1-.159.043Z" fill="#263238"/><path d="M206.95 93.36a15.397 15.397 0 0 1-1.656 3.686 2.308 2.308 0 0 0 1.959.144l-.303-3.83Z" fill="#630F0F"/><path d="M223.057 90.674c-.281 5.876-.151 9.36-3.067 12.471a7.662 7.662 0 0 1-11.14.209 7.653 7.653 0 0 1-1.979-3.6c-1.325-5.206-.633-13.94 5.04-16.56a7.734 7.734 0 0 1 11.146 7.48Z" fill="#7F3E3B"/><path d="M225.721 92.64a21.769 21.769 0 0 1-3.816 6.84l-7.647 1.44s-6.04-2.527-4.428-6.689c-1.022-.864-.64-3.535.08-5.004a3.116 3.116 0 0 0 4.082-.108 2.801 2.801 0 0 0 2.123 1.28 2.79 2.79 0 0 0 2.305-.913 2.952 2.952 0 0 0 4.651-.72 2.641 2.641 0 0 0 3.082-.201l.108-.101a10.518 10.518 0 0 1-.54 4.176Z" fill="#263238"/><path opacity=".1" d="M225.721 92.64a21.769 21.769 0 0 1-3.816 6.84l-7.647 1.44s-6.04-2.527-4.428-6.689c-1.022-.864-.64-3.535.08-5.004a3.116 3.116 0 0 0 4.082-.108 2.801 2.801 0 0 0 2.123 1.28 2.79 2.79 0 0 0 2.305-.913 2.952 2.952 0 0 0 4.651-.72 2.641 2.641 0 0 0 3.082-.201l.108-.101a10.518 10.518 0 0 1-.54 4.176Z" fill="#fff"/><path d="M226.822 85.512a2.652 2.652 0 0 1-.561 2.916l-.108.1a2.646 2.646 0 0 1-3.082.202 2.95 2.95 0 0 1-4.651.72 2.792 2.792 0 0 1-4.428-.367 3.117 3.117 0 0 1-4.083.108 2.497 2.497 0 0 1-.82-1.13 1.68 1.68 0 0 1-.202.194 2.222 2.222 0 0 1-2.563.151 2.154 2.154 0 0 1-.922-1.936c.009-.156.035-.311.08-.461-.058.108-.13.208-.216.295a1.805 1.805 0 0 1-1.987.347 1.806 1.806 0 0 1-.577-.412 2.23 2.23 0 0 1-.312-1.724 2.227 2.227 0 0 1 1.032-1.415c.411-.24.879-.364 1.354-.36a3.47 3.47 0 0 1 2.066.72 2.163 2.163 0 0 1 .639-2.704 2.16 2.16 0 0 1 2.774.162 1.88 1.88 0 0 1 .785-1.958c.994-.576 2.649-.08 3.456.886 0 0 1.109-2.679 3.024-2.376.417.057 2.383.928 2.333 1.634.01.045.01.092 0 .137.027-.055.058-.108.093-.159a2.16 2.16 0 0 1 1.843-.87c.77.056 1.522.256 2.218.59 1.49.612 3.074 1.296 3.938 2.656.864 1.361.425 3.622-1.123 4.054Z" fill="#263238"/><path d="M213.2 94.8a6.948 6.948 0 0 1-1.901 3.845c-1.303 1.246-2.412 0-2.426-1.894 0-1.713.64-4.428 2.16-4.932 1.519-.504 2.455 1.088 2.167 2.981Z" fill="#7F3E3B"/><path d="M236.24 113.909c-.54-1.44-3.06-2.88-4.608-2.88h-1.022c-2.063.018-4.123.15-6.171.396a109.959 109.959 0 0 0-12.24 2.059c-1.857.49-3.65 1.109-5.076 1.642a73.99 73.99 0 0 0-2.88 1.202s1.987 13.234 3.017 26.381c.569 7.322.331 14.587.518 19.584h30.716c1.058-6.005.892-11.239.979-22.083.043-6.53-1.015-20.376-3.233-26.301Z" fill="#263238"/><path opacity=".2" d="M206.59 135.365c.231 2.757.468 5.652.72 8.546 3.6-5.256 5.588-19.634 5.588-19.634l-6.308 11.088Z" fill="#000"/><path d="M202.501 117.293c-4.399 2.477-8.712 15.12-8.712 15.12l10.08 7.596c3.845-3.636 9.468-12.658 10.08-16.265.979-5.501-4.399-10.397-11.448-6.451ZM193.803 246.317a3.132 3.132 0 1 1-6.266.002 3.132 3.132 0 0 1 6.266-.002ZM240.56 246.317a3.134 3.134 0 0 0 3.743 3.072 3.132 3.132 0 1 0-3.743-3.072ZM214.114 245.28a3.134 3.134 0 0 0 3.743 3.072 3.132 3.132 0 1 0-3.743-3.072ZM216.274 241.45v-6.055h-8.971a27.935 27.935 0 0 0-5.249.489l-16.704 3.24a1.524 1.524 0 0 0-.703 2.64c.288.25.66.382 1.042.37l30.585-.684ZM216.274 241.45v-6.055h8.979c1.755.01 3.505.186 5.227.525l18.777 2.995a1.52 1.52 0 0 1 .704 2.64c-.288.25-.66.382-1.042.37l-32.645-.475Z" fill="#263238"/><path d="M221.826 207.674h-11.11v27.728h11.11v-27.728ZM220.234 194.772h-7.92v12.895h7.92v-12.895Z" fill="#263238"/><path opacity=".5" d="m212.314 198.559 7.92 1.995v-5.782h-7.92v3.787Z" fill="#000"/><path d="M190.671 165.598h-4.025v17.172h4.025v-17.172Z" fill="#263238"/><path d="M210.853 194.772v-74.657a9.771 9.771 0 0 1 3.348-7.372l5.321-4.659a9.78 9.78 0 0 1 6.48-2.426h19.216l9.375 10.022v79.092h-43.74Z" fill="#407BFF"/><path d="M182.24 180.329h43.848v14.443H175.09a5.194 5.194 0 0 1-5.182-5.228 5.19 5.19 0 0 1 .718-2.599 13.466 13.466 0 0 1 11.614-6.616Z" fill="#407BFF"/><path opacity=".7" d="M254.593 115.68v79.092H175.09a5.183 5.183 0 0 1-4.5-2.619 5.185 5.185 0 0 1 .036-5.207 13.48 13.48 0 0 1 11.614-6.617h22.082a6.558 6.558 0 0 0 6.56-6.559v-53.655a9.768 9.768 0 0 1 3.348-7.372l5.32-4.659a9.782 9.782 0 0 1 6.48-2.426h19.217l9.346 10.022Z" fill="#fff"/><path d="M217.246 194.772v-74.657a9.817 9.817 0 0 1 3.348-7.372l5.321-4.659a9.782 9.782 0 0 1 6.48-2.426h14.983a9.776 9.776 0 0 1 7.143 3.089l3.83 4.068a9.82 9.82 0 0 1 2.657 6.717v67.759a7.475 7.475 0 0 1-7.488 7.481h-36.274Z" fill="#407BFF"/><path opacity=".5" d="M217.246 194.772v-74.657a9.817 9.817 0 0 1 3.348-7.372l5.321-4.659a9.782 9.782 0 0 1 6.48-2.426h14.983a9.776 9.776 0 0 1 7.143 3.089l3.83 4.068a9.82 9.82 0 0 1 2.657 6.717v67.759a7.475 7.475 0 0 1-7.488 7.481h-36.274Z" fill="#fff"/><path d="M202.328 170.839a41.459 41.459 0 0 0-27.36 0 3.902 3.902 0 0 1-4.817-1.836c-.821-1.735.281-3.981 2.513-4.766a48.43 48.43 0 0 1 31.954 0c2.232.777 3.333 3.031 2.512 4.766a3.901 3.901 0 0 1-4.802 1.836Z" fill="#407BFF"/><path opacity=".7" d="M202.328 170.839a41.459 41.459 0 0 0-27.36 0 3.902 3.902 0 0 1-4.817-1.836c-.821-1.735.281-3.981 2.513-4.766a48.43 48.43 0 0 1 31.954 0c2.232.777 3.333 3.031 2.512 4.766a3.901 3.901 0 0 1-4.802 1.836Z" fill="#fff"/><path d="M90.433 99.4c-.151.426-.043.85.238.944.28.094.626-.166.77-.59.144-.425.043-.857-.23-.95-.274-.094-.627.165-.778.597Z" fill="#263238"/><path d="M90.354 99.84c.058 1.482.318 2.95.77 4.363a2.63 2.63 0 0 1-2.16-.331l1.39-4.032Z" fill="#A02724"/><path d="M89.742 96.506a.217.217 0 0 0 .165 0 2.158 2.158 0 0 1 1.894.288.266.266 0 0 0 .374-.057.274.274 0 0 0 0-.346 2.65 2.65 0 0 0-2.39-.396.274.274 0 0 0-.166.338.252.252 0 0 0 .166.166l-.043.007Z" fill="#263238"/><path d="M74.643 100.971c.806 4.097 1.606 11.606-1.26 14.342 0 0 1.123 4.154 8.74 4.154 8.374 0 4.004-4.154 4.004-4.154-4.572-1.094-3.837-4.486-3.038-7.668l-8.446-6.674Z" fill="#B55B52"/><path d="M76.508 93.54c-1.498 5.357-2.65 8.417-.936 12.024 2.57 5.436 11.556 6.142 14.004-.079 1.865-5.76 3.708-11.787-.72-15.653a7.595 7.595 0 0 0-12.37 3.708h.022Z" fill="#B55B52"/><path d="M70.705 95.326c-.389-1.973-.49-4.133.497-5.89.986-1.757 3.37-2.83 5.104-1.807a8.425 8.425 0 1 1 14.729 8.117 8.424 8.424 0 0 1-2.784 2.719c.396-1.476.8-2.945 1.195-4.42a8.575 8.575 0 0 1-3.067 5.22l.72-4.415a6.745 6.745 0 0 1-3.269 5.077l.843-3.09a26.741 26.741 0 0 1-1.627 4.134c-.72.828-1.181 6.242-3.658 6.415-8.51 1.692-7.776-7.452-8.683-12.06Z" fill="#263238"/><path d="M82.16 97.889a6.342 6.342 0 0 0 .878 3.938c.958 1.541 2.362.951 2.88-.626.461-1.44.511-3.924-.82-4.925-1.332-1-2.736-.036-2.938 1.613ZM61.863 149.787c-.914-.303-5.198-2.506-5.882-2.11 1.98-5.04 3.211-5.825 4.111-9.036a4.925 4.925 0 0 0-.958-4.68c-1.267-1.699-1.706-2.556-3.808-2.347-2.88 4.838-6.545 10.8-7.97 16.265-.483 1.836-.829 3.233.266 4.788.964 1.368 2.743 1.915 4.413 2.066 4.01.36 9.965-.374 9.886-2.757-.043-1.505-.058-2.189-.058-2.189Z" fill="#B55B52"/><path d="m61.186 149.606 3.399-1.101-.302 6.142s-2.722.093-4.177-1.728l1.08-3.313Z" fill="#B55B52"/><path d="m68.833 148.404-.483 5.069-4.067 1.174.302-6.142 4.248-.101ZM107.799 153.97s-4.759-3.73-10.966-15.97c-.921-1.714-1.8-3.449-2.65-5.191a104.29 104.29 0 0 1-2.433-5.335l7.359-3.168c1.512 3.297 3.873 6.703 5.544 9.979 1.67 3.276 5.608 11.037 6.105 11.757.245.375.511.684.763 1.03l.382.504-4.745 5.486.641.908ZM114.027 130.08l-1.44-1.757-.677-2.628 4.443-4.125a19.4 19.4 0 0 1 1.807 2.75c.114.222.169.471.158.72l-.18 4.63-4.111.41ZM111.939 122.859l3.319-3.017 1.051 1.764-4.435 4.104.065-2.851Z" fill="#B55B52"/><path d="M114.092 128.813c.115-.497.216.475.547.086.979-1.18 2.405-1.303 3.255 0 .849 1.304.122 14.127-1.232 18.152-.9 2.671-1.382 4.802-3.686 6.429a5.612 5.612 0 0 1-3.24 1.167 3.08 3.08 0 0 1-2.808-1.743c-.72-1.677 1.858-7.725 2.765-9.677 2.844-6.141 3.038-8.611 4.399-14.414Z" fill="#B55B52"/><path d="m104.566 128.259 5.883-.058a5.69 5.69 0 0 0 2.462-.389 4.474 4.474 0 0 0 2.009-2.512c.835-2.16.907-4.479 1.231-6.74.324-2.26 1.015-4.636 2.729-6.156-3.125.418-8.64-.561-11.052 1.995-1.267 1.361-3.506 13.86-3.262 13.86Z" fill="#407BFF"/><path opacity=".5" d="m104.566 128.259 5.883-.058a5.69 5.69 0 0 0 2.462-.389 4.474 4.474 0 0 0 2.009-2.512c.835-2.16.907-4.479 1.231-6.74.324-2.26 1.015-4.636 2.729-6.156-3.125.418-8.64-.561-11.052 1.995-1.267 1.361-3.506 13.86-3.262 13.86Z" fill="#fff"/><path d="M114.632 119.518c-.338.093-.562 1.296-.49 1.641l.332.591.669 2.88 2.247-1.239-2.024-3.6a.66.66 0 0 0-.734-.273Z" fill="#B55B52"/><path d="M63.894 116.343c-5.256 1.202-13.032 17.582-13.032 17.582l10.548 7.2a117.814 117.814 0 0 0 8.208-13.572c3.117-6.523-.353-12.442-5.724-11.21Z" fill="#407BFF"/><path d="M71.569 116.739c-.605-1.318-1.26-2.823.1-3.291 1.505-.518 9.742-1.051 12.58-.079a2.921 2.921 0 0 1 2.051 3.6v.05l-14.731-.28Z" fill="#263238"/><path opacity=".2" d="m67.14 125.803-7.495 14.112 1.764 1.21s3.399-4.731 5.76-8.82l-.028-6.502Z" fill="#000"/><path d="M95.84 123.55c1.138 5.76-1.52 19.44-1.49 41.76H64.383c-.194-4.508 3.09-15.192-.993-36.476-.13-.72-.188-12.348.504-12.47a79.977 79.977 0 0 1 8.77-1.037c4.244-.245 8.499-.245 12.743 0 1.736.18 4.464 1.253 6.192 1.872 2.686.951 3.694 3.521 4.241 6.351Z" fill="#407BFF"/><path opacity=".2" d="M87.92 129.274c.778 4.73 3.88 10.98 6.97 14.652.122-2.686.395-5.494.388-7.646l-7.358-7.006Z" fill="#000"/><path d="M85.76 122.16c-.72 5.306 9.72 18.85 9.72 18.85l10.505-7.2s-2.916-7.467-7.82-12.363c-5.565-5.601-11.563-5.047-12.405.713Z" fill="#407BFF"/><path d="M120.118 239.613h5.602l1.274-12.981h-5.601l-1.275 12.981Z" fill="#B55B52"/><path opacity=".2" d="m126.908 227.417-.648 6.689h-5.609l.655-6.689h5.602Z" fill="#000"/><path d="M98.022 239.613h5.601l2.815-12.981h-5.601l-2.816 12.981Z" fill="#B55B52"/><path opacity=".2" d="M100.714 227.323h5.602l-1.454 6.689H99.26l1.454-6.689Z" fill="#000"/><path d="M126.037 237.094h-6.113a.553.553 0 0 0-.483.504l-1.108 6.408a1.096 1.096 0 0 0 .604 1.267c.067.01.135.01.202 0 2.203-.043 5.393-.216 8.165-.216 3.247 0 6.048.223 9.85.223 2.304 0 2.944-3.009 1.98-3.276-4.385-1.238-7.964-1.368-11.751-4.399a2.159 2.159 0 0 0-1.346-.511Z" fill="#263238"/><path d="M130.486 239.174c.72 0 1.44-.1 1.649-.424a.51.51 0 0 0 0-.584.72.72 0 0 0-.418-.309c-.936-.252-2.88.864-2.973.914a.124.124 0 0 0-.065.137c.004.026.016.05.034.07a.133.133 0 0 0 .067.038 8.96 8.96 0 0 0 1.706.158Zm.893-1.087h.252a.396.396 0 0 1 .259.187c.094.166.065.245 0 .288-.259.368-1.677.375-2.721.224a6.288 6.288 0 0 1 2.21-.706v.007Z" fill="#407BFF"/><path d="M128.794 239.016h.058c.677-.302 2.016-1.512 1.908-2.16 0-.151-.13-.331-.49-.374a1.006 1.006 0 0 0-.72.23c-.72.583-.864 2.095-.871 2.16a.142.142 0 0 0 .008.068.135.135 0 0 0 .042.055.117.117 0 0 0 .065.021Zm1.368-2.268h.079c.238 0 .252.123.26.151.064.382-.85 1.332-1.541 1.743a3.12 3.12 0 0 1 .72-1.721.797.797 0 0 1 .482-.173Z" fill="#407BFF"/><path d="M104.019 237.094h-6.293a.54.54 0 0 0-.475.504l-1.109 6.408a1.11 1.11 0 0 0 .641 1.274c.06.007.12.007.18 0 2.196-.043 3.269-.216 6.034-.216 1.706 0 3.888.223 6.242.223 2.355 0 2.657-3.009 1.692-3.276-4.32-1.224-4.615-2.88-5.997-4.521a1.179 1.179 0 0 0-.915-.396Z" fill="#263238"/><path d="M107.309 239.887a1.776 1.776 0 0 0 1.347-.367.535.535 0 0 0 0-.627.622.622 0 0 0-.418-.309c-.821-.195-2.369.864-2.433.907a.152.152 0 0 0-.058.137.125.125 0 0 0 .101.101c.48.106.97.159 1.461.158Zm.72-1.066h.159a.361.361 0 0 1 .245.173c.122.223.05.31 0 .346-.238.309-1.383.317-2.225.18a4.397 4.397 0 0 1 1.807-.72l.014.021Z" fill="#407BFF"/><path d="M105.92 239.736c.583-.317 1.707-1.541 1.584-2.16a.433.433 0 0 0-.425-.353.792.792 0 0 0-.298.03.774.774 0 0 0-.263.143c-.648.533-.785 2.16-.792 2.218a.143.143 0 0 0 .015.07.146.146 0 0 0 .05.052h.129Zm1.131-2.268h.057c.173 0 .187.101.195.137.072.367-.648 1.296-1.224 1.735a3.267 3.267 0 0 1 .662-1.757.486.486 0 0 1 .31-.115Z" fill="#407BFF"/><path d="M85.371 165.295s26.532 10.959 32.019 19.376c-3.262 21.412-9.116 45.806-9.116 45.806h-9.979a196.92 196.92 0 0 1 2.585-31.507c1.44-26.172-45.662.907-36.511-33.675H85.37Z" fill="#263238"/><path opacity=".3" d="M103.717 183.36c-1.859.11-3.71.324-5.544.641l-5.81.893a87.428 87.428 0 0 0 9.467 6.926c2.009 1.274 4.198 2.498 6.567 2.506 2.664 0 9.892-3.413 8.697-6.963-1.195-3.549-10.353-4.133-13.377-4.003Z" fill="#000"/><path d="M94.357 165.295s24.523 3.168 38.045 10.865c4.161 2.369 3.6 9.979 3.47 14.991a118.31 118.31 0 0 1-7.632 39.326h-8.338s.425-13.586.144-35.51c-.086-6.574-13.356-8.741-26.323-9.504a29.52 29.52 0 0 1-25.373-18.051l-.885-2.117h26.892Z" fill="#263238"/><path d="M130.263 228.245c.043 0-.54 3.939-.54 3.939h-11.52l-.317-3.514 12.377-.425ZM109.239 228.245c.043 0-1.058 3.939-1.058 3.939h-11.52l.209-3.514 12.369-.425ZM78.286 185.167l-8.258 60.848-1.49-.209 6.372-61.099 3.376.46Z" fill="#407BFF"/><path opacity=".4" d="m77.991 187.349-7.963 58.666-1.49-.209 6.098-58.472 3.355.015Z" fill="#000"/><path d="M107.317 187.342h-46.8a5.346 5.346 0 0 1 3.298-4.936 5.35 5.35 0 0 1 2.044-.406h36.115a5.351 5.351 0 0 1 3.778 1.564 5.336 5.336 0 0 1 1.565 3.778Z" fill="#407BFF"/><path opacity=".7" d="M107.317 187.342h-46.8a5.346 5.346 0 0 1 3.298-4.936 5.35 5.35 0 0 1 2.044-.406h36.115a5.351 5.351 0 0 1 3.778 1.564 5.336 5.336 0 0 1 1.565 3.778Z" fill="#fff"/><path d="m62.684 187.334-7.056 59.163h1.512l8.95-59.163h-3.406ZM105.15 187.334l7.056 59.163h-1.512l-8.943-59.163h3.399Z" fill="#407BFF"/><path opacity=".4" d="m105.15 187.334 7.056 59.163h-1.512l-8.943-59.163h3.399Z" fill="#000"/><path d="m95.71 187.334.137 59.163h-1.504l-2.038-59.163h3.405Z" fill="#407BFF"/></svg>