<svg width="13" height="63" fill="none" xmlns="http://www.w3.org/2000/svg"><path d="M3.359 59.333v.021a.094.094 0 00.022.04.12.12 0 00.017.017l2.96 2.41a.14.14 0 00.045.024c.033.01.068.01.1 0a.14.14 0 00.045-.024l2.961-2.41a.11.11 0 00.03-.036.091.091 0 000-.082.11.11 0 00-.027-.037.14.14 0 00-.044-.024.164.164 0 00-.144.022l-2.87 2.334-2.865-2.332a.14.14 0 00-.044-.024.164.164 0 00-.163.038.1.1 0 00-.013.021.1.1 0 00-.008.02.09.09 0 00-.002.022z" fill="#246EB2"/><path d="M9.876 59.332a.291.291 0 01-.034.138.34.34 0 01-.099.117l-2.958 2.41a.456.456 0 01-.152.081.564.564 0 01-.51-.081l-2.96-2.41a.397.397 0 01-.096-.117.304.304 0 01-.033-.136.293.293 0 01.034-.137.341.341 0 01.097-.116.45.45 0 01.151-.081.552.552 0 01.27-.022.56.56 0 01.168.056c.026.014.05.03.07.047l2.63 2.14 2.628-2.138.001-.002.007-.005a.463.463 0 01.153-.08.57.57 0 01.438.04.446.446 0 01.123.102.342.342 0 01.063.126.29.29 0 01.009.068z" fill="#246EB2"/><path d="M3.359 59.333v.021a.094.094 0 00.022.04.12.12 0 00.017.017l2.96 2.41a.14.14 0 00.045.024c.033.01.068.01.1 0a.14.14 0 00.045-.024l2.961-2.41a.11.11 0 00.03-.036.091.091 0 000-.082.11.11 0 00-.027-.037.14.14 0 00-.044-.024.164.164 0 00-.144.022l-2.87 2.334-2.865-2.332a.14.14 0 00-.044-.024.164.164 0 00-.163.038.1.1 0 00-.013.021.1.1 0 00-.008.02.09.09 0 00-.002.022z" fill="#246EB2"/><path d="M9.876 59.332a.291.291 0 01-.034.138.34.34 0 01-.099.117l-2.958 2.41a.456.456 0 01-.152.081.564.564 0 01-.51-.081l-2.96-2.41a.397.397 0 01-.096-.117.304.304 0 01-.033-.136.293.293 0 01.034-.137.341.341 0 01.097-.116.45.45 0 01.151-.081.552.552 0 01.27-.022.56.56 0 01.168.056c.026.014.05.03.07.047l2.63 2.14 2.628-2.138.001-.002.007-.005a.463.463 0 01.153-.08.57.57 0 01.438.04.446.446 0 01.123.102.342.342 0 01.063.126.29.29 0 01.009.068zM12.461 5.088a.14.14 0 00-.02-.072.18.18 0 00-.057-.062L6.617.823A.359.359 0 006.33.784a.284.284 0 00-.082.039L.481 4.954a.2.2 0 00-.059.062.142.142 0 00-.004.142.192.192 0 00.054.065c.026.02.055.034.085.043a.35.35 0 00.2.002.291.291 0 00.086-.045H.85l5.583-4 5.582 4a.286.286 0 00.087.042.359.359 0 00.2 0 .283.283 0 00.12-.07.18.18 0 00.04-.068.138.138 0 000-.039z" fill="#246EB2"/><path d="M.094 5.09a.304.304 0 01.046-.162.405.405 0 01.13-.136L6.034.665a.612.612 0 01.186-.088.765.765 0 01.424 0c.067.02.13.05.186.088l5.767 4.128a.474.474 0 01.125.135.34.34 0 01.045.16.303.303 0 01-.043.16.396.396 0 01-.124.134.61.61 0 01-.187.09.763.763 0 01-.426 0 .617.617 0 01-.187-.09L6.433 1.534 1.065 5.38l-.003.003-.003.002a.534.534 0 01-.006.004.626.626 0 01-.19.087.77.77 0 01-.425-.006.6.6 0 01-.184-.091.471.471 0 01-.12-.133.33.33 0 01-.04-.156z" fill="#246EB2"/><path d="M12.461 5.088a.14.14 0 00-.02-.072.18.18 0 00-.057-.062L6.617.823A.359.359 0 006.33.784a.284.284 0 00-.082.039L.481 4.954a.2.2 0 00-.059.062.142.142 0 00-.004.142.192.192 0 00.054.065c.026.02.055.034.085.043a.35.35 0 00.2.002.291.291 0 00.086-.045H.85l5.583-4 5.582 4a.286.286 0 00.087.042.359.359 0 00.2 0 .283.283 0 00.12-.07.18.18 0 00.04-.068.138.138 0 000-.039z" fill="#246EB2"/><path d="M.094 5.09a.304.304 0 01.046-.162.405.405 0 01.13-.136L6.034.665a.612.612 0 01.186-.088.765.765 0 01.424 0c.067.02.13.05.186.088l5.767 4.128a.474.474 0 01.125.135.34.34 0 01.045.16.303.303 0 01-.043.16.396.396 0 01-.124.134.61.61 0 01-.187.09.763.763 0 01-.426 0 .617.617 0 01-.187-.09L6.433 1.534 1.065 5.38l-.003.003-.003.002a.534.534 0 01-.006.004.626.626 0 01-.19.087.77.77 0 01-.425-.006.6.6 0 01-.184-.091.471.471 0 01-.12-.133.33.33 0 01-.04-.156zM5.905 55.5l.003-3.969a.35.35 0 01.044-.169.449.449 0 01.12-.138.596.596 0 01.18-.093.706.706 0 01.616.093c.051.04.093.086.121.138a.35.35 0 01.044.17l.003 3.968c0 .06-.016.118-.045.17a.452.452 0 01-.12.14.596.596 0 01-.18.094.707.707 0 01-.44 0 .596.596 0 01-.18-.094.452.452 0 01-.121-.14.354.354 0 01-.045-.17zm.005-7.904l.002-3.903c0-.06.016-.115.044-.166a.442.442 0 01.12-.136c.05-.039.11-.07.177-.092a.706.706 0 01.435 0 .592.592 0 01.177.092c.05.038.091.084.12.136a.342.342 0 01.044.166l.002 3.903c0 .06-.016.116-.044.168a.445.445 0 01-.12.137.596.596 0 01-.178.092.707.707 0 01-.437 0 .595.595 0 01-.178-.092.445.445 0 01-.12-.137.346.346 0 01-.044-.168zm.005-7.774l.002-3.838c0-.058.015-.114.044-.164a.436.436 0 01.118-.134.587.587 0 01.176-.09.704.704 0 01.43 0 .588.588 0 01.177.09c.05.038.09.084.118.134.029.05.044.106.044.164l.002 3.838a.338.338 0 01-.043.165.44.44 0 01-.12.135.59.59 0 01-.176.091.705.705 0 01-.433 0 .59.59 0 01-.177-.09.44.44 0 01-.119-.136.338.338 0 01-.043-.165zm.004-7.645l.002-3.776c0-.057.016-.112.044-.161a.43.43 0 01.117-.132.585.585 0 01.175-.088.705.705 0 01.427 0c.066.02.125.05.175.088a.43.43 0 01.117.132c.028.05.044.104.044.16l.002 3.777a.33.33 0 01-.043.162.434.434 0 01-.119.133.588.588 0 01-.175.089.703.703 0 01-.604-.09.434.434 0 01-.119-.132.33.33 0 01-.043-.162zm.005-7.521l.002-3.715a.32.32 0 01.043-.159.424.424 0 01.117-.129.583.583 0 01.173-.087.707.707 0 01.423 0c.066.02.124.05.173.087.05.037.09.08.117.13a.32.32 0 01.043.158l.002 3.715c0 .056-.015.11-.043.16a.428.428 0 01-.117.13.585.585 0 01-.174.088.704.704 0 01-.6-.088.428.428 0 01-.116-.13.323.323 0 01-.043-.16zm.004-7.4l.002-3.655c0-.055.015-.108.043-.156a.419.419 0 01.116-.127.581.581 0 01.171-.086.705.705 0 01.42 0c.065.02.123.05.172.086.05.036.089.08.116.127.028.048.043.1.043.156l.002 3.655a.317.317 0 01-.043.157.42.42 0 01-.116.129.579.579 0 01-.172.086.702.702 0 01-.595-.086.42.42 0 01-.116-.129.316.316 0 01-.043-.157zm.004-7.28l.003-3.597c0-.055.015-.106.042-.153a.414.414 0 01.115-.126.577.577 0 01.17-.084.703.703 0 01.417 0c.064.02.122.049.17.084a.414.414 0 01.115.126.306.306 0 01.042.153l.003 3.597a.309.309 0 01-.043.154.416.416 0 01-.115.127.577.577 0 01-.171.085.704.704 0 01-.419 0 .577.577 0 01-.171-.085.416.416 0 01-.115-.127.309.309 0 01-.043-.154z" fill="#246EB2"/></svg>