<svg width="181" height="14" fill="none" xmlns="http://www.w3.org/2000/svg"><path d="M174.264 1a.255.255 0 01.185.076l5.738 5.738a.261.261 0 010 .369l-5.738 5.737a.26.26 0 01-.438-.18.264.264 0 01.063-.182l.006-.006L179.633 7l-5.554-5.553a.264.264 0 01-.056-.284.263.263 0 01.241-.16V.999z" fill="#282B39" stroke="#246EB2" stroke-width=".63"/><path d="M174.264 1a.255.255 0 01.185.076l5.738 5.738a.261.261 0 010 .369l-5.738 5.737a.26.26 0 01-.438-.18.264.264 0 01.063-.182l.006-.006L179.633 7l-5.554-5.553a.264.264 0 01-.056-.284.263.263 0 01.241-.16V.999zM7 13a.262.262 0 01-.186-.076L1.076 7.186a.261.261 0 010-.369L6.814 1.08a.261.261 0 01.375.362l-.006.006L1.63 7l5.554 5.553a.26.26 0 01-.185.445V13z" fill="#282B39" stroke="#246EB2" stroke-width=".63"/><path d="M7 13a.262.262 0 01-.186-.076L1.076 7.186a.261.261 0 010-.369L6.814 1.08a.261.261 0 01.375.362l-.006.006L1.63 7l5.554 5.553a.26.26 0 01-.185.445V13z" fill="#282B39" stroke="#246EB2" stroke-width=".63"/><path d="M8.5 7H173" stroke="#246EB2" stroke-width="1.1" stroke-linecap="round" stroke-dasharray="5 5"/></svg>