<svg width="34" height="34" fill="none" xmlns="http://www.w3.org/2000/svg"><path d="M29.2 16.092a1.805 1.805 0 0 1-1.494 2.707 35.466 35.466 0 0 0-14.78 3.87l-1.576.91c0 .007-.022-.038 3.815 6.635.352.61.143 1.39-.467 1.744l-1.243.717c-.61.352-1.39.143-1.743-.467l-3.827-6.63-.621.36a2.552 2.552 0 0 1-3.486-.934l-2.87-4.972a2.552 2.552 0 0 1 .934-3.485l5.662-3.27A35.472 35.472 0 0 0 18.246 2.414a1.805 1.805 0 0 1 3.09.06l2.457 4.254a2.95 2.95 0 0 1 2.95 5.11l2.456 4.255Z" fill="#D1E7FF"/><path d="M27.823 7.808a2.95 2.95 0 0 1-1.08 4.03l-2.95-5.11a2.95 2.95 0 0 1 4.03 1.08Z" fill="#D1E7FF"/><path d="M21.337 2.473a1.787 1.787 0 0 1-.058 1.882A41.562 41.562 0 0 1 9.239 16.24l-6.634 3.83a2.978 2.978 0 0 0-1.068 1.05l-.63-1.089a2.552 2.552 0 0 1 .935-3.485l5.662-3.27A35.472 35.472 0 0 0 18.246 2.414a1.805 1.805 0 0 1 3.09.06Z" fill="#E8F3FF"/><path d="m7.504 13.277 5.422 9.392-5.662 3.269a2.552 2.552 0 0 1-3.486-.935l-2.87-4.97a2.552 2.552 0 0 1 .934-3.487l5.662-3.269Z" fill="#B9DCFF"/><path d="M9.221 16.252c-7.204 4.159-6.727 3.87-6.96 4.05a.917.917 0 0 1-1.353-.27 2.552 2.552 0 0 1 .934-3.486l5.662-3.269 1.717 2.975Z" fill="#D1E7FF"/><path d="M12.382 25.372c-2.016 1.168-.533.309-3.461 1.999l-1.036-1.793 3.465-2 1.032 1.794ZM27.647 11.025c-.234.32-.538.6-.904.81l-2.95-5.11c.366-.212.759-.335 1.153-.377l2.7 4.677Z" fill="#B9DCFF"/><path d="M27.494 12.003c2.211-1.806 1.448-5.378-1.316-6.119a3.49 3.49 0 0 0-2.155.108L21.827 2.19c-.893-1.548-3.11-1.589-4.06-.08A34.894 34.894 0 0 1 7.195 12.801a.567.567 0 0 0-.19.746l3.685 6.383a.567.567 0 0 0 .981-.567l-3.41-5.907A36.01 36.01 0 0 0 18.725 2.714a1.239 1.239 0 0 1 2.12.042l7.863 13.618a1.239 1.239 0 0 1-1.024 1.857 36.029 36.029 0 0 0-15.016 3.932c-.02.01-5.323 3.072-5.688 3.283a1.987 1.987 0 0 1-2.711-.727l-2.87-4.971a1.987 1.987 0 0 1 .726-2.712l3.455-1.994a.567.567 0 0 0-.567-.982l-3.455 1.995c-1.489.86-2 2.77-1.14 4.26l2.87 4.971c.86 1.49 2.77 2 4.259 1.141l.13-.075 3.545 6.138a1.841 1.841 0 0 0 2.516.674l1.243-.717a1.841 1.841 0 0 0 .675-2.517l-2.512-4.35a.567.567 0 1 0-.982.566l2.512 4.35c.196.34.08.773-.26.97l-1.242.717a.709.709 0 0 1-.969-.26l-3.544-6.138 4.538-2.62a34.892 34.892 0 0 1 14.531-3.801c1.786-.07 2.854-2.012 1.962-3.557l-2.196-3.804Zm-.162-3.914c.56.97.358 2.172-.416 2.914l-2.315-4.01a2.383 2.383 0 0 1 2.731 1.096Zm5.542-2.519-1.466.847a.567.567 0 1 1-.566-.982l1.466-.846a.567.567 0 1 1 .566.981ZM26.57 2.34l.358-1.334a.567.567 0 0 1 1.094.293l-.357 1.335a.567.567 0 0 1-1.095-.294Zm7.412 9.281a.567.567 0 0 1-.548.42c-.102 0-.03.012-1.48-.377a.567.567 0 1 1 .293-1.095l1.334.358a.567.567 0 0 1 .4.694Z" fill="#081A3E"/></svg>