<svg width="118" height="103" viewBox="0 0 118 103" fill="none" xmlns="http://www.w3.org/2000/svg">
<g clip-path="url(#clip0)">
<path opacity="0.1" d="M118 50.0404C118 72.9558 97.9375 92.2725 70.5615 98.2028C66.1156 99.1635 61.5989 99.7565 57.0567 99.9761C56.8357 99.9872 56.6147 99.9983 56.3922 100.006C55.2101 100.055 54.019 100.08 52.8191 100.081C50.7327 100.081 48.671 100.006 46.634 99.8571C45.504 99.7762 44.3834 99.6731 43.2723 99.5478C32.4663 98.3297 22.5219 95.0767 14.1225 90.3106C13.073 89.7158 12.0482 89.0972 11.0481 88.4549C9.21685 87.2834 7.44884 86.0148 5.75158 84.6547C-5.46802 75.668 3.88614 56.4861 9.73345 44.4098C25.5157 11.8162 16.8213 0 52.8191 0C88.8169 0 118 22.4032 118 50.0404Z" fill="#246EB2"/>
<path d="M92.2021 20.627C81.0137 20.4254 81.0155 3.7156 92.2025 3.51562C103.391 3.71724 103.389 20.427 92.2021 20.627Z" fill="white"/>
<path d="M71.0429 45.5293C59.8545 45.3277 59.8563 28.6179 71.0433 28.418C82.2313 28.6196 82.2296 45.3293 71.0429 45.5293Z" fill="white"/>
<path d="M92.2021 20.627C81.0137 20.4254 81.0155 3.7156 92.2025 3.51562C103.391 3.71724 103.389 20.427 92.2021 20.627ZM92.2021 4.03414C81.6918 4.22358 81.6935 19.9206 92.2025 20.1085C102.712 19.919 102.711 4.22204 92.2021 4.03414Z" fill="#E6E6E6"/>
<path d="M43.2329 99.4296C43.2078 99.3489 43.1904 99.2661 43.1809 99.1821L39.9313 80.5617C39.9265 80.5138 39.9191 80.4661 39.9092 80.419C39.8405 80.0795 39.6691 79.7697 39.4185 79.5318C39.168 79.294 38.8505 79.1396 38.5093 79.0898L19.9793 79.1707C19.6287 79.1179 19.2705 79.1791 18.957 79.3455C18.6436 79.5119 18.3912 79.7746 18.237 80.0954C17.9356 80.7267 17.6405 81.3669 17.3516 82.0161C16.1821 84.6316 15.1058 87.3966 14.1226 90.3113C22.5219 95.0774 32.4663 98.3304 43.2724 99.5485L43.2329 99.4296Z" fill="#2F2E41"/>
<path d="M61.3213 49.6004C61.2757 49.8017 61.246 50.0063 61.2324 50.2123L45.2837 59.4588L41.4071 57.216L37.2744 62.6531L43.7532 67.2938C44.2766 67.6687 44.9069 67.8628 45.5494 67.8471C46.192 67.8314 46.8121 67.6066 47.3167 67.2065L63.7626 54.1678C64.5048 54.4439 65.3131 54.4863 66.0799 54.2895C66.8467 54.0927 67.5357 53.666 68.0553 53.066C68.5749 52.4661 68.9004 51.7214 68.9886 50.931C69.0767 50.1406 68.9233 49.342 68.5488 48.6413C68.1743 47.9407 67.5964 47.3712 66.892 47.0087C66.1876 46.6461 65.39 46.5077 64.6054 46.6118C63.8208 46.7159 63.0863 47.0577 62.4997 47.5915C61.913 48.1253 61.502 48.826 61.3213 49.6004V49.6004Z" fill="#FFB8B8"/>
<path d="M45.0655 58.5373C45.0171 58.3008 44.9186 58.0776 44.7767 57.8827C44.6348 57.6879 44.4529 57.526 44.2432 57.4081L36.9249 53.2954C35.9525 52.5413 34.7222 52.2056 33.5037 52.3617C32.2853 52.5178 31.1782 53.1531 30.4251 54.1282C29.672 55.1034 29.3344 56.3389 29.4863 57.5638C29.6382 58.7887 30.2672 59.9031 31.2354 60.6627L37.0701 66.7516C37.2367 66.9254 37.4385 67.0612 37.662 67.1496C37.8854 67.238 38.1252 67.2769 38.3649 67.2639C38.6047 67.2508 38.8389 67.1859 39.0515 67.0737C39.264 66.9615 39.4501 66.8046 39.5969 66.6136L40.7332 65.1322L41.1214 64.6278L44.7514 59.8998C44.8839 59.7272 44.981 59.5299 45.037 59.3193C45.108 59.0646 45.1178 58.7966 45.0655 58.5373Z" fill="#246EB2"/>
<path d="M34.4693 45.9956C38.0304 42.4168 38.0304 36.6145 34.4693 33.0357C30.9082 29.4569 25.1345 29.4569 21.5734 33.0357C18.0123 36.6145 18.0123 42.4168 21.5734 45.9956C25.1345 49.5744 30.9082 49.5744 34.4693 45.9956Z" fill="#FFB8B8"/>
<path d="M39.5513 74.1987C39.9174 73.6483 42.2453 69.9338 41.3646 65.58C41.2999 65.2573 41.2188 64.938 41.1216 64.6236C40.7065 63.3131 40.0436 62.0955 39.1693 61.0375C39.1804 60.7457 39.1772 60.4586 39.1599 60.1731V60.1715C39.0312 58.1879 38.1937 56.3177 36.8017 54.9054C35.4097 53.4931 33.5569 52.6337 31.5844 52.4855L21.3858 51.7067C20.0731 51.5991 18.7541 51.8137 17.5422 52.3321C16.3303 52.8504 15.2619 53.6569 14.429 54.6822C14.2372 54.9159 14.0575 55.1594 13.8908 55.4118C13.8906 55.4118 13.8904 55.4118 13.8902 55.4119C13.89 55.412 13.8898 55.4121 13.8897 55.4122C13.8895 55.4124 13.8894 55.4125 13.8893 55.4127C13.8893 55.4129 13.8892 55.4131 13.8892 55.4133C13.2462 56.3887 12.8195 57.4916 12.6381 58.6473C12.4568 59.803 12.525 60.9844 12.8381 62.1113L12.925 62.4951L14.0123 67.2866L15.8304 75.3042L17.3519 82.0132L17.5129 82.7206C17.5977 83.0911 17.8049 83.4218 18.1006 83.6588C18.3964 83.8958 18.7633 84.0252 19.1416 84.0259C19.2325 84.0264 19.3233 84.0189 19.413 84.0037L39.1472 80.7523C39.4257 80.7075 39.6882 80.5917 39.9095 80.4161C40.0424 80.3097 40.1589 80.1841 40.2551 80.0433C40.3837 79.8564 40.4728 79.645 40.5167 79.4221C40.5607 79.1992 40.5587 78.9696 40.5108 78.7475L39.5513 74.1987Z" fill="#246EB2"/>
<path d="M0.713836 101.262C0.379117 100.783 0.153153 100.235 0.0518574 99.6578C-0.0494378 99.0807 -0.0235989 98.4884 0.127554 97.9224C0.278707 97.3565 0.551498 96.8307 0.92671 96.3822C1.30192 95.9336 1.77043 95.5732 2.29923 95.3264L13.5351 60.6094L20.0466 63.7144L7.75271 97.5179C8.10652 98.4382 8.11215 99.4569 7.76851 100.381C7.42487 101.305 6.75585 102.071 5.88822 102.532C5.02059 102.994 4.01463 103.119 3.06096 102.885C2.10729 102.651 1.27216 102.074 0.713836 101.262Z" fill="#FFB8B8"/>
<path d="M19.97 52.4072C18.7663 52.0433 17.4701 52.1509 16.3422 52.7086C15.2143 53.2662 14.3384 54.2324 13.8907 55.4128C13.8905 55.4128 13.8903 55.4128 13.8901 55.4129C13.8899 55.413 13.8897 55.4131 13.8896 55.4133C13.8894 55.4134 13.8893 55.4136 13.8892 55.4138C13.8892 55.414 13.8891 55.4142 13.8891 55.4144C13.8481 55.5206 13.8102 55.6317 13.7771 55.7427L12.8254 57.7713L9.94987 63.9014C9.83994 64.135 9.78147 64.3896 9.77844 64.648C9.77542 64.9063 9.82791 65.1623 9.93234 65.3984C10.0368 65.6345 10.1907 65.8452 10.3835 66.016C10.5764 66.1869 10.8037 66.3139 11.0499 66.3884L11.6102 66.5581L14.0122 67.2876L18.275 68.5819L19.6954 69.0133C19.9415 69.088 20.2008 69.1085 20.4555 69.0735C20.7102 69.0384 20.9544 68.9486 21.1714 68.8101C21.3884 68.6716 21.5732 68.4877 21.7131 68.271C21.8531 68.0542 21.9448 67.8097 21.9822 67.5541L23.2954 58.6024C23.6684 57.3377 23.528 55.976 22.9049 54.8151C22.2817 53.6542 21.2265 52.7884 19.97 52.4072Z" fill="#246EB2"/>
<path d="M36.3946 36.1821C33.1453 39.0386 28.1571 39.7019 24.2804 37.7929C26.0219 39.8691 29.3291 50.1178 29.3291 50.1178C29.3291 50.1178 19.9908 49.1315 18.6715 48.848C10.8789 47.1734 13.7114 26.8918 22.0149 26.9942C23.4212 27.0116 24.6507 27.1825 25.5867 28.2374C26.208 26.4872 28.1836 25.4562 30.0279 25.5897C31.8722 25.7231 33.54 26.8364 34.7264 28.2617C35.6732 29.4156 36.3566 30.7641 36.7284 32.2123C37.1002 33.6604 37.1514 35.1729 36.8784 36.6431L36.3946 36.1821Z" fill="#2F2E41"/>
<path d="M71.0429 45.5293C59.8545 45.3277 59.8563 28.6179 71.0433 28.418C82.2313 28.6196 82.2296 45.3293 71.0429 45.5293ZM71.0429 28.9365C60.5326 29.1259 60.5343 44.8229 71.0433 45.0108C81.5532 44.8214 81.5516 29.1244 71.0429 28.9365Z" fill="#E6E6E6"/>
<path d="M94.5661 10.2466C93.8598 10.2555 93.8622 9.1404 94.5685 9.15244C95.2747 9.14365 95.2723 10.2585 94.5661 10.2466Z" fill="white"/>
<path d="M92.2557 16.6557C92.2264 16.6557 92.1972 16.6557 92.1677 16.6556C91.4749 16.6573 90.8348 16.6396 90.2123 16.6015C89.6415 16.5666 89.1205 16.3684 88.7056 16.0283C88.3052 15.7002 88.0317 15.2566 87.8929 14.7098C87.772 14.2338 87.7656 13.7666 87.7595 13.3146C87.755 12.9904 87.7505 12.6061 87.7495 12.2154C87.7505 11.823 87.755 11.4388 87.7595 11.1145C87.7656 10.6626 87.772 10.1954 87.8929 9.71933C88.0317 9.17259 88.3052 8.72892 88.7056 8.4008C89.1205 8.06074 89.6415 7.86253 90.2123 7.82763C90.8349 7.78961 91.4751 7.77185 92.1694 7.77355C92.8624 7.77206 93.5023 7.78961 94.1249 7.82763C94.6956 7.86253 95.2166 8.06074 95.6316 8.4008C96.032 8.72892 96.3054 9.17259 96.4442 9.71933C96.5651 10.1953 96.5715 10.6626 96.5776 11.1145C96.5821 11.4388 96.5867 11.823 96.5876 12.2138V12.2154C96.5867 12.6061 96.5821 12.9904 96.5776 13.3146C96.5715 13.7665 96.5651 14.2338 96.4442 14.7098C96.3054 15.2566 96.032 15.7002 95.6316 16.0283C95.2166 16.3684 94.6956 16.5666 94.1249 16.6015C93.5287 16.638 92.9163 16.6557 92.2557 16.6557ZM92.1677 15.9617C92.8492 15.9633 93.475 15.946 94.0829 15.9089C94.5145 15.8825 94.8887 15.7418 95.1952 15.4906C95.4785 15.2583 95.6737 14.9379 95.7752 14.5382C95.8758 14.142 95.8816 13.7166 95.8872 13.3051C95.8916 12.983 95.8962 12.6015 95.8971 12.2146C95.8962 11.8276 95.8916 11.4461 95.8872 11.124C95.8816 10.7126 95.8758 10.2872 95.7752 9.89085C95.6737 9.49116 95.4785 9.17076 95.1952 8.93853C94.8887 8.68738 94.5145 8.54663 94.0829 8.52027C93.475 8.48307 92.8492 8.46592 92.1693 8.46741C91.4879 8.46579 90.8621 8.48307 90.2542 8.52027C89.8226 8.54663 89.4485 8.68738 89.1419 8.93853C88.8586 9.17076 88.6634 9.49116 88.5619 9.89085C88.4613 10.2872 88.4555 10.7125 88.4499 11.124C88.4455 11.4464 88.441 11.8281 88.44 12.2154C88.441 12.601 88.4455 12.9828 88.4499 13.3051C88.4555 13.7166 88.4613 14.142 88.5619 14.5382C88.6634 14.9379 88.8586 15.2583 89.1419 15.4906C89.4485 15.7417 89.8226 15.8824 90.2542 15.9088C90.8621 15.946 91.4881 15.9634 92.1677 15.9617ZM92.1513 14.3831C90.9615 14.3831 89.9934 13.4103 89.9934 12.2146C89.9934 11.0188 90.9615 10.046 92.1513 10.046C93.3411 10.046 94.3091 11.0188 94.3091 12.2146C94.3091 13.4103 93.3411 14.3831 92.1513 14.3831ZM92.1513 10.74C91.3422 10.74 90.6839 11.4015 90.6839 12.2146C90.6839 13.0276 91.3422 13.6892 92.1513 13.6892C92.9604 13.6892 93.6186 13.0276 93.6186 12.2146C93.6186 11.4015 92.9604 10.74 92.1513 10.74ZM94.5508 9.35211C94.2648 9.35211 94.0329 9.58509 94.0329 9.87256C94.0329 10.16 94.2648 10.393 94.5508 10.393C94.8368 10.393 95.0686 10.16 95.0686 9.87256C95.0686 9.58509 94.8368 9.35211 94.5508 9.35211Z" fill="#3F3D56"/>
<path d="M55.6504 38.4204C55.5994 38.4219 55.5492 38.4081 55.506 38.3809C55.4628 38.3537 55.4287 38.3141 55.4079 38.2674C55.3871 38.2206 55.3806 38.1687 55.3891 38.1182C55.3977 38.0677 55.421 38.0209 55.4561 37.9837L56.3149 37.0717C56.3418 37.0431 56.3563 37.0049 56.3553 36.9655C56.3542 36.9261 56.3376 36.8888 56.3092 36.8617L55.3967 35.9939C55.3715 35.9699 55.3512 35.9411 55.337 35.9092C55.3228 35.8774 55.315 35.843 55.3141 35.8081C55.3131 35.7732 55.319 35.7384 55.3314 35.7058C55.3438 35.6732 55.3625 35.6434 55.3864 35.618C55.4345 35.5672 55.5006 35.5374 55.5704 35.5353C55.6402 35.5331 55.708 35.5587 55.7592 35.6065L56.9867 36.7593C57.0109 36.7821 57.0304 36.8094 57.044 36.8397C57.0576 36.8701 57.0651 36.9028 57.066 36.9361C57.0669 36.9694 57.0612 37.0025 57.0493 37.0335C57.0374 37.0646 57.0195 37.0929 56.9965 37.117L55.8293 38.341C55.7824 38.3901 55.7181 38.4187 55.6504 38.4204Z" fill="#CCCCCC"/>
<path d="M54.7124 37.0917C54.6844 37.1177 54.648 37.1325 54.6099 37.1335L51.7478 37.2128C51.7271 37.2134 51.7064 37.2099 51.687 37.2025C51.6677 37.195 51.6499 37.1839 51.6349 37.1695C51.6198 37.1552 51.6077 37.1381 51.5992 37.119C51.5907 37.1 51.5861 37.0795 51.5855 37.0587C51.5849 37.0378 51.5885 37.0171 51.5959 36.9976C51.6033 36.9782 51.6144 36.9604 51.6287 36.9452C51.643 36.9301 51.6601 36.9179 51.679 36.9095C51.6979 36.901 51.7184 36.8963 51.7391 36.8958L54.6012 36.8165C54.6333 36.8156 54.665 36.8246 54.6919 36.8422C54.7188 36.8599 54.7397 36.8854 54.7518 36.9153C54.7639 36.9453 54.7666 36.9782 54.7595 37.0097C54.7525 37.0412 54.7361 37.0698 54.7124 37.0917Z" fill="#CCCCCC"/>
<path d="M76.7983 13.5181C76.7474 13.5195 76.6971 13.5058 76.654 13.4785C76.6108 13.4513 76.5766 13.4118 76.5558 13.365C76.535 13.3183 76.5285 13.2664 76.5371 13.2159C76.5457 13.1654 76.569 13.1186 76.604 13.0814L77.4629 12.1694C77.4898 12.1407 77.5043 12.1025 77.5032 12.0632C77.5021 12.0238 77.4855 11.9865 77.4571 11.9594L76.5446 11.0915C76.5194 11.0675 76.4991 11.0388 76.4849 11.0069C76.4708 10.975 76.463 10.9407 76.462 10.9058C76.4611 10.8708 76.467 10.8361 76.4794 10.8035C76.4918 10.7709 76.5104 10.741 76.5343 10.7157C76.5824 10.6648 76.6486 10.6351 76.7184 10.6329C76.7882 10.6308 76.856 10.6564 76.9071 10.7042L78.1346 11.857C78.1588 11.8797 78.1783 11.907 78.1919 11.9374C78.2055 11.9677 78.213 12.0005 78.2139 12.0337C78.2148 12.067 78.2092 12.1001 78.1972 12.1312C78.1853 12.1622 78.1674 12.1906 78.1445 12.2146L76.9773 13.4386C76.9304 13.4878 76.8661 13.5163 76.7983 13.5181Z" fill="#CCCCCC"/>
<path d="M75.8603 12.1894C75.8323 12.2153 75.7959 12.2302 75.7578 12.2312L72.8957 12.3105C72.875 12.3111 72.8544 12.3076 72.835 12.3001C72.8156 12.2927 72.7979 12.2815 72.7828 12.2672C72.7677 12.2529 72.7556 12.2357 72.7472 12.2167C72.7387 12.1977 72.734 12.1772 72.7335 12.1563C72.7329 12.1355 72.7364 12.1147 72.7438 12.0953C72.7512 12.0758 72.7624 12.058 72.7767 12.0429C72.7909 12.0277 72.808 12.0156 72.827 12.0071C72.8459 11.9986 72.8663 11.994 72.8871 11.9934L75.7491 11.9141C75.7813 11.9132 75.8129 11.9222 75.8398 11.9399C75.8667 11.9576 75.8876 11.9831 75.8997 12.013C75.9118 12.0429 75.9145 12.0759 75.9075 12.1074C75.9005 12.1389 75.884 12.1675 75.8603 12.1894Z" fill="#CCCCCC"/>
<path opacity="0.15" d="M73.8682 94.3512C73.128 95.8961 71.9222 97.1459 70.5618 98.2022C66.1159 99.1628 61.5991 99.7559 57.0569 99.9754C56.8359 99.9865 56.6149 99.9976 56.3925 100.006C55.2103 100.055 54.0193 100.08 52.8193 100.08C50.7329 100.08 48.6713 100.006 46.6342 99.8565C46.5567 99.3856 46.5461 98.9061 46.6027 98.4322C46.8284 96.5781 48.2283 94.8746 50.0448 94.4813C51.8614 94.0879 53.9319 95.1776 54.4828 96.9603C54.7874 93.5217 55.1362 89.9404 56.9559 87.0125C58.602 84.3622 61.4538 82.4652 64.5455 82.1258C66.3626 81.9357 68.1958 82.2732 69.8279 83.0981C69.9779 83.1742 70.1262 83.2535 70.2729 83.336C71.2525 83.8939 72.1167 84.6353 72.8187 85.52C74.7472 87.9721 75.2192 91.5375 73.8682 94.3512Z" fill="#246EB2"/>
<path d="M70.2726 83.3344C70.2764 83.3761 70.2694 83.418 70.2522 83.4561C70.2351 83.4942 70.2084 83.5271 70.1748 83.5517C64.6971 88.0333 60.2262 93.6302 57.0565 99.9739C56.8356 99.985 56.6146 99.9961 56.3921 100.004C56.673 99.4314 56.9644 98.8647 57.2664 98.3037C58.8349 95.3994 60.6801 92.6548 62.776 90.1085C64.8715 87.5606 67.2112 85.2257 69.7612 83.1378C69.7815 83.1212 69.8037 83.1073 69.8275 83.0965C69.872 83.0774 69.9201 83.0685 69.9685 83.0706C70.0168 83.0727 70.064 83.0856 70.1067 83.1084C70.1494 83.1312 70.1865 83.1634 70.2152 83.2025C70.2439 83.2416 70.2635 83.2867 70.2726 83.3344Z" fill="white"/>
<path d="M71.644 34.5712V35.7165H73.2061L72.9852 37.3579H71.6418V41.3976H70.0045V37.3579H68.6528V35.7131H70.0045V34.3326C70.0046 34.0937 70.0515 33.8572 70.1426 33.6366C70.2337 33.416 70.3672 33.2156 70.5353 33.0469C70.7035 32.8781 70.9032 32.7443 71.1229 32.6532C71.3426 32.562 71.5781 32.5153 71.8158 32.5156H73.2266V33.9928H72.2168C72.1412 33.9922 72.0664 34.0066 71.9964 34.0352C71.9264 34.0638 71.8629 34.106 71.8092 34.1593C71.7559 34.2136 71.7139 34.2779 71.6855 34.3486C71.6572 34.4193 71.6431 34.495 71.644 34.5712Z" fill="#3F3D56"/>
</g>
<defs>
<clipPath id="clip0">
<rect width="118" height="103" fill="white"/>
</clipPath>
</defs>
</svg>
