<svg width="181" height="120" viewBox="0 0 181 120" fill="none" xmlns="http://www.w3.org/2000/svg">
<g clip-path="url(#clip0)">
<path opacity="0.15" d="M9.97909 119.938C10.9621 119.644 11.8751 119.153 12.6625 118.494C13.4499 117.836 14.0953 117.024 14.5592 116.108C15.0232 115.192 15.2962 114.191 15.3615 113.166C15.4268 112.141 15.283 111.114 14.939 110.146C14.2134 108.096 12.5689 106.584 11.5886 104.674C10.6283 102.8 10.404 100.634 10.9599 98.6023C11.5159 96.5708 12.8118 94.8213 14.5922 93.6987C14.7967 93.5691 15.0065 93.4485 15.2216 93.3371C15.4247 93.2312 15.2451 92.9239 15.0421 93.0296C13.205 93.9843 11.7641 95.5581 10.9739 97.4732C10.1836 99.3882 10.0949 101.521 10.7234 103.495C11.0701 104.52 11.5715 105.485 12.2103 106.358C12.8238 107.237 13.4948 108.079 14.0249 109.013C14.5694 109.962 14.8965 111.02 14.9827 112.112C15.0689 113.203 14.912 114.3 14.5234 115.323C14.1637 116.226 13.6275 117.047 12.9464 117.74C12.2653 118.432 11.4529 118.982 10.5569 119.356C10.3371 119.447 10.1123 119.526 9.88451 119.595C9.84049 119.608 9.80355 119.639 9.78147 119.679C9.75939 119.72 9.75391 119.767 9.76617 119.812C9.77843 119.856 9.80748 119.895 9.8472 119.918C9.88691 119.942 9.93419 119.949 9.97907 119.938L9.97909 119.938Z" fill="#246EB2"/>
<path opacity="0.15" d="M15.1413 96.6591C17.085 96.6591 18.6606 95.0819 18.6606 93.1362C18.6606 91.1905 17.085 89.6133 15.1413 89.6133C13.1977 89.6133 11.6221 91.1905 11.6221 93.1362C11.6221 95.0819 13.1977 96.6591 15.1413 96.6591Z" fill="#246EB2"/>
<path opacity="0.15" d="M13.1619 105.466C14.3767 105.466 15.3615 104.48 15.3615 103.264C15.3615 102.048 14.3767 101.062 13.1619 101.062C11.9472 101.062 10.9624 102.048 10.9624 103.264C10.9624 104.48 11.9472 105.466 13.1619 105.466Z" fill="#246EB2"/>
<path opacity="0.15" d="M123.023 64.6723C122.04 64.3783 121.127 63.8872 120.339 63.2288C119.552 62.5704 118.907 61.7585 118.443 60.8425C117.979 59.9265 117.706 58.9255 117.64 57.9006C117.575 56.8756 117.719 55.8481 118.063 54.8805C118.788 52.8302 120.433 51.3189 121.413 49.4087C122.374 47.5345 122.598 45.3682 122.042 43.3367C121.486 41.3051 120.19 39.5557 118.41 38.4331C118.205 38.3034 117.995 38.1829 117.78 38.0715C117.577 37.9656 117.757 37.6582 117.96 37.764C119.797 38.7187 121.238 40.2925 122.028 42.2076C122.818 44.1226 122.907 46.2556 122.278 48.2298C121.932 49.2544 121.43 50.2198 120.792 51.0924C120.178 51.9709 119.507 52.813 118.977 53.747C118.432 54.6964 118.105 55.7549 118.019 56.8462C117.933 57.9375 118.09 59.0343 118.478 60.0576C118.838 60.9602 119.374 61.7818 120.055 62.4743C120.736 63.1667 121.549 63.7161 122.445 64.0901C122.665 64.1813 122.89 64.26 123.117 64.329C123.161 64.3428 123.198 64.3732 123.22 64.4137C123.242 64.4543 123.248 64.5018 123.236 64.5464C123.223 64.5909 123.194 64.6289 123.155 64.6524C123.115 64.6759 123.068 64.683 123.023 64.6723H123.023Z" fill="#246EB2"/>
<path opacity="0.15" d="M117.86 41.3974C119.804 41.3974 121.379 39.8202 121.379 37.8745C121.379 35.9288 119.804 34.3516 117.86 34.3516C115.916 34.3516 114.341 35.9288 114.341 37.8745C114.341 39.8202 115.916 41.3974 117.86 41.3974Z" fill="#246EB2"/>
<path opacity="0.15" d="M119.84 50.2005C121.054 50.2005 122.039 49.2147 122.039 47.9987C122.039 46.7827 121.054 45.7969 119.84 45.7969C118.625 45.7969 117.64 46.7827 117.64 47.9987C117.64 49.2147 118.625 50.2005 119.84 50.2005Z" fill="#246EB2"/>
<path d="M91.09 28.3954H90.4341V10.4097C90.4341 9.04266 90.1651 7.68903 89.6426 6.42607C89.12 5.16311 88.354 4.01556 87.3884 3.04893C86.4228 2.0823 85.2764 1.31553 84.0148 0.792393C82.7531 0.269257 81.4009 1.15661e-06 80.0353 0H41.9697C39.2117 -5.25565e-06 36.5667 1.09672 34.6166 3.04891C32.6664 5.0011 31.5708 7.64883 31.5708 10.4096V109.081C31.5708 110.448 31.8398 111.802 32.3624 113.065C32.8849 114.328 33.6509 115.475 34.6165 116.442C35.5822 117.408 36.7285 118.175 37.9902 118.698C39.2518 119.221 40.604 119.491 41.9696 119.491H80.0352C82.7932 119.491 85.4382 118.394 87.3883 116.442C89.3385 114.49 90.4341 111.842 90.4341 109.081V41.198H91.09V28.3954Z" fill="#D6E4F8"/>
<path d="M80.4546 2.70704H75.4858C75.7143 3.26784 75.8015 3.87628 75.7398 4.47878C75.6781 5.08127 75.4692 5.65932 75.1318 6.162C74.7943 6.66469 74.3385 7.07658 73.8046 7.36139C73.2706 7.6462 72.6749 7.79519 72.0699 7.79523H50.2625C49.6575 7.79519 49.0618 7.6462 48.5278 7.36139C47.9939 7.07658 47.5381 6.66469 47.2006 6.162C46.8631 5.65932 46.6543 5.08127 46.5926 4.47877C46.5309 3.87628 46.6181 3.26783 46.8466 2.70703H42.2057C41.1859 2.70703 40.176 2.90811 39.2339 3.29878C38.2917 3.68945 37.4356 4.26206 36.7145 4.98393C35.9934 5.7058 35.4213 6.56278 35.0311 7.50594C34.6408 8.4491 34.4399 9.45998 34.4399 10.4809V109.007C34.4399 110.028 34.6408 111.039 35.0311 111.982C35.4213 112.925 35.9934 113.782 36.7145 114.504C37.4356 115.226 38.2917 115.799 39.2339 116.189C40.176 116.58 41.1859 116.781 42.2057 116.781H80.4546C81.4744 116.781 82.4842 116.58 83.4264 116.189C84.3686 115.799 85.2247 115.226 85.9458 114.504C86.6669 113.782 87.239 112.925 87.6292 111.982C88.0195 111.039 88.2204 110.028 88.2204 109.007V10.4809C88.2204 9.45998 88.0195 8.44911 87.6292 7.50594C87.239 6.56278 86.6669 5.7058 85.9458 4.98393C85.2247 4.26207 84.3686 3.68945 83.4264 3.29878C82.4842 2.90811 81.4744 2.70704 80.4546 2.70704Z" fill="white"/>
<path d="M77.9923 79.6153C77.9081 79.6128 77.8283 79.5776 77.7697 79.5171C77.7112 79.4566 77.6785 79.3756 77.6787 79.2913C77.6789 79.2071 77.7119 79.1262 77.7707 79.066C77.8296 79.0057 77.9095 78.9709 77.9937 78.9688C78.0778 78.9712 78.1576 79.0065 78.2162 79.067C78.2747 79.1275 78.3074 79.2085 78.3072 79.2927C78.307 79.377 78.274 79.4578 78.2152 79.5181C78.1564 79.5783 78.0764 79.6132 77.9923 79.6153Z" fill="white"/>
<path d="M80.6692 56.1548H41.9908C41.7523 56.1545 41.5237 56.0595 41.3551 55.8907C41.1864 55.7219 41.0916 55.4931 41.0913 55.2543V31.3028C41.0916 31.0641 41.1864 30.8352 41.3551 30.6664C41.5237 30.4976 41.7523 30.4026 41.9908 30.4023H80.6692C80.9077 30.4026 81.1363 30.4976 81.3049 30.6664C81.4735 30.8352 81.5684 31.0641 81.5687 31.3028V55.2543C81.5684 55.4931 81.4735 55.7219 81.3049 55.8907C81.1363 56.0595 80.9077 56.1545 80.6692 56.1548Z" fill="white"/>
<path d="M80.5779 56.1548H41.8995C41.661 56.1545 41.4324 56.0595 41.2638 55.8907C41.0951 55.7219 41.0003 55.4931 41 55.2543V31.3028C41.0003 31.0641 41.0951 30.8352 41.2638 30.6664C41.4324 30.4976 41.661 30.4026 41.8995 30.4023H80.5779C80.8164 30.4026 81.045 30.4976 81.2136 30.6664C81.3823 30.8352 81.4771 31.0641 81.4774 31.3028V55.2543C81.4771 55.4931 81.3823 55.7219 81.2136 55.8907C81.045 56.0595 80.8164 56.1545 80.5779 56.1548ZM41.8995 30.7625C41.7564 30.7627 41.6192 30.8197 41.518 30.9209C41.4169 31.0222 41.36 31.1595 41.3598 31.3028V55.2543C41.36 55.3976 41.4169 55.5349 41.518 55.6362C41.6192 55.7375 41.7564 55.7944 41.8995 55.7946H80.5779C80.721 55.7944 80.8582 55.7375 80.9593 55.6362C81.0605 55.5349 81.1174 55.3976 81.1176 55.2543V31.3028C81.1174 31.1595 81.0605 31.0222 80.9593 30.9209C80.8582 30.8197 80.721 30.7627 80.5779 30.7625H41.8995Z" fill="#CACACA"/>
<path d="M73.0234 41.3005H49.6365C49.4222 41.2998 49.217 41.2141 49.0658 41.0622C48.9145 40.9103 48.8296 40.7045 48.8296 40.4901C48.8296 40.2756 48.9145 40.0699 49.0658 39.918C49.217 39.7661 49.4222 39.6804 49.6365 39.6797H73.0234C73.1299 39.6793 73.2355 39.7 73.334 39.7406C73.4326 39.7812 73.5221 39.8408 73.5976 39.9161C73.673 39.9914 73.7329 40.0808 73.7737 40.1793C73.8146 40.2778 73.8356 40.3834 73.8356 40.4901C73.8356 40.5967 73.8146 40.7023 73.7737 40.8008C73.7329 40.8993 73.673 40.9888 73.5976 41.0641C73.5221 41.1393 73.4326 41.199 73.334 41.2395C73.2355 41.2801 73.1299 41.3008 73.0234 41.3005Z" fill="#246EB2"/>
<path d="M73.0234 46.8825H49.6365C49.4222 46.8818 49.217 46.7961 49.0658 46.6442C48.9145 46.4923 48.8296 46.2866 48.8296 46.0721C48.8296 45.8576 48.9145 45.6519 49.0658 45.5C49.217 45.3481 49.4222 45.2624 49.6365 45.2617H73.0234C73.1299 45.2614 73.2355 45.2821 73.334 45.3226C73.4326 45.3632 73.5221 45.4228 73.5976 45.4981C73.673 45.5734 73.7329 45.6629 73.7737 45.7614C73.8146 45.8599 73.8356 45.9655 73.8356 46.0721C73.8356 46.1788 73.8146 46.2843 73.7737 46.3828C73.7329 46.4813 73.673 46.5708 73.5976 46.6461C73.5221 46.7214 73.4326 46.781 73.334 46.8216C73.2355 46.8621 73.1299 46.8828 73.0234 46.8825Z" fill="#246EB2"/>
<path d="M121.579 76.6197C121.541 76.7575 121.515 76.8981 121.5 77.04L110.188 82.9869L107.562 81.3311L104.547 84.9725L108.913 88.3562C109.265 88.6295 109.697 88.781 110.143 88.7878C110.589 88.7947 111.025 88.6565 111.386 88.3941L123.146 79.8416C123.653 80.0528 124.213 80.1044 124.75 79.9896C125.287 79.8748 125.776 79.599 126.153 79.1989C126.53 78.7989 126.776 78.2935 126.858 77.75C126.941 77.2066 126.857 76.6507 126.616 76.1565C126.376 75.6622 125.991 75.253 125.512 74.9832C125.034 74.7134 124.484 74.5958 123.938 74.6461C123.391 74.6964 122.872 74.9122 122.451 75.2647C122.029 75.6173 121.725 76.0899 121.579 76.6197Z" fill="#FFB6B6"/>
<path d="M135.217 116.916L137.485 115.456L132.938 106.004L129.591 108.159L135.217 116.916Z" fill="#FFB6B6"/>
<path d="M134.162 116.547L138.629 113.671L138.629 113.671C139.384 113.185 140.301 113.019 141.178 113.21C142.055 113.401 142.82 113.932 143.306 114.688L143.365 114.781L136.052 119.489L134.162 116.547Z" fill="#2F2E41"/>
<path d="M102.539 100.68L119.949 89.5217C119.949 89.5217 123.148 89.2126 125.068 93.0002L136.663 109.673L131.716 113.024L118.849 99.6501L110.02 108.391C110.02 108.391 123.029 106.256 122.589 114.843C122.24 121.658 104.436 119.32 97.1015 118.065C95.7084 117.837 94.3824 117.305 93.2177 116.507C92.053 115.709 91.078 114.664 90.362 113.446C89.5754 112.081 89.1526 110.53 89.8133 109.064C91.5751 105.155 102.539 100.68 102.539 100.68Z" fill="#2F2E41"/>
<path d="M93.9084 110.008L88.8911 108.992L90.3209 84.3409L96.0939 77.2623L99.5334 76.6527C100.559 76.4666 101.617 76.6728 102.497 77.2306C103.378 77.7884 104.017 78.6571 104.288 79.6643L105.804 85.2085C108.376 89.5684 104.773 94.6237 104.44 95.073L104.628 102.719L93.9084 110.008Z" fill="#246EB2"/>
<path d="M98.5801 78.2242L98.8984 77.0969C98.8984 77.0969 102.353 74.548 107.632 81.1535L105.103 85.6672L99.6036 85.447L98.5801 78.2242Z" fill="#246EB2"/>
<path d="M106.527 69.453C107.506 73.4692 103.648 73.7677 99.072 74.8851C94.4957 76.0026 90.934 77.516 89.9553 73.4997C88.9766 69.4835 89.054 61.9219 95.5279 60.3411C102.225 58.7058 105.549 65.4368 106.527 69.453Z" fill="#2F2E41"/>
<path d="M97.6826 75.0489C100.852 75.0489 103.422 72.4767 103.422 69.3038C103.422 66.1308 100.852 63.5586 97.6826 63.5586C94.5129 63.5586 91.9434 66.1308 91.9434 69.3038C91.9434 72.4767 94.5129 75.0489 97.6826 75.0489Z" fill="#FFB6B6"/>
<path d="M91.1072 70.3315L93.3124 69.793L93.6208 66.8284L94.4799 69.5079L95.5339 69.2505L95.7138 67.5212L96.215 69.0842L104.047 67.1717C103.858 66.3958 103.518 65.6648 103.047 65.0203C102.575 64.3759 101.982 63.8307 101.3 63.4159C100.618 63.0011 99.8616 62.7248 99.0731 62.6027C98.2847 62.4806 97.4799 62.5152 96.7048 62.7045L95.5697 62.9817C94.7946 63.171 94.0643 63.5112 93.4206 63.983C92.7768 64.4548 92.2322 65.0489 91.8178 65.7314C91.4034 66.4139 91.1274 67.1714 91.0055 67.9607C90.8835 68.75 90.9181 69.5556 91.1072 70.3315Z" fill="#2F2E41"/>
<path d="M162.731 77.3345H124.053C123.814 77.3342 123.586 77.2392 123.417 77.0704C123.248 76.9016 123.154 76.6728 123.153 76.434V52.4825C123.154 52.2437 123.248 52.0149 123.417 51.8461C123.586 51.6773 123.814 51.5823 124.053 51.582H162.731C162.97 51.5823 163.198 51.6773 163.367 51.8461C163.536 52.0149 163.63 52.2437 163.631 52.4825V76.434C163.63 76.6728 163.536 76.9016 163.367 77.0704C163.198 77.2392 162.97 77.3342 162.731 77.3345Z" fill="white"/>
<path d="M162.731 77.3345H124.053C123.814 77.3342 123.586 77.2392 123.417 77.0704C123.248 76.9016 123.154 76.6728 123.153 76.434V52.4825C123.154 52.2437 123.248 52.0149 123.417 51.8461C123.586 51.6773 123.814 51.5823 124.053 51.582H162.731C162.97 51.5823 163.198 51.6773 163.367 51.8461C163.536 52.0149 163.63 52.2437 163.631 52.4825V76.434C163.63 76.6728 163.536 76.9016 163.367 77.0704C163.198 77.2392 162.97 77.3342 162.731 77.3345ZM124.053 51.9422C123.91 51.9424 123.773 51.9993 123.671 52.1006C123.57 52.2019 123.513 52.3392 123.513 52.4825V76.434C123.513 76.5773 123.57 76.7146 123.671 76.8159C123.773 76.9172 123.91 76.9742 124.053 76.9743H162.731C162.874 76.9742 163.011 76.9172 163.113 76.8159C163.214 76.7146 163.271 76.5773 163.271 76.434V52.4825C163.271 52.3392 163.214 52.2019 163.113 52.1006C163.011 51.9993 162.874 51.9424 162.731 51.9422H124.053Z" fill="#CACACA"/>
<path d="M155.086 62.4763H131.699C131.592 62.4764 131.487 62.4556 131.388 62.415C131.29 62.3743 131.201 62.3146 131.125 62.2394C131.05 62.1641 130.99 62.0747 130.949 61.9763C130.909 61.8779 130.888 61.7724 130.888 61.6659C130.888 61.5593 130.909 61.4538 130.949 61.3554C130.99 61.257 131.05 61.1676 131.125 61.0924C131.201 61.0171 131.29 60.9574 131.388 60.9168C131.487 60.8761 131.592 60.8553 131.699 60.8555H155.086C155.3 60.8555 155.506 60.9409 155.658 61.0928C155.81 61.2448 155.895 61.4509 155.895 61.6659C155.895 61.8808 155.81 62.0869 155.658 62.2389C155.506 62.3909 155.3 62.4763 155.086 62.4763Z" fill="#246EB2"/>
<path d="M155.085 68.0582H131.699C131.592 68.0587 131.486 68.038 131.388 67.9975C131.289 67.957 131.2 67.8973 131.124 67.8221C131.048 67.7468 130.989 67.6573 130.948 67.5587C130.907 67.4602 130.886 67.3546 130.886 67.2479C130.886 67.1412 130.907 67.0355 130.948 66.937C130.989 66.8385 131.048 66.749 131.124 66.6737C131.2 66.5984 131.289 66.5388 131.388 66.4982C131.486 66.4577 131.592 66.4371 131.699 66.4375H155.085C155.3 66.4384 155.505 66.5241 155.656 66.676C155.807 66.8279 155.892 67.0335 155.892 67.2479C155.892 67.4622 155.807 67.6679 155.656 67.8197C155.505 67.9716 155.3 68.0574 155.085 68.0582Z" fill="#246EB2"/>
<path d="M107.512 97.7164C107.374 97.7524 107.239 97.7993 107.108 97.8566L96.3411 90.9705L96.4756 87.8662L91.822 87.0508L91.0505 92.5232C90.9882 92.9653 91.0708 93.4157 91.2859 93.8068C91.5011 94.1979 91.8372 94.5086 92.2437 94.6922L105.494 100.677C105.562 101.222 105.794 101.734 106.16 102.144C106.526 102.554 107.008 102.843 107.542 102.972C108.076 103.101 108.636 103.064 109.149 102.867C109.661 102.669 110.102 102.32 110.411 101.866C110.721 101.412 110.885 100.875 110.882 100.325C110.878 99.7751 110.708 99.2393 110.393 98.7888C110.079 98.3383 109.634 97.9944 109.12 97.8028C108.605 97.6112 108.044 97.5811 107.512 97.7164H107.512Z" fill="#FFB6B6"/>
<path d="M96.9651 78.3875L96.1537 77.3635C96.1537 77.3635 92.8955 76.313 91.1358 80.7166C89.3762 85.1203 91.0259 89.4139 91.0259 89.4139L98.7243 90.0744L99.2742 82.9185L96.9651 78.3875Z" fill="#246EB2"/>
<path d="M180.363 119.999H0.219954C0.161619 119.999 0.105672 119.976 0.064423 119.934C0.0231735 119.893 0 119.837 0 119.779C0 119.72 0.0231735 119.664 0.064423 119.623C0.105672 119.582 0.161619 119.559 0.219954 119.559H180.363C180.421 119.559 180.477 119.582 180.518 119.623C180.559 119.664 180.583 119.72 180.583 119.779C180.583 119.837 180.559 119.893 180.518 119.934C180.477 119.976 180.421 119.999 180.363 119.999Z" fill="#D6E4F8"/>
<path d="M68.7629 85.332C68.7365 85.332 68.7102 85.332 68.6837 85.3319C68.0604 85.3334 67.4844 85.3175 66.9243 85.2832C66.4108 85.2518 65.942 85.0732 65.5687 84.767C65.2084 84.4714 64.9624 84.0718 64.8375 83.5794C64.7288 83.1507 64.723 82.7299 64.7175 82.3228C64.7135 82.0308 64.7093 81.6847 64.7085 81.3328C64.7093 80.9794 64.7135 80.6333 64.7175 80.3412C64.723 79.9343 64.7288 79.5134 64.8375 79.0846C64.9624 78.5922 65.2084 78.1926 65.5687 77.8971C65.942 77.5908 66.4108 77.4123 66.9244 77.3808C67.4845 77.3466 68.0605 77.3306 68.6852 77.3321C69.3087 77.3308 69.8845 77.3466 70.4446 77.3808C70.9581 77.4123 71.4268 77.5908 71.8002 77.8971C72.1605 78.1926 72.4065 78.5922 72.5314 79.0846C72.6401 79.5134 72.6459 79.9343 72.6514 80.3412C72.6554 80.6333 72.6596 80.9794 72.6604 81.3313V81.3328C72.6596 81.6847 72.6554 82.0308 72.6514 82.3228C72.6459 82.7298 72.6402 83.1506 72.5314 83.5794C72.4065 84.0718 72.1605 84.4714 71.8002 84.767C71.4268 85.0732 70.9581 85.2518 70.4446 85.2832C69.9082 85.316 69.3572 85.332 68.7629 85.332ZM68.6837 84.7069C69.2969 84.7084 69.8599 84.6928 70.4068 84.6594C70.7951 84.6356 71.1318 84.5088 71.4076 84.2826C71.6625 84.0734 71.8381 83.7848 71.9294 83.4249C72.02 83.068 72.0252 82.6848 72.0302 82.3143C72.0341 82.0242 72.0383 81.6805 72.0391 81.332C72.0383 80.9834 72.0341 80.6399 72.0302 80.3498C72.0252 79.9792 72.02 79.5961 71.9294 79.2391C71.8381 78.8791 71.6625 78.5906 71.4076 78.3814C71.1318 78.1552 70.7951 78.0284 70.4068 78.0047C69.8599 77.9712 69.2969 77.9557 68.6851 77.9571C68.0721 77.9556 67.509 77.9712 66.962 78.0047C66.5737 78.0284 66.2371 78.1552 65.9613 78.3814C65.7063 78.5906 65.5308 78.8791 65.4395 79.2391C65.3489 79.5961 65.3437 79.9792 65.3387 80.3498C65.3347 80.6401 65.3306 80.9839 65.3298 81.3328C65.3306 81.68 65.3347 82.0239 65.3387 82.3143C65.3437 82.6848 65.3489 83.068 65.4395 83.4249C65.5308 83.7848 65.7063 84.0734 65.9613 84.2826C66.2371 84.5088 66.5737 84.6356 66.962 84.6593C67.509 84.6928 68.0722 84.7084 68.6837 84.7069ZM68.6689 83.2852C67.5984 83.2852 66.7274 82.409 66.7274 81.332C66.7274 80.2551 67.5984 79.3789 68.6689 79.3789C69.7394 79.3789 70.6103 80.2551 70.6103 81.332C70.6103 82.409 69.7394 83.2852 68.6689 83.2852ZM68.6689 80.0039C67.941 80.0039 67.3487 80.5997 67.3487 81.332C67.3487 82.0643 67.941 82.6601 68.6689 82.6601C69.3969 82.6601 69.9891 82.0643 69.9891 81.332C69.9891 80.5997 69.3969 80.0039 68.6689 80.0039ZM70.8278 78.7539C70.5705 78.7539 70.3618 78.9637 70.3618 79.2226C70.3618 79.4816 70.5705 79.6914 70.8278 79.6914C71.0851 79.6914 71.2937 79.4816 71.2937 79.2226C71.2937 78.9637 71.0851 78.7539 70.8278 78.7539Z" fill="#3F3D56"/>
<path d="M52.6913 79.0546V80.0861H54.0968L53.8981 81.5646H52.6894V85.2031H51.2162V81.5646H50V80.0831H51.2162V78.8396C51.2163 78.6245 51.2585 78.4115 51.3405 78.2128C51.4224 78.0141 51.5425 77.8336 51.6938 77.6816C51.8452 77.5296 52.0248 77.4091 52.2225 77.327C52.4202 77.2449 52.6321 77.2028 52.8459 77.2031H54.1153V78.5336H53.2067C53.1387 78.5331 53.0714 78.5461 53.0084 78.5718C52.9455 78.5976 52.8883 78.6356 52.84 78.6836C52.7921 78.7325 52.7542 78.7904 52.7287 78.8541C52.7032 78.9178 52.6905 78.986 52.6913 79.0546Z" fill="#3F3D56"/>
</g>
<defs>
<clipPath id="clip0">
<rect width="180.583" height="120" fill="white"/>
</clipPath>
</defs>
</svg>
