<svg width="104" height="105" viewBox="0 0 104 105" fill="none" xmlns="http://www.w3.org/2000/svg">
<path d="M65.2986 73.9414C65.2986 73.9414 79.065 74.6531 75.8585 78.9868C72.652 83.3204 64.2266 76.4446 64.2266 76.4446L65.2986 73.9414Z" fill="#FFB8B8"/>
<path d="M39.9293 32.6641L42.7314 33.3646C42.7314 33.3646 44.3659 38.2682 45.5334 42.7048C46.701 47.1414 49.036 60.4512 49.036 60.4512L67.139 73.1383L64.9799 77.9684L40.8634 68.4636L35.4927 47.3749L39.9293 32.6641Z" fill="#246EB2"/>
<path opacity="0.2" d="M42.5658 41.3672L41.5214 63.2373L43.7007 69.7396L37.3169 65.0581L42.5658 41.3672Z" fill="black"/>
<path d="M46.3508 80.184C46.3508 80.184 49.3864 88.3567 49.8534 93.9609C50.3204 99.565 50.7874 104.002 50.7874 104.002H36.5435L33.7415 99.7985V104.002H17.1626C17.1626 104.002 12.4925 88.8237 14.3605 86.9557C16.2285 85.0876 33.975 77.1484 33.975 77.1484L46.3508 80.184Z" fill="#2F2E41"/>
<path d="M28.488 23.7894C33.3885 23.7894 37.3612 19.8167 37.3612 14.9162C37.3612 10.0156 33.3885 6.04297 28.488 6.04297C23.5874 6.04297 19.6147 10.0156 19.6147 14.9162C19.6147 19.8167 23.5874 23.7894 28.488 23.7894Z" fill="#FFB8B8"/>
<path d="M21.7161 18.6523L21.0156 28.9266L29.8888 40.8354L34.3254 29.6271C34.3254 29.6271 30.3559 27.0585 32.6909 21.6879L21.7161 18.6523Z" fill="#FFB8B8"/>
<path d="M47.6346 82.1669C47.6346 84.2693 41.797 87.5378 41.797 87.5378V88.7053L39.462 89.8728L34.3251 79.5992L32.925 90.8063C32.925 90.8063 22.6499 92.4419 19.3814 90.8063C16.1115 89.172 14.4772 89.8728 9.80714 88.2386C5.13705 86.6043 11.6755 64.654 11.6755 64.654L7.00537 30.7958L17.2081 25.6945L17.7457 25.4249L19.1488 25.1667L21.2994 24.7695L28.4875 29.6283L29.0663 32.6641L29.4224 34.5325L31.2893 32.4301L32.6994 27.7926L42.7319 33.3649L39.9301 55.7805C39.9301 55.7805 47.6346 80.0659 47.6346 82.1669Z" fill="#246EB2"/>
<path d="M13.3102 89.4062C13.3102 89.4062 24.0514 98.046 18.9143 99.6805C13.7772 101.315 10.9751 90.8073 10.9751 90.8073L13.3102 89.4062Z" fill="#FFB8B8"/>
<path d="M9.34023 31.2639L7.00517 30.7969C7.00517 30.7969 3.50259 32.6649 3.26908 36.401C3.03557 40.1371 0 66.2897 0 66.2897L9.80724 92.6759L17.7464 89.6403L10.0407 64.8887L15.8784 43.4062L9.34023 31.2639Z" fill="#246EB2"/>
<path d="M29.5147 38.3898C29.9848 38.3898 30.3659 38.0088 30.3659 37.5387C30.3659 37.0686 29.9848 36.6875 29.5147 36.6875C29.0447 36.6875 28.6636 37.0686 28.6636 37.5387C28.6636 38.0088 29.0447 38.3898 29.5147 38.3898Z" fill="#2F2E41"/>
<path d="M29.5147 43.9211C29.9848 43.9211 30.3659 43.54 30.3659 43.0699C30.3659 42.5998 29.9848 42.2188 29.5147 42.2188C29.0447 42.2188 28.6636 42.5998 28.6636 43.0699C28.6636 43.54 29.0447 43.9211 29.5147 43.9211Z" fill="#2F2E41"/>
<path d="M34.3375 80.3781C34.8076 80.3781 35.1887 79.997 35.1887 79.527C35.1887 79.0569 34.8076 78.6758 34.3375 78.6758C33.8674 78.6758 33.4863 79.0569 33.4863 79.527C33.4863 79.997 33.8674 80.3781 34.3375 80.3781Z" fill="#2F2E41"/>
<path d="M20.9961 5.82726L19.3559 5.17059C19.3559 5.17059 22.7855 1.39475 27.5572 1.7231L26.2151 0.245587C26.2151 0.245587 29.4957 -1.06774 32.478 2.37976C34.0457 4.19202 35.8596 6.32226 36.9904 8.72193H38.747L38.0138 10.3362L40.5798 11.9505L37.9461 11.6606C38.103 12.5446 38.1271 13.4471 38.0175 14.3382C37.9046 15.2296 37.4497 16.0422 36.7489 16.6046C36.7489 16.6046 34.7147 12.3939 34.7147 11.7372V13.3789C34.7147 13.3789 33.0744 11.9014 33.0744 10.9164L32.1797 12.0656H26.2151L27.1098 10.5881L23.6802 11.0806L25.0222 9.27475L19.7122 16.7317C19.7122 16.7317 16.6718 8.28975 20.9961 5.82726Z" fill="#2F2E41"/>
<path d="M103 48.5C103 58.165 95.165 66 85.5 66C75.835 66 68 58.165 68 48.5C68 38.835 75.835 31 85.5 31C95.165 31 103 38.835 103 48.5Z" fill="#FAE20E" stroke="#F1DB19" stroke-width="2"/>
<path opacity="0.2" d="M12.1372 71.6212L17.811 89.3444L13.2714 70.9023L12.1372 71.6212Z" fill="black"/>
<path d="M89.252 53.452C90.098 52.264 90.53 50.68 90.53 48.7C90.53 46.72 90.098 45.136 89.252 43.948C88.406 42.76 87.2 42.166 85.67 42.166C84.14 42.166 82.934 42.76 82.088 43.948C81.242 45.136 80.81 46.72 80.81 48.7C80.81 50.68 81.242 52.264 82.088 53.452C82.934 54.64 84.14 55.234 85.67 55.234C87.2 55.234 88.406 54.64 89.252 53.452ZM82.484 48.7C82.484 45.55 83.636 43.786 85.67 43.786C87.704 43.786 88.874 45.586 88.874 48.7C88.874 51.814 87.704 53.596 85.67 53.596C83.636 53.596 82.484 51.814 82.484 48.7Z" fill="#887B0A"/>
<path d="M89.8904 103.999H0.109622C0.0805487 103.999 0.0526658 103.976 0.0321076 103.934C0.0115494 103.893 0 103.837 0 103.779C0 103.72 0.0115494 103.664 0.0321076 103.623C0.0526658 103.582 0.0805487 103.559 0.109622 103.559H89.8904C89.9194 103.559 89.9473 103.582 89.9679 103.623C89.9884 103.664 90 103.72 90 103.779C90 103.837 89.9884 103.893 89.9679 103.934C89.9473 103.976 89.9194 103.999 89.8904 103.999Z" fill="#D6E4F8"/>
</svg>
