<svg width="261" height="137" viewBox="0 0 261 137" fill="none" xmlns="http://www.w3.org/2000/svg">
<g clip-path="url(#clip0)">
<g opacity="0.1">
<path opacity="0.1" d="M114.131 89.8698C115.627 89.8698 116.84 88.2796 116.84 86.3181C116.84 84.3565 115.627 82.7664 114.131 82.7664C112.635 82.7664 111.422 84.3565 111.422 86.3181C111.422 88.2796 112.635 89.8698 114.131 89.8698Z" fill="#3F3D56"/>
<path opacity="0.1" d="M116.276 71.1217C116.654 70.461 116.849 69.7115 116.842 68.9501C116.842 66.9884 115.628 65.3984 114.131 65.3984C112.634 65.3984 111.412 66.9931 111.412 68.9549C111.405 69.7163 111.601 70.4658 111.979 71.1264C111.608 71.7894 111.412 72.5367 111.412 73.2968C111.412 74.0569 111.608 74.8042 111.979 75.4671C111.608 76.1301 111.412 76.8774 111.412 77.6375C111.412 78.3976 111.608 79.1449 111.979 79.8078C111.6 80.4683 111.405 81.2179 111.412 81.9794C111.412 83.9388 112.626 85.5311 114.121 85.5311C115.616 85.5311 116.833 83.9388 116.833 81.9794C116.84 81.2179 116.645 80.4683 116.266 79.8078C116.638 79.1449 116.833 78.3976 116.833 77.6375C116.833 76.8774 116.638 76.1301 116.266 75.4671C116.638 74.8042 116.833 74.0569 116.833 73.2968C116.833 72.5367 116.638 71.7894 116.266 71.1264L116.276 71.1217Z" fill="#3F3D56"/>
<path opacity="0.1" d="M114.131 68.1659C115.627 68.1659 116.84 66.5757 116.84 64.6142C116.84 62.6526 115.627 61.0625 114.131 61.0625C112.635 61.0625 111.422 62.6526 111.422 64.6142C111.422 66.5757 112.635 68.1659 114.131 68.1659Z" fill="#3F3D56"/>
<path opacity="0.1" d="M114.131 63.8268C115.627 63.8268 116.84 62.2366 116.84 60.2751C116.84 58.3135 115.627 56.7234 114.131 56.7234C112.635 56.7234 111.422 58.3135 111.422 60.2751C111.422 62.2366 112.635 63.8268 114.131 63.8268Z" fill="#3F3D56"/>
<path opacity="0.1" d="M103.989 30.5659C103.618 30.0947 103.281 29.5976 102.98 29.0785L110.098 27.9081L102.399 27.9653C101.662 26.3553 101.261 24.6117 101.22 22.8411C101.179 21.0705 101.499 19.3102 102.161 17.6678L112.49 23.0334L102.968 16.0206C103.853 14.4623 105.051 13.1042 106.486 12.0317C107.92 10.9591 109.561 10.1954 111.305 9.78848C113.049 9.38155 114.858 9.34021 116.618 9.66707C118.379 9.99392 120.052 10.6819 121.535 11.6878C123.017 12.6936 124.275 13.9956 125.23 15.5119C126.186 17.0282 126.818 18.7259 127.086 20.4985C127.354 22.271 127.254 24.08 126.79 25.8117C126.327 27.5435 125.511 29.1605 124.393 30.5611C124.97 31.2953 125.467 32.0897 125.874 32.9305L116.63 37.7503L126.483 34.4394C127.176 36.4874 127.347 38.6761 126.982 40.8072C126.616 42.9382 125.726 44.9444 124.391 46.6439C125.897 48.5607 126.834 50.8633 127.094 53.2882C127.355 55.7132 126.929 58.1627 125.865 60.3566C124.801 62.5505 123.142 64.4002 121.077 65.6944C119.012 66.9886 116.626 67.6749 114.19 67.6749C111.754 67.6749 109.368 66.9886 107.303 65.6944C105.238 64.4002 103.579 62.5505 102.515 60.3566C101.451 58.1627 101.025 55.7132 101.286 53.2882C101.546 50.8633 102.483 48.5607 103.989 46.6439C102.189 44.3531 101.211 41.5231 101.211 38.6084C101.211 35.6938 102.189 32.8638 103.989 30.573V30.5659Z" fill="#246EB2"/>
<path opacity="0.1" d="M127.169 38.6017C127.173 41.5171 126.194 44.3486 124.391 46.6371C125.897 48.554 126.834 50.8566 127.094 53.2815C127.355 55.7065 126.929 58.1559 125.865 60.3498C124.801 62.5437 123.141 64.3935 121.077 65.6877C119.012 66.9819 116.626 67.6682 114.19 67.6682C111.754 67.6682 109.367 66.9819 107.303 65.6877C105.238 64.3935 103.579 62.5437 102.515 60.3498C101.451 58.1559 101.025 55.7065 101.285 53.2815C101.546 50.8566 102.483 48.554 103.989 46.6371C102.249 44.425 127.169 37.1429 127.169 38.6017Z" fill="black"/>
</g>
<g opacity="0.1">
<path opacity="0.1" d="M145.756 81.3764C146.875 81.3764 147.782 80.1886 147.782 78.7233C147.782 77.2581 146.875 76.0703 145.756 76.0703C144.637 76.0703 143.73 77.2581 143.73 78.7233C143.73 80.1886 144.637 81.3764 145.756 81.3764Z" fill="#3F3D56"/>
<path opacity="0.1" d="M147.357 67.3691C147.638 66.8758 147.784 66.3164 147.778 65.7482C147.778 64.2822 146.871 63.0928 145.755 63.0928C144.638 63.0928 143.729 64.2846 143.729 65.7482C143.723 66.3167 143.869 66.8765 144.152 67.3691C143.875 67.8645 143.729 68.4231 143.729 68.9912C143.729 69.5593 143.875 70.1179 144.152 70.6133C143.875 71.1087 143.729 71.6673 143.729 72.2354C143.729 72.8035 143.875 73.3621 144.152 73.8575C143.869 74.3501 143.723 74.9099 143.729 75.4784C143.729 76.9444 144.636 78.1338 145.755 78.1338C146.873 78.1338 147.778 76.942 147.778 75.4784C147.784 74.9102 147.638 74.3508 147.357 73.8575C147.632 73.3614 147.777 72.8031 147.777 72.2354C147.777 71.6677 147.632 71.1094 147.357 70.6133C147.632 70.1172 147.777 69.5589 147.777 68.9912C147.777 68.4235 147.632 67.8652 147.357 67.3691Z" fill="#3F3D56"/>
<path opacity="0.1" d="M145.756 65.1581C146.875 65.1581 147.782 63.9703 147.782 62.5051C147.782 61.0399 146.875 59.8521 145.756 59.8521C144.637 59.8521 143.73 61.0399 143.73 62.5051C143.73 63.9703 144.637 65.1581 145.756 65.1581Z" fill="#3F3D56"/>
<path opacity="0.1" d="M145.756 61.9154C146.875 61.9154 147.782 60.7276 147.782 59.2624C147.782 57.7972 146.875 56.6094 145.756 56.6094C144.637 56.6094 143.73 57.7972 143.73 59.2624C143.73 60.7276 144.637 61.9154 145.756 61.9154Z" fill="#3F3D56"/>
<path opacity="0.1" d="M138.177 37.0621C137.899 36.7105 137.647 36.3393 137.423 35.9513L142.743 35.0765L136.989 35.1194C136.437 33.9165 136.136 32.6135 136.104 31.2901C136.072 29.9667 136.31 28.6506 136.804 27.4225L144.524 31.4342L137.404 26.1901C138.07 25.0336 138.966 24.0269 140.038 23.2329C141.11 22.4389 142.334 21.8747 143.633 21.5754C144.932 21.2761 146.279 21.2482 147.59 21.4934C148.9 21.7386 150.146 22.2517 151.25 23.0006C152.354 23.7494 153.291 24.7181 154.004 25.846C154.717 26.974 155.191 28.237 155.395 29.5563C155.598 30.8755 155.529 32.2227 155.189 33.5137C154.85 34.8047 154.249 36.0118 153.423 37.0597C153.853 37.609 154.224 38.2027 154.53 38.8308L147.626 42.423L154.989 39.9487C155.506 41.4792 155.634 43.1147 155.361 44.7071C155.088 46.2996 154.422 47.7986 153.425 49.0687C154.552 50.5007 155.253 52.2215 155.449 54.034C155.645 55.8466 155.328 57.6778 154.533 59.318C153.738 60.9583 152.498 62.3414 150.955 63.3091C149.412 64.2769 147.628 64.7901 145.807 64.7901C143.986 64.7901 142.202 64.2769 140.659 63.3091C139.116 62.3414 137.876 60.9583 137.081 59.318C136.287 57.6778 135.969 55.8466 136.165 54.034C136.361 52.2215 137.062 50.5007 138.189 49.0687C136.844 47.357 136.113 45.2422 136.113 43.0642C136.113 40.8862 136.844 38.7715 138.189 37.0597L138.177 37.0621Z" fill="#246EB2"/>
<path opacity="0.1" d="M155.498 43.0648C155.501 45.2433 154.769 47.3591 153.422 49.0693C154.549 50.5013 155.25 52.2221 155.446 54.0346C155.642 55.8472 155.324 57.6784 154.53 59.3187C153.735 60.9589 152.495 62.3421 150.952 63.3098C149.409 64.2775 147.625 64.7907 145.804 64.7907C143.983 64.7907 142.199 64.2775 140.656 63.3098C139.113 62.3421 137.873 60.9589 137.078 59.3187C136.283 57.6784 135.966 55.8472 136.162 54.0346C136.358 52.2221 137.059 50.5013 138.186 49.0693C136.882 47.4174 155.498 41.9755 155.498 43.0648Z" fill="black"/>
</g>
<g opacity="0.1">
<path opacity="0.1" d="M247.242 80.3346C248.738 80.3346 249.951 78.7444 249.951 76.7829C249.951 74.8213 248.738 73.2312 247.242 73.2312C245.746 73.2312 244.533 74.8213 244.533 76.7829C244.533 78.7444 245.746 80.3346 247.242 80.3346Z" fill="#3F3D56"/>
<path opacity="0.1" d="M245.098 61.5865C244.72 60.9258 244.525 60.1763 244.531 59.415C244.531 57.4532 245.746 55.8633 247.243 55.8633C248.74 55.8633 249.952 57.4532 249.952 59.415C249.959 60.1763 249.763 60.9258 249.385 61.5865C249.757 62.2494 249.952 62.9968 249.952 63.7569C249.952 64.5169 249.757 65.2643 249.385 65.9272C249.757 66.5901 249.952 67.3374 249.952 68.0975C249.952 68.8576 249.757 69.605 249.385 70.2679C249.764 70.9283 249.96 71.678 249.952 72.4394C249.952 74.3988 248.738 75.9911 247.243 75.9911C245.748 75.9911 244.531 74.3988 244.531 72.4394C244.524 71.678 244.719 70.9283 245.098 70.2679C244.727 69.605 244.532 68.8576 244.532 68.0975C244.532 67.3374 244.727 66.5901 245.098 65.9272C244.727 65.2643 244.532 64.5169 244.532 63.7569C244.532 62.9968 244.727 62.2494 245.098 61.5865Z" fill="#3F3D56"/>
<path opacity="0.1" d="M247.244 58.6307C248.74 58.6307 249.953 57.0406 249.953 55.079C249.953 53.1175 248.74 51.5273 247.244 51.5273C245.748 51.5273 244.535 53.1175 244.535 55.079C244.535 57.0406 245.748 58.6307 247.244 58.6307Z" fill="#3F3D56"/>
<path opacity="0.1" d="M247.242 54.2916C248.738 54.2916 249.951 52.7015 249.951 50.7399C249.951 48.7784 248.738 47.1882 247.242 47.1882C245.746 47.1882 244.533 48.7784 244.533 50.7399C244.533 52.7015 245.746 54.2916 247.242 54.2916Z" fill="#3F3D56"/>
<path opacity="0.1" d="M257.384 21.0307C257.755 20.5595 258.093 20.0625 258.393 19.5433L251.276 18.3729L258.974 18.4301C259.711 16.8202 260.113 15.0765 260.154 13.306C260.195 11.5354 259.874 9.77501 259.212 8.13261L248.883 13.4983L258.405 6.48548C257.52 4.92715 256.322 3.56903 254.888 2.49651C253.453 1.42399 251.812 0.660261 250.068 0.253327C248.325 -0.153608 246.516 -0.194947 244.755 0.131909C242.995 0.458765 241.321 1.14675 239.839 2.15261C238.357 3.15847 237.098 4.46046 236.143 5.97674C235.188 7.49301 234.556 9.19079 234.287 10.9633C234.019 12.7359 234.12 14.5449 234.583 16.2766C235.046 18.0083 235.863 19.6253 236.98 21.026C236.403 21.7602 235.907 22.5546 235.499 23.3954L244.743 28.2152L234.89 24.9042C234.198 26.9523 234.026 29.1409 234.392 31.272C234.757 33.4031 235.648 35.4092 236.983 37.1087C235.477 39.0256 234.54 41.3282 234.279 43.7531C234.018 46.1781 234.444 48.6275 235.509 50.8214C236.573 53.0153 238.232 54.8651 240.296 56.1593C242.361 57.4535 244.748 58.1398 247.183 58.1398C249.619 58.1398 252.006 57.4535 254.07 56.1593C256.135 54.8651 257.794 53.0153 258.858 50.8214C259.922 48.6275 260.348 46.1781 260.088 43.7531C259.827 41.3282 258.89 39.0256 257.384 37.1087C259.184 34.818 260.162 31.9879 260.162 29.0733C260.162 26.1587 259.184 23.3286 257.384 21.0379V21.0307Z" fill="#246EB2"/>
<path opacity="0.1" d="M234.203 29.0665C234.198 31.9819 235.177 34.8135 236.981 37.1019C235.475 39.0188 234.538 41.3214 234.278 43.7463C234.017 46.1713 234.443 48.6207 235.507 50.8146C236.571 53.0085 238.23 54.8583 240.295 56.1525C242.36 57.4467 244.746 58.133 247.182 58.133C249.618 58.133 252.004 57.4467 254.069 56.1525C256.134 54.8583 257.793 53.0085 258.857 50.8146C259.921 48.6207 260.347 46.1713 260.086 43.7463C259.826 41.3214 258.889 39.0188 257.383 37.1019C259.123 34.8899 234.203 27.6077 234.203 29.0665Z" fill="black"/>
</g>
<g opacity="0.1">
<path opacity="0.1" d="M221.088 79.946C222.207 79.946 223.114 78.7582 223.114 77.293C223.114 75.8277 222.207 74.6399 221.088 74.6399C219.969 74.6399 219.062 75.8277 219.062 77.293C219.062 78.7582 219.969 79.946 221.088 79.946Z" fill="#3F3D56"/>
<path opacity="0.1" d="M219.49 65.9387C219.208 65.4454 219.063 64.886 219.069 64.3178C219.069 62.8518 219.976 61.6624 221.092 61.6624C222.208 61.6624 223.118 62.8542 223.118 64.3178C223.124 64.8863 222.978 65.4461 222.694 65.9387C222.972 66.4341 223.118 66.9927 223.118 67.5608C223.118 68.1289 222.972 68.6875 222.694 69.1829C222.972 69.6783 223.118 70.2369 223.118 70.805C223.118 71.3731 222.972 71.9317 222.694 72.4271C222.978 72.9197 223.124 73.4795 223.118 74.048C223.118 75.514 222.211 76.7034 221.092 76.7034C219.973 76.7034 219.069 75.5116 219.069 74.048C219.063 73.4798 219.208 72.9204 219.49 72.4271C219.214 71.931 219.07 71.3727 219.07 70.805C219.07 70.2373 219.214 69.679 219.49 69.1829C219.214 68.6868 219.07 68.1285 219.07 67.5608C219.07 66.9931 219.214 66.4348 219.49 65.9387Z" fill="#3F3D56"/>
<path opacity="0.1" d="M221.09 63.7277C222.209 63.7277 223.116 62.5399 223.116 61.0747C223.116 59.6094 222.209 58.4216 221.09 58.4216C219.971 58.4216 219.064 59.6094 219.064 61.0747C219.064 62.5399 219.971 63.7277 221.09 63.7277Z" fill="#3F3D56"/>
<path opacity="0.1" d="M221.088 60.485C222.207 60.485 223.114 59.2972 223.114 57.832C223.114 56.3668 222.207 55.179 221.088 55.179C219.969 55.179 219.062 56.3668 219.062 57.832C219.062 59.2972 219.969 60.485 221.088 60.485Z" fill="#3F3D56"/>
<path opacity="0.1" d="M228.669 35.6317C228.947 35.2801 229.199 34.9089 229.424 34.5209L224.103 33.6461L229.857 33.689C230.409 32.4861 230.71 31.1831 230.742 29.8597C230.774 28.5363 230.536 27.2202 230.043 25.992L222.323 30.0038L229.443 24.7597C228.777 23.6032 227.88 22.5965 226.808 21.8025C225.737 21.0085 224.513 20.4443 223.214 20.145C221.914 19.8457 220.567 19.8178 219.257 20.063C217.946 20.3082 216.7 20.8212 215.597 21.5701C214.493 22.319 213.555 23.2877 212.842 24.4156C212.129 25.5436 211.656 26.8066 211.452 28.1258C211.248 29.4451 211.318 30.7923 211.657 32.0833C211.997 33.3743 212.598 34.5814 213.424 35.6293C212.993 36.1786 212.622 36.7723 212.317 37.4004L219.221 40.9926L211.872 38.5207C211.355 40.0512 211.227 41.6867 211.5 43.2791C211.773 44.8715 212.438 46.3706 213.436 47.6407C212.309 49.0727 211.608 50.7935 211.412 52.606C211.216 54.4186 211.533 56.2498 212.328 57.89C213.123 59.5303 214.363 60.9134 215.906 61.8811C217.449 62.8489 219.233 63.3621 221.054 63.3621C222.875 63.3621 224.659 62.8489 226.202 61.8811C227.745 60.9134 228.985 59.5303 229.779 57.89C230.574 56.2498 230.892 54.4186 230.696 52.606C230.5 50.7935 229.799 49.0727 228.672 47.6407C230.017 45.9289 230.748 43.8142 230.748 41.6362C230.748 39.4582 230.017 37.3434 228.672 35.6317H228.669Z" fill="#246EB2"/>
<path opacity="0.1" d="M211.349 41.6344C211.345 43.8129 212.077 45.9287 213.424 47.6389C212.298 49.0709 211.596 50.7917 211.4 52.6042C211.204 54.4168 211.522 56.248 212.317 57.8882C213.111 59.5285 214.351 60.9116 215.894 61.8794C217.437 62.8471 219.221 63.3603 221.042 63.3603C222.863 63.3603 224.647 62.8471 226.19 61.8794C227.733 60.9116 228.973 59.5285 229.768 57.8882C230.563 56.248 230.88 54.4168 230.684 52.6042C230.488 50.7917 229.787 49.0709 228.66 47.6389C229.965 45.987 211.349 40.545 211.349 41.6344Z" fill="black"/>
</g>
<g opacity="0.1">
<path opacity="0.1" d="M14.6622 80.3343C16.1584 80.3343 17.3713 78.7442 17.3713 76.7826C17.3713 74.8211 16.1584 73.231 14.6622 73.231C13.166 73.231 11.9531 74.8211 11.9531 76.7826C11.9531 78.7442 13.166 80.3343 14.6622 80.3343Z" fill="#3F3D56"/>
<path opacity="0.1" d="M16.805 61.5863C17.1829 60.9256 17.3785 60.1761 17.3716 59.4147C17.3716 57.453 16.1575 55.863 14.6625 55.863C13.1675 55.863 11.9534 57.453 11.9534 59.4147C11.9458 60.1759 12.1405 60.9253 12.5176 61.5863C12.1475 62.2496 11.9532 62.9968 11.9532 63.7566C11.9532 64.5164 12.1475 65.2636 12.5176 65.927C12.1475 66.5903 11.9532 67.3375 11.9532 68.0973C11.9532 68.8571 12.1475 69.6043 12.5176 70.2677C12.1397 70.9283 11.9449 71.6779 11.9534 72.4392C11.9534 74.3986 13.1651 75.9909 14.6625 75.9909C16.1599 75.9909 17.3787 74.4033 17.3787 72.444C17.3863 71.6825 17.1907 70.9328 16.8121 70.2724C17.1835 69.6095 17.3786 68.8622 17.3786 68.1021C17.3786 67.342 17.1835 66.5946 16.8121 65.9317C17.1835 65.2688 17.3786 64.5215 17.3786 63.7614C17.3786 63.0013 17.1835 62.2539 16.8121 61.591L16.805 61.5863Z" fill="#3F3D56"/>
<path opacity="0.1" d="M14.6622 58.6312C16.1584 58.6312 17.3713 57.0411 17.3713 55.0795C17.3713 53.118 16.1584 51.5278 14.6622 51.5278C13.166 51.5278 11.9531 53.118 11.9531 55.0795C11.9531 57.0411 13.166 58.6312 14.6622 58.6312Z" fill="#3F3D56"/>
<path opacity="0.1" d="M14.6622 54.287C16.1584 54.287 17.3713 52.6968 17.3713 50.7353C17.3713 48.7737 16.1584 47.1836 14.6622 47.1836C13.166 47.1836 11.9531 48.7737 11.9531 50.7353C11.9531 52.6968 13.166 54.287 14.6622 54.287Z" fill="#3F3D56"/>
<path opacity="0.1" d="M4.52328 21.0299C4.15281 20.5582 3.81555 20.0611 3.51392 19.5425L10.6342 18.3721L2.9283 18.4413C2.19123 16.8313 1.78996 15.0877 1.74902 13.3171C1.70809 11.5465 2.02836 9.78613 2.69024 8.14373L13.0219 13.5094L3.49963 6.4966C4.38715 4.94291 5.58562 3.58953 7.01993 2.52131C8.45424 1.45309 10.0935 0.69305 11.8348 0.288843C13.5762 -0.115364 15.3822 -0.155029 17.1396 0.172336C18.897 0.499701 20.5679 1.18704 22.0476 2.19126C23.5273 3.19548 24.7839 4.49494 25.7386 6.00818C26.6933 7.52142 27.3255 9.21582 27.5957 10.9852C27.8658 12.7545 27.768 14.5606 27.3084 16.2904C26.8488 18.0201 26.0373 19.6361 24.9248 21.0371C25.502 21.7713 25.9984 22.5657 26.4055 23.4065L17.1594 28.2144L27.0149 24.9034C27.7058 26.9518 27.8761 29.1404 27.5103 31.2712C27.1446 33.402 26.2543 35.408 24.92 37.1079C26.426 39.0248 27.363 41.3274 27.6236 43.7523C27.8843 46.1773 27.4582 48.6267 26.3941 50.8206C25.33 53.0145 23.6708 54.8643 21.6062 56.1585C19.5417 57.4527 17.155 58.139 14.7193 58.139C12.2835 58.139 9.8969 57.4527 7.83233 56.1585C5.76776 54.8643 4.10856 53.0145 3.04445 50.8206C1.98033 48.6267 1.55425 46.1773 1.81493 43.7523C2.0756 41.3274 3.01251 39.0248 4.51852 37.1079C2.71873 34.8172 1.74023 31.9871 1.74023 29.0725C1.74023 26.1579 2.71873 23.3278 4.51852 21.0371L4.52328 21.0299Z" fill="#246EB2"/>
<path opacity="0.1" d="M27.698 29.0665C27.7027 31.9819 26.7237 34.8135 24.9199 37.1019C26.4259 39.0188 27.3628 41.3214 27.6235 43.7463C27.8841 46.1713 27.4581 48.6207 26.394 50.8146C25.3298 53.0085 23.6706 54.8583 21.6061 56.1525C19.5415 57.4467 17.1549 58.133 14.7191 58.133C12.2834 58.133 9.89675 57.4467 7.83218 56.1525C5.76761 54.8583 4.10841 53.0085 3.0443 50.8146C1.98018 48.6207 1.55411 46.1713 1.81478 43.7463C2.07545 41.3214 3.01236 39.0188 4.51837 37.1019C2.77817 34.8899 27.698 27.6077 27.698 29.0665Z" fill="black"/>
</g>
<g opacity="0.1">
<path opacity="0.1" d="M40.811 79.946C41.9299 79.946 42.8369 78.7582 42.8369 77.293C42.8369 75.8277 41.9299 74.6399 40.811 74.6399C39.6922 74.6399 38.7852 75.8277 38.7852 77.293C38.7852 78.7582 39.6922 79.946 40.811 79.946Z" fill="#3F3D56"/>
<path opacity="0.1" d="M42.4133 65.9387C42.6949 65.4454 42.8403 64.886 42.8346 64.3178C42.8346 62.8518 41.93 61.6624 40.8112 61.6624C39.6923 61.6624 38.7853 62.8542 38.7853 64.3178C38.7803 64.8862 38.9266 65.4456 39.209 65.9387C38.9313 66.4341 38.7854 66.9927 38.7854 67.5608C38.7854 68.1289 38.9313 68.6875 39.209 69.1829C38.9313 69.6783 38.7854 70.2369 38.7854 70.805C38.7854 71.3731 38.9313 71.9317 39.209 72.4271C38.9266 72.9201 38.7803 73.4796 38.7853 74.048C38.7853 75.514 39.6923 76.7034 40.8112 76.7034C41.93 76.7034 42.8346 75.5116 42.8346 74.048C42.8403 73.4798 42.6949 72.9204 42.4133 72.4271C42.6889 71.931 42.8335 71.3727 42.8335 70.805C42.8335 70.2373 42.6889 69.679 42.4133 69.1829C42.6889 68.6868 42.8335 68.1285 42.8335 67.5608C42.8335 66.9931 42.6889 66.4348 42.4133 65.9387Z" fill="#3F3D56"/>
<path opacity="0.1" d="M40.811 63.7277C41.9299 63.7277 42.8369 62.5399 42.8369 61.0747C42.8369 59.6094 41.9299 58.4216 40.811 58.4216C39.6922 58.4216 38.7852 59.6094 38.7852 61.0747C38.7852 62.5399 39.6922 63.7277 40.811 63.7277Z" fill="#3F3D56"/>
<path opacity="0.1" d="M40.811 60.485C41.9299 60.485 42.8369 59.2972 42.8369 57.832C42.8369 56.3668 41.9299 55.179 40.811 55.179C39.6922 55.179 38.7852 56.3668 38.7852 57.832C38.7852 59.2972 39.6922 60.485 40.811 60.485Z" fill="#3F3D56"/>
<path opacity="0.1" d="M33.232 35.6317C32.9549 35.2795 32.7027 34.9084 32.4774 34.5209L37.798 33.6461L32.0441 33.689C31.4922 32.4861 31.191 31.1831 31.1591 29.8597C31.1272 28.5363 31.3651 27.2202 31.8585 25.992L39.5786 30.0038L32.4584 24.7597C33.1242 23.6032 34.0211 22.5965 35.0928 21.8025C36.1646 21.0085 37.3883 20.4443 38.6876 20.145C39.9869 19.8457 41.3338 19.8178 42.6444 20.063C43.9549 20.3082 45.2009 20.8212 46.3046 21.5701C47.4082 22.319 48.3459 23.2877 49.059 24.4156C49.7721 25.5436 50.2454 26.8066 50.4493 28.1258C50.6531 29.4451 50.5832 30.7923 50.2439 32.0833C49.9046 33.3743 49.3032 34.5814 48.4772 35.6293C48.9097 36.1774 49.2809 36.7713 49.5842 37.4004L42.6805 40.9926L50.0436 38.5183C50.5608 40.0488 50.6887 41.6843 50.4156 43.2767C50.1425 44.8692 49.4771 46.3682 48.4796 47.6383C49.6065 49.0703 50.308 50.7911 50.5039 52.6036C50.6998 54.4162 50.3822 56.2474 49.5874 57.8876C48.7926 59.5279 47.5527 60.911 46.0096 61.8788C44.4665 62.8465 42.6825 63.3597 40.8618 63.3597C39.041 63.3597 37.257 62.8465 35.7139 61.8788C34.1708 60.911 32.9309 59.5279 32.1361 57.8876C31.3413 56.2474 31.0237 54.4162 31.2196 52.6036C31.4155 50.7911 32.1171 49.0703 33.2439 47.6383C31.899 45.9266 31.1678 43.8118 31.1678 41.6338C31.1678 39.4558 31.899 37.341 33.2439 35.6293L33.232 35.6317Z" fill="#246EB2"/>
<path opacity="0.1" d="M50.5523 41.6344C50.5555 43.8129 49.8241 45.9287 48.4765 47.6389C49.6033 49.0709 50.3049 50.7917 50.5008 52.6042C50.6967 54.4168 50.3791 56.248 49.5843 57.8882C48.7895 59.5285 47.5496 60.9116 46.0065 61.8794C44.4634 62.8471 42.6794 63.3603 40.8586 63.3603C39.0379 63.3603 37.2539 62.8471 35.7108 61.8794C34.1677 60.9116 32.9278 59.5285 32.133 57.8882C31.3382 56.248 31.0206 54.4168 31.2165 52.6042C31.4124 50.7917 32.1139 49.0709 33.2408 47.6389C31.9315 45.987 50.5523 40.545 50.5523 41.6344Z" fill="black"/>
</g>
<path opacity="0.1" d="M130.455 119.657C202.504 119.657 260.911 118.712 260.911 117.546C260.911 116.379 202.504 115.434 130.455 115.434C58.4069 115.434 0 116.379 0 117.546C0 118.712 58.4069 119.657 130.455 119.657Z" fill="#246EB2"/>
<path opacity="0.1" d="M130.455 137C202.504 137 260.911 136.055 260.911 134.888C260.911 133.722 202.504 132.776 130.455 132.776C58.4069 132.776 0 133.722 0 134.888C0 136.055 58.4069 137 130.455 137Z" fill="#246EB2"/>
<path opacity="0.1" d="M130.455 83.4663C202.504 83.4663 260.911 82.5208 260.911 81.3544C260.911 80.188 202.504 79.2424 130.455 79.2424C58.4069 79.2424 0 80.188 0 81.3544C0 82.5208 58.4069 83.4663 130.455 83.4663Z" fill="#246EB2"/>
<path opacity="0.1" d="M130.455 101.561C202.504 101.561 260.911 100.615 260.911 99.4486C260.911 98.2822 202.504 97.3367 130.455 97.3367C58.4069 97.3367 0 98.2822 0 99.4486C0 100.615 58.4069 101.561 130.455 101.561Z" fill="#246EB2"/>
<path opacity="0.1" d="M192.539 26.3076C191.689 26.1469 190.811 26.2432 190.016 26.5841C189.538 26.7971 189.022 26.9071 188.499 26.9071C187.977 26.9071 187.46 26.7971 186.983 26.5841C186.418 26.336 185.806 26.2136 185.19 26.2256C184.573 26.2375 183.967 26.3834 183.412 26.6533C183.096 26.8214 182.744 26.9097 182.386 26.9107C180.938 26.9107 179.736 25.4519 179.486 23.5283C179.771 23.3157 180.013 23.0512 180.2 22.7488C181.048 21.3806 182.36 20.501 183.836 20.501C185.312 20.501 186.607 21.3686 187.454 22.7226C187.706 23.1316 188.06 23.4683 188.481 23.6997C188.902 23.9311 189.376 24.0495 189.856 24.0431H189.894C191.058 24.0312 192.056 24.9561 192.539 26.3076Z" fill="#246EB2"/>
<path opacity="0.1" d="M196.944 20.2675L194.607 21.7501L196.035 19.1662C195.633 18.8456 195.135 18.6686 194.621 18.6633H194.583C194.423 18.6654 194.264 18.6535 194.107 18.6275L193.302 19.1305L193.642 18.5107C193.08 18.3157 192.594 17.9468 192.255 17.4571L190.826 18.3581L191.721 16.7277C190.893 15.7313 189.774 15.1211 188.546 15.1211C187.07 15.1211 185.758 15.9983 184.908 17.3665C184.658 17.7756 184.303 18.1111 183.882 18.3388C183.46 18.5666 182.985 18.6785 182.506 18.6633H182.428C180.799 18.6633 179.48 20.5106 179.48 22.7894C179.48 25.0682 180.799 26.918 182.428 26.918C182.785 26.9156 183.137 26.8273 183.454 26.6605C184.008 26.39 184.615 26.2435 185.231 26.2311C185.848 26.2188 186.46 26.3409 187.024 26.589C187.501 26.8034 188.018 26.9143 188.541 26.9143C189.064 26.9143 189.58 26.8034 190.057 26.589C190.618 26.3465 191.223 26.2271 191.834 26.239C192.444 26.251 193.044 26.3939 193.595 26.6581C193.908 26.8222 194.256 26.9088 194.609 26.9108C196.237 26.9108 197.556 25.0611 197.556 22.7823C197.566 21.9059 197.356 21.0411 196.944 20.2675Z" fill="#246EB2"/>
<path opacity="0.1" d="M93.1436 25.0173C92.5479 24.9046 91.9322 24.9718 91.3748 25.2104C91.0411 25.3597 90.6798 25.4369 90.3143 25.4369C89.9488 25.4369 89.5874 25.3597 89.2537 25.2104C88.8588 25.0367 88.4309 24.9512 87.9996 24.9599C87.5684 24.9685 87.1442 25.0711 86.7565 25.2604C86.5359 25.3757 86.2912 25.4369 86.0423 25.4392C85.0306 25.4392 84.1879 24.419 84.0117 23.0722C84.2137 22.924 84.3857 22.7388 84.5188 22.5264C85.1115 21.5729 86.0304 20.9531 87.0636 20.9531C88.0968 20.9531 89.0038 21.561 89.5965 22.5073C89.7735 22.7937 90.0216 23.0295 90.3165 23.1915C90.6114 23.3536 90.9432 23.4365 91.2796 23.4322H91.3058C92.1057 23.4274 92.8032 24.0758 93.1436 25.0173Z" fill="#246EB2"/>
<path opacity="0.1" d="M96.2253 20.7916L94.5899 21.8309L95.5826 20.0217C95.302 19.7968 94.9541 19.6725 94.5946 19.6689H94.5661C94.4528 19.6709 94.3396 19.6622 94.228 19.6427L93.6734 19.9955L93.9114 19.5616C93.5183 19.4247 93.1783 19.1669 92.9401 18.8251L91.9474 19.4544L92.5759 18.315C92.312 17.9737 91.9756 17.6955 91.591 17.5005C91.2064 17.3055 90.7834 17.1986 90.3525 17.1875C89.3193 17.1875 88.4004 17.8025 87.8076 18.7607C87.6319 19.0472 87.3837 19.2821 87.0882 19.4416C86.7926 19.6011 86.4602 19.6795 86.1246 19.6689H86.0698C84.9295 19.6689 84.0059 20.9609 84.0059 22.5579C84.0059 24.155 84.9295 25.447 86.0698 25.447C86.319 25.445 86.564 25.3829 86.784 25.2658C87.1716 25.0775 87.5954 24.9757 88.0262 24.9675C88.4569 24.9592 88.8843 25.0448 89.2788 25.2181C89.6146 25.3714 89.9787 25.4526 90.3477 25.4565C90.7109 25.4559 91.0701 25.3796 91.4023 25.2324C91.7944 25.0625 92.2183 24.9789 92.6454 24.9871C93.0725 24.9953 93.4929 25.0952 93.8781 25.2801C94.0985 25.3957 94.3435 25.4562 94.5923 25.4565C95.7302 25.4565 96.6538 24.1622 96.6538 22.5675C96.6635 21.9487 96.516 21.3377 96.2253 20.7916Z" fill="#246EB2"/>
<path opacity="0.1" d="M64.1777 43.7092C64.7726 43.5967 65.3875 43.6639 65.9441 43.9023C66.2782 44.0516 66.64 44.1288 67.0059 44.1288C67.3717 44.1288 67.7335 44.0516 68.0676 43.9023C68.4625 43.7289 68.8903 43.6433 69.3214 43.6515C69.7526 43.6598 70.1768 43.7616 70.5648 43.9499C70.7847 44.0673 71.0298 44.1295 71.279 44.1311C72.2907 44.1311 73.1335 43.1085 73.3072 41.7617C73.1055 41.614 72.9341 41.4287 72.8026 41.2159C72.2074 40.2624 71.2885 39.645 70.2577 39.645C69.2269 39.645 68.3176 40.2505 67.7224 41.1992C67.5456 41.4853 67.298 41.7208 67.0035 41.8828C66.709 42.0449 66.3777 42.128 66.0417 42.124H66.0155C65.2133 42.1288 64.5134 42.7748 64.1777 43.7092Z" fill="#246EB2"/>
<path opacity="0.1" d="M61.0919 39.4916L62.7297 40.5309L61.7346 38.7241C62.016 38.4985 62.3645 38.3734 62.725 38.3689H62.7511C62.8651 38.3706 62.979 38.3626 63.0916 38.3451L63.6462 38.6955L63.4082 38.264C63.8005 38.1268 64.1396 37.869 64.3771 37.5275L65.3698 38.1568L64.7508 37.015C65.0149 36.674 65.3514 36.3962 65.736 36.2016C66.1205 36.007 66.5435 35.9005 66.9743 35.8899C68.0051 35.8899 68.9264 36.5049 69.5191 37.4631C69.6946 37.7493 69.9424 37.9839 70.2376 38.1434C70.5327 38.3029 70.8646 38.3815 71.1998 38.3713H71.2569C72.3949 38.3713 73.3185 39.6657 73.3185 41.2603C73.3185 42.855 72.3949 44.1494 71.2569 44.1494C71.008 44.1483 70.763 44.0869 70.5428 43.9706C70.1551 43.7812 69.7309 43.6787 69.2997 43.67C68.8684 43.6614 68.4405 43.7469 68.0455 43.9205C67.7111 44.0752 67.3474 44.1564 66.979 44.1589C66.615 44.1586 66.255 44.0823 65.9221 43.9348C65.5304 43.765 65.1069 43.6814 64.6802 43.6896C64.2535 43.6978 63.8335 43.7977 63.4487 43.9825C63.2283 44.0981 62.9833 44.1586 62.7345 44.1589C61.5942 44.1589 60.6705 42.8669 60.6705 41.2699C60.6594 40.6511 60.8043 40.0395 61.0919 39.4916Z" fill="#246EB2"/>
<path d="M158.144 116.862C158.765 115.708 158.061 114.297 157.251 113.27C156.442 112.242 155.452 111.172 155.473 109.863C155.504 107.983 157.499 106.869 159.091 105.873C160.274 105.13 161.365 104.25 162.341 103.251C162.749 102.866 163.087 102.413 163.338 101.911C163.669 101.177 163.66 100.338 163.638 99.5276C163.57 96.8435 163.438 94.1611 163.241 91.4802" stroke="#3F3D56" stroke-width="4" stroke-miterlimit="10"/>
<path d="M166.272 91.3456C166.249 90.8539 166.103 90.3759 165.847 89.9556C165.591 89.5353 165.234 89.1862 164.808 88.9405L164.151 90.2396L164.172 88.6663C163.576 88.4907 162.94 88.5091 162.355 88.7191C161.771 88.929 161.268 89.3195 160.919 89.8343C160.571 90.3491 160.394 90.9615 160.416 91.583C160.437 92.2046 160.656 92.8033 161.039 93.2926C161.423 93.7819 161.951 94.1366 162.549 94.3054C163.147 94.4742 163.783 94.4484 164.365 94.2317C164.948 94.0151 165.446 93.6188 165.789 93.1C166.131 92.5813 166.301 91.9669 166.272 91.3456Z" fill="#246EB2"/>
<path d="M161.044 111.21C160.75 111.783 160.274 112.244 159.692 112.52C159.109 112.796 158.452 112.872 157.822 112.736C157.192 112.6 156.625 112.26 156.207 111.769C155.789 111.278 155.545 110.662 155.512 110.018C155.49 109.611 155.555 109.205 155.702 108.826C155.918 108.273 156.296 107.798 156.787 107.465C157.278 107.131 157.858 106.955 158.451 106.958C159.044 106.961 159.622 107.145 160.109 107.484C160.595 107.823 160.968 108.301 161.178 108.857L159.347 110.349L161.361 109.872C161.363 110.337 161.255 110.795 161.044 111.21Z" fill="#246EB2"/>
<path d="M159.596 105.512C158.877 105.546 158.17 105.313 157.611 104.859C157.052 104.405 156.68 103.76 156.565 103.048C156.45 102.337 156.601 101.608 156.989 101C157.376 100.393 157.974 99.9495 158.667 99.755L158.651 100.964L159.315 99.6477C160.091 99.6114 160.851 99.8854 161.425 100.41C162 100.934 162.343 101.665 162.38 102.443C162.416 103.22 162.142 103.98 161.619 104.556C161.095 105.131 160.365 105.475 159.589 105.512H159.596Z" fill="#246EB2"/>
<path d="M166.711 100.772C166.256 100.795 165.803 100.712 165.386 100.53C164.969 100.348 164.6 100.07 164.309 99.7206C164.017 99.3707 163.811 98.9577 163.707 98.5143C163.603 98.0709 163.603 97.6092 163.708 97.1659C163.812 96.7226 164.019 96.3097 164.31 95.9601C164.602 95.6105 164.971 95.3337 165.388 95.1516C165.805 94.9695 166.259 94.8871 166.713 94.911C167.167 94.9349 167.61 95.0644 168.006 95.2892L167.489 96.7194L168.544 95.6754C168.97 96.067 169.271 96.5762 169.409 97.139C169.547 97.7017 169.516 98.2927 169.319 98.8375C169.122 99.3823 168.768 99.8565 168.302 100.2C167.836 100.544 167.279 100.742 166.701 100.769L166.711 100.772Z" fill="#246EB2"/>
<path opacity="0.1" d="M165.875 92.1276C165.199 92.2015 164.542 92.4112 163.861 92.4541C163.181 92.497 162.433 92.3326 162.009 91.8058C161.81 91.4988 161.629 91.1804 161.467 90.8523C161.282 90.563 161.028 90.3239 160.729 90.1562C160.539 90.5281 160.431 90.9363 160.411 91.3533C160.392 91.7704 160.462 92.1868 160.616 92.5748C160.77 92.9628 161.005 93.3134 161.305 93.6031C161.605 93.8929 161.964 94.1151 162.357 94.2551C162.75 94.395 163.168 94.4493 163.583 94.4145C163.999 94.3796 164.402 94.2564 164.766 94.0529C165.13 93.8495 165.447 93.5707 165.695 93.2349C165.943 92.8992 166.116 92.5143 166.204 92.1061C166.097 92.1085 165.985 92.1156 165.875 92.1276Z" fill="black"/>
<path opacity="0.1" d="M166.712 100.768C166.206 100.792 165.704 100.684 165.252 100.456C164.8 100.228 164.416 99.8861 164.135 99.4647C163.854 99.0433 163.687 98.5564 163.65 98.0512C163.613 97.546 163.708 97.0399 163.924 96.582C164.156 96.7392 164.356 96.9399 164.512 97.1732C164.687 97.5073 164.881 97.8313 165.093 98.1433C165.55 98.6797 166.331 98.8584 167.038 98.8227C167.745 98.7869 168.428 98.5843 169.133 98.5247C169.23 98.5247 169.328 98.5104 169.428 98.5081C169.282 99.1292 168.938 99.6858 168.448 100.094C167.958 100.501 167.348 100.738 166.712 100.768Z" fill="black"/>
<path opacity="0.1" d="M159.595 105.514C159.095 105.537 158.597 105.432 158.149 105.208C157.701 104.984 157.318 104.649 157.036 104.235C156.754 103.821 156.583 103.341 156.539 102.842C156.495 102.343 156.579 101.84 156.784 101.383C157.025 101.542 157.236 101.744 157.405 101.979C157.597 102.321 157.809 102.651 158.04 102.968C158.533 103.519 159.366 103.714 160.114 103.683C160.861 103.652 161.542 103.49 162.256 103.445C162.079 104.022 161.728 104.53 161.252 104.9C160.776 105.27 160.197 105.484 159.595 105.514Z" fill="black"/>
<path opacity="0.1" d="M161.044 111.208C160.75 111.782 160.274 112.242 159.692 112.518C159.109 112.794 158.452 112.87 157.822 112.734C157.192 112.598 156.625 112.259 156.207 111.767C155.789 111.276 155.545 110.66 155.512 110.016C155.49 109.61 155.555 109.203 155.702 108.824C155.944 108.983 156.16 109.176 156.345 109.399C156.624 109.737 156.807 110.114 157.131 110.44C157.728 111.029 158.697 111.272 159.557 111.294C160.054 111.295 160.551 111.267 161.044 111.208Z" fill="black"/>
<path d="M12.9292 99.6979C13.5505 98.5442 12.8458 97.1331 12.0364 96.1057C11.227 95.0783 10.2367 94.0033 10.2582 92.6994C10.2891 90.8187 12.284 89.7055 13.8766 88.7091C15.0593 87.9665 16.1501 87.0864 17.1261 86.087C17.5343 85.7024 17.8719 85.2489 18.1236 84.7474C18.4545 84.0132 18.4449 83.1742 18.4235 82.3637C18.3537 79.6797 18.2212 76.9973 18.026 74.3164" stroke="#3F3D56" stroke-width="4" stroke-miterlimit="10"/>
<path d="M21.0571 74.1855C21.0341 73.6938 20.8879 73.2158 20.6321 72.7955C20.3762 72.3752 20.0189 72.0261 19.593 71.7803L18.936 73.0794L18.9574 71.5062C18.3615 71.3305 17.7253 71.349 17.1406 71.5589C16.5559 71.7688 16.0529 72.1594 15.7043 72.6742C15.3557 73.1889 15.1794 73.8013 15.201 74.4229C15.2225 75.0445 15.4408 75.6432 15.8243 76.1325C16.2077 76.6218 16.7366 76.9765 17.3344 77.1452C17.9322 77.314 18.5682 77.2883 19.1505 77.0716C19.7327 76.855 20.2312 76.4587 20.5739 75.9399C20.9166 75.4212 21.0858 74.8068 21.0571 74.1855Z" fill="#246EB2"/>
<path d="M15.8296 94.0484C15.5348 94.6222 15.0594 95.0826 14.4769 95.3585C13.8944 95.6344 13.2373 95.7104 12.6074 95.5747C11.9774 95.439 11.4097 95.0991 10.9921 94.6078C10.5744 94.1164 10.3302 93.5009 10.2971 92.8566C10.2752 92.4503 10.3401 92.0439 10.4876 91.6647C10.7034 91.1117 11.0816 90.6372 11.5722 90.3037C12.0628 89.9703 12.6429 89.7936 13.2359 89.7969C13.8288 89.8003 14.4069 89.9835 14.8937 90.3225C15.3805 90.6615 15.7533 91.1403 15.9629 91.6957L14.1322 93.1879L16.1462 92.7112C16.1485 93.1758 16.0399 93.6343 15.8296 94.0484Z" fill="#246EB2"/>
<path d="M14.3809 88.3485C13.6617 88.3824 12.9552 88.1501 12.3962 87.6958C11.8372 87.2414 11.4648 86.597 11.35 85.8853C11.2352 85.1736 11.3861 84.4445 11.7739 83.837C12.1617 83.2296 12.7592 82.7864 13.4525 82.5919L13.4358 83.8004L14.1 82.4846C14.4845 82.4666 14.8688 82.5247 15.2309 82.6554C15.5931 82.7861 15.9259 82.9869 16.2106 83.2465C16.4952 83.506 16.7259 83.8191 16.8897 84.1679C17.0535 84.5168 17.147 84.8945 17.165 85.2795C17.1829 85.6646 17.125 86.0493 16.9945 86.412C16.8639 86.7746 16.6633 87.1079 16.4041 87.3929C16.1449 87.6778 15.8322 87.9089 15.4839 88.0729C15.1355 88.2369 14.7583 88.3305 14.3737 88.3485H14.3809Z" fill="#246EB2"/>
<path d="M21.4958 83.6109C21.0414 83.6344 20.5878 83.5516 20.1709 83.3692C19.7541 83.1867 19.3853 82.9096 19.0939 82.5597C18.8026 82.2099 18.5965 81.7969 18.4922 81.3534C18.3878 80.91 18.388 80.4484 18.4927 80.005C18.5975 79.5617 18.8038 79.1489 19.0955 78.7992C19.3872 78.4496 19.7562 78.1728 20.1732 77.9907C20.5902 77.8086 21.0439 77.7262 21.4982 77.7501C21.9526 77.774 22.3951 77.9035 22.7908 78.1283L22.2742 79.5586L23.3288 78.5145C23.7554 78.9061 24.0566 79.4153 24.1945 79.9781C24.3324 80.5408 24.3008 81.1318 24.1038 81.6766C23.9067 82.2214 23.553 82.6956 23.0871 83.0394C22.6213 83.3832 22.0643 83.5812 21.4863 83.6085L21.4958 83.6109Z" fill="#246EB2"/>
<path opacity="0.1" d="M20.6606 74.9664C19.9845 75.0403 19.3274 75.2501 18.6466 75.293C17.9658 75.3359 17.2183 75.1714 16.7945 74.6446C16.5952 74.3376 16.414 74.0193 16.2517 73.6912C16.0667 73.4019 15.8132 73.1628 15.5138 72.9951C15.3242 73.367 15.216 73.7751 15.1966 74.1922C15.1771 74.6093 15.2467 75.0257 15.4008 75.4137C15.5549 75.8017 15.79 76.1522 16.0902 76.442C16.3904 76.7317 16.749 76.954 17.1419 77.0939C17.5347 77.2338 17.9529 77.2882 18.3685 77.2533C18.784 77.2184 19.1873 77.0952 19.5515 76.8918C19.9156 76.6884 20.2323 76.4095 20.4802 76.0738C20.7281 75.738 20.9016 75.3532 20.9891 74.945C20.882 74.9474 20.7701 74.9545 20.6606 74.9664Z" fill="black"/>
<path opacity="0.1" d="M21.4968 83.6067C20.9915 83.6306 20.4887 83.5232 20.0371 83.2948C19.5856 83.0665 19.2008 82.725 18.9201 82.3036C18.6395 81.8822 18.4725 81.3952 18.4356 80.8901C18.3986 80.3849 18.4929 79.8788 18.7092 79.4209C18.9415 79.578 19.1412 79.7788 19.2972 80.012C19.4722 80.3462 19.6662 80.6701 19.878 80.9822C20.3351 81.5185 21.1159 81.6973 21.823 81.6616C22.53 81.6258 23.2132 81.4232 23.9179 81.3636C24.0155 81.3636 24.1131 81.3493 24.2131 81.3469C24.0672 81.9681 23.7232 82.5247 23.2331 82.9325C22.7429 83.3403 22.1334 83.5769 21.4968 83.6067Z" fill="black"/>
<path opacity="0.1" d="M14.3801 88.3497C13.8801 88.3731 13.3823 88.2679 12.9344 88.0441C12.4865 87.8202 12.1033 87.4852 11.8214 87.071C11.5394 86.6568 11.3682 86.1771 11.324 85.6778C11.2797 85.1785 11.364 84.6762 11.5687 84.2188C11.8102 84.378 12.0208 84.5799 12.19 84.8147C12.382 85.1568 12.5942 85.4872 12.8256 85.8039C13.3184 86.3545 14.1516 86.55 14.8991 86.519C15.6466 86.488 16.3274 86.3259 17.0416 86.2806C16.8639 86.8574 16.5131 87.3654 16.0369 87.7356C15.5607 88.1058 14.9823 88.3202 14.3801 88.3497Z" fill="black"/>
<path opacity="0.1" d="M15.8276 94.047C15.5328 94.6207 15.0574 95.0812 14.4749 95.3571C13.8924 95.633 13.2354 95.709 12.6054 95.5733C11.9755 95.4376 11.4077 95.0977 10.9901 94.6064C10.5725 94.115 10.3282 93.4995 10.2952 92.8552C10.2733 92.4489 10.3382 92.0425 10.4856 91.6633C10.727 91.822 10.9436 92.0156 11.1284 92.2378C11.4069 92.5763 11.5902 92.9529 11.914 93.2795C12.5115 93.8682 13.4804 94.1114 14.3398 94.1328C14.837 94.1344 15.3338 94.1057 15.8276 94.047Z" fill="black"/>
<path d="M109.631 80.0643C109.01 78.9129 109.714 77.5018 110.526 76.4744C111.338 75.447 112.323 74.3768 112.302 73.0681C112.273 71.185 110.278 70.0742 108.683 69.0778C107.501 68.3357 106.411 67.4555 105.436 66.4558C105.026 66.0732 104.688 65.6203 104.437 65.1185C104.108 64.382 104.118 63.5453 104.137 62.7348C104.208 60.0508 104.341 57.3684 104.534 54.6875" stroke="#3F3D56" stroke-width="4" stroke-miterlimit="10"/>
<path d="M101.505 54.5526C101.528 54.0611 101.673 53.5832 101.929 53.1629C102.184 52.7426 102.541 52.3934 102.967 52.1475L103.624 53.4466L103.605 51.8733C103.918 51.7823 104.243 51.7429 104.569 51.7566C105.148 51.7836 105.706 51.9818 106.172 52.3263C106.638 52.6708 106.992 53.146 107.189 53.6918C107.386 54.2377 107.416 54.8297 107.277 55.3929C107.138 55.9562 106.835 56.4655 106.406 56.8564C105.978 57.2473 105.444 57.5022 104.871 57.589C104.298 57.6758 103.712 57.5905 103.187 57.3439C102.663 57.0973 102.223 56.7005 101.923 56.2037C101.624 55.7069 101.478 55.1323 101.505 54.5526Z" fill="#246EB2"/>
<path d="M106.73 74.4117C107.037 75.0106 107.541 75.4854 108.156 75.7567C108.772 76.0279 109.461 76.079 110.11 75.9014C110.758 75.7238 111.326 75.3282 111.718 74.7811C112.11 74.2341 112.302 73.5687 112.262 72.8966C112.222 72.2246 111.953 71.5867 111.499 71.0901C111.045 70.5934 110.434 70.2681 109.769 70.1688C109.104 70.0695 108.425 70.2022 107.846 70.5446C107.267 70.887 106.824 71.4184 106.59 72.0495L108.42 73.5417L106.406 73.0649C106.405 73.5334 106.516 73.9953 106.73 74.4117Z" fill="#246EB2"/>
<path d="M108.178 68.719C108.898 68.7536 109.605 68.5218 110.164 68.0677C110.724 67.6135 111.097 66.969 111.212 66.257C111.327 65.5451 111.176 64.8156 110.788 64.2079C110.401 63.6002 109.803 63.1568 109.109 62.9624L109.123 64.1709L108.459 62.8551C107.683 62.8169 106.923 63.089 106.347 63.6115C105.772 64.1341 105.427 64.8644 105.388 65.6417C105.372 65.9802 105.414 66.319 105.514 66.6428C105.69 67.2218 106.041 67.7322 106.518 68.104C106.994 68.4757 107.575 68.6905 108.178 68.719Z" fill="#246EB2"/>
<path d="M101.065 63.971C101.519 63.9942 101.972 63.9111 102.389 63.7285C102.806 63.5458 103.174 63.2685 103.465 62.9185C103.757 62.5685 103.962 62.1555 104.066 61.7121C104.171 61.2687 104.17 60.8071 104.065 60.3639C103.96 59.9207 103.754 59.5081 103.462 59.1586C103.17 58.8091 102.801 58.5325 102.384 58.3505C101.967 58.1686 101.514 58.0863 101.06 58.1103C100.605 58.1342 100.163 58.2637 99.7673 58.4886L100.286 59.9188L99.2198 58.8962C98.9353 59.1542 98.7047 59.4661 98.5413 59.8139C98.3778 60.1616 98.2848 60.5383 98.2675 60.9223C98.2534 61.1938 98.2782 61.4659 98.3413 61.7304C98.4907 62.3493 98.8373 62.9027 99.3286 63.307C99.8199 63.7112 100.429 63.9443 101.065 63.971Z" fill="#246EB2"/>
<path opacity="0.1" d="M101.901 55.3341C102.577 55.408 103.234 55.6178 103.912 55.6607C104.591 55.7036 105.341 55.5391 105.767 55.0123C105.965 54.7053 106.146 54.3869 106.307 54.0588C106.493 53.7695 106.747 53.5304 107.048 53.3628C107.238 53.7348 107.346 54.1431 107.366 54.5604C107.385 54.9778 107.316 55.3945 107.162 55.7827C107.007 56.171 106.772 56.5218 106.472 56.8117C106.171 57.1015 105.812 57.3239 105.419 57.4637C105.026 57.6035 104.608 57.6577 104.192 57.6226C103.776 57.5874 103.373 57.4638 103.008 57.2599C102.644 57.056 102.328 56.7767 102.08 56.4404C101.832 56.1042 101.659 55.7189 101.572 55.3103C101.679 55.3127 101.789 55.3222 101.901 55.3341Z" fill="black"/>
<path opacity="0.1" d="M101.066 63.9717C101.571 63.9949 102.073 63.8871 102.525 63.6585C102.976 63.43 103.36 63.0886 103.641 62.6674C103.921 62.2462 104.088 61.7595 104.125 61.2546C104.163 60.7498 104.069 60.2438 103.854 59.7859C103.62 59.943 103.42 60.1437 103.263 60.377C103.088 60.7112 102.894 61.0351 102.682 61.3472C102.228 61.8835 101.447 62.0623 100.74 62.0266C100.033 61.9908 99.3495 61.7882 98.6448 61.7286C98.5472 61.7286 98.4472 61.7143 98.3496 61.7119C98.4951 62.3333 98.839 62.8901 99.3292 63.298C99.8194 63.7058 100.429 63.9423 101.066 63.9717Z" fill="black"/>
<path opacity="0.1" d="M108.177 68.7174C108.677 68.7415 109.176 68.6367 109.624 68.4131C110.072 68.1894 110.456 67.8544 110.738 67.4399C111.02 67.0255 111.191 66.5455 111.235 66.0459C111.279 65.5464 111.194 65.0438 110.989 64.5864C110.747 64.7451 110.537 64.9472 110.37 65.1823C110.178 65.5245 109.965 65.8548 109.734 66.1716C109.239 66.7222 108.408 66.9177 107.658 66.8867C106.908 66.8557 106.23 66.6936 105.516 66.6483C105.692 67.2257 106.043 67.7342 106.519 68.1046C106.996 68.4749 107.575 68.6889 108.177 68.7174Z" fill="black"/>
<path opacity="0.1" d="M106.73 74.4142C107.074 75.0782 107.659 75.5856 108.364 75.8327C109.069 76.0797 109.842 76.0478 110.524 75.7435C111.207 75.4391 111.747 74.8852 112.035 74.1951C112.324 73.505 112.338 72.7307 112.075 72.0305C111.832 72.1878 111.616 72.3816 111.432 72.605C111.154 72.9435 110.956 73.3201 110.647 73.6467C110.047 74.2354 109.08 74.4786 108.218 74.5C107.721 74.5003 107.224 74.4716 106.73 74.4142Z" fill="black"/>
<path d="M185.62 80.6039C198.763 80.6039 209.417 69.936 209.417 56.7765C209.417 43.6171 198.763 32.9492 185.62 32.9492C172.478 32.9492 161.824 43.6171 161.824 56.7765C161.824 69.936 172.478 80.6039 185.62 80.6039Z" fill="white"/>
<path d="M195.834 62.9197C195.006 62.0902 193.013 60.8387 192.025 60.3715C190.885 59.8233 190.466 59.8328 189.659 60.4168C188.988 60.8935 188.552 61.3536 187.781 61.1844C187.01 61.0151 185.481 59.8614 184.003 58.3859C182.525 56.9104 181.377 55.3896 181.213 54.6054C181.049 53.8211 181.501 53.3945 181.982 52.7223C182.563 51.9142 182.579 51.4947 182.027 50.3529C181.551 49.3637 180.315 47.3733 179.48 46.539C178.644 45.7047 178.463 45.8882 178.006 46.0622C177.536 46.2597 177.084 46.499 176.656 46.7774C175.828 47.3328 175.364 47.7952 175.038 48.4912C174.712 49.1873 174.343 50.4792 176.24 53.8617C177.639 56.4493 179.412 58.8162 181.501 60.8864C183.575 62.9826 185.947 64.7609 188.54 66.1639C191.916 68.0708 193.209 67.6918 193.904 67.3676C194.599 67.0435 195.061 66.5834 195.613 65.7467C195.891 65.3188 196.13 64.8665 196.327 64.3952C196.484 63.9375 196.67 63.7516 195.834 62.9197Z" fill="#246EB2"/>
<path opacity="0.1" d="M185.62 32.9497C180.911 32.9474 176.307 34.3437 172.39 36.962C168.473 39.5803 165.42 43.303 163.617 47.6591C161.814 52.0152 161.341 56.809 162.26 61.434C163.178 66.059 165.445 70.3074 168.775 73.6418C172.105 76.9762 176.348 79.2466 180.967 80.166C185.586 81.0854 190.374 80.6123 194.724 78.8067C199.074 77.0011 202.792 73.944 205.407 70.0222C208.022 66.1004 209.417 61.4902 209.414 56.7747C209.411 50.4569 206.903 44.3987 202.442 39.9314C197.98 35.464 191.93 32.9529 185.62 32.9497ZM185.62 77.4341C181.54 77.4341 177.551 76.2224 174.158 73.9523C170.765 71.6822 168.12 68.4557 166.558 64.6807C164.997 60.9057 164.588 56.7517 165.384 52.7442C166.181 48.7367 168.146 45.0555 171.031 42.1663C173.917 39.277 177.593 37.3094 181.595 36.5122C185.598 35.7151 189.746 36.1242 193.516 37.6879C197.286 39.2515 200.509 41.8995 202.776 45.2969C205.043 48.6943 206.253 52.6886 206.253 56.7747C206.253 59.4877 205.719 62.1742 204.682 64.6807C203.645 67.1872 202.126 69.4647 200.21 71.3831C198.294 73.3015 196.019 74.8232 193.516 75.8615C191.013 76.8997 188.33 77.4341 185.62 77.4341Z" fill="black"/>
<path d="M130.951 116.791C144.093 116.791 154.747 106.124 154.747 92.9641C154.747 79.8046 144.093 69.1367 130.951 69.1367C117.808 69.1367 107.154 79.8046 107.154 92.9641C107.154 106.124 117.808 116.791 130.951 116.791Z" fill="white"/>
<path d="M144.484 85.7693L137.359 93.0277C137.347 93.0397 137.337 93.0541 137.33 93.0701C137.323 93.0861 137.32 93.1033 137.32 93.1206C137.32 93.138 137.323 93.1552 137.33 93.1712C137.337 93.1871 137.347 93.2016 137.359 93.2136L142.359 98.5364C142.478 98.657 142.56 98.8104 142.592 98.9771C142.625 99.1439 142.608 99.3167 142.543 99.4738C142.479 99.6309 142.369 99.7653 142.228 99.8602C142.087 99.9551 141.921 100.006 141.752 100.007C141.523 100.007 141.304 99.9158 141.142 99.7544L136.169 94.4507C136.144 94.4257 136.11 94.4117 136.074 94.4117C136.038 94.4117 136.004 94.4257 135.979 94.4507L134.767 95.6759C134.271 96.184 133.678 96.5876 133.024 96.8631C132.37 97.1385 131.668 97.2804 130.958 97.2802C130.235 97.2768 129.52 97.1292 128.854 96.846C128.189 96.5628 127.587 96.1496 127.082 95.6307L125.918 94.4388C125.893 94.4138 125.859 94.3997 125.823 94.3997C125.787 94.3997 125.753 94.4138 125.728 94.4388L120.767 99.7306C120.687 99.8107 120.592 99.8742 120.488 99.9175C120.383 99.9609 120.272 99.9832 120.159 99.9832C120.046 99.9832 119.934 99.9609 119.829 99.9175C119.725 99.8742 119.63 99.8107 119.55 99.7306C119.47 99.6508 119.406 99.556 119.363 99.4514C119.319 99.3469 119.297 99.2348 119.297 99.1216C119.297 99.0083 119.319 98.8962 119.363 98.7917C119.406 98.6872 119.47 98.5923 119.55 98.5125L124.53 93.2017C124.553 93.1758 124.565 93.1428 124.565 93.1087C124.565 93.0746 124.553 93.0417 124.53 93.0158L117.405 85.7574C117.387 85.739 117.364 85.7264 117.338 85.7213C117.313 85.7162 117.286 85.7188 117.262 85.7288C117.238 85.7387 117.218 85.7556 117.204 85.7773C117.189 85.7989 117.182 85.8244 117.182 85.8504V100.374C117.184 100.936 117.407 101.474 117.804 101.871C118.2 102.268 118.737 102.491 119.298 102.493H142.597C143.157 102.491 143.695 102.268 144.091 101.871C144.488 101.474 144.711 100.936 144.713 100.374V85.8623C144.714 85.8353 144.707 85.8085 144.692 85.7858C144.678 85.763 144.657 85.7453 144.631 85.7351C144.606 85.7249 144.579 85.7228 144.553 85.7289C144.526 85.735 144.502 85.7491 144.484 85.7693Z" fill="#246EB2"/>
<path d="M130.95 95.5555C131.433 95.5603 131.912 95.4677 132.358 95.2835C132.805 95.0992 133.21 94.8269 133.549 94.4829L143.926 83.9064C143.558 83.6009 143.095 83.4324 142.617 83.4297H119.302C118.823 83.4312 118.36 83.5998 117.992 83.9064L128.371 94.4829C128.708 94.825 129.109 95.0962 129.552 95.2804C129.995 95.4647 130.47 95.5582 130.95 95.5555Z" fill="#246EB2"/>
<path opacity="0.1" d="M130.65 69.1406C125.94 69.1383 121.336 70.5346 117.419 73.1529C113.503 75.7712 110.45 79.4939 108.646 83.85C106.843 88.2061 106.371 92.9999 107.289 97.6249C108.207 102.25 110.475 106.498 113.805 109.833C117.135 113.167 121.377 115.438 125.996 116.357C130.615 117.276 135.403 116.803 139.753 114.998C144.104 113.192 147.822 110.135 150.436 106.213C153.051 102.291 154.446 97.6811 154.444 92.9656C154.44 86.6478 151.932 80.5896 147.471 76.1223C143.009 71.6549 136.959 69.1438 130.65 69.1406ZM130.65 113.625C126.569 113.625 122.58 112.413 119.187 110.143C115.794 107.873 113.149 104.647 111.588 100.872C110.026 97.0966 109.618 92.9427 110.414 88.9351C111.21 84.9276 113.175 81.2464 116.06 78.3572C118.946 75.4679 122.622 73.5003 126.624 72.7031C130.627 71.906 134.775 72.3151 138.545 73.8788C142.315 75.4424 145.538 78.0904 147.805 81.4878C150.072 84.8852 151.282 88.8795 151.282 92.9656C151.282 98.4448 149.108 103.7 145.239 107.574C141.37 111.448 136.122 113.625 130.65 113.625Z" fill="black"/>
<path d="M74.4759 99.0023C87.6182 99.0023 98.2721 88.3345 98.2721 75.175C98.2721 62.0155 87.6182 51.3477 74.4759 51.3477C61.3336 51.3477 50.6797 62.0155 50.6797 75.175C50.6797 88.3345 61.3336 99.0023 74.4759 99.0023Z" fill="white"/>
<path d="M74.4749 63.7695L64.9883 85.6851L65.8739 86.5719L74.4772 82.7723L83.0806 86.5719L83.9662 85.6851L74.4749 63.7695Z" fill="#246EB2"/>
<path opacity="0.1" d="M74.4758 51.3364C69.767 51.3341 65.1632 52.7301 61.2468 55.3479C57.3304 57.9657 54.2774 61.6877 52.4737 66.0431C50.6701 70.3985 50.197 75.1916 51.1142 79.8163C52.0314 84.441 54.2977 88.6895 57.6265 92.0243C60.9554 95.3591 65.1971 97.6306 69.8153 98.5513C74.4335 99.472 79.2206 99.0006 83.5712 97.1968C87.9219 95.393 91.6405 92.3378 94.2568 88.4176C96.8732 84.4974 98.2697 79.8883 98.2697 75.1733C98.2697 68.8534 95.7632 62.7922 91.3013 58.3223C86.8395 53.8524 80.7875 51.3396 74.4758 51.3364ZM74.4758 95.8208C70.3946 95.8208 66.4051 94.6088 63.0118 92.3382C59.6186 90.0676 56.9741 86.8404 55.4128 83.0646C53.8516 79.2889 53.4437 75.1344 54.2407 71.1265C55.0378 67.1187 57.004 63.4375 59.8907 60.5488C62.7774 57.66 66.4549 55.6933 70.458 54.8975C74.461 54.1017 78.6099 54.5125 82.3798 56.078C86.1497 57.6435 89.3712 60.2933 91.6369 63.6923C93.9025 67.0913 95.1106 71.0867 95.1083 75.1733C95.1076 80.6521 92.9336 85.9063 89.0643 89.7802C85.1951 93.6541 79.9475 95.8303 74.4758 95.8303V95.8208Z" fill="black"/>
<g opacity="0.1">
<path opacity="0.1" d="M181.531 116.235C181.531 116.235 179.165 116.171 178.451 116.042C178.451 116.164 178.451 116.235 178.451 116.235C178.265 116.421 181.726 116.516 181.726 116.516C181.773 116.521 181.818 116.539 181.855 116.569C181.729 116.235 181.531 116.235 181.531 116.235Z" fill="black"/>
<path opacity="0.1" d="M185.65 112.392C185.554 112.299 185.462 110.988 185.462 110.988C185.413 111.018 185.359 111.038 185.302 111.045C185.335 111.441 185.4 112.049 185.462 112.111C185.523 112.173 185.938 114.547 185.835 115.672C185.733 116.797 185.835 116.795 185.835 116.795C185.835 116.795 182.8 117.241 182.064 116.943C182.064 116.983 182.086 117.029 182.093 117.076C182.186 117.639 186.023 117.076 186.023 117.076C186.023 117.076 185.928 117.076 186.023 115.954C186.119 114.831 185.742 112.488 185.65 112.392Z" fill="black"/>
</g>
<g opacity="0.1">
<path opacity="0.1" d="M180.97 110.991H180.918C181.12 111.031 181.328 111.031 181.53 110.991H181.589C181.384 110.961 181.176 110.961 180.97 110.991Z" fill="black"/>
<path opacity="0.1" d="M185.882 105.883C185.546 106.638 185.051 110.731 184.963 111.544C185.291 111.63 185.508 111.692 185.508 111.692C185.508 111.692 186.022 106.877 186.398 106.023L185.882 105.883Z" fill="black"/>
</g>
<path d="M199.109 98.7741C199.73 97.6228 199.026 96.2093 198.214 95.1819C197.402 94.1546 196.416 93.0867 196.438 91.7756C196.466 89.8949 198.461 88.7841 200.056 87.7853C201.239 87.0434 202.329 86.1632 203.303 85.1633C203.713 84.7802 204.051 84.3274 204.303 83.826C204.632 83.0895 204.622 82.2528 204.603 81.4424C204.533 78.7567 204.401 76.0743 204.206 73.395" stroke="#3F3D56" stroke-width="4" stroke-miterlimit="10"/>
<path d="M207.233 73.2498C207.21 72.7587 207.064 72.2811 206.809 71.8612C206.553 71.4413 206.196 71.0926 205.771 70.8471L205.114 72.1462L205.133 70.5729C204.821 70.4796 204.495 70.4401 204.169 70.4561C203.59 70.4832 203.032 70.6815 202.566 71.0261C202.099 71.3707 201.745 71.8461 201.549 72.392C201.352 72.938 201.322 73.5301 201.461 74.0935C201.601 74.6568 201.904 75.166 202.332 75.5568C202.761 75.9476 203.296 76.2023 203.869 76.2888C204.442 76.3753 205.028 76.2897 205.552 76.0427C206.077 75.7958 206.516 75.3986 206.816 74.9015C207.115 74.4044 207.26 73.8296 207.233 73.2498Z" fill="#246EB2"/>
<path d="M202.009 93.1159C201.702 93.7145 201.198 94.1891 200.583 94.4601C199.968 94.7311 199.278 94.7821 198.63 94.6044C197.981 94.4267 197.413 94.0312 197.022 93.4842C196.63 92.9371 196.438 92.2719 196.478 91.5999C196.518 90.928 196.787 90.2902 197.241 89.7936C197.695 89.2969 198.305 88.9716 198.97 88.8721C199.635 88.7726 200.314 88.905 200.893 89.2472C201.472 89.5893 201.915 90.1203 202.15 90.7512L200.319 92.2434L202.333 91.7667C202.335 92.2359 202.224 92.6987 202.009 93.1159Z" fill="#246EB2"/>
<path d="M200.561 87.4148C199.842 87.4495 199.135 87.2176 198.576 86.7635C198.016 86.3094 197.643 85.6648 197.528 84.9529C197.413 84.2409 197.564 83.5115 197.951 82.9038C198.339 82.2961 198.937 81.8527 199.631 81.6583L199.616 82.8668L200.281 81.5534C201.057 81.5178 201.816 81.7923 202.39 82.3165C202.965 82.8408 203.308 83.572 203.344 84.3494C203.363 84.7343 203.305 85.1191 203.174 85.4817C203.044 85.8442 202.844 86.1775 202.584 86.4625C202.325 86.7474 202.013 86.9784 201.664 87.1422C201.316 87.306 200.939 87.3995 200.554 87.4172L200.561 87.4148Z" fill="#246EB2"/>
<path d="M207.673 82.6768C207.219 82.7 206.766 82.617 206.349 82.4343C205.932 82.2516 205.564 81.9743 205.273 81.6243C204.981 81.2743 204.776 80.8613 204.672 80.4179C204.567 79.9745 204.568 79.513 204.673 79.0698C204.778 78.6265 204.984 78.2139 205.276 77.8644C205.568 77.515 205.937 77.2383 206.354 77.0563C206.771 76.8744 207.224 76.7921 207.678 76.8161C208.133 76.84 208.575 76.9696 208.971 77.1944L208.452 78.6246L209.518 77.5996C209.802 77.8579 210.033 78.1698 210.196 78.5175C210.36 78.8652 210.453 79.2419 210.47 79.6257C210.485 79.8972 210.46 80.1694 210.397 80.4338C210.247 81.053 209.901 81.6067 209.41 82.0114C208.918 82.416 208.309 82.6496 207.673 82.6768Z" fill="#246EB2"/>
<path opacity="0.1" d="M206.841 74.0336C206.165 74.1099 205.506 74.3196 204.827 74.3625C204.149 74.4054 203.399 74.241 202.973 73.7118C202.774 73.4051 202.593 73.0867 202.432 72.7583C202.247 72.4696 201.993 72.2307 201.694 72.0623C201.504 72.4342 201.396 72.8426 201.376 73.2599C201.357 73.6772 201.426 74.094 201.58 74.4822C201.735 74.8704 201.97 75.2212 202.27 75.5111C202.571 75.801 202.929 76.0233 203.323 76.1632C203.716 76.303 204.134 76.3572 204.55 76.322C204.966 76.2869 205.369 76.1633 205.734 75.9594C206.098 75.7555 206.414 75.4761 206.662 75.1399C206.91 74.8037 207.083 74.4184 207.17 74.0097C207.06 74.0145 206.951 74.0217 206.841 74.0336Z" fill="black"/>
<path opacity="0.1" d="M207.675 82.6745C207.17 82.6978 206.667 82.5899 206.216 82.3614C205.765 82.1328 205.381 81.7914 205.1 81.3702C204.82 80.949 204.653 80.4624 204.615 79.9575C204.578 79.4526 204.672 78.9467 204.887 78.4888C205.12 78.645 205.321 78.8449 205.478 79.0775C205.652 79.4123 205.846 79.7363 206.059 80.0477C206.513 80.5864 207.294 80.7628 208.001 80.7294C208.708 80.6961 209.391 80.4911 210.096 80.4315C210.194 80.4315 210.294 80.4148 210.391 80.4124C210.246 81.034 209.902 81.5912 209.412 81.9994C208.922 82.4076 208.312 82.6447 207.675 82.6745Z" fill="black"/>
<path opacity="0.1" d="M200.561 87.414C200.061 87.4385 199.562 87.3339 199.113 87.11C198.664 86.8861 198.28 86.5505 197.998 86.1354C197.716 85.7203 197.545 85.2395 197.501 84.7393C197.458 84.239 197.543 83.7359 197.75 83.2783C197.99 83.4384 198.2 83.6402 198.369 83.8742C198.607 84.196 198.738 84.5679 199.005 84.8635C199.5 85.4165 200.331 85.6096 201.08 85.5929C201.83 85.5762 202.509 85.3974 203.223 85.3426C203.046 85.9202 202.696 86.4291 202.219 86.7998C201.743 87.1706 201.164 87.385 200.561 87.414Z" fill="black"/>
<path opacity="0.1" d="M202.008 93.1149C201.658 93.7696 201.074 94.2675 200.373 94.5084C199.671 94.7492 198.905 94.7152 198.228 94.4131C197.551 94.1111 197.013 93.5634 196.722 92.8803C196.432 92.1971 196.411 91.4293 196.663 90.7312C196.905 90.8892 197.122 91.0829 197.306 91.3057C197.587 91.6465 197.77 92.0208 198.092 92.3497C198.692 92.9385 199.658 93.1793 200.52 93.2031C201.017 93.2026 201.514 93.1731 202.008 93.1149Z" fill="black"/>
<path d="M236.96 135.008C237.582 133.857 236.877 132.443 236.065 131.416C235.254 130.388 234.268 129.321 234.289 128.009C234.318 126.129 236.313 125.018 237.908 124.019C239.09 123.277 240.18 122.397 241.155 121.397C241.565 121.014 241.903 120.561 242.155 120.06C242.483 119.323 242.474 118.487 242.455 117.676C242.387 114.991 242.254 112.308 242.057 109.629" stroke="#3F3D56" stroke-width="4" stroke-miterlimit="10"/>
<path d="M245.084 109.483C245.061 108.992 244.916 108.515 244.66 108.095C244.405 107.675 244.048 107.326 243.622 107.081L242.965 108.38L242.984 106.807C242.676 106.715 242.354 106.675 242.032 106.69C241.453 106.717 240.895 106.915 240.429 107.26C239.962 107.604 239.609 108.08 239.412 108.626C239.215 109.172 239.185 109.764 239.324 110.327C239.464 110.89 239.767 111.4 240.196 111.79C240.624 112.181 241.159 112.436 241.732 112.522C242.305 112.609 242.891 112.523 243.416 112.276C243.94 112.029 244.38 111.632 244.679 111.135C244.978 110.638 245.123 110.063 245.096 109.483H245.084Z" fill="#246EB2"/>
<path d="M239.859 129.346C239.552 129.945 239.048 130.419 238.433 130.69C237.817 130.961 237.128 131.012 236.479 130.834C235.831 130.657 235.263 130.261 234.871 129.714C234.48 129.167 234.288 128.502 234.327 127.83C234.367 127.158 234.637 126.52 235.091 126.024C235.544 125.527 236.155 125.202 236.82 125.102C237.484 125.003 238.163 125.135 238.742 125.477C239.321 125.819 239.765 126.35 239.999 126.981L238.169 128.473L240.183 127.997C240.185 128.466 240.074 128.929 239.859 129.346Z" fill="#246EB2"/>
<path d="M238.411 123.646C237.692 123.681 236.985 123.449 236.425 122.995C235.866 122.541 235.493 121.896 235.378 121.184C235.262 120.472 235.413 119.743 235.801 119.135C236.189 118.528 236.787 118.084 237.48 117.89L237.466 119.098L238.13 117.785C238.907 117.749 239.665 118.024 240.24 118.548C240.814 119.072 241.158 119.803 241.194 120.581C241.212 120.966 241.154 121.351 241.024 121.713C240.894 122.076 240.693 122.409 240.434 122.694C240.175 122.979 239.862 123.21 239.514 123.374C239.166 123.538 238.788 123.631 238.404 123.649L238.411 123.646Z" fill="#246EB2"/>
<path d="M245.525 118.908C245.071 118.931 244.617 118.848 244.2 118.665C243.784 118.483 243.415 118.205 243.124 117.855C242.833 117.505 242.627 117.092 242.523 116.649C242.419 116.205 242.419 115.744 242.524 115.301C242.629 114.858 242.836 114.445 243.127 114.095C243.419 113.746 243.788 113.469 244.205 113.287C244.622 113.105 245.076 113.023 245.53 113.047C245.984 113.071 246.427 113.2 246.822 113.425L246.303 114.856L247.37 113.831C247.654 114.089 247.884 114.401 248.048 114.749C248.211 115.096 248.304 115.473 248.322 115.857C248.336 116.128 248.311 116.4 248.248 116.665C248.099 117.284 247.752 117.838 247.261 118.242C246.77 118.647 246.16 118.881 245.525 118.908Z" fill="#246EB2"/>
<path opacity="0.1" d="M244.691 110.264C244.015 110.341 243.355 110.55 242.677 110.593C241.998 110.636 241.248 110.472 240.822 109.942C240.623 109.636 240.443 109.317 240.282 108.989C240.096 108.7 239.843 108.461 239.544 108.293C239.354 108.665 239.246 109.073 239.226 109.491C239.206 109.908 239.276 110.325 239.43 110.713C239.584 111.101 239.819 111.452 240.12 111.742C240.42 112.032 240.779 112.254 241.172 112.394C241.565 112.534 241.984 112.588 242.4 112.553C242.815 112.518 243.219 112.394 243.583 112.19C243.947 111.986 244.264 111.707 244.512 111.371C244.759 111.034 244.932 110.649 245.019 110.24C244.91 110.245 244.8 110.252 244.691 110.264Z" fill="black"/>
<path opacity="0.1" d="M245.525 118.908C245.02 118.932 244.517 118.824 244.066 118.595C243.615 118.367 243.23 118.025 242.95 117.604C242.669 117.183 242.502 116.696 242.465 116.191C242.428 115.687 242.521 115.181 242.737 114.723C242.97 114.879 243.17 115.079 243.327 115.311C243.501 115.646 243.695 115.97 243.908 116.282C244.363 116.82 245.144 116.997 245.851 116.963C246.558 116.93 247.241 116.725 247.946 116.665C248.043 116.665 248.143 116.649 248.241 116.646C248.096 117.268 247.752 117.825 247.261 118.233C246.771 118.642 246.162 118.879 245.525 118.908Z" fill="black"/>
<path opacity="0.1" d="M238.411 123.647C237.91 123.672 237.411 123.567 236.962 123.343C236.514 123.119 236.13 122.784 235.847 122.369C235.565 121.954 235.394 121.473 235.351 120.973C235.307 120.472 235.393 119.969 235.6 119.512C235.84 119.672 236.049 119.874 236.219 120.108C236.457 120.429 236.588 120.801 236.854 121.097C237.349 121.65 238.18 121.843 238.93 121.826C239.68 121.81 240.358 121.631 241.073 121.576C240.896 122.154 240.545 122.663 240.069 123.033C239.593 123.404 239.014 123.618 238.411 123.647Z" fill="black"/>
<path opacity="0.1" d="M239.859 129.349C239.51 130.003 238.926 130.501 238.224 130.742C237.523 130.983 236.757 130.949 236.079 130.647C235.402 130.345 234.864 129.797 234.574 129.114C234.284 128.431 234.263 127.663 234.515 126.965C234.757 127.123 234.973 127.317 235.158 127.539C235.439 127.88 235.634 128.254 235.943 128.583C236.543 129.172 237.51 129.413 238.371 129.437C238.869 129.436 239.365 129.407 239.859 129.349Z" fill="black"/>
</g>
<defs>
<clipPath id="clip0">
<rect width="260.911" height="137" fill="white"/>
</clipPath>
</defs>
</svg>
