<svg width="56" height="56" viewBox="0 0 56 56" fill="none" xmlns="http://www.w3.org/2000/svg">
   <path d="M46.6663 28V42C46.6663 47.1547 42.4877 51.3333 37.333 51.3333H18.6663C13.5117 51.3333 9.33301 47.1547 9.33301 42V28" stroke="#FDA29B" stroke-width="2.6"/>
   <path d="M39.1275 4.66602H16.8734C12.6329 4.66602 8.81965 7.57045 7.24477 11.9998L5.47614 16.9741C4.94077 18.4798 4.57069 20.0911 4.96118 21.6407C5.88599 25.3108 8.88637 27.9994 12.4449 27.9994C16.7405 27.9994 20.2227 24.0818 20.2227 19.2493C20.2227 24.0818 23.7049 27.9994 28.0005 27.9994C32.296 27.9994 35.7783 24.0818 35.7783 19.2493C35.7783 24.0818 39.2605 27.9994 43.556 27.9994C47.1146 27.9994 50.115 25.3108 51.0398 21.6407C51.4303 20.0911 51.0602 18.4798 50.5248 16.9741L48.7562 11.9998C47.1813 7.57044 43.368 4.66602 39.1275 4.66602Z" stroke="#FDA29B" stroke-width="2.6" stroke-linejoin="round"/>
   <path d="M21 39.666C26.4977 42.7935 29.511 42.7607 35 39.666" stroke="#FDA29B" stroke-width="2.6" stroke-linecap="round" stroke-linejoin="round"/>
</svg>
