<svg width="56" height="56" viewBox="0 0 56 56" fill="none" xmlns="http://www.w3.org/2000/svg">
   <path d="M28.0003 13.9993V51.3327M28.0003 13.9993H19.7503C18.5347 13.9993 17.369 13.5077 16.5094 12.6325C15.6499 11.7573 15.167 10.5704 15.167 9.33268C15.167 8.09501 15.6499 6.90802 16.5094 6.03286C17.369 5.15767 18.5347 4.66602 19.7503 4.66602C26.167 4.66602 28.0003 13.9993 28.0003 13.9993ZM28.0003 13.9993H36.2503C37.466 13.9993 38.6317 13.5077 39.4913 12.6325C40.3507 11.7573 40.8337 10.5704 40.8337 9.33268C40.8337 8.09501 40.3507 6.90802 39.4913 6.03286C38.6317 5.15767 37.466 4.66602 36.2503 4.66602C29.8336 4.66602 28.0003 13.9993 28.0003 13.9993ZM46.667 25.666V43.866C46.667 46.4796 46.667 47.7865 46.1583 48.7847C45.711 49.6627 44.997 50.3767 44.119 50.824C43.1208 51.3327 41.8139 51.3327 39.2003 51.3327H16.8003C14.1867 51.3327 12.88 51.3327 11.8817 50.824C11.0036 50.3767 10.2897 49.6627 9.8423 48.7847C9.33366 47.7865 9.33366 46.4796 9.33366 43.866V25.666M4.66699 17.7327V21.9327C4.66699 23.2395 4.66699 23.8929 4.9213 24.392C5.14502 24.8312 5.50198 25.1879 5.94102 25.4117C6.44014 25.666 7.09354 25.666 8.40033 25.666H47.6003C48.9072 25.666 49.5606 25.666 50.0597 25.4117C50.4988 25.1879 50.8556 24.8312 51.0793 24.392C51.3337 23.8929 51.3337 23.2395 51.3337 21.9327V17.7327C51.3337 16.4259 51.3337 15.7725 51.0793 15.2734C50.8556 14.8343 50.4988 14.4774 50.0597 14.2537C49.5606 13.9994 48.9072 13.9993 47.6003 13.9993H8.40033C7.09354 13.9993 6.44014 13.9994 5.94102 14.2537C5.50198 14.4774 5.14502 14.8343 4.9213 15.2734C4.66699 15.7725 4.66699 16.4259 4.66699 17.7327Z" stroke="#12B76A" stroke-width="2.6" stroke-linecap="round" stroke-linejoin="round"/>
</svg>
