<svg width="64" height="64" viewBox="0 0 64 64" fill="none" xmlns="http://www.w3.org/2000/svg">
   <path d="M41.0389 13.8901L44.7989 21.4101C45.3055 22.4501 46.6655 23.4367 47.8122 23.65L54.6123 24.77C58.9589 25.49 59.9722 28.6367 56.8522 31.7834L51.5455 37.0901C50.6655 37.9701 50.1589 39.7034 50.4523 40.9567L51.9722 47.5167C53.1722 52.6901 50.3989 54.7167 45.8389 51.9967L39.4655 48.2101C38.3189 47.5167 36.3989 47.5167 35.2522 48.2101L28.8789 51.9967C24.3189 54.6901 21.5456 52.6901 22.7456 47.5167L24.2656 40.9567C24.5589 39.7301 24.0522 37.9967 23.1722 37.0901L17.8656 31.7834C14.7456 28.6634 15.7589 25.5167 20.1056 24.77L26.9055 23.65C28.0522 23.4634 29.4122 22.4501 29.9189 21.4101L33.6789 13.8901C35.6789 9.81008 38.9856 9.81008 41.0389 13.8901Z" stroke="#84ADFF" stroke-width="2.6" stroke-linecap="round" stroke-linejoin="round"/>
   <path d="M13.335 50.668H5.33496" stroke="#84ADFF" stroke-width="2.6" stroke-linecap="round" stroke-linejoin="round"/>
   <path d="M8.00163 32.0039H5.33496" stroke="#84ADFF" stroke-width="2.6" stroke-linecap="round" stroke-linejoin="round"/>
</svg>
