<svg width="21" height="20" viewBox="0 0 21 20" fill="none" xmlns="http://www.w3.org/2000/svg">
<path d="M18.2083 7.62409C16.2833 4.59909 13.4666 2.85742 10.5 2.85742C9.01663 2.85742 7.57496 3.29076 6.25829 4.09909C4.94163 4.91576 3.75829 6.10742 2.79163 7.62409C1.95829 8.93242 1.95829 11.0574 2.79163 12.3658C4.71663 15.3991 7.53329 17.1324 10.5 17.1324C11.9833 17.1324 13.425 16.6991 14.7416 15.8908C16.0583 15.0741 17.2416 13.8824 18.2083 12.3658C19.0416 11.0658 19.0416 8.93242 18.2083 7.62409ZM10.5 13.3658C8.63329 13.3658 7.13329 11.8574 7.13329 9.99909C7.13329 8.14076 8.63329 6.63242 10.5 6.63242C12.3666 6.63242 13.8666 8.14076 13.8666 9.99909C13.8666 11.8574 12.3666 13.3658 10.5 13.3658Z" fill="#9AA4B2"/>
<path d="M10.5 7.61719C9.19167 7.61719 8.125 8.68385 8.125 10.0005C8.125 11.3089 9.19167 12.3755 10.5 12.3755C11.8083 12.3755 12.8833 11.3089 12.8833 10.0005C12.8833 8.69219 11.8083 7.61719 10.5 7.61719Z" fill="#9AA4B2"/>
</svg>
