<svg width="14" height="14" viewBox="0 0 14 14" fill="none" xmlns="http://www.w3.org/2000/svg">
<path fill-rule="evenodd" clip-rule="evenodd" d="M13.75 11.0156V12.25C13.75 13.0785 13.0785 13.75 12.25 13.75C5.62255 13.75 0.25 8.37745 0.25 1.75C0.25 0.921572 0.921572 0.25 1.75 0.25H2.98445C3.5978 0.25 4.14937 0.623425 4.37717 1.19291L4.9874 2.71852C5.27714 3.44285 4.96328 4.26836 4.26552 4.61724L4 4.75C4 4.75 4.375 6.625 5.875 8.125C7.375 9.625 9.25 10 9.25 10L9.38275 9.7345C9.73165 9.0367 10.5572 8.72283 11.2814 9.01262L12.8071 9.62282C13.3766 9.8506 13.75 10.4022 13.75 11.0156ZM11.5 6.0625C11.8106 6.0625 12.0625 5.81065 12.0625 5.5C12.0625 5.18934 11.8106 4.9375 11.5 4.9375H10C9.95492 4.9375 9.91068 4.93432 9.86732 4.92819L13.3977 1.39775C13.6174 1.17808 13.6174 0.82192 13.3977 0.602253C13.1781 0.382585 12.8219 0.382585 12.6023 0.602253L9.0718 4.13269C9.06565 4.08934 9.0625 4.04504 9.0625 4V2.5C9.0625 2.18934 8.81065 1.9375 8.5 1.9375C8.18935 1.9375 7.9375 2.18934 7.9375 2.5V4C7.9375 5.13908 8.8609 6.0625 10 6.0625H11.5Z" fill="#9AA4B2"/>
</svg>
