<svg
  width="136"
  height="70"
  viewBox="0 0 136 70"
  fill="none"
  xmlns="http://www.w3.org/2000/svg"
>
<g clip-path="url(#clip0_9494_53223)">
<rect width="136" height="70" rx="10" fill="#343436" />
<path
      fill-rule="evenodd"
      clip-rule="evenodd"
      d="M46.397 -24.858L46.4563 -24.5911C46.6594 -23.4538 46.8394 -22.2934 47.0581 -21.5337C50.0538 -11.1826 49.5044 1.00977 48.4945 11.6363C46.0656 37.0612 45.0021 62.6128 44.4262 88.1503C44.2643 95.3057 44.9796 102.474 45.2822 109.616C45.374 111.729 45.5004 113.831 45.6212 115.938C45.6839 116.855 45.3337 118.785 45.3503 119.784C45.3538 120.504 45.5364 121.031 45.7005 121.333C46.134 122.085 46.7568 122.402 47.4481 122.451C47.8955 122.489 48.6154 122.439 49.3723 121.663C57.305 113.476 63.9637 98.9883 69.7422 82.6701C78.2295 58.7019 84.897 30.7823 91.451 13.9376C93.177 9.50962 95.1388 -0.117126 97.7994 -8.12701C98.9722 -11.6811 100.228 -14.922 101.721 -17.0491C101.656 -14.9524 101.332 -12.349 101.398 -10.8627C101.685 -4.44121 100.98 2.00243 100.89 8.41995C100.609 27.9397 111.669 87.0033 116.717 106.009C120.795 121.384 152.311 206.641 187.363 246.212C188.116 247.062 189.411 247.143 190.261 246.389C191.111 245.636 191.186 244.335 190.439 243.49C155.807 204.394 124.714 120.145 120.684 104.955C115.695 86.1587 104.714 27.7742 104.996 8.48674C105.091 1.9821 105.785 -4.54302 105.497 -11.0458C105.392 -13.3914 106.065 -18.3076 105.59 -20.3727C105.323 -21.5386 104.704 -22.2324 104.092 -22.5604C103.341 -22.9574 102.289 -23.1321 100.993 -22.1849C98.8754 -20.6296 96.9459 -17.4087 95.3226 -13.3529C91.9499 -4.90394 89.6295 7.30286 87.6284 12.4523C81.0628 29.3202 74.3724 57.2867 65.8737 81.3015C61.1317 94.6818 55.8665 106.828 49.6816 114.977C49.5679 113.131 49.4717 111.291 49.387 109.438C49.079 102.384 48.3703 95.3144 48.5268 88.2461C49.109 62.8072 50.1613 37.3486 52.5791 12.0283C53.6389 0.907903 54.1331 -11.8475 51.0072 -22.6743C50.5641 -24.1994 50.2291 -27.3627 49.5259 -28.6368C49.0747 -29.4534 48.4509 -29.8972 47.8519 -30.0742C47.119 -30.3029 46.2305 -30.2812 45.2822 -29.4634C41.3904 -26.1281 36.4263 -18.92 31.1979 -9.95078C19.3302 10.4279 5.87053 39.9786 -0.139188 51.8379C-4.17635 59.8023 -7.91034 67.9743 -12.1979 75.8064C-12.4108 76.1966 -17.0855 83.2873 -19.3162 86.6609C-20.3956 84.4711 -21.4516 81.1138 -22.5338 77.1993C-26.3246 63.4374 -29.6498 42.8902 -30.7376 36.6701C-32.8294 24.7407 -34.608 12.7867 -36.9784 0.905134C-40.7185 -17.8455 -45.0675 -36.4479 -48.6046 -55.2402C-48.8076 -56.3542 -49.8855 -57.0864 -50.9937 -56.8777C-52.1135 -56.6688 -52.8457 -55.5909 -52.6369 -54.4828C-49.1056 -35.673 -44.7506 -17.0532 -41.0046 1.71485C-38.6403 13.5558 -36.8678 25.4809 -34.7819 37.3813C-33.6822 43.6593 -30.3153 64.398 -26.489 78.2875C-24.7384 84.6552 -22.7743 89.6282 -20.9878 91.5241C-20.4858 92.0443 -19.1696 92.7926 -17.6954 91.4438C-15.8108 89.7155 -8.89856 78.3336 -8.59352 77.7804C-4.28877 69.9075 -0.537501 61.695 3.52271 53.6956C9.51521 41.877 22.9233 12.4253 34.7507 -7.87774C39.0059 -15.187 43.0174 -21.3046 46.397 -24.858Z"
      fill="#B8D9FF"
    />
</g>
<defs>
<clipPath id="clip0_9494_53223">
<rect width="136" height="70" rx="10" fill="#343436" />
</clipPath>
</defs>
</svg>
