<svg width="339" height="520" viewBox="0 0 339 520" fill="none" xmlns="http://www.w3.org/2000/svg">
<path fill-rule="evenodd" clip-rule="evenodd" d="M115.089 16.5805C112.102 21.1912 110.431 27.4293 107.088 39.9055L5.31055 419.743C1.96755 432.219 0.296072 438.457 0.577079 443.943C1.14504 455.031 6.96892 465.166 16.2428 471.204C20.8315 474.192 27.0445 475.856 39.4705 479.186L172.435 514.814C184.861 518.143 191.074 519.808 196.542 519.515C207.593 518.923 217.703 513.058 223.739 503.74C226.726 499.129 228.397 492.891 231.74 480.415L333.517 100.577C336.86 88.101 338.532 81.8629 338.251 76.3766C337.683 65.2886 331.859 55.1543 322.585 49.1161C317.997 46.1284 311.784 44.4637 299.357 41.1341L166.393 5.50629C153.967 2.17675 147.754 0.511976 142.286 0.805028C131.235 1.39731 121.125 7.26196 115.089 16.5805ZM172.932 18.9328L172.258 21.4465L172.298 21.4559L172.183 21.7257C170.406 28.3584 174.32 35.1702 180.926 36.9403L271.053 61.0897C277.659 62.8598 284.455 58.9178 286.232 52.2851L286.268 51.9939L286.307 52.0058L286.981 49.4922C287.435 47.7954 289.174 46.787 290.864 47.2399L298.029 49.1599C309.232 52.1616 314.833 53.6624 318.846 56.5542C325.154 61.0995 329.205 68.1497 329.969 75.9104C330.456 80.8479 328.949 86.4717 325.935 97.7192L223.745 479.098C220.731 490.346 219.224 495.97 216.334 500.003C211.792 506.341 204.758 510.421 197.023 511.204C192.102 511.702 186.501 510.201 175.298 507.199L40.7978 471.16C29.5955 468.158 23.9943 466.657 19.9812 463.766C13.6736 459.22 9.62209 452.17 8.85788 444.41C8.37169 439.472 9.87858 433.848 12.8923 422.601L115.083 41.2215C118.096 29.9739 119.603 24.3502 122.493 20.3173C127.035 13.9784 134.069 9.89851 141.804 9.116C146.726 8.61816 152.327 10.119 163.529 13.1206L170.695 15.0407C172.385 15.4936 173.386 17.2361 172.932 18.9328Z" fill="#121515"/>
</svg>
