<svg width="45" height="45" viewBox="0 0 45 45" fill="none" xmlns="http://www.w3.org/2000/svg">
<path d="M22.5 45C34.9264 45 45 34.9264 45 22.5C45 10.0736 34.9264 0 22.5 0C10.0736 0 0 10.0736 0 22.5C0 34.9264 10.0736 45 22.5 45Z" fill="#0D5F7F"/>
<path d="M22.4988 0C22.0426 0 21.5901 0.0152051 21.1406 0.0420117C32.9345 0.744346 42.2825 10.5297 42.2825 22.5C42.2825 34.4703 32.9345 44.2557 21.1407 44.9581C21.5901 44.9848 22.0426 45 22.4988 45C34.9252 45 44.9988 34.9264 44.9988 22.5C44.9988 10.0736 34.9252 0 22.4988 0Z" fill="#094C66"/>
<path d="M16.4789 39.9148C10.8151 37.9507 6.39719 33.2964 4.76172 27.4885L5.52593 15.3346C8.32691 8.72372 14.8814 4.07422 22.5012 4.07422C30.0942 4.07422 36.6293 8.69094 39.4467 15.2646L16.4789 39.9148Z" fill="white"/>
<path d="M5.555 15.2651C4.60253 17.4874 4.07422 19.933 4.07422 22.4999C4.07422 24.2281 4.3139 25.9012 4.76082 27.4884C5.48935 26.9823 8.1265 25.2828 11.6925 25.6791C11.7634 25.687 11.8337 25.6956 11.9034 25.7048C14.8633 26.0992 17.2348 28.3711 17.8092 31.3013C17.9508 32.0236 18.0409 32.8225 18.0407 33.6876C18.0402 36.7059 16.9416 38.9181 16.388 39.8821C16.8874 40.0583 17.5595 40.2711 18.368 40.4573C19.6965 40.7633 21.0796 40.9254 22.4998 40.9254C24.6412 40.9254 26.698 40.5568 28.6114 39.8821C28.2027 38.3341 27.8075 36.2163 27.8072 33.6876C27.8071 32.6587 27.8725 31.6979 27.9775 30.8158C28.3686 27.5308 31.1197 24.9928 34.4279 24.9925C34.4992 24.9925 34.5712 24.9935 34.6437 24.9954C37.8587 25.0827 39.8537 27.0859 40.2387 27.4884C40.5881 26.2409 40.9253 24.5353 40.9253 22.4999C40.9253 19.933 40.397 17.4874 39.4445 15.2651C35.6554 13.9913 30.0325 12.5749 23.1193 12.4943C15.5904 12.4066 9.50384 13.9378 5.555 15.2651V15.2651Z" fill="#094C66"/>
<path d="M40.2378 27.4887C40.5872 26.2412 40.9244 24.5356 40.9244 22.5002C40.9244 19.9334 40.3961 17.4877 39.4436 15.2654C38.5014 14.9486 37.4457 14.6231 36.2852 14.3115C37.5149 16.7798 38.2081 19.5604 38.2081 22.5003C38.2081 23.6283 38.1049 24.7325 37.9099 25.8051C39.2042 26.438 40.008 27.2485 40.2378 27.4887V27.4887Z" fill="#084254"/>
<path d="M23.1034 40.915C23.1904 40.9121 23.2775 40.9091 23.3645 40.9051C23.4442 40.9014 23.5239 40.897 23.6033 40.8923C23.6546 40.8893 23.7059 40.886 23.7571 40.8826C25.4466 40.7677 27.0744 40.424 28.6097 39.8826C28.5219 39.5502 28.4351 39.19 28.3524 38.8066C26.1714 39.9576 23.7335 40.6845 21.1484 40.875C21.2096 40.8795 21.2707 40.8842 21.332 40.8881C21.3797 40.8911 21.4272 40.8947 21.475 40.8973C21.6168 40.9051 21.7591 40.9109 21.9017 40.9156C21.9467 40.9171 21.9918 40.9182 22.0369 40.9194C22.1902 40.9231 22.3438 40.9259 22.4979 40.9259C22.6445 40.9259 22.791 40.9238 22.9375 40.9203C22.9931 40.919 23.0482 40.9167 23.1034 40.915V40.915Z" fill="#084254"/>
<path d="M22.5011 24.7102C24.7907 24.7102 26.6467 22.8541 26.6467 20.5646C26.6467 18.275 24.7907 16.4189 22.5011 16.4189C20.2115 16.4189 18.3555 18.275 18.3555 20.5646C18.3555 22.8541 20.2115 24.7102 22.5011 24.7102Z" fill="white"/>
<path d="M34.4443 45C40.2751 45 45.0019 40.2732 45.0019 34.4424C45.0019 28.6116 40.2751 23.8848 34.4443 23.8848C28.6135 23.8848 23.8867 28.6116 23.8867 34.4424C23.8867 40.2732 28.6135 45 34.4443 45Z" fill="#F9F7F8"/>
<path d="M34.4441 23.8848C33.9839 23.8848 33.5307 23.9144 33.0859 23.9715C38.2753 24.638 42.2855 29.0718 42.2855 34.4424C42.2855 39.8129 38.2753 44.2468 33.0859 44.9133C33.5306 44.9703 33.9839 45 34.4441 45C40.275 45 45.0017 40.2731 45.0017 34.4424C45.0017 28.6116 40.275 23.8848 34.4441 23.8848Z" fill="#EFEDEF"/>
<path d="M35.8023 31.4936V27.4318C35.8023 26.9317 35.3969 26.5264 34.8968 26.5264H33.9914C33.4913 26.5264 33.0859 26.9317 33.0859 27.4318V31.4936H35.8023Z" fill="#0D5F7F"/>
<path d="M36.3718 42.3591H32.5127C31.7032 42.3591 31.0469 41.7029 31.0469 40.8933V35.1772C31.0469 34.5838 31.2234 34.0046 31.5532 33.5112C31.8162 33.1177 32.0842 32.6637 32.3339 32.1481C32.6939 31.4051 32.9283 30.7156 33.0841 30.1357H35.8004C35.9626 30.7065 36.195 31.3671 36.5334 32.0748C36.7928 32.6172 37.071 33.0963 37.3448 33.5134C37.6658 34.0026 37.8376 34.5738 37.8376 35.1589V40.8933C37.8377 41.7029 37.1814 42.3591 36.3718 42.3591V42.3591Z" fill="#42EAA5"/>
<path d="M37.3467 33.5134C37.073 33.0964 36.7947 32.6172 36.5354 32.0748C36.1969 31.367 35.9645 30.7065 35.8022 30.1357H33.0859C33.2482 30.7065 33.4806 31.3671 33.8191 32.0748C34.0785 32.6172 34.3567 33.0963 34.6304 33.5134C34.9515 34.0025 35.1232 34.5737 35.1232 35.1589V40.8933C35.1232 41.7029 34.467 42.3591 33.6574 42.3591H36.3737C37.1832 42.3591 37.8395 41.7029 37.8395 40.8933V35.1589C37.8395 34.5737 37.6678 34.0025 37.3467 33.5134V33.5134Z" fill="#1EC186"/>
</svg>
