<svg width="45" height="45" viewBox="0 0 45 45" fill="none" xmlns="http://www.w3.org/2000/svg">
<g clip-path="url(#clip0_7813_47416)">
<path d="M44.1824 20.8803H32.4824C32.3 20.88 32.1231 20.8183 31.9801 20.705C31.8372 20.5917 31.7367 20.4334 31.6949 20.2559C31.2874 18.5634 30.4188 17.0169 29.1856 15.7882C27.9523 14.5596 26.4027 13.6967 24.7087 13.2955C24.5307 13.2541 24.372 13.1538 24.2582 13.0109C24.1445 12.8679 24.0824 12.6907 24.082 12.508V0.810254C24.0823 0.696353 24.1066 0.583785 24.1532 0.479858C24.1998 0.37593 24.2677 0.282968 24.3526 0.207007C24.4375 0.131046 24.5374 0.0737843 24.6458 0.0389402C24.7542 0.00409619 24.8688 -0.00755124 24.9821 0.00475421C30.0937 0.556522 34.8637 2.83743 38.5022 6.46985C42.1408 10.1023 44.4298 14.8684 44.9902 19.9791C45.0027 20.0926 44.9911 20.2075 44.9562 20.3162C44.9213 20.425 44.8638 20.5251 44.7876 20.6102C44.7114 20.6952 44.6181 20.7632 44.5138 20.8097C44.4095 20.8563 44.2966 20.8803 44.1824 20.8803Z" fill="#FF7258"/>
<path d="M24.0781 12.5071V10.0996C26.8211 10.4429 29.372 11.6883 31.3298 13.6399C33.2875 15.5916 34.5409 18.1386 34.8927 20.8805H32.4785C32.2961 20.8803 32.1191 20.8185 31.9762 20.7052C31.8333 20.5919 31.7328 20.4336 31.691 20.2561C31.2835 18.5636 30.4149 17.0172 29.1817 15.7885C27.9484 14.5598 26.3987 13.6969 24.7047 13.2957C24.5266 13.2543 24.3677 13.1539 24.2539 13.0107C24.1402 12.8675 24.0782 12.69 24.0781 12.5071Z" fill="#F95D48"/>
<path d="M44.9923 24.8199C44.5482 29.1218 42.865 33.2022 40.1469 36.566C40.0756 36.655 39.9864 36.7281 39.885 36.7803C39.7836 36.8325 39.6723 36.8628 39.5585 36.8691C39.4446 36.8755 39.3306 36.8578 39.2241 36.8172C39.1175 36.7766 39.0206 36.7141 38.9398 36.6336L32.389 30.0827L30.6654 28.3592C30.5365 28.2292 30.4552 28.0595 30.4348 27.8776C30.4143 27.6956 30.456 27.5121 30.5529 27.3568C31.0882 26.4908 31.4781 25.543 31.7072 24.5511C31.7478 24.3724 31.8478 24.2127 31.9908 24.0981C32.1338 23.9835 32.3114 23.9207 32.4947 23.9199H44.1857C44.2997 23.92 44.4124 23.9442 44.5164 23.9907C44.6205 24.0373 44.7136 24.1052 44.7897 24.1901C44.8658 24.275 44.9231 24.3749 44.958 24.4835C44.9929 24.592 45.0046 24.7066 44.9923 24.8199Z" fill="#FFDC65"/>
<path d="M34.9067 23.9191C34.6453 26.1642 33.7746 28.295 32.389 30.0807L30.6654 28.3572C30.5365 28.2273 30.4552 28.0575 30.4348 27.8756C30.4143 27.6936 30.456 27.5101 30.5529 27.3548C31.0882 26.4888 31.4781 25.541 31.7072 24.5491C31.7478 24.3704 31.8478 24.2107 31.9908 24.0961C32.1338 23.9815 32.3114 23.9187 32.4947 23.918H34.9056L34.9067 23.9191Z" fill="#FFC846"/>
<path d="M36.7964 38.7904C36.8768 38.8711 36.9393 38.9678 36.9798 39.0742C37.0204 39.1807 37.0381 39.2944 37.0319 39.4082C37.0256 39.5219 36.9955 39.633 36.9435 39.7344C36.8915 39.8357 36.8188 39.925 36.73 39.9964C32.2361 43.6333 26.5174 45.4062 20.7542 44.9493C14.9911 44.4924 9.62323 41.8405 5.7585 37.5409C1.89377 33.2413 -0.172906 27.6221 -0.0150133 21.843C0.142879 16.0639 2.51329 10.5659 6.60702 6.48376C10.2378 2.83235 15.0164 0.544187 20.1374 0.00488381C20.2508 -0.00761258 20.3655 0.00393779 20.4741 0.038781C20.5827 0.0736242 20.6827 0.130977 20.7676 0.207096C20.8526 0.283214 20.9205 0.376388 20.967 0.480535C21.0135 0.584681 21.0375 0.69746 21.0374 0.811509V12.5115C21.0367 12.6945 20.9743 12.8718 20.8601 13.0148C20.7459 13.1577 20.5868 13.2579 20.4085 13.299C19.0824 13.6101 17.8399 14.206 16.7672 15.0453C15.6944 15.8847 14.8172 16.9475 14.1963 18.1598C13.5755 19.3722 13.2259 20.7051 13.1718 22.0662C13.1176 23.4272 13.3604 24.7837 13.883 26.0415C14.4057 27.2993 15.1958 28.4283 16.1985 29.3502C17.2012 30.2721 18.3925 30.9647 19.6898 31.3801C20.987 31.7954 22.3591 31.9235 23.7108 31.7555C25.0624 31.5874 26.3614 31.1272 27.5174 30.4069C27.673 30.3089 27.8572 30.2666 28.04 30.287C28.2227 30.3075 28.3931 30.3894 28.5231 30.5194L36.7964 38.7904Z" fill="#00ABE0"/>
<path d="M28.5239 30.515L30.2508 32.2419C28.7406 33.4329 26.9751 34.258 25.0927 34.6526C23.2104 35.0473 21.2622 35.0008 19.4008 34.5167C17.5394 34.0326 15.8153 33.1241 14.3637 31.8624C12.9121 30.6007 11.7723 29.0201 11.0336 27.2443C10.2949 25.4685 9.97743 23.5458 10.106 21.6268C10.2345 19.7078 10.8057 17.8446 11.7746 16.1832C12.7435 14.5218 14.084 13.1073 15.6909 12.0505C17.2979 10.9937 19.1277 10.3233 21.037 10.0918V12.5015C21.0364 12.6845 20.9739 12.8619 20.8597 13.0048C20.7456 13.1478 20.5864 13.2479 20.4082 13.289C19.0821 13.6001 17.8395 14.196 16.7668 15.0354C15.6941 15.8747 14.8168 16.9375 14.196 18.1499C13.5751 19.3622 13.2255 20.6952 13.1714 22.0562C13.1173 23.4172 13.36 24.7737 13.8827 26.0315C14.4053 27.2893 15.1954 28.4184 16.1981 29.3403C17.2009 30.2621 18.3922 30.9548 19.6894 31.3701C20.9866 31.7855 22.3587 31.9135 23.7104 31.7455C25.0621 31.5774 26.361 31.1173 27.517 30.3969C27.6734 30.2995 27.8582 30.2582 28.0412 30.2796C28.2241 30.3011 28.3944 30.3841 28.5239 30.515Z" fill="#099DD1"/>
</g>
<defs>
<clipPath id="clip0_7813_47416">
<rect width="45" height="44.9966" fill="white"/>
</clipPath>
</defs>
</svg>
