<svg width="45" height="45" viewBox="0 0 45 45" fill="none" xmlns="http://www.w3.org/2000/svg">
<path d="M8.33728 7.09843C7.62466 6.94955 6.92611 7.40667 6.77722 8.11937L5.07109 16.2873C4.9222 17 5.37932 17.6985 6.09203 17.8474C6.18299 17.8664 6.27352 17.8755 6.36291 17.8755C6.97392 17.8755 7.52218 17.4483 7.65208 16.8264L9.35813 8.65849C9.5071 7.94579 9.04998 7.24732 8.33728 7.09843Z" fill="#FF712F"/>
<path d="M13.9595 3.81517L5.25588 1.55444C4.76079 1.42595 4.24531 1.49775 3.80437 1.75694C3.36342 2.01613 3.04982 2.4315 2.92142 2.92659L1.99514 6.49636C1.73015 7.51791 2.34556 8.56486 3.36702 8.83012L12.0707 11.0909C12.2312 11.1326 12.3937 11.1532 12.5553 11.1532C12.8921 11.1532 13.2242 11.0635 13.5222 10.8883C13.9631 10.6292 14.2767 10.2138 14.4051 9.71869L15.3313 6.14893C15.5964 5.12737 14.981 4.08051 13.9595 3.81517Z" fill="#A34F3E"/>
<path d="M41.8432 32.7844V37.7396C41.8432 37.9822 41.6472 38.1791 41.4037 38.1791H36.64V33.6211C36.64 32.8934 36.0503 32.3027 35.3217 32.3027C34.594 32.3027 34.0033 32.8934 34.0033 33.6211V38.1791H16.4973C16.2547 38.1791 16.0578 37.9822 16.0578 37.7396V31.1971H8.50801C5.82471 31.1971 3.64062 29.0121 3.64062 26.3271V21.3516L6.36172 18.7148L9.08281 21.3516V25.7522H36.2665C36.386 25.7522 36.5012 25.8015 36.5838 25.8876L40.8781 30.3779C41.5004 31.0292 41.8432 31.8835 41.8432 32.7844Z" fill="#F6EFEA"/>
<path d="M41.8426 32.7821V37.7374C41.8426 37.98 41.6466 38.1769 41.4031 38.1769H36.6395V33.6188C36.6395 32.8911 36.0497 32.3005 35.3211 32.3005C34.5934 32.3005 34.0027 32.8911 34.0027 33.6188V38.1769H25.7656V25.75H36.2659C36.3855 25.75 36.5006 25.7992 36.5832 25.8854L40.8775 30.3757C41.4998 31.027 41.8426 31.8812 41.8426 32.7821Z" fill="#EEE1DC"/>
<path d="M28.5881 32.5421L27.8226 37.7391H23.711L22.9455 32.5421C22.9209 32.376 22.9534 32.2072 23.0369 32.0613L25.294 28.1361C24.4177 27.9234 23.7664 27.1342 23.7664 26.1911V22.3828H27.7672V26.1911C27.7672 26.7439 27.5431 27.244 27.181 27.6062C26.9261 27.861 26.6026 28.0482 26.2397 28.1361L28.4976 32.0613C28.5811 32.2072 28.6127 32.376 28.5881 32.5421Z" fill="#FF4949"/>
<path d="M28.5869 32.5421L27.8214 37.7391H25.7656V22.3828H27.766V26.1911C27.766 26.7439 27.5419 27.244 27.1798 27.6062C26.9249 27.861 26.6015 28.0482 26.2385 28.1361L28.4964 32.0613C28.5799 32.2072 28.6115 32.376 28.5869 32.5421Z" fill="#E50048"/>
<path d="M9.08281 18.84V21.3493H3.64062V18.84C3.64062 17.3389 4.86143 16.1172 6.36172 16.1172C7.86201 16.1172 9.08281 17.3389 9.08281 18.84Z" fill="#FFD1AE"/>
<path d="M45 40.395V40.4064C45 42.1142 43.6105 43.5037 41.9027 43.5037H3.09727C1.38955 43.5037 0 42.1142 0 40.4064V40.395C0 38.6864 1.38955 37.2969 3.09727 37.2969H41.9027C43.6105 37.2969 45 38.6864 45 40.395Z" fill="#424E53"/>
<path d="M44.9987 40.395V40.4064C44.9987 42.1142 43.6092 43.5037 41.9015 43.5037H25.7656V37.2969H41.9015C43.6092 37.2969 44.9987 38.6864 44.9987 40.395Z" fill="#292929"/>
<path d="M33.483 11.6094V16.3344C33.483 20.5892 30.0228 24.0521 25.7688 24.0521C21.5158 24.0521 18.0547 20.5892 18.0547 16.3344V13.3039L25.7688 12.4566L33.483 11.6094Z" fill="#FFD1AE"/>
<path d="M33.4798 11.6094V16.3344C33.4798 20.5892 30.0195 24.0521 25.7656 24.0521V12.4566L33.4798 11.6094Z" fill="#FFBD83"/>
<path d="M35.8121 4.27539V7.95889C35.8121 10.912 33.4188 13.3053 30.4657 13.3053H18.0547V8.56445C18.0547 5.46719 20.5657 2.95703 23.6621 2.95703H34.4938C35.2224 2.95703 35.8121 3.54774 35.8121 4.27539Z" fill="#A34F3E"/>
<path d="M30.4625 13.3053H25.7656V2.95703H34.4905C35.2191 2.95703 35.8089 3.54766 35.8089 4.27539V7.95889C35.8089 10.912 33.4156 13.3053 30.4625 13.3053Z" fill="#873F2E"/>
</svg>
