<svg width="41" height="45" viewBox="0 0 41 45" fill="none" xmlns="http://www.w3.org/2000/svg">
<g clip-path="url(#clip0_7813_47450)">
<path d="M6.53512 4.36523C4.80492 4.37439 3.14817 5.0657 1.92461 6.28905C0.701049 7.5124 0.00945647 9.16903 0 10.8992V38.4617C0.00945381 40.1917 0.700891 41.8482 1.92421 43.0715C3.14753 44.2948 4.80399 44.9863 6.534 44.9957H34.1134C35.8424 44.9857 37.4975 44.2938 38.7193 43.0703C39.9411 41.8469 40.6307 40.1907 40.6384 38.4617V10.8992C40.6307 9.17023 39.9411 7.5141 38.7193 6.29065C37.4975 5.06721 35.8424 4.37529 34.1134 4.36523H6.53512Z" fill="#75B5FF"/>
<path d="M28.7718 33.9395C28.1941 33.9395 27.6401 34.1689 27.2317 34.5774C26.8232 34.9858 26.5938 35.5398 26.5938 36.1175C26.5938 36.6951 26.8232 37.2491 27.2317 37.6575C27.6401 38.066 28.1941 38.2955 28.7718 38.2955H30.43C31.0076 38.2955 31.5616 38.066 31.9701 37.6575C32.3785 37.2491 32.608 36.6951 32.608 36.1175C32.608 35.5398 32.3785 34.9858 31.9701 34.5774C31.5616 34.1689 31.0076 33.9395 30.43 33.9395H28.7718Z" fill="#E4F5FF"/>
<path d="M10.1389 33.9395C9.5613 33.9395 9.00731 34.1689 8.59886 34.5774C8.1904 34.9858 7.96094 35.5398 7.96094 36.1175C7.96094 36.6951 8.1904 37.2491 8.59886 37.6575C9.00731 38.066 9.5613 38.2955 10.1389 38.2955H11.7972C12.3748 38.2955 12.9288 38.066 13.3373 37.6575C13.7457 37.2491 13.9752 36.6951 13.9752 36.1175C13.9752 35.5398 13.7457 34.9858 13.3373 34.5774C12.9288 34.1689 12.3748 33.9395 11.7972 33.9395H10.1389ZM19.4562 33.9395C18.8785 33.9395 18.3246 34.1689 17.9161 34.5774C17.5077 34.9858 17.2782 35.5398 17.2782 36.1175C17.2782 36.6951 17.5077 37.2491 17.9161 37.6575C18.3246 38.066 18.8785 38.2955 19.4562 38.2955H21.1144C21.6921 38.2955 22.2461 38.066 22.6545 37.6575C23.063 37.2491 23.2924 36.6951 23.2924 36.1175C23.2924 35.5398 23.063 34.9858 22.6545 34.5774C22.2461 34.1689 21.6921 33.9395 21.1144 33.9395H19.4562Z" fill="#E4F5FF"/>
<path d="M28.7739 22.4648C28.1978 22.4648 27.6452 22.6937 27.2378 23.1011C26.8304 23.5085 26.6016 24.0611 26.6016 24.6372C26.6016 25.2134 26.8304 25.7659 27.2378 26.1733C27.6452 26.5807 28.1978 26.8096 28.7739 26.8096H30.4322C31.0083 26.8096 31.5609 26.5807 31.9683 26.1733C32.3757 25.7659 32.6046 25.2134 32.6046 24.6372C32.6046 24.0611 32.3757 23.5085 31.9683 23.1011C31.5609 22.6937 31.0083 22.4648 30.4322 22.4648H28.7739Z" fill="#E4F5FF"/>
<path d="M10.1372 22.4648C9.56107 22.4648 9.00852 22.6937 8.60112 23.1011C8.19372 23.5085 7.96484 24.0611 7.96484 24.6372C7.96484 25.2134 8.19372 25.7659 8.60112 26.1733C9.00852 26.5807 9.56107 26.8096 10.1372 26.8096H11.7955C12.3716 26.8096 12.9242 26.5807 13.3316 26.1733C13.739 25.7659 13.9678 25.2134 13.9678 24.6372C13.9678 24.0611 13.739 23.5085 13.3316 23.1011C12.9242 22.6937 12.3716 22.4648 11.7955 22.4648H10.1372ZM19.4545 22.4648C18.8783 22.4648 18.3258 22.6937 17.9184 23.1011C17.511 23.5085 17.2821 24.0611 17.2821 24.6372C17.2821 25.2134 17.511 25.7659 17.9184 26.1733C18.3258 26.5807 18.8783 26.8096 19.4545 26.8096H21.1127C21.6889 26.8096 22.2414 26.5807 22.6488 26.1733C23.0562 25.7659 23.2851 25.2134 23.2851 24.6372C23.2851 24.0611 23.0562 23.5085 22.6488 23.1011C22.2414 22.6937 21.6889 22.4648 21.1127 22.4648H19.4545Z" fill="#E4F5FF"/>
<path d="M0 18.1352H40.6395V10.8992C40.6318 9.17023 39.9422 7.5141 38.7204 6.29065C37.4987 5.06721 35.8435 4.37529 34.1145 4.36523H6.53512C4.80492 4.37439 3.14817 5.0657 1.92461 6.28905C0.701049 7.5124 0.00945647 9.16903 0 10.8992V18.1352Z" fill="#4479F0"/>
<path d="M7.33203 7.26638C7.33203 10.1588 11.6835 10.0699 11.6835 7.26638V2.17575C11.6835 1.59871 11.4543 1.04529 11.0463 0.637262C10.6382 0.22923 10.0848 0 9.50778 0C8.93074 0 8.37733 0.22923 7.96929 0.637262C7.56126 1.04529 7.33203 1.59871 7.33203 2.17575V7.26638Z" fill="#75B5FF"/>
<path d="M28.9141 7.25372C28.9141 10.1416 33.2588 10.0527 33.2588 7.25372V2.17433C33.2588 1.59818 33.0299 1.04563 32.6225 0.638233C32.2151 0.230834 31.6626 0.00195312 31.0864 0.00195312C30.5103 0.00195312 29.9577 0.230834 29.5503 0.638233C29.1429 1.04563 28.9141 1.59818 28.9141 2.17433V7.25372Z" fill="#75B5FF"/>
</g>
<defs>
<clipPath id="clip0_7813_47450">
<rect width="40.6384" height="45" fill="white"/>
</clipPath>
</defs>
</svg>
