<svg width="38" height="45" viewBox="0 0 38 45" fill="none" xmlns="http://www.w3.org/2000/svg">
<path d="M11.3051 44.9989H2.32761C1.71084 44.9971 1.11984 44.7513 0.683709 44.3151C0.247583 43.879 0.00178088 43.288 0 42.6712L0 34.9088C0.000894783 33.2633 0.655197 31.6855 1.81906 30.5222C2.98293 29.359 4.56109 28.7056 6.20659 28.7056H25.3461C25.4981 28.7055 25.6468 28.75 25.7737 28.8336C25.9006 28.9172 26.0002 29.0362 26.0601 29.1759C26.12 29.3156 26.1375 29.4698 26.1106 29.6193C26.0837 29.7689 26.0135 29.9073 25.9086 30.0173L11.8709 44.7592C11.7984 44.8354 11.7111 44.896 11.6144 44.9374C11.5177 44.9788 11.4136 45.0001 11.3084 45L11.3051 44.9989Z" fill="#3B97D3"/>
<path d="M30.8941 28.9667C30.9717 28.8835 31.0667 28.8185 31.1723 28.7761C31.2778 28.7337 31.3914 28.7151 31.505 28.7214C33.0652 28.8397 34.5231 29.5429 35.587 30.6902C36.6508 31.8375 37.2421 33.3443 37.2425 34.9089V42.6714C37.2407 43.2887 36.9944 43.8802 36.5575 44.3165C36.1207 44.7527 35.5288 44.9981 34.9115 44.999H17.4437C17.2919 44.9989 17.1435 44.9543 17.0168 44.8707C16.8902 44.7872 16.7907 44.6683 16.7309 44.5289C16.671 44.3894 16.6534 44.2355 16.6801 44.0861C16.7068 43.9367 16.7767 43.7984 16.8812 43.6884L30.8941 28.9667Z" fill="#3B97D3"/>
<path d="M34.1418 42.6711H30.2628C30.1585 42.6751 30.0544 42.6579 29.9568 42.6207C29.8592 42.5836 29.7702 42.5271 29.6949 42.4546C29.6197 42.3822 29.5599 42.2954 29.519 42.1993C29.4781 42.1032 29.457 41.9998 29.457 41.8954C29.457 41.791 29.4781 41.6876 29.519 41.5915C29.5599 41.4954 29.6197 41.4086 29.6949 41.3362C29.7702 41.2637 29.8592 41.2073 29.9568 41.1701C30.0544 41.1329 30.1585 41.1157 30.2628 41.1197H33.3667V38.7921C33.3743 38.5915 33.4594 38.4016 33.604 38.2624C33.7487 38.1232 33.9416 38.0454 34.1424 38.0454C34.3431 38.0454 34.5361 38.1232 34.6807 38.2624C34.8253 38.4016 34.9104 38.5915 34.918 38.7921V41.896C34.9178 42.1016 34.8358 42.2988 34.6903 42.4441C34.5448 42.5895 34.3475 42.6711 34.1418 42.6711Z" fill="#2980BA"/>
<path d="M11.3269 39.0252L8.99929 40.7712C8.86493 40.872 8.7015 40.9264 8.53355 40.9264C8.36559 40.9264 8.20216 40.872 8.0678 40.7712L5.74019 39.0252C5.64378 38.9529 5.56553 38.8591 5.51164 38.7513C5.45775 38.6435 5.42969 38.5247 5.42969 38.4042V34.1371C5.42969 33.9312 5.51147 33.7338 5.65704 33.5882C5.80262 33.4426 6.00006 33.3608 6.20593 33.3608H10.8612C11.067 33.3608 11.2645 33.4426 11.41 33.5882C11.5556 33.7338 11.6374 33.9312 11.6374 34.1371V38.4042C11.6374 38.5247 11.6093 38.6435 11.5555 38.7513C11.5016 38.8591 11.4233 38.9529 11.3269 39.0252Z" fill="#F3D55B"/>
<path d="M28.9352 11.3398C29.3009 12.4356 29.4871 13.5833 29.4865 14.7385C29.4574 17.6002 28.3001 20.3348 26.2662 22.3482C24.2323 24.3615 21.486 25.4909 18.6241 25.4909C15.7622 25.4909 13.016 24.3615 10.982 22.3482C8.9481 20.3348 7.79084 17.6002 7.76172 14.7385C7.76114 13.5833 7.94729 12.4356 8.31297 11.3398H28.9352Z" fill="#FDD7AD"/>
<path d="M7.70273 8.71106C5.95674 8.00456 5.00274 6.95719 5.61587 5.4137C6.89161 2.17822 15.0118 0.533477 17.7343 0.0756045C18.3195 -0.0252015 18.9176 -0.0252015 19.5028 0.0756045C22.2264 0.533477 30.35 2.17822 31.6224 5.4137C32.2355 6.95719 31.2849 8.01244 29.5355 8.71106H7.70273Z" fill="#3B97D3"/>
<path d="M30.2616 9.81898C30.2616 10.4163 29.7498 10.9203 28.9353 11.34C27.7031 11.9095 26.4011 12.3139 25.063 12.5426C20.8129 13.4039 16.4331 13.4039 12.183 12.5426C10.8449 12.3139 9.54293 11.9095 8.31074 11.34C7.49625 10.917 6.98438 10.4163 6.98438 9.81898C7.00278 9.58868 7.07837 9.36662 7.2043 9.17292C7.33022 8.97923 7.50249 8.82002 7.7055 8.70973C10.1501 7.05712 17.9711 7.02224 18.6179 6.97949C18.6179 6.97949 26.998 6.97949 29.5304 8.70973C29.7345 8.81872 29.9076 8.97759 30.0337 9.17156C30.1598 9.36552 30.2347 9.58824 30.2515 9.81898H30.2616Z" fill="#464F5D"/>
</svg>
