<svg width="53" height="39" viewBox="0 0 53 39" fill="none" xmlns="http://www.w3.org/2000/svg">
<path d="M32.8945 1.82782H45.6871V10.9654H32.8945V1.82782Z" fill="#B26556"/>
<path d="M37.4521 10.965H41.1072V27.4126C41.1072 27.8973 40.9146 28.3621 40.5719 28.7048C40.2292 29.0475 39.7643 29.2401 39.2797 29.2401C38.795 29.2401 38.3301 29.0475 37.9874 28.7048C37.6447 28.3621 37.4521 27.8973 37.4521 27.4126V10.965Z" fill="#873F2E"/>
<path d="M29.2324 0H32.8874V12.7926H29.2324V0Z" fill="#873F2E"/>
<path d="M45.6758 0H49.3308V12.7926H45.6758V0Z" fill="#873F2E"/>
<path d="M16.9958 14.6197H23.0202C24.6809 14.6191 26.2922 15.1841 27.589 16.2215L33.723 21.1283C34.3699 21.646 35.1734 21.9286 36.0019 21.9297H45.6877C47.6264 21.9297 49.4858 22.6999 50.8567 24.0708C52.2276 25.4417 52.9977 27.301 52.9977 29.2397V31.0672C52.9977 32.0366 52.6127 32.9663 51.9272 33.6517C51.2418 34.3372 50.3121 34.7223 49.3427 34.7223H3.65502L1.46201 33.0775C1.00807 32.737 0.63963 32.2956 0.38587 31.7881C0.132111 31.2805 0 30.7209 0 30.1535V21.9297H2.19301C3.73624 21.9287 5.23957 21.4393 6.48765 20.5317L12.7012 16.0177C13.9493 15.11 15.4526 14.6207 16.9958 14.6197Z" fill="#E64937"/>
<path d="M40.2023 38.3775C43.2302 38.3775 45.6848 35.9229 45.6848 32.895C45.6848 29.8671 43.2302 27.4125 40.2023 27.4125C37.1743 27.4125 34.7197 29.8671 34.7197 32.895C34.7197 35.9229 37.1743 38.3775 40.2023 38.3775Z" fill="#35495E"/>
<path d="M40.1983 35.6367C41.7123 35.6367 42.9396 34.4094 42.9396 32.8955C42.9396 31.3815 41.7123 30.1542 40.1983 30.1542C38.6843 30.1542 37.457 31.3815 37.457 32.8955C37.457 34.4094 38.6843 35.6367 40.1983 35.6367Z" fill="#FAF8F9"/>
<path d="M12.7901 38.3775C15.8181 38.3775 18.2727 35.9229 18.2727 32.895C18.2727 29.8671 15.8181 27.4125 12.7901 27.4125C9.76223 27.4125 7.30762 29.8671 7.30762 32.895C7.30762 35.9229 9.76223 38.3775 12.7901 38.3775Z" fill="#35495E"/>
<path d="M12.794 35.6367C14.308 35.6367 15.5353 34.4094 15.5353 32.8955C15.5353 31.3815 14.308 30.1542 12.794 30.1542C11.28 30.1542 10.0527 31.3815 10.0527 32.8955C10.0527 34.4094 11.28 35.6367 12.794 35.6367Z" fill="#FAF8F9"/>
<path d="M30.1492 21.9302H9.13281L14.5788 18.0467C14.8704 17.8378 15.1904 17.6716 15.5291 17.5533C15.9057 17.4253 16.3009 17.3604 16.6987 17.3614H23.3417C24.197 17.3614 25.025 17.6623 25.6809 18.2112L30.1492 21.9302Z" fill="white"/>
<path d="M53.0001 29.2401H51.1726C50.2032 29.2401 49.2736 28.8551 48.5881 28.1696C47.9027 27.4842 47.5176 26.5545 47.5176 25.5851H52.0132C52.6635 26.6931 53.0044 27.9554 53.0001 29.2401Z" fill="#FFE678"/>
<path d="M17.4404 23.7573H21.0196V25.5848H17.4404V23.7573Z" fill="#7A838B"/>
<path d="M17.3627 17.3614V21.9302H15.5352V17.5533C15.9118 17.4253 16.307 17.3604 16.7048 17.3614H17.3627Z" fill="#EEDBDB"/>
</svg>
