<svg width="45" height="45" viewBox="0 0 45 45" fill="none" xmlns="http://www.w3.org/2000/svg">
<path d="M26.4357 1.31836V6.52061C26.4357 7.24922 25.8451 7.83896 25.1174 7.83896H19.8809C19.1531 7.83896 18.5625 7.24922 18.5625 6.52061V1.31836C18.5625 0.590625 19.1531 0 19.8809 0H25.1174C25.8451 0 26.4357 0.590625 26.4357 1.31836Z" fill="#E7DFDD"/>
<path d="M26.4357 31.6309V43.6798H18.5625V31.6309C18.5625 30.9022 19.1531 30.3125 19.8809 30.3125H25.1174C25.8451 30.3125 26.4357 30.9022 26.4357 31.6309Z" fill="#E7DFDD"/>
<path d="M26.4357 16.4395V21.7129C26.4357 22.4406 25.8451 23.0312 25.1174 23.0312H19.8809C19.1531 23.0312 18.5625 22.4406 18.5625 21.7129V16.4395C18.5625 15.7117 19.1531 15.1211 19.8809 15.1211H25.1174C25.8451 15.1211 26.4357 15.7117 26.4357 16.4395Z" fill="#E7DFDD"/>
<path d="M26.4366 1.31836V6.52061C26.4366 7.24922 25.846 7.83896 25.1183 7.83896H22.5V0H25.1183C25.846 0 26.4366 0.590625 26.4366 1.31836Z" fill="#DAD0CB"/>
<path d="M26.4366 16.4395V21.7129C26.4366 22.4406 25.846 23.0312 25.1183 23.0312H22.5V15.1211H25.1183C25.846 15.1211 26.4366 15.7117 26.4366 16.4395Z" fill="#DAD0CB"/>
<path d="M26.4366 31.6309V43.6798H22.5V30.3125H25.1183C25.846 30.3125 26.4366 30.9022 26.4366 31.6309Z" fill="#DAD0CB"/>
<path d="M29.0725 43.6816C29.0725 44.4094 28.4818 45 27.7541 45H17.2441C16.5164 45 15.9258 44.4094 15.9258 43.6816C15.9258 42.9539 16.5164 42.3633 17.2441 42.3633H27.7541C28.4818 42.3633 29.0725 42.9539 29.0725 43.6816Z" fill="#F4F1F1"/>
<path d="M40.0212 12.0892L35.2364 17.0488C35.0703 17.2211 34.8418 17.3178 34.6036 17.3178H7.82949C6.60518 17.3178 5.60938 16.322 5.60938 15.0985V7.85986C5.60938 6.63643 6.60518 5.64062 7.82949 5.64062H34.6036C34.8418 5.64062 35.0703 5.73818 35.2364 5.90957L40.0212 10.8692C40.3499 11.2094 40.3499 11.749 40.0212 12.0892Z" fill="#7DD5F4"/>
<path d="M39.3888 23.0513V30.2899C39.3888 31.5134 38.393 32.5092 37.1687 32.5092H10.3946C10.1564 32.5092 9.92788 32.4125 9.76177 32.2402L4.977 27.2806C4.64829 26.9404 4.64829 26.4008 4.977 26.0606L9.76177 21.101C9.92788 20.9287 10.1564 20.832 10.3946 20.832H37.1687C38.393 20.832 39.3888 21.8278 39.3888 23.0513Z" fill="#FF7038"/>
<path d="M29.0733 43.6816C29.0733 44.4094 28.4827 45 27.755 45H22.5V42.3633H27.755C28.4827 42.3633 29.0733 42.9539 29.0733 43.6816Z" fill="#E7DFDD"/>
<path d="M39.3899 23.0552V30.2938C39.3899 31.5173 38.3941 32.5131 37.1698 32.5131H22.5V20.8359H37.1698C38.3941 20.8359 39.3899 21.8317 39.3899 23.0552Z" fill="#FF405C"/>
<path d="M40.0219 12.0892L35.2371 17.0488C35.071 17.2211 34.8425 17.3178 34.6043 17.3178H22.5V5.64062H34.6043C34.8425 5.64062 35.071 5.73818 35.2371 5.90957L40.0219 10.8692C40.3506 11.2094 40.3506 11.749 40.0219 12.0892Z" fill="#6BA7FF"/>
</svg>
