<svg width="46" height="46" viewBox="0 0 46 46" fill="none" xmlns="http://www.w3.org/2000/svg">
<path d="M37.4981 24.2174H3.125L7.89036 10.6791C8.33078 9.42988 9.51094 8.59406 10.8355 8.59326H25.78L37.4981 24.2174Z" fill="#90BAE1"/>
<path d="M21.0937 8.59326V11.7181C21.0937 12.1495 20.7439 12.4993 20.3125 12.4993C19.881 12.4993 19.5312 12.1495 19.5312 11.7181V8.59326H21.0937Z" fill="#35495E"/>
<path d="M7.53881 21.8739C7.28543 21.8738 7.04783 21.7509 6.90143 21.5441C6.75503 21.3373 6.71801 21.0723 6.80213 20.8333L9.73478 12.4994C10.0674 11.5637 10.9525 10.9381 11.9456 10.937H13.2822C13.7137 10.937 14.0634 11.2868 14.0634 11.7182C14.0634 12.1497 13.7137 12.4994 13.2822 12.4994H11.9456C11.6142 12.4995 11.3189 12.7087 11.2089 13.0213L8.27627 21.3521C8.16615 21.6649 7.87048 21.8741 7.53881 21.8739Z" fill="#B0D3F0"/>
<path d="M23.4371 14.8431H17.1875C16.756 14.8431 16.4062 14.4933 16.4062 14.0619V12.4995C16.4062 12.068 16.756 11.7183 17.1875 11.7183H23.4371" fill="#2C3E50"/>
<path d="M2.34375 38.2793H10.1558V43.7477C10.1558 44.6106 9.4563 45.3102 8.59341 45.3102H3.90616C3.04327 45.3102 2.34375 44.6106 2.34375 43.7477V38.2793Z" fill="#35495E"/>
<path d="M30.4688 38.2793H38.2808V43.7477C38.2808 44.6106 37.5813 45.3102 36.7184 45.3102H32.0312C31.1683 45.3102 30.4688 44.6106 30.4688 43.7477V38.2793Z" fill="#35495E"/>
<path d="M29.7874 24.2173H3.12483C1.39903 24.2173 0 25.6163 0 27.3421V39.0602C0 39.4917 0.349758 39.8414 0.781207 39.8414H39.8415C40.273 39.8414 40.6228 39.4917 40.6228 39.0602V27.3421C40.6265 26.0603 39.841 24.9084 38.6463 24.4438L29.7874 24.2173Z" fill="#2980BA"/>
<path d="M4.68741 27.3423H7.81224C9.53803 27.3423 10.9371 28.7413 10.9371 30.4671C10.9371 31.33 10.2375 32.0295 9.37465 32.0295H4.68741C3.82452 32.0295 3.125 31.33 3.125 30.4671V28.9047C3.125 28.0418 3.82452 27.3423 4.68741 27.3423Z" fill="#F9EAB0"/>
<path d="M32.8123 27.3423H35.9371C36.8 27.3423 37.4996 28.0418 37.4996 28.9047V30.4671C37.4996 31.33 36.8 32.0295 35.9371 32.0295H31.2499C30.387 32.0295 29.6875 31.33 29.6875 30.4671C29.6875 28.7413 31.0865 27.3423 32.8123 27.3423Z" fill="#F9EAB0"/>
<path d="M4.68746 36.7168H6.24987C6.68132 36.7168 7.03107 37.0666 7.03107 37.498V39.8416H3.90625V37.498C3.90625 37.0666 4.25601 36.7168 4.68746 36.7168Z" fill="#FB7B76"/>
<path d="M34.375 36.7168H35.9374C36.3688 36.7168 36.7186 37.0666 36.7186 37.498V39.8416H33.5938V37.498C33.5938 37.0666 33.9435 36.7168 34.375 36.7168Z" fill="#FB7B76"/>
<path d="M25.7806 32.0298H14.8437C14.4123 32.0298 14.0625 32.3795 14.0625 32.811V35.9358C14.0625 36.3673 14.4123 36.717 14.8437 36.717H25.7806C26.212 36.717 26.5618 36.3673 26.5618 35.9358V32.811C26.5618 32.3795 26.212 32.0298 25.7806 32.0298Z" fill="#A5A5A4"/>
<path d="M24.9994 32.0298H15.625C15.1935 32.0298 14.8438 32.3795 14.8438 32.811V35.9358C14.8438 36.3673 15.1935 36.717 15.625 36.717H24.9994C25.4309 36.717 25.7807 36.3673 25.7807 35.9358V32.811C25.7807 32.3795 25.4309 32.0298 24.9994 32.0298Z" fill="#D1D4D1"/>
<path d="M34.6009 27.2861L42.2888 21.813C44.1803 20.4752 45.3067 18.3042 45.3113 15.9875V4.94669C45.3115 4.79117 45.2195 4.65033 45.0769 4.58812L34.5306 0.0321212C34.431 -0.0113581 34.3178 -0.0113581 34.2182 0.0321212L23.6719 4.58812C23.5293 4.65033 23.4373 4.79117 23.4375 4.94669V15.9875C23.4421 18.3042 24.5685 20.4752 26.46 21.813L34.1478 27.2861C34.2835 27.3826 34.4653 27.3826 34.6009 27.2861Z" fill="#29A53E"/>
<path d="M28.2718 19.268C27.2062 18.5143 26.5697 17.2928 26.5625 15.9877V6.74444L34.3746 3.36963L42.1866 6.74444V15.9877C42.1797 17.2931 41.5432 18.5149 40.4774 19.2687L34.3746 23.6122L28.2718 19.268Z" fill="#955BA5"/>
<path d="M28.2718 19.268C27.2062 18.5143 26.5697 17.2928 26.5625 15.9877V6.74444L34.3746 3.36963L42.1866 6.74444V15.9877C42.1797 17.2931 41.5432 18.5149 40.4774 19.2687L34.3746 23.6122L28.2718 19.268Z" fill="#E0F8E4"/>
<path d="M32.8123 17.9326C32.6433 17.9326 32.4788 17.8778 32.3436 17.7764L29.2187 15.4328C28.9955 15.2653 28.8785 14.9914 28.9119 14.7143C28.9453 14.4373 29.1239 14.199 29.3806 14.0894C29.6373 13.9797 29.9329 14.0154 30.1562 14.1828L32.6756 16.0718L38.4518 8.8511C38.7222 8.51729 39.2113 8.46436 39.5468 8.73262C39.8823 9.00088 39.9382 9.48967 39.6721 9.82682L33.4224 17.6389C33.2742 17.8244 33.0497 17.9325 32.8123 17.9326Z" fill="#29A53E"/>
</svg>
