<svg width="45" height="45" viewBox="0 0 45 45" fill="none" xmlns="http://www.w3.org/2000/svg">
<g clip-path="url(#clip0_7813_47373)">
<path d="M8.72266 8.69963C9.70861 8.57284 25.4826 6.54526 26.4685 6.41846L27.7921 3.96956L26.4685 0.043403C19.2673 -0.427513 12.6226 2.96481 8.72266 8.69963Z" fill="#FEE05B"/>
<path d="M8.72453 8.69941C-1.55957 15.6892 -2.94435 30.1401 5.59674 38.962C4.9475 39.692 0.881396 44.2643 0.227831 44.9992H19.8527L21.1762 25.1461L19.8527 5.29297C15.8569 5.29288 12.0084 6.46748 8.72453 8.69941Z" fill="#8EE26B"/>
<path d="M26.4688 0.0429688V6.41803L36.2976 36.2741C41.7504 32.5659 44.9983 26.4499 44.9983 19.8517C44.9983 9.21397 36.7071 0.712505 26.4688 0.0429688Z" fill="#FEC258"/>
<path d="M19.8516 5.29297V44.9992C30.8667 44.9992 39.7047 36.0718 39.7047 25.1461C39.7047 14.174 30.8253 5.29297 19.8516 5.29297Z" fill="#00CB75"/>
<path d="M19.8533 31.7643C18.4121 31.7643 9.3921 31.7643 7.94141 31.7643C7.94141 30.8385 7.94141 30.043 7.94141 29.1172H19.8533L21.1768 30.4407L19.8533 31.7643Z" fill="#E6F2FF"/>
<path d="M19.8533 26.4693C18.4121 26.4693 9.3921 26.4693 7.94141 26.4693C7.94141 25.5436 7.94141 24.748 7.94141 23.8223H19.8533L21.1768 25.1458L19.8533 26.4693Z" fill="#E6F2FF"/>
<path d="M19.8516 29.1172H31.7634V31.7643H19.8516V29.1172Z" fill="#CCDDFF"/>
<path d="M19.8516 23.8223H31.7634V26.4693H19.8516V23.8223Z" fill="#CCDDFF"/>
<path d="M7.94141 18.5293H19.8533V21.1764H7.94141V18.5293Z" fill="#E6F2FF"/>
</g>
<defs>
<clipPath id="clip0_7813_47373">
<rect width="45" height="45" fill="white"/>
</clipPath>
</defs>
</svg>
