<svg width="45" height="45" viewBox="0 0 45 45" fill="none" xmlns="http://www.w3.org/2000/svg">
<path d="M45 3.95508V9.22852C45 9.96671 44.42 10.5469 43.6816 10.5469H34.3652V3.95508C34.3652 1.76651 38.7685 0 40.957 0C43.1017 0 45 1.75315 45 3.95508Z" fill="#F89580"/>
<path d="M21.1816 0H10.5469C7.63849 0 5.27344 2.36505 5.27344 5.27344V9.22852C5.27344 9.57867 5.41248 9.91345 5.65972 10.1606L8.68263 13.1836H6.5918C5.8631 13.1836 5.27344 13.7733 5.27344 14.502V41.0449H21.1816H26.4551C26.4551 43.2333 30.8583 45 33.0469 45C35.1952 45 37.002 43.243 37.002 41.0449V27.7734C37.002 27.2739 36.72 26.8182 36.2733 26.5941L33.4666 25.1908L36.2307 23.9291C36.7007 23.7141 37.0019 23.2455 37.0019 22.7292V3.95508C37.0019 1.76651 38.7684 0 40.9569 0H21.1816Z" fill="#FFE1BA"/>
<path d="M33.0469 45C35.1952 45 37.002 43.243 37.002 41.0449V27.7734C37.002 27.2739 36.72 26.8182 36.2733 26.5941L33.4666 25.1908L36.2307 23.9291C36.7007 23.7141 37.0019 23.2455 37.0019 22.7292V3.95508C37.0019 1.76651 38.7684 0 40.9569 0H21.1816V41.0449H26.4551C26.4551 43.2333 30.8583 45 33.0469 45Z" fill="#FFBFAB"/>
<path d="M14.5898 7.91016H21.1816H27.7734C28.5021 7.91016 29.0918 7.3205 29.0918 6.5918C29.0918 5.8631 28.5021 5.27344 27.7734 5.27344H21.1816H14.5898C13.8611 5.27344 13.2715 5.8631 13.2715 6.5918C13.2715 7.3205 13.8611 7.91016 14.5898 7.91016Z" fill="#987F77"/>
<path d="M27.7734 15.8203H21.1816H14.5898C13.8611 15.8203 13.2715 16.41 13.2715 17.1387C13.2715 17.8674 13.8611 18.457 14.5898 18.457H21.1816H27.7734C28.5021 18.457 29.0918 17.8674 29.0918 17.1387C29.0918 16.41 28.5021 15.8203 27.7734 15.8203Z" fill="#987F77"/>
<path d="M27.7734 26.4531H21.1816H14.5898C13.8611 26.4531 13.2715 27.0428 13.2715 27.7715C13.2715 28.5002 13.8611 29.0898 14.5898 29.0898H21.1816H27.7734C28.5021 29.0898 29.0918 28.5002 29.0918 27.7715C29.0918 27.0428 28.5021 26.4531 27.7734 26.4531Z" fill="#987F77"/>
<path d="M29.0918 6.5918C29.0918 5.8631 28.5021 5.27344 27.7734 5.27344H21.1816V7.91016H27.7734C28.5021 7.91016 29.0918 7.3205 29.0918 6.5918Z" fill="#725D57"/>
<path d="M29.0918 17.1387C29.0918 16.41 28.5021 15.8203 27.7734 15.8203H21.1816V18.457H27.7734C28.5021 18.457 29.0918 17.8674 29.0918 17.1387Z" fill="#725D57"/>
<path d="M29.0918 27.7715C29.0918 27.0428 28.5021 26.4531 27.7734 26.4531H21.1816V29.0898H27.7734C28.5021 29.0898 29.0918 28.5002 29.0918 27.7715Z" fill="#725D57"/>
<path d="M33.0469 34.4531H21.1816H5.27344C2.39599 34.4531 0 36.8029 0 39.7266C0 42.6269 2.37313 45 5.27344 45H21.1816H33.0469C30.8583 45 29.0918 43.2333 29.0918 41.0449C29.0918 38.8564 30.8583 37.0898 33.0469 37.0898C33.775 37.0898 34.3652 36.4996 34.3652 35.7715C34.3652 35.0432 33.775 34.4531 33.0469 34.4531Z" fill="#FFBFAB"/>
<path d="M29.0918 41.0449C29.0918 38.8564 30.8583 37.0898 33.0469 37.0898C33.775 37.0898 34.3652 36.4996 34.3652 35.7715C34.3652 35.0432 33.775 34.4531 33.0469 34.4531H21.1816V45H33.0469C30.8583 45 29.0918 43.2333 29.0918 41.0449Z" fill="#F89580"/>
</svg>
