<svg width="45" height="45" viewBox="0 0 45 45" fill="none" xmlns="http://www.w3.org/2000/svg">
<g clip-path="url(#clip0_7688_50334)">
<path d="M26.7744 12.943L24.8516 12.4749V10.705L26.7744 10.2369C27.0842 10.1614 27.3828 10.396 27.3828 10.7149V12.4651C27.3827 12.7838 27.0842 13.0185 26.7744 12.943Z" fill="#A5C8CD"/>
<path d="M9.30202 8.74466C11.391 8.74466 13.0845 7.05118 13.0845 4.96217C13.0845 2.87316 11.391 1.17969 9.30202 1.17969C7.21301 1.17969 5.51953 2.87316 5.51953 4.96217C5.51953 7.05118 7.21301 8.74466 9.30202 8.74466Z" fill="#FFB69E"/>
<path d="M12.1561 0.695312L6.69983 1.37892C6.04793 1.37892 5.51953 1.9074 5.51953 2.55922V4.53775H13.3365V1.87571C13.3364 1.2238 12.8079 0.695312 12.1561 0.695312Z" fill="#194664"/>
<path d="M14.9789 2.95703H12.181C11.3088 2.95703 10.6016 3.66414 10.6016 4.53649H16.5584C16.5584 3.66414 15.8512 2.95703 14.9789 2.95703Z" fill="#194664"/>
<path d="M22.314 33.0364C20.885 33.0364 19.7266 31.878 19.7266 30.4489V24.482C19.7266 23.053 20.885 21.8945 22.314 21.8945C23.7431 21.8945 24.9015 23.053 24.9015 24.482V30.4489C24.9015 31.878 23.7431 33.0364 22.314 33.0364Z" fill="#373C41"/>
<path d="M40.1734 33.0364C38.7444 33.0364 37.5859 31.878 37.5859 30.4489V24.482C37.5859 23.053 38.7444 21.8945 40.1734 21.8945C41.6024 21.8945 42.7609 23.053 42.7609 24.482V30.4489C42.761 31.878 41.6025 33.0364 40.1734 33.0364Z" fill="#373C41"/>
<path d="M32.8192 10.2177H29.7115C29.3014 10.2177 28.9688 9.88521 28.9688 9.47496V9.04745C28.9688 8.63729 29.3013 8.30469 29.7115 8.30469H32.8192C33.2294 8.30469 33.562 8.6372 33.562 9.04745V9.47496C33.562 9.88521 33.2294 10.2177 32.8192 10.2177Z" fill="#87A0AF"/>
<path d="M42.389 20.2548H20.1505C19.8414 20.2548 19.5479 20.1184 19.3487 19.8821C19.1493 19.6458 19.0645 19.3335 19.1166 19.0289L20.6614 10.005C20.9971 8.0442 22.6845 6.62109 24.6739 6.62109H37.8657C39.855 6.62109 41.5425 8.0442 41.8782 10.005L43.4229 19.0289C43.4751 19.3335 43.3903 19.6458 43.1909 19.8821C42.9916 20.1184 42.6982 20.2548 42.389 20.2548ZM21.3944 18.1568H41.1453L39.8104 10.3589C39.6477 9.40868 38.8298 8.71891 37.8657 8.71891H24.6739C23.7097 8.71891 22.892 9.40859 22.7294 10.3589L21.3944 18.1568Z" fill="#E64937"/>
<path d="M43.5817 28.1268H18.9068C18.1234 28.1268 17.4883 27.4917 17.4883 26.7082V20.888C17.4883 18.7946 19.1853 17.0977 21.2786 17.0977H41.21C43.3033 17.0977 45.0003 18.7946 45.0003 20.888V26.7082C45.0002 27.4917 44.3651 28.1268 43.5817 28.1268Z" fill="#E64937"/>
<path d="M22.2465 24.3278C23.5001 24.3278 24.5164 23.3109 24.5164 22.0565C24.5164 20.8021 23.5001 19.7852 22.2465 19.7852C20.9928 19.7852 19.9766 20.8021 19.9766 22.0565C19.9766 23.3109 20.9928 24.3278 22.2465 24.3278Z" fill="#FFE678"/>
<path d="M40.2426 24.3278C41.4962 24.3278 42.5125 23.3109 42.5125 22.0565C42.5125 20.8021 41.4962 19.7852 40.2426 19.7852C38.9889 19.7852 37.9727 20.8021 37.9727 22.0565C37.9727 23.3109 38.9889 24.3278 40.2426 24.3278Z" fill="#FFE678"/>
<path d="M34.5229 29.8908H27.9642C27.5633 29.8908 27.2383 29.5658 27.2383 29.1648V27.0424C27.2383 26.6414 27.5633 26.3164 27.9642 26.3164H34.5229C34.9238 26.3164 35.2489 26.6414 35.2489 27.0424V29.1648C35.2488 29.5658 34.9238 29.8908 34.5229 29.8908Z" fill="#87A0AF"/>
<path d="M37.9915 17.0972H36.8661C36.8661 16.262 36.1865 15.5824 35.3512 15.5824C34.5159 15.5824 33.8364 16.262 33.8364 17.0972H32.7109C32.7109 15.6414 33.8953 14.457 35.3512 14.457C36.8072 14.4569 37.9915 15.6414 37.9915 17.0972Z" fill="#373C41"/>
<path d="M35.1597 21.4023H27.3274C26.9244 21.4023 26.5977 21.729 26.5977 22.1322C26.5977 22.5352 26.9244 22.862 27.3274 22.862H35.1597C35.5627 22.862 35.8895 22.5353 35.8895 22.1322C35.8895 21.729 35.5628 21.4023 35.1597 21.4023Z" fill="#F5876E"/>
<path d="M33.7996 23.8008H28.6946C28.2915 23.8008 27.9648 24.1275 27.9648 24.5305C27.9648 24.9336 28.2915 25.2603 28.6946 25.2603H33.7996C34.2027 25.2603 34.5294 24.9336 34.5294 24.5305C34.5295 24.1275 34.2027 23.8008 33.7996 23.8008Z" fill="#F5876E"/>
<path d="M1.20893 44.1096C0.163851 43.625 -0.290594 42.3849 0.194047 41.3398L4.19337 32.7146L3.83788 25.4133C3.83788 25.4133 4.66084 23.3333 5.81139 23.276C6.96326 23.2195 7.94117 24.1049 7.99857 25.2555L8.38558 33.0211C8.40239 33.3588 8.33689 33.6956 8.19463 34.0024L3.97874 43.0946C3.49427 44.1395 2.25419 44.5942 1.20893 44.1096Z" fill="#3C698C"/>
<path d="M12.0435 42.4016L11.181 32.5223L8.55073 24.7005C8.18362 23.6086 8.77109 22.4258 9.86301 22.0586C10.9547 21.6914 12.1377 22.2789 12.505 23.3709L15.2145 31.4284C15.2671 31.5849 15.3009 31.7473 15.3154 31.9118L16.1994 42.0388C16.2996 43.1865 15.4505 44.198 14.3029 44.2982C13.1484 44.3988 12.1432 43.5429 12.0435 42.4016Z" fill="#194664"/>
<path d="M3.83984 25.4117L13.408 26.0514L14.2756 13.0757C14.369 11.6789 13.3124 10.471 11.9157 10.3776L7.40567 10.0761C6.00888 9.98265 4.80094 11.0393 4.70753 12.436L3.83984 25.4117Z" fill="#64AFFF"/>
<path d="M17 13.0977L19.1526 12.6354L20.1194 17.1381L17.9668 17.6003L17 13.0977Z" fill="#46738C"/>
<path d="M24.7229 13.9283H16.4994C16.0617 13.9283 15.707 13.5736 15.707 13.136V10.0501C15.707 9.61251 16.0617 9.25781 16.4994 9.25781H24.7229C25.1606 9.25781 25.5153 9.61251 25.5153 10.0501V13.1361C25.5153 13.5736 25.1606 13.9283 24.7229 13.9283Z" fill="#6C9BAA"/>
<path d="M17.9266 11.7244C18.3413 11.7244 18.6775 11.3882 18.6775 10.9735C18.6775 10.5588 18.3413 10.2227 17.9266 10.2227C17.512 10.2227 17.1758 10.5588 17.1758 10.9735C17.1758 11.3882 17.512 11.7244 17.9266 11.7244Z" fill="#E64937"/>
<path d="M11.5574 19.9123L10.3945 17.6039L11.3913 15.7109L13.3911 16.1344L13.9853 17.3138L19.1288 16.4576C20.038 16.3062 20.8975 16.9206 21.0489 17.8296C21.2002 18.7387 20.5859 19.5984 19.6768 19.7497L13.3217 20.8076C12.5979 20.9281 11.8845 20.562 11.5574 19.9123Z" fill="#FFB69E"/>
<path d="M13.3926 16.1314L11.3351 12.0471C10.9203 11.2241 9.91671 10.8931 9.0941 11.3076C8.27096 11.7223 7.93994 12.7256 8.35459 13.5487L10.396 17.6009L13.3926 16.1314Z" fill="#4699F2"/>
</g>
<defs>
<clipPath id="clip0_7688_50334">
<rect width="45" height="45" fill="white"/>
</clipPath>
</defs>
</svg>
