<svg width="45" height="45" viewBox="0 0 45 45" fill="none" xmlns="http://www.w3.org/2000/svg">
<path d="M0 7.99805V43.6816C0 44.4097 0.590273 45 1.31836 45H43.6816C44.4097 45 45 44.4097 45 43.6816V7.99805L42.3633 6.67969H2.56518L0 7.99805Z" fill="#A4DCFF"/>
<path d="M45.001 7.99805V43.6816C45.001 44.4094 44.4104 45 43.6826 45H14.5469V6.67969H42.3643L45.001 7.99805Z" fill="#59C0FF"/>
<path d="M45 1.31836C45 0.590273 44.4097 0 43.6816 0H1.31836C0.590273 0 0 0.590273 0 1.31836V7.99805H45V1.31836Z" fill="#4249C5"/>
<path d="M45.001 1.31836V7.99805H14.5469V0H43.6826C44.4104 0 45.001 0.590625 45.001 1.31836Z" fill="#2B249B"/>
<path d="M4.48633 14.5898H10.1904C10.9185 14.5898 11.5088 13.9996 11.5088 13.2715C11.5088 12.5434 10.9185 11.9531 10.1904 11.9531H4.48633C3.75824 11.9531 3.16797 12.5434 3.16797 13.2715C3.16797 13.9996 3.75824 14.5898 4.48633 14.5898Z" fill="#59C0FF"/>
<path d="M4.48633 19.8633H10.1904C10.9185 19.8633 11.5088 19.273 11.5088 18.5449C11.5088 17.8168 10.9185 17.2266 10.1904 17.2266H4.48633C3.75824 17.2266 3.16797 17.8168 3.16797 18.5449C3.16797 19.273 3.75824 19.8633 4.48633 19.8633Z" fill="#59C0FF"/>
<path d="M10.1953 22.5H4.48242C3.75434 22.5 3.16406 23.0903 3.16406 23.8184C3.16406 24.5464 3.75434 25.1367 4.48242 25.1367H10.1953C10.9234 25.1367 11.5137 24.5464 11.5137 23.8184C11.5137 23.0903 10.9234 22.5 10.1953 22.5Z" fill="#59C0FF"/>
<path d="M29.0913 13.2812C23.2781 13.2812 18.5488 18.0106 18.5488 23.8237C18.5488 29.6368 23.2781 34.3662 29.0913 34.3662C34.9045 34.3662 39.6338 29.6368 39.6338 23.8237C39.6338 21.9276 39.1303 20.1469 38.2504 18.6079L29.0913 13.2812Z" fill="#FCD363"/>
<path d="M38.251 18.6079C36.4334 15.4286 33.0087 13.2812 29.0918 13.2812V23.8237L38.251 18.6079Z" fill="#FF80AA"/>
<path d="M38.3242 37H19.8672C19.1391 37 18.5488 37.5903 18.5488 38.3184C18.5488 39.0464 19.1391 39.6367 19.8672 39.6367H38.3242C39.0523 39.6367 39.6426 39.0464 39.6426 38.3184C39.6426 37.5903 39.0523 37 38.3242 37Z" fill="#E4F5FF"/>
</svg>
