<svg width="236" height="80" viewBox="0 0 236 80" fill="none" xmlns="http://www.w3.org/2000/svg">
<path d="M109.304 50.294C110.045 49.826 110.422 49.163 110.422 48.305C110.422 47.486 110.149 46.849 109.59 46.407C109.044 45.952 108.381 45.731 107.601 45.731C106.834 45.731 106.171 45.952 105.612 46.407C105.066 46.849 104.793 47.486 104.793 48.305C104.793 49.163 105.17 49.826 105.911 50.294C105.027 50.749 104.494 51.529 104.494 52.504C104.494 53.336 104.78 53.986 105.365 54.467C105.95 54.935 106.691 55.169 107.601 55.169C108.524 55.169 109.265 54.935 109.85 54.467C110.435 53.986 110.721 53.336 110.721 52.504C110.721 51.529 110.188 50.749 109.304 50.294ZM107.601 46.888C108.537 46.888 109.213 47.382 109.213 48.331C109.213 49.254 108.498 49.787 107.601 49.787C106.704 49.787 105.989 49.254 105.989 48.331C105.989 47.382 106.678 46.888 107.601 46.888ZM107.601 54.012C106.457 54.012 105.69 53.453 105.69 52.426C105.69 51.425 106.457 50.853 107.601 50.853C108.758 50.853 109.525 51.425 109.525 52.426C109.525 53.453 108.758 54.012 107.601 54.012ZM117.581 44.6H116.905L111.705 56.3H112.381L117.581 44.6ZM118.261 46.732L118.56 47.772L120.497 47.2V55H121.693V45.9H120.653L118.261 46.732ZM129.395 53.882C130.006 53.024 130.318 51.88 130.318 50.45C130.318 49.02 130.006 47.876 129.395 47.018C128.784 46.16 127.913 45.731 126.808 45.731C125.703 45.731 124.832 46.16 124.221 47.018C123.61 47.876 123.298 49.02 123.298 50.45C123.298 51.88 123.61 53.024 124.221 53.882C124.832 54.74 125.703 55.169 126.808 55.169C127.913 55.169 128.784 54.74 129.395 53.882ZM124.507 50.45C124.507 48.175 125.339 46.901 126.808 46.901C128.277 46.901 129.122 48.201 129.122 50.45C129.122 52.699 128.277 53.986 126.808 53.986C125.339 53.986 124.507 52.699 124.507 50.45Z" fill="white"/>
<path d="M1 16C57.1683 27.2562 53.8302 28.959 110.949 33.4122C178.326 38.6654 167.569 61.227 235 65.7501V80H1V16Z" fill="url(#paint0_linear_1885_344)"/>
<path d="M183.344 45V43.83H179.223L181.55 41.516C182.629 40.437 183.175 39.436 183.175 38.513C183.175 37.668 182.889 36.992 182.33 36.485C181.771 35.978 181.108 35.731 180.341 35.731C179.106 35.731 178.04 36.342 177.468 37.525L178.482 38.123C178.872 37.304 179.496 36.901 180.354 36.901C181.251 36.901 181.966 37.499 181.966 38.526C181.966 39.137 181.537 39.878 180.679 40.736L177.468 44.012V45H183.344ZM190.411 43.882C191.022 43.024 191.334 41.88 191.334 40.45C191.334 39.02 191.022 37.876 190.411 37.018C189.8 36.16 188.929 35.731 187.824 35.731C186.719 35.731 185.848 36.16 185.237 37.018C184.626 37.876 184.314 39.02 184.314 40.45C184.314 41.88 184.626 43.024 185.237 43.882C185.848 44.74 186.719 45.169 187.824 45.169C188.929 45.169 189.8 44.74 190.411 43.882ZM185.523 40.45C185.523 38.175 186.355 36.901 187.824 36.901C189.293 36.901 190.138 38.201 190.138 40.45C190.138 42.699 189.293 43.986 187.824 43.986C186.355 43.986 185.523 42.699 185.523 40.45ZM191.845 36.732L192.144 37.772L194.081 37.2V45H195.277V35.9H194.237L191.845 36.732ZM199.794 39.046C199.703 39.046 199.56 39.059 199.365 39.072L201.51 35.9H200.132L197.207 40.281C196.843 40.788 196.661 41.399 196.661 42.101C196.661 42.998 196.947 43.739 197.532 44.311C198.117 44.883 198.871 45.169 199.794 45.169C200.704 45.169 201.458 44.883 202.043 44.311C202.628 43.739 202.927 42.998 202.927 42.101C202.927 41.204 202.628 40.463 202.043 39.904C201.458 39.332 200.704 39.046 199.794 39.046ZM199.794 40.203C200.938 40.203 201.731 40.957 201.731 42.101C201.731 43.245 200.938 44.012 199.794 44.012C198.65 44.012 197.857 43.245 197.857 42.101C197.857 40.957 198.637 40.203 199.794 40.203Z" fill="#246EB2"/>
<path d="M35.344 12V10.83H31.223L33.55 8.516C34.629 7.437 35.175 6.436 35.175 5.513C35.175 4.668 34.889 3.992 34.33 3.485C33.771 2.978 33.108 2.731 32.341 2.731C31.106 2.731 30.04 3.342 29.468 4.525L30.482 5.123C30.872 4.304 31.496 3.901 32.354 3.901C33.251 3.901 33.966 4.499 33.966 5.526C33.966 6.137 33.537 6.878 32.679 7.736L29.468 11.012V12H35.344ZM42.4105 10.882C43.0215 10.024 43.3335 8.88 43.3335 7.45C43.3335 6.02 43.0215 4.876 42.4105 4.018C41.7995 3.16 40.9285 2.731 39.8235 2.731C38.7185 2.731 37.8475 3.16 37.2365 4.018C36.6255 4.876 36.3135 6.02 36.3135 7.45C36.3135 8.88 36.6255 10.024 37.2365 10.882C37.8475 11.74 38.7185 12.169 39.8235 12.169C40.9285 12.169 41.7995 11.74 42.4105 10.882ZM37.5225 7.45C37.5225 5.175 38.3545 3.901 39.8235 3.901C41.2925 3.901 42.1375 5.201 42.1375 7.45C42.1375 9.699 41.2925 10.986 39.8235 10.986C38.3545 10.986 37.5225 9.699 37.5225 7.45ZM50.096 12V10.83H45.975L48.302 8.516C49.381 7.437 49.927 6.436 49.927 5.513C49.927 4.668 49.641 3.992 49.082 3.485C48.523 2.978 47.86 2.731 47.093 2.731C45.858 2.731 44.792 3.342 44.22 4.525L45.234 5.123C45.624 4.304 46.248 3.901 47.106 3.901C48.003 3.901 48.718 4.499 48.718 5.526C48.718 6.137 48.289 6.878 47.431 7.736L44.22 11.012V12H50.096ZM57.1625 10.882C57.7735 10.024 58.0855 8.88 58.0855 7.45C58.0855 6.02 57.7735 4.876 57.1625 4.018C56.5515 3.16 55.6805 2.731 54.5755 2.731C53.4705 2.731 52.5995 3.16 51.9885 4.018C51.3775 4.876 51.0655 6.02 51.0655 7.45C51.0655 8.88 51.3775 10.024 51.9885 10.882C52.5995 11.74 53.4705 12.169 54.5755 12.169C55.6805 12.169 56.5515 11.74 57.1625 10.882ZM52.2745 7.45C52.2745 5.175 53.1065 3.901 54.5755 3.901C56.0445 3.901 56.8895 5.201 56.8895 7.45C56.8895 9.699 56.0445 10.986 54.5755 10.986C53.1065 10.986 52.2745 9.699 52.2745 7.45Z" fill="#246EB2"/>
<path d="M1 16C57.1683 27.3127 53.8302 29.0241 110.949 33.4997C178.326 38.7793 167.569 61.4543 235 66" stroke="#246EB2" stroke-width="2"/>
<path d="M44 31.063C47.3137 31.063 50 28.3767 50 25.063C50 21.7493 47.3137 19.063 44 19.063C40.6863 19.063 38 21.7493 38 25.063C38 28.3767 40.6863 31.063 44 31.063Z" fill="white"/>
<path d="M44 30.063C46.7614 30.063 49 27.8244 49 25.063C49 22.3016 46.7614 20.063 44 20.063C41.2386 20.063 39 22.3016 39 25.063C39 27.8244 41.2386 30.063 44 30.063Z" stroke="#246EB2" stroke-width="2"/>
<path d="M190 64.063C193.314 64.063 196 61.3767 196 58.063C196 54.7493 193.314 52.063 190 52.063C186.686 52.063 184 54.7493 184 58.063C184 61.3767 186.686 64.063 190 64.063Z" fill="white"/>
<path d="M190 63.063C192.761 63.063 195 60.8244 195 58.063C195 55.3016 192.761 53.063 190 53.063C187.239 53.063 185 55.3016 185 58.063C185 60.8244 187.239 63.063 190 63.063Z" stroke="#246EB2" stroke-width="2"/>
<defs>
<linearGradient id="paint0_linear_1885_344" x1="118" y1="16" x2="118" y2="80" gradientUnits="userSpaceOnUse">
<stop stop-color="#246EB2"/>
<stop offset="0.665" stop-color="#D3E0EF"/>
<stop offset="1" stop-color="#F1F3F9" stop-opacity="0"/>
</linearGradient>
</defs>
</svg>
