<svg width="80" height="80" viewBox="0 0 80 80" fill="none" xmlns="http://www.w3.org/2000/svg">
<rect width="80" height="80" rx="12" fill="#EEF2F6"/>
<g clip-path="url(#clip0_3820_24312)">
<path d="M20.114 36.304C25.9516 36.304 31.513 36.304 37.1779 36.304C37.1779 41.209 37.1779 45.9413 37.1779 50.9499C33.7582 50.9499 30.304 50.9499 26.8152 50.9499C26.7461 52.4698 27.5751 52.5389 28.5078 52.5389C31.3748 52.5389 34.2418 52.5389 37.1779 52.5389C37.1779 53.5061 37.1779 54.266 37.1779 55.1295C36.6943 55.1641 36.2453 55.2332 35.8307 55.2332C29.4404 55.2332 23.0501 55.2332 16.6598 55.2332C14.6218 55.2332 13.8618 54.6114 13.9655 52.5734C14.1727 48.8428 14.4491 45.0777 14.9326 41.3472C15.0708 40.2073 15.8653 39.171 16.1416 38.5838C15.658 37.3403 14.6908 36.1658 14.9672 35.4059C15.6235 33.437 17.5924 33.5406 19.4231 33.6097C19.8377 32.4007 20.2176 31.2263 20.7012 30.0518C22.1865 26.4249 24.5009 24.8359 28.3696 24.8359C31.133 24.8359 33.8964 24.8359 36.6598 24.8359C36.7634 24.8359 36.867 24.8705 37.0397 24.905C37.5233 25.9758 37.2124 26.4249 36.0035 26.3903C33.3092 26.3558 30.5803 26.4249 27.886 26.3558C25.1917 26.2867 23.3264 27.5302 22.3247 29.9137C21.5302 31.9517 20.943 34.0242 20.114 36.304ZM25.0881 44.4214C24.8808 43.7651 24.8463 43.2815 24.6045 42.9707C23.6719 41.6926 18.6632 40.1727 17.2815 40.8981C16.7634 41.1745 16.3489 42.1762 16.418 42.7979C16.4871 43.3852 17.2124 44.3178 17.696 44.3523C20.0104 44.5251 22.3592 44.4214 25.0881 44.4214ZM20.4594 53.057C21.2884 52.3662 22.3247 51.9171 22.3247 51.4335C22.3938 50.2245 21.2539 50.3972 20.4249 50.3972C19.5613 50.3972 18.456 50.2591 18.525 51.4681C18.5596 51.9517 19.5959 52.4007 20.4594 53.057Z" fill="#9AA4B2"/>
<path d="M26.228 55.959C26.5389 58.6187 26.1589 58.9987 23.6719 58.9987C21.772 58.9987 19.8722 58.9987 17.9724 58.9987C15.4508 58.9987 15.1399 58.6878 15.3126 55.959C18.9396 55.959 22.601 55.959 26.228 55.959Z" fill="#9AA4B2"/>
<path d="M44.4318 22.6602C44.9154 24.6291 45.2954 26.2526 45.7444 28.1524C44.6391 28.1524 43.2228 28.1869 41.8411 28.1524C40.5631 28.1178 40.114 28.6705 40.114 29.914C40.1486 38.7914 40.1486 47.6343 40.114 56.5116C40.114 57.8242 40.5631 58.3769 41.9102 58.3769C48.8878 58.3424 55.8308 58.3424 62.8083 58.3769C64.0518 58.3769 64.6045 57.9279 64.57 56.6498C64.5354 47.7379 64.5354 38.7914 64.57 29.8795C64.57 28.6014 64.0518 28.1178 62.8083 28.1524C61.4612 28.1869 60.0795 28.1524 58.905 28.1524C59.3541 26.3562 59.7686 24.6636 60.2522 22.7292C61.3575 22.7292 62.7047 22.5565 64.0518 22.7638C65.6062 23.0056 66.1589 24.2146 66.1935 25.6999C66.228 27.3579 66.1935 29.0505 66.1935 30.7085C66.1935 39.1714 66.1935 47.6343 66.1935 56.0971C66.1935 59.1714 65.3645 60.0349 62.3247 60.0349C55.7617 60.0349 49.1987 60.0349 42.6356 60.0349C39.1814 60.0349 38.456 59.3096 38.456 55.9244C38.456 46.1489 38.456 36.3389 38.456 26.5634C38.456 23.4546 39.2159 22.6947 42.3247 22.6947C43.1192 22.6602 43.8791 22.6602 44.4318 22.6602Z" fill="#155EEF"/>
<path d="M52.4111 20.0346C54.0346 20.0346 55.6235 20.1037 57.247 20.0346C58.5596 19.9655 59.0778 20.38 59.1123 21.7962C59.1814 27.4957 58.5942 28.152 52.8947 28.152C51.6166 28.152 50.3731 28.1866 49.095 28.1175C47.1607 28.0138 45.9171 26.7703 45.7444 24.8359C45.1917 20.0346 45.1917 20.0346 49.9931 20.0346C50.8221 20.0346 51.6166 20.0346 52.4111 20.0346ZM52.3766 25.5613C52.8947 24.905 53.4819 24.4905 53.4474 24.1106C53.4128 23.6961 52.8256 23.3161 52.4802 22.9361C52.0657 23.3161 51.4439 23.6615 51.3403 24.1106C51.2367 24.3869 51.893 24.905 52.3766 25.5613Z" fill="#155EEF"/>
<path d="M50.7531 35.1582C54.5527 35.1582 58.2142 35.1582 61.9793 35.1582C62.1866 36.0563 62.3593 36.7471 61.0121 36.7471C57.6961 36.7126 54.3455 36.7471 50.8567 36.7471C50.8221 36.1945 50.7876 35.7454 50.7531 35.1582Z" fill="#155EEF"/>
<path d="M61.9102 45.2198C58.1797 45.2198 54.5182 45.2198 50.8567 45.2198C50.5113 44.1835 50.684 43.6309 51.893 43.6309C54.8636 43.6654 57.8688 43.6654 60.8394 43.6309C61.9793 43.6309 62.3247 44.0454 61.9102 45.2198Z" fill="#155EEF"/>
<path d="M61.9102 52.6074C62.2902 53.7128 62.0138 54.1618 60.7703 54.1618C57.8342 54.0927 54.9327 54.1273 51.9966 54.1618C50.9258 54.1618 50.4767 53.8509 50.8567 52.6074C54.5182 52.6074 58.1796 52.6074 61.9102 52.6074Z" fill="#155EEF"/>
<path d="M45.1917 46.7048C44.2591 45.7031 43.4646 44.874 42.5665 43.9069C42.8083 43.6305 43.1192 43.2506 43.4992 42.767C44.0518 43.2506 44.5009 43.6651 45.0881 44.1832C45.848 43.3196 46.5734 42.4906 47.4025 41.5234C47.817 41.8343 48.1624 42.1452 48.646 42.5252C47.4715 43.9414 46.4007 45.254 45.1917 46.7048Z" fill="#155EEF"/>
<path d="M42.6011 35.1931C42.8774 34.9513 43.1883 34.6405 43.5683 34.295C44.0864 34.7441 44.57 35.1586 45.1227 35.6076C45.8826 34.7441 46.608 33.9151 47.4025 32.9824C47.817 33.2933 48.1624 33.5696 48.6805 33.9496C47.5061 35.3658 46.4007 36.6784 45.2608 38.0601C44.3627 37.0584 43.5683 36.1949 42.6011 35.1931Z" fill="#155EEF"/>
<path d="M45.2263 55.4052C44.2936 54.4035 43.4992 53.5745 42.6011 52.6073C42.8429 52.331 43.1538 51.9855 43.5337 51.6056C44.0864 52.0892 44.57 52.4691 45.1227 52.9182C45.8826 52.0546 46.5734 51.2256 47.3679 50.293C47.7824 50.6038 48.1624 50.8802 48.646 51.2256C47.5061 52.6764 46.4007 53.989 45.2263 55.4052Z" fill="#155EEF"/>
<path d="M25.0881 44.4222C22.3592 44.4222 20.0104 44.5259 17.696 44.3531C17.2124 44.3186 16.487 43.386 16.418 42.7987C16.3489 42.177 16.7979 41.1753 17.2815 40.8989C18.6287 40.1735 23.6718 41.6934 24.6045 42.9715C24.8463 43.2823 24.8808 43.7659 25.0881 44.4222Z" fill="white"/>
<path d="M20.4594 53.0573C19.5959 52.401 18.5596 51.952 18.525 51.4684C18.456 50.2594 19.5613 50.3976 20.4249 50.3976C21.2539 50.3976 22.3938 50.2594 22.3247 51.4339C22.2902 51.9175 21.2884 52.3665 20.4594 53.0573Z" fill="white"/>
<path d="M52.3765 25.5608C51.8584 24.9045 51.2366 24.4209 51.3057 24.11C51.4439 23.6264 52.0656 23.3155 52.4456 22.9355C52.791 23.3155 53.4128 23.6955 53.4128 24.11C53.4819 24.49 52.8946 24.9045 52.3765 25.5608Z" fill="white"/>
</g>
<defs>
<clipPath id="clip0_3820_24312">
<rect width="52.2625" height="40" fill="white" transform="translate(14 20)"/>
</clipPath>
</defs>
</svg>
