<svg width="80" height="80" viewBox="0 0 80 80" fill="none" xmlns="http://www.w3.org/2000/svg">
<rect width="80" height="80" rx="12" fill="#EEF2F6"/>
<path d="M39.9998 61.9996C52.15 61.9996 61.9996 52.15 61.9996 39.9998C61.9996 27.8497 52.15 18 39.9998 18C27.8497 18 18 27.8497 18 39.9998C18 52.15 27.8497 61.9996 39.9998 61.9996Z" fill="#84ADFF"/>
<path d="M39.9985 18C39.5524 18 39.11 18.0149 38.6705 18.0411C50.2022 18.7278 59.3424 28.2956 59.3424 39.9998C59.3424 51.704 50.2022 61.2719 38.6706 61.9586C39.11 61.9848 39.5524 61.9996 39.9985 61.9996C52.1486 61.9996 61.9983 52.15 61.9983 39.9998C61.9983 27.8497 52.1486 18 39.9985 18Z" fill="#528BFF"/>
<path d="M34.1125 57.0282C28.5746 55.1078 24.2549 50.5569 22.6558 44.8781L23.403 32.9944C26.1417 26.5305 32.5505 21.9844 40.0009 21.9844C47.4251 21.9844 53.8149 26.4985 56.5697 32.926L34.1125 57.0282Z" fill="white"/>
<path d="M23.4314 32.9256C22.5001 35.0985 21.9835 37.4897 21.9835 39.9996C21.9835 41.6894 22.2179 43.3253 22.6549 44.8772C23.3672 44.3823 25.9457 42.7206 29.4324 43.1081C29.5018 43.1158 29.5705 43.1242 29.6387 43.1332C32.5328 43.5189 34.8515 45.7403 35.4132 48.6053C35.5516 49.3116 35.6397 50.0927 35.6395 50.9386C35.639 53.8898 34.5648 56.0528 34.0236 56.9954C34.5119 57.1676 35.169 57.3757 35.9595 57.5578C37.2585 57.857 38.6109 58.0155 39.9995 58.0155C42.0933 58.0155 44.1044 57.6551 45.9752 56.9954C45.5756 55.4818 45.1892 53.4111 45.1889 50.9386C45.1888 49.9325 45.2527 48.9931 45.3554 48.1306C45.7378 44.9186 48.4278 42.4371 51.6624 42.4368C51.7321 42.4368 51.8025 42.4377 51.8734 42.4396C55.0169 42.525 56.9676 44.4836 57.344 44.8772C57.6857 43.6574 58.0154 41.9897 58.0154 39.9996C58.0154 37.4897 57.4988 35.0985 56.5675 32.9256C52.8626 31.6801 47.3647 30.2952 40.6052 30.2164C33.2437 30.1307 27.2924 31.6278 23.4314 32.9256Z" fill="#155EEF"/>
<path d="M57.3432 44.8784C57.6848 43.6586 58.0145 41.991 58.0145 40.0008C58.0145 37.4911 57.498 35.0997 56.5666 32.9268C55.6454 32.6171 54.6132 32.2988 53.4785 31.9941C54.6808 34.4076 55.3586 37.1264 55.3586 40.0009C55.3586 41.1038 55.2577 42.1835 55.067 43.2322C56.3326 43.8511 57.1185 44.6435 57.3432 44.8784Z" fill="#0040C1"/>
<path d="M40.5901 58.0049C40.6751 58.0021 40.7603 57.9991 40.8454 57.9952C40.9233 57.9916 41.0012 57.9873 41.0789 57.9827C41.129 57.9798 41.1792 57.9765 41.2292 57.9732C42.8812 57.8609 44.4728 57.5248 45.974 56.9954C45.8881 56.6704 45.8032 56.3182 45.7224 55.9434C43.5899 57.0688 41.2062 57.7795 38.6785 57.9658C38.7384 57.9702 38.7981 57.9748 38.858 57.9786C38.9047 57.9815 38.9511 57.985 38.9979 57.9876C39.1365 57.9952 39.2757 58.0009 39.4151 58.0055C39.4591 58.0069 39.5032 58.008 39.5473 58.0092C39.6972 58.0128 39.8474 58.0155 39.998 58.0155C40.1414 58.0155 40.2846 58.0135 40.4279 58.0101C40.4822 58.0088 40.5361 58.0066 40.5901 58.0049Z" fill="#084254"/>
<path d="M40.0008 42.1617C42.2395 42.1617 44.0542 40.3468 44.0542 38.1082C44.0542 35.8695 42.2395 34.0547 40.0008 34.0547C37.7621 34.0547 35.9474 35.8695 35.9474 38.1082C35.9474 40.3468 37.7621 42.1617 40.0008 42.1617Z" fill="white"/>
<path d="M51.3564 63.3555C57.9839 63.3555 63.3564 57.9829 63.3564 51.3555C63.3564 44.7281 57.9839 39.3555 51.3564 39.3555C44.729 39.3555 39.3564 44.7281 39.3564 51.3555C39.3564 57.9829 44.729 63.3555 51.3564 63.3555Z" fill="white"/>
<path d="M51.3556 39.3555C50.8325 39.3555 50.3174 39.3891 49.8118 39.454C55.7102 40.2116 60.2683 45.2511 60.2683 51.3555C60.2683 57.4597 55.7102 62.4994 49.8118 63.2569C50.3173 63.3217 50.8325 63.3555 51.3556 63.3555C57.9831 63.3555 63.3556 57.9828 63.3556 51.3555C63.3556 44.7281 57.9831 39.3555 51.3556 39.3555Z" fill="#D1E0FF"/>
<path d="M52.8989 48.0033V43.3865C52.8989 42.8181 52.4381 42.3574 51.8697 42.3574H50.8406C50.2722 42.3574 49.8114 42.8181 49.8114 43.3865V48.0033H52.8989Z" fill="#0D5F7F"/>
<path d="M53.5457 60.3543H49.1593C48.2392 60.3543 47.4933 59.6085 47.4933 58.6883V52.1912C47.4933 51.5167 47.6939 50.8584 48.0687 50.2976C48.3677 49.8503 48.6723 49.3343 48.9561 48.7483C49.3653 47.9038 49.6317 47.1201 49.8088 46.4609H52.8962C53.0805 47.1097 53.3447 47.8606 53.7293 48.665C54.0242 49.2815 54.3404 49.826 54.6516 50.3001C55.0164 50.8561 55.2117 51.5054 55.2117 52.1704V58.6883C55.2118 59.6085 54.4659 60.3543 53.5457 60.3543Z" fill="#42EAA5"/>
<path d="M54.6543 50.3001C54.3432 49.8261 54.0269 49.2815 53.7321 48.665C53.3474 47.8605 53.0833 47.1097 52.8988 46.4609H49.8114C49.9958 47.1097 50.26 47.8606 50.6447 48.665C50.9396 49.2815 51.2558 49.826 51.5669 50.3001C51.9319 50.856 52.127 51.5053 52.127 52.1704V58.6883C52.127 59.6085 51.3812 60.3543 50.4609 60.3543H53.5484C54.4685 60.3543 55.2144 59.6085 55.2144 58.6883V52.1704C55.2144 51.5053 55.0193 50.856 54.6543 50.3001Z" fill="#1EC186"/>
</svg>
