<svg width="80" height="80" viewBox="0 0 80 80" fill="none" xmlns="http://www.w3.org/2000/svg">
<rect width="80" height="80" rx="12" fill="#EEF2F6"/>
<path d="M32 60H48C53.52 60 58 55.52 58 50V30C58 24.48 53.52 20 48 20H32C26.48 20 22 24.48 22 30V50C22 55.52 26.48 60 32 60Z" fill="#CDD5DF"/>
<path d="M46 27.4199H34C31.94 27.4199 30.24 29.0999 30.24 31.1799V33.1799C30.24 35.2399 31.92 36.9399 34 36.9399H46C48.06 36.9399 49.76 35.2599 49.76 33.1799V31.1799C49.76 29.0999 48.08 27.4199 46 27.4199Z" fill="#155EEF"/>
<path d="M32.32 45.8397C32.04 45.8397 31.78 45.7797 31.54 45.6797C31.3 45.5797 31.08 45.4397 30.9 45.2597C30.52 44.8797 30.3 44.3797 30.3 43.8397C30.3 43.5797 30.36 43.3197 30.46 43.0797C30.56 42.8197 30.7 42.6197 30.9 42.4197C31.36 41.9597 32.06 41.7397 32.7 41.8797C32.82 41.8997 32.96 41.9397 33.08 41.9997C33.2 42.0397 33.32 42.0997 33.42 42.1797C33.54 42.2397 33.64 42.3397 33.72 42.4197C33.9 42.6197 34.06 42.8197 34.16 43.0797C34.26 43.3197 34.3 43.5797 34.3 43.8397C34.3 44.3797 34.1 44.8797 33.72 45.2597C33.34 45.6397 32.84 45.8397 32.32 45.8397Z" fill="#155EEF"/>
<path d="M40.3 45.8402C39.78 45.8402 39.28 45.6402 38.9 45.2602C38.52 44.8802 38.3 44.3802 38.3 43.8402C38.3 43.3202 38.52 42.8002 38.9 42.4202C39.64 41.6802 40.98 41.6802 41.72 42.4202C41.9 42.6202 42.06 42.8202 42.16 43.0802C42.26 43.3202 42.3 43.5802 42.3 43.8402C42.3 44.3802 42.1 44.8802 41.72 45.2602C41.34 45.6402 40.84 45.8402 40.3 45.8402Z" fill="#155EEF"/>
<path d="M48.3 45.8402C47.78 45.8402 47.28 45.6402 46.9 45.2602C46.52 44.8802 46.3 44.3802 46.3 43.8402C46.3 43.3202 46.52 42.8002 46.9 42.4202C47.64 41.6802 48.98 41.6802 49.72 42.4202C50.1 42.8002 50.32 43.3202 50.32 43.8402C50.32 44.1002 50.26 44.3602 50.16 44.6002C50.06 44.8402 49.92 45.0602 49.72 45.2602C49.34 45.6402 48.84 45.8402 48.3 45.8402Z" fill="#155EEF"/>
<path d="M32.32 53.8396C31.78 53.8396 31.28 53.6396 30.9 53.2596C30.52 52.8796 30.3 52.3796 30.3 51.8396C30.3 51.3196 30.52 50.7996 30.9 50.4196C31.08 50.2396 31.3 50.0996 31.54 49.9996C32.04 49.7996 32.58 49.7996 33.08 49.9996C33.2 50.0396 33.32 50.0996 33.42 50.1796C33.54 50.2396 33.64 50.3396 33.72 50.4196C34.1 50.7996 34.32 51.3196 34.32 51.8396C34.32 52.3796 34.1 52.8796 33.72 53.2596C33.34 53.6396 32.84 53.8396 32.32 53.8396Z" fill="#155EEF"/>
<path d="M40.3 53.8405C39.78 53.8405 39.28 53.6404 38.9 53.2604C38.52 52.8804 38.3 52.3805 38.3 51.8405C38.3 51.7005 38.32 51.5804 38.34 51.4404C38.38 51.3204 38.42 51.2005 38.46 51.0805C38.52 50.9605 38.58 50.8405 38.64 50.7205C38.72 50.6205 38.8 50.5204 38.9 50.4204C39.08 50.2404 39.3 50.1005 39.54 50.0005C40.28 49.7005 41.16 49.8605 41.72 50.4204C42.1 50.8004 42.3 51.3205 42.3 51.8405C42.3 52.3805 42.1 52.8804 41.72 53.2604C41.54 53.4404 41.32 53.5805 41.08 53.6805C40.84 53.7805 40.58 53.8405 40.3 53.8405Z" fill="#155EEF"/>
<path d="M48.3 53.8405C48.04 53.8405 47.78 53.7805 47.54 53.6805C47.3 53.5805 47.08 53.4404 46.9 53.2604C46.52 52.8804 46.32 52.3805 46.32 51.8405C46.32 51.3205 46.52 50.8004 46.9 50.4204C47.44 49.8605 48.34 49.7005 49.08 50.0005C49.32 50.1005 49.54 50.2404 49.72 50.4204C50.1 50.8004 50.3 51.3205 50.3 51.8405C50.3 52.3805 50.1 52.8804 49.72 53.2604C49.34 53.6404 48.84 53.8405 48.3 53.8405Z" fill="#155EEF"/>
</svg>
