<svg width="80" height="80" viewBox="0 0 80 80" fill="none" xmlns="http://www.w3.org/2000/svg">
<rect width="80" height="80" rx="12" fill="#EEF2F6"/>
<path d="M39.0252 39.3547C39.0252 33.8103 39.0252 28.2631 39.0252 22.7129C39.0159 22.4008 39.0224 22.0885 39.0446 21.7771C39.0665 21.5465 39.1724 21.3319 39.3422 21.1743C39.5119 21.0166 39.7337 20.9269 39.9653 20.9221C40.1969 20.9173 40.4222 20.9977 40.5983 21.1482C40.7745 21.2987 40.8892 21.5086 40.9206 21.7382C40.9495 22.0492 40.9574 22.3619 40.9444 22.674C40.9444 33.842 40.9444 45.0086 40.9444 56.1738C40.9444 56.3683 40.9444 56.565 40.9444 56.7595C40.9703 57.4316 40.7283 57.9612 40.0021 57.9763C39.2759 57.9914 39.01 57.4792 39.0208 56.7984C39.0208 56.3294 39.0208 55.8604 39.0208 55.3936L39.0252 39.3547Z" fill="#155EEF"/>
<path d="M39.974 58.1046C39.8378 58.1119 39.7015 58.0915 39.5734 58.0447C39.4452 57.9979 39.3279 57.9256 39.2284 57.8323C39.1081 57.6923 39.0175 57.5293 38.9621 57.3532C38.9068 57.1771 38.8878 56.9915 38.9064 56.8078C38.9064 56.4945 38.9064 56.1811 38.9064 55.8677C38.9064 55.7142 38.9064 55.5586 38.9064 55.4052V22.5192C38.9001 22.2705 38.9073 22.0216 38.928 21.7736C38.9289 21.641 38.9569 21.5099 39.0101 21.3884C39.0633 21.2669 39.1407 21.1576 39.2376 21.067C39.3344 20.9764 39.4487 20.9065 39.5735 20.8615C39.6983 20.8165 39.8308 20.7974 39.9632 20.8053C40.0954 20.7926 40.2288 20.8066 40.3554 20.8467C40.482 20.8867 40.5993 20.9518 40.7002 21.0381C40.801 21.1245 40.8835 21.2303 40.9426 21.3492C41.0016 21.4681 41.0361 21.5978 41.0439 21.7303C41.0713 21.9757 41.0807 22.2227 41.072 22.4695C41.072 22.5408 41.072 22.6121 41.072 22.6856C41.072 31.9921 41.072 41.2985 41.072 50.605V56.1941C41.072 56.2589 41.072 56.3259 41.072 56.3907C41.072 56.5183 41.072 56.6479 41.072 56.7754C41.094 56.9603 41.0788 57.1478 41.0272 57.3267C40.9756 57.5056 40.8886 57.6724 40.7715 57.8172C40.6722 57.9162 40.5537 57.9937 40.4232 58.045C40.2927 58.0963 40.1531 58.1203 40.013 58.1154L39.974 58.1046ZM39.9913 21.0409H39.9676C39.8639 21.0328 39.7595 21.0464 39.6613 21.0808C39.5632 21.1153 39.4733 21.1699 39.3975 21.2411C39.3216 21.3123 39.2614 21.3985 39.2208 21.4943C39.1801 21.5901 39.1599 21.6933 39.1614 21.7974C39.142 22.0367 39.1355 22.277 39.1419 22.517V55.4052C39.1419 55.5586 39.1419 55.7121 39.1419 55.8677C39.1419 56.1832 39.1419 56.4988 39.1419 56.8143C39.1235 56.9681 39.1364 57.1239 39.1799 57.2725C39.2233 57.4211 39.2964 57.5593 39.3948 57.6788C39.5662 57.8147 39.7794 57.887 39.9981 57.8834C40.2167 57.8799 40.4274 57.8007 40.5943 57.6594C40.7839 57.4136 40.8686 57.1029 40.8299 56.7949C40.8299 56.6631 40.8299 56.5312 40.8299 56.3994C40.8299 56.3345 40.8299 56.2697 40.8299 56.2049V50.6223C40.8299 41.3158 40.8299 32.0094 40.8299 22.7029C40.8299 22.6316 40.8299 22.5603 40.8299 22.4868C40.8381 22.2516 40.8294 22.0162 40.804 21.7822C40.8041 21.6787 40.7826 21.5762 40.7409 21.4815C40.6991 21.3867 40.638 21.3017 40.5615 21.2319C40.485 21.1621 40.3948 21.109 40.2966 21.0761C40.1984 21.0433 40.0944 21.0313 39.9913 21.0409Z" fill="#155EEF"/>
<path d="M61.2821 30.8275C60.8498 29.1395 60.6337 28.9601 58.9998 28.9558C58.4141 28.9558 57.8262 28.9752 57.2405 28.9558C56.1144 28.9104 54.7896 29.3686 53.9143 28.7786C53.0822 28.2188 53.067 26.8334 52.6758 25.822C52.4203 25.0335 51.9213 24.3464 51.2506 23.8594C50.58 23.3724 49.7722 23.1106 48.9433 23.1117C47.9211 23.0641 46.8923 23.0814 45.8678 23.0923H45.1892C45.1006 23.0923 45.0163 23.0922 44.932 23.1052H44.878C44.3247 23.1052 44.0134 23.3408 43.9551 23.7428C43.9333 23.9726 43.9269 24.2037 43.9357 24.4344V25.6815C43.9357 29.36 43.9357 33.0341 43.9357 36.704V48.5499C43.9357 48.8957 43.9357 49.2415 43.9357 49.5895C43.9249 50.0844 44.1777 50.454 44.8845 50.454C44.9979 50.4659 45.1119 50.4717 45.2259 50.4713H45.8592C47.0565 50.4713 48.2518 50.4713 49.4491 50.4713C51.6536 50.4713 51.6536 50.4713 51.7076 52.7125C51.7357 53.9488 52.1399 54.3724 53.4367 54.3919C54.8826 54.4156 56.3284 54.4135 57.7743 54.3919C59.1057 54.3724 59.5033 53.9596 59.5033 52.6218C59.5141 50.4324 59.5033 48.2452 59.5033 46.0558C59.5033 44.061 59.4817 42.0683 59.5033 40.0734C59.618 38.6547 59.1648 37.2484 58.2433 36.1636C57.7614 35.6384 57.7225 35.284 58.4595 34.9728C59.0629 34.6968 59.6495 34.3858 60.2166 34.0413C61.4593 33.3691 61.7208 32.5413 61.2821 30.8275ZM52.7667 43.0862C51.9438 43.2004 51.1141 43.2582 50.2833 43.2591C50.011 43.2591 49.5809 43.2872 49.1551 43.2591C48.7294 43.231 48.0594 43.5833 48.0075 42.7166C47.9686 42.0358 48.1199 41.4199 48.8936 41.2945C50.2768 41.0784 51.6709 40.9141 53.0627 40.7456C53.5512 40.6872 53.6333 41.0222 53.6484 41.4134C53.683 42.1461 53.6376 42.9025 52.7688 43.0862H52.7667Z" fill="#155EEF"/>
<path d="M55.6044 54.5333C54.8566 54.5333 54.1369 54.5333 53.4431 54.516C52.1183 54.4965 51.6385 54.0275 51.6082 52.7221C51.5823 51.6415 51.5693 51.0882 51.3208 50.8418C51.0722 50.5954 50.5362 50.5954 49.4664 50.5954H48.2691C47.4709 50.5954 46.6734 50.5954 45.8766 50.5954H45.2433C45.1249 50.5962 45.0066 50.5904 44.8889 50.5781C44.741 50.5884 44.5925 50.5686 44.4525 50.5199C44.3125 50.4713 44.1837 50.3948 44.074 50.295C43.988 50.2002 43.9223 50.0888 43.881 49.9676C43.8398 49.8464 43.8238 49.718 43.8341 49.5904C43.8341 49.3484 43.8341 49.1085 43.8341 48.8664V33.0307C43.8341 30.5813 43.8341 28.1318 43.8341 25.6824V24.2862C43.8279 24.1001 43.8351 23.9137 43.8558 23.7286C43.8947 23.4563 44.0719 23.0002 44.8931 22.9894H44.9278C45.0164 22.9894 45.105 22.9765 45.1958 22.9765H46.0884C47.0285 22.9657 48.0011 22.9548 48.9542 22.9981C49.8055 22.998 50.6351 23.2673 51.3241 23.7673C52.0132 24.2673 52.5265 24.9724 52.7905 25.7818C52.9123 26.123 53.0119 26.4717 53.0888 26.8257C53.1553 27.5317 53.4727 28.1904 53.9835 28.6822C54.6426 28.991 55.387 29.0672 56.0951 28.8984C56.4772 28.8515 56.8621 28.8306 57.247 28.8357C57.6512 28.8508 58.0618 28.8487 58.4595 28.8357H59.002C60.6856 28.8357 60.9471 29.0518 61.3988 30.796C61.8505 32.566 61.5652 33.4435 60.3031 34.1503L59.9249 34.3664C59.4766 34.6361 59.0117 34.8772 58.533 35.0883C58.2347 35.2136 58.0661 35.3476 58.0359 35.4859C58.0056 35.6242 58.1029 35.8231 58.3493 36.0911C58.8185 36.6378 59.1747 37.272 59.3973 37.9572C59.6199 38.6424 59.7044 39.3649 59.6461 40.083C59.6266 41.477 59.6309 42.8926 59.6461 44.2651C59.6461 44.8644 59.6461 45.4638 59.6461 46.0632C59.6461 46.7376 59.6461 47.4119 59.6461 48.0862C59.6461 49.5991 59.6461 51.112 59.6461 52.6249C59.6461 54.034 59.1879 54.4922 57.7917 54.5117C57.0201 54.5268 56.3004 54.5333 55.6044 54.5333ZM47.0652 50.3598H49.4578C51.7336 50.3598 51.779 50.4031 51.8352 52.7135C51.8611 53.8957 52.2372 54.261 53.4389 54.2782C54.7918 54.2999 56.2096 54.2999 57.7722 54.2782C59.0387 54.261 59.3889 53.9043 59.3954 52.6249C59.3954 51.112 59.3954 49.5991 59.3954 48.0862C59.3954 47.4119 59.3954 46.7368 59.3954 46.0611C59.3954 45.4617 59.3954 44.8623 59.3954 44.2629C59.3954 42.8905 59.3953 41.4727 59.4061 40.0765C59.4639 39.3886 59.385 38.696 59.1739 38.0387C58.9629 37.3814 58.6238 36.7724 58.1763 36.2467C57.8694 35.9117 57.7571 35.661 57.8068 35.4319C57.8565 35.2028 58.0575 35.0277 58.4422 34.8678C58.912 34.6605 59.3682 34.4237 59.8081 34.1589L60.1885 33.9428C61.3491 33.2944 61.5977 32.5142 61.1719 30.8522C60.7505 29.2074 60.5884 29.0734 59.0106 29.0691H58.4725C58.0727 29.0691 57.6577 29.0691 57.247 29.0691C56.8728 29.0647 56.4988 29.0857 56.1275 29.1318C55.3643 29.3072 54.5641 29.2156 53.8603 28.8724C53.298 28.3494 52.9453 27.6395 52.8683 26.8754C52.7935 26.5317 52.6968 26.1931 52.5786 25.8618C52.3292 25.0959 51.8438 24.4286 51.192 23.9554C50.5402 23.4821 49.7554 23.2272 48.9499 23.2272C48.0033 23.1839 47.035 23.1948 46.097 23.2056H45.2022C45.1179 23.2056 45.0358 23.2056 44.9559 23.2185H44.917C44.4134 23.2185 44.141 23.4044 44.0935 23.7545C44.0744 23.9282 44.0679 24.103 44.074 24.2776V25.6759C44.074 28.1254 44.074 30.5748 44.074 33.0242V48.8599C44.074 49.1041 44.074 49.3462 44.074 49.5904C44.0653 49.6865 44.076 49.7833 44.1058 49.8751C44.1355 49.9668 44.1836 50.0516 44.247 50.1243C44.337 50.2023 44.4416 50.2615 44.5548 50.2986C44.668 50.3357 44.7874 50.3499 44.9061 50.3404C45.0189 50.3512 45.1321 50.3562 45.2454 50.3555H47.0761L47.0652 50.3598ZM48.5241 43.4092C48.3773 43.4177 48.2324 43.3732 48.1156 43.2838C48.0424 43.2086 47.9854 43.1192 47.9482 43.021C47.911 42.9228 47.8945 42.8181 47.8995 42.7133C47.8455 41.7882 48.1675 41.2825 48.8851 41.1679C50.0565 40.9799 51.2625 40.8351 52.4144 40.6968L53.0628 40.619C53.148 40.6023 53.2358 40.6039 53.3204 40.6236C53.405 40.6434 53.4844 40.6808 53.5534 40.7335C53.634 40.8235 53.6957 40.9289 53.7347 41.0433C53.7737 41.1576 53.7892 41.2787 53.7803 41.3992C53.8041 41.9503 53.8495 42.9791 52.8056 43.1995C52.259 43.2954 51.705 43.3432 51.1501 43.3422C50.8799 43.3422 50.599 43.3573 50.3029 43.3767H50.0456C49.7495 43.3882 49.453 43.3832 49.1574 43.3616C49.0497 43.3579 48.9418 43.3644 48.8353 43.3811C48.733 43.3969 48.6298 43.4063 48.5263 43.4092H48.5241ZM53.1687 40.8459H53.0758L52.4273 40.9237C51.2711 41.062 50.0759 41.2068 48.9088 41.3949C48.3166 41.4878 48.0724 41.8898 48.12 42.6916C48.1122 42.8399 48.1636 42.9852 48.2626 43.0958C48.4261 43.1777 48.6145 43.1947 48.79 43.1434C48.9129 43.1245 49.0374 43.118 49.1617 43.1239C49.4494 43.1442 49.738 43.1485 50.0262 43.1369H50.2812C50.5708 43.1196 50.8561 43.1109 51.1285 43.1023C51.6696 43.103 52.2098 43.0568 52.7429 42.964C53.454 42.8148 53.5707 42.2788 53.5318 41.4035C53.5467 41.2256 53.495 41.0485 53.387 40.9064C53.3243 40.8613 53.2478 40.8399 53.1709 40.8459H53.1687Z" fill="#CDD5DF"/>
<path d="M19.7298 34.051C20.2968 34.3955 20.8835 34.7066 21.4869 34.9825C22.2325 35.2938 22.1937 35.6482 21.703 36.1734C20.7816 37.2582 20.3283 38.6644 20.443 40.0831C20.4711 42.078 20.443 44.0707 20.443 46.0656C20.443 48.2549 20.443 50.4421 20.443 52.6315C20.443 53.9758 20.8493 54.3843 22.172 54.4016C23.6179 54.4211 25.0638 54.4232 26.5097 54.4016C27.7892 54.3822 28.202 53.9586 28.2387 52.7223C28.2928 50.4811 28.2928 50.4811 30.4973 50.4811C31.6946 50.4811 32.8898 50.4811 34.0871 50.4811H34.7204C34.8344 50.4815 34.9485 50.4757 35.0619 50.4637C35.7686 50.4637 36.0215 50.0899 36.0107 49.5992C36.0107 49.2534 36.0107 48.9076 36.0107 48.5597V36.7137C36.0107 33.0352 36.0107 29.3611 36.0107 25.6912V24.4442C36.0195 24.2135 36.013 23.9824 35.9912 23.7525C35.935 23.3505 35.6238 23.1215 35.0684 23.115H35.023C34.9387 23.115 34.8544 23.102 34.7658 23.102H34.0871C33.0627 23.0912 32.034 23.0739 31.0117 23.1215C30.1829 23.1204 29.375 23.3822 28.7043 23.8692C28.0336 24.3561 27.5347 25.0433 27.2791 25.8317C26.8879 26.8453 26.8728 28.2264 26.0407 28.7883C25.1762 29.3805 23.8405 28.9223 22.7145 28.9655C22.1288 28.9893 21.5409 28.9655 20.9552 28.9655C19.3235 28.9655 19.1052 29.1492 18.6729 30.8372C18.2407 32.5252 18.5152 33.3702 19.7298 34.051ZM26.3239 41.3994C26.3411 41.0082 26.4233 40.6732 26.9096 40.7315C28.3014 40.9001 29.6932 41.0579 31.0786 41.2805C31.8524 41.4015 32.0058 42.0218 31.9648 42.7026C31.9129 43.5671 31.2537 43.2062 30.8171 43.2451C30.3805 43.284 29.9527 43.2451 29.689 43.2451C28.8582 43.2442 28.0285 43.1864 27.2056 43.0722C26.3346 42.9036 26.2914 42.1472 26.3239 41.408V41.3994Z" fill="#CDD5DF"/>
<path d="M24.3675 54.5333C23.6716 54.5333 22.9497 54.5333 22.2062 54.5181C20.81 54.4987 20.3605 54.0405 20.3518 52.6314C20.3518 51.1185 20.3518 49.6056 20.3518 48.0819C20.3518 47.4104 20.3518 46.7383 20.3518 46.0654C20.3518 45.4674 20.3518 44.8688 20.3518 44.2694C20.3518 42.897 20.3518 41.4792 20.3518 40.0851C20.2935 39.3671 20.378 38.6446 20.6006 37.9594C20.8231 37.2742 21.1793 36.6399 21.6486 36.0933C21.8949 35.8253 21.9944 35.6329 21.962 35.4859C21.9296 35.339 21.7631 35.2136 21.4649 35.0883C20.9861 34.8773 20.5213 34.6362 20.073 34.3664L19.697 34.1503C18.4348 33.4435 18.1495 32.566 18.6012 30.796C19.0443 29.0669 19.3144 28.8508 20.9958 28.8357H21.5383C21.936 28.8357 22.3467 28.8357 22.7508 28.8357C23.1365 28.8305 23.5221 28.8514 23.9049 28.8984C24.613 29.0674 25.3574 28.9912 26.0166 28.6822C26.5277 28.1906 26.8451 27.5318 26.9113 26.8257C26.9882 26.4717 27.0878 26.123 27.2095 25.7818C27.4735 24.9724 27.9868 24.2673 28.6759 23.7673C29.3649 23.2673 30.1945 22.998 31.0458 22.9981C32.0011 22.9548 32.9715 22.9657 33.9117 22.9765H34.8043C34.895 22.9765 34.9837 22.9765 35.0701 22.9894H35.1069C35.9195 22.9894 36.1053 23.4563 36.1442 23.7286C36.1648 23.9137 36.172 24.1001 36.1659 24.2862V25.6824C36.1659 28.1318 36.1659 30.5813 36.1659 33.0307V48.8642C36.1659 49.1063 36.1659 49.3484 36.1659 49.5883C36.1761 49.7159 36.16 49.8442 36.1188 49.9654C36.0775 50.0866 36.0119 50.198 35.926 50.2929C35.8142 50.3934 35.6832 50.4703 35.541 50.519C35.3987 50.5676 35.2482 50.587 35.0982 50.576C34.9848 50.5872 34.8707 50.5922 34.7567 50.5911H34.1235C33.3252 50.5911 32.5277 50.5911 31.7309 50.5911H30.5336C29.4638 50.5911 28.9278 50.5911 28.6792 50.8375C28.4307 51.0839 28.4177 51.6307 28.3918 52.7178C28.3615 54.0146 27.8817 54.4922 26.5569 54.5117C25.835 54.529 25.1153 54.5333 24.3675 54.5333ZM20.9699 29.0713C19.3835 29.0713 19.2215 29.2096 18.8086 30.8543C18.3958 32.4991 18.6315 33.2966 19.7921 33.9471L20.1703 34.1632C20.6102 34.428 21.0664 34.6648 21.5362 34.8721C21.9209 35.0321 22.124 35.2115 22.1716 35.4362C22.2191 35.661 22.1089 35.916 21.802 36.251C21.3545 36.7767 21.0155 37.3857 20.8044 38.043C20.5934 38.7003 20.5145 39.3929 20.5723 40.0808C20.5917 41.477 20.5874 42.8905 20.5831 44.2694C20.5831 44.8673 20.5831 45.466 20.5831 46.0654C20.5831 46.7368 20.5831 47.409 20.5831 48.0819C20.5831 49.5947 20.5831 51.1077 20.5831 52.6205C20.5831 53.9022 20.9376 54.2566 22.2062 54.2739C23.7688 54.2934 25.1866 54.2934 26.5395 54.2739C27.7412 54.2566 28.1173 53.8914 28.1432 52.7092C28.1994 50.3988 28.2426 50.3555 30.5206 50.3555H31.718C32.5162 50.3555 33.3137 50.3555 34.1105 50.3555H34.7438C34.8626 50.3555 34.9599 50.3555 35.0701 50.3404C35.1909 50.3508 35.3125 50.3371 35.4279 50.3C35.5434 50.2629 35.6502 50.2032 35.7423 50.1243C35.8057 50.0516 35.8537 49.9668 35.8834 49.8751C35.9132 49.7833 35.9239 49.6865 35.9152 49.5904C35.9152 49.3462 35.9152 49.102 35.9152 48.8578V33.0242C35.9152 30.5748 35.9152 28.1254 35.9152 25.6759V24.2776C35.9211 24.103 35.9146 23.9282 35.8957 23.7545C35.846 23.4066 35.5759 23.225 35.0896 23.2185H35.0463C34.9534 23.2185 34.8713 23.2056 34.787 23.2056H33.8922C32.9564 23.2056 31.9881 23.1839 31.0393 23.2272C30.2338 23.2272 29.449 23.4821 28.7972 23.9554C28.1454 24.4286 27.66 25.0959 27.4106 25.8618C27.2927 26.1932 27.1959 26.5317 27.1209 26.8754C27.0441 27.6396 26.6914 28.3495 26.1289 28.8724C25.425 29.2154 24.6249 29.307 23.8617 29.1318C23.4897 29.0856 23.1149 29.0647 22.74 29.0691C22.3315 29.0864 21.9166 29.0821 21.5168 29.0691L20.9699 29.0713ZM31.4457 43.4092C31.3459 43.4072 31.2463 43.3993 31.1474 43.3854C31.0409 43.369 30.9331 43.3625 30.8253 43.366C30.5298 43.3875 30.2332 43.3925 29.9371 43.3811H29.6885C29.3859 43.3638 29.105 43.3552 28.8348 43.3465C28.2799 43.3476 27.7259 43.2999 27.1793 43.2039C26.1332 42.9877 26.1786 41.9568 26.2045 41.4035C26.1957 41.283 26.2112 41.162 26.2502 41.0476C26.2892 40.9332 26.3509 40.8279 26.4315 40.7378C26.5006 40.6853 26.58 40.6479 26.6645 40.6281C26.7491 40.6084 26.8368 40.6067 26.9221 40.6233L27.5705 40.7011C28.7289 40.8394 29.9263 40.9842 31.0977 41.1723C31.8152 41.2847 32.1372 41.7904 32.0832 42.7154C32.0882 42.8202 32.0717 42.925 32.0345 43.0232C31.9973 43.1213 31.9403 43.2108 31.8671 43.286C31.7456 43.3792 31.5939 43.4239 31.4413 43.4113L31.4457 43.4092ZM30.8859 43.1282C30.9828 43.1303 31.0795 43.1382 31.1755 43.152C31.351 43.2029 31.5392 43.1859 31.7028 43.1044C31.8017 42.9937 31.853 42.8485 31.8455 42.7003C31.893 41.8963 31.6488 41.4943 31.0566 41.4035C29.8895 41.2155 28.6943 41.0728 27.538 40.9324L26.8897 40.8546C26.8364 40.8426 26.7813 40.8418 26.7278 40.8522C26.6742 40.8627 26.6233 40.8841 26.5784 40.9151C26.4715 41.0577 26.42 41.2344 26.4337 41.4122C26.3948 42.2767 26.5114 42.8213 27.2225 42.9726C27.7556 43.0655 28.2958 43.1118 28.837 43.1109C29.1093 43.1109 29.3924 43.1261 29.6907 43.1455H29.9392C30.2274 43.1573 30.5161 43.1529 30.8038 43.1325L30.8859 43.1282Z" fill="#CDD5DF"/>
</svg>
