<svg width="80" height="80" viewBox="0 0 80 80" fill="none" xmlns="http://www.w3.org/2000/svg">
<rect width="80" height="80" rx="12" fill="#EEF2F6"/>
<rect x="27.6669" y="45.5547" width="8.88892" height="7.77781" fill="#155EEF"/>
<rect x="27.6669" y="24.4434" width="11.1112" height="14.4445" fill="#CDD5DF"/>
<path d="M43.2656 29.375C42.6179 29.375 42.0938 28.8509 42.0938 28.2031V20H25C22.7909 20 21 21.7909 21 24V43.4288V56C21 58.2091 22.7909 60 25 60H46.1627C45.6637 59.6861 45.1566 59.4273 44.6516 59.2607C41.0077 58.1209 38.8128 55.3972 38.8128 51.9845C38.8128 50.9843 39.1641 50.007 39.5716 48.8741C39.7284 48.4369 40.0877 47.4333 40.13 47.1071C40.1254 46.1584 39.7661 45.0746 39.4102 44.5459C39.2092 44.2477 39.0643 43.9257 38.9662 43.5937C38.6665 42.5788 38.7778 41.6668 39.0927 41.25C39.4741 40.3059 39.8891 40.1202 41.4495 38.2677C42.1155 37.5112 43.0768 37.0763 44.0862 37.0763C44.7648 37.0763 45.424 37.272 45.9939 37.6405C45.987 37.6337 45.9916 37.6302 46.0077 37.6302C46.078 37.6302 47.3281 37.8536 48.3263 37.5684C48.9088 37.1782 49.5977 36.9665 50.3027 36.9665C50.7059 36.9665 51.0953 37.0527 51.4688 37.1846V29.375H43.2656ZM33.8906 52.9688H29.2031C28.5554 52.9688 28.0312 52.4446 28.0312 51.7969C28.0312 51.1491 28.5554 50.625 29.2031 50.625H33.8906C34.5384 50.625 35.0625 51.1491 35.0625 51.7969C35.0625 52.4446 34.5384 52.9688 33.8906 52.9688ZM29.2031 45.9375H33.8906C34.5384 45.9375 35.0625 46.4616 35.0625 47.1094C35.0625 47.7571 34.5384 48.2812 33.8906 48.2812H29.2031C28.5554 48.2812 28.0312 47.7571 28.0312 47.1094C28.0312 46.4616 28.5554 45.9375 29.2031 45.9375ZM33.3047 30.5469H34.4766C36.0925 30.5469 37.4062 31.8606 37.4062 33.4766C37.4062 34.8848 36.3886 36.0078 35.0625 36.2877V37.5781C35.0625 38.2259 34.5384 38.75 33.8906 38.75C33.2429 38.75 32.7188 38.2259 32.7188 37.5781V36.4062H31.5469C30.8991 36.4062 30.375 35.8821 30.375 35.2344C30.375 34.5866 30.8991 34.0625 31.5469 34.0625H34.4766C34.7993 34.0625 35.0625 33.7993 35.0625 33.4766C35.0625 33.1538 34.7993 32.8906 34.4766 32.8906H33.3047C31.6887 32.8906 30.375 31.5769 30.375 29.9609C30.375 28.5527 31.3928 27.4295 32.7188 27.1497V25.8594C32.7188 25.2116 33.2429 24.6875 33.8906 24.6875C34.5384 24.6875 35.0625 25.2116 35.0625 25.8594V27.0312H36.2344C36.8821 27.0312 37.4062 27.5554 37.4062 28.2031C37.4062 28.8509 36.8821 29.375 36.2344 29.375H33.3047C32.982 29.375 32.7188 29.6382 32.7188 29.9609C32.7188 30.2837 32.982 30.5469 33.3047 30.5469Z" fill="#CDD5DF"/>
<g clip-path="url(#clip0_3820_2199)">
<path d="M38.752 32.9688C38.637 30.3581 36.9074 28.342 34.2359 27.6975V27.3698C34.2359 26.8164 33.7867 26.3672 33.2333 26.3672C33.2051 26.3672 33.179 26.3694 33.1508 26.3715C32.63 26.4149 32.2307 26.849 32.2307 27.372V27.6823C28.8648 28.5742 27.4238 30.8702 27.6994 34.9089C27.6972 35.191 27.7775 35.4319 27.9338 35.6012C28.0835 35.7661 28.2897 35.8529 28.5414 35.8551C29.0362 35.8551 29.3509 35.4731 29.3661 34.859C29.3704 34.6311 29.3726 34.3989 29.3726 34.1732C29.3726 33.6372 29.3748 33.0816 29.4442 32.5413C29.6308 31.0786 30.8266 29.7721 32.2307 29.4965V33.0838C32.2307 33.6372 32.6799 34.0864 33.2333 34.0864H33.2376H33.242C33.3027 34.0864 33.3613 34.0799 33.4199 34.069C33.893 33.9779 34.2359 33.5656 34.2359 33.0838V29.4987L34.2424 29.5009C35.6422 29.7743 36.8357 31.0807 37.0159 32.5391C37.0831 33.0795 37.0853 33.635 37.0853 34.171C37.0853 34.4141 37.0875 34.6658 37.094 34.9111C37.1092 35.4861 37.4325 35.8572 37.9186 35.8572H37.923C38.4221 35.8551 38.7498 35.4818 38.7628 34.9089L38.765 34.7787C38.778 34.1841 38.791 33.5699 38.752 32.9688Z" fill="#155EEF"/>
</g>
<path d="M44.4376 20.6855V27.0302H50.7822L44.4376 20.6855Z" fill="#9AA4B2"/>
<path d="M58.8214 49.6851C58.5273 48.8703 58.1245 47.7533 58.1245 47.203C58.1245 45.8022 58.5617 44.2458 59.238 43.2387C59.5356 42.797 59.4967 42.2099 59.1442 41.8105L57.3863 39.8181C56.9973 39.3764 56.3427 39.2917 55.8563 39.619C55.6308 39.7689 54.8435 40.055 53.4839 40.055C52.0626 40.055 51.21 39.7116 51.0601 39.5869C50.6275 39.2162 49.9752 39.2207 49.5335 39.5869C49.3835 39.7117 48.531 40.055 47.1096 40.055C45.7501 40.055 44.9627 39.7689 44.7373 39.619C44.2486 39.2917 43.5963 39.3764 43.2072 39.8181L41.4494 41.8105C41.0969 42.2099 41.058 42.797 41.3556 43.2387C42.0319 44.2458 42.4691 45.8022 42.4691 47.203C42.4691 47.7385 42.0685 48.8532 41.7767 49.6669C41.3922 50.7369 41.1565 51.4212 41.1565 51.9843C41.1565 54.3876 42.6637 56.1831 45.3839 57.0346C46.8099 57.5038 48.222 58.4101 49.4683 59.6565C49.6972 59.8854 49.997 59.9998 50.2968 59.9998C50.5966 59.9998 50.8965 59.8854 51.1253 59.6565C52.3716 58.4102 53.7838 57.5038 55.1937 57.0392C57.9299 56.1832 59.4371 54.3876 59.4371 51.9844C59.4371 51.4223 59.2025 50.7448 58.8214 49.6851ZM52.8877 49.843L52.1926 50.0689L52.6222 50.6601C53.0033 51.1843 52.8866 51.9167 52.3635 52.2966C51.8352 52.6797 51.1041 52.5583 50.727 52.038L50.2967 51.4458L49.8664 52.038C49.4895 52.5582 48.7584 52.68 48.2299 52.2967C47.707 51.9168 47.5902 51.1844 47.9713 50.6602L48.4009 50.069L47.7058 49.8431C47.0901 49.6429 46.7525 48.9814 46.9527 48.3669C47.1542 47.7512 47.8168 47.4158 48.429 47.6138L49.1248 47.84V47.109C49.1248 46.4613 49.6489 45.9372 50.2967 45.9372C50.9444 45.9372 51.4685 46.4613 51.4685 47.109V47.8399L52.1643 47.6137C52.7778 47.4146 53.4403 47.7499 53.6406 48.3668C53.841 48.9813 53.5034 49.6428 52.8877 49.843Z" fill="#155EEF"/>
<defs>
<clipPath id="clip0_3820_2199">
<rect width="11.1112" height="11.1112" fill="white" transform="translate(27.6669 25.5547)"/>
</clipPath>
</defs>
</svg>
