<svg width="80" height="80" viewBox="0 0 80 80" fill="none" xmlns="http://www.w3.org/2000/svg">
<rect width="80" height="80" rx="12" fill="#EEF2F6"/>
<path d="M45.2422 34.7578V45.0703H56.4423C56.9025 45.0703 57.3429 44.885 57.6655 44.5564L60.9066 41.2511C61.5468 40.5985 61.5643 39.5572 60.9459 38.8831L57.6712 35.3134C57.3463 34.9592 56.8884 34.7578 56.4087 34.7578H45.2422Z" fill="#155EEF"/>
<path d="M34.8438 24.4453H23.6437C23.1835 24.4453 22.743 24.6306 22.4204 24.9593L19.1793 28.2645C18.5392 28.9171 18.5217 29.9584 19.14 30.6325L22.4147 34.2022C22.7397 34.5564 23.1976 34.7578 23.6773 34.7578H34.8438V24.4453Z" fill="#9AA4B2"/>
<path d="M42.6641 60.2812V19.7188C42.6641 18.7694 41.8947 18 40.9453 18H39.2266C38.2772 18 37.5078 18.7694 37.5078 19.7188V60.2812C37.5078 61.2306 38.2772 62 39.2266 62H40.9453C41.8947 62 42.6641 61.2306 42.6641 60.2812Z" fill="#155EEF"/>
</svg>
