<svg width="80" height="80" viewBox="0 0 80 80" fill="none" xmlns="http://www.w3.org/2000/svg">
<rect width="80" height="80" rx="12" fill="#EEF2F6"/>
<path d="M58.5359 56.297L54.5143 52.2754C55.3439 51.023 55.8332 49.5267 55.8332 47.9165C55.8332 43.5514 52.2818 40 47.9166 40C43.5515 40 40.0001 43.5514 40.0001 47.9165C40.0001 52.2817 43.5515 55.833 47.9166 55.833C49.5269 55.833 51.0231 55.3438 52.2755 54.5142L56.2971 58.5357C56.9161 59.1548 57.9168 59.1548 58.5359 58.5357C59.1549 57.9167 59.1549 56.916 58.5359 56.297ZM47.9166 52.6664C45.2979 52.6664 43.1667 50.5353 43.1667 47.9165C43.1667 45.2977 45.2979 43.1666 47.9166 43.1666C50.5354 43.1666 52.6666 45.2977 52.6666 47.9165C52.6666 50.5353 50.5354 52.6664 47.9166 52.6664Z" fill="#155EEF"/>
<path d="M51.0828 21H25.7499C23.1264 21 21 23.1264 21 25.7499C21 28.3734 23.1264 30.4998 25.7499 30.4998H51.0828C53.7063 30.4998 55.8327 28.3734 55.8327 25.7499C55.8327 23.1264 53.7063 21 51.0828 21Z" fill="#155EEF"/>
<path d="M51.0828 33.666H25.7499C23.1216 33.666 21 35.7876 21 38.4159C21 41.0442 23.1216 43.1658 25.7499 43.1658H37.9097C39.683 39.4292 43.4988 36.8326 47.9162 36.8326C50.8928 36.8326 53.5844 38.0043 55.5794 39.9201C55.7535 39.4451 55.8327 38.9384 55.8327 38.4159C55.8327 35.7876 53.7111 33.666 51.0828 33.666ZM25.7499 39.9992C24.8791 39.9992 24.1666 39.2867 24.1666 38.4159C24.1666 37.5451 24.8791 36.8326 25.7499 36.8326C26.6207 36.8326 27.3332 37.5451 27.3332 38.4159C27.3332 39.2867 26.6207 39.9992 25.7499 39.9992ZM32.0831 39.9992C31.2123 39.9992 30.4998 39.2867 30.4998 38.4159C30.4998 37.5451 31.2123 36.8326 32.0831 36.8326C32.9539 36.8326 33.6664 37.5451 33.6664 38.4159C33.6664 39.2867 32.9539 39.9992 32.0831 39.9992Z" fill="#9AA4B2"/>
<path d="M36.833 47.9153C36.833 47.377 36.8647 46.8545 36.9597 46.332H25.7499C23.1216 46.332 21 48.4537 21 51.0819C21 53.7102 23.1216 55.8319 25.7499 55.8319H40.1738C38.1155 53.8211 36.833 51.0186 36.833 47.9153ZM25.7499 52.6652C24.8791 52.6652 24.1666 51.9528 24.1666 51.0819C24.1666 50.2111 24.8791 49.4986 25.7499 49.4986C26.6207 49.4986 27.3332 50.2111 27.3332 51.0819C27.3332 51.9528 26.6207 52.6652 25.7499 52.6652ZM32.0831 52.6652C31.2123 52.6652 30.4998 51.9528 30.4998 51.0819C30.4998 50.2111 31.2123 49.4986 32.0831 49.4986C32.9539 49.4986 33.6664 50.2111 33.6664 51.0819C33.6664 51.9528 32.9539 52.6652 32.0831 52.6652Z" fill="#9AA4B2"/>
</svg>
