<svg width="80" height="80" viewBox="0 0 80 80" fill="none" xmlns="http://www.w3.org/2000/svg">
<rect width="80" height="80" rx="12" fill="#EEF2F6"/>
<path d="M57.875 56.494V41.0134C56.9511 41.3582 55.9769 41.5489 54.9912 41.578L54.6978 41.5817C52.9731 41.5864 51.2812 41.1102 49.812 40.2067C48.3462 41.1072 46.6589 41.5826 44.9385 41.5797C43.2181 41.5767 41.5325 41.0957 40.0697 40.1902C38.5949 41.1061 36.8924 41.5889 35.1563 41.5835C33.4262 41.586 31.7311 41.0964 30.2687 40.1719C28.8068 41.0961 27.1123 41.5856 25.3828 41.5835C25.2912 41.5835 25.1958 41.5835 25.095 41.578H25.0895C24.0748 41.5482 23.0725 41.3467 22.125 40.9822V56.494H19.375V59.244H60.625V56.494H57.875ZM37.25 50.994H29V44.4637C29 44.3723 29.0363 44.2846 29.101 44.22C29.1656 44.1554 29.2533 44.119 29.3447 44.119H36.9072C36.9523 44.119 36.9971 44.128 37.0388 44.1453C37.0805 44.1627 37.1184 44.1881 37.1502 44.2201C37.1821 44.2521 37.2073 44.2901 37.2244 44.3319C37.2416 44.3738 37.2502 44.4185 37.25 44.4637V50.994ZM51 56.494H44.125V44.4637C44.125 44.3723 44.1613 44.2846 44.226 44.22C44.2906 44.1554 44.3783 44.119 44.4697 44.119H50.6553C50.7007 44.1188 50.7456 44.1275 50.7875 44.1448C50.8294 44.162 50.8675 44.1874 50.8996 44.2195C50.9316 44.2515 50.957 44.2896 50.9743 44.3315C50.9915 44.3734 51.0002 44.4184 51 44.4637V56.494Z" fill="#9AA4B2"/>
<path d="M60.3298 32.6337L56.3167 23.5C55.1213 20.75 55.1213 20.75 52.3713 20.75H27.625C24.875 20.75 24.875 20.75 23.6778 23.5L19.6647 32.6337C18.891 34.302 19.914 36.0143 19.914 36.0143L19.9488 36.0712C19.9855 36.128 20.046 36.2215 20.0882 36.2747L20.112 36.3113L20.563 36.8595L21.0195 37.2995L21.0562 37.3325C21.3092 37.5488 21.5805 37.7432 21.8665 37.9137V37.9192C22.8015 38.4857 23.8667 38.801 24.9593 38.8358H25.172C26.1119 38.8374 27.0412 38.6363 27.8964 38.2462C28.7515 37.8561 29.5126 37.2862 30.1275 36.5753C30.7424 37.2862 31.5035 37.8561 32.3586 38.2462C33.2138 38.6363 34.1431 38.8374 35.083 38.8358C37.0832 38.8358 38.8707 37.976 40.0367 36.6395L40.0431 36.6369L40.0495 36.6395L40.5353 37.0905C41.7472 38.2162 43.3403 38.8395 44.9958 38.8358C46.996 38.8358 48.7853 37.9778 49.9495 36.6358C51.1155 37.9778 52.9048 38.8358 54.9068 38.8358H55.1195C56.1851 38.7965 57.2221 38.4799 58.128 37.9173C58.2105 37.8678 58.2875 37.8165 58.3663 37.7652C58.9779 37.3535 59.5097 36.8342 59.9357 36.2325L60.108 35.9758C60.185 35.7998 61.0723 34.2305 60.328 32.6337H60.3298Z" fill="#155EEF"/>
</svg>
