<svg width="80" height="80" viewBox="0 0 80 80" fill="none" xmlns="http://www.w3.org/2000/svg">
<rect width="80" height="80" rx="12" fill="#EEF2F6"/>
<path d="M40 25.334C31.913 25.334 25.3333 31.9136 25.3333 40.0007C25.3333 48.0877 31.913 54.6674 40 54.6674C48.0871 54.6674 54.6667 48.0877 54.6667 40.0007C54.6667 31.9136 48.0871 25.334 40 25.334ZM47.5035 30.8125C47.6682 30.629 47.901 30.5207 48.148 30.5109C48.3611 30.4867 48.635 30.5905 48.814 30.7606C50.7154 32.5608 52.0081 34.8525 52.5487 37.3877C52.6347 37.7923 52.4395 38.2041 52.0725 38.3938C51.1754 38.8575 50.1102 39.0822 49.0897 39.0822C47.7595 39.0822 46.4991 38.7008 45.7686 37.9703C44.2146 36.4173 44.8626 33.7416 47.5035 30.8125ZM32.4967 49.332C32.3319 49.5155 32.0992 49.6247 31.8521 49.6346C31.8414 49.6355 31.8288 49.6355 31.8163 49.6355C31.5818 49.6355 31.3562 49.5459 31.1861 49.3848C29.2847 47.5846 27.9921 45.2929 27.4514 42.7569C27.3655 42.3523 27.5607 41.9405 27.9277 41.7507C29.9938 40.6846 32.9407 40.8833 34.2316 42.1741C35.7838 43.7274 35.1356 46.403 32.4967 49.332ZM34.2315 37.9704C33.501 38.7009 32.2406 39.0823 30.9103 39.0823C29.8898 39.0823 28.8264 38.8575 27.9276 38.3939C27.5606 38.2042 27.3654 37.7923 27.4514 37.3877C27.9921 34.8526 29.2847 32.5609 31.186 30.7607C31.365 30.5906 31.6283 30.485 31.852 30.5109C32.0991 30.5208 32.3318 30.6291 32.4966 30.8126C35.1374 33.7416 35.7855 36.4173 34.2315 37.9704ZM43.9066 52.2244C42.6372 52.629 41.323 52.8341 40 52.8341C38.677 52.8341 37.3628 52.6291 36.0935 52.2244C35.6906 52.0955 35.4275 51.7088 35.4561 51.2872C35.6853 47.9884 37.6386 45.5007 40 45.5007C42.3615 45.5007 44.3148 47.9884 44.544 51.2871C44.5726 51.7088 44.3095 52.0955 43.9066 52.2244ZM36.3333 40.0007C36.3333 37.9785 37.9787 36.334 40 36.334C42.0214 36.334 43.6667 37.9784 43.6667 40.0007C43.6667 42.023 42.0214 43.6674 40 43.6674C37.9787 43.6674 36.3333 42.0229 36.3333 40.0007ZM44.544 28.7867C44.3148 32.0845 42.3615 34.5723 40 34.5723C37.6386 34.5723 35.6853 32.0845 35.4561 28.7867C35.4275 28.3651 35.6888 27.9784 36.0917 27.8503C38.6305 27.0392 41.3697 27.0392 43.9084 27.8503C44.3113 27.9784 44.5726 28.3651 44.544 28.7867ZM52.5487 42.611C52.008 45.147 50.7154 47.4387 48.814 49.239C48.644 49.4001 48.4184 49.4896 48.1839 49.4896C48.1713 49.4896 48.1588 49.4896 48.148 49.4888C47.901 49.4789 47.6682 49.3706 47.5035 49.1871C44.8627 46.2581 44.2146 43.5815 45.7686 42.0284C47.0595 40.7366 50.0046 40.5405 52.0725 41.605C52.4395 41.7946 52.6347 42.2064 52.5487 42.611Z" fill="#9AA4B2"/>
<path d="M40 18C27.8685 18 18 27.8694 18 40C18 52.1306 27.8685 62 40 62C52.1315 62 62 52.1306 62 40C62 27.8694 52.1315 18 40 18ZM40 56.5C30.9014 56.5 23.5 49.0978 23.5 40C23.5 30.9022 30.9014 23.5 40 23.5C49.0986 23.5 56.5 30.9022 56.5 40C56.5 49.0978 49.0986 56.5 40 56.5Z" fill="#155EEF"/>
</svg>
