<svg width="22" height="22" viewBox="0 0 22 22" fill="none" xmlns="http://www.w3.org/2000/svg">
<path d="M19.2501 7.8375H14.8501C14.4743 7.8375 14.1626 7.52583 14.1626 7.15V2.75C14.1626 2.37417 14.4743 2.0625 14.8501 2.0625C15.2259 2.0625 15.5376 2.37417 15.5376 2.75V6.4625H19.2501C19.6259 6.4625 19.9376 6.77417 19.9376 7.15C19.9376 7.52583 19.6259 7.8375 19.2501 7.8375Z" fill="#2970FF"/>
<path d="M10.1293 13.7048L8.4335 15.4007C8.076 15.7582 7.50766 15.7582 7.141 15.4098C7.04016 15.309 6.93933 15.2173 6.8385 15.1165C5.89433 14.1632 5.04183 13.164 4.281 12.119C3.52933 11.074 2.92433 10.029 2.48433 8.99315C2.0535 7.94815 1.8335 6.94898 1.8335 5.99565C1.8335 5.37232 1.9435 4.77648 2.1635 4.22648C2.3835 3.66732 2.73183 3.15398 3.21766 2.69565C3.80433 2.11815 4.446 1.83398 5.12433 1.83398C5.381 1.83398 5.63766 1.88898 5.86683 1.99898C6.10516 2.10898 6.316 2.27398 6.481 2.51232L8.60766 5.50982C8.77266 5.73898 8.89183 5.94982 8.97433 6.15148C9.05683 6.34398 9.10266 6.53648 9.10266 6.71065C9.10266 6.93065 9.0385 7.15065 8.91016 7.36148C8.791 7.57232 8.61683 7.79232 8.39683 8.01232L7.70016 8.73648C7.59933 8.83732 7.5535 8.95648 7.5535 9.10315C7.5535 9.17648 7.56266 9.24065 7.581 9.31398C7.6085 9.38732 7.636 9.44232 7.65433 9.49732C7.81933 9.79982 8.1035 10.194 8.50683 10.6707C8.91933 11.1473 9.35933 11.6332 9.836 12.119C9.92766 12.2107 10.0285 12.3023 10.1202 12.394C10.4868 12.7515 10.496 13.3382 10.1293 13.7048Z" fill="#2970FF"/>
<path d="M20.139 16.8016C20.139 17.0583 20.0931 17.3241 20.0015 17.5808C19.974 17.6541 19.9465 17.7275 19.9098 17.8008C19.754 18.1308 19.5523 18.4425 19.2865 18.7358C18.8373 19.2308 18.3423 19.5883 17.7831 19.8175C17.774 19.8175 17.7648 19.8266 17.7556 19.8266C17.2148 20.0466 16.6281 20.1658 15.9956 20.1658C15.0606 20.1658 14.0615 19.9458 13.0073 19.4966C11.9531 19.0475 10.899 18.4425 9.85397 17.6816C9.49647 17.4158 9.13897 17.15 8.7998 16.8658L11.7973 13.8683C12.054 14.0608 12.2831 14.2075 12.4756 14.3083C12.5215 14.3266 12.5765 14.3541 12.6406 14.3816C12.714 14.4091 12.7873 14.4183 12.8698 14.4183C13.0256 14.4183 13.1448 14.3633 13.2456 14.2625L13.9423 13.575C14.1715 13.3458 14.3915 13.1716 14.6023 13.0616C14.8131 12.9333 15.024 12.8691 15.2531 12.8691C15.4273 12.8691 15.6106 12.9058 15.8123 12.9883C16.014 13.0708 16.2248 13.19 16.454 13.3458L19.4881 15.5C19.7265 15.665 19.8915 15.8575 19.9923 16.0866C20.084 16.3158 20.139 16.545 20.139 16.8016Z" fill="#2970FF"/>
</svg>
