<svg width="36" height="12" viewBox="0 0 36 12" fill="none" xmlns="http://www.w3.org/2000/svg">
<path d="M13.669 0.204469L8.95655 11.4493H5.8808L3.56344 2.47619C3.42077 1.92284 3.29885 1.72146 2.87107 1.48648C2.17034 1.10763 1.0177 0.752273 0 0.530929L0.0712266 0.204539H5.01975C5.65087 0.204539 6.2183 0.6255 6.36096 1.35119L7.5863 7.85946L10.6128 0.204539H13.669V0.204469ZM25.7167 7.77628C25.7304 4.81008 21.6124 4.64864 21.642 3.32163C21.65 2.91656 22.0339 2.48794 22.8747 2.37973C23.2922 2.32418 24.4412 2.28347 25.7434 2.88134L26.2538 0.497882C25.5532 0.243562 24.6525 0 23.5332 0C20.6582 0 18.6342 1.52923 18.6171 3.71728C18.5983 5.33531 20.0611 6.23826 21.1646 6.77714C22.2976 7.32853 22.6764 7.68059 22.6724 8.17509C22.665 8.92983 21.7684 9.25966 20.9321 9.2745C19.4692 9.29728 18.6208 8.8792 17.9432 8.56364L17.4165 11.029C18.0953 11.3406 19.3519 11.6112 20.6524 11.6272C23.7081 11.627 25.7071 10.1141 25.7167 7.77628ZM33.309 11.4493H36L33.6519 0.204539H31.1677C30.6095 0.204539 30.1389 0.530086 29.9292 1.02881L25.5669 11.4493H28.6202L29.2263 9.76999H32.9586L33.309 11.4493ZM30.0631 7.46522L31.5949 3.24295L32.4761 7.46522H30.0631ZM17.826 0.204469L15.4192 11.4493H12.5097L14.9171 0.204469H17.826V0.204469Z" fill="white" fill-opacity="0.7"/>
</svg>
