<svg width="39" height="13" viewBox="0 0 39 13" fill="none" xmlns="http://www.w3.org/2000/svg">
<path d="M14.808 0.424633L9.70293 12.6065H6.37086L3.86039 2.88567C3.70584 2.2862 3.57376 2.06804 3.11033 1.81348C2.3512 1.40306 1.10251 1.01809 0 0.778298L0.0771621 0.424709H5.43806C6.12178 0.424709 6.73649 0.88075 6.89104 1.66692L8.21849 8.71754L11.4972 0.424709H14.808V0.424633ZM27.8598 8.62743C27.8746 5.41404 23.4134 5.23915 23.4455 3.80156C23.4542 3.36273 23.8701 2.89839 24.7809 2.78116C25.2332 2.72099 26.478 2.67688 27.8887 3.32457L28.4417 0.742498C27.6826 0.466984 26.7069 0.203125 25.4943 0.203125C22.3797 0.203125 20.1871 1.85979 20.1686 4.23018C20.1481 5.98305 21.7329 6.96125 22.9283 7.54503C24.1557 8.14237 24.5661 8.52376 24.5618 9.05948C24.5538 9.87711 23.5824 10.2344 22.6764 10.2505C21.0917 10.2752 20.1725 9.82226 19.4385 9.4804L18.8679 12.1512C19.6032 12.4888 20.9646 12.7819 22.3734 12.7992C25.6838 12.7991 27.8494 11.1601 27.8598 8.62743ZM36.0847 12.6066H39L36.4562 0.424709H33.765C33.1603 0.424709 32.6505 0.777385 32.4233 1.31767L27.6975 12.6066H31.0052L31.6618 10.7873H35.7052L36.0847 12.6066ZM32.5684 8.29045L34.2278 3.71632L35.1825 8.29045H32.5684ZM19.3115 0.424633L16.7041 12.6065H13.5522L16.1602 0.424633H19.3115V0.424633Z" fill="#1A2ADF"/>
</svg>
