<svg id="Layer_1" data-name="Layer 1" xmlns="http://www.w3.org/2000/svg" viewBox="0 0 9.36 9.36">
  <g>
    <path class="cls-1" d="M9,4.32H1A.68.68,0,0,0,1,5.68H9A.68.68,0,0,0,9,4.32Z" transform="translate(-0.32 -0.32)"/>
    <path class="cls-1" d="M9,8.32H1A.68.68,0,0,0,1,9.68H9A.68.68,0,0,0,9,8.32Z" transform="translate(-0.32 -0.32)"/>
    <path class="cls-1" d="M1,1.68H9A.67.67,0,0,0,9.68,1,.67.67,0,0,0,9,.32H1A.67.67,0,0,0,.32,1,.67.67,0,0,0,1,1.68Z" transform="translate(-0.32 -0.32)"/>
  </g>
</svg>
