<svg width="17" height="17" viewBox="0 0 17 17"  xmlns="http://www.w3.org/2000/svg">
<path d="M8.38972 3.21578e-05C8.38972 3.21578e-05 8.3765 3.21578e-05 8.36233 3.21578e-05C6.79038 -0.00433258 5.2492 0.435701 3.91651 1.26939C2.58383 2.10308 1.51393 3.29647 0.830185 4.71194C0.146438 6.12741 -0.123306 7.70732 0.052058 9.26947C0.227422 10.8316 0.840753 12.3124 1.82132 13.541L0.60303 16.3648C0.579295 16.4196 0.5666 16.4785 0.565674 16.5381C0.564747 16.5978 0.575607 16.657 0.597629 16.7125C0.619652 16.7679 0.652405 16.8185 0.69401 16.8613C0.735615 16.904 0.785253 16.9382 0.840077 16.9617C0.921756 16.9972 1.01193 17.0083 1.09979 16.9938L5.55837 16.21C6.44884 16.5333 7.38947 16.6967 8.33684 16.6925C10.5358 16.6772 12.6398 15.7947 14.1918 14.2368C15.7438 12.6789 16.6182 10.5715 16.6252 8.37247C16.6322 6.17347 15.7711 4.06056 14.229 2.49286C12.687 0.925155 10.5885 0.029328 8.38972 3.21578e-05ZM8.34722 15.7869C7.46797 15.7855 6.59617 15.6255 5.7737 15.3146C5.69688 15.2844 5.61304 15.2765 5.53193 15.292L1.77882 15.9474L2.7714 13.6383C2.80505 13.5598 2.81606 13.4734 2.80321 13.389C2.79036 13.3046 2.75416 13.2254 2.69868 13.1604C2.16004 12.5368 1.73117 11.8263 1.43034 11.0591C1.03228 10.0424 0.863004 8.95049 0.93453 7.86097C1.00605 6.77145 1.31663 5.71105 1.84419 4.75509C2.37174 3.79914 3.10334 2.97108 3.98701 2.32976C4.87068 1.68843 5.88473 1.24956 6.95714 1.04433C8.02954 0.839106 9.13398 0.872551 10.192 1.1423C11.25 1.41204 12.2357 1.91146 13.0789 2.60509C13.9221 3.29871 14.6023 4.16952 15.071 5.15564C15.5398 6.14177 15.7856 7.21902 15.7911 8.31088V8.33826C15.7879 10.3119 15.0027 12.2039 13.6075 13.6C12.2124 14.996 10.3209 15.7824 8.34722 15.7869Z" />
<path d="M7.98931 6.6818H5.53383C5.41298 6.6818 5.29708 6.72981 5.21162 6.81527C5.12616 6.90073 5.07816 7.01662 5.07816 7.13748C5.07816 7.25833 5.12616 7.37424 5.21162 7.4597C5.29708 7.54515 5.41298 7.59315 5.53383 7.59315H7.98931C8.11016 7.59315 8.22607 7.54515 8.31152 7.4597C8.39698 7.37424 8.44499 7.25833 8.44499 7.13748C8.44499 7.01662 8.39698 6.90073 8.31152 6.81527C8.22607 6.72981 8.11016 6.6818 7.98931 6.6818Z" />
<path d="M11.1767 8.95879H5.52911C5.40826 8.95879 5.29236 9.00681 5.2069 9.09226C5.12144 9.17772 5.07343 9.29362 5.07343 9.41447C5.07343 9.53532 5.12144 9.65123 5.2069 9.73669C5.29236 9.82215 5.40826 9.87015 5.52911 9.87015H11.1767C11.2976 9.87015 11.4135 9.82215 11.4989 9.73669C11.5844 9.65123 11.6324 9.53532 11.6324 9.41447C11.6324 9.29362 11.5844 9.17772 11.4989 9.09226C11.4135 9.00681 11.2976 8.95879 11.1767 8.95879Z" />
</svg>
