<svg width="11" height="6" viewBox="0 0 11 6" xmlns="http://www.w3.org/2000/svg">
<path d="M5.39304 5.71501L9.84304 1.26501C9.94551 1.16228 10.0031 1.02311 10.0031 0.878014C10.0031 0.732917 9.94551 0.593742 9.84304 0.491013L9.51504 0.16301C9.41231 0.0605419 9.27314 0.00299835 9.12804 0.00299835C8.98294 0.00299835 8.84377 0.0605419 8.74104 0.16301L5.00304 3.90101L1.26204 0.160011C1.15931 0.0575435 1.02014 0 0.87504 0C0.729943 0 0.59077 0.0575435 0.48804 0.160011L0.16004 0.488014C0.0575724 0.590744 2.86102e-05 0.729911 2.86102e-05 0.875008C2.86102e-05 1.0201 0.0575724 1.15928 0.16004 1.26201L4.61404 5.71601C4.71737 5.81812 4.85678 5.87538 5.00204 5.87538C5.14731 5.87538 5.28672 5.81812 5.39004 5.71601L5.39304 5.71501Z" />
</svg>
