<svg width="47" height="35" viewBox="0 0 47 35"  xmlns="http://www.w3.org/2000/svg">
<path d="M14.178 26.815C14.0036 26.8599 13.8542 26.9723 13.7627 27.1274C13.6712 27.2825 13.645 27.4676 13.69 27.642C13.8109 28.1122 13.7739 28.609 13.5847 29.0561C13.3955 29.5032 13.0646 29.8757 12.643 30.1163C12.2213 30.3569 11.7323 30.4522 11.2512 30.3876C10.77 30.323 10.3235 30.1021 9.9802 29.7588C9.63693 29.4155 9.416 28.969 9.35142 28.4878C9.28683 28.0067 9.38217 27.5177 9.62276 27.096C9.86334 26.6744 10.2358 26.3435 10.6829 26.1543C11.13 25.9651 11.6268 25.9281 12.097 26.049C12.184 26.0732 12.2749 26.0797 12.3645 26.0684C12.454 26.057 12.5404 26.0278 12.6186 25.9826C12.6967 25.9374 12.7651 25.8771 12.8197 25.8052C12.8742 25.7333 12.9139 25.6512 12.9364 25.5638C12.9589 25.4764 12.9637 25.3853 12.9505 25.296C12.9374 25.2067 12.9066 25.1209 12.8599 25.0436C12.8132 24.9664 12.7516 24.8992 12.6786 24.846C12.6057 24.7929 12.5229 24.7548 12.435 24.734C11.6764 24.5388 10.8747 24.5983 10.1533 24.9034C9.43188 25.2086 8.83075 25.7423 8.44247 26.4226C8.05419 27.1029 7.90028 27.892 8.00445 28.6683C8.10861 29.4446 8.46507 30.1652 9.01894 30.7191C9.57281 31.2729 10.2934 31.6294 11.0697 31.7335C11.846 31.8377 12.6351 31.6838 13.3154 31.2955C13.9957 30.9072 14.5295 30.3061 14.8346 29.5847C15.1397 28.8633 15.1992 28.0616 15.004 27.303C14.959 27.1288 14.8468 26.9796 14.6919 26.8881C14.5371 26.7967 14.3522 26.7703 14.178 26.815Z" />
<path d="M30.109 26.815C29.9346 26.8599 29.7853 26.9723 29.6937 27.1274C29.6022 27.2825 29.5761 27.4676 29.621 27.642C29.7419 28.1121 29.7049 28.609 29.5157 29.0561C29.3265 29.5031 28.9956 29.8757 28.574 30.1163C28.1523 30.3568 27.6633 30.4522 27.1822 30.3876C26.701 30.323 26.2545 30.1021 25.9112 29.7588C25.5679 29.4155 25.347 28.969 25.2824 28.4878C25.2178 28.0067 25.3132 27.5177 25.5538 27.096C25.7943 26.6744 26.1669 26.3435 26.6139 26.1543C27.061 25.9651 27.5579 25.9281 28.028 26.049C28.2011 26.0899 28.3832 26.0613 28.5354 25.9694C28.6876 25.8774 28.7976 25.7294 28.8419 25.5572C28.8861 25.385 28.8611 25.2024 28.7721 25.0484C28.6831 24.8945 28.5373 24.7816 28.366 24.734C27.6072 24.5386 26.8052 24.598 26.0835 24.9032C25.3618 25.2083 24.7604 25.7422 24.3719 26.4227C23.9835 27.1032 23.8295 27.8925 23.9336 28.6691C24.0378 29.4457 24.3944 30.1665 24.9484 30.7206C25.5025 31.2747 26.2233 31.6312 26.9999 31.7354C27.7765 31.8395 28.5658 31.6855 29.2463 31.2971C29.9268 30.9086 30.4607 30.3072 30.7659 29.5855C31.071 28.8638 31.1304 28.0618 30.935 27.303C30.89 27.1288 30.7778 26.9796 30.623 26.8881C30.4681 26.7966 30.2833 26.7703 30.109 26.815Z" />
<path d="M46.113 32.232L46.134 32.205L46.151 32.179L46.169 32.149L46.184 32.12L46.198 32.09C46.198 32.08 46.207 32.069 46.211 32.058C46.215 32.047 46.219 32.039 46.222 32.029C46.225 32.019 46.229 32.006 46.232 31.995C46.235 31.984 46.237 31.975 46.24 31.965C46.243 31.955 46.24 31.942 46.246 31.931C46.252 31.92 46.246 31.91 46.246 31.899C46.246 31.888 46.246 31.877 46.246 31.867C46.246 31.857 46.246 31.843 46.246 31.831C46.246 31.819 46.246 31.822 46.246 31.817C46.246 31.812 46.246 31.806 46.246 31.8C46.246 31.794 46.246 31.776 46.246 31.763C46.246 31.75 46.246 31.742 46.246 31.732C46.246 31.722 46.246 31.709 46.241 31.698C46.236 31.687 46.241 31.677 46.235 31.666C46.229 31.655 46.23 31.644 46.227 31.634C46.224 31.624 46.221 31.613 46.218 31.603L46.206 31.572L46.194 31.542L46.179 31.512L46.164 31.483L46.147 31.455L46.128 31.427L46.11 31.4L46.087 31.372L46.076 31.359L38.11 22.669C37.9869 22.5422 37.8191 22.4683 37.6424 22.4633C37.4656 22.4582 37.2939 22.5222 37.1637 22.6418C37.0334 22.7613 36.9549 22.927 36.9449 23.1035C36.9349 23.28 36.9941 23.4535 37.11 23.587L37.732 24.265V24.273L37.025 25.687L34.577 18.148C34.4746 17.8209 34.2948 17.5234 34.0528 17.2807C33.8108 17.038 33.5138 16.8573 33.187 16.754L28.06 15.137C28.06 15.117 28.06 15.098 28.06 15.078L26.798 4.978H28.198C28.3781 4.978 28.5508 4.90647 28.6781 4.77913C28.8055 4.65179 28.877 4.47909 28.877 4.299C28.877 4.11892 28.8055 3.94622 28.6781 3.81888C28.5508 3.69154 28.3781 3.62 28.198 3.62H18.013V2.127C18.013 1.56288 17.7889 1.02188 17.39 0.622986C16.9911 0.224096 16.4501 0 15.886 0C15.3219 0 14.7809 0.224096 14.382 0.622986C13.9831 1.02188 13.759 1.56288 13.759 2.127V3.657C13.1428 3.75511 12.5758 4.05289 12.1453 4.50455C11.7148 4.95622 11.4445 5.53678 11.376 6.157L10.976 9.742L5.66401 8.064C5.57101 8.03466 5.47276 8.02579 5.37601 8.038C4.84674 7.52405 4.13775 7.23701 3.40001 7.238H0.679007C0.589586 7.238 0.501046 7.25566 0.41847 7.28997C0.335894 7.32428 0.260908 7.37457 0.197817 7.43793C0.134727 7.5013 0.0847749 7.57651 0.0508288 7.65923C0.0168828 7.74196 -0.000388455 7.83058 6.628e-06 7.92V11.541V24.841C-0.000370135 25.5408 0.204802 26.2252 0.590047 26.8094C0.975293 27.3936 1.52364 27.8518 2.16701 28.127L5.18601 29.421C5.46689 30.8827 6.24311 32.2029 7.38382 33.1591C8.52454 34.1153 9.96002 34.6489 11.4483 34.6702C12.9366 34.6915 14.3868 34.199 15.5543 33.2758C16.7219 32.3526 17.5355 31.0551 17.858 29.602H21.158C21.4802 31.0533 22.2923 32.3494 23.4577 33.2724C24.6232 34.1954 26.0709 34.6889 27.5574 34.67C29.044 34.6511 30.4787 34.121 31.6203 33.1687C32.7619 32.2164 33.5408 30.9 33.826 29.441L34.518 31.527C34.5462 31.6101 34.5903 31.6869 34.648 31.753C34.6627 31.7803 34.678 31.807 34.694 31.833C34.8191 32.0369 34.9945 32.2052 35.2035 32.3216C35.4124 32.4381 35.6478 32.4988 35.887 32.498H45.578C45.5997 32.4991 45.6214 32.4991 45.643 32.498H45.667L45.707 32.492L45.735 32.486L45.77 32.477L45.798 32.468L45.831 32.456L45.858 32.444L45.89 32.429L45.916 32.415L45.946 32.397L45.971 32.38L46 32.35L46.025 32.329L46.039 32.318L46.049 32.308L46.074 32.282L46.096 32.258L46.113 32.232ZM33.278 18.56L36.155 27.417L35.211 29.306L32.029 19.722C31.9952 19.62 31.9377 19.5275 31.8612 19.452C31.7848 19.3766 31.6915 19.3204 31.589 19.288L9.15901 12.205C9.01688 11.8076 8.788 11.4469 8.48901 11.149L7.36401 10.025L32.773 18.049C32.8922 18.087 33.0004 18.1534 33.0884 18.2424C33.1763 18.3314 33.2414 18.4403 33.278 18.56ZM15.329 15.784L15.355 15.584L18.741 16.653H16.091C15.9813 16.6531 15.8729 16.6298 15.773 16.5845C15.6731 16.5393 15.584 16.4732 15.5118 16.3907C15.4395 16.3082 15.3857 16.2112 15.354 16.1062C15.3223 16.0013 15.3135 15.8907 15.328 15.782L15.329 15.784ZM9.32301 13.684L10.498 14.055L10.285 15.974C10.2641 16.1622 10.1744 16.3361 10.0333 16.4623C9.89213 16.5885 9.70936 16.6582 9.52001 16.658H9.32001L9.32301 13.684ZM15.923 11.308L16.388 7.822C16.4131 7.6373 16.5042 7.46793 16.6444 7.34515C16.7847 7.22237 16.9646 7.15447 17.151 7.154H25.7L26.642 14.691L15.923 11.308ZM15.883 1.361C16.0869 1.36126 16.2823 1.44237 16.4265 1.58652C16.5706 1.73068 16.6517 1.92613 16.652 2.13V3.624H15.117V2.127C15.1173 1.92313 15.1984 1.72768 15.3425 1.58353C15.4867 1.43937 15.6821 1.35827 15.886 1.358L15.883 1.361ZM12.722 6.31C12.7622 5.94456 12.9358 5.60681 13.2097 5.36155C13.4836 5.11628 13.8384 4.98077 14.206 4.981H25.425L25.525 5.796H17.154C16.6389 5.79732 16.1416 5.98494 15.754 6.32423C15.3663 6.66351 15.1145 7.13157 15.045 7.642L14.612 10.893L12.3 10.159L12.722 6.31ZM3.40001 8.6C3.59625 8.59951 3.79064 8.63796 3.97191 8.71315C4.15318 8.78834 4.31772 8.89876 4.45601 9.038L7.52801 12.11C7.66703 12.2484 7.77723 12.413 7.85224 12.5942C7.92725 12.7755 7.96558 12.9698 7.96501 13.166V22.806C7.11759 23.3677 6.41442 24.1212 5.91249 25.0053C5.41057 25.8895 5.124 26.8794 5.07601 27.895L4.25001 27.541C4.25115 27.5183 4.25115 27.4957 4.25001 27.473V15.638C4.25129 15.1683 4.15942 14.7031 3.9797 14.2691C3.79998 13.8352 3.53599 13.4412 3.20301 13.11L1.35801 11.26V8.6H3.40001ZM1.35801 24.838V13.18L2.24701 14.069C2.45379 14.2743 2.61773 14.5186 2.72932 14.7878C2.8409 15.057 2.8979 15.3456 2.89701 15.637V26.96L2.70001 26.877C2.30117 26.706 1.96137 26.4215 1.72279 26.059C1.48421 25.6966 1.35736 25.272 1.35801 24.838ZM11.541 33.311C10.5294 33.311 9.54057 33.011 8.69951 32.4489C7.85845 31.8869 7.20298 31.088 6.816 30.1534C6.42902 29.2187 6.32792 28.1903 6.52549 27.1982C6.72306 26.2061 7.21042 25.2949 7.92592 24.5798C8.64143 23.8647 9.55294 23.3779 10.5452 23.1809C11.5374 22.9839 12.5657 23.0856 13.5001 23.4731C14.4345 23.8607 15.233 24.5166 15.7946 25.358C16.3562 26.1994 16.6556 27.1884 16.655 28.2C16.6526 29.5553 16.113 30.8544 15.1543 31.8125C14.1957 32.7705 12.8963 33.3094 11.541 33.311ZM27.472 33.311C26.4605 33.3108 25.4717 33.0106 24.6308 32.4484C23.7899 31.8863 23.1345 31.0873 22.7477 30.1527C22.3609 29.218 22.2599 28.1896 22.4576 27.1976C22.6553 26.2056 23.1427 25.2944 23.8583 24.5794C24.5738 23.8645 25.4853 23.3777 26.4775 23.1808C27.4697 22.9839 28.498 23.0857 29.4324 23.4732C30.3667 23.8608 31.1651 24.5167 31.7267 25.3581C32.2882 26.1995 32.5876 27.1885 32.587 28.2C32.5846 29.5555 32.0448 30.8547 31.086 31.8128C30.1271 32.7709 28.8275 33.3097 27.472 33.311ZM27.472 21.725C25.7556 21.7269 24.11 22.4097 22.8966 23.6237C21.6832 24.8377 21.0011 26.4836 21 28.2C21 28.215 21 28.23 21 28.245H18.012C18.012 28.23 18.012 28.215 18.012 28.2C18.0119 27.1592 17.7609 26.1337 17.2801 25.2105C16.7993 24.2874 16.103 23.4938 15.2502 22.897C14.3974 22.3003 13.4133 21.918 12.3813 21.7825C11.3493 21.6471 10.2999 21.7625 9.32201 22.119V20.91H23.122C23.3021 20.91 23.4748 20.8385 23.6021 20.7111C23.7295 20.5838 23.801 20.4111 23.801 20.231C23.801 20.0509 23.7295 19.8782 23.6021 19.7509C23.4748 19.6235 23.3021 19.552 23.122 19.552H9.32301V18.013H9.52301C10.0466 18.0134 10.5519 17.8206 10.942 17.4714C11.3321 17.1223 11.5796 16.6414 11.637 16.121L11.82 14.469L14.043 15.169L13.985 15.603C13.945 15.9034 13.9696 16.209 14.0573 16.4991C14.1449 16.7893 14.2936 17.0574 14.4933 17.2854C14.693 17.5134 14.9391 17.6961 15.2152 17.8213C15.4913 17.9464 15.7909 18.0111 16.094 18.011H23.043L27.916 19.55H26.026C25.8459 19.55 25.6732 19.6215 25.5459 19.7489C25.4185 19.8762 25.347 20.0489 25.347 20.229C25.347 20.4091 25.4185 20.5818 25.5459 20.7091C25.6732 20.8365 25.8459 20.908 26.026 20.908H30.994L31.823 23.408C30.6336 22.3235 29.0816 21.7232 27.472 21.725ZM35.847 31.117C35.8427 31.1105 35.8404 31.1028 35.8404 31.095C35.8404 31.0872 35.8427 31.0795 35.847 31.073L38.716 25.336L44.035 31.136H35.886C35.8784 31.1369 35.8706 31.1356 35.8637 31.1322C35.8568 31.1289 35.851 31.1236 35.847 31.117Z" />
</svg>
