<?xml version="1.0" encoding="utf-8"?>
<!-- Generator: Adobe Illustrator 25.2.1, SVG Export Plug-In . SVG Version: 6.00 Build 0)  -->
<svg version="1.1" id="Layer_1" xmlns="http://www.w3.org/2000/svg" xmlns:xlink="http://www.w3.org/1999/xlink" x="0px" y="0px"
	 viewBox="0 0 60 23" style="enable-background:new 0 0 60 23;" xml:space="preserve">
<g>
	<path class="st0" d="M36.7,19.4c0.1,0.1,0.2,0.2,0.3,0.3c0.1,0.1,0.3,0.1,0.4,0c0.1,0,0.3-0.1,0.4-0.3c0.1-0.1,0.1-0.3,0.1-0.4
		c0-0.1-0.1-0.3-0.2-0.4c-0.1-0.1-0.3-0.2-0.5-0.2c0,0,0,0,0,0c-0.1,0-0.3,0.1-0.4,0.1c-0.1,0.1-0.2,0.2-0.2,0.4
		C36.6,19.1,36.6,19.3,36.7,19.4z"/>
	<path class="st0" d="M31.2,19.4c0.1,0.1,0.2,0.2,0.3,0.3c0.1,0.1,0.3,0.1,0.4,0c0.1,0,0.3-0.1,0.4-0.3c0.1-0.1,0.1-0.3,0.1-0.4
		c0-0.1-0.1-0.3-0.2-0.4c-0.1-0.1-0.3-0.2-0.5-0.2c0,0,0,0,0,0c-0.1,0-0.3,0.1-0.4,0.1c-0.1,0.1-0.2,0.2-0.2,0.4
		C31.1,19.1,31.2,19.3,31.2,19.4z"/>
	<path class="st0" d="M14,19.4c0.1,0.1,0.2,0.2,0.3,0.3c0.1,0.1,0.3,0.1,0.4,0c0.1,0,0.3-0.1,0.4-0.3c0.1-0.1,0.1-0.3,0.1-0.4
		c0-0.1-0.1-0.3-0.2-0.4c-0.1-0.1-0.3-0.2-0.5-0.2c0,0,0,0,0,0c-0.1,0-0.3,0.1-0.4,0.1C14,18.7,14,18.8,13.9,19
		C13.9,19.1,13.9,19.3,14,19.4z"/>
	<path class="st0" d="M8.5,19.4c0.1,0.1,0.2,0.2,0.3,0.3c0.1,0.1,0.3,0.1,0.4,0c0.1,0,0.3-0.1,0.4-0.3c0.1-0.1,0.1-0.3,0.1-0.4
		c0-0.1-0.1-0.3-0.2-0.4c-0.1-0.1-0.3-0.2-0.5-0.2c0,0,0,0,0,0c-0.1,0-0.3,0.1-0.4,0.1c-0.1,0.1-0.2,0.2-0.2,0.4
		C8.4,19.1,8.5,19.3,8.5,19.4z"/>
	<path class="st0" d="M57.7,11.4c0.2,0.2,0.7,0.2,0.9,0c0.1-0.1,0.2-0.3,0.2-0.4V5.1c0-0.3-0.1-0.6-0.2-0.8
		c-0.2-0.2-0.4-0.4-0.6-0.6l-3.1-1.5c-0.3,0-0.5,0-0.8-0.1l-40,0L13.9,2c-0.2-0.3-0.5-0.5-0.8-0.6c-0.3-0.1-0.7-0.2-1-0.2H8.2
		C8,1.2,7.9,1.3,7.7,1.4C7.6,1.5,7.6,1.7,7.6,1.9v3H2.8C2.3,4.8,2,5,1.7,5.3C1.4,5.6,1.2,6,1.2,6.4v1.8c0,0.4,0.2,0.8,0.5,1.1
		C2,9.6,2.3,9.8,2.8,9.8h3v2.1c0,0.2,0.1,0.3,0.2,0.5c0.1,0.1,0.3,0.2,0.5,0.2h3v1.4H4.6c-0.4,0-0.8,0.2-1.1,0.5
		C3.2,14.7,3,15.1,3,15.5v1.1c0,0.3,0.1,0.7,0.3,1c0.2,0.3,0.5,0.5,0.9,0.6l1.6,0.6l0,0.2c0,0.1,0,0.2,0,0.3c0,0.7,0.2,1.4,0.6,1.9
		c0.4,0.6,1,1,1.6,1.2c0.7,0.2,1.4,0.3,2,0.1c0.7-0.2,1.3-0.6,1.7-1.1l0.2-0.2l0.2,0.2c0.4,0.5,0.9,0.8,1.5,1
		c0.6,0.2,1.2,0.2,1.8,0.1c0.6-0.1,1.2-0.5,1.6-0.9c0.4-0.4,0.8-1,0.9-1.6l0-0.2h1.5V20c0,0.4,0.2,0.8,0.5,1.1
		c0.3,0.3,0.7,0.5,1.1,0.5h4.5c0.4,0,0.8-0.2,1.1-0.5c0.3-0.3,0.5-0.7,0.5-1.1v-0.3h1.2c0,0,0.1,0,0.1,0l0.2,0l0,0.2
		c0.1,0.6,0.5,1.2,0.9,1.6c0.4,0.4,1,0.7,1.6,0.9c0.6,0.1,1.2,0.1,1.8-0.1c0.6-0.2,1.1-0.5,1.5-1l0.2-0.2l0.2,0.2
		c0.4,0.5,0.9,0.8,1.5,1c0.6,0.2,1.2,0.2,1.8,0.1c0.6-0.1,1.2-0.5,1.6-0.9s0.8-1,0.9-1.6l0-0.2h8.5c0.4,0,0.8-0.2,1.1-0.5
		c0.3-0.3,0.5-0.7,0.5-1.1v-3.6c0,0,0-0.1,0-0.1l0-0.1c0,0,0,0,0,0l0-0.1l-1.4-5c-0.1-0.5-0.5-1-0.9-1.3c-0.4-0.3-0.9-0.5-1.5-0.5
		h-5c-0.2,0-0.3,0.1-0.5,0.2c-0.1,0.1-0.2,0.3-0.2,0.5v1.2h-1.4l0-0.2c-0.1-0.3-0.2-0.6-0.4-0.8l-0.6-0.6c-0.1-0.1-0.3-0.2-0.4-0.1
		c-0.2,0-0.3,0.1-0.4,0.2s-0.2,0.3-0.2,0.4c0,0.2,0,0.3,0.2,0.4l0.7,0.7h-9.3c-0.4,0-0.8,0.2-1.1,0.5c-0.3,0.3-0.5,0.7-0.5,1.1v3
		H14.3v-1.4h1.1c0.2,0,0.4-0.1,0.5-0.2c0.1-0.1,0.2-0.3,0.2-0.5v-1.3l11.3-4.3h26.5l0,0.1c0.1,0.2,0.2,0.4,0.3,0.6
		c0.1,0.2,0.3,0.3,0.5,0.4l2.8,1.4v2.3C57.5,11.1,57.6,11.2,57.7,11.4z M45.2,8.9h1.6c0.3,0,0.5,0.1,0.7,0.2
		c0.2,0.2,0.3,0.4,0.4,0.6h0l1.2,4.2h-2.8c-0.3,0-0.6-0.1-0.8-0.3c-0.2-0.2-0.3-0.5-0.3-0.8V8.9z M43.9,8.9v3.9
		c0,0.6,0.3,1.3,0.7,1.7c0.5,0.5,1.1,0.7,1.7,0.7h3v3.1l-0.1,0.1c0,0-0.1,0.1-0.2,0.1h-6.6l0-9.6H43.9z M8.9,2.5h3.2
		c0.3,0,0.6,0.1,0.8,0.3c0.2,0.2,0.4,0.4,0.4,0.7l0.6,4.1h-5V2.5z M6,7.8C5.8,7.9,5.8,8.1,5.7,8.3l0,0.2l-3.1,0l0,0
		c0,0,0-0.1-0.1-0.1l0-0.1V6.3l0.1-0.1c0,0,0.1-0.1,0.2-0.1h4.8v1.4H6.5C6.3,7.6,6.1,7.6,6,7.8z M10.6,20.6
		c-0.4,0.4-0.9,0.6-1.5,0.6h0l0,0c-0.4,0-0.8-0.1-1.1-0.3c-0.3-0.2-0.6-0.6-0.8-0.9C7,19.5,7,19.1,7.1,18.7c0.1-0.4,0.3-0.8,0.6-1.1
		c0.3-0.3,0.7-0.5,1.1-0.6c0.4-0.1,0.8,0,1.2,0.1c0.4,0.2,0.7,0.4,0.9,0.8c0.2,0.3,0.3,0.7,0.3,1.2C11.2,19.7,11,20.2,10.6,20.6z
		 M16,20.6c-0.4,0.4-0.9,0.6-1.5,0.6h0l0,0c-0.4,0-0.8-0.1-1.1-0.3c-0.3-0.2-0.6-0.6-0.8-0.9s-0.2-0.8-0.1-1.2
		c0.1-0.4,0.3-0.8,0.6-1.1c0.3-0.3,0.7-0.5,1.1-0.6c0.4-0.1,0.8,0,1.2,0.1c0.4,0.2,0.7,0.4,0.9,0.8c0.2,0.3,0.3,0.7,0.3,1.2
		C16.6,19.7,16.4,20.2,16,20.6z M25.7,20.1l-0.1,0.1l-0.1,0l-4.6,0h-0.1l-0.1-0.1c-0.1-0.1-0.1-0.1-0.1-0.2l0-1.9l0.1-0.1
		c0.1-0.1,0.1-0.1,0.2-0.1l4.6,0l0.1,0.1c0.1,0,0.1,0.1,0.1,0.2L25.7,20.1z M33.3,20.6c-0.4,0.4-0.9,0.6-1.5,0.6h0l0,0
		c-0.4,0-0.8-0.1-1.1-0.3c-0.3-0.2-0.6-0.5-0.8-0.9c-0.2-0.4-0.2-0.8-0.1-1.2c0.1-0.4,0.3-0.8,0.6-1.1c0.3-0.3,0.7-0.5,1.1-0.6
		c0.4-0.1,0.8,0,1.2,0.1s0.7,0.4,0.9,0.8c0.2,0.3,0.4,0.7,0.4,1.2C33.9,19.7,33.7,20.2,33.3,20.6z M38.7,20.6
		c-0.4,0.4-0.9,0.6-1.5,0.6h0l0,0c-0.4,0-0.8-0.1-1.1-0.3c-0.3-0.2-0.6-0.5-0.8-0.9c-0.2-0.4-0.2-0.8-0.1-1.2s0.3-0.8,0.6-1.1
		s0.7-0.5,1.1-0.6c0.4-0.1,0.8,0,1.2,0.1c0.4,0.2,0.7,0.4,0.9,0.8c0.2,0.3,0.3,0.7,0.3,1.2C39.3,19.7,39.1,20.2,38.7,20.6z
		 M39.7,10.7h1.4l0,3.2h-1.4V10.7z M28.8,10.8l0.1-0.2l0.1,0h9.3v3.2h-9.6L28.8,10.8z M41.2,15.2v3.2l-0.6,0l0-0.2
		c-0.1-0.6-0.5-1.2-0.9-1.6s-1-0.7-1.6-0.9c-0.6-0.1-1.2-0.1-1.8,0.1c-0.6,0.2-1.1,0.5-1.5,1l-0.2,0.2l-0.2-0.2
		c-0.4-0.5-0.9-0.8-1.5-1c-0.6-0.2-1.2-0.2-1.8-0.1c-0.6,0.1-1.2,0.5-1.6,0.9c-0.4,0.4-0.8,1-0.9,1.6l0,0.2l-0.2,0c0,0-0.1,0-0.1,0
		H27v-0.3c0-0.4-0.2-0.8-0.5-1.1s-0.7-0.5-1.1-0.5h-4.5c-0.4,0-0.8,0.2-1.1,0.5s-0.5,0.7-0.5,1.1v0.3h-1.5l0-0.2
		c-0.1-0.6-0.5-1.2-0.9-1.6c-0.4-0.4-1-0.7-1.6-0.9c-0.6-0.1-1.2-0.1-1.8,0.1c-0.6,0.2-1.1,0.5-1.5,1l-0.2,0.2l-0.2-0.2
		c-0.3-0.4-0.8-0.7-1.3-0.9c-0.5-0.2-1-0.3-1.5-0.3c-0.5,0-1,0.2-1.5,0.5c-0.5,0.3-0.8,0.6-1.1,1.1l-0.1,0.1l-1.6-0.6
		c0,0-0.1,0-0.1,0l-0.1,0l-0.1-0.1c0,0-0.1-0.1-0.1-0.2v-1.2l0.1-0.1c0,0,0.1-0.1,0.2-0.1H41.2z M10.7,13.9v-1.4H13l0,1.4H10.7z
		 M7,11.2V8.9h7.8l0,2.3H7z M16.1,9.1V8.3c0-0.2-0.1-0.4-0.2-0.5c-0.1-0.1-0.3-0.2-0.5-0.2h-0.2l-0.2-1.4h7.8l0.1,0.4L16.1,9.1z
		 M53.9,4.8H14.7l-0.2-1.4h39.3V4.8z M57.5,7.2L55.3,6L55.2,6c0,0,0-0.1,0-0.1v-2l2.2,1.1L57.5,5c0,0.1,0,0.1,0,0.1V7.2z"/>
</g>
</svg>
