<svg width="42" height="38" viewBox="0 0 42 38"  xmlns="http://www.w3.org/2000/svg">
<path d="M16.7067 21.392C16.6778 21.3546 16.6442 21.321 16.6067 21.292C15.1432 19.8514 13.1719 19.0439 11.1182 19.0439C9.0646 19.0439 7.0933 19.8514 5.62973 21.292C5.61083 21.3066 5.5928 21.3223 5.57573 21.339C5.55872 21.3561 5.5427 21.3741 5.52773 21.393C4.08712 22.8566 3.27969 24.8279 3.27969 26.8815C3.27969 28.9351 4.08712 30.9064 5.52773 32.37C5.54263 32.3889 5.55866 32.407 5.57573 32.424C5.59277 32.441 5.6108 32.4571 5.62973 32.472C7.0933 33.9126 9.0646 34.72 11.1182 34.72C13.1719 34.72 15.1432 33.9126 16.6067 32.472C16.6441 32.4429 16.6777 32.4093 16.7067 32.372C18.1473 30.9084 18.9548 28.9371 18.9548 26.8835C18.9548 24.8299 18.1473 22.8586 16.7067 21.395V21.392ZM17.0257 27.492H17.6937C17.5711 28.8153 17.0506 30.0703 16.2007 31.092L15.7297 30.621C15.6135 30.5091 15.458 30.4472 15.2966 30.4488C15.1353 30.4503 14.981 30.5151 14.8669 30.6292C14.7528 30.7432 14.688 30.8975 14.6865 31.0589C14.685 31.2202 14.7468 31.3758 14.8587 31.492L15.3297 31.963C14.3081 32.8129 13.053 33.3335 11.7297 33.456V32.788C11.7233 32.629 11.6557 32.4787 11.5409 32.3685C11.4262 32.2583 11.2733 32.1968 11.1142 32.1968C10.9552 32.1968 10.8022 32.2583 10.6875 32.3685C10.5728 32.4787 10.5051 32.629 10.4987 32.788V33.456C9.17546 33.3335 7.92034 32.8129 6.89873 31.963L7.36973 31.492C7.48165 31.3758 7.5435 31.2202 7.54197 31.0589C7.54045 30.8975 7.47568 30.7432 7.36158 30.6292C7.24748 30.5151 7.09317 30.4503 6.93182 30.4488C6.77047 30.4472 6.61497 30.5091 6.49873 30.621L6.02773 31.092C5.17774 30.0704 4.6572 28.8153 4.53473 27.492H5.20273C5.28565 27.4953 5.36839 27.4819 5.44598 27.4525C5.52357 27.423 5.59441 27.3783 5.65426 27.3208C5.71411 27.2633 5.76173 27.1943 5.79425 27.118C5.82678 27.0416 5.84355 26.9595 5.84355 26.8765C5.84355 26.7935 5.82678 26.7114 5.79425 26.635C5.76173 26.5587 5.71411 26.4897 5.65426 26.4322C5.59441 26.3747 5.52357 26.3299 5.44598 26.3005C5.36839 26.2711 5.28565 26.2576 5.20273 26.261H4.53473C4.65733 24.9377 5.17784 23.6826 6.02773 22.661L6.49873 23.132C6.61497 23.2439 6.77047 23.3058 6.93182 23.3042C7.09317 23.3027 7.24748 23.2379 7.36158 23.1238C7.47568 23.0097 7.54045 22.8554 7.54197 22.6941C7.5435 22.5327 7.48165 22.3772 7.36973 22.261L6.89873 21.79C7.92037 20.9401 9.17547 20.4196 10.4987 20.297V20.965C10.5051 21.1239 10.5728 21.2742 10.6875 21.3844C10.8022 21.4946 10.9552 21.5562 11.1142 21.5562C11.2733 21.5562 11.4262 21.4946 11.5409 21.3844C11.6557 21.2742 11.7233 21.1239 11.7297 20.965V20.297C13.053 20.4196 14.3081 20.9401 15.3297 21.79L14.8587 22.261C14.7998 22.3178 14.7527 22.3857 14.7203 22.4609C14.6879 22.5361 14.6708 22.617 14.67 22.6989C14.6693 22.7808 14.6848 22.862 14.7158 22.9378C14.7468 23.0136 14.7925 23.0824 14.8504 23.1403C14.9083 23.1982 14.9772 23.244 15.053 23.2749C15.1287 23.3059 15.21 23.3215 15.2918 23.3207C15.3737 23.3199 15.4546 23.3028 15.5298 23.2704C15.605 23.238 15.6729 23.191 15.7297 23.132L16.2007 22.661C17.0506 23.6826 17.5711 24.9377 17.6937 26.261H17.0257C16.9428 26.2576 16.8601 26.2711 16.7825 26.3005C16.7049 26.3299 16.6341 26.3747 16.5742 26.4322C16.5144 26.4897 16.4667 26.5587 16.4342 26.635C16.4017 26.7114 16.3849 26.7935 16.3849 26.8765C16.3849 26.9595 16.4017 27.0416 16.4342 27.118C16.4667 27.1943 16.5144 27.2633 16.5742 27.3208C16.6341 27.3783 16.7049 27.423 16.7825 27.4525C16.8601 27.4819 16.9428 27.4953 17.0257 27.492Z" />
<path d="M13.8817 25.006C13.7323 25.0714 13.6148 25.1934 13.5552 25.3453C13.4956 25.4971 13.4987 25.6664 13.5637 25.816C13.8111 26.3851 13.8523 27.0225 13.68 27.6186C13.5077 28.2147 13.1329 28.732 12.6201 29.0813C12.1073 29.4306 11.4886 29.59 10.8709 29.5321C10.2531 29.4741 9.67492 29.2024 9.23601 28.7639C8.79711 28.3253 8.525 27.7473 8.46661 27.1296C8.40821 26.5119 8.56718 25.8931 8.91611 25.38C9.26505 24.867 9.78207 24.4917 10.378 24.319C10.974 24.1463 11.6115 24.187 12.1807 24.434C12.3295 24.4941 12.4959 24.4938 12.6444 24.4331C12.793 24.3723 12.912 24.2561 12.9761 24.109C13.0402 23.9618 13.0444 23.7955 12.9877 23.6454C12.9311 23.4952 12.818 23.3731 12.6727 23.305C11.8399 22.9425 10.9067 22.8819 10.0341 23.1339C9.16143 23.3858 8.40409 23.9345 7.89273 24.6851C7.38136 25.4358 7.14805 26.3414 7.23302 27.2457C7.318 28.15 7.71594 28.9963 8.3582 29.6386C9.00046 30.2808 9.84674 30.6788 10.751 30.7637C11.6553 30.8487 12.561 30.6154 13.3116 30.104C14.0623 29.5926 14.6109 28.8353 14.8629 27.9627C15.1148 27.09 15.0543 26.1568 14.6917 25.324C14.6263 25.1746 14.5043 25.0572 14.3525 24.9975C14.2006 24.9379 14.0313 24.941 13.8817 25.006Z" />
<path d="M11.1157 25.608C10.8641 25.608 10.6182 25.6826 10.409 25.8224C10.1999 25.9622 10.0368 26.1608 9.94054 26.3932C9.84427 26.6257 9.81908 26.8814 9.86816 27.1282C9.91724 27.3749 10.0384 27.6016 10.2163 27.7795C10.3942 27.9574 10.6208 28.0785 10.8676 28.1276C11.1143 28.1767 11.3701 28.1515 11.6025 28.0552C11.8349 27.9589 12.0336 27.7959 12.1733 27.5867C12.3131 27.3776 12.3877 27.1316 12.3877 26.88C12.3872 26.5428 12.253 26.2196 12.0146 25.9812C11.7761 25.7427 11.4529 25.6086 11.1157 25.608ZM11.1157 26.921C11.1076 26.921 11.0997 26.9186 11.0929 26.9141C11.0862 26.9096 11.0809 26.9032 11.0778 26.8957C11.0747 26.8882 11.0739 26.88 11.0755 26.872C11.0771 26.8641 11.081 26.8568 11.0867 26.851C11.0925 26.8453 11.0998 26.8414 11.1077 26.8398C11.1157 26.8382 11.1239 26.8391 11.1314 26.8422C11.1389 26.8453 11.1453 26.8505 11.1498 26.8572C11.1543 26.864 11.1567 26.8719 11.1567 26.88C11.1567 26.8909 11.1524 26.9013 11.1447 26.909C11.137 26.9167 11.1266 26.921 11.1157 26.921Z" />
<path d="M37.3807 32.175C37.2174 32.175 37.0607 32.2399 36.9451 32.3554C36.8296 32.4709 36.7647 32.6276 36.7647 32.791C36.7647 33.0588 36.6853 33.3206 36.5365 33.5432C36.3878 33.7659 36.1763 33.9395 35.9289 34.0419C35.6815 34.1444 35.4092 34.1712 35.1466 34.119C34.8839 34.0667 34.6427 33.9378 34.4533 33.7484C34.2639 33.5591 34.135 33.3178 34.0828 33.0551C34.0305 32.7925 34.0573 32.5202 34.1598 32.2728C34.2623 32.0254 34.4358 31.814 34.6585 31.6652C34.8812 31.5164 35.1429 31.437 35.4107 31.437C35.5697 31.4306 35.72 31.3629 35.8302 31.2482C35.9404 31.1335 36.0019 30.9805 36.0019 30.8215C36.0019 30.6624 35.9404 30.5095 35.8302 30.3948C35.72 30.28 35.5697 30.2124 35.4107 30.206C34.8995 30.2062 34.3998 30.358 33.9748 30.6421C33.5499 30.9263 33.2187 31.3301 33.0232 31.8024C32.8277 32.2748 32.7767 32.7945 32.8765 33.2959C32.9764 33.7973 33.2227 34.2578 33.5842 34.6192C33.9458 34.9806 34.4064 35.2267 34.9078 35.3264C35.4092 35.426 35.9289 35.3748 36.4012 35.1791C36.8735 34.9834 37.2771 34.6521 37.5611 34.227C37.8451 33.8019 37.9967 33.3022 37.9967 32.791C37.9967 32.6276 37.9318 32.4709 37.8163 32.3554C37.7008 32.2399 37.5441 32.175 37.3807 32.175Z" />
<path d="M40.6237 25.053V20.481C40.5916 19.345 40.1464 18.2596 39.3717 17.4282C38.5969 16.5967 37.5457 16.0762 36.4147 15.964L32.0457 15.464L29.4777 4.164C29.4263 3.94075 29.4326 3.70806 29.4961 3.48793C29.5596 3.2678 29.6782 3.06751 29.8407 2.906L31.1457 1.6C31.2576 1.48377 31.3195 1.32826 31.318 1.16691C31.3164 1.00556 31.2517 0.851252 31.1376 0.737155C31.0235 0.623058 30.8692 0.558285 30.7078 0.55676C30.5465 0.555235 30.391 0.617081 30.2747 0.729001L28.9697 2.034C28.6598 2.3422 28.4335 2.7243 28.3123 3.14422C28.191 3.56414 28.1788 4.00804 28.2767 4.434L30.7487 15.311L29.3487 15.151L26.1837 1.231H26.2187C26.3777 1.22459 26.528 1.15694 26.6382 1.04222C26.7484 0.927489 26.8099 0.774578 26.8099 0.615501C26.8099 0.456423 26.7484 0.303514 26.6382 0.188787C26.528 0.0740589 26.3777 0.00640914 26.2187 1.04441e-06H6.51973C6.36511 -0.000283746 6.21605 0.0576833 6.10225 0.162358C5.98845 0.267033 5.91825 0.410734 5.90564 0.564839C5.89303 0.718945 5.93893 0.872146 6.0342 0.99393C6.12947 1.11571 6.26712 1.19714 6.41973 1.222L3.94773 12.965C3.93635 13.0202 3.93265 13.0768 3.93673 13.133H1.26673C1.10778 13.1394 0.957472 13.2071 0.847276 13.3218C0.737081 13.4365 0.675541 13.5894 0.675541 13.7485C0.675541 13.9076 0.737081 14.0605 0.847276 14.1752C0.957472 14.2899 1.10778 14.3576 1.26673 14.364H2.62173V19.658C2.62173 19.675 2.62173 19.692 2.62173 19.709C1.57625 20.9478 0.814267 22.4002 0.389164 23.9644C-0.0359385 25.5287 -0.113881 27.167 0.160797 28.7645C0.435474 30.362 1.05613 31.8802 1.97928 33.2126C2.90243 34.5451 4.10575 35.6596 5.50495 36.478C6.90414 37.2964 8.46536 37.7991 10.0792 37.9506C11.6931 38.1022 13.3206 37.8991 14.8478 37.3555C16.3749 36.8119 17.7647 35.941 18.9198 34.8037C20.0749 33.6665 20.9674 32.2905 21.5347 30.772C21.5639 30.7764 21.5933 30.7788 21.6227 30.779H23.6337V30.82C23.6343 31.1572 23.7684 31.4804 24.0069 31.7189C24.2453 31.9573 24.5685 32.0915 24.9057 32.092H30.2477C30.1481 32.8319 30.2085 33.5846 30.4251 34.299C30.6416 35.0135 31.0091 35.6731 31.5028 36.2332C31.9964 36.7933 32.6046 37.2408 33.2862 37.5453C33.9678 37.8499 34.707 38.0044 35.4535 37.9985C36.2 37.9926 36.9366 37.8263 37.6133 37.5109C38.29 37.1956 38.891 36.7385 39.3757 36.1706C39.8604 35.6028 40.2173 34.9374 40.4225 34.2196C40.6276 33.5017 40.6761 32.7482 40.5647 32.01C40.9611 31.89 41.3083 31.6458 41.5554 31.3134C41.8024 30.981 41.9361 30.5781 41.9367 30.164V26.881C41.9363 26.4773 41.8094 26.0839 41.5739 25.7561C41.3384 25.4282 41.0061 25.1823 40.6237 25.053ZM39.3947 22.325H38.6947C38.684 22.3245 38.6739 22.32 38.6663 22.3125C38.6587 22.3049 38.6542 22.2947 38.6537 22.284V21.627C38.6542 21.6163 38.6587 21.6061 38.6663 21.5986C38.6739 21.591 38.684 21.5865 38.6947 21.586H39.3947V22.325ZM39.3947 20.355H38.6947C38.3575 20.3555 38.0343 20.4897 37.7959 20.7281C37.5574 20.9666 37.4233 21.2898 37.4227 21.627V22.284C37.4233 22.6212 37.5574 22.9444 37.7959 23.1829C38.0343 23.4213 38.3575 23.5555 38.6947 23.556H39.3947V24.956H24.7287C24.2503 21.5883 22.54 18.5177 19.9287 16.338H28.8147L36.2727 17.191C37.0814 17.2675 37.8371 17.6267 38.407 18.2054C38.977 18.7842 39.3246 19.5453 39.3887 20.355H39.3947ZM11.1167 13.133H9.76173L10.7617 5.603C10.8274 5.12058 11.0653 4.67819 11.4316 4.35747C11.7979 4.03675 12.2679 3.85935 12.7547 3.858H15.7487V13.938C14.2627 13.4045 12.6956 13.1321 11.1167 13.133ZM16.9847 14.4V3.858H25.5187L28.0737 15.1H18.3387C18.2988 15.1001 18.2589 15.1042 18.2197 15.112C17.8187 14.8694 17.4055 14.6474 16.9817 14.447C16.9837 14.434 16.9847 14.42 16.9847 14.4ZM7.67573 1.231H24.9477C24.9438 1.29037 24.9485 1.34999 24.9617 1.408L25.2387 2.626H12.7597C11.9746 2.62802 11.2166 2.91405 10.6259 3.43127C10.0351 3.94849 9.65147 4.66198 9.54573 5.44L8.53673 13.01C8.53271 13.0506 8.53271 13.0914 8.53673 13.132H5.17073L7.67573 1.231ZM11.1157 36.771C9.15967 36.771 7.24754 36.191 5.62114 35.1042C3.99474 34.0175 2.72711 32.4729 1.97856 30.6657C1.23001 28.8586 1.03415 26.87 1.41576 24.9516C1.79737 23.0331 2.7393 21.2709 4.12244 19.8877C5.50558 18.5046 7.26781 17.5626 9.18628 17.181C11.1048 16.7994 13.0933 16.9953 14.9005 17.7438C16.7076 18.4924 18.2522 19.76 19.339 21.3864C20.4257 23.0128 21.0057 24.9249 21.0057 26.881C21.0031 29.503 19.9604 32.0169 18.1064 33.871C16.2525 35.7251 13.7387 36.7681 11.1167 36.771H11.1157ZM21.9157 29.548C22.4834 27.2568 22.3071 24.8444 21.4122 22.6601C20.5174 20.4758 18.9506 18.6331 16.9386 17.3987C14.9266 16.1643 12.5739 15.6023 10.2213 15.7942C7.8686 15.9861 5.63809 16.9219 3.85273 18.466V14.366H11.1167C14.435 14.3697 17.6163 15.6894 19.9628 18.0355C22.3093 20.3817 23.6295 23.5628 23.6337 26.881V29.549L21.9157 29.548ZM35.4157 36.771C34.6283 36.7714 33.8584 36.5382 33.2035 36.1011C32.5485 35.6639 32.038 35.0422 31.7363 34.3148C31.4347 33.5875 31.3556 32.7869 31.509 32.0146C31.6624 31.2422 32.0414 30.5327 32.598 29.9757C33.1547 29.4188 33.864 29.0394 34.6363 28.8856C35.4086 28.7319 36.2092 28.8106 36.9367 29.1118C37.6643 29.4131 38.2861 29.9234 38.7237 30.5781C39.1612 31.2328 39.3947 32.0025 39.3947 32.79C39.3937 33.8458 38.9736 34.8581 38.2268 35.6045C37.4801 36.3509 36.4676 36.7705 35.4117 36.771H35.4157ZM40.7097 30.164C40.7092 30.3087 40.6637 30.4497 40.5798 30.5675C40.4958 30.6853 40.3773 30.7743 40.2407 30.822C39.8485 29.8598 39.1776 29.0368 38.3141 28.4589C37.4507 27.8809 36.4341 27.5743 35.3951 27.5785C34.356 27.5827 33.342 27.8975 32.4832 28.4824C31.6244 29.0673 30.9601 29.8957 30.5757 30.861H24.9057C24.8949 30.861 24.8844 30.8567 24.8767 30.849C24.869 30.8413 24.8647 30.8309 24.8647 30.82V26.88C24.8647 26.646 24.8587 26.4127 24.8467 26.18H40.0077C40.1934 26.18 40.3714 26.2538 40.5027 26.385C40.634 26.5163 40.7077 26.6944 40.7077 26.88L40.7097 30.164Z" />
</svg>
