<svg width="47" height="35" viewBox="0 0 47 35"  xmlns="http://www.w3.org/2000/svg">
<path d="M44.532 23.385H42.8C42.2101 22.3458 41.3713 21.4695 40.3589 20.8347C39.3465 20.1999 38.1924 19.8264 37 19.748L36.47 18.157C36.6949 17.9554 36.8748 17.7088 36.9982 17.4332C37.1216 17.1575 37.1855 16.859 37.186 16.557V15.593C37.185 15.1526 37.049 14.7232 36.7964 14.3625C36.5437 14.0019 36.1865 13.7273 35.773 13.576L30.658 11.716C30.2893 11.5812 29.8905 11.5504 29.5055 11.6272C29.1204 11.7039 28.7639 11.8851 28.475 12.151L27.975 11.651L28.952 10.674C29.0805 10.5455 29.1527 10.3712 29.1527 10.1895C29.1527 10.0078 29.0805 9.8335 28.952 9.705C28.8235 9.5765 28.6492 9.50431 28.4675 9.50431C28.2858 9.50431 28.1115 9.5765 27.983 9.705L25.06 12.628C24.9315 12.7565 24.8593 12.9308 24.8593 13.1125C24.8593 13.2942 24.9315 13.4685 25.06 13.597C25.1885 13.7255 25.3628 13.7977 25.5445 13.7977C25.7262 13.7977 25.9005 13.7255 26.029 13.597L27.006 12.62L27.806 13.42C27.7901 13.5249 27.7821 13.6309 27.782 13.737V20.42C27.7819 20.5292 27.8079 20.6369 27.858 20.734L27.593 20.856C27.1068 21.0797 26.5782 21.196 26.043 21.197H23.294V16.767C23.2935 16.1977 23.0671 15.652 22.6646 15.2494C22.262 14.8469 21.7163 14.6205 21.147 14.62H17.821L17.448 10.886V4.293H29.186C29.7473 4.28088 30.2815 4.04941 30.6741 3.64819C31.0668 3.24696 31.2867 2.7079 31.2867 2.1465C31.2867 1.5851 31.0668 1.04604 30.6741 0.644814C30.2815 0.243586 29.7473 0.0121151 29.186 0H16.032C15.4627 0.000529542 14.917 0.226899 14.5144 0.629425C14.1119 1.03195 13.8855 1.57775 13.885 2.147V3C13.885 3.311 13.885 3.528 13.885 3.583C13.8819 3.67487 13.8973 3.76642 13.9304 3.8522C13.9634 3.93798 14.0134 4.01624 14.0773 4.08231C14.1412 4.14837 14.2178 4.20089 14.3024 4.23675C14.3871 4.2726 14.4781 4.29105 14.57 4.291H16.077V10.371L7.522 12.386C6.39087 12.6528 5.35132 13.2163 4.51043 14.0186C3.66954 14.8208 3.05773 15.8327 2.738 16.95L0.868 23.5C0.611847 23.6078 0.393014 23.7885 0.238694 24.0196C0.0843742 24.2507 0.00137145 24.5221 0 24.8L0 26.486C0.000824185 26.7741 0.0891389 27.0552 0.25325 27.2919C0.41736 27.5287 0.649525 27.7101 0.919 27.812L6.291 29.826C6.33879 29.8438 6.38844 29.8563 6.439 29.863C7.05131 31.2864 8.10293 32.4766 9.4401 33.2596C10.7773 34.0426 12.3298 34.3773 13.8708 34.2147C15.4118 34.0521 16.8604 33.4009 18.0047 32.3561C19.1491 31.3113 19.9292 29.9279 20.231 28.408H26.308V28.454C26.3088 29.0231 26.5353 29.5686 26.9378 29.9709C27.3403 30.3732 27.8859 30.5995 28.455 30.6H30.19C30.8725 31.7918 31.8789 32.7657 33.0924 33.4087C34.306 34.0517 35.677 34.3375 37.0464 34.2328C38.4158 34.1281 39.7275 33.6373 40.8292 32.8173C41.931 31.9973 42.7776 30.8817 43.271 29.6L44.665 29.368C45.2233 29.2644 45.7287 28.9711 46.0957 28.5378C46.4627 28.1045 46.6687 27.5577 46.679 26.99V25.532C46.6785 24.9627 46.4521 24.417 46.0496 24.0144C45.647 23.6119 45.1013 23.3855 44.532 23.385ZM15.255 2.147C15.2553 1.94128 15.3371 1.74405 15.4826 1.59858C15.628 1.45311 15.8253 1.37127 16.031 1.371H29.186C29.3919 1.371 29.5894 1.45281 29.7351 1.59843C29.8807 1.74406 29.9625 1.94156 29.9625 2.1475C29.9625 2.35344 29.8807 2.55095 29.7351 2.69657C29.5894 2.84219 29.3919 2.924 29.186 2.924H15.255V2.147ZM41.155 23.385H31.835C32.3843 22.673 33.0897 22.0967 33.897 21.7005C34.7043 21.3043 35.5918 21.0989 36.491 21.1C37.3916 21.0966 38.2809 21.301 39.0897 21.6973C39.8984 22.0936 40.6049 22.6711 41.154 23.385H41.155ZM29.471 13.1C29.6006 13.0084 29.7553 12.9592 29.914 12.959C30.0054 12.9592 30.0961 12.9755 30.182 13.007L35.297 14.867C35.4466 14.9218 35.5758 15.0212 35.6672 15.1517C35.7586 15.2823 35.8077 15.4377 35.808 15.597V16.561C35.8077 16.7092 35.7651 16.8543 35.6852 16.9792C35.6053 17.1041 35.4915 17.2036 35.357 17.266L29.14 20.136V13.736C29.1392 13.611 29.1689 13.4878 29.2266 13.3769C29.2843 13.2661 29.3682 13.171 29.471 13.1ZM21.147 15.988C21.3527 15.9883 21.55 16.0701 21.6954 16.2156C21.8409 16.361 21.9227 16.5583 21.923 16.764V21.15C21.8131 21.1118 21.7133 21.0492 21.631 20.967C21.6163 20.9523 21.601 20.9383 21.585 20.925L19.063 18.825C18.4723 18.2235 18.1041 17.4387 18.019 16.6L17.958 15.988H21.147ZM1.4 26.53C1.39122 26.5267 1.38364 26.5209 1.37827 26.5132C1.37291 26.5055 1.37003 26.4964 1.37 26.487V24.8C1.37 24.788 1.37471 24.7764 1.38312 24.7678C1.39153 24.7592 1.40297 24.7543 1.415 24.754H6.2C5.83411 25.8774 5.74964 27.0734 5.954 28.237L1.4 26.53ZM13.109 32.886C12.0688 32.8863 11.047 32.6112 10.1476 32.0886C9.24816 31.5661 8.50309 30.8147 7.98812 29.9109C7.47314 29.0071 7.20661 27.9831 7.21563 26.943C7.22464 25.9028 7.50887 24.8835 8.03943 23.9888C8.56999 23.0941 9.32796 22.3557 10.2363 21.8489C11.1447 21.342 12.171 21.0846 13.2111 21.1029C14.2511 21.1212 15.2678 21.4145 16.1578 21.9531C17.0477 22.4916 17.7793 23.2561 18.278 24.169C18.2989 24.3147 18.3662 24.4497 18.47 24.554C18.8794 25.4513 19.0568 26.437 18.986 27.4207C18.9152 28.4044 18.5984 29.3546 18.0648 30.184C17.5311 31.0134 16.7977 31.6954 15.9318 32.1675C15.0659 32.6397 14.0952 32.8867 13.109 32.886ZM20.37 27.04C20.37 27.025 20.37 27.01 20.37 26.994C20.3703 26.234 20.2509 25.4788 20.016 24.756H24.8C24.9817 24.756 25.1559 24.6838 25.2844 24.5554C25.4128 24.4269 25.485 24.2527 25.485 24.071C25.485 23.8893 25.4128 23.7151 25.2844 23.5866C25.1559 23.4582 24.9817 23.386 24.8 23.386H19.407C18.7698 22.2721 17.8486 21.347 16.7373 20.7053C15.626 20.0635 14.3643 19.7279 13.081 19.7328C11.7977 19.7377 10.5387 20.0828 9.43226 20.733C8.32586 21.3832 7.4117 22.3152 6.783 23.434C6.7031 23.4023 6.61794 23.386 6.532 23.386H2.324L4.055 17.327C4.30774 16.4442 4.79119 15.6448 5.45559 15.011C6.11999 14.3772 6.94132 13.9319 7.835 13.721L16.158 11.763L16.658 16.736C16.7758 17.9001 17.2914 18.9879 18.118 19.816C18.1327 19.8307 18.148 19.8447 18.164 19.858L20.689 21.958C21.0894 22.3456 21.6257 22.5609 22.183 22.558H26.033C26.7667 22.5568 27.4915 22.3976 28.158 22.091L35.244 18.82L35.566 19.785C34.4532 19.9265 33.3886 20.3249 32.4563 20.9487C31.524 21.5724 30.7495 22.4044 30.194 23.379H28.455C27.8857 23.3795 27.34 23.6059 26.9374 24.0084C26.5349 24.4109 26.3085 24.9567 26.308 25.526V27.033L20.37 27.04ZM36.494 32.886C35.594 32.8891 34.7053 32.6846 33.8971 32.2885C33.0889 31.8924 32.3829 31.3153 31.834 30.602H35.764C36.7739 30.5876 37.7815 30.504 38.78 30.352L41.634 29.876C41.1211 30.7885 40.3746 31.5482 39.4711 32.0769C38.5677 32.6057 37.5398 32.8846 36.493 32.885L36.494 32.886ZM45.309 26.994C45.2968 27.2367 45.2052 27.4686 45.0481 27.654C44.8911 27.8395 44.6774 27.9681 44.44 28.02L38.553 29C37.6289 29.1395 36.6965 29.2167 35.762 29.231H28.455C28.2493 29.2307 28.052 29.1489 27.9066 29.0034C27.7611 28.858 27.6793 28.6607 27.679 28.455V25.532C27.6793 25.3263 27.7611 25.129 27.9066 24.9836C28.052 24.8381 28.2493 24.7563 28.455 24.756H44.532C44.7377 24.7563 44.935 24.8381 45.0804 24.9836C45.2259 25.129 45.3077 25.3263 45.308 25.532L45.309 26.994Z" />
<path d="M15.768 25.598C15.5922 25.6435 15.4416 25.7568 15.3494 25.9132C15.2571 26.0696 15.2307 26.2562 15.276 26.432C15.3982 26.9067 15.3611 27.4083 15.1702 27.8598C14.9793 28.3112 14.6453 28.6874 14.2197 28.9304C13.794 29.1734 13.3003 29.2697 12.8145 29.2046C12.3287 29.1394 11.8778 28.9164 11.5312 28.5698C11.1847 28.2232 10.9616 27.7723 10.8965 27.2865C10.8313 26.8008 10.9276 26.307 11.1706 25.8814C11.4136 25.4557 11.7898 25.1217 12.2412 24.9308C12.6927 24.74 13.1944 24.7028 13.669 24.825C13.7561 24.8475 13.8468 24.8525 13.9359 24.8399C14.025 24.8273 14.1108 24.7973 14.1883 24.7516C14.2657 24.7059 14.3335 24.6453 14.3876 24.5734C14.4417 24.5015 14.4811 24.4197 14.5035 24.3325C14.526 24.2454 14.531 24.1547 14.5184 24.0656C14.5058 23.9765 14.4758 23.8908 14.4301 23.8133C14.3844 23.7358 14.3238 23.6681 14.2519 23.614C14.18 23.5599 14.0981 23.5205 14.011 23.498C13.2465 23.3019 12.4387 23.3624 11.712 23.6703C10.9853 23.9781 10.3798 24.5163 9.98891 25.202C9.59798 25.8876 9.44322 26.6828 9.54843 27.465C9.65365 28.2472 10.013 28.9732 10.5712 29.5311C11.1294 30.0891 11.8555 30.4482 12.6378 30.5531C13.42 30.658 14.2151 30.503 14.9006 30.1118C15.5861 29.7206 16.124 29.115 16.4316 28.3881C16.7393 27.6612 16.7995 26.8535 16.603 26.089C16.5574 25.9132 16.4438 25.7627 16.2872 25.6706C16.1306 25.5785 15.9438 25.5524 15.768 25.598Z" />
<path d="M36.493 26.308C36.3342 26.3079 36.1803 26.363 36.0576 26.4637C35.9349 26.5644 35.8509 26.7046 35.82 26.8604C35.789 27.0161 35.8131 27.1777 35.888 27.3177C35.9629 27.4577 36.0841 27.5674 36.2308 27.628C36.3776 27.6886 36.5408 27.6965 36.6927 27.6502C36.8446 27.6039 36.9757 27.5065 37.0637 27.3743C37.1518 27.2422 37.1912 27.0836 37.1754 26.9256C37.1596 26.7676 37.0895 26.6201 36.977 26.508C36.8483 26.3801 36.6744 26.3082 36.493 26.308Z" />
</svg>
