<svg id="Layer_1" data-name="Layer 1" xmlns="http://www.w3.org/2000/svg" viewBox="0 0 50.4 29.8"><path class="cls-1" d="M41.25,30.37a1.81,1.81,0,0,0,1.29.53h8.32a.63.63,0,0,0,.37-.12.73.73,0,0,0,.24-.31.68.68,0,0,0,0-.4.62.62,0,0,0-.23-.32L43.64,24a1.91,1.91,0,0,0-.94-.36,1.84,1.84,0,0,0-1,.19l-.18.1-.06,0,0,0-5.78-4.33V18.23H40a2.22,2.22,0,0,0,1.44-.53,2.25,2.25,0,0,0,.76-1.33L44.27,4h.25A.62.62,0,0,0,45,3.78a.64.64,0,0,0,0-.91.62.62,0,0,0-.45-.19H35.8a3,3,0,0,0-1.59.46l-.14.09V3.07a2.28,2.28,0,0,0-.73-1.4,2.22,2.22,0,0,0-1.49-.57H6.21a3.83,3.83,0,0,0-1.45.29,3.66,3.66,0,0,0-1.23.83L1.29,4.46a.56.56,0,0,0-.14.2.7.7,0,0,0,0,.25.64.64,0,0,0,0,.24.6.6,0,0,0,.14.21L3.67,7.74a.56.56,0,0,0,.2.14.69.69,0,0,0,.49,0,.6.6,0,0,0,.21-.14L6.76,5.55H17V7.44H10.46A1.43,1.43,0,0,0,9,8.87v8.07H8.87a1.42,1.42,0,0,0-1,.42,1.45,1.45,0,0,0-.42,1V24l0,0a3.81,3.81,0,0,0-1.17,1.41,3.72,3.72,0,0,0-.37,1.79,3.78,3.78,0,0,0,1.77,3.08,3.91,3.91,0,0,0,1.74.58,3.75,3.75,0,0,0,1.81-.31,3.82,3.82,0,0,0,2.22-2.77l0-.08H26.93l0,.06a5.39,5.39,0,0,0,10.16-1.17l0-.12.11.05,3.45,1.73v.79A1.82,1.82,0,0,0,41.25,30.37ZM42,25.5a.6.6,0,0,1,.08-.29.74.74,0,0,1,.23-.2.54.54,0,0,1,.57.06l6.06,4.55H42.54a.55.55,0,0,1-.38-.16.58.58,0,0,1-.17-.39Zm-.65-11.73h-4l0,0,0,0a.13.13,0,0,1,0-.06V7.13h5.2ZM34.07,5.7a1.72,1.72,0,0,1,.51-1.23A1.76,1.76,0,0,1,35.81,4H43l-.31,1.89H36.6a.65.65,0,0,0-.64.64v7.13a1.43,1.43,0,0,0,1.43,1.43h3.73l-.18,1.1a.94.94,0,0,1-.32.56.93.93,0,0,1-.61.23H34.07ZM6.5,4.27a.69.69,0,0,0-.25,0A.77.77,0,0,0,6,4.45L4.12,6.38,2.65,4.91l1.79-1.8a2.39,2.39,0,0,1,.82-.54,2.39,2.39,0,0,1,1-.2H17V4.26Zm4.95,24.61a2.54,2.54,0,0,1-1.79.74,2.54,2.54,0,0,1-2.33-1.56,2.64,2.64,0,0,1-.15-1.47,2.54,2.54,0,0,1,3.45-1.84,2.5,2.5,0,0,1,1.56,2.34A2.52,2.52,0,0,1,11.45,28.88Zm15.41-5.44a5.4,5.4,0,0,0-.35,2.89v.1l-.09,0h-13l0-.08a3.67,3.67,0,0,0-.57-1.4,3.79,3.79,0,0,0-1.08-1.07,3.72,3.72,0,0,0-1.4-.56,3.84,3.84,0,0,0-1.51,0l-.12,0v-5a.15.15,0,0,1,0-.11.21.21,0,0,1,.11,0h2.38a.64.64,0,0,0,.45-1.09.65.65,0,0,0-.45-.19H10.3V8.87a.13.13,0,0,1,0-.11.12.12,0,0,1,.1,0H28.68a.63.63,0,0,0,.45-.18.66.66,0,0,0,.19-.46.65.65,0,0,0-.64-.64H18.23v-5H31.84a1,1,0,0,1,.67.27,1,1,0,0,1,.28.67V7.43h-.95a.64.64,0,0,0-.45,1.1.63.63,0,0,0,.45.18h.95v8.23H14.42a.66.66,0,0,0-.46.19.65.65,0,0,0,0,.9.66.66,0,0,0,.46.19H34.37v2.52l-.14-.08a5.52,5.52,0,0,0-2.86-.53,5.41,5.41,0,0,0-4.51,3.31Zm7.89,5a4.1,4.1,0,0,1-2.9,1.21h0a4.13,4.13,0,0,1-3.79-2.54,4.12,4.12,0,0,1-.24-2.38,4,4,0,0,1,1.13-2.1A4.13,4.13,0,0,1,31,21.47a4.13,4.13,0,0,1,4.92,4A4.09,4.09,0,0,1,34.75,28.41Zm2.47-3.31v-.05a5.41,5.41,0,0,0-1.54-3.33l0,0v-.45l.16.12,5,3.71,0,.07a2.2,2.2,0,0,0,0,.36v1.35Z" transform="translate(-1.1 -1.1)"/><path class="cls-1" d="M33.77,26.62a2.21,2.21,0,0,0,.3-1.12.52.52,0,0,0,0-.24.6.6,0,0,0-.14-.21.66.66,0,0,0-.2-.14.64.64,0,0,0-.7.14.64.64,0,0,0-.19.45,1,1,0,0,1-.13.48.92.92,0,0,1-.34.34,1,1,0,0,1-.95,0A.88.88,0,0,1,31,26a1,1,0,0,1-.13-.47A1,1,0,0,1,31,25a.88.88,0,0,1,.35-.34.58.58,0,0,0,.18-.17.51.51,0,0,0,.11-.22.54.54,0,0,0,0-.25.63.63,0,0,0-.25-.43.57.57,0,0,0-.22-.11l-.17,0H31a.75.75,0,0,0-.24.08,2.17,2.17,0,0,0-.81.81,2.22,2.22,0,0,0,0,2.23,2.17,2.17,0,0,0,.81.81,2.27,2.27,0,0,0,2.23,0A2.1,2.1,0,0,0,33.77,26.62Z" transform="translate(-1.1 -1.1)"/><path class="cls-1" d="M10.13,26.64a.68.68,0,0,0-.46-.19h0a.65.65,0,0,0-.64.64.65.65,0,1,0,1.29,0A.63.63,0,0,0,10.13,26.64Z" transform="translate(-1.1 -1.1)"/><path class="cls-1" d="M23.92,23.28h-9.5a.62.62,0,0,0-.46.19.65.65,0,0,0,0,.9.66.66,0,0,0,.46.19h9.5a.66.66,0,0,0,.46-.19.63.63,0,0,0,.18-.45.65.65,0,0,0-.18-.45A.63.63,0,0,0,23.92,23.28Z" transform="translate(-1.1 -1.1)"/><path class="cls-1" d="M17.59,13.77H12.83a.65.65,0,0,0-.64.64.68.68,0,0,0,.19.46.63.63,0,0,0,.45.18h4.76a.63.63,0,0,0,.45-.18.68.68,0,0,0,.19-.46.65.65,0,0,0-.64-.64Z" transform="translate(-1.1 -1.1)"/><path class="cls-1" d="M17.59,10.6H12.83a.64.64,0,0,0-.45,1.1.63.63,0,0,0,.45.18h4.76a.63.63,0,0,0,.64-.64.65.65,0,0,0-.64-.64Z" transform="translate(-1.1 -1.1)"/></svg>