<svg width="44" height="36" viewBox="0 0 44 36"  xmlns="http://www.w3.org/2000/svg">
<path d="M41.25 9.054C41.1074 7.97232 40.5768 6.97927 39.7567 6.25964C38.9366 5.54001 37.883 5.14283 36.792 5.142H24.585V0.642002C24.585 0.471733 24.5174 0.308436 24.397 0.188038C24.2766 0.0676395 24.1133 1.20927e-10 23.943 1.20927e-10H0.642012C0.557366 -1.64286e-06 0.473555 0.0167382 0.395402 0.0492516C0.317249 0.0817649 0.246298 0.12941 0.18663 0.189449C0.126962 0.249489 0.0797563 0.320736 0.0477289 0.39909C0.0157016 0.477443 -0.000514929 0.561355 1.24622e-05 0.646V28.915C1.24622e-05 29.0853 0.0676515 29.2486 0.18805 29.369C0.308448 29.4894 0.471743 29.557 0.642012 29.557H2.60001C2.75996 31.1412 3.50247 32.6096 4.68358 33.6775C5.86469 34.7453 7.40024 35.3366 8.99251 35.3366C10.5848 35.3366 12.1203 34.7453 13.3014 33.6775C14.4826 32.6096 15.2251 31.1412 15.385 29.557H25.9C26.06 31.1412 26.8025 32.6096 27.9836 33.6775C29.1647 34.7453 30.7002 35.3366 32.2925 35.3366C33.8848 35.3366 35.4203 34.7453 36.6014 33.6775C37.7826 32.6096 38.5251 31.1412 38.685 29.557H43.214C43.3843 29.557 43.5476 29.4894 43.668 29.369C43.7884 29.2486 43.856 29.0853 43.856 28.915V12.215C43.8566 11.4674 43.5968 10.7429 43.1212 10.1661C42.6457 9.5892 41.984 9.19599 41.25 9.054ZM36.792 6.427C37.5323 6.42794 38.2496 6.68407 38.823 7.15222C39.3965 7.62037 39.7909 8.2719 39.94 8.997H29.082C28.9116 8.997 28.7482 9.06469 28.6277 9.18518C28.5072 9.30568 28.4395 9.4691 28.4395 9.6395C28.4395 9.80991 28.5072 9.97333 28.6277 10.0938C28.7482 10.2143 28.9116 10.282 29.082 10.282H40.646C41.0444 10.2826 41.4329 10.4064 41.7582 10.6364C42.0835 10.8665 42.3297 11.1915 42.463 11.567H40.646C40.4757 11.567 40.3124 11.6346 40.192 11.755C40.0716 11.8754 40.004 12.0387 40.004 12.209V20.561C40.004 20.7313 40.0716 20.8946 40.192 21.015C40.3124 21.1354 40.4757 21.203 40.646 21.203H42.573V25.703H37.855C37.1763 24.5248 36.1411 23.5925 34.8987 23.0403C33.6562 22.488 32.2705 22.3444 30.9412 22.6301C29.6118 22.9157 28.4075 23.6159 27.5015 24.6298C26.5956 25.6438 26.0348 26.919 25.9 28.272H24.585V10.283H26.512C26.6824 10.283 26.8458 10.2153 26.9663 10.0948C27.0868 9.97433 27.1545 9.8109 27.1545 9.6405C27.1545 9.4701 27.0868 9.30668 26.9663 9.18618C26.8458 9.06569 26.6824 8.998 26.512 8.998H24.585V6.428L36.792 6.427ZM42.574 12.854V19.921H41.289V12.854H42.574ZM23.3 25.702H14.555C13.992 24.7252 13.1817 23.914 12.2055 23.35C11.2294 22.7859 10.1219 22.4889 8.99451 22.4889C7.86712 22.4889 6.75962 22.7859 5.78348 23.35C4.80733 23.914 3.99699 24.7252 3.43401 25.702H1.28501V21.202H23.3V25.702ZM15.123 26.987H23.3V28.272H15.387C15.3434 27.8357 15.2549 27.4051 15.123 26.987ZM23.3 1.287V19.92H1.28501V1.289L23.3 1.287ZM1.28501 26.987H2.86601C2.73341 27.4051 2.64428 27.8357 2.60001 28.272H1.28501V26.987ZM8.99401 34.054C7.97742 34.054 6.98365 33.7525 6.13838 33.1878C5.29311 32.623 4.63431 31.8202 4.24527 30.881C3.85624 29.9418 3.75445 28.9083 3.95278 27.9112C4.1511 26.9142 4.64064 25.9983 5.35948 25.2795C6.07833 24.5606 6.99419 24.0711 7.99125 23.8728C8.98831 23.6744 10.0218 23.7762 10.961 24.1653C11.9002 24.5543 12.703 25.2131 13.2678 26.0584C13.8326 26.9036 14.134 27.8974 14.134 28.914C14.1324 30.2767 13.5904 31.5832 12.6268 32.5468C11.6632 33.5104 10.3567 34.0524 8.99401 34.054ZM32.294 34.054C31.2774 34.054 30.2837 33.7525 29.4384 33.1878C28.5931 32.623 27.9343 31.8202 27.5453 30.881C27.1562 29.9418 27.0544 28.9083 27.2528 27.9112C27.4511 26.9142 27.9406 25.9983 28.6595 25.2795C29.3783 24.5606 30.2942 24.0711 31.2912 23.8728C32.2883 23.6744 33.3218 23.7762 34.261 24.1653C35.2002 24.5543 36.003 25.2131 36.5678 26.0584C37.1326 26.9036 37.434 27.8974 37.434 28.914C37.4324 30.2767 36.8904 31.5832 35.9268 32.5468C34.9632 33.5104 33.6567 34.0524 32.294 34.054ZM38.686 28.272C38.6424 27.8357 38.5539 27.4051 38.422 26.987H42.573V28.272H38.686Z" />
<path d="M31.652 21.205H38.077C38.1614 21.2051 38.245 21.1887 38.323 21.1564C38.401 21.1242 38.4719 21.077 38.5316 21.0173C38.5913 20.9577 38.6387 20.8869 38.6711 20.8089C38.7034 20.731 38.72 20.6474 38.72 20.563V12.211C38.72 12.1266 38.7034 12.0431 38.6711 11.9651C38.6387 11.8871 38.5913 11.8163 38.5316 11.7567C38.4719 11.6971 38.401 11.6498 38.323 11.6176C38.245 11.5854 38.1614 11.5689 38.077 11.569H29.083C28.9986 11.5689 28.915 11.5854 28.837 11.6176C28.759 11.6498 28.6881 11.6971 28.6284 11.7567C28.5687 11.8163 28.5213 11.8871 28.489 11.9651C28.4566 12.0431 28.44 12.1266 28.44 12.211V17.993C28.4411 18.8446 28.7798 19.6609 29.382 20.2631C29.9841 20.8652 30.8005 21.204 31.652 21.205ZM29.725 12.853H37.435V19.918H31.653C31.1422 19.9172 30.6525 19.7139 30.2913 19.3527C29.9301 18.9915 29.7268 18.5019 29.726 17.991L29.725 12.853Z" />
<path d="M32.295 25.06C31.5326 25.06 30.7872 25.2861 30.1533 25.7097C29.5193 26.1333 29.0252 26.7353 28.7335 27.4398C28.4417 28.1442 28.3653 28.9193 28.5141 29.6671C28.6628 30.4149 29.03 31.1018 29.5691 31.6409C30.1082 32.18 30.7951 32.5472 31.5429 32.6959C32.2907 32.8447 33.0658 32.7683 33.7702 32.4766C34.4746 32.1848 35.0767 31.6907 35.5003 31.0567C35.9239 30.4228 36.15 29.6775 36.15 28.915C36.1489 27.8929 35.7424 26.913 35.0197 26.1903C34.297 25.4676 33.3171 25.0611 32.295 25.06ZM32.295 31.485C31.7867 31.485 31.2898 31.3343 30.8672 31.0519C30.4446 30.7695 30.1151 30.3681 29.9206 29.8985C29.7261 29.4289 29.6752 28.9121 29.7744 28.4136C29.8736 27.9151 30.1183 27.4572 30.4778 27.0977C30.8372 26.7383 31.2951 26.4935 31.7936 26.3944C32.2921 26.2952 32.8089 26.3461 33.2785 26.5406C33.7481 26.7351 34.1495 27.0645 34.4319 27.4872C34.7143 27.9098 34.865 28.4067 34.865 28.915C34.8642 29.5964 34.5932 30.2496 34.1114 30.7314C33.6296 31.2132 32.9764 31.4842 32.295 31.485Z" />
<path d="M8.99501 25.06C8.23235 25.06 7.48683 25.2862 6.85277 25.71C6.21871 26.1338 5.72461 26.7362 5.43298 27.4409C5.14135 28.1456 5.0653 28.921 5.21446 29.6689C5.36361 30.4168 5.73126 31.1037 6.27089 31.6427C6.81052 32.1816 7.49788 32.5484 8.24601 32.6965C8.99413 32.8447 9.7694 32.7677 10.4737 32.4751C11.178 32.1826 11.7798 31.6877 12.2028 31.0531C12.6257 30.4185 12.851 29.6727 12.85 28.91C12.8476 27.8888 12.4406 26.9102 11.718 26.1885C10.9954 25.4669 10.0162 25.0611 8.99501 25.06ZM8.99501 31.485C8.48671 31.485 7.98983 31.3343 7.5672 31.0519C7.14456 30.7695 6.81516 30.3681 6.62064 29.8985C6.42612 29.4289 6.37523 28.9121 6.47439 28.4136C6.57356 27.9151 6.81833 27.4572 7.17775 27.0977C7.53717 26.7383 7.9951 26.4935 8.49363 26.3944C8.99216 26.2952 9.5089 26.3461 9.97851 26.5406C10.4481 26.7351 10.8495 27.0645 11.1319 27.4872C11.4143 27.9098 11.565 28.4067 11.565 28.915C11.5642 29.5964 11.2932 30.2496 10.8114 30.7314C10.3296 31.2132 9.67637 31.4842 8.99501 31.485Z" />
</svg>
