<svg id="Capa_1" data-name="Capa 1" xmlns="http://www.w3.org/2000/svg" viewBox="0 0 510 350">
  <g>
    <path class="cls-1" d="M71.5,368.5a7,7,0,0,0-7,7,9,9,0,1,1-9-9,7,7,0,0,0,0-14,23,23,0,1,0,23,23A7,7,0,0,0,71.5,368.5Z" transform="translate(-0.5 -80.5)"/>
    <path class="cls-1" d="M167.5,368.5a7,7,0,0,0-7,7,9,9,0,1,1-9-9,7,7,0,0,0,0-14,23,23,0,1,0,23,23A7,7,0,0,0,167.5,368.5Z" transform="translate(-0.5 -80.5)"/>
    <path class="cls-1" d="M423.5,368.5a7,7,0,0,0-7,7,9,9,0,1,1-9-9,7,7,0,0,0,0-14,23,23,0,1,0,23,23A7,7,0,0,0,423.5,368.5Z" transform="translate(-0.5 -80.5)"/>
    <path class="cls-1" d="M510.49,263.33c0-.14,0-.29,0-.44a2.54,2.54,0,0,0,0-.29c0-.13,0-.26-.05-.38s-.05-.24-.08-.36-.05-.21-.08-.29-.09-.28-.14-.42l0-.11L477.92,177.5a39.24,39.24,0,0,0-36.4-25h-66a23,23,0,0,0-17.27,7.83l-.15.17H342.5V113.44a30.79,30.79,0,0,0-9.08-21.92l-9-9a7,7,0,0,0-9.9,9.9l9,9a16.89,16.89,0,0,1,5,12V160.5h-10v-17a15,15,0,0,0-15-15H15.5a15,15,0,0,0-15,15v176a15,15,0,0,0,15,15h3.38l-.93.87a55,55,0,1,0,85.12,67.69l.43-.75.43.75a55,55,0,0,0,102-20.13l.06-.43H216.5v1a23,23,0,0,0,23,23h48a23,23,0,0,0,23-23v-1H353l.06.43a55,55,0,0,0,109-.07l.07-.5.5.07a6.72,6.72,0,0,0,.94.07h32a15,15,0,0,0,15-15ZM471,198.5l19.23,50H415.5a17,17,0,0,1-17-17v-33Zm-152.5-24h34l0,1v145h-34Zm-303,146a1,1,0,0,1-1-1v-176a1,1,0,0,1,1-1h288a1,1,0,0,1,1,1v177Zm40,96a41,41,0,1,1,41-41A41,41,0,0,1,55.5,416.5Zm48-67.81-.43-.75a55.06,55.06,0,0,0-10-12.57l-.93-.87h22.76l-.93.87a55.34,55.34,0,0,0-10,12.57Zm48,67.81a41,41,0,1,1,41-41A41,41,0,0,1,151.5,416.5Zm145-33a9,9,0,0,1-9,9h-48a9,9,0,0,1-9-9v-16a9,9,0,0,1,9-9h48a9,9,0,0,1,9,9Zm56.46-15H310.5v-1a23,23,0,0,0-23-23h-48a23,23,0,0,0-23,23v1H206l-.06-.43a55.09,55.09,0,0,0-16.93-32.7l-.93-.87H370.88l-.93.87A55.09,55.09,0,0,0,353,368.07Zm54.54,48a41,41,0,1,1,41-41A41,41,0,0,1,407.5,416.5Zm89-88h-9a1,1,0,0,1-1-1v-8a1,1,0,0,1,1-1h9Zm0-24h-9a15,15,0,0,0-15,15v8a15,15,0,0,0,15,15h9v25a1,1,0,0,1-1,1h-32a6.72,6.72,0,0,0-.94.07l-.5.07-.07-.5A55.15,55.15,0,0,0,407.5,320.5h-41v-145a9,9,0,0,1,9-9h66a25.16,25.16,0,0,1,23.34,16l.75,2H391.5a7,7,0,0,0-7,7v40a31,31,0,0,0,31,31h80.12l.88,2.39Z" transform="translate(-0.5 -80.5)"/>
    <path class="cls-1" d="M252.45,370.55a7,7,0,1,0,2.05,4.95A7,7,0,0,0,252.45,370.55Z" transform="translate(-0.5 -80.5)"/>
    <path class="cls-1" d="M279.5,160.5H39.5a7,7,0,0,0,0,14h240a7,7,0,0,0,0-14Z" transform="translate(-0.5 -80.5)"/>
    <path class="cls-1" d="M279.5,192.5H39.5a7,7,0,0,0,0,14h240a7,7,0,0,0,0-14Z" transform="translate(-0.5 -80.5)"/>
    <path class="cls-1" d="M279.5,224.5H39.5a7,7,0,0,0,0,14h240a7,7,0,0,0,0-14Z" transform="translate(-0.5 -80.5)"/>
    <path class="cls-1" d="M279.5,256.5H39.5a7,7,0,0,0,0,14h240a7,7,0,0,0,0-14Z" transform="translate(-0.5 -80.5)"/>
    <path class="cls-1" d="M279.5,288.5H39.5a7,7,0,0,0,0,14h240a7,7,0,0,0,0-14Z" transform="translate(-0.5 -80.5)"/>
  </g>
</svg>
