<svg id="Layer_1" data-name="Layer 1" xmlns="http://www.w3.org/2000/svg" viewBox="0 0 53.49 25.7">
  <g>
    <path class="cls-1" d="M9.57,15.89a4.89,4.89,0,0,0-.82,3.19,4.84,4.84,0,0,0,1.4,3,4.83,4.83,0,0,0,6.16.57A4.83,4.83,0,0,0,18,16.69a.61.61,0,0,0-.35-.32.67.67,0,0,0-.48,0,.58.58,0,0,0-.33.34.61.61,0,0,0,0,.48,3.56,3.56,0,0,1-1.26,4.37,3.65,3.65,0,0,1-2.34.6A3.57,3.57,0,0,1,10,19a3.56,3.56,0,0,1,5-3.6.64.64,0,0,0,.49,0,.68.68,0,0,0,.35-.34.64.64,0,0,0,0-.49.63.63,0,0,0-.34-.36,4.85,4.85,0,0,0-1.94-.4,4.67,4.67,0,0,0-1.34.19A4.85,4.85,0,0,0,9.57,15.89Z" transform="translate(-1.15 -1.15)"/>
    <path class="cls-1" d="M31.47,15.9A4.85,4.85,0,0,0,35,23.46a4.85,4.85,0,0,0,4.89-6.77.65.65,0,0,0-.35-.32.61.61,0,0,0-.48,0,.63.63,0,0,0-.34.82,3.56,3.56,0,0,1,.16,2.41,3.64,3.64,0,0,1-1.42,2,3.57,3.57,0,0,1-5-5,3.6,3.6,0,0,1,2-1.42,3.56,3.56,0,0,1,2.41.16.62.62,0,0,0,.26.06.55.55,0,0,0,.25,0,.71.71,0,0,0,.22-.13.6.6,0,0,0,.14-.21.54.54,0,0,0,.06-.25.7.7,0,0,0,0-.25.51.51,0,0,0-.15-.21.6.6,0,0,0-.21-.14,4.87,4.87,0,0,0-2-.41,5.1,5.1,0,0,0-1.34.19A4.84,4.84,0,0,0,31.47,15.9Z" transform="translate(-1.15 -1.15)"/>
    <path class="cls-1" d="M54.45,24.91a.6.6,0,0,0-.42-.18h-.6l0-.05c-3.85-4.15-3.8-11.86-3.8-11.94a.63.63,0,0,0-.35-.58.65.65,0,0,0-.34-.06.66.66,0,0,0-.33.12L47,13.37l-3.4-4a3.93,3.93,0,0,0-1.37-1.06,4,4,0,0,0-1.7-.38H39.49v-1a.69.69,0,0,0-.2-.44.66.66,0,0,0-.89,0,.63.63,0,0,0-.19.44v1H33a2.32,2.32,0,0,0-2.32,2.33V12l-.07.07a8.3,8.3,0,0,0-1.75,1.8l-.28.37V2.43h1.89a.64.64,0,0,0,.43-.2A.6.6,0,0,0,31,1.79a.59.59,0,0,0-.18-.44.64.64,0,0,0-.43-.2H17.79a3.14,3.14,0,0,0-2.24.93,3.18,3.18,0,0,0-.93,2.24V7.05H4.32A2.32,2.32,0,0,0,2,9.37v4.56l-.08,0a1.43,1.43,0,0,0-.55.54,1.44,1.44,0,0,0-.21.75v4.21a2.32,2.32,0,0,0,2.32,2.32H6l0,.1a8.22,8.22,0,0,0,15.09,0l0-.1h6.72l0,.1a8.21,8.21,0,0,0,7.55,5,8.21,8.21,0,0,0,7.54-5l0-.1H45V22a4,4,0,0,0,1.17,2.83A4,4,0,0,0,49,26h5a.63.63,0,0,0,.45-.18.64.64,0,0,0,.19-.46A.65.65,0,0,0,54.45,24.91ZM6.08,15.27a8.15,8.15,0,0,0-.54,5.06l0,.18H3.47a1.08,1.08,0,0,1-.73-.31,1,1,0,0,1-.31-.74V15.26a.22.22,0,0,1,.06-.15.24.24,0,0,1,.14,0H6.18Zm12.4,8.26a6.89,6.89,0,0,1-4.9,2,6.93,6.93,0,0,1-6.41-4.28,6.89,6.89,0,0,1-.4-4,6.94,6.94,0,0,1,5.46-5.46,6.93,6.93,0,0,1,6.25,11.71ZM27.26,7.05h-8V5.16A.18.18,0,0,1,19.33,5,.2.2,0,0,1,19.48,5h7.78Zm0-3.38H19.48A1.5,1.5,0,0,0,18,5.15V7.68a.65.65,0,0,0,.64.64h8.63v5.46H22.84a.69.69,0,0,0-.25,0,.64.64,0,0,0-.22.14.6.6,0,0,0-.14.21.54.54,0,0,0-.06.25.57.57,0,0,0,.06.25.6.6,0,0,0,.14.21.64.64,0,0,0,.22.14.53.53,0,0,0,.25,0h4.42v5.46H21.58l0-.19a8.22,8.22,0,0,0-4.5-9.12,8.4,8.4,0,0,0-7.23.07A8.44,8.44,0,0,0,7,13.72l0,.06H3.27V9.37a1,1,0,0,1,.31-.74,1,1,0,0,1,.74-.31H15.26a.62.62,0,0,0,.46-.19.63.63,0,0,0,.18-.45V4.31A1.87,1.87,0,0,1,16.46,3a1.84,1.84,0,0,1,1.33-.55h9.47ZM40.38,23.54a6.93,6.93,0,0,1-4.9,2h0a6.94,6.94,0,0,1-6.81-8.29,6.94,6.94,0,0,1,5.46-5.46,6.94,6.94,0,0,1,6.25,11.72ZM46,14.28a4.09,4.09,0,0,0-1,2.67v3.57H43.48l0-.19a8.22,8.22,0,0,0-.29-4.45,8.23,8.23,0,0,0-11.11-4.75l-.22.1v-1a1.13,1.13,0,0,1,.31-.74A1.08,1.08,0,0,1,33,9.16h7.61a2.69,2.69,0,0,1,1.15.26,2.88,2.88,0,0,1,.94.72l3.39,4Zm3,10.45a2.65,2.65,0,0,1-1-.21,2.94,2.94,0,0,1-.89-.59,2.82,2.82,0,0,1-.59-.89,2.65,2.65,0,0,1-.21-1V16.94a2.74,2.74,0,0,1,.29-1.22,2.86,2.86,0,0,1,.8-1l1-.78,0,.28c.17,2.39.81,6.9,3.21,10.23l.17.24Z" transform="translate(-1.15 -1.15)"/>
  </g>
</svg>
