<svg id="Layer_1" data-name="Layer 1" xmlns="http://www.w3.org/2000/svg" viewBox="0 0 55.53 24.81">
  <g>
    <path class="cls-1" d="M47.11,16.09l2.28,4.55h3.12a4.25,4.25,0,0,0,1.62-.32,4.35,4.35,0,0,0,1.39-.93,4.51,4.51,0,0,0,1.06-1.75,4.21,4.21,0,0,0,.2-1.27V1.25H19.3V15.72H11.57v-.2h-.15V11.45H15V9a2.42,2.42,0,0,0-1.33-2.16,2.4,2.4,0,0,0-.93-.2H5.49A2.48,2.48,0,0,0,3,9.14v2.31H6.57v.15h.08v4.12h-3a2.47,2.47,0,0,0-1.6.59,2.43,2.43,0,0,0-.83,1.49v.79A2.45,2.45,0,0,0,2.08,20a2.51,2.51,0,0,0,1.61.6h3v1.15a2.46,2.46,0,0,0,2.46,2.46h.23l.16,0a2.52,2.52,0,0,0,1.38-.84,2.44,2.44,0,0,0,.54-1.53V20.72h.15v-.08H33.81l0,.21a6.06,6.06,0,0,0,5.95,5.21,6.62,6.62,0,0,0,1.28-.12,6.07,6.07,0,0,0,1.4-.47,5.45,5.45,0,0,0,.53-.29,4.76,4.76,0,0,0,.47-.31,2.31,2.31,0,0,0,.23-.18l0,0,.17-.15.17-.16.24-.25.2-.23a5.83,5.83,0,0,0,.66-1c.07-.14.15-.29.21-.44a1,1,0,0,0,.05-.12,1.17,1.17,0,0,0,0-.11,1.83,1.83,0,0,0,.1-.28,8.12,8.12,0,0,0,.22-.81c0-.05,0-.1,0-.16l0-.12c0-.15,0-.26,0-.36v-.1a6.39,6.39,0,0,0-.09-1.51l0-.13a2.62,2.62,0,0,0-.09-.38l0-.07c0-.15-.09-.29-.14-.43l0-.08c-.05-.13-.11-.27-.17-.39a.85.85,0,0,0-.06-.13c-.07-.14-.11-.22-.16-.3a3.37,3.37,0,0,0-.21-.34l-.06-.09-.22-.3-.11-.14a2.93,2.93,0,0,0-.29-.31l-.06-.06a2.65,2.65,0,0,0-.34-.33l0,0a6.61,6.61,0,0,0-.83-.59h0c-.16-.09-.31-.18-.47-.25a5.46,5.46,0,0,0-.95-.36l-.09,0A4.15,4.15,0,0,0,41,14a6.33,6.33,0,0,0-2,0l-.45.09a6.06,6.06,0,0,0-4.68,5.05l0,.21H3.61a.9.9,0,0,1-.4-.09,1,1,0,0,1-.53-.42,1.1,1.1,0,0,1-.2-.67,1.16,1.16,0,0,1,.92-1.1,1,1,0,0,1,.24,0H32.1l.47-.93a6.46,6.46,0,0,1,.61-1,3,3,0,0,1,.31-.42l0-.07a3.78,3.78,0,0,1,.34-.39,5.28,5.28,0,0,1,.41-.41,3.72,3.72,0,0,1,.44-.38,3.88,3.88,0,0,1,.44-.33,5.74,5.74,0,0,1,.95-.58l.09-.05a6.82,6.82,0,0,1,.88-.37l0,0a4.45,4.45,0,0,1,.53-.16,4.11,4.11,0,0,1,.53-.13,4,4,0,0,1,.5-.09l.13.23h0l0-.24a2.94,2.94,0,0,1,.51-.05,6.61,6.61,0,0,1,1.09,0,3.85,3.85,0,0,1,.5.05H41l.49.09c.17,0,.35.08.53.13l.5.15h0l.09,0a6.89,6.89,0,0,1,.84.35l.11.07a6.56,6.56,0,0,1,.93.56,4.7,4.7,0,0,1,.44.34,2.88,2.88,0,0,1,.33.28h0l.1.14a2.4,2.4,0,0,1,.32.32l.09.09.29.33.08.05v.06c.1.13.2.26.29.4a3.94,3.94,0,0,1,.31.48C46.92,15.74,47,15.91,47.11,16.09ZM35.17,19a4.71,4.71,0,0,1,1.65-2.75,4.81,4.81,0,0,1,3-1.08h0a4.77,4.77,0,0,1,4.78,4.68A4.92,4.92,0,0,1,44,22.26l0,.08a4.89,4.89,0,0,1-1.72,1.78,4.75,4.75,0,0,1-2.41.66h0a4.54,4.54,0,0,1-1.88-.4,4.88,4.88,0,0,1-2.36-2.17A4.78,4.78,0,0,1,35.17,19ZM7.85,20.71H8v-.07h2.31v1.15a1.14,1.14,0,0,1-.16.57,1.06,1.06,0,0,1-.42.42A1,1,0,0,1,9,23H9a1.15,1.15,0,0,1-.8-.36,1.13,1.13,0,0,1-.32-.82ZM4.33,10.27l0-.25V9.13a1.13,1.13,0,0,1,.21-.66,1.16,1.16,0,0,1,.56-.41A.39.39,0,0,1,5.24,8a1,1,0,0,1,.25,0h7.24a1.32,1.32,0,0,1,.44.08,1.18,1.18,0,0,1,.37.26,1.05,1.05,0,0,1,.25.37,1.12,1.12,0,0,1,.09.44v1.16Zm5.93,5.44-2.41,0V11.62l2.41,0ZM51.92,2.53V5.45a1.25,1.25,0,0,1-.11.5,1.1,1.1,0,0,1-.32.39s0,0-.07.06a1.1,1.1,0,0,1-.71.27h-3V2.55Zm-7.79,0,.25,0h2V6.67H44.11Zm-5.44,0h4.1l0,.25V6.67H38.69Zm-3.6,0,.25,0,2,0V6.67H35.07Zm-5.41,0,.25,0,3.82,0,0,.25V6.67H29.65ZM26,2.55l.25,0,2,0V6.67H26Zm-5.41,0,.25,0,3.81,0,0,.25V6.67H20.61ZM43.1,10.86a9.38,9.38,0,0,0-7,.19,3.49,3.49,0,0,0-.34.15,9.18,9.18,0,0,0-4,4.11l-.12.21h-.24l-.09.19H20.61V8h.49v-.1H50.79a2.46,2.46,0,0,0,1-.23A2.5,2.5,0,0,0,52.65,7l.11-.15.1-.16a2.5,2.5,0,0,0,.29-1.17v-3l2.32,0,0,.24V16.16a2.83,2.83,0,0,1,0,.41,3,3,0,0,1-3,2.76H50.2L48.29,15.5A9.39,9.39,0,0,0,43.1,10.86Z" transform="translate(-1.25 -1.25)"/>
    <path class="cls-1" d="M37.62,19.14a2.52,2.52,0,0,0-.14,1.41,2.48,2.48,0,0,0,.67,1.24,2.42,2.42,0,0,0,2.64.52,2.43,2.43,0,0,0,1.09-.89,2.4,2.4,0,0,0,.22-2.28h0a2.43,2.43,0,0,0-1.31-1.31,2.48,2.48,0,0,0-.93-.18,2.41,2.41,0,0,0-1.35.41A2.35,2.35,0,0,0,37.62,19.14Zm1.12.71a1.13,1.13,0,0,1,.31-.59,1.16,1.16,0,0,1,.59-.31,1.15,1.15,0,0,1,.66.07,1.1,1.1,0,0,1,.51.42,1.13,1.13,0,0,1,.1,1.07h0a1.34,1.34,0,0,1-.25.37,1.24,1.24,0,0,1-.37.24.7.7,0,0,1-.19.06v0h-.25a1.12,1.12,0,0,1-.64-.19,1.12,1.12,0,0,1-.48-1.17Z" transform="translate(-1.25 -1.25)"/>
    <rect class="cls-1" x="21.68" y="9.05" width="1.28" height="1.28"/>
    <rect class="cls-1" x="25.3" y="9.05" width="1.28" height="1.28"/>
    <rect class="cls-1" x="28.92" y="9.05" width="1.28" height="1.28"/>
  </g>
</svg>
