<svg id="Layer_1" data-name="Layer 1" xmlns="http://www.w3.org/2000/svg" viewBox="0 0 52 28.42">
  <g>
    <path class="cls-1" d="M40.1,20.8a3,3,0,0,0-1.73.53,3.11,3.11,0,0,0-1.16,1.4A3.2,3.2,0,0,0,37,24.54a3.12,3.12,0,0,0,4.26,2.28,3.15,3.15,0,0,0,1.4-1.15,3.1,3.1,0,0,0,.53-1.74A3.14,3.14,0,0,0,40.1,20.8Zm1.31,4.43a1.83,1.83,0,0,1-2.33.24,1.89,1.89,0,0,1-.68-.83,1.87,1.87,0,0,1-.11-1.07,1.78,1.78,0,0,1,.51-.94,1.82,1.82,0,0,1,.94-.51,1.86,1.86,0,0,1,1.07.1A1.84,1.84,0,0,1,42,23.93,1.81,1.81,0,0,1,41.41,25.23Z" transform="translate(-1.13 -1.13)"/>
    <path class="cls-1" d="M11.32,20.8a3.1,3.1,0,0,0-1.74.53,3.15,3.15,0,0,0-1.15,1.4,3.11,3.11,0,0,0,.68,3.41,3.11,3.11,0,0,0,3.41.68,3.15,3.15,0,0,0,1.4-1.15,3.1,3.1,0,0,0,.53-1.74,3.16,3.16,0,0,0-.92-2.21A3.1,3.1,0,0,0,11.32,20.8Zm1.31,4.43a1.86,1.86,0,0,1-1.31.55h0a1.85,1.85,0,0,1-1-.31,1.89,1.89,0,0,1-.68-.83,1.87,1.87,0,0,1-.11-1.07A1.88,1.88,0,0,1,11,22.12a1.86,1.86,0,0,1,1.07.1,1.84,1.84,0,0,1,1.14,1.71A1.81,1.81,0,0,1,12.63,25.23Z" transform="translate(-1.13 -1.13)"/>
    <path class="cls-1" d="M53.06,10.46a.61.61,0,0,0,.07-.24.72.72,0,0,0,0-.25L51.93,6.32A.75.75,0,0,0,51.7,6a.68.68,0,0,0-.38-.12H48.68l-.62-2.14s0,0,0-.05a3.94,3.94,0,0,0-3.7-2.56H3a1.79,1.79,0,0,0-1.3.54A1.79,1.79,0,0,0,1.13,3V22.73A1.84,1.84,0,0,0,3,24.57H5.75v.11a5.61,5.61,0,0,0,11.12,0l0-.11H34.53v.11a5.62,5.62,0,0,0,11.13,0v-.11h3.94a1.84,1.84,0,0,0,1.84-1.84V17.44a15.47,15.47,0,0,0-1-5.5l-1.4-4.79h1.79l0,.09,1,3.12a.66.66,0,0,0,.12.22.65.65,0,0,0,.44.23.66.66,0,0,0,.24,0,.78.78,0,0,0,.22-.12A.62.62,0,0,0,53.06,10.46ZM2.41,3A.55.55,0,0,1,3,2.41H44.34a2.71,2.71,0,0,1,2.41,1.53l.09.18H2.41ZM39.27,5.4v7.48H37.65V5.4ZM30.7,10.51a.67.67,0,0,0-.91,0,.63.63,0,0,0-.18.45v1.92H28V5.4h1.62v2a.64.64,0,0,0,1.09.45.64.64,0,0,0,.19-.45v-2h5.48v7.48H30.89V11A.64.64,0,0,0,30.7,10.51Zm-4-5.11v7.48H21.23V5.4Zm-6.77,0v7.48H18.33V5.4ZM17,5.4v7.48H11.56V5.4Zm-6.76,0v7.48H8.66V5.4Zm-7.87,0h5v7.48h-5ZM14.38,27a4.27,4.27,0,0,1-3.06,1.27H11.2a4.2,4.2,0,0,1-2.28-.73,4.33,4.33,0,0,1-.66-6.67,4.37,4.37,0,0,1,2.22-1.18A4.33,4.33,0,0,1,14.38,27Zm28.78,0a4.33,4.33,0,0,1-3.06,1.27h0a4.27,4.27,0,0,1-2.4-.73,4.33,4.33,0,0,1-1.6-1.94,4.4,4.4,0,0,1-.25-2.51A4.35,4.35,0,0,1,37,20.86a4.41,4.41,0,0,1,2.22-1.18,4.28,4.28,0,0,1,2.5.25,4.33,4.33,0,0,1,2,1.59,4.4,4.4,0,0,1,.73,2.41A4.34,4.34,0,0,1,43.16,27Zm7-4.26a.56.56,0,0,1-.17.39.54.54,0,0,1-.39.17H45.68v-.11a5.62,5.62,0,0,0-11.13,0l0,.11H16.9v-.11a5.6,5.6,0,0,0-5.57-4.86,5.6,5.6,0,0,0-5.56,4.86l0,.11H3a.54.54,0,0,1-.4-.17.55.55,0,0,1-.16-.39V17.12H23.6a.65.65,0,0,0,0-1.29H2.41V14.16H39.33a1.57,1.57,0,0,1,1,.34L42,15.83H27.17a.68.68,0,0,0-.46.19.63.63,0,0,0-.18.45.63.63,0,0,0,.18.46.68.68,0,0,0,.46.19H43.56l.52.41a2.82,2.82,0,0,0,1.76.62h4.34Zm-.94-10.4a14.45,14.45,0,0,1,.91,4.42h-.09l0,.12-.17.06v-.05H45.84a1.54,1.54,0,0,1-1-.34l-3.78-3a2.46,2.46,0,0,0-.48-.31l-.07,0V5.4h6.66Z" transform="translate(-1.13 -1.13)"/>
  </g>
</svg>
