<svg width="47" height="35" viewBox="0 0 47 35"  xmlns="http://www.w3.org/2000/svg">
<path d="M35.073 14.246C35.1932 14.2462 35.3112 14.2146 35.4152 14.1543C35.5191 14.0941 35.6053 14.0074 35.6648 13.903C35.7244 13.7987 35.7552 13.6804 35.7542 13.5602C35.7531 13.4401 35.7203 13.3223 35.659 13.219L33.502 8.90401C33.4455 8.79092 33.3585 8.69583 33.251 8.62941C33.1434 8.56299 33.0194 8.52788 32.893 8.52802H28.265C28.0844 8.52802 27.9112 8.59976 27.7835 8.72747C27.6557 8.85518 27.584 9.0284 27.584 9.20902V13.565C27.584 13.7456 27.6557 13.9188 27.7835 14.0466C27.9112 14.1743 28.0844 14.246 28.265 14.246H35.071H35.073ZM28.946 12.885V9.89101H32.473L33.973 12.886L28.946 12.885Z" />
<path d="M28.266 15.612C28.1744 15.6085 28.0831 15.6235 27.9975 15.6561C27.9119 15.6887 27.8337 15.7383 27.7677 15.8018C27.7017 15.8654 27.6491 15.9416 27.6133 16.0259C27.5774 16.1102 27.5589 16.2009 27.5589 16.2925C27.5589 16.3841 27.5774 16.4748 27.6133 16.5591C27.6491 16.6435 27.7017 16.7196 27.7677 16.7832C27.8337 16.8467 27.9119 16.8963 27.9975 16.9289C28.0831 16.9615 28.1744 16.9765 28.266 16.973H29.989C30.165 16.9663 30.3315 16.8916 30.4536 16.7647C30.5757 16.6379 30.6439 16.4686 30.6439 16.2925C30.6439 16.1164 30.5757 15.9472 30.4536 15.8203C30.3315 15.6934 30.165 15.6188 29.989 15.612H28.266Z" />
<path d="M44.418 23.956H44.282V16.618C44.2833 16.1171 44.1328 15.6275 43.8504 15.2137C43.568 14.7999 43.167 14.4814 42.7 14.3L39.849 13.182C39.5972 13.0832 39.389 12.8978 39.262 12.659L36.275 7.041C36.0632 6.64128 35.7464 6.30682 35.3588 6.07356C34.9712 5.84029 34.5274 5.71702 34.075 5.717H28.629C28.453 5.72375 28.2865 5.79839 28.1644 5.92527C28.0423 6.05216 27.9741 6.22141 27.9741 6.3975C27.9741 6.5736 28.0423 6.74284 28.1644 6.86973C28.2865 6.99661 28.453 7.07125 28.629 7.078H34.072C34.2774 7.07785 34.479 7.13362 34.6552 7.23932C34.8314 7.34502 34.9754 7.49666 35.072 7.678L38.057 13.291C38.3365 13.8166 38.7948 14.2248 39.349 14.442L42.199 15.56C42.4118 15.6424 42.5946 15.7875 42.7232 15.9761C42.8517 16.1646 42.92 16.3878 42.919 16.616V23.953H38.576C37.4178 22.9021 35.9099 22.32 34.346 22.32C32.7821 22.32 31.2742 22.9021 30.116 23.953H26.133V4.356H31.713C32.1338 4.35521 32.5372 4.18761 32.8347 3.88995C33.1321 3.59228 33.2995 3.18883 33.3 2.768V1.588C33.2995 1.16734 33.1323 0.76404 32.835 0.466404C32.5378 0.168768 32.1347 0.00105792 31.714 0H24.273C23.61 0 22.9741 0.263392 22.5052 0.732233C22.0364 1.20107 21.773 1.83696 21.773 2.5V5.717H15.103C14.927 5.72375 14.7605 5.79839 14.6384 5.92527C14.5163 6.05216 14.4481 6.22141 14.4481 6.3975C14.4481 6.5736 14.5163 6.74284 14.6384 6.86973C14.7605 6.99661 14.927 7.07125 15.103 7.078H22.453C22.6336 7.078 22.8068 7.00625 22.9345 6.87854C23.0623 6.75083 23.134 6.57761 23.134 6.397V2.5C23.1343 2.19933 23.2538 1.91104 23.4664 1.69843C23.679 1.48582 23.9673 1.36626 24.268 1.366H31.709C31.7692 1.366 31.8269 1.38992 31.8695 1.43249C31.9121 1.47506 31.936 1.5328 31.936 1.593V2.773C31.936 2.8332 31.9121 2.89094 31.8695 2.93351C31.8269 2.97608 31.7692 3 31.709 3H25.453C25.2724 3 25.0992 3.07175 24.9715 3.19946C24.8437 3.32717 24.772 3.50039 24.772 3.681V8.711H1.361V7.078H11.932C12.108 7.07125 12.2745 6.99661 12.3966 6.86973C12.5187 6.74284 12.5869 6.5736 12.5869 6.3975C12.5869 6.22141 12.5187 6.05216 12.3966 5.92527C12.2745 5.79839 12.108 5.72375 11.932 5.717H0.680999C0.5914 5.717 0.502682 5.73468 0.419929 5.76903C0.337176 5.80338 0.262014 5.85372 0.198751 5.91717C0.135488 5.98062 0.0853676 6.05592 0.051262 6.13878C0.0171564 6.22163 -0.000264016 6.3104 -8.77572e-07 6.4V17.831C-8.45058e-05 17.9227 0.0182796 18.0135 0.0539991 18.098L2.554 23.956H2.4C1.97987 23.9578 1.57754 24.1259 1.28093 24.4235C0.984313 24.721 0.817523 25.1239 0.816999 25.544V27.722C0.817787 28.142 0.984694 28.5446 1.28128 28.8419C1.57786 29.1392 1.98004 29.3072 2.4 29.309H3.576C3.74413 30.8542 4.47704 32.2829 5.63405 33.3209C6.79106 34.3588 8.29065 34.9329 9.845 34.9329C11.3994 34.9329 12.8989 34.3588 14.056 33.3209C15.213 32.2829 15.9459 30.8542 16.114 29.309H22.276C22.4565 29.309 22.6296 29.2373 22.7572 29.1097C22.8848 28.9821 22.9565 28.809 22.9565 28.6285C22.9565 28.448 22.8848 28.2749 22.7572 28.1473C22.6296 28.0197 22.4565 27.948 22.276 27.948H16.115C16.0143 27.0138 15.7047 26.1142 15.209 25.316H28.982C28.4863 26.1142 28.1767 27.0138 28.076 27.948H25.09C24.9095 27.948 24.7364 28.0197 24.6088 28.1473C24.4812 28.2749 24.4095 28.448 24.4095 28.6285C24.4095 28.809 24.4812 28.9821 24.6088 29.1097C24.7364 29.2373 24.9095 29.309 25.09 29.309H28.076C28.2431 30.8552 28.9756 32.285 30.1328 33.3239C31.29 34.3628 32.7904 34.9375 34.3455 34.9375C35.9007 34.9375 37.401 34.3628 38.5582 33.3239C39.7154 32.285 40.4479 30.8552 40.615 29.309H44.415C44.836 29.3085 45.2396 29.141 45.5373 28.8433C45.835 28.5456 46.0025 28.142 46.003 27.721V25.544C46.0025 25.1235 45.8354 24.7204 45.5384 24.4228C45.2413 24.1251 44.8385 23.9573 44.418 23.956ZM1.361 17.692V10.072H24.772V23.956H23.048V15.834C23.0696 15.4931 23.0211 15.1513 22.9055 14.8299C22.7899 14.5084 22.6096 14.2141 22.3758 13.965C22.142 13.7159 21.8596 13.5174 21.5461 13.3817C21.2326 13.246 20.8946 13.176 20.553 13.176C20.2114 13.176 19.8734 13.246 19.5599 13.3817C19.2464 13.5174 18.964 13.7159 18.7302 13.965C18.4964 14.2141 18.3161 14.5084 18.2005 14.8299C18.0849 15.1513 18.0364 15.4931 18.058 15.834V23.955H16.606V15.834C16.5678 15.1981 16.2882 14.6007 15.8244 14.1639C15.3606 13.7272 14.7476 13.4839 14.1105 13.4839C13.4734 13.4839 12.8604 13.7272 12.3966 14.1639C11.9328 14.6007 11.6532 15.1981 11.615 15.834V22.577C11.1424 22.4381 10.655 22.3555 10.163 22.331V15.831C10.1248 15.1951 9.84524 14.5977 9.38144 14.1609C8.91764 13.7242 8.30459 13.4809 7.6675 13.4809C7.03041 13.4809 6.41736 13.7242 5.95356 14.1609C5.48976 14.5977 5.21021 15.1951 5.172 15.831V23.952H4.034L1.361 17.692ZM6.533 23.265V15.835C6.533 15.5342 6.65247 15.2458 6.86514 15.0331C7.07781 14.8205 7.36624 14.701 7.667 14.701C7.96775 14.701 8.25619 14.8205 8.46886 15.0331C8.68152 15.2458 8.801 15.5342 8.801 15.835V22.41C7.99648 22.5444 7.22601 22.8348 6.533 23.265ZM2.178 27.721V25.544C2.178 25.4838 2.20192 25.4261 2.24449 25.3835C2.28706 25.3409 2.34479 25.317 2.405 25.317H4.482C3.98647 26.1149 3.67682 27.0141 3.576 27.948H2.4C2.34058 27.9469 2.28397 27.9225 2.24242 27.8801C2.20087 27.8376 2.17773 27.7804 2.178 27.721ZM9.846 33.574C8.86797 33.574 7.91191 33.284 7.0987 32.7406C6.2855 32.1973 5.65169 31.4249 5.27741 30.5214C4.90314 29.6178 4.80521 28.6235 4.99602 27.6643C5.18682 26.705 5.65779 25.8239 6.34936 25.1324C7.04093 24.4408 7.92204 23.9698 8.88128 23.779C9.84051 23.5882 10.8348 23.6861 11.7384 24.0604C12.6419 24.4347 13.4143 25.0685 13.9576 25.8817C14.501 26.6949 14.791 27.651 14.791 28.629C14.7894 29.9402 14.2678 31.1972 13.3405 32.1242C12.4133 33.0513 11.1562 33.5727 9.845 33.574H9.846ZM14.076 23.955C13.739 23.6498 13.3702 23.3816 12.976 23.155V15.835C12.976 15.5342 13.0955 15.2458 13.3081 15.0331C13.5208 14.8205 13.8092 14.701 14.11 14.701C14.4108 14.701 14.6992 14.8205 14.9119 15.0331C15.1245 15.2458 15.244 15.5342 15.244 15.835V23.956H14.076V23.955ZM19.419 23.955V15.834C19.419 15.5332 19.5385 15.2448 19.7511 15.0321C19.9638 14.8195 20.2522 14.7 20.553 14.7C20.8538 14.7 21.1422 14.8195 21.3549 15.0321C21.5675 15.2448 21.687 15.5332 21.687 15.834V23.955H19.419ZM34.346 33.574C33.368 33.574 32.4119 33.284 31.5987 32.7406C30.7855 32.1973 30.1517 31.4249 29.7774 30.5214C29.4031 29.6178 29.3052 28.6235 29.496 27.6643C29.6868 26.705 30.1578 25.8239 30.8494 25.1324C31.5409 24.4408 32.422 23.9698 33.3813 23.779C34.3405 23.5882 35.3348 23.6861 36.2384 24.0604C37.1419 24.4347 37.9143 25.0685 38.4576 25.8817C39.001 26.6949 39.291 27.651 39.291 28.629C39.2894 29.94 38.7679 31.1969 37.8409 32.1239C36.9139 33.0509 35.657 33.5724 34.346 33.574ZM44.646 27.721C44.646 27.7812 44.6221 27.8389 44.5795 27.8815C44.5369 27.9241 44.4792 27.948 44.419 27.948H40.619C40.5183 27.0138 40.2086 26.1143 39.713 25.316H44.422C44.4822 25.316 44.5399 25.3399 44.5825 25.3825C44.6251 25.4251 44.649 25.4828 44.649 25.543L44.646 27.721Z" />
<path d="M34.341 25.408C33.704 25.408 33.0812 25.5969 32.5515 25.9509C32.0218 26.3048 31.609 26.8078 31.3652 27.3964C31.1214 27.985 31.0576 28.6326 31.1819 29.2574C31.3062 29.8822 31.613 30.4562 32.0634 30.9066C32.5139 31.3571 33.0878 31.6639 33.7126 31.7881C34.3374 31.9124 34.9851 31.8486 35.5736 31.6048C36.1622 31.361 36.6652 30.9482 37.0192 30.4185C37.3731 29.8888 37.562 29.2661 37.562 28.629C37.561 27.7751 37.2213 26.9564 36.6174 26.3526C36.0136 25.7488 35.1949 25.4091 34.341 25.408ZM34.341 30.489C33.9731 30.489 33.6135 30.3799 33.3077 30.1756C33.0018 29.9712 32.7634 29.6807 32.6226 29.3408C32.4818 29.0009 32.445 28.6269 32.5167 28.2661C32.5885 27.9053 32.7657 27.5739 33.0258 27.3138C33.2859 27.0537 33.6173 26.8765 33.9781 26.8048C34.3389 26.733 34.7129 26.7698 35.0528 26.9106C35.3927 27.0514 35.6832 27.2898 35.8875 27.5957C36.0919 27.9015 36.201 28.2612 36.201 28.629C36.2005 29.1222 36.0043 29.595 35.6556 29.9437C35.3069 30.2924 34.8341 30.4885 34.341 30.489Z" />
<path d="M9.845 25.408C9.20795 25.408 8.5852 25.5969 8.05551 25.9509C7.52581 26.3048 7.11298 26.8078 6.86919 27.3964C6.6254 27.985 6.56161 28.6326 6.68589 29.2574C6.81017 29.8822 7.11694 30.4562 7.56741 30.9066C8.01787 31.3571 8.5918 31.6639 9.21662 31.7881C9.84143 31.9124 10.4891 31.8486 11.0776 31.6048C11.6662 31.361 12.1692 30.9482 12.5232 30.4185C12.8771 29.8888 13.066 29.2661 13.066 28.629C13.0649 27.7751 12.7252 26.9564 12.1214 26.3526C11.5176 25.7488 10.6989 25.4091 9.845 25.408ZM9.845 30.489C9.47713 30.489 9.11752 30.3799 8.81164 30.1756C8.50576 29.9712 8.26736 29.6807 8.12658 29.3408C7.9858 29.0009 7.94897 28.6269 8.02074 28.2661C8.09251 27.9053 8.26965 27.5739 8.52978 27.3138C8.7899 27.0537 9.12133 26.8765 9.48213 26.8048C9.84294 26.733 10.2169 26.7698 10.5568 26.9106C10.8967 27.0514 11.1872 27.2898 11.3915 27.5957C11.5959 27.9015 11.705 28.2612 11.705 28.629C11.7045 29.1222 11.5083 29.595 11.1596 29.9437C10.8109 30.2924 10.3381 30.4885 9.845 30.489Z" />
</svg>
