<svg width="41" height="41" viewBox="0 0 41 41"  xmlns="http://www.w3.org/2000/svg">
<path d="M2.586 35.5183C2.586 35.8941 2.69743 36.2615 2.90621 36.5739C3.11498 36.8864 3.41172 37.1299 3.7589 37.2737C4.10608 37.4175 4.48811 37.4551 4.85667 37.3818C5.22523 37.3085 5.56378 37.1276 5.8295 36.8618C6.09522 36.5961 6.27618 36.2576 6.34949 35.889C6.4228 35.5204 6.38518 35.1384 6.24137 34.7913C6.09756 34.4441 5.85403 34.1473 5.54158 33.9386C5.22913 33.7298 4.86178 33.6183 4.486 33.6183C3.98209 33.6183 3.49881 33.8185 3.14249 34.1748C2.78618 34.5312 2.586 35.0144 2.586 35.5183ZM5.172 35.5183C5.17083 35.6691 5.12005 35.8152 5.0275 35.9342C4.93496 36.0532 4.8058 36.1384 4.66 36.1766C4.51419 36.2148 4.35985 36.204 4.22084 36.1457C4.08182 36.0874 3.96586 35.985 3.89089 35.8542C3.81592 35.7235 3.7861 35.5716 3.80605 35.4222C3.826 35.2728 3.8946 35.1342 4.00126 35.0276C4.10791 34.9211 4.24668 34.8527 4.39611 34.8329C4.54555 34.8132 4.69733 34.8432 4.828 34.9183C4.9332 34.9791 5.02045 35.0666 5.08087 35.172C5.14129 35.2774 5.17273 35.3969 5.172 35.5183Z" />
<path d="M9.658 37.4183C10.0338 37.4183 10.4011 37.3069 10.7136 37.0982C11.026 36.8894 11.2696 36.5926 11.4134 36.2455C11.5572 35.8983 11.5948 35.5162 11.5215 35.1477C11.4482 34.7791 11.2672 34.4406 11.0015 34.1748C10.7358 33.9091 10.3972 33.7282 10.0287 33.6549C9.6601 33.5815 9.27808 33.6192 8.9309 33.763C8.58372 33.9068 8.28698 34.1503 8.0782 34.4628C7.86943 34.7752 7.758 35.1426 7.758 35.5184C7.758 36.0223 7.95817 36.5055 8.31449 36.8619C8.67081 37.2182 9.15409 37.4183 9.658 37.4183ZM9.658 34.8323C9.79387 34.8323 9.9267 34.8726 10.0397 34.9481C10.1526 35.0236 10.2407 35.1309 10.2927 35.2564C10.3447 35.382 10.3583 35.5201 10.3318 35.6534C10.3053 35.7867 10.2399 35.9091 10.1438 36.0051C10.0477 36.1012 9.92529 36.1666 9.79202 36.1932C9.65876 36.2197 9.52063 36.2061 9.3951 36.1541C9.26956 36.1021 9.16227 36.014 9.08678 35.901C9.01129 35.7881 8.97099 35.6552 8.97099 35.5194C8.97033 35.4289 8.98764 35.3391 9.0219 35.2554C9.05617 35.1716 9.10672 35.0955 9.17062 35.0314C9.23452 34.9673 9.3105 34.9165 9.39416 34.882C9.47782 34.8475 9.5675 34.83 9.658 34.8304V34.8323Z" />
<path d="M14.83 37.4183C15.2058 37.4183 15.5731 37.3069 15.8856 37.0982C16.198 36.8894 16.4416 36.5926 16.5854 36.2455C16.7292 35.8983 16.7668 35.5162 16.6935 35.1477C16.6202 34.7791 16.4392 34.4406 16.1735 34.1748C15.9078 33.9091 15.5692 33.7282 15.2007 33.6549C14.8321 33.5815 14.4501 33.6192 14.1029 33.763C13.7557 33.9068 13.459 34.1503 13.2502 34.4628C13.0414 34.7752 12.93 35.1426 12.93 35.5184C12.93 36.0223 13.1302 36.5055 13.4865 36.8619C13.8428 37.2182 14.3261 37.4183 14.83 37.4183ZM14.83 34.8323C14.9659 34.8323 15.0987 34.8726 15.2117 34.9481C15.3246 35.0236 15.4127 35.1309 15.4647 35.2564C15.5167 35.382 15.5303 35.5201 15.5038 35.6534C15.4773 35.7867 15.4119 35.9091 15.3158 36.0051C15.2197 36.1012 15.0973 36.1666 14.964 36.1932C14.8308 36.2197 14.6926 36.2061 14.5671 36.1541C14.4416 36.1021 14.3343 36.014 14.2588 35.901C14.1833 35.7881 14.143 35.6552 14.143 35.5194C14.1423 35.4289 14.1596 35.3391 14.1939 35.2554C14.2282 35.1716 14.2787 35.0955 14.3426 35.0314C14.4065 34.9673 14.4825 34.9165 14.5661 34.882C14.6498 34.8475 14.7395 34.83 14.83 34.8304V34.8323Z" />
<path d="M20.002 37.4183C20.3778 37.4183 20.7451 37.3069 21.0576 37.0982C21.37 36.8894 21.6135 36.5926 21.7574 36.2455C21.9012 35.8983 21.9388 35.5162 21.8655 35.1477C21.7922 34.7791 21.6112 34.4406 21.3455 34.1748C21.0798 33.9091 20.7412 33.7282 20.3727 33.6549C20.0041 33.5815 19.6221 33.6192 19.2749 33.763C18.9277 33.9068 18.631 34.1503 18.4222 34.4628C18.2134 34.7752 18.102 35.1426 18.102 35.5184C18.102 36.0223 18.3022 36.5055 18.6585 36.8619C19.0148 37.2182 19.4981 37.4183 20.002 37.4183ZM20.002 34.8323C20.1379 34.8323 20.2707 34.8726 20.3837 34.9481C20.4966 35.0236 20.5847 35.1309 20.6367 35.2564C20.6887 35.382 20.7023 35.5201 20.6758 35.6534C20.6493 35.7867 20.5839 35.9091 20.4878 36.0051C20.3917 36.1012 20.2693 36.1666 20.136 36.1932C20.0028 36.2197 19.8646 36.2061 19.7391 36.1541C19.6136 36.1021 19.5063 36.014 19.4308 35.901C19.3553 35.7881 19.315 35.6552 19.315 35.5194C19.3143 35.4289 19.3316 35.3391 19.3659 35.2554C19.4002 35.1716 19.4507 35.0955 19.5146 35.0314C19.5785 34.9673 19.6545 34.9165 19.7381 34.882C19.8218 34.8475 19.9115 34.83 20.002 34.8304V34.8323Z" />
<path d="M5.132 25.1333H5.779C5.93972 25.1333 6.09386 25.0695 6.20751 24.9558C6.32116 24.8422 6.385 24.688 6.385 24.5273C6.385 24.3666 6.32116 24.2125 6.20751 24.0988C6.09386 23.9852 5.93972 23.9213 5.779 23.9213H5.132C4.97128 23.9213 4.81714 23.9852 4.7035 24.0988C4.58985 24.2125 4.526 24.3666 4.526 24.5273C4.526 24.688 4.58985 24.8422 4.7035 24.9558C4.81714 25.0695 4.97128 25.1333 5.132 25.1333Z" />
<path d="M5.132 27.0724H5.779C5.93972 27.0724 6.09386 27.0085 6.20751 26.8949C6.32116 26.7812 6.385 26.6271 6.385 26.4663C6.385 26.3056 6.32116 26.1515 6.20751 26.0378C6.09386 25.9242 5.93972 25.8604 5.779 25.8604H5.132C4.97128 25.8604 4.81714 25.9242 4.7035 26.0378C4.58985 26.1515 4.526 26.3056 4.526 26.4663C4.526 26.6271 4.58985 26.7812 4.7035 26.8949C4.81714 27.0085 4.97128 27.0724 5.132 27.0724Z" />
<path d="M40.392 20.9883L30.085 1.51433C29.9019 1.10064 29.6118 0.74326 29.2446 0.479027C28.8773 0.214793 28.4463 0.0532626 27.9959 0.0110826C27.5455 -0.0310975 27.0919 0.0475989 26.682 0.239061C26.2721 0.430524 25.9207 0.727825 25.664 1.10033L15.8 14.2503C15.6627 14.2324 15.5244 14.2234 15.386 14.2233H10.95C10.1041 14.2254 9.29341 14.5624 8.69525 15.1606C8.09709 15.7587 7.76011 16.5694 7.758 17.4153V21.3343H3.839C3.33509 21.3343 2.85182 21.5345 2.4955 21.8908C2.13918 22.2471 1.939 22.7304 1.939 23.2343V27.7603C1.939 28.2642 2.13918 28.7475 2.4955 29.1038C2.85182 29.4601 3.33509 29.6603 3.839 29.6603H9.051V31.0343H4.485C3.2955 31.0343 2.15473 31.5068 1.31363 32.3479C0.472525 33.189 0 34.3298 0 35.5193C0 36.7088 0.472525 37.8496 1.31363 38.6907C2.15473 39.5318 3.2955 40.0043 4.485 40.0043H20C21.1895 40.0043 22.3303 39.5318 23.1714 38.6907C24.0125 37.8496 24.485 36.7088 24.485 35.5193C24.485 34.3298 24.0125 33.189 23.1714 32.3479C22.3303 31.5068 21.1895 31.0343 20 31.0343H15.435V29.6583H20.647C20.7266 29.6583 20.8054 29.6427 20.8789 29.6122C20.9524 29.5817 21.0192 29.5371 21.0755 29.4808C21.1318 29.4246 21.1764 29.3578 21.2069 29.2842C21.2373 29.2107 21.253 29.1319 21.253 29.0523V27.0723H21.964H22.002H22.021L22.062 27.0663L22.094 27.0583L22.12 27.0513L22.139 27.0443L22.175 27.0313C22.21 27.0165 22.2435 26.9984 22.275 26.9773L22.298 26.9603L22.322 26.9423L22.346 26.9213L22.365 26.9033L22.381 26.8853L22.404 26.8603L22.412 26.8503C22.421 26.8383 22.431 26.8263 22.439 26.8133L22.45 26.7953C22.457 26.7843 22.463 26.7743 22.47 26.7633C22.517 26.6742 22.542 26.5751 22.543 26.4743V24.1533C22.5442 23.0125 22.2066 21.897 21.573 20.9483L20.612 19.5073L27.271 8.32833L37.109 22.9003C37.3409 23.2975 37.7084 23.5976 38.144 23.7453V24.7453L37.967 24.3053C37.9374 24.2315 37.8935 24.1641 37.8379 24.1072C37.7823 24.0503 37.716 24.0049 37.6428 23.9736C37.5696 23.9423 37.491 23.9258 37.4114 23.9248C37.3318 23.9239 37.2529 23.9387 37.179 23.9683L28.9 27.2923L27.473 26.1163C27.3487 26.0167 27.1902 25.97 27.0318 25.9863C26.8734 26.0027 26.7277 26.0807 26.6264 26.2036C26.5251 26.3265 26.4762 26.4843 26.4903 26.643C26.5045 26.8016 26.5805 26.9483 26.702 27.0513L31.176 30.7393C31.7977 31.2519 32.5461 31.5874 33.3424 31.7106C34.1387 31.8338 34.9535 31.7401 35.701 31.4393L37.764 30.6103C38.1864 30.4403 38.5554 30.1602 38.8328 29.7991C39.1101 29.4381 39.2856 29.0092 39.341 28.5573C39.3542 28.5074 39.3609 28.456 39.361 28.4043V23.7403C39.6275 23.6502 39.8708 23.5021 40.0731 23.3066C40.2754 23.1111 40.4318 22.873 40.5309 22.6097C40.63 22.3464 40.6694 22.0644 40.6463 21.784C40.6231 21.5036 40.538 21.2318 40.397 20.9883H40.392ZM7.758 28.4463H3.839C3.65688 28.4461 3.48229 28.3736 3.35351 28.2448C3.22473 28.116 3.15226 27.9415 3.152 27.7593V23.2343C3.15226 23.0522 3.22473 22.8776 3.35351 22.7488C3.48229 22.6201 3.65688 22.5476 3.839 22.5473H7.758V28.4463ZM37.307 29.4863L35.244 30.3153C34.6987 30.5343 34.1044 30.6023 33.5237 30.5122C32.943 30.4221 32.3973 30.1772 31.944 29.8033L29.961 28.1703L37.068 25.3153L38.047 27.7523C38.1786 28.0806 38.1746 28.4476 38.0359 28.7729C37.8971 29.0982 37.635 29.3551 37.307 29.4873V29.4863ZM27.759 1.21233C27.996 1.21247 28.2286 1.27573 28.433 1.39559C28.6374 1.51546 28.8062 1.6876 28.922 1.89433C28.9308 1.91862 28.9412 1.94233 28.953 1.96533L28.992 2.03933C29.0718 2.2317 29.1051 2.44019 29.0891 2.64784C29.0731 2.85549 29.0083 3.05644 28.9 3.23433L28.888 3.25233L28.863 3.29533C28.7338 3.48556 28.5575 3.63913 28.3514 3.74111C28.1453 3.84309 27.9163 3.89 27.6866 3.87729C27.457 3.86457 27.2346 3.79267 27.041 3.66856C26.8474 3.54446 26.6891 3.37237 26.5817 3.16903C26.4743 2.96569 26.4213 2.73801 26.4279 2.50813C26.4345 2.27825 26.5004 2.05398 26.6193 1.85713C26.7382 1.66028 26.906 1.49754 27.1064 1.38472C27.3068 1.27191 27.533 1.21286 27.763 1.21333L27.759 1.21233ZM20 32.2443C20.8681 32.2443 21.7006 32.5892 22.3144 33.203C22.9282 33.8168 23.273 34.6493 23.273 35.5173C23.273 36.3854 22.9282 37.2179 22.3144 37.8317C21.7006 38.4455 20.8681 38.7903 20 38.7903H4.485C3.61695 38.7903 2.78445 38.4455 2.17064 37.8317C1.55683 37.2179 1.212 36.3854 1.212 35.5173C1.212 34.6493 1.55683 33.8168 2.17064 33.203C2.78445 32.5892 3.61695 32.2443 4.485 32.2443H20ZM10.262 31.0323V29.6583H14.222V31.0323H10.262ZM20.04 28.4463H8.97V21.9463V17.4153C8.97046 16.9963 9.10367 16.5881 9.35053 16.2494C9.59738 15.9108 9.94518 15.659 10.344 15.5303V24.2363C10.3442 24.5896 10.4468 24.9353 10.6394 25.2315C10.8319 25.5277 11.1062 25.7617 11.429 25.9053C13.1596 26.6775 15.0339 27.0751 16.929 27.0723H20.045L20.04 28.4463ZM21.333 24.1533V25.8603H16.926C16.2096 25.8605 15.4946 25.7982 14.789 25.6743V17.4153C14.789 17.2546 14.7252 17.1005 14.6115 16.9868C14.4979 16.8732 14.3437 16.8093 14.183 16.8093C14.0223 16.8093 13.8681 16.8732 13.7545 16.9868C13.6408 17.1005 13.577 17.2546 13.577 17.4153V25.4003C13.0118 25.2399 12.4587 25.0394 11.922 24.8003C11.8133 24.752 11.721 24.6732 11.6562 24.5734C11.5914 24.4737 11.557 24.3573 11.557 24.2383V15.4383H15.386C15.712 15.4381 16.033 15.5185 16.3203 15.6724C16.6077 15.8263 16.8525 16.0489 17.033 16.3203L20.569 21.6203C21.0695 22.3702 21.3361 23.2518 21.335 24.1533H21.333ZM19.869 18.3893L18.039 15.6443C17.7712 15.2433 17.416 14.9082 17 14.6643L25.39 3.48233C25.5781 3.95647 25.9041 4.36327 26.3259 4.65011C26.7477 4.93696 27.2459 5.09066 27.756 5.09133H27.789L19.869 18.3893ZM37.192 20.8543L27.96 7.17733L29.9 3.92333C29.917 3.89733 29.933 3.87133 29.949 3.84433L38.528 20.0553C38.2619 20.0869 38.0054 20.1744 37.7755 20.3121C37.5456 20.4498 37.3474 20.6346 37.194 20.8543H37.192ZM38.748 22.6283C38.6121 22.6283 38.4793 22.588 38.3663 22.5125C38.2533 22.4371 38.1653 22.3298 38.1133 22.2042C38.0613 22.0787 38.0477 21.9406 38.0742 21.8073C38.1007 21.674 38.1661 21.5516 38.2622 21.4555C38.3583 21.3595 38.4807 21.294 38.614 21.2675C38.7472 21.241 38.8854 21.2546 39.0109 21.3066C39.1364 21.3586 39.2437 21.4467 39.3192 21.5596C39.3947 21.6726 39.435 21.8055 39.435 21.9413C39.4347 22.1231 39.3625 22.2974 39.2342 22.4261C39.1059 22.5548 38.9318 22.6275 38.75 22.6283H38.748Z" />
</svg>
