<svg width="12" height="13" viewBox="0 0 12 13"  xmlns="http://www.w3.org/2000/svg">
<path d="M11.6569 10.9398L7.13137 6.41429L11.6569 1.88881C11.8069 1.73878 11.8912 1.5353 11.8912 1.32313C11.8912 1.11095 11.8069 0.907469 11.6569 0.75744C11.5068 0.607411 11.3033 0.523126 11.0912 0.523126C10.879 0.523126 10.6755 0.607411 10.5255 0.75744L6 5.28292L1.47452 0.75744C1.32449 0.607411 1.121 0.523126 0.908831 0.523126C0.696658 0.523126 0.493175 0.607411 0.343146 0.75744C0.193117 0.907469 0.108831 1.11095 0.108831 1.32313C0.108831 1.5353 0.193117 1.73878 0.343146 1.88881L4.86863 6.41429L0.343146 10.9398C0.193117 11.0898 0.108832 11.2933 0.108832 11.5055C0.108832 11.7176 0.193117 11.9211 0.343146 12.0711C0.493175 12.2212 0.696658 12.3055 0.908831 12.3055C1.121 12.3055 1.32449 12.2212 1.47452 12.0711L6 7.54567L10.5255 12.0711C10.5998 12.1454 10.688 12.2044 10.785 12.2446C10.8821 12.2848 10.9861 12.3055 11.0912 12.3055C11.1962 12.3055 11.3003 12.2848 11.3973 12.2446C11.4944 12.2044 11.5826 12.1454 11.6569 12.0711C11.7311 11.9969 11.7901 11.9087 11.8303 11.8116C11.8705 11.7145 11.8912 11.6105 11.8912 11.5055C11.8912 11.4004 11.8705 11.2964 11.8303 11.1993C11.7901 11.1023 11.7311 11.0141 11.6569 10.9398Z" />
</svg>
