<svg width="48" height="37" viewBox="0 0 48 37" fill="none" xmlns="http://www.w3.org/2000/svg">
<path d="M38.0279 24.5857C38.7772 24.5859 39.5096 24.8082 40.1326 25.2247C40.7555 25.6411 41.2409 26.2328 41.5276 26.9252C41.8142 27.6175 41.8891 28.3792 41.7428 29.1141C41.5965 29.849 41.2356 30.524 40.7057 31.0537C40.1758 31.5835 39.5007 31.9443 38.7658 32.0904C38.0309 32.2365 37.2691 32.1614 36.5769 31.8746C35.8847 31.5879 35.293 31.1022 34.8767 30.4792C34.4605 29.8562 34.2383 29.1237 34.2383 28.3744C34.2395 27.3698 34.6392 26.4067 35.3496 25.6964C36.0601 24.9861 37.0233 24.5867 38.0279 24.5857ZM38.0279 30.8296C38.5135 30.8296 38.9882 30.6856 39.3919 30.4158C39.7957 30.146 40.1104 29.7626 40.2962 29.3139C40.482 28.8653 40.5306 28.3717 40.4359 27.8954C40.3412 27.4192 40.1073 26.9817 39.764 26.6383C39.4206 26.295 38.9831 26.0611 38.5069 25.9664C38.0306 25.8717 37.537 25.9203 37.0884 26.1061C36.6397 26.2919 36.2563 26.6066 35.9865 27.0104C35.7167 27.4141 35.5727 27.8888 35.5727 28.3744C35.5735 29.0253 35.8324 29.6494 36.2926 30.1097C36.7529 30.5699 37.377 30.8289 38.0279 30.8296Z" fill="#081A3E" stroke="white" stroke-width="0.13"/>
<path d="M6.73828 28.3753C6.7381 27.6257 6.96019 26.8929 7.37649 26.2696C7.79279 25.6463 8.38459 25.1604 9.07704 24.8734C9.76949 24.5865 10.5315 24.5113 11.2666 24.6574C12.0018 24.8035 12.6772 25.1644 13.2073 25.6944C13.7373 26.2243 14.0983 26.8996 14.2446 27.6347C14.3909 28.3698 14.316 29.1318 14.0292 29.8244C13.7423 30.5169 13.2566 31.1088 12.6334 31.5252C12.0102 31.9417 11.2775 32.164 10.5279 32.164C9.52328 32.163 8.56008 31.7636 7.84963 31.0533C7.13917 30.343 6.73949 29.3799 6.73828 28.3753ZM12.9822 28.3753C12.9822 27.8897 12.8382 27.415 12.5684 27.0112C12.2986 26.6075 11.9152 26.2928 11.4665 26.107C11.0179 25.9212 10.5243 25.8725 10.048 25.9673C9.57176 26.062 9.13427 26.2958 8.79091 26.6392C8.44755 26.9826 8.21371 27.42 8.11898 27.8963C8.02424 28.3726 8.07288 28.8662 8.25871 29.3148C8.44454 29.7634 8.75923 30.1469 9.16298 30.4167C9.56673 30.6864 10.0414 30.8305 10.527 30.8305C11.1781 30.83 11.8024 30.5712 12.2628 30.1109C12.7233 29.6505 12.9824 29.0263 12.9831 28.3753H12.9822Z" fill="#081A3E" stroke="white" stroke-width="0.13"/>
<path d="M1.86597 12.1497L2.96203 11.6692C3.99416 11.2162 5.1093 10.9829 6.2365 10.9842H9.85989V10.8116C9.86004 10.6611 9.87164 10.5109 9.8946 10.3622H1.78559C1.60863 10.3622 1.43892 10.2919 1.31379 10.1667C1.18866 10.0416 1.11836 9.87191 1.11836 9.69495C1.11836 9.51799 1.18866 9.34828 1.31379 9.22315C1.43892 9.09802 1.60863 9.02772 1.78559 9.02772H10.47C10.7436 8.66966 11.0961 8.37949 11.5 8.17974C11.904 7.97998 12.3485 7.87603 12.7992 7.87595H12.853C13.3877 7.87903 13.909 8.04294 14.3492 8.34634C14.8956 8.71713 15.5411 8.91478 16.2015 8.91355H21.3228C22.1472 8.91452 22.9421 8.60656 23.5506 8.0504C23.5789 8.02435 23.6095 8.00082 23.6419 7.98007C24.5062 7.13145 25.6704 6.65814 26.8817 6.66297H31.0504L30.5261 4.73574H30.147C29.7687 4.73574 29.3993 4.62093 29.0876 4.40646C28.776 4.192 28.5367 3.88799 28.4016 3.53464H25.1956C25.0186 3.53464 24.8489 3.46434 24.7238 3.33921C24.5987 3.21408 24.5284 3.04437 24.5284 2.86741C24.5284 2.69045 24.5987 2.52074 24.7238 2.39561C24.8489 2.27048 25.0186 2.20019 25.1956 2.20019H28.4016C28.5369 1.847 28.7762 1.54319 29.0878 1.3289C29.3995 1.11461 29.7688 0.999921 30.147 1H32.6524C33.065 1.00078 33.4657 1.13799 33.7922 1.39026C34.1186 1.64254 34.3525 1.9957 34.4573 2.39474H35.4127C35.9373 2.39657 36.4468 2.57032 36.8631 2.88938C37.2795 3.20843 37.5798 3.65519 37.7181 4.16122L38.4013 6.6785C38.5003 7.03364 38.5153 7.40695 38.4451 7.76889C38.3749 8.13083 38.2213 8.47144 37.9967 8.76376C37.9233 8.85907 37.843 8.94883 37.7564 9.03229H43.7893C43.9663 9.03229 44.136 9.10259 44.2611 9.22772C44.3863 9.35285 44.4566 9.52256 44.4566 9.69952C44.4566 9.87648 44.3863 10.0462 44.2611 10.1713C44.136 10.2964 43.9663 10.3667 43.7893 10.3667H35.8292C35.8709 10.5723 35.8986 10.7804 35.9123 10.9897H40.0545C40.9417 10.9882 41.8209 11.1578 42.6439 11.4893C42.8081 11.5553 42.9392 11.6838 43.0086 11.8465C43.078 12.0093 43.0799 12.1929 43.0139 12.357C42.9479 12.5211 42.8193 12.6523 42.6566 12.7217C42.4939 12.791 42.3103 12.7929 42.1461 12.7269C41.4813 12.4595 40.7711 12.3227 40.0545 12.3241H33.6992C32.3677 12.3331 31.0821 12.8118 30.069 13.6758C29.0559 14.5399 28.3803 15.7338 28.1613 17.0472C28.1266 17.2687 28.0136 17.4705 27.8428 17.6158C27.672 17.7611 27.4548 17.8403 27.2306 17.8391H24.2557C24.0788 17.8391 23.909 17.7688 23.7839 17.6437C23.6588 17.5186 23.5885 17.3489 23.5885 17.1719C23.5885 16.9949 23.6588 16.8252 23.7839 16.7001C23.909 16.575 24.0788 16.5047 24.2557 16.5047H26.9045C27.2338 14.9456 28.0881 13.5468 29.3249 12.5419C30.5616 11.5371 32.1057 10.9872 33.6992 10.9842H34.5742C34.4947 10.1668 34.1141 9.40808 33.5064 8.8556C32.8987 8.30311 32.1073 7.99626 31.286 7.99469H26.8835C26.0652 7.99198 25.2756 8.29603 24.6704 8.84687L25.2266 9.94293C25.35 10.1854 25.4243 10.4498 25.4454 10.721C25.4665 10.9922 25.434 11.2649 25.3497 11.5235C25.2654 11.7821 25.1309 12.0216 24.954 12.2282C24.7771 12.4349 24.5613 12.6047 24.3187 12.7278L20.857 14.4852C21.2738 15.2103 21.5555 16.005 21.6882 16.8308C21.7161 17.0054 21.6734 17.184 21.5696 17.3272C21.4658 17.4704 21.3093 17.5665 21.1347 17.5943C20.96 17.6222 20.7815 17.5795 20.6383 17.4757C20.4951 17.3719 20.399 17.2155 20.3711 17.0408C20.1519 15.7275 19.4761 14.5336 18.4628 13.6697C17.4496 12.8058 16.1639 12.3274 14.8323 12.3186H6.23833C5.2951 12.3173 4.36192 12.5123 3.49818 12.8913L2.40212 13.3718C2.38867 13.3776 2.3765 13.3861 2.36632 13.3966C2.35615 13.4072 2.34815 13.4197 2.34281 13.4333C2.33746 13.447 2.33487 13.4616 2.33517 13.4763C2.33547 13.4909 2.33867 13.5054 2.34458 13.5188L3.43151 16.0032C3.43736 16.0167 3.44581 16.0288 3.45638 16.039C3.46694 16.0492 3.47942 16.0572 3.49308 16.0625C3.50674 16.0679 3.52133 16.0705 3.536 16.0702C3.55067 16.0699 3.56513 16.0667 3.57856 16.0608L4.67462 15.5803C5.16751 15.364 5.70005 15.2526 6.23833 15.2533H14.8323C15.5119 15.2547 16.1655 15.5142 16.6609 15.9794C17.1562 16.4446 17.4563 17.0806 17.5003 17.7588L17.715 21.2954C17.7763 22.2879 18.2134 23.2197 18.9375 23.9013C19.6615 24.5829 20.618 24.9631 21.6124 24.9644H26.91C27.9026 24.9628 28.8575 24.5839 29.5812 23.9045C30.3049 23.2251 30.7432 22.296 30.8074 21.3054L31.0376 17.6619C31.0376 17.651 31.0376 17.6409 31.0376 17.63C31.1102 16.9769 31.4211 16.3735 31.9109 15.9353C32.4006 15.4971 33.0347 15.255 33.6919 15.2552H40.0463C40.7551 15.2559 41.4347 15.5378 41.9359 16.039C42.4371 16.5402 42.719 17.2198 42.7198 17.9286V18.5242C42.7198 18.5537 42.7315 18.5821 42.7524 18.603C42.7733 18.6239 42.8016 18.6356 42.8312 18.6356H45.543C45.5726 18.6356 45.6009 18.6239 45.6218 18.603C45.6427 18.5821 45.6545 18.5537 45.6545 18.5242V17.9286C45.6592 16.6655 45.2329 15.4386 44.446 14.4505C44.3362 14.3118 44.2859 14.1351 44.3063 13.9594C44.3267 13.7837 44.4161 13.6232 44.5547 13.5133C44.6934 13.4035 44.8701 13.3532 45.0458 13.3736C45.2216 13.394 45.382 13.4834 45.4919 13.622C46.4663 14.8455 46.9944 16.3646 46.9889 17.9286V18.5242C46.9884 18.9075 46.8359 19.275 46.5649 19.546C46.2938 19.8171 45.9263 19.9696 45.543 19.9701H42.8394C42.7965 19.9701 42.7545 19.9701 42.7124 19.9637V20.8533C42.7124 21.3251 42.651 21.7948 42.5298 22.2508C43.6495 23.0727 44.5227 24.1855 45.0547 25.4685C45.5867 26.7516 45.7572 28.1558 45.5476 29.5289C45.338 30.902 44.7563 32.1914 43.8658 33.2573C42.9752 34.3232 41.8097 35.1248 40.4958 35.5752C39.1819 36.0256 37.7697 36.1076 36.4125 35.8122C35.0553 35.5168 33.805 34.8554 32.7971 33.8997C31.7892 32.9439 31.0623 31.7304 30.6953 30.3908C30.3283 29.0512 30.3352 27.6367 30.7152 26.3007H17.8456C18.2662 27.7799 18.2287 29.3518 17.7378 30.8092C17.6759 30.9698 17.5543 31.1003 17.3984 31.1734C17.2426 31.2465 17.0645 31.2565 16.9014 31.2015C16.7383 31.1465 16.6027 31.0306 16.5231 30.878C16.4434 30.7254 16.4257 30.5479 16.4737 30.3826C16.9651 28.9305 16.9079 27.3487 16.3131 25.9358C15.7182 24.5229 14.6268 23.3766 13.2447 22.7132C11.8627 22.0498 10.2856 21.9152 8.81111 22.3349C7.33664 22.7545 6.06675 23.6993 5.24109 24.991C4.41544 26.2827 4.09112 27.8319 4.32935 29.3463C4.56758 30.8607 5.35187 32.2355 6.53422 33.2113C7.71658 34.1871 9.21521 34.6964 10.7473 34.6431C12.2794 34.5898 13.739 33.9775 14.8506 32.9218C14.9789 32.8 15.1503 32.7341 15.3272 32.7386C15.504 32.7431 15.6718 32.8178 15.7937 32.946C15.9155 33.0743 15.9814 33.2457 15.9769 33.4226C15.9724 33.5994 15.8977 33.7672 15.7695 33.8891C14.3703 35.2286 12.5126 35.9836 10.5756 35.9997C8.63866 36.0159 6.7686 35.292 5.34729 33.976C3.92598 32.66 3.06065 30.851 2.928 28.9185C2.79534 26.9861 3.40537 25.0758 4.63352 23.5779C4.15342 22.7496 3.9013 21.8089 3.90281 20.8515V18.2109C3.90282 17.9178 3.92634 17.6252 3.97314 17.3359C3.63235 17.445 3.26319 17.4239 2.93707 17.2766C2.61094 17.1293 2.35102 16.8663 2.20757 16.5385L1.12065 14.0541C0.967429 13.7028 0.959857 13.305 1.09959 12.9482C1.23933 12.5913 1.51495 12.3044 1.86597 12.1506V12.1497ZM32.6515 2.33445H30.147C30.0056 2.33445 29.8699 2.39065 29.7699 2.49069C29.6698 2.59072 29.6136 2.7264 29.6136 2.86787C29.6136 3.00934 29.6698 3.14502 29.7699 3.24505C29.8699 3.34508 30.0056 3.40128 30.147 3.40128H32.6524C32.7939 3.40128 32.9296 3.34508 33.0296 3.24505C33.1297 3.14502 33.1859 3.00934 33.1859 2.86787C33.1859 2.7264 33.1297 2.59072 33.0296 2.49069C32.9296 2.39065 32.7939 2.33445 32.6524 2.33445H32.6515ZM34.8747 8.36278H36.0959C36.2584 8.36279 36.4188 8.32536 36.5646 8.25341C36.7103 8.18145 36.8375 8.07691 36.9364 7.94786C37.0352 7.81882 37.103 7.66875 37.1345 7.50929C37.166 7.34983 37.1603 7.18526 37.118 7.02833L36.4348 4.51104C36.3735 4.28677 36.2404 4.0888 36.0557 3.94755C35.8711 3.8063 35.6452 3.72959 35.4127 3.72919H34.3075C34.1498 4.0319 33.9121 4.2856 33.6203 4.46273C33.3285 4.63986 32.9938 4.73365 32.6524 4.73391H31.909L32.4734 6.81368C33.4174 7.06608 34.2579 7.60936 34.8756 8.36643L34.8747 8.36278ZM19.3472 12.6557C19.6084 12.8794 19.8526 13.1221 20.0779 13.3818L23.715 11.5331C23.8891 11.4444 24.0209 11.2902 24.0814 11.1044C24.1418 10.9185 24.126 10.7163 24.0374 10.5421L23.5862 9.65522C22.8949 10.0419 22.1159 10.2447 21.3238 10.2443H16.2006C15.2734 10.2458 14.3672 9.96794 13.6002 9.44697C13.3808 9.29391 13.1205 9.21023 12.853 9.20675H12.7982C12.3737 9.20723 11.9668 9.37608 11.6666 9.67625C11.3664 9.97642 11.1976 10.3834 11.1971 10.8079V10.9805H14.8314C16.4884 10.9821 18.0901 11.5763 19.3472 12.6557ZM38.0286 34.6408C39.269 34.6408 40.4815 34.273 41.5128 33.5839C42.5441 32.8948 43.3479 31.9154 43.8225 30.7694C44.2972 29.6235 44.4214 28.3626 44.1794 27.1461C43.9374 25.9295 43.3401 24.8121 42.4631 23.9351C41.586 23.058 40.4686 22.4607 39.2521 22.2187C38.0356 21.9768 36.7746 22.1009 35.6287 22.5756C34.4828 23.0503 33.5033 23.8541 32.8142 24.8854C32.1251 25.9167 31.7573 27.1292 31.7573 28.3695C31.7581 30.0332 32.4191 31.6286 33.5954 32.8051C34.7716 33.9817 36.3668 34.6433 38.0304 34.6445L38.0286 34.6408ZM31.2331 24.959C32.1262 23.1758 33.6845 21.8152 35.5718 21.1707C37.4591 20.5261 39.5241 20.6493 41.3214 21.5137C41.3576 21.293 41.3759 21.0697 41.3762 20.846L41.3917 17.9232C41.3912 17.5682 41.25 17.2279 40.999 16.9769C40.748 16.7259 40.4077 16.5846 40.0527 16.5841H33.6992C33.3727 16.5842 33.0575 16.7038 32.8132 16.9204C32.5688 17.137 32.4122 17.4355 32.373 17.7597L32.1437 21.3858C32.0568 22.7606 31.4305 24.0455 30.401 24.9608L31.2331 24.959ZM10.5303 20.7693C11.9405 20.7706 13.3227 21.1636 14.5226 21.9045C15.7225 22.6454 16.693 23.7051 17.3259 24.9653H18.1287C17.0961 24.0467 16.4695 22.7563 16.386 21.3767L16.1686 17.8428C16.1466 17.5031 15.9963 17.1845 15.7482 16.9515C15.5001 16.7185 15.1727 16.5885 14.8323 16.5878H6.23833C5.99823 16.5879 5.75933 16.6217 5.52863 16.6883C5.33503 17.1725 5.23612 17.6894 5.23726 18.2109V20.8524C5.23673 21.4479 5.36609 22.0364 5.61632 22.5768C6.9872 21.4083 8.72991 20.7671 10.5312 20.7683L10.5303 20.7693Z" fill="#081A3E" stroke="white" stroke-width="0.13"/>
<path d="M37.248 28.374C37.2479 28.5285 37.2935 28.6796 37.3792 28.8081C37.4649 28.9367 37.5868 29.0369 37.7295 29.0962C37.8722 29.1554 38.0292 29.171 38.1808 29.141C38.3323 29.111 38.4716 29.0367 38.5809 28.9275C38.6902 28.8183 38.7647 28.6792 38.7949 28.5276C38.8251 28.3761 38.8097 28.2191 38.7506 28.0763C38.6915 27.9336 38.5914 27.8115 38.463 27.7257C38.3345 27.6398 38.1835 27.594 38.029 27.594C37.822 27.594 37.6235 27.6762 37.4771 27.8224C37.3307 27.9687 37.2483 28.1671 37.248 28.374Z" fill="#081A3E" stroke="white" stroke-width="0.13"/>
<path d="M9.75 28.374C9.74982 28.5285 9.79548 28.6796 9.88118 28.8081C9.96688 28.9367 10.0888 29.0369 10.2315 29.0962C10.3742 29.1554 10.5312 29.171 10.6828 29.141C10.8343 29.111 10.9735 29.0367 11.0828 28.9275C11.1921 28.8183 11.2666 28.6792 11.2968 28.5276C11.327 28.3761 11.3116 28.2191 11.2525 28.0763C11.1935 27.9336 11.0934 27.8115 10.9649 27.7257C10.8365 27.6398 10.6854 27.594 10.531 27.594C10.4284 27.5939 10.3269 27.614 10.2322 27.6531C10.1374 27.6923 10.0513 27.7497 9.97879 27.8221C9.90626 27.8946 9.84874 27.9806 9.80948 28.0753C9.77023 28.17 9.75 28.2715 9.75 28.374Z" fill="#081A3E" stroke="white" stroke-width="0.13"/>
</svg>
