<svg width="42" height="38" viewBox="0 0 42 38" fill="none" xmlns="http://www.w3.org/2000/svg">
<path d="M40.1707 26.7484C39.372 25.6996 38.2967 24.8945 37.0655 24.4233C37.0533 24.1924 36.9915 23.9668 36.8843 23.7619C36.4394 22.912 35.594 22.8558 34.6317 22.844C34.0582 21.1225 33.0914 18.1994 32.1581 15.3633C32.1331 15.2874 32.0933 15.2171 32.0411 15.1565C31.9889 15.0958 31.9252 15.0461 31.8538 15.0101C31.7824 14.9741 31.7045 14.9525 31.6247 14.9466C31.545 14.9406 31.4648 14.9505 31.3888 14.9755C31.3129 15.0006 31.2426 15.0403 31.182 15.0926C31.1213 15.1448 31.0716 15.2084 31.0356 15.2798C30.9996 15.3513 30.978 15.4291 30.9721 15.5089C30.9661 15.5887 30.976 15.6688 31.001 15.7448C31.8845 18.4223 32.7933 21.1814 33.3759 22.9283C32.1612 23.1035 31.0015 23.5498 29.9826 24.234C30.1191 23.423 30.0864 22.5925 29.8865 21.7948C27.4093 11.4481 27.5144 12.0316 27.4636 11.2805C27.6313 11.295 27.5434 11.2914 29.5322 11.2914L30.2381 13.4306C30.2631 13.5066 30.3029 13.5769 30.3551 13.6375C30.4073 13.6981 30.471 13.7479 30.5424 13.7839C30.6138 13.8199 30.6917 13.8415 30.7715 13.8474C30.8512 13.8533 30.9314 13.8435 31.0074 13.8184C31.0833 13.7934 31.1536 13.7536 31.2142 13.7014C31.2749 13.6492 31.3246 13.5856 31.3606 13.5141C31.3966 13.4427 31.4182 13.3649 31.4241 13.2851C31.4301 13.2053 31.4202 13.1251 31.3952 13.0492L30.8153 11.2923H31.58C31.807 11.292 32.029 11.225 32.2181 11.0995C32.4073 10.9739 32.5553 10.7955 32.6438 10.5864H33.7818C34.0643 10.5859 34.335 10.4735 34.5348 10.2738C34.7345 10.0741 34.8469 9.80331 34.8474 9.52085V7.47762C34.8469 7.19524 34.7345 6.92458 34.5347 6.725C34.3349 6.52541 34.0642 6.4132 33.7818 6.41296H32.6447C32.5564 6.20369 32.4084 6.02507 32.2192 5.89938C32.0301 5.77369 31.8081 5.7065 31.5809 5.70621H28.7403L27.2 2.23044C27.1522 2.12252 27.0741 2.03081 26.9752 1.96647C26.8762 1.90212 26.7607 1.86791 26.6427 1.868H25.0842L25.4023 0.78069C25.4477 0.62557 25.4296 0.45876 25.3521 0.316958C25.2745 0.175155 25.1438 0.0699752 24.9887 0.0245566C24.8335 -0.0208621 24.6667 -0.00279924 24.5249 0.0747716C24.3831 0.152342 24.2779 0.283067 24.2325 0.438188L23.176 4.05349C23.1307 4.20861 23.1489 4.37538 23.2266 4.51709C23.3042 4.65881 23.435 4.76388 23.5901 4.80918C23.6669 4.8316 23.7474 4.83869 23.8269 4.83002C23.9065 4.82134 23.9835 4.79709 24.0537 4.75864C24.1954 4.68098 24.3005 4.55021 24.3458 4.39509L24.7282 3.08669H26.2486L27.4147 5.72252C26.8781 5.77825 26.3695 5.98957 25.9514 6.3305H23.514C23.2936 6.33097 23.0756 6.37609 22.8732 6.46315C22.6707 6.5502 22.488 6.67738 22.3361 6.83701L20.7676 8.48881C20.7125 8.54682 20.6694 8.61511 20.6407 8.68979C20.612 8.76446 20.5983 8.84406 20.6004 8.92403C20.6024 9.00401 20.6202 9.08279 20.6527 9.15589C20.6852 9.22898 20.7318 9.29496 20.7898 9.35005C20.8478 9.40515 20.9161 9.44827 20.9908 9.47697C21.0655 9.50567 21.1451 9.51938 21.225 9.51732C21.305 9.51526 21.3838 9.49747 21.4569 9.46496C21.53 9.43245 21.596 9.38586 21.6511 9.32786L23.2204 7.67514C23.2584 7.6352 23.304 7.60336 23.3547 7.58156C23.4053 7.55975 23.4598 7.54844 23.5149 7.54829H25.0842C24.8676 8.1491 24.8632 8.80597 25.0718 9.40963C25.2803 10.0133 25.6892 10.5274 26.2305 10.8664C26.2359 12.0751 26.2305 11.7571 28.705 22.0865C28.8912 22.8299 28.8962 23.6071 28.7194 24.3528C28.5427 25.0985 28.1894 25.7908 27.6893 26.3714C27.6068 26.4681 27.5044 26.5457 27.3892 26.599C27.2739 26.6523 27.1485 26.6801 27.0215 26.6804C23.9408 26.6804 23.6354 26.7502 22.8534 26.4385C22.7034 26.3784 22.5356 26.3804 22.387 26.4441C22.2384 26.5077 22.1211 26.6278 22.0611 26.7778C22.001 26.9279 22.003 27.0957 22.0666 27.2443C22.1303 27.3929 22.2503 27.5101 22.4004 27.5702C23.4569 27.9915 24.0051 27.8991 27.0124 27.8991C26.7122 28.6468 26.5268 29.4355 26.4624 30.2386H17.8817C18.1952 29.8074 18.3614 29.2867 18.3556 28.7536C18.3543 27.7604 18.118 26.7816 17.666 25.8972C17.214 25.0128 16.5592 24.2479 15.7551 23.6649C13.7017 22.2042 11.1671 21.5847 8.6713 21.9334C8.59187 21.9432 8.51515 21.9685 8.4455 22.0079C8.37586 22.0473 8.31465 22.1 8.26539 22.1631C8.21613 22.2262 8.17977 22.2983 8.15839 22.3754C8.13701 22.4525 8.13102 22.5331 8.14078 22.6125C8.15054 22.6919 8.17584 22.7687 8.21525 22.8383C8.25466 22.908 8.3074 22.9692 8.37047 23.0184C8.43353 23.0677 8.50568 23.1041 8.58279 23.1254C8.6599 23.1468 8.74047 23.1528 8.8199 23.143C12.7976 22.6547 17.1369 24.7477 17.1369 28.788C17.0964 29.2054 16.8945 29.5904 16.5743 29.8612C16.2541 30.132 15.8409 30.2671 15.4226 30.2377C1.5023 30.2377 2.37487 30.2377 2.29332 30.2377C2.14541 30.2329 2.00008 30.1977 1.86639 30.1343C1.73269 30.0708 1.6135 29.9805 1.51624 29.869C1.41899 29.7575 1.34575 29.6271 1.30111 29.486C1.25646 29.3449 1.24136 29.1961 1.25675 29.0489C2.00337 26.6995 3.04628 26.2401 3.84364 25.3702C4.65322 24.6474 5.58833 24.079 6.60269 23.693C6.67742 23.6644 6.74577 23.6214 6.80386 23.5663C6.86195 23.5113 6.90862 23.4454 6.94123 23.3723C6.97383 23.2992 6.99172 23.2204 6.99388 23.1404C6.99604 23.0605 6.98242 22.9808 6.9538 22.9061C6.92518 22.8314 6.88213 22.763 6.82709 22.7049C6.77206 22.6468 6.70612 22.6002 6.63305 22.5676C6.55997 22.535 6.48119 22.5171 6.40121 22.5149C6.32122 22.5127 6.24159 22.5264 6.16686 22.555C5.00281 22.9979 3.93069 23.6522 3.0046 24.485C2.98802 24.5001 2.97229 24.5161 2.95748 24.533C2.89406 24.6046 2.79257 24.6997 2.67297 24.8102C3.39739 23.1174 4.38685 21.5508 5.60418 20.1692H18.6447C19.6722 24.6091 19.6568 24.928 20.2566 25.8305C20.346 25.9651 20.4852 26.0586 20.6435 26.0906C20.8019 26.1225 20.9665 26.0902 21.1011 26.0009C21.2356 25.9115 21.3292 25.7723 21.3611 25.6139C21.3931 25.4555 21.3608 25.2909 21.2714 25.1564C20.8256 24.485 20.8863 24.4505 19.7374 19.4888V17.962C19.7369 17.421 19.5218 16.9022 19.1392 16.5197C18.7566 16.1371 18.2379 15.922 17.6969 15.9215H8.31249C7.44987 15.9199 6.61181 16.2086 5.93318 16.7411C5.25455 17.2736 4.77483 18.019 4.57123 18.8572C4.52209 19.0573 4.5328 19.2675 4.60204 19.4616C2.25706 22.2933 0.673115 25.6764 0 29.2909C0.0284519 29.8911 0.293192 30.4557 0.736432 30.8614C1.17967 31.2671 1.76542 31.481 2.36581 31.4564H3.62437C3.74391 33.2313 4.53327 34.8945 5.83271 36.1093C7.13214 37.3242 8.84459 38 10.6235 38C12.4024 38 14.1148 37.3242 15.4142 36.1093C16.7137 34.8945 17.503 33.2313 17.6226 31.4564H27.5678C27.6426 32.5469 27.971 33.6048 28.5268 34.5459C29.0826 35.487 29.8506 36.2853 30.7694 36.8773C31.6882 37.4692 32.7326 37.8384 33.8193 37.9554C34.906 38.0724 36.0051 37.9341 37.0289 37.5513C38.0527 37.1686 38.9729 36.5521 39.7164 35.7509C40.4599 34.9497 41.0059 33.9859 41.3111 32.9364C41.6164 31.8869 41.6723 30.7806 41.4744 29.7057C41.2766 28.6307 40.8305 27.6168 40.1716 26.7448L40.1707 26.7484ZM32.7344 7.62984H33.6296V9.36501H32.7344V7.62984ZM27.0921 9.9449C26.8564 9.84293 26.6491 9.68486 26.4884 9.48448C26.3278 9.28409 26.2185 9.04745 26.1702 8.79518C26.1218 8.5429 26.1359 8.28263 26.2112 8.03704C26.2864 7.79145 26.4206 7.56799 26.6019 7.3861C26.8404 7.18306 27.1214 7.0362 27.4243 6.95638C27.7271 6.87655 28.0441 6.86579 28.3516 6.9249H31.5229V10.0727C27.3939 10.0727 27.4963 10.1189 27.0949 9.9449H27.0921ZM8.31249 17.1402H17.6978C17.9157 17.1404 18.1246 17.2271 18.2786 17.3812C18.4327 17.5352 18.5194 17.7441 18.5196 17.962V18.9478H5.81167C5.98463 18.4213 6.31963 17.9629 6.76879 17.6383C7.21796 17.3136 7.75827 17.1393 8.31249 17.1402ZM13.1465 31.4564C13.0362 32.0445 12.7239 32.5755 12.2635 32.9576C11.8031 33.3397 11.2236 33.5488 10.6253 33.5488C10.027 33.5488 9.44751 33.3397 8.98711 32.9576C8.52671 32.5755 8.21436 32.0445 8.10408 31.4564H13.1465ZM10.6248 36.787C9.16893 36.785 7.76692 36.236 6.69682 35.2488C5.62672 34.2617 4.96668 32.9084 4.84759 31.4573H6.8718C6.98578 32.3726 7.43021 33.2147 8.12153 33.8253C8.81284 34.4358 9.7034 34.7728 10.6257 34.7728C11.5481 34.7728 12.4386 34.4358 13.13 33.8253C13.8213 33.2147 14.2657 32.3726 14.3797 31.4573H16.4003C16.281 32.908 15.6212 34.2609 14.5515 35.248C13.4818 36.2351 12.0804 36.7844 10.6248 36.787ZM35.526 24.1289C35.5863 24.1383 35.6435 24.1619 35.6929 24.1978C35.7423 24.2336 35.7824 24.2807 35.8101 24.3351C35.8377 24.3895 35.8519 24.4497 35.8517 24.5108C35.8515 24.5718 35.8368 24.6319 35.8088 24.6861L33.6885 28.8686C33.4807 29.2815 33.162 29.6284 32.7681 29.8704C32.3743 30.1124 31.9208 30.2399 31.4586 30.2386H27.6856C27.7791 29.3144 28.0589 28.4186 28.5082 27.6055C28.9575 26.7923 29.5669 26.0787 30.2997 25.5077C31.0325 24.9366 31.8734 24.52 32.7717 24.2831C33.67 24.0461 34.6069 23.9936 35.526 24.1289ZM35.2397 28.5044C35.6848 28.6235 36.0897 28.8604 36.4117 29.19C36.7337 29.5196 36.961 29.9298 37.0697 30.3776C37.1785 30.8254 37.1646 31.2942 37.0297 31.7348C36.8947 32.1753 36.6436 32.5715 36.3027 32.8815C35.9618 33.1915 35.5437 33.4041 35.0924 33.4968C34.641 33.5895 34.173 33.5589 33.7375 33.4083C33.302 33.2577 32.9151 32.9926 32.6174 32.6409C32.3197 32.2891 32.1223 31.8637 32.0457 31.4093C32.6265 31.318 33.1771 31.0895 33.6519 30.7428C34.1267 30.3962 34.512 29.9413 34.7758 29.4159L35.2397 28.5044ZM34.5756 36.787C33.1194 36.7849 31.7171 36.2367 30.6455 35.2508C29.574 34.2648 28.9113 32.9128 28.7883 31.4619H30.8216C30.9065 32.1317 31.1691 32.7667 31.5821 33.3008C31.9951 33.835 32.5435 34.2489 33.1705 34.4996C33.7974 34.7503 34.48 34.8287 35.1475 34.7266C35.8149 34.6245 36.4429 34.3457 36.9662 33.9191C37.4896 33.4924 37.8893 32.9335 38.1238 32.3004C38.3583 31.6672 38.4191 30.9828 38.2998 30.3182C38.1806 29.6536 37.8858 29.033 37.4458 28.5208C37.0059 28.0086 36.4369 27.6234 35.7979 27.4053L36.713 25.5985C37.9664 26.0964 39.0071 27.0155 39.656 28.1978C40.3049 29.38 40.5215 30.7515 40.2684 32.0762C40.0153 33.4008 39.3085 34.5959 38.2694 35.4557C37.2304 36.3155 35.9242 36.7862 34.5756 36.787Z" fill="#081A3E"/>
</svg>
