<svg width="49" height="31" viewBox="0 0 49 31" fill="none" xmlns="http://www.w3.org/2000/svg">
<mask id="path-1-inside-1" fill="white">
<path d="M47.9178 18.8348C47.8701 18.7536 47.8069 18.6825 47.7317 18.6257C47.6565 18.569 47.5709 18.5275 47.4797 18.5038C47.3886 18.4801 47.2936 18.4746 47.2003 18.4876C47.107 18.5006 47.0172 18.5318 46.9359 18.5795C46.8547 18.6272 46.7836 18.6905 46.7268 18.7656C46.6701 18.8408 46.6286 18.9264 46.6049 19.0176C46.5812 19.1088 46.5757 19.2037 46.5887 19.297C46.6017 19.3904 46.6329 19.4802 46.6806 19.5614C47.2399 20.516 47.5445 21.5982 47.5654 22.7043C47.5863 23.8105 47.3227 24.9034 46.7999 25.8784C46.2771 26.8534 45.5127 27.6778 44.5798 28.2726C43.647 28.8673 42.577 29.2125 41.4724 29.275C40.3679 29.3374 39.2658 29.1152 38.2718 28.6295C37.2778 28.1437 36.4252 27.4108 35.7958 26.501C35.1664 25.5912 34.7812 24.535 34.6772 23.4335C34.5732 22.3321 34.7538 21.2224 35.2018 20.2109L37.1079 22.0224C36.9335 22.8906 37.0462 23.7919 37.4287 24.5905C37.8113 25.3891 38.4431 26.0417 39.229 26.4499C40.0148 26.8581 40.912 26.9997 41.7854 26.8535C42.6587 26.7073 43.4609 26.2812 44.0709 25.6393C44.681 24.9975 45.0658 24.1747 45.1675 23.295C45.2691 22.4154 45.082 21.5265 44.6344 20.7624C44.1869 19.9984 43.503 19.4005 42.686 19.059C41.869 18.7175 40.9631 18.6508 40.1049 18.869L38.1988 17.0575C39.334 16.4843 40.6133 16.2593 41.876 16.4108C43.1387 16.5623 44.3284 17.0835 45.2958 17.9089C45.4406 18.0324 45.6285 18.0934 45.8182 18.0783C46.0078 18.0633 46.1838 17.9735 46.3073 17.8288C46.4308 17.684 46.4917 17.4961 46.4766 17.3065C46.4616 17.1168 46.3718 16.9408 46.2271 16.8174C44.9782 15.7532 43.4286 15.1048 41.794 14.9627C40.1593 14.8206 38.521 15.1917 37.1072 16.0243L36.2243 15.185C37.5736 14.4169 39.0998 14.0138 40.6524 14.0156C41.1301 14.0159 41.607 14.0538 42.0788 14.129C42.1821 14.1454 42.2878 14.1391 42.3884 14.1103C42.489 14.0816 42.5821 14.0311 42.6611 13.9626L44.9248 12.0021C45.2821 11.6945 45.5585 11.3041 45.7299 10.8649C46.3338 9.3104 46.364 6.37645 45.2113 5.05943C42.0486 1.44718 37.3548 -0.33144 31.9941 0.0509857C31.6915 0.0737628 31.3997 0.173526 31.1464 0.340793C30.8932 0.508061 30.6869 0.737283 30.5471 1.0067C30.4074 1.27612 30.3388 1.57678 30.3479 1.88015C30.3571 2.18352 30.4436 2.47952 30.5993 2.74005L30.9146 3.27008H29.4178C29.2275 3.27008 29.045 3.34567 28.9104 3.48024C28.7758 3.61481 28.7002 3.79732 28.7002 3.98763C28.7002 4.17793 28.7758 4.36045 28.9104 4.49502C29.045 4.62958 29.2275 4.70518 29.4178 4.70518H31.7305C32.0633 5.43523 32.2216 6.23278 32.1927 7.03463C31.3569 6.29533 30.3746 5.74045 29.31 5.40613C28.2454 5.07182 27.1222 4.96557 26.0138 5.09432C24.9054 5.22307 23.8365 5.58393 22.8769 6.15337C21.9172 6.72282 21.0883 7.48808 20.4442 8.39928H15.2821C14.8747 8.39872 14.4796 8.2596 14.1617 8.00478L8.91236 3.78736C8.78495 3.68488 8.62635 3.62901 8.46284 3.62902H4.16894C3.71275 3.63017 3.26865 3.77574 2.9003 4.04485C2.53195 4.31397 2.25827 4.69281 2.11852 5.12706C1.97876 5.56131 1.98009 6.02866 2.12233 6.46211C2.26457 6.89555 2.5404 7.27282 2.91028 7.53983L4.45341 8.64887C4.60795 8.7599 4.80027 8.805 4.98806 8.77423C5.17585 8.74347 5.34373 8.63937 5.45476 8.48483C5.56579 8.33029 5.61089 8.13796 5.58013 7.95017C5.54936 7.76238 5.44526 7.59451 5.29072 7.48347L3.7476 6.37444C3.62281 6.28505 3.52963 6.15835 3.48149 6.01259C3.43336 5.86683 3.43275 5.70955 3.47977 5.56343C3.52679 5.41731 3.61899 5.28989 3.74309 5.19955C3.86719 5.10921 4.01678 5.06061 4.17028 5.06077H8.21058L13.2633 9.12053C13.8361 9.57958 14.548 9.83014 15.2821 9.83103H20.7126L25.3587 11.607L27.9156 12.5845C26.5769 13.6065 24.9402 14.1615 23.256 14.1645H21.6807C20.8869 14.1654 20.1079 14.3797 19.4254 14.7849C18.7428 15.1901 18.1817 15.7714 17.8007 16.4678L16.6152 15.6157L7.23707 8.88033C7.16055 8.82531 7.07394 8.7859 6.98219 8.76435C6.89043 8.7428 6.79533 8.73953 6.70232 8.75473C6.6093 8.76993 6.52019 8.8033 6.44008 8.85294C6.35996 8.90258 6.2904 8.96752 6.23538 9.04404C6.18036 9.12056 6.14094 9.20717 6.11939 9.29892C6.09784 9.39067 6.09457 9.48577 6.10978 9.57879C6.12498 9.6718 6.15835 9.76091 6.20799 9.84103C6.25763 9.92115 6.32256 9.99071 6.39908 10.0457L14.901 16.1511L13.3545 17.1025C11.9729 15.7885 10.1629 15.0182 8.25811 14.9333C6.35331 14.8484 4.482 15.4548 2.98894 16.6406C1.49589 17.8265 0.481693 19.512 0.133198 21.3866C-0.215297 23.2611 0.125392 25.1985 1.0925 26.8417C2.0596 28.4849 3.58797 29.7233 5.39601 30.3287C7.20405 30.934 9.16996 30.8656 10.9315 30.136C12.6931 29.4064 14.1317 28.0648 14.9822 26.3583C15.8327 24.6518 16.0379 22.6954 15.5599 20.8496L17.258 19.805V25.1838C17.2582 26.1706 17.6501 27.1169 18.3477 27.8149C19.0453 28.5129 19.9914 28.9053 20.9782 28.906H24.4348V29.2891H19.7545C19.5642 29.2891 19.3817 29.3647 19.2471 29.4993C19.1125 29.6339 19.0369 29.8164 19.0369 30.0067C19.0369 30.197 19.1125 30.3795 19.2471 30.5141C19.3817 30.6486 19.5642 30.7242 19.7545 30.7242H25.1527C25.3429 30.7242 25.5254 30.6487 25.6599 30.5142C25.7944 30.3797 25.8699 30.1973 25.8699 30.007V28.906H32.453C32.5814 28.9057 32.7072 28.871 32.8176 28.8055C32.9279 28.74 33.0186 28.6461 33.0803 28.5336C33.142 28.421 33.1724 28.294 33.1682 28.1658C33.1641 28.0375 33.1256 27.9127 33.0569 27.8044C32.1464 26.365 31.664 24.6963 31.6662 22.9931C31.6683 21.2899 32.1548 19.6225 33.0689 18.1854L34.1095 19.175C33.4733 20.3926 33.1658 21.7551 33.2174 23.128C33.2691 24.5008 33.6781 25.8364 34.4041 27.0027C35.1301 28.169 36.1479 29.1257 37.3569 29.7782C38.5659 30.4306 39.9242 30.7562 41.2977 30.7229C42.6711 30.6895 44.012 30.2983 45.1879 29.5879C46.3638 28.8775 47.3339 27.8725 48.0024 26.6723C48.6709 25.4721 49.0146 24.1182 48.9995 22.7445C48.9845 21.3708 48.6111 20.0248 47.9165 18.8395L47.9178 18.8348ZM43.7527 22.8268C43.7512 23.4804 43.5076 24.1103 43.0691 24.595C42.6305 25.0797 42.028 25.3848 41.3778 25.4515C40.7276 25.5182 40.0757 25.3417 39.5479 24.9562C39.0201 24.5706 38.6537 24.0033 38.5195 23.3635L39.6098 24.4021C40.0279 24.7995 40.5868 25.0144 41.1634 24.9997C41.7401 24.985 42.2873 24.7418 42.6846 24.3236C43.082 23.9055 43.2969 23.3466 43.2822 22.77C43.2675 22.1933 43.0243 21.6461 42.6061 21.2488L41.5145 20.2109C42.1382 20.3086 42.7065 20.6258 43.117 21.1054C43.5275 21.5851 43.7532 22.1955 43.7534 22.8268H43.7527ZM44.3693 6.3731C44.8314 7.68317 44.8276 9.1125 44.3586 10.4201C43.8801 10.3387 43.4459 10.0902 43.1333 9.7189C42.8206 9.34758 42.6498 8.87745 42.6511 8.39205C42.6524 7.90666 42.8257 7.43744 43.1403 7.06779C43.4549 6.69813 43.8904 6.45199 44.3693 6.3731ZM26.9253 6.47306C27.8586 6.47005 28.7815 6.66928 29.6305 7.05705C30.4795 7.44481 31.2343 8.01191 31.8432 8.71931C31.3306 9.92251 30.4417 10.927 29.3098 11.5821L23.3251 9.29496L21.9605 8.77298C22.5704 8.04991 23.3314 7.46927 24.1898 7.07192C25.0483 6.67456 25.9834 6.47015 26.9293 6.47306H26.9253ZM17.3123 17.8834C17.3016 17.9505 17.2902 18.0284 17.2815 18.1075L10.9077 22.0311L10.901 22.0351L8.74731 23.3568C8.57898 23.4574 8.37761 23.4869 8.18749 23.439C7.99737 23.391 7.83409 23.2696 7.73355 23.1012C7.63301 22.9329 7.60347 22.7315 7.6514 22.5414C7.69934 22.3513 7.82084 22.188 7.98917 22.0875L10.2401 20.7027L10.2462 20.6993L13.6008 18.6342H13.6048L16.1597 17.0622L17.3123 17.8834ZM6.5071 23.8459C6.65498 24.0908 6.84963 24.304 7.07995 24.4736C7.31026 24.6432 7.57172 24.7658 7.8494 24.8343C8.12708 24.9028 8.41553 24.916 8.6983 24.873C8.98107 24.8301 9.25261 24.7319 9.49741 24.584L10.2133 24.1432C9.97437 24.5613 9.6259 24.9062 9.20542 25.1409C8.78494 25.3756 8.3084 25.4911 7.82713 25.4749C7.34586 25.4588 6.87812 25.3116 6.47431 25.0493C6.0705 24.787 5.74592 24.4195 5.53555 23.9863C5.32519 23.5531 5.23701 23.0708 5.28051 22.5912C5.32402 22.1117 5.49756 21.6531 5.78245 21.2648C6.06733 20.8766 6.45275 20.5735 6.89718 20.3881C7.34161 20.2027 7.82819 20.1422 8.30451 20.2129L7.24646 20.8637C6.75286 21.1616 6.39781 21.6433 6.2594 22.203C6.121 22.7626 6.21058 23.3543 6.50844 23.848L6.5071 23.8459ZM14.379 22.8268C14.3807 24.2997 13.8796 25.729 12.9586 26.8783C12.0376 28.0277 10.7518 28.8282 9.31398 29.1475C7.87614 29.4668 6.37239 29.2858 5.05145 28.6343C3.73051 27.9828 2.67153 26.8999 2.04968 25.5647C1.42782 24.2296 1.28034 22.7222 1.63163 21.2918C1.98293 19.8615 2.81195 18.5939 3.98157 17.6987C5.15119 16.8036 6.59134 16.3345 8.06379 16.369C9.53624 16.4036 10.9528 16.9398 12.0791 17.8888L9.87379 19.2448C9.09729 18.8211 8.20413 18.6613 7.32892 18.7895C6.4537 18.9176 5.64383 19.3267 5.02133 19.9551C4.39883 20.5835 3.99743 21.3973 3.87761 22.2737C3.75779 23.15 3.92603 24.0416 4.35699 24.8141C4.78795 25.5866 5.45829 26.198 6.26699 26.5564C7.0757 26.9147 7.97896 27.0006 8.84068 26.8009C9.70241 26.6013 10.4759 26.127 11.0446 25.4496C11.6134 24.7721 11.9465 23.9281 11.9939 23.0449L14.2697 21.6446C14.3425 22.0345 14.3791 22.4302 14.379 22.8268ZM31.2387 27.4689H20.9782C20.3737 27.4675 19.7943 27.2267 19.3668 26.7992C18.9393 26.3717 18.6985 25.7923 18.6971 25.1878V18.5879C18.6987 17.8809 18.9505 17.1972 19.4079 16.6581C19.8654 16.119 20.4989 15.7592 21.1963 15.6426C22.4757 15.4292 25.3453 16.1961 28.5436 13.9042C30.8059 12.2833 32.8583 11.248 33.4936 8.20874C33.7382 7.04259 33.6628 5.83201 33.2756 4.70518H34.1256C34.316 4.70518 34.4985 4.62958 34.633 4.49502C34.7676 4.36045 34.8432 4.17793 34.8432 3.98763C34.8432 3.79732 34.7676 3.61481 34.633 3.48024C34.4985 3.34567 34.316 3.27008 34.1256 3.27008H32.5845L31.8324 2.00203C31.8021 1.95162 31.7851 1.89429 31.7831 1.83548C31.7811 1.77667 31.7942 1.71832 31.8211 1.66597C31.8479 1.61362 31.8878 1.56901 31.9367 1.53636C31.9857 1.5037 32.0421 1.48409 32.1008 1.47938C36.5718 1.16003 40.5216 2.46966 43.3508 5.18355C42.7301 5.44742 42.1991 5.88559 41.8222 6.44502C41.4453 7.00444 41.2387 7.66113 41.2273 8.33557C41.216 9.01001 41.4004 9.67328 41.7582 10.2451C42.116 10.8169 42.632 11.2727 43.2435 11.5573L41.9728 12.6576C40.5043 12.4707 39.0128 12.5987 37.5977 13.0331C36.1825 13.4675 34.8761 14.1983 33.7654 15.177C32.6547 16.1556 31.7652 17.3597 31.1561 18.7089C30.5471 20.0581 30.2323 21.5216 30.233 23.0019C30.2321 24.5471 30.5757 26.0731 31.2387 27.4689ZM35.0126 16.0102L36.5249 17.448L41.6158 22.2894C41.7582 22.4245 41.841 22.6107 41.8461 22.8069C41.8512 23.0031 41.7781 23.1933 41.643 23.3357C41.5079 23.4781 41.3217 23.5609 41.1255 23.566C40.9293 23.5711 40.7391 23.498 40.5967 23.3629L35.5064 18.5222L35.5017 18.5175L33.9418 17.0307C34.2704 16.662 34.6285 16.3207 35.0126 16.0102Z"/>
</mask>
<path d="M47.9178 18.8348C47.8701 18.7536 47.8069 18.6825 47.7317 18.6257C47.6565 18.569 47.5709 18.5275 47.4797 18.5038C47.3886 18.4801 47.2936 18.4746 47.2003 18.4876C47.107 18.5006 47.0172 18.5318 46.9359 18.5795C46.8547 18.6272 46.7836 18.6905 46.7268 18.7656C46.6701 18.8408 46.6286 18.9264 46.6049 19.0176C46.5812 19.1088 46.5757 19.2037 46.5887 19.297C46.6017 19.3904 46.6329 19.4802 46.6806 19.5614C47.2399 20.516 47.5445 21.5982 47.5654 22.7043C47.5863 23.8105 47.3227 24.9034 46.7999 25.8784C46.2771 26.8534 45.5127 27.6778 44.5798 28.2726C43.647 28.8673 42.577 29.2125 41.4724 29.275C40.3679 29.3374 39.2658 29.1152 38.2718 28.6295C37.2778 28.1437 36.4252 27.4108 35.7958 26.501C35.1664 25.5912 34.7812 24.535 34.6772 23.4335C34.5732 22.3321 34.7538 21.2224 35.2018 20.2109L37.1079 22.0224C36.9335 22.8906 37.0462 23.7919 37.4287 24.5905C37.8113 25.3891 38.4431 26.0417 39.229 26.4499C40.0148 26.8581 40.912 26.9997 41.7854 26.8535C42.6587 26.7073 43.4609 26.2812 44.0709 25.6393C44.681 24.9975 45.0658 24.1747 45.1675 23.295C45.2691 22.4154 45.082 21.5265 44.6344 20.7624C44.1869 19.9984 43.503 19.4005 42.686 19.059C41.869 18.7175 40.9631 18.6508 40.1049 18.869L38.1988 17.0575C39.334 16.4843 40.6133 16.2593 41.876 16.4108C43.1387 16.5623 44.3284 17.0835 45.2958 17.9089C45.4406 18.0324 45.6285 18.0934 45.8182 18.0783C46.0078 18.0633 46.1838 17.9735 46.3073 17.8288C46.4308 17.684 46.4917 17.4961 46.4766 17.3065C46.4616 17.1168 46.3718 16.9408 46.2271 16.8174C44.9782 15.7532 43.4286 15.1048 41.794 14.9627C40.1593 14.8206 38.521 15.1917 37.1072 16.0243L36.2243 15.185C37.5736 14.4169 39.0998 14.0138 40.6524 14.0156C41.1301 14.0159 41.607 14.0538 42.0788 14.129C42.1821 14.1454 42.2878 14.1391 42.3884 14.1103C42.489 14.0816 42.5821 14.0311 42.6611 13.9626L44.9248 12.0021C45.2821 11.6945 45.5585 11.3041 45.7299 10.8649C46.3338 9.3104 46.364 6.37645 45.2113 5.05943C42.0486 1.44718 37.3548 -0.33144 31.9941 0.0509857C31.6915 0.0737628 31.3997 0.173526 31.1464 0.340793C30.8932 0.508061 30.6869 0.737283 30.5471 1.0067C30.4074 1.27612 30.3388 1.57678 30.3479 1.88015C30.3571 2.18352 30.4436 2.47952 30.5993 2.74005L30.9146 3.27008H29.4178C29.2275 3.27008 29.045 3.34567 28.9104 3.48024C28.7758 3.61481 28.7002 3.79732 28.7002 3.98763C28.7002 4.17793 28.7758 4.36045 28.9104 4.49502C29.045 4.62958 29.2275 4.70518 29.4178 4.70518H31.7305C32.0633 5.43523 32.2216 6.23278 32.1927 7.03463C31.3569 6.29533 30.3746 5.74045 29.31 5.40613C28.2454 5.07182 27.1222 4.96557 26.0138 5.09432C24.9054 5.22307 23.8365 5.58393 22.8769 6.15337C21.9172 6.72282 21.0883 7.48808 20.4442 8.39928H15.2821C14.8747 8.39872 14.4796 8.2596 14.1617 8.00478L8.91236 3.78736C8.78495 3.68488 8.62635 3.62901 8.46284 3.62902H4.16894C3.71275 3.63017 3.26865 3.77574 2.9003 4.04485C2.53195 4.31397 2.25827 4.69281 2.11852 5.12706C1.97876 5.56131 1.98009 6.02866 2.12233 6.46211C2.26457 6.89555 2.5404 7.27282 2.91028 7.53983L4.45341 8.64887C4.60795 8.7599 4.80027 8.805 4.98806 8.77423C5.17585 8.74347 5.34373 8.63937 5.45476 8.48483C5.56579 8.33029 5.61089 8.13796 5.58013 7.95017C5.54936 7.76238 5.44526 7.59451 5.29072 7.48347L3.7476 6.37444C3.62281 6.28505 3.52963 6.15835 3.48149 6.01259C3.43336 5.86683 3.43275 5.70955 3.47977 5.56343C3.52679 5.41731 3.61899 5.28989 3.74309 5.19955C3.86719 5.10921 4.01678 5.06061 4.17028 5.06077H8.21058L13.2633 9.12053C13.8361 9.57958 14.548 9.83014 15.2821 9.83103H20.7126L25.3587 11.607L27.9156 12.5845C26.5769 13.6065 24.9402 14.1615 23.256 14.1645H21.6807C20.8869 14.1654 20.1079 14.3797 19.4254 14.7849C18.7428 15.1901 18.1817 15.7714 17.8007 16.4678L16.6152 15.6157L7.23707 8.88033C7.16055 8.82531 7.07394 8.7859 6.98219 8.76435C6.89043 8.7428 6.79533 8.73953 6.70232 8.75473C6.6093 8.76993 6.52019 8.8033 6.44008 8.85294C6.35996 8.90258 6.2904 8.96752 6.23538 9.04404C6.18036 9.12056 6.14094 9.20717 6.11939 9.29892C6.09784 9.39067 6.09457 9.48577 6.10978 9.57879C6.12498 9.6718 6.15835 9.76091 6.20799 9.84103C6.25763 9.92115 6.32256 9.99071 6.39908 10.0457L14.901 16.1511L13.3545 17.1025C11.9729 15.7885 10.1629 15.0182 8.25811 14.9333C6.35331 14.8484 4.482 15.4548 2.98894 16.6406C1.49589 17.8265 0.481693 19.512 0.133198 21.3866C-0.215297 23.2611 0.125392 25.1985 1.0925 26.8417C2.0596 28.4849 3.58797 29.7233 5.39601 30.3287C7.20405 30.934 9.16996 30.8656 10.9315 30.136C12.6931 29.4064 14.1317 28.0648 14.9822 26.3583C15.8327 24.6518 16.0379 22.6954 15.5599 20.8496L17.258 19.805V25.1838C17.2582 26.1706 17.6501 27.1169 18.3477 27.8149C19.0453 28.5129 19.9914 28.9053 20.9782 28.906H24.4348V29.2891H19.7545C19.5642 29.2891 19.3817 29.3647 19.2471 29.4993C19.1125 29.6339 19.0369 29.8164 19.0369 30.0067C19.0369 30.197 19.1125 30.3795 19.2471 30.5141C19.3817 30.6486 19.5642 30.7242 19.7545 30.7242H25.1527C25.3429 30.7242 25.5254 30.6487 25.6599 30.5142C25.7944 30.3797 25.8699 30.1973 25.8699 30.007V28.906H32.453C32.5814 28.9057 32.7072 28.871 32.8176 28.8055C32.9279 28.74 33.0186 28.6461 33.0803 28.5336C33.142 28.421 33.1724 28.294 33.1682 28.1658C33.1641 28.0375 33.1256 27.9127 33.0569 27.8044C32.1464 26.365 31.664 24.6963 31.6662 22.9931C31.6683 21.2899 32.1548 19.6225 33.0689 18.1854L34.1095 19.175C33.4733 20.3926 33.1658 21.7551 33.2174 23.128C33.2691 24.5008 33.6781 25.8364 34.4041 27.0027C35.1301 28.169 36.1479 29.1257 37.3569 29.7782C38.5659 30.4306 39.9242 30.7562 41.2977 30.7229C42.6711 30.6895 44.012 30.2983 45.1879 29.5879C46.3638 28.8775 47.3339 27.8725 48.0024 26.6723C48.6709 25.4721 49.0146 24.1182 48.9995 22.7445C48.9845 21.3708 48.6111 20.0248 47.9165 18.8395L47.9178 18.8348ZM43.7527 22.8268C43.7512 23.4804 43.5076 24.1103 43.0691 24.595C42.6305 25.0797 42.028 25.3848 41.3778 25.4515C40.7276 25.5182 40.0757 25.3417 39.5479 24.9562C39.0201 24.5706 38.6537 24.0033 38.5195 23.3635L39.6098 24.4021C40.0279 24.7995 40.5868 25.0144 41.1634 24.9997C41.7401 24.985 42.2873 24.7418 42.6846 24.3236C43.082 23.9055 43.2969 23.3466 43.2822 22.77C43.2675 22.1933 43.0243 21.6461 42.6061 21.2488L41.5145 20.2109C42.1382 20.3086 42.7065 20.6258 43.117 21.1054C43.5275 21.5851 43.7532 22.1955 43.7534 22.8268H43.7527ZM44.3693 6.3731C44.8314 7.68317 44.8276 9.1125 44.3586 10.4201C43.8801 10.3387 43.4459 10.0902 43.1333 9.7189C42.8206 9.34758 42.6498 8.87745 42.6511 8.39205C42.6524 7.90666 42.8257 7.43744 43.1403 7.06779C43.4549 6.69813 43.8904 6.45199 44.3693 6.3731ZM26.9253 6.47306C27.8586 6.47005 28.7815 6.66928 29.6305 7.05705C30.4795 7.44481 31.2343 8.01191 31.8432 8.71931C31.3306 9.92251 30.4417 10.927 29.3098 11.5821L23.3251 9.29496L21.9605 8.77298C22.5704 8.04991 23.3314 7.46927 24.1898 7.07192C25.0483 6.67456 25.9834 6.47015 26.9293 6.47306H26.9253ZM17.3123 17.8834C17.3016 17.9505 17.2902 18.0284 17.2815 18.1075L10.9077 22.0311L10.901 22.0351L8.74731 23.3568C8.57898 23.4574 8.37761 23.4869 8.18749 23.439C7.99737 23.391 7.83409 23.2696 7.73355 23.1012C7.63301 22.9329 7.60347 22.7315 7.6514 22.5414C7.69934 22.3513 7.82084 22.188 7.98917 22.0875L10.2401 20.7027L10.2462 20.6993L13.6008 18.6342H13.6048L16.1597 17.0622L17.3123 17.8834ZM6.5071 23.8459C6.65498 24.0908 6.84963 24.304 7.07995 24.4736C7.31026 24.6432 7.57172 24.7658 7.8494 24.8343C8.12708 24.9028 8.41553 24.916 8.6983 24.873C8.98107 24.8301 9.25261 24.7319 9.49741 24.584L10.2133 24.1432C9.97437 24.5613 9.6259 24.9062 9.20542 25.1409C8.78494 25.3756 8.3084 25.4911 7.82713 25.4749C7.34586 25.4588 6.87812 25.3116 6.47431 25.0493C6.0705 24.787 5.74592 24.4195 5.53555 23.9863C5.32519 23.5531 5.23701 23.0708 5.28051 22.5912C5.32402 22.1117 5.49756 21.6531 5.78245 21.2648C6.06733 20.8766 6.45275 20.5735 6.89718 20.3881C7.34161 20.2027 7.82819 20.1422 8.30451 20.2129L7.24646 20.8637C6.75286 21.1616 6.39781 21.6433 6.2594 22.203C6.121 22.7626 6.21058 23.3543 6.50844 23.848L6.5071 23.8459ZM14.379 22.8268C14.3807 24.2997 13.8796 25.729 12.9586 26.8783C12.0376 28.0277 10.7518 28.8282 9.31398 29.1475C7.87614 29.4668 6.37239 29.2858 5.05145 28.6343C3.73051 27.9828 2.67153 26.8999 2.04968 25.5647C1.42782 24.2296 1.28034 22.7222 1.63163 21.2918C1.98293 19.8615 2.81195 18.5939 3.98157 17.6987C5.15119 16.8036 6.59134 16.3345 8.06379 16.369C9.53624 16.4036 10.9528 16.9398 12.0791 17.8888L9.87379 19.2448C9.09729 18.8211 8.20413 18.6613 7.32892 18.7895C6.4537 18.9176 5.64383 19.3267 5.02133 19.9551C4.39883 20.5835 3.99743 21.3973 3.87761 22.2737C3.75779 23.15 3.92603 24.0416 4.35699 24.8141C4.78795 25.5866 5.45829 26.198 6.26699 26.5564C7.0757 26.9147 7.97896 27.0006 8.84068 26.8009C9.70241 26.6013 10.4759 26.127 11.0446 25.4496C11.6134 24.7721 11.9465 23.9281 11.9939 23.0449L14.2697 21.6446C14.3425 22.0345 14.3791 22.4302 14.379 22.8268ZM31.2387 27.4689H20.9782C20.3737 27.4675 19.7943 27.2267 19.3668 26.7992C18.9393 26.3717 18.6985 25.7923 18.6971 25.1878V18.5879C18.6987 17.8809 18.9505 17.1972 19.4079 16.6581C19.8654 16.119 20.4989 15.7592 21.1963 15.6426C22.4757 15.4292 25.3453 16.1961 28.5436 13.9042C30.8059 12.2833 32.8583 11.248 33.4936 8.20874C33.7382 7.04259 33.6628 5.83201 33.2756 4.70518H34.1256C34.316 4.70518 34.4985 4.62958 34.633 4.49502C34.7676 4.36045 34.8432 4.17793 34.8432 3.98763C34.8432 3.79732 34.7676 3.61481 34.633 3.48024C34.4985 3.34567 34.316 3.27008 34.1256 3.27008H32.5845L31.8324 2.00203C31.8021 1.95162 31.7851 1.89429 31.7831 1.83548C31.7811 1.77667 31.7942 1.71832 31.8211 1.66597C31.8479 1.61362 31.8878 1.56901 31.9367 1.53636C31.9857 1.5037 32.0421 1.48409 32.1008 1.47938C36.5718 1.16003 40.5216 2.46966 43.3508 5.18355C42.7301 5.44742 42.1991 5.88559 41.8222 6.44502C41.4453 7.00444 41.2387 7.66113 41.2273 8.33557C41.216 9.01001 41.4004 9.67328 41.7582 10.2451C42.116 10.8169 42.632 11.2727 43.2435 11.5573L41.9728 12.6576C40.5043 12.4707 39.0128 12.5987 37.5977 13.0331C36.1825 13.4675 34.8761 14.1983 33.7654 15.177C32.6547 16.1556 31.7652 17.3597 31.1561 18.7089C30.5471 20.0581 30.2323 21.5216 30.233 23.0019C30.2321 24.5471 30.5757 26.0731 31.2387 27.4689ZM35.0126 16.0102L36.5249 17.448L41.6158 22.2894C41.7582 22.4245 41.841 22.6107 41.8461 22.8069C41.8512 23.0031 41.7781 23.1933 41.643 23.3357C41.5079 23.4781 41.3217 23.5609 41.1255 23.566C40.9293 23.5711 40.7391 23.498 40.5967 23.3629L35.5064 18.5222L35.5017 18.5175L33.9418 17.0307C34.2704 16.662 34.6285 16.3207 35.0126 16.0102Z" fill="#081A3E" stroke="white" stroke-width="0.1" mask="url(#path-1-inside-1)"/>
<path d="M22.4578 23.4879H24.5182C24.7019 23.4879 24.878 23.5609 25.0079 23.6907C25.1378 23.8206 25.2107 23.9968 25.2107 24.1805C25.2107 24.3641 25.1378 24.5403 25.0079 24.6701C24.878 24.8 24.7019 24.873 24.5182 24.873H22.4578C22.2741 24.873 22.098 24.8 21.9681 24.6701C21.8382 24.5403 21.7652 24.3641 21.7652 24.1805C21.7652 23.9968 21.8382 23.8206 21.9681 23.6907C22.098 23.5609 22.2741 23.4879 22.4578 23.4879Z" fill="#081A3E" stroke="white" stroke-width="0.05"/>
</svg>
