<svg id="Layer_1" data-name="Layer 1" xmlns="http://www.w3.org/2000/svg" viewBox="0 0 13.95 14.29">
  <g>
    <path class="cls-1" d="M2.21,4.73a2,2,0,0,0,.63.1,2.61,2.61,0,0,0,.48,0,2,2,0,0,0,1-.56,2.06,2.06,0,0,0,.49-.86h9.5a.52.52,0,0,0,.35-.16.53.53,0,0,0,.15-.36.55.55,0,0,0-.15-.36.57.57,0,0,0-.36-.16H4.77a2,2,0,0,0-3-1.16A2,2,0,0,0,1,2,2,2,0,0,0,.86,3.08,2,2,0,0,0,2.21,4.73ZM1.89,2.84a.92.92,0,0,1,.16-.53A.87.87,0,0,1,2.48,2a.89.89,0,0,1,.36-.07H3a1,1,0,0,1,.49.27,1,1,0,0,1,.26.49,1,1,0,0,1-.06.55,1,1,0,0,1-.35.43,1,1,0,0,1-1.2-.12A1,1,0,0,1,1.89,2.84Z" transform="translate(-0.85 -0.86)"/>
    <path class="cls-1" d="M14.76,13a.57.57,0,0,0-.12-.18.54.54,0,0,0-.18-.11.64.64,0,0,0-.2,0H4.77A2,2,0,0,0,4,11.55a2,2,0,0,0-1.38-.37,2,2,0,0,0-1.28.64,2,2,0,0,0-.51,1.34,2,2,0,0,0,.51,1.33,2,2,0,0,0,1.28.65h.2A1.92,1.92,0,0,0,4,14.76a2,2,0,0,0,.75-1.08h9.49a.45.45,0,0,0,.2,0,.49.49,0,0,0,.18-.11.66.66,0,0,0,.12-.17.52.52,0,0,0,0-.4Zm-11,.2a.9.9,0,0,1-.08.36.79.79,0,0,1-.2.31,1.06,1.06,0,0,1-.31.21,1,1,0,0,1-.9-.09A.87.87,0,0,1,2,13.52,1,1,0,0,1,1.9,13a1,1,0,0,1,.27-.49,1,1,0,0,1,.49-.26l.18,0a1,1,0,0,1,.37.08,1,1,0,0,1,.43.35,1,1,0,0,1,.16.48Z" transform="translate(-0.85 -0.86)"/>
    <path class="cls-1" d="M11,7.48a2,2,0,0,0-.66-1,2.06,2.06,0,0,0-2.53,0,2,2,0,0,0-.66,1H1.74a.56.56,0,0,0-.37.15.53.53,0,0,0,0,.74.56.56,0,0,0,.37.15H7.18a2,2,0,0,0,.66,1,2,2,0,0,0,2.53,0,2,2,0,0,0,.66-1h3.24a.5.5,0,0,0,.35-.16.51.51,0,0,0,0-.72.52.52,0,0,0-.36-.16ZM9.47,8.88a.94.94,0,0,1-.55.06,1,1,0,0,1-.7-1.31,1,1,0,0,1,1.56-.31,1,1,0,0,1,.28.68,1,1,0,0,1-.16.53A.92.92,0,0,1,9.47,8.88Z" transform="translate(-0.85 -0.86)"/>
  </g>
</svg>
