<svg id="Layer_1" data-name="Layer 1" xmlns="http://www.w3.org/2000/svg" viewBox="0 0 16.8 13.98">
  <path class="cls-1" d="M17.26,5.24,14.65,1a.81.81,0,0,0-.34-.32A.89.89,0,0,0,13.86.6H4.14a.89.89,0,0,0-.45.12A.78.78,0,0,0,3.36,1L.74,5.24a.84.84,0,0,0-.13.58.92.92,0,0,0,.24.54l7.48,7.92a.77.77,0,0,0,.31.22.86.86,0,0,0,.36.08,1,1,0,0,0,.37-.08.81.81,0,0,0,.3-.21l7.48-7.93a.93.93,0,0,0,.25-.54A.91.91,0,0,0,17.26,5.24Zm-.34.21Zm-1.6.16L9,12.31,2.68,5.61l2-3.16h8.7Z" transform="translate(-0.6 -0.6)"/>
</svg>
