<svg width="80" height="80" viewBox="0 0 80 80" fill="none" xmlns="http://www.w3.org/2000/svg">
   <rect width="80" height="80" rx="12" fill="#EEF2F6"/>
   <path d="M58.3979 35.8954L57.8053 35.3027L56.4277 35.6465C51.2988 37.4061 45.8997 38.2997 40.3848 38.2997C34.8882 38.2997 29.5018 37.4061 24.3735 35.6465L22.9979 35.3027L22.4043 35.8954C21.0813 37.2169 20 39.8302 20 41.6995V57.0003H25.1003L26.4636 51.5486C35.8261 53.1425 45.4131 53.0609 54.3371 51.5451L55.7019 57.0003H60.8022V41.6995C60.8022 39.8302 59.7199 37.2169 58.3979 35.8954ZM30.9743 46.252C30.455 46.9813 25.8801 46.9813 25.3609 46.252C25.0141 45.7675 25.0141 43.2357 25.3609 42.7507C25.9076 41.9836 30.9743 43.5759 30.9743 44.5026C30.9743 44.7943 31.1461 46.0097 30.9743 46.252ZM55.4428 46.254C54.9231 46.9829 50.3476 46.9829 49.8295 46.254C49.6566 46.0113 49.8295 44.7964 49.8295 44.5036C49.8295 43.5774 54.895 41.9851 55.4428 42.7522C55.7881 43.2372 55.7881 45.769 55.4428 46.254Z" fill="#9AA4B2"/>
   <path d="M54.5697 29.8002L53.3773 26.2254C52.7846 24.451 50.771 23 48.9018 23H31.9005C30.0308 23 28.0167 24.451 27.426 26.2254L26.2346 29.8002H21.7V32.3503L25.1003 33.2005C35.2973 36.7284 46.245 36.4708 55.702 33.2005L59.1023 32.3503V29.8002H54.5697Z" fill="#155EEF"/>
   <path d="M53.4085 61.7249L53.4083 61.7239L49.3632 43.1191C49.3631 43.1191 49.3631 43.119 49.3631 43.1189C49.3042 42.848 49.326 42.5658 49.426 42.3072C49.5259 42.0485 49.6996 41.8249 49.9254 41.664C50.1513 41.5031 50.4194 41.412 50.6965 41.4021C50.9736 41.3921 51.2475 41.4637 51.4843 41.6079L53.4085 61.7249ZM53.4085 61.7249C53.4667 61.9914 53.6006 62.2355 53.7941 62.4277C53.9877 62.62 54.2326 62.7523 54.4994 62.8088L54.5084 62.8107L54.5174 62.8124L54.5346 62.8158L54.5462 62.818L54.5579 62.82C54.8174 62.8636 55.0839 62.8341 55.3275 62.7348C55.5711 62.6355 55.7823 62.4703 55.9373 62.2577L55.9374 62.2577L58.4025 58.8776L60.8072 62.2537C60.8072 62.2538 60.8073 62.2538 60.8073 62.2539C60.9152 62.4054 61.0519 62.5342 61.2096 62.6329L61.2096 62.6329C61.3673 62.7316 61.543 62.7983 61.7265 62.8292C61.91 62.86 62.0978 62.8543 62.2791 62.8126L62.2792 62.8126C62.4604 62.7708 62.6316 62.6938 62.783 62.5859C62.7832 62.5858 62.7833 62.5857 62.7834 62.5856L65.4981 60.6519L65.4982 60.6519C65.8042 60.4339 66.011 60.1033 66.0732 59.7328C66.1355 59.3623 66.048 58.9822 65.83 58.6762L65.83 58.6762L63.4246 55.2996L67.4242 54.0745C67.4243 54.0745 67.4243 54.0745 67.4244 54.0745C67.6856 53.9945 67.918 53.8407 68.0938 53.6317C68.2697 53.4226 68.3813 53.1671 68.4152 52.8961C68.4492 52.625 68.4041 52.3499 68.2853 52.1038L68.2852 52.1038C68.1671 51.8591 67.9803 51.6521 67.7461 51.5096C67.7461 51.5095 67.746 51.5095 67.7459 51.5095C67.7458 51.5094 67.7457 51.5093 67.7456 51.5093L51.4845 41.608L53.4085 61.7249Z" fill="#155EEF" stroke="#EEF2F6" stroke-width="2"/>
</svg>
