<svg width="58" height="24" viewBox="0 0 58 24" fill="none" xmlns="http://www.w3.org/2000/svg">
<g clip-path="url(#clip0_8755_59263)">
<path fill-rule="evenodd" clip-rule="evenodd" d="M17.9515 2.45253C17.8901 2.45253 17.8279 2.43558 17.7723 2.40017C15.9922 1.26915 13.931 0.671328 11.8118 0.671328C11.5697 0.671328 11.324 0.679217 11.082 0.694489C10.8113 0.711944 10.5388 0.739468 10.2725 0.776559C10.0901 0.800727 9.91968 0.673678 9.89437 0.49007C9.86889 0.306461 9.99711 0.136951 10.1805 0.111441C10.463 0.0721678 10.7522 0.0431328 11.0393 0.0245035C11.2955 0.0083916 11.5555 0 11.8118 0C14.0583 0 16.2437 0.633902 18.1313 1.83357C18.2877 1.93275 18.3339 2.1402 18.2347 2.29661C18.171 2.39748 18.0624 2.45253 17.9515 2.45253ZM14.9009 2.80565C14.866 2.80565 14.8305 2.80011 14.7956 2.78853C14.1804 2.58478 13.543 2.44515 12.901 2.37365C11.5877 2.2278 10.2765 2.34713 9.04126 2.72392C8.8641 2.77796 8.67672 2.6781 8.62292 2.5007C8.56895 2.3233 8.66868 2.13583 8.84583 2.08179C10.1681 1.67849 11.5718 1.54943 12.9751 1.70668C13.6633 1.78322 14.3468 1.93275 15.0061 2.15127C15.182 2.20951 15.2773 2.3995 15.219 2.57522C15.1726 2.71636 15.0415 2.80565 14.9009 2.80565ZM19.8454 3.95631C19.7606 3.95631 19.6758 3.92442 19.6106 3.86031C19.5174 3.76867 19.4225 3.67888 19.3261 3.59077C19.1895 3.46573 19.1798 3.25343 19.3045 3.11647C19.4294 2.97986 19.6414 2.96996 19.7782 3.09482C19.8806 3.18847 19.9811 3.2838 20.08 3.38098C20.2123 3.51088 20.2143 3.72336 20.0847 3.85561C20.019 3.92274 19.932 3.95631 19.8454 3.95631ZM18.6614 5.09454C18.5773 5.09454 18.4932 5.06316 18.4281 4.99989C18.3348 4.90942 18.2397 4.82047 18.1429 4.73387C18.0048 4.61018 17.9929 4.39804 18.1162 4.25991C18.2399 4.12179 18.4514 4.1097 18.5897 4.23323C18.6934 4.32621 18.795 4.42103 18.8949 4.51804C19.0278 4.64694 19.031 4.85941 18.9021 4.99267C18.8364 5.06047 18.7491 5.09454 18.6614 5.09454ZM2.49999 5.46193C2.43177 5.46193 2.36322 5.44128 2.30389 5.39832C2.15372 5.28956 2.1202 5.07961 2.22847 4.92956C3.45316 3.23379 5.10255 1.88559 6.99833 1.03066C7.16744 0.954293 7.36589 1.02982 7.44164 1.19882C7.51773 1.36783 7.44248 1.56671 7.2737 1.64274C5.48452 2.44951 3.92781 3.72218 2.77201 5.32296C2.70631 5.41376 2.6039 5.46193 2.49999 5.46193ZM10.4852 5.73214C10.3296 5.73214 10.1904 5.62338 10.1573 5.46495C10.1195 5.28352 10.2359 5.10579 10.4171 5.06786C10.5562 5.03882 10.6969 5.01415 10.8353 4.99435C11.0182 4.96833 11.1883 5.09521 11.2146 5.27899C11.2409 5.46243 11.1135 5.63245 10.9302 5.6588C10.8058 5.67659 10.6791 5.69891 10.5539 5.72509C10.5309 5.72979 10.5078 5.73214 10.4852 5.73214ZM0.651311 9.47244C0.625165 9.47244 0.598851 9.46959 0.57237 9.46304C0.392362 9.41958 0.281743 9.23832 0.325153 9.0579C0.357836 8.92263 0.392865 8.78819 0.430073 8.6546C0.480019 8.47602 0.664384 8.3718 0.843051 8.42131C1.02138 8.47116 1.12563 8.65644 1.07585 8.83485C1.04082 8.96089 1.00764 9.08777 0.976967 9.21566C0.939759 9.36939 0.802658 9.47244 0.651311 9.47244ZM7.55092 9.70304C7.49394 9.70304 7.43628 9.68861 7.38332 9.65807C7.22309 9.56509 7.16845 9.35966 7.26113 9.19921C7.33303 9.07519 7.41047 8.9525 7.49176 8.83535C7.59701 8.68313 7.80635 8.64486 7.95803 8.7506C8.11022 8.85616 8.14826 9.06528 8.04267 9.21767C7.97178 9.32005 7.90423 9.42713 7.84155 9.53555C7.77937 9.64313 7.66674 9.70304 7.55092 9.70304ZM16.1608 9.86937C16.0408 9.86937 15.9244 9.80475 15.8643 9.69096C15.8388 9.64279 15.8125 9.59496 15.785 9.54746C15.7535 9.49225 15.7205 9.43938 15.6873 9.38651C15.6449 9.31938 15.6016 9.25174 15.5554 9.18646C15.5388 9.16279 15.5225 9.14131 15.5059 9.12L15.4771 9.08173C15.2041 8.7167 14.8915 8.40419 14.5479 8.15261L14.4953 8.113C14.4782 8.09991 14.4613 8.08699 14.4437 8.07457C14.3768 8.02724 14.3074 7.98344 14.238 7.93963C14.1879 7.90825 14.1371 7.87636 14.085 7.84649C14.0245 7.81175 13.9638 7.77902 13.9025 7.7473C13.8334 7.71172 13.7623 7.67748 13.6903 7.64492C13.6338 7.61924 13.5877 7.59826 13.5411 7.57913C13.4479 7.54103 13.3472 7.50411 13.2421 7.4697L13.1984 7.45443C13.1846 7.4494 13.1709 7.44453 13.1568 7.44033C12.8804 7.35558 12.5946 7.297 12.3062 7.26612C12.204 7.25538 12.0997 7.25169 11.9896 7.24766C11.9551 7.24632 11.9282 7.24464 11.9016 7.24279C11.8739 7.24095 11.8461 7.23877 11.8178 7.23877C10.9553 7.23877 10.1195 7.47709 9.39524 7.92839C9.23786 8.02607 9.0312 7.97807 8.93349 7.82064C8.83578 7.66321 8.88388 7.45628 9.04109 7.35826C9.87174 6.84084 10.8299 6.56744 11.8119 6.56744C11.8627 6.56761 11.9051 6.57012 11.9475 6.57314C11.9676 6.57449 11.9877 6.57583 12.008 6.57667C12.1302 6.58103 12.2509 6.58523 12.3769 6.59849C12.7083 6.6339 13.0361 6.70103 13.3524 6.79821C13.3753 6.80526 13.399 6.81331 13.4226 6.8217L13.4526 6.83228C13.5709 6.87105 13.6868 6.91351 13.7949 6.95782C13.8497 6.98047 13.9035 7.00464 13.9569 7.02898C14.0484 7.07043 14.1299 7.10954 14.21 7.15082C14.2811 7.18775 14.3506 7.225 14.4187 7.26428C14.4778 7.29818 14.5362 7.3346 14.5945 7.37119C14.6746 7.42154 14.7536 7.47189 14.8302 7.52593C14.8543 7.54305 14.8781 7.561 14.9017 7.57913L14.9431 7.61018C15.3408 7.90154 15.7007 8.26103 16.0136 8.67927L16.0391 8.71267C16.0609 8.7412 16.0825 8.7699 16.1031 8.7991C16.1552 8.87278 16.205 8.95032 16.2543 9.02819C16.2928 9.08928 16.3302 9.15004 16.3659 9.21214C16.3969 9.26584 16.4273 9.32089 16.4568 9.37661C16.5434 9.54025 16.4811 9.74349 16.3175 9.83043C16.2674 9.85695 16.2137 9.86937 16.1608 9.86937ZM2.05299 10.9185C2.03891 10.9185 2.02483 10.9176 2.01058 10.916C1.82672 10.8926 1.69683 10.7248 1.71979 10.5409C2.07075 7.75569 3.58305 5.21152 5.86884 3.56089C6.01918 3.45264 6.22886 3.48638 6.33679 3.63675C6.44523 3.78696 6.41121 3.99675 6.26104 4.10534C4.12559 5.64755 2.71268 8.02372 2.38501 10.6248C2.36356 10.7946 2.21925 10.9185 2.05299 10.9185ZM18.266 11.0202C18.1033 11.0202 17.9605 10.9014 17.935 10.7352C17.9256 10.6728 17.9151 10.6107 17.9023 10.5494C17.8935 10.5076 17.8822 10.4668 17.871 10.4259C17.8623 10.3935 17.8534 10.3611 17.8452 10.3286L17.8335 10.2804C17.8041 10.1611 17.7763 10.0484 17.7425 9.9407C17.7294 9.89991 17.7138 9.8598 17.6984 9.81952C17.6868 9.78931 17.6754 9.7591 17.6643 9.72872L17.6533 9.69734C17.6107 9.57818 17.5707 9.46539 17.5241 9.35815C17.5073 9.31888 17.488 9.28095 17.4693 9.24285C17.4553 9.21499 17.4414 9.18713 17.4282 9.15893L17.4166 9.13443C17.3613 9.01829 17.309 8.90853 17.251 8.80414C17.2301 8.76654 17.2071 8.72995 17.1842 8.69337L17.1382 8.61902C17.0742 8.51228 17.0015 8.39177 16.9262 8.28268C16.9014 8.24744 16.8749 8.2127 16.8483 8.17812L16.7975 8.11116C16.7169 8.00257 16.6373 7.897 16.5533 7.79798C16.523 7.76207 16.4906 7.72766 16.4586 7.69309L16.4087 7.63871C16.3228 7.54456 16.2312 7.44503 16.1366 7.3534C16.1006 7.31849 16.0632 7.28542 16.0258 7.25203L15.9739 7.20537C15.8812 7.12162 15.7815 7.033 15.6796 6.95211C15.6355 6.91686 15.5907 6.88414 15.546 6.85141L15.4967 6.81516C15.4052 6.74769 15.2961 6.66847 15.1853 6.59647C15.1282 6.55955 15.0692 6.52481 15.01 6.4899L14.9823 6.47328C14.8938 6.42075 14.7777 6.35278 14.6592 6.29152L14.6399 6.28162C14.4753 6.1972 14.4101 5.9948 14.4944 5.82982C14.5787 5.66517 14.7804 5.59921 14.9456 5.68414L14.9686 5.69605C15.1008 5.76419 15.2284 5.83888 15.3243 5.89611L15.3511 5.91172C15.4179 5.95133 15.4845 5.99077 15.5498 6.03306C15.6757 6.11479 15.7949 6.20123 15.8948 6.27491L15.9419 6.30948C15.9942 6.34791 16.0465 6.38618 16.0972 6.42696C16.2129 6.51893 16.3223 6.61611 16.4232 6.70724L16.4717 6.75054C16.5159 6.79015 16.56 6.82959 16.6027 6.87088C16.7113 6.97594 16.8109 7.08436 16.9039 7.1864L16.9497 7.23608C16.9886 7.27804 17.0273 7.31983 17.0643 7.36347C17.161 7.47759 17.2477 7.59239 17.335 7.70987L17.3804 7.76979C17.4133 7.81258 17.446 7.85538 17.4768 7.89986C17.5646 8.02691 17.6431 8.15714 17.7123 8.27228L17.7525 8.33723C17.7813 8.38338 17.81 8.42954 17.8366 8.4772C17.9052 8.60056 17.9644 8.72526 18.0218 8.84593L18.0693 8.94344C18.0936 8.99228 18.1177 9.04111 18.1395 9.09163C18.1945 9.21902 18.2404 9.34741 18.2845 9.47144L18.2955 9.50215C18.3048 9.52783 18.3147 9.55367 18.3245 9.57935C18.3445 9.63155 18.3643 9.68408 18.3814 9.73762C18.4223 9.86668 18.4538 9.99541 18.4844 10.1199L18.496 10.1671C18.5027 10.1945 18.5102 10.2216 18.5176 10.2488C18.5324 10.3027 18.547 10.3566 18.5583 10.4118C18.5738 10.4848 18.5865 10.559 18.5979 10.6338C18.6257 10.8171 18.5 10.9883 18.3172 11.0163C18.2999 11.019 18.283 11.0202 18.266 11.0202ZM23.2493 13.1188C23.2402 13.1188 23.2308 13.1184 23.2214 13.1176C23.0371 13.1023 22.8996 12.9402 22.9149 12.7556C22.9402 12.4486 22.9529 12.1363 22.9529 11.8275C22.9531 10.1498 22.5906 8.53745 21.8756 7.03468C21.796 6.86735 21.8669 6.66696 22.034 6.58724C22.2007 6.50786 22.4012 6.57835 22.4808 6.74584C23.2392 8.33958 23.6235 10.0493 23.6234 11.8275C23.6234 12.1546 23.6098 12.485 23.5831 12.8106C23.5687 12.986 23.4221 13.1188 23.2493 13.1188ZM5.34994 13.2874C5.18988 13.2874 5.04842 13.1723 5.02009 13.0087C4.95305 12.6215 4.91903 12.2237 4.91903 11.8266C4.91903 11.6267 4.92774 11.4232 4.94484 11.2216C5.13725 8.96995 6.44423 6.94909 8.4409 5.81572C8.60214 5.72459 8.80645 5.78114 8.89779 5.94226C8.98897 6.10355 8.93248 6.30847 8.77158 6.39994C6.96715 7.42389 5.78638 9.24772 5.61308 11.2788C5.59732 11.4614 5.58944 11.6457 5.58944 11.8266C5.58944 12.1854 5.62012 12.5446 5.68062 12.8945C5.7123 13.0771 5.58995 13.2508 5.40743 13.2822C5.38815 13.2858 5.36904 13.2874 5.34994 13.2874ZM2.04343 13.3364C1.87617 13.3364 1.73152 13.2111 1.71107 13.0406C1.69465 12.9028 1.68107 12.7638 1.67018 12.6245C1.65577 12.4399 1.79387 12.2784 1.9784 12.264C2.16126 12.2492 2.32417 12.3877 2.33875 12.5726C2.34881 12.7027 2.36138 12.8323 2.3768 12.9607C2.39876 13.1449 2.26752 13.3121 2.08366 13.3341C2.07008 13.3356 2.05668 13.3364 2.04343 13.3364ZM21.4033 14.3584C21.3785 14.3584 21.3535 14.356 21.3283 14.3503C21.1478 14.309 21.0349 14.1291 21.0761 13.9484C21.2335 13.2569 21.3134 12.5433 21.3134 11.8275C21.3134 11.428 21.2883 11.0219 21.2388 10.6199C21.0587 9.15373 20.5198 7.72598 19.6806 6.49107C19.5765 6.33784 19.6163 6.12906 19.7693 6.02484C19.922 5.92078 20.1308 5.96005 20.2349 6.11345C21.1338 7.43614 21.7112 8.96609 21.9044 10.538C21.957 10.9668 21.9839 11.4007 21.9839 11.8275C21.9839 12.5934 21.8984 13.3573 21.7298 14.0976C21.6942 14.2531 21.5561 14.3584 21.4033 14.3584ZM12.6312 17.0145C12.4704 17.0145 12.3285 16.8983 12.3008 16.7344C12.2703 16.5516 12.3934 16.3786 12.576 16.3477C13.5238 16.1882 14.3816 15.7458 15.0564 15.0685L15.066 15.0566C15.0806 15.0396 15.0951 15.0225 15.1107 15.0067C15.2175 14.8959 15.3226 14.7746 15.4236 14.6452L15.452 14.6074C15.5338 14.5004 15.614 14.3851 15.6901 14.2646C15.7074 14.2367 15.7248 14.2075 15.7421 14.1783C15.8023 14.0784 15.8609 13.9707 15.9174 13.8567C15.9368 13.8173 15.957 13.7772 15.9757 13.7359C16.0178 13.6447 16.0595 13.5427 16.1038 13.4241L16.119 13.3828C16.1323 13.3484 16.1453 13.3141 16.1567 13.279C16.1924 13.1728 16.2224 13.0602 16.2469 12.964L16.2632 12.9033C16.2719 12.8707 16.2808 12.8385 16.288 12.8056C16.3012 12.7435 16.3126 12.6799 16.3227 12.6159C16.3517 12.433 16.523 12.3086 16.7063 12.337C16.8892 12.3657 17.0139 12.5379 16.9849 12.7212C16.9728 12.7975 16.9592 12.8736 16.943 12.9486C16.9333 12.9934 16.9217 13.036 16.9101 13.0785L16.8962 13.1312C16.8687 13.2386 16.8349 13.3655 16.7928 13.4914C16.7786 13.5341 16.7625 13.5771 16.7464 13.6201L16.732 13.6583C16.6818 13.7928 16.6337 13.9101 16.5848 14.0162C16.5635 14.063 16.5409 14.109 16.5181 14.1551C16.4534 14.2855 16.3859 14.4092 16.3173 14.5234C16.298 14.5559 16.2781 14.5891 16.2575 14.6224C16.17 14.7607 16.0781 14.8927 15.9839 15.0159L15.9521 15.0582C15.8361 15.2068 15.7156 15.3457 15.5934 15.4724L15.5752 15.4933C15.5633 15.507 15.5514 15.5208 15.5388 15.534C14.7569 16.3195 13.7736 16.8267 12.6872 17.0096C12.6684 17.013 12.6495 17.0145 12.6312 17.0145ZM7.84037 17.1499C7.55997 17.1499 7.297 17.0417 7.07962 16.8364C6.8319 16.6026 6.59976 16.3482 6.38942 16.0807C6.27478 15.935 6.29975 15.7239 6.4454 15.6094C6.59105 15.4948 6.80156 15.5194 6.91603 15.6654C7.1061 15.9071 7.31594 16.1367 7.53952 16.348C7.63137 16.4348 7.7326 16.4786 7.84037 16.4786C8.09848 16.4786 8.35174 16.232 8.35174 15.9805C8.35174 15.885 8.31436 15.7917 8.24078 15.7032C8.18346 15.6341 8.12363 15.5679 8.06379 15.507C7.47416 14.9067 7.03336 14.1674 6.78832 13.3683C6.73402 13.1909 6.83357 13.0033 7.01056 12.9489C7.18755 12.8949 7.37494 12.9942 7.42941 13.1713C7.64277 13.8678 8.02742 14.5123 8.5413 15.0361C8.6142 15.1099 8.68661 15.19 8.75616 15.2737C8.93031 15.4834 9.02215 15.7277 9.02215 15.9805C9.02215 16.6033 8.4699 17.1499 7.84037 17.1499ZM2.62418 19.0484C2.52211 19.0484 2.42155 19.0018 2.35568 18.9142C0.814558 16.8571 0 14.4067 0 11.8276C0 11.589 0.007207 11.3483 0.0212858 11.1123C0.0323477 10.927 0.189058 10.7841 0.375769 10.7973C0.56047 10.8082 0.701425 10.9672 0.690363 11.1523C0.677122 11.375 0.670418 11.6024 0.670418 11.8276C0.670418 14.2602 1.43872 16.5712 2.89185 18.5114C3.00314 18.6594 2.97314 18.8697 2.82497 18.981C2.7648 19.0266 2.69408 19.0484 2.62418 19.0484ZM12.6315 19.3536C12.4463 19.3536 12.2963 19.2033 12.2963 19.0179V18.3372C12.2963 18.1682 12.4222 18.0253 12.59 18.0044C14.0295 17.8243 15.3698 17.1353 16.3641 16.0651L16.3979 16.0278C16.6606 15.7421 16.9007 15.4209 17.1332 15.0446C17.1607 15.0007 17.1878 14.957 17.2135 14.9126C17.2623 14.8266 17.309 14.7385 17.3543 14.6494C17.394 14.572 17.431 14.4938 17.4671 14.4149L17.4882 14.3689C17.5174 14.3052 17.5467 14.2416 17.5732 14.1763C17.6285 14.0413 17.6791 13.9051 17.7233 13.771C17.7815 13.5952 17.9701 13.4989 18.1469 13.5581C18.3225 13.6164 18.4179 13.806 18.3597 13.9823C18.3106 14.1306 18.2548 14.2813 18.1936 14.4309C18.1636 14.5046 18.1306 14.5766 18.0976 14.6489L18.0765 14.6947C18.0359 14.7833 17.995 14.8694 17.9515 14.9548C17.9015 15.0529 17.8499 15.1504 17.7951 15.2462C17.7651 15.2986 17.7339 15.3487 17.7029 15.3989C17.4483 15.8108 17.183 16.1651 16.8922 16.4814L16.8555 16.5219C15.8215 17.635 14.4499 18.3753 12.9667 18.6272V19.0179C12.9667 19.2033 12.8166 19.3536 12.6315 19.3536ZM7.74652 21.1322C7.70009 21.1322 7.65316 21.1223 7.60807 21.102C5.68531 20.2271 4.10313 18.7989 3.0323 16.9727C2.93861 16.8126 2.99208 16.607 3.15164 16.513C3.31153 16.4194 3.51685 16.4731 3.61054 16.6327C4.61097 18.3393 6.08924 19.6733 7.88529 20.4908C8.0539 20.5675 8.12849 20.7665 8.05206 20.9352C7.99574 21.0589 7.87389 21.1322 7.74652 21.1322ZM15.6638 21.223C15.5334 21.223 15.4096 21.1463 15.3553 21.0188C15.2827 20.8479 15.362 20.6511 15.5321 20.5784C17.3472 19.8042 18.8565 18.5052 19.8973 16.8226C19.9947 16.6651 20.2012 16.6164 20.3588 16.7141C20.5163 16.8116 20.5649 17.0185 20.4674 17.1761C19.3535 18.9773 17.7378 20.3673 15.7951 21.196C15.7521 21.2143 15.7076 21.223 15.6638 21.223ZM12.6315 21.7779C12.4463 21.7779 12.2963 21.6279 12.2963 21.4422V21.0383C12.2963 20.853 12.4463 20.7026 12.6315 20.7026C12.8166 20.7026 12.9667 20.853 12.9667 21.0383V21.4422C12.9667 21.6279 12.8166 21.7779 12.6315 21.7779ZM10.992 21.9768C10.9828 21.9768 10.9734 21.9764 10.9642 21.9756C10.9154 21.9716 10.8666 21.9669 10.8179 21.9623C10.6337 21.9446 10.4987 21.7804 10.5169 21.5958C10.5266 21.4949 10.5802 21.4087 10.6568 21.3543V16.4457C10.6568 16.2602 10.8068 16.11 10.992 16.11C11.177 16.11 11.3272 16.2602 11.3272 16.4457V21.6411C11.3272 21.7351 11.2878 21.8246 11.2189 21.8882C11.1568 21.9454 11.0758 21.9768 10.992 21.9768ZM17.3457 22.23C17.2276 22.23 17.1129 22.1674 17.0518 22.0565C16.9624 21.894 17.0214 21.6898 17.1835 21.6003C19.4948 20.3246 21.2848 18.2667 22.2235 15.8053C22.2896 15.6317 22.4828 15.5449 22.6563 15.6114C22.8292 15.6775 22.9159 15.8715 22.8499 16.0446C21.8545 18.6542 19.9572 20.836 17.5073 22.1884C17.4558 22.2166 17.4004 22.23 17.3457 22.23ZM15.1176 23.1675C14.9735 23.1675 14.8404 23.0736 14.7968 22.9284C14.7433 22.7506 14.8439 22.5637 15.0212 22.5103C15.1466 22.4726 15.271 22.4328 15.3945 22.3908C15.5708 22.3306 15.7602 22.4257 15.8195 22.6011C15.879 22.7768 15.7848 22.967 15.6095 23.0267C15.4788 23.071 15.3469 23.1132 15.2143 23.1531C15.1821 23.1625 15.1496 23.1675 15.1176 23.1675ZM10.4428 23.5702C10.4295 23.5702 10.4161 23.5693 10.4027 23.568C8.33296 23.3213 6.35841 22.5242 4.69259 21.263C4.54493 21.151 4.5156 20.9406 4.62723 20.7926C4.73885 20.6447 4.94886 20.6157 5.09685 20.7274C6.66815 21.9172 8.53023 22.6687 10.482 22.9012C10.6657 22.9232 10.7969 23.0902 10.7753 23.2743C10.7548 23.4448 10.6102 23.5702 10.4428 23.5702Z" fill="white"/>
<path fill-rule="evenodd" clip-rule="evenodd" d="M8.54911 4.74576C8.42023 4.74576 8.29754 4.6709 8.24223 4.54536C8.16765 4.37569 8.24441 4.17748 8.41369 4.10279C8.54157 4.0464 8.67096 3.99303 8.80153 3.94285C8.97382 3.87655 9.16791 3.96232 9.23462 4.13552C9.30115 4.30855 9.21501 4.50273 9.04204 4.5692C8.9217 4.61585 8.8022 4.66503 8.6842 4.71706C8.64012 4.73636 8.59437 4.74576 8.54911 4.74576ZM18.0556 7.00427C17.9589 7.00427 17.8629 6.96265 17.7967 6.88209C16.7461 5.60489 15.3421 4.71236 13.736 4.30066C13.4412 4.22514 13.1406 4.1664 12.8428 4.12629C12.6593 4.10128 12.5307 3.93227 12.5554 3.74866C12.5803 3.56472 12.751 3.43717 12.9325 3.46083C13.256 3.50447 13.5821 3.56825 13.9021 3.65031C15.6472 4.09759 17.1727 5.06749 18.3143 6.45529C18.4319 6.59829 18.4115 6.80992 18.2685 6.92774C18.2062 6.97927 18.1306 7.00427 18.0556 7.00427ZM3.74842 12.8935C3.57696 12.8935 3.43064 12.7624 3.41488 12.588C3.39242 12.3388 3.38103 12.0849 3.38086 11.8331C3.38086 11.1291 3.47002 10.4228 3.64618 9.73406C4.11212 7.91124 5.13903 6.33664 6.61596 5.18061C6.76144 5.06648 6.97229 5.09199 7.08626 5.23834C7.2004 5.38436 7.17476 5.59532 7.02877 5.70928C5.66967 6.7735 4.72471 8.22274 4.29565 9.90055C4.1334 10.535 4.05128 11.1853 4.05128 11.8331C4.05145 12.0644 4.062 12.2984 4.08279 12.5276C4.09921 12.7122 3.96345 12.8752 3.77892 12.8922C3.7687 12.893 3.75847 12.8935 3.74842 12.8935ZM17.9734 17.4211C17.8964 17.4211 17.819 17.3949 17.756 17.3411C17.615 17.2207 17.5983 17.0086 17.7184 16.8679C18.4897 15.9628 19.0313 14.9152 19.3283 13.7538C19.4903 13.1196 19.5726 12.4694 19.5726 11.8214C19.5726 11.0687 19.4627 10.3205 19.2456 9.59762C19.1923 9.42022 19.2929 9.23275 19.4701 9.17955C19.6479 9.12651 19.8344 9.22687 19.8876 9.40427C20.1237 10.1899 20.2431 11.0032 20.2431 11.8214C20.2431 12.5254 20.1537 13.2317 19.9777 13.9203C19.6553 15.1817 19.0666 16.3201 18.2284 17.3035C18.1621 17.3813 18.068 17.4211 17.9734 17.4211ZM16.1517 19.0043C16.0409 19.0043 15.9324 18.9492 15.8684 18.8484C15.7692 18.6923 15.8154 18.4845 15.9716 18.3853C16.0806 18.3157 16.1879 18.244 16.2931 18.1691C16.4445 18.0626 16.6536 18.0987 16.7604 18.2499C16.8672 18.4013 16.8311 18.6105 16.6801 18.7178C16.5656 18.7983 16.4495 18.8767 16.3312 18.9519C16.2755 18.9872 16.2133 19.0043 16.1517 19.0043ZM9.15685 19.8196C9.12048 19.8196 9.08344 19.8137 9.04723 19.8011C7.03548 19.1043 5.37468 17.6801 4.3704 15.7915C4.28358 15.6282 4.34542 15.4249 4.50901 15.3375C4.67242 15.2505 4.87522 15.313 4.96238 15.4764C5.88655 17.2147 7.4151 18.5254 9.26646 19.1669C9.44144 19.2273 9.53412 19.4187 9.47362 19.5939C9.42552 19.7327 9.29579 19.8196 9.15685 19.8196Z" fill="white"/>
<path fill-rule="evenodd" clip-rule="evenodd" d="M30.312 5.63806C30.9854 5.63806 31.4162 5.6817 31.6793 5.72265C31.8365 5.74715 31.9518 5.88259 31.9518 6.04153V7.50301C31.9518 7.66463 31.832 7.80041 31.6724 7.82307C31.4169 7.85932 31.0139 7.89524 30.4628 7.89524C28.9596 7.89524 28.5361 7.47112 28.5361 6.8008C28.5361 5.9937 29.0687 5.63806 30.312 5.63806ZM30.4628 9.03079C31.6287 9.03079 32.6762 8.92925 33.2176 8.85507C33.3772 8.83308 33.4957 8.69663 33.4957 8.53535V4.69401C33.4957 2.56002 32.006 1.78027 29.8749 1.78027C28.0854 1.78027 27.607 2.27269 27.607 2.79247C27.607 2.99051 27.682 3.157 27.7679 3.28355C27.8589 3.41848 28.0368 3.4638 28.1807 3.3881C28.4875 3.22699 29.0449 3.03885 29.8479 3.03885C30.9293 3.03885 31.7256 3.28237 31.9012 4.21636C31.945 4.44679 31.7923 4.61999 31.559 4.59968C31.2117 4.56998 30.7411 4.54363 30.2577 4.54363C27.8397 4.54363 26.9785 5.32338 26.9785 6.81456C26.9785 7.96354 27.6208 9.03079 30.4628 9.03079Z" fill="white"/>
<path fill-rule="evenodd" clip-rule="evenodd" d="M41.077 6.77361C41.077 5.55599 40.2022 4.96774 38.6857 4.76265L37.2929 4.58475C36.5408 4.48908 36.131 4.2699 36.131 3.79124C36.131 3.23051 36.6643 2.95678 37.7161 2.95678C38.9314 2.95678 39.7077 3.30838 40.0458 3.52539C40.1747 3.60813 40.3438 3.58816 40.449 3.47672C40.5731 3.34548 40.6942 3.15096 40.6942 2.91583C40.6942 2.2455 39.601 1.78027 37.7023 1.78027C35.4484 1.78027 34.5879 2.77887 34.5879 3.94178C34.5879 5.28243 35.6125 5.85692 37.0738 6.00746L38.1396 6.13065C39.1234 6.24008 39.4508 6.48612 39.4508 6.99247C39.4508 7.59431 38.7819 7.81317 37.8391 7.81317C36.7061 7.81317 35.7776 7.49731 35.3161 7.27711C35.1621 7.20377 34.9782 7.2615 34.8953 7.41054L34.6152 7.91219C34.5269 8.07129 34.5859 8.27336 34.7481 8.35627C35.2637 8.61994 36.3918 9.03079 37.9214 9.03079C39.9564 9.03079 41.077 8.14145 41.077 6.77361Z" fill="white"/>
<path fill-rule="evenodd" clip-rule="evenodd" d="M45.4878 5.63806C46.1617 5.63806 46.5921 5.6817 46.8551 5.72265C47.0123 5.74715 47.127 5.88259 47.127 6.04153V7.50301C47.127 7.66463 47.0086 7.80041 46.8484 7.82307C46.5921 7.85932 46.1905 7.89524 45.638 7.89524C44.1354 7.89524 43.712 7.47112 43.712 6.8008C43.712 5.9937 44.2452 5.63806 45.4878 5.63806ZM45.638 9.03079C46.8053 9.03079 47.8517 8.92925 48.3935 8.85507C48.5531 8.83308 48.6709 8.69663 48.6709 8.53535V4.69401C48.6709 2.56002 47.1819 1.78027 45.0508 1.78027C43.2612 1.78027 42.7828 2.27269 42.7828 2.79247C42.7828 2.99051 42.8579 3.157 42.943 3.28355C43.0354 3.41848 43.2126 3.4638 43.3565 3.3881C43.6634 3.22699 44.2205 3.03885 45.0233 3.03885C46.1052 3.03885 46.9014 3.28237 47.0772 4.21636C47.1208 4.44679 46.9687 4.61999 46.7346 4.59968C46.3875 4.56998 45.9169 4.54363 45.4336 4.54363C43.0154 4.54363 42.1543 5.32338 42.1543 6.81456C42.1543 7.96354 42.7966 9.03079 45.638 9.03079Z" fill="white"/>
<path fill-rule="evenodd" clip-rule="evenodd" d="M51.3058 8.51655V5.09093C51.3058 3.84612 51.8931 3.18939 53.0815 3.18939C54.243 3.18939 54.8573 3.84612 54.8573 5.09093V8.51655C54.8573 8.69479 55.0021 8.83929 55.1796 8.83929H56.0926C56.2709 8.83929 56.4149 8.69479 56.4149 8.51655V4.69417C56.4149 2.87471 55.0214 1.78027 53.0815 1.78027C51.1692 1.78027 49.748 2.87471 49.748 4.69417V8.51655C49.748 8.69479 49.892 8.83929 50.0705 8.83929H50.9833C51.1611 8.83929 51.3058 8.69479 51.3058 8.51655Z" fill="white"/>
<path fill-rule="evenodd" clip-rule="evenodd" d="M26.9785 11.6071C26.9785 11.1132 27.28 10.8799 27.8145 10.8799C28.1434 10.8799 28.4451 10.9895 28.5409 11.0308V20.6726C28.5409 20.8503 28.397 20.9946 28.2193 20.9946H27.3001C27.1225 20.9946 26.9785 20.8503 26.9785 20.6726V11.6071Z" fill="white"/>
<path fill-rule="evenodd" clip-rule="evenodd" d="M35.8465 17.55C35.8465 16.2599 34.9694 15.2856 33.7084 15.2856C32.4475 15.2856 31.5702 16.2599 31.5702 17.55C31.5702 18.8124 32.4475 19.8006 33.7084 19.8006C34.9694 19.8006 35.8465 18.8124 35.8465 17.55ZM37.4771 17.55C37.4771 19.595 35.8465 21.1869 33.7084 21.1869C31.5702 21.1869 29.9395 19.595 29.9395 17.55C29.9395 15.4637 31.5702 13.9131 33.7084 13.9131C35.8465 13.9131 37.4771 15.4637 37.4771 17.55Z" fill="white"/>
<path fill-rule="evenodd" clip-rule="evenodd" d="M44.358 17.5225C44.358 16.2601 43.4947 15.3267 42.261 15.3267C40.9865 15.3267 40.1505 16.3149 40.1505 17.5225C40.1505 18.8401 40.9865 19.7046 42.261 19.7046C43.4947 19.7046 44.358 18.7849 44.358 17.5225ZM39.5431 22.4876C39.6036 22.3218 39.7861 22.2372 39.9519 22.297C40.3238 22.4312 40.992 22.6142 41.8363 22.6142C43.0697 22.6142 44.3718 22.1751 44.3718 20.1576V19.993C43.9469 20.4869 43.1384 21.0223 42.0282 21.0223C39.9859 21.0223 38.5195 19.6086 38.5195 17.5225C38.5195 15.4501 40.0819 13.9131 42.2747 13.9131C44.358 13.9131 45.9204 15.1344 45.9204 17.8246V19.8006C45.9204 22.7103 44.2622 23.8766 42.0007 23.8766C40.8378 23.8766 39.9824 23.6358 39.5243 23.4639C39.3601 23.4025 39.2764 23.2204 39.3364 23.0554L39.5431 22.4876Z" fill="white"/>
<path fill-rule="evenodd" clip-rule="evenodd" d="M47.4281 14.8322C47.4281 14.3245 47.7296 14.105 48.2641 14.105C48.5931 14.105 48.8946 14.2146 48.9905 14.2555V20.6848C48.9905 20.8558 48.8522 20.9945 48.6816 20.9945H47.7373C47.5665 20.9945 47.4281 20.8558 47.4281 20.6848V14.8322ZM49.1551 12.7741C49.1551 13.3094 48.744 13.7211 48.2093 13.7211C47.6736 13.7211 47.264 13.3108 47.2637 12.7742C47.2637 12.239 47.6748 11.8273 48.2093 11.8271C48.745 11.8271 49.1551 12.2377 49.1551 12.7741Z" fill="white"/>
<mask id="mask0_8755_59263" style="mask-type:alpha" maskUnits="userSpaceOnUse" x="50" y="13" width="8" height="8">
<path d="M50.6621 13.9131H57.3504V20.9946H50.6621V13.9131Z" fill="white"/>
</mask>
<g mask="url(#mask0_8755_59263)">
<path fill-rule="evenodd" clip-rule="evenodd" d="M50.6621 16.8364C50.6621 15.011 52.0874 13.9131 54.0062 13.9131C55.9524 13.9131 57.3504 15.011 57.3504 16.8364V20.6809C57.3504 20.8539 57.2101 20.9946 57.0369 20.9946H56.1012C55.9282 20.9946 55.788 20.8539 55.788 20.6809V17.2343C55.788 15.9855 55.1712 15.3267 54.0062 15.3267C52.8138 15.3267 52.2245 15.9855 52.2245 17.2343V20.6809C52.2245 20.8539 52.0841 20.9946 51.9111 20.9946H50.9754C50.8024 20.9946 50.6621 20.8539 50.6621 20.6809V16.8364Z" fill="white"/>
</g>
<path fill-rule="evenodd" clip-rule="evenodd" d="M11.2114 11.5078C11.27 11.345 11.2228 11.1629 11.0927 11.0494C10.7659 10.7638 10.633 10.3362 10.7371 9.90482C10.8328 9.50807 11.1643 9.17996 11.562 9.08832C11.6461 9.06885 11.7299 9.05895 11.8124 9.0571C11.8183 9.05694 11.824 9.05626 11.8298 9.05643C11.8359 9.05626 11.8416 9.05694 11.8474 9.0571C11.9299 9.05895 12.0137 9.06885 12.0978 9.08832C12.4956 9.17996 12.8271 9.50807 12.9228 9.90482C13.0269 10.3362 12.894 10.7638 12.5671 11.0494C12.4369 11.1629 12.3898 11.345 12.4485 11.5078L13.3683 14.0637H11.8372H11.8225H10.2916L11.2114 11.5078ZM10.6398 14.9029H11.8225H11.8372H13.02H13.6093C13.8267 14.9029 14.0313 14.7965 14.1564 14.6181C14.2459 14.4903 14.2862 14.3366 14.2752 14.1845C14.2806 14.1258 14.2742 14.0651 14.2529 14.0061L13.3405 11.4709C13.6418 11.1159 13.8104 10.6639 13.8104 10.1932C13.8104 9.58762 13.5389 9.02387 13.0654 8.64642C12.9804 8.57878 12.8896 8.52172 12.7964 8.46969C12.7904 8.46617 12.7842 8.46298 12.7781 8.45962C12.7094 8.42219 12.639 8.38913 12.5666 8.36026C12.5552 8.35573 12.544 8.35053 12.5324 8.34617C12.3251 8.26812 12.1059 8.22566 11.8821 8.22046C11.8645 8.21996 11.8473 8.21777 11.8298 8.21777C11.8126 8.21777 11.795 8.21996 11.7777 8.22046C11.554 8.22566 11.3346 8.26812 11.1274 8.34617C11.1158 8.35053 11.1046 8.35573 11.093 8.36026C11.0208 8.38913 10.9504 8.42219 10.8817 8.45962C10.8757 8.46298 10.8695 8.46617 10.8634 8.46969C10.7702 8.52172 10.6794 8.57878 10.5944 8.64642C10.1209 9.02387 9.84942 9.58762 9.84942 10.1932C9.84942 10.6639 10.018 11.1159 10.3194 11.4709L9.40678 14.0061C9.38549 14.0651 9.37929 14.1258 9.38465 14.1844C9.37342 14.3366 9.41365 14.4903 9.50349 14.6181C9.62852 14.7965 9.833 14.9029 10.0505 14.9029H10.2916H10.6398Z" fill="white"/>
</g>
<defs>
<clipPath id="clip0_8755_59263">
<rect width="57.4884" height="24" fill="white"/>
</clipPath>
</defs>
</svg>
