<svg width="58" height="60" viewBox="0 0 58 60" fill="none" xmlns="http://www.w3.org/2000/svg">
<g clip-path="url(#clip0_8755_59249)">
<path d="M28.7913 0L26.1543 5.274L28.7913 10.548C30.19 10.548 31.5315 9.99235 32.5206 9.00328C33.5097 8.01421 34.0653 6.67275 34.0653 5.274C34.0653 3.87525 33.5097 2.53379 32.5206 1.54472C31.5315 0.555652 30.19 0 28.7913 0V0Z" fill="#FFC90C"/>
<path d="M23.5176 5.274C23.5176 5.96659 23.654 6.6524 23.919 7.29227C24.1841 7.93214 24.5726 8.51354 25.0623 9.00328C25.552 9.49302 26.1335 9.8815 26.7733 10.1465C27.4132 10.4116 28.099 10.548 28.7916 10.548V0C28.099 0 27.4132 0.136416 26.7733 0.401459C26.1335 0.666503 25.552 1.05498 25.0623 1.54472C24.5726 2.03445 24.1841 2.61586 23.919 3.25573C23.654 3.8956 23.5176 4.58141 23.5176 5.274V5.274Z" fill="#FFAC0C"/>
<path d="M19.5304 9.99645C19.5322 11.0399 19.2244 12.0605 18.646 12.929C18.0676 13.7975 17.2445 14.4748 16.2809 14.8754C15.3174 15.276 14.2567 15.3817 13.233 15.1792C12.2094 14.9767 11.2688 14.4751 10.5303 13.7379C9.79186 13.0007 9.28865 12.061 9.08442 11.0377C8.88019 10.0144 8.98411 8.95348 9.38302 7.98926C9.78193 7.02504 10.4579 6.20082 11.3254 5.6209C12.1929 5.04099 13.2129 4.73145 14.2564 4.73145C15.6536 4.73144 16.9937 5.28587 17.9825 6.27299C18.9713 7.26011 19.528 8.59926 19.5304 9.99645Z" fill="#FFCA0C"/>
<path d="M10.548 22.3587C10.5498 23.4022 10.242 24.4228 9.66354 25.2912C9.08511 26.1597 8.26205 26.8371 7.29851 27.2377C6.33497 27.6383 5.27426 27.744 4.25062 27.5415C3.22697 27.339 2.28639 26.8374 1.54791 26.1002C0.809424 25.363 0.30623 24.4232 0.102001 23.3999C-0.102228 22.3766 0.00168818 21.3158 0.400599 20.3516C0.79951 19.3873 1.47548 18.5631 2.34298 17.9832C3.21048 17.4033 4.23051 17.0938 5.27399 17.0938C6.67119 17.0937 8.01129 17.6481 9.0001 18.6353C9.98891 19.6224 10.5456 20.9615 10.548 22.3587Z" fill="#FFCB14"/>
<path d="M10.548 37.6414C10.5462 38.6841 10.2354 39.7028 9.65479 40.5689C9.0742 41.4351 8.24989 42.1097 7.28604 42.5075C6.32219 42.9053 5.26204 43.0084 4.23958 42.8039C3.21712 42.5994 2.27823 42.0964 1.54154 41.3585C0.804861 40.6206 0.303454 39.6808 0.100684 38.658C-0.102086 37.6352 0.00288136 36.5752 0.402321 35.612C0.801761 34.6488 1.47775 33.8257 2.34485 33.2466C3.21196 32.6674 4.23128 32.3584 5.27399 32.3584C5.96734 32.3584 6.65389 32.4951 7.29435 32.7607C7.93481 33.0263 8.51661 33.4156 9.00646 33.9063C9.49631 34.397 9.88461 34.9794 10.1491 35.6203C10.4136 36.2612 10.5492 36.948 10.548 37.6414V37.6414Z" fill="#FFCF27"/>
<path d="M19.5304 50.0045C19.5304 51.0476 19.2211 52.0672 18.6416 52.9345C18.0621 53.8018 17.2384 54.4778 16.2747 54.877C15.311 55.2762 14.2506 55.3806 13.2275 55.1771C12.2045 54.9736 11.2647 54.4713 10.5271 53.7338C9.78955 52.9962 9.28726 52.0564 9.08376 51.0333C8.88026 50.0103 8.98472 48.9499 9.38389 47.9862C9.78307 47.0225 10.459 46.1988 11.3263 45.6193C12.1936 45.0397 13.2133 44.7305 14.2564 44.7305C15.6552 44.7305 16.9966 45.2861 17.9857 46.2751C18.9748 47.2642 19.5304 48.6057 19.5304 50.0045V50.0045Z" fill="#FFD339"/>
<path d="M28.7913 49.4521L26.1543 54.7261L28.7913 60.0001C30.19 60.0001 31.5315 59.4445 32.5206 58.4554C33.5097 57.4664 34.0653 56.1249 34.0653 54.7261C34.0653 53.3274 33.5097 51.9859 32.5206 50.9968C31.5315 50.0078 30.19 49.4521 28.7913 49.4521V49.4521Z" fill="#FFD439"/>
<path d="M23.5176 54.7261C23.5176 55.4187 23.654 56.1045 23.919 56.7444C24.1841 57.3843 24.5726 57.9657 25.0623 58.4554C25.552 58.9452 26.1335 59.3336 26.7733 59.5987C27.4132 59.8637 28.099 60.0001 28.7916 60.0001V49.4521C28.099 49.4521 27.4132 49.5886 26.7733 49.8536C26.1335 50.1187 25.552 50.5071 25.0623 50.9968C24.5726 51.4866 24.1841 52.068 23.919 52.7079C23.654 53.3477 23.5176 54.0335 23.5176 54.7261Z" fill="#FFE072"/>
<path d="M48.5968 50.0045C48.5968 51.0476 48.2875 52.0672 47.708 52.9345C47.1285 53.8018 46.3048 54.4778 45.3411 54.877C44.3774 55.2762 43.317 55.3806 42.2939 55.1771C41.2709 54.9736 40.3311 54.4713 39.5935 53.7338C38.8559 52.9962 38.3537 52.0564 38.1502 51.0333C37.9467 50.0103 38.0511 48.9499 38.4503 47.9862C38.8495 47.0225 39.5255 46.1988 40.3928 45.6193C41.2601 45.0397 42.2797 44.7305 43.3228 44.7305C44.7216 44.7305 46.0631 45.2861 47.0521 46.2751C48.0412 47.2642 48.5968 48.6057 48.5968 50.0045Z" fill="#FFE072"/>
<path d="M57.5793 37.6412C57.5793 38.6843 57.2699 39.7039 56.6904 40.5712C56.1109 41.4385 55.2873 42.1145 54.3236 42.5137C53.3599 42.9129 52.2994 43.0173 51.2763 42.8138C50.2533 42.6103 49.3136 42.1081 48.576 41.3705C47.8384 40.6329 47.3361 39.6931 47.1326 38.67C46.9291 37.647 47.0336 36.5866 47.4328 35.6229C47.8319 34.6592 48.5078 33.8355 49.3752 33.256C50.2425 32.6765 51.2622 32.3672 52.3053 32.3672C53.7041 32.3672 55.0454 32.9228 56.0345 33.9119C57.0236 34.9009 57.5793 36.2424 57.5793 37.6412Z" fill="#FFEEB0"/>
<path d="M57.5793 22.3589C57.5793 23.402 57.2699 24.4217 56.6904 25.289C56.1109 26.1564 55.2873 26.8323 54.3236 27.2315C53.3599 27.6307 52.2994 27.7351 51.2763 27.5316C50.2533 27.3281 49.3136 26.8258 48.576 26.0883C47.8384 25.3507 47.3361 24.4109 47.1326 23.3879C46.9291 22.3648 47.0336 21.3044 47.4328 20.3407C47.8319 19.377 48.5078 18.5533 49.3752 17.9738C50.2425 17.3943 51.2622 17.085 52.3053 17.085C52.9979 17.085 53.6837 17.2214 54.3236 17.4864C54.9634 17.7515 55.5448 18.1399 56.0345 18.6297C56.5243 19.1194 56.9128 19.7008 57.1778 20.3407C57.4429 20.9806 57.5793 21.6664 57.5793 22.3589V22.3589Z" fill="#FFF7DC"/>
</g>
<defs>
<clipPath id="clip0_8755_59249">
<rect width="57.579" height="60" fill="white"/>
</clipPath>
</defs>
</svg>
