<svg width="58" height="60" viewBox="0 0 58 60" fill="none" xmlns="http://www.w3.org/2000/svg">
<g clip-path="url(#clip0_8750_51327)">
<path d="M28.7908 0L26.1538 5.274L28.7908 10.548C30.1896 10.548 31.531 9.99235 32.5201 9.00328C33.5092 8.01421 34.0648 6.67275 34.0648 5.274C34.0648 3.87525 33.5092 2.53379 32.5201 1.54472C31.531 0.555652 30.1896 0 28.7908 0V0Z" fill="#163F69"/>
<path d="M23.5171 5.274C23.5171 5.96659 23.6535 6.6524 23.9185 7.29227C24.1836 7.93214 24.5721 8.51354 25.0618 9.00328C25.5515 9.49302 26.133 9.8815 26.7728 10.1465C27.4127 10.4116 28.0985 10.548 28.7911 10.548V0C28.0985 0 27.4127 0.136416 26.7728 0.401459C26.133 0.666503 25.5515 1.05498 25.0618 1.54472C24.5721 2.03445 24.1836 2.61586 23.9185 3.25573C23.6535 3.8956 23.5171 4.58141 23.5171 5.274V5.274Z" fill="#085AAE"/>
<path d="M19.5299 9.99645C19.5317 11.0399 19.2239 12.0605 18.6455 12.929C18.0671 13.7975 17.244 14.4748 16.2805 14.8754C15.3169 15.276 14.2562 15.3817 13.2326 15.1792C12.2089 14.9767 11.2683 14.4751 10.5298 13.7379C9.79137 13.0007 9.28816 12.061 9.08393 11.0377C8.87971 10.0144 8.98362 8.95348 9.38253 7.98926C9.78144 7.02504 10.4574 6.20082 11.3249 5.6209C12.1924 5.04099 13.2125 4.73145 14.2559 4.73145C15.6531 4.73144 16.9932 5.28587 17.982 6.27299C18.9708 7.26011 19.5276 8.59926 19.5299 9.99645Z" fill="#0A77E8"/>
<path d="M10.548 22.3587C10.5498 23.4022 10.242 24.4228 9.66354 25.2912C9.08511 26.1597 8.26205 26.8371 7.29851 27.2377C6.33497 27.6383 5.27426 27.744 4.25062 27.5415C3.22697 27.339 2.28639 26.8374 1.54791 26.1002C0.809424 25.363 0.30623 24.4232 0.102001 23.3999C-0.102228 22.3766 0.00168818 21.3158 0.400599 20.3516C0.79951 19.3873 1.47549 18.5631 2.34298 17.9832C3.21048 17.4033 4.23051 17.0938 5.27399 17.0938C6.67119 17.0937 8.01129 17.6481 9.0001 18.6353C9.98891 19.6224 10.5456 20.9615 10.548 22.3587Z" fill="#0F9AF0"/>
<path d="M10.548 37.6414C10.5462 38.6841 10.2354 39.7028 9.65479 40.5689C9.0742 41.4351 8.24989 42.1097 7.28604 42.5075C6.32219 42.9053 5.26204 43.0084 4.23958 42.8039C3.21712 42.5994 2.27823 42.0964 1.54154 41.3585C0.804861 40.6206 0.303454 39.6808 0.100684 38.658C-0.102086 37.6352 0.00288136 36.5752 0.402321 35.612C0.801761 34.6488 1.47775 33.8257 2.34485 33.2466C3.21196 32.6674 4.23128 32.3584 5.27399 32.3584C5.96734 32.3584 6.65389 32.4951 7.29435 32.7607C7.93481 33.0263 8.51661 33.4156 9.00646 33.9063C9.49631 34.397 9.88461 34.9794 10.1491 35.6203C10.4136 36.2612 10.5492 36.948 10.548 37.6414V37.6414Z" fill="#0F9AF0"/>
<path d="M19.5299 50.0045C19.5299 51.0476 19.2206 52.0672 18.6411 52.9345C18.0616 53.8018 17.2379 54.4778 16.2742 54.877C15.3105 55.2762 14.2501 55.3806 13.227 55.1771C12.204 54.9736 11.2642 54.4713 10.5266 53.7338C9.78906 52.9962 9.28677 52.0564 9.08327 51.0333C8.87977 50.0103 8.98423 48.9499 9.3834 47.9862C9.78258 47.0225 10.4586 46.1988 11.3259 45.6193C12.1932 45.0397 13.2128 44.7305 14.2559 44.7305C15.6547 44.7305 16.9962 45.2861 17.9852 46.2751C18.9743 47.2642 19.5299 48.6057 19.5299 50.0045V50.0045Z" fill="#13BDF7"/>
<path d="M28.7908 49.4521L26.1538 54.7261L28.7908 60.0001C30.1896 60.0001 31.531 59.4445 32.5201 58.4554C33.5092 57.4664 34.0648 56.1249 34.0648 54.7261C34.0648 53.3274 33.5092 51.9859 32.5201 50.9968C31.531 50.0078 30.1896 49.4521 28.7908 49.4521V49.4521Z" fill="#13BDF7"/>
<path d="M23.5171 54.7261C23.5171 55.4187 23.6535 56.1045 23.9185 56.7444C24.1836 57.3843 24.5721 57.9657 25.0618 58.4554C25.5515 58.9452 26.133 59.3336 26.7728 59.5987C27.4127 59.8637 28.0985 60.0001 28.7911 60.0001V49.4521C28.0985 49.4521 27.4127 49.5886 26.7728 49.8536C26.133 50.1187 25.5515 50.5071 25.0618 50.9968C24.5721 51.4866 24.1836 52.068 23.9185 52.7079C23.6535 53.3477 23.5171 54.0335 23.5171 54.7261Z" fill="#18E0FF"/>
<path d="M48.5968 50.0045C48.5968 51.0476 48.2875 52.0672 47.708 52.9345C47.1285 53.8018 46.3048 54.4778 45.3411 54.877C44.3774 55.2762 43.317 55.3806 42.2939 55.1771C41.2709 54.9736 40.3311 54.4713 39.5935 53.7338C38.8559 52.9962 38.3537 52.0564 38.1502 51.0333C37.9467 50.0103 38.0511 48.9499 38.4503 47.9862C38.8495 47.0225 39.5255 46.1988 40.3928 45.6193C41.2601 45.0397 42.2797 44.7305 43.3228 44.7305C44.7216 44.7305 46.0631 45.2861 47.0521 46.2751C48.0412 47.2642 48.5968 48.6057 48.5968 50.0045Z" fill="#18E0FF"/>
<path d="M57.5788 37.6412C57.5788 38.6843 57.2694 39.7039 56.6899 40.5712C56.1104 41.4385 55.2868 42.1145 54.3231 42.5137C53.3594 42.9129 52.2989 43.0173 51.2758 42.8138C50.2528 42.6103 49.3131 42.1081 48.5755 41.3705C47.8379 40.6329 47.3356 39.6931 47.1321 38.67C46.9286 37.647 47.0331 36.5866 47.4323 35.6229C47.8315 34.6592 48.5074 33.8355 49.3747 33.256C50.242 32.6765 51.2617 32.3672 52.3048 32.3672C53.7036 32.3672 55.045 32.9228 56.034 33.9119C57.0231 34.9009 57.5788 36.2424 57.5788 37.6412Z" fill="#65EAFF"/>
<path d="M57.5788 22.3589C57.5788 23.402 57.2694 24.4217 56.6899 25.289C56.1104 26.1564 55.2868 26.8323 54.3231 27.2315C53.3594 27.6307 52.2989 27.7351 51.2758 27.5316C50.2528 27.3281 49.3131 26.8258 48.5755 26.0883C47.8379 25.3507 47.3356 24.4109 47.1321 23.3879C46.9286 22.3648 47.0331 21.3044 47.4323 20.3407C47.8315 19.377 48.5074 18.5533 49.3747 17.9738C50.242 17.3943 51.2617 17.085 52.3048 17.085C52.9974 17.085 53.6832 17.2214 54.3231 17.4864C54.963 17.7515 55.5443 18.1399 56.034 18.6297C56.5238 19.1194 56.9123 19.7008 57.1773 20.3407C57.4424 20.9806 57.5788 21.6664 57.5788 22.3589V22.3589Z" fill="#B2F5FF"/>
</g>
<defs>
<clipPath id="clip0_8750_51327">
<rect width="57.579" height="60" fill="white"/>
</clipPath>
</defs>
</svg>
