<svg width="315" height="370" viewBox="0 0 315 370" fill="none" xmlns="http://www.w3.org/2000/svg">
<g clip-path="url(#clip0_7306_40597)">
<path d="M146 0H4C1.79086 0 0 1.79086 0 4V109C0 111.209 1.79086 113 4 113H146C148.209 113 150 111.209 150 109V4C150 1.79086 148.209 0 146 0Z" fill="white"/>
<path d="M17.352 18.662H21.482V17.444H17.352V14.434H21.832V13.202H16.05V23.002H21.902V21.77H17.352V18.662ZM27.1558 16.002H25.2938V14.042L24.0758 14.406V16.002H22.6898V17.178H24.0758V20.972C24.0758 22.708 25.0278 23.282 27.1558 23.002V21.91C25.9098 21.966 25.2938 22.05 25.2938 20.972V17.178H27.1558V16.002ZM29.2138 14.728C29.6618 14.728 30.0258 14.364 30.0258 13.916C30.0258 13.468 29.6618 13.09 29.2138 13.09C28.7518 13.09 28.3878 13.468 28.3878 13.916C28.3878 14.364 28.7518 14.728 29.2138 14.728ZM29.8158 23.002V16.002H28.5978V23.002H29.8158ZM35.538 15.82C34.376 15.82 33.494 16.282 32.892 17.206V13.202H31.674V23.002H32.892V21.798C33.494 22.722 34.376 23.184 35.538 23.184C36.518 23.184 37.358 22.834 38.044 22.12C38.73 21.406 39.08 20.524 39.08 19.502C39.08 18.48 38.73 17.612 38.044 16.898C37.358 16.184 36.518 15.82 35.538 15.82ZM35.384 22.008C34.67 22.008 34.082 21.77 33.606 21.294C33.13 20.804 32.892 20.216 32.892 19.502C32.892 18.788 33.13 18.2 33.606 17.724C34.082 17.234 34.67 16.996 35.384 16.996C36.084 16.996 36.672 17.234 37.148 17.724C37.624 18.2 37.862 18.788 37.862 19.502C37.862 20.216 37.624 20.804 37.148 21.294C36.672 21.77 36.084 22.008 35.384 22.008ZM46.3294 17.206C45.7274 16.282 44.8454 15.82 43.6834 15.82C42.7034 15.82 41.8634 16.184 41.1774 16.898C40.4914 17.612 40.1414 18.48 40.1414 19.502C40.1414 20.524 40.4914 21.406 41.1774 22.12C41.8634 22.834 42.7034 23.184 43.6834 23.184C44.8454 23.184 45.7274 22.722 46.3294 21.798V23.002H47.5474V16.002H46.3294V17.206ZM43.8374 22.008C43.1374 22.008 42.5494 21.77 42.0734 21.294C41.5974 20.804 41.3594 20.216 41.3594 19.502C41.3594 18.788 41.5974 18.2 42.0734 17.724C42.5494 17.234 43.1374 16.996 43.8374 16.996C44.5514 16.996 45.1394 17.234 45.6154 17.724C46.0914 18.2 46.3294 18.788 46.3294 19.502C46.3294 20.216 46.0914 20.804 45.6154 21.294C45.1394 21.77 44.5514 22.008 43.8374 22.008ZM50.6108 16.002H49.3927V23.002H50.6108V19.292C50.6108 18.522 50.8208 17.976 51.2548 17.626C51.6888 17.276 52.1928 17.122 52.7948 17.15V15.876C51.7448 15.876 51.0168 16.31 50.6108 17.178V16.002ZM57.4725 15.82C56.4505 15.82 55.6945 16.212 55.2045 17.01V16.002H53.9865V23.002H55.2045V19.292C55.2045 17.724 56.0165 16.982 57.2345 16.982C58.3125 16.982 58.9705 17.64 58.9705 18.774V23.002H60.1885V18.704C60.1885 16.926 59.1105 15.82 57.4725 15.82ZM67.6848 17.206C67.0828 16.282 66.2008 15.82 65.0388 15.82C64.0588 15.82 63.2188 16.184 62.5328 16.898C61.8468 17.612 61.4968 18.48 61.4968 19.502C61.4968 20.524 61.8468 21.406 62.5328 22.12C63.2188 22.834 64.0588 23.184 65.0388 23.184C66.2008 23.184 67.0828 22.722 67.6848 21.798V23.002H68.9028V16.002H67.6848V17.206ZM65.1928 22.008C64.4928 22.008 63.9048 21.77 63.4288 21.294C62.9528 20.804 62.7148 20.216 62.7148 19.502C62.7148 18.788 62.9528 18.2 63.4288 17.724C63.9048 17.234 64.4928 16.996 65.1928 16.996C65.9068 16.996 66.4948 17.234 66.9708 17.724C67.4468 18.2 67.6848 18.788 67.6848 19.502C67.6848 20.216 67.4468 20.804 66.9708 21.294C66.4948 21.77 65.9068 22.008 65.1928 22.008ZM78.3082 15.82C77.3282 15.82 76.6002 16.212 76.1102 17.01C75.6762 16.212 74.9902 15.82 74.0522 15.82C73.1422 15.82 72.4422 16.198 71.9662 16.94V16.002H70.7482V23.002H71.9662V19.11C71.9662 17.696 72.7362 16.982 73.7582 16.982C74.6682 16.982 75.2422 17.612 75.2422 18.69V23.002H76.4602V19.11C76.4602 17.668 77.1322 16.982 78.1822 16.982C79.1202 16.982 79.7222 17.612 79.7222 18.69V23.002H80.9402V18.648C80.9402 16.912 79.8762 15.82 78.3082 15.82ZM82.2791 18.942C82.2511 19.124 82.2371 19.306 82.2371 19.488C82.2371 20.51 82.5591 21.378 83.2171 22.092C83.8611 22.82 84.7011 23.184 85.7231 23.184C86.8011 23.184 87.6831 22.834 88.3691 22.134C89.0551 21.434 89.3911 20.552 89.3911 19.502C89.3911 18.438 89.0411 17.556 88.3551 16.856C87.6551 16.17 86.7451 15.82 85.6391 15.82C84.5471 15.82 83.6931 16.156 83.0351 16.814L83.8611 17.64C84.2811 17.192 84.8551 16.968 85.6111 16.968C86.9411 16.968 87.9071 17.696 88.1451 18.942H82.2791ZM85.7231 22.036C84.6031 22.036 83.6791 21.336 83.4691 20.006H88.1451C87.9351 21.238 87.0251 22.036 85.7231 22.036Z" fill="#081A3E"/>
<path d="M135.084 68.5021L126.881 66.1551L124.537 57.9551H108.131C107.198 57.9551 106.304 58.3255 105.645 58.9849C104.985 59.6443 104.615 60.5386 104.615 61.4711V94.4391C104.615 95.3716 104.985 96.2659 105.645 96.9253C106.304 97.5846 107.198 97.9551 108.131 97.9551H131.568C132.5 97.9551 133.395 97.5846 134.054 96.9253C134.714 96.2659 135.084 95.3716 135.084 94.4391V68.5021Z" fill="#4086F4"/>
<path d="M135.085 68.5021V94.4391C135.085 95.3714 134.715 96.2656 134.056 96.9249C133.396 97.5843 132.502 97.9548 131.57 97.9551H119.851V57.9551H124.538L126.882 66.1551L135.085 68.5021Z" fill="#4175DF"/>
<path d="M135.085 68.5022H126.885C126.263 68.5011 125.667 68.2535 125.227 67.8136C124.787 67.3737 124.539 66.7773 124.538 66.1552V57.9552C124.692 57.9533 124.844 57.9836 124.985 58.0443C125.127 58.1049 125.254 58.1945 125.358 58.3072L134.733 67.6822C134.846 67.7867 134.935 67.9136 134.996 68.0549C135.057 68.1961 135.087 68.3485 135.085 68.5022Z" fill="#80AEF8"/>
<path d="M126.877 76.783H112.818C112.664 76.783 112.512 76.7527 112.369 76.6938C112.227 76.6349 112.098 76.5485 111.989 76.4397C111.88 76.3309 111.794 76.2017 111.735 76.0595C111.676 75.9173 111.646 75.7649 111.646 75.611C111.646 75.4571 111.676 75.3047 111.735 75.1625C111.794 75.0203 111.88 74.8911 111.989 74.7822C112.098 74.6734 112.227 74.5871 112.369 74.5282C112.512 74.4693 112.664 74.439 112.818 74.439H126.877C127.031 74.439 127.183 74.4693 127.326 74.5282C127.468 74.5871 127.597 74.6734 127.706 74.7822C127.815 74.8911 127.901 75.0203 127.96 75.1625C128.019 75.3047 128.049 75.4571 128.049 75.611C128.049 75.7649 128.019 75.9173 127.96 76.0595C127.901 76.2017 127.815 76.3309 127.706 76.4397C127.597 76.5485 127.468 76.6349 127.326 76.6938C127.183 76.7527 127.031 76.783 126.877 76.783V76.783Z" fill="#FFF5F5"/>
<path d="M126.877 81.471H112.818C112.507 81.471 112.209 81.3475 111.989 81.1277C111.769 80.9079 111.646 80.6098 111.646 80.299C111.646 79.9881 111.769 79.69 111.989 79.4702C112.209 79.2504 112.507 79.127 112.818 79.127H126.877C127.188 79.127 127.486 79.2504 127.706 79.4702C127.926 79.69 128.049 79.9881 128.049 80.299C128.049 80.6098 127.926 80.9079 127.706 81.1277C127.486 81.3475 127.188 81.471 126.877 81.471V81.471Z" fill="#FFF5F5"/>
<path d="M126.877 86.1589H112.818C112.664 86.1589 112.512 86.1286 112.369 86.0697C112.227 86.0108 112.098 85.9245 111.989 85.8157C111.88 85.7068 111.794 85.5776 111.735 85.4354C111.676 85.2933 111.646 85.1409 111.646 84.9869C111.646 84.833 111.676 84.6806 111.735 84.5384C111.794 84.3962 111.88 84.267 111.989 84.1582C112.098 84.0494 112.227 83.9631 112.369 83.9042C112.512 83.8453 112.664 83.8149 112.818 83.8149H126.877C127.031 83.8149 127.183 83.8453 127.326 83.9042C127.468 83.9631 127.597 84.0494 127.706 84.1582C127.815 84.267 127.901 84.3962 127.96 84.5384C128.019 84.6806 128.049 84.833 128.049 84.9869C128.049 85.1409 128.019 85.2933 127.96 85.4354C127.901 85.5776 127.815 85.7068 127.706 85.8157C127.597 85.9245 127.468 86.0108 127.326 86.0697C127.183 86.1286 127.031 86.1589 126.877 86.1589V86.1589Z" fill="#FFF5F5"/>
<path d="M122.193 90.846H112.818C112.507 90.846 112.209 90.7225 111.989 90.5027C111.769 90.2829 111.646 89.9848 111.646 89.674C111.646 89.3631 111.769 89.065 111.989 88.8452C112.209 88.6254 112.507 88.502 112.818 88.502H122.193C122.504 88.502 122.802 88.6254 123.022 88.8452C123.242 89.065 123.365 89.3631 123.365 89.674C123.365 89.9848 123.242 90.2829 123.022 90.5027C122.802 90.7225 122.504 90.846 122.193 90.846V90.846Z" fill="#FFF5F5"/>
<path d="M119.851 90.846H122.195C122.506 90.846 122.804 90.7225 123.024 90.5027C123.244 90.2829 123.367 89.9848 123.367 89.674C123.367 89.3631 123.244 89.065 123.024 88.8452C122.804 88.6254 122.506 88.502 122.195 88.502H119.851V90.846Z" fill="#E3E7EA"/>
<path d="M119.851 86.1589H126.882C127.193 86.1589 127.491 86.0355 127.711 85.8157C127.931 85.5959 128.054 85.2978 128.054 84.9869C128.054 84.6761 127.931 84.378 127.711 84.1582C127.491 83.9384 127.193 83.8149 126.882 83.8149H119.851V86.1589Z" fill="#E3E7EA"/>
<path d="M119.851 81.471H126.882C127.193 81.471 127.491 81.3475 127.711 81.1277C127.931 80.9079 128.054 80.6098 128.054 80.299C128.054 79.9881 127.931 79.69 127.711 79.4702C127.491 79.2504 127.193 79.127 126.882 79.127H119.851V81.471Z" fill="#E3E7EA"/>
<path d="M119.851 76.783H126.882C127.193 76.783 127.491 76.6595 127.711 76.4397C127.931 76.2199 128.054 75.9218 128.054 75.611C128.054 75.3001 127.931 75.002 127.711 74.7822C127.491 74.5624 127.193 74.439 126.882 74.439H119.851V76.783Z" fill="#E3E7EA"/>
<path d="M311 0H169C166.791 0 165 1.79086 165 4V109C165 111.209 166.791 113 169 113H311C313.209 113 315 111.209 315 109V4C315 1.79086 313.209 0 311 0Z" fill="white"/>
<path d="M185.656 23.184C186.552 23.184 187.378 22.974 188.134 22.54C188.89 22.106 189.478 21.518 189.884 20.79L188.75 20.146C188.19 21.21 187 21.91 185.656 21.91C184.522 21.91 183.598 21.546 182.884 20.818C182.17 20.09 181.82 19.18 181.82 18.102C181.82 17.01 182.17 16.1 182.884 15.372C183.598 14.644 184.522 14.28 185.656 14.28C187 14.28 188.19 14.98 188.75 16.058L189.884 15.4C189.044 13.944 187.448 13.02 185.656 13.02C184.172 13.02 182.94 13.51 181.974 14.49C181.008 15.47 180.532 16.674 180.532 18.102C180.532 19.53 181.008 20.734 181.974 21.714C182.94 22.694 184.172 23.184 185.656 23.184ZM190.924 18.942C190.896 19.124 190.882 19.306 190.882 19.488C190.882 20.51 191.204 21.378 191.862 22.092C192.506 22.82 193.346 23.184 194.368 23.184C195.446 23.184 196.328 22.834 197.014 22.134C197.7 21.434 198.036 20.552 198.036 19.502C198.036 18.438 197.686 17.556 197 16.856C196.3 16.17 195.39 15.82 194.284 15.82C193.192 15.82 192.338 16.156 191.68 16.814L192.506 17.64C192.926 17.192 193.5 16.968 194.256 16.968C195.586 16.968 196.552 17.696 196.79 18.942H190.924ZM194.368 22.036C193.248 22.036 192.324 21.336 192.114 20.006H196.79C196.58 21.238 195.67 22.036 194.368 22.036ZM200.654 16.002H199.436V23.002H200.654V19.292C200.654 18.522 200.864 17.976 201.298 17.626C201.732 17.276 202.236 17.122 202.838 17.15V15.876C201.788 15.876 201.06 16.31 200.654 17.178V16.002ZM204.645 14.728C205.093 14.728 205.457 14.364 205.457 13.916C205.457 13.468 205.093 13.09 204.645 13.09C204.183 13.09 203.819 13.468 203.819 13.916C203.819 14.364 204.183 14.728 204.645 14.728ZM205.247 23.002V16.002H204.029V23.002H205.247ZM214.666 15.82C213.686 15.82 212.958 16.212 212.468 17.01C212.034 16.212 211.348 15.82 210.41 15.82C209.5 15.82 208.8 16.198 208.324 16.94V16.002H207.106V23.002H208.324V19.11C208.324 17.696 209.094 16.982 210.116 16.982C211.026 16.982 211.6 17.612 211.6 18.69V23.002H212.818V19.11C212.818 17.668 213.49 16.982 214.54 16.982C215.478 16.982 216.08 17.612 216.08 18.69V23.002H217.298V18.648C217.298 16.912 216.234 15.82 214.666 15.82ZM218.637 18.942C218.609 19.124 218.595 19.306 218.595 19.488C218.595 20.51 218.917 21.378 219.575 22.092C220.219 22.82 221.059 23.184 222.081 23.184C223.159 23.184 224.041 22.834 224.727 22.134C225.413 21.434 225.749 20.552 225.749 19.502C225.749 18.438 225.399 17.556 224.713 16.856C224.013 16.17 223.103 15.82 221.997 15.82C220.905 15.82 220.051 16.156 219.393 16.814L220.219 17.64C220.639 17.192 221.213 16.968 221.969 16.968C223.299 16.968 224.265 17.696 224.503 18.942H218.637ZM222.081 22.036C220.961 22.036 220.037 21.336 219.827 20.006H224.503C224.293 21.238 223.383 22.036 222.081 22.036ZM228.367 23.002V12.782H227.149V23.002H228.367ZM229.875 18.942C229.847 19.124 229.833 19.306 229.833 19.488C229.833 20.51 230.155 21.378 230.813 22.092C231.457 22.82 232.297 23.184 233.319 23.184C234.397 23.184 235.279 22.834 235.965 22.134C236.651 21.434 236.987 20.552 236.987 19.502C236.987 18.438 236.637 17.556 235.951 16.856C235.251 16.17 234.341 15.82 233.235 15.82C232.143 15.82 231.289 16.156 230.631 16.814L231.457 17.64C231.877 17.192 232.451 16.968 233.207 16.968C234.537 16.968 235.503 17.696 235.741 18.942H229.875ZM233.319 22.036C232.199 22.036 231.275 21.336 231.065 20.006H235.741C235.531 21.238 234.621 22.036 233.319 22.036ZM239.605 16.002H238.387V23.002H239.605V19.292C239.605 18.522 239.815 17.976 240.249 17.626C240.683 17.276 241.187 17.122 241.789 17.15V15.876C240.739 15.876 240.011 16.31 239.605 17.178V16.002Z" fill="#081A3E"/>
<path d="M284.344 70.3917L282.644 69.9777V68.4137L284.344 67.9997C284.408 67.9841 284.475 67.9832 284.539 67.9971C284.603 68.0111 284.664 68.0394 284.716 68.08C284.767 68.1207 284.809 68.1725 284.838 68.2317C284.867 68.2909 284.882 68.3558 284.882 68.4217V69.9677C284.882 70.0337 284.867 70.0989 284.839 70.1583C284.81 70.2177 284.768 70.2698 284.716 70.3107C284.664 70.3516 284.604 70.3801 284.54 70.3941C284.475 70.4081 284.408 70.4073 284.344 70.3917V70.3917Z" fill="#A5C8CD"/>
<path d="M268.905 66.682C269.566 66.682 270.212 66.4861 270.762 66.1189C271.311 65.7517 271.74 65.2298 271.992 64.6192C272.245 64.0086 272.312 63.3367 272.183 62.6884C272.054 62.0402 271.736 61.4447 271.268 60.9773C270.801 60.5098 270.206 60.1915 269.558 60.0624C268.909 59.9333 268.237 59.9994 267.627 60.2522C267.016 60.505 266.494 60.9331 266.127 61.4826C265.759 62.0321 265.563 62.6781 265.563 63.339C265.563 63.778 265.649 64.2127 265.817 64.6183C265.985 65.0239 266.231 65.3924 266.541 65.7028C266.852 66.0133 267.22 66.2595 267.626 66.4276C268.031 66.5956 268.466 66.682 268.905 66.682V66.682Z" fill="#FFB69E"/>
<path d="M271.427 59.5679L266.606 60.1679C266.469 60.1679 266.333 60.195 266.206 60.2476C266.079 60.3003 265.964 60.3775 265.867 60.4748C265.77 60.572 265.693 60.6875 265.641 60.8145C265.589 60.9415 265.562 61.0776 265.563 61.2149V62.9629H272.47V60.6109C272.47 60.3343 272.36 60.069 272.165 59.8734C271.969 59.6778 271.704 59.5679 271.427 59.5679V59.5679Z" fill="#194664"/>
<path d="M273.921 61.5679H271.451C271.08 61.5679 270.724 61.7154 270.461 61.9779C270.199 62.2405 270.051 62.5966 270.051 62.9679H275.315C275.315 62.5976 275.168 62.2424 274.907 61.98C274.646 61.7177 274.291 61.5695 273.921 61.5679V61.5679Z" fill="#194664"/>
<path d="M280.403 88.1458C279.797 88.1458 279.215 87.9049 278.786 87.4762C278.358 87.0475 278.117 86.4661 278.117 85.8598V80.5868C278.117 80.2865 278.176 79.9892 278.291 79.7118C278.406 79.4344 278.574 79.1823 278.787 78.97C278.999 78.7577 279.251 78.5892 279.528 78.4743C279.806 78.3594 280.103 78.3003 280.403 78.3003C280.704 78.3003 281.001 78.3594 281.278 78.4743C281.556 78.5892 281.808 78.7577 282.02 78.97C282.233 79.1823 282.401 79.4344 282.516 79.7118C282.631 79.9892 282.69 80.2865 282.69 80.5868V85.8598C282.69 86.1601 282.631 86.4574 282.516 86.7348C282.401 87.0123 282.232 87.2643 282.02 87.4766C281.808 87.6889 281.556 87.8572 281.278 87.9721C281.001 88.0869 280.703 88.1459 280.403 88.1458V88.1458Z" fill="#373C41"/>
<path d="M296.183 88.1458C295.577 88.1458 294.995 87.9049 294.567 87.4762C294.138 87.0475 293.897 86.4661 293.897 85.8598V80.5868C293.897 79.9804 294.138 79.3988 294.567 78.97C294.995 78.5412 295.577 78.3003 296.183 78.3003C296.79 78.3003 297.371 78.5412 297.8 78.97C298.229 79.3988 298.47 79.9804 298.47 80.5868V85.8598C298.47 86.1601 298.411 86.4574 298.296 86.7348C298.181 87.0123 298.012 87.2643 297.8 87.4766C297.588 87.6889 297.336 87.8572 297.058 87.9721C296.781 88.0869 296.483 88.1459 296.183 88.1458V88.1458Z" fill="#373C41"/>
<path d="M289.685 67.982H286.939C286.765 67.982 286.598 67.9129 286.475 67.7899C286.352 67.6668 286.283 67.5 286.283 67.326V66.948C286.283 66.774 286.352 66.6072 286.475 66.4841C286.598 66.3611 286.765 66.292 286.939 66.292H289.685C289.859 66.292 290.026 66.3611 290.149 66.4841C290.272 66.6072 290.341 66.774 290.341 66.948V67.326C290.341 67.5 290.272 67.6668 290.149 67.7899C290.026 67.9129 289.859 67.982 289.685 67.982V67.982Z" fill="#87A0AF"/>
<path d="M298.141 76.8497H278.49C278.355 76.8498 278.222 76.8203 278.099 76.7635C277.977 76.7066 277.868 76.6238 277.781 76.5206C277.694 76.4175 277.631 76.2966 277.595 76.1664C277.56 76.0362 277.553 75.8998 277.576 75.7667L278.942 67.7927C279.084 66.9554 279.518 66.1954 280.167 65.648C280.816 65.1005 281.639 64.801 282.488 64.8027H294.144C294.993 64.801 295.816 65.1005 296.465 65.648C297.114 66.1954 297.548 66.9554 297.69 67.7927L299.055 75.7667C299.078 75.8998 299.071 76.0362 299.036 76.1664C299 76.2966 298.937 76.4175 298.85 76.5206C298.763 76.6238 298.654 76.7066 298.532 76.7635C298.409 76.8203 298.276 76.8498 298.141 76.8497ZM279.59 74.9957H297.042L295.862 68.1057C295.793 67.7 295.583 67.3317 295.268 67.0664C294.954 66.8011 294.555 66.6559 294.144 66.6567H282.487C282.075 66.6559 281.677 66.8011 281.362 67.0664C281.048 67.3317 280.838 67.7 280.769 68.1057L279.59 74.9957Z" fill="#E64937"/>
<path d="M299.195 83.807H277.395C277.063 83.807 276.744 83.675 276.509 83.44C276.274 83.205 276.142 82.8863 276.142 82.554V77.41C276.143 76.5228 276.495 75.6722 277.123 75.0449C277.75 74.4175 278.601 74.0648 279.488 74.064H297.099C297.987 74.0634 298.839 74.4156 299.467 75.0431C300.096 75.6706 300.449 76.5219 300.45 77.41V82.553C300.45 82.7177 300.417 82.8809 300.354 83.0331C300.291 83.1853 300.199 83.3236 300.082 83.44C299.966 83.5565 299.827 83.6488 299.675 83.7118C299.523 83.7748 299.36 83.8071 299.195 83.807Z" fill="#E64937"/>
<path d="M280.342 80.451C280.739 80.4512 281.127 80.3337 281.457 80.1133C281.787 79.8928 282.045 79.5795 282.197 79.2128C282.349 78.846 282.389 78.4425 282.311 78.0531C282.234 77.6637 282.043 77.306 281.762 77.0252C281.482 76.7444 281.124 76.5532 280.735 76.4756C280.346 76.3981 279.942 76.4378 279.575 76.5897C279.208 76.7416 278.895 76.9988 278.674 77.3289C278.454 77.6589 278.336 78.047 278.336 78.444C278.336 78.7075 278.388 78.9685 278.488 79.212C278.589 79.4555 278.737 79.6767 278.923 79.8631C279.109 80.0495 279.331 80.1973 279.574 80.2982C279.817 80.3991 280.078 80.451 280.342 80.451V80.451Z" fill="#FFE678"/>
<path d="M296.244 80.451C296.641 80.4512 297.029 80.3337 297.359 80.1133C297.69 79.8928 297.947 79.5795 298.099 79.2128C298.251 78.846 298.291 78.4425 298.214 78.0531C298.136 77.6637 297.945 77.306 297.665 77.0252C297.384 76.7444 297.026 76.5532 296.637 76.4756C296.248 76.3981 295.844 76.4378 295.477 76.5897C295.11 76.7416 294.797 76.9988 294.576 77.3289C294.356 77.6589 294.238 78.047 294.238 78.444C294.238 78.7075 294.29 78.9685 294.39 79.212C294.491 79.4555 294.639 79.6767 294.825 79.8631C295.012 80.0495 295.233 80.1973 295.476 80.2982C295.72 80.3991 295.981 80.451 296.244 80.451V80.451Z" fill="#FFE678"/>
<path d="M291.19 85.366H285.39C285.306 85.366 285.222 85.3494 285.144 85.3171C285.067 85.2849 284.996 85.2376 284.936 85.1779C284.877 85.1183 284.83 85.0475 284.798 84.9696C284.765 84.8918 284.749 84.8083 284.749 84.724V82.849C284.749 82.7648 284.765 82.6813 284.798 82.6034C284.83 82.5255 284.877 82.4548 284.936 82.3951C284.996 82.3355 285.067 82.2882 285.144 82.2559C285.222 82.2236 285.306 82.207 285.39 82.207H291.19C291.36 82.207 291.524 82.2747 291.644 82.3951C291.764 82.5155 291.832 82.6788 291.832 82.849V84.724C291.832 84.8943 291.764 85.0576 291.644 85.178C291.524 85.2984 291.36 85.366 291.19 85.366Z" fill="#87A0AF"/>
<path d="M294.256 74.061H293.262C293.252 73.7124 293.107 73.3812 292.857 73.138C292.607 72.8947 292.272 72.7586 291.923 72.7586C291.575 72.7586 291.24 72.8947 290.99 73.138C290.74 73.3812 290.594 73.7124 290.585 74.061H289.59C289.59 73.4423 289.836 72.8489 290.273 72.4113C290.711 71.9738 291.304 71.728 291.923 71.728C292.542 71.728 293.135 71.9738 293.573 72.4113C294.01 72.8489 294.256 73.4423 294.256 74.061V74.061Z" fill="#373C41"/>
<path d="M291.753 77.8628H284.832C284.661 77.8628 284.497 77.9307 284.376 78.0517C284.255 78.1727 284.187 78.3367 284.187 78.5078C284.187 78.6789 284.255 78.8429 284.376 78.9639C284.497 79.0848 284.661 79.1528 284.832 79.1528H291.753C291.924 79.1528 292.088 79.0848 292.209 78.9639C292.33 78.8429 292.398 78.6789 292.398 78.5078C292.398 78.3367 292.33 78.1727 292.209 78.0517C292.088 77.9307 291.924 77.8628 291.753 77.8628V77.8628Z" fill="#F5876E"/>
<path d="M290.552 79.9839H286.041C285.87 79.9839 285.706 80.0518 285.585 80.1728C285.464 80.2938 285.396 80.4578 285.396 80.6289C285.396 80.8 285.464 80.964 285.585 81.085C285.706 81.2059 285.87 81.2739 286.041 81.2739H290.552C290.723 81.2739 290.887 81.2059 291.008 81.085C291.129 80.964 291.197 80.8 291.197 80.6289C291.197 80.4578 291.129 80.2938 291.008 80.1728C290.887 80.0518 290.723 79.9839 290.552 79.9839V79.9839Z" fill="#F5876E"/>
<path d="M261.753 97.9289C261.533 97.8274 261.335 97.6835 261.171 97.5056C261.007 97.3277 260.879 97.1191 260.796 96.8919C260.712 96.6646 260.674 96.4231 260.684 96.1812C260.694 95.9393 260.751 95.7016 260.853 95.4819L264.387 87.8609L264.073 81.4089C264.073 81.4089 264.8 79.5709 265.817 79.5199C266.059 79.5078 266.3 79.5434 266.528 79.6247C266.756 79.7061 266.966 79.8315 267.146 79.994C267.325 80.1564 267.471 80.3526 267.575 80.5713C267.678 80.7901 267.738 81.0271 267.75 81.2689L268.092 88.1309C268.107 88.4293 268.049 88.7269 267.923 88.9979L264.201 97.0319C264.099 97.2516 263.955 97.4491 263.777 97.613C263.599 97.777 263.39 97.9043 263.163 97.9876C262.935 98.0709 262.694 98.1086 262.452 98.0985C262.21 98.0884 261.973 98.0308 261.753 97.9289V97.9289Z" fill="#3C698C"/>
<path d="M271.327 96.421L270.565 87.691L268.241 80.779C268.084 80.3157 268.119 79.8092 268.336 79.371C268.553 78.9328 268.935 78.5988 269.398 78.4425C269.862 78.2861 270.368 78.3203 270.806 78.5373C271.244 78.7544 271.578 79.1367 271.735 79.6L274.129 86.72C274.175 86.8583 274.205 87.0016 274.218 87.147L275.003 96.1C275.024 96.3411 274.997 96.584 274.924 96.8148C274.852 97.0456 274.734 97.2598 274.579 97.4452C274.423 97.6306 274.232 97.7836 274.018 97.8953C273.803 98.007 273.568 98.0754 273.327 98.0965C273.086 98.1176 272.843 98.0909 272.612 98.0181C272.382 97.9454 272.167 97.8278 271.982 97.6722C271.797 97.5166 271.644 97.3261 271.532 97.1114C271.42 96.8967 271.352 96.6621 271.331 96.421H271.327Z" fill="#194664"/>
<path d="M264.078 81.408L272.533 81.973L273.3 70.507C273.339 69.9144 273.142 69.3304 272.751 68.8833C272.36 68.4363 271.807 68.1628 271.215 68.123L267.23 67.857C266.637 67.8175 266.053 68.0149 265.606 68.4059C265.159 68.7969 264.886 69.3494 264.846 69.942L264.078 81.408Z" fill="#64AFFF"/>
<path d="M275.707 70.5267L277.607 70.1177L278.461 74.0967L276.561 74.5047L275.707 70.5267Z" fill="#46738C"/>
<path d="M282.531 71.2598H275.264C275.078 71.2598 274.9 71.1861 274.769 71.0548C274.638 70.9235 274.564 70.7455 274.564 70.5598V67.8328C274.564 67.6472 274.638 67.4691 274.769 67.3378C274.9 67.2066 275.078 67.1328 275.264 67.1328H282.531C282.717 67.1328 282.895 67.2066 283.026 67.3378C283.157 67.4691 283.231 67.6472 283.231 67.8328V70.5598C283.231 70.7455 283.157 70.9235 283.026 71.0548C282.895 71.1861 282.717 71.2598 282.531 71.2598Z" fill="#6C9BAA"/>
<path d="M276.525 69.3148C276.656 69.3148 276.784 69.2759 276.893 69.203C277.002 69.1302 277.087 69.0266 277.137 68.9055C277.188 68.7843 277.201 68.651 277.175 68.5224C277.149 68.3938 277.086 68.2757 276.994 68.183C276.901 68.0902 276.783 68.0271 276.654 68.0015C276.526 67.9759 276.392 67.9891 276.271 68.0392C276.15 68.0894 276.046 68.1744 275.974 68.2834C275.901 68.3925 275.862 68.5206 275.862 68.6518C275.862 68.8276 275.932 68.9962 276.056 69.1206C276.18 69.2449 276.349 69.3148 276.525 69.3148Z" fill="#E64937"/>
<path d="M270.898 76.547L269.87 74.507L270.751 72.834L272.518 73.208L273.043 74.25L277.588 73.493C277.781 73.4556 277.98 73.4573 278.173 73.498C278.366 73.5387 278.548 73.6176 278.71 73.73C278.872 73.8424 279.009 73.9861 279.114 74.1525C279.22 74.3189 279.291 74.5048 279.323 74.6991C279.355 74.8933 279.348 75.0921 279.303 75.2837C279.257 75.4753 279.173 75.6557 279.057 75.8144C278.94 75.9732 278.793 76.1069 278.624 76.2078C278.455 76.3087 278.267 76.3748 278.072 76.402L272.456 77.337C272.146 77.3886 271.828 77.3398 271.547 77.1976C271.267 77.0555 271.039 76.8275 270.898 76.547V76.547Z" fill="#FFB69E"/>
<path d="M272.52 73.2091L270.702 69.6001C270.617 69.4231 270.498 69.2647 270.351 69.1344C270.205 69.004 270.034 68.9042 269.848 68.8408C269.662 68.7774 269.466 68.7517 269.27 68.7652C269.074 68.7787 268.883 68.8312 268.708 68.9194C268.533 69.0077 268.377 69.1301 268.249 69.2794C268.122 69.4287 268.026 69.6019 267.966 69.7888C267.907 69.9758 267.885 70.1728 267.902 70.3682C267.92 70.5637 267.976 70.7537 268.068 70.9271L269.868 74.5081L272.52 73.2091Z" fill="#4699F2"/>
<path d="M146 256.002H4C1.79086 256.002 0 257.793 0 260.002V365.002C0 367.211 1.79086 369.002 4 369.002H146C148.209 369.002 150 367.211 150 365.002V260.002C150 257.793 148.209 256.002 146 256.002Z" fill="white"/>
<path d="M23.89 279.006L20.236 269.206H18.766L15.112 279.006H16.498L17.296 276.808H21.706L22.504 279.006H23.89ZM19.494 270.76L21.258 275.59H17.744L19.494 270.76ZM28.3631 275.394L30.8831 272.006H29.4551L27.6491 274.442L25.8431 272.006H24.4011L26.9351 275.408L24.2471 279.006H25.6751L27.6491 276.36L29.6091 279.006H31.0371L28.3631 275.394ZM35.9742 272.006H34.1122V270.046L32.8942 270.41V272.006H31.5082V273.182H32.8942V276.976C32.8942 278.712 33.8462 279.286 35.9742 279.006V277.914C34.7282 277.97 34.1122 278.054 34.1122 276.976V273.182H35.9742V272.006ZM42.8567 273.21C42.2547 272.286 41.3727 271.824 40.2107 271.824C39.2307 271.824 38.3907 272.188 37.7047 272.902C37.0187 273.616 36.6687 274.484 36.6687 275.506C36.6687 276.528 37.0187 277.41 37.7047 278.124C38.3907 278.838 39.2307 279.188 40.2107 279.188C41.3727 279.188 42.2547 278.726 42.8567 277.802V279.006H44.0747V272.006H42.8567V273.21ZM40.3647 278.012C39.6647 278.012 39.0767 277.774 38.6007 277.298C38.1247 276.808 37.8867 276.22 37.8867 275.506C37.8867 274.792 38.1247 274.204 38.6007 273.728C39.0767 273.238 39.6647 273 40.3647 273C41.0787 273 41.6667 273.238 42.1427 273.728C42.6187 274.204 42.8567 274.792 42.8567 275.506C42.8567 276.22 42.6187 276.808 42.1427 277.298C41.6667 277.774 41.0787 278.012 40.3647 278.012ZM47.1381 272.006H45.9201V279.006H47.1381V275.296C47.1381 274.526 47.3481 273.98 47.7821 273.63C48.2161 273.28 48.7201 273.126 49.3221 273.154V271.88C48.2721 271.88 47.5441 272.314 47.1381 273.182V272.006ZM51.7318 279.006V272.006H50.5138V279.006H51.7318ZM58.5463 277.088C58.5603 275.59 57.1043 275.184 56.0123 274.946C55.2423 274.736 54.6263 274.442 54.6263 273.896C54.6263 273.294 55.1863 272.958 55.8723 272.958C56.6143 272.958 57.1183 273.252 57.3703 273.854L58.3923 273.28C57.9443 272.37 57.0063 271.824 55.8723 271.824C55.1583 271.824 54.5703 272.02 54.0943 272.412C53.6323 272.804 53.3943 273.308 53.3943 273.91C53.3943 275.394 54.8223 275.758 55.9283 276.052C56.6983 276.234 57.3143 276.542 57.3143 277.088C57.3143 277.746 56.7263 278.04 55.9283 278.04C55.0743 278.04 54.4163 277.62 54.1923 276.948L53.1423 277.55C53.5203 278.46 54.2763 279.006 55.4103 279.16V280.168C56.1803 280.21 56.5723 280.378 56.5723 280.672C56.5723 281.05 55.9423 281.204 54.6963 281.106V282.03C56.6563 282.142 57.6363 281.722 57.6363 280.756C57.6363 280.196 57.1603 279.79 56.4463 279.636V279.16C57.7203 278.992 58.5463 278.208 58.5463 277.088ZM68.4585 277.088C68.4725 275.59 67.0165 275.184 65.9245 274.946C65.1545 274.736 64.5385 274.442 64.5385 273.896C64.5385 273.294 65.0985 272.958 65.7845 272.958C66.5265 272.958 67.0305 273.252 67.2825 273.854L68.3045 273.28C67.8565 272.37 66.9185 271.824 65.7845 271.824C65.0705 271.824 64.4825 272.02 64.0065 272.412C63.5445 272.804 63.3065 273.308 63.3065 273.91C63.3065 275.394 64.7345 275.758 65.8405 276.052C66.6105 276.234 67.2265 276.542 67.2265 277.088C67.2265 277.746 66.6385 278.04 65.8405 278.04C64.9865 278.04 64.3285 277.62 64.1045 276.948L63.0545 277.55C63.4325 278.46 64.1885 279.006 65.3225 279.16V280.168C66.0925 280.21 66.4845 280.378 66.4845 280.672C66.4845 281.05 65.8545 281.204 64.6085 281.106V282.03C66.5685 282.142 67.5485 281.722 67.5485 280.756C67.5485 280.196 67.0725 279.79 66.3585 279.636V279.16C67.6325 278.992 68.4585 278.208 68.4585 277.088ZM75.5052 273.21C74.9032 272.286 74.0212 271.824 72.8592 271.824C71.8792 271.824 71.0392 272.188 70.3532 272.902C69.6672 273.616 69.3172 274.484 69.3172 275.506C69.3172 276.528 69.6672 277.41 70.3532 278.124C71.0392 278.838 71.8792 279.188 72.8592 279.188C74.0212 279.188 74.9032 278.726 75.5052 277.802V279.006H76.7232V272.006H75.5052V273.21ZM73.0132 278.012C72.3132 278.012 71.7252 277.774 71.2492 277.298C70.7732 276.808 70.5352 276.22 70.5352 275.506C70.5352 274.792 70.7732 274.204 71.2492 273.728C71.7252 273.238 72.3132 273 73.0132 273C73.7272 273 74.3152 273.238 74.7912 273.728C75.2672 274.204 75.5052 274.792 75.5052 275.506C75.5052 276.22 75.2672 276.808 74.7912 277.298C74.3152 277.774 73.7272 278.012 73.0132 278.012ZM82.4325 271.824C81.2705 271.824 80.3885 272.286 79.7865 273.21V269.206H78.5685V279.006H79.7865V277.802C80.3885 278.726 81.2705 279.188 82.4325 279.188C83.4125 279.188 84.2525 278.838 84.9385 278.124C85.6245 277.41 85.9745 276.528 85.9745 275.506C85.9745 274.484 85.6245 273.616 84.9385 272.902C84.2525 272.188 83.4125 271.824 82.4325 271.824ZM82.2785 278.012C81.5645 278.012 80.9765 277.774 80.5005 277.298C80.0245 276.808 79.7865 276.22 79.7865 275.506C79.7865 274.792 80.0245 274.204 80.5005 273.728C80.9765 273.238 81.5645 273 82.2785 273C82.9785 273 83.5665 273.238 84.0425 273.728C84.5185 274.204 84.7565 274.792 84.7565 275.506C84.7565 276.22 84.5185 276.808 84.0425 277.298C83.5665 277.774 82.9785 278.012 82.2785 278.012ZM88.6459 279.006V268.786H87.4279V279.006H88.6459ZM96.4121 278.124C97.1261 277.41 97.4901 276.542 97.4901 275.506C97.4901 274.47 97.1261 273.602 96.4121 272.888C95.6981 272.174 94.8161 271.824 93.7941 271.824C92.7721 271.824 91.8901 272.174 91.1761 272.888C90.4621 273.602 90.1121 274.47 90.1121 275.506C90.1121 276.542 90.4621 277.41 91.1761 278.124C91.8901 278.838 92.7721 279.188 93.7941 279.188C94.8161 279.188 95.6981 278.838 96.4121 278.124ZM93.7941 277.998C93.1081 277.998 92.5201 277.76 92.0441 277.284C91.5681 276.808 91.3301 276.22 91.3301 275.506C91.3301 274.792 91.5681 274.204 92.0441 273.728C92.5201 273.252 93.1081 273.014 93.7941 273.014C94.4941 273.014 95.0821 273.252 95.5581 273.728C96.0341 274.204 96.2721 274.792 96.2721 275.506C96.2721 276.22 96.0341 276.808 95.5581 277.284C95.0821 277.76 94.4941 277.998 93.7941 277.998ZM102.412 271.824C101.39 271.824 100.634 272.216 100.144 273.014V272.006H98.926V279.006H100.144V275.296C100.144 273.728 100.956 272.986 102.174 272.986C103.252 272.986 103.91 273.644 103.91 274.778V279.006H105.128V274.708C105.128 272.93 104.05 271.824 102.412 271.824ZM108.046 279.006V268.786H106.828V279.006H108.046ZM115.7 273.21C115.098 272.286 114.216 271.824 113.054 271.824C112.074 271.824 111.234 272.188 110.548 272.902C109.862 273.616 109.512 274.484 109.512 275.506C109.512 276.528 109.862 277.41 110.548 278.124C111.234 278.838 112.074 279.188 113.054 279.188C114.216 279.188 115.098 278.726 115.7 277.802V279.006H116.918V272.006H115.7V273.21ZM113.208 278.012C112.508 278.012 111.92 277.774 111.444 277.298C110.968 276.808 110.73 276.22 110.73 275.506C110.73 274.792 110.968 274.204 111.444 273.728C111.92 273.238 112.508 273 113.208 273C113.922 273 114.51 273.238 114.986 273.728C115.462 274.204 115.7 274.792 115.7 275.506C115.7 276.22 115.462 276.808 114.986 277.298C114.51 277.774 113.922 278.012 113.208 278.012ZM119.982 272.006H118.764V279.006H119.982V275.296C119.982 274.526 120.192 273.98 120.626 273.63C121.06 273.28 121.564 273.126 122.166 273.154V271.88C121.116 271.88 120.388 272.314 119.982 273.182V272.006ZM124.576 279.006V272.006H123.358V279.006H124.576Z" fill="#081A3E"/>
<path d="M116.668 313.828H99.1931C98.0608 313.829 96.9752 314.28 96.1745 315.081C95.3738 315.881 94.9234 316.967 94.9221 318.099V349.319C94.9234 350.451 95.3738 351.537 96.1745 352.338C96.9752 353.138 98.0608 353.589 99.1931 353.59H120.939C122.071 353.589 123.157 353.138 123.958 352.338C124.758 351.537 125.209 350.451 125.21 349.319V322.371L116.668 313.828Z" fill="#EDF2F2"/>
<path d="M116.669 313.828H110.069V353.591H120.94C122.072 353.59 123.158 353.139 123.959 352.339C124.759 351.538 125.21 350.452 125.211 349.32V322.371L116.669 313.828Z" fill="#C9DCDC"/>
<path d="M116.667 313.828V321.206C116.667 321.515 116.79 321.811 117.008 322.03C117.227 322.248 117.523 322.371 117.832 322.371H125.21L116.667 313.828Z" fill="#A5BFBF"/>
<path d="M113.949 328.583H100.746C100.437 328.583 100.141 328.46 99.9223 328.242C99.7038 328.023 99.5811 327.727 99.5811 327.418C99.5811 327.109 99.7038 326.813 99.9223 326.594C100.141 326.376 100.437 326.253 100.746 326.253H113.946C114.255 326.253 114.551 326.376 114.77 326.594C114.988 326.813 115.111 327.109 115.111 327.418C115.111 327.727 114.988 328.023 114.77 328.242C114.551 328.46 114.255 328.583 113.946 328.583H113.949Z" fill="#646E6E"/>
<path d="M110.843 333.244H100.746C100.437 333.244 100.141 333.121 99.9223 332.903C99.7038 332.684 99.5811 332.388 99.5811 332.079C99.5811 331.77 99.7038 331.474 99.9223 331.255C100.141 331.037 100.437 330.914 100.746 330.914H110.846C111.155 330.914 111.451 331.037 111.67 331.255C111.888 331.474 112.011 331.77 112.011 332.079C112.011 332.388 111.888 332.684 111.67 332.903C111.451 333.121 111.155 333.244 110.846 333.244H110.843Z" fill="#646E6E"/>
<path d="M110.843 337.903H100.746C100.437 337.903 100.141 337.781 99.9223 337.562C99.7038 337.344 99.5811 337.047 99.5811 336.738C99.5811 336.429 99.7038 336.133 99.9223 335.914C100.141 335.696 100.437 335.573 100.746 335.573H110.846C111.155 335.573 111.451 335.696 111.67 335.914C111.888 336.133 112.011 336.429 112.011 336.738C112.011 337.047 111.888 337.344 111.67 337.562C111.451 337.781 111.155 337.903 110.846 337.903H110.843Z" fill="#646E6E"/>
<path d="M110.843 342.563H100.746C100.437 342.563 100.141 342.44 99.9223 342.222C99.7038 342.003 99.5811 341.707 99.5811 341.398C99.5811 341.089 99.7038 340.793 99.9223 340.574C100.141 340.356 100.437 340.233 100.746 340.233H110.846C111.155 340.233 111.451 340.356 111.67 340.574C111.888 340.793 112.011 341.089 112.011 341.398C112.011 341.707 111.888 342.003 111.67 342.222C111.451 342.44 111.155 342.563 110.846 342.563H110.843Z" fill="#646E6E"/>
<path d="M113.951 326.254H110.068V328.584H113.951C114.26 328.584 114.556 328.461 114.775 328.243C114.993 328.024 115.116 327.728 115.116 327.419C115.116 327.11 114.993 326.814 114.775 326.595C114.556 326.377 114.26 326.254 113.951 326.254V326.254Z" fill="#3C4646"/>
<path d="M110.844 333.244C111.153 333.244 111.449 333.121 111.668 332.903C111.886 332.684 112.009 332.388 112.009 332.079C112.009 331.77 111.886 331.474 111.668 331.255C111.449 331.037 111.153 330.914 110.844 330.914H110.067V333.244H110.844Z" fill="#3C4646"/>
<path d="M110.844 337.903C111.153 337.903 111.449 337.781 111.668 337.562C111.886 337.344 112.009 337.047 112.009 336.738C112.009 336.429 111.886 336.133 111.668 335.914C111.449 335.696 111.153 335.573 110.844 335.573H110.067V337.903H110.844Z" fill="#3C4646"/>
<path d="M110.844 342.563C111.153 342.563 111.449 342.44 111.668 342.222C111.886 342.003 112.009 341.707 112.009 341.398C112.009 341.089 111.886 340.793 111.668 340.574C111.449 340.356 111.153 340.233 110.844 340.233H110.067V342.563H110.844Z" fill="#3C4646"/>
<path d="M134.344 346.67L128.516 340.842C129.753 339.19 130.319 337.131 130.099 335.079C129.88 333.027 128.891 331.135 127.332 329.783C125.773 328.431 123.759 327.719 121.697 327.792C119.634 327.864 117.676 328.715 116.216 330.174C114.756 331.632 113.902 333.589 113.827 335.652C113.752 337.714 114.461 339.728 115.811 341.289C117.162 342.85 119.053 343.841 121.105 344.063C123.156 344.285 125.216 343.722 126.869 342.487L132.696 348.314C132.917 348.523 133.21 348.638 133.513 348.634C133.817 348.63 134.107 348.508 134.322 348.293C134.537 348.078 134.659 347.788 134.663 347.484C134.667 347.181 134.552 346.887 134.343 346.667L134.344 346.67Z" fill="#FF4600"/>
<path d="M121.989 341.786C123.141 341.786 124.267 341.445 125.225 340.805C126.183 340.164 126.93 339.255 127.371 338.19C127.812 337.126 127.927 335.955 127.702 334.825C127.477 333.695 126.923 332.657 126.108 331.842C125.293 331.028 124.255 330.473 123.125 330.248C121.996 330.023 120.824 330.139 119.76 330.58C118.696 331.021 117.786 331.767 117.146 332.725C116.506 333.683 116.164 334.809 116.164 335.961C116.164 337.506 116.778 338.988 117.87 340.08C118.963 341.173 120.444 341.786 121.989 341.786V341.786Z" fill="#2FDDFF"/>
<path d="M311 128.002H169C166.791 128.002 165 129.793 165 132.002V237.002C165 239.211 166.791 241.002 169 241.002H311C313.209 241.002 315 239.211 315 237.002V132.002C315 129.793 313.209 128.002 311 128.002Z" fill="white"/>
<path d="M184.214 151.186C185.222 151.186 186.034 150.934 186.664 150.43C187.294 149.912 187.602 149.226 187.602 148.372C187.602 147.756 187.462 147.252 187.112 146.902C186.874 146.622 186.748 146.468 186.356 146.258C185.978 146.048 185.866 145.978 185.376 145.796C185.138 145.698 184.97 145.642 184.858 145.6L184.284 145.418C183.528 145.18 182.996 144.942 182.688 144.718C182.38 144.494 182.226 144.172 182.226 143.738C182.226 142.842 182.94 142.282 184.004 142.282C185.068 142.282 185.81 142.786 186.23 143.794L187.322 143.164C186.748 141.876 185.558 141.022 184.004 141.022C183.15 141.022 182.422 141.274 181.82 141.778C181.218 142.268 180.924 142.94 180.924 143.794C180.924 144.508 181.218 145.082 181.54 145.432C181.694 145.6 181.932 145.768 182.254 145.936C182.576 146.09 182.856 146.216 183.066 146.3L184.004 146.608C184.83 146.874 185.432 147.112 185.782 147.35C186.132 147.588 186.314 147.938 186.314 148.4C186.314 149.31 185.586 149.912 184.242 149.912C182.884 149.912 182.002 149.324 181.624 148.134L180.504 148.778C181.022 150.276 182.38 151.186 184.214 151.186ZM193.848 147.714C193.848 149.282 193.036 150.024 191.818 150.024C190.74 150.024 190.082 149.366 190.082 148.232V144.004H188.864V148.302C188.864 150.08 189.942 151.186 191.58 151.186C192.602 151.186 193.358 150.794 193.848 149.996V151.004H195.066V144.004H193.848V147.714ZM200.784 143.822C199.622 143.822 198.74 144.284 198.138 145.208V144.004H196.92V153.804H198.138V149.8C198.74 150.724 199.622 151.186 200.784 151.186C201.764 151.186 202.604 150.836 203.29 150.122C203.976 149.408 204.326 148.526 204.326 147.504C204.326 146.482 203.976 145.614 203.29 144.9C202.604 144.186 201.764 143.822 200.784 143.822ZM200.63 150.01C199.916 150.01 199.328 149.772 198.852 149.296C198.376 148.806 198.138 148.218 198.138 147.504C198.138 146.79 198.376 146.202 198.852 145.726C199.328 145.236 199.916 144.998 200.63 144.998C201.33 144.998 201.918 145.236 202.394 145.726C202.87 146.202 203.108 146.79 203.108 147.504C203.108 148.218 202.87 148.806 202.394 149.296C201.918 149.772 201.33 150.01 200.63 150.01ZM212.499 148.064C212.527 147.882 212.541 147.7 212.541 147.518C212.541 146.496 212.219 145.628 211.561 144.914C210.917 144.186 210.077 143.822 209.055 143.822C207.977 143.822 207.095 144.172 206.409 144.872C205.723 145.572 205.387 146.454 205.387 147.504C205.387 148.568 205.737 149.45 206.423 150.15C207.123 150.836 208.033 151.186 209.139 151.186C210.511 151.186 211.533 150.654 212.219 149.604L211.183 149.016C210.763 149.702 210.091 150.038 209.167 150.038C207.837 150.038 206.871 149.31 206.633 148.064H212.499ZM209.055 144.97C210.175 144.97 211.099 145.67 211.309 147H206.633C206.843 145.768 207.753 144.97 209.055 144.97ZM215.16 144.004H213.942V151.004H215.16V147.294C215.16 146.524 215.37 145.978 215.804 145.628C216.238 145.278 216.742 145.124 217.344 145.152V143.878C216.294 143.878 215.566 144.312 215.16 145.18V144.004ZM225.843 144.004H223.981V142.044L222.763 142.408V144.004H221.377V145.18H222.763V148.974C222.763 150.71 223.715 151.284 225.843 151.004V149.912C224.597 149.968 223.981 150.052 223.981 148.974V145.18H225.843V144.004ZM226.976 146.944C226.948 147.126 226.934 147.308 226.934 147.49C226.934 148.512 227.256 149.38 227.914 150.094C228.558 150.822 229.398 151.186 230.42 151.186C231.498 151.186 232.38 150.836 233.066 150.136C233.752 149.436 234.088 148.554 234.088 147.504C234.088 146.44 233.738 145.558 233.052 144.858C232.352 144.172 231.442 143.822 230.336 143.822C229.244 143.822 228.39 144.158 227.732 144.816L228.558 145.642C228.978 145.194 229.552 144.97 230.308 144.97C231.638 144.97 232.604 145.698 232.842 146.944H226.976ZM230.42 150.038C229.3 150.038 228.376 149.338 228.166 148.008H232.842C232.632 149.24 231.722 150.038 230.42 150.038ZM237.952 147.392L241.298 144.004H239.73L236.706 147.098V141.204H235.488V151.004H236.706V147.686L239.898 151.004H241.41L237.952 147.392ZM243.761 151.004V140.784H242.543V151.004H243.761ZM246.235 142.73C246.683 142.73 247.047 142.366 247.047 141.918C247.047 141.47 246.683 141.092 246.235 141.092C245.773 141.092 245.409 141.47 245.409 141.918C245.409 142.366 245.773 142.73 246.235 142.73ZM246.837 151.004V144.004H245.619V151.004H246.837ZM252.293 141.022C250.319 140.896 249.227 141.904 249.227 143.794V144.004H248.107V145.18H249.227V151.004H250.445V145.18H252.293V144.004H250.445V143.794C250.445 142.632 251.061 142.1 252.293 142.198V141.022Z" fill="#081A3E"/>
<path d="M267.104 193.787C266.801 193.723 266.485 193.782 266.225 193.951C265.966 194.119 265.783 194.384 265.718 194.687L264.201 201.947C264.166 202.099 264.161 202.256 264.188 202.41C264.215 202.564 264.271 202.71 264.356 202.842C264.44 202.973 264.549 203.087 264.677 203.175C264.806 203.264 264.951 203.326 265.103 203.358C265.256 203.39 265.414 203.391 265.567 203.361C265.72 203.331 265.865 203.271 265.995 203.184C266.125 203.097 266.236 202.986 266.322 202.855C266.407 202.725 266.466 202.579 266.495 202.426L268.011 195.166C268.072 194.863 268.011 194.548 267.841 194.289C267.672 194.031 267.406 193.85 267.104 193.787Z" fill="#FF712F"/>
<path d="M272.101 190.866L264.365 188.856C264.149 188.799 263.923 188.786 263.702 188.817C263.48 188.848 263.267 188.922 263.074 189.035C262.882 189.149 262.713 189.299 262.578 189.477C262.444 189.656 262.346 189.859 262.29 190.076L261.466 193.249C261.409 193.465 261.396 193.691 261.427 193.912C261.458 194.133 261.532 194.347 261.645 194.539C261.759 194.732 261.909 194.901 262.088 195.035C262.266 195.17 262.469 195.268 262.686 195.324L270.423 197.334C270.564 197.37 270.708 197.389 270.854 197.389C271.23 197.388 271.596 197.263 271.894 197.032C272.191 196.801 272.404 196.478 272.498 196.114L273.321 192.941C273.377 192.724 273.391 192.499 273.36 192.278C273.329 192.056 273.255 191.843 273.141 191.65C273.028 191.457 272.878 191.289 272.699 191.154C272.521 191.02 272.317 190.922 272.101 190.866Z" fill="#A34F3E"/>
<path d="M296.888 216.614V221.014C296.888 221.065 296.878 221.116 296.858 221.164C296.839 221.211 296.81 221.254 296.774 221.291C296.737 221.327 296.694 221.356 296.647 221.375C296.599 221.395 296.548 221.405 296.497 221.405H292.261V217.358C292.261 217.047 292.137 216.749 291.918 216.529C291.698 216.309 291.4 216.186 291.089 216.186C290.778 216.186 290.48 216.309 290.26 216.529C290.04 216.749 289.917 217.047 289.917 217.358V221.41H274.357C274.253 221.41 274.154 221.369 274.08 221.295C274.007 221.222 273.966 221.123 273.966 221.019V215.203H267.255C266.108 215.201 265.008 214.744 264.197 213.933C263.386 213.121 262.93 212.021 262.929 210.874V206.452L265.348 204.108L267.767 206.452V210.364H291.929C291.982 210.364 292.034 210.375 292.082 210.395C292.131 210.416 292.174 210.446 292.211 210.484L296.028 214.475C296.581 215.05 296.889 215.817 296.888 216.614V216.614Z" fill="#F6EFEA"/>
<path d="M296.886 216.612V221.012C296.886 221.063 296.876 221.114 296.856 221.162C296.837 221.209 296.808 221.252 296.772 221.289C296.735 221.325 296.692 221.354 296.645 221.373C296.597 221.393 296.546 221.403 296.495 221.403H292.261V217.357C292.261 217.046 292.137 216.748 291.918 216.528C291.698 216.308 291.4 216.185 291.089 216.185C290.778 216.185 290.48 216.308 290.26 216.528C290.04 216.748 289.917 217.046 289.917 217.357V221.412H282.596V210.363H291.93C291.983 210.363 292.035 210.373 292.083 210.394C292.132 210.415 292.175 210.445 292.212 210.483L296.03 214.475C296.581 215.05 296.887 215.816 296.886 216.612V216.612Z" fill="#EEE1DC"/>
<path d="M285.104 216.399L284.424 221.019H280.769L280.089 216.399C280.067 216.251 280.096 216.101 280.17 215.972L282.176 212.486C281.788 212.391 281.444 212.17 281.198 211.856C280.952 211.543 280.818 211.155 280.818 210.757V207.368H284.374V210.753C284.375 211.152 284.241 211.54 283.995 211.854C283.749 212.168 283.405 212.391 283.017 212.486L285.024 215.975C285.097 216.103 285.125 216.252 285.104 216.399Z" fill="#FF4949"/>
<path d="M285.103 216.399L284.423 221.019H282.596V207.368H284.374V210.753C284.375 211.152 284.241 211.54 283.995 211.854C283.749 212.168 283.404 212.391 283.016 212.486L285.023 215.975C285.096 216.103 285.124 216.252 285.103 216.399V216.399Z" fill="#E50048"/>
<path d="M267.766 204.22V206.45H262.929V204.22C262.929 203.902 262.992 203.588 263.113 203.294C263.235 203.001 263.413 202.734 263.637 202.509C263.862 202.285 264.129 202.106 264.422 201.985C264.716 201.863 265.03 201.801 265.348 201.801C265.666 201.801 265.98 201.863 266.274 201.985C266.567 202.106 266.834 202.285 267.058 202.509C267.283 202.734 267.461 203.001 267.583 203.294C267.704 203.588 267.767 203.902 267.767 204.22H267.766Z" fill="#FFD1AE"/>
<path d="M299.693 223.382V223.392C299.692 224.122 299.402 224.822 298.886 225.338C298.37 225.854 297.67 226.144 296.94 226.145H262.446C261.716 226.144 261.016 225.854 260.5 225.338C259.984 224.822 259.694 224.122 259.693 223.392V223.382C259.694 222.652 259.984 221.952 260.5 221.436C261.016 220.92 261.716 220.63 262.446 220.629H296.94C297.67 220.63 298.369 220.92 298.885 221.436C299.401 221.952 299.692 222.652 299.693 223.382Z" fill="#424E53"/>
<path d="M299.692 223.382V223.392C299.691 224.122 299.401 224.822 298.885 225.338C298.369 225.854 297.669 226.144 296.939 226.145H282.596V220.629H296.939C297.669 220.63 298.368 220.92 298.884 221.436C299.401 221.952 299.691 222.652 299.692 223.382V223.382Z" fill="#292929"/>
<path d="M289.456 197.792V201.992C289.456 203.811 288.734 205.555 287.448 206.841C286.162 208.127 284.418 208.849 282.599 208.849C280.78 208.849 279.036 208.127 277.75 206.841C276.464 205.555 275.742 203.811 275.742 201.992V199.299L282.599 198.546L289.456 197.792Z" fill="#FFD1AE"/>
<path d="M289.453 197.792V201.992C289.451 203.81 288.728 205.554 287.443 206.84C286.157 208.126 284.414 208.849 282.596 208.852V198.545L289.453 197.792Z" fill="#FFBD83"/>
<path d="M291.526 191.271V194.544C291.526 195.804 291.025 197.013 290.134 197.904C289.243 198.795 288.034 199.296 286.774 199.296H275.742V195.084C275.742 193.762 276.267 192.494 277.202 191.559C278.136 190.625 279.404 190.1 280.726 190.1H290.354C290.665 190.1 290.963 190.223 291.182 190.443C291.402 190.662 291.526 190.96 291.526 191.271V191.271Z" fill="#A34F3E"/>
<path d="M286.771 199.298H282.596V190.098H290.351C290.662 190.098 290.96 190.221 291.18 190.441C291.399 190.661 291.523 190.959 291.523 191.27V194.544C291.523 195.168 291.4 195.786 291.162 196.363C290.923 196.94 290.573 197.464 290.132 197.905C289.691 198.347 289.167 198.697 288.59 198.936C288.013 199.175 287.395 199.298 286.771 199.298V199.298Z" fill="#873F2E"/>
<path d="M311 256.002H169C166.791 256.002 165 257.793 165 260.002V365.002C165 367.211 166.791 369.002 169 369.002H311C313.209 369.002 315 367.211 315 365.002V260.002C315 257.793 313.209 256.002 311 256.002Z" fill="white"/>
<path d="M184.214 279.188C185.222 279.188 186.034 278.936 186.664 278.432C187.294 277.914 187.602 277.228 187.602 276.374C187.602 275.758 187.462 275.254 187.112 274.904C186.874 274.624 186.748 274.47 186.356 274.26C185.978 274.05 185.866 273.98 185.376 273.798C185.138 273.7 184.97 273.644 184.858 273.602L184.284 273.42C183.528 273.182 182.996 272.944 182.688 272.72C182.38 272.496 182.226 272.174 182.226 271.74C182.226 270.844 182.94 270.284 184.004 270.284C185.068 270.284 185.81 270.788 186.23 271.796L187.322 271.166C186.748 269.878 185.558 269.024 184.004 269.024C183.15 269.024 182.422 269.276 181.82 269.78C181.218 270.27 180.924 270.942 180.924 271.796C180.924 272.51 181.218 273.084 181.54 273.434C181.694 273.602 181.932 273.77 182.254 273.938C182.576 274.092 182.856 274.218 183.066 274.302L184.004 274.61C184.83 274.876 185.432 275.114 185.782 275.352C186.132 275.59 186.314 275.94 186.314 276.402C186.314 277.312 185.586 277.914 184.242 277.914C182.884 277.914 182.002 277.326 181.624 276.136L180.504 276.78C181.022 278.278 182.38 279.188 184.214 279.188ZM194.978 273.21C194.376 272.286 193.494 271.824 192.332 271.824C191.352 271.824 190.512 272.188 189.826 272.902C189.14 273.616 188.79 274.484 188.79 275.506C188.79 276.528 189.14 277.41 189.826 278.124C190.512 278.838 191.352 279.188 192.332 279.188C193.494 279.188 194.376 278.726 194.978 277.802V279.006H196.196V272.006H194.978V273.21ZM192.486 278.012C191.786 278.012 191.198 277.774 190.722 277.298C190.246 276.808 190.008 276.22 190.008 275.506C190.008 274.792 190.246 274.204 190.722 273.728C191.198 273.238 191.786 273 192.486 273C193.2 273 193.788 273.238 194.264 273.728C194.74 274.204 194.978 274.792 194.978 275.506C194.978 276.22 194.74 276.808 194.264 277.298C193.788 277.774 193.2 278.012 192.486 278.012ZM199.259 279.006V268.786H198.041V279.006H199.259ZM207.025 278.124C207.739 277.41 208.103 276.542 208.103 275.506C208.103 274.47 207.739 273.602 207.025 272.888C206.311 272.174 205.429 271.824 204.407 271.824C203.385 271.824 202.503 272.174 201.789 272.888C201.075 273.602 200.725 274.47 200.725 275.506C200.725 276.542 201.075 277.41 201.789 278.124C202.503 278.838 203.385 279.188 204.407 279.188C205.429 279.188 206.311 278.838 207.025 278.124ZM204.407 277.998C203.721 277.998 203.133 277.76 202.657 277.284C202.181 276.808 201.943 276.22 201.943 275.506C201.943 274.792 202.181 274.204 202.657 273.728C203.133 273.252 203.721 273.014 204.407 273.014C205.107 273.014 205.695 273.252 206.171 273.728C206.647 274.204 206.885 274.792 206.885 275.506C206.885 276.22 206.647 276.808 206.171 277.284C205.695 277.76 205.107 277.998 204.407 277.998ZM213.025 271.824C212.003 271.824 211.247 272.216 210.757 273.014V272.006H209.539V279.006H210.757V275.296C210.757 273.728 211.569 272.986 212.787 272.986C213.865 272.986 214.523 273.644 214.523 274.778V279.006H215.741V274.708C215.741 272.93 214.663 271.824 213.025 271.824ZM222.272 275.716C222.272 277.284 221.46 278.026 220.242 278.026C219.164 278.026 218.506 277.368 218.506 276.234V272.006H217.288V276.304C217.288 278.082 218.366 279.188 220.004 279.188C221.026 279.188 221.782 278.796 222.272 277.998V279.006H223.49V272.006H222.272V275.716ZM228.83 271.824C227.808 271.824 227.052 272.216 226.562 273.014V272.006H225.344V279.006H226.562V275.296C226.562 273.728 227.374 272.986 228.592 272.986C229.67 272.986 230.328 273.644 230.328 274.778V279.006H231.546V274.708C231.546 272.93 230.468 271.824 228.83 271.824ZM181.54 287.732C181.988 287.732 182.352 287.368 182.352 286.92C182.352 286.472 181.988 286.094 181.54 286.094C181.078 286.094 180.714 286.472 180.714 286.92C180.714 287.368 181.078 287.732 181.54 287.732ZM182.142 296.006V289.006H180.924V296.006H182.142ZM189.796 290.21C189.194 289.286 188.312 288.824 187.15 288.824C186.17 288.824 185.33 289.188 184.644 289.902C183.958 290.616 183.608 291.484 183.608 292.506C183.608 293.528 183.958 294.41 184.644 295.124C185.33 295.838 186.17 296.188 187.15 296.188C188.312 296.188 189.194 295.726 189.796 294.802V296.006H191.014V286.206H189.796V290.21ZM187.304 295.012C186.604 295.012 186.016 294.774 185.54 294.298C185.064 293.808 184.826 293.22 184.826 292.506C184.826 291.792 185.064 291.204 185.54 290.728C186.016 290.238 186.604 290 187.304 290C188.018 290 188.606 290.238 189.082 290.728C189.558 291.204 189.796 291.792 189.796 292.506C189.796 293.22 189.558 293.808 189.082 294.298C188.606 294.774 188.018 295.012 187.304 295.012ZM198.656 290.21C198.054 289.286 197.172 288.824 196.01 288.824C195.03 288.824 194.19 289.188 193.504 289.902C192.818 290.616 192.468 291.484 192.468 292.506C192.468 293.528 192.818 294.41 193.504 295.124C194.19 295.838 195.03 296.188 196.01 296.188C197.172 296.188 198.054 295.726 198.656 294.802V296.006H199.874V289.006H198.656V290.21ZM196.164 295.012C195.464 295.012 194.876 294.774 194.4 294.298C193.924 293.808 193.686 293.22 193.686 292.506C193.686 291.792 193.924 291.204 194.4 290.728C194.876 290.238 195.464 290 196.164 290C196.878 290 197.466 290.238 197.942 290.728C198.418 291.204 198.656 291.792 198.656 292.506C198.656 293.22 198.418 293.808 197.942 294.298C197.466 294.774 196.878 295.012 196.164 295.012ZM202.937 289.006H201.719V296.006H202.937V292.296C202.937 291.526 203.147 290.98 203.581 290.63C204.015 290.28 204.519 290.126 205.121 290.154V288.88C204.071 288.88 203.343 289.314 202.937 290.182V289.006ZM205.963 291.946C205.935 292.128 205.921 292.31 205.921 292.492C205.921 293.514 206.243 294.382 206.901 295.096C207.545 295.824 208.385 296.188 209.407 296.188C210.485 296.188 211.367 295.838 212.053 295.138C212.739 294.438 213.075 293.556 213.075 292.506C213.075 291.442 212.725 290.56 212.039 289.86C211.339 289.174 210.429 288.824 209.323 288.824C208.231 288.824 207.377 289.16 206.719 289.818L207.545 290.644C207.965 290.196 208.539 289.972 209.295 289.972C210.625 289.972 211.591 290.7 211.829 291.946H205.963ZM209.407 295.04C208.287 295.04 207.363 294.34 207.153 293.01H211.829C211.619 294.242 210.709 295.04 209.407 295.04ZM221.195 293.066C221.223 292.884 221.237 292.702 221.237 292.52C221.237 291.498 220.915 290.63 220.257 289.916C219.613 289.188 218.773 288.824 217.751 288.824C216.673 288.824 215.791 289.174 215.105 289.874C214.419 290.574 214.083 291.456 214.083 292.506C214.083 293.57 214.433 294.452 215.119 295.152C215.819 295.838 216.729 296.188 217.835 296.188C219.207 296.188 220.229 295.656 220.915 294.606L219.879 294.018C219.459 294.704 218.787 295.04 217.863 295.04C216.533 295.04 215.567 294.312 215.329 293.066H221.195ZM217.751 289.972C218.871 289.972 219.795 290.672 220.005 292.002H215.329C215.539 290.77 216.449 289.972 217.751 289.972ZM226.24 289.006H224.378V287.046L223.16 287.41V289.006H221.774V290.182H223.16V293.976C223.16 295.712 224.112 296.286 226.24 296.006V294.914C224.994 294.97 224.378 295.054 224.378 293.976V290.182H226.24V289.006ZM235.283 288.824C234.303 288.824 233.575 289.216 233.085 290.014C232.651 289.216 231.965 288.824 231.027 288.824C230.117 288.824 229.417 289.202 228.941 289.944V289.006H227.723V296.006H228.941V292.114C228.941 290.7 229.711 289.986 230.733 289.986C231.643 289.986 232.217 290.616 232.217 291.694V296.006H233.435V292.114C233.435 290.672 234.107 289.986 235.157 289.986C236.095 289.986 236.697 290.616 236.697 291.694V296.006H237.915V291.652C237.915 289.916 236.851 288.824 235.283 288.824ZM239.254 291.946C239.226 292.128 239.212 292.31 239.212 292.492C239.212 293.514 239.534 294.382 240.192 295.096C240.836 295.824 241.676 296.188 242.698 296.188C243.776 296.188 244.658 295.838 245.344 295.138C246.03 294.438 246.366 293.556 246.366 292.506C246.366 291.442 246.016 290.56 245.33 289.86C244.63 289.174 243.72 288.824 242.614 288.824C241.522 288.824 240.668 289.16 240.01 289.818L240.836 290.644C241.256 290.196 241.83 289.972 242.586 289.972C243.916 289.972 244.882 290.7 245.12 291.946H239.254ZM242.698 295.04C241.578 295.04 240.654 294.34 240.444 293.01H245.12C244.91 294.242 244 295.04 242.698 295.04ZM255.13 288.824C253.968 288.824 253.086 289.286 252.484 290.21V289.006H251.266V298.806H252.484V294.802C253.086 295.726 253.968 296.188 255.13 296.188C256.11 296.188 256.95 295.838 257.636 295.124C258.322 294.41 258.672 293.528 258.672 292.506C258.672 291.484 258.322 290.616 257.636 289.902C256.95 289.188 256.11 288.824 255.13 288.824ZM254.976 295.012C254.262 295.012 253.674 294.774 253.198 294.298C252.722 293.808 252.484 293.22 252.484 292.506C252.484 291.792 252.722 291.204 253.198 290.728C253.674 290.238 254.262 290 254.976 290C255.676 290 256.264 290.238 256.74 290.728C257.216 291.204 257.454 291.792 257.454 292.506C257.454 293.22 257.216 293.808 256.74 294.298C256.264 294.774 255.676 295.012 254.976 295.012ZM265.921 290.21C265.319 289.286 264.437 288.824 263.275 288.824C262.295 288.824 261.455 289.188 260.769 289.902C260.083 290.616 259.733 291.484 259.733 292.506C259.733 293.528 260.083 294.41 260.769 295.124C261.455 295.838 262.295 296.188 263.275 296.188C264.437 296.188 265.319 295.726 265.921 294.802V296.006H267.139V289.006H265.921V290.21ZM263.429 295.012C262.729 295.012 262.141 294.774 261.665 294.298C261.189 293.808 260.951 293.22 260.951 292.506C260.951 291.792 261.189 291.204 261.665 290.728C262.141 290.238 262.729 290 263.429 290C264.143 290 264.731 290.238 265.207 290.728C265.683 291.204 265.921 291.792 265.921 292.506C265.921 293.22 265.683 293.808 265.207 294.298C264.731 294.774 264.143 295.012 263.429 295.012ZM272.471 288.824C271.449 288.824 270.693 289.216 270.203 290.014V289.006H268.985V296.006H270.203V292.296C270.203 290.728 271.015 289.986 272.233 289.986C273.311 289.986 273.969 290.644 273.969 291.778V296.006H275.187V291.708C275.187 289.93 274.109 288.824 272.471 288.824ZM283.607 293.066C283.635 292.884 283.649 292.702 283.649 292.52C283.649 291.498 283.327 290.63 282.669 289.916C282.025 289.188 281.185 288.824 280.163 288.824C279.085 288.824 278.203 289.174 277.517 289.874C276.831 290.574 276.495 291.456 276.495 292.506C276.495 293.57 276.845 294.452 277.531 295.152C278.231 295.838 279.141 296.188 280.247 296.188C281.619 296.188 282.641 295.656 283.327 294.606L282.291 294.018C281.871 294.704 281.199 295.04 280.275 295.04C278.945 295.04 277.979 294.312 277.741 293.066H283.607ZM280.163 289.972C281.283 289.972 282.207 290.672 282.417 292.002H277.741C277.951 290.77 278.861 289.972 280.163 289.972ZM286.267 296.006V285.786H285.049V296.006H286.267ZM288.741 287.732C289.189 287.732 289.553 287.368 289.553 286.92C289.553 286.472 289.189 286.094 288.741 286.094C288.279 286.094 287.915 286.472 287.915 286.92C287.915 287.368 288.279 287.732 288.741 287.732ZM289.343 296.006V289.006H288.125V296.006H289.343Z" fill="#081A3E"/>
<path d="M259.693 320.942V352.66C259.693 352.971 259.816 353.269 260.036 353.489C260.256 353.709 260.554 353.832 260.865 353.832H298.52C298.674 353.832 298.826 353.802 298.969 353.743C299.111 353.684 299.24 353.598 299.349 353.489C299.458 353.38 299.545 353.251 299.604 353.109C299.663 352.966 299.693 352.814 299.693 352.66V320.942L297.348 319.77H261.973L259.693 320.942Z" fill="#A4DCFF"/>
<path d="M299.693 320.942V352.66C299.693 352.971 299.569 353.269 299.35 353.489C299.13 353.709 298.832 353.832 298.521 353.832H272.621V319.77H297.349L299.693 320.942Z" fill="#59C0FF"/>
<path d="M299.693 315.004C299.693 314.85 299.663 314.698 299.604 314.555C299.545 314.413 299.458 314.284 299.349 314.175C299.24 314.066 299.111 313.98 298.969 313.921C298.826 313.862 298.674 313.832 298.52 313.832H260.865C260.554 313.832 260.256 313.956 260.036 314.175C259.816 314.395 259.693 314.693 259.693 315.004V320.941H299.693V315.004Z" fill="#4249C5"/>
<path d="M299.693 315.004V320.941H272.623V313.832H298.523C298.833 313.833 299.131 313.956 299.35 314.176C299.57 314.396 299.693 314.694 299.693 315.004Z" fill="#2B249B"/>
<path d="M263.681 326.804H268.751C269.062 326.804 269.36 326.68 269.58 326.461C269.799 326.241 269.923 325.943 269.923 325.632C269.923 325.321 269.799 325.023 269.58 324.803C269.36 324.583 269.062 324.46 268.751 324.46H263.681C263.37 324.46 263.072 324.583 262.852 324.803C262.632 325.023 262.509 325.321 262.509 325.632C262.509 325.943 262.632 326.241 262.852 326.461C263.072 326.68 263.37 326.804 263.681 326.804V326.804Z" fill="#59C0FF"/>
<path d="M263.681 331.488H268.751C268.905 331.488 269.057 331.458 269.199 331.399C269.341 331.34 269.471 331.254 269.58 331.145C269.688 331.036 269.775 330.907 269.834 330.765C269.892 330.622 269.923 330.47 269.923 330.316C269.923 330.162 269.892 330.01 269.834 329.868C269.775 329.725 269.688 329.596 269.58 329.487C269.471 329.378 269.341 329.292 269.199 329.233C269.057 329.174 268.905 329.144 268.751 329.144H263.681C263.527 329.144 263.374 329.174 263.232 329.233C263.09 329.292 262.961 329.378 262.852 329.487C262.743 329.596 262.657 329.725 262.598 329.868C262.539 330.01 262.509 330.162 262.509 330.316C262.509 330.47 262.539 330.622 262.598 330.765C262.657 330.907 262.743 331.036 262.852 331.145C262.961 331.254 263.09 331.34 263.232 331.399C263.374 331.458 263.527 331.488 263.681 331.488V331.488Z" fill="#59C0FF"/>
<path d="M268.755 333.832H263.677C263.523 333.832 263.371 333.862 263.228 333.921C263.086 333.98 262.957 334.066 262.848 334.175C262.739 334.284 262.653 334.413 262.594 334.556C262.535 334.698 262.505 334.85 262.505 335.004C262.505 335.158 262.535 335.31 262.594 335.453C262.653 335.595 262.739 335.724 262.848 335.833C262.957 335.942 263.086 336.028 263.228 336.087C263.371 336.146 263.523 336.176 263.677 336.176H268.755C268.909 336.176 269.061 336.146 269.203 336.087C269.346 336.028 269.475 335.942 269.584 335.833C269.692 335.724 269.779 335.595 269.838 335.453C269.897 335.31 269.927 335.158 269.927 335.004C269.927 334.85 269.897 334.698 269.838 334.556C269.779 334.413 269.692 334.284 269.584 334.175C269.475 334.066 269.346 333.98 269.203 333.921C269.061 333.862 268.909 333.832 268.755 333.832Z" fill="#59C0FF"/>
<path d="M285.552 325.637C283.49 325.636 281.485 326.314 279.847 327.567C278.209 328.821 277.03 330.579 276.493 332.57C275.955 334.561 276.089 336.673 276.873 338.58C277.657 340.488 279.048 342.083 280.831 343.12C282.614 344.157 284.688 344.577 286.734 344.316C288.779 344.054 290.682 343.126 292.146 341.674C293.611 340.223 294.556 338.329 294.836 336.285C295.115 334.242 294.714 332.164 293.693 330.372L285.552 325.637Z" fill="#FCD363"/>
<path d="M293.693 330.372C292.874 328.935 291.69 327.74 290.26 326.909C288.83 326.077 287.206 325.638 285.552 325.637V335.008L293.693 330.372Z" fill="#FF80AA"/>
<path d="M293.759 346.72H277.353C277.042 346.72 276.744 346.844 276.524 347.063C276.304 347.283 276.181 347.581 276.181 347.892C276.181 348.203 276.304 348.501 276.524 348.721C276.744 348.941 277.042 349.064 277.353 349.064H293.759C294.07 349.064 294.368 348.941 294.588 348.721C294.807 348.501 294.931 348.203 294.931 347.892C294.931 347.581 294.807 347.283 294.588 347.063C294.368 346.844 294.07 346.72 293.759 346.72Z" fill="#E4F5FF"/>
<path d="M146 128.002H4C1.79086 128.002 0 129.793 0 132.002V237.002C0 239.211 1.79086 241.002 4 241.002H146C148.209 241.002 150 239.211 150 237.002V132.002C150 129.793 148.209 128.002 146 128.002Z" fill="white"/>
<path d="M17.352 146.664H21.482V145.446H17.352V142.436H21.832V141.204H16.05V151.004H21.902V149.772H17.352V146.664ZM24.5658 151.004V140.784H23.3478V151.004H24.5658ZM32.22 145.208C31.618 144.284 30.736 143.822 29.574 143.822C28.594 143.822 27.754 144.186 27.068 144.9C26.382 145.614 26.032 146.482 26.032 147.504C26.032 148.526 26.382 149.408 27.068 150.122C27.754 150.836 28.594 151.186 29.574 151.186C30.736 151.186 31.618 150.724 32.22 149.8V151.004H33.438V144.004H32.22V145.208ZM29.728 150.01C29.028 150.01 28.44 149.772 27.964 149.296C27.488 148.806 27.25 148.218 27.25 147.504C27.25 146.79 27.488 146.202 27.964 145.726C28.44 145.236 29.028 144.998 29.728 144.998C30.442 144.998 31.03 145.236 31.506 145.726C31.982 146.202 32.22 146.79 32.22 147.504C32.22 148.218 31.982 148.806 31.506 149.296C31.03 149.772 30.442 150.01 29.728 150.01ZM38.7694 143.822C37.7474 143.822 36.9914 144.214 36.5014 145.012V144.004H35.2834V151.004H36.5014V147.294C36.5014 145.726 37.3134 144.984 38.5314 144.984C39.6094 144.984 40.2674 145.642 40.2674 146.776V151.004H41.4854V146.706C41.4854 144.928 40.4074 143.822 38.7694 143.822ZM44.4037 151.004V140.784H43.1857V151.004H44.4037ZM52.0579 145.208C51.4559 144.284 50.5739 143.822 49.4119 143.822C48.4319 143.822 47.5919 144.186 46.9059 144.9C46.2199 145.614 45.8699 146.482 45.8699 147.504C45.8699 148.526 46.2199 149.408 46.9059 150.122C47.5919 150.836 48.4319 151.186 49.4119 151.186C50.5739 151.186 51.4559 150.724 52.0579 149.8V151.004H53.2759V144.004H52.0579V145.208ZM49.5659 150.01C48.8659 150.01 48.2779 149.772 47.8019 149.296C47.3259 148.806 47.0879 148.218 47.0879 147.504C47.0879 146.79 47.3259 146.202 47.8019 145.726C48.2779 145.236 48.8659 144.998 49.5659 144.998C50.2799 144.998 50.8679 145.236 51.3439 145.726C51.8199 146.202 52.0579 146.79 52.0579 147.504C52.0579 148.218 51.8199 148.806 51.3439 149.296C50.8679 149.772 50.2799 150.01 49.5659 150.01ZM56.3393 144.004H55.1213V151.004H56.3393V147.294C56.3393 146.524 56.5493 145.978 56.9833 145.628C57.4173 145.278 57.9213 145.124 58.5233 145.152V143.878C57.4733 143.878 56.7453 144.312 56.3393 145.18V144.004ZM60.933 151.004V144.004H59.715V151.004H60.933ZM70.3512 143.822C69.3712 143.822 68.6432 144.214 68.1532 145.012C67.7192 144.214 67.0332 143.822 66.0952 143.822C65.1852 143.822 64.4852 144.2 64.0092 144.942V144.004H62.7912V151.004H64.0092V147.112C64.0092 145.698 64.7792 144.984 65.8012 144.984C66.7112 144.984 67.2852 145.614 67.2852 146.692V151.004H68.5032V147.112C68.5032 145.67 69.1752 144.984 70.2252 144.984C71.1632 144.984 71.7652 145.614 71.7652 146.692V151.004H72.9832V146.65C72.9832 144.914 71.9192 143.822 70.3512 143.822Z" fill="#081A3E"/>
<path d="M130.237 200.035H129.065V209.41H130.237C131.469 209.392 132.643 208.89 133.508 208.013C134.372 207.136 134.857 205.954 134.857 204.723C134.857 203.491 134.372 202.309 133.508 201.432C132.643 200.555 131.469 200.053 130.237 200.035Z" fill="#D0E4E7"/>
<path d="M130.237 209.409C131.48 209.407 132.671 208.913 133.55 208.034C134.429 207.156 134.923 205.964 134.924 204.722H129.065V209.409H130.237Z" fill="#A8D3D8"/>
<path d="M107.814 225.816H103.127C102.973 225.816 102.821 225.786 102.678 225.727C102.536 225.668 102.407 225.582 102.298 225.473C102.189 225.364 102.103 225.235 102.044 225.093C101.985 224.951 101.955 224.798 101.955 224.644V210.582C101.955 210.428 101.985 210.276 102.044 210.133C102.103 209.991 102.189 209.862 102.298 209.753C102.407 209.644 102.536 209.558 102.678 209.499C102.821 209.44 102.973 209.41 103.127 209.41H107.815C107.969 209.41 108.121 209.44 108.264 209.499C108.406 209.558 108.535 209.644 108.644 209.753C108.753 209.862 108.839 209.991 108.898 210.133C108.957 210.276 108.987 210.428 108.987 210.582V224.645C108.987 224.799 108.957 224.952 108.898 225.094C108.839 225.236 108.752 225.365 108.643 225.474C108.534 225.583 108.405 225.669 108.263 225.728C108.121 225.786 107.968 225.816 107.814 225.816V225.816Z" fill="#351B33"/>
<path d="M111.33 197.691H102.283C101.338 197.668 100.397 197.832 99.5156 198.173C98.6337 198.514 97.8279 199.026 97.1443 199.679C96.4607 200.332 95.9126 201.114 95.5316 201.979C95.1507 202.845 94.9442 203.777 94.9241 204.722C94.9232 205.646 95.1044 206.56 95.4574 207.414C95.8104 208.267 96.3283 209.043 96.9814 209.696C97.6344 210.349 98.4099 210.867 99.2633 211.22C100.117 211.573 101.031 211.754 101.955 211.753H111.33L112.502 209.409V199.528L111.33 197.691Z" fill="#E64D2E"/>
<path d="M101.955 211.753H111.33L112.502 209.409V204.722H94.9241C94.9232 205.645 95.1044 206.56 95.4574 207.413C95.8104 208.267 96.3283 209.042 96.9814 209.695C97.6344 210.348 98.4099 210.866 99.2633 211.219C100.117 211.572 101.031 211.754 101.955 211.753V211.753Z" fill="#CC2929"/>
<path d="M128.244 191.007C123.909 195.303 118.047 197.705 111.944 197.687H111.33V211.754H111.939C118.042 211.735 123.904 214.137 128.239 218.434C128.344 218.546 128.471 218.636 128.612 218.697C128.753 218.757 128.905 218.788 129.059 218.786V190.707C128.91 190.696 128.76 190.718 128.619 190.769C128.479 190.821 128.351 190.902 128.244 191.007V191.007Z" fill="#EDF5FF"/>
<path d="M111.939 211.753C118.042 211.734 123.904 214.136 128.239 218.433C128.344 218.545 128.471 218.635 128.612 218.696C128.753 218.756 128.905 218.787 129.059 218.785V204.722H111.33V211.753H111.939Z" fill="#D0E4E7"/>
<path d="M129.065 188.316C128.911 188.316 128.759 188.346 128.616 188.405C128.474 188.464 128.345 188.55 128.236 188.659C128.127 188.768 128.041 188.897 127.982 189.039C127.923 189.182 127.893 189.334 127.893 189.488V219.957C127.893 220.268 128.017 220.566 128.236 220.786C128.456 221.005 128.754 221.129 129.065 221.129C129.376 221.129 129.674 221.005 129.894 220.786C130.114 220.566 130.237 220.268 130.237 219.957V189.488C130.237 189.334 130.207 189.182 130.148 189.039C130.089 188.897 130.003 188.768 129.894 188.659C129.785 188.55 129.656 188.464 129.514 188.405C129.371 188.346 129.219 188.316 129.065 188.316V188.316Z" fill="#E64D2E"/>
<path d="M129.065 221.128C129.219 221.128 129.371 221.098 129.514 221.039C129.656 220.98 129.785 220.894 129.894 220.785C130.003 220.676 130.089 220.547 130.148 220.404C130.207 220.262 130.237 220.11 130.237 219.956V204.722H127.893V219.956C127.893 220.11 127.923 220.262 127.982 220.404C128.041 220.547 128.127 220.676 128.236 220.785C128.345 220.894 128.474 220.98 128.616 221.039C128.759 221.098 128.911 221.128 129.065 221.128V221.128Z" fill="#CC2929"/>
</g>
<defs>
<clipPath id="clip0_7306_40597">
<rect width="315" height="369.002" fill="white"/>
</clipPath>
</defs>
</svg>
