<svg id="Ebene_1" data-name="Ebene 1" xmlns="http://www.w3.org/2000/svg" viewBox="0 0 343.1 357.48"><defs><style>.cls-1{fill:#fff;}.cls-2{fill:#e6e6e6;}</style></defs><path d="M137.68,221.57V206.24a1.82,1.82,0,0,0-1.83-1.83H113.77a1.84,1.84,0,0,0-1.83,1.83v22.09a1.84,1.84,0,0,0,1.83,1.83h22.08a1.83,1.83,0,0,0,1.83-1.83Z"/><path id="WhiteBackground" class="cls-1" d="M328.4,1H76.7A13.72,13.72,0,0,0,63,14.7V266.4a13.72,13.72,0,0,0,13.7,13.7H328.3a13.87,13.87,0,0,0,13.8-13.7V14.7A13.72,13.72,0,0,0,328.4,1Z"/><path id="Outline" class="cls-2" d="M328.3,281.1H76.7A14.72,14.72,0,0,1,62,266.4V14.7A14.72,14.72,0,0,1,76.7,0H328.4a14.72,14.72,0,0,1,14.7,14.7V266.4A14.87,14.87,0,0,1,328.3,281.1ZM76.7,2A12.72,12.72,0,0,0,64,14.7V266.4a12.72,12.72,0,0,0,12.7,12.7H328.3a12.87,12.87,0,0,0,12.8-12.7V14.7A12.72,12.72,0,0,0,328.4,2Z"/><path id="CallToActionArrow" class="cls-1" d="M43.2,177.1h0c.2-3.4.5-6.9.8-10.3s.8-6.8,1.4-10.1,1.3-6.6,2.1-9.8a49.22,49.22,0,0,1,3.2-8.7h0c.1-.3.2-.7.3-1.1a5.84,5.84,0,0,0-4.6-6.9l-.3-.1a3.08,3.08,0,0,0-.9-.1c-.3,0-.5-.1-.8-.1-.5,0-1-.1-1.5-.1-1,0-2,.1-3,.1-2,.2-3.9.4-5.8.7A101.07,101.07,0,0,0,22.9,133a95.27,95.27,0,0,0-10.6,3.8c-1.7.7-3.4,1.6-5.1,2.3s-3.3,1.8-4.9,2.6a1.16,1.16,0,0,0-.6,1.4,1.18,1.18,0,0,0,1.5.9h.1c1.8-.4,3.5-.9,5.2-1.3a52.67,52.67,0,0,1,5.2-1,75,75,0,0,1,10.5-1.2c2.2-.1,4.5-.1,6.7-.1A103.64,103.64,0,0,0,19,157.6,140.54,140.54,0,0,0,8.2,182.9,177.86,177.86,0,0,0,0,236.5a171.45,171.45,0,0,0,8.3,53.2,149.27,149.27,0,0,0,25.6,47,1.55,1.55,0,0,0,2.1.3,1.47,1.47,0,0,0,.3-2.1h0a143.68,143.68,0,0,1-22.9-46.6,169.29,169.29,0,0,1,4.1-101.9,135,135,0,0,1,11-23,86.09,86.09,0,0,1,9.4-12.8c0,2,0,3.9.1,5.9.2,3.6.4,7.1.8,10.6s.8,7,1.4,10.5a1.7,1.7,0,0,0,1.5,1.4A2.29,2.29,0,0,0,43.2,177.1Z"/><path class="cls-1" d="M108.77,304.81l.16.3q.12.24.24.54c.09.19.16.4.24.6a1.56,1.56,0,0,1,.11.43,9.52,9.52,0,0,1-.22,2.68,23.51,23.51,0,0,1-1,3.36,36.29,36.29,0,0,1-1.56,3.67,39.6,39.6,0,0,1-2,3.58,29.61,29.61,0,0,1-2.23,3.14,14,14,0,0,1-2.32,2.31l-1.18-.91-1.45-1.13-1.55-1.22c-.51-.41-1-.82-1.44-1.22a23.36,23.36,0,0,0,2-2.14c.72-.88,1.44-1.85,2.16-2.92s1.43-2.16,2.11-3.29a31,31,0,0,0,1.76-3.24,20.09,20.09,0,0,0,1.11-2.79,3.57,3.57,0,0,0,.19-1.94.87.87,0,0,0-.35-.48,1.49,1.49,0,0,0-.77-.08,16.5,16.5,0,0,0-4.51,1.18A30.84,30.84,0,0,0,93.08,308a42.19,42.19,0,0,0-5.37,4.11,40.34,40.34,0,0,0-5,5.3,36.66,36.66,0,0,0-4,6.29,27.66,27.66,0,0,0-2.4,7.1c1.51-.15,2.94-.34,4.3-.55l3.86-.65q1.83-.33,3.51-.6c1.11-.19,2.2-.33,3.26-.42a2.78,2.78,0,0,1,1.89.75,12.32,12.32,0,0,1,2,2,16.38,16.38,0,0,1,1.62,2.47,6.17,6.17,0,0,1,.74,2.1,10.24,10.24,0,0,1-.78,4.72A19.79,19.79,0,0,1,94,345.35a29.42,29.42,0,0,1-4.26,4.42,36.44,36.44,0,0,1-5.25,3.73,35,35,0,0,1-5.72,2.69,22.82,22.82,0,0,1-5.67,1.29,12.37,12.37,0,0,1-1-.81c-.42-.36-.88-.77-1.36-1.22s-1-.92-1.5-1.42-1-1-1.43-1.44-.83-.89-1.17-1.27a6.92,6.92,0,0,1-.7-.89,22.61,22.61,0,0,0,4.31-.24A34.62,34.62,0,0,0,75.47,349,36.61,36.61,0,0,0,81,346.85a26.9,26.9,0,0,0,5.06-3.2,20.25,20.25,0,0,0,4-4.32,14.39,14.39,0,0,0,2.26-5.54q-1.87.19-3.39.48c-1,.18-2,.38-2.92.58s-1.9.39-2.89.56-2.09.32-3.3.42l-1.26.1c-.46,0-.91,0-1.37,0a7.94,7.94,0,0,1-1.32-.16,2.78,2.78,0,0,1-1.06-.47c-.62-.44-1.23-.92-1.82-1.42a15.8,15.8,0,0,1-1.6-1.56,8.4,8.4,0,0,1-1.19-1.64,4.21,4.21,0,0,1-.54-1.65,15,15,0,0,1,.75-5.61,30.66,30.66,0,0,1,2.89-6.4,43.38,43.38,0,0,1,4.64-6.44,42.71,42.71,0,0,1,6-5.74A34.89,34.89,0,0,1,91,300.59a23.56,23.56,0,0,1,7.76-2,7.28,7.28,0,0,1,2.58.19,8.66,8.66,0,0,1,2.18.92,10.92,10.92,0,0,1,1.82,1.36c.55.51,1,1,1.47,1.49s.81.94,1.13,1.36S108.56,304.59,108.77,304.81Zm23.14,12.48a17.33,17.33,0,0,0,1.92-1.75,25.39,25.39,0,0,0,2-2.36,30.46,30.46,0,0,0,1.87-2.81,25.65,25.65,0,0,0,1.51-3,16.78,16.78,0,0,0,1-3,9.78,9.78,0,0,0,.21-2.81,6.46,6.46,0,0,0-.31-1.61,2.37,2.37,0,0,0-.52-.91,1.51,1.51,0,0,0-.67-.42,2.16,2.16,0,0,0-.76-.06,6.62,6.62,0,0,0-3.42,1.62,26.24,26.24,0,0,0-3.85,3.93,56.34,56.34,0,0,0-4,5.66q-2,3.21-3.86,6.85c-1.23,2.43-2.36,4.92-3.41,7.47a78.35,78.35,0,0,0-2.68,7.52,56.53,56.53,0,0,0-1.64,7,24.29,24.29,0,0,0-.31,5.93,7.79,7.79,0,0,0,.28,1.59,3,3,0,0,0,.51,1,1.39,1.39,0,0,0,.74.44,3.18,3.18,0,0,0,1,0,4.32,4.32,0,0,0,2.15-1,20.31,20.31,0,0,0,2.54-2.29c.89-.93,1.78-1.95,2.67-3.08s1.73-2.22,2.51-3.3,1.47-2.08,2.09-3,1.08-1.64,1.41-2.17a7,7,0,0,0,.85.61c.57.39,1.23.85,2,1.4l2.3,1.64c.77.55,1.35,1,1.75,1.36l-1.78,2.41c-.72,1-1.54,2-2.45,3.11s-1.91,2.2-3,3.31a33.49,33.49,0,0,1-3.3,3.05,21,21,0,0,1-3.49,2.3,9.48,9.48,0,0,1-3.53,1.07,5.76,5.76,0,0,1-2.76-.52,15.65,15.65,0,0,1-3-1.73,21.87,21.87,0,0,1-2.83-2.47,20.4,20.4,0,0,1-2.26-2.75,9.37,9.37,0,0,1-1.43-3.24,22.39,22.39,0,0,1-.37-2.42,25.67,25.67,0,0,1,.21-5.7,48.6,48.6,0,0,1,1.47-6.74,67.53,67.53,0,0,1,2.6-7.24,70.84,70.84,0,0,1,3.57-7.2,58.18,58.18,0,0,1,4.41-6.66,40.23,40.23,0,0,1,5.17-5.58,27.35,27.35,0,0,1,5.76-3.95A17.17,17.17,0,0,1,137,295a4.65,4.65,0,0,1,1.95.3,10.48,10.48,0,0,1,2.08,1.06,14.9,14.9,0,0,1,2,1.6,17.5,17.5,0,0,1,1.77,1.92,12.4,12.4,0,0,1,1.27,2,5.44,5.44,0,0,1,.57,1.9,13.67,13.67,0,0,1-.4,4.36,28.15,28.15,0,0,1-1.69,4.92,33.7,33.7,0,0,1-2.76,4.93,31.64,31.64,0,0,1-3.55,4.39Zm51.61-17.09a10.66,10.66,0,0,1-.33,3.44,26.36,26.36,0,0,1-1.32,4,40.44,40.44,0,0,1-2,4.15c-.78,1.4-1.59,2.72-2.41,4l1.65,1.4a10.51,10.51,0,0,0,1.06.84c-.26.55-.61,1.34-1.05,2.4s-.91,2.24-1.39,3.56-1,2.73-1.46,4.21-.92,2.93-1.3,4.35-.67,2.74-.88,4a13.28,13.28,0,0,0-.2,3.11,10.26,10.26,0,0,0,.7,3,7.54,7.54,0,0,0,1.51,2.34,7.19,7.19,0,0,0,2.3,1.56,8.07,8.07,0,0,0,3,.63l-1.4,2.25a6,6,0,0,1-1.22-.08,10.21,10.21,0,0,1-1.87-.45,14.41,14.41,0,0,1-2.21-1,10.32,10.32,0,0,1-2.24-1.72,12.55,12.55,0,0,1-2-2.6,13.2,13.2,0,0,1-1.36-3.69c-.95,1.17-2,2.34-3.08,3.51a34.07,34.07,0,0,1-3.46,3.17,20.5,20.5,0,0,1-3.7,2.38,10,10,0,0,1-3.74,1.11,4.54,4.54,0,0,1-2.23-.39,11.2,11.2,0,0,1-2.34-1.34,17.07,17.07,0,0,1-2.27-2,22.69,22.69,0,0,1-2-2.46,18.91,18.91,0,0,1-1.5-2.56,9.37,9.37,0,0,1-.81-2.41c0-.28-.05-.63-.08-1s0-.81-.06-1.25,0-.86,0-1.27,0-.78,0-1.11a42.19,42.19,0,0,1,1-6.23,63.34,63.34,0,0,1,2-6.74c.84-2.3,1.81-4.59,2.91-6.89a67.4,67.4,0,0,1,3.67-6.62,55.21,55.21,0,0,1,4.31-5.95,38.22,38.22,0,0,1,4.82-4.86,25.34,25.34,0,0,1,5.19-3.41,15.35,15.35,0,0,1,5.43-1.56,5,5,0,0,1,2.05.31,12.66,12.66,0,0,1,2.23,1.08,17,17,0,0,1,2.17,1.59,19.27,19.27,0,0,1,1.86,1.87,11.7,11.7,0,0,1,1.34,1.87A4.07,4.07,0,0,1,183.52,300.2Zm-30.16,44.25a4,4,0,0,0,1.74-.87,22.08,22.08,0,0,0,2.58-2.28,44.15,44.15,0,0,0,3.13-3.58,54.23,54.23,0,0,0,3.34-4.71c1.11-1.74,2.19-3.65,3.24-5.71a61.62,61.62,0,0,0,2.87-6.57l-4.16-3.49a21.82,21.82,0,0,1,1.59-1.71c.72-.71,1.51-1.56,2.39-2.52s1.76-2.05,2.67-3.23A27.38,27.38,0,0,0,175.2,306a21.52,21.52,0,0,0,1.71-4.17,12.24,12.24,0,0,0,.43-4.43,3.15,3.15,0,0,0-.68-1.88c-.37-.42-.69-.61-.95-.59a8.11,8.11,0,0,0-4,1.74,26,26,0,0,0-4.29,4.13,52.56,52.56,0,0,0-4.27,5.91c-1.41,2.24-2.73,4.61-4,7.11s-2.4,5.07-3.45,7.69-1.92,5.16-2.64,7.64a58.13,58.13,0,0,0-1.61,7,24.29,24.29,0,0,0-.31,5.78C151.28,343.74,152,344.57,153.36,344.45ZM225,298.37a32,32,0,0,1,.06,4,52.67,52.67,0,0,1-.53,5.34c-.29,2-.72,4.28-1.3,6.79s-1.32,5.31-2.22,8.39a83.46,83.46,0,0,1-3.15,8.95,73.47,73.47,0,0,1-3.18,6.66,35.49,35.49,0,0,1-2.68,4.29,8.84,8.84,0,0,1-1.66,1.84,4.4,4.4,0,0,1-1.82.55,6.09,6.09,0,0,1-1.74-.11,3.81,3.81,0,0,1-1.56-.68,9.28,9.28,0,0,1-1.42-1.54,21.29,21.29,0,0,1-2.23-3.61,47.59,47.59,0,0,1-2.48-5.94,56,56,0,0,1-2.16-8.6q-1.23,1.94-2.7,4.16c-1,1.48-2,2.95-3,4.43s-2.05,2.91-3.07,4.32-2,2.69-2.88,3.86-1.7,2.18-2.41,3a22.49,22.49,0,0,1-1.67,1.86c-.26-.19-.55-.43-.89-.7l-1.06-.87c-.36-.31-.72-.62-1.06-.94s-.65-.62-.91-.9a55.65,55.65,0,0,0,8.57-12.54,114.72,114.72,0,0,0,7.67-19c.4.27.77.55,1.12.82s.69.55,1,.82q-.27-4.54-.4-8.09c-.09-2.37-.13-4.46-.14-6.28s0-3.38,0-4.69.07-2.42.12-3.34.1-1.67.14-2.25.09-1.05.13-1.4l1.05.84,1.58,1.28,1.85,1.49,1.82,1.49c.58.47,1.08.9,1.52,1.27s.74.66.91.84c-.19,1.1-.4,2.39-.63,3.86s-.42,3.18-.56,5.14-.22,4.2-.22,6.7.14,5.34.42,8.52q.42,4.44,1.08,8.56c.19,1.18.4,2.4.63,3.65s.49,2.49.78,3.69.61,2.36,1,3.46a26.67,26.67,0,0,0,1.14,2.94,81,81,0,0,0,8-26.08,81.2,81.2,0,0,0,.66-12q-.12-5.85-.63-11.65l-.2-2.24a29.22,29.22,0,0,1,3.46,2.6c1.11,1,2.1,1.9,3,2.78,1,1,1.94,2.06,2.82,3.12Zm62.48-11.6Q286,292.32,284.74,298t-2,12.11q-.75,6.42-.89,13.79a159.89,159.89,0,0,0,.61,16.27c-.25.19-.61.46-1.09.79s-1,.7-1.6,1.09-1.2.79-1.84,1.19l-1.84,1.17-1.6,1-1.08.68c-.12-1.62-.17-3.42-.14-5.38s.11-4,.25-6.21.34-4.44.58-6.8.52-4.72.83-7.12a45.65,45.65,0,0,1-4,5.62,42.18,42.18,0,0,1-3.49,3.69,24,24,0,0,1-3.36,2.67,2,2,0,0,1-1.64.21,7.86,7.86,0,0,1-2-.8,13.06,13.06,0,0,1-1.87-1.27,7,7,0,0,1-1.23-1.2,10.52,10.52,0,0,1-1-2.89,64.46,64.46,0,0,1-1.14-6.92q-1.24,1.93-2.68,4.09t-2.94,4.29c-1,1.42-2,2.81-2.95,4.14s-1.89,2.56-2.74,3.67-1.61,2.07-2.29,2.88a20.83,20.83,0,0,1-1.6,1.76c-.23-.22-.52-.47-.86-.74l-1.06-.88-1.07-.91a10.08,10.08,0,0,1-.93-.89,55.5,55.5,0,0,0,8.57-12.55,115.34,115.34,0,0,0,7.67-19l1,.73c.31.24.6.47.88.71-.13-3.43-.19-7.24-.2-11.43s.1-8.85.33-14a4.17,4.17,0,0,1,.81.55c.43.33.95.75,1.53,1.25s1.22,1.05,1.88,1.64l1.89,1.68c.6.53,1.13,1,1.58,1.43l.93.86c0,.18-.09.65-.17,1.42s-.18,1.76-.28,3-.21,2.59-.31,4.15-.18,3.2-.22,4.93-.06,3.52,0,5.36.09,3.63.23,5.39c0,.73.1,1.58.17,2.55s.15,1.95.24,3,.2,2,.31,3,.25,1.86.38,2.64a15,15,0,0,0,.45,1.92c.16.5.34.76.54.79s.79-.32,1.64-1.09a28.78,28.78,0,0,0,3-3.34c1.16-1.45,2.41-3.19,3.74-5.24a58.53,58.53,0,0,0,3.8-6.81q.64-3.88,1.32-7.5t1.34-6.72q.66-3.09,1.26-5.54c.4-1.64.77-3,1.12-4l1.48,0c.55,0,1.11,0,1.68,0l1.59,0C286.75,286.73,287.15,286.75,287.45,286.77ZM316,298.57a16.22,16.22,0,0,0,2.18-2.7,22.23,22.23,0,0,0,1.79-3.33,19.35,19.35,0,0,0,1.17-3.49,10.43,10.43,0,0,0,.27-3.26,3.5,3.5,0,0,0-.75-2,2.3,2.3,0,0,0-2.13-.64,7.72,7.72,0,0,0-2.73.82,16.64,16.64,0,0,0-2.94,1.88,21.48,21.48,0,0,0-2.82,2.69,20.1,20.1,0,0,0-2.34,3.29,16.88,16.88,0,0,0-1.53,3.63,10.35,10.35,0,0,0-.38,3.73,9,9,0,0,0,.63,2.7,6.29,6.29,0,0,0,1.32,1.94,9.19,9.19,0,0,0,1.94,1.48q1.11.66,2.55,1.35a36.66,36.66,0,0,0-7.13,4.88,33.94,33.94,0,0,0-5.41,5.95,25.47,25.47,0,0,0-3.32,6.35,14.68,14.68,0,0,0-.85,6.06,3.16,3.16,0,0,0,.64,1.73,1.69,1.69,0,0,0,1.59.63,7.79,7.79,0,0,0,3-1,24.23,24.23,0,0,0,3.33-2.26,42,42,0,0,0,3.41-3q1.69-1.65,3.17-3.29c1-1.1,1.86-2.14,2.62-3.12s1.37-1.81,1.81-2.48q2.08,1.38,3.61,2.48c1,.72,2,1.39,2.85,2a21.77,21.77,0,0,1-1.65,2.24q-1.15,1.44-2.79,3.12t-3.59,3.43a43.92,43.92,0,0,1-4,3.21,28.35,28.35,0,0,1-4.08,2.44,10.67,10.67,0,0,1-3.78,1.15,9.23,9.23,0,0,1-3.08-.25,13.71,13.71,0,0,1-3-1.13,15.44,15.44,0,0,1-2.68-1.75,17.47,17.47,0,0,1-2.22-2.15,13.13,13.13,0,0,1-1.58-2.27,6.07,6.07,0,0,1-.75-2.19l-.07-.78a17.3,17.3,0,0,1,.64-6.52,21,21,0,0,1,2.8-5.85,27.23,27.23,0,0,1,4.49-5,36.56,36.56,0,0,1,5.7-4.11c-.42-.35-.84-.74-1.26-1.16a8.3,8.3,0,0,1-1.14-1.45,8.71,8.71,0,0,1-.86-1.87,10.14,10.14,0,0,1-.47-2.38,12.8,12.8,0,0,1,.42-4.51,17.8,17.8,0,0,1,1.81-4.27,19.74,19.74,0,0,1,2.89-3.78,23.89,23.89,0,0,1,3.63-3.08,21,21,0,0,1,4-2.17,14.66,14.66,0,0,1,4.09-1,11.26,11.26,0,0,1,4.73.28,13,13,0,0,1,2.53,1.47,20.86,20.86,0,0,1,2.59,2.21,16.32,16.32,0,0,1,2.08,2.5,5,5,0,0,1,1,2.35,13.25,13.25,0,0,1-.28,3.91,22,22,0,0,1-1.28,4,24.17,24.17,0,0,1-2,3.77,18.91,18.91,0,0,1-2.38,3Z"/><rect class="cls-1" x="68" y="6.1" width="268" height="268"/><rect x="180.56" y="32.9" width="8.58" height="8.58"/><rect x="223.44" y="32.9" width="8.58" height="8.58"/><rect x="163.41" y="41.48" width="8.58" height="8.58"/><rect x="171.98" y="41.48" width="8.58" height="8.58"/><rect x="180.56" y="41.48" width="8.58" height="8.58"/><rect x="206.29" y="41.48" width="8.58" height="8.58"/><rect x="214.86" y="41.48" width="8.58" height="8.58"/><rect x="232.02" y="41.48" width="8.58" height="8.58"/><rect x="163.41" y="50.05" width="8.58" height="8.58"/><rect x="223.44" y="50.05" width="8.58" height="8.58"/><rect x="232.02" y="50.05" width="8.58" height="8.58"/><rect x="171.98" y="58.63" width="8.58" height="8.58"/><rect x="197.71" y="58.63" width="8.58" height="8.58"/><rect x="223.44" y="58.63" width="8.58" height="8.58"/><rect x="232.02" y="58.63" width="8.58" height="8.58"/><rect x="163.41" y="67.2" width="8.58" height="8.58"/><rect x="171.98" y="67.2" width="8.58" height="8.58"/><rect x="180.56" y="67.2" width="8.58" height="8.58"/><rect x="197.71" y="67.2" width="8.58" height="8.58"/><rect x="206.29" y="67.2" width="8.58" height="8.58"/><rect x="214.86" y="67.2" width="8.58" height="8.58"/><rect x="232.02" y="67.2" width="8.58" height="8.58"/><rect x="163.41" y="75.78" width="8.58" height="8.58"/><rect x="180.56" y="75.78" width="8.58" height="8.58"/><rect x="197.71" y="75.78" width="8.58" height="8.58"/><rect x="223.44" y="75.78" width="8.58" height="8.58"/><rect x="163.41" y="84.36" width="8.58" height="8.58"/><rect x="180.56" y="84.36" width="8.58" height="8.58"/><rect x="197.71" y="84.36" width="8.58" height="8.58"/><rect x="214.86" y="84.36" width="8.58" height="8.58"/><rect x="232.02" y="84.36" width="8.58" height="8.58"/><rect x="163.41" y="92.93" width="8.58" height="8.58"/><rect x="180.56" y="92.93" width="8.58" height="8.58"/><rect x="189.14" y="92.93" width="8.58" height="8.58"/><rect x="94.8" y="101.51" width="8.58" height="8.58"/><rect x="103.38" y="101.51" width="8.58" height="8.58"/><rect x="120.53" y="101.51" width="8.58" height="8.58"/><rect x="146.26" y="101.51" width="8.58" height="8.58"/><rect x="154.83" y="101.51" width="8.58" height="8.58"/><rect x="189.14" y="101.51" width="8.58" height="8.58"/><rect x="197.71" y="101.51" width="8.58" height="8.58"/><rect x="206.29" y="101.51" width="8.58" height="8.58"/><rect x="232.02" y="101.51" width="8.58" height="8.58"/><rect x="249.17" y="101.51" width="8.58" height="8.58"/><rect x="257.74" y="101.51" width="8.58" height="8.58"/><rect x="266.32" y="101.51" width="8.58" height="8.58"/><rect x="283.47" y="101.51" width="8.58" height="8.58"/><rect x="292.05" y="101.51" width="8.58" height="8.58"/><rect x="94.8" y="110.08" width="8.58" height="8.58"/><rect x="103.38" y="110.08" width="8.58" height="8.58"/><rect x="111.95" y="110.08" width="8.58" height="8.58"/><rect x="129.1" y="110.08" width="8.58" height="8.58"/><rect x="154.83" y="110.08" width="8.58" height="8.58"/><rect x="171.98" y="110.08" width="8.58" height="8.58"/><rect x="189.14" y="110.08" width="8.58" height="8.58"/><rect x="197.71" y="110.08" width="8.58" height="8.58"/><rect x="206.29" y="110.08" width="8.58" height="8.58"/><rect x="214.86" y="110.08" width="8.58" height="8.58"/><rect x="223.44" y="110.08" width="8.58" height="8.58"/><rect x="232.02" y="110.08" width="8.58" height="8.58"/><rect x="249.17" y="110.08" width="8.58" height="8.58"/><rect x="266.32" y="110.08" width="8.58" height="8.58"/><rect x="292.05" y="110.08" width="8.58" height="8.58"/><rect x="111.95" y="118.66" width="8.58" height="8.58"/><rect x="120.53" y="118.66" width="8.58" height="8.58"/><rect x="146.26" y="118.66" width="8.58" height="8.58"/><rect x="189.14" y="118.66" width="8.58" height="8.58"/><rect x="197.71" y="118.66" width="8.58" height="8.58"/><rect x="240.59" y="118.66" width="8.58" height="8.58"/><rect x="249.17" y="118.66" width="8.58" height="8.58"/><rect x="257.74" y="118.66" width="8.58" height="8.58"/><rect x="274.9" y="118.66" width="8.58" height="8.58"/><rect x="283.47" y="118.66" width="8.58" height="8.58"/><rect x="94.8" y="127.24" width="8.58" height="8.58"/><rect x="111.95" y="127.24" width="8.58" height="8.58"/><rect x="137.68" y="127.24" width="8.58" height="8.58"/><rect x="154.83" y="127.24" width="8.58" height="8.58"/><rect x="171.98" y="127.24" width="8.58" height="8.58"/><rect x="180.56" y="127.24" width="8.58" height="8.58"/><rect x="189.14" y="127.24" width="8.58" height="8.58"/><rect x="197.71" y="127.24" width="8.58" height="8.58"/><rect x="214.86" y="127.24" width="8.58" height="8.58"/><rect x="232.02" y="127.24" width="8.58" height="8.58"/><rect x="240.59" y="127.24" width="8.58" height="8.58"/><rect x="249.17" y="127.24" width="8.58" height="8.58"/><rect x="257.74" y="127.24" width="8.58" height="8.58"/><rect x="266.32" y="127.24" width="8.58" height="8.58"/><rect x="300.62" y="127.24" width="8.58" height="8.58"/><rect x="94.8" y="135.81" width="8.58" height="8.58"/><rect x="120.53" y="135.81" width="8.58" height="8.58"/><rect x="129.1" y="135.81" width="8.58" height="8.58"/><rect x="137.68" y="135.81" width="8.58" height="8.58"/><rect x="146.26" y="135.81" width="8.58" height="8.58"/><rect x="154.83" y="135.81" width="8.58" height="8.58"/><rect x="163.41" y="135.81" width="8.58" height="8.58"/><rect x="180.56" y="135.81" width="8.58" height="8.58"/><rect x="189.14" y="135.81" width="8.58" height="8.58"/><rect x="232.02" y="135.81" width="8.58" height="8.58"/><rect x="249.17" y="135.81" width="8.58" height="8.58"/><rect x="257.74" y="135.81" width="8.58" height="8.58"/><rect x="283.47" y="135.81" width="8.58" height="8.58"/><rect x="292.05" y="135.81" width="8.58" height="8.58"/><rect x="300.62" y="135.81" width="8.58" height="8.58"/><rect x="103.38" y="144.39" width="8.58" height="8.58"/><rect x="111.95" y="144.39" width="8.58" height="8.58"/><rect x="129.1" y="144.39" width="8.58" height="8.58"/><rect x="189.14" y="144.39" width="8.58" height="8.58"/><rect x="214.86" y="144.39" width="8.58" height="8.58"/><rect x="257.74" y="144.39" width="8.58" height="8.58"/><rect x="266.32" y="144.39" width="8.58" height="8.58"/><rect x="283.47" y="144.39" width="8.58" height="8.58"/><rect x="292.05" y="144.39" width="8.58" height="8.58"/><rect x="300.62" y="144.39" width="8.58" height="8.58"/><rect x="94.8" y="152.96" width="8.58" height="8.58"/><rect x="120.53" y="152.96" width="8.58" height="8.58"/><rect x="129.1" y="152.96" width="8.58" height="8.58"/><rect x="146.26" y="152.96" width="8.58" height="8.58"/><rect x="154.83" y="152.96" width="8.58" height="8.58"/><rect x="163.41" y="152.96" width="8.58" height="8.58"/><rect x="180.56" y="152.96" width="8.58" height="8.58"/><rect x="189.14" y="152.96" width="8.58" height="8.58"/><rect x="214.86" y="152.96" width="8.58" height="8.58"/><rect x="223.44" y="152.96" width="8.58" height="8.58"/><rect x="232.02" y="152.96" width="8.58" height="8.58"/><rect x="249.17" y="152.96" width="8.58" height="8.58"/><rect x="266.32" y="152.96" width="8.58" height="8.58"/><rect x="274.9" y="152.96" width="8.58" height="8.58"/><rect x="300.62" y="152.96" width="8.58" height="8.58"/><rect x="103.38" y="161.54" width="8.58" height="8.58"/><rect x="111.95" y="161.54" width="8.58" height="8.58"/><rect x="137.68" y="161.54" width="8.58" height="8.58"/><rect x="154.83" y="161.54" width="8.58" height="8.58"/><rect x="189.14" y="161.54" width="8.58" height="8.58"/><rect x="206.29" y="161.54" width="8.58" height="8.58"/><rect x="249.17" y="161.54" width="8.58" height="8.58"/><rect x="257.74" y="161.54" width="8.58" height="8.58"/><rect x="94.8" y="170.12" width="8.58" height="8.58"/><rect x="103.38" y="170.12" width="8.58" height="8.58"/><rect x="146.26" y="170.12" width="8.58" height="8.58"/><rect x="154.83" y="170.12" width="8.58" height="8.58"/><rect x="163.41" y="170.12" width="8.58" height="8.58"/><rect x="197.71" y="170.12" width="8.58" height="8.58"/><rect x="206.29" y="170.12" width="8.58" height="8.58"/><rect x="232.02" y="170.12" width="8.58" height="8.58"/><rect x="240.59" y="170.12" width="8.58" height="8.58"/><rect x="249.17" y="170.12" width="8.58" height="8.58"/><rect x="257.74" y="170.12" width="8.58" height="8.58"/><rect x="266.32" y="170.12" width="8.58" height="8.58"/><rect x="300.62" y="170.12" width="8.58" height="8.58"/><rect x="163.41" y="178.69" width="8.58" height="8.58"/><rect x="171.98" y="178.69" width="8.58" height="8.58"/><rect x="180.56" y="178.69" width="8.58" height="8.58"/><rect x="197.71" y="178.69" width="8.58" height="8.58"/><rect x="206.29" y="178.69" width="8.58" height="8.58"/><rect x="232.02" y="178.69" width="8.58" height="8.58"/><rect x="266.32" y="178.69" width="8.58" height="8.58"/><rect x="163.41" y="187.27" width="8.58" height="8.58"/><rect x="171.98" y="187.27" width="8.58" height="8.58"/><rect x="180.56" y="187.27" width="8.58" height="8.58"/><rect x="189.14" y="187.27" width="8.58" height="8.58"/><rect x="197.71" y="187.27" width="8.58" height="8.58"/><rect x="206.29" y="187.27" width="8.58" height="8.58"/><rect x="223.44" y="187.27" width="8.58" height="8.58"/><rect x="232.02" y="187.27" width="8.58" height="8.58"/><rect x="249.17" y="187.27" width="8.58" height="8.58"/><rect x="266.32" y="187.27" width="8.58" height="8.58"/><rect x="274.9" y="187.27" width="8.58" height="8.58"/><rect x="292.05" y="187.27" width="8.58" height="8.58"/><rect x="300.62" y="187.27" width="8.58" height="8.58"/><rect x="180.56" y="195.84" width="8.58" height="8.58"/><rect x="197.71" y="195.84" width="8.58" height="8.58"/><rect x="206.29" y="195.84" width="8.58" height="8.58"/><rect x="232.02" y="195.84" width="8.58" height="8.58"/><rect x="266.32" y="195.84" width="8.58" height="8.58"/><rect x="274.9" y="195.84" width="8.58" height="8.58"/><rect x="283.47" y="195.84" width="8.58" height="8.58"/><rect x="292.05" y="195.84" width="8.58" height="8.58"/><rect x="300.62" y="195.84" width="8.58" height="8.58"/><rect x="180.56" y="204.42" width="8.58" height="8.58"/><rect x="197.71" y="204.42" width="8.58" height="8.58"/><rect x="223.44" y="204.42" width="8.58" height="8.58"/><rect x="232.02" y="204.42" width="8.58" height="8.58"/><rect x="240.59" y="204.42" width="8.58" height="8.58"/><rect x="249.17" y="204.42" width="8.58" height="8.58"/><rect x="257.74" y="204.42" width="8.58" height="8.58"/><rect x="266.32" y="204.42" width="8.58" height="8.58"/><rect x="283.47" y="204.42" width="8.58" height="8.58"/><rect x="292.05" y="204.42" width="8.58" height="8.58"/><rect x="163.41" y="213" width="8.58" height="8.58"/><rect x="189.14" y="213" width="8.58" height="8.58"/><rect x="206.29" y="213" width="8.58" height="8.58"/><rect x="214.86" y="213" width="8.58" height="8.58"/><rect x="223.44" y="213" width="8.58" height="8.58"/><rect x="232.02" y="213" width="8.58" height="8.58"/><rect x="240.59" y="213" width="8.58" height="8.58"/><rect x="257.74" y="213" width="8.58" height="8.58"/><rect x="266.32" y="213" width="8.58" height="8.58"/><rect x="171.98" y="221.57" width="8.58" height="8.58"/><rect x="180.56" y="221.57" width="8.58" height="8.58"/><rect x="197.71" y="221.57" width="8.58" height="8.58"/><rect x="206.29" y="221.57" width="8.58" height="8.58"/><rect x="223.44" y="221.57" width="8.58" height="8.58"/><rect x="257.74" y="221.57" width="8.58" height="8.58"/><rect x="274.9" y="221.57" width="8.58" height="8.58"/><rect x="283.47" y="221.57" width="8.58" height="8.58"/><rect x="300.62" y="221.57" width="8.58" height="8.58"/><rect x="163.41" y="230.15" width="8.58" height="8.58"/><rect x="180.56" y="230.15" width="8.58" height="8.58"/><rect x="214.86" y="230.15" width="8.58" height="8.58"/><rect x="232.02" y="230.15" width="8.58" height="8.58"/><rect x="240.59" y="230.15" width="8.58" height="8.58"/><rect x="274.9" y="230.15" width="8.58" height="8.58"/><rect x="292.05" y="230.15" width="8.58" height="8.58"/><rect x="300.62" y="230.15" width="8.58" height="8.58"/><rect x="163.41" y="238.72" width="8.58" height="8.58"/><rect x="171.98" y="238.72" width="8.58" height="8.58"/><rect x="180.56" y="238.72" width="8.58" height="8.58"/><rect x="197.71" y="238.72" width="8.58" height="8.58"/><rect x="206.29" y="238.72" width="8.58" height="8.58"/><rect x="214.86" y="238.72" width="8.58" height="8.58"/><rect x="232.02" y="238.72" width="8.58" height="8.58"/><rect x="266.32" y="238.72" width="8.58" height="8.58"/><rect x="274.9" y="238.72" width="8.58" height="8.58"/><rect x="292.05" y="238.72" width="8.58" height="8.58"/><rect x="300.62" y="238.72" width="8.58" height="8.58"/><path d="M96.62,32.89a1.83,1.83,0,0,0-1.83,1.83V91.11a1.83,1.83,0,0,0,1.83,1.83H153a1.82,1.82,0,0,0,1.83-1.83V34.72A1.82,1.82,0,0,0,153,32.89Zm49.64,17.16V83.31a1.06,1.06,0,0,1-1,1H104.42a1,1,0,0,1-1-1V42.52a1,1,0,0,1,1-1h40.79a1,1,0,0,1,1,1Z"/><path d="M137.68,67.2V51.87A1.83,1.83,0,0,0,135.85,50H113.77a1.84,1.84,0,0,0-1.83,1.83V74a1.83,1.83,0,0,0,1.83,1.83h22.08A1.83,1.83,0,0,0,137.68,74Z"/><path d="M251,32.89a1.83,1.83,0,0,0-1.83,1.83V91.11A1.82,1.82,0,0,0,251,92.94h56.39a1.82,1.82,0,0,0,1.83-1.83V34.72a1.83,1.83,0,0,0-1.83-1.83Zm49.63,17.16V83.31a1,1,0,0,1-1,1H258.79a1.06,1.06,0,0,1-1.05-1V42.52a1,1,0,0,1,1.05-1h40.79a1,1,0,0,1,1,1Z"/><path d="M292.05,67.2V51.87A1.84,1.84,0,0,0,290.22,50H268.14a1.83,1.83,0,0,0-1.83,1.83V74a1.83,1.83,0,0,0,1.83,1.83h22.08A1.84,1.84,0,0,0,292.05,74Z"/><path d="M96.62,187.26a1.83,1.83,0,0,0-1.83,1.83v56.39a1.83,1.83,0,0,0,1.83,1.83H153a1.83,1.83,0,0,0,1.83-1.83V189.09a1.82,1.82,0,0,0-1.83-1.83Zm49.64,17.16v33.26a1,1,0,0,1-1,1H104.42a1,1,0,0,1-1-1V196.89a1,1,0,0,1,1-1h40.79a1.06,1.06,0,0,1,1,1Z"/></svg>