<?xml version="1.0" standalone="no"?>
<!DOCTYPE svg PUBLIC "-//W3C//DTD SVG 20010904//EN"
 "http://www.w3.org/TR/2001/REC-SVG-20010904/DTD/svg10.dtd">
<svg version="1.0" xmlns="http://www.w3.org/2000/svg"
 width="513.000000pt" height="513.000000pt" viewBox="0 0 513.000000 513.000000"
 preserveAspectRatio="xMidYMid meet">
<metadata>
Created by potrace 1.14, written by Peter Selinger 2001-2017
</metadata>
<g transform="translate(0.000000,513.000000) scale(0.100000,-0.100000)"
fill="#000000" stroke="none">
<path d="M0 2565 l0 -2565 2565 0 2565 0 0 2565 0 2565 -2565 0 -2565 0 0
-2565z m2639 1079 c20 -8 48 -27 64 -42 28 -26 53 -94 42 -112 -3 -6 -30 -10
-58 -10 -47 0 -54 3 -69 30 -20 36 -53 50 -113 50 -57 0 -94 -17 -102 -48 -10
-41 24 -62 131 -83 179 -34 231 -75 223 -177 -7 -100 -92 -152 -246 -152 -91
0 -145 13 -188 46 -38 29 -49 46 -58 97 l-7 37 58 0 c55 0 60 -2 76 -29 20
-36 82 -56 147 -47 62 8 91 30 91 66 0 38 -15 45 -137 70 -168 35 -213 70
-213 168 0 78 54 131 153 152 54 12 160 3 206 -16z m-1364 -177 c34 -97 64
-180 67 -183 3 -2 23 44 44 103 21 59 50 142 65 183 l27 75 81 3 81 3 0 -266
0 -265 -60 0 -60 0 0 157 c0 90 -4 153 -9 148 -4 -6 -32 -76 -61 -157 l-53
-148 -52 0 -53 0 -42 118 c-24 64 -51 135 -61 157 l-17 40 -1 -157 -1 -158
-60 0 -60 0 0 265 0 266 81 -3 81 -3 63 -178z m878 -64 c53 -137 99 -256 103
-265 5 -16 -1 -18 -61 -18 l-67 0 -15 40 -16 40 -129 0 -130 0 -15 -40 -16
-40 -64 0 c-34 0 -63 3 -63 8 0 6 125 333 191 500 8 20 15 22 97 22 l89 0 96
-247z m777 142 l0 -105 130 0 130 0 0 105 0 105 65 0 65 0 0 -265 0 -265 -65
0 -65 0 0 105 0 105 -130 0 -130 0 0 -105 0 -105 -65 0 -65 0 0 265 0 265 65
0 65 0 0 -105z m568 -162 l2 -263 -65 0 -65 0 0 265 0 266 63 -3 62 -3 3 -262z
m322 86 l125 -181 3 181 2 182 63 -3 62 -3 3 -262 2 -263 -77 0 -78 0 -120
175 c-66 96 -123 174 -127 175 -5 0 -8 -79 -8 -175 l0 -175 -60 0 -60 0 0 265
0 265 73 0 72 0 125 -181z m-744 -509 c27 -16 107 -103 223 -242 100 -120 184
-218 187 -218 2 0 24 10 47 23 36 19 57 22 152 22 101 0 115 -2 170 -29 241
-119 295 -435 107 -623 -28 -28 -77 -64 -109 -80 -53 -26 -67 -28 -168 -28
-99 0 -116 3 -170 28 -83 39 -113 64 -208 175 -190 222 -197 237 -127 302 21
20 51 43 66 50 24 14 28 13 50 -13 13 -16 24 -32 24 -37 0 -4 -20 -21 -45 -37
-25 -15 -45 -30 -45 -34 0 -3 21 -30 48 -60 26 -29 74 -87 106 -127 96 -119
178 -163 301 -165 118 -1 216 58 273 168 22 42 26 63 26 130 0 67 -4 88 -26
130 -34 64 -90 118 -153 146 -62 28 -171 31 -229 6 l-38 -17 40 -47 c70 -85
88 -149 62 -218 -11 -29 -128 -175 -140 -175 -4 0 -39 37 -77 83 -64 75 -69
84 -61 112 12 40 2 101 -24 147 -78 138 -294 128 -359 -17 -36 -78 -21 -163
40 -228 37 -40 74 -58 133 -62 47 -3 54 -7 91 -52 22 -26 61 -69 86 -95 41
-44 43 -49 29 -65 -8 -10 -70 -84 -137 -164 -95 -115 -130 -150 -161 -163 -36
-14 -138 -16 -953 -16 -863 0 -914 1 -952 19 -44 20 -92 69 -100 104 -3 12 -4
306 -3 654 3 620 3 632 24 659 28 39 65 65 105 74 19 5 444 7 944 7 l910 -2
41 -25z"/>
<path d="M1918 3416 c-21 -57 -38 -106 -38 -110 0 -3 41 -6 90 -6 50 0 90 1
90 3 -1 24 -81 213 -91 215 -9 2 -26 -32 -51 -102z"/>
<path d="M1573 2583 c-12 -32 -82 -214 -156 -405 l-134 -348 97 0 98 0 25 68
25 67 203 0 204 0 24 -67 25 -68 98 0 98 0 -18 48 c-10 26 -81 208 -157 405
l-138 357 -137 0 -136 0 -21 -57z m244 -298 c34 -93 61 -171 59 -172 -2 -2
-69 -2 -148 -1 l-146 3 59 160 c33 88 61 166 64 173 3 7 15 12 27 10 19 -3 32
-28 85 -173z"/>
<path d="M2240 2235 l0 -405 330 0 330 0 0 80 0 80 -235 0 -235 0 0 325 0 325
-95 0 -95 0 0 -405z"/>
</g>
</svg>
