<?xml version="1.0" standalone="no"?>
<!DOCTYPE svg PUBLIC "-//W3C//DTD SVG 20010904//EN"
 "http://www.w3.org/TR/2001/REC-SVG-20010904/DTD/svg10.dtd">
<svg version="1.0" xmlns="http://www.w3.org/2000/svg"
 width="512.000000pt" height="512.000000pt" viewBox="0 0 512.000000 512.000000"
 preserveAspectRatio="xMidYMid meet">
<metadata>
Created by potrace 1.11, written by Peter Selinger 2001-2013
</metadata>
<g transform="translate(0.000000,512.000000) scale(0.100000,-0.100000)"
fill="#000000" stroke="none">
<path d="M1070 2874 c0 -1014 1 -1066 18 -1053 54 42 211 179 276 242 33 31
67 57 75 57 8 0 12 3 8 6 -7 7 81 57 101 57 6 0 12 4 12 9 0 4 6 8 14 8 8 0
16 6 18 13 4 10 2 185 -5 599 -1 65 -4 118 -7 118 -5 0 -10 118 -14 292 0 38
-4 68 -8 68 -4 0 -4 9 0 21 9 24 25 22 29 -4 3 -17 38 -136 50 -167 3 -8 7
-20 8 -26 2 -6 17 -56 33 -110 17 -54 58 -187 91 -294 33 -107 62 -204 64
-215 1 -11 5 -24 8 -30 3 -5 11 -30 18 -55 7 -25 17 -54 22 -65 5 -11 11 -29
13 -40 13 -67 0 -62 189 -59 308 5 309 5 304 17 -9 25 -78 246 -82 263 -2 11
-13 45 -24 77 -11 31 -18 57 -15 57 2 0 -2 14 -11 30 -9 17 -14 30 -11 30 2 0
-4 24 -15 52 -10 29 -19 58 -19 65 0 6 -4 22 -9 35 -5 13 -9 25 -9 28 0 3 -6
19 -12 35 -7 17 -13 37 -15 45 -2 8 -11 37 -20 64 -9 26 -18 56 -20 65 -2 9
-22 75 -45 146 -23 72 -45 144 -50 160 -20 74 -63 212 -71 227 -5 10 -9 26 -9
36 0 10 -5 23 -12 30 -7 7 -9 12 -5 12 3 0 -1 19 -9 43 -15 42 -20 60 -30 107
-3 13 -10 27 -15 31 -6 3 -10 9 -10 13 1 3 1 11 1 16 0 7 -140 10 -400 10
l-400 0 0 -1066z"/>
<path d="M3220 3920 c-6 -11 -8 -20 -4 -20 3 0 1 -7 -6 -15 -7 -8 -10 -15 -6
-15 3 0 -4 -24 -15 -52 -12 -29 -22 -57 -23 -63 -3 -12 -25 -85 -33 -105 -4
-8 -5 -18 -5 -22 1 -5 -2 -8 -6 -8 -4 0 -8 -8 -9 -17 0 -10 -37 -128 -83 -263
-45 -135 -83 -249 -84 -255 -2 -5 -6 -17 -9 -25 -3 -8 -11 -33 -17 -55 -6 -22
-15 -49 -20 -60 -13 -31 -214 -648 -217 -668 -3 -17 7 -17 145 -13 81 2 184 5
229 5 l81 1 12 38 c6 20 14 44 18 52 3 8 7 20 7 25 1 6 5 19 9 30 27 70 36 95
35 98 0 3 7 26 17 52 4 11 8 22 8 25 9 36 32 100 36 100 3 0 6 8 6 18 0 9 45
148 99 307 53 160 98 295 98 302 0 7 6 14 13 17 9 4 11 -15 8 -77 -3 -73 -10
-265 -19 -507 -1 -47 -4 -85 -5 -85 -1 0 -3 -12 -4 -27 -1 -16 1 -28 5 -28 3
0 5 -15 2 -32 -2 -18 -4 -40 -3 -48 0 -8 0 -37 -1 -65 0 -27 0 -59 0 -70 1
-11 1 -41 1 -67 l-1 -47 253 5 c139 2 262 6 274 9 l20 4 0 821 0 820 -398 0
c-387 0 -398 -1 -408 -20z"/>
<path d="M3580 2030 c-106 -6 -103 -3 -101 -85 2 -76 1 -118 -4 -125 -2 -3 0
-12 5 -20 4 -7 5 -23 0 -34 -4 -12 -4 -30 0 -41 4 -11 4 -32 0 -46 -4 -15 -4
-32 0 -39 4 -6 4 -28 -1 -48 -4 -20 -5 -41 -1 -46 8 -14 8 -49 -1 -63 -4 -6
-3 -14 2 -18 7 -3 7 -15 1 -30 -5 -13 -5 -27 -1 -29 5 -3 5 -25 1 -48 -5 -24
-6 -47 -3 -52 8 -13 9 -76 1 -76 -3 0 -3 -12 1 -27 l7 -28 270 0 269 0 1 433
0 433 -175 -3 c-97 -2 -219 -5 -271 -8z"/>
<path d="M2682 2010 c-78 -5 -83 -6 -97 -34 -8 -15 -12 -32 -9 -37 3 -5 0 -9
-6 -9 -6 0 -10 -6 -9 -12 1 -7 -3 -26 -9 -41 -7 -16 -12 -33 -12 -38 0 -16
-23 -5 -25 12 -2 7 -10 37 -20 64 -15 45 -22 69 -24 86 -1 3 -45 5 -98 3 -54
-2 -160 -5 -236 -7 -76 -3 -140 -6 -142 -9 -5 -4 6 -43 22 -88 3 -8 7 -19 8
-25 2 -5 26 -86 55 -180 29 -93 53 -174 55 -180 1 -5 5 -17 8 -25 3 -8 10 -31
16 -50 37 -132 75 -247 83 -255 5 -6 110 -10 272 -10 l263 0 47 140 c26 77 48
147 50 155 2 8 6 23 10 32 4 9 8 22 10 30 1 7 4 18 7 23 4 6 27 75 53 155 26
80 50 152 53 160 3 8 7 20 9 25 1 6 11 36 22 67 l19 57 -146 -2 c-80 -1 -183
-4 -229 -7z"/>
<path d="M1568 1909 c-9 -5 -38 -31 -65 -57 -26 -27 -75 -71 -108 -98 -33 -27
-69 -57 -80 -67 -11 -10 -71 -62 -132 -115 l-113 -97 0 -150 0 -150 260 0 260
0 1 25 c2 90 0 712 -3 715 -2 2 -11 -1 -20 -6z"/>
</g>
</svg>
