<?xml version="1.0" encoding="utf-8"?>
<!-- Generator: Adobe Illustrator 26.0.1, SVG Export Plug-In . SVG Version: 6.00 Build 0)  -->
<svg version="1.1" id="Layer_1" xmlns="http://www.w3.org/2000/svg" xmlns:xlink="http://www.w3.org/1999/xlink" x="0px" y="0px"
	 viewBox="0 0 186 37" style="enable-background:new 0 0 186 37;" xml:space="preserve">
<style type="text/css">
	.st0{fill:#BCBDBF;}
	.st1{fill:#FFFFFF;}
	.st2{font-family:'HelveticaNeue-Black';}
	.st3{font-size:13.3316px;}
</style>
<path class="st0" d="M180.29,35.86H5.77c-2.77,0-5.02-2.25-5.02-5.02V7.21c0-2.77,2.25-5.02,5.02-5.02h174.52
	c2.77,0,5.02,2.25,5.02,5.02v23.62C185.31,33.61,183.06,35.86,180.29,35.86z"/>
<g>
	<g>
		<path class="st1" d="M39.6,8.22l4.85,19.09h-4.39l-2.59-10.99h-0.05l-3.55,8.26h-3.03l-3.52-8.26h-0.05l-2.59,10.99h-4.42
			l4.88-19.09h3.19l4.01,9.87h0.05l4.01-9.87H39.6z"/>
		<path class="st1" d="M60.42,27.31l-1.36-3.87h-7.34l-1.36,3.87h-4.75l7.53-19.09h4.47l7.53,19.09H60.42z M53.03,19.67h4.72
			l-2.37-6.76L53.03,19.67z"/>
		<path class="st1" d="M95.05,8.22h4.23v19.09h-4.23v-8.02h-7.94v8.02h-4.23V8.22h4.23v7.09h7.94V8.22z"/>
		<path class="st1" d="M105.83,8.22v19.09h-4.23V8.22H105.83z"/>
		<path class="st1" d="M125.12,8.22v19.09h-3.6l-9.11-11.75h-0.03v11.75h-4.23V8.22h3.57l9.14,11.81h0.03V8.22H125.12z"/>
		<path class="st1" d="M81.22,21.75v0.03c0,1.28-0.31,2.39-0.91,3.31c-0.6,0.92-1.49,1.63-2.64,2.1c-1.13,0.47-2.51,0.71-4.08,0.71
			c-0.94,0-1.87-0.09-2.76-0.28c-0.9-0.19-1.75-0.47-2.54-0.84c-0.79-0.37-1.51-0.81-2.14-1.33l-0.16-0.13l1.94-3.45l0.23,0.19
			c0.72,0.59,1.56,1.05,2.51,1.38c0.94,0.32,1.93,0.49,2.93,0.49c1.14,0,2.02-0.19,2.64-0.57c0.58-0.36,0.87-0.85,0.87-1.5
			c0-0.46-0.12-0.81-0.37-1.06c-0.26-0.27-0.61-0.47-1.04-0.6c-0.46-0.14-1.05-0.26-1.78-0.38l-0.04-0.01
			c-0.03,0-0.08-0.01-0.12-0.02l-0.27-0.04c-1.31-0.21-2.41-0.47-3.27-0.78c-0.89-0.32-1.66-0.89-2.28-1.69
			c-0.63-0.81-0.94-1.96-0.94-3.42c0-1.31,0.3-2.43,0.88-3.35c0.59-0.93,1.44-1.64,2.55-2.13c1.09-0.48,2.43-0.72,3.96-0.72
			c0.71,0,1.44,0.08,2.18,0.25c0.74,0.16,1.46,0.4,2.17,0.71c0.7,0.31,1.38,0.68,2.01,1.11l0.18,0.12l-1.77,3.54l-0.24-0.16
			c-0.72-0.5-1.49-0.89-2.28-1.17c-0.78-0.27-1.54-0.41-2.26-0.41c-1.07,0-1.9,0.17-2.47,0.52c-0.54,0.32-0.8,0.76-0.8,1.34
			c0,0.51,0.13,0.89,0.41,1.16c0.29,0.29,0.65,0.51,1.08,0.65c0.46,0.15,1.12,0.3,1.96,0.47c0.04,0.01,0.06,0.01,0.09,0.02
			c0.04,0,0.09,0.01,0.13,0.02c0.04,0.01,0.1,0.02,0.16,0.03c0.04,0.01,0.08,0.02,0.13,0.03c1.24,0.24,2.29,0.54,3.13,0.89
			c0.86,0.36,1.59,0.94,2.16,1.74C80.92,19.29,81.22,20.38,81.22,21.75z"/>
	</g>
	<path class="st1" d="M147.82,27.32l-1.36-3.87h-7.34l-1.36,3.87h-4.75l7.53-19.09h4.47l7.53,19.09H147.82z M140.43,19.68h4.72
		l-2.37-6.76L140.43,19.68z"/>
	<path class="st1" d="M158.18,8.23v15.11h7.61v3.98h-11.84V8.23H158.18z"/>
	<text transform="matrix(1 0 0 1 127.1303 27.3201)" class="st1 st2 st3">.</text>
</g>
</svg>
