<svg width="24" height="24" viewBox="0 0 24 24" fill="none" xmlns="http://www.w3.org/2000/svg">
<rect width="24" height="24" rx="12" fill="#F79009"/>
<path d="M11.9998 7.83334C7.39984 7.83334 3.6665 9.70001 3.6665 12C3.6665 13.8667 6.1165 15.4417 9.49984 15.975V18.6667L12.8332 15.3333L9.49984 12V14.275C6.87484 13.8083 5.33317 12.6917 5.33317 12C5.33317 11.1167 7.8665 9.50001 11.9998 9.50001C16.1332 9.50001 18.6665 11.1167 18.6665 12C18.6665 12.6083 17.4498 13.575 15.3332 14.1083V15.8167C18.2748 15.175 20.3332 13.7083 20.3332 12C20.3332 9.70001 16.5998 7.83334 11.9998 7.83334Z" fill="white"/>
</svg>
