<svg width="32" height="24" viewBox="0 0 32 24" fill="none" xmlns="http://www.w3.org/2000/svg">
<rect width="32" height="24" rx="4" fill="#121926" fill-opacity="0.64"/>
<path d="M8 11.8342C8 11.8342 8.53543 12.2969 9.27168 12.2969C10.1753 12.2969 10.9219 11.5618 10.9219 10.655C10.9219 9.88384 9.95898 9.14258 9.32812 9.14258C9.99219 9.14258 10.9219 8.49575 10.9219 7.63008C10.9219 6.72333 10.1753 5.98828 9.27168 5.98828C8.53543 5.98828 8 6.4509 8 6.4509" stroke="white" stroke-width="1.4" stroke-miterlimit="10" stroke-linecap="round" stroke-linejoin="round"/>
<path d="M13.5117 10.391C13.5117 9.33476 14.3665 8.47852 15.4209 8.47852C16.4753 8.47852 17.3301 9.33476 17.3301 10.391V10.3844C17.3301 11.4406 16.4753 12.2969 15.4209 12.2969C14.3665 12.2969 13.5117 11.4406 13.5117 10.3844V7.90078C13.5117 6.84452 14.3665 5.98828 15.4209 5.98828C16.3611 5.98828 17.0238 6.48633 17.0238 6.48633" stroke="white" stroke-width="1.4" stroke-miterlimit="10" stroke-linecap="round" stroke-linejoin="round"/>
<path d="M19.8535 10.3844V7.90075C19.8535 6.84452 20.7083 5.98828 21.7627 5.98828C22.8171 5.98828 23.6719 6.84452 23.6719 7.90075V10.3844C23.6719 11.4406 22.8171 12.2969 21.7627 12.2969C20.7083 12.2969 19.8535 11.4406 19.8535 10.3844Z" stroke="white" stroke-width="1.4" stroke-miterlimit="10" stroke-linecap="round" stroke-linejoin="round"/>
<path d="M14.6738 19.3359L15.7029 18.334C16.1017 17.9388 16.1017 17.2979 15.7029 16.9026L14.6738 15.8828" stroke="white" stroke-width="1.4" stroke-miterlimit="10" stroke-linecap="round" stroke-linejoin="round"/>
<path d="M18.4922 17.4343C21.5125 17.0217 23.6719 15.9087 23.6719 14.6211" stroke="white" stroke-width="1.4" stroke-miterlimit="10" stroke-linecap="round" stroke-linejoin="round"/>
<path d="M8 14.6211C8 15.9275 10.2229 17.1779 13.3125 17.5762" stroke="white" stroke-width="1.4" stroke-miterlimit="10" stroke-linecap="round" stroke-linejoin="round"/>
<path d="M24.6758 3.66016C24.6758 4.21244 24.2281 4.66016 23.6758 4.66016C23.1235 4.66016 22.6758 4.21244 22.6758 3.66016C22.6758 3.10788 23.1235 2.66016 23.6758 2.66016C24.2281 2.66016 24.6758 3.10788 24.6758 3.66016Z" fill="white"/>
</svg>
