<svg id="Layer_1" data-name="Layer 1" xmlns="http://www.w3.org/2000/svg" viewBox="0 0 35.8 30.9"><defs><style>.cls-1{fill:#fff;}.cls-2{fill:#081a3e;}</style></defs><path class="cls-1" d="M4.14,31.3a3.32,3.32,0,0,1-1.68-.46A3.4,3.4,0,0,1,1.23,29.6,3.36,3.36,0,0,1,.8,27.9a3.27,3.27,0,0,1,.48-1.67L15.64,2.42a3.37,3.37,0,0,1,1.21-1.19A3.44,3.44,0,0,1,18.5.8a3.37,3.37,0,0,1,1.64.43,3.32,3.32,0,0,1,1.22,1.19L35.72,26.23a3.27,3.27,0,0,1,.48,1.67,3.36,3.36,0,0,1-.43,1.7,3.4,3.4,0,0,1-1.23,1.24,3.32,3.32,0,0,1-1.68.46ZM18.5,3.48a.73.73,0,0,0-.33.08.69.69,0,0,0-.24.24L3.58,27.61a.64.64,0,0,0-.1.33.69.69,0,0,0,.09.34.62.62,0,0,0,.24.24.67.67,0,0,0,.34.1H32.86a.66.66,0,0,0,.33-.09.75.75,0,0,0,.25-.25.77.77,0,0,0,.08-.34.63.63,0,0,0-.09-.33L19.07,3.8a.69.69,0,0,0-.24-.24A.76.76,0,0,0,18.5,3.48Z" transform="translate(-0.6 -0.6)"/><path class="cls-2" d="M18.5,1a3.15,3.15,0,0,1,1.55.41,3.11,3.11,0,0,1,1.14,1.11L35.55,26.33A3.14,3.14,0,0,1,36,27.91a3.09,3.09,0,0,1-.41,1.59,3.14,3.14,0,0,1-2.73,1.6H4.14a3.14,3.14,0,0,1-2.73-1.6A3.09,3.09,0,0,1,1,27.91a3.14,3.14,0,0,1,.45-1.58L15.81,2.52A3.11,3.11,0,0,1,17,1.41,3.15,3.15,0,0,1,18.5,1M4.14,28.82H32.86a.82.82,0,0,0,.43-.12.89.89,0,0,0,.32-.32h0a1,1,0,0,0,.11-.44.88.88,0,0,0-.12-.44L19.24,3.7a.86.86,0,0,0-.32-.31.85.85,0,0,0-.42-.11.92.92,0,0,0-.43.11.77.77,0,0,0-.31.31L3.41,27.5a1,1,0,0,0-.13.44,1,1,0,0,0,.11.44,1,1,0,0,0,.32.32.82.82,0,0,0,.43.12M18.5.6a3.54,3.54,0,0,0-1.74.46,3.62,3.62,0,0,0-1.3,1.25L1.11,26.12A3.6,3.6,0,0,0,.6,27.9,3.53,3.53,0,0,0,2.36,31a3.51,3.51,0,0,0,1.78.49H32.86A3.51,3.51,0,0,0,34.64,31,3.53,3.53,0,0,0,36.4,27.9a3.63,3.63,0,0,0-.51-1.78L21.54,2.31a3.62,3.62,0,0,0-1.3-1.25A3.54,3.54,0,0,0,18.5.6ZM4.15,28.42a.48.48,0,0,1-.24-.07.46.46,0,0,1-.17-.17.46.46,0,0,1,0-.47L18.1,3.9a.44.44,0,0,1,.17-.16.47.47,0,0,1,.46,0,.44.44,0,0,1,.17.16L33.25,27.71a.4.4,0,0,1,.07.24.46.46,0,0,1-.06.23l0,0a.4.4,0,0,1-.15.14.39.39,0,0,1-.23.07Z" transform="translate(-0.6 -0.6)"/><path class="cls-1" d="M18.51,21.44c-.89,0-1.45-.43-1.45-1.13,0-1.25-.07-2.8-.14-4.3s-.15-3.08-.15-4.34a1.54,1.54,0,0,1,1.74-1.5h.16a1.63,1.63,0,0,1,.45.06,1.47,1.47,0,0,1,.56.31,1.36,1.36,0,0,1,.39.5,1.46,1.46,0,0,1,.16.62c0,1.27-.07,2.83-.15,4.34s-.14,3.06-.14,4.31C19.94,21.05,19.2,21.44,18.51,21.44Z" transform="translate(-0.6 -0.6)"/><path class="cls-2" d="M18.67,10.37a1.23,1.23,0,0,1,.39.05,1.47,1.47,0,0,1,.49.27,1.22,1.22,0,0,1,.34.44,1.24,1.24,0,0,1,.14.54c0,2.51-.29,6.12-.29,8.64,0,.66-.72.93-1.23.93-.68,0-1.25-.27-1.25-.93,0-2.51-.29-6.12-.29-8.64,0-.83.67-1.29,1.54-1.29h.16m0-.4h-.21a1.72,1.72,0,0,0-1.89,1.69c0,1.27.07,2.83.15,4.35s.14,3.05.14,4.29c0,.81.65,1.33,1.65,1.33a1.48,1.48,0,0,0,1.63-1.33c0-1.25.07-2.8.14-4.3s.15-3.08.15-4.34a1.7,1.7,0,0,0-.18-.72,1.62,1.62,0,0,0-.44-.57,1.68,1.68,0,0,0-.63-.34,1.79,1.79,0,0,0-.51-.07Z" transform="translate(-0.6 -0.6)"/><path class="cls-1" d="M18.53,26.16a1.9,1.9,0,0,1-.7-.14,1.89,1.89,0,0,1-1-1,1.82,1.82,0,0,1,0-1.4,1.89,1.89,0,0,1,1-1,1.82,1.82,0,0,1,2.5,1.69,1.81,1.81,0,0,1-.53,1.28,1.87,1.87,0,0,1-1.26.55Z" transform="translate(-0.6 -0.6)"/><path class="cls-2" d="M18.53,22.7a1.64,1.64,0,0,1,1.6,1.63,1.63,1.63,0,0,1-.47,1.14,1.65,1.65,0,0,1-1.13.49,1.47,1.47,0,0,1-.62-.13A1.58,1.58,0,0,1,17,25a1.5,1.5,0,0,1-.13-.62,1.47,1.47,0,0,1,.13-.62,1.58,1.58,0,0,1,.88-.88,1.47,1.47,0,0,1,.62-.13m0-.4h0a2,2,0,0,0-1.87,2.81,2,2,0,0,0,.44.65,2,2,0,0,0,1.43.6,2.05,2.05,0,0,0,1.41-.61,2,2,0,0,0,.59-1.41,2,2,0,0,0-2-2Z" transform="translate(-0.6 -0.6)"/></svg>