<svg width="69" height="69" fill="none" xmlns="http://www.w3.org/2000/svg"><path d="M67.135 34.5c0-18.023-14.611-32.635-32.635-32.635-18.024 0-32.635 14.612-32.635 32.635 0 18.024 14.611 32.635 32.635 32.635 18.024 0 32.635-14.61 32.635-32.635Z" stroke="#F81734" stroke-width="2"/><path d="M34.514 43.1a2.131 2.131 0 0 1-2.13-2.132V16.835a2.13 2.13 0 1 1 4.262 0v24.133a2.132 2.132 0 0 1-2.132 2.131ZM37.353 51.62a2.84 2.84 0 1 1-5.68 0 2.84 2.84 0 0 1 5.68 0Z" fill="#F81734" stroke="#fff" stroke-opacity="0" stroke-width="1.8"/></svg>