<svg width="104" height="39" viewBox="0 0 104 39" fill="none" xmlns="http://www.w3.org/2000/svg">
<path d="M11.5932 13.3256H7.09668L9.0576 7.99506H9.62247L11.5932 13.3256Z" fill="#ED2238"/>
<path d="M39.2114 9.83964L38.1083 8.52348L38.0802 8.48704L37.2967 7.54092L37.2603 7.50868V7.50448L36.9954 7.1891L31.8218 0.968546C31.3172 0.361628 30.5519 0 29.7642 0H2.68418C1.19562 0 0 1.20542 0 2.68417V20.4292C0 21.9079 1.19562 23.1133 2.68418 23.1133H29.7642C30.5519 23.1133 31.3172 22.7517 31.8218 22.1448L35.5769 17.6385C35.1914 17.3329 34.8256 16.9713 34.4878 16.5718L32.9165 14.6754C32.7357 14.7174 32.5507 14.7216 32.3699 14.7216C31.2345 14.7216 30.1861 14.1189 29.6212 13.1405C29.0564 12.1664 29.0564 10.9427 29.6212 9.96999C30.1875 8.99164 31.2345 8.38892 32.3699 8.38892C33.1955 8.38892 33.9692 8.7085 34.5537 9.26075C34.7709 9.4696 34.9616 9.70508 35.1143 9.96999C35.1788 10.0863 35.2349 10.1872 35.2811 10.2952C35.6105 11.0507 35.6287 11.8945 35.3372 12.6598L36.9127 14.5562C37.1159 14.8015 37.3444 15.0202 37.5939 15.2192L39.2114 13.2723C40.0412 12.2827 40.0412 10.8404 39.2114 9.83964ZM11.4263 5.19034L16.2803 17.6693H13.198L12.4243 15.5696H6.27242L5.49871 17.6693H2.44449L7.27461 5.19034H11.4263ZM28.3359 17.6693H18.1837V5.19034H21.1412V15.1898H28.3359V17.6693Z" fill="#ED2238"/>
<path d="M11.4266 5.19031H7.27347L2.44336 17.6693H5.49757L6.27129 15.5696H12.4232L13.1969 17.6693H16.2791L11.4266 5.19031ZM7.09686 13.3255L9.05778 7.99503H9.62265L11.5934 13.3255H7.09686Z" fill="white"/>
<path d="M28.3364 15.1897V17.6693H18.1855V5.19031H21.143V15.1897H28.3364Z" fill="white"/>
<path d="M33.874 14.3487H33.867L33.4619 13.8539L33.874 14.3487Z" fill="#ED2238"/>
<path d="M34.8435 13.54C34.8435 13.547 34.8365 13.5526 34.8365 13.5526L34.4258 13.0522C34.4258 13.0452 34.4258 13.0452 34.4328 13.0452L34.8435 13.54Z" fill="#ED2238"/>
<path d="M34.8435 13.54C34.8435 13.547 34.8365 13.5526 34.8365 13.5526L34.4258 13.0522C34.4258 13.0452 34.4258 13.0452 34.4328 13.0452L34.8435 13.54Z" fill="#ED2238"/>
<path d="M46.3289 12.5252C46.3289 14.4651 45.3912 16.1934 43.9461 17.2726C43.9461 17.2726 43.939 17.2726 43.939 17.2796C43.0266 17.9608 41.9221 18.3841 40.7138 18.4416C40.7012 18.4416 40.6886 18.4416 40.676 18.4416C40.5863 18.4486 40.4966 18.4486 40.4069 18.4486V18.4416C39.4565 18.429 38.5441 18.2103 37.7802 17.8823C37.2153 17.6441 36.6757 17.3175 36.1865 16.9054C35.8459 16.6293 35.5249 16.3139 35.2291 15.9607L34.6895 15.3117L33.8807 14.3418L33.4701 13.847L33.3285 13.6802L32.3515 12.5182C32.1203 12.2421 32.0109 11.8819 32.0558 11.523C32.1006 11.1698 32.2941 10.8488 32.5828 10.6372C32.7496 10.5152 32.9557 10.3681 33.1799 10.2139C33.4364 10.0345 33.7196 9.83543 34.0279 9.62238C34.2466 9.8088 34.433 10.0275 34.5746 10.277C34.6446 10.3989 34.7035 10.5278 34.754 10.6554C34.5101 10.8222 34.2788 10.9834 34.0672 11.1306C33.784 11.3296 33.5345 11.5034 33.3215 11.6576C33.3215 11.6576 33.3089 11.6646 33.3089 11.6772L34.44 13.0326C34.44 13.0326 34.44 13.0326 34.433 13.0396L34.8437 13.54C34.8437 13.54 34.8507 13.533 34.8507 13.5274L36.1935 15.1463C36.4374 15.4351 36.7009 15.6986 36.984 15.9298C37.3821 16.2578 37.8124 16.5213 38.2693 16.7134C38.5385 16.8283 39.4257 17.1633 40.498 17.1633C40.5106 17.1633 40.5232 17.1633 40.5428 17.1633C41.5576 17.1381 42.4897 16.7849 43.241 16.206C44.3525 15.351 45.066 14.0152 45.066 12.5056C45.066 11.7725 44.8992 11.0857 44.5964 10.469C43.8774 8.98462 42.386 7.9446 40.6451 7.85489C40.6129 7.85489 40.5877 7.85489 40.5554 7.85489C40.5036 7.85489 40.4587 7.85489 40.4083 7.85489C39.5603 7.85489 38.7697 8.07915 38.0899 8.47162L37.2994 7.5269L37.2615 7.50167C38.174 6.92979 39.2463 6.60181 40.4027 6.60181H40.4349C40.4741 6.60181 40.519 6.60181 40.5568 6.60181C42.8177 6.65927 44.7646 7.98244 45.7149 9.8915C46.1046 10.6876 46.3289 11.5805 46.3289 12.5252Z" fill="#ED2238"/>
<path d="M7.26491 37.8674L2.50488 25.5664H5.52405L9.12772 35.0991H9.50616L13.1098 25.5664H16.1416L11.369 37.8674H7.26491Z" fill="#0A1A3D"/>
<path d="M16.9443 37.8672V25.5649H27.2998V27.9547H19.8612V30.6529H27.0363V32.7596H19.8612V35.4704H27.2998V37.8728H16.9443V37.8672Z" fill="#0A1A3D"/>
<path d="M28.5654 37.8672V25.5649H31.9504L37.6608 33.8389H37.9369V25.5649H40.7949V37.8658H37.4674L31.6799 29.5918H31.4164V37.8658H28.5654V37.8672Z" fill="#0A1A3D"/>
<path d="M54.107 25.5649V28.0122H49.4941V37.8728H46.5647V28.0122H41.9658V25.5649H54.107Z" fill="#0A1A3D"/>
<path d="M65.619 36.8973C64.6042 37.8154 63.1325 38.2779 61.2122 38.2779C59.2919 38.2779 57.8202 37.8154 56.8054 36.8973C55.7906 35.9722 55.2832 34.5916 55.2832 32.747V25.5649H58.2253V32.6699C58.2253 33.6651 58.4762 34.443 58.9766 34.9882C59.477 35.5405 60.2226 35.8166 61.2122 35.8166C62.2018 35.8166 62.9461 35.5405 63.4535 34.9882C63.9609 34.436 64.2174 33.6651 64.2174 32.6699V25.5649H67.1468V32.7414C67.1412 34.5846 66.6338 35.9722 65.619 36.8973Z" fill="#0A1A3D"/>
<path d="M80.1933 37.8672H77.2961L75.2735 34.2061H71.3026V37.8672H68.3857V25.5649H74.8418C76.4929 25.5649 77.746 25.9433 78.5996 26.696C79.4532 27.4473 79.8779 28.5392 79.8779 29.9787C79.8779 30.8071 79.6915 31.5331 79.3187 32.1625C78.9458 32.7862 78.4328 33.274 77.7839 33.6272L80.1933 37.8672ZM71.304 28.0122V31.9691H74.689C75.4347 31.9691 75.9995 31.8023 76.3976 31.4617C76.7957 31.1281 76.9891 30.6333 76.9891 29.9899C76.9891 29.3466 76.7901 28.8532 76.3976 28.5196C75.9995 28.186 75.4347 28.0122 74.689 28.0122H71.304Z" fill="#0A1A3D"/>
<path d="M81.1768 37.8672V25.5649H91.5322V27.9547H84.0936V30.6529H91.2701V32.7596H84.0936V35.4704H91.5322V37.8728H81.1768V37.8672Z" fill="#0A1A3D"/>
<path d="M98.1491 38.278C96.254 38.278 94.8271 37.9318 93.8642 37.2379C92.9013 36.5441 92.4261 35.4845 92.4387 34.0576H95.0724C95.1243 34.6547 95.399 35.1172 95.9078 35.4522C96.4152 35.7858 97.1609 35.9526 98.1505 35.9666C99.0882 35.9666 99.8142 35.8195 100.327 35.5293C100.842 35.2336 101.098 34.8481 101.098 34.3603C101.098 33.9426 100.926 33.6147 100.585 33.3778C100.245 33.1465 99.6993 32.9601 98.9466 32.8381L97.4244 32.5746C96.8792 32.4779 96.4152 32.3826 96.0312 32.2915C95.6513 32.2018 95.235 32.0602 94.7907 31.8668C94.3478 31.6748 93.9876 31.4561 93.724 31.2178C93.4549 30.9739 93.2293 30.653 93.0498 30.2479C92.8704 29.8498 92.7793 29.3873 92.7793 28.8729C92.7793 27.7039 93.2489 26.7914 94.1936 26.1424C95.1383 25.4935 96.4671 25.1655 98.1827 25.1655C101.793 25.1655 103.617 26.5601 103.649 29.341H101.028C100.816 28.1005 99.8465 27.4782 98.1309 27.4782C97.3011 27.4782 96.6661 27.6128 96.2358 27.8833C95.7985 28.1524 95.5868 28.5252 95.5868 29.0004C95.5868 29.7321 96.2106 30.2142 97.4496 30.4525L98.7798 30.6838C98.8373 30.6964 98.934 30.709 99.056 30.7286C100.539 31.0048 101.587 31.2879 102.203 31.5963C103.391 32.1934 103.995 33.1451 104.001 34.4542C104.001 35.6877 103.506 36.6324 102.504 37.294C101.503 37.9444 100.058 38.278 98.1491 38.278Z" fill="#0A1A3D"/>
</svg>
