<svg id="Layer_1" data-name="Layer 1" xmlns="http://www.w3.org/2000/svg" viewBox="0 0 11.2 7.7">
  <path class="cls-1" d="M11.68,4.1,8.39.8A.58.58,0,0,0,8,.66a.58.58,0,0,0-.55.55.61.61,0,0,0,.16.41L9.91,3.93H1.22a.54.54,0,0,0-.4.17.56.56,0,0,0-.17.4.58.58,0,0,0,.17.41.58.58,0,0,0,.4.16H9.91L7.62,7.36a.52.52,0,0,0-.14.19.4.4,0,0,0-.06.22.59.59,0,0,0,0,.23.63.63,0,0,0,.13.2.52.52,0,0,0,.19.12.52.52,0,0,0,.21,0H8a.53.53,0,0,0,.23-.06.42.42,0,0,0,.16-.12L11.68,4.9a.56.56,0,0,0,0-.8Z" transform="translate(-0.65 -0.66)"/>
</svg>
