<svg width="34" height="34" viewBox="0 0 34 34" fill="none" xmlns="http://www.w3.org/2000/svg">
<path d="M6.29958 5.365C5.76116 5.25251 5.23336 5.59788 5.12087 6.13637L3.83179 12.3077C3.7193 12.8462 4.06468 13.3739 4.60317 13.4864C4.6719 13.5008 4.7403 13.5077 4.80783 13.5077C5.26949 13.5077 5.68373 13.1849 5.78188 12.715L7.07089 6.54371C7.18345 6.00522 6.83807 5.47749 6.29958 5.365Z" fill="#FF712F"/>
<path d="M10.5472 2.88405L3.97111 1.17594C3.59704 1.07886 3.20757 1.13311 2.87441 1.32894C2.54125 1.52478 2.30431 1.83861 2.20729 2.21268L1.50744 4.90984C1.30722 5.68168 1.7722 6.47271 2.54397 6.67312L9.12012 8.38129C9.24138 8.41277 9.36416 8.42837 9.48622 8.42837C9.74069 8.42837 9.99164 8.36057 10.2168 8.22822C10.5499 8.03239 10.7869 7.71855 10.8839 7.34449L11.5837 4.64733C11.7839 3.87549 11.319 3.08453 10.5472 2.88405Z" fill="#A34F3E"/>
<path d="M31.6142 24.7709V28.5149C31.6142 28.6982 31.4661 28.847 31.2821 28.847H27.6829V25.4031C27.6829 24.8533 27.2373 24.407 26.6868 24.407C26.137 24.407 25.6907 24.8533 25.6907 25.4031V28.847H12.4639C12.2806 28.847 12.1319 28.6982 12.1319 28.5149V23.5716H6.42758C4.4002 23.5716 2.75 21.9208 2.75 19.8921V16.1328L4.80594 14.1406L6.86188 16.1328V19.4578H27.4007C27.491 19.4578 27.578 19.495 27.6404 19.56L30.885 22.9527C31.3552 23.4448 31.6142 24.0903 31.6142 24.7709Z" fill="#F6EFEA"/>
<path d="M31.6138 24.7702V28.5142C31.6138 28.6975 31.4657 28.8462 31.2818 28.8462H27.6826V25.4024C27.6826 24.8525 27.237 24.4063 26.6865 24.4063C26.1366 24.4063 25.6904 24.8525 25.6904 25.4024V28.8462H19.4668V19.457H27.4004C27.4907 19.457 27.5777 19.4942 27.6401 19.5593L30.8847 22.952C31.3548 23.4441 31.6138 24.0895 31.6138 24.7702Z" fill="#EEE1DC"/>
<path d="M21.5994 24.5861L21.021 28.5127H17.9145L17.3361 24.5861C17.3175 24.4605 17.3421 24.333 17.4052 24.2228L19.1105 21.2571C18.4484 21.0964 17.9564 20.5001 17.9564 19.7875V16.9102H20.9792V19.7875C20.9792 20.2052 20.8099 20.5831 20.5363 20.8567C20.3437 21.0493 20.0993 21.1907 19.825 21.2571L21.531 24.2228C21.5941 24.333 21.618 24.4605 21.5994 24.5861Z" fill="#FF4949"/>
<path d="M21.5984 24.5861L21.02 28.5127H19.4668V16.9102H20.9782V19.7875C20.9782 20.2052 20.8089 20.5831 20.5353 20.8567C20.3427 21.0493 20.0983 21.1907 19.8241 21.2571L21.53 24.2228C21.5931 24.333 21.617 24.4605 21.5984 24.5861Z" fill="#E50048"/>
<path d="M6.86187 14.233V16.1289H2.75V14.233C2.75 13.0988 3.67238 12.1758 4.80594 12.1758C5.93949 12.1758 6.86187 13.0988 6.86187 14.233Z" fill="#FFD1AE"/>
<path d="M34 30.5205V30.5291C34 31.8194 32.9501 32.8693 31.6598 32.8693H2.34016C1.04988 32.8693 0 31.8194 0 30.5291V30.5205C0 29.2296 1.04988 28.1797 2.34016 28.1797H31.6598C32.9501 28.1797 34 29.2296 34 30.5205Z" fill="#424E53"/>
<path d="M33.9985 30.5205V30.5291C33.9985 31.8194 32.9486 32.8693 31.6583 32.8693H19.4668V28.1797H31.6583C32.9486 28.1797 33.9985 29.2296 33.9985 30.5205Z" fill="#292929"/>
<path d="M25.2976 8.77344V12.3434C25.2976 15.5582 22.6832 18.1746 19.4691 18.1746C16.2557 18.1746 13.6406 15.5582 13.6406 12.3434V10.0537L19.4691 9.41359L25.2976 8.77344Z" fill="#FFD1AE"/>
<path d="M25.2953 8.77344V12.3434C25.2953 15.5582 22.6809 18.1746 19.4668 18.1746V9.41353L25.2953 8.77344Z" fill="#FFBD83"/>
<path d="M27.0573 3.23047V6.01355C27.0573 8.2448 25.2491 10.053 23.0179 10.053H13.6406V6.47109C13.6406 4.13094 15.5379 2.23438 17.8773 2.23438H26.0613C26.6118 2.23438 27.0573 2.68069 27.0573 3.23047Z" fill="#A34F3E"/>
<path d="M23.0155 10.053H19.4668V2.23438H26.0589C26.6095 2.23438 27.055 2.68062 27.055 3.23047V6.01355C27.055 8.2448 25.2468 10.053 23.0155 10.053Z" fill="#873F2E"/>
</svg>
