<svg width="17" height="20" viewBox="0 0 17 20" fill="none" xmlns="http://www.w3.org/2000/svg">
<path fill-rule="evenodd" clip-rule="evenodd" d="M11.1133 0C14.335 0 16.1832 1.59468 16.1832 4.37277V18.1787C16.1832 18.7581 15.885 19.2795 15.3835 19.5711C14.884 19.8636 14.2818 19.8693 13.7765 19.5844L8.11584 16.3865L2.40294 19.591C2.15599 19.7297 1.88531 19.8 1.61367 19.8C1.33349 19.8 1.0533 19.725 0.798762 19.5749C0.29823 19.2833 0 18.7619 0 18.1835V4.19896C0 1.53009 1.84922 0 5.07371 0H11.1133ZM11.1133 1.42467H5.07371C2.65273 1.42467 1.42467 2.35735 1.42467 4.19896V18.1835C1.42467 18.2728 1.47595 18.3212 1.51869 18.3459C1.56143 18.3725 1.62887 18.3915 1.70675 18.3478L7.76823 14.9476C7.98477 14.827 8.24976 14.826 8.46726 14.9485L14.4765 18.343C14.5553 18.3886 14.6228 18.3677 14.6655 18.3421C14.7082 18.3164 14.7586 18.268 14.7586 18.1787L14.7582 4.26454C14.7511 3.4471 14.5929 1.42467 11.1133 1.42467Z" fill="white"/>
</svg>
