<svg id="Layer_1" data-name="Layer 1" xmlns="http://www.w3.org/2000/svg" width="14.3" height="18" viewBox="0 0 14.3 18">
  <g>
    <path d="M7.7-12h0V-25.5a1.1,1.1,0,0,0-.9-1H-5.4a1.2,1.2,0,0,0-1.2,1v15.4A1.8,1.8,0,0,0-4.8-8.5H5.8a1,1,0,0,0,1-.9h0v-1.4A1.1,1.1,0,0,0,7.7-12ZM5.8-9.4H-4.8a.8.8,0,0,1-.8-.7.8.8,0,0,1,.8-.8H5.9v1.4Zm.9-2.4H-4.8l-.9.2V-25.5c0-.1.2-.1.3-.1H6.7c.1,0,.1,0,.1.1V-12C6.8-11.8,6.8-11.8,6.7-11.8Z" transform="translate(6.6 26.5)" fill="#fff"/>
    <path d="M-3.3-15.8h8a.4.4,0,0,0,.4-.4h0v-7.5h0a.5.5,0,0,0-.5-.4h-8a.5.5,0,0,0-.4.5h0v7.5h0A.5.5,0,0,0-3.3-15.8Zm.4-7.5H4.2v6.6H-2.9Z" transform="translate(6.6 26.5)" fill="#fff"/>
    <path d="M5.1-14.4H-3.8a.4.4,0,0,0-.4.4.4.4,0,0,0,.4.4H5.1a.4.4,0,0,0,.4-.4A.4.4,0,0,0,5.1-14.4Z" transform="translate(6.6 26.5)" fill="#fff"/>
  </g>
</svg>
