<svg width="33" height="32" viewBox="0 0 33 32" fill="none" xmlns="http://www.w3.org/2000/svg">
<path d="M26.6665 19C26.6665 19.2652 26.5611 19.5196 26.3736 19.7071C26.1861 19.8946 25.9317 20 25.6665 20C25.4013 20 25.1469 19.8946 24.9594 19.7071C24.7719 19.5196 24.6665 19.2652 24.6665 19C24.6665 18.7348 24.7719 18.4804 24.9594 18.2929C25.1469 18.1054 25.4013 18 25.6665 18C25.9317 18 26.1861 18.1054 26.3736 18.2929C26.5611 18.4804 26.6665 18.7348 26.6665 19ZM7.6665 18C7.40129 18 7.14693 18.1054 6.9594 18.2929C6.77186 18.4804 6.6665 18.7348 6.6665 19C6.6665 19.2652 6.77186 19.5196 6.9594 19.7071C7.14693 19.8946 7.40129 20 7.6665 20C7.93172 20 8.18607 19.8946 8.37361 19.7071C8.56115 19.5196 8.6665 19.2652 8.6665 19C8.6665 18.7348 8.56115 18.4804 8.37361 18.2929C8.18607 18.1054 7.93172 18 7.6665 18ZM28.3595 13L28.7795 14.119C29.9195 15.036 30.6665 16.426 30.6665 18V27C30.6665 28.103 29.7695 29 28.6665 29H26.6665C25.5635 29 24.6665 28.103 24.6665 27V25H8.6665V27C8.6665 28.103 7.7695 29 6.6665 29H4.6665C3.5635 29 2.6665 28.103 2.6665 27V18C2.6665 16.425 3.4125 15.035 4.5545 14.118L4.9745 13H2.6665V11H5.6665V11.152L7.4865 6.298C7.63052 5.91741 7.8867 5.58953 8.22116 5.35775C8.55562 5.12596 8.95258 5.00121 9.3595 5H23.9735C24.8025 5 25.5535 5.521 25.8465 6.297L27.6665 11.151V11H30.6665V13H28.3595ZM6.6665 25H4.6665V27H6.6665V25ZM28.6665 25H26.6665V27H28.6665V25ZM28.6665 23V18C28.6665 16.346 27.3205 15 25.6665 15H7.6665C6.0125 15 4.6665 16.346 4.6665 18V23H28.6665ZM25.6665 13H26.2235L23.9735 7H9.3595L7.1095 13H25.6665ZM10.6665 20H22.6665V18H10.6665V20Z" fill="#697586"/>
</svg>
