<svg width="28" height="28" viewBox="0 0 28 28" fill="none" xmlns="http://www.w3.org/2000/svg">
<path fill-rule="evenodd" clip-rule="evenodd" d="M14.3901 2.33334C15.6888 2.33334 22.5034 4.67287 23.4055 5.57498C24.1574 6.32692 24.146 6.93444 24.0932 9.84595C24.0726 11.0128 24.044 12.6027 24.044 14.8035C24.044 22.6921 15.0229 25.5142 14.6389 25.63C14.5575 25.6552 14.4738 25.6667 14.3901 25.6667C14.3064 25.6667 14.2228 25.6552 14.1414 25.63C13.7574 25.5142 4.7363 22.6921 4.7363 14.8035C4.7363 12.6062 4.70764 11.0163 4.68701 9.84939C4.6776 9.32886 4.6695 8.88192 4.66683 8.49459L4.6665 8.05751C4.67634 6.62166 4.81109 6.13894 5.37592 5.57498C6.27573 4.67287 13.0903 2.33334 14.3901 2.33334ZM14.3901 4.05274C13.4181 4.05274 7.28559 6.2123 6.57835 6.80262C6.36973 7.01239 6.3617 7.3769 6.40641 9.8173C6.42704 10.9934 6.4557 12.5913 6.4557 14.8035C6.4557 20.7653 13.0146 23.412 14.389 23.8991C15.7622 23.4097 22.3246 20.7481 22.3246 14.8035C22.3246 12.589 22.3532 10.9899 22.375 9.81386C22.4186 7.37575 22.4105 7.01124 22.1893 6.79116C21.4958 6.2123 15.3622 4.05274 14.3901 4.05274ZM18.6559 10.7463C18.9918 11.0822 18.9918 11.6267 18.6559 11.9625L14.1878 16.4318C14.0594 16.5611 13.8936 16.6449 13.7157 16.6733L13.5803 16.684C13.3522 16.684 13.1333 16.5934 12.9716 16.4318L10.8029 14.2608C10.4682 13.9249 10.4682 13.3793 10.804 13.0446C11.1388 12.7087 11.6844 12.7087 12.0202 13.0446L13.5803 14.607L17.4409 10.7463C17.7768 10.4105 18.3201 10.4105 18.6559 10.7463Z" fill="#32B878"/>
</svg>
