<svg width="32" height="33" viewBox="0 0 32 33" fill="none" xmlns="http://www.w3.org/2000/svg">
   <g filter="url(#filter0_d_4010_57125)">
      <path d="M16 30C23.732 30 30 23.732 30 16C30 8.268 23.732 2 16 2C8.268 2 2 8.268 2 16C2 23.732 8.268 30 16 30Z" fill="black"/>
   </g>
   <path d="M16 30C23.732 30 30 23.732 30 16C30 8.268 23.732 2 16 2C8.268 2 2 8.268 2 16C2 23.732 8.268 30 16 30Z" fill="white"/>
   <path fill-rule="evenodd" clip-rule="evenodd" d="M16 28C9.373 28 4 22.627 4 16C4 9.373 9.373 4 16 4C22.627 4 28 9.373 28 16C28 22.627 22.627 28 16 28Z" fill="black"/>
   <path fill-rule="evenodd" clip-rule="evenodd" d="M16 28C9.373 28 4 22.627 4 16C4 9.373 9.373 4 16 4C22.627 4 28 9.373 28 16C28 22.627 22.627 28 16 28Z" fill="#F81734"/>
   <defs>
      <filter id="filter0_d_4010_57125" x="0" y="1" width="32" height="32" filterUnits="userSpaceOnUse" color-interpolation-filters="sRGB">
         <feFlood flood-opacity="0" result="BackgroundImageFix"/>
         <feColorMatrix in="SourceAlpha" type="matrix" values="0 0 0 0 0 0 0 0 0 0 0 0 0 0 0 0 0 0 127 0" result="hardAlpha"/>
         <feOffset dy="1"/>
         <feGaussianBlur stdDeviation="1"/>
         <feColorMatrix type="matrix" values="0 0 0 0 0 0 0 0 0 0 0 0 0 0 0 0 0 0 0.2 0"/>
         <feBlend mode="normal" in2="BackgroundImageFix" result="effect1_dropShadow_4010_57125"/>
         <feBlend mode="normal" in="SourceGraphic" in2="effect1_dropShadow_4010_57125" result="shape"/>
      </filter>
   </defs>
</svg>
