<svg width="18" height="16" viewBox="0 0 18 16" fill="none" xmlns="http://www.w3.org/2000/svg">
<path d="M8.59383 7.73114C8.59383 5.42097 8.59383 3.10961 8.59383 0.797045C8.58997 0.667015 8.59265 0.536874 8.60191 0.407116C8.61104 0.311023 8.65518 0.221628 8.72591 0.155944C8.79664 0.0902595 8.88903 0.0528672 8.98554 0.0508659C9.08204 0.0488647 9.17592 0.0823927 9.24931 0.145088C9.3227 0.207784 9.37049 0.29527 9.38359 0.390901C9.39561 0.52051 9.39893 0.650779 9.39351 0.780831C9.39351 5.43418 9.39351 10.0869 9.39351 14.7391C9.39351 14.8201 9.39351 14.9021 9.39351 14.9831C9.40431 15.2632 9.30345 15.4838 9.00087 15.4901C8.69829 15.4964 8.58752 15.283 8.59202 14.9993C8.59202 14.8039 8.59202 14.6085 8.59202 14.414L8.59383 7.73114Z" fill="#F81734"/>
<path d="M8.98918 15.5433C8.93241 15.5463 8.87561 15.5378 8.82222 15.5183C8.76883 15.4988 8.71995 15.4687 8.67849 15.4298C8.62836 15.3715 8.59061 15.3035 8.56755 15.2302C8.54448 15.1568 8.53658 15.0795 8.54432 15.0029C8.54432 14.8724 8.54432 14.7418 8.54432 14.6112C8.54432 14.5473 8.54432 14.4824 8.54432 14.4185V0.716016C8.54171 0.612368 8.5447 0.508654 8.55331 0.405331C8.5537 0.350073 8.56535 0.295465 8.58752 0.24485C8.6097 0.194235 8.64195 0.148663 8.68231 0.110916C8.72267 0.0731692 8.77029 0.044041 8.82228 0.0252957C8.87426 0.00655047 8.92951 -0.00140755 8.98467 0.00189475C9.03974 -0.00340717 9.09532 0.00244471 9.14808 0.0191123C9.20084 0.0357798 9.24969 0.0629127 9.29173 0.0988927C9.33376 0.134873 9.36812 0.178955 9.39272 0.228512C9.41733 0.278068 9.43168 0.332084 9.43493 0.387317C9.44638 0.489552 9.45029 0.592486 9.44664 0.695294C9.44664 0.725012 9.44664 0.754735 9.44664 0.785353C9.44664 4.66304 9.44664 8.54073 9.44664 12.4184V14.7472C9.44664 14.7742 9.44664 14.8021 9.44664 14.8292C9.44664 14.8823 9.44664 14.9363 9.44664 14.9894C9.45582 15.0665 9.44948 15.1446 9.42798 15.2191C9.40648 15.2937 9.37026 15.3632 9.32146 15.4235C9.28008 15.4647 9.2307 15.4971 9.17633 15.5184C9.12196 15.5398 9.06378 15.5498 9.00539 15.5478L8.98918 15.5433ZM8.99638 0.100047H8.98648C8.94326 0.0966592 8.89979 0.102324 8.85888 0.116687C8.81798 0.13105 8.78054 0.15379 8.74893 0.183455C8.71731 0.21312 8.69224 0.249063 8.6753 0.288972C8.65837 0.328881 8.64994 0.37189 8.65057 0.415239C8.64248 0.514979 8.63977 0.615077 8.64246 0.715109V14.4185C8.64246 14.4824 8.64246 14.5464 8.64246 14.6112C8.64246 14.7427 8.64246 14.8742 8.64246 15.0057C8.63477 15.0697 8.64015 15.1346 8.65826 15.1965C8.67637 15.2585 8.70684 15.3161 8.74783 15.3659C8.81925 15.4225 8.90807 15.4526 8.99918 15.4511C9.09029 15.4496 9.17807 15.4166 9.24762 15.3578C9.3266 15.2553 9.36189 15.1259 9.34578 14.9975C9.34578 14.9426 9.34578 14.8877 9.34578 14.8328C9.34578 14.8057 9.34578 14.7787 9.34578 14.7517V12.4256C9.34578 8.54793 9.34578 4.67024 9.34578 0.792553C9.34578 0.762836 9.34578 0.733127 9.34578 0.702509C9.3492 0.604518 9.34559 0.506405 9.33498 0.408931C9.33504 0.365783 9.32608 0.3231 9.30868 0.283613C9.29129 0.244126 9.26584 0.208701 9.23396 0.179621C9.20208 0.150542 9.1645 0.12844 9.12359 0.114736C9.08268 0.101033 9.03934 0.0960331 8.99638 0.100047Z" fill="#F81734"/>
<path d="M17.8675 4.17705C17.6874 3.47373 17.5974 3.39899 16.9166 3.39719C16.6725 3.39719 16.4276 3.40529 16.1835 3.39719C15.7143 3.37828 15.1623 3.56919 14.7976 3.32335C14.4509 3.09011 14.4446 2.51287 14.2816 2.09142C14.1751 1.7629 13.9672 1.4766 13.6878 1.27369C13.4083 1.07078 13.0717 0.961699 12.7264 0.962142C12.3004 0.942331 11.8718 0.949546 11.4449 0.954049H11.1622C11.1252 0.954049 11.0901 0.954046 11.055 0.959449H11.0325C10.8019 0.959449 10.6723 1.05761 10.6479 1.2251C10.6389 1.32088 10.6362 1.41714 10.6399 1.51327V2.03288C10.6399 3.56559 10.6399 5.09649 10.6399 6.62559V11.5614C10.6399 11.7055 10.6399 11.8496 10.6399 11.9946C10.6354 12.2008 10.7407 12.3548 11.0352 12.3548C11.0825 12.3598 11.1299 12.3622 11.1775 12.362H11.4413C11.9402 12.362 12.4382 12.362 12.9371 12.362C13.8557 12.362 13.8556 12.362 13.8782 13.2958C13.8899 13.8109 14.0583 13.9874 14.5986 13.9955C15.2011 14.0055 15.8035 14.0046 16.406 13.9955C16.9607 13.9874 17.1264 13.8154 17.1264 13.258C17.1309 12.3458 17.1264 11.4344 17.1264 10.5222C17.1264 9.69101 17.1174 8.86071 17.1264 8.02952C17.1742 7.43839 16.9853 6.85246 16.6014 6.40046C16.4006 6.18163 16.3844 6.03394 16.6914 5.90427C16.9429 5.78928 17.1873 5.65969 17.4236 5.51614C17.9414 5.23607 18.0503 4.89117 17.8675 4.17705ZM14.3194 9.28486C13.9766 9.33245 13.6309 9.35653 13.2847 9.35691C13.1712 9.35691 12.992 9.36861 12.8146 9.35691C12.6372 9.3452 12.3581 9.49198 12.3364 9.13087C12.3202 8.8472 12.3833 8.59056 12.7057 8.53833C13.282 8.44827 13.8629 8.37983 14.4428 8.30959C14.6463 8.28528 14.6805 8.42485 14.6868 8.58785C14.7013 8.89313 14.6823 9.20832 14.3203 9.28486H14.3194Z" fill="#F81734"/>
<path d="M15.5018 14.055C15.1903 14.055 14.8904 14.055 14.6013 14.0478C14.0493 14.0397 13.8494 13.8443 13.8368 13.3004C13.8259 12.8501 13.8205 12.6196 13.717 12.5169C13.6134 12.4143 13.3901 12.4143 12.9443 12.4143H12.4454C12.1129 12.4143 11.7806 12.4143 11.4486 12.4143H11.1847C11.1354 12.4146 11.0861 12.4122 11.037 12.4071C10.9754 12.4113 10.9135 12.4031 10.8552 12.3828C10.7969 12.3625 10.7432 12.3307 10.6975 12.2891C10.6617 12.2496 10.6343 12.2032 10.6171 12.1527C10.5999 12.1022 10.5932 12.0487 10.5976 11.9955C10.5976 11.8947 10.5976 11.7947 10.5976 11.6938V5.09566C10.5976 4.07505 10.5976 3.05444 10.5976 2.03384V1.4521C10.5949 1.37454 10.598 1.29689 10.6066 1.21976C10.6228 1.1063 10.6966 0.916276 11.0388 0.911773H11.0532C11.0902 0.911773 11.1271 0.906373 11.1649 0.906373H11.5368C11.9285 0.90187 12.3338 0.897363 12.7309 0.915374C13.0856 0.915364 13.4313 1.02756 13.7184 1.2359C14.0055 1.44423 14.2194 1.73803 14.3294 2.07527C14.3801 2.21743 14.4216 2.36272 14.4536 2.51023C14.4814 2.80438 14.6136 3.07884 14.8264 3.28378C15.1011 3.41243 15.4113 3.44418 15.7063 3.37384C15.8655 3.35431 16.0258 3.34558 16.1863 3.34771C16.3547 3.35402 16.5258 3.35312 16.6915 3.34771H16.9175C17.619 3.34771 17.728 3.43777 17.9162 4.16449C18.1044 4.90203 17.9855 5.26765 17.4596 5.56212L17.302 5.65218C17.1152 5.76455 16.9215 5.86501 16.7221 5.95296C16.5978 6.00519 16.5275 6.06101 16.5149 6.11865C16.5023 6.17628 16.5429 6.25914 16.6455 6.37081C16.841 6.59859 16.9894 6.86285 17.0822 7.14834C17.1749 7.43384 17.2102 7.7349 17.1859 8.03409C17.1778 8.61493 17.1796 9.20478 17.1859 9.77662C17.1859 10.0264 17.1859 10.2761 17.1859 10.5259C17.1859 10.8068 17.1859 11.0878 17.1859 11.3688C17.1859 11.9991 17.1859 12.6295 17.1859 13.2599C17.1859 13.847 16.9949 14.0379 16.4132 14.046C16.0917 14.0523 15.7918 14.055 15.5018 14.055ZM11.9438 12.3161H12.9407C13.889 12.3161 13.9079 12.3341 13.9313 13.2968C13.9421 13.7894 14.0988 13.9416 14.5995 13.9488C15.1633 13.9578 15.754 13.9578 16.4051 13.9488C16.9328 13.9416 17.0787 13.793 17.0814 13.2599C17.0814 12.6295 17.0814 11.9991 17.0814 11.3688C17.0814 11.0878 17.0814 10.8065 17.0814 10.525C17.0814 10.2752 17.0814 10.0255 17.0814 9.77571C17.0814 9.20387 17.0814 8.61313 17.0859 8.03138C17.11 7.74475 17.0771 7.45619 16.9891 7.18231C16.9012 6.90844 16.7599 6.65467 16.5735 6.43564C16.4456 6.29606 16.3988 6.1916 16.4195 6.09614C16.4402 6.00068 16.524 5.92774 16.6843 5.8611C16.88 5.77472 17.0701 5.67607 17.2534 5.56572L17.4119 5.47568C17.8955 5.20552 17.999 4.88042 17.8216 4.18791C17.646 3.5026 17.5785 3.44677 16.9211 3.44497H16.6969C16.5303 3.44497 16.3574 3.44497 16.1863 3.44497C16.0303 3.44315 15.8745 3.45188 15.7198 3.47109C15.4018 3.54417 15.0684 3.50602 14.7751 3.36302C14.5408 3.14511 14.3939 2.84931 14.3618 2.53093C14.3306 2.38771 14.2903 2.24664 14.2411 2.10859C14.1371 1.78948 13.9349 1.51143 13.6633 1.31425C13.3917 1.11707 13.0647 1.01086 12.7291 1.01083C12.3347 0.992822 11.9312 0.997329 11.5404 1.00183H11.1676C11.1325 1.00183 11.0983 1.00183 11.0649 1.00723H11.0487C10.8389 1.00723 10.7254 1.08468 10.7056 1.23057C10.6977 1.30292 10.6949 1.37575 10.6975 1.4485V2.03114C10.6975 3.05175 10.6975 4.07235 10.6975 5.09295V11.6911C10.6975 11.7929 10.6975 11.8938 10.6975 11.9955C10.6939 12.0355 10.6983 12.0759 10.7107 12.1141C10.7231 12.1524 10.7431 12.1877 10.7696 12.218C10.8071 12.2505 10.8507 12.2751 10.8978 12.2906C10.945 12.3061 10.9948 12.312 11.0442 12.308C11.0912 12.3125 11.1384 12.3146 11.1856 12.3143H11.9484L11.9438 12.3161ZM12.5517 9.42C12.4905 9.42353 12.4301 9.405 12.3815 9.36777C12.351 9.33644 12.3272 9.29917 12.3117 9.25827C12.2963 9.21737 12.2894 9.17372 12.2915 9.13004C12.269 8.74461 12.4031 8.53389 12.7021 8.48616C13.1902 8.40781 13.6927 8.34747 14.1727 8.28984L14.4428 8.25741C14.4783 8.25045 14.5149 8.25112 14.5502 8.25935C14.5854 8.26758 14.6185 8.28318 14.6473 8.30515C14.6808 8.34265 14.7065 8.38655 14.7228 8.4342C14.739 8.48186 14.7455 8.5323 14.7418 8.58251C14.7517 8.81215 14.7706 9.24079 14.3357 9.33265C14.1079 9.37261 13.8771 9.3925 13.6459 9.39209C13.5333 9.39209 13.4162 9.39839 13.2929 9.40649H13.1857C13.0623 9.41126 12.9387 9.40917 12.8156 9.4002C12.7707 9.39863 12.7257 9.40133 12.6814 9.40829C12.6387 9.41487 12.5957 9.41878 12.5526 9.42H12.5517ZM14.487 8.35198H14.4482L14.1781 8.38439C13.6963 8.44203 13.1983 8.50236 12.712 8.58071C12.4653 8.61943 12.3635 8.78692 12.3833 9.12102C12.3801 9.1828 12.4015 9.24335 12.4428 9.28943C12.5109 9.32354 12.5894 9.33062 12.6625 9.30925C12.7137 9.3014 12.7656 9.29868 12.8174 9.30114C12.9372 9.30959 13.0575 9.31139 13.1776 9.30654H13.2838C13.4045 9.29933 13.5234 9.29573 13.6369 9.29212C13.8623 9.29244 14.0874 9.27316 14.3096 9.23449C14.6058 9.17236 14.6545 8.94903 14.6382 8.58431C14.6444 8.51018 14.6229 8.4364 14.5779 8.37719C14.5518 8.3584 14.5199 8.34947 14.4879 8.35198H14.487Z" fill="#F81734"/>
<path d="M0.553906 5.52065C0.79017 5.6642 1.03462 5.79379 1.28603 5.90878C1.59671 6.03845 1.58051 6.18614 1.37609 6.40497C0.992131 6.85697 0.803293 7.4429 0.851069 8.03403C0.862776 8.86522 0.851069 9.69552 0.851069 10.5267C0.851069 11.439 0.851069 12.3503 0.851069 13.2625C0.851069 13.8227 1.02036 13.9929 1.57148 14.0001C2.17394 14.0082 2.77641 14.0091 3.37887 14.0001C3.91198 13.992 4.08397 13.8155 4.09928 13.3004C4.1218 12.3665 4.12181 12.3665 5.04035 12.3665C5.53925 12.3665 6.03722 12.3665 6.53612 12.3665H6.79997C6.8475 12.3667 6.89501 12.3643 6.94227 12.3593C7.23675 12.3593 7.34211 12.2035 7.3376 11.9991C7.3376 11.855 7.3376 11.7109 7.3376 11.5659V6.6301C7.3376 5.09739 7.3376 3.5665 7.3376 2.03739V1.51779C7.34127 1.42166 7.33856 1.32539 7.3295 1.22961C7.30608 1.06212 7.1764 0.96666 6.94497 0.963959H6.92606C6.89094 0.963959 6.85583 0.958559 6.81891 0.958559H6.53612C6.10927 0.954056 5.68064 0.946854 5.25468 0.966666C4.90934 0.966222 4.57273 1.07529 4.29328 1.2782C4.01383 1.48111 3.80593 1.76741 3.69945 2.09593C3.53645 2.51828 3.53015 3.09372 3.18344 3.32786C2.82323 3.5746 2.2667 3.38369 1.79752 3.4017C1.55348 3.41161 1.30854 3.4017 1.0645 3.4017C0.384593 3.4017 0.29364 3.47824 0.113534 4.18156C-0.0665729 4.88487 0.047807 5.23698 0.553906 5.52065ZM3.30142 8.58245C3.30863 8.41946 3.34285 8.27988 3.54547 8.3042C4.12541 8.37444 4.70534 8.44018 5.28258 8.53293C5.60497 8.58336 5.66891 8.84182 5.6518 9.12548C5.63019 9.4857 5.35552 9.3353 5.17361 9.35151C4.9917 9.36772 4.81342 9.35151 4.70356 9.35151C4.35742 9.35113 4.01169 9.32706 3.66883 9.27947C3.30592 9.20922 3.28792 8.89405 3.30142 8.58607V8.58245Z" fill="#F81734"/>
<path d="M2.48646 14.055C2.19648 14.055 1.89571 14.055 1.58592 14.0487C1.00418 14.0406 0.816869 13.8497 0.813266 13.2626C0.813266 12.6322 0.813266 12.0018 0.813266 11.367C0.813266 11.0872 0.813266 10.8071 0.813266 10.5268C0.813266 10.2776 0.813266 10.0282 0.813266 9.77842C0.813266 9.20658 0.813266 8.61583 0.813266 8.03499C0.788941 7.73579 0.824158 7.43475 0.916901 7.14925C1.00964 6.86376 1.15805 6.59948 1.35356 6.3717C1.45622 6.26004 1.49767 6.17988 1.48416 6.11865C1.47065 6.05741 1.4013 6.00519 1.27703 5.95296C1.07755 5.86506 0.88386 5.7646 0.6971 5.65218L0.540397 5.56212C0.0144865 5.26765 -0.104373 4.90203 0.0838377 4.16449C0.268447 3.44407 0.380987 3.35402 1.0816 3.34771H1.30764C1.47334 3.34771 1.64444 3.34771 1.81284 3.34771C1.97354 3.34554 2.1342 3.35427 2.29372 3.37384C2.58874 3.44425 2.89893 3.4125 3.17356 3.28378C3.38652 3.07894 3.5188 2.80443 3.54636 2.51023C3.5784 2.36272 3.61991 2.21744 3.67063 2.07527C3.78064 1.73803 3.99451 1.44423 4.28161 1.2359C4.56872 1.02756 4.91437 0.915364 5.2691 0.915374C5.66713 0.897363 6.07146 0.90187 6.46319 0.906373H6.83511C6.87293 0.906373 6.90987 0.90637 6.94589 0.911773H6.96119C7.29979 0.911773 7.37722 1.1063 7.39343 1.21976C7.40199 1.2969 7.40501 1.37454 7.40245 1.4521V2.03384C7.40245 3.05444 7.40245 4.07505 7.40245 5.09566V11.6929C7.40245 11.7938 7.40245 11.8947 7.40245 11.9946C7.4067 12.0478 7.40001 12.1013 7.38282 12.1518C7.36563 12.2022 7.3383 12.2487 7.30249 12.2882C7.25592 12.3301 7.20135 12.3621 7.14208 12.3824C7.08281 12.4027 7.02007 12.4108 6.95759 12.4062C6.91031 12.4108 6.8628 12.4129 6.81529 12.4125H6.55144C6.21884 12.4125 5.88655 12.4125 5.55455 12.4125H5.05567C4.60991 12.4125 4.38657 12.4125 4.28301 12.5151C4.17945 12.6178 4.17405 12.8456 4.16325 13.2986C4.15064 13.8389 3.95072 14.0379 3.3987 14.046C3.09792 14.0532 2.79804 14.055 2.48646 14.055ZM1.0708 3.44588C0.40981 3.44588 0.34227 3.50351 0.170269 4.18882C-0.00173279 4.87412 0.0964406 5.20642 0.580026 5.47748L0.737608 5.56752C0.920918 5.67786 1.111 5.77651 1.30673 5.8629C1.46703 5.92954 1.55168 6.00428 1.5715 6.09794C1.59131 6.1916 1.54539 6.29786 1.41751 6.43744C1.23106 6.65647 1.08979 6.91024 1.00185 7.18411C0.913906 7.45799 0.88103 7.74655 0.905111 8.03319C0.913216 8.61493 0.91142 9.20388 0.909618 9.77842C0.909618 10.0276 0.909618 10.277 0.909618 10.5268C0.909618 10.8065 0.909618 11.0866 0.909618 11.367C0.909618 11.9973 0.909618 12.6277 0.909618 13.2581C0.909618 13.7921 1.05731 13.9398 1.58592 13.947C2.23701 13.9551 2.82773 13.9551 3.39147 13.947C3.89216 13.9398 4.04886 13.7876 4.05967 13.295C4.08308 12.3323 4.1011 12.3143 5.05026 12.3143H5.54917C5.88176 12.3143 6.21405 12.3143 6.54605 12.3143H6.80991C6.85943 12.3143 6.89996 12.3143 6.94589 12.308C6.99621 12.3124 7.04689 12.3066 7.09498 12.2912C7.14306 12.2757 7.1876 12.2508 7.22596 12.218C7.25238 12.1877 7.27238 12.1524 7.28477 12.1141C7.29715 12.0759 7.30164 12.0355 7.29799 11.9955C7.29799 11.8938 7.29799 11.792 7.29799 11.6902V5.09295C7.29799 4.07235 7.29799 3.05175 7.29799 2.03114V1.4485C7.30047 1.37575 7.29776 1.30292 7.28988 1.23057C7.26917 1.08558 7.15661 1.00993 6.95399 1.00723H6.93597C6.89724 1.00723 6.86303 1.00183 6.82791 1.00183H6.45508C6.06515 1.00183 5.66171 0.992822 5.26638 1.01083C4.93076 1.01086 4.60377 1.11707 4.33218 1.31425C4.06059 1.51143 3.85835 1.78948 3.7544 2.10859C3.70528 2.24668 3.66497 2.38774 3.63372 2.53093C3.60172 2.84934 3.45475 3.14516 3.22036 3.36302C2.92708 3.50595 2.59371 3.54409 2.27572 3.47109C2.1207 3.45186 1.96454 3.44313 1.80834 3.44497C1.63814 3.45218 1.46525 3.45038 1.29865 3.44497L1.0708 3.44588ZM5.43569 9.42C5.39411 9.41919 5.35261 9.4159 5.31142 9.4101C5.26704 9.40327 5.2221 9.40056 5.17722 9.402C5.05406 9.41098 4.93052 9.41307 4.80712 9.40829H4.70354C4.57747 9.40109 4.46041 9.39749 4.34784 9.39389C4.11661 9.39435 3.88579 9.37447 3.65804 9.33446C3.22219 9.24441 3.24108 8.81485 3.25189 8.58431C3.2482 8.5341 3.25468 8.48366 3.27093 8.436C3.28718 8.38835 3.31286 8.34445 3.34645 8.30695C3.37524 8.28503 3.40832 8.26946 3.44355 8.26123C3.47878 8.25301 3.51535 8.25232 3.55086 8.25922L3.82104 8.29164C4.30372 8.34927 4.80261 8.40961 5.2907 8.48796C5.58967 8.53479 5.72385 8.7455 5.70133 9.13093C5.70343 9.17461 5.69654 9.21827 5.68105 9.25917C5.66556 9.30007 5.64179 9.33735 5.61128 9.36868C5.56069 9.40753 5.49745 9.42615 5.43388 9.42091L5.43569 9.42ZM5.20245 9.30294C5.24284 9.3038 5.28314 9.30711 5.32313 9.31285C5.39626 9.33404 5.47468 9.32697 5.54285 9.29303C5.58404 9.2469 5.6054 9.1864 5.60229 9.12463C5.6221 8.78964 5.52032 8.62213 5.27358 8.58431C4.78729 8.50596 4.2893 8.44653 3.80752 8.38799L3.53737 8.35558C3.51518 8.35061 3.49222 8.35028 3.4699 8.35462C3.44758 8.35895 3.42639 8.36787 3.40768 8.38079C3.36311 8.44023 3.34168 8.51384 3.34736 8.58791C3.33115 8.94812 3.37977 9.17506 3.67604 9.23809C3.89818 9.27682 4.12327 9.2961 4.34875 9.29572C4.46222 9.29572 4.58018 9.30203 4.70445 9.31014H4.808C4.92808 9.31504 5.04836 9.31324 5.16824 9.30474L5.20245 9.30294Z" fill="#F81734"/>
</svg>
