<svg id="Layer_1" data-name="Layer 1" xmlns="http://www.w3.org/2000/svg" viewBox="0 0 21.81 20.5"><defs><style>.cls-1{fill:#f81734;}.cls-2{fill:#fff;}</style></defs><path class="cls-1" d="M7.62,20.34a.82.82,0,0,1-.81-.82,3.37,3.37,0,0,1,3.27-3.37v-11a2,2,0,0,1-1.22-1.7l-2.46-1L9.13,7.94a.86.86,0,0,1,.09.39,4.51,4.51,0,0,1-9,0,.87.87,0,0,1,.07-.39L4,.65A.83.83,0,0,1,4.69.2.62.62,0,0,1,5,.2L9.4,1.86a2,2,0,0,1,1.5-.68,2.18,2.18,0,0,1,1.5.64A2.08,2.08,0,0,1,13,3.16L17.4,4.77a.77.77,0,0,1,.45.4l3.69,7.33a.86.86,0,0,1,.09.39,4.51,4.51,0,0,1-9,0,.86.86,0,0,1,.09-.39L16,6,12.4,4.68a2.08,2.08,0,0,1-.63.43v11A3.37,3.37,0,0,1,15,19.48a.82.82,0,0,1-.81.82Zm5.54-1.63a1.74,1.74,0,0,0-1.54-.93H10.18a1.74,1.74,0,0,0-1.54.93Zm1.17-5a2.88,2.88,0,0,0,5.52,0Zm5.13-1.63-2.37-4.7-2.37,4.7ZM2,9.13a2.88,2.88,0,0,0,5.52,0ZM7.07,7.5,4.69,2.82,2.34,7.5Zm3.82-4.68a.36.36,0,0,0-.28.12.41.41,0,0,0-.13.29.43.43,0,0,0,.13.3.36.36,0,0,0,.28.12.42.42,0,0,0,.43-.41h0a.42.42,0,0,0-.43-.41Z" transform="translate(0 0)"/><path class="cls-2" d="M4.69.4a.78.78,0,0,1,.21,0h0S9.4,2.09,9.4,2.1a1.8,1.8,0,0,1,1.44-.72,1.86,1.86,0,0,1,1.87,1.85V3.3L17.3,4.94a.59.59,0,0,1,.34.3l3.69,7.33a.67.67,0,0,1,.07.37,4.31,4.31,0,0,1-8.62,0,.63.63,0,0,1,.07-.3l3.38-6.71L12.3,4.44a1.93,1.93,0,0,1-.78.54V16.35h.1a3.17,3.17,0,0,1,3.17,3.17.61.61,0,0,1-.6.62H7.62A.61.61,0,0,1,7,19.53H7a3.17,3.17,0,0,1,3.17-3.17h.1V4.94a2.08,2.08,0,0,1-.69-.44,1.86,1.86,0,0,1-.54-1.28L5.94,2.13l3,5.9a.63.63,0,0,1,.07.3,4.31,4.31,0,0,1-8.61,0A.63.63,0,0,1,.47,8L4.14.74A.61.61,0,0,1,4.69.4ZM2,7.7H7.4L4.69,2.38,2,7.7Zm8.88-3.85a.62.62,0,0,0,.69-.54.61.61,0,0,0-.53-.69.43.43,0,0,0-.16,0,.58.58,0,0,0-.43.18.62.62,0,0,0,0,.87.64.64,0,0,0,.43.18Zm3.51,8.4h5.39l-2.7-5.31L14.4,12.25Zm-9.69-.86a3.08,3.08,0,0,0,3-2.45h-6a3.1,3.1,0,0,0,3,2.46Zm12.38,4.55a3.07,3.07,0,0,0,3-2.46h-6a3.06,3.06,0,0,0,3,2.46Zm-8.75,3h5.12a1.92,1.92,0,0,0-1.84-1.33H10.18a1.92,1.92,0,0,0-1.84,1.33ZM4.69,0h0a1,1,0,0,0-.91.56L.11,7.85A1,1,0,0,0,0,8.34a4.71,4.71,0,0,0,9.4,0,1.13,1.13,0,0,0-.11-.48l-2.55-5,1.92.69a2.14,2.14,0,0,0,.63,1.27,2.33,2.33,0,0,0,.57.42V15.94A3.57,3.57,0,0,0,6.59,19.5a1,1,0,0,0,1,1h6.56a1,1,0,0,0,1-1,3.58,3.58,0,0,0-3.23-3.56V5.24a2.41,2.41,0,0,0,.48-.3l3.27,1.19-3.18,6.31a1.08,1.08,0,0,0-.09.5,4.71,4.71,0,0,0,9.41,0,.89.89,0,0,0-.11-.48L18,5.08a1,1,0,0,0-.57-.5L13.14,3a2.27,2.27,0,0,0-.61-1.34A2.31,2.31,0,0,0,10.88.94a2.16,2.16,0,0,0-1.55.65L5,.05a1.61,1.61,0,0,0-.31,0Zm6.2,3.45a.2.2,0,0,1-.14-.06.24.24,0,0,1-.07-.16.21.21,0,0,1,.07-.15A.2.2,0,0,1,10.89,3a.21.21,0,0,1,.23.19v0a.22.22,0,0,1-.22.22ZM2.66,7.3l2-4,2.06,4Zm12.39,4.55,2-4.06,2,4.06ZM2.23,9.33h5a2.68,2.68,0,0,1-5,0Zm12.38,4.55h5a2.68,2.68,0,0,1-5,0ZM9,18.51a1.54,1.54,0,0,1,1.16-.57h1.44a1.51,1.51,0,0,1,1.16.53Z" transform="translate(0 0)"/></svg>