<svg width="34" height="34" viewBox="0 0 34 34" fill="none" xmlns="http://www.w3.org/2000/svg">
<path d="M3.07582 22.415C3.07582 21.0216 3.09267 19.6281 3.07582 18.2363C3.03706 17.7352 3.09829 17.2315 3.25601 16.7544C3.41374 16.2773 3.66477 15.8363 3.99452 15.4571C4.38345 15.0375 4.261 14.8262 3.78938 14.6195C3.33502 14.4092 2.89279 14.1735 2.46484 13.9136C1.67779 13.4542 1.54612 12.8218 1.85236 11.5632C2.05601 10.7195 2.4342 10.2463 3.40041 10.3198C4.39723 10.3949 5.40634 10.3045 6.40776 10.3489C6.96971 10.375 7.28515 10.2172 7.43061 9.65222C7.58538 9.11788 7.76783 8.59197 7.97725 8.0766C8.1526 7.52677 8.49729 7.04645 8.96207 6.70433C9.42685 6.36221 9.98792 6.1758 10.565 6.17176C11.4838 6.12276 12.4025 6.15491 13.3212 6.16103C13.7806 6.16103 14.1787 6.30497 14.1848 6.84856C14.1848 7.4442 13.7653 7.57284 13.2753 7.5759C12.4392 7.5759 11.6032 7.58968 10.7687 7.5759C10.4322 7.5444 10.0956 7.63329 9.81852 7.82676C9.54149 8.02024 9.34207 8.30572 9.25581 8.63242C9.03072 9.28932 8.7689 9.9355 8.55912 10.597C8.4716 10.9528 8.25937 11.2655 7.96099 11.4781C7.66261 11.6908 7.29785 11.7895 6.93295 11.7561C5.93051 11.7561 4.92756 11.7561 3.9241 11.7561C3.59948 11.7561 3.25495 11.6857 3.13858 12.1619C3.02221 12.6381 3.31774 12.7973 3.65461 12.9688C4.10173 13.1955 4.54734 13.4282 4.97761 13.6824C5.17986 13.7675 5.35788 13.9012 5.49593 14.0718C5.63397 14.2423 5.72775 14.4443 5.76883 14.6599C5.8099 14.8754 5.79704 15.0977 5.7314 15.3071C5.66575 15.5164 5.54935 15.7063 5.39256 15.8598C5.05952 16.2328 4.80511 16.6691 4.64462 17.1427C4.48413 17.6163 4.42083 18.1174 4.45849 18.616C4.49218 21.1793 4.48606 23.7425 4.45849 26.3043C4.45849 26.8678 4.57487 27.1526 5.18429 27.0561C5.32342 27.0452 5.4632 27.0452 5.60233 27.0561C7.11824 27.0561 7.11519 27.0561 7.28669 25.5678C7.28717 25.3987 7.3217 25.2314 7.38827 25.0759C7.45485 24.9205 7.55206 24.78 7.67412 24.663C7.79617 24.5459 7.94055 24.4547 8.09865 24.3946C8.25676 24.3346 8.42537 24.3071 8.59436 24.3137C10.2098 24.2815 11.8252 24.2984 13.4406 24.303C13.9 24.303 14.2063 24.5036 14.191 24.9966C14.1757 25.4897 13.8587 25.6719 13.41 25.6749C12.0733 25.6749 10.735 25.704 9.39824 25.6658C8.83934 25.6504 8.63263 25.7714 8.63263 26.3839C8.64488 28.4755 8.61885 28.4771 6.55477 28.4771C5.80294 28.4771 5.04958 28.4893 4.29775 28.4771C3.38973 28.4587 3.09723 28.1708 3.0911 27.2689C3.06814 25.6474 3.07582 24.0319 3.07582 22.415Z" fill="white" stroke="white" stroke-width="0.2"/>
<path d="M30.9103 22.5282C30.9103 24.0885 30.9103 25.6488 30.9103 27.2076C30.9103 28.1661 30.6225 28.4555 29.6716 28.4693C28.6416 28.4836 27.6111 28.4836 26.58 28.4693C25.6705 28.4555 25.3765 28.1523 25.3551 27.2719C25.3168 25.6748 25.3168 25.6748 23.7458 25.6748C22.7428 25.6748 21.7398 25.6748 20.7369 25.6748C20.2377 25.6748 19.8182 25.5569 19.8182 24.9644C19.8182 24.3718 20.2775 24.2906 20.7599 24.2921C22.1808 24.2921 23.6018 24.2921 25.0212 24.2921C26.2753 24.2921 26.773 24.7515 26.7056 26.0071C26.6643 26.8478 26.8924 27.105 27.7545 27.0713C29.5246 27.0009 29.5261 27.0514 29.5261 25.2706C29.5261 22.9585 29.5123 20.6463 29.5261 18.3342C29.5642 17.4653 29.2615 16.6159 28.6824 15.9669C28.4979 15.8115 28.3576 15.6102 28.2759 15.3832C28.1942 15.1562 28.1739 14.9117 28.2171 14.6743C28.2603 14.437 28.3654 14.2153 28.5219 14.0317C28.6784 13.848 28.8806 13.709 29.1081 13.6287C29.5904 13.3516 30.0774 13.079 30.5766 12.8355C30.9088 12.6732 30.8966 12.4282 30.8368 12.1373C30.7771 11.8464 30.5719 11.7514 30.2887 11.753C29.2581 11.753 28.2277 11.753 27.1971 11.753C26.7907 11.8252 26.3722 11.7332 26.0334 11.4973C25.6947 11.2613 25.4634 10.9006 25.3903 10.4943C25.1713 9.89405 24.9554 9.29076 24.7548 8.6844C24.6723 8.34221 24.469 8.04131 24.1824 7.83706C23.8957 7.63281 23.5449 7.53895 23.1945 7.57274C22.3585 7.59111 21.5224 7.58039 20.6879 7.57274C20.2285 7.57274 19.8258 7.45176 19.8044 6.90512C19.7799 6.30794 20.1964 6.16247 20.6909 6.15941C21.5821 6.15941 22.4748 6.12572 23.3645 6.15941C23.9552 6.15885 24.5309 6.34561 25.0088 6.69283C25.4867 7.04004 25.8422 7.52982 26.0242 8.0918C26.3029 8.81454 26.3136 9.79759 26.9077 10.1972C27.531 10.6183 28.4757 10.2922 29.278 10.3243C29.6945 10.3412 30.1141 10.3243 30.5321 10.3243C31.6958 10.3243 31.8505 10.4545 32.1598 11.658C32.4691 12.8616 32.2854 13.4695 31.4202 13.9549C31.0159 14.2003 30.5977 14.4222 30.1677 14.6194C29.6364 14.8414 29.6639 15.0926 30.0146 15.4692C30.6711 16.2426 30.9939 17.2449 30.9119 18.2561C30.895 19.6877 30.9103 21.1087 30.9103 22.5282Z" fill="white" stroke="white" stroke-width="0.2"/>
<path d="M16.3087 16.5457C16.3087 12.5942 16.3087 8.64258 16.3087 4.69101C16.302 4.46838 16.3066 4.24557 16.3224 4.02341C16.3346 3.85641 16.4086 3.69995 16.5301 3.58467C16.6515 3.46939 16.8116 3.40358 16.979 3.40014C17.1464 3.39669 17.3091 3.45584 17.4352 3.56603C17.5613 3.67621 17.6417 3.82948 17.6607 3.99584C17.6812 4.21724 17.6868 4.43976 17.6776 4.66192C17.6776 12.6243 17.6776 20.5831 17.6776 28.5383C17.6776 28.6776 17.6776 28.8169 17.6776 28.9563C17.6959 29.4356 17.5244 29.8138 17.0054 29.823C16.4863 29.8322 16.2979 29.4693 16.3071 28.9839C16.3071 28.65 16.3071 28.3163 16.3071 27.9824L16.3087 16.5457Z" fill="white" stroke="white" stroke-width="0.2"/>
<path d="M9.51298 20.4642C9.04136 20.4642 8.56671 20.4918 8.09816 20.4565C7.88659 20.4578 7.68246 20.3784 7.52741 20.2344C7.37236 20.0905 7.27803 19.8928 7.26362 19.6818C7.14572 18.8702 7.29423 18.7048 8.11344 18.7952C8.85761 18.8763 9.60333 18.9575 10.346 19.0509C10.7456 19.1014 11.133 19.2147 11.2371 19.671C11.355 20.187 11.352 20.6326 10.5956 20.5423C10.2355 20.5211 9.87455 20.5211 9.51452 20.5423L9.51298 20.4642Z" fill="white" stroke="white" stroke-width="0.2"/>
<path d="M24.3306 20.5377C24.1377 20.5377 23.8299 20.5591 23.5267 20.5377C23.2236 20.5163 22.7458 20.7674 22.7091 20.1519C22.68 19.6665 22.7887 19.2331 23.3415 19.1366C24.3276 18.9835 25.3198 18.8672 26.312 18.7462C26.6596 18.7049 26.7178 18.9437 26.7301 19.2209C26.7546 19.7476 26.7209 20.2927 26.1007 20.4183C25.5141 20.4984 24.9227 20.5383 24.3306 20.5377Z" fill="white" stroke="white" stroke-width="0.2"/>
</svg>
