<svg width="24" height="24" viewBox="0 0 24 24" fill="none" xmlns="http://www.w3.org/2000/svg">
<circle cx="12" cy="12" r="12" fill="#155EEF"/>
<path d="M16.2109 7.78906L7.78906 16.2109" stroke="white" stroke-width="1.6" stroke-linecap="round" stroke-linejoin="round"/>
<path d="M8.69141 10.1953C9.52199 10.1953 10.1953 9.52199 10.1953 8.69141C10.1953 7.86082 9.52199 7.1875 8.69141 7.1875C7.86082 7.1875 7.1875 7.86082 7.1875 8.69141C7.1875 9.52199 7.86082 10.1953 8.69141 10.1953Z" stroke="white" stroke-width="1.6" stroke-linecap="round" stroke-linejoin="round"/>
<path d="M15.3086 16.8125C16.1392 16.8125 16.8125 16.1392 16.8125 15.3086C16.8125 14.478 16.1392 13.8047 15.3086 13.8047C14.478 13.8047 13.8047 14.478 13.8047 15.3086C13.8047 16.1392 14.478 16.8125 15.3086 16.8125Z" stroke="white" stroke-width="1.6" stroke-linecap="round" stroke-linejoin="round"/>
</svg>
