<svg id="Layer_1" data-name="Layer 1" xmlns="http://www.w3.org/2000/svg" viewBox="0 0 19.21 19.21"><defs><style>.cls-1{fill:#fff;}.cls-2{fill:#081a3e;}</style></defs><path class="cls-1" d="M18,19.18a1.29,1.29,0,0,1-.55-.11,1.38,1.38,0,0,1-.47-.31L10,11.83,3.07,18.76a1.47,1.47,0,0,1-1,.42,1.45,1.45,0,0,1-1-.42,1.46,1.46,0,0,1-.43-1,1.41,1.41,0,0,1,.43-1L8,9.78,1,2.85a1.44,1.44,0,0,1,0-2A1.41,1.41,0,0,1,2,.37a1.44,1.44,0,0,1,1,.43L10,7.73,16.93.8a1.41,1.41,0,0,1,1-.43A1.48,1.48,0,0,1,19,.8a1.46,1.46,0,0,1,0,2.05L12.05,9.78,19,16.71a1.38,1.38,0,0,1,.31.47,1.29,1.29,0,0,1,.11.55,1.33,1.33,0,0,1-.11.56,1.48,1.48,0,0,1-.31.47,1.6,1.6,0,0,1-.47.31A1.36,1.36,0,0,1,18,19.18Z" transform="translate(-0.39 -0.17)"/><path class="cls-2" d="M18,.57a1.3,1.3,0,0,1,.89.37,1.25,1.25,0,0,1,.36.88,1.27,1.27,0,0,1-.36.89L11.77,9.78l7.07,7.07a1.46,1.46,0,0,1,.27.41,1.27,1.27,0,0,1,.09.47,1.28,1.28,0,0,1-.09.48,1.62,1.62,0,0,1-.27.41,1.39,1.39,0,0,1-.41.27A1.28,1.28,0,0,1,18,19a1.36,1.36,0,0,1-.48-.09,1.34,1.34,0,0,1-.4-.27L10,11.55,2.93,18.62A1.29,1.29,0,0,1,2,19,1.25,1.25,0,0,1,.79,17.73a1.22,1.22,0,0,1,.37-.88L8.23,9.78,1.16,2.71a1.24,1.24,0,0,1-.37-.89A1.22,1.22,0,0,1,1.16.94,1.26,1.26,0,0,1,2,.57a1.3,1.3,0,0,1,.89.37L10,8,17.07.94A1.26,1.26,0,0,1,18,.57m0-.4a1.64,1.64,0,0,0-1.16.49L10,7.45,3.21.66A1.66,1.66,0,0,0,2,.17,1.64,1.64,0,0,0,.88.66,1.6,1.6,0,0,0,.39,1.82,1.6,1.6,0,0,0,.88,3L7.66,9.78.88,16.57a1.6,1.6,0,0,0-.49,1.16A1.62,1.62,0,0,0,.88,18.9,1.63,1.63,0,0,0,2,19.38a1.65,1.65,0,0,0,1.17-.48L10,12.11l6.79,6.79a1.47,1.47,0,0,0,.53.36,1.72,1.72,0,0,0,.63.12,1.68,1.68,0,0,0,.63-.12,1.42,1.42,0,0,0,.54-.36,1.58,1.58,0,0,0,.48-1.17,1.72,1.72,0,0,0-.12-.63,1.77,1.77,0,0,0-.36-.53L12.33,9.78,19.12,3a1.65,1.65,0,0,0,.48-1.17A1.63,1.63,0,0,0,19.12.66,1.66,1.66,0,0,0,18,.17Z" transform="translate(-0.39 -0.17)"/></svg>