<svg xmlns="http://www.w3.org/2000/svg" width="17.3" height="10.548" viewBox="0 0 17.3 10.548">
  <g id="king" transform="translate(0.15 -98.604)">
    <g id="Group_6784" data-name="Group 6784" transform="translate(0 98.754)">
      <path id="Path_26987" data-name="Path 26987" d="M14.065,107.6H2.675L1.49,102.538a1.564,1.564,0,1,1,1.165-.462c1.889,2.041,3.445,1.883,4.89-.545a1.556,1.556,0,1,1,1.833.054c1.242,2.386,2.832,2.508,4.909.494a1.552,1.552,0,1,1,1.17.522Zm-10.838-.7H13.536l1.192-4.29c-2.523,2.415-4.687,2.019-6.129-1.035l-.131-.277-.149.271c-1.686,3.063-3.822,3.445-6.091,1.061Zm11.894-5.053.147.03a.868.868,0,1,0-.284-.119ZM1.554,100.128a.858.858,0,0,0,0,1.715.847.847,0,0,0,.147-.016l.141-.025.133-.076a.847.847,0,0,0,.436-.741A.859.859,0,0,0,1.554,100.128ZM8.5,99.45a.857.857,0,0,0-.344,1.641l.312.138.327-.121A.855.855,0,0,0,8.5,99.45Z" transform="translate(0 -98.754)" fill="#282b39" stroke="#282b39" stroke-width="0.3"/>
      <path id="Path_26988" data-name="Path 26988" d="M90.663,378.717H80.074a.351.351,0,0,1-.35-.35h0a.351.351,0,0,1,.35-.35H90.663a.351.351,0,0,1,.35.35h0A.352.352,0,0,1,90.663,378.717Z" transform="translate(-76.999 -368.469)" fill="#282b39" stroke="#282b39" stroke-width="0.3"/>
    </g>
  </g>
</svg>
