<svg width="14" height="11" viewBox="0 0 14 11" fill="none" xmlns="http://www.w3.org/2000/svg">
<path d="M7.16028 1.26707L7.13169 0L6.23968 0.453154L6.21438 1.27257C2.73983 1.61024 0 5.43566 0 10.108C0 10.4094 0.0113657 10.7067 0.0340967 11H1.25057C1.23958 10.78 1.23188 10.5688 1.23188 10.35C1.23188 6.11209 3.40746 2.63424 6.18138 2.26137L5.93281 10.2213L7.34396 9.54155L7.18008 2.26247C9.9496 2.64303 12.1197 6.11759 12.1197 10.35C12.1197 10.5699 12.112 10.7899 12.101 11H13.3912C13.4132 10.7067 13.4245 10.4094 13.4253 10.108C13.4297 5.41146 10.6568 1.57064 7.16028 1.26707Z" fill="#646E95"/>
</svg>
