<svg width="24" height="24" viewBox="0 0 24 24" fill="none" xmlns="http://www.w3.org/2000/svg">
<path d="M22.7987 17.3998V6.5998C22.7987 5.6038 21.9947 4.7998 20.9987 4.7998H4.18672C3.19072 4.7998 2.38672 5.6038 2.38672 6.5998V17.3998C2.38672 18.3958 3.19072 19.1998 4.18672 19.1998H20.9987C21.9947 19.1998 22.7987 18.3958 22.7987 17.3998ZM21.2267 6.4678C21.6227 6.8638 21.4067 7.27181 21.1907 7.47581L16.3187 11.9398L20.9987 16.8118C21.1427 16.9798 21.2387 17.2438 21.0707 17.4238C20.9147 17.6158 20.5547 17.6038 20.3987 17.4838L15.1547 13.0078L12.5867 15.3478L10.0307 13.0078L4.78672 17.4838C4.63072 17.6038 4.27072 17.6158 4.11472 17.4238C3.94672 17.2438 4.04272 16.9798 4.18672 16.8118L8.86672 11.9398L3.99472 7.47581C3.77872 7.27181 3.56272 6.8638 3.95872 6.4678C4.35472 6.0718 4.76272 6.2638 5.09872 6.55181L12.5867 12.5998L20.0867 6.55181C20.4227 6.2638 20.8307 6.0718 21.2267 6.4678Z" fill="#155EEF"/>
</svg>
