<svg id="Layer_1" data-name="Layer 1" xmlns="http://www.w3.org/2000/svg" viewBox="0 0 17 9.65">
  <g>
    <path class="cls-1" d="M16.83,3.87l-2.7-2.7A.63.63,0,0,0,13.7,1a.59.59,0,0,0-.42.17.6.6,0,0,0,0,.86L15,3.7H6.78a.59.59,0,0,0-.42.17.59.59,0,0,0,0,.85.6.6,0,0,0,.42.18H15L13.28,6.57A.6.6,0,0,0,13.1,7a.64.64,0,0,0,.18.43.59.59,0,0,0,.42.17.61.61,0,0,0,.43-.17l2.7-2.7a.62.62,0,0,0,0-.85Z" transform="translate(0 -1)"/>
    <path class="cls-1" d="M10.22,6.75H2.06L3.73,5.07a.59.59,0,0,0,.17-.42.61.61,0,0,0-.17-.43.53.53,0,0,0-.2-.13.57.57,0,0,0-.65.13L.18,6.92a.53.53,0,0,0-.13.2.59.59,0,0,0,0,.23.68.68,0,0,0,.05.23.5.5,0,0,0,.13.19l2.7,2.7a.6.6,0,0,0,.42.18.62.62,0,0,0,.43-.18.59.59,0,0,0,.17-.42.61.61,0,0,0-.17-.43L2.06,8h8.16a.6.6,0,0,0,.43-.18.6.6,0,0,0,0-.84A.6.6,0,0,0,10.22,6.75Z" transform="translate(0 -1)"/>
  </g>
</svg>
