<svg width="22" height="22" viewBox="0 0 22 22" fill="none" xmlns="http://www.w3.org/2000/svg">
<path d="M19.4788 8.3875C17.3613 5.06 14.263 3.14417 10.9997 3.14417C9.36801 3.14417 7.78217 3.62083 6.33384 4.51C4.88551 5.40833 3.58384 6.71916 2.52051 8.3875C1.60384 9.82666 1.60384 12.1642 2.52051 13.6033C4.63801 16.94 7.73634 18.8467 10.9997 18.8467C12.6313 18.8467 14.2172 18.37 15.6655 17.4808C17.1138 16.5825 18.4155 15.2717 19.4788 13.6033C20.3955 12.1733 20.3955 9.82666 19.4788 8.3875ZM10.9997 14.7033C8.94634 14.7033 7.29634 13.0442 7.29634 11C7.29634 8.95583 8.94634 7.29666 10.9997 7.29666C13.053 7.29666 14.703 8.95583 14.703 11C14.703 13.0442 13.053 14.7033 10.9997 14.7033Z" fill="#697586"/>
<path d="M11.0002 8.37836C9.56103 8.37836 8.3877 9.55169 8.3877 11C8.3877 12.4392 9.56103 13.6125 11.0002 13.6125C12.4394 13.6125 13.6219 12.4392 13.6219 11C13.6219 9.56086 12.4394 8.37836 11.0002 8.37836Z" fill="#697586"/>
</svg>
