<svg id="Layer_1" data-name="Layer 1" xmlns="http://www.w3.org/2000/svg" viewBox="0 0 16.4 9.73">
  <g>
    <path class="cls-1" d="M17.11,5.36A13.13,13.13,0,0,0,14.84,3,9.23,9.23,0,0,0,9,.8,9.4,9.4,0,0,0,3.44,3,16.64,16.64,0,0,0,.93,5.32h0A.53.53,0,0,0,.93,6,17,17,0,0,0,3.44,8.34,9.45,9.45,0,0,0,9,10.53a9.45,9.45,0,0,0,5.56-2.19A16.4,16.4,0,0,0,17.07,6,.54.54,0,0,0,17.11,5.36ZM9,9.47A8.05,8.05,0,0,1,4.57,7.83,16.58,16.58,0,0,1,2.06,5.67,16,16,0,0,1,4.57,3.51,8,8,0,0,1,9,1.87,8.06,8.06,0,0,1,13.7,3.5,12.07,12.07,0,0,1,16,5.64a16.52,16.52,0,0,1-2.51,2.17A8,8,0,0,1,9,9.47Z" transform="translate(-0.8 -0.8)"/>
    <path class="cls-1" d="M9,2.8a2.87,2.87,0,1,0,2.87,2.87A2.88,2.88,0,0,0,9,2.8Zm1.8,2.87A1.8,1.8,0,1,1,9,3.87,1.81,1.81,0,0,1,10.8,5.67Z" transform="translate(-0.8 -0.8)"/>
  </g>
</svg>
