<svg width="9" height="16" viewBox="0 0 9 16"  xmlns="http://www.w3.org/2000/svg">
<path d="M5.41504 3.70301V5.766H8.24292L7.84302 8.72297H5.41113V16H2.44702V8.72297H0V5.76001H2.44702V3.27301C2.44722 2.84277 2.53213 2.41674 2.69702 2.01935C2.86191 1.62196 3.1035 1.26097 3.40796 0.956974C3.71249 0.652955 4.07394 0.411956 4.47168 0.247745C4.86942 0.083535 5.29577 -0.000635512 5.72607 3.61258e-06H8.28003V2.66101H6.4519C6.3152 2.65996 6.17963 2.68589 6.05298 2.73737C5.92633 2.78885 5.81131 2.86486 5.71411 2.961C5.61767 3.05876 5.54156 3.17464 5.49023 3.30201C5.43891 3.42937 5.41332 3.5657 5.41504 3.70301Z" fill="currentColor" />
</svg>
