<svg id="Layer_1" data-name="Layer 1" xmlns="http://www.w3.org/2000/svg" viewBox="0 0 11.04 17.29">
  <path class="cls-1" d="M11.75,9.83,9.09,6.93l2.66-2.87a.5.5,0,0,0,.13-.26.44.44,0,0,0-.05-.28.45.45,0,0,0-.2-.21.42.42,0,0,0-.26-.06H2.63a1.3,1.3,0,0,0,.48-.42,1.32,1.32,0,0,0,.24-.72A1.26,1.26,0,0,0,3,1.22a1.29,1.29,0,0,0-1.77,0,1.27,1.27,0,0,0-.36.91,1.29,1.29,0,0,0,.25.7,1.25,1.25,0,0,0,.49.42V17.63a.51.51,0,0,0,.15.37.56.56,0,0,0,.37.15A.51.51,0,0,0,2.48,18a.56.56,0,0,0,.15-.37V10.76h8.75a.54.54,0,0,0,.28-.11.51.51,0,0,0,.17-.22.49.49,0,0,0,.05-.31A.43.43,0,0,0,11.75,9.83ZM2.31,2.11a.2.2,0,0,1-.06.15.23.23,0,0,1-.28,0,.16.16,0,0,1-.08-.1.19.19,0,0,1,0-.13A.14.14,0,0,1,1.94,2a.24.24,0,0,1,.11-.06h0a.11.11,0,0,1,.08,0,.16.16,0,0,1,.1.08A.16.16,0,0,1,2.31,2.11ZM8,7.33,10.2,9.72H2.63V4.29h7.56L8,6.61A.52.52,0,0,0,7.88,7,.54.54,0,0,0,8,7.33Z" transform="translate(-0.85 -0.86)"/>
</svg>
