<svg width="40" height="40" viewBox="0 0 40 40" fill="none" xmlns="http://www.w3.org/2000/svg">
<path d="M30.5701 15.06H32.6801C33.5652 15.0469 34.4096 14.686 35.0308 14.0554C35.6521 13.4249 36.0002 12.5752 36.0001 11.69V5.36C35.9976 4.47655 35.6483 3.62942 35.0273 3.00099C34.4064 2.37256 33.5635 2.0131 32.6801 2L30.5701 2C29.6781 2 28.8224 2.35368 28.1907 2.98351C27.559 3.61335 27.2028 4.46795 27.2001 5.36V7.27H23.1401C22.8908 6.64631 22.4603 6.11164 21.9042 5.73501C21.3481 5.35838 20.6918 5.15708 20.0201 5.15708C19.3485 5.15708 18.6922 5.35838 18.1361 5.73501C17.5799 6.11164 17.1494 6.64631 16.9001 7.27H12.8401V5.36C12.8375 4.46795 12.4813 3.61335 11.8496 2.98351C11.2178 2.35368 10.3622 2 9.47013 2L7.36013 2C6.46982 2.00264 5.61672 2.35748 4.98717 2.98704C4.35762 3.61659 4.00277 4.46968 4.00013 5.36V11.69C4.00013 12.582 4.35381 13.4377 4.98365 14.0694C5.61348 14.7011 6.46809 15.0574 7.36013 15.06H9.47013C10.3639 15.06 11.2211 14.7049 11.8531 14.0729C12.4851 13.441 12.8401 12.5838 12.8401 11.69V9.78H16.9001C17.0711 10.2008 17.3247 10.5831 17.6459 10.9043C17.967 11.2254 18.3493 11.479 18.7701 11.65V19C17.9132 19.0509 17.108 19.427 16.5189 20.0514C15.9298 20.6758 15.6012 21.5015 15.6001 22.36V24.47C15.6012 25.3285 15.9298 26.1542 16.5189 26.7786C17.108 27.403 17.9132 27.7791 18.7701 27.83V30.6H12.8401V28.71C12.8401 28.2674 12.753 27.8292 12.5836 27.4204C12.4142 27.0115 12.166 26.64 11.8531 26.327C11.5401 26.0141 11.1686 25.7659 10.7598 25.5965C10.3509 25.4272 9.91269 25.34 9.47013 25.34H7.36013C6.46809 25.3426 5.61348 25.6989 4.98365 26.3306C4.35381 26.9623 4.00013 27.8179 4.00013 28.71V35C3.99618 35.4442 4.08009 35.8849 4.24705 36.2965C4.41401 36.7082 4.66072 37.0828 4.97299 37.3988C5.28526 37.7148 5.65692 37.9659 6.0666 38.1378C6.47628 38.3096 6.91589 38.3987 7.36013 38.4H9.47013C9.91522 38.4 10.3559 38.3119 10.7667 38.1406C11.1776 37.9694 11.5504 37.7185 11.8638 37.4024C12.1771 37.0863 12.4247 36.7112 12.5923 36.2989C12.7599 35.8865 12.8441 35.4451 12.8401 35V33.13H27.2001V35C27.2028 35.892 27.559 36.7467 28.1907 37.3765C28.8224 38.0063 29.6781 38.36 30.5701 38.36H32.6801C33.5635 38.3469 34.4064 37.9874 35.0273 37.359C35.6483 36.7306 35.9976 35.8834 36.0001 35V28.71C36.0001 27.8179 35.6465 26.9623 35.0166 26.3306C34.3868 25.6989 33.5322 25.3426 32.6401 25.34H30.5701C30.1276 25.34 29.6894 25.4272 29.2805 25.5965C28.8716 25.7659 28.5001 26.0141 28.1872 26.327C27.8743 26.64 27.626 27.0115 27.4567 27.4204C27.2873 27.8292 27.2001 28.2674 27.2001 28.71V30.62H21.2801V27.85C22.1353 27.7966 22.938 27.4195 23.525 26.7953C24.112 26.1712 24.4393 25.3468 24.4401 24.49V22.38C24.4444 21.5197 24.1194 20.6904 23.5319 20.062C22.9444 19.4335 22.1388 19.0536 21.2801 19V11.65C21.6988 11.4774 22.0789 11.2232 22.3982 10.9021C22.7176 10.581 22.9698 10.1996 23.1401 9.78H27.2001V11.69C27.2001 12.1326 27.2873 12.5708 27.4567 12.9796C27.626 13.3885 27.8743 13.76 28.1872 14.0729C28.8192 14.7049 29.6764 15.06 30.5701 15.06ZM30.5701 4.51H32.6801C32.9056 4.51 33.1218 4.59955 33.2812 4.75896C33.4406 4.91837 33.5301 5.13457 33.5301 5.36V11.69C33.5301 11.9164 33.4409 12.1336 33.2818 12.2946C33.1227 12.4556 32.9065 12.5474 32.6801 12.55H30.5701C30.3429 12.5474 30.1256 12.456 29.9649 12.2952C29.8042 12.1345 29.7127 11.9173 29.7101 11.69V5.36C29.7128 5.13365 29.8045 4.91747 29.9655 4.75834C30.1265 4.59922 30.3438 4.50998 30.5701 4.51ZM20.0001 7.67C20.1202 7.657 20.2416 7.66942 20.3565 7.70646C20.4715 7.7435 20.5773 7.80433 20.6672 7.88499C20.757 7.96564 20.8289 8.06431 20.8781 8.17458C20.9273 8.28486 20.9527 8.40425 20.9527 8.525C20.9527 8.64575 20.9273 8.76514 20.8781 8.87542C20.8289 8.98569 20.757 9.08436 20.6672 9.16501C20.5773 9.24567 20.4715 9.3065 20.3565 9.34354C20.2416 9.38058 20.1202 9.393 20.0001 9.38C19.7747 9.38 19.5585 9.29045 19.3991 9.13104C19.2397 8.97163 19.1501 8.75543 19.1501 8.53C19.1501 8.30364 19.2394 8.08639 19.3985 7.9254C19.5576 7.7644 19.7738 7.67263 20.0001 7.67ZM18.1101 22.38C18.1101 22.2675 18.1324 22.1562 18.1758 22.0524C18.2191 21.9486 18.2826 21.8545 18.3626 21.7754C18.4426 21.6963 18.5375 21.6339 18.6418 21.5918C18.7461 21.5497 18.8577 21.5287 18.9701 21.53H21.0801C21.3056 21.53 21.5218 21.6196 21.6812 21.779C21.8406 21.9384 21.9301 22.1546 21.9301 22.38V24.49C21.9301 24.6016 21.9081 24.7122 21.8654 24.8153C21.8227 24.9184 21.7601 25.0121 21.6812 25.091C21.6022 25.17 21.5085 25.2326 21.4054 25.2753C21.3023 25.318 21.1918 25.34 21.0801 25.34H19.0001C18.8877 25.3413 18.7761 25.3203 18.6718 25.2782C18.5675 25.2361 18.4726 25.1737 18.3926 25.0946C18.3126 25.0155 18.2491 24.9214 18.2058 24.8176C18.1624 24.7138 18.1401 24.6025 18.1401 24.49L18.1101 22.38ZM6.51013 5.38C6.51013 5.15457 6.59969 4.93837 6.75909 4.77896C6.9185 4.61955 7.1347 4.53 7.36013 4.53H9.47013C9.6965 4.52998 9.91374 4.61922 10.0747 4.77834C10.2357 4.93747 10.3275 5.15365 10.3301 5.38V11.69C10.3275 11.9173 10.2361 12.1345 10.0754 12.2952C9.91465 12.456 9.69741 12.5474 9.47013 12.55H7.36013C7.13378 12.5474 6.9176 12.4556 6.75848 12.2946C6.59935 12.1336 6.51012 11.9164 6.51013 11.69V5.38ZM6.51013 28.73C6.51012 28.5036 6.59935 28.2864 6.75848 28.1254C6.9176 27.9644 7.13378 27.8726 7.36013 27.87H9.47013C9.69741 27.8726 9.91465 27.964 10.0754 28.1248C10.2361 28.2855 10.3275 28.5027 10.3301 28.73V35C10.3275 35.2263 10.2357 35.4425 10.0747 35.6017C9.91374 35.7608 9.6965 35.85 9.47013 35.85H7.36013C7.1347 35.85 6.9185 35.7604 6.75909 35.601C6.59969 35.4416 6.51013 35.2254 6.51013 35V28.73ZM30.5701 27.87H32.6801C32.9065 27.8726 33.1227 27.9644 33.2818 28.1254C33.4409 28.2864 33.5301 28.5036 33.5301 28.73V35C33.5301 35.2254 33.4406 35.4416 33.2812 35.601C33.1218 35.7604 32.9056 35.85 32.6801 35.85H30.5701C30.3438 35.85 30.1265 35.7608 29.9655 35.6017C29.8045 35.4425 29.7128 35.2263 29.7101 35V28.71C29.7127 28.4827 29.8042 28.2655 29.9649 28.1048C30.1256 27.944 30.3429 27.8526 30.5701 27.85V27.87Z" fill="#697586"/>
<path d="M32.68 2H30.57C29.6779 2 28.8223 2.35368 28.1906 2.98351C27.5589 3.61335 27.2026 4.46795 27.2 5.36V7.27H23.14C22.8907 6.64631 22.4602 6.11164 21.9041 5.73501C21.3479 5.35838 20.6917 5.15708 20.02 5.15708C19.3483 5.15708 18.6921 5.35838 18.1359 5.73501C17.5798 6.11164 17.1493 6.64631 16.9 7.27H12.84V5.36C12.8374 4.46795 12.4811 3.61335 11.8494 2.98351C11.2177 2.35368 10.362 2 9.47 2L7.36 2C6.46968 2.00264 5.61659 2.35748 4.98704 2.98704C4.35748 3.61659 4.00264 4.46968 4 5.36L4 11.69C4 12.582 4.35368 13.4377 4.98351 14.0694C5.61335 14.7011 6.46795 15.0574 7.36 15.06H9.47C10.3638 15.06 11.221 14.7049 11.8529 14.0729C12.4849 13.441 12.84 12.5838 12.84 11.69V9.78H16.9C17.0776 10.2239 17.3478 10.6248 17.6927 10.9559C18.0376 11.287 18.4492 11.5407 18.9 11.7C19.4161 11.7776 19.939 11.8011 20.46 11.77H20.91H20.99H21.06H21.17C21.6059 11.6073 22.0028 11.355 22.3353 11.0295C22.6677 10.704 22.9282 10.3124 23.1 9.88H27.2V11.69C27.2 12.5838 27.5551 13.441 28.187 14.0729C28.819 14.7049 29.6762 15.06 30.57 15.06H32.68C33.5651 15.0469 34.4095 14.686 35.0307 14.0554C35.6519 13.4249 36.0001 12.5752 36 11.69V5.36C35.9975 4.47655 35.6481 3.62942 35.0272 3.00099C34.4062 2.37256 33.5634 2.0131 32.68 2ZM29.68 5.36C29.6826 5.13365 29.7744 4.91747 29.9354 4.75834C30.0964 4.59922 30.3136 4.50998 30.54 4.51H32.65C32.8754 4.51 33.0916 4.59955 33.251 4.75896C33.4104 4.91837 33.5 5.13457 33.5 5.36V11.69C33.5 11.9164 33.4108 12.1336 33.2517 12.2946C33.0925 12.4556 32.8763 12.5474 32.65 12.55H30.57C30.3427 12.5474 30.1255 12.456 29.9648 12.2952C29.804 12.1345 29.7126 11.9173 29.71 11.69L29.68 5.36ZM20 7.67C20.12 7.657 20.2415 7.66942 20.3564 7.70646C20.4713 7.7435 20.5772 7.80433 20.667 7.88499C20.7569 7.96564 20.8288 8.06431 20.878 8.17458C20.9272 8.28486 20.9526 8.40425 20.9526 8.525C20.9526 8.64575 20.9272 8.76514 20.878 8.87542C20.8288 8.98569 20.7569 9.08436 20.667 9.16501C20.5772 9.24567 20.4713 9.3065 20.3564 9.34354C20.2415 9.38058 20.12 9.393 20 9.38C19.7746 9.38 19.5584 9.29045 19.399 9.13104C19.2396 8.97163 19.15 8.75543 19.15 8.53C19.15 8.30364 19.2392 8.08639 19.3983 7.9254C19.5575 7.7644 19.7737 7.67263 20 7.67ZM6.51 5.36C6.51 5.13457 6.59955 4.91837 6.75896 4.75896C6.91837 4.59955 7.13457 4.51 7.36 4.51H9.47C9.69636 4.50998 9.91361 4.59922 10.0746 4.75834C10.2356 4.91747 10.3274 5.13365 10.33 5.36V11.69C10.3274 11.9173 10.236 12.1345 10.0752 12.2952C9.91452 12.456 9.69728 12.5474 9.47 12.55H7.36C7.13365 12.5474 6.91747 12.4556 6.75834 12.2946C6.59922 12.1336 6.50998 11.9164 6.51 11.69V5.36Z" fill="#004EEB"/>
</svg>
