<svg width="12" height="11" viewBox="0 0 12 11"  xmlns="http://www.w3.org/2000/svg">
<g clip-path="url(#clip0)">
<path d="M10.4069 0H1.327C0.974958 0.000282763 0.637434 0.140328 0.388604 0.389358C0.139774 0.638388 -1.13559e-07 0.976024 0 1.32806L0 9.673C0.000564819 10.0247 0.140588 10.3618 0.389357 10.6103C0.638126 10.8589 0.975327 10.9986 1.327 10.9989H10.4069C10.7587 10.9989 11.096 10.8593 11.3449 10.6106C11.5937 10.362 11.7336 10.0248 11.7339 9.673V1.32806C11.7339 0.976024 11.5941 0.638388 11.3453 0.389358C11.0965 0.140328 10.7589 0.000282763 10.4069 0ZM7.58757 1.97343C7.84074 1.97343 8.08823 2.0485 8.29873 2.18916C8.50924 2.32981 8.67331 2.52973 8.77019 2.76363C8.86708 2.99753 8.89243 3.25491 8.84303 3.50322C8.79364 3.75153 8.67173 3.97961 8.49271 4.15863C8.31369 4.33765 8.0856 4.45957 7.8373 4.50896C7.58899 4.55835 7.33161 4.533 7.09771 4.43611C6.86381 4.33923 6.66389 4.17516 6.52323 3.96466C6.38258 3.75415 6.30751 3.50666 6.30751 3.25349C6.30751 2.914 6.44237 2.58841 6.68243 2.34835C6.92249 2.10829 7.24807 1.97343 7.58757 1.97343ZM9.99088 9.77114H1.92649C1.85544 9.78288 1.78249 9.77321 1.71696 9.74335C1.65142 9.71348 1.59626 9.66478 1.5585 9.60346C1.52075 9.54213 1.5021 9.47095 1.50495 9.39898C1.50779 9.32702 1.532 9.25754 1.57448 9.19938L3.77405 4.8429C3.79616 4.77371 3.83814 4.71256 3.89475 4.66705C3.95137 4.62155 4.02012 4.59371 4.09245 4.587C4.16477 4.58029 4.23747 4.59501 4.30149 4.62932C4.36551 4.66363 4.41802 4.71602 4.45248 4.77996L6.66486 7.67077C6.7116 7.73641 6.77239 7.7908 6.84281 7.82998C6.91323 7.86916 6.99149 7.89214 7.07192 7.89725C7.15234 7.90236 7.23288 7.88947 7.30769 7.85952C7.3825 7.82957 7.44969 7.78331 7.50436 7.72411L8.04519 7.17581C8.09842 7.11672 8.16461 7.07076 8.23857 7.04152C8.31253 7.01228 8.39225 7.00056 8.4715 7.00728C8.55074 7.01399 8.62736 7.03896 8.69534 7.08023C8.76333 7.1215 8.82084 7.17795 8.86336 7.24515L10.265 9.24631C10.4677 9.53753 10.3472 9.77221 9.99088 9.77221V9.77114Z" />
</g>
<defs>
<clipPath id="clip0">
<rect width="11.7339" height="11" />
</clipPath>
</defs>
</svg>
