<svg id="Layer_1" data-name="Layer 1" xmlns="http://www.w3.org/2000/svg" viewBox="0 0 14 14">
  <g>
    <path class="cls-1" d="M7,0a7,7,0,1,0,7,7A7,7,0,0,0,7,0ZM7,13a6,6,0,1,1,6-6A6,6,0,0,1,7,13Z"/>
    <path class="cls-1" d="M7.41,10.09A.5.5,0,0,0,7.22,10a.54.54,0,0,0-.22,0,.57.57,0,0,0-.32.09.64.64,0,0,0-.22.27.61.61,0,0,0,0,.33.58.58,0,0,0,.46.46.61.61,0,0,0,.33,0,.56.56,0,0,0,.26-.22.53.53,0,0,0,.1-.32.54.54,0,0,0,0-.22A.43.43,0,0,0,7.41,10.09Z"/>
    <path class="cls-1" d="M7,8.8H7a.48.48,0,0,0,.34-.14.53.53,0,0,0,.15-.34v-5A.53.53,0,0,0,7.34,3a.52.52,0,0,0-.68,0,.53.53,0,0,0-.15.33v5a.45.45,0,0,0,.15.34A.48.48,0,0,0,7,8.8Z"/>
  </g>
</svg>
