<svg width="22" height="22" viewBox="0 0 22 22" fill="none" xmlns="http://www.w3.org/2000/svg">
<path d="M11 0C4.9247 0 0 4.9247 0 11C0 17.0753 4.9247 22 11 22C17.0753 22 22 17.0753 22 11C22 4.9247 17.0753 0 11 0ZM11 5.5C11.6072 5.5 12.1 5.9928 12.1 6.6C12.1 7.2072 11.6072 7.7 11 7.7C10.3928 7.7 9.89998 7.2072 9.89998 6.6C9.89998 5.9928 10.3928 5.5 11 5.5ZM9.89998 8.8C10.0782 8.8 10.8614 8.8 11 8.8C11.6941 8.8 12.2023 9.4259 12.0659 10.1068L11.2409 14.3H12.1C12.7072 14.3 13.2 14.7928 13.2 15.4C13.2 16.0072 12.7072 16.5 12.1 16.5H11C9.69868 16.5 8.7857 15.3703 9.04088 14.0932L9.69318 10.9318C9.19488 10.8262 8.8 10.4302 8.8 9.9C8.8 9.2928 9.29278 8.8 9.89998 8.8Z" fill="#CDD5DF"/>
</svg>
