<svg width="28" height="42" viewBox="0 0 28 42" fill="none" xmlns="http://www.w3.org/2000/svg">
<mask id="path-1-outside-1" maskUnits="userSpaceOnUse" x="-0.234375" y="0" width="28" height="42" fill="black">
<rect fill="white" x="-0.234375" width="28" height="42"/>
<path d="M14.4933 1.2961C14.3451 1.02172 14.0032 0.919973 13.7292 1.06786C13.632 1.12011 13.5532 1.19955 13.5009 1.2961C12.9549 2.30656 12.012 3.83125 10.9202 5.59518C6.86041 12.141 0.765625 22.0295 0.765625 27.768C0.773264 35.0724 6.69267 40.9915 13.9971 40.9992C21.2218 41.0795 27.1437 35.2875 27.2237 28.0628C27.2247 27.9644 27.2247 27.8664 27.2237 27.768C27.2237 22.0114 20.7953 11.6133 16.961 5.39688C15.9053 3.70047 14.9984 2.23445 14.4933 1.2961ZM13.9971 39.8714C7.31538 39.8638 1.90074 34.4488 1.89341 27.768C1.89341 22.3543 8.14586 12.2311 11.8812 6.18642C12.7022 4.83284 13.4422 3.66014 13.9971 2.70805C14.5114 3.58314 15.1924 4.68862 15.9954 5.98781C19.776 12.1003 26.096 22.3319 26.096 27.768C26.1687 34.3801 20.8677 39.7987 14.2556 39.8714C14.1695 39.8723 14.0833 39.8723 13.9971 39.8714Z"/>
</mask>
<path d="M14.4933 1.2961C14.3451 1.02172 14.0032 0.919973 13.7292 1.06786C13.632 1.12011 13.5532 1.19955 13.5009 1.2961C12.9549 2.30656 12.012 3.83125 10.9202 5.59518C6.86041 12.141 0.765625 22.0295 0.765625 27.768C0.773264 35.0724 6.69267 40.9915 13.9971 40.9992C21.2218 41.0795 27.1437 35.2875 27.2237 28.0628C27.2247 27.9644 27.2247 27.8664 27.2237 27.768C27.2237 22.0114 20.7953 11.6133 16.961 5.39688C15.9053 3.70047 14.9984 2.23445 14.4933 1.2961ZM13.9971 39.8714C7.31538 39.8638 1.90074 34.4488 1.89341 27.768C1.89341 22.3543 8.14586 12.2311 11.8812 6.18642C12.7022 4.83284 13.4422 3.66014 13.9971 2.70805C14.5114 3.58314 15.1924 4.68862 15.9954 5.98781C19.776 12.1003 26.096 22.3319 26.096 27.768C26.1687 34.3801 20.8677 39.7987 14.2556 39.8714C14.1695 39.8723 14.0833 39.8723 13.9971 39.8714Z" fill="#081A3E"/>
<path d="M14.4933 1.2961C14.3451 1.02172 14.0032 0.919973 13.7292 1.06786C13.632 1.12011 13.5532 1.19955 13.5009 1.2961C12.9549 2.30656 12.012 3.83125 10.9202 5.59518C6.86041 12.141 0.765625 22.0295 0.765625 27.768C0.773264 35.0724 6.69267 40.9915 13.9971 40.9992C21.2218 41.0795 27.1437 35.2875 27.2237 28.0628C27.2247 27.9644 27.2247 27.8664 27.2237 27.768C27.2237 22.0114 20.7953 11.6133 16.961 5.39688C15.9053 3.70047 14.9984 2.23445 14.4933 1.2961ZM13.9971 39.8714C7.31538 39.8638 1.90074 34.4488 1.89341 27.768C1.89341 22.3543 8.14586 12.2311 11.8812 6.18642C12.7022 4.83284 13.4422 3.66014 13.9971 2.70805C14.5114 3.58314 15.1924 4.68862 15.9954 5.98781C19.776 12.1003 26.096 22.3319 26.096 27.768C26.1687 34.3801 20.8677 39.7987 14.2556 39.8714C14.1695 39.8723 14.0833 39.8723 13.9971 39.8714Z" stroke="#081A3E" stroke-width="0.4" mask="url(#path-1-outside-1)"/>
<mask id="path-2-outside-2" maskUnits="userSpaceOnUse" x="12.4297" y="26.1523" width="11" height="11" fill="black">
<rect fill="white" x="12.4297" y="26.1523" width="11" height="11"/>
<path d="M13.4297 35.3988C13.4297 35.7099 13.6824 35.9625 13.9937 35.9625C18.5467 35.9577 22.2368 32.2694 22.2448 27.7161C22.2448 27.405 21.9921 27.1523 21.6807 27.1523C21.3694 27.1523 21.1167 27.405 21.1167 27.7161C21.1118 31.6482 17.9255 34.8345 13.9937 34.8393C13.6836 34.8387 13.4321 35.0887 13.4297 35.3988Z"/>
</mask>
<path d="M13.4297 35.3988C13.4297 35.7099 13.6824 35.9625 13.9937 35.9625C18.5467 35.9577 22.2368 32.2694 22.2448 27.7161C22.2448 27.405 21.9921 27.1523 21.6807 27.1523C21.3694 27.1523 21.1167 27.405 21.1167 27.7161C21.1118 31.6482 17.9255 34.8345 13.9937 34.8393C13.6836 34.8387 13.4321 35.0887 13.4297 35.3988Z" fill="#081A3E"/>
<path d="M13.4297 35.3988C13.4297 35.7099 13.6824 35.9625 13.9937 35.9625C18.5467 35.9577 22.2368 32.2694 22.2448 27.7161C22.2448 27.405 21.9921 27.1523 21.6807 27.1523C21.3694 27.1523 21.1167 27.405 21.1167 27.7161C21.1118 31.6482 17.9255 34.8345 13.9937 34.8393C13.6836 34.8387 13.4321 35.0887 13.4297 35.3988Z" stroke="#081A3E" stroke-width="0.4" mask="url(#path-2-outside-2)"/>
</svg>
