<svg width="26" height="42" viewBox="0 0 26 42" fill="none" xmlns="http://www.w3.org/2000/svg">
<mask id="path-1-outside-1" maskUnits="userSpaceOnUse" x="-0.40625" y="0" width="26" height="42" fill="black">
<rect fill="white" x="-0.40625" width="26" height="42"/>
<path d="M8.15825 41C8.07282 41 7.98538 40.984 7.90261 40.9493C7.6176 40.8311 7.4514 40.5341 7.49946 40.2297L10.0232 24.0777L1.38346 25.6856C1.11113 25.7363 0.840806 25.6162 0.695965 25.3846C0.550457 25.1523 0.561137 24.8553 0.722664 24.6343L17.8539 1.27298C18.0348 1.02601 18.3612 0.933903 18.6448 1.04937C18.9285 1.16551 19.0967 1.45853 19.0533 1.76156L16.6311 18.8254L24.5873 17.0352C24.8596 16.9738 25.1393 17.088 25.2921 17.3209C25.445 17.5532 25.437 17.8569 25.2728 18.0811L8.6969 40.727C8.56808 40.9025 8.36584 41 8.15825 41ZM10.8288 22.5812C11.001 22.5812 11.1679 22.648 11.2933 22.7694C11.4489 22.921 11.521 23.1379 11.4876 23.3515L9.24222 37.7214L23.1442 18.7286L15.981 20.3399C15.7674 20.3886 15.5431 20.3278 15.3823 20.1797C15.2214 20.0315 15.1433 19.8119 15.174 19.595L17.358 4.2065L2.79649 24.0637L10.7066 22.5926C10.7467 22.5852 10.7874 22.5812 10.8288 22.5812Z"/>
</mask>
<path d="M8.15825 41C8.07282 41 7.98538 40.984 7.90261 40.9493C7.6176 40.8311 7.4514 40.5341 7.49946 40.2297L10.0232 24.0777L1.38346 25.6856C1.11113 25.7363 0.840806 25.6162 0.695965 25.3846C0.550457 25.1523 0.561137 24.8553 0.722664 24.6343L17.8539 1.27298C18.0348 1.02601 18.3612 0.933903 18.6448 1.04937C18.9285 1.16551 19.0967 1.45853 19.0533 1.76156L16.6311 18.8254L24.5873 17.0352C24.8596 16.9738 25.1393 17.088 25.2921 17.3209C25.445 17.5532 25.437 17.8569 25.2728 18.0811L8.6969 40.727C8.56808 40.9025 8.36584 41 8.15825 41ZM10.8288 22.5812C11.001 22.5812 11.1679 22.648 11.2933 22.7694C11.4489 22.921 11.521 23.1379 11.4876 23.3515L9.24222 37.7214L23.1442 18.7286L15.981 20.3399C15.7674 20.3886 15.5431 20.3278 15.3823 20.1797C15.2214 20.0315 15.1433 19.8119 15.174 19.595L17.358 4.2065L2.79649 24.0637L10.7066 22.5926C10.7467 22.5852 10.7874 22.5812 10.8288 22.5812Z" fill="#081A3E"/>
<path d="M8.15825 41C8.07282 41 7.98538 40.984 7.90261 40.9493C7.6176 40.8311 7.4514 40.5341 7.49946 40.2297L10.0232 24.0777L1.38346 25.6856C1.11113 25.7363 0.840806 25.6162 0.695965 25.3846C0.550457 25.1523 0.561137 24.8553 0.722664 24.6343L17.8539 1.27298C18.0348 1.02601 18.3612 0.933903 18.6448 1.04937C18.9285 1.16551 19.0967 1.45853 19.0533 1.76156L16.6311 18.8254L24.5873 17.0352C24.8596 16.9738 25.1393 17.088 25.2921 17.3209C25.445 17.5532 25.437 17.8569 25.2728 18.0811L8.6969 40.727C8.56808 40.9025 8.36584 41 8.15825 41ZM10.8288 22.5812C11.001 22.5812 11.1679 22.648 11.2933 22.7694C11.4489 22.921 11.521 23.1379 11.4876 23.3515L9.24222 37.7214L23.1442 18.7286L15.981 20.3399C15.7674 20.3886 15.5431 20.3278 15.3823 20.1797C15.2214 20.0315 15.1433 19.8119 15.174 19.595L17.358 4.2065L2.79649 24.0637L10.7066 22.5926C10.7467 22.5852 10.7874 22.5812 10.8288 22.5812Z" stroke="#081A3E" stroke-width="0.2" mask="url(#path-1-outside-1)"/>
</svg>
