<svg width="42" height="42" viewBox="0 0 42 42" fill="none" xmlns="http://www.w3.org/2000/svg">
<mask id="path-1-outside-1" maskUnits="userSpaceOnUse" x="0" y="0" width="42" height="42" fill="black">
<rect fill="white" width="42" height="42"/>
<path d="M23.1493 41H18.8493C18.5908 41.0001 18.3397 40.9138 18.1358 40.7548C17.9319 40.5959 17.787 40.3734 17.724 40.1227L16.924 36.9107C15.4177 36.5219 13.9733 35.9236 12.6333 35.1333L9.8 36.836C9.57825 36.9688 9.3185 37.0238 9.06197 36.9921C8.80544 36.9605 8.56683 36.8441 8.384 36.6613L5.344 33.6213C5.15897 33.439 5.04053 33.1997 5.00765 32.942C4.97477 32.6843 5.02936 32.423 5.16267 32.2L6.86667 29.364C6.07676 28.0262 5.47848 26.5841 5.08933 25.08L1.88 24.28C1.62878 24.2175 1.40569 24.0728 1.24622 23.8689C1.08675 23.6649 1.00008 23.4135 1 23.1547V18.8493C1.00008 18.5905 1.08675 18.3391 1.24622 18.1351C1.40569 17.9312 1.62878 17.7865 1.88 17.724L5.08933 16.924C5.47791 15.4176 6.0762 13.9733 6.86667 12.6333L5.16267 9.80001C5.02923 9.57812 4.97406 9.3179 5.00596 9.06095C5.03787 8.80401 5.15502 8.56519 5.33867 8.38267L8.37867 5.34267C8.56105 5.15765 8.80027 5.0392 9.05799 5.00632C9.31571 4.97344 9.577 5.02803 9.8 5.16134L12.6347 6.86667C13.9729 6.07636 15.4154 5.47764 16.92 5.08801L17.72 1.87867C17.7829 1.62704 17.9283 1.40374 18.133 1.24447C18.3378 1.08519 18.59 0.99912 18.8493 1.00001H23.1507C23.4092 0.99994 23.6603 1.08623 23.8642 1.24518C24.0681 1.40412 24.213 1.62662 24.276 1.87734L25.076 5.08934C26.5819 5.4782 28.0257 6.07648 29.3653 6.86667L32.2 5.16267C32.4217 5.02987 32.6815 4.97493 32.938 5.00657C33.1946 5.03821 33.4332 5.15463 33.616 5.33734L36.656 8.37734C36.8411 8.55998 36.9595 8.79952 36.9922 9.05753C37.0248 9.31553 36.9698 9.57701 36.836 9.80001L35.1333 12.6347C35.9224 13.9731 36.5198 15.4156 36.908 16.92L40.1187 17.72C40.3699 17.7825 40.593 17.9272 40.7524 18.1311C40.9119 18.3351 40.9986 18.5865 40.9987 18.8453V23.1467C40.9986 23.4055 40.9119 23.6569 40.7524 23.8609C40.593 24.0648 40.3699 24.2095 40.1187 24.272L36.9093 25.072C36.5214 26.5793 35.9235 28.0245 35.1333 29.3653L36.8347 32.2053C36.9681 32.4272 37.0233 32.6874 36.9914 32.9444C36.9595 33.2013 36.8423 33.4402 36.6587 33.6227L33.6187 36.6627C33.4358 36.8454 33.1972 36.9618 32.9407 36.9934C32.6842 37.0251 32.4244 36.9701 32.2027 36.8373L29.364 35.1333C28.0255 35.9223 26.583 36.5196 25.0787 36.908L24.2787 40.1173C24.2162 40.3686 24.0715 40.5917 23.8675 40.7511C23.6636 40.9106 23.4122 40.9973 23.1533 40.9973L23.1493 41ZM12.6333 33.896C12.7393 33.8961 12.8432 33.9257 12.9333 33.9813C14.3495 34.8574 15.8979 35.499 17.5187 35.8813C17.6206 35.9055 17.7139 35.9572 17.7884 36.0308C17.8629 36.1044 17.9158 36.1971 17.9413 36.2987L18.8293 39.8413L23.1467 39.856L24.052 36.2987C24.0778 36.1966 24.1313 36.1036 24.2066 36.0299C24.2819 35.9563 24.376 35.9049 24.4787 35.8813C26.0999 35.4991 27.6487 34.8575 29.0653 33.9813C29.1548 33.9271 29.2574 33.8984 29.362 33.8984C29.4666 33.8984 29.5692 33.9271 29.6587 33.9813L32.7933 35.8613L35.86 32.8213L33.98 29.6667C33.9257 29.5772 33.8971 29.4746 33.8971 29.37C33.8971 29.2654 33.9257 29.1628 33.98 29.0733C34.8567 27.6546 35.4983 26.1035 35.88 24.48C35.9042 24.3781 35.9559 24.2848 36.0295 24.2103C36.1031 24.1357 36.1957 24.0828 36.2973 24.0573L39.84 23.168L39.856 18.8507L36.296 17.9453C36.1943 17.9194 36.1017 17.866 36.0284 17.791C35.955 17.716 35.9037 17.6222 35.88 17.52C35.498 15.8989 34.8569 14.3501 33.9813 12.9333C33.9271 12.8439 33.8984 12.7413 33.8984 12.6367C33.8984 12.5321 33.9271 12.4294 33.9813 12.34L35.8613 9.20534L32.8213 6.13867L29.6667 8.02001C29.5772 8.07426 29.4746 8.10295 29.37 8.10295C29.2654 8.10295 29.1628 8.07426 29.0733 8.02001C27.6548 7.14223 26.1037 6.49971 24.48 6.11734C24.3781 6.09314 24.2848 6.04143 24.2102 5.96784C24.1357 5.89424 24.0828 5.8016 24.0573 5.70001L23.168 2.15734L18.848 2.14267L17.9427 5.70001C17.9172 5.8016 17.8643 5.89424 17.7898 5.96784C17.7152 6.04143 17.6219 6.09314 17.52 6.11734C15.8988 6.49956 14.3499 7.14116 12.9333 8.01734C12.8439 8.0716 12.7413 8.10029 12.6367 8.10029C12.5321 8.10029 12.4294 8.0716 12.34 8.01734L9.204 6.14134L6.13733 9.18134L8.01867 12.3333C8.07292 12.4228 8.10161 12.5254 8.10161 12.63C8.10161 12.7346 8.07292 12.8372 8.01867 12.9267C7.14257 14.3451 6.50142 15.8957 6.12 17.5187C6.0958 17.6206 6.04409 17.7139 5.9705 17.7884C5.8969 17.863 5.80426 17.9158 5.70267 17.9413L2.16 18.832L2.14267 23.1493L5.70267 24.0547C5.80443 24.0803 5.89719 24.1334 5.97079 24.2081C6.0444 24.2829 6.09602 24.3765 6.12 24.4787C6.50199 26.0998 7.14312 27.6486 8.01867 29.0653C8.07292 29.1548 8.10161 29.2574 8.10161 29.362C8.10161 29.4666 8.07292 29.5692 8.01867 29.6587L6.13867 32.7933L9.18133 35.86L12.3373 33.984C12.4261 33.9281 12.5285 33.8976 12.6333 33.896Z"/>
</mask>
<path d="M23.1493 41H18.8493C18.5908 41.0001 18.3397 40.9138 18.1358 40.7548C17.9319 40.5959 17.787 40.3734 17.724 40.1227L16.924 36.9107C15.4177 36.5219 13.9733 35.9236 12.6333 35.1333L9.8 36.836C9.57825 36.9688 9.3185 37.0238 9.06197 36.9921C8.80544 36.9605 8.56683 36.8441 8.384 36.6613L5.344 33.6213C5.15897 33.439 5.04053 33.1997 5.00765 32.942C4.97477 32.6843 5.02936 32.423 5.16267 32.2L6.86667 29.364C6.07676 28.0262 5.47848 26.5841 5.08933 25.08L1.88 24.28C1.62878 24.2175 1.40569 24.0728 1.24622 23.8689C1.08675 23.6649 1.00008 23.4135 1 23.1547V18.8493C1.00008 18.5905 1.08675 18.3391 1.24622 18.1351C1.40569 17.9312 1.62878 17.7865 1.88 17.724L5.08933 16.924C5.47791 15.4176 6.0762 13.9733 6.86667 12.6333L5.16267 9.80001C5.02923 9.57812 4.97406 9.3179 5.00596 9.06095C5.03787 8.80401 5.15502 8.56519 5.33867 8.38267L8.37867 5.34267C8.56105 5.15765 8.80027 5.0392 9.05799 5.00632C9.31571 4.97344 9.577 5.02803 9.8 5.16134L12.6347 6.86667C13.9729 6.07636 15.4154 5.47764 16.92 5.08801L17.72 1.87867C17.7829 1.62704 17.9283 1.40374 18.133 1.24447C18.3378 1.08519 18.59 0.99912 18.8493 1.00001H23.1507C23.4092 0.99994 23.6603 1.08623 23.8642 1.24518C24.0681 1.40412 24.213 1.62662 24.276 1.87734L25.076 5.08934C26.5819 5.4782 28.0257 6.07648 29.3653 6.86667L32.2 5.16267C32.4217 5.02987 32.6815 4.97493 32.938 5.00657C33.1946 5.03821 33.4332 5.15463 33.616 5.33734L36.656 8.37734C36.8411 8.55998 36.9595 8.79952 36.9922 9.05753C37.0248 9.31553 36.9698 9.57701 36.836 9.80001L35.1333 12.6347C35.9224 13.9731 36.5198 15.4156 36.908 16.92L40.1187 17.72C40.3699 17.7825 40.593 17.9272 40.7524 18.1311C40.9119 18.3351 40.9986 18.5865 40.9987 18.8453V23.1467C40.9986 23.4055 40.9119 23.6569 40.7524 23.8609C40.593 24.0648 40.3699 24.2095 40.1187 24.272L36.9093 25.072C36.5214 26.5793 35.9235 28.0245 35.1333 29.3653L36.8347 32.2053C36.9681 32.4272 37.0233 32.6874 36.9914 32.9444C36.9595 33.2013 36.8423 33.4402 36.6587 33.6227L33.6187 36.6627C33.4358 36.8454 33.1972 36.9618 32.9407 36.9934C32.6842 37.0251 32.4244 36.9701 32.2027 36.8373L29.364 35.1333C28.0255 35.9223 26.583 36.5196 25.0787 36.908L24.2787 40.1173C24.2162 40.3686 24.0715 40.5917 23.8675 40.7511C23.6636 40.9106 23.4122 40.9973 23.1533 40.9973L23.1493 41ZM12.6333 33.896C12.7393 33.8961 12.8432 33.9257 12.9333 33.9813C14.3495 34.8574 15.8979 35.499 17.5187 35.8813C17.6206 35.9055 17.7139 35.9572 17.7884 36.0308C17.8629 36.1044 17.9158 36.1971 17.9413 36.2987L18.8293 39.8413L23.1467 39.856L24.052 36.2987C24.0778 36.1966 24.1313 36.1036 24.2066 36.0299C24.2819 35.9563 24.376 35.9049 24.4787 35.8813C26.0999 35.4991 27.6487 34.8575 29.0653 33.9813C29.1548 33.9271 29.2574 33.8984 29.362 33.8984C29.4666 33.8984 29.5692 33.9271 29.6587 33.9813L32.7933 35.8613L35.86 32.8213L33.98 29.6667C33.9257 29.5772 33.8971 29.4746 33.8971 29.37C33.8971 29.2654 33.9257 29.1628 33.98 29.0733C34.8567 27.6546 35.4983 26.1035 35.88 24.48C35.9042 24.3781 35.9559 24.2848 36.0295 24.2103C36.1031 24.1357 36.1957 24.0828 36.2973 24.0573L39.84 23.168L39.856 18.8507L36.296 17.9453C36.1943 17.9194 36.1017 17.866 36.0284 17.791C35.955 17.716 35.9037 17.6222 35.88 17.52C35.498 15.8989 34.8569 14.3501 33.9813 12.9333C33.9271 12.8439 33.8984 12.7413 33.8984 12.6367C33.8984 12.5321 33.9271 12.4294 33.9813 12.34L35.8613 9.20534L32.8213 6.13867L29.6667 8.02001C29.5772 8.07426 29.4746 8.10295 29.37 8.10295C29.2654 8.10295 29.1628 8.07426 29.0733 8.02001C27.6548 7.14223 26.1037 6.49971 24.48 6.11734C24.3781 6.09314 24.2848 6.04143 24.2102 5.96784C24.1357 5.89424 24.0828 5.8016 24.0573 5.70001L23.168 2.15734L18.848 2.14267L17.9427 5.70001C17.9172 5.8016 17.8643 5.89424 17.7898 5.96784C17.7152 6.04143 17.6219 6.09314 17.52 6.11734C15.8988 6.49956 14.3499 7.14116 12.9333 8.01734C12.8439 8.0716 12.7413 8.10029 12.6367 8.10029C12.5321 8.10029 12.4294 8.0716 12.34 8.01734L9.204 6.14134L6.13733 9.18134L8.01867 12.3333C8.07292 12.4228 8.10161 12.5254 8.10161 12.63C8.10161 12.7346 8.07292 12.8372 8.01867 12.9267C7.14257 14.3451 6.50142 15.8957 6.12 17.5187C6.0958 17.6206 6.04409 17.7139 5.9705 17.7884C5.8969 17.863 5.80426 17.9158 5.70267 17.9413L2.16 18.832L2.14267 23.1493L5.70267 24.0547C5.80443 24.0803 5.89719 24.1334 5.97079 24.2081C6.0444 24.2829 6.09602 24.3765 6.12 24.4787C6.50199 26.0998 7.14312 27.6486 8.01867 29.0653C8.07292 29.1548 8.10161 29.2574 8.10161 29.362C8.10161 29.4666 8.07292 29.5692 8.01867 29.6587L6.13867 32.7933L9.18133 35.86L12.3373 33.984C12.4261 33.9281 12.5285 33.8976 12.6333 33.896Z" fill="#081A3E"/>
<path d="M23.1493 41H18.8493C18.5908 41.0001 18.3397 40.9138 18.1358 40.7548C17.9319 40.5959 17.787 40.3734 17.724 40.1227L16.924 36.9107C15.4177 36.5219 13.9733 35.9236 12.6333 35.1333L9.8 36.836C9.57825 36.9688 9.3185 37.0238 9.06197 36.9921C8.80544 36.9605 8.56683 36.8441 8.384 36.6613L5.344 33.6213C5.15897 33.439 5.04053 33.1997 5.00765 32.942C4.97477 32.6843 5.02936 32.423 5.16267 32.2L6.86667 29.364C6.07676 28.0262 5.47848 26.5841 5.08933 25.08L1.88 24.28C1.62878 24.2175 1.40569 24.0728 1.24622 23.8689C1.08675 23.6649 1.00008 23.4135 1 23.1547V18.8493C1.00008 18.5905 1.08675 18.3391 1.24622 18.1351C1.40569 17.9312 1.62878 17.7865 1.88 17.724L5.08933 16.924C5.47791 15.4176 6.0762 13.9733 6.86667 12.6333L5.16267 9.80001C5.02923 9.57812 4.97406 9.3179 5.00596 9.06095C5.03787 8.80401 5.15502 8.56519 5.33867 8.38267L8.37867 5.34267C8.56105 5.15765 8.80027 5.0392 9.05799 5.00632C9.31571 4.97344 9.577 5.02803 9.8 5.16134L12.6347 6.86667C13.9729 6.07636 15.4154 5.47764 16.92 5.08801L17.72 1.87867C17.7829 1.62704 17.9283 1.40374 18.133 1.24447C18.3378 1.08519 18.59 0.99912 18.8493 1.00001H23.1507C23.4092 0.99994 23.6603 1.08623 23.8642 1.24518C24.0681 1.40412 24.213 1.62662 24.276 1.87734L25.076 5.08934C26.5819 5.4782 28.0257 6.07648 29.3653 6.86667L32.2 5.16267C32.4217 5.02987 32.6815 4.97493 32.938 5.00657C33.1946 5.03821 33.4332 5.15463 33.616 5.33734L36.656 8.37734C36.8411 8.55998 36.9595 8.79952 36.9922 9.05753C37.0248 9.31553 36.9698 9.57701 36.836 9.80001L35.1333 12.6347C35.9224 13.9731 36.5198 15.4156 36.908 16.92L40.1187 17.72C40.3699 17.7825 40.593 17.9272 40.7524 18.1311C40.9119 18.3351 40.9986 18.5865 40.9987 18.8453V23.1467C40.9986 23.4055 40.9119 23.6569 40.7524 23.8609C40.593 24.0648 40.3699 24.2095 40.1187 24.272L36.9093 25.072C36.5214 26.5793 35.9235 28.0245 35.1333 29.3653L36.8347 32.2053C36.9681 32.4272 37.0233 32.6874 36.9914 32.9444C36.9595 33.2013 36.8423 33.4402 36.6587 33.6227L33.6187 36.6627C33.4358 36.8454 33.1972 36.9618 32.9407 36.9934C32.6842 37.0251 32.4244 36.9701 32.2027 36.8373L29.364 35.1333C28.0255 35.9223 26.583 36.5196 25.0787 36.908L24.2787 40.1173C24.2162 40.3686 24.0715 40.5917 23.8675 40.7511C23.6636 40.9106 23.4122 40.9973 23.1533 40.9973L23.1493 41ZM12.6333 33.896C12.7393 33.8961 12.8432 33.9257 12.9333 33.9813C14.3495 34.8574 15.8979 35.499 17.5187 35.8813C17.6206 35.9055 17.7139 35.9572 17.7884 36.0308C17.8629 36.1044 17.9158 36.1971 17.9413 36.2987L18.8293 39.8413L23.1467 39.856L24.052 36.2987C24.0778 36.1966 24.1313 36.1036 24.2066 36.0299C24.2819 35.9563 24.376 35.9049 24.4787 35.8813C26.0999 35.4991 27.6487 34.8575 29.0653 33.9813C29.1548 33.9271 29.2574 33.8984 29.362 33.8984C29.4666 33.8984 29.5692 33.9271 29.6587 33.9813L32.7933 35.8613L35.86 32.8213L33.98 29.6667C33.9257 29.5772 33.8971 29.4746 33.8971 29.37C33.8971 29.2654 33.9257 29.1628 33.98 29.0733C34.8567 27.6546 35.4983 26.1035 35.88 24.48C35.9042 24.3781 35.9559 24.2848 36.0295 24.2103C36.1031 24.1357 36.1957 24.0828 36.2973 24.0573L39.84 23.168L39.856 18.8507L36.296 17.9453C36.1943 17.9194 36.1017 17.866 36.0284 17.791C35.955 17.716 35.9037 17.6222 35.88 17.52C35.498 15.8989 34.8569 14.3501 33.9813 12.9333C33.9271 12.8439 33.8984 12.7413 33.8984 12.6367C33.8984 12.5321 33.9271 12.4294 33.9813 12.34L35.8613 9.20534L32.8213 6.13867L29.6667 8.02001C29.5772 8.07426 29.4746 8.10295 29.37 8.10295C29.2654 8.10295 29.1628 8.07426 29.0733 8.02001C27.6548 7.14223 26.1037 6.49971 24.48 6.11734C24.3781 6.09314 24.2848 6.04143 24.2102 5.96784C24.1357 5.89424 24.0828 5.8016 24.0573 5.70001L23.168 2.15734L18.848 2.14267L17.9427 5.70001C17.9172 5.8016 17.8643 5.89424 17.7898 5.96784C17.7152 6.04143 17.6219 6.09314 17.52 6.11734C15.8988 6.49956 14.3499 7.14116 12.9333 8.01734C12.8439 8.0716 12.7413 8.10029 12.6367 8.10029C12.5321 8.10029 12.4294 8.0716 12.34 8.01734L9.204 6.14134L6.13733 9.18134L8.01867 12.3333C8.07292 12.4228 8.10161 12.5254 8.10161 12.63C8.10161 12.7346 8.07292 12.8372 8.01867 12.9267C7.14257 14.3451 6.50142 15.8957 6.12 17.5187C6.0958 17.6206 6.04409 17.7139 5.9705 17.7884C5.8969 17.863 5.80426 17.9158 5.70267 17.9413L2.16 18.832L2.14267 23.1493L5.70267 24.0547C5.80443 24.0803 5.89719 24.1334 5.97079 24.2081C6.0444 24.2829 6.09602 24.3765 6.12 24.4787C6.50199 26.0998 7.14312 27.6486 8.01867 29.0653C8.07292 29.1548 8.10161 29.2574 8.10161 29.362C8.10161 29.4666 8.07292 29.5692 8.01867 29.6587L6.13867 32.7933L9.18133 35.86L12.3373 33.984C12.4261 33.9281 12.5285 33.8976 12.6333 33.896Z" stroke="#081A3E" stroke-width="0.4" mask="url(#path-1-outside-1)"/>
<mask id="path-2-outside-2" maskUnits="userSpaceOnUse" x="8.57422" y="8.57324" width="25" height="25" fill="black">
<rect fill="white" x="8.57422" y="8.57324" width="25" height="25"/>
<path d="M21.0008 32.4293C18.1639 32.4289 15.4284 31.3734 13.3266 29.4679C11.2248 27.5625 9.90685 24.9433 9.62913 22.12C9.35141 19.2966 10.1338 16.4709 11.824 14.1925C13.5143 11.914 15.9916 10.3457 18.7742 9.79257C21.5567 9.23946 24.4455 9.74109 26.8787 11.1999C29.3118 12.6587 31.1154 14.9704 31.9386 17.6853C32.7618 20.4002 32.5457 23.3243 31.3324 25.8887C30.1191 28.4531 27.9953 30.4746 25.3742 31.5599C23.9876 32.134 22.5016 32.4294 21.0008 32.4293ZM21.0008 10.7146C18.4475 10.7148 15.9856 11.6646 14.0938 13.3794C12.202 15.0942 11.0157 17.4514 10.7656 19.9924C10.5154 22.5334 11.2194 25.0767 12.7405 27.1274C14.2617 29.1782 16.4912 30.5898 18.9955 31.0878C21.4998 31.5857 24.0997 31.1344 26.2897 29.8216C28.4797 28.5088 30.103 26.4284 30.8441 23.985C31.5851 21.5416 31.3908 18.9099 30.299 16.6018C29.2072 14.2937 27.2959 12.4742 24.9368 11.4973C23.689 10.9805 22.3515 10.7145 21.0008 10.7146Z"/>
</mask>
<path d="M21.0008 32.4293C18.1639 32.4289 15.4284 31.3734 13.3266 29.4679C11.2248 27.5625 9.90685 24.9433 9.62913 22.12C9.35141 19.2966 10.1338 16.4709 11.824 14.1925C13.5143 11.914 15.9916 10.3457 18.7742 9.79257C21.5567 9.23946 24.4455 9.74109 26.8787 11.1999C29.3118 12.6587 31.1154 14.9704 31.9386 17.6853C32.7618 20.4002 32.5457 23.3243 31.3324 25.8887C30.1191 28.4531 27.9953 30.4746 25.3742 31.5599C23.9876 32.134 22.5016 32.4294 21.0008 32.4293ZM21.0008 10.7146C18.4475 10.7148 15.9856 11.6646 14.0938 13.3794C12.202 15.0942 11.0157 17.4514 10.7656 19.9924C10.5154 22.5334 11.2194 25.0767 12.7405 27.1274C14.2617 29.1782 16.4912 30.5898 18.9955 31.0878C21.4998 31.5857 24.0997 31.1344 26.2897 29.8216C28.4797 28.5088 30.103 26.4284 30.8441 23.985C31.5851 21.5416 31.3908 18.9099 30.299 16.6018C29.2072 14.2937 27.2959 12.4742 24.9368 11.4973C23.689 10.9805 22.3515 10.7145 21.0008 10.7146Z" fill="#081A3E"/>
<path d="M21.0008 32.4293C18.1639 32.4289 15.4284 31.3734 13.3266 29.4679C11.2248 27.5625 9.90685 24.9433 9.62913 22.12C9.35141 19.2966 10.1338 16.4709 11.824 14.1925C13.5143 11.914 15.9916 10.3457 18.7742 9.79257C21.5567 9.23946 24.4455 9.74109 26.8787 11.1999C29.3118 12.6587 31.1154 14.9704 31.9386 17.6853C32.7618 20.4002 32.5457 23.3243 31.3324 25.8887C30.1191 28.4531 27.9953 30.4746 25.3742 31.5599C23.9876 32.134 22.5016 32.4294 21.0008 32.4293ZM21.0008 10.7146C18.4475 10.7148 15.9856 11.6646 14.0938 13.3794C12.202 15.0942 11.0157 17.4514 10.7656 19.9924C10.5154 22.5334 11.2194 25.0767 12.7405 27.1274C14.2617 29.1782 16.4912 30.5898 18.9955 31.0878C21.4998 31.5857 24.0997 31.1344 26.2897 29.8216C28.4797 28.5088 30.103 26.4284 30.8441 23.985C31.5851 21.5416 31.3908 18.9099 30.299 16.6018C29.2072 14.2937 27.2959 12.4742 24.9368 11.4973C23.689 10.9805 22.3515 10.7145 21.0008 10.7146Z" stroke="#081A3E" stroke-width="0.4" mask="url(#path-2-outside-2)"/>
<mask id="path-3-outside-3" maskUnits="userSpaceOnUse" x="13.8398" y="14.626" width="14" height="18" fill="black">
<rect fill="white" x="13.8398" y="14.626" width="14" height="18"/>
<path d="M23.1292 32.2208C22.9775 32.2208 22.832 32.1605 22.7247 32.0533C22.6174 31.946 22.5572 31.8005 22.5572 31.6488V26.1075C22.557 25.9981 22.5882 25.891 22.6471 25.7989C22.7059 25.7067 22.7899 25.6334 22.8892 25.5875C23.6657 25.2312 24.3351 24.6774 24.8304 23.9812C25.3258 23.2851 25.6297 22.4712 25.7117 21.6208C25.7938 20.7704 25.6512 19.9133 25.2981 19.1353C24.945 18.3573 24.3939 17.6857 23.6998 17.1875V19.5875C23.7 19.668 23.683 19.7477 23.6502 19.8212C23.6173 19.8948 23.5693 19.9605 23.5092 20.0141L21.2345 22.0368C21.1298 22.1299 20.9946 22.1813 20.8545 22.1813C20.7144 22.1813 20.5792 22.1299 20.4745 22.0368L18.2078 20.0141C18.1478 19.9605 18.0998 19.8947 18.0669 19.8212C18.0341 19.7476 18.0171 19.668 18.0172 19.5875V17.1875C17.3231 17.6857 16.772 18.3573 16.4189 19.1353C16.0658 19.9133 15.9232 20.7704 16.0053 21.6208C16.0874 22.4712 16.3912 23.2851 16.8866 23.9812C17.3819 24.6774 18.0513 25.2312 18.8278 25.5875C18.9271 25.6334 19.0111 25.7067 19.07 25.7989C19.1288 25.891 19.16 25.9981 19.1598 26.1075V31.5741C19.1636 31.6515 19.1516 31.7288 19.1245 31.8014C19.0975 31.8739 19.056 31.9403 19.0026 31.9963C18.9492 32.0524 18.8849 32.097 18.8138 32.1275C18.7426 32.158 18.6659 32.1738 18.5885 32.1738C18.5111 32.1738 18.4344 32.158 18.3632 32.1275C18.2921 32.097 18.2278 32.0524 18.1744 31.9963C18.121 31.9403 18.0795 31.8739 18.0525 31.8014C18.0254 31.7288 18.0134 31.6515 18.0172 31.5741V26.4608C17.0292 25.9313 16.2087 25.1365 15.6479 24.166C15.087 23.1954 14.8082 22.0877 14.8427 20.9673C14.8772 19.8469 15.2237 18.7584 15.8432 17.8242C16.4626 16.89 17.3305 16.1473 18.3492 15.6795C18.4363 15.6395 18.5322 15.622 18.6278 15.6287C18.7235 15.6354 18.8159 15.6661 18.8967 15.7178C18.9774 15.7696 19.0438 15.8409 19.0898 15.925C19.1358 16.0092 19.1599 16.1036 19.1598 16.1995V19.3315L20.8572 20.8448L22.5598 19.3301V16.1981C22.5598 16.1022 22.5839 16.0079 22.6299 15.9237C22.6759 15.8395 22.7423 15.7683 22.823 15.7165C22.9037 15.6647 22.9962 15.6341 23.0919 15.6274C23.1875 15.6207 23.2833 15.6381 23.3705 15.6781C24.3892 16.1457 25.2572 16.8883 25.8767 17.8224C26.4963 18.7565 26.8428 19.8449 26.8773 20.9653C26.9118 22.0856 26.6329 23.1933 26.072 24.1638C25.5111 25.1342 24.6905 25.9288 23.7025 26.4581V31.6421C23.7027 31.7173 23.6881 31.7917 23.6595 31.8611C23.6309 31.9306 23.5889 31.9938 23.5359 32.047C23.4829 32.1002 23.42 32.1425 23.3506 32.1714C23.2813 32.2003 23.207 32.2153 23.1318 32.2155L23.1292 32.2208Z"/>
</mask>
<path d="M23.1292 32.2208C22.9775 32.2208 22.832 32.1605 22.7247 32.0533C22.6174 31.946 22.5572 31.8005 22.5572 31.6488V26.1075C22.557 25.9981 22.5882 25.891 22.6471 25.7989C22.7059 25.7067 22.7899 25.6334 22.8892 25.5875C23.6657 25.2312 24.3351 24.6774 24.8304 23.9812C25.3258 23.2851 25.6297 22.4712 25.7117 21.6208C25.7938 20.7704 25.6512 19.9133 25.2981 19.1353C24.945 18.3573 24.3939 17.6857 23.6998 17.1875V19.5875C23.7 19.668 23.683 19.7477 23.6502 19.8212C23.6173 19.8948 23.5693 19.9605 23.5092 20.0141L21.2345 22.0368C21.1298 22.1299 20.9946 22.1813 20.8545 22.1813C20.7144 22.1813 20.5792 22.1299 20.4745 22.0368L18.2078 20.0141C18.1478 19.9605 18.0998 19.8947 18.0669 19.8212C18.0341 19.7476 18.0171 19.668 18.0172 19.5875V17.1875C17.3231 17.6857 16.772 18.3573 16.4189 19.1353C16.0658 19.9133 15.9232 20.7704 16.0053 21.6208C16.0874 22.4712 16.3912 23.2851 16.8866 23.9812C17.3819 24.6774 18.0513 25.2312 18.8278 25.5875C18.9271 25.6334 19.0111 25.7067 19.07 25.7989C19.1288 25.891 19.16 25.9981 19.1598 26.1075V31.5741C19.1636 31.6515 19.1516 31.7288 19.1245 31.8014C19.0975 31.8739 19.056 31.9403 19.0026 31.9963C18.9492 32.0524 18.8849 32.097 18.8138 32.1275C18.7426 32.158 18.6659 32.1738 18.5885 32.1738C18.5111 32.1738 18.4344 32.158 18.3632 32.1275C18.2921 32.097 18.2278 32.0524 18.1744 31.9963C18.121 31.9403 18.0795 31.8739 18.0525 31.8014C18.0254 31.7288 18.0134 31.6515 18.0172 31.5741V26.4608C17.0292 25.9313 16.2087 25.1365 15.6479 24.166C15.087 23.1954 14.8082 22.0877 14.8427 20.9673C14.8772 19.8469 15.2237 18.7584 15.8432 17.8242C16.4626 16.89 17.3305 16.1473 18.3492 15.6795C18.4363 15.6395 18.5322 15.622 18.6278 15.6287C18.7235 15.6354 18.8159 15.6661 18.8967 15.7178C18.9774 15.7696 19.0438 15.8409 19.0898 15.925C19.1358 16.0092 19.1599 16.1036 19.1598 16.1995V19.3315L20.8572 20.8448L22.5598 19.3301V16.1981C22.5598 16.1022 22.5839 16.0079 22.6299 15.9237C22.6759 15.8395 22.7423 15.7683 22.823 15.7165C22.9037 15.6647 22.9962 15.6341 23.0919 15.6274C23.1875 15.6207 23.2833 15.6381 23.3705 15.6781C24.3892 16.1457 25.2572 16.8883 25.8767 17.8224C26.4963 18.7565 26.8428 19.8449 26.8773 20.9653C26.9118 22.0856 26.6329 23.1933 26.072 24.1638C25.5111 25.1342 24.6905 25.9288 23.7025 26.4581V31.6421C23.7027 31.7173 23.6881 31.7917 23.6595 31.8611C23.6309 31.9306 23.5889 31.9938 23.5359 32.047C23.4829 32.1002 23.42 32.1425 23.3506 32.1714C23.2813 32.2003 23.207 32.2153 23.1318 32.2155L23.1292 32.2208Z" fill="#081A3E"/>
<path d="M23.1292 32.2208C22.9775 32.2208 22.832 32.1605 22.7247 32.0533C22.6174 31.946 22.5572 31.8005 22.5572 31.6488V26.1075C22.557 25.9981 22.5882 25.891 22.6471 25.7989C22.7059 25.7067 22.7899 25.6334 22.8892 25.5875C23.6657 25.2312 24.3351 24.6774 24.8304 23.9812C25.3258 23.2851 25.6297 22.4712 25.7117 21.6208C25.7938 20.7704 25.6512 19.9133 25.2981 19.1353C24.945 18.3573 24.3939 17.6857 23.6998 17.1875V19.5875C23.7 19.668 23.683 19.7477 23.6502 19.8212C23.6173 19.8948 23.5693 19.9605 23.5092 20.0141L21.2345 22.0368C21.1298 22.1299 20.9946 22.1813 20.8545 22.1813C20.7144 22.1813 20.5792 22.1299 20.4745 22.0368L18.2078 20.0141C18.1478 19.9605 18.0998 19.8947 18.0669 19.8212C18.0341 19.7476 18.0171 19.668 18.0172 19.5875V17.1875C17.3231 17.6857 16.772 18.3573 16.4189 19.1353C16.0658 19.9133 15.9232 20.7704 16.0053 21.6208C16.0874 22.4712 16.3912 23.2851 16.8866 23.9812C17.3819 24.6774 18.0513 25.2312 18.8278 25.5875C18.9271 25.6334 19.0111 25.7067 19.07 25.7989C19.1288 25.891 19.16 25.9981 19.1598 26.1075V31.5741C19.1636 31.6515 19.1516 31.7288 19.1245 31.8014C19.0975 31.8739 19.056 31.9403 19.0026 31.9963C18.9492 32.0524 18.8849 32.097 18.8138 32.1275C18.7426 32.158 18.6659 32.1738 18.5885 32.1738C18.5111 32.1738 18.4344 32.158 18.3632 32.1275C18.2921 32.097 18.2278 32.0524 18.1744 31.9963C18.121 31.9403 18.0795 31.8739 18.0525 31.8014C18.0254 31.7288 18.0134 31.6515 18.0172 31.5741V26.4608C17.0292 25.9313 16.2087 25.1365 15.6479 24.166C15.087 23.1954 14.8082 22.0877 14.8427 20.9673C14.8772 19.8469 15.2237 18.7584 15.8432 17.8242C16.4626 16.89 17.3305 16.1473 18.3492 15.6795C18.4363 15.6395 18.5322 15.622 18.6278 15.6287C18.7235 15.6354 18.8159 15.6661 18.8967 15.7178C18.9774 15.7696 19.0438 15.8409 19.0898 15.925C19.1358 16.0092 19.1599 16.1036 19.1598 16.1995V19.3315L20.8572 20.8448L22.5598 19.3301V16.1981C22.5598 16.1022 22.5839 16.0079 22.6299 15.9237C22.6759 15.8395 22.7423 15.7683 22.823 15.7165C22.9037 15.6647 22.9962 15.6341 23.0919 15.6274C23.1875 15.6207 23.2833 15.6381 23.3705 15.6781C24.3892 16.1457 25.2572 16.8883 25.8767 17.8224C26.4963 18.7565 26.8428 19.8449 26.8773 20.9653C26.9118 22.0856 26.6329 23.1933 26.072 24.1638C25.5111 25.1342 24.6905 25.9288 23.7025 26.4581V31.6421C23.7027 31.7173 23.6881 31.7917 23.6595 31.8611C23.6309 31.9306 23.5889 31.9938 23.5359 32.047C23.4829 32.1002 23.42 32.1425 23.3506 32.1714C23.2813 32.2003 23.207 32.2153 23.1318 32.2155L23.1292 32.2208Z" stroke="#081A3E" stroke-width="0.4" mask="url(#path-3-outside-3)"/>
</svg>
