ct<svg width="40" height="36" viewBox="0 0 40 36" fill="none" xmlns="http://www.w3.org/2000/svg">
<path d="M37.0881 0.375H2.91194C1.30711 0.375 0 1.68211 0 3.28694V25.3103C0 26.9166 1.30711 28.2229 2.91194 28.2229H19.2405V34.1091H14.0189C13.5997 34.1091 13.2594 34.4494 13.2594 34.8686C13.2594 35.2894 13.5997 35.6281 14.0189 35.6281H25.8862C26.3054 35.6281 26.6457 35.2894 26.6457 34.8686C26.6457 34.4494 26.3054 34.1091 25.8862 34.1091H20.7595V28.2229H37.0881C38.6929 28.2229 40 26.9166 40 25.3103V3.28694C40 1.68211 38.6929 0.375 37.0881 0.375ZM38.481 25.311C38.481 26.0796 37.8567 26.7047 37.0881 26.7047H2.91194C2.14332 26.7047 1.51901 26.0789 1.51901 25.311V3.28694C1.51901 2.51832 2.14332 1.89325 2.91194 1.89325H37.0881C37.8567 1.89325 38.481 2.51832 38.481 3.28694V25.311Z" fill="#081A3E"/>
</svg>
