<svg width="42" height="42" viewBox="0 0 42 42" fill="none" xmlns="http://www.w3.org/2000/svg">
<path d="M40.293 5.83923C40.2451 5.74328 40.1751 5.66007 40.0887 5.59646C40.0024 5.53285 39.9022 5.49065 39.7963 5.47334C39.6905 5.45602 39.5821 5.46409 39.48 5.49687C39.3778 5.52965 39.285 5.58621 39.209 5.6619L35.857 9.01393C35.6691 9.20675 35.4448 9.36034 35.1971 9.46579C34.9494 9.57125 34.6832 9.62646 34.414 9.62825C34.1448 9.63003 33.878 9.57833 33.6289 9.47616C33.3798 9.37399 33.1535 9.22338 32.9631 9.03307C32.7727 8.84275 32.622 8.61652 32.5197 8.3675C32.4174 8.11849 32.3656 7.85163 32.3673 7.58243C32.3689 7.31323 32.424 7.04703 32.5294 6.79929C32.6347 6.55155 32.7882 6.32719 32.9809 6.13923L36.333 2.7872C36.4087 2.71131 36.4653 2.61852 36.4982 2.51647C36.5311 2.41442 36.5393 2.30603 36.5221 2.2002C36.5049 2.09437 36.4628 1.99413 36.3994 1.90773C36.3359 1.82132 36.2528 1.75122 36.157 1.70319C34.9158 1.07926 33.5095 0.86285 32.1382 1.08478C30.7669 1.3067 29.5005 1.95565 28.5195 2.9392L27.7195 3.73921C27.0256 4.42916 26.4753 5.2499 26.1006 6.15394C25.726 7.05797 25.5344 8.02734 25.5368 9.00593C25.5387 9.28326 25.5574 9.56021 25.5928 9.83527L25.2355 10.5446C24.2902 12.4326 23.0482 14.1567 21.5568 15.6513L16.1287 21.0807C14.6331 22.5734 12.9076 23.8163 11.018 24.7621L10.7074 24.9194C9.33135 24.6449 7.90767 24.7316 6.57518 25.1712C5.24268 25.6108 4.04686 26.3883 3.10435 27.4277C2.16184 28.4672 1.5048 29.7331 1.19733 31.1022C0.889854 32.4712 0.942439 33.8965 1.34995 35.2392C1.75747 36.5818 2.506 37.796 3.52254 38.7631C4.53908 39.7303 5.78894 40.4175 7.1502 40.7577C8.51146 41.0979 9.93766 41.0796 11.2897 40.7044C12.6417 40.3292 13.8735 39.61 14.8647 38.6169C15.8142 37.6749 16.5136 36.511 16.8996 35.2304C17.2856 33.9499 17.3461 32.5933 17.0754 31.2835L17.2328 30.9715C18.1781 29.0835 19.4201 27.3594 20.9115 25.8648L26.3355 20.4421C27.8307 18.9498 29.5558 17.7073 31.4449 16.762L32.1556 16.4033C32.4397 16.4372 32.7255 16.455 33.0116 16.4567C33.9853 16.4578 34.9495 16.2658 35.8485 15.8919C36.7475 15.5179 37.5634 14.9693 38.249 14.278L39.049 13.478C40.0306 12.4956 40.6788 11.2297 40.902 9.85908C41.1252 8.48842 40.9122 7.08227 40.293 5.83923ZM13.9061 37.6676C13.1193 38.4549 12.1507 39.0362 11.0858 39.36C10.0209 39.6838 8.89257 39.7401 7.80071 39.524C6.70886 39.3079 5.6871 38.826 4.82586 38.1209C3.96461 37.4159 3.29042 36.5094 2.86294 35.4817C2.43547 34.4541 2.26788 33.3369 2.37501 32.229C2.48215 31.1211 2.8607 30.0567 3.47717 29.13C4.09365 28.2033 4.92903 27.4428 5.90942 26.9158C6.88981 26.3889 7.98497 26.1117 9.09801 26.1088C9.63688 26.1097 10.1738 26.1732 10.698 26.2981C10.7932 26.3163 10.8872 26.3403 10.9794 26.3701C11.8568 26.6134 12.6719 27.0417 13.3701 27.6261L13.4447 27.6795C13.4621 27.6915 13.4927 27.7195 13.5594 27.7755C13.5875 27.7959 13.6138 27.8186 13.6381 27.8435C13.6719 27.8777 13.7095 27.9081 13.7501 27.9341L13.7061 27.9048C13.724 27.9229 13.7432 27.9398 13.7634 27.9555C13.804 27.9894 13.8418 28.0264 13.8767 28.0661C13.8935 28.0857 13.9118 28.104 13.9314 28.1208C13.9807 28.1648 14.0234 28.2141 14.0861 28.2795C14.1067 28.3074 14.1294 28.3337 14.1541 28.3581C14.1909 28.3963 14.2251 28.4369 14.2567 28.4795C14.2781 28.5035 14.3007 28.5275 14.3154 28.5475C14.3325 28.5744 14.3512 28.6002 14.3714 28.6248C14.9576 29.3255 15.3864 30.144 15.6287 31.0248C15.6571 31.1122 15.6798 31.2012 15.6967 31.2915C15.6982 31.3065 15.7013 31.3212 15.7061 31.3355C15.976 32.4566 15.9521 33.6285 15.6368 34.7377C15.3215 35.8469 14.7254 36.856 13.9061 37.6676ZM25.3728 19.49L19.9475 24.9154C18.5957 26.2706 17.434 27.8028 16.4941 29.4701C16.4728 29.4221 16.4421 29.3795 16.4208 29.3368C16.3274 29.1448 16.2247 28.9595 16.1154 28.7755C16.0661 28.6941 16.0221 28.6115 15.9701 28.5315C15.8049 28.2723 15.6241 28.0234 15.4287 27.7861C15.3878 27.7283 15.3433 27.673 15.2954 27.6208C15.246 27.5557 15.193 27.4934 15.1367 27.4341C15.116 27.4083 15.0933 27.3843 15.0687 27.3621C15.0007 27.2848 14.9354 27.2088 14.8554 27.1381C14.7856 27.0626 14.7112 26.9913 14.6327 26.9248C14.6114 26.9035 14.5847 26.8795 14.5541 26.8528C14.5046 26.8054 14.4525 26.7609 14.3981 26.7195C14.3367 26.6655 14.2726 26.6148 14.2061 26.5674C13.9688 26.3721 13.7199 26.1913 13.4607 26.0261C13.3781 25.9714 13.2914 25.9248 13.206 25.8754C13.026 25.7688 12.8447 25.6688 12.6567 25.5768C12.6087 25.5528 12.5647 25.5221 12.5167 25.5008C14.1847 24.5612 15.7174 23.3994 17.0728 22.0474L22.5008 16.61C23.9135 15.194 25.118 13.5846 26.0782 11.83C26.0915 11.862 26.1089 11.8926 26.1222 11.9246C26.1942 12.094 26.2715 12.2633 26.3569 12.426C26.3915 12.494 26.4302 12.5593 26.4675 12.6286C26.5409 12.762 26.6182 12.8953 26.6995 13.018C26.7435 13.086 26.7889 13.1513 26.8329 13.2206C26.9209 13.354 27.0142 13.474 27.1115 13.5966C27.1555 13.6526 27.1982 13.7113 27.2449 13.766C27.3902 13.9406 27.5422 14.1113 27.7049 14.274C27.8675 14.4367 28.0382 14.5887 28.2129 14.734C28.2689 14.7807 28.3262 14.822 28.3822 14.8673C28.5049 14.9647 28.6302 15.058 28.7595 15.146L28.9622 15.2793C29.0956 15.3607 29.2222 15.438 29.3542 15.5127C29.4222 15.55 29.4876 15.5873 29.5529 15.622C29.7196 15.7087 29.8916 15.7873 30.0662 15.862C30.0942 15.874 30.1209 15.8887 30.1489 15.9007C28.3972 16.8633 26.791 18.0695 25.3782 19.4834L25.3728 19.49ZM39.5677 9.63394C39.3979 10.7249 38.884 11.733 38.101 12.5113L37.301 13.3113C36.5013 14.1131 35.4938 14.6759 34.3917 14.9365C33.2897 15.197 32.1368 15.1449 31.0627 14.7861C29.9887 14.4273 29.036 13.776 28.3118 12.9054C27.5877 12.0348 27.1207 10.9794 26.9635 9.85794C26.9195 9.5756 26.8968 9.29035 26.8955 9.0046C26.8933 8.20391 27.05 7.41075 27.3565 6.67104C27.6629 5.93132 28.1131 5.25975 28.6809 4.69522L29.4809 3.89521C30.1439 3.23128 30.9729 2.75736 31.8814 2.52284C32.7899 2.28832 33.7447 2.3018 34.6463 2.56186L32.0222 5.18189C31.6989 5.49448 31.441 5.86832 31.2636 6.28162C31.0862 6.69492 30.9929 7.1394 30.9891 7.58915C30.9853 8.03889 31.071 8.48489 31.2414 8.90114C31.4117 9.31738 31.6633 9.69555 31.9813 10.0136C32.2993 10.3316 32.6775 10.5831 33.0937 10.7535C33.51 10.9238 33.956 11.0096 34.4057 11.0058C34.8554 11.002 35.2999 10.9087 35.7132 10.7313C36.1265 10.5539 36.5004 10.296 36.813 9.97261L39.4343 7.35125C39.6476 8.09283 39.6931 8.87257 39.5677 9.63394Z" fill="#081A3E" stroke="#081A3E" stroke-width="0.2"/>
<path d="M12.776 29.6938C12.7453 29.5787 12.6848 29.4737 12.6005 29.3894C12.5162 29.3051 12.4112 29.2445 12.296 29.2138L8.19196 28.1165C8.07718 28.086 7.95641 28.0862 7.84174 28.1171C7.72707 28.148 7.62253 28.2084 7.53862 28.2925L4.53859 31.2925C4.45455 31.3764 4.39405 31.481 4.36316 31.5957C4.33227 31.7103 4.33207 31.8311 4.36258 31.9459L5.45993 36.0499C5.49063 36.1651 5.55118 36.2701 5.63546 36.3544C5.71974 36.4387 5.82476 36.4992 5.93993 36.5299L10.044 37.6273C10.1009 37.6428 10.1597 37.6504 10.2186 37.6499C10.3077 37.6504 10.3959 37.6331 10.4781 37.599C10.5603 37.5649 10.6348 37.5147 10.6973 37.4513L13.6973 34.4512C13.7814 34.3673 13.8419 34.2628 13.8728 34.1481C13.9037 34.0334 13.9039 33.9126 13.8734 33.7979L12.776 29.6938ZM10.016 36.2179L6.66927 35.3205L5.77326 31.9725L8.22129 29.5245L11.5693 30.4192L12.464 33.7672L10.016 36.2179Z" fill="#081A3E" stroke="#081A3E" stroke-width="0.2"/>
</svg>
