<svg width="30" height="40" viewBox="0 0 30 40" fill="none" xmlns="http://www.w3.org/2000/svg">
<path d="M24.4244 11.3183H27.5715C28.4769 11.3183 29.2134 10.5818 29.2134 9.67643V1.64192C29.2135 0.736584 28.4769 0 27.5715 0H24.4245C23.5191 0 22.7826 0.736584 22.7826 1.64192V4.88786H17.7233C17.3865 3.70144 16.2942 2.82963 15.0014 2.82963C13.7085 2.82963 12.6162 3.70152 12.2794 4.88786H7.22006V1.64192C7.21998 0.736584 6.48339 0 5.57797 0H2.4309C1.52556 0 0.789062 0.736584 0.789062 1.64192V9.67643C0.789062 10.5818 1.52565 11.3183 2.4309 11.3183H5.57797C6.48339 11.3183 7.21989 10.5818 7.21989 9.67643V6.43134H12.2795C12.5468 7.37184 13.2889 8.11391 14.2295 8.38102V21.2305C13.0296 21.6665 12.1716 23.1013 12.1716 24.8523C12.1716 26.6032 13.0296 28.0379 14.2295 28.474V31.6191C13.2888 31.8862 12.5465 32.6284 12.2793 33.5693H7.21989V30.3236C7.21989 29.4182 6.48331 28.6817 5.57797 28.6817H2.4309C1.52556 28.6817 0.789062 29.4182 0.789062 30.3236V38.3581C0.789062 39.2634 1.52565 40 2.4309 40H5.57797C6.48339 40 7.21989 39.2634 7.21989 38.3581V35.1127H12.2794C12.6163 36.2988 13.7085 37.1705 15.0012 37.1705C16.2938 37.1705 17.386 36.2988 17.7229 35.1127H22.7825V38.3581C22.7825 39.2634 23.5191 40 24.4243 40H27.5714C28.4768 40 29.2133 39.2634 29.2133 38.3581V30.3236C29.2133 29.4182 28.4767 28.6817 27.5714 28.6817H24.4243C23.519 28.6817 22.7825 29.4182 22.7825 30.3236V33.5693H17.723C17.4559 32.6285 16.7137 31.8863 15.773 31.6192V28.4739C16.9729 28.0379 17.8308 26.6031 17.8308 24.8523C17.8308 23.1014 16.9729 21.6667 15.773 21.2306V8.38093C16.7135 8.11382 17.4557 7.37184 17.7229 6.43134H22.7825V9.67643C22.7826 10.5818 23.5191 11.3183 24.4244 11.3183ZM5.6765 9.67643C5.6765 9.73071 5.63225 9.77487 5.57806 9.77487H2.4309C2.37662 9.77487 2.33254 9.73071 2.33254 9.67643V1.64192C2.33254 1.58764 2.3767 1.54348 2.4309 1.54348H5.57797C5.63225 1.54348 5.67641 1.58764 5.67641 1.64192V9.67643H5.6765ZM5.6765 38.3581C5.6765 38.4124 5.63225 38.4565 5.57806 38.4565H2.4309C2.37662 38.4565 2.33254 38.4124 2.33254 38.3581V30.3236C2.33254 30.2693 2.3767 30.2251 2.4309 30.2251H5.57797C5.63225 30.2251 5.67641 30.2693 5.67641 30.3236V38.3581H5.6765ZM24.326 30.3235C24.326 30.2692 24.3702 30.225 24.4244 30.225H27.5715C27.6257 30.225 27.6699 30.2692 27.6699 30.3235V38.358C27.6699 38.4123 27.6257 38.4564 27.5715 38.4564H24.4244C24.3701 38.4564 24.326 38.4123 24.326 38.358V30.3235ZM16.2874 34.3407C16.2874 35.05 15.7104 35.6269 15.0013 35.6269C14.2921 35.6269 13.7151 35.0499 13.7151 34.3407C13.7151 33.6316 14.2921 33.0546 15.0013 33.0546C15.7104 33.0546 16.2874 33.6316 16.2874 34.3407ZM15.0013 27.0676C14.3929 27.0676 13.7151 26.1577 13.7151 24.8522C13.7151 23.5466 14.3929 22.6367 15.0013 22.6367C15.6097 22.6367 16.2874 23.5466 16.2874 24.8522C16.2874 26.1577 15.6096 27.0676 15.0013 27.0676ZM15.0013 6.94532C14.292 6.94532 13.7151 6.36832 13.7151 5.65917C13.7151 4.95003 14.2921 4.37303 15.0013 4.37303C15.7104 4.37303 16.2874 4.95003 16.2874 5.65917C16.2874 6.3684 15.7104 6.94532 15.0013 6.94532ZM24.326 1.64192C24.326 1.58764 24.3702 1.54348 24.4244 1.54348H27.5715C27.6257 1.54348 27.6699 1.58764 27.6699 1.64192V9.67643C27.6699 9.73071 27.6257 9.77487 27.5715 9.77487H24.4244C24.3701 9.77487 24.326 9.73071 24.326 9.67643V1.64192Z" fill="#081A3E"/>
</svg>
