<svg width="26" height="26" fill="none" xmlns="http://www.w3.org/2000/svg"><g clip-path="url(#clip0)"><path d="M5.25 17.283a27.584 27.584 0 009.172 7.187 14.28 14.28 0 005.134 1.516c.124.005.243.011.366.011a4.252 4.252 0 003.319-1.444c.327-.377.674-.737 1.04-1.077.254-.243.512-.496.76-.754a2.598 2.598 0 00-.011-3.873l-3.238-3.238a2.622 2.622 0 00-1.896-.873 2.71 2.71 0 00-1.919.867l-1.929 1.93a10.038 10.038 0 00-.533-.281 6.667 6.667 0 01-.593-.324 20.409 20.409 0 01-4.872-4.436 11.75 11.75 0 01-1.648-2.628c.505-.458.98-.94 1.438-1.407.162-.166.329-.333.496-.5a2.762 2.762 0 00.894-1.94 2.74 2.74 0 00-.894-1.94L8.732 2.474c-.189-.189-.367-.372-.55-.56A30.27 30.27 0 007.089.828 2.686 2.686 0 005.193 0a2.765 2.765 0 00-1.92.835L1.258 2.85A4.14 4.14 0 00.024 5.5a9.971 9.971 0 00.749 4.31 25.074 25.074 0 004.477 7.473zM1.339 5.613a2.85 2.85 0 01.856-1.83L4.2 1.777c.258-.276.615-.44.993-.458a1.377 1.377 0 01.97.469c.36.334.7.684 1.066 1.056.184.188.372.377.56.571l1.606 1.606a1.463 1.463 0 01.506 1.007 1.463 1.463 0 01-.506 1.008c-.167.166-.333.34-.5.505-.502.506-.97.986-1.488 1.445l-.027.026a1.053 1.053 0 00-.27 1.196c.006.016.012.027.017.044a12.68 12.68 0 001.89 3.076 21.545 21.545 0 005.193 4.727c.23.141.467.27.711.387.203.098.4.206.593.324.022.01.038.022.06.032.16.087.34.133.522.135a1.141 1.141 0 00.802-.366l2.015-2.015a1.426 1.426 0 01.986-.48 1.352 1.352 0 01.954.48l3.25 3.243a1.301 1.301 0 01-.016 2.031c-.226.243-.464.474-.717.716-.395.37-.771.76-1.126 1.17a2.962 2.962 0 01-2.31.98c-.093 0-.19-.005-.281-.01a12.975 12.975 0 01-4.644-1.39 26.205 26.205 0 01-8.733-6.84A24 24 0 012.015 9.37a8.69 8.69 0 01-.676-3.755z" fill="#246EB2" fill-opacity=".3"/></g><defs><clipPath id="clip0"><path fill="#fff" d="M0 0h25.902v26H0z"/></clipPath></defs></svg>