<svg width="24" height="24" viewBox="0 0 24 24" fill="none" xmlns="http://www.w3.org/2000/svg">
<path d="M15.6314 14.4L13.1114 16.9C10.6114 15.47 8.54136 13.4 7.11136 10.9L9.61136 8.38C9.84136 8.14 9.94136 7.81 9.88136 7.48L9.13136 3.8C9.04136 3.34 8.63136 3 8.15136 3H4.00136C3.44136 3 2.97136 3.47 3.00136 4.03C3.17136 6.92 4.05136 9.63 5.43136 12C7.01136 14.73 9.28136 16.99 12.0014 18.57C14.3714 19.94 17.0814 20.83 19.9714 21C20.5314 21.03 21.0014 20.56 21.0014 20V15.85C21.0014 15.37 20.6614 14.96 20.2014 14.87L16.5314 14.14C16.3716 14.1052 16.2056 14.1108 16.0485 14.1562C15.8913 14.2015 15.748 14.2853 15.6314 14.4Z" fill="#155EEF"/>
</svg>
