<svg width="51" height="51" viewBox="0 0 51 51" fill="none" xmlns="http://www.w3.org/2000/svg">
<g clip-path="url(#clip0_11725_59676)">
<path d="M47.1535 22.3184C42.9037 26.5682 36.2832 27.3542 31.1811 24.2918L27.6865 25.0472C27.1986 25.1526 26.689 25.0046 26.333 24.6528L31.5326 10.1981L47.1598 3.82605C49.5646 6.23083 50.9182 9.4036 50.9824 12.8185C51.0514 16.4073 49.691 19.7809 47.1535 22.3184Z" fill="#29A53E"/>
<path d="M41.0507 50.2288C40.139 50.4424 39.2211 50.5478 38.3107 50.5478C36.0253 50.5478 33.7886 49.8817 31.8215 48.589C26.4353 45.0484 21.019 40.5662 15.7192 35.2665L16.3549 29.5624L23.92 27.0656L23.9207 27.0663C28.9852 32.1294 33.3425 35.279 35.4898 36.7058C35.6901 36.8391 35.9568 36.7986 36.1104 36.613C36.5851 36.0378 37.4144 35.9065 38.044 36.3059L48.0919 42.675C48.7655 43.1015 48.9799 43.9846 48.5778 44.6728C46.9235 47.5056 44.2499 49.4784 41.0507 50.2288Z" fill="#F81734"/>
<path d="M36.1104 36.6132L39.1657 32.9151C40.2251 31.633 42.0837 31.3378 43.4891 32.2284L49.0956 35.7826C50.9028 36.9281 51.5159 39.2963 50.4915 41.1744L48.756 44.3591C48.6993 44.4639 48.6386 44.5704 48.5767 44.6756L36.1104 36.6132Z" fill="#414952"/>
<path d="M14.2792 15.4966C14.2144 15.3996 14.2003 15.3032 14.201 15.2397C14.201 15.0987 14.2631 14.9667 14.3713 14.8767C14.9472 14.4013 15.0792 13.5727 14.6792 12.9424L8.31013 2.89438C7.88363 2.22077 7.00052 2.00643 6.3123 2.40854C3.47954 4.063 1.50679 6.73661 0.75637 9.93574C0.00595033 13.1364 0.58814 16.4145 2.39612 19.1649C5.93674 24.5511 10.4197 29.9681 15.718 35.2664L23.9188 27.0656C18.8558 22.0011 15.7061 17.6438 14.2792 15.4966Z" fill="#FF641A"/>
<path d="M6.30908 2.41027C6.30908 2.41027 6.52065 2.28785 6.62817 2.2296L9.81032 0.495467C11.6879 -0.528918 14.0564 0.0840747 15.2022 1.89146L18.7561 7.49784C19.6468 8.9035 19.3516 10.7621 18.0695 11.8214L14.3715 14.8767L6.30908 2.41027Z" fill="#595959"/>
<path d="M47.1594 3.82603L26.3326 24.6528L26.3263 24.6464C25.971 24.2911 25.8203 23.7787 25.9256 23.2866L26.6815 19.7928C23.6017 14.6648 24.4073 8.02338 28.7032 3.77222C31.0996 1.39953 34.2891 0.0599096 37.6838 0.00195721C41.0799 -0.0559952 44.3126 1.17473 46.7859 3.46646C46.913 3.58375 47.0373 3.7039 47.1594 3.82603Z" fill="#42CF5A"/>
<path d="M42.8909 12.223L36.6404 16.3904C36.0548 16.7806 35.275 16.7046 34.7759 16.2097L37.3182 12.9358L41.1812 9.80431L41.2483 9.75968C41.9282 9.30594 42.8476 9.48957 43.302 10.1702C43.755 10.8506 43.5715 11.7699 42.8909 12.223Z" fill="white"/>
<path d="M41.1808 9.80429L34.7753 16.2098L32.6874 14.1219C32.1094 13.5438 32.1094 12.6057 32.6874 12.0277C33.2662 11.449 34.2037 11.4497 34.7816 12.0277L36.0067 13.2528L41.1808 9.80429Z" fill="#F7F3F3"/>
</g>
<defs>
<clipPath id="clip0_11725_59676">
<rect width="50.5479" height="50.5479" fill="white" transform="translate(0.438477)"/>
</clipPath>
</defs>
</svg>
