<svg id="Layer_1" data-name="Layer 1" xmlns="http://www.w3.org/2000/svg" viewBox="0 0 11.35 11.5">
  <path class="cls-1" d="M11.54,8.58A4.27,4.27,0,0,0,9.87,7.45a1.94,1.94,0,0,0-1.12,0A2,2,0,0,0,7.82,8l-.43.44A8.07,8.07,0,0,1,5.8,7.2l-.06-.06A8.59,8.59,0,0,1,4.48,5.52l.43-.44a2,2,0,0,0,.58-1A2.07,2.07,0,0,0,5.48,3,4.08,4.08,0,0,0,4.39,1.33,1.8,1.8,0,0,0,3.12.75a1.93,1.93,0,0,0-1.36.52A4,4,0,0,0,1,2.54,3.89,3.89,0,0,0,.75,4,8.45,8.45,0,0,0,3.39,9.58a9.12,9.12,0,0,0,1,.92.84.84,0,0,0,.23.12.78.78,0,0,0,.26,0,.62.62,0,0,0,.26-.09.61.61,0,0,0,.19-.17.68.68,0,0,0,.12-.24.82.82,0,0,0,0-.27.58.58,0,0,0-.09-.25.55.55,0,0,0-.17-.2,11.59,11.59,0,0,1-.92-.81A7.1,7.1,0,0,1,2.1,4,2.31,2.31,0,0,1,2.24,3a2.38,2.38,0,0,1,.47-.8.47.47,0,0,1,.36-.13.48.48,0,0,1,.35.16c1.16,1.21.81,1.57.54,1.85l-.79.81A.7.7,0,0,0,3,5.69,9.08,9.08,0,0,0,4.79,8.1l0,.05A8.72,8.72,0,0,0,7.23,9.93a.62.62,0,0,0,.4.05A.58.58,0,0,0,8,9.79L8.77,9c.28-.28.63-.63,1.82.54a.48.48,0,0,1,.16.36.51.51,0,0,1-.11.35,2.43,2.43,0,0,1-.79.49,2.31,2.31,0,0,1-.95.14,5.19,5.19,0,0,1-2-.48.76.76,0,0,0-.25-.06.86.86,0,0,0-.27.05.8.8,0,0,0-.21.15.51.51,0,0,0-.15.21.72.72,0,0,0,0,.52.67.67,0,0,0,.35.37,6.33,6.33,0,0,0,2.55.61H9A3.66,3.66,0,0,0,10.35,12a3.62,3.62,0,0,0,1.27-.83,1.88,1.88,0,0,0-.08-2.6Z" transform="translate(-0.75 -0.75)"/>
</svg>
