<svg xmlns="http://www.w3.org/2000/svg" height="512" viewBox="0 0 510.47 510.47" width="512"><path d="M509.993 239.772c-2.025-65.608-27.842-126.263-72.693-170.791C392.646 24.649 333.275.235 270.12.235h-15v255h255.35zM285.12 225.235V30.772c102.089 7.339 183.566 89.053 193.894 194.463z"/><path d="M225 90.235h-15c-115.794 0-210 94.206-210 210s94.206 210 210 210 210-94.206 210-210v-15H225zm164.382 225c-7.65 92.259-85.182 165-179.382 165-99.251 0-180-80.748-180-180 0-94.2 72.741-171.731 165-179.381v194.381z"/></svg>