<svg xmlns="http://www.w3.org/2000/svg" width="17" height="17" viewBox="0 0 17 17">
  <g data-name="Group 8260">
    <path data-name="Path 27545" d="M1.452 16.918c.192.118-.732.074 13.556.074A1.994 1.994 0 0017 15v-1.493a.5.5 0 00-.5-.5h-1.16V2.081A2.084 2.084 0 0013.258 0H.5a.5.5 0 00-.5.5V15a1.992 1.992 0 001.452 1.917zM16 15a1 1 0 01-1 1H3.717a1.979 1.979 0 00.267-1v-1H16zM1 1h12.258a1.087 1.087 0 011.086 1.086V13.01H3.486a.5.5 0 00-.5.5v1.468a1 1 0 01-1.7.73A.989.989 0 011 15z"/>
    <path data-name="Path 27546" d="M3.608 5.459h8.125a.5.5 0 100-1H3.608a.5.5 0 100 1z"/>
    <path data-name="Path 27548" d="M3.608 9.602h8.125a.5.5 0 100-1H3.608a.5.5 0 100 1z"/>
  </g>
</svg>