<svg id="Layer_1" data-name="Layer 1" xmlns="http://www.w3.org/2000/svg" viewBox="0 0 11.44 15.3">
  <path class="cls-1" d="M11.87,4.35a5.47,5.47,0,0,0-1.25-1.83A5.51,5.51,0,0,0,8.78,1.27,5.26,5.26,0,0,0,6.6.85H1.93a1,1,0,0,0-.77.29,1.21,1.21,0,0,0-.24.35,1,1,0,0,0-.07.42V15.08a1.13,1.13,0,0,0,.31.76,1.09,1.09,0,0,0,1.52,0A1.13,1.13,0,0,0,3,15.08V11a5.62,5.62,0,0,0,3.56,1.27h0a5.61,5.61,0,0,0,2.18-.43,5.39,5.39,0,0,0,1.82-1.27,5.44,5.44,0,0,0,1.26-1.84,5.65,5.65,0,0,0,.43-2.18A5.48,5.48,0,0,0,11.87,4.35ZM3.25,7.92A3.45,3.45,0,0,1,3,6.54V3H6.63A3.45,3.45,0,0,1,9.1,4a3.38,3.38,0,0,1,.79,1.15,3.2,3.2,0,0,1,.27,1.37,3.25,3.25,0,0,1-.27,1.37,3.54,3.54,0,0,1-.56.91l-.23.24A3.44,3.44,0,0,1,8,9.85a3.36,3.36,0,0,1-1.33.27h0a3.23,3.23,0,0,1-1.38-.26,3.32,3.32,0,0,1-1.17-.79A3.51,3.51,0,0,1,3.25,7.92Z" transform="translate(-0.85 -0.85)"/>
</svg>
