<svg width="28" height="24" viewBox="0 0 28 24" fill="none" xmlns="http://www.w3.org/2000/svg">
<rect width="28" height="24" rx="4" fill="#F81734"/>
<path d="M18.1688 4.28821V5.37231L10.4509 8.45696H5.73126C4.30724 8.45696 3.15001 9.61419 3.15001 11.0382V12.7257C3.15001 14.1497 4.30724 15.307 5.73126 15.307H6.57528L7.84737 19.7551C7.98143 20.2288 8.47736 20.506 8.95134 20.3675C9.42489 20.2334 9.70202 19.7375 9.56352 19.2636C9.5635 19.2635 9.56349 19.2634 9.56347 19.2634L8.43425 15.307H10.4508L18.1688 18.3958V19.4757C18.1688 19.9674 18.5708 20.3695 19.0625 20.3695C19.5542 20.3695 19.9563 19.9674 19.9563 19.4757V4.28821C19.9563 3.79653 19.5542 3.39446 19.0625 3.39446C18.5708 3.39446 18.1688 3.79653 18.1688 4.28821ZM4.93751 12.7299V11.0424C4.93751 10.606 5.29481 10.2487 5.73126 10.2487H9.73126V13.5237H5.73126C5.29481 13.5237 4.93751 13.1664 4.93751 12.7299ZM18.1688 16.4698L11.5188 13.8098V9.95831L18.1688 7.29831V16.4698Z" fill="white" stroke="white" stroke-width="0.1"/>
<path d="M23.9562 10.9925H22.2687C21.7772 10.9925 21.375 11.3902 21.375 11.8862C21.375 12.3779 21.7771 12.78 22.2687 12.78H23.9562C24.4479 12.78 24.85 12.3779 24.85 11.8862C24.85 11.3946 24.4479 10.9925 23.9562 10.9925Z" fill="white" stroke="white" stroke-width="0.1"/>
<path d="M22.7599 6.54158L22.76 6.54151C23.171 6.26898 23.7251 6.38057 23.9978 6.78737L23.9979 6.78758C24.2704 7.1986 24.1589 7.75265 23.7521 8.02534L23.7519 8.02541L22.6255 8.77634L22.6254 8.77641C22.2144 9.04892 21.6604 8.93736 21.3877 8.53062M22.7599 6.54158L21.3877 8.53055C21.3877 8.53057 21.3877 8.5306 21.3877 8.53062M22.7599 6.54158L21.6336 7.29244M22.7599 6.54158L21.6336 7.29244M21.3877 8.53062C21.1107 8.11944 21.2224 7.56513 21.6336 7.29248M21.3877 8.53062C21.3877 8.53063 21.3877 8.53064 21.3877 8.53065L21.6336 7.29248M21.6336 7.29248C21.6336 7.29247 21.6336 7.29246 21.6336 7.29244M21.6336 7.29248L21.6336 7.29244" fill="white" stroke="white" stroke-width="0.1"/>
<path d="M21.6334 16.4756L21.6335 16.4756L22.7597 17.2264C22.7598 17.2265 22.7598 17.2265 22.7599 17.2265C23.171 17.5035 23.7252 17.3918 23.9978 16.9807C24.2748 16.5696 24.163 16.0153 23.7519 15.7427C23.7519 15.7427 23.7519 15.7427 23.7519 15.7427L22.626 14.9921C22.6259 14.992 22.6259 14.992 22.6258 14.9919C22.2186 14.7147 21.6601 14.8268 21.3876 15.2378C21.1151 15.6488 21.2266 16.2029 21.6334 16.4756Z" fill="white" stroke="white" stroke-width="0.1"/>
</svg>
