<svg width="25" height="24" viewBox="0 0 25 24" fill="none" xmlns="http://www.w3.org/2000/svg">
    <path
        d="M18.518 8.97382H19.7641C20.8322 8.97382 21.7223 8.08371 21.7223 6.95624V3.21778C21.7223 2.09031 20.8322 1.2002 19.7641 1.2002H18.518C17.3905 1.2002 16.5004 2.09031 16.5004 3.21778V4.34525H14.0674C13.652 3.33646 12.5245 2.80239 11.4564 3.21778C10.9223 3.3958 10.5663 3.81118 10.3289 4.34525H7.95532V3.21778C7.95532 2.09031 7.06521 1.2002 5.99707 1.2002H4.75092C3.62345 1.2002 2.73334 2.09031 2.73334 3.21778V6.95624C2.73334 8.08371 3.62345 8.97382 4.75092 8.97382H5.99707C7.12455 8.97382 8.01466 8.08371 8.01466 6.95624V5.82877H10.4476C10.6256 6.36283 11.041 6.71888 11.5751 6.95624V11.2881C10.507 11.3474 9.67619 12.2376 9.67619 13.3057V14.5518C9.67619 15.62 10.507 16.5101 11.5751 16.5694V18.231H7.95532V17.1035C7.95532 15.976 7.06521 15.0859 5.93773 15.0859H4.75092C3.62345 15.0859 2.73334 15.976 2.73334 17.1035V20.7826C2.73334 21.9101 3.62345 22.8002 4.69158 22.8002H5.93773C7.06521 22.8002 7.95532 21.9101 7.95532 20.7826V19.6551H16.5004V20.7826C16.5004 21.9101 17.3905 22.8002 18.518 22.8002H19.7641C20.8322 22.8002 21.7223 21.9101 21.7223 20.7826V17.0441C21.7223 15.9167 20.8322 15.0266 19.7048 15.0266H18.4586C17.3311 15.0266 16.441 15.9167 16.441 17.0441V18.1716H12.9399V16.5101C14.0081 16.4507 14.8388 15.5606 14.8388 14.4925V13.2463C14.8388 12.1782 14.0081 11.2881 12.9399 11.2288V6.8969C13.4147 6.71888 13.83 6.30349 14.0674 5.76943H16.5004V6.8969C16.5004 8.08371 17.3905 8.97382 18.518 8.97382ZM18.518 2.68371H19.7641C20.0608 2.68371 20.2982 2.92107 20.2982 3.15844V6.8969C20.2982 7.1936 20.0608 7.43096 19.7641 7.43096H18.518C18.2213 7.43096 17.9839 7.1936 17.9839 6.8969V3.21778C17.9839 2.92107 18.2213 2.68371 18.518 2.68371ZM12.2278 4.58261C12.5245 4.52327 12.7619 4.76063 12.7619 5.05734C12.8212 5.35404 12.5839 5.5914 12.2872 5.5914C12.2278 5.5914 12.2278 5.5914 12.1685 5.5914C11.8718 5.5914 11.6344 5.35404 11.6344 5.11668C11.6938 4.81997 11.9311 4.58261 12.2278 4.58261ZM11.1004 13.3057C11.1004 13.009 11.3377 12.7716 11.5751 12.7716H12.8212C13.118 12.7716 13.3553 13.009 13.3553 13.3057V14.5518C13.3553 14.8485 13.118 15.0859 12.8212 15.0859H11.6344C11.3377 15.0859 11.1004 14.8485 11.1004 14.6112V13.3057ZM4.21685 3.21778C4.21685 2.92107 4.45422 2.74305 4.69158 2.74305H5.93773C6.23444 2.74305 6.4718 2.98041 6.4718 3.21778V6.95624C6.4718 7.25294 6.23444 7.4903 5.93773 7.4903H4.75092C4.45422 7.4903 4.21685 7.25294 4.21685 6.95624V3.21778ZM4.21685 17.0441C4.21685 16.7474 4.45422 16.5101 4.69158 16.5101H5.93773C6.23444 16.5101 6.4718 16.7474 6.4718 17.0441V20.7826C6.4718 21.0793 6.23444 21.3167 5.93773 21.2573H4.75092C4.45422 21.2573 4.27619 21.02 4.27619 20.7826L4.21685 17.0441ZM18.518 16.5694H19.7641C20.0608 16.5694 20.2982 16.8068 20.2982 17.1035V20.7826C20.2982 21.0793 20.0608 21.2573 19.7641 21.2573H18.518C18.2213 21.2573 17.9839 21.02 17.9839 20.7826V17.0441C17.9839 16.7474 18.2213 16.5694 18.518 16.5694Z"
        fill="#697586" />
    <path
        d="M19.7641 15.0264H18.518C17.3905 15.0264 16.5004 15.9165 16.5004 17.044V18.1714H7.95532V17.044C7.95532 15.9165 7.06521 15.0264 5.93773 15.0264H4.75092C3.62345 15.0264 2.73334 15.9165 2.73334 17.044V20.7824C2.73334 21.9099 3.62345 22.8 4.69158 22.8H5.93773C7.06521 22.8 7.95532 21.9099 7.95532 20.7824V19.6549H16.5004V20.7824C16.5004 21.9099 17.3905 22.8 18.518 22.8H19.7641C20.8322 22.8 21.7223 21.9099 21.7223 20.7824V17.044C21.7223 15.9758 20.8322 15.0857 19.7641 15.0264Z"
        fill="#155EEF" />
</svg>