<svg width="24" height="24" viewBox="0 0 24 24" fill="none" xmlns="http://www.w3.org/2000/svg">
<path d="M12 0.999939C5.9247 0.999939 1 5.92464 1 11.9999C1 18.0752 5.9247 22.9999 12 22.9999C18.0753 22.9999 23 18.0752 23 11.9999C23 5.92464 18.0753 0.999939 12 0.999939ZM12 6.49994C12.6072 6.49994 13.1 6.99274 13.1 7.59994C13.1 8.20714 12.6072 8.69994 12 8.69994C11.3928 8.69994 10.9 8.20714 10.9 7.59994C10.9 6.99274 11.3928 6.49994 12 6.49994ZM10.9 9.79994C11.0782 9.79994 11.8614 9.79994 12 9.79994C12.6941 9.79994 13.2023 10.4258 13.0659 11.1067L12.2409 15.2999H13.1C13.7072 15.2999 14.2 15.7927 14.2 16.3999C14.2 17.0071 13.7072 17.4999 13.1 17.4999H12C10.6987 17.4999 9.7857 16.3702 10.0409 15.0931L10.6932 11.9317C10.1949 11.8261 9.8 11.4301 9.8 10.8999C9.8 10.2927 10.2928 9.79994 10.9 9.79994Z" fill="#CDD5DF"/>
</svg>
