<svg id="Layer_1" data-name="Layer 1" xmlns="http://www.w3.org/2000/svg" viewBox="0 0 10.57 12.44">
  <g>
    <path class="cls-1" d="M8.87,11.51a.71.71,0,0,0-.41-.33.7.7,0,0,0-.53.05A4.07,4.07,0,0,1,6,11.71a3.85,3.85,0,0,1-1.92-.55,3.89,3.89,0,0,1-1.4-1.42,3.94,3.94,0,0,1-.51-1.92A.68.68,0,0,0,2,7.31a.63.63,0,0,0-.23-.16.72.72,0,0,0-.54,0A.63.63,0,0,0,1,7.31a.61.61,0,0,0-.15.24.59.59,0,0,0,0,.26,5.27,5.27,0,0,0,2.59,4.55A5.26,5.26,0,0,0,6,13.1h.1a5.21,5.21,0,0,0,2.53-.65A.71.71,0,0,0,8.93,12a.7.7,0,0,0-.06-.53Z" transform="translate(-0.77 -0.66)"/>
    <path class="cls-1" d="M11.3,7.1a5.4,5.4,0,0,0-1.5-3A5.27,5.27,0,0,0,6.07,2.52H4.88l.69-.69a.69.69,0,0,0,0-1,.67.67,0,0,0-.48-.2h0a.71.71,0,0,0-.49.2L3.38,2.07a1.65,1.65,0,0,0,0,2.3l1.18,1.2a.76.76,0,0,0,.23.17A1.1,1.1,0,0,0,5,5.8a.87.87,0,0,0,.28,0,1.14,1.14,0,0,0,.23-.15.76.76,0,0,0,.15-.23.6.6,0,0,0,.06-.27.66.66,0,0,0-.06-.27.86.86,0,0,0-.15-.22l-.68-.7H6.06A3.89,3.89,0,0,1,8,4.43,3.82,3.82,0,0,1,9.43,5.85,3.9,3.9,0,0,1,10,7.79a4,4,0,0,1-.5,1.94.69.69,0,0,0-.1.25.65.65,0,0,0,0,.28.58.58,0,0,0,.12.25.6.6,0,0,0,.21.18.62.62,0,0,0,.26.09h.08a.69.69,0,0,0,.44-.16.78.78,0,0,0,.17-.21A5.33,5.33,0,0,0,11.3,7.1Z" transform="translate(-0.77 -0.66)"/>
  </g>
</svg>
