<svg width="80" height="80" viewBox="0 0 80 80" fill="none" xmlns="http://www.w3.org/2000/svg">
<rect width="80" height="80" rx="12" fill="#EEF2F6"/>
<path fill-rule="evenodd" clip-rule="evenodd" d="M38.6336 26.8489C34.3863 23.8726 28.4254 22.5239 23.9887 22.0225C21.7928 21.7744 20 23.608 20 25.8704V48.3999C20 50.6622 21.7928 52.4965 23.9887 52.7446C28.4254 53.246 34.3863 54.5947 38.6336 57.571C39.0418 57.857 39.5209 58 40 58V27.2779C39.5209 27.2779 39.0418 27.1349 38.6336 26.8489ZM24.5179 32.2799C24.6447 31.4613 25.4111 30.9004 26.2298 31.0272C28.8353 31.4307 31.7696 32.1051 34.5412 33.1769C35.3139 33.4757 35.698 34.3443 35.3993 35.117C35.1005 35.8896 34.2319 36.2738 33.4592 35.975C30.9419 35.0016 28.2282 34.3724 25.7706 33.9918C24.952 33.865 24.3911 33.0986 24.5179 32.2799ZM26.2298 39.0272C25.4111 38.9004 24.6447 39.4613 24.5179 40.2799C24.3911 41.0986 24.952 41.865 25.7706 41.9918C27.0091 42.1836 28.3165 42.4391 29.6333 42.7714C30.4365 42.974 31.252 42.4871 31.4546 41.6839C31.6573 40.8806 31.1704 40.0652 30.3672 39.8625C28.9491 39.5047 27.5492 39.2315 26.2298 39.0272Z" fill="#155EEF"/>
<path opacity="0.4" d="M41.3664 26.8489C45.6137 23.8726 51.5746 22.5239 56.0113 22.0225C58.2072 21.7744 60 23.608 60 25.8704V48.3999C60 50.6622 58.2072 52.4965 56.0113 52.7446C51.5746 53.246 45.6137 54.5947 41.3664 57.571C40.9582 57.857 40.4791 58 40 58V27.2779C40.4791 27.2779 40.9582 27.1349 41.3664 26.8489Z" fill="#155EEF"/>
<path fill-rule="evenodd" clip-rule="evenodd" d="M52 48.5C52.8284 48.5 53.5 49.1716 53.5 50V58C53.5 58.8284 52.8284 59.5 52 59.5C51.1716 59.5 50.5 58.8284 50.5 58V50C50.5 49.1716 51.1716 48.5 52 48.5Z" fill="#155EEF"/>
<path d="M54 44C54 45.1046 53.1046 46 52 46C50.8954 46 50 45.1046 50 44C50 42.8954 50.8954 42 52 42C53.1046 42 54 42.8954 54 44Z" fill="#155EEF"/>
</svg>
