<svg width="17" height="17" fill="none" xmlns="http://www.w3.org/2000/svg"><g clip-path="url(#a)" fill="#fff"><path d="M15.984 4.145a.426.426 0 0 0-.701.484c.566.82.865 1.811.865 2.864 0 1.049-.313 2.074-.881 2.888a.426.426 0 0 0 .698.488C16.642 9.899 17 8.732 17 7.493c0-1.226-.351-2.384-1.016-3.348ZM12.905.873c-.211 0-.406.117-.579.348-.014.018-1.437 1.85-4.987 2.944-.337.104-.71.177-.713.178a1.116 1.116 0 0 0-.243.077.851.851 0 0 0-.728-.412H2.07a.853.853 0 0 0-.852.852v.467a1.185 1.185 0 0 0-.183-.014C.465 5.313 0 5.718 0 6.217v2.355c0 .498.465.904 1.036.904.062 0 .124-.005.183-.015v.383c0 .47.382.851.852.851h.115l1.082 4.485c.128.531.656.947 1.202.947h1.145c.298 0 .569-.125.741-.344a.932.932 0 0 0 .162-.802l-1.034-4.286h.17a.851.851 0 0 0 .729-.412c.077.035.158.06.243.077.003 0 .376.074.713.179 3.55 1.096 4.973 2.925 4.986 2.943.174.231.369.348.58.348.208 0 .39-.118.487-.316a.931.931 0 0 0 .083-.416V1.605c0-.711-.512-.732-.57-.732ZM1.035 8.624c-.104 0-.167-.043-.183-.064V6.228c.016-.02.079-.064.184-.064.104 0 .167.044.183.064V8.56c-.016.02-.079.064-.183.064ZM5.69 15.18c.009.039.005.066-.003.076-.008.01-.033.02-.072.02H4.47a.429.429 0 0 1-.374-.295l-1.034-4.286h1.546L5.69 15.18ZM2.07 9.844V4.86h3.584v4.984H2.07Zm10.552 2.7c-.663-.664-2.228-1.953-5.033-2.82-.381-.117-.784-.196-.801-.2a.386.386 0 0 1-.283-.343V5.52c0-.147.138-.314.283-.342.017-.004.42-.083.801-.2 2.804-.865 4.37-2.155 5.033-2.82v10.385Z"/></g><defs><clipPath id="a"><path fill="#fff" d="M0 0h17v17H0z"/></clipPath></defs></svg>