<svg width="32" height="32" viewBox="0 0 32 32" fill="none" xmlns="http://www.w3.org/2000/svg">
<path d="M26.0771 9.1232C25.6949 8.74099 25.0948 8.68462 24.648 8.9891C22.9647 10.1365 14.5213 15.9061 13.6139 16.8135C12.298 18.1294 12.298 20.2705 13.6139 21.5865C14.2718 22.2444 15.1362 22.5734 16.0004 22.5734C16.8646 22.5734 17.7289 22.2444 18.3869 21.5865C19.2943 20.6791 25.0639 12.2357 26.2113 10.5524C26.5157 10.1056 26.4594 9.50554 26.0771 9.1232ZM16.7958 19.9955C16.3573 20.4342 15.6435 20.4342 15.2049 19.9955C14.7663 19.5569 14.7662 18.8434 15.2047 18.4047C15.5573 18.0563 17.9545 16.3467 20.9039 14.2965C18.8538 17.2459 17.1441 19.643 16.7958 19.9955Z" fill="#697586"/>
<path d="M6.78809 24.4326L5.39928 25.1101C4.38307 23.2965 3.8501 21.2722 3.8501 19.2C3.8501 17.6818 4.13005 16.2277 4.64097 14.8866L6.23234 15.6499C6.38928 15.7252 6.55494 15.7609 6.71812 15.7609C7.13735 15.7609 7.53982 15.5255 7.73326 15.1221C8.00191 14.562 7.76566 13.8899 7.20541 13.6212L5.63424 12.8676C7.58707 9.68272 10.9658 7.46225 14.8752 7.10169V8.79374C14.8752 9.41508 15.3788 9.91874 16.0002 9.91874C16.6215 9.91874 17.1252 9.41508 17.1252 8.79374V7.10084C18.4655 7.22285 19.7624 7.56417 20.9935 8.11992C21.5597 8.37558 22.2261 8.12364 22.4817 7.55748C22.7374 6.99115 22.4856 6.32487 21.9192 6.06922C20.0536 5.2271 18.0622 4.80005 16.0001 4.80005C12.1537 4.80005 8.53758 6.29787 5.81772 9.01767C3.09798 11.7375 1.6001 15.3537 1.6001 19.2C1.6001 22.0424 2.44374 24.8067 4.03983 27.194C4.25482 27.5155 4.61026 27.6939 4.97577 27.6939C5.14194 27.6939 5.31024 27.657 5.46835 27.5799L7.7746 26.4549C8.33305 26.1825 8.56492 25.509 8.2925 24.9505C8.02008 24.3921 7.34654 24.1603 6.78809 24.4326Z" fill="#697586"/>
<path d="M29.1307 13.2809C28.8751 12.7147 28.2089 12.4627 27.6424 12.7184C27.0762 12.9741 26.8243 13.6404 27.08 14.2066C27.79 15.7793 28.1499 17.4593 28.1499 19.2C28.1499 21.2753 27.6152 23.3028 26.596 25.1185L25.1461 24.4281C24.5852 24.161 23.9138 24.3991 23.6467 24.9601C23.3795 25.521 23.6177 26.1924 24.1787 26.4595L26.5412 27.5845C26.6966 27.6585 26.8614 27.6939 27.0243 27.6939C27.3899 27.6939 27.7454 27.5153 27.9601 27.194C29.5563 24.8067 30.3999 22.0423 30.3999 19.2C30.3999 17.1379 29.9729 15.1465 29.1307 13.2809Z" fill="#697586"/>
</svg>
