<svg id="Layer_1" data-name="Layer 1" xmlns="http://www.w3.org/2000/svg" viewBox="0 0 21.8 20.8"><defs><style>.cls-1{fill:#fff;}.cls-2{fill:#081a3e;}</style></defs><path class="cls-1" d="M5.81,21.22a1.67,1.67,0,0,1-1.46-1,1.63,1.63,0,0,1-.1-.93l.87-5a.42.42,0,0,0,0-.22A.45.45,0,0,0,5,13.8L1.31,10.23a1.65,1.65,0,0,1-.46-.81,1.73,1.73,0,0,1,0-.93,1.7,1.7,0,0,1,.53-.77,1.74,1.74,0,0,1,.84-.38l5.09-.73a.49.49,0,0,0,.21-.08.46.46,0,0,0,.14-.17L10,1.78a1.56,1.56,0,0,1,.63-.69,1.69,1.69,0,0,1,1.8,0,1.62,1.62,0,0,1,.63.69l2.28,4.58a.8.8,0,0,0,.15.17.5.5,0,0,0,.2.08l5.08.74a1.74,1.74,0,0,1,.85.38,1.7,1.7,0,0,1,.53.77,1.73,1.73,0,0,1,0,.93,1.61,1.61,0,0,1-.46.81L18,13.8a.45.45,0,0,0-.11.19.41.41,0,0,0,0,.22l.87,5a1.61,1.61,0,0,1-.1.92,1.69,1.69,0,0,1-.58.74,1.8,1.8,0,0,1-.88.32h-.12a1.8,1.8,0,0,1-.79-.19l-4.56-2.37a.51.51,0,0,0-.44,0L6.73,21a1.72,1.72,0,0,1-.8.2ZM11.5,2.07a.45.45,0,0,0-.25.07.52.52,0,0,0-.17.19L8.81,6.91a1.81,1.81,0,0,1-.53.63,1.79,1.79,0,0,1-.76.3l-5.09.73a.52.52,0,0,0-.23.1.49.49,0,0,0-.14.21.46.46,0,0,0,0,.26.39.39,0,0,0,.13.21l3.68,3.57a1.91,1.91,0,0,1,.43.69,1.76,1.76,0,0,1,.06.82l-.87,5a.37.37,0,0,0,0,.25.43.43,0,0,0,.15.2A.54.54,0,0,0,5.9,20h0a.46.46,0,0,0,.25-.06l4.55-2.38a1.67,1.67,0,0,1,.79-.19,1.65,1.65,0,0,1,.79.19l4.56,2.38a.5.5,0,0,0,.21,0,.55.55,0,0,0,.28-.09.43.43,0,0,0,.15-.2.36.36,0,0,0,0-.25l-.87-5a1.85,1.85,0,0,1,.06-.81,1.83,1.83,0,0,1,.43-.69l3.68-3.57A.48.48,0,0,0,21,9.12a.43.43,0,0,0,0-.25.41.41,0,0,0-.14-.2.45.45,0,0,0-.23-.11l-5.09-.73a1.79,1.79,0,0,1-.76-.3,1.86,1.86,0,0,1-.53-.62L11.92,2.33a.52.52,0,0,0-.17-.19A.45.45,0,0,0,11.5,2.07Z" transform="translate(-0.6 -0.63)"/><path class="cls-2" d="M11.5,1a1.52,1.52,0,0,1,.8.23,1.41,1.41,0,0,1,.55.61l2.28,4.58a.69.69,0,0,0,.21.24.79.79,0,0,0,.3.12l5.08.74a1.55,1.55,0,0,1,.75.34,1.53,1.53,0,0,1,.46.68,1.5,1.5,0,0,1-.38,1.53l-3.69,3.56a.74.74,0,0,0-.16.27.69.69,0,0,0,0,.32l.88,5a1.63,1.63,0,0,1-.09.82,1.53,1.53,0,0,1-.51.64,1.49,1.49,0,0,1-.78.29h-.11a1.57,1.57,0,0,1-.7-.17l-4.56-2.37a.72.72,0,0,0-.62,0L6.63,20.86a1.54,1.54,0,0,1-.7.17H5.82A1.49,1.49,0,0,1,5,20.74a1.45,1.45,0,0,1-.59-1.46l.86-5a.69.69,0,0,0,0-.32.77.77,0,0,0-.17-.27L1.45,10.08A1.5,1.5,0,0,1,1,9.37a1.63,1.63,0,0,1,0-.82,1.52,1.52,0,0,1,1.21-1l5.09-.73a.66.66,0,0,0,.3-.12.58.58,0,0,0,.2-.24l2.28-4.58a1.41,1.41,0,0,1,.55-.61A1.52,1.52,0,0,1,11.5,1M5.94,20.2a.68.68,0,0,0,.31-.08l4.55-2.38a1.57,1.57,0,0,1,.7-.17,1.51,1.51,0,0,1,.7.17l4.55,2.37a.71.71,0,0,0,.31.08h.05a.62.62,0,0,0,.34-.13.7.7,0,0,0,.23-.28.64.64,0,0,0,0-.36l-.87-5a1.59,1.59,0,0,1,0-.72,1.61,1.61,0,0,1,.38-.61L21,9.49a.68.68,0,0,0,.18-.32.63.63,0,0,0,0-.36.75.75,0,0,0-.2-.3.71.71,0,0,0-.33-.15l-5.09-.73a1.4,1.4,0,0,1-.67-.27,1.52,1.52,0,0,1-.47-.54L12.1,2.24A.65.65,0,0,0,11.85,2a.66.66,0,0,0-.7,0,.65.65,0,0,0-.25.27L8.63,6.83a1.52,1.52,0,0,1-.47.54,1.4,1.4,0,0,1-.67.27L2.4,8.37a.71.71,0,0,0-.33.15.69.69,0,0,0-.2.3.63.63,0,0,0,0,.36A.68.68,0,0,0,2,9.5l3.68,3.57a1.61,1.61,0,0,1,.38.61,1.55,1.55,0,0,1,.05.71l-.87,5a.72.72,0,0,0,0,.36.66.66,0,0,0,.23.29.61.61,0,0,0,.34.12h.05M11.5.63a1.89,1.89,0,0,0-1,.29,1.8,1.8,0,0,0-.7.77L7.52,6.27a.28.28,0,0,1-.09.1.33.33,0,0,1-.12,0l-5.08.72a1.84,1.84,0,0,0-.95.43,1.9,1.9,0,0,0-.59.86,1.93,1.93,0,0,0,0,1,2,2,0,0,0,.52.9L4.85,14a.17.17,0,0,1,.06.1.17.17,0,0,1,0,.12l-.87,5a1.88,1.88,0,0,0,.76,1.86,1.85,1.85,0,0,0,1,.35h.14a2,2,0,0,0,.89-.22l4.55-2.37a.31.31,0,0,1,.13,0,.24.24,0,0,1,.12,0l4.56,2.36a2,2,0,0,0,.89.22h.14A1.9,1.9,0,0,0,19,19.2l-.88-5a.28.28,0,0,1,0-.13.24.24,0,0,1,.06-.11l3.69-3.56a2,2,0,0,0,.52-.9,1.94,1.94,0,0,0,0-1,2,2,0,0,0-.59-.86,1.86,1.86,0,0,0-.95-.42l-5.08-.75a.28.28,0,0,1-.12,0,.39.39,0,0,1-.08-.1L13.21,1.69a1.86,1.86,0,0,0-.7-.77,1.91,1.91,0,0,0-1-.29ZM5.94,20.2l0-.4-.14-.05a.27.27,0,0,1-.09-.12.22.22,0,0,1,0-.14l.87-5a2,2,0,0,0-.07-.91A1.93,1.93,0,0,0,6,12.78L2.32,9.21a.32.32,0,0,1-.08-.12.22.22,0,0,1,0-.14.2.2,0,0,1,.08-.12.18.18,0,0,1,.13-.06L7.55,8a1.87,1.87,0,0,0,.84-.34A1.82,1.82,0,0,0,9,7l2.28-4.58a.27.27,0,0,1,.1-.11.27.27,0,0,1,.28,0,.27.27,0,0,1,.1.11L14,7a2,2,0,0,0,.59.7,1.91,1.91,0,0,0,.85.34l5.09.73a.22.22,0,0,1,.13.06.25.25,0,0,1,.08.12.22.22,0,0,1,0,.14.21.21,0,0,1-.07.12L17,12.78a1.93,1.93,0,0,0-.48.77,1.86,1.86,0,0,0-.06.91l.86,5a.23.23,0,0,1,0,.14.31.31,0,0,1-.09.11.24.24,0,0,1-.14.05h0a.26.26,0,0,1-.14,0l-4.55-2.38a2,2,0,0,0-.89-.21,1.9,1.9,0,0,0-.88.21L6.06,19.77a.24.24,0,0,1-.12,0v.4Z" transform="translate(-0.6 -0.63)"/></svg>