<svg id="Layer_1" data-name="Layer 1" xmlns="http://www.w3.org/2000/svg" width="16.8" height="17.3" viewBox="0 0 16.8 17.3">
  <path d="M-13.5-31.6l-.8-2.9c-.1-.2-.2-.3-.4-.3h-.7v-.5a1.1,1.1,0,0,0-1-1H-26.6a1.1,1.1,0,0,0-1.1,1v.5h-.6a.5.5,0,0,0-.5.3l-.8,2.8a2.5,2.5,0,0,0,.8,3.3V-20a1,1,0,0,0,1,1h12.5a1,1,0,0,0,1-1v-8.4a2.3,2.3,0,0,0,1.1-2.1A2,2,0,0,0-13.5-31.6Zm-13.3-3.2v-.5h10.5v.5Zm7,8.2h-3.4a.9.9,0,0,0-1,1v5.8h-3.7V-28a2.7,2.7,0,0,0,2.4-1l.6.6a2.6,2.6,0,0,0,3.4-.6l.6.6a2.4,2.4,0,0,0,3.3-.7,2.4,2.4,0,0,0,2,1.1h.4v8.1h-3.6v-5.8A1.1,1.1,0,0,0-19.8-26.6Zm-3.6,1a.2.2,0,0,1,.2-.2h3.4v6h-3.7Zm5.8-5.3h0a.5.5,0,0,0-.4.5,1.6,1.6,0,0,1-1.6,1.5,1.5,1.5,0,0,1-1.5-1.5.5.5,0,0,0-.4-.5.5.5,0,0,0-.5.5,1.5,1.5,0,0,1-1.5,1.5,1.6,1.6,0,0,1-1.6-1.5.5.5,0,0,0-.4-.5.5.5,0,0,0-.4.5,1.6,1.6,0,0,1-1.6,1.5A1.5,1.5,0,0,1-29-30.4a1.1,1.1,0,0,1,.2-.8.3.3,0,0,1,.1-.2L-28-34h12.9l.8,2.6v.2a.9.9,0,0,1,.3.7,1.9,1.9,0,0,1-.9,1.5h-.6a1.5,1.5,0,0,1-1.6-1.5h0A.5.5,0,0,0-17.6-30.9Z" transform="translate(29.9 36.3)" fill="#fff"/>
</svg>
