<svg width="23" height="42" viewBox="0 0 23 42" fill="none" xmlns="http://www.w3.org/2000/svg">
<path fill-rule="evenodd" clip-rule="evenodd" d="M22.8612 2.09439C21.6884 1.73935 20.4442 1.54846 19.1555 1.54846C12.1024 1.54846 6.3847 7.26619 6.3847 14.3193H7.90124C8.34203 14.3193 8.69941 14.6767 8.69941 15.1174V30.5462C8.69941 30.987 8.34203 31.3444 7.90124 31.3444H6.3847C6.60819 36.8278 9.24217 38.1129 14.5021 38.3444V37.8096C14.5021 36.9279 15.2168 36.2132 16.0985 36.2132H21.119C22.0007 36.2132 22.7154 36.9279 22.7154 37.8096V40.4036C22.7154 41.2853 22.0007 42 21.119 42H16.0825C15.2008 42 14.4862 41.2853 14.4862 40.4036V39.9407C9.42575 39.7092 5.05175 38.6636 4.78835 31.2965C2.73704 31.041 0.797478 29.7001 0.797478 26.5872V19.0844C0.797478 15.9555 2.72906 14.6226 4.78835 14.3672C4.78835 6.4324 11.2207 0 19.1555 0C20.4368 0 21.679 0.167733 22.8612 0.48244V2.09439ZM16.0825 40.4116V39.1984V37.8176H21.119V40.4116H16.0825ZM5.58653 29.7719C4.38128 29.7719 2.39383 29.333 2.39383 26.5792L2.35392 19.1083C2.35392 16.3307 4.36532 15.9156 5.54662 15.9156H7.10306V29.7719H5.58653Z" fill="white"/>
</svg>
