<svg width="18" height="34" fill="none" xmlns="http://www.w3.org/2000/svg"><path fill-rule="evenodd" clip-rule="evenodd" d="M17.861 1.696a10.338 10.338 0 0 0-3-.442c-5.71 0-10.338 4.628-10.338 10.338h1.228c.357 0 .646.29.646.646v12.49c0 .357-.29.646-.646.646H4.523c.181 4.439 2.313 5.48 6.571 5.667v-.433c0-.714.579-1.293 1.293-1.293h4.064c.714 0 1.292.579 1.292 1.293v2.1c0 .714-.578 1.292-1.292 1.292h-4.077a1.292 1.292 0 0 1-1.293-1.292v-.375c-4.096-.187-7.637-1.034-7.85-6.998C1.57 25.128 0 24.043 0 21.523v-6.074c0-2.533 1.563-3.612 3.23-3.818C3.23 5.207 8.438 0 14.86 0c1.038 0 2.043.136 3 .39v1.306Zm-5.487 31.018v-2.1h4.077v2.1h-4.077Zm-8.497-8.613c-.976 0-2.585-.355-2.585-2.584l-.032-6.048c0-2.249 1.628-2.585 2.585-2.585h1.26v11.217H3.877Z" fill="#F81734"/></svg>