<svg id="Layer_1" data-name="Layer 1" xmlns="http://www.w3.org/2000/svg" viewBox="0 0 17.36 17.36">
  <g>
    <path class="cls-1" d="M17.43,4a.43.43,0,0,0-.12.31V16.21a1.13,1.13,0,0,1-1.1,1.1H2.79A1.07,1.07,0,0,1,2,17a1.07,1.07,0,0,1-.33-.77V2.79A1.07,1.07,0,0,1,2,2a1.07,1.07,0,0,1,.77-.33H16.21A1.07,1.07,0,0,1,17,2a1.07,1.07,0,0,1,.33.78.42.42,0,0,0,.13.3.46.46,0,0,0,.6,0,.43.43,0,0,0,.14-.31,2,2,0,0,0-2-2H2.79a2,2,0,0,0-2,2V16.21a2,2,0,0,0,2,2H16.21a2,2,0,0,0,2-2V4.28A.44.44,0,0,0,18.05,4,.46.46,0,0,0,17.43,4Z" transform="translate(-0.82 -0.82)"/>
    <path class="cls-1" d="M6,5.23a.89.89,0,0,0-.89-.89H4.55a.89.89,0,0,0-.89.89V5.8a.89.89,0,0,0,.89.89h.57A.89.89,0,0,0,6,5.8Zm-.87,0V5.8l0,0-.59,0,0-.59Z" transform="translate(-0.82 -0.82)"/>
    <path class="cls-1" d="M15.21,5.21a.46.46,0,0,0-.29-.13H7.06a.32.32,0,0,0-.17,0,.31.31,0,0,0-.15.1.33.33,0,0,0-.1.14.35.35,0,0,0,0,.17.52.52,0,0,0,0,.18.49.49,0,0,0,.11.14.56.56,0,0,0,.15.1L7,6h7.89a.42.42,0,0,0,.29-.14.41.41,0,0,0,.12-.3A.44.44,0,0,0,15.21,5.21Zm-8.35.12Z" transform="translate(-0.82 -0.82)"/>
    <path class="cls-1" d="M6,9.08a.86.86,0,0,0-.26-.63.88.88,0,0,0-.63-.26H4.55a.88.88,0,0,0-.63.26.86.86,0,0,0-.26.63v.57a.89.89,0,0,0,.26.63.88.88,0,0,0,.63.26h.57a.88.88,0,0,0,.63-.26A.94.94,0,0,0,6,9.65Zm-.87,0v.57l0,0-.59,0,0-.59Z" transform="translate(-0.82 -0.82)"/>
    <path class="cls-1" d="M15.21,9.06a.41.41,0,0,0-.29-.13H7.06a.32.32,0,0,0-.17,0,.31.31,0,0,0-.15.1.45.45,0,0,0-.14.31.57.57,0,0,0,0,.18.49.49,0,0,0,.11.14.56.56,0,0,0,.15.1L7,9.8h7.89a.47.47,0,0,0,.29-.14.42.42,0,0,0,.12-.3A.44.44,0,0,0,15.21,9.06Zm-8.35.12Zm0,.37Z" transform="translate(-0.82 -0.82)"/>
    <path class="cls-1" d="M5.46,12.38a.8.8,0,0,0-.34-.07H4.55a.8.8,0,0,0-.34.07.81.81,0,0,0-.29.19.84.84,0,0,0-.2.29,1,1,0,0,0-.06.34v.57a.86.86,0,0,0,.26.63.88.88,0,0,0,.63.26h.57a.88.88,0,0,0,.63-.26A.9.9,0,0,0,6,13.77V13.2a.8.8,0,0,0-.07-.34.85.85,0,0,0-.48-.48Zm-.32.82v.57l0,0-.59,0,0-.59Z" transform="translate(-0.82 -0.82)"/>
    <path class="cls-1" d="M14.92,13.05H7.06a.32.32,0,0,0-.17,0,.39.39,0,0,0-.16.1.42.42,0,0,0-.09.14.35.35,0,0,0,0,.17.57.57,0,0,0,0,.18.49.49,0,0,0,.11.14.4.4,0,0,0,.15.1l.14,0h7.89a.46.46,0,0,0,.29-.13.48.48,0,0,0,.12-.31.4.4,0,0,0-.12-.29A.47.47,0,0,0,14.92,13.05Zm-8.06.25Zm0,.37Z" transform="translate(-0.82 -0.82)"/>
  </g>
</svg>
