<svg width="16" height="16" viewBox="0 0 16 16" fill="none" xmlns="http://www.w3.org/2000/svg">
<path d="M15.01 4.01172C14.0969 4.01172 13.2544 3.70922 12.5778 3.1989C11.8019 2.6139 11.2444 1.75578 11.0475 0.766718C10.9987 0.522343 10.9725 0.270156 10.97 0.0117188H8.36154V7.13921L8.35841 11.0433C8.35841 12.087 7.67873 12.972 6.73654 13.2833C6.4631 13.3736 6.16779 13.4164 5.86029 13.3995C5.46779 13.378 5.09998 13.2595 4.78029 13.0683C4.09998 12.6614 3.63872 11.9233 3.62622 11.0789C3.60654 9.75921 4.67341 8.68327 5.99216 8.68327C6.25248 8.68327 6.50248 8.72577 6.73654 8.80296V6.85484V6.15453C6.48966 6.11796 6.23841 6.0989 5.98435 6.0989C4.54091 6.0989 3.19091 6.6989 2.22591 7.77984C1.49654 8.59671 1.05904 9.6389 0.991537 10.7317C0.903099 12.1673 1.42841 13.532 2.44716 14.5389C2.59685 14.6867 2.75404 14.8239 2.91841 14.9505C3.79185 15.6226 4.85966 15.987 5.98435 15.987C6.23841 15.987 6.48966 15.9683 6.73654 15.9317C7.78716 15.7761 8.75654 15.2951 9.52154 14.5389C10.4615 13.6098 10.9809 12.3764 10.9865 11.0636L10.9731 5.23359C11.4215 5.57953 11.9119 5.86578 12.4381 6.08796C13.2565 6.43328 14.1244 6.60828 15.0175 6.60796V4.7139V4.01109C15.0181 4.01172 15.0106 4.01172 15.01 4.01172V4.01172Z" fill="currentColor"/>
</svg>
