<svg width="18" height="14" viewBox="0 0 18 14"  xmlns="http://www.w3.org/2000/svg">
<path d="M17.5049 1.63489C16.8654 1.91365 16.1891 2.09889 15.4969 2.18489C16.2263 1.75209 16.7718 1.06684 17.0299 0.25889C16.3467 0.664186 15.5993 0.949637 14.8199 1.10289C14.3421 0.592535 13.7218 0.237691 13.0396 0.0844746C12.3575 -0.0687419 11.645 -0.0132485 10.9949 0.243742C10.3447 0.500733 9.7868 0.947341 9.39376 1.52553C9.00071 2.10372 8.79066 2.78676 8.79088 3.48589C8.7882 3.75308 8.81536 4.01973 8.87188 4.28089C7.48537 4.21298 6.12881 3.85322 4.89087 3.22511C3.65292 2.59701 2.56148 1.71471 1.68788 0.635893C1.23933 1.40261 1.1004 2.31164 1.29944 3.17733C1.49849 4.04303 2.0205 4.80008 2.75888 5.29389C2.20734 5.27878 1.6675 5.13131 1.18488 4.86389V4.89989C1.18572 5.7046 1.46382 6.48444 1.97236 7.10809C2.4809 7.73174 3.18881 8.16111 3.97688 8.32389C3.67866 8.40257 3.3713 8.44124 3.06288 8.43889C2.84137 8.44267 2.62009 8.42256 2.40288 8.37889C2.62756 9.07127 3.06148 9.6769 3.64482 10.1123C4.22816 10.5477 4.9322 10.7914 5.65988 10.8099C4.42684 11.7761 2.90536 12.3007 1.33888 12.2999C1.06006 12.3004 0.781487 12.283 0.504883 12.2479C2.09867 13.2749 3.95588 13.8181 5.85188 13.8119C7.1569 13.8211 8.45074 13.5708 9.65823 13.0757C10.8657 12.5807 11.9628 11.8506 12.8858 10.9279C13.8087 10.0052 14.5391 8.90836 15.0346 7.70102C15.53 6.49367 15.7807 5.19991 15.7719 3.89489C15.7719 3.74089 15.7669 3.59489 15.7589 3.44489C16.4461 2.9527 17.0377 2.33934 17.5049 1.63489Z" />
</svg>
