<svg width="24" height="24" viewBox="0 0 24 24" fill="none" xmlns="http://www.w3.org/2000/svg">
<circle cx="12" cy="12" r="12" fill="#4B5565"/>
<path fill-rule="evenodd" clip-rule="evenodd" d="M11.3948 6.42399C11.4967 6.44955 11.5925 6.49493 11.6769 6.55754C11.7613 6.62016 11.8325 6.69878 11.8865 6.78891C11.9405 6.87905 11.9762 6.97894 11.9915 7.08287C12.0069 7.1868 12.0017 7.29275 11.9761 7.39465L11.6241 8.79999H13.9761L14.4241 7.00532C14.4757 6.79951 14.607 6.62264 14.789 6.51362C14.8792 6.45964 14.9791 6.42394 15.083 6.40856C15.1869 6.39318 15.2929 6.39842 15.3948 6.42399C15.4967 6.44955 15.5925 6.49494 15.6769 6.55755C15.7613 6.62017 15.8325 6.69879 15.8865 6.78892C15.9404 6.87906 15.9761 6.97894 15.9915 7.08287C16.0069 7.1868 16.0017 7.29275 15.9761 7.39465L15.6241 8.79999H17.6001C17.8123 8.79999 18.0158 8.88427 18.1658 9.0343C18.3158 9.18433 18.4001 9.38781 18.4001 9.59999C18.4001 9.81216 18.3158 10.0156 18.1658 10.1657C18.0158 10.3157 17.8123 10.4 17.6001 10.4H15.2241L14.4241 13.6H16.0001C16.1052 13.6 16.2092 13.6207 16.3062 13.6609C16.4033 13.7011 16.4915 13.76 16.5658 13.8343C16.6401 13.9086 16.699 13.9968 16.7392 14.0938C16.7794 14.1909 16.8001 14.2949 16.8001 14.4C16.8001 14.505 16.7794 14.6091 16.7392 14.7061C16.699 14.8032 16.6401 14.8914 16.5658 14.9657C16.4915 15.04 16.4033 15.0989 16.3062 15.1391C16.2092 15.1793 16.1052 15.2 16.0001 15.2H14.0241L13.5761 16.9933C13.5521 17.0968 13.5078 17.1944 13.4456 17.2806C13.3835 17.3667 13.3048 17.4396 13.2142 17.4951C13.1236 17.5505 13.0229 17.5873 12.9179 17.6034C12.8129 17.6195 12.7058 17.6145 12.6027 17.5887C12.4997 17.563 12.4028 17.517 12.3178 17.4534C12.2327 17.3898 12.1611 17.3099 12.1073 17.2183C12.0534 17.1268 12.0183 17.0254 12.004 16.9202C11.9898 16.8149 11.9966 16.7079 12.0241 16.6053L12.3761 15.2H10.0241L9.5761 16.9933C9.55211 17.0968 9.50775 17.1944 9.44563 17.2806C9.3835 17.3667 9.30484 17.4396 9.21423 17.4951C9.12363 17.5505 9.02289 17.5873 8.91791 17.6034C8.81292 17.6195 8.70578 17.6145 8.60274 17.5887C8.4997 17.563 8.40282 17.517 8.31776 17.4534C8.23269 17.3898 8.16114 17.3099 8.10728 17.2183C8.05341 17.1268 8.01832 17.0254 8.00404 16.9202C7.98976 16.8149 7.99657 16.7079 8.0241 16.6053L8.3761 15.2H6.4001C6.18792 15.2 5.98444 15.1157 5.83441 14.9657C5.68438 14.8156 5.6001 14.6122 5.6001 14.4C5.6001 14.1878 5.68438 13.9843 5.83441 13.8343C5.98444 13.6843 6.18792 13.6 6.4001 13.6H8.7761L9.5761 10.4H8.0001C7.78792 10.4 7.58444 10.3157 7.43441 10.1657C7.28438 10.0156 7.2001 9.81216 7.2001 9.59999C7.2001 9.38781 7.28438 9.18433 7.43441 9.0343C7.58444 8.88427 7.78792 8.79999 8.0001 8.79999H9.9761L10.4241 7.00532C10.4497 6.90341 10.495 6.80754 10.5577 6.72317C10.6203 6.6388 10.6989 6.56759 10.789 6.51361C10.8792 6.45962 10.979 6.42392 11.083 6.40855C11.1869 6.39317 11.2929 6.39842 11.3948 6.42399ZM11.2241 10.4L10.4241 13.6H12.7748L13.5748 10.4H11.2241Z" fill="white"/>
</svg>
