<svg id="Layer_1" data-name="Layer 1" xmlns="http://www.w3.org/2000/svg" viewBox="0 0 20.37 22.8"><defs><style>.cls-1,.cls-2{opacity:1;}.cls-2{isolation:isolate;}.cls-3{fill:#fff;}.cls-4{fill:#081a3e;}</style></defs><g class="cls-2"><path class="cls-3" d="M6,23.2a3.48,3.48,0,0,1-3.47-3.46V5.59h-.9A.8.8,0,0,1,1,5.35.82.82,0,0,1,.8,4.78.8.8,0,0,1,1,4.2.79.79,0,0,1,1.61,4H6V3.42a2.57,2.57,0,0,1,.77-1.85A2.57,2.57,0,0,1,8.61.8H13a2.63,2.63,0,0,1,2.62,2.62V4H20a.81.81,0,0,1,.57.23A.82.82,0,0,1,20,5.59h-.91V19.73a3.47,3.47,0,0,1-3.46,3.47ZM4.14,19.73A1.84,1.84,0,0,0,6,21.58h9.61a1.84,1.84,0,0,0,1.84-1.85v-.2h0V5.59H4.14ZM14,4V3.42a1,1,0,0,0-.29-.71A1.05,1.05,0,0,0,13,2.42H8.61a1,1,0,0,0-.71.29,1,1,0,0,0-.29.71V4Z" transform="translate(-0.6 -0.6)"/><path class="cls-4" d="M13,1a2.42,2.42,0,0,1,2.42,2.42v.75H20a.63.63,0,0,1,.43.17.62.62,0,0,1-.43,1H18.85V19.73a3.26,3.26,0,0,1-1,2.31,3.31,3.31,0,0,1-2.31,1H6a3.27,3.27,0,0,1-2.31-1,3.31,3.31,0,0,1-1-2.3V5.39H1.61a.62.62,0,0,1-.43-.18A.6.6,0,0,1,1,4.78a.6.6,0,0,1,.18-.44.61.61,0,0,1,.43-.17H6.19V3.42A2.39,2.39,0,0,1,6.9,1.71,2.43,2.43,0,0,1,8.61,1H13M7.41,4.17h6.75V3.42A1.2,1.2,0,0,0,13,2.22H8.61a1.2,1.2,0,0,0-1.2,1.2v.75M6,21.78h9.61a2,2,0,0,0,2-2.05h0V5.39H3.94V19.73a2,2,0,0,0,.6,1.45,2,2,0,0,0,1.44.6M13,.6H8.61a2.77,2.77,0,0,0-2,.83,2.77,2.77,0,0,0-.83,2v.35H1.61a1,1,0,0,0-.71.29,1,1,0,0,0-.3.72,1,1,0,0,0,1,1h.7v14a3.73,3.73,0,0,0,1.08,2.59A3.64,3.64,0,0,0,6,23.4h9.61a3.67,3.67,0,0,0,3.66-3.66V5.79H20a1,1,0,0,0,1-1,1,1,0,0,0-.3-.72A1,1,0,0,0,20,3.77H15.78V3.42a2.81,2.81,0,0,0-.83-2A2.77,2.77,0,0,0,13,.6ZM7.81,3.77V3.42A.79.79,0,0,1,8,2.86a.82.82,0,0,1,.57-.24H13a.76.76,0,0,1,.56.24.8.8,0,0,1,.24.56v.35Zm-3.47,2h12.9V19.73a1.65,1.65,0,0,1-.48,1.17,1.63,1.63,0,0,1-1.16.48H6a1.63,1.63,0,0,1-1.16-.48,1.65,1.65,0,0,1-.48-1.17V5.79Z" transform="translate(-0.6 -0.6)"/></g><g class="cls-2"><path class="cls-3" d="M10.78,19.79a.85.85,0,0,1-.31-.06,1,1,0,0,1-.26-.18.93.93,0,0,1-.18-.26A.91.91,0,0,1,10,19V8.19a.84.84,0,0,1,.24-.58.81.81,0,0,1,.57-.23.79.79,0,0,1,.81.81V19a.85.85,0,0,1-.06.31.78.78,0,0,1-.17.26.8.8,0,0,1-.27.18.73.73,0,0,1-.3.06Z" transform="translate(-0.6 -0.6)"/><path class="cls-4" d="M10.78,7.58a.58.58,0,0,1,.61.61V19a.59.59,0,0,1,0,.23.69.69,0,0,1-.13.2.63.63,0,0,1-.2.13.64.64,0,0,1-.23.05h0a.59.59,0,0,1-.23-.05.57.57,0,0,1-.33-.33.69.69,0,0,1-.05-.24V8.19a.65.65,0,0,1,.18-.44.63.63,0,0,1,.43-.17m0-.4a1,1,0,0,0-.71.29,1,1,0,0,0-.3.72V19a1,1,0,0,0,.08.39.91.91,0,0,0,.22.33.83.83,0,0,0,.33.22,1,1,0,0,0,.38.08,1,1,0,0,0,.94-.62,1.07,1.07,0,0,0,.07-.39V8.19a1,1,0,0,0-1-1Z" transform="translate(-0.6 -0.6)"/></g><g class="cls-2"><path class="cls-3" d="M6.8,19.12a.8.8,0,0,1-.57-.24A.78.78,0,0,1,6,18.31V8.86a.8.8,0,0,1,.24-.58.79.79,0,0,1,.57-.23.81.81,0,0,1,.57.23.8.8,0,0,1,.24.58v9.45a.85.85,0,0,1-.06.31.76.76,0,0,1-.18.26.81.81,0,0,1-.26.18A.81.81,0,0,1,6.8,19.12Z" transform="translate(-0.6 -0.6)"/><path class="cls-4" d="M6.8,8.25a.61.61,0,0,1,.61.61v9.45a.59.59,0,0,1,0,.23.63.63,0,0,1-.13.2.69.69,0,0,1-.2.13.59.59,0,0,1-.23.05h0a.62.62,0,0,1-.43-.18.6.6,0,0,1-.18-.43V8.86a.61.61,0,0,1,.61-.61m0-.4a1,1,0,0,0-1,1v9.45a1,1,0,0,0,.29.71,1,1,0,0,0,.72.3,1.09,1.09,0,0,0,.39-.08A.87.87,0,0,0,7.51,19a.83.83,0,0,0,.22-.33,1,1,0,0,0,.08-.39V8.86a1,1,0,0,0-.3-.72,1,1,0,0,0-.71-.29Z" transform="translate(-0.6 -0.6)"/></g><g class="cls-2"><path class="cls-3" d="M14.77,19.12a.64.64,0,0,1-.31-.07,1,1,0,0,1-.27-.17,1.06,1.06,0,0,1-.17-.26.85.85,0,0,1-.06-.31V8.86a.8.8,0,0,1,.24-.58.79.79,0,0,1,.57-.23.81.81,0,0,1,.57.23.8.8,0,0,1,.24.58v9.45a.85.85,0,0,1-.06.31.87.87,0,0,1-.18.26.81.81,0,0,1-.26.18A1.13,1.13,0,0,1,14.77,19.12Z" transform="translate(-0.6 -0.6)"/><path class="cls-4" d="M14.77,8.25a.58.58,0,0,1,.43.18.62.62,0,0,1,.18.43v9.45a.59.59,0,0,1-.05.23.63.63,0,0,1-.13.2.69.69,0,0,1-.2.13.59.59,0,0,1-.23.05h0a.69.69,0,0,1-.24-.05.5.5,0,0,1-.19-.13.66.66,0,0,1-.14-.2.59.59,0,0,1,0-.23V8.86a.61.61,0,0,1,.61-.61m0-.4a1,1,0,0,0-1,1v9.45a1,1,0,0,0,.07.38,1.12,1.12,0,0,0,.22.33,1,1,0,0,0,1.1.22,1,1,0,0,0,.55-.55,1,1,0,0,0,.08-.39V8.86a1,1,0,0,0-.3-.72,1,1,0,0,0-.71-.29Z" transform="translate(-0.6 -0.6)"/></g></svg>