<svg width="24" height="24" viewBox="0 0 24 24" fill="none" xmlns="http://www.w3.org/2000/svg">
<path d="M21 18.0003L12.8123 21.6392C12.2951 21.8691 11.7049 21.8691 11.1877 21.6392L3 18.0003M21 13.0003L12.8123 16.6392C12.2951 16.8691 11.7049 16.8691 11.1877 16.6392L3 13.0003M3.78885 7.89469L11.1056 11.553C11.6686 11.8346 12.3314 11.8346 12.8944 11.553L20.2111 7.89469C20.9482 7.52616 20.9482 6.47436 20.2111 6.10583L12.8944 2.44747C12.3314 2.16595 11.6686 2.16595 11.1056 2.44747L3.78886 6.10583C3.05181 6.47436 3.05181 7.52616 3.78885 7.89469Z" stroke="#F81734" stroke-width="1.6" stroke-linecap="round" stroke-linejoin="round"/>
</svg>
