<svg width="36" height="36" viewBox="0 0 36 36" fill="none" xmlns="http://www.w3.org/2000/svg">
<path opacity="0.4" d="M8.51946 13.191C9.08073 8.23628 13.1564 4.5 18 4.5C22.8436 4.5 26.9193 8.23628 27.4806 13.191L27.9978 17.7578C28.1263 18.8925 28.5862 19.9604 29.3167 20.82C30.8668 22.6446 29.6088 25.5 27.2549 25.5H8.74521C6.39121 25.5 5.13313 22.6446 6.68323 20.82C7.41369 19.9604 7.87359 18.8925 8.00214 17.7578L8.51946 13.191Z" fill="#697586"/>
<path d="M18 31.5C20.0775 31.5 21.8449 30.2478 22.5 28.5C22.5 28.0859 22.1642 27.75 21.75 27.75H14.25C13.8358 27.75 13.5 28.0859 13.5 28.5C14.155 30.2478 15.9225 31.5 18 31.5Z" fill="#9AA4B2"/>
</svg>
