<svg width="36" height="36" viewBox="0 0 36 36" fill="none" xmlns="http://www.w3.org/2000/svg">
<path opacity="0.4" d="M8.51946 14.691C9.08073 9.73628 13.1564 6 18 6C22.8436 6 26.9193 9.73628 27.4806 14.691L27.9978 19.2578C28.1263 20.3925 28.5862 21.4604 29.3167 22.32C30.8668 24.1446 29.6088 27 27.2549 27H8.74521C6.39121 27 5.13313 24.1446 6.68323 22.32C7.41369 21.4604 7.87359 20.3925 8.00214 19.2578L8.51946 14.691Z" fill="#2970FF"/>
<path d="M18 33C20.0775 33 21.8449 31.7478 22.5 30C22.5 29.5858 22.1642 29.25 21.75 29.25H14.25C13.8358 29.25 13.5 29.5858 13.5 30C14.155 31.7478 15.9225 33 18 33Z" fill="#2970FF"/>
<path d="M30 7.5C30 9.98527 27.9854 12 25.5 12C23.0146 12 21 9.98527 21 7.5C21 5.01472 23.0146 3 25.5 3C27.9854 3 30 5.01472 30 7.5Z" fill="#2970FF"/>
</svg>
