<svg width="28" height="28" viewBox="0 0 28 28" fill="none" xmlns="http://www.w3.org/2000/svg">
<path d="M27.1803 19.3416C25.5157 19.3416 23.9524 18.6994 22.7779 17.5333C21.6039 16.3677 20.9574 14.8153 20.9574 13.1621C20.9574 12.709 20.59 12.3418 20.1371 12.3418C19.684 12.3418 19.3168 12.709 19.3168 13.1621C19.3168 14.8153 18.6702 16.3677 17.4961 17.5333C16.3216 18.6994 14.7583 19.3416 13.0938 19.3416C12.6407 19.3416 12.2734 19.7088 12.2734 20.1619C12.2734 20.615 12.6407 20.9822 13.0938 20.9822C16.525 20.9822 19.3168 23.7625 19.3168 27.1798C19.3168 27.6329 19.684 28.0002 20.1371 28.0002C20.59 28.0002 20.9574 27.6329 20.9574 27.1798C20.9574 23.7625 23.7491 20.9822 27.1803 20.9822C27.6334 20.9822 28.0006 20.615 28.0006 20.1619C28.0006 19.7088 27.6334 19.3416 27.1803 19.3416Z" fill="#155EEF"/>
<path d="M11.2238 12.9275C8.80789 12.9275 6.84235 10.9765 6.84235 8.57812C6.84235 8.12524 6.47513 7.75781 6.02203 7.75781C5.56894 7.75781 5.20172 8.12524 5.20172 8.57812C5.20172 10.9765 3.23618 12.9275 0.820312 12.9275C0.367218 12.9275 0 13.2949 0 13.7478C0 14.2009 0.367218 14.5681 0.820312 14.5681C3.23618 14.5681 5.20172 16.5253 5.20172 18.9309C5.20172 19.3838 5.56894 19.7513 6.02203 19.7513C6.47513 19.7513 6.84235 19.3838 6.84235 18.9309C6.84235 16.5253 8.80789 14.5681 11.2238 14.5681C11.6768 14.5681 12.0441 14.2009 12.0441 13.7478C12.0441 13.2949 11.6768 12.9275 11.2238 12.9275Z" fill="#155EEF"/>
<path d="M12.5585 5.6687C14.3352 5.6687 15.7808 7.10318 15.7808 8.86621C15.7808 9.31909 16.148 9.68652 16.6011 9.68652C17.0542 9.68652 17.4214 9.31909 17.4214 8.86621C17.4214 7.09741 18.867 5.65845 20.6437 5.65845C21.0968 5.65845 21.464 5.29102 21.464 4.83813C21.464 4.38504 21.0968 4.01782 20.6437 4.01782C18.867 4.01782 17.4214 2.58334 17.4214 0.820312C17.4214 0.367218 17.0542 0 16.6011 0C16.148 0 15.7808 0.367218 15.7808 0.820312C15.7808 2.58911 14.3352 4.02808 12.5585 4.02808C12.1054 4.02808 11.7382 4.39529 11.7382 4.84839C11.7382 5.30148 12.1054 5.6687 12.5585 5.6687Z" fill="#155EEF"/>
</svg>
