<svg width="38" height="45" viewBox="0 0 38 45" fill="none" xmlns="http://www.w3.org/2000/svg">
<g clip-path="url(#clip0_7813_47231)">
<path d="M29.3223 10.8381C29.342 12.2642 29.0706 13.6794 28.5247 14.9971C27.9788 16.3147 27.17 17.5072 26.1475 18.5016C25.1532 19.5241 23.9607 20.333 22.643 20.8789C21.3253 21.4248 19.9102 21.6961 18.484 21.6764C17.0588 21.6952 15.6448 21.4234 14.3281 20.8776C13.0115 20.3317 11.8199 19.5233 10.8261 18.5016C9.80366 17.5072 8.99475 16.3148 8.44888 14.9971C7.903 13.6794 7.63165 12.2642 7.6514 10.8381C7.63173 9.41216 7.90313 7.99718 8.449 6.6797C8.99487 5.36222 9.80374 4.16993 10.8261 3.17574C11.8196 2.15397 13.011 1.34547 14.3275 0.799622C15.6439 0.25377 17.0579 -0.0179753 18.4829 0.000985953C19.909 -0.0185667 21.3241 0.252881 22.6418 0.798741C23.9594 1.3446 25.1519 2.15341 26.1464 3.17574C27.1689 4.16987 27.978 5.36213 28.524 6.6796C29.0701 7.99708 29.3417 9.41209 29.3223 10.8381Z" fill="#FFBB85"/>
<path d="M37.5432 37.2593C37.5896 38.3044 37.4161 39.3477 37.0337 40.3216C36.6513 41.2954 36.0687 42.1781 35.3236 42.9124C33.7678 44.336 31.7122 45.0865 29.6052 45.0004H7.93768C5.83097 45.0871 3.77542 44.3374 2.2193 42.9146C1.47379 42.1801 0.890958 41.297 0.508584 40.3228C0.126209 39.3485 -0.047173 38.3048 -0.000324551 37.2593C-0.000324551 36.3593 0.0300504 35.4593 0.0896754 34.602C0.158478 33.6482 0.278652 32.6989 0.449675 31.758C0.619818 30.7913 0.853194 29.8367 1.1483 28.9005C1.44747 27.9733 1.84143 27.0795 2.32393 26.2331C2.79985 25.3817 3.39668 24.6037 4.0958 23.9235C4.83288 23.2305 5.69751 22.6872 6.64168 22.3238C7.68068 21.9233 8.78623 21.7237 9.89968 21.7354C10.5474 21.8044 11.1601 22.064 11.6603 22.4813C12.1969 22.8311 12.8145 23.2294 13.4963 23.6659C14.2412 24.1116 15.0385 24.463 15.8701 24.7121C16.7157 24.9892 17.5963 25.1457 18.4857 25.1768C18.5817 25.1768 18.6773 25.1768 18.7726 25.1768C19.7594 25.1732 20.7395 25.0149 21.6773 24.7076C22.5088 24.4585 23.3062 24.1071 24.0511 23.6614C24.7407 23.2204 25.3583 22.8233 25.8871 22.4779C26.3873 22.0598 27.0005 21.7998 27.6488 21.7309C28.7591 21.7201 29.8615 21.9193 30.8978 22.3181C31.8419 22.6817 32.7065 23.225 33.4437 23.9179C34.1432 24.5978 34.7401 25.3758 35.2155 26.2275C35.6983 27.0734 36.0922 27.9669 36.3912 28.8938C36.6868 29.8307 36.9206 30.786 37.0909 31.7535C37.2626 32.694 37.3839 33.643 37.4543 34.5964C37.5128 35.4582 37.5432 36.3525 37.5432 37.2593Z" fill="#6AA9FF"/>
<path d="M18.4902 21.6775V0.000985953C19.9163 -0.0185667 21.3314 0.252881 22.6491 0.798741C23.9667 1.3446 25.1592 2.15341 26.1537 3.17574C27.1761 4.16997 27.9849 5.36227 28.5308 6.67974C29.0766 7.99721 29.3481 9.41217 29.3285 10.8381C29.3482 12.2642 29.0768 13.6794 28.5309 14.9971C27.985 16.3147 27.1762 17.5072 26.1537 18.5016C25.1595 19.5243 23.967 20.3334 22.6493 20.8795C21.3317 21.4256 19.9164 21.6971 18.4902 21.6775Z" fill="#F5A86C"/>
<path d="M37.5433 37.262C37.5898 38.3072 37.4162 39.3505 37.0338 40.3243C36.6515 41.2982 36.0688 42.1808 35.3237 42.9152C33.7679 44.3387 31.7123 45.0893 29.6053 45.0032H18.4824V25.1807C18.5784 25.1807 18.6741 25.1807 18.7693 25.1807C19.7561 25.1771 20.7363 25.0188 21.6741 24.7115C22.5056 24.4624 23.3029 24.111 24.0478 23.6653C24.7374 23.2243 25.355 22.8272 25.8838 22.4818C26.384 22.0637 26.9973 21.8037 27.6456 21.7348C28.7559 21.724 29.8583 21.9232 30.8946 22.322C31.8386 22.6856 32.7032 23.2289 33.4404 23.9218C34.1399 24.6017 34.7368 25.3797 35.2123 26.2314C35.695 27.0773 36.089 27.9708 36.3879 28.8977C36.6836 29.8346 36.9173 30.7899 37.0877 31.7574C37.2593 32.6979 37.3806 33.6469 37.4511 34.6003C37.5129 35.4609 37.5422 36.3553 37.5433 37.262Z" fill="#2682FF"/>
</g>
<defs>
<clipPath id="clip0_7813_47231">
<rect width="37.5435" height="45" fill="white"/>
</clipPath>
</defs>
</svg>
