<svg width="45" height="43" viewBox="0 0 45 43" fill="none" xmlns="http://www.w3.org/2000/svg">
<g clip-path="url(#clip0_7813_47293)">
<path d="M39.7287 13.1836H38.4102V23.7305H39.7287C41.1139 23.7102 42.4356 23.1457 43.408 22.159C44.3805 21.1722 44.9256 19.8424 44.9256 18.457C44.9256 17.0716 44.3805 15.7418 43.408 14.7551C42.4356 13.7683 41.1139 13.2038 39.7287 13.1836Z" fill="#D0E4E7"/>
<path d="M39.7287 23.731C41.1268 23.7295 42.4673 23.1734 43.4559 22.1846C44.4445 21.1958 45.0004 19.8552 45.0015 18.457H38.4102V23.731H39.7287Z" fill="#A8D3D8"/>
<path d="M14.5015 42.1872H9.22865C9.05546 42.1874 8.88395 42.1534 8.72392 42.0872C8.56388 42.0209 8.41847 41.9238 8.29601 41.8014C8.17355 41.6789 8.07643 41.5335 8.01022 41.3735C7.94401 41.2134 7.91001 41.0419 7.91016 40.8687V25.049C7.91001 24.8758 7.94401 24.7042 8.01022 24.5442C8.07643 24.3842 8.17355 24.2388 8.29601 24.1163C8.41847 23.9939 8.56388 23.8968 8.72392 23.8305C8.88395 23.7643 9.05546 23.7303 9.22865 23.7305H14.5027C14.6758 23.7303 14.8474 23.7643 15.0074 23.8305C15.1674 23.8968 15.3128 23.9939 15.4353 24.1163C15.5578 24.2388 15.6549 24.3842 15.7211 24.5442C15.7873 24.7042 15.8213 24.8758 15.8212 25.049V40.8698C15.8212 41.043 15.787 41.2145 15.7207 41.3745C15.6543 41.5345 15.5571 41.6798 15.4345 41.8022C15.3119 41.9245 15.1665 42.0215 15.0064 42.0876C14.8463 42.1537 14.6747 42.1875 14.5015 42.1872Z" fill="#351B33"/>
<path d="M18.4568 10.5473H8.27888C7.2155 10.5215 6.15746 10.7057 5.16542 11.0895C4.17338 11.4733 3.26684 12.0492 2.49775 12.784C1.72865 13.5188 1.11213 14.3981 0.683522 15.3717C0.25491 16.3452 0.0226335 17.3937 3.92832e-06 18.4572C-0.00103207 19.4962 0.202856 20.5252 0.599997 21.4854C0.997139 22.4455 1.57974 23.3179 2.31444 24.0526C3.04915 24.7873 3.92154 25.3699 4.88168 25.7671C5.84181 26.1642 6.87085 26.3681 7.90988 26.3671H18.4568L19.7753 23.7301V12.6139L18.4568 10.5473Z" fill="#E64D2E"/>
<path d="M7.90988 26.3669H18.4568L19.7753 23.7299V18.457H3.92832e-06C-0.00103207 19.4961 0.202856 20.5251 0.599997 21.4852C0.997139 22.4454 1.57974 23.3178 2.31444 24.0525C3.04915 24.7872 3.92154 25.3698 4.88168 25.7669C5.84181 26.164 6.87085 26.3679 7.90988 26.3669Z" fill="#CC2929"/>
<path d="M37.4853 3.0279C32.6085 7.86151 26.0141 10.564 19.1478 10.5429H18.457V26.3683H19.1421C26.0084 26.3472 32.6029 29.0497 37.4797 33.8833C37.5972 34.0101 37.7401 34.1108 37.899 34.179C38.0578 34.2472 38.2293 34.2814 38.4022 34.2793V2.6904C38.2342 2.67866 38.0656 2.70267 37.9075 2.76084C37.7495 2.81902 37.6056 2.91004 37.4853 3.0279Z" fill="#EDF5FF"/>
<path d="M19.1421 26.3669C26.0084 26.3458 32.6029 29.0483 37.4797 33.8819C37.5972 34.0087 37.7401 34.1095 37.899 34.1777C38.0578 34.2459 38.2293 34.28 38.4022 34.2779V18.457H18.457V26.3669H19.1421Z" fill="#D0E4E7"/>
<path d="M38.4083 4.80812e-07C38.2351 -0.000147481 38.0636 0.0338556 37.9036 0.100064C37.7436 0.166272 37.5982 0.263387 37.4757 0.38585C37.3532 0.508314 37.2561 0.653722 37.1899 0.813757C37.1237 0.973792 37.0897 1.14531 37.0898 1.3185V35.5961C37.0898 35.9458 37.2287 36.2812 37.476 36.5285C37.7233 36.7757 38.0587 36.9146 38.4083 36.9146C38.758 36.9146 39.0934 36.7757 39.3407 36.5285C39.5879 36.2812 39.7268 35.9458 39.7268 35.5961V1.3185C39.727 1.14531 39.693 0.973792 39.6268 0.813757C39.5606 0.653722 39.4635 0.508314 39.341 0.38585C39.2185 0.263387 39.0731 0.166272 38.9131 0.100064C38.7531 0.0338556 38.5815 -0.000147481 38.4083 4.80812e-07Z" fill="#E64D2E"/>
<path d="M38.4083 36.9138C38.5815 36.9139 38.7531 36.8799 38.9131 36.8137C39.0731 36.7475 39.2185 36.6504 39.341 36.5279C39.4635 36.4055 39.5606 36.2601 39.6268 36.1C39.693 35.94 39.727 35.7685 39.7268 35.5953V18.457H37.0898V35.5953C37.0897 35.7685 37.1237 35.94 37.1899 36.1C37.2561 36.2601 37.3532 36.4055 37.4757 36.5279C37.5982 36.6504 37.7436 36.7475 37.9036 36.8137C38.0636 36.8799 38.2351 36.9139 38.4083 36.9138Z" fill="#CC2929"/>
</g>
<defs>
<clipPath id="clip0_7813_47293">
<rect width="45" height="42.1875" fill="white"/>
</clipPath>
</defs>
</svg>
