<svg width="45" height="45" viewBox="0 0 45 45" fill="none" xmlns="http://www.w3.org/2000/svg">
<g clip-path="url(#clip0_10028_57174)">
<path d="M34.9049 22.3048L29.1635 21.8392C28.3093 21.7701 27.6723 21.0223 27.7414 20.168C27.774 19.7599 27.9671 19.3813 28.2783 19.1143L32.6495 15.3646C31.066 13.1115 28.7803 11.4473 26.1501 10.6318L23.9319 15.9542C23.6021 16.7456 22.6936 17.1188 21.9023 16.789C21.5244 16.6315 21.2242 16.3313 21.0675 15.9542L18.8547 10.6365C16.2245 11.4519 13.9388 13.1162 12.3553 15.3692L16.7266 19.119C17.3775 19.6768 17.4528 20.6559 16.895 21.3069C16.628 21.6181 16.2494 21.8105 15.8413 21.8439L10.1 22.3094C10.1 22.3753 10.0898 22.439 10.0898 22.505C10.0883 25.1934 10.9658 27.8087 12.5881 29.9533L17.5001 26.9569C18.2317 26.5108 19.1868 26.742 19.6329 27.4736C19.8463 27.8235 19.9122 28.2433 19.8176 28.6413L18.4845 34.243C21.0876 35.1469 23.9194 35.1469 26.5225 34.243L25.1895 28.6413C24.9909 27.808 25.5053 26.9709 26.3393 26.7722C26.7374 26.6776 27.1571 26.7435 27.507 26.9569L32.4167 29.9486C34.039 27.8042 34.9166 25.1887 34.915 22.5003C34.9149 22.4344 34.9064 22.3708 34.9049 22.3048ZM22.5011 24.8279C21.2156 24.8279 20.1735 23.786 20.1735 22.5003C20.1735 21.2147 21.2155 20.1727 22.5011 20.1727C23.7867 20.1727 24.8288 21.2147 24.8288 22.5003C24.8288 23.7859 23.7867 24.8279 22.5011 24.8279Z" fill="#D12136"/>
<path d="M22.5 0C10.0738 0 0 10.0738 0 22.5C0 34.9262 10.0738 45 22.5 45C34.9262 45 45 34.9262 45 22.5C45 10.0738 34.9262 0 22.5 0ZM22.5 34.9138C15.6437 34.9138 10.0862 29.3563 10.0862 22.5C10.0862 15.6437 15.6437 10.0862 22.5 10.0862C29.3563 10.0862 34.9138 15.6437 34.9138 22.5C34.9138 29.3563 29.3563 34.9138 22.5 34.9138Z" fill="#2B2733"/>
<path d="M37.1992 5.47266C45.3201 14.8738 44.2836 29.0782 34.8824 37.1992C26.4364 44.4955 13.9187 44.4955 5.47266 37.1992C13.5897 46.6042 27.7942 47.6486 37.1992 39.5307C46.6042 31.4129 47.6486 17.2091 39.5307 7.80413C38.8114 6.97084 38.0324 6.19187 37.1992 5.47266Z" fill="#1A1721"/>
<path d="M15.528 3.55372L17.0039 3.07422L16.2846 0.860348L14.8087 1.33985L15.528 3.55372Z" fill="#555160"/>
<path d="M28.7155 44.1358L30.1914 43.6562L29.4721 41.4424L27.9962 41.9219L28.7155 44.1358Z" fill="#3B3944"/>
<path d="M23.2744 0H21.7227V2.32761H23.2744V0Z" fill="#555160"/>
<path d="M23.2744 42.6729H21.7227V45.0005H23.2744V42.6729Z" fill="#3B3944"/>
<path d="M10.0144 6.63686L11.2695 5.72461L9.90118 3.84188L8.646 4.75413L10.0144 6.63686Z" fill="#555160"/>
<path d="M35.0964 41.1574L36.3516 40.2451L34.9832 38.3624L33.728 39.2746L35.0964 41.1574Z" fill="#3B3944"/>
<path d="M5.72447 11.2708L6.63672 10.0156L4.75399 8.64728L3.84174 9.90245L5.72447 11.2708Z" fill="#555160"/>
<path d="M40.2479 36.3538L41.1602 35.0986L39.2774 33.7303L38.3652 34.9855L40.2479 36.3538Z" fill="#3B3944"/>
<path d="M3.07518 17.0042L3.55469 15.5283L1.34082 14.8091L0.861311 16.285L3.07518 17.0042Z" fill="#555160"/>
<path d="M43.6611 30.1966L44.1406 28.7207L41.9268 28.0014L41.4472 29.4774L43.6611 30.1966Z" fill="#3B3944"/>
<path d="M2.32761 21.7236H0V23.2753H2.32761V21.7236Z" fill="#555160"/>
<path d="M44.9995 21.7236H42.6719V23.2753H44.9995V21.7236Z" fill="#3B3944"/>
<path d="M1.34122 30.1901L3.55469 29.4707L3.07505 27.995L0.861583 28.7145L1.34122 30.1901Z" fill="#555160"/>
<path d="M4.74978 36.3506L6.63281 34.9824L5.72072 33.7271L3.83768 35.0953L4.74978 36.3506Z" fill="#555160"/>
<path d="M34.9834 6.63499L36.3516 4.75195L35.0962 3.83986L33.7281 5.72289L34.9834 6.63499Z" fill="#555160"/>
<path d="M29.472 3.55527L30.1914 1.3418L28.7157 0.862164L27.9963 3.07563L29.472 3.55527Z" fill="#555160"/>
<path d="M44.1415 16.2846L43.6613 14.8105L42.1406 15.3048C42.2531 15.8121 42.3509 16.3242 42.4285 16.8433L44.1415 16.2846Z" fill="#3B3944"/>
<path d="M41.1595 9.90183L40.2479 8.64648L39.7188 9.03443C39.9771 9.48672 40.2261 9.94603 40.4535 10.4185L41.1595 9.90183Z" fill="#3B3944"/>
<path d="M8.64844 40.247L9.90378 41.1586L10.4174 40.4525C9.94491 40.2253 9.48639 39.9762 9.03331 39.7178L8.64844 40.247Z" fill="#3B3944"/>
<path d="M14.8086 43.6584L16.2827 44.1386L16.839 42.4255C16.3199 42.3479 15.8078 42.2502 15.3004 42.1377L14.8086 43.6584Z" fill="#3B3944"/>
<path d="M41.9255 17.0042L42.426 16.8413C42.3484 16.3222 42.2507 15.8101 42.1382 15.3027L41.4453 15.5277L41.9255 17.0042Z" fill="#555160"/>
<path d="M39.2757 11.2707L40.4519 10.4173C40.2246 9.9448 39.9755 9.48628 39.7172 9.0332L38.3633 10.017L39.2757 11.2707Z" fill="#555160"/>
<path d="M10.015 38.3643L9.03125 39.7181C9.48354 39.9765 9.94285 40.2255 10.4154 40.4529L11.2688 39.2767L10.015 38.3643Z" fill="#555160"/>
<path d="M15.5297 41.4453L15.3047 42.1382C15.8121 42.2507 16.3241 42.3484 16.8432 42.426L17.0062 41.9255L15.5297 41.4453Z" fill="#555160"/>
<path d="M22.5001 6.20703C13.5017 6.20703 6.20703 13.5017 6.20703 22.5001C6.20703 31.4985 13.5017 38.7932 22.5001 38.7932C31.4985 38.7932 38.7932 31.4985 38.7932 22.5001C38.7932 13.5017 31.4985 6.20703 22.5001 6.20703ZM22.5001 34.9139C15.6438 34.9139 10.0863 29.3564 10.0863 22.5001C10.0863 15.6438 15.6438 10.0863 22.5001 10.0863C29.3564 10.0863 34.9139 15.6438 34.9139 22.5001C34.9139 29.3564 29.3564 34.9139 22.5001 34.9139Z" fill="#555160"/>
<path d="M33.6137 10.6094C39.7608 17.167 39.4288 27.4665 32.8712 33.6145C26.6107 39.4831 16.8698 39.4831 10.6094 33.6145C16.7387 40.1899 27.0382 40.5514 33.6145 34.4222C40.1907 28.293 40.5514 17.9933 34.4222 11.4171C34.1622 11.1386 33.8922 10.8694 33.6137 10.6094Z" fill="#3B3944"/>
<path d="M29.56 12.308C28.5149 11.5786 27.3635 11.0146 26.1462 10.6367L25.7188 11.6616C27.0199 11.7299 28.3085 11.9464 29.56 12.308Z" fill="#9C1928"/>
<path d="M19.609 12.4546L18.8549 10.6367C16.2247 11.4522 13.939 13.1164 12.3555 15.3695L13.2687 16.1531C15.0888 14.4742 17.2519 13.2126 19.609 12.4546Z" fill="#9C1928"/>
</g>
<defs>
<clipPath id="clip0_10028_57174">
<rect width="45" height="45" fill="white"/>
</clipPath>
</defs>
</svg>
