<svg width="45" height="45" viewBox="0 0 45 45" fill="none" xmlns="http://www.w3.org/2000/svg">
<g clip-path="url(#clip0_7688_50134)">
<path d="M5.55346 16.0483C7.27651 16.0483 8.67332 14.6515 8.67332 12.9285C8.67332 11.2054 7.27651 9.80859 5.55346 9.80859C3.8304 9.80859 2.43359 11.2054 2.43359 12.9285C2.43359 14.6515 3.8304 16.0483 5.55346 16.0483Z" fill="#FFB69E"/>
<path d="M21.9587 22.5523H17.6529C17.0291 22.5523 16.5234 22.0467 16.5234 21.4228V19.1217C16.5234 18.4978 17.0291 17.9922 17.6529 17.9922H21.9587C22.5826 17.9922 23.0882 18.4978 23.0882 19.1217V21.4228C23.0882 22.0467 22.5825 22.5523 21.9587 22.5523Z" fill="#C43625"/>
<path d="M14.9041 25.6419C14.6169 25.6419 14.3293 25.5361 14.1046 25.3229C13.6389 24.8813 13.6195 24.1458 14.0611 23.68L17.304 20.2608C17.7457 19.7952 18.4813 19.7757 18.9469 20.2174C19.4126 20.659 19.432 21.3945 18.9904 21.8603L15.7475 25.2795C15.5189 25.5204 15.2118 25.6419 14.9041 25.6419Z" fill="#C43625"/>
<path d="M12.3438 44.8526C10.3331 44.8526 8.70312 43.2226 8.70312 41.212V32.8164C8.70312 30.8058 10.3331 29.1758 12.3438 29.1758C14.3545 29.1758 15.9845 30.8058 15.9845 32.8164V41.212C15.9844 43.2226 14.3544 44.8526 12.3438 44.8526Z" fill="#373C41"/>
<path d="M1.99502 10.0508H0V12.7424H1.99502C2.57221 12.7424 3.04009 12.2745 3.04009 11.6973V11.0958C3.04 10.5187 2.57213 10.0508 1.99502 10.0508Z" fill="#87A0AF"/>
<path d="M16.9084 25.1415L14.7348 12.4448C14.2625 9.68598 11.8882 7.68359 9.08931 7.68359H0V10.6354H9.08931C10.4458 10.6354 11.5965 11.6059 11.8255 12.943L13.7037 23.9146H0V26.8665H15.4538C15.8887 26.8665 16.3016 26.6746 16.5821 26.3421C16.8625 26.0096 16.9819 25.5703 16.9084 25.1415Z" fill="#E64937"/>
<path d="M9.23721 17.1328H1.91261C1.20217 17.1305 0.539936 17.3822 0 17.8104V23.5561H12.4575V20.7041C12.4549 18.7404 11.0088 17.1384 9.23721 17.1328Z" fill="#64AFFF"/>
<path d="M13.7983 22.4258H0V37.944H17.1355C18.2378 37.944 19.1314 37.0504 19.1314 35.948V27.7588C19.1314 24.8135 16.7437 22.4258 13.7983 22.4258Z" fill="#E64937"/>
<path d="M12.4399 32.5986C14.2037 32.5986 15.6336 31.1678 15.6336 29.4028C15.6336 27.6378 14.2037 26.207 12.4399 26.207C10.676 26.207 9.24609 27.6378 9.24609 29.4028C9.24609 31.1678 10.676 32.5986 12.4399 32.5986Z" fill="#FFE678"/>
<path d="M4.39058 35.3984H0V40.4276H4.39058C4.95463 40.4276 5.41198 39.9703 5.41198 39.4062V36.4198C5.41198 35.8557 4.95463 35.3984 4.39058 35.3984Z" fill="#87A0AF"/>
<path d="M9.26964 22.4258H7.68613C7.68613 21.2505 6.72995 20.2944 5.5547 20.2944C4.37945 20.2944 3.42336 21.2505 3.42336 22.4258H1.83984C1.83984 20.3774 3.50629 18.7109 5.5547 18.7109C7.60311 18.7109 9.26964 20.3774 9.26964 22.4258Z" fill="#373C41"/>
<path d="M5.28662 28.4844H0V30.5381H5.28662C5.85373 30.5381 6.31345 30.0783 6.31345 29.5112C6.31336 28.9441 5.85373 28.4844 5.28662 28.4844Z" fill="#F5876E"/>
<path d="M3.36787 31.8555H0V33.9091H3.36787C3.93498 33.9091 4.39471 33.4493 4.39471 32.8823C4.39471 32.3152 3.93498 31.8555 3.36787 31.8555Z" fill="#F5876E"/>
<path d="M38.9255 44.8497C37.8103 44.8497 36.9062 43.9457 36.9062 42.8305V26.6911C36.9062 25.576 37.8103 24.6719 38.9255 24.6719C40.0406 24.6719 40.9447 25.5759 40.9447 26.6911V42.8306C40.9447 43.9457 40.0406 44.8497 38.9255 44.8497Z" fill="#373C41"/>
<path d="M34.0505 44.8497C32.9353 44.8497 32.0312 43.9457 32.0312 42.8305V26.6911C32.0312 25.576 32.9353 24.6719 34.0505 24.6719C35.1657 24.6719 36.0697 25.5759 36.0697 26.6911V42.8306C36.0696 43.9457 35.1656 44.8497 34.0505 44.8497Z" fill="#50555A"/>
<path d="M45 14.5284C44.9891 12.3437 43.1876 10.5664 40.9844 10.5664C39.9314 10.5664 33.5489 10.5664 32.6108 10.5664C30.5683 10.5664 28.7028 11.6863 27.7424 13.4888L25.2172 18.2284C24.8985 18.8265 24.9697 19.5574 25.3978 20.0826C25.8274 20.6098 26.5297 20.8246 27.1774 20.6338L32.0325 19.2045V26.6918H40.9452V21.2249L43.0236 21.5933C43.5047 21.6788 44.0105 21.5511 44.3983 21.226C44.7796 20.9064 44.9999 20.4342 44.9999 19.9365L45 14.5284ZM30.072 16.2736L30.7126 15.0713C30.9937 14.5436 31.4738 14.1661 32.0326 14.0106V15.6965L30.072 16.2736ZM41.6348 17.9293L40.9454 17.8071V13.9318H40.9845C41.3353 13.9318 41.6331 14.2128 41.6348 14.5369V17.9293Z" fill="#00558C"/>
<path d="M38.0982 21.2257L32.9121 21.6334C32.4795 21.6674 32.1013 21.3443 32.0672 20.9117L31.4986 13.6768C31.4645 13.2443 31.7877 12.866 32.2202 12.832L37.4063 12.4243C37.8388 12.3903 38.2171 12.7135 38.2511 13.146L38.8198 20.3809C38.8538 20.8135 38.5308 21.1917 38.0982 21.2257Z" fill="#B4D7DC"/>
<path d="M39.4181 19.0655L39.0478 17.4703L38.4376 17.3621C37.5223 17.1996 36.6493 17.8102 36.4871 18.7253C36.3248 19.6403 36.9351 20.5136 37.8502 20.6757L38.5232 20.7951L39.4181 19.0655Z" fill="#FFB69E"/>
<path d="M38.5234 20.7974L39.6391 20.9952L40.1432 17.6668L39.0481 17.4727L38.5234 20.7974Z" fill="white"/>
<path d="M36.4717 11.8146C38.3977 11.8146 39.9591 10.2532 39.9591 8.3272C39.9591 6.40119 38.3977 4.83984 36.4717 4.83984C34.5457 4.83984 32.9844 6.40119 32.9844 8.3272C32.9844 10.2532 34.5457 11.8146 36.4717 11.8146Z" fill="#FFB69E"/>
<path d="M32.8874 4.66837C32.9982 4.36986 34.5407 4.13281 36.445 4.13281C38.3508 4.13281 39.8933 4.36977 40.0028 4.66837H40.0241V6.67496C40.0227 7.48823 38.4214 8.54794 36.4449 8.54794C34.4684 8.54794 32.8686 7.48823 32.8672 6.67496V4.66837H32.8874Z" fill="#373C41"/>
<path d="M40.0556 1.37077C39.0308 0.582472 37.7486 0.148438 36.4453 0.148438C35.1425 0.148438 33.8604 0.582472 32.8354 1.37077C31.8378 2.13793 31.2422 3.14408 31.2422 4.06212C31.2422 6.33039 34.3733 6.33039 36.4453 6.33039C38.5172 6.33039 41.6484 6.33039 41.6484 4.06212C41.6484 3.14399 41.0529 2.13784 40.0556 1.37077Z" fill="#00558C"/>
<path d="M36.4466 6.93015C37.1074 6.93015 37.6431 6.14567 37.6431 5.17796C37.6431 4.21026 37.1074 3.42578 36.4466 3.42578C35.7857 3.42578 35.25 4.21026 35.25 5.17796C35.25 6.14567 35.7857 6.93015 36.4466 6.93015Z" fill="#FFC305"/>
</g>
<defs>
<clipPath id="clip0_7688_50134">
<rect width="45" height="45" fill="white"/>
</clipPath>
</defs>
</svg>
