<svg width="45" height="45" viewBox="0 0 45 45" fill="none" xmlns="http://www.w3.org/2000/svg">
<g clip-path="url(#clip0_8212_50639)">
<path d="M3.23009 14.407C2.95024 14.407 2.68912 14.2307 2.59429 13.9508C2.47528 13.5996 2.66355 13.2185 3.01484 13.0995L41.5778 0.035617C41.929 -0.0832112 42.3101 0.104963 42.4291 0.456174C42.5481 0.807385 42.3599 1.18848 42.0086 1.30748L3.4456 14.3713C3.37423 14.3955 3.30154 14.407 3.23009 14.407Z" fill="#E4EAF8"/>
<path d="M22.4966 10.4904C21.6725 10.4904 20.9068 10.2261 20.2715 9.77344V36.1216H24.7218V9.77344C24.0864 10.2261 23.3208 10.4904 22.4966 10.4904Z" fill="#E4EAF8"/>
<path d="M20.2715 9.76953V36.1177H22.0619V10.4612C21.4037 10.3858 20.7936 10.1415 20.2715 9.76953Z" fill="#D8DCE5"/>
<path d="M22.4969 11.1422C24.6967 11.1422 26.4801 9.35885 26.4801 7.15898C26.4801 4.95912 24.6967 3.17578 22.4969 3.17578C20.297 3.17578 18.5137 4.95912 18.5137 7.15898C18.5137 9.35885 20.297 11.1422 22.4969 11.1422Z" fill="#D8DCE5"/>
<path d="M20.304 7.15907C20.304 5.26714 21.6235 3.68449 23.3921 3.278C23.1042 3.21182 22.8048 3.17578 22.497 3.17578C20.2971 3.17578 18.5137 4.95917 18.5137 7.15907C18.5137 9.35898 20.2971 11.1424 22.497 11.1424C22.8049 11.1424 23.1043 11.1062 23.3921 11.0401C21.6235 10.6337 20.304 9.05101 20.304 7.15907Z" fill="#C3C8D1"/>
<path d="M25.9131 35.4219H19.08C16.3977 35.4219 14.2031 37.6686 14.2031 40.4149V41.4027H30.79V40.4149C30.7901 37.6688 28.5955 35.4219 25.9131 35.4219Z" fill="#966653"/>
<path d="M20.8704 35.4219H19.08C16.3977 35.4219 14.2031 37.6686 14.2031 40.4149V41.4027H15.9935V40.4149C15.9935 37.6688 18.1881 35.4219 20.8704 35.4219Z" fill="#875746"/>
<path d="M31.3832 45.0019H13.6083C13.0267 45.0019 12.5508 44.5261 12.5508 43.9444V42.3231C12.5508 41.7416 13.0266 41.2656 13.6083 41.2656H31.3833C31.9649 41.2656 32.4408 41.7415 32.4408 42.3231V43.9444C32.4407 44.5261 31.9648 45.0019 31.3832 45.0019Z" fill="#AD7B64"/>
<path d="M31.3663 43.2692H13.625C13.058 43.2692 12.5913 42.8237 12.5544 42.2656C12.5528 42.2892 12.5508 42.3125 12.5508 42.3363V43.9241C12.5508 44.515 13.0343 44.9983 13.625 44.9983H31.3665C31.9574 44.9983 32.4407 44.5149 32.4407 43.9241V42.3363C32.4407 42.3124 32.4387 42.2891 32.4371 42.2656C32.4001 42.8237 31.9333 43.2692 31.3663 43.2692Z" fill="#966653"/>
<path d="M22.4965 8.61014C23.296 8.61014 23.9441 7.962 23.9441 7.16249C23.9441 6.36298 23.296 5.71484 22.4965 5.71484C21.697 5.71484 21.0488 6.36298 21.0488 7.16249C21.0488 7.962 21.697 8.61014 22.4965 8.61014Z" fill="#C3C8D1"/>
<path d="M22.8391 7.15858C22.8391 6.69733 23.0555 6.28741 23.3916 6.02233C23.1451 5.82783 22.8347 5.71094 22.4965 5.71094C21.6969 5.71094 21.0488 6.35904 21.0488 7.15858C21.0488 7.95813 21.6969 8.60623 22.4965 8.60623C22.8348 8.60623 23.1451 8.48925 23.3916 8.29492C23.0556 8.02976 22.8391 7.61983 22.8391 7.15858Z" fill="#B1B5BC"/>
<path d="M43.3961 16.1818C43.1343 16.1818 42.8856 16.0278 42.7773 15.7715L37.4964 3.27262C37.3522 2.93108 37.512 2.53724 37.8536 2.39292C38.1951 2.24869 38.589 2.40848 38.7333 2.75011L44.0141 15.249C44.1584 15.5906 43.9986 15.9844 43.6569 16.1287C43.5719 16.1647 43.4833 16.1818 43.3961 16.1818Z" fill="#D8DCE5"/>
<path d="M31.6947 16.182C31.6075 16.182 31.5191 16.1649 31.4337 16.1288C31.0921 15.9846 30.9323 15.5907 31.0765 15.2491L36.3573 2.75021C36.5016 2.40866 36.8953 2.24853 37.237 2.39302C37.5785 2.53725 37.7384 2.93117 37.5942 3.27272L32.3134 15.7716C32.2052 16.0279 31.9565 16.182 31.6947 16.182Z" fill="#D8DCE5"/>
<path d="M39.4383 20.9511H35.654C32.7376 20.9511 30.3516 18.565 30.3516 15.6487V15.5349C30.3516 15.2998 30.5421 15.1094 30.777 15.1094H44.3152C44.5502 15.1094 44.7407 15.2999 44.7407 15.5349V15.6487C44.7408 18.565 42.3546 20.9511 39.4383 20.9511Z" fill="#FFC850"/>
<path d="M37.546 3.55686C38.3653 3.55686 39.0295 2.89267 39.0295 2.07335C39.0295 1.25403 38.3653 0.589844 37.546 0.589844C36.7267 0.589844 36.0625 1.25403 36.0625 2.07335C36.0625 2.89267 36.7267 3.55686 37.546 3.55686Z" fill="#707487"/>
<path d="M32.127 15.6487V15.5349C32.127 15.2998 32.3175 15.1094 32.5524 15.1094H30.777C30.542 15.1094 30.3516 15.2999 30.3516 15.5349V15.6487C30.3516 18.5651 32.7377 20.9511 35.654 20.9511H37.4294C34.5131 20.9511 32.127 18.565 32.127 15.6487Z" fill="#F9B938"/>
<path d="M37.838 2.07344C37.838 1.58749 38.0727 1.15753 38.4338 0.886826C38.1861 0.701113 37.8794 0.589844 37.546 0.589844C36.7267 0.589844 36.0625 1.25403 36.0625 2.07344C36.0625 2.89275 36.7267 3.55694 37.546 3.55694C37.8794 3.55694 38.186 3.44567 38.4338 3.26005C38.0728 2.98943 37.838 2.55938 37.838 2.07344Z" fill="#676A77"/>
<path d="M13.3043 26.3576C13.0425 26.3576 12.7938 26.2036 12.6855 25.9473L7.40464 13.4484C7.26041 13.1069 7.4202 12.713 7.76183 12.5687C8.10328 12.4245 8.49721 12.5843 8.64152 12.9259L13.9223 25.4248C14.0666 25.7664 13.9068 26.1602 13.5652 26.3045C13.48 26.3406 13.3914 26.3576 13.3043 26.3576Z" fill="#D8DCE5"/>
<path d="M1.60293 26.3578C1.51574 26.3578 1.42732 26.3407 1.34189 26.3046C1.00035 26.1604 0.840478 25.7665 0.984706 25.4249L6.26553 12.926C6.40984 12.5844 6.80351 12.4243 7.14522 12.5688C7.48677 12.713 7.64664 13.107 7.50241 13.4485L2.22168 25.9474C2.1134 26.2038 1.86458 26.3578 1.60293 26.3578Z" fill="#D8DCE5"/>
<path d="M9.34651 31.1269H5.56221C2.64582 31.1269 0.259766 28.7408 0.259766 25.8245V25.7106C0.259766 25.4756 0.450312 25.2852 0.685244 25.2852H14.2234C14.4584 25.2852 14.6489 25.4757 14.6489 25.7106V25.8245C14.649 28.7408 12.2629 31.1269 9.34651 31.1269Z" fill="#FFC850"/>
<path d="M7.45421 13.7326C8.27353 13.7326 8.93772 13.0684 8.93772 12.2491C8.93772 11.4298 8.27353 10.7656 7.45421 10.7656C6.63489 10.7656 5.9707 11.4298 5.9707 12.2491C5.9707 13.0684 6.63489 13.7326 7.45421 13.7326Z" fill="#707487"/>
<path d="M2.03516 25.8245V25.7106C2.03516 25.4756 2.2257 25.2852 2.46063 25.2852H0.685244C0.450225 25.2852 0.259766 25.4757 0.259766 25.7106V25.8245C0.259766 28.7408 2.64591 31.1269 5.56221 31.1269H7.3376C4.42121 31.127 2.03516 28.7408 2.03516 25.8245Z" fill="#F9B938"/>
<path d="M7.74618 12.2492C7.74618 11.7633 7.98094 11.3333 8.34199 11.0626C8.09432 10.8769 7.78758 10.7656 7.45421 10.7656C6.63489 10.7656 5.9707 11.4298 5.9707 12.2492C5.9707 13.0685 6.63489 13.7327 7.45421 13.7327C7.78758 13.7327 8.09423 13.6215 8.34199 13.4358C7.98085 13.1651 7.74618 12.7352 7.74618 12.2492Z" fill="#676A77"/>
</g>
<defs>
<clipPath id="clip0_8212_50639">
<rect width="45" height="45" fill="white"/>
</clipPath>
</defs>
</svg>
