<svg width="53" height="40" viewBox="0 0 53 40" fill="none" xmlns="http://www.w3.org/2000/svg">
<path d="M49.9239 39.4577H3.01857C1.61247 39.4577 0.472656 38.3179 0.472656 36.9118V7.13525H52.4696V36.912C52.4699 38.3179 51.3301 39.4577 49.9239 39.4577V39.4577Z" fill="#F1F2F2"/>
<path d="M50.1871 7.13525V34.6301C50.1871 36.036 49.0473 37.1758 47.6414 37.1758H0.73584C0.650954 37.1758 0.56698 37.1714 0.484375 37.1635C0.610792 38.4514 1.69675 39.4577 3.01774 39.4577H49.9231C51.329 39.4577 52.4688 38.3179 52.4688 36.912V7.13525H50.1871Z" fill="#E6E7E8"/>
<path d="M51.3305 7.13525V35.771C51.3305 37.1769 50.1907 38.3167 48.7848 38.3167H1.87926C1.47057 38.3167 1.08447 38.2202 0.742188 38.0491C1.15978 38.8842 2.02302 39.4577 3.02021 39.4577H49.9256C51.3314 39.4577 52.4712 38.3179 52.4712 36.912V7.13525H51.3305Z" fill="#D1D3D4"/>
<path d="M4.18667 13.2845C2.13548 13.2845 0.472656 11.6217 0.472656 9.57047V7.13477H7.90069V9.57047C7.90069 11.6214 6.23787 13.2845 4.18667 13.2845V13.2845Z" fill="#D10028"/>
<path d="M11.6125 13.2845C9.56126 13.2845 7.89844 11.6217 7.89844 9.57047V7.13477H15.3265V9.57047C15.3265 11.6214 13.6637 13.2845 11.6125 13.2845V13.2845Z" fill="#F79219"/>
<path d="M19.0421 13.2845C16.9909 13.2845 15.3281 11.6217 15.3281 9.57047V7.13477H22.7562V9.57047C22.7562 11.6214 21.0933 13.2845 19.0421 13.2845V13.2845Z" fill="#D10028"/>
<path d="M26.4718 13.2845C24.4206 13.2845 22.7578 11.6217 22.7578 9.57047V7.13477H30.1859V9.57047C30.1859 11.6214 28.523 13.2845 26.4718 13.2845V13.2845Z" fill="#F79219"/>
<path d="M33.9015 13.2845C31.8503 13.2845 30.1875 11.6217 30.1875 9.57047V7.13477H37.6155V9.57047C37.6158 11.6214 35.9527 13.2845 33.9015 13.2845V13.2845Z" fill="#D10028"/>
<path d="M41.3273 13.2845C39.2761 13.2845 37.6133 11.6217 37.6133 9.57047V7.13477H45.0413V9.57047C45.0413 11.6214 43.3785 13.2845 41.3273 13.2845V13.2845Z" fill="#F79219"/>
<path d="M48.7531 13.2845C46.7019 13.2845 45.0391 11.6217 45.0391 9.57047V7.13477H52.4671V9.57047C52.4673 11.6214 50.8043 13.2845 48.7531 13.2845V13.2845Z" fill="#D10028"/>
<path d="M10.5901 0.445312H6.01858C5.12248 0.445312 4.33386 0.731919 4.08262 1.14905L0.472656 7.14132H7.90069L10.5901 0.445312Z" fill="#E63950"/>
<path d="M16.6712 0.445312H10.5877L7.89844 7.14132H15.3265L16.6712 0.445312Z" fill="#FFA91A"/>
<path d="M22.7564 0.445312H16.6728L15.3281 7.14132H22.7564V0.445312Z" fill="#E63950"/>
<path d="M22.7578 0.445312H30.1859V7.14109H22.7578V0.445312Z" fill="#FFA91A"/>
<path d="M36.271 0.445312H30.1875V7.14132H37.6158L36.271 0.445312Z" fill="#E63950"/>
<path d="M42.3531 0.445312H36.2695L37.6143 7.14132H45.0423L42.3531 0.445312Z" fill="#FFA91A"/>
<path d="M46.927 0.445312H42.3555L45.0447 7.14109H52.4727L48.8628 1.14905C48.6118 0.732147 47.8231 0.445312 46.927 0.445312V0.445312Z" fill="#E63950"/>
<path d="M46.6925 18.7031H18.1816C17.7124 18.7031 17.332 19.0835 17.332 19.5527V39.4638H47.5426V19.5529C47.5423 19.0835 47.1619 18.7031 46.6925 18.7031V18.7031Z" fill="#7C3108"/>
<path d="M46.6928 18.7031H42.9785V37.1822H17.332V39.4641H47.5425V19.5529C47.5425 19.0835 47.1621 18.7031 46.6928 18.7031V18.7031Z" fill="#6D2E03"/>
<path d="M14.7547 37.8267V22.8449V19.5512C14.7547 19.0821 14.3743 18.7017 13.9052 18.7017H6.2558C5.78664 18.7017 5.40625 19.0821 5.40625 19.5512V39.4624H14.755V37.8267H14.7547Z" fill="#FFA91A"/>
<path d="M5.40625 29.1108H14.755V34.2752H5.40625V29.1108Z" fill="#F79219"/>
<path d="M12.1094 33.7507H13.3313C13.6125 33.7507 13.8404 33.5228 13.8404 33.2417V30.4285C13.8404 30.1474 13.6125 29.9194 13.3313 29.9194H12.1094V33.7507Z" fill="#F1F2F2"/>
<path d="M12.1094 29.9194H12.6185V33.751H12.1094V29.9194Z" fill="#D0D2D3"/>
<path d="M39.1822 28.9717L39.1826 28.9733C39.2162 28.8834 39.2903 28.8111 39.3884 28.7846L41.1622 28.3061C41.3424 28.2575 41.5238 28.3805 41.5455 28.5657L41.6653 29.5933C41.6829 29.7437 41.5875 29.8845 41.4412 29.9237L39.2296 30.5188C39.061 30.5642 38.8839 30.4851 38.8052 30.3292C38.7591 30.2379 38.7529 30.1314 38.7885 30.0353L39.1822 28.9717Z" fill="#478CF7"/>
<path d="M25.6923 28.9717L25.6918 28.9733C25.6583 28.8834 25.5841 28.8111 25.486 28.7846L23.7123 28.3061C23.532 28.2575 23.3506 28.3805 23.3289 28.5657L23.2091 29.5933C23.1915 29.7437 23.2869 29.8845 23.4332 29.9237L25.6448 30.5188C25.8134 30.5642 25.9905 30.4851 26.0692 30.3292C26.1153 30.2379 26.1215 30.1314 26.0859 30.0353L25.6923 28.9717Z" fill="#478CF7"/>
<path d="M26.893 39.4692H24.5554C24.0997 39.4692 23.7305 39.0997 23.7305 38.6443V34.6874C23.7305 34.2317 24.0999 33.8623 24.5554 33.8623H26.893C27.3486 33.8623 27.7181 34.2317 27.7181 34.6874V38.6443C27.7181 39.0997 27.3486 39.4692 26.893 39.4692Z" fill="#808285"/>
<path d="M40.3031 39.4692H37.9655C37.5098 39.4692 37.1406 39.0997 37.1406 38.6443V34.6874C37.1406 34.2317 37.5101 33.8623 37.9655 33.8623H40.3031C40.7588 33.8623 41.128 34.2317 41.128 34.6874V38.6443C41.1282 39.0997 40.7588 39.4692 40.3031 39.4692Z" fill="#808285"/>
<path d="M40.0369 37.5225H24.8269C24.454 37.5225 24.1387 37.2473 24.0878 36.8781L23.4582 32.2988C23.3119 31.2348 24.1387 30.2866 25.2128 30.2866H39.6508C40.7249 30.2866 41.5516 31.235 41.4054 32.2988L40.7758 36.8781C40.7254 37.2473 40.4098 37.5225 40.0369 37.5225Z" fill="#5E9CF7"/>
<path d="M23.7461 34.3535L24.0929 36.8762C24.1436 37.2454 24.4592 37.5206 24.8321 37.5206H40.0421C40.4149 37.5206 40.7303 37.2454 40.7812 36.8762L41.128 34.3535H23.7461Z" fill="#377DE2"/>
<path d="M37.017 26.0259H27.8538C27.3 26.0259 26.8048 26.3716 26.614 26.8914L25.3711 30.2791H39.4997L38.2568 26.8914C38.066 26.3716 37.5708 26.0259 37.017 26.0259Z" fill="#5E9CF7"/>
<path d="M28.4049 33.43H25.049C24.8883 33.43 24.7523 33.3114 24.7309 33.1521L24.6631 32.6501C24.6371 32.4575 24.7868 32.2861 24.9812 32.2861H28.3372C28.4978 32.2861 28.6336 32.4048 28.6553 32.5641L28.723 33.0661C28.7488 33.2589 28.5991 33.43 28.4049 33.43Z" fill="#D1D3D4"/>
<path d="M36.4538 33.43H39.8098C39.9705 33.43 40.1065 33.3114 40.1279 33.1521L40.1957 32.6501C40.2217 32.4575 40.072 32.2861 39.8776 32.2861H36.5216C36.361 32.2861 36.2252 32.4048 36.2035 32.5641L36.1358 33.0661C36.1097 33.2589 36.2597 33.43 36.4538 33.43Z" fill="#D1D3D4"/>
<path d="M38.0944 30.2841H26.7734L27.7243 27.4844C27.8258 27.1859 28.0602 26.9922 28.3199 26.9922H36.548C36.8076 26.9922 37.042 27.1859 37.1435 27.4844L38.0944 30.2841Z" fill="#E6E7E8"/>
</svg>
