<svg width="45" height="45" viewBox="0 0 45 45" fill="none" xmlns="http://www.w3.org/2000/svg">
<path d="M39.6367 11.8652L30.4082 9.22852L27.7715 0H9.31445C7.13011 0 5.35938 1.77073 5.35938 3.95508V41.0449C5.35938 43.2293 7.13011 45 9.31445 45H35.6816C37.866 45 39.6367 43.2293 39.6367 41.0449V11.8652Z" fill="#4086F4"/>
<path d="M39.6387 11.8652V41.0449C39.6387 43.2293 37.8679 45 35.6836 45H22.5V0H27.7734L30.4102 9.22852L39.6387 11.8652Z" fill="#4175DF"/>
<path d="M39.6387 11.8652H30.4102C28.96 11.8652 27.7734 10.6787 27.7734 9.22852V0C28.1162 0 28.459 0.131836 28.6962 0.395596L39.2431 10.9425C39.5068 11.1797 39.6387 11.5225 39.6387 11.8652Z" fill="#80AEF8"/>
<path d="M30.4082 21.1836H14.5879C13.8592 21.1836 13.2695 20.5939 13.2695 19.8652C13.2695 19.1365 13.8592 18.5469 14.5879 18.5469H30.4082C31.1369 18.5469 31.7266 19.1365 31.7266 19.8652C31.7266 20.5939 31.1369 21.1836 30.4082 21.1836Z" fill="#FFF5F5"/>
<path d="M30.4082 26.457H14.5879C13.8592 26.457 13.2695 25.8674 13.2695 25.1387C13.2695 24.41 13.8592 23.8203 14.5879 23.8203H30.4082C31.1369 23.8203 31.7266 24.41 31.7266 25.1387C31.7266 25.8674 31.1369 26.457 30.4082 26.457Z" fill="#FFF5F5"/>
<path d="M30.4082 31.7305H14.5879C13.8592 31.7305 13.2695 31.1408 13.2695 30.4121C13.2695 29.6834 13.8592 29.0938 14.5879 29.0938H30.4082C31.1369 29.0938 31.7266 29.6834 31.7266 30.4121C31.7266 31.1408 31.1369 31.7305 30.4082 31.7305Z" fill="#FFF5F5"/>
<path d="M25.1348 37.0039H14.5879C13.8592 37.0039 13.2695 36.4142 13.2695 35.6855C13.2695 34.9568 13.8592 34.3672 14.5879 34.3672H25.1348C25.8635 34.3672 26.4531 34.9568 26.4531 35.6855C26.4531 36.4142 25.8635 37.0039 25.1348 37.0039Z" fill="#FFF5F5"/>
<path d="M22.5 37.0039H25.1367C25.8654 37.0039 26.4551 36.4142 26.4551 35.6855C26.4551 34.9568 25.8654 34.3672 25.1367 34.3672H22.5V37.0039Z" fill="#E3E7EA"/>
<path d="M22.5 31.7305H30.4102C31.1389 31.7305 31.7285 31.1408 31.7285 30.4121C31.7285 29.6834 31.1389 29.0938 30.4102 29.0938H22.5V31.7305Z" fill="#E3E7EA"/>
<path d="M22.5 26.457H30.4102C31.1389 26.457 31.7285 25.8674 31.7285 25.1387C31.7285 24.41 31.1389 23.8203 30.4102 23.8203H22.5V26.457Z" fill="#E3E7EA"/>
<path d="M22.5 21.1836H30.4102C31.1389 21.1836 31.7285 20.5939 31.7285 19.8652C31.7285 19.1365 31.1389 18.5469 30.4102 18.5469H22.5V21.1836Z" fill="#E3E7EA"/>
</svg>
