<svg xmlns="http://www.w3.org/2000/svg" width="38.333" height="40" viewBox="0 0 38.333 40">
  <g id="Group_15774" data-name="Group 15774" transform="translate(-44 -1040)">
    <path id="Path_44590" data-name="Path 44590" d="M21.333,0a8.333,8.333,0,1,0,8.333,8.333A8.343,8.343,0,0,0,21.333,0Z" transform="translate(52.667 1040)" fill="#f44336"/>
    <path id="Path_44591" data-name="Path 44591" d="M21.333,0a8.333,8.333,0,0,0,0,16.667Z" transform="translate(52.667 1040)" fill="#d43a2f"/>
    <path id="Path_44592" data-name="Path 44592" d="M19.333,22.667A6.667,6.667,0,1,1,12.667,16,6.667,6.667,0,0,1,19.333,22.667Z" transform="translate(48 1050.667)" fill="#ffa000"/>
    <path id="Path_44593" data-name="Path 44593" d="M28.347,18.535A11.635,11.635,0,0,1,19.323,2.317,11.628,11.628,0,0,0,5,13.667v4.647a11.176,11.176,0,0,1-3.98,8.555A2.916,2.916,0,0,0,2.917,32h27.5A2.918,2.918,0,0,0,32.3,26.853,11.149,11.149,0,0,1,28.347,18.535Z" transform="translate(44 1041.333)" fill="#ffc107"/>
    <path id="Path_44594" data-name="Path 44594" d="M12.458,20H6a6.667,6.667,0,0,0,6.458,6.663Z" transform="translate(48 1053.333)" fill="#de8b00"/>
    <path id="Path_44595" data-name="Path 44595" d="M16.458,2A11.681,11.681,0,0,0,5,13.666v4.647a11.176,11.176,0,0,1-3.98,8.555A2.916,2.916,0,0,0,2.917,32H16.458Z" transform="translate(44 1041.334)" fill="#dea806"/>
  </g>
</svg>
