<svg width="45" height="45" viewBox="0 0 45 45" fill="none" xmlns="http://www.w3.org/2000/svg">
<g clip-path="url(#clip0_11731_57228)">
<path d="M29.6046 4.81695C29.5316 4.76123 28.8552 4.25805 27.6503 3.77386C26.0981 3.15002 24.317 2.82025 22.4996 2.82025C20.6823 2.82025 18.9013 3.15002 17.3489 3.77386C16.1441 4.25805 15.4677 4.76123 15.3946 4.81704C15.0277 5.09679 14.8124 5.53177 14.8124 5.9931V8.3135L16.2913 9.10452L17.7703 8.3135V6.83061C18.582 6.41638 20.2052 5.77812 22.4996 5.77812C24.794 5.77812 26.4171 6.41638 27.2288 6.83061V8.31342L28.7077 9.10443L30.1867 8.31342V5.9931C30.1869 5.53168 29.9716 5.09671 29.6046 4.81695Z" fill="#E8834D"/>
<path d="M14.8125 8.31348V9.94648L16.2915 10.7375L17.7705 9.94648V8.31348H14.8125Z" fill="#D66E41"/>
<path d="M30.187 8.31348H27.229V9.94648L28.708 10.7375L30.187 9.94648V8.31348Z" fill="#D66E41"/>
<path d="M1.16431 26.2166V39.3555C1.16431 40.9153 2.42879 42.1798 3.98858 42.1798H41.0115C42.5712 42.1798 43.8357 40.9153 43.8357 39.3555V26.2166H1.16431Z" fill="#365E7D"/>
<path d="M1.16431 24.5835V26.2166C3.51063 28.0795 9.71185 31.696 22.5 31.696C35.2882 31.696 41.4894 28.0796 43.8357 26.2165V24.5834H1.16431V24.5835Z" fill="#2B4D66"/>
<path d="M1.04168 23.6431C3.29036 25.4738 9.48296 29.2209 22.5 29.2209C35.517 29.2209 41.7096 25.4738 43.9583 23.6431C44.6175 23.1064 45 21.5112 45 20.6612V12.7708C45 11.211 43.7355 9.94653 42.1757 9.94653H2.82428C1.26448 9.94653 0 11.211 0 12.7708V20.6612C0 21.5112 0.3825 23.1064 1.04168 23.6431Z" fill="#407093"/>
<path d="M43.9583 22.852C41.7096 24.6828 35.517 28.4299 22.5 28.4299C9.48296 28.4299 3.29045 24.6827 1.04168 22.852C0.3825 22.3154 0 21.5112 0 20.6612V22.2943C0 23.1443 0.3825 23.9485 1.04168 24.4851C3.29036 26.3159 9.48296 30.063 22.5 30.063C35.517 30.063 41.7096 26.3159 43.9583 24.4851C44.6175 23.9485 45 23.1443 45 22.2943V20.6612C45 21.5112 44.6175 22.3154 43.9583 22.852Z" fill="#365E7D"/>
<path d="M22.4998 32.7809C23.9608 32.7809 25.1453 31.696 25.1453 29.3444V27.7404C25.1453 27.2204 24.7237 26.799 24.2039 26.799H20.7956C20.2757 26.799 19.8542 27.2205 19.8542 27.7404V29.3447C19.8542 31.696 21.0387 32.7809 22.4998 32.7809Z" fill="#FFE27A"/>
<path d="M22.4998 31.9899C21.0387 31.9899 19.8542 30.8055 19.8542 29.3444V30.9775C19.8542 32.4386 21.0387 33.623 22.4998 33.623C23.9608 33.623 25.1453 32.4386 25.1453 30.9775V29.3444C25.1453 30.8054 23.9608 31.9899 22.4998 31.9899Z" fill="#F9CF58"/>
</g>
<defs>
<clipPath id="clip0_11731_57228">
<rect width="45" height="45" fill="white"/>
</clipPath>
</defs>
</svg>
