<svg width="45" height="45" viewBox="0 0 45 45" fill="none" xmlns="http://www.w3.org/2000/svg">
<g clip-path="url(#clip0_7813_47424)">
<path d="M45 32.5125V39.5809C45.0018 40.2754 44.8667 40.9635 44.6025 41.6059C44.3382 42.2482 43.9501 42.8322 43.4601 43.3245C42.9701 43.8167 42.3879 44.2077 41.7469 44.4749C41.1058 44.7421 40.4183 44.8804 39.7238 44.8819C29.5448 44.8819 19.6144 40.0703 12.2276 32.7128C4.84088 25.3553 0 15.4553 0 5.27627C0.00147551 4.58172 0.139777 3.89425 0.407004 3.25316C0.674231 2.61207 1.06515 2.02991 1.55742 1.53993C2.04969 1.04996 2.63368 0.661774 3.27601 0.397551C3.91835 0.133327 4.60645 -0.00175764 5.301 1.72659e-05H12.3694C12.74 -0.000262361 13.1013 0.116202 13.402 0.332886C13.7027 0.54957 13.9275 0.855462 14.0445 1.20714L17.5781 11.7821C17.6635 12.0375 17.6894 12.309 17.6539 12.5759C17.6185 12.8428 17.5225 13.0981 17.3734 13.3223L14.3764 17.8223C15.7846 20.5331 17.6316 22.9922 19.8428 25.0999C21.9853 27.2805 24.4618 29.1056 27.1789 30.5066L31.6789 27.5096C31.9031 27.3606 32.1584 27.2647 32.4253 27.2292C32.6922 27.1937 32.9636 27.2196 33.219 27.3049L43.821 30.8385C44.1691 30.9573 44.4707 31.1832 44.6825 31.4839C44.8943 31.7847 45.0054 32.1447 45 32.5125Z" fill="#FF641A"/>
<path d="M44.9989 32.5145V39.5828C45.0007 40.2774 44.8656 40.9655 44.6014 41.6078C44.3372 42.2502 43.949 42.8342 43.459 43.3264C42.969 43.8187 42.3869 44.2096 41.7458 44.4768C41.1047 44.7441 40.4172 44.8824 39.7227 44.8839C29.5437 44.8839 19.6133 40.0722 12.2266 32.7147L19.8417 25.0996C21.9842 27.2802 24.4607 29.1054 27.1778 30.5064L31.6778 27.5094C31.902 27.3603 32.1573 27.2644 32.4242 27.2289C32.6911 27.1934 32.9626 27.2193 33.2179 27.3046L43.8199 30.8382C44.1684 30.9571 44.4703 31.1834 44.6821 31.4846C44.8939 31.7858 45.0049 32.1463 44.9989 32.5145Z" fill="#F03800"/>
</g>
<defs>
<clipPath id="clip0_7813_47424">
<rect width="45" height="44.8819" fill="white"/>
</clipPath>
</defs>
</svg>
