<svg width="45" height="45" viewBox="0 0 45 45" fill="none" xmlns="http://www.w3.org/2000/svg">
<path d="M41.1049 6.50434L38.6113 3.82148C38.555 3.76093 38.4761 3.72656 38.3935 3.72656H20.3601C19.5448 5.39921 19.0079 7.38589 20.3601 9.68704H24.7448C24.8236 9.68704 24.8993 9.65575 24.955 9.59994L26.1262 8.42871C26.2423 8.31261 26.4306 8.31261 26.5468 8.42871L27.5949 9.4768C27.711 9.59291 27.8989 9.59326 28.015 9.47716C28.2941 9.19802 28.7846 8.7075 29.0638 8.42836C29.1799 8.31225 29.3678 8.31261 29.4839 8.42871L30.532 9.4768C30.6481 9.59291 30.836 9.59326 30.9521 9.47716C31.2313 9.19802 31.7218 8.7075 32.0009 8.42836C32.117 8.31225 32.3049 8.31261 32.421 8.42871L33.4691 9.4768C33.5852 9.59291 33.7731 9.59326 33.8892 9.47716C34.1684 9.19802 34.6589 8.7075 34.938 8.42836C35.0541 8.31225 35.2421 8.31261 35.3582 8.42871L36.5294 9.59994C36.5851 9.65575 36.6608 9.68704 36.7396 9.68704H38.3933C38.4759 9.68704 38.5548 9.65267 38.6111 9.59212L41.1047 6.90926C41.211 6.79517 41.211 6.61851 41.1049 6.50434Z" fill="#9BB9C1"/>
<path d="M34.9881 6.75652H19.9193C19.5442 6.75652 19.2402 6.45251 19.2402 6.07748C19.2402 5.70236 19.5442 5.39844 19.9193 5.39844H34.9881C35.3632 5.39844 35.6672 5.70245 35.6672 6.07748C35.6672 6.45251 35.3632 6.75652 34.9881 6.75652Z" fill="#86A0AF"/>
<path d="M8.06484 26.5029C8.30583 26.3978 9.19599 26.9543 9.45228 26.8813L9.20293 24.8535C9.01186 23.821 8.10685 23.0391 7.01903 23.0391H5.06592C4.31111 23.0391 3.69922 23.651 3.69922 24.4058C3.69922 25.564 4.63815 26.5029 5.79638 26.5029H8.06484Z" fill="#3342AA"/>
<path d="M36.9349 26.503C36.6939 26.3979 35.727 27.0503 35.4707 26.9772L35.7968 24.8535C35.9879 23.821 36.8929 23.0391 37.9807 23.0391H39.9338C40.6886 23.0391 41.3005 23.651 41.3005 24.4058C41.3005 25.564 40.3616 26.5029 39.2033 26.5029H36.9349V26.503Z" fill="#3342AA"/>
<path d="M10.4572 26.0074H34.5412C35.1123 26.0074 35.6647 26.0873 36.1879 26.2365L34.1028 18.8782C33.5909 17.0714 31.9413 15.8242 30.0633 15.8242H14.9352C13.0572 15.8242 11.4076 17.0713 10.8956 18.8782L8.81055 26.2365C9.33376 26.0873 9.88615 26.0074 10.4572 26.0074Z" fill="#5766CB"/>
<path d="M34.1029 18.8782C33.591 17.0714 31.9413 15.8242 30.0634 15.8242H29.8956C30.1529 16.1962 30.3528 16.6141 30.4812 17.0673L32.0798 22.7089C32.2933 23.4625 31.72 24.1987 30.9368 24.1965C30.931 24.1965 30.9253 24.1965 30.9196 24.1965H9.3886L8.81055 26.2365C9.33376 26.0873 9.88615 27.0554 10.4572 27.0554H34.5412C35.1123 27.0554 35.6647 26.0873 36.1879 26.2365L34.1029 18.8782Z" fill="#3D4FC3"/>
<path d="M33.1886 26.0072L31.3453 19.502C31.2022 18.997 30.7411 18.6484 30.2163 18.6484H14.7848C14.2599 18.6484 13.7988 18.997 13.6557 19.502L11.8125 26.0072H33.1886Z" fill="#CBE2FF"/>
<path d="M31.3454 19.499C31.286 19.2894 31.1718 19.1068 31.0211 18.9648L32.0811 22.7056C32.2946 23.4592 31.7213 24.1954 30.938 24.1932C30.9323 24.1932 30.9266 24.1932 30.9209 24.1932H12.3257L11.5938 26.7763L33.1887 26.004L31.3454 19.499Z" fill="#BED8FB"/>
<path d="M6.61346 40.702C6.43144 40.702 6.25469 40.6793 6.08594 40.6367V43.7524C6.08594 44.4406 6.64387 44.9986 7.33205 44.9986H11.9192C12.6074 44.9986 13.1654 44.4406 13.1654 43.7524V40.7021H6.61346V40.702Z" fill="#407093"/>
<path d="M6.61346 40.702C6.43144 40.702 6.25469 40.6793 6.08594 40.6367V43.353C6.25469 43.3956 6.43144 43.4183 6.61346 43.4183H13.1653V40.702H6.61346Z" fill="#365E7D"/>
<path d="M9.10817 44.9997H7.75V40.7031H9.10817V44.9997ZM11.5017 40.7031H10.1435V44.9997H11.5017V40.7031Z" fill="#365E7D"/>
<path d="M7.75 43.4194V40.7031H9.10817V43.4194H7.75ZM11.5017 43.4194V40.7031H10.1435V43.4194H11.5017Z" fill="#2B4D66"/>
<path d="M38.3859 40.702C38.5679 40.702 38.7446 40.6793 38.9134 40.6367V43.7524C38.9134 44.4406 38.3555 44.9986 37.6673 44.9986H33.0801C32.3919 44.9986 31.834 44.4406 31.834 43.7524V40.7021H38.3859V40.702Z" fill="#407093"/>
<path d="M38.3858 40.702C38.5678 40.702 38.7446 40.6793 38.9133 40.6367V43.353C38.7446 43.3956 38.5678 43.4183 38.3858 43.4183H31.834V40.702H38.3858Z" fill="#365E7D"/>
<path d="M35.8916 40.7031H37.2497V44.9997H35.8916V40.7031ZM33.498 44.9997H34.8562V40.7031H33.498V44.9997Z" fill="#365E7D"/>
<path d="M35.8917 43.4194V40.7031H37.2498V43.4194H35.8917ZM34.8562 43.4194V40.7031H33.498V43.4194H34.8562Z" fill="#2B4D66"/>
<path d="M40.5331 39.4606V31.995C40.5331 28.6862 37.8507 26.0039 34.542 26.0039H10.4579C7.14904 26.0039 4.4668 28.6862 4.4668 31.995V39.4606C4.4668 40.646 5.42779 41.607 6.61326 41.607H38.3864C39.572 41.607 40.5331 40.646 40.5331 39.4606Z" fill="#5766CB"/>
<path d="M35.2514 26.0469C36.2792 27.1225 36.9106 28.5802 36.9106 30.1854V35.1595C36.9106 37.7209 34.8341 39.7975 32.2726 39.7975H4.49219C4.65329 40.8235 5.54125 41.6084 6.61255 41.6084H38.3857C39.5712 41.6084 40.5322 40.6474 40.5322 39.4618V31.9962C40.5323 28.9278 38.2254 26.3982 35.2514 26.0469Z" fill="#3D4FC3"/>
<path d="M18.9428 0.942539C18.5097 0.350156 17.82 0 17.0862 0H8.52726C7.79346 0 7.10369 0.350156 6.67065 0.942539L4.91355 3.34582C3.45069 5.34665 3.45069 8.06414 4.91355 10.065L6.67065 12.4683C7.10369 13.0607 7.79346 13.4109 8.52726 13.4109H17.0862C17.82 13.4109 18.5097 13.0607 18.9428 12.4683C21.4521 9.03612 21.4521 4.37476 18.9428 0.942539ZM8.34084 9.7258C8.34084 10.1021 7.85973 10.2593 7.63754 9.95546L6.74088 8.72903C5.85978 7.52379 5.85978 5.887 6.74088 4.68185L7.63745 3.45542C7.85955 3.15158 8.34075 3.30873 8.34075 3.68508V9.7258H8.34084Z" fill="#407093"/>
<path d="M18.9422 0.942539C18.509 0.350156 17.8194 0 17.0856 0H15.8874C17.8128 3.32051 17.6238 7.50683 15.3204 10.6574C14.8874 11.2498 14.1976 11.6 13.4638 11.6H6.03516L6.66999 12.4683C7.10303 13.0607 7.79279 13.4109 8.52659 13.4109H17.0856C17.8194 13.4109 18.509 13.0607 18.9422 12.4683C21.4514 9.03612 21.4514 4.37476 18.9422 0.942539Z" fill="#365E7D"/>
<path d="M16.4055 2.26172H14.2788L13.4297 6.40005L14.2788 11.1454H16.4055C16.7811 11.1454 17.0856 10.8409 17.0856 10.4653V2.9419C17.0856 2.56617 16.7811 2.26172 16.4055 2.26172Z" fill="#DD636E"/>
<path d="M11.2836 2.26172C10.908 2.26172 10.6035 2.56626 10.6035 2.94182V10.4653C10.6035 10.8409 10.908 11.1454 11.2836 11.1454H14.2785V2.26172H11.2836Z" fill="#D0E2E7"/>
<path d="M10.6035 7.38552H14.2785V6.02734H10.6035V7.38552Z" fill="#B4D0D5"/>
<path d="M17.0856 6.40234C16.8509 7.90738 16.2626 9.36927 15.3205 10.6579C15.1822 10.8471 15.0177 11.0115 14.834 11.1477H16.4055C16.7811 11.1477 17.0856 10.8432 17.0856 10.4676V6.40234Z" fill="#DA4A54"/>
<path d="M17.0856 3.3886V2.94511C17.0856 2.76353 17.0144 2.59855 16.8984 2.47656C16.9754 2.77803 17.0378 3.08239 17.0856 3.3886Z" fill="#DA4A54"/>
<path d="M16.9844 36.5586H28.0154V41.6092H16.9844V36.5586Z" fill="#9BB9C1"/>
<path d="M16.9844 39.7969H28.0154V41.6078H16.9844V39.7969Z" fill="#86A0AF"/>
<path d="M27.4158 34.0315H17.5836C17.3323 34.0315 17.105 33.882 17.0055 33.6512L15.5033 30.1679C15.3241 29.7523 15.6288 29.2891 16.0814 29.2891H28.918C29.3705 29.2891 29.6752 29.7523 29.496 30.1679L27.9938 33.6512C27.8944 33.882 27.6671 34.0315 27.4158 34.0315Z" fill="#407093"/>
<path d="M16.9845 39.0512H8.6027C8.10419 39.0512 7.67062 38.7094 7.55426 38.2246L7.27512 37.0616C7.21359 36.8051 7.40792 36.5586 7.67168 36.5586H16.9846V39.0512H16.9845Z" fill="#407093"/>
<path d="M28.0157 39.0512H36.3975C36.896 39.0512 37.3296 38.7094 37.4459 38.2246L37.7251 37.0616C37.7866 36.8051 37.5923 36.5586 37.3285 36.5586H28.0156V39.0512H28.0157Z" fill="#407093"/>
<path d="M37.3282 36.5586H36.6968C36.3701 37.5933 35.6903 38.4713 34.7988 39.0512H36.3972C36.8957 39.0512 37.3293 38.7094 37.4457 38.2246L37.7248 37.0617C37.7863 36.8051 37.592 36.5586 37.3282 36.5586Z" fill="#365E7D"/>
<path d="M14.2904 33.1368L12.9441 30.015C12.7541 29.5744 12.3202 29.2891 11.8405 29.2891H9.18218C8.43572 29.2891 7.73251 29.6818 7.37752 30.3384C7.1106 30.8322 6.95898 31.3969 6.95898 31.9966V32.7925C6.95898 33.4769 7.51375 34.0316 8.19815 34.0316H13.7019C14.1626 34.0316 14.4728 33.5599 14.2904 33.1368Z" fill="#FFF9E2"/>
<path d="M30.7093 33.1368L32.0557 30.015C32.2457 29.5744 32.6795 29.2891 33.1592 29.2891H35.8176C36.564 29.2891 37.2672 29.6818 37.6222 30.3384C37.8891 30.8322 38.0408 31.3969 38.0408 31.9966V32.7925C38.0408 33.4769 37.486 34.0316 36.8016 34.0316H31.2979C30.8371 34.0316 30.5269 33.5599 30.7093 33.1368Z" fill="#FFF9E2"/>
<path d="M36.8809 29.5781C36.9011 29.7786 36.9115 29.982 36.9115 30.1878V34.0288C37.5443 33.973 38.0404 33.4417 38.0404 32.7945V31.9986C38.0404 31.399 37.8888 30.8342 37.6218 30.3404C37.447 30.0172 37.1879 29.758 36.8809 29.5781Z" fill="#FBF4C6"/>
<path d="M24.0228 32.2487H20.9779C20.6028 32.2487 20.2988 31.9447 20.2988 31.5697C20.2988 31.1946 20.6028 30.8906 20.9779 30.8906H24.0228C24.3978 30.8906 24.7018 31.1946 24.7018 31.5697C24.7018 31.9447 24.3978 32.2487 24.0228 32.2487Z" fill="#DFEAEF"/>
</svg>
