<svg width="52" height="52" viewBox="0 0 52 52" fill="none" xmlns="http://www.w3.org/2000/svg">
<g clip-path="url(#clip0_11742_57675)">
<path d="M2.45874 17.2546H49.5413V46.625H2.45874V17.2546Z" fill="#C8EFFE"/>
<path d="M31.3684 17.2546H48.8811V21.622H31.3684V17.2546Z" fill="#554E6F"/>
<path d="M31.47 17.3562H34.9979V21.6219H31.47V17.3562Z" fill="#433F5C"/>
<path d="M2.45874 17.3562H5.9922V46.5233H2.45874V17.3562Z" fill="#99E6FC"/>
<path d="M36.7767 30.9339V35.7467C36.7767 36.0357 37.0109 36.2699 37.2999 36.2699H42.9498C43.2387 36.2699 43.4729 36.0357 43.4729 35.7467V30.9339C43.4729 30.6449 43.2387 30.4107 42.9498 30.4107H37.2999C37.0109 30.4107 36.7767 30.6449 36.7767 30.9339Z" fill="#CBC4E5"/>
<path d="M5.17908 23.6339V28.5514C5.17908 28.7248 5.31964 28.8654 5.49301 28.8654H8.84102C9.01438 28.8654 9.15494 28.7248 9.15494 28.5514V23.6339C9.15494 23.4605 9.01438 23.3199 8.84102 23.3199H5.49301C5.31964 23.3199 5.17908 23.4605 5.17908 23.6339Z" fill="#FD5426"/>
<path d="M6.60154 28.5513V23.6339C6.60154 23.4605 6.7421 23.3199 6.91547 23.3199H5.49288C5.31952 23.3199 5.17896 23.4605 5.17896 23.6339V28.5513C5.17896 28.7247 5.31952 28.8653 5.49288 28.8653H6.91537C6.7421 28.8653 6.60154 28.7247 6.60154 28.5513Z" fill="#EF4424"/>
<path d="M24.7262 38.1875L23.7875 35.4864C23.4144 34.4129 22.4026 33.6933 21.2661 33.6933H11.7964C10.6599 33.6933 9.64806 34.4129 9.27502 35.4864L8.33618 38.1875H24.7262Z" fill="white"/>
<path d="M9.14272 38.1875L9.99442 35.7365C10.2608 34.97 10.985 34.455 11.7963 34.455H21.266C22.0774 34.455 22.8016 34.97 23.068 35.7364L23.9198 38.1875H25.5326L24.5069 35.2363C24.0279 33.8578 22.7255 32.9316 21.266 32.9316H11.7963C10.337 32.9316 9.03466 33.8578 8.55549 35.2363L7.52991 38.1875H9.14272Z" fill="#FCDD66"/>
<path d="M18.7339 38.1875C18.7339 38.184 18.7344 38.1807 18.7344 38.1771C18.7344 37.5667 19.2309 37.0703 19.8412 37.0703C20.4515 37.0703 20.9479 37.5668 20.9479 38.1771C20.9479 38.1806 20.9484 38.1839 20.9484 38.1875H22.4709C22.4709 38.184 22.4714 38.1807 22.4714 38.1771C22.4714 36.7268 21.2915 35.5468 19.8412 35.5468C18.3909 35.5468 17.2109 36.7268 17.2109 38.1771C17.2109 38.1806 17.2114 38.1839 17.2114 38.1875H18.7339Z" fill="#554E6F"/>
<path d="M5.48075 43.3081L5.13269 43.4097V46.6249H8.75685V43.3081H5.48075Z" fill="#554E6F"/>
<path d="M5.13269 43.4097H7.24306V46.5233H5.13269V43.4097Z" fill="#433F5C"/>
<path d="M27.5817 43.3081H24.3055V46.6249H27.9297V43.4097L27.5817 43.3081Z" fill="#554E6F"/>
<path d="M24.3055 43.4097H26.4384V46.5233H24.3055V43.4097Z" fill="#433F5C"/>
<path d="M27.9297 43.4097H5.13269V39.6093C5.13269 38.768 5.81478 38.0859 6.65613 38.0859H26.4063C27.2476 38.0859 27.9297 38.768 27.9297 39.6093V43.4097Z" fill="#FFEE9A"/>
<path d="M8.78894 38.0859H6.65613C5.81478 38.0859 5.13269 38.768 5.13269 39.6093V43.4097H7.2655V39.6093C7.2655 38.768 7.9476 38.0859 8.78894 38.0859Z" fill="#FCDD66"/>
<path d="M18.2577 41.7156H14.8049C14.3842 41.7156 14.0432 41.3747 14.0432 40.9539C14.0432 40.5331 14.3842 40.1922 14.8049 40.1922H18.2577C18.6784 40.1922 19.0194 40.5331 19.0194 40.9539C19.0194 41.3747 18.6783 41.7156 18.2577 41.7156Z" fill="white"/>
<path d="M29.9465 17.2546H31.47V46.625H29.9465V17.2546Z" fill="#B5ADCF"/>
<path d="M20.53 17.2546H22.0535V46.625H20.53V17.2546Z" fill="#99E6FC"/>
<path d="M11.1136 17.2546H12.6371V46.625H11.1136V17.2546Z" fill="#99E6FC"/>
<path d="M39.363 17.2546H40.8865V46.625H39.363V17.2546Z" fill="#B5ADCF"/>
<path d="M48.7795 17.2546H50.303V46.625H48.7795V17.2546Z" fill="#B5ADCF"/>
<path d="M1.69702 17.2546H3.22046V46.625H1.69702V17.2546Z" fill="#B5ADCF"/>
<path d="M51.4769 49.3483H0.523148C0.234203 49.3483 0 49.1141 0 48.8251V47.0465C0 46.7575 0.234203 46.5233 0.523148 46.5233H51.4769C51.7658 46.5233 52 46.7575 52 47.0465V48.8251C52 49.1141 51.7658 49.3483 51.4769 49.3483Z" fill="#FD5426"/>
<path d="M5.28369 48.8251V47.0465C5.28369 46.7575 5.51789 46.5233 5.80684 46.5233H0.523148C0.234203 46.5233 0 46.7575 0 47.0465V48.8251C0 49.1141 0.234203 49.3483 0.523148 49.3483H5.80684C5.51789 49.3483 5.28369 49.1141 5.28369 48.8251Z" fill="#EF4424"/>
<path d="M12.2976 4.06848H4.02823C3.45034 4.06848 2.98193 4.53689 2.98193 5.11478V7.72737H11.0382L12.2976 4.06848Z" fill="#554E6F"/>
<path d="M47.9718 4.06848H41.2357L39.9763 7.72737H49.018V5.11478C49.0181 4.53689 48.5497 4.06848 47.9718 4.06848Z" fill="#554E6F"/>
<path d="M6.12082 7.62581V5.11478C6.12082 4.53689 6.58923 4.06848 7.16712 4.06848H4.02823C3.45034 4.06848 2.98193 4.53689 2.98193 5.11478V7.62581H6.12082Z" fill="#433F5C"/>
<path d="M50.4306 7.62579H40.0113L39.3658 9.50104C39.2963 9.70275 39.1063 9.83833 38.8931 9.83833H11.0125C10.849 9.83833 10.7006 9.76196 10.6056 9.62871C10.5104 9.49546 10.4864 9.33032 10.5398 9.17554L11.0732 7.62579H1.56945C0.702609 7.62579 0 8.3285 0 9.19524V16.833C0 17.122 0.234203 17.3562 0.523148 17.3562H51.4769C51.7658 17.3562 52 17.122 52 16.833V9.19524C52 8.3285 51.2974 7.62579 50.4306 7.62579Z" fill="#CBC4E5"/>
<path d="M5.28369 16.833V9.19524C5.28369 8.3285 5.9863 7.62579 6.85313 7.62579H1.56945C0.702609 7.62579 0 8.3285 0 9.19524V16.833C0 17.122 0.234203 17.3562 0.523148 17.3562H5.80684C5.51789 17.3562 5.28369 17.122 5.28369 16.833Z" fill="#B5ADCF"/>
<path d="M38.893 9.93991H11.0125C10.5994 9.93991 10.3092 9.53315 10.4436 9.14254L12.5381 3.05742C12.6216 2.81459 12.8501 2.65158 13.1069 2.65158H40.9874C41.4005 2.65158 41.6908 3.05834 41.5563 3.44895L39.4619 9.53407C39.3783 9.7769 39.1498 9.93991 38.893 9.93991Z" fill="#FD5426"/>
<path d="M14.838 9.14255L16.9325 3.05754C17.0161 2.8147 17.2445 2.65179 17.5013 2.65179H13.1069C12.8502 2.65179 12.6216 2.8148 12.5381 3.05754L10.4436 9.14255C10.3092 9.53316 10.5994 9.93992 11.0125 9.93992H15.4069C14.9937 9.93992 14.7036 9.53306 14.838 9.14255Z" fill="#EF4424"/>
<path d="M34.9343 7.05746H17.0658C16.645 7.05746 16.3041 6.71652 16.3041 6.29575C16.3041 5.87497 16.645 5.53403 17.0658 5.53403H34.9343C35.3551 5.53403 35.696 5.87497 35.696 6.29575C35.696 6.71652 35.355 7.05746 34.9343 7.05746Z" fill="white"/>
<path d="M48.3904 12.6772H43.8914C43.4706 12.6772 43.1296 12.3363 43.1296 11.9155C43.1296 11.4947 43.4706 11.1538 43.8914 11.1538H48.3904C48.8111 11.1538 49.1521 11.4947 49.1521 11.9155C49.1521 12.3363 48.8111 12.6772 48.3904 12.6772Z" fill="#554E6F"/>
</g>
<defs>
<clipPath id="clip0_11742_57675">
<rect width="52" height="52" fill="white"/>
</clipPath>
</defs>
</svg>
