<svg width="45" height="45" viewBox="0 0 45 45" fill="none" xmlns="http://www.w3.org/2000/svg">
<g clip-path="url(#clip0_7688_50046)">
<path d="M24.6094 0H4.83398C2.16853 0 0 2.16853 0 4.83398V40.166C0 42.8315 2.16853 45 4.83398 45H29.4434C32.1088 45 34.2773 42.8315 34.2773 40.166V9.66797L24.6094 0Z" fill="#EDF2F2"/>
<path d="M24.6113 0H17.1406V45H29.4453C32.1108 45 34.2793 42.8315 34.2793 40.166V9.66797L24.6113 0Z" fill="#C9DCDC"/>
<path d="M24.6094 0V8.34961C24.6094 9.07769 25.1996 9.66797 25.9277 9.66797H34.2773L24.6094 0Z" fill="#A5BFBF"/>
<path d="M21.5332 16.6992H6.5918C5.86371 16.6992 5.27344 16.1089 5.27344 15.3809C5.27344 14.6528 5.86371 14.0625 6.5918 14.0625H21.5332C22.2613 14.0625 22.8516 14.6528 22.8516 15.3809C22.8516 16.1089 22.2613 16.6992 21.5332 16.6992Z" fill="#646E6E"/>
<path d="M18.0176 21.9727H6.5918C5.86371 21.9727 5.27344 21.3824 5.27344 20.6543C5.27344 19.9262 5.86371 19.3359 6.5918 19.3359H18.0176C18.7457 19.3359 19.3359 19.9262 19.3359 20.6543C19.3359 21.3824 18.7457 21.9727 18.0176 21.9727Z" fill="#646E6E"/>
<path d="M18.0176 27.2461H6.5918C5.86371 27.2461 5.27344 26.6558 5.27344 25.9277C5.27344 25.1996 5.86371 24.6094 6.5918 24.6094H18.0176C18.7457 24.6094 19.3359 25.1996 19.3359 25.9277C19.3359 26.6558 18.7457 27.2461 18.0176 27.2461Z" fill="#646E6E"/>
<path d="M18.0176 32.5195H6.5918C5.86371 32.5195 5.27344 31.9293 5.27344 31.2012C5.27344 30.4731 5.86371 29.8828 6.5918 29.8828H18.0176C18.7457 29.8828 19.3359 30.4731 19.3359 31.2012C19.3359 31.9293 18.7457 32.5195 18.0176 32.5195Z" fill="#646E6E"/>
<path d="M21.5352 14.0625H17.1406V16.6992H21.5352C22.2632 16.6992 22.8535 16.1089 22.8535 15.3809C22.8535 14.6528 22.2632 14.0625 21.5352 14.0625Z" fill="#3C4646"/>
<path d="M18.0195 21.9727C18.7476 21.9727 19.3379 21.3824 19.3379 20.6543C19.3379 19.9262 18.7476 19.3359 18.0195 19.3359H17.1406V21.9727H18.0195Z" fill="#3C4646"/>
<path d="M18.0195 27.2461C18.7476 27.2461 19.3379 26.6558 19.3379 25.9277C19.3379 25.1996 18.7476 24.6094 18.0195 24.6094H17.1406V27.2461H18.0195Z" fill="#3C4646"/>
<path d="M18.0195 32.5195C18.7476 32.5195 19.3379 31.9293 19.3379 31.2012C19.3379 30.4731 18.7476 29.8828 18.0195 29.8828H17.1406V32.5195H18.0195Z" fill="#3C4646"/>
<path d="M44.6141 37.1677L38.0191 30.5727C39.1743 29.0315 39.8594 27.1187 39.8594 25.0488C39.8594 19.9602 35.7195 15.8203 30.6309 15.8203C25.5423 15.8203 21.4023 19.9602 21.4023 25.0488C21.4023 30.1374 25.5423 34.2773 30.6309 34.2773C32.7008 34.2773 34.6136 33.5923 36.1548 32.4371L42.7497 39.032C43.0072 39.2895 43.3446 39.4182 43.6819 39.4182C44.0192 39.4182 44.3567 39.2895 44.6141 39.032C45.1289 38.5173 45.1289 37.6826 44.6141 37.1677Z" fill="#FF4600"/>
<path d="M30.6309 31.6406C34.2714 31.6406 37.2227 28.6894 37.2227 25.0488C37.2227 21.4083 34.2714 18.457 30.6309 18.457C26.9903 18.457 24.0391 21.4083 24.0391 25.0488C24.0391 28.6894 26.9903 31.6406 30.6309 31.6406Z" fill="#2FDDFF"/>
</g>
<defs>
<clipPath id="clip0_7688_50046">
<rect width="45" height="45" fill="white"/>
</clipPath>
</defs>
</svg>
