<svg width="45" height="45" viewBox="0 0 45 45" fill="none" xmlns="http://www.w3.org/2000/svg">
<path d="M44.25 6.75V42C44.25 42.5967 44.0129 43.169 43.591 43.591C43.169 44.0129 42.5967 44.25 42 44.25H3C2.40326 44.25 1.83097 44.0129 1.40901 43.591C0.987053 43.169 0.75 42.5967 0.75 42V6.75L1.5 6H43.5L44.25 6.75Z" fill="#DAE5E4"/>
<path d="M44.25 3V6.75H0.75V3C0.75 2.40326 0.987053 1.83097 1.40901 1.40901C1.83097 0.987053 2.40326 0.75 3 0.75H42C42.5967 0.75 43.169 0.987053 43.591 1.40901C44.0129 1.83097 44.25 2.40326 44.25 3Z" fill="#3F2ABC"/>
<path d="M6.9232 15.7342C6.66557 16.8495 6.69578 18.012 7.011 19.1124C7.32622 20.2128 7.9161 21.2149 8.72517 22.0246C9.53424 22.8343 10.5359 23.425 11.6361 23.7411C12.7362 24.0571 13.8987 24.0883 15.0141 23.8315C16.1296 23.5747 17.1615 23.0385 18.0127 22.2733C18.864 21.508 19.5066 20.5388 19.8802 19.4569C20.2539 18.3749 20.3463 17.2157 20.1487 16.0883C19.9511 14.9608 19.47 13.9021 18.7507 13.0117L6.9232 15.7342Z" fill="#4D3FD1"/>
<path d="M13.4994 10.5C11.9728 10.5009 10.4915 11.0189 9.29698 11.9696C8.1025 12.9202 7.2653 14.2475 6.92188 15.735L13.4994 17.25L18.7494 13.0125C18.1189 12.2266 17.3196 11.5927 16.4108 11.1577C15.502 10.7228 14.5069 10.498 13.4994 10.5Z" fill="#35E5CC"/>
<path d="M13.4994 10.5V17.25L6.92188 15.735C7.2653 14.2475 8.1025 12.9202 9.29698 11.9696C10.4915 11.0189 11.9728 10.5009 13.4994 10.5Z" fill="#24D3BD"/>
<path d="M20.2508 17.2492C20.251 18.3701 19.972 19.4734 19.4391 20.4595C18.9062 21.4456 18.1361 22.2834 17.1983 22.8974C16.2606 23.5114 15.1847 23.8822 14.0678 23.9764C12.9509 24.0706 11.8281 23.8851 10.8008 23.4367L13.5008 17.2492L18.7508 13.0117C19.7234 14.2096 20.2531 15.7062 20.2508 17.2492Z" fill="#3F2ABC"/>
<path d="M8.73 29.7305C7.94429 30.5152 7.36432 31.4817 7.0415 32.5442C6.71869 33.6067 6.663 34.7325 6.87938 35.8216C7.09575 36.9108 7.5775 37.9298 8.28193 38.7883C8.98635 39.6467 9.89169 40.3181 10.9177 40.7429C11.9437 41.1678 13.0587 41.3329 14.1637 41.2237C15.2688 41.1145 16.3299 40.7344 17.2529 40.1169C18.1759 39.4995 18.9324 38.6639 19.4552 37.6842C19.978 36.7045 20.251 35.6109 20.25 34.5005L8.73 29.7305Z" fill="#4D3FD1"/>
<path d="M20.2505 34.5004H13.5005L8.73047 29.7304C9.67361 28.7854 10.876 28.1416 12.1853 27.8804C13.4946 27.6192 14.852 27.7524 16.0856 28.2631C17.3191 28.7739 18.3733 29.6393 19.1148 30.7496C19.8562 31.8599 20.2514 33.1653 20.2505 34.5004Z" fill="#24D3BD"/>
<path d="M20.25 34.5C20.25 36.2902 19.5388 38.0071 18.273 39.273C17.0071 40.5389 15.2902 41.25 13.5 41.25V34.5H20.25Z" fill="#3F2ABC"/>
<path d="M30.75 41.25V35.25C30.75 34.8522 30.592 34.4706 30.3107 34.1893C30.0294 33.908 29.6478 33.75 29.25 33.75C28.8522 33.75 28.4706 33.908 28.1893 34.1893C27.908 34.4706 27.75 34.8522 27.75 35.25V41.25H30.75Z" fill="#1CB7A1"/>
<path d="M36.75 41.25V33.75C36.75 33.3522 36.592 32.9706 36.3107 32.6893C36.0294 32.408 35.6478 32.25 35.25 32.25C34.8522 32.25 34.4706 32.408 34.1893 32.6893C33.908 32.9706 33.75 33.3522 33.75 33.75V41.25H36.75Z" fill="#1CB7A1"/>
<path d="M33.75 41.25V30.75C33.75 30.3522 33.592 29.9706 33.3107 29.6893C33.0294 29.408 32.6478 29.25 32.25 29.25C31.8522 29.25 31.4706 29.408 31.1893 29.6893C30.908 29.9706 30.75 30.3522 30.75 30.75V41.25H33.75Z" fill="#24D3BD"/>
<path d="M30.75 15.75V24H27.75V15.75C27.7529 15.3531 27.9119 14.9733 28.1926 14.6926C28.4733 14.4119 28.8531 14.2529 29.25 14.25C29.6475 14.2512 30.0283 14.4096 30.3094 14.6907C30.5904 14.9717 30.7488 15.3525 30.75 15.75Z" fill="#1CB7A1"/>
<path d="M36.75 19.5V24H33.75V19.5C33.7529 19.1031 33.9119 18.7233 34.1926 18.4426C34.4733 18.1619 34.8531 18.0029 35.25 18C35.6475 18.0012 36.0283 18.1596 36.3094 18.4407C36.5904 18.7217 36.7488 19.1025 36.75 19.5Z" fill="#1CB7A1"/>
<path d="M33.75 13.5V24H30.75V13.5C30.7529 13.1031 30.9119 12.7233 31.1926 12.4426C31.4733 12.1619 31.8531 12.0029 32.25 12C32.6475 12.0012 33.0283 12.1596 33.3094 12.4407C33.5904 12.7217 33.7488 13.1025 33.75 13.5Z" fill="#24D3BD"/>
<path d="M41.25 4.5H36.75C36.5511 4.5 36.3603 4.42098 36.2197 4.28033C36.079 4.13968 36 3.94891 36 3.75C36 3.55109 36.079 3.36032 36.2197 3.21967C36.3603 3.07902 36.5511 3 36.75 3H41.25C41.4489 3 41.6397 3.07902 41.7803 3.21967C41.921 3.36032 42 3.55109 42 3.75C42 3.94891 41.921 4.13968 41.7803 4.28033C41.6397 4.42098 41.4489 4.5 41.25 4.5Z" fill="#2F239E"/>
<path d="M38.25 42H25.5C25.1022 42 24.7206 41.842 24.4393 41.5606C24.158 41.2793 24 40.8978 24 40.5V27.75C24 27.5511 24.079 27.3603 24.2197 27.2197C24.3603 27.079 24.5511 27 24.75 27C24.9489 27 25.1397 27.079 25.2803 27.2197C25.421 27.3603 25.5 27.5511 25.5 27.75V40.5H38.25C38.4489 40.5 38.6397 40.579 38.7803 40.7197C38.921 40.8603 39 41.0511 39 41.25C39 41.4489 38.921 41.6397 38.7803 41.7803C38.6397 41.921 38.4489 42 38.25 42Z" fill="#3F2ABC"/>
<path d="M38.25 24.75H25.5C25.1022 24.75 24.7206 24.592 24.4393 24.3107C24.158 24.0294 24 23.6478 24 23.25V10.5C24 10.3011 24.079 10.1103 24.2197 9.96967C24.3603 9.82902 24.5511 9.75 24.75 9.75C24.9489 9.75 25.1397 9.82902 25.2803 9.96967C25.421 10.1103 25.5 10.3011 25.5 10.5V23.25H38.25C38.4489 23.25 38.6397 23.329 38.7803 23.4697C38.921 23.6103 39 23.8011 39 24C39 24.1989 38.921 24.3897 38.7803 24.5303C38.6397 24.671 38.4489 24.75 38.25 24.75Z" fill="#3F2ABC"/>
</svg>
