<svg width="45" height="45" viewBox="0 0 45 45" fill="none" xmlns="http://www.w3.org/2000/svg">
<path d="M4.06013 6.20703C2.98331 6.20703 1.9506 6.63479 1.18918 7.39621C0.427762 8.15763 0 9.19034 0 10.2672C0 11.344 0.427762 12.3767 1.18918 13.1381C1.9506 13.8995 2.98331 14.3273 4.06013 14.3273H41.3719C41.889 14.3273 42.3848 14.5327 42.7505 14.8983C43.1161 15.2639 43.3215 15.7598 43.3215 16.2769V8.15666C43.3215 7.63958 43.1161 7.14369 42.7505 6.77806C42.3848 6.41244 41.889 6.20703 41.3719 6.20703H4.06013Z" fill="#3F6D8E"/>
<path d="M10.1387 0H33.1854V14.3269H10.1387V0Z" fill="#40C140"/>
<path d="M13.2227 14.3269V6.20556C14.05 6.20556 14.8435 5.87689 15.4286 5.29185C16.0136 4.7068 16.3423 3.91331 16.3423 3.08594H26.9803C26.9803 3.49561 27.061 3.90128 27.2177 4.27977C27.3745 4.65826 27.6043 5.00216 27.894 5.29185C28.1837 5.58153 28.5276 5.81132 28.9061 5.96809C29.2846 6.12487 29.6902 6.20556 30.0999 6.20556V14.3258L13.2227 14.3269Z" fill="#64D465"/>
<path d="M43.3215 43.0492C43.3215 43.5663 43.1161 44.0622 42.7505 44.4278C42.3848 44.7935 41.889 44.9989 41.3719 44.9989H4.06013C2.9839 44.9989 1.9517 44.5716 1.19038 43.8109C0.429051 43.0502 0.00089462 42.0184 0 40.9421V10.2656C0 11.3424 0.427762 12.3751 1.18918 13.1366C1.9506 13.898 2.98331 14.3258 4.06013 14.3258H41.3719C41.889 14.3258 42.3848 14.5312 42.7505 14.8968C43.1161 15.2624 43.3215 15.7583 43.3215 16.2754V43.0492Z" fill="#477B9E"/>
<path d="M28.7387 24.0664H44.9994V35.2624H28.7387C28.2216 35.2624 27.7257 35.057 27.3601 34.6914C26.9945 34.3258 26.7891 33.8299 26.7891 33.3128V26.016C26.7891 25.499 26.9945 25.0031 27.3601 24.6374C27.7257 24.2718 28.2216 24.0664 28.7387 24.0664Z" fill="#3F6D8E"/>
<path d="M32.3869 32.1448C33.7569 32.1448 34.8675 31.0342 34.8675 29.6642C34.8675 28.2942 33.7569 27.1836 32.3869 27.1836C31.0169 27.1836 29.9062 28.2942 29.9062 29.6642C29.9062 31.0342 31.0169 32.1448 32.3869 32.1448Z" fill="#F4DD45"/>
</svg>
