<svg width="50" height="50" viewBox="0 0 50 50" fill="none" xmlns="http://www.w3.org/2000/svg">
<rect width="50" height="50" rx="25" fill="#081A3E"/>
<path d="M14.9051 14.1641L13.6882 17.6102H13.6003L12.3834 14.1641H10.8926V19.0786H12.01V16.1185H12.1095L13.1915 19.0791H14.0987L15.1808 16.1185H15.2803V19.0791H16.3977V14.1641H14.9051Z" fill="white"/>
<path d="M20.2598 14.1641H18.6216L16.7207 19.0786H17.926L18.2306 18.2533H20.6527L20.9559 19.0786H22.1677L20.2598 14.1641ZM18.5574 17.3702L19.3298 15.2703H19.5525L20.324 17.3702H18.5574Z" fill="white"/>
<path d="M26.0886 16.5677C25.8431 16.4468 25.4232 16.331 24.8303 16.2232C24.7801 16.2143 24.7434 16.2092 24.7197 16.2055L24.1872 16.1111C23.6915 16.0181 23.4437 15.8242 23.4437 15.5322C23.4437 15.3411 23.5307 15.1913 23.7041 15.0844C23.8775 14.9774 24.1305 14.9235 24.4616 14.9235C25.1484 14.9235 25.5348 15.1713 25.6204 15.667H26.6671C26.6559 14.5547 25.9287 14 24.4853 14C23.7985 14 23.2675 14.1297 22.8913 14.3887C22.5151 14.6477 22.3263 15.0114 22.3263 15.4796C22.3263 15.6861 22.3626 15.8698 22.4347 16.0293C22.5077 16.1892 22.5969 16.3185 22.7039 16.4157C22.8108 16.5138 22.9541 16.5993 23.1317 16.6761C23.3093 16.7514 23.4739 16.8081 23.626 16.8458C23.7771 16.8821 23.9631 16.9202 24.1807 16.9593L24.7899 17.0648C25.0893 17.115 25.3083 17.188 25.4455 17.281C25.5813 17.374 25.6492 17.5052 25.6492 17.6735C25.6492 17.8683 25.5474 18.0246 25.3423 18.1417C25.1372 18.2589 24.848 18.3166 24.4741 18.3166C24.0803 18.3129 23.7822 18.245 23.5781 18.1115C23.3753 17.9795 23.2647 17.7944 23.2447 17.5568H22.1915C22.1877 18.1255 22.3775 18.5482 22.7625 18.8262C23.1461 19.1029 23.7162 19.2415 24.4737 19.2415C25.2335 19.2415 25.8138 19.108 26.2114 18.8439C26.6089 18.5784 26.8075 18.1999 26.8075 17.7088C26.8042 17.1857 26.5638 16.8058 26.0886 16.5677Z" fill="white"/>
<path d="M30.8108 14.1641V16.1357H28.3709V14.1641H27.207V19.0786H28.3709V17.107H30.8108V19.0786H31.9807V14.1641H30.8108Z" fill="white"/>
<path d="M32.4766 14.1641V19.0786H33.6405V14.1641H32.4766Z" fill="white"/>
<path d="M37.8911 14.1641V17.4693H37.7805L35.4978 14.1641H34.1465V19.0786H35.2876V15.7734H35.3931L37.7033 19.0786H39.0318V14.1641H37.8911Z" fill="white"/>
<path d="M34.6971 29.9441L33.7113 31.1293C33.5657 31.0105 33.4278 30.8747 33.304 30.7255L32.3472 29.5785C32.5212 29.1139 32.5099 28.5998 32.3112 28.1437C32.2822 28.0751 32.2496 28.0079 32.2114 27.9435C32.1174 27.7823 32.0042 27.6366 31.8727 27.5143C31.5184 27.1741 31.0439 26.979 30.5425 26.979C29.8545 26.979 29.2166 27.346 28.8729 27.9435C28.53 28.5383 28.53 29.273 28.8729 29.8698C29.2166 30.4646 29.8545 30.8323 30.5425 30.8323C30.6557 30.8323 30.7667 30.8224 30.8756 30.8012L31.8338 31.9517C32.0332 32.1893 32.2539 32.4071 32.4887 32.5981L30.2123 35.3326C29.9019 35.7039 29.4429 35.9203 28.9606 35.9203H12.5128C11.6112 35.9203 10.8828 35.1912 10.8828 34.2917V23.5153C10.8828 22.6165 11.6112 21.8867 12.5128 21.8867H28.9606C29.4429 21.8867 29.9019 22.101 30.2123 22.4722L33.3535 26.2478L33.514 26.4408L33.5338 26.4635L34.0126 27.0384L34.031 27.061L34.6971 27.8608C35.1985 28.4654 35.1985 29.3416 34.6971 29.9441Z" fill="white"/>
<path d="M39.0184 29.4911C39.0184 30.6707 38.4505 31.718 37.573 32.3749C37.5715 32.3764 37.5708 32.3771 37.5694 32.3771C37.0171 32.79 36.3425 33.0467 35.6092 33.0849C35.6014 33.0856 35.5929 33.0856 35.5844 33.0856C35.53 33.0885 35.4748 33.0899 35.4204 33.0899V33.0878C34.844 33.0814 34.2875 32.9477 33.8229 32.749C33.4799 32.6041 33.1532 32.4046 32.8548 32.1564C32.6462 31.9881 32.451 31.7965 32.2749 31.5843L30.5275 29.4911C30.3861 29.3243 30.3225 29.1043 30.3501 28.8879C30.3769 28.6723 30.4936 28.4771 30.669 28.3491C30.7722 28.2741 30.8953 28.1864 31.031 28.0931C31.1859 27.9835 31.3578 27.8633 31.5451 27.7353C31.6774 27.8477 31.7905 27.9821 31.8782 28.1348C31.9207 28.2098 31.9567 28.2861 31.9857 28.3646C31.8365 28.4643 31.6965 28.5619 31.5678 28.6517C31.3952 28.772 31.2425 28.8795 31.1166 28.9714C31.1145 28.9735 31.1095 28.9749 31.1095 28.9848L32.8626 31.0936C33.0097 31.2697 33.1702 31.4302 33.3427 31.5695C33.5839 31.7682 33.8462 31.9294 34.122 32.0454C34.2868 32.1154 34.8257 32.3205 35.4769 32.3205C35.4854 32.3212 35.4946 32.3205 35.5031 32.3205C36.1198 32.3028 36.6862 32.0885 37.1437 31.7378C37.8169 31.2202 38.2511 30.4069 38.2511 29.4919C38.2511 29.0485 38.1493 28.6284 37.9661 28.255C37.5277 27.3541 36.624 26.7205 35.5668 26.6667C35.5484 26.666 35.53 26.6646 35.5109 26.6646C35.4805 26.6632 35.4508 26.6625 35.4211 26.6625C34.9077 26.6625 34.4268 26.799 34.0117 27.0387L33.533 26.4638L33.5139 26.4412C34.0669 26.094 34.7203 25.8945 35.4211 25.8945H35.4402C35.4649 25.8945 35.489 25.8952 35.5137 25.8959C36.8877 25.9313 38.0701 26.7353 38.6457 27.8951C38.884 28.3752 39.0184 28.9176 39.0184 29.4911Z" fill="white"/>
<path d="M28.0926 31.1089V32.6145H21.9297V25.0352H23.7259V31.1089H28.0926Z" fill="#081A3E"/>
<path d="M17.8265 25.0352H15.3012L12.3672 32.6145H14.2277L14.6959 31.3423H18.4311L18.8999 32.6145H20.7675L17.8265 25.0352ZM15.2015 29.9796L16.3909 26.7401H16.7339L17.9255 29.9796H15.2015Z" fill="#081A3E"/>
</svg>
