<svg width="19" height="21" viewBox="0 0 19 21" fill="none" xmlns="http://www.w3.org/2000/svg">
<g opacity="0.998">
<path opacity="0.998" d="M17.3718 3.73435H13.4182V3.09C13.4175 2.53561 13.1969 2.00414 12.8047 1.61229C12.4125 1.22043 11.8809 1.00022 11.3265 1H7.57111C7.01701 1.00066 6.48579 1.22106 6.09398 1.61287C5.70217 2.00468 5.48177 2.5359 5.48111 3.09V3.73435H1.52746C1.38757 3.73435 1.25341 3.78992 1.15449 3.88884C1.05557 3.98775 1 4.12191 1 4.2618C1 4.40169 1.05557 4.53586 1.15449 4.63477C1.25341 4.73369 1.38757 4.78926 1.52746 4.78926H2.48076V17.1806C2.48207 17.9281 2.77965 18.6446 3.30829 19.173C3.83694 19.7015 4.55352 19.9989 5.30102 20H13.5982C14.3459 19.9989 15.0626 19.7014 15.5913 19.1728C16.1199 18.6441 16.4174 17.9274 16.4185 17.1797V4.78843H17.3718C17.5117 4.78843 17.6459 4.73286 17.7448 4.63395C17.8437 4.53503 17.8993 4.40087 17.8993 4.26098C17.8993 4.12109 17.8437 3.98693 17.7448 3.88801C17.6459 3.78909 17.5117 3.73352 17.3718 3.73352V3.73435ZM6.53519 3.09C6.53563 2.81561 6.64483 2.55259 6.83885 2.35857C7.03287 2.16454 7.2959 2.05535 7.57028 2.05491H11.3265C11.6013 2.05469 11.865 2.1636 12.0595 2.35769C12.2541 2.55178 12.3636 2.81518 12.3641 3.09V3.73435H6.53519V3.09ZM15.3636 17.1797C15.3627 17.6477 15.1764 18.0962 14.8456 18.4271C14.5147 18.7579 14.0662 18.9442 13.5982 18.9451H5.30102C4.83309 18.9442 4.38457 18.7579 4.0537 18.4271C3.72282 18.0962 3.53655 17.6477 3.53567 17.1797V4.78843H15.3677V17.1797H15.3636Z" fill="white" stroke="white" stroke-width="0.3"/>
<path opacity="0.998" d="M9.44974 17.0549C9.51902 17.0551 9.58765 17.0417 9.65169 17.0153C9.71573 16.9888 9.77392 16.95 9.82291 16.901C9.87189 16.8521 9.91071 16.7939 9.93712 16.7298C9.96353 16.6658 9.97701 16.5972 9.97679 16.5279V7.20713C9.97679 7.06724 9.92122 6.93309 9.8223 6.83418C9.72338 6.73526 9.58922 6.67969 9.44933 6.67969C9.30944 6.67969 9.17529 6.73526 9.07637 6.83418C8.97745 6.93309 8.92188 7.06724 8.92188 7.20713V16.5237C8.92155 16.5933 8.93496 16.6623 8.96133 16.7266C8.98771 16.791 9.02652 16.8496 9.07556 16.8989C9.1246 16.9483 9.18289 16.9874 9.2471 17.0142C9.31132 17.041 9.38018 17.0548 9.44974 17.0549Z" fill="white" stroke="white" stroke-width="0.3"/>
<path opacity="0.998" d="M6.00834 16.4724C6.07762 16.4726 6.14625 16.4591 6.21029 16.4327C6.27433 16.4063 6.33252 16.3675 6.38151 16.3185C6.43049 16.2695 6.4693 16.2114 6.49571 16.1473C6.52212 16.0833 6.53561 16.0146 6.53539 15.9454V7.78527C6.53539 7.64538 6.47981 7.51122 6.38089 7.4123C6.28197 7.31338 6.14782 7.25781 6.00793 7.25781C5.86804 7.25781 5.73387 7.31338 5.63496 7.4123C5.53604 7.51122 5.48047 7.64538 5.48047 7.78527V15.9454C5.48069 16.0852 5.5364 16.2193 5.63537 16.3181C5.73434 16.4169 5.86849 16.4724 6.00834 16.4724Z" fill="white" stroke="white" stroke-width="0.3"/>
<path opacity="0.998" d="M12.8911 16.4724C12.9604 16.4726 13.0291 16.4591 13.0931 16.4327C13.1571 16.4063 13.2153 16.3675 13.2643 16.3185C13.3133 16.2695 13.3521 16.2114 13.3785 16.1473C13.4049 16.0833 13.4184 16.0146 13.4182 15.9454V7.78527C13.4182 7.64538 13.3626 7.51122 13.2637 7.4123C13.1648 7.31338 13.0306 7.25781 12.8907 7.25781C12.7508 7.25781 12.6167 7.31338 12.5178 7.4123C12.4189 7.51122 12.3633 7.64538 12.3633 7.78527V15.9454C12.3631 16.0147 12.3766 16.0834 12.403 16.1475C12.4295 16.2116 12.4684 16.2698 12.5174 16.3188C12.5665 16.3678 12.6248 16.4066 12.6889 16.433C12.7531 16.4593 12.8218 16.4727 12.8911 16.4724Z" fill="white" stroke="white" stroke-width="0.3"/>
</g>
</svg>
