<svg width="110" height="67" viewBox="0 0 110 67" fill="none" xmlns="http://www.w3.org/2000/svg">
<path d="M84.9263 6.55162C90.4665 9.58297 96.7344 14.9137 96.0807 22.0193C95.3213 28.6045 89.1824 33.2012 83.6973 35.9809C67.6796 43.6364 45.1972 43.8712 28.6507 37.1824C23.0619 34.8555 16.7897 30.8574 14.4396 24.8497C13.7098 22.4459 13.7076 19.8799 14.4334 17.4749C15.1591 15.0698 16.5803 12.9334 18.518 11.3345C26.2265 4.33258 36.0482 1.9295 46.1576 0.546042C57.0441 -0.780359 68.0892 0.316924 78.5019 3.75931C80.703 4.54626 82.8493 5.4791 84.9263 6.55162ZM103.087 50.6045V66.5059H99.6303V61.9345H91.7421V66.508H88.2855V54.0378C88.2855 51.8335 89.1761 50.6024 91.7421 50.6024H103.087V50.6045Z" fill="#E2E6EE"/>
<path d="M99.6259 53.5234H93.138C92.0465 53.5869 91.7461 53.8577 91.7461 55.184V58.8288H99.6259V53.5234Z" fill="white"/>
<path d="M84.8241 54.0397V62.6451C84.8241 65.3951 83.2862 66.5099 81.3675 66.5099H70.4648V50.6065H81.3675C81.8353 50.5378 82.3126 50.5791 82.7617 50.727C83.2107 50.8749 83.6191 51.1254 83.9545 51.4585C84.29 51.7917 84.5432 52.1984 84.6941 52.6465C84.845 53.0945 84.8895 53.5715 84.8241 54.0397Z" fill="#E2E6EE"/>
<path d="M81.3335 55.0003C81.3513 54.8032 81.3259 54.6046 81.2592 54.4183C81.1924 54.232 81.0859 54.0625 80.9469 53.9216C80.808 53.7807 80.6401 53.6717 80.4548 53.6022C80.2694 53.5328 80.0712 53.5046 79.8739 53.5195H73.9297V63.4618H79.8739C81.2299 63.392 81.3335 62.5797 81.3335 61.9345V55.0003Z" fill="white"/>
<path d="M0 50.5977H3.45654V56.8592H11.1925V50.5977H14.649V66.499H11.1925V60.0069H3.45654V66.499H0V50.5977ZM20.5742 50.5977L24.9065 57.0961L29.1923 50.5977H33.3913L26.639 60.7515V66.4884H23.1783V60.7621L16.3773 50.6082L20.5742 50.5977ZM52.7915 50.5977H63.9312C65.5177 50.5977 67.0577 50.8092 67.0112 54.033V66.5011H63.5546V55.1669C63.5546 53.7961 63.3896 53.5063 62.3171 53.5063H56.2481V66.4927H52.7915V50.5977ZM106.543 50.5977H110V66.499H106.543V50.5977ZM35.1154 66.499H46.255C48.4719 66.499 49.3815 65.8644 49.335 62.6617V50.604H45.8763V61.953C45.8763 63.3153 45.7113 63.4804 44.6367 63.4804H38.5677V50.5977H35.1154V66.499Z" fill="#E2E6EE"/>
<path d="M63.5827 25.8368C64.2174 29.0754 62.5123 31.7598 61.1014 34.3808C60.3938 35.6816 59.3416 36.7625 58.0601 37.5047C56.7787 38.2469 55.3176 38.6218 53.8372 38.5883C47.022 38.4944 40.2526 37.4572 33.722 35.5062C33.4219 35.4283 33.1612 35.2422 32.99 34.9837C32.9407 34.8137 32.9444 34.6326 33.0008 34.4648C33.0571 34.2969 33.1633 34.1503 33.3052 34.0444C39.0781 29.3673 45.951 27.2012 52.7435 24.9271C55.3251 23.9871 58.0744 23.5959 60.8158 23.7785C61.4151 23.8546 61.9846 24.084 62.4693 24.4446C62.954 24.8051 63.3375 25.2847 63.5827 25.8368ZM87.3829 11.9916C90.6216 14.6548 93.5493 18.2891 92.555 22.6764C90.9347 29.1558 83.882 32.606 78.2656 34.7996C75.2069 35.9555 72.0246 36.7534 68.7823 37.1773C68.5708 37.1541 68.2323 37.2048 68.1795 36.8918L68.2577 36.5279C72.8047 31.2093 76.6744 25.3473 79.7781 19.076C81.2399 16.326 82.6 13.5125 83.8523 10.7414C84.0079 10.5642 84.2059 10.4296 84.4277 10.35C85.5365 10.6366 86.5538 11.2016 87.3829 11.9916ZM41.7964 5.08272L41.6906 5.47407C34.8198 13.2841 30.3014 22.3506 26.0177 31.3643C25.1716 32.1491 24.3698 31.1019 23.6125 30.7656C19.8048 28.2568 16.3525 24.2079 17.3468 19.3996C18.9397 13.1296 25.3852 9.7831 30.7773 7.51118C34.0102 6.26315 37.3632 5.35224 40.7831 4.79291C41.1448 4.79291 41.6166 4.74426 41.7985 5.08272H41.7964ZM75.8795 6.35195C76.2708 6.56349 76.7425 6.63753 76.9773 7.03099C77.1889 7.47522 76.7658 7.76291 76.5331 8.04849C71.1183 11.9644 65.053 14.8908 58.6179 16.6919C55.4047 17.4725 52.1639 18.8877 48.5847 18.1029C48.1531 17.9926 47.748 17.7968 47.3934 17.5272C47.0387 17.2576 46.7418 16.9197 46.52 16.5333C46.2588 15.3101 46.2444 14.0471 46.4776 12.8182C46.7108 11.5894 47.1869 10.4194 47.8781 9.37695C49.2637 6.68618 51.7175 3.52368 55.1148 3.47291C62.1371 3.45458 69.1271 4.42374 75.8795 6.35195Z" fill="white"/>
</svg>
