<svg width="127" height="119" viewBox="0 0 127 119" fill="none" xmlns="http://www.w3.org/2000/svg">
<path d="M87.763 44.1249L88.8064 55.4842C87.4226 55.6248 85.9907 55.6359 84.5624 55.5027L73.5547 54.5074C72.034 51.1662 69.2848 48.5354 65.8585 47.1886C65.3479 46.9814 64.8262 46.8001 64.2897 46.6632C62.9539 46.3117 61.5997 46.1415 60.2714 46.1896C56.6379 46.2636 53.1339 47.7251 50.5105 50.3485C46.9103 53.9487 45.4932 59.2065 46.8215 64.1313C48.1388 69.0376 51.9832 72.882 56.9006 74.2103C61.8106 75.5239 67.0721 74.1104 70.6723 70.5103C71.2643 69.9182 71.7934 69.2855 72.2522 68.6047L83.2859 69.6111C85.5726 69.8109 87.8666 69.7961 90.0941 69.5667L92.4917 95.7856C92.8099 99.3524 91.5408 102.886 89.0173 105.409L2.95699 191.47C-1.76062 196.187 -9.38653 196.184 -14.093 191.477L-70.4787 135.092C-75.1815 130.389 -75.1889 122.759 -70.4713 118.042L15.5891 31.9812C18.1125 29.4578 21.635 28.1775 25.2019 28.4957L61.3925 31.8147L63.2425 31.9849L63.4645 31.9997L68.9777 32.5029L69.1923 32.5251L76.8626 33.2245C82.6495 33.7647 87.2339 38.3491 87.763 44.1249Z" fill="white"/>
<path d="M108.018 19.141C114.19 25.3128 116.698 33.7638 115.544 41.793C115.544 41.8078 115.544 41.8152 115.536 41.8226C114.807 46.8732 112.621 51.7462 108.984 55.783C108.947 55.8274 108.902 55.8718 108.858 55.9162C108.588 56.2159 108.306 56.5119 108.022 56.7968L108.01 56.7857C104.962 59.768 101.35 61.9806 97.8796 63.3718C95.3266 64.4079 92.5737 65.0739 89.7135 65.3366C87.7414 65.5475 85.7174 65.566 83.6861 65.3773L63.5909 63.5679C61.9777 63.4347 60.4939 62.617 59.506 61.3405C58.5181 60.0713 58.1074 58.4396 58.3553 56.8522C58.5033 55.9198 58.6883 54.8172 58.9103 53.6184C59.1471 52.2345 59.4172 50.7064 59.728 49.0562C61.0082 48.9526 62.3033 49.0636 63.5613 49.404C64.1755 49.5742 64.7638 49.7851 65.3262 50.0441C65.0672 51.3465 64.8452 52.5897 64.6417 53.7331C64.3679 55.2649 64.1311 56.6265 63.9535 57.7662C63.9535 57.7884 63.935 57.8217 63.9868 57.8735L84.193 59.7346C85.8839 59.8863 87.5637 59.8864 89.1955 59.7124C91.4969 59.4904 93.7133 58.9613 95.7631 58.1251C96.9916 57.6293 100.884 55.8829 104.292 52.4751C104.34 52.4344 104.384 52.3826 104.429 52.3382C107.563 49.0192 109.405 44.9343 109.964 40.7051C110.778 34.4742 108.795 27.9472 104.007 23.1593C101.687 20.8394 98.9563 19.1743 96.0443 18.179C89.0363 15.7591 80.9923 17.1725 75.1795 22.423C75.0796 22.5155 74.976 22.6043 74.8761 22.7042C74.7096 22.8559 74.5505 23.0076 74.3951 23.163C71.7088 25.8492 69.9069 29.0794 68.9893 32.5057L63.4762 32.0025L63.2578 31.984C64.3346 27.2738 66.71 22.8115 70.3768 19.1447L70.4767 19.0448C70.6062 18.9153 70.7357 18.7932 70.8689 18.6674C78.2432 11.6631 88.6367 9.68359 97.7167 12.7399C101.476 14.0053 105.017 16.1403 108.018 19.141Z" fill="white"/>
</svg>
