<svg width="28" height="32" viewBox="0 0 28 32" fill="none" xmlns="http://www.w3.org/2000/svg">
<path d="M25.8818 13.5565L24.8329 11.1706C24.7708 11.0293 24.7019 10.8892 24.628 10.7543C24.1905 9.95439 23.4726 9.35217 22.6066 9.05852C21.7433 8.76585 20.8074 8.80491 19.9711 9.16859L19.5669 9.34436L19.0504 8.16942C19.0504 8.16928 19.0503 8.16907 19.0502 8.16893L18.6697 7.30334C18.3445 6.56371 17.7498 5.99623 16.9952 5.70558C16.2443 5.4164 15.4274 5.43739 14.6944 5.76459L13.3532 6.3456C13.1051 5.99267 12.8038 5.72337 12.4525 5.54153C11.7186 5.16174 10.8358 5.19369 9.8284 5.6366L8.86871 6.05844L7.62647 3.2326C7.12078 2.08222 6.18223 1.29286 5.05158 1.06687C3.98867 0.85441 2.90643 1.1551 2.15627 1.87108C1.03057 2.94537 0.707144 4.5584 1.33168 5.979L6.03743 16.7508C5.64341 16.6711 5.22819 16.6346 4.80683 16.6449C3.71239 16.6719 2.72829 17.0199 2.06936 17.6067C2.02611 17.6348 1.98545 17.668 1.9482 17.7063C1.286 18.3883 0.959569 19.2132 1.004 20.0918C1.05959 21.1899 1.68685 22.2728 2.81791 23.2235C2.82363 23.2283 2.82942 23.233 2.83535 23.2376L12.5083 30.8506C12.6335 30.9492 12.7859 31 12.9398 31C13.0348 31 13.1304 30.9806 13.2204 30.941L27.0777 24.8493C27.3166 24.7443 27.4769 24.5147 27.4932 24.2542L27.5686 23.0467C27.7708 19.8085 27.1876 16.5268 25.8818 13.5565ZM26.1764 22.9598L26.1274 23.7432L13.0423 29.4956L3.70729 22.1485C2.89736 21.4653 2.43227 20.7101 2.39739 20.0213C2.37479 19.5748 2.52782 19.1589 2.85258 18.7834C2.87602 18.7648 2.89848 18.7445 2.91982 18.7225C3.75479 17.8626 5.83704 17.8031 6.92444 18.6006L9.32711 20.9082C9.46235 21.0381 9.63638 21.1026 9.81019 21.1026C9.99343 21.1026 10.1764 21.0309 10.3134 20.8883C10.5802 20.6105 10.5713 20.1689 10.2935 19.902L7.95576 17.6567L2.60957 5.41898C2.14106 4.3532 2.56584 3.40872 3.11965 2.88022C3.53487 2.4839 4.1705 2.31323 4.77844 2.4348C5.46687 2.57242 6.02487 3.05509 6.3497 3.79395L10.3994 13.0059C10.5142 13.2673 10.77 13.4229 11.0383 13.4229C11.132 13.4229 11.2273 13.4039 11.3186 13.3638C11.6713 13.2087 11.8315 12.7972 11.6764 12.4445L9.43041 7.33542L10.3902 6.91351C10.9925 6.64881 11.4708 6.60396 11.8116 6.78035C12.0528 6.90521 12.2561 7.15268 12.4158 7.51594L14.8041 12.9486C14.919 13.21 15.1747 13.3656 15.443 13.3656C15.5367 13.3656 15.632 13.3466 15.7233 13.3064C16.076 13.1514 16.2362 12.7398 16.0811 12.3872L13.9751 7.59643L15.2529 7.04282C15.2556 7.04164 15.2583 7.04052 15.2609 7.03927C15.6533 6.86343 16.0912 6.85199 16.4942 7.00718C16.8994 7.16321 17.2185 7.46767 17.393 7.86455L20.2309 14.3209C20.3458 14.5823 20.6015 14.7379 20.8698 14.7379C20.9635 14.7379 21.0588 14.7189 21.1501 14.6788C21.5028 14.5238 21.663 14.1122 21.5079 13.7595L20.1284 10.6213L20.5275 10.4478C21.6063 9.97859 22.8432 10.3981 23.4042 11.4239C23.4588 11.5237 23.5098 11.6273 23.5558 11.7319L24.6048 14.1179C25.8213 16.8853 26.3648 19.9428 26.1764 22.9598Z" />
<path d="M19.1879 8.109L19.1878 8.10906C19.1877 8.1089 19.1876 8.10873 19.1875 8.10856L19.1879 8.109ZM19.1879 8.109L19.1865 8.10628L18.807 7.24297C18.4657 6.46672 17.841 5.8706 17.0491 5.5656L16.9988 5.6962L17.0491 5.5656C16.2613 5.26222 15.4033 5.2841 14.634 5.62727C14.6337 5.62739 14.6335 5.6275 14.6332 5.62761L13.4034 6.16037C13.1568 5.8373 12.8621 5.58465 12.5214 5.40831L12.4525 5.54153L12.5214 5.40831C11.7349 5.00126 10.8022 5.0446 9.76804 5.49928C9.76804 5.49928 9.76803 5.49928 9.76803 5.49928L8.94567 5.86077L7.76379 3.17223C7.24049 1.98179 6.26442 1.15632 5.08098 0.919777C3.97266 0.698244 2.84009 1.01105 2.05271 1.76257M19.1879 8.109L5.78815 16.5549M22.6066 9.05852L22.6547 8.91647C23.5562 9.22215 24.304 9.84931 24.7596 10.6824M22.6066 9.05852L24.628 10.7543M22.6066 9.05852L22.6547 8.91646C21.7561 8.61182 20.7818 8.6525 19.9113 9.03103L19.6441 9.14722L19.1886 8.1109L22.6066 9.05852ZM24.7596 10.6824L24.628 10.7543M24.7596 10.6824C24.7596 10.6823 24.7596 10.6823 24.7595 10.6823L24.628 10.7543M24.7596 10.6824C24.8355 10.821 24.9064 10.965 24.9702 11.1103M24.628 10.7543C24.7019 10.8892 24.7708 11.0293 24.8329 11.1706M24.9702 11.1103L24.9702 11.1102L24.8329 11.1706M24.9702 11.1103L26.0191 13.4962C27.3345 16.4884 27.922 19.794 27.7183 23.0561L27.6429 24.2636C27.6231 24.58 27.4284 24.859 27.1381 24.9866M24.9702 11.1103L24.8329 11.1706M24.8329 11.1706L27.1381 24.9866M27.1381 24.9866L27.1381 24.9866L27.0777 24.8493M27.1381 24.9866L27.4932 24.2542C27.4769 24.5147 27.3166 24.7443 27.0777 24.8493M27.1381 24.9866L27.0777 24.8493M27.1381 24.9866L13.2808 31.0783L13.2204 30.941L27.0777 24.8493M5.78815 16.5549L1.19437 6.03937C1.19435 6.03931 1.19432 6.03926 1.1943 6.03921C0.544372 4.5607 0.881522 2.88027 2.05271 1.76257M5.78815 16.5549C5.46804 16.5073 5.13736 16.4868 4.80318 16.4949L4.80313 16.4949C3.68607 16.5225 2.66884 16.8764 1.97785 17.4874C1.92893 17.5201 1.88289 17.5582 1.84058 17.6018C1.15197 18.311 0.807476 19.1756 0.854191 20.0994L1.004 20.0918L0.854192 20.0994C0.912538 21.2519 1.56985 22.3703 2.72132 23.3382C2.72789 23.3437 2.73514 23.3497 2.74293 23.3558C2.74308 23.3559 2.74322 23.356 2.74337 23.3561L12.4155 30.9684L5.78815 16.5549ZM2.05271 1.76257L2.15627 1.87108M2.05271 1.76257L2.15627 1.87108M2.15627 1.87108C1.03057 2.94537 0.707144 4.5584 1.33168 5.979L2.15627 1.87108ZM3.02744 18.827L3.02741 18.827C3.00512 18.85 2.98179 18.8714 2.95751 18.8914C2.66093 19.2385 2.52697 19.614 2.5472 20.0137C2.57905 20.6427 3.00828 21.362 3.80208 22.0323L13.0643 29.322L25.9834 23.6426L26.0267 22.9504C26.2136 19.9573 25.6743 16.9237 24.4674 14.1783L23.4185 11.7923L23.4185 11.7922C23.3742 11.6916 23.3252 11.5919 23.2726 11.4959L23.2726 11.4959C22.7492 10.5388 21.5957 10.1468 20.5873 10.5854L20.5873 10.5854L20.3263 10.6988L21.6453 13.6991C21.8336 14.1276 21.639 14.6277 21.2105 14.816L3.02744 18.827ZM3.02744 18.827C3.4067 18.4364 4.09064 18.212 4.83193 18.1899C5.56669 18.1681 6.31897 18.3464 6.82784 18.7158M3.02744 18.827L6.82784 18.7158M6.82784 18.7158L9.2232 21.0164L9.32711 20.9082L9.22321 21.0164C9.38748 21.1741 9.59918 21.2526 9.81019 21.2526C10.0326 21.2526 10.2551 21.1654 10.4215 20.9922L10.4215 20.9922C10.7458 20.6546 10.7349 20.1181 10.3974 19.7939L10.2935 19.902L10.3974 19.7939L8.08124 17.5693L2.74703 5.35893L2.74689 5.35861C2.30986 4.36446 2.70307 3.4851 3.22321 2.98874L3.22322 2.98873C3.59985 2.62924 4.18454 2.469 4.74903 2.58189L4.74904 2.58189C5.38179 2.70838 5.90384 3.1525 6.21238 3.85431L10.2621 13.0663C10.2621 13.0663 10.2621 13.0663 10.2621 13.0663C10.4017 13.3841 10.7126 13.5729 11.0383 13.5729C11.1524 13.5729 11.2682 13.5498 11.379 13.5011C11.8075 13.3127 12.0021 12.8127 11.8137 12.3842L9.62809 7.41237L10.4505 7.05083C11.04 6.79177 11.4635 6.76907 11.7426 6.91357C11.9421 7.01683 12.1264 7.23042 12.2785 7.5763C12.2785 7.5763 12.2785 7.57631 12.2785 7.57631L14.6668 13.009C14.8064 13.3267 15.1173 13.5156 15.443 13.5156C15.5571 13.5156 15.6729 13.4925 15.7837 13.4437C16.2122 13.2554 16.4068 12.7553 16.2184 12.3268C16.2184 12.3268 16.2184 12.3268 16.2184 12.3268L14.1731 7.67412L15.3125 7.18046L15.3129 7.18032C15.3132 7.18018 15.3183 7.178 15.3233 7.17569M6.82784 18.7158L15.3233 7.17569M15.3233 7.17569C15.323 7.17585 15.3226 7.176 15.3223 7.17615L15.2609 7.03927L15.3252 7.17482C15.3245 7.17511 15.3239 7.1754 15.3233 7.17569ZM15.3233 7.17569C15.6787 7.01671 16.0748 7.0064 16.4403 7.14716L16.4403 7.14716C16.8082 7.28885 17.0973 7.56469 17.2557 7.9249L20.0936 14.3813C20.2332 14.6991 20.5441 14.8879 20.8698 14.8879C20.9839 14.8879 21.0997 14.8648 21.2105 14.8161L15.3233 7.17569ZM12.9398 31.15C13.0552 31.15 13.1714 31.1264 13.2808 31.0783L12.4156 30.9685C12.5677 31.0883 12.7529 31.15 12.9398 31.15Z" />
</svg>
