<svg width="22" height="19" viewBox="0 0 22 19" fill="none" xmlns="http://www.w3.org/2000/svg">
<path d="M19.8081 7.84286L3.67206 1.14786C3.34084 1.01021 2.97783 0.96753 2.62372 1.02461C2.26961 1.08168 1.93839 1.23626 1.6672 1.47101C1.39601 1.70576 1.19556 2.0114 1.08832 2.35368C0.981085 2.69595 0.971299 3.06134 1.06006 3.40886L2.64606 9.62686L1.06006 15.8449C0.971299 16.1924 0.981085 16.5578 1.08832 16.9C1.19556 17.2423 1.39601 17.548 1.6672 17.7827C1.93839 18.0175 2.26961 18.172 2.62372 18.2291C2.97783 18.2862 3.34084 18.2435 3.67206 18.1059L19.8081 11.4059C20.1609 11.2597 20.4625 11.0122 20.6746 10.6947C20.8868 10.3771 21.0001 10.0038 21.0001 9.62186C21.0001 9.23995 20.8868 8.86661 20.6746 8.54907C20.4625 8.23152 20.1609 7.98402 19.8081 7.83786V7.84286ZM19.3591 10.3279L3.22306 17.0279C3.09265 17.0814 2.94988 17.0976 2.81078 17.0746C2.67168 17.0516 2.54174 16.9903 2.43552 16.8976C2.32931 16.8049 2.25101 16.6844 2.20943 16.5497C2.16784 16.415 2.16459 16.2713 2.20006 16.1349L3.71006 10.2129H9.52906C9.68448 10.2129 9.83353 10.1511 9.94343 10.0412C10.0533 9.93133 10.1151 9.78228 10.1151 9.62686C10.1151 9.47144 10.0533 9.32239 9.94343 9.2125C9.83353 9.1026 9.68448 9.04086 9.52906 9.04086H3.70606L2.20006 3.11886C2.16506 2.9822 2.16884 2.8385 2.21097 2.70387C2.25311 2.56924 2.33192 2.44902 2.43858 2.35669C2.54524 2.26437 2.67551 2.20359 2.81479 2.18119C2.95407 2.15878 3.09683 2.17564 3.22706 2.22986L19.3631 8.92986C19.501 8.98768 19.6188 9.08497 19.7016 9.20951C19.7845 9.33405 19.8287 9.48029 19.8287 9.62986C19.8287 9.77944 19.7845 9.92567 19.7016 10.0502C19.6188 10.1748 19.501 10.272 19.3631 10.3299L19.3591 10.3279Z" fill="white" stroke="white" stroke-width="0.27"/>
</svg>
