<svg width="40" height="40" viewBox="0 0 40 40" fill="none" xmlns="http://www.w3.org/2000/svg">
<path d="M38.4267 12.2116C37.42 9.83024 35.9787 7.69157 34.1413 5.85424C32.3053 4.01824 30.1667 2.57691 27.784 1.56891C22.852 -0.517761 17.1453 -0.517761 12.2133 1.56891C9.83333 2.57557 7.69467 4.01691 5.85867 5.85424C4.02133 7.69024 2.58 9.82891 1.57333 12.2102C0.528 14.6756 0 17.2956 0 19.9956C0 22.6956 0.528 25.3156 1.57333 27.7796C2.58 30.1623 4.02133 32.3009 5.85867 34.1369C7.69467 35.9729 9.83333 37.4143 12.216 38.4223C14.6813 39.4676 17.3013 39.9956 20 39.9956C22.6987 39.9956 25.3187 39.4676 27.7853 38.4236C30.1667 37.4156 32.3067 35.9743 34.1427 34.1382C35.98 32.3009 37.4213 30.1622 38.428 27.7809C39.472 25.3156 40 22.6956 40 19.9956C40 17.2956 39.472 14.6756 38.4267 12.2116ZM7.744 7.73958C9.336 6.14757 11.1907 4.89691 13.2547 4.02357C15.3893 3.12091 17.6587 2.66224 20 2.66224C22.3413 2.66224 24.6107 3.12091 26.7467 4.02357C28.8107 4.89691 30.664 6.14624 32.2573 7.73958C33.564 9.04758 34.6267 10.5396 35.4533 12.1702L24.9333 17.9609C24.6693 17.3196 24.2773 16.7302 23.772 16.2249C21.756 14.2089 18.2453 14.2102 16.2307 16.2249C15.7253 16.7302 15.3333 17.3196 15.0693 17.9609L4.54933 12.1702C5.37333 10.5382 6.436 9.04758 7.744 7.73958ZM18.6667 37.2542C16.812 37.1129 14.9773 36.6943 13.2533 35.9649C11.1907 35.0942 9.336 33.8449 7.744 32.2516C6.152 30.6583 4.90133 28.8049 4.02933 26.7409C3.12533 24.6062 2.66667 22.3369 2.66667 19.9956C2.66667 18.1582 2.95867 16.3662 3.51733 14.6462L14.748 20.8276C14.9213 21.9342 15.4213 22.9582 16.2293 23.7649C16.9133 24.4489 17.7547 24.9036 18.6667 25.1382V37.2542ZM18.1147 21.8809C17.6107 21.3769 17.3333 20.7076 17.3333 19.9956C17.3333 19.2836 17.6107 18.6142 18.1147 18.1102C18.6187 17.6062 19.288 17.3289 20 17.3289C20.712 17.3289 21.3813 17.6062 21.8853 18.1102C22.3893 18.6142 22.6667 19.2836 22.6667 19.9956C22.6667 20.7076 22.3893 21.3769 21.8853 21.8809C20.8773 22.8889 19.1227 22.8889 18.1147 21.8809ZM35.972 26.7422C35.1 28.8049 33.8493 30.6596 32.2573 32.2516C30.6653 33.8436 28.8107 35.0943 26.7467 35.9676C25.024 36.6956 23.1893 37.1156 21.3333 37.2569V25.1409C22.2453 24.9062 23.0867 24.4502 23.7707 23.7676C24.5787 22.9609 25.0787 21.9356 25.252 20.8289L36.4813 14.6476C37.0413 16.3662 37.3333 18.1569 37.3333 19.9956C37.3333 22.3369 36.8747 24.6062 35.972 26.7422Z" fill="#081A3E"/>
</svg>
