<svg width="40" height="40" viewBox="0 0 40 40" fill="none" xmlns="http://www.w3.org/2000/svg">
<path d="M14.05 6.4V6.55H14.2H24.4H24.55V6.4V4.7C24.55 4.28891 24.7133 3.89467 25.004 3.60398C25.2947 3.3133 25.6889 3.15 26.1 3.15C26.5111 3.15 26.9053 3.3133 27.196 3.60398C27.4867 3.89467 27.65 4.28891 27.65 4.7V6.4V6.55H27.8H29.5C30.8128 6.55 32.0719 7.07152 33.0002 7.99982C33.9285 8.92813 34.45 10.1872 34.45 11.5V19.575C34.45 19.9861 34.2867 20.3803 33.996 20.671C33.7053 20.9617 33.3111 21.125 32.9 21.125C32.4889 21.125 32.0947 20.9617 31.804 20.671C31.5133 20.3803 31.35 19.9861 31.35 19.575V18.3V18.15H31.2H7.4H7.25V18.3V31.9C7.25 32.3906 7.44491 32.8612 7.79185 33.2081C8.1388 33.5551 8.60935 33.75 9.1 33.75H17.6C18.0111 33.75 18.4053 33.9133 18.696 34.204C18.9867 34.4947 19.15 34.8889 19.15 35.3C19.15 35.7111 18.9867 36.1053 18.696 36.396C18.4053 36.6867 18.0111 36.85 17.6 36.85H9.1C7.78718 36.85 6.52813 36.3285 5.59982 35.4002C4.67152 34.4719 4.15 33.2128 4.15 31.9V11.5C4.15 10.1872 4.67152 8.92813 5.59982 7.99982C6.52813 7.07152 7.78718 6.55 9.1 6.55H10.8H10.95V6.4V4.7C10.95 4.28891 11.1133 3.89467 11.404 3.60398C11.6947 3.3133 12.0889 3.15 12.5 3.15C12.9111 3.15 13.3053 3.3133 13.596 3.60398C13.8867 3.89467 14.05 4.28891 14.05 4.7V6.4ZM10.95 9.8V9.65H10.8H9.1C8.60935 9.65 8.13879 9.84491 7.79185 10.1919C7.44491 10.5388 7.25 11.0093 7.25 11.5V14.9V15.05H7.4H31.2H31.35V14.9V11.5C31.35 11.0093 31.1551 10.5388 30.8081 10.1919C30.4612 9.84491 29.9907 9.65 29.5 9.65H27.8H27.65V9.8V11.5C27.65 11.9111 27.4867 12.3053 27.196 12.596C26.9053 12.8867 26.5111 13.05 26.1 13.05C25.6889 13.05 25.2947 12.8867 25.004 12.596C24.7133 12.3053 24.55 11.9111 24.55 11.5V9.8V9.65H24.4H14.2H14.05V9.8V11.5C14.05 11.9111 13.8867 12.3053 13.596 12.596C13.3053 12.8867 12.9111 13.05 12.5 13.05C12.0889 13.05 11.6947 12.8867 11.404 12.596C11.1133 12.3053 10.95 11.9111 10.95 11.5V9.8Z" fill="#697586" stroke="white" stroke-width="0.3"/>
<path d="M25.9939 33.0022L26.1 33.1083L26.2061 33.0022L33.5041 25.7042C33.5041 25.7042 33.5041 25.7042 33.5041 25.7041C33.7948 25.4136 34.189 25.2503 34.6 25.2503C35.011 25.2503 35.4051 25.4136 35.6958 25.7041C35.9864 25.9948 36.1496 26.389 36.1496 26.8C36.1496 27.211 35.9864 27.6052 35.6958 27.8958L27.1958 36.3958C27.1958 36.3958 27.1958 36.3958 27.1958 36.3958C26.9052 36.6864 26.511 36.8496 26.1 36.8496C25.689 36.8496 25.2948 36.6864 25.0041 36.3958L21.6051 32.9967C21.3233 32.7045 21.1674 32.3134 21.1709 31.9074C21.1745 31.501 21.3375 31.1122 21.6249 30.8249C21.9122 30.5375 22.301 30.3745 22.7074 30.3709C23.1134 30.3674 23.5045 30.5233 23.7967 30.8051L25.9939 33.0022Z" fill="#697586" stroke="white" stroke-width="0.3"/>
</svg>
