<svg width="40" height="40" viewBox="0 0 40 40" fill="none" xmlns="http://www.w3.org/2000/svg">
<path d="M32.5 23.75C32.5 24.0815 32.3683 24.3995 32.1339 24.6339C31.8995 24.8683 31.5815 25 31.25 25C30.9185 25 30.6005 24.8683 30.3661 24.6339C30.1317 24.3995 30 24.0815 30 23.75C30 23.4185 30.1317 23.1005 30.3661 22.8661C30.6005 22.6317 30.9185 22.5 31.25 22.5C31.5815 22.5 31.8995 22.6317 32.1339 22.8661C32.3683 23.1005 32.5 23.4185 32.5 23.75ZM8.75 22.5C8.41848 22.5 8.10054 22.6317 7.86612 22.8661C7.6317 23.1005 7.5 23.4185 7.5 23.75C7.5 24.0815 7.6317 24.3995 7.86612 24.6339C8.10054 24.8683 8.41848 25 8.75 25C9.08152 25 9.39946 24.8683 9.63388 24.6339C9.8683 24.3995 10 24.0815 10 23.75C10 23.4185 9.8683 23.1005 9.63388 22.8661C9.39946 22.6317 9.08152 22.5 8.75 22.5ZM34.6163 16.25L35.1413 17.6488C36.5663 18.795 37.5 20.5325 37.5 22.5V33.75C37.5 35.1288 36.3788 36.25 35 36.25H32.5C31.1212 36.25 30 35.1288 30 33.75V31.25H10V33.75C10 35.1288 8.87875 36.25 7.5 36.25H5C3.62125 36.25 2.5 35.1288 2.5 33.75V22.5C2.5 20.5312 3.4325 18.7938 4.86 17.6475L5.385 16.25H2.5V13.75H6.25V13.94L8.525 7.8725C8.70501 7.39677 9.02525 6.98691 9.44332 6.69718C9.8614 6.40746 10.3576 6.25151 10.8662 6.25H29.1337C30.17 6.25 31.1088 6.90125 31.475 7.87125L33.75 13.9388V13.75H37.5V16.25H34.6163ZM7.5 31.25H5V33.75H7.5V31.25ZM35 31.25H32.5V33.75H35V31.25ZM35 28.75V22.5C35 20.4325 33.3175 18.75 31.25 18.75H8.75C6.6825 18.75 5 20.4325 5 22.5V28.75H35ZM31.25 16.25H31.9462L29.1337 8.75H10.8662L8.05375 16.25H31.25ZM12.5 25H27.5V22.5H12.5V25Z" fill="#697586"/>
</svg>
