<svg width="40" height="40" viewBox="0 0 40 40" fill="none" xmlns="http://www.w3.org/2000/svg">
<path d="M35.1314 18.9332L24.5037 8.34316L27.2933 5.55658C27.802 5.04838 27.8025 4.2239 27.2943 3.71518C26.7861 3.20639 25.9617 3.206 25.4529 3.71414L9.74056 19.4093C7.54552 20.0218 5.93042 22.0393 5.93042 24.4271C5.93042 25.1462 6.51336 25.7292 7.2325 25.7292C7.95164 25.7292 8.53458 25.1462 8.53458 24.4271C8.53458 23.4165 9.11316 22.5386 9.95638 22.1071L20.9717 33.0847C21.9869 34.0989 23.3199 34.6058 24.653 34.6057C25.9863 34.6056 27.3199 34.0983 28.3343 33.0839L35.134 26.3017C36.118 25.3177 36.6597 24.0095 36.6595 22.6179C36.6592 21.2262 36.117 19.9181 35.1314 18.9332ZM33.2938 24.459L26.494 31.2413C25.4792 32.2562 23.8274 32.2566 22.8112 31.2412L13.3605 21.8229H27.8054C28.5246 21.8229 29.1075 21.24 29.1075 20.5209C29.1075 19.8017 28.5246 19.2188 27.8054 19.2188H13.6162L22.6612 10.1837L33.2919 20.7767C33.7841 21.2685 34.0553 21.9225 34.0554 22.6184C34.0555 23.3141 33.7846 23.9682 33.2938 24.459Z" fill="#697586"/>
<path d="M9.52587 29.3289C8.8633 28.3396 8.2081 27.5402 8.18049 27.5066C7.93316 27.2056 7.56402 27.0312 7.17451 27.0312C6.78499 27.0312 6.41585 27.2056 6.16852 27.5066C6.14092 27.5402 5.48571 28.3396 4.82315 29.3289C3.4878 31.3227 3.33337 32.2793 3.33337 32.8255C3.33337 34.9435 5.05655 36.6666 7.17451 36.6666C9.29247 36.6666 11.0156 34.9435 11.0156 32.8255C11.0156 32.2793 10.8612 31.3227 9.52587 29.3289ZM7.17451 34.0625C6.49241 34.0625 5.93753 33.5076 5.93747 32.8286C5.93773 32.8234 5.97171 32.2903 6.99788 30.7616C7.05693 30.6737 7.11591 30.5873 7.17451 30.5031C7.23304 30.5873 7.29208 30.6737 7.35113 30.7616C8.35946 32.2638 8.40985 32.8046 8.41148 32.8278C8.41018 33.5088 7.85576 34.0625 7.17451 34.0625Z" fill="#697586"/>
</svg>
