<svg width="40" height="40" viewBox="0 0 40 40" fill="none" xmlns="http://www.w3.org/2000/svg">
<g clip-path="url(#clip0_78_6370)">
<path d="M36.975 28.3594V28.2594H36.875H32.1875C31.3797 28.2594 30.725 27.6047 30.725 26.7969C30.725 25.9891 31.3797 25.3344 32.1875 25.3344H36.875H36.975V25.2344V20.4688V20.3687H36.875H32.1875C31.3797 20.3687 30.725 19.7141 30.725 18.9062V14.7098V14.6684L30.6957 14.6391L27.7047 11.648L27.6754 11.6187H27.634H12.5223H12.4809L12.4516 11.648L9.38241 14.7172L9.35312 14.7465V14.7879V28.3322V28.374L9.38281 28.4033L14.3093 33.2754C15.1422 34.0993 16.2466 34.5531 17.4179 34.5531H30.625H30.725V34.4531V33.0469C30.725 32.2391 31.3797 31.5844 32.1875 31.5844C32.9953 31.5844 33.65 32.2391 33.65 33.0469V36.0156C33.65 36.8234 32.9953 37.4781 32.1875 37.4781H17.4179C15.471 37.4781 13.6368 36.7243 12.2523 35.3552L6.86231 30.0241L6.86226 30.0241C6.58438 29.7496 6.42812 29.3752 6.42812 28.9844V23.5938V23.4937H6.32812H3.125H3.025V23.5938V27.5C3.025 28.3078 2.37031 28.9625 1.5625 28.9625C0.754691 28.9625 0.1 28.3078 0.1 27.5V16.6406C0.1 15.8328 0.754691 15.1781 1.5625 15.1781C2.37031 15.1781 3.025 15.8328 3.025 16.6406V20.4688V20.5688H3.125H6.32812H6.42812V20.4688V14.1406C6.42812 13.7527 6.58209 13.3808 6.85629 13.1066L10.8407 9.12222C11.1152 8.84771 11.4871 8.69375 11.875 8.69375H18.5938H18.6938V8.59375V5.46875V5.36875H18.5938H14.6875C13.8797 5.36875 13.225 4.71406 13.225 3.90625C13.225 3.09844 13.8797 2.44375 14.6875 2.44375H25.625C26.4328 2.44375 27.0875 3.09844 27.0875 3.90625C27.0875 4.71406 26.4328 5.36875 25.625 5.36875H21.7188H21.6187V5.46875V8.59375V8.69375H21.7188H28.2812C28.6692 8.69375 29.0411 8.84771 29.3156 9.12222L33.2218 13.0285C33.496 13.3027 33.65 13.6746 33.65 14.0625V17.3438V17.4438H33.75H36.875H36.975V17.3438V15.7812C36.975 14.9734 37.6297 14.3188 38.4375 14.3188C39.2453 14.3188 39.9 14.9734 39.9 15.7812V29.9219C39.9 30.7297 39.2453 31.3844 38.4375 31.3844C37.6297 31.3844 36.975 30.7297 36.975 29.9219V28.3594ZM17.6724 30.5647L17.6723 30.5647C17.5525 30.5652 17.454 30.5333 17.3881 30.4827C17.3247 30.434 17.287 30.3651 17.2875 30.2745C17.2877 30.2323 17.2985 30.1807 17.3264 30.1197L17.3264 30.1197L17.3276 30.1168L19.4272 25.1168L19.4855 24.9781H19.335H16.1963C15.0621 24.9781 14.3491 23.7768 14.8992 22.7964L14.9001 22.7949L17.8496 17.3099L17.8496 17.3099C17.9604 17.1037 18.1758 16.975 18.41 16.975H22.2208C22.7142 16.975 23.0201 17.5125 22.7678 17.9368L21.013 20.8864L20.9231 21.0375H21.0989H24.7174C25.6117 21.0375 26.0856 22.0906 25.5029 22.7676L18.1304 30.383C18.1302 30.3832 18.13 30.3834 18.1298 30.3836C18.0166 30.4961 17.8402 30.5641 17.6724 30.5647ZM17.2354 30.0781C17.2028 30.1495 17.1878 30.2151 17.1875 30.274C17.1863 30.52 17.3996 30.6659 17.6727 30.6647L17.2354 30.0781Z" fill="#697586" stroke="white" stroke-width="0.2"/>
</g>
<defs>
<clipPath id="clip0_78_6370">
<rect width="40" height="40" fill="white"/>
</clipPath>
</defs>
</svg>
