<svg width="40" height="40" viewBox="0 0 40 40" fill="none" xmlns="http://www.w3.org/2000/svg">
<path d="M30.3077 14.956H32.3846C34.1648 14.956 35.6484 13.4725 35.6484 11.5934V5.36264C35.6484 3.48352 34.1648 2 32.3846 2H30.3077C28.4286 2 26.9451 3.48352 26.9451 5.36264V7.24176H22.8901C22.1978 5.56044 20.3187 4.67033 18.5385 5.36264C17.6484 5.65934 17.0549 6.35165 16.6593 7.24176H12.7033V5.36264C12.7033 3.48352 11.2198 2 9.43956 2H7.36264C5.48352 2 4 3.48352 4 5.36264V11.5934C4 13.4725 5.48352 14.956 7.36264 14.956H9.43956C11.3187 14.956 12.8022 13.4725 12.8022 11.5934V9.71429H16.8571C17.1538 10.6044 17.8462 11.1978 18.7363 11.5934V18.8132C16.956 18.9121 15.5714 20.3956 15.5714 22.1758V24.2527C15.5714 26.033 16.956 27.5165 18.7363 27.6154V30.3846H12.7033V28.5055C12.7033 26.6264 11.2198 25.1429 9.34066 25.1429H7.36264C5.48352 25.1429 4 26.6264 4 28.5055V34.6374C4 36.5165 5.48352 38 7.26374 38H9.34066C11.2198 38 12.7033 36.5165 12.7033 34.6374V32.7582H26.9451V34.6374C26.9451 36.5165 28.4286 38 30.3077 38H32.3846C34.1648 38 35.6484 36.5165 35.6484 34.6374V28.4066C35.6484 26.5275 34.1648 25.044 32.2857 25.044H30.2088C28.3297 25.044 26.8462 26.5275 26.8462 28.4066V30.2857H21.011V27.5165C22.7912 27.4176 24.1758 25.9341 24.1758 24.1538V22.0769C24.1758 20.2967 22.7912 18.8132 21.011 18.7143V11.4945C21.8022 11.1978 22.4945 10.5055 22.8901 9.61538H26.9451V11.4945C26.9451 13.4725 28.4286 14.956 30.3077 14.956ZM30.3077 4.47253H32.3846C32.8791 4.47253 33.2747 4.86813 33.2747 5.26374V11.4945C33.2747 11.989 32.8791 12.3846 32.3846 12.3846H30.3077C29.8132 12.3846 29.4176 11.989 29.4176 11.4945V5.36264C29.4176 4.86813 29.8132 4.47253 30.3077 4.47253ZM19.8242 7.63736C20.3187 7.53846 20.7143 7.93407 20.7143 8.42857C20.8132 8.92308 20.4176 9.31868 19.9231 9.31868C19.8242 9.31868 19.8242 9.31868 19.7253 9.31868C19.2308 9.31868 18.8352 8.92308 18.8352 8.52747C18.9341 8.03297 19.3297 7.63736 19.8242 7.63736ZM17.9451 22.1758C17.9451 21.6813 18.3407 21.2857 18.7363 21.2857H20.8132C21.3077 21.2857 21.7033 21.6813 21.7033 22.1758V24.2527C21.7033 24.7473 21.3077 25.1429 20.8132 25.1429H18.8352C18.3407 25.1429 17.9451 24.7473 17.9451 24.3516V22.1758ZM6.47253 5.36264C6.47253 4.86813 6.86813 4.57143 7.26374 4.57143H9.34066C9.83517 4.57143 10.2308 4.96703 10.2308 5.36264V11.5934C10.2308 12.0879 9.83517 12.4835 9.34066 12.4835H7.36264C6.86813 12.4835 6.47253 12.0879 6.47253 11.5934V5.36264ZM6.47253 28.4066C6.47253 27.9121 6.86813 27.5165 7.26374 27.5165H9.34066C9.83517 27.5165 10.2308 27.9121 10.2308 28.4066V34.6374C10.2308 35.1319 9.83517 35.5275 9.34066 35.4286H7.36264C6.86813 35.4286 6.57143 35.033 6.57143 34.6374L6.47253 28.4066ZM30.3077 27.6154H32.3846C32.8791 27.6154 33.2747 28.011 33.2747 28.5055V34.6374C33.2747 35.1319 32.8791 35.4286 32.3846 35.4286H30.3077C29.8132 35.4286 29.4176 35.033 29.4176 34.6374V28.4066C29.4176 27.9121 29.8132 27.6154 30.3077 27.6154Z" fill="#697586"/>
<path d="M32.3846 2H30.3077C28.4286 2 26.9451 3.48352 26.9451 5.36264V7.24176H22.8901C22.1978 5.56044 20.3187 4.67033 18.5385 5.36264C17.6484 5.65934 17.0549 6.35165 16.6593 7.24176H12.7033V5.36264C12.7033 3.48352 11.2198 2 9.43956 2H7.36264C5.48352 2 4 3.48352 4 5.36264V11.5934C4 13.4725 5.48352 14.956 7.36264 14.956H9.43956C11.3187 14.956 12.8022 13.4725 12.8022 11.5934V9.71429H16.8571C17.2527 10.6044 17.9451 11.2967 18.8352 11.5934C19.3297 11.6923 19.8242 11.6923 20.4176 11.6923H20.9121H21.011C21.9011 11.3956 22.5934 10.7033 22.8901 9.81319H26.9451V11.5934C26.9451 13.4725 28.4286 14.956 30.3077 14.956H32.3846C34.1648 14.956 35.6484 13.4725 35.6484 11.5934V5.36264C35.6484 3.48352 34.1648 2 32.3846 2ZM19.8242 7.63736C20.3187 7.53846 20.7143 7.93407 20.7143 8.42857C20.8132 8.92308 20.4176 9.31868 19.9231 9.31868C19.8242 9.31868 19.8242 9.31868 19.7253 9.31868C19.2308 9.31868 18.8352 8.92308 18.8352 8.52747C18.9341 8.03297 19.3297 7.63736 19.8242 7.63736Z" fill="#004EEB"/>
</svg>
