<svg width="40" height="40" viewBox="0 0 40 40" fill="none" xmlns="http://www.w3.org/2000/svg">
<path d="M30.1183 28.1178L22.3145 35.9216C21.9733 36.2635 21.5681 36.5347 21.122 36.7197C20.6759 36.9048 20.1977 37 19.7147 37C19.2318 37 18.7536 36.9048 18.3075 36.7197C17.8614 36.5347 17.4562 36.2635 17.115 35.9216L9.30932 28.1178C7.25163 26.06 5.85035 23.4382 5.28267 20.5841C4.715 17.7299 5.00643 14.7715 6.1201 12.0829C7.23378 9.39435 9.11969 7.09641 11.5393 5.47967C13.959 3.86293 16.8037 3 19.7138 3C22.6239 3 25.4686 3.86293 27.8883 5.47967C30.308 7.09641 32.1939 9.39435 33.3075 12.0829C34.4212 14.7715 34.7127 17.7299 34.145 20.5841C33.5773 23.4382 32.176 26.06 30.1183 28.1178Z" stroke="#697586" stroke-width="2.6" stroke-linecap="round" stroke-linejoin="round"/>
<path d="M23.6149 21.6143C24.1507 21.1075 24.5795 20.4984 24.8758 19.8231C25.1722 19.1478 25.3302 18.4199 25.3405 17.6824C25.3507 16.945 25.213 16.213 24.9356 15.5297C24.6581 14.8463 24.2464 14.2256 23.7249 13.7041C23.2034 13.1826 22.5827 12.771 21.8994 12.4935C21.216 12.216 20.484 12.0783 19.7466 12.0885C19.0092 12.0988 18.2813 12.2568 17.6059 12.5532C16.9306 12.8496 16.3215 13.2783 15.8147 13.8141C14.8097 14.8548 14.2535 16.2485 14.2661 17.6953C14.2786 19.142 14.8589 20.5259 15.882 21.5489C16.905 22.5719 18.2889 23.1522 19.7356 23.1648C21.1823 23.1774 22.5761 22.6212 23.6167 21.6161L23.6149 21.6143Z" stroke="#697586" stroke-width="2.6" stroke-linecap="round" stroke-linejoin="round"/>
</svg>
