<svg width="40" height="40" viewBox="0 0 40 40" fill="none" xmlns="http://www.w3.org/2000/svg">
<path d="M32.5961 11.404C32.1182 10.9262 31.3682 10.8558 30.8096 11.2364C28.7055 12.6706 18.1513 19.8826 17.017 21.0168C15.3721 22.6618 15.3721 25.3382 17.017 26.9831C17.8394 27.8055 18.9199 28.2168 20.0001 28.2168C21.0804 28.2168 22.1608 27.8055 22.9833 26.9831C24.1175 25.8489 31.3295 15.2947 32.7638 13.1905C33.1442 12.632 33.0738 11.8819 32.5961 11.404ZM20.9944 24.9944C20.4462 25.5427 19.554 25.5427 19.0058 24.9944C18.4575 24.4461 18.4574 23.5542 19.0055 23.0059C19.4462 22.5704 22.4427 20.4333 26.1295 17.8706C23.5669 21.5574 21.4298 24.5538 20.9944 24.9944Z" fill="#697586"/>
<path d="M8.48499 30.5408L6.74898 31.3877C5.47871 29.1206 4.8125 26.5903 4.8125 24.0001C4.8125 22.1023 5.16245 20.2846 5.80109 18.6083L7.7903 19.5624C7.98648 19.6565 8.19355 19.7011 8.39752 19.7011C8.92156 19.7011 9.42465 19.4068 9.66645 18.9027C10.0023 18.2024 9.70695 17.3624 9.00664 17.0265L7.04267 16.0845C9.48371 12.1034 13.7072 9.32781 18.5938 8.87711V10.9922C18.5938 11.7689 19.2234 12.3984 20.0001 12.3984C20.7767 12.3984 21.4063 11.7689 21.4063 10.9922V8.87605C23.0817 9.02856 24.7029 9.45522 26.2418 10.1499C26.9495 10.4695 27.7825 10.1545 28.102 9.44685C28.4216 8.73894 28.1068 7.90609 27.3989 7.58652C25.0669 6.53387 22.5776 6.00006 20 6.00006C15.192 6.00006 10.6719 7.87234 7.27203 11.2721C3.87235 14.6719 2 19.1921 2 24.0001C2 27.553 3.05455 31.0084 5.04966 33.9925C5.3184 34.3944 5.7627 34.6173 6.21959 34.6173C6.4273 34.6173 6.63767 34.5713 6.83532 34.4749L9.71813 33.0686C10.4162 32.7281 10.706 31.8862 10.3655 31.1882C10.025 30.4902 9.18305 30.2004 8.48499 30.5408Z" fill="#697586"/>
<path d="M36.4134 16.6012C36.0939 15.8934 35.2612 15.5784 34.553 15.8981C33.8452 16.2177 33.5304 17.0505 33.85 17.7583C34.7375 19.7241 35.1874 21.8242 35.1874 24.0001C35.1874 26.5942 34.519 29.1286 33.245 31.3982L31.4326 30.5351C30.7315 30.2013 29.8923 30.4989 29.5583 31.2002C29.2244 31.9014 29.5222 32.7405 30.2234 33.0744L33.1765 34.4807C33.3708 34.5732 33.5767 34.6174 33.7804 34.6174C34.2374 34.6174 34.6818 34.3941 34.9502 33.9926C36.9453 31.0084 37.9999 27.5529 37.9999 24.0001C37.9999 21.4225 37.4661 18.9331 36.4134 16.6012Z" fill="#697586"/>
</svg>
