<svg width="40" height="40" viewBox="0 0 40 40" fill="none" xmlns="http://www.w3.org/2000/svg">
<path d="M20.0002 1.85H20C16.4103 1.85 12.9012 2.91448 9.91641 4.90883C6.93166 6.90317 4.60533 9.73782 3.23159 13.0543C1.85786 16.3708 1.49843 20.0201 2.19876 23.5409C2.89908 27.0616 4.6277 30.2957 7.16602 32.834C9.70434 35.3723 12.9384 37.1009 16.4591 37.8013C19.9799 38.5016 23.6292 38.1421 26.9457 36.7684C30.2622 35.3947 33.0968 33.0684 35.0912 30.0836C37.0855 27.0988 38.15 23.5897 38.15 20V19.9998C38.1444 15.1879 36.2304 10.5747 32.8279 7.17215C29.4253 3.76961 24.8121 1.8556 20.0002 1.85ZM19.9998 35.85C16.8651 35.85 13.8007 34.9204 11.1942 33.1788C8.5877 31.4372 6.55617 28.9617 5.35652 26.0655C4.15687 23.1693 3.84299 19.9824 4.45456 16.9078C5.06614 13.8332 6.5757 11.009 8.79237 8.79236C11.009 6.5757 13.8332 5.06613 16.9078 4.45455C19.9824 3.84298 23.1693 4.15686 26.0655 5.35651C28.9618 6.55616 31.4372 8.58769 33.1788 11.1942C34.9204 13.8007 35.85 16.865 35.85 19.9998C35.845 24.202 34.1735 28.2307 31.2021 31.2021C28.2307 34.1735 24.202 35.845 19.9998 35.85Z" fill="#697586" stroke="#697586" stroke-width="0.3"/>
<path d="M14.1536 24.15H11C10.695 24.15 10.4025 24.0289 10.1868 23.8132C9.97116 23.5975 9.85 23.305 9.85 23C9.85 22.695 9.97116 22.4025 10.1868 22.1868C10.4025 21.9712 10.695 21.85 11 21.85H14.792L15.8197 18.15H11C10.695 18.15 10.4025 18.0289 10.1868 17.8132C9.97116 17.5975 9.85 17.305 9.85 17C9.85 16.695 9.97116 16.4025 10.1868 16.1868C10.4025 15.9712 10.695 15.85 11 15.85H16.459L17.8915 10.6919L17.8915 10.6918C17.9732 10.3978 18.1684 10.1483 18.4341 9.99826C18.6998 9.84816 19.0142 9.80976 19.3082 9.89149C19.6022 9.97323 19.8517 10.1684 20.0018 10.4341C20.1518 10.6998 20.1903 11.0142 20.1085 11.3082C20.1085 11.3082 20.1085 11.3082 20.1085 11.3082L18.8464 15.85H23.459L24.8915 10.6919L24.8915 10.6918C24.932 10.5463 25.0007 10.4101 25.0938 10.2911C25.1869 10.1721 25.3025 10.0726 25.4341 9.99826C25.5656 9.92394 25.7105 9.87626 25.8605 9.85794C26.0105 9.83962 26.1626 9.85102 26.3082 9.89149C26.4537 9.93196 26.5899 10.0007 26.7089 10.0938C26.8279 10.1869 26.9274 10.3025 27.0018 10.4341C27.0761 10.5656 27.1238 10.7105 27.1421 10.8605C27.1604 11.0105 27.149 11.1626 27.1085 11.3082M14.1536 24.15L25.6907 15.85H25.8464M14.1536 24.15L12.8915 28.6919L12.8915 28.6919C12.851 28.8378 12.8397 28.9902 12.8583 29.1405C12.8769 29.2907 12.9249 29.4359 12.9997 29.5675C13.0745 29.6991 13.1746 29.8147 13.2941 29.9076C13.4137 30.0004 13.5504 30.0688 13.6965 30.1087L13.6969 30.1088C13.7954 30.1354 13.8969 30.1493 13.9989 30.15H14.0001C14.2513 30.1499 14.4955 30.0676 14.6955 29.9155C14.8955 29.7635 15.0402 29.5502 15.1075 29.3082L15.1075 29.3082L16.541 24.15H21.1536L19.8915 28.6919L19.8915 28.6919C19.851 28.8378 19.8397 28.9902 19.8583 29.1405C19.8769 29.2907 19.9249 29.4359 19.9997 29.5675C20.0745 29.6991 20.1746 29.8147 20.2941 29.9076C20.4137 30.0004 20.5504 30.0688 20.6965 30.1087L20.6969 30.1088C20.7954 30.1354 20.8969 30.1493 20.9989 30.15H21.0001C21.2513 30.1499 21.4955 30.0676 21.6955 29.9155C21.8955 29.7635 22.0402 29.5502 22.1075 29.3082L22.1075 29.3082L23.541 24.15H29C29.305 24.15 29.5975 24.0289 29.8132 23.8132C30.0288 23.5975 30.15 23.305 30.15 23C30.15 22.695 30.0288 22.4025 29.8132 22.1868C29.5975 21.9712 29.305 21.85 29 21.85H24.1803L25.208 18.15M14.1536 24.15L25.208 18.15M27.1085 11.3082L26.964 11.268L27.1085 11.3082L27.1085 11.3082ZM27.1085 11.3082L25.8464 15.85M25.8464 15.85H29C29.305 15.85 29.5975 15.9712 29.8132 16.1868C30.0288 16.4025 30.15 16.695 30.15 17C30.15 17.305 30.0288 17.5975 29.8132 17.8132C29.5975 18.0289 29.305 18.15 29 18.15H25.208M25.8464 15.85L25.8047 16H29C29.2652 16 29.5196 16.1054 29.7071 16.2929C29.8946 16.4804 30 16.7348 30 17C30 17.2652 29.8946 17.5196 29.7071 17.7071C29.5196 17.8947 29.2652 18 29 18L25.208 18.15M22.8197 18.15L21.792 21.85H17.1803L18.208 18.15H22.8197Z" fill="#697586" stroke="#697586" stroke-width="0.3"/>
</svg>
