<svg width="20" height="20" viewBox="0 0 20 20" fill="none" xmlns="http://www.w3.org/2000/svg">
<path d="M17.5 4.98307C14.725 4.70807 11.9333 4.56641 9.15 4.56641C7.5 4.56641 5.85 4.64974 4.2 4.81641L2.5 4.98307" stroke="#364152" stroke-width="1.5" stroke-linecap="round" stroke-linejoin="round"/>
<path d="M7.08337 4.14102L7.26671 3.04935C7.40004 2.25768 7.50004 1.66602 8.90837 1.66602H11.0917C12.5 1.66602 12.6084 2.29102 12.7334 3.05768L12.9167 4.14102" stroke="#364152" stroke-width="1.5" stroke-linecap="round" stroke-linejoin="round"/>
<path d="M15.7083 7.61719L15.1666 16.0089C15.075 17.3172 15 18.3339 12.675 18.3339H7.32496C4.99996 18.3339 4.92496 17.3172 4.83329 16.0089L4.29163 7.61719" stroke="#364152" stroke-width="1.5" stroke-linecap="round" stroke-linejoin="round"/>
<path d="M8.60828 13.75H11.3833" stroke="#364152" stroke-width="1.5" stroke-linecap="round" stroke-linejoin="round"/>
<path d="M7.91663 10.416H12.0833" stroke="#364152" stroke-width="1.5" stroke-linecap="round" stroke-linejoin="round"/>
</svg>
